<svg xmlns="http://www.w3.org/2000/svg" width="13.332" height="11.281" viewBox="0 0 13.332 11.281">
  <g id="Group_1541" data-name="Group 1541" transform="translate(-428 -400)">
    <g id="folder-white-shape" transform="translate(428 363.456)">
      <path id="Path_4163" data-name="Path 4163" d="M12.8,39.124a1.727,1.727,0,0,0-1.266-.529H6.153v-.256a1.727,1.727,0,0,0-.529-1.266,1.727,1.727,0,0,0-1.266-.529H1.795a1.727,1.727,0,0,0-1.266.529A1.727,1.727,0,0,0,0,38.339V46.03A1.727,1.727,0,0,0,.529,47.3a1.727,1.727,0,0,0,1.266.529h9.743a1.806,1.806,0,0,0,1.795-1.795V40.39A1.727,1.727,0,0,0,12.8,39.124Z" fill="#35c4ff"/>
    </g>
    <g id="info-sign" transform="translate(406 403)">
      <g id="Group_1536" data-name="Group 1536" transform="translate(27)">
        <path id="Path_4164" data-name="Path 4164" d="M29.512,0a.668.668,0,0,1,.718.7.939.939,0,0,1-.957.9.64.64,0,0,1-.705-.711A.919.919,0,0,1,29.512,0ZM28.039,7.145c-.378,0-.655-.233-.39-1.259l.434-1.819c.076-.291.088-.408,0-.408a2.854,2.854,0,0,0-.894.4L27,3.744a4.992,4.992,0,0,1,2.43-1.239c.378,0,.441.454.252,1.154l-.5,1.912c-.088.338-.05.454.038.454a1.946,1.946,0,0,0,.85-.432l.214.291A3.929,3.929,0,0,1,28.039,7.145Z" transform="translate(-27)" fill="#fff"/>
      </g>
    </g>
  </g>
</svg>
