<svg xmlns="http://www.w3.org/2000/svg" width="10.922" height="15.534" viewBox="0 0 10.922 15.534">
  <g id="placeholder_2_" data-name="placeholder (2)" transform="translate(-76.001)">
    <g id="Group_1445" data-name="Group 1445" transform="translate(76)">
      <g id="Group_1444" data-name="Group 1444">
        <path id="Path_4131" data-name="Path 4131" d="M81.461,0a5.462,5.462,0,0,0-4.646,8.333l4.335,6.986a.455.455,0,0,0,.387.215h0a.455.455,0,0,0,.387-.221l4.225-7.054A5.462,5.462,0,0,0,81.461,0Zm3.91,7.792L81.53,14.2,77.589,7.853a4.554,4.554,0,1,1,7.782-.062Z" transform="translate(-76)" fill="#484c55"/>
      </g>
    </g>
    <g id="Group_1447" data-name="Group 1447" transform="translate(78.731 2.731)">
      <g id="Group_1446" data-name="Group 1446">
        <path id="Path_4132" data-name="Path 4132" d="M168.731,90a2.731,2.731,0,1,0,2.731,2.731A2.734,2.734,0,0,0,168.731,90Zm0,4.557a1.826,1.826,0,1,1,1.823-1.826A1.828,1.828,0,0,1,168.731,94.557Z" transform="translate(-166 -90)" fill="#484c55"/>
      </g>
    </g>
  </g>
</svg>
