<svg xmlns="http://www.w3.org/2000/svg" width="17.609" height="21.344" viewBox="0 0 17.609 21.344">
  <g id="cloudconnection" transform="translate(-3.5)">
    <g id="Group_15" data-name="Group 15" transform="translate(3.5)">
      <path id="Path_4083" data-name="Path 4083" d="M9.583,13.66a.535.535,0,0,0-.534.534v1.761a.9.9,0,0,1-.48.854.481.481,0,0,1-.267.053H6.915a1.883,1.883,0,0,0-.427-.694,2.238,2.238,0,0,0-.747-.48,1.326,1.326,0,0,0-.427-.053,1.681,1.681,0,1,0,0,3.362,1.814,1.814,0,0,0,1.654-1.121H8.409a1.714,1.714,0,0,0,1.6-1.227,1.7,1.7,0,0,0,.16-.747V14.14a.323.323,0,0,0-.16-.32A.852.852,0,0,0,9.583,13.66ZM5.261,17.982a.694.694,0,1,1,.694-.694A.706.706,0,0,1,5.261,17.982Zm14.087-2.348a1.714,1.714,0,0,0-1.6,1.227H16.306a.677.677,0,0,1-.32-.053.969.969,0,0,1-.427-.854V14.194a.535.535,0,0,0-.534-.534.484.484,0,0,0-.374.16.461.461,0,0,0-.16.32V15.9a1.7,1.7,0,0,0,.16.747,1.767,1.767,0,0,0,1.6,1.227h1.441a1.738,1.738,0,0,0,3.362-.587A1.747,1.747,0,0,0,19.348,15.635Zm0,2.348a.694.694,0,1,1,.694-.694A.746.746,0,0,1,19.348,17.982ZM7.182,13.127H17a4.6,4.6,0,0,0,4.109-4.482,4.6,4.6,0,0,0-3.255-4.376,5.13,5.13,0,0,0-9.5-1.708,1.645,1.645,0,0,0-.534-.053A2.79,2.79,0,0,0,5.047,5.283,2.189,2.189,0,0,0,5.1,5.87,3.844,3.844,0,0,0,3.5,9.018,4.43,4.43,0,0,0,7.182,13.127ZM5.955,6.51a.494.494,0,0,0,.213-.64,1.918,1.918,0,0,1-.107-.587A1.777,1.777,0,0,1,7.822,3.522a1.918,1.918,0,0,1,.587.107c.053,0,.107.053.16.053a.56.56,0,0,0,.48-.267,4.111,4.111,0,0,1,3.682-2.348,4.062,4.062,0,0,1,4.055,3.682.567.567,0,0,0,.427.48,3.445,3.445,0,0,1,2.775,3.415,3.644,3.644,0,0,1-3.095,3.468H7.128a2.682,2.682,0,0,1-1.494-.64A3.234,3.234,0,0,1,4.514,9.018,3.163,3.163,0,0,1,5.955,6.51Zm6.883,11.419V14.194a.547.547,0,0,0-.534-.534.535.535,0,0,0-.534.534v3.789a1.665,1.665,0,0,0-1.174,1.6,1.69,1.69,0,0,0,.48,1.227,1.714,1.714,0,0,0,1.174.534H12.3a1.756,1.756,0,0,0,1.708-1.708,1.69,1.69,0,0,0-.48-1.227A1.625,1.625,0,0,0,12.838,17.929ZM12.3,20.277a.485.485,0,0,1-.427-.213.745.745,0,0,1-.16-.48c0-.374.053-.64.694-.64a.54.54,0,0,1,.374.213.8.8,0,0,1,.213.48A.7.7,0,0,1,12.3,20.277Z" transform="translate(-3.5)" fill="#fff"/>
    </g>
  </g>
</svg>
