<svg xmlns="http://www.w3.org/2000/svg" width="22.889" height="22.889" viewBox="0 0 22.889 22.889">
  <g id="noun_connection_2662147" transform="translate(0.002 -0.018)">
    <path id="Path_4084" data-name="Path 4084" d="M5.184,16.645A5.185,5.185,0,0,0,9.5,14.335l3.249,1.856a5.186,5.186,0,1,0,5.314-3.646V10.372a5.184,5.184,0,1,0-5.314-3.646L9.5,8.583a5.185,5.185,0,1,0-4.313,8.062Zm16.988,1.073A4.471,4.471,0,1,1,17.7,13.247a4.471,4.471,0,0,1,4.471,4.471ZM17.7.729A4.471,4.471,0,1,1,13.231,5.2,4.471,4.471,0,0,1,17.7.729ZM9.852,9.2l3.154-1.8a5.194,5.194,0,0,0,4.337,2.972v2.173a5.194,5.194,0,0,0-4.337,2.972l-3.154-1.8A5.18,5.18,0,0,0,9.852,9.2ZM5.184,6.988A4.471,4.471,0,1,1,.713,11.459,4.471,4.471,0,0,1,5.184,6.988Z" transform="translate(0 0)" fill="#fff"/>
    <path id="Path_4085" data-name="Path 4085" d="M84.358,28.075h4.649a.358.358,0,0,0,.358-.358V25.044a.926.926,0,0,0-.745-.873,2.341,2.341,0,0,1-.7.685h.45c.167,0,.284.1.284.188V27.36H84.715V25.044c0-.089.116-.188.284-.188h.45a2.341,2.341,0,0,1-.7-.685.926.926,0,0,0-.745.873v2.673a.358.358,0,0,0,.358.358Z" transform="translate(-68.981 -19.835)" fill="#fff"/>
    <path id="Path_4086" data-name="Path 4086" d="M91.609,11.219A1.609,1.609,0,1,0,90,9.609a1.609,1.609,0,0,0,1.609,1.609Zm0-2.5a.894.894,0,1,1-.894.894A.894.894,0,0,1,91.609,8.715Z" transform="translate(-73.908 -6.555)" fill="#fff"/>
    <path id="Path_4087" data-name="Path 4087" d="M88.366,94.856c.167,0,.284.1.284.188V97.36H84.715V95.044c0-.089.116-.188.284-.188h.45a2.34,2.34,0,0,1-.7-.685.926.926,0,0,0-.745.873v2.673a.358.358,0,0,0,.358.358h4.649a.358.358,0,0,0,.358-.358V95.044a.926.926,0,0,0-.745-.873,2.34,2.34,0,0,1-.7.685Z" transform="translate(-68.981 -77.317)" fill="#fff"/>
    <path id="Path_4088" data-name="Path 4088" d="M90,79.61A1.609,1.609,0,1,0,91.609,78,1.609,1.609,0,0,0,90,79.61Zm2.5,0a.894.894,0,1,1-.894-.894A.894.894,0,0,1,92.5,79.61Z" transform="translate(-73.908 -64.038)" fill="#fff"/>
    <path id="Path_4089" data-name="Path 4089" d="M14.358,63.075h4.649a.358.358,0,0,0,.358-.358V60.044a.926.926,0,0,0-.745-.873,2.341,2.341,0,0,1-.7.685h.45c.167,0,.284.1.284.188V62.36H14.715V60.044c0-.089.116-.188.284-.188h.45a2.341,2.341,0,0,1-.7-.685.926.926,0,0,0-.745.873v2.673a.358.358,0,0,0,.358.358Z" transform="translate(-11.499 -48.576)" fill="#fff"/>
    <path id="Path_4090" data-name="Path 4090" d="M21.609,46.219A1.609,1.609,0,1,0,20,44.609,1.609,1.609,0,0,0,21.609,46.219Zm0-2.5a.894.894,0,1,1-.894.894A.894.894,0,0,1,21.609,43.715Z" transform="translate(-16.426 -35.297)" fill="#fff"/>
  </g>
</svg>
