<svg xmlns="http://www.w3.org/2000/svg" width="75.143" height="75.186" viewBox="0 0 75.143 75.186">
  <g id="noun_add_account_2226808" data-name="noun_add account_2226808" transform="translate(-2 -1.984)">
    <g id="Group_1430" data-name="Group 1430" transform="translate(2 1.984)">
      <path id="Path_4114" data-name="Path 4114" d="M77.143,39.6a37.571,37.571,0,1,0-66.716,23.67V63.4c.3.349.617.644.912.993S12.44,65.63,13,66.221s1.047.966,1.583,1.449L15.875,68.8l1.771,1.315,1.369.939a21.26,21.26,0,0,0,1.852,1.127c.483.3.993.564,1.53.832s1.208.617,1.852.886l1.771.751c.617.215,1.181.456,1.8.644l2.12.59a16.263,16.263,0,0,0,1.637.429,24.446,24.446,0,0,0,2.684.429l1.315.215a39.606,39.606,0,0,0,4,.215,35.719,35.719,0,0,0,3.784-.188l1.261-.188a12.817,12.817,0,0,0,2.442-.376,13.849,13.849,0,0,0,1.637-.429c.537-.161,1.288-.3,1.932-.483l1.959-.7c.483-.188.966-.322,1.449-.537h0A37.571,37.571,0,0,0,77.143,39.6ZM49.608,70.193l-1.1.322L46.683,71l-1.073.215a17.887,17.887,0,0,0-2.04.322H42.6a28.313,28.313,0,0,1-3.033.268,22.851,22.851,0,0,1-3.328-.161l-1.073-.188A7.711,7.711,0,0,1,33,71.132l-1.476-.376c-.537-.161-1.1-.268-1.637-.456s-1.154-.4-1.718-.617L26.9,69.119l-1.8-.859-1.047-.537c-.59-.322-1.154-.7-1.744-1.047l-.939-.617c-.564-.376-1.073-.778-1.61-1.208s-.644-.483-.939-.751-.966-.832-1.422-1.288a10.332,10.332,0,0,1-.939-.939l-.564-.59a18.786,18.786,0,0,1,34.4,8.668ZM55.3,67.67a24.153,24.153,0,0,0-42.8-10.735A32.2,32.2,0,1,1,55.432,67.67Z" transform="translate(-2 -1.984)" fill="#35c1fa"/>
      <path id="Path_4115" data-name="Path 4115" d="M23.1,6A16.1,16.1,0,1,0,39.2,22.1,16.1,16.1,0,0,0,23.1,6Zm0,26.837A10.735,10.735,0,1,1,33.837,22.1,10.735,10.735,0,0,1,23.1,32.837Z" transform="translate(6.418 4.778)" fill="#35c1fa"/>
      <path id="Path_4116" data-name="Path 4116" d="M37.786,20.051H32.418V14.684a2.684,2.684,0,1,0-5.367,0v5.367H21.684a2.684,2.684,0,0,0,0,5.367h5.367v5.367a2.684,2.684,0,1,0,5.367,0V25.418h5.367a2.684,2.684,0,0,0,0-5.367Z" transform="translate(26.622 14.88)" fill="#4ccb8a"/>
    </g>
  </g>
</svg>
