<svg xmlns="http://www.w3.org/2000/svg" width="22.019" height="20.955" viewBox="0 0 22.019 20.955">
  <g id="Group_1487" data-name="Group 1487" transform="translate(-71.993 -73.482)">
    <g id="Dropbox" transform="translate(71.993 58.283)">
      <path id="Path_4110" data-name="Path 4110" d="M22.019,19.4c-2.18-1.415-4.326-2.8-6.477-4.2-.069.047-.133.09-.194.138-.817.6-1.638,1.2-2.456,1.8v.9h.421q1.058-.774,2.107-1.552a.214.214,0,0,1,.3-.017Q18,17.959,20.29,19.445c.039.026.077.056.133.1L19.146,20.7c-.658.6-1.316,1.191-1.97,1.793a.186.186,0,0,1-.275.03l-2.924-1.983-.495.839c.882.6,1.763,1.191,2.645,1.789a.547.547,0,0,1,.069.06c-.077.056-.133.095-.189.138q-2.4,1.626-4.8,3.247a.3.3,0,0,1-.4,0Q8.42,24.992,6.021,23.38c-.065-.043-.125-.09-.2-.146.065-.047.112-.09.163-.125C6.876,22.5,7.771,21.9,8.67,21.294l-.49-.839L5.152,22.5c-.095.065-.168.133-.292.017C3.784,21.53,2.7,20.55,1.6,19.548c.069-.047.112-.082.159-.112,1.514-.989,3.028-1.97,4.537-2.954.095-.065.163-.1.28-.013q1.064.787,2.133,1.574h.615v-.757c-.748-.55-1.5-1.1-2.249-1.651-.194-.142-.391-.284-.589-.43C4.318,16.6,2.172,18,0,19.406c1.4,1.273,2.778,2.52,4.171,3.789C2.778,24.24,1.411,25.267.026,26.308c.1.065.168.112.241.163C1.531,27.314,2.791,28.157,4.06,29a.314.314,0,0,1,.163.31c-.009.774,0,1.548-.009,2.322a.363.363,0,0,0,.2.357q3.225,2.051,6.446,4.116a.246.246,0,0,0,.305,0q3.238-2.077,6.485-4.137a.3.3,0,0,0,.159-.292c-.009-.8,0-1.591,0-2.387A.3.3,0,0,1,17.95,29c.456-.3.907-.6,1.359-.9.886-.589,1.776-1.183,2.692-1.789-1.4-1.054-2.765-2.077-4.154-3.122C19.245,21.922,20.625,20.67,22.019,19.4ZM1.785,26.308c-.017-.013-.034-.026-.073-.06.619-.464,1.217-.916,1.819-1.363.43-.323.86-.641,1.29-.968a.188.188,0,0,1,.262-.013q2.5,1.7,5,3.38c.022.017.043.034.077.065-.06.047-.112.095-.168.138-.955.718-1.914,1.436-2.868,2.155-.095.073-.168.12-.3.034Q4.3,27.985,1.785,26.308Zm15.026,4.941c0,.065-.1.142-.176.189-1.729,1.11-3.466,2.206-5.186,3.329a.661.661,0,0,1-.873,0c-1.716-1.127-3.453-2.223-5.191-3.324a.366.366,0,0,1-.194-.361c.009-.43,0-.86,0-1.333.615.409,1.2.8,1.793,1.191.606-.456,1.2-.9,1.806-1.355.675-.507,1.355-1.011,2.021-1.527a.26.26,0,0,1,.383.009c1.217.92,2.438,1.832,3.651,2.757a.245.245,0,0,0,.348,0c.516-.357,1.045-.7,1.613-1.079C16.819,30.282,16.828,30.763,16.811,31.249Zm3.324-5.126c.052.039.1.082.163.133-.052.039-.095.073-.138.1Q17.7,28,15.228,29.65c-.1.069-.172.116-.3.022-.985-.748-1.978-1.488-2.972-2.232-.034-.026-.065-.056-.1-.09.073-.052.133-.1.2-.142q2.406-1.619,4.8-3.247a.276.276,0,0,1,.387,0C18.208,24.683,19.176,25.4,20.135,26.123Z" fill="#35c4ff"/>
    </g>
    <g id="dollar_2_" data-name="dollar (2)" transform="translate(-139.785 28.023)">
      <g id="Group_1486" data-name="Group 1486" transform="translate(220.242 45.744)">
        <g id="Group_1485" data-name="Group 1485" transform="translate(0 0)">
          <path id="Path_4151" data-name="Path 4151" d="M224.662,50.55a3.759,3.759,0,0,0-1.227-.542c-.058-.016-.115-.03-.173-.045V47.386a1.958,1.958,0,0,1,.919.348,1.046,1.046,0,0,1,.31.377,1.106,1.106,0,0,1,.1.481.422.422,0,1,0,.844,0,1.949,1.949,0,0,0-.185-.845,2,2,0,0,0-.952-.926,3.224,3.224,0,0,0-1.039-.284v-.371a.422.422,0,1,0-.844,0v.348a2.945,2.945,0,0,0-.824.176,2.085,2.085,0,0,0-1.044.836,2.016,2.016,0,0,0-.308,1.067,1.7,1.7,0,0,0,.8,1.5,4.124,4.124,0,0,0,1.214.484l.167.042v2.772a1.725,1.725,0,0,1-.937-.357,1.1,1.1,0,0,1-.395-.869.422.422,0,0,0-.844,0,1.95,1.95,0,0,0,.694,1.514,2.586,2.586,0,0,0,1.482.565v.367a.422.422,0,1,0,.844,0v-.382a3.027,3.027,0,0,0,1.306-.4,1.8,1.8,0,0,0,.639-.672,2.246,2.246,0,0,0-.008-2A1.871,1.871,0,0,0,224.662,50.55Zm-2.244-.8a2.971,2.971,0,0,1-.982-.4.841.841,0,0,1-.255-.294.988.988,0,0,1-.1-.457,1.164,1.164,0,0,1,.328-.807,1.31,1.31,0,0,1,.48-.306,2.079,2.079,0,0,1,.523-.117v2.385Zm2.047,3.006a.918.918,0,0,1-.237.281,1.6,1.6,0,0,1-.616.282,3,3,0,0,1-.349.062V50.838a3.574,3.574,0,0,1,.686.26,1.232,1.232,0,0,1,.472.4,1.169,1.169,0,0,1,.173.669A1.218,1.218,0,0,1,224.465,52.753Z" transform="translate(-220.242 -45.744)" fill="#35c4ff"/>
        </g>
      </g>
    </g>
  </g>
</svg>
