<svg xmlns="http://www.w3.org/2000/svg" width="70.078" height="88.866" viewBox="0 0 70.078 88.866">
  <g id="noun_Select_User_692992" data-name="noun_Select User_692992" transform="translate(-19.338 -11.654)">
    <g id="Group_1523" data-name="Group 1523" transform="translate(19.337 11.654)">
      <g id="Group_1522" data-name="Group 1522">
        <g id="Group_1521" data-name="Group 1521">
          <path id="Path_4162" data-name="Path 4162" d="M68.934,3.631c-3.87-5-9.693-6.835-15.873-9.4a12.323,12.323,0,0,1-6.9-6.57,7.837,7.837,0,0,1,2-8.515L41.039-31.318h-21.7V-33.61c0-6.8,2.589-11.828,6.954-15.084,4.262-3.18,9.957-4.48,15.924-4.48s11.663,1.3,15.924,4.48a16.54,16.54,0,0,1,5.344,6.725h8.154a5.276,5.276,0,0,1,.811,0H84.5l-.117-.461a7.153,7.153,0,0,0-2.919-4.02c-2.111-1.457-5.232-2.227-8.994-2.227a18.512,18.512,0,0,0-7.279,1.286,2.294,2.294,0,0,1-3.015-1.192A2.294,2.294,0,0,1,63.37-51.6a23.054,23.054,0,0,1,9.1-1.664c4.274,0,8.435.857,11.6,3.037a12.185,12.185,0,0,1,5.26,10.548v2.292h-10.2c6.93,8.279,7.087,21.518,10.053,27.574A2.3,2.3,0,0,1,88.4-6.9L72.027,4.13A2.293,2.293,0,0,1,68.934,3.631ZM71.122-.789,84.281-9.652l-.4-1.127c-2.454-7.463-3.012-18.054-8.775-24.248a9.1,9.1,0,0,0-2.836-2.328c-.153-.051-.41-.17-1.345.466-.059.04-.114.079-.165.119L73.07-33.3a2.292,2.292,0,0,1-.637,3.179,2.292,2.292,0,0,1-3.179-.637l-3.081-4.623c-.73-1.155-1.127-1.425-1.237-1.482a3.545,3.545,0,0,0-1.35.687,2.11,2.11,0,0,0-.928,1.077l2.581,3.872a2.293,2.293,0,0,1-.637,3.179,2.293,2.293,0,0,1-3.179-.637l-3.079-4.625c-.73-1.155-1.127-1.425-1.237-1.482a3.562,3.562,0,0,0-1.352.687,2.464,2.464,0,0,0-.841.866l4.267,6.308a2.3,2.3,0,0,1-.615,3.183,2.3,2.3,0,0,1-3.183-.615L44.49-40.475a5.246,5.246,0,0,0-1.158-1.441l-.082-.049-.073.012a4.35,4.35,0,0,0-1.278.676,2.054,2.054,0,0,0-.939,1.116c-.042.18-.072.571.445,1.237l.084.116L57.324-15.527a2.293,2.293,0,0,1-.606,3.185,2.293,2.293,0,0,1-3.185-.606l-2.7-3.971a3.046,3.046,0,0,0-.384,2.966A7.808,7.808,0,0,0,54.815-10c4.891,2.028,11.127,4.043,15.83,8.674ZM37.921-35.9,37.7-36.23l-.333-.473a5.792,5.792,0,0,1-.872-4.493,6.568,6.568,0,0,1,2.826-3.873,7.08,7.08,0,0,1,4.034-1.483,4.43,4.43,0,0,1,1.438.265,7.471,7.471,0,0,1,3.537,3.3l3.929,5.812a7.989,7.989,0,0,1,.921-.727,7.075,7.075,0,0,1,4.037-1.483,4.472,4.472,0,0,1,1.434.264,4.816,4.816,0,0,1,.892.433c.066-.075.133-.148.2-.221A12.062,12.062,0,0,0,55.4-45.019C52.206-47.4,47.609-48.59,42.215-48.59S32.223-47.4,29.033-45.019a12.459,12.459,0,0,0-4.9,8.512l-.076.605ZM62.809-66.052a9.662,9.662,0,0,1,9.66-9.659,9.663,9.663,0,0,1,9.66,9.659,9.662,9.662,0,0,1-9.66,9.659A9.661,9.661,0,0,1,62.809-66.052ZM29.033-71.642c0-7.012,6.166-12.7,13.18-12.7a12.711,12.711,0,0,1,12.705,12.7,12.71,12.71,0,0,1-12.705,12.7C35.2-58.938,29.033-64.628,29.033-71.642Zm48.513,5.589a5.078,5.078,0,0,0-5.076-5.075,5.077,5.077,0,0,0-5.076,5.075,5.076,5.076,0,0,0,5.076,5.075A5.077,5.077,0,0,0,77.545-66.052ZM50.334-71.642a8.126,8.126,0,0,0-8.121-8.12,8.125,8.125,0,0,0-8.121,8.12,8.124,8.124,0,0,0,8.121,8.12A8.125,8.125,0,0,0,50.334-71.642Z" transform="translate(-19.337 84.346)" fill="#35c1fa" fill-rule="evenodd"/>
        </g>
      </g>
    </g>
  </g>
</svg>
