<svg id="Layer_1" data-name="Layer 1" xmlns="http://www.w3.org/2000/svg" xmlns:xlink="http://www.w3.org/1999/xlink" viewBox="0 0 250.62 94.08"><defs><style>.cls-1{fill:#4f9e45;}.cls-2{fill:#424242;}.cls-3{fill:url(#linear-gradient);}.cls-4{fill:url(#linear-gradient-2);}</style><linearGradient id="linear-gradient" y1="85.8" x2="32.76" y2="85.8" gradientUnits="userSpaceOnUse"><stop offset="0" stop-color="#424242" stop-opacity="0"/><stop offset="1" stop-color="#424242"/></linearGradient><linearGradient id="linear-gradient-2" x1="220.44" y1="90.8" x2="251.63" y2="90.8" gradientTransform="translate(463.62 176.59) rotate(180)" xlink:href="#linear-gradient"/></defs><title>Ultimate_Software_UltiPro_Logo_Process</title><path class="cls-1" d="M8.44,5H17V45.71c0,11.06,6.16,20.17,18,20.17s18-9.11,18-20.17V5h8.57V48.2c0,14.64-11.07,25.71-26.78,25.71C19.51,73.91,8.44,62.84,8.44,48.2Z" transform="translate(-8.44 -5)"/><polygon class="cls-1" points="69.08 0.1 69.08 64.27 69.08 67.93 61.05 67.93 61.05 0.1 69.08 0.1"/><polygon class="cls-1" points="81.14 10.18 89.17 10.18 89.17 21.43 96.58 21.43 96.58 28.48 89.17 28.48 89.17 62.44 94.09 62.44 94.08 67.93 81.14 67.93 81.14 28.48 74.71 28.48 74.71 21.43 81.14 21.43 81.14 10.18"/><path class="cls-1" d="M151.49,5H132.72V72.94h13.07V67.44h-4.5V49.79h10.19c14.39,0,23-11,23-22.35S165.88,5,151.49,5ZM149.7,42.28h-8.4V12.51h8.4c10.28,0,16.18,5.1,16.18,14.93S160,42.28,149.7,42.28Z" transform="translate(-8.44 -5)"/><path class="cls-1" d="M187,33h-.18V26.37h-8V72.94h12.94V67.44h-4.91v-21c0-8.49,4.47-13.14,11.17-13.14a16.91,16.91,0,0,1,3.67.44V25.29C194.9,25.29,191.05,25.74,187,33Z" transform="translate(-8.44 -5)"/><path class="cls-1" d="M226.42,25.29c14.66,0,25.21,11.27,25.21,24.41,0,13.31-10,24.31-25.21,24.31S201.21,63,201.21,49.7C201.21,36.56,211.76,25.29,226.42,25.29ZM209.79,49.7c0,8.93,7.69,16.8,16.63,16.8s16.63-7.87,16.63-16.8a16.63,16.63,0,1,0-33.26,0Z" transform="translate(-8.44 -5)"/><path class="cls-2" d="M123.86,18.12a5.41,5.41,0,1,1-5.41-5.41,5.41,5.41,0,0,1,5.41,5.41m-1.28,33.7h3.8V29.87a3.49,3.49,0,0,0-3.48-3.55h-8.73a3.55,3.55,0,0,0-3.56,3.55v22h3.79V72.88h8.17Z" transform="translate(-8.44 -5)"/><rect class="cls-3" y="84.84" width="32.76" height="1.91"/><rect class="cls-4" x="211.99" y="84.84" width="31.19" height="1.91"/><path class="cls-2" d="M51.28,95.44a3.06,3.06,0,0,1-1.89.63,1.84,1.84,0,0,1-1.84-.95l-.19.86H46.3l2.22-10.46h1.06l-.87,4.07A2.9,2.9,0,0,1,51,88.67a2.07,2.07,0,0,1,1.63.63,3.82,3.82,0,0,1,.22,3.07A5.24,5.24,0,0,1,51.28,95.44Zm-.74-5.83c-1.58,0-2.11,1.35-2.41,2.76s-.34,2.76,1.23,2.76,2.1-1.35,2.4-2.76S52.11,89.61,50.54,89.61Z" transform="translate(-8.44 -5)"/><path class="cls-2" d="M55.65,97.73a2.89,2.89,0,0,1-.7.86,2.42,2.42,0,0,1-1.52.49H53l.2-.94h.33c.73,0,1-.23,1.38-.89l.81-1.41-1.1-7.09h1.14l.75,5.81,3.2-5.81h1.15Z" transform="translate(-8.44 -5)"/><path class="cls-2" d="M69.6,96.07a3.64,3.64,0,0,1-3.85-3.67V85.52h2v6.81a1.82,1.82,0,1,0,3.63,0V85.52h2V92.4A3.63,3.63,0,0,1,69.6,96.07Z" transform="translate(-8.44 -5)"/><path class="cls-2" d="M75.88,96V85.52h2v8.64h4.75V96Z" transform="translate(-8.44 -5)"/><path class="cls-2" d="M86.71,87.34V96h-2V87.34H81.93V85.52h7.51v1.82Z" transform="translate(-8.44 -5)"/><path class="cls-2" d="M91.25,96V85.52h2V96Z" transform="translate(-8.44 -5)"/><path class="cls-2" d="M103.61,96V89.89l-2,4h-1.38l-2-4V96h-2V85.52h2l2.73,5.66,2.72-5.66h2V96Z" transform="translate(-8.44 -5)"/><path class="cls-2" d="M114.2,96l-.62-1.85h-3.72L109.23,96H107.1l3.81-10.46h1.6L116.33,96Zm-2.44-7.37-1.33,3.8H113Z" transform="translate(-8.44 -5)"/><path class="cls-2" d="M120.89,87.34V96h-2V87.34h-2.73V85.52h7.51v1.82Z" transform="translate(-8.44 -5)"/><path class="cls-2" d="M125.72,96V85.52h6.89v1.82h-4.85V89.8h4.13v1.82h-4.13v2.54h4.85V96Z" transform="translate(-8.44 -5)"/><path class="cls-2" d="M142.37,96.07a4.93,4.93,0,0,1-3.82-1.38l1.33-1.32a3.41,3.41,0,0,0,2.52.88c1.21,0,1.86-.46,1.86-1.29a1.15,1.15,0,0,0-.33-.88,1.46,1.46,0,0,0-.92-.37l-1.27-.18a3.47,3.47,0,0,1-2-.87,2.73,2.73,0,0,1-.75-2c0-1.87,1.38-3.18,3.64-3.18A4.52,4.52,0,0,1,146,86.65l-1.29,1.28a2.93,2.93,0,0,0-2.15-.72c-1.09,0-1.62.6-1.62,1.32a1,1,0,0,0,.31.75,1.86,1.86,0,0,0,1,.42l1.24.17a3.47,3.47,0,0,1,2,.81,3,3,0,0,1,.8,2.22C146.25,94.93,144.56,96.07,142.37,96.07Z" transform="translate(-8.44 -5)"/><path class="cls-2" d="M154.66,94.93a4.07,4.07,0,0,1-5.65,0c-1.06-1.06-1-2.37-1-4.18s0-3.11,1-4.17a4,4,0,0,1,5.65,0c1.06,1.06,1.05,2.37,1.05,4.17S155.72,93.87,154.66,94.93Zm-1.51-7.12a1.85,1.85,0,0,0-2.63,0c-.4.45-.5.93-.5,2.94s.1,2.5.5,2.94a1.82,1.82,0,0,0,2.63,0c.4-.44.51-.92.51-2.94S153.55,88.26,153.15,87.81Z" transform="translate(-8.44 -5)"/><path class="cls-2" d="M160,87.34v2.58h4.13v1.82H160V96h-2V85.52h6.89v1.82Z" transform="translate(-8.44 -5)"/><path class="cls-2" d="M171.35,87.34V96h-2V87.34h-2.73V85.52h7.51v1.82Z" transform="translate(-8.44 -5)"/><path class="cls-2" d="M185.69,96H184l-1.93-6.34L180.14,96h-1.71l-2.79-10.46h2.13l1.62,6.6,1.91-6.6h1.52l1.92,6.6,1.63-6.6h2.13Z" transform="translate(-8.44 -5)"/><path class="cls-2" d="M195.41,96l-.62-1.85h-3.72L190.44,96h-2.13l3.81-10.46h1.6L197.54,96ZM193,88.61l-1.32,3.8h2.6Z" transform="translate(-8.44 -5)"/><path class="cls-2" d="M204.24,96l-2-4.17h-1.47V96h-2V85.52h4.1a3.16,3.16,0,0,1,3.39,3.21,2.8,2.8,0,0,1-1.91,2.74L206.61,96Zm-1.59-8.64h-1.92v2.77h1.92a1.39,1.39,0,1,0,0-2.77Z" transform="translate(-8.44 -5)"/><path class="cls-2" d="M208.45,96V85.52h6.89v1.82h-4.85V89.8h4.13v1.82h-4.13v2.54h4.85V96Z" transform="translate(-8.44 -5)"/><path class="cls-1" d="M254.61,33.83a4.46,4.46,0,1,1,4.45-4.45A4.45,4.45,0,0,1,254.61,33.83Zm0-7.91A3.46,3.46,0,1,0,258,29.38,3.35,3.35,0,0,0,254.61,25.92Zm.8,5.82-.87-1.83H254v1.83H253V27h1.93a1.5,1.5,0,0,1,1.58,1.49,1.35,1.35,0,0,1-.87,1.26l1,2Zm-.63-3.87H254V29.1h.74a.62.62,0,0,0,.65-.61A.62.62,0,0,0,254.78,27.87Z" transform="translate(-8.44 -5)"/></svg>