<svg xmlns="http://www.w3.org/2000/svg" width="54" height="54" viewBox="0 0 54 54">
  <g id="cancel_1_" data-name="cancel (1)" transform="translate(0)">
    <circle id="Ellipse_129" data-name="Ellipse 129" cx="27" cy="27" r="27" fill="#e24c4b"/>
    <path id="Path_4129" data-name="Path 4129" d="M97.649,70.775A26.954,26.954,0,0,1,70.773,97.65a26.446,26.446,0,0,1-21-10.078,26.516,26.516,0,0,0,16.8,5.879A26.954,26.954,0,0,0,93.449,66.576a26.516,26.516,0,0,0-5.879-16.8A26.445,26.445,0,0,1,97.649,70.775Z" transform="translate(-43.898 -43.9)" fill="#d1403f"/>
    <path id="Path_4130" data-name="Path 4130" d="M142.614,142.614a2.636,2.636,0,0,1-3.7,0l-8.566-8.566-8.566,8.566a2.613,2.613,0,0,1-3.7-3.7l8.566-8.566-8.566-8.566a2.613,2.613,0,0,1,3.7-3.7l8.566,8.566,8.566-8.566a2.613,2.613,0,0,1,3.7,3.7l-8.566,8.566,8.566,8.566A2.636,2.636,0,0,1,142.614,142.614Z" transform="translate(-103.477 -103.477)" fill="#fff"/>
  </g>
</svg>
