<?xml version="1.0" encoding="utf-8"?>
<!-- Generator: Adobe Illustrator 19.0.0, SVG Export Plug-In . SVG Version: 6.00 Build 0)  -->
<svg version="1.1" id="Layer_1" xmlns="http://www.w3.org/2000/svg" xmlns:xlink="http://www.w3.org/1999/xlink" x="0px" y="0px"
	 viewBox="0 0 150 150" style="enable-background:new 0 0 150 150;" xml:space="preserve">
<style type="text/css">
	.st0{fill:#FFFFFF;}
	.st1{fill:#FFFFFF;}
</style>
<g>
	<g>
		<path class="st0" d="M37.3,83.2c0.3,0.4,0.5,0.8,1,1.4c3.4-5.7,7.4-11.3,11.9-16.7l1.2-1.4c1.4-1.4,3-3.1,4.9-5.1h-1V12.6H28.6V73
			C32.1,76.1,33.9,78.3,37.3,83.2z"/>
		<path class="st0" d="M132.2,22.9V12.6h-26.8v17.6C113.4,27.2,122.3,24.6,132.2,22.9z"/>
		<path class="st0" d="M105.5,46.2v15.3v22v53.9h26.8V34.6C123.1,37.6,114.1,41.3,105.5,46.2z"/>
		<path class="st0" d="M51,112.3c0,0.1-0.1,0.1-0.1,0.3c-0.8,1.5-1.6,3-2.3,4.6c-1.6,3.4-3.4,6.8-5.6,9.8c-0.7,1.4-1.6,2.7-2.9,4.2
			c-1.6,1.9-3.3,2.3-4.4,2.3c-1.2,0-3.1-0.5-4.8-2.9c-1.4-2-2-4.2-2.3-6v12.7h26.8V103C53.9,106,52.5,109,51,112.3z"/>
	</g>
	<path class="st1" d="M38.6,91.8c0.7-1.4,1.4-2.6,2-3.8c3.5-6.3,7.6-12.2,12.4-17.5c8.7-9.1,36-40.4,96.4-46.3c0.1,0,0.4,0,0.5,0
		c0,0.1,0.1,0.1,0.1,0.3c-1.1,0.7-2.2,1.5-3.4,2C109,36.8,74.7,51,47.6,110.9c-2.6,4.9-4.8,10.2-7.9,14.3c-0.5,1.4-1.5,2.6-2.5,3.7
		c-1.2,1.4-2.2,1.2-3.3-0.3c-1-1.5-1.5-3.1-1.8-4.9c-4.5-28.4-16.5-41.2-21.4-47c-2.9-3.3-5.9-6.4-8.9-9.6c-0.5-0.7-1.1-1.4-1.5-2.2
		c-0.5-1-0.1-1.5,1-1.4c1.6,0.1,3.3,0.3,4.8,0.7c6.6,1.6,12.2,4.9,17.3,9.3c5.3,4.5,6.8,6.1,10.8,11.9c1.4,1.9,2.6,4,4,6
		C38.3,91.5,38.4,91.7,38.6,91.8z"/>
</g>
</svg>
