<?xml version="1.0" encoding="utf-8"?>
<!-- Generator: Adobe Illustrator 19.2.0, SVG Export Plug-In . SVG Version: 6.00 Build 0)  -->
<svg version="1.1" id="Layer_1" xmlns="http://www.w3.org/2000/svg" xmlns:xlink="http://www.w3.org/1999/xlink" x="0px" y="0px"
	 viewBox="0 0 40 40" style="enable-background:new 0 0 40 40;" xml:space="preserve">
<style type="text/css">
	.st0{fill:#25CDED;}
</style>
<g>
	<g>
		<g>
			<path class="st0" d="M29.6,5.8c0,0-0.1,0-0.2,0c-2.3,0-4.5,0-6.8,0c-0.2,0-0.3,0.1-0.3,0.2c-0.6,1.7-1.2,3.4-1.8,5.1
				c-0.1,0.4-0.3,0.8-0.4,1.2h4.4c0.5,1.3,0.9,2.5,1.4,3.7h-0.3c-2.3,0-4.5,0-6.8,0c-0.2,0-0.2,0.1-0.3,0.2c-1.1,3-2.2,5.9-3.2,8.9
				c-1.2,3-2.3,5.9-3.3,8.8c0,0.1-0.1,0.2-0.1,0.3c0.1,0,0.1,0,0.2,0c2.4,0,4.8,0,7.2,0c0.2,0,0.2-0.1,0.3-0.2
				c1.9-5.1,3.7-10.2,5.6-15.4c0.3-0.7,0.5-1.4,0.8-2.1c0,0,0,0,0.1,0c0,0.2,0.1,0.3,0.1,0.5c0.4,1.2,0.9,2.3,1.3,3.5
				c1.6,4.5,3.3,9,4.9,13.5c0.1,0.2,0.1,0.3,0.3,0.3c2.4,0,4.7,0,7.1,0c0.1,0,0.2,0,0.2,0C36.5,24.7,33,15.3,29.6,5.8z M16.2,16.3
				c0-0.1,0-0.1,0-0.2c-0.1,0-0.1,0-0.1,0c-1.5,0-3,0-4.5,0c-0.2,0-0.2,0.1-0.2,0.2c-0.8,2.1-1.5,4.2-2.3,6.3
				C7.8,26,6.6,29.4,5.3,32.8c-0.2,0.4-0.3,0.8-0.5,1.3c0.1,0,0.1,0,0.2,0c1.5,0,3,0,4.5,0c0.1,0,0.2-0.1,0.2-0.2
				c0.2-0.5,0.3-0.9,0.5-1.4c0.8-2.2,1.6-4.4,2.4-6.5C13.8,22.8,15,19.5,16.2,16.3z M8.8,17.4C9,17,9.1,16.5,9.3,16.1H9.2
				c-1,0-2,0-2.9,0c-0.1,0-0.2,0.1-0.2,0.2c-0.7,2-1.4,3.9-2.2,5.9C2.6,25.8,1.3,29.3,0,32.9L2.8,34c0.8-2.2,1.6-4.4,2.4-6.6
				C6.4,24.1,7.6,20.7,8.8,17.4z"/>
		</g>
	</g>
</g>
</svg>
