<?xml version="1.0" encoding="utf-8"?>
<!-- Generator: Adobe Illustrator 19.0.0, SVG Export Plug-In . SVG Version: 6.00 Build 0)  -->
<svg version="1.1" id="Layer_1" xmlns="http://www.w3.org/2000/svg" xmlns:xlink="http://www.w3.org/1999/xlink" x="0px" y="0px"
	 viewBox="-345 223.3 150 150" style="enable-background:new -345 223.3 150 150;" xml:space="preserve">
<style type="text/css">
	.st0{fill:#424C5F;}
	.st1{fill:#FF6600;}
</style>
<g>
	<g>
		<path class="st0" d="M-307.7,306.5c0.3,0.4,0.5,0.8,1,1.4c3.4-5.7,7.4-11.3,11.9-16.7l1.2-1.4c1.4-1.4,3-3.1,4.9-5.1h-1v-48.8
			h-26.7v60.4C-312.9,299.4-311.1,301.6-307.7,306.5z"/>
		<path class="st0" d="M-212.8,246.2v-10.3h-26.8v17.6C-231.6,250.5-222.7,247.9-212.8,246.2z"/>
		<path class="st0" d="M-239.5,269.5v15.3v22v53.9h26.8V257.9C-221.9,260.9-230.9,264.6-239.5,269.5z"/>
		<path class="st0" d="M-294,335.6c0,0.1-0.1,0.1-0.1,0.3c-0.8,1.5-1.6,3-2.3,4.6c-1.6,3.4-3.4,6.8-5.6,9.8
			c-0.7,1.4-1.6,2.7-2.9,4.2c-1.6,1.9-3.3,2.3-4.4,2.3c-1.2,0-3.1-0.5-4.8-2.9c-1.4-2-2-4.2-2.3-6v12.7h26.8v-34.3
			C-291.1,329.3-292.5,332.3-294,335.6z"/>
	</g>
	<path class="st1" d="M-306.4,315.1c0.7-1.4,1.4-2.6,2-3.8c3.5-6.3,7.6-12.2,12.4-17.5c8.7-9.1,36-40.4,96.4-46.3c0.1,0,0.4,0,0.5,0
		c0,0.1,0.1,0.1,0.1,0.3c-1.1,0.7-2.2,1.5-3.4,2c-37.6,10.3-71.9,24.5-99,84.4c-2.6,4.9-4.8,10.2-7.9,14.3c-0.5,1.4-1.5,2.6-2.5,3.7
		c-1.2,1.4-2.2,1.2-3.3-0.3c-1-1.5-1.5-3.1-1.8-4.9c-4.5-28.4-16.5-41.2-21.4-47c-2.9-3.3-5.9-6.4-8.9-9.6c-0.5-0.7-1.1-1.4-1.5-2.2
		c-0.5-1-0.1-1.5,1-1.4c1.6,0.1,3.3,0.3,4.8,0.7c6.6,1.6,12.2,4.9,17.3,9.3c5.3,4.5,6.8,6.1,10.8,11.9c1.4,1.9,2.6,4,4,6
		C-306.7,314.8-306.6,315-306.4,315.1z"/>
</g>
</svg>
