<?xml version="1.0" encoding="utf-8"?>
<!-- Generator: Adobe Illustrator 19.2.0, SVG Export Plug-In . SVG Version: 6.00 Build 0)  -->
<svg version="1.1" id="Layer_1" xmlns="http://www.w3.org/2000/svg" xmlns:xlink="http://www.w3.org/1999/xlink" x="0px" y="0px"
	 viewBox="0 0 40 40" style="enable-background:new 0 0 40 40;" xml:space="preserve">
<style type="text/css">
	.st0{fill:#FFFFFF;}
</style>
<g>
	<g>
		<g>
			<path class="st0" d="M17.9,26.7h-4.2c-0.3,0-0.6,0.3-0.6,0.6v12.1c0,0.3,0.3,0.6,0.6,0.6h4.2c0.3,0,0.6-0.3,0.6-0.6V27.3
				C18.5,27,18.3,26.7,17.9,26.7z M17.3,38.8h-3V27.9h3V38.8z M4.5,29.9H0.4V40h4.2c0.3,0,0.6-0.3,0.6-0.6v-8.9
				C5.2,30.2,4.9,29.9,4.5,29.9z M1,38.8v-0.9l0.9,0.9H1z M2.9,38.8L2.9,38.8L1,36.9v-1l2.9,2.9H2.9z M3.9,37.9l-3-3v-1l3,3V37.9z
				 M3.9,36l-3-3v-1l3,3V36z M3.9,34l-2.9-2.9h1l1.9,1.9V34z M3.9,32.1L3,31.1h0.9V32.1z M11.2,21.8H7.1c-0.3,0-0.6,0.3-0.6,0.6v17
				c0,0.3,0.3,0.6,0.6,0.6h4.2c0.3,0,0.6-0.3,0.6-0.6v-17C11.8,22.1,11.6,21.8,11.2,21.8z M36.1,4.8C33.3,1.8,29.5,0,25.4,0
				c-0.8,0-1.5,0.7-1.5,1.5v12.8c0,0.8,0.7,1.5,1.5,1.5h12.7c0.8,0,1.5-0.7,1.5-1.5C39.6,10.8,38.4,7.4,36.1,4.8z M26.9,12.8V3.1
				c2.6,0.4,5.1,1.7,6.9,3.7c1.5,1.7,2.4,3.7,2.7,5.9H26.9z"/>
		</g>
	</g>
	<path class="st0" d="M34.8,20H21V5c0-0.8-1.1-1.5-2-1.5c-9.8,0-18,8.1-18,17.9C1,24,1.4,27,2.5,29h3.4c-1.3-2-2.1-4.9-2.1-7.6
		c0-7.6,6.2-14,13.2-14.8v14.7c0,0.8,0.7,1.8,1.6,1.8h14.7C32.5,30,27,35.7,19,36v3c10-0.3,17.3-8,17.3-17.6
		C36.3,20.5,35.6,20,34.8,20z"/>
</g>
</svg>
