<?xml version="1.0" encoding="utf-8"?>
<!-- Generator: Adobe Illustrator 19.2.0, SVG Export Plug-In . SVG Version: 6.00 Build 0)  -->
<svg version="1.1" id="Layer_1" xmlns="http://www.w3.org/2000/svg" xmlns:xlink="http://www.w3.org/1999/xlink" x="0px" y="0px"
	 viewBox="0 0 40 40" style="enable-background:new 0 0 40 40;" xml:space="preserve">
<style type="text/css">
	.st0{fill:#54A3F2;}
</style>
<g>
	<g>
		<g>
			<path class="st0" d="M22,34.5c-0.1-0.2-0.2-0.3-0.5-0.3c-4.3,0-8.5,0-12.8,0c-0.3,0-0.6,0-0.9-0.1C5.7,33.7,4.4,32,4.4,30
				c0-4.5,0-9,0-13.5c0-0.1,0-0.2,0-0.3H29v3.5c0.7-0.1,1.5-0.2,2.2-0.2s1.5,0.1,2.2,0.1V6.7h-3.9V7c0,1,0,2,0,3
				c0,2.7-2.3,4.7-5,4.4c-2.1-0.3-3.7-2.1-3.8-4.2c0-1.1,0-2.1,0-3.2V6.7h-8c0,0.8,0,1.6,0,2.3c0,0.6,0,1.2-0.1,1.7
				c-0.3,2.4-2.8,4.1-5.1,3.6C5.3,13.9,4,12.2,3.9,10c0-1,0-2,0-3c0-0.2-0.1-0.3-0.3-0.3c-1.2,0-2.4,0-3.6,0v24
				c0.1,0.5,0.2,1.1,0.3,1.6c1,3.4,3.3,5.4,6.8,6.1c0.4,0.1,0.8,0.1,1.3,0.2H25c0.1,0,0.3,0,0.4-0.1c-0.1-0.1-0.2-0.1-0.2-0.2
				C23.8,37.3,22.7,36,22,34.5z M39.8,28.1c-0.9-4.3-5.2-7.3-9.6-6.6c-4.1,0.6-7,3.8-7.4,7.8c-0.4,4.1,2.3,8,6.3,9
				c0.5,0.1,1.1,0.2,1.6,0.3H32c0.5-0.1,1.1-0.2,1.6-0.3c3.5-1.1,5.6-3.4,6.3-7c0-0.2,0.1-0.4,0.1-0.6v-1.3
				C39.9,28.9,39.9,28.5,39.8,28.1z M37.7,29.4c-0.2,0-0.5,0-0.7,0c-0.3,0-0.6,0.2-0.6,0.5s0.2,0.5,0.6,0.6c0.2,0,0.5,0,0.7,0
				c-0.1,2.8-2.7,5.6-5.8,5.8c0-0.2,0-0.5,0-0.7c0-0.3-0.2-0.6-0.5-0.6s-0.6,0.2-0.6,0.6c0,0.2,0,0.4,0,0.6c0,0,0,0,0,0.1
				c-1.4-0.1-2.6-0.7-3.7-1.6c-1.2-1.1-1.9-2.5-2.1-4.2c0.2,0,0.5,0,0.7,0c0.4,0,0.6-0.2,0.6-0.6c0-0.3-0.2-0.5-0.6-0.5
				c-0.2,0-0.4,0-0.7,0c0.1-1.4,0.6-2.5,1.5-3.6c1.2-1.4,3-2.2,4.3-2.2c0,0.2,0,0.4,0,0.7c0,0.4,0.2,0.6,0.6,0.6
				c0.3,0,0.5-0.2,0.6-0.6c0-0.2,0-0.4,0-0.6C35,23.6,37.9,26.8,37.7,29.4z M5.6,10.5c0.2,1.4,1.5,2.4,2.9,2.3
				c1.4-0.1,2.5-1.3,2.5-2.7c0-2,0-4,0-5.9c0-1.2-0.6-2-1.7-2.5C9.2,1.5,8.9,1.5,8.7,1.4H7.9c0,0,0,0-0.1,0C6.4,1.8,5.6,2.8,5.6,4.3
				c0,1.9,0,3.8,0,5.7C5.6,10.1,5.6,10.3,5.6,10.5z M22.3,10c0,0.2,0,0.3,0,0.5c0.2,1.4,1.5,2.4,2.9,2.3c1.4-0.1,2.5-1.3,2.5-2.7
				c0-2,0-4,0-6c0-1.2-0.8-2.2-1.9-2.6c-0.2,0-0.3-0.1-0.5-0.1h-0.7c0,0,0,0-0.1,0c-1.2,0.2-2.3,1.3-2.3,2.8
				C22.4,6.2,22.3,8.1,22.3,10z M10.5,26c-0.8,0-1.6,0-2.4,0c-0.9,0-1.5,0.6-1.5,1.5c0,0.8,0,1.7,0,2.5c0,0.9,0.6,1.4,1.5,1.4
				c0.4,0,0.8,0,1.2,0s0.8,0,1.2,0c0.9,0,1.5-0.6,1.5-1.5c0-0.8,0-1.7,0-2.5S11.4,26.1,10.5,26z M12,20.2c0-0.7-0.6-1.2-1.4-1.2
				c-0.4,0-0.9,0-1.3,0c-0.4,0-0.8,0-1.3,0c-0.8,0-1.4,0.6-1.5,1.4c0,0.9,0,1.8,0,2.6c0,0.8,0.6,1.4,1.4,1.4c0.9,0,1.8,0,2.7,0
				c0.7,0,1.3-0.5,1.3-1.2C12,22.2,12,21.2,12,20.2z M17.9,26.1c-0.8,0-1.6,0-2.5,0s-1.5,0.5-1.5,1.4s0,1.7,0,2.6s0.6,1.4,1.5,1.4
				c0.8,0,1.7,0,2.5,0c0.9,0,1.5-0.6,1.5-1.5c0-0.4,0-0.8,0-1.2c0-0.4,0-0.8,0-1.2C19.4,26.6,18.8,26.1,17.9,26.1z M19.4,20.3
				c0-0.8-0.6-1.3-1.4-1.3s-1.7,0-2.5,0c-0.9,0-1.5,0.6-1.5,1.4c0,0.9,0,1.7,0,2.6c0,0.8,0.6,1.4,1.4,1.4c0.9,0,1.8,0,2.7,0
				c0.7,0,1.3-0.6,1.3-1.3c0-0.5,0-0.9,0-1.4l0,0C19.4,21.2,19.4,20.8,19.4,20.3z M24.1,19c-0.4,0-0.8,0-1.2,0
				c-0.8,0-1.5,0.6-1.5,1.4c0,0.9,0,1.7,0,2.6c0,0.7,0.4,1.2,1,1.3c0.1,0,0.2,0,0.3-0.1c1-1.5,2.4-2.7,4-3.6c0.1,0,0.1-0.1,0.1-0.2
				c0.1-0.8-0.6-1.5-1.4-1.5C25,19,24.5,19,24.1,19z M34.6,29.1c-0.6,0-1.2,0-1.8,0c-0.1,0-0.3-0.1-0.4-0.2
				c-0.3-0.2-0.5-0.4-0.9-0.4c-0.2,0-0.3-0.1-0.4-0.2c-0.5-0.8-1.1-1.5-1.6-2.3c-0.2-0.3-0.5-0.5-0.8-0.4c-0.6,0.1-0.9,0.8-0.6,1.3
				c0.5,0.7,0.9,1.3,1.4,2c0.2,0.3,0.5,0.6,0.3,1.1l0,0c0,0.6,0.4,1.2,0.9,1.4c0.6,0.2,1.2,0.1,1.6-0.4c0.1-0.1,0.2-0.2,0.4-0.2
				c0.6,0,1.1,0,1.7,0c0.1,0,0.2,0,0.3,0c0.4-0.1,0.6-0.5,0.6-0.9C35.4,29.5,35,29.1,34.6,29.1z"/>
		</g>
	</g>
</g>
</svg>
