<?xml version="1.0" encoding="utf-8"?>
<!-- Generator: Adobe Illustrator 19.2.0, SVG Export Plug-In . SVG Version: 6.00 Build 0)  -->
<svg version="1.1" id="Layer_1" xmlns="http://www.w3.org/2000/svg" xmlns:xlink="http://www.w3.org/1999/xlink" x="0px" y="0px"
	 viewBox="0 0 20 20" style="enable-background:new 0 0 20 20;" xml:space="preserve">
<style type="text/css">
	.st0{fill:#fff;}
</style>
<path class="st0" d="M5.6,4.2c-0.2,0-0.3,0-0.5,0c0-0.1,0-0.2,0-0.2c0-0.4,0-1.8,0-2.2C4.9,1.1,4.4,0.6,3.8,0.4
	C3.1,0.3,2.5,0.6,2.1,1.2C2,1.5,1.9,1.8,1.9,2.1s0,1.8,0,2.1c-0.2,0-0.4,0-0.6,0c-0.4,0-0.7,0.2-1,0.5C0.2,4.8,0.1,5,0,5.4
	c0,0.1,0,0.2,0,0.4v0.1c0.2,0.7,0.6,1,1.3,1.1C1.6,7,1.8,7,2,7c0,0.1,0,0.2,0,0.2c0,1.5,0,2.9,0,4.4c0,1.7,0,4.6,0,6.3
	c0,1.4,1.4,2,2.4,1.4c0.5-0.3,0.7-0.8,0.7-1.4c0-3.2,0-7.5,0-10.7c0-0.1,0-0.2,0-0.2c0.1,0,0.3,0,0.4,0c0.5,0,1-0.2,1.3-0.7
	C7.3,5.4,6.7,4.2,5.6,4.2z M2.6,2.1c0-0.2,0-0.4,0.1-0.5c0.1-0.3,0.4-0.4,0.7-0.4c0.1,0,0.1,0,0.2,0c0.4,0,0.7,0.3,0.7,0.6
	c0,0.2,0,0.8,0,1.3c0,0.4,0,0.7,0,0.9v0.3H2.6V2.1z M4.4,17.9c0,0.5-0.2,0.7-0.4,0.8c-0.1,0.1-0.3,0.1-0.5,0.1S3,18.7,2.9,18.6
	c-0.2-0.2-0.2-0.4-0.2-0.7c0-1.2,0-2.9,0-4.5V6.7h1.7V17.9z M5.5,6.1c-0.7,0-1.4,0-2,0s-1.3,0-2,0C1,6.1,0.8,5.8,0.9,5.4
	C1,5.1,1.2,5,1.5,5c1.1,0,2.1,0,3.1,0c0.3,0,0.6,0,0.9,0c0.4,0,0.6,0.2,0.6,0.6S5.9,6.1,5.5,6.1z"/>
<path class="st0" d="M12.2,7.6c-0.2,0-0.4,0-0.6,0c0-0.1,0-0.2,0-0.2c0-1.3,0-3.8,0-5.1c0-0.1,0-0.3,0-0.4c-0.1-0.6-0.4-1.1-1-1.3
	C10,0.3,9.4,0.4,8.9,0.9C8.6,1.2,8.5,1.6,8.5,2.1c0,1.4,0,3.9,0,5.3c0,0.1,0,0.1,0,0.2c-0.3,0-0.5,0-0.7,0C7.1,7.7,6.6,8.2,6.6,8.9
	c-0.1,0.6,0.4,1.2,1,1.4c0.3,0.1,0.6,0.1,1,0.1c0,0.1,0,0.2,0,0.2c0,2,0,5.1,0,7.1c0,0.2,0,0.3,0,0.5c0.1,0.6,0.4,1.1,1,1.2
	c0.6,0.2,1.2,0.1,1.7-0.4c0.3-0.3,0.4-0.7,0.4-1.2c0-2,0-5.2,0-7.3c0-0.1,0-0.2,0-0.2c0.2,0,0.4,0,0.5,0c0.7,0,1.3-0.7,1.3-1.4
	C13.5,8.3,12.9,7.7,12.2,7.6z M9.2,2.1c0-0.4,0.1-0.6,0.2-0.7C9.7,1.1,9.9,1.1,10,1.1s0.2,0,0.4,0.1c0.3,0.1,0.5,0.3,0.5,0.7
	c0,0.1,0,0.2,0,0.4v5.5H9.2V2.1z M10.9,17.9c0,0.4-0.1,0.6-0.2,0.7c-0.3,0.3-0.5,0.3-0.6,0.3s-0.2,0-0.4-0.1s-0.5-0.2-0.5-0.7
	c0-0.1,0-0.2,0-0.4v-7.1c0-0.1,0-0.2,0-0.3v-0.2h1.7V17.9z M12,9.6c-0.7,0-1.4,0-2,0s-1.3,0-2,0c-0.4,0-0.7-0.3-0.6-0.7
	c0-0.2,0.2-0.4,0.5-0.4c0.1,0,0.2,0,0.2,0c1.3,0,2.5,0,3.8,0c0.1,0,0.2,0,0.3,0c0.3,0.1,0.4,0.3,0.4,0.6C12.6,9.4,12.4,9.6,12,9.6z"
	/>
<path class="st0" d="M18.6,14.8c-0.2,0-0.3,0-0.5,0c0-0.1,0-0.2,0-0.3c0-3.4,0-8.8,0-12.2c0-0.1,0-0.3,0-0.4
	c-0.1-1.1-1.3-1.7-2.2-1.2C15.2,1,15,1.5,15,2.1c0,3.5,0,9,0,12.4c0,0.1,0,0.2,0,0.2c-0.2,0-0.4,0-0.6,0c-0.7,0.1-1.3,0.7-1.3,1.4
	s0.5,1.3,1.3,1.4c0.2,0,0.4,0,0.6,0c0,0.5,0,1.1,0.4,1.4c0.3,0.4,0.7,0.6,1.2,0.6c0.4,0,0.7-0.1,1.1-0.4c0.4-0.4,0.5-1.1,0.5-1.6
	c0.2,0,0.3,0,0.5,0c0.7,0,1.2-0.4,1.4-0.9C20.2,15.7,19.6,14.8,18.6,14.8z M15.7,2.1c0-0.6,0.2-0.7,0.5-0.8c0.1-0.1,0.3-0.1,0.4-0.1
	c0.4,0,0.8,0.3,0.8,0.8c0,0.1,0,0.2,0,0.3v12.6h-1.7V2.1z M17.1,18.7c-0.2,0.1-0.3,0.2-0.5,0.2l0,0c-0.3,0-0.5-0.1-0.7-0.3
	c-0.1-0.1-0.2-0.4-0.2-1v-0.2h1.7v0.2C17.4,18.1,17.3,18.5,17.1,18.7z M19.1,16.4c-0.1,0.2-0.3,0.4-0.6,0.4c-0.7,0-1.3,0-2,0
	c-0.7,0-1.3,0-2,0c-0.2,0-0.3,0-0.5-0.2s-0.2-0.4-0.1-0.6c0.1-0.2,0.2-0.3,0.5-0.4h0.1c1.3,0,2.7,0,4,0C18.9,15.6,19.2,16,19.1,16.4
	z"/>
</svg>
