<?xml version="1.0" encoding="utf-8"?>
<!-- Generator: Adobe Illustrator 19.2.0, SVG Export Plug-In . SVG Version: 6.00 Build 0)  -->
<svg version="1.1" id="Layer_1" xmlns="http://www.w3.org/2000/svg" xmlns:xlink="http://www.w3.org/1999/xlink" x="0px" y="0px"
	 viewBox="0 0 40 40" style="enable-background:new 0 0 40 40;" xml:space="preserve">
<style type="text/css">
	.st0{fill:#626975;}
</style>
<g>
	<path class="st0" d="M14.8,30.1l2.6-2.6h-2.6V30.1z M14.8,30.1"/>
	<rect x="3.8" y="16.5" class="st0" width="10.4" height="0.9"/>
	<rect x="3.8" y="19.6" class="st0" width="10.4" height="0.9"/>
	<rect x="3.8" y="22.6" class="st0" width="10.4" height="0.9"/>
	<path class="st0" d="M36.9,30.1l2.6-2.6h-2.6V30.1z M36.9,30.1"/>
	<rect x="25.8" y="16.5" class="st0" width="10.4" height="0.9"/>
	<rect x="25.8" y="19.6" class="st0" width="10.4" height="0.9"/>
	<rect x="25.8" y="22.6" class="st0" width="10.4" height="0.9"/>
	<g>
		<path class="st0" d="M13.4,6.8l-1.1-2.2c2.3-1.3,4.9-2.1,7.7-2.1c3.7,0,7.2,1.3,9.8,3.5h2.2C29,2.9,24.7,1,20,1
			c-3.1,0-6,0.8-8.5,2.3l-1.1-2.6L7.9,6L13.4,6.8z"/>
		<path class="st0" d="M26.4,33.5l1.3,2.3c-2.3,1.3-4.9,2.1-7.7,2.1c-3.7,0-7.1-1.3-9.8-3.5H7.9c3.1,3.1,7.4,5,12.1,5
			c3.1,0,6-0.8,8.5-2.3l1.4,2.3l2.3-5L26.4,33.5z"/>
	</g>
	<path class="st0" d="M25.1,30.8c-2.8,0-3.5-0.6-3.5-3.5V12.7c0-2.8,0.6-3.5,3.5-3.5h11.4c2.8,0,3.5,0.6,3.5,3.5v14.5h-1.3V12.7
		c0-2.1-0.1-2.2-2.2-2.2H25.1c-2.1,0-2.2,0.1-2.2,2.2v14.7c0,2.1,0.1,2.2,2.2,2.2h11.2v1.3H25.1z"/>
	<path class="st0" d="M3.5,30.8c-2.8,0-3.5-0.6-3.5-3.5V12.7c0-2.8,0.6-3.5,3.5-3.5h11.4c2.8,0,3.5,0.6,3.5,3.5v14.5h-1.3V12.7
		c0-2.1-0.1-2.2-2.2-2.2H3.5c-2.1,0-2.2,0.1-2.2,2.2v14.7c0,2.1,0.1,2.2,2.2,2.2h11.2v1.3H3.5z"/>
</g>
</svg>
