<?xml version="1.0" encoding="utf-8"?>
<!-- Generator: Adobe Illustrator 19.2.0, SVG Export Plug-In . SVG Version: 6.00 Build 0)  -->
<svg version="1.1" id="Layer_1" xmlns="http://www.w3.org/2000/svg" xmlns:xlink="http://www.w3.org/1999/xlink" x="0px" y="0px"
	 viewBox="0 0 100 100" style="enable-background:new 0 0 100 100;" xml:space="preserve">
<style type="text/css">
	.st0{fill:#FFFFFF;}
</style>
<g>
	<path class="st0" d="M86.7,95.7c0,2.4-2,4.4-4.4,4.4H7.1c-2.4,0-4.4-2-4.4-4.4s2-4.4,4.4-4.4h75.2C84.8,91.3,86.7,93.3,86.7,95.7
		L86.7,95.7z M86.7,95.7"/>
	<path class="st0" d="M74.7,0H14.6C12.2,0,10,2.7,10,5.1v88.4c0,2.4,2.2,5.5,4.6,5.5h60.2c2.4,0,3.3-3.1,3.3-5.5V5.1
		C78,2.7,77.2,0,74.7,0z M47,83c2.4-8.1,0.3-15.3,0.3-15.3c0,6-1.7,10.2-3.5,15.3c-6.9-0.8-12.2-6.6-12.2-13.7
		c0-10.2,8.5-13.3,13.8-26.1c0,0,13.8,12.1,13.8,26.1C59.1,76.4,53.8,82.2,47,83z M69,37.7c0,1.7-1,2.3-2.7,2.3H23
		c-1.7,0-3-0.6-3-2.3V12.6c0-1.7,1.3-3.6,3-3.6h43.2C68,9,69,10.9,69,12.6V37.7z"/>
	<path class="st0" d="M95.3,83h-9.4C84.8,83,84,82.1,84,81V44.9h-6.1c-1.1,0-1.9-0.9-1.9-1.9c0-1.1,0.9-1.9,1.9-1.9h8.1
		c1.1,0,1.9,0.9,1.9,1.9v36.1h5.5V14.6L83.7,5c-0.8-0.8-0.8-2,0-2.7c0.8-0.8,2-0.8,2.7,0l10.2,10.2c0.4,0.4,0.6,0.9,0.6,1.4V81
		C97.2,82.1,96.4,83,95.3,83L95.3,83z M95.3,83"/>
	<path class="st0" d="M96.2,20.3c-1,1-2.5,1-3.5,0L87,14.6c-1-1-1-2.5,0-3.5l2-2c1-1,2.5-1,3.5,0l3.8,3.8L96.2,20.3z M96.2,20.3"/>
	<path class="st0" d="M48.4,17.7c0,0.9-0.7,1.6-1.6,1.6H25.9c-0.9,0-1.6-0.7-1.6-1.6c0-0.9,0.7-1.6,1.6-1.6h20.9
		C47.7,16.1,48.4,16.8,48.4,17.7L48.4,17.7z M48.4,17.7"/>
	<path class="st0" d="M65.2,16.1H55.2c-0.9,0-1.6,0.7-1.6,1.6c0,0.9,0.7,1.6,1.6,1.6h10.1c0.9,0,1.6-0.7,1.6-1.6
		C66.9,16.8,66.1,16.1,65.2,16.1L65.2,16.1z M65.2,16.1"/>
	<path class="st0" d="M48.4,25.5c0,0.9-0.7,1.6-1.6,1.6H25.9c-0.9,0-1.6-0.7-1.6-1.6c0-0.9,0.7-1.6,1.6-1.6h20.9
		C47.7,23.8,48.4,24.6,48.4,25.5L48.4,25.5z M48.4,25.5"/>
	<path class="st0" d="M48.4,33.6c0,0.9-0.7,1.6-1.6,1.6H25.9c-0.9,0-1.6-0.7-1.6-1.6c0-0.9,0.7-1.6,1.6-1.6h20.9
		C47.7,31.9,48.4,32.7,48.4,33.6L48.4,33.6z M48.4,33.6"/>
</g>
</svg>
