<?xml version="1.0" encoding="utf-8"?>
<!-- Generator: Adobe Illustrator 19.2.0, SVG Export Plug-In . SVG Version: 6.00 Build 0)  -->
<svg version="1.1" id="Layer_1" xmlns="http://www.w3.org/2000/svg" xmlns:xlink="http://www.w3.org/1999/xlink" x="0px" y="0px"
	 viewBox="0 0 20 20" style="enable-background:new 0 0 20 20;" xml:space="preserve">
<style type="text/css">
	.st0{fill:#484D55;}
</style>
<g>
	<path class="st0" d="M10,0c5.5,0,10,4.5,10,10s-4.5,10-10,10S0,15.5,0,10S4.5,0,10,0z M9.2,2.1c0-0.3,0-0.3,0-0.6
		C9.2,1.1,9,0.9,8.6,1C7.8,1.2,7.1,1.4,6.3,1.6C5.9,1.8,5.8,2,6,2.5c0.1,0.2,0.1,0.3-0.1,0.4C5.7,3,5.6,3,5.5,2.8
		C5.2,2.4,5,2.3,4.6,2.6C4,3.1,3.5,3.7,2.9,4.2C2.6,4.5,2.7,4.8,3.1,5.1c0.5,0.3,0.3,0.2,0.8,0.5c0.2,0.1,0.3,0.2,0.3,0.3
		C4.2,6,4,6.4,3.9,6.6c0,0,0,0,0,0C3.7,6.9,3.5,6.9,3.2,6.8C2.7,6.5,2.8,6.5,2.4,6.3C1.9,6,1.6,6.2,1.4,6.7C1.2,7.4,1.1,8.1,0.9,8.9
		c-0.1,0.6,0,0.7,0.6,0.8c0.2,0,0.3,0.6-0.1,0.6s-0.6,0.2-0.5,0.6c0.2,0.8,0.3,1.6,0.6,2.3c0.1,0.5,0.5,0.7,0.9,0.5
		c0.4-0.3,0.6-0.4,1-0.7c0.2-0.2,0.4-0.1,0.5,0c0,0,0.3,0.5,0.3,0.6c0,0.1-0.1,0.2-0.2,0.3c-0.5,0.3-0.6,0.3-1.1,0.6
		c-0.4,0.2-0.3,0.7,0,1c3.6,4.5,10.6,4.5,14.2,0c0.3-0.4,0.3-0.8,0-1c-0.5-0.3-0.7-0.4-1.2-0.7c-0.3-0.2-0.4-0.4-0.2-0.7
		c0.1-0.2,0.1-0.1,0.2-0.3c0.2-0.4,0.3-0.4,0.7-0.2c0.5,0.3,0.7,0.4,1.1,0.6c0.5,0.3,0.7,0.2,0.9-0.3c0.2-0.7,0.4-1.4,0.5-2.1
		c0.1-0.6,0-0.7-0.6-0.8c-0.2,0-0.2-0.1-0.3-0.3c0-0.3,0.1-0.4,0.4-0.4c0.4,0,0.6-0.2,0.5-0.6c-0.2-0.8-0.4-1.6-0.6-2.4
		c-0.1-0.5-0.5-0.7-0.9-0.5c-0.5,0.3-0.5,0.3-1,0.6c-0.1,0.1-0.3,0.1-0.4,0c-0.1,0-0.3-0.3-0.4-0.5c-0.2-0.3-0.1-0.5,0.2-0.7
		C16.5,5,16.5,5,17,4.7c0.4-0.2,0.5-0.5,0.1-0.8c-0.5-0.6-1.1-1.1-1.7-1.6C15,2,14.8,2.1,14.5,2.5C14.3,3,14.2,3,14,2.9
		s-0.2-0.2-0.1-0.5c0.2-0.4,0.2-0.7-0.3-0.8c-0.7-0.2-1.5-0.5-2.2-0.7c-0.5-0.1-1,0-1,0.5c0,0.6,0,0.5,0,1.1C10.4,2.9,10.3,3,10,3
		C9.8,3,9.8,3,9.6,3C9.3,3,9.2,3,9.2,2.6C9.2,2.4,9.2,2.4,9.2,2.1z"/>
	<path class="st0" d="M11.9,13.6c0-0.2,0.1-0.5,0.2-0.8c-0.2-0.1-0.4-0.1-0.6-0.1c0,0,0,0,0-0.1c0.3,0,0.6,0,0.9,0
		c-0.1,0.2-0.1,0.3-0.1,0.4c-0.2,0.6-0.2,1.1,0.2,1.6c0.1,0.2,0.2,0.4,0,0.6c-0.1,0.1-0.4,0.1-0.5,0.1c-0.2-0.1-0.3-0.3-0.2-0.5
		s0.1-0.4,0.1-0.7c0.1-0.3-0.2-0.7-0.5-0.9c0,0.1,0,0.2,0,0.2c0,0.8,0,1.6,0,2.4c0,0.1,0,0.3,0.2,0.3c0.1,0,0.1,0.2,0.1,0.4
		c-1.1,0-2.2,0-3.3,0c0-0.2-0.1-0.4,0.2-0.4c0-1.5,0-2.9,0-4.3c0.9,0,1.8,0,2.7,0c0,0.4,0,0.8,0,1.1C11.5,13.3,11.7,13.4,11.9,13.6z
		 M11,12.3c-0.7,0-1.4,0-2,0c0,0.4,0,0.8,0,1.2c0.7,0,1.3,0,2,0c0-0.3,0-0.6,0-0.9C11,12.5,11,12.4,11,12.3z M12,14.3
		c-0.1,0.3-0.1,0.5-0.1,0.7c0,0.1,0.1,0.2,0.1,0.3c0.1,0,0.2,0,0.3,0c0.1-0.1,0.1-0.2,0.1-0.3C12.3,14.7,12.1,14.6,12,14.3z"/>
	<path class="st0" d="M6.1,4.1c1,1,1.9,2,2.8,3c0.6,0.7,1.3,1.4,1.9,2c0.3,0.4,0.5,0.8,0.3,1.3s-0.6,0.7-1.1,0.7s-0.8-0.3-1-0.7
		c-1-2-2-4.1-2.9-6.1C6.1,4.3,6.1,4.2,6.1,4.1z M10,9.1c-0.5,0-0.9,0.4-0.9,1c0,0.4,0.4,0.8,0.9,0.8s0.9-0.4,0.9-0.9
		C10.9,9.5,10.5,9.1,10,9.1z"/>
	<path class="st0" d="M5.3,16.1c0.3,0,0.6,0,0.9,0c0,0.1,0,0.3,0,0.4c-0.5,0-0.9,0-1.4,0c0-0.7,0-1.5,0-2.2c0.5,0,0.9,0,1.4,0
		c0,0.1,0,0.2,0,0.4c-0.3,0-0.6,0-0.9,0c0,0.2,0,0.3,0,0.5c0.3,0,0.5,0,0.8,0c0,0.2,0,0.3,0,0.4c-0.3,0-0.5,0-0.8,0
		C5.3,15.8,5.3,15.9,5.3,16.1z"/>
	<path class="st0" d="M13.7,14.3c0.5,0,0.9,0,1.4,0c0,0.1,0,0.2,0,0.4c-0.3,0-0.6,0-0.8,0c0,0.2,0,0.3,0,0.5c0.3,0,0.5,0,0.8,0
		c0,0.1,0,0.3,0,0.4c-0.3,0-0.5,0-0.8,0c0,0.3,0,0.6,0,0.9c-0.2,0-0.3,0-0.5,0C13.7,15.8,13.7,15,13.7,14.3z"/>
</g>
</svg>
