<?xml version="1.0" encoding="utf-8"?>
<!-- Generator: Adobe Illustrator 19.2.0, SVG Export Plug-In . SVG Version: 6.00 Build 0)  -->
<svg version="1.1" id="Layer_1" xmlns="http://www.w3.org/2000/svg" xmlns:xlink="http://www.w3.org/1999/xlink" x="0px" y="0px"
	 viewBox="0 0 20 20" style="enable-background:new 0 0 20 20;" xml:space="preserve">
<style type="text/css">
	.st0{fill:#484D55;}
</style>
<g>
	<g>
		<path class="st0" d="M16.4,17.2h-1.2c-0.5,0-0.8-0.4-0.8-0.8v-0.1c-0.3-0.1-0.6-0.3-0.9-0.5l-0.1,0.1c-0.4,0.2-0.9,0.1-1.1-0.3
			l-0.6-1c-0.1-0.2-0.1-0.4-0.1-0.6c0.1-0.2,0.2-0.4,0.4-0.5l0.1-0.1c0-0.1,0-0.3,0-0.4c0-0.1,0-0.3,0-0.4l-0.1-0.1
			c-0.2-0.1-0.3-0.3-0.4-0.5c-0.1-0.2,0-0.4,0.1-0.6l0.6-1c0.2-0.4,0.7-0.5,1.1-0.3l0.1,0.1c0.3-0.2,0.6-0.4,0.9-0.5V9.4
			c0-0.5,0.4-0.8,0.8-0.8h1.2c0.5,0,0.8,0.4,0.8,0.8v0.1c0.3,0.1,0.6,0.3,0.9,0.5l0.1-0.1c0.4-0.2,0.9-0.1,1.1,0.3l0.6,1
			c0.1,0.2,0.1,0.4,0.1,0.6c-0.1,0.2-0.2,0.4-0.4,0.5l-0.1,0.1c0,0.1,0,0.3,0,0.4c0,0.1,0,0.3,0,0.4l0.1,0.1
			c0.2,0.1,0.3,0.3,0.4,0.5c0.1,0.2,0,0.4-0.1,0.6l-0.6,1c-0.2,0.4-0.7,0.5-1.1,0.3l-0.1-0.1c-0.3,0.2-0.5,0.4-0.9,0.5v0.1
			C17.3,16.8,16.9,17.2,16.4,17.2z M13.6,15.2l0.1,0.1c0.3,0.3,0.6,0.5,1,0.6l0.2,0.1v0.4c0,0.2,0.1,0.3,0.3,0.3h1.2
			c0.2,0,0.3-0.1,0.3-0.3v-0.4l0.2-0.1c0.4-0.1,0.7-0.3,1-0.6l0.1-0.1l0.4,0.2c0.2,0.1,0.4,0,0.5-0.1l0.6-1c0-0.1,0.1-0.2,0-0.3
			c0-0.1-0.1-0.2-0.2-0.2L19,13.6l0-0.2c0-0.2,0-0.3,0-0.5c0-0.2,0-0.4,0-0.5l0-0.2l0.4-0.2c0.1,0,0.1-0.1,0.2-0.2
			c0-0.1,0-0.2,0-0.3l-0.6-1c-0.1-0.2-0.3-0.2-0.5-0.1l-0.4,0.2l-0.1-0.1c-0.3-0.3-0.6-0.5-1-0.6l-0.2-0.1V9.4
			c0-0.2-0.1-0.3-0.3-0.3h-1.2c-0.2,0-0.3,0.1-0.3,0.3v0.4l-0.2,0.1c-0.4,0.1-0.7,0.3-1,0.6l-0.1,0.1l-0.4-0.2
			c-0.2-0.1-0.4,0-0.5,0.1l-0.6,1c0,0.1-0.1,0.2,0,0.3c0,0.1,0.1,0.2,0.2,0.2l0.4,0.2l0,0.2c0,0.2,0,0.3,0,0.5c0,0.2,0,0.4,0,0.5
			l0,0.2l-0.4,0.2c-0.1,0-0.1,0.1-0.2,0.2c0,0.1,0,0.2,0,0.3l0.6,1c0.1,0.2,0.3,0.2,0.5,0.1L13.6,15.2z M15.8,14.8
			c-1.1,0-1.9-0.9-1.9-1.9s0.9-1.9,1.9-1.9s1.9,0.9,1.9,1.9S16.9,14.8,15.8,14.8z M15.8,11.5c-0.8,0-1.4,0.6-1.4,1.4
			s0.6,1.4,1.4,1.4c0.8,0,1.4-0.6,1.4-1.4S16.6,11.5,15.8,11.5z"/>
	</g>
	<g>
		<path class="st0" d="M15.9,2H2.4C1.1,2,0,3,0,4.4c0,1.3,1.1,2.4,2.4,2.4h13.5c1.3,0,2.4-1.1,2.4-2.4C18.3,3,17.2,2,15.9,2z
			 M16,6.2H2.3c-1,0-1.7-0.8-1.7-1.9c0-1,0.8-1.9,1.7-1.9H16c1,0,1.7,0.8,1.7,1.9C17.8,5.4,17,6.2,16,6.2z"/>
		<path class="st0" d="M5.1,3H2.9C2.2,3,1.6,3.6,1.6,4.4c0,0.7,0.6,1.3,1.3,1.3h2.2c0.7,0,1.3-0.6,1.3-1.3C6.4,3.6,5.8,3,5.1,3z
			 M5.1,5H2.9C2.6,5,2.3,4.7,2.3,4.4s0.3-0.6,0.6-0.6h2.2c0.3,0,0.6,0.3,0.6,0.6S5.4,5,5.1,5z"/>
		<path class="st0" d="M14.8,2.9c-0.8,0-1.5,0.7-1.5,1.5s0.7,1.5,1.5,1.5s1.5-0.7,1.5-1.5S15.7,2.9,14.8,2.9z M14.8,5.2
			c-0.4,0-0.8-0.4-0.8-0.8c0-0.4,0.4-0.8,0.8-0.8c0.4,0,0.8,0.4,0.8,0.8C15.6,4.8,15.3,5.2,14.8,5.2z"/>
	</g>
	<g>
		<path class="st0" d="M1.6,10c0,0.7,0.6,1.3,1.3,1.3h2.2c0.7,0,1.3-0.6,1.3-1.3S5.8,8.7,5.1,8.7H2.9C2.2,8.7,1.6,9.3,1.6,10z
			 M2.9,9.4h2.2c0.3,0,0.6,0.3,0.6,0.6s-0.3,0.6-0.6,0.6H2.9c-0.3,0-0.6-0.3-0.6-0.6S2.6,9.4,2.9,9.4z"/>
		<path class="st0" d="M2.4,7.6C1.1,7.6,0,8.7,0,10s1.1,2.4,2.4,2.4h8.5c-0.1-0.1-0.1-0.2-0.1-0.3c-0.1-0.4-0.1-0.8,0.1-1.2l0.6-1.2
			c0.3-0.5,0.8-0.8,1.4-0.8c0.2,0,0.3,0,0.5,0.1c0.1-0.1,0.3-0.2,0.4-0.2c0.1-0.5,0.5-1,1-1.2H2.4z M11,9.3l-0.7,1.2
			c-0.2,0.4-0.3,0.8-0.3,1.3H2.3c-1,0-1.7-0.8-1.7-1.8c0-1,0.8-1.8,1.7-1.8h10.1C11.8,8.4,11.3,8.8,11,9.3z"/>
	</g>
	<g>
		<path class="st0" d="M5.1,14.3H2.9c-0.7,0-1.3,0.6-1.3,1.3c0,0.7,0.6,1.3,1.3,1.3h2.2c0.7,0,1.3-0.6,1.3-1.3
			C6.4,14.9,5.8,14.3,5.1,14.3z M5.1,16.3H2.9c-0.3,0-0.6-0.3-0.6-0.6S2.6,15,2.9,15h2.2c0.3,0,0.6,0.3,0.6,0.6S5.4,16.3,5.1,16.3z"
			/>
		<path class="st0" d="M13.8,17.2c-0.1-0.1-0.3-0.1-0.4-0.2c-0.2,0-0.3,0.1-0.5,0.1c-0.6,0-1.1-0.3-1.4-0.8l-0.6-1.2
			c-0.2-0.4-0.3-0.8-0.1-1.2c0.1-0.3,0.2-0.5,0.4-0.7H2.4c-1.3,0-2.4,1.1-2.4,2.4C0,17,1.1,18,2.4,18h11.8
			C14,17.8,13.8,17.5,13.8,17.2z M2.3,17.5c-1,0-1.7-0.8-1.7-1.9c0-1,0.8-1.9,1.7-1.9h7.8c-0.1,0.6,0,1.2,0.3,1.7l0.7,1.3
			c0.2,0.3,0.4,0.6,0.7,0.8H2.3z"/>
	</g>
</g>
</svg>
