<?xml version="1.0" encoding="utf-8"?>
<!-- Generator: Adobe Illustrator 19.2.0, SVG Export Plug-In . SVG Version: 6.00 Build 0)  -->
<svg version="1.1" id="Layer_1" xmlns="http://www.w3.org/2000/svg" xmlns:xlink="http://www.w3.org/1999/xlink" x="0px" y="0px"
	 viewBox="0 0 20 20" style="enable-background:new 0 0 20 20;" xml:space="preserve">
<style type="text/css">
	.st0{fill:#484D55;}
</style>
<g>
	<path class="st0" d="M17.4,20H2.6C1.2,20,0,18.8,0,17.4V2.6C0,1.2,1.2,0,2.6,0h14.8C18.8,0,20,1.2,20,2.6v14.8
		C20,18.8,18.8,20,17.4,20z M2.6,1C1.7,1,1,1.7,1,2.6v14.8C1,18.3,1.7,19,2.6,19h14.8c0.9,0,1.7-0.7,1.7-1.7V2.6
		C19,1.7,18.3,1,17.4,1H2.6z"/>
</g>
<g>
	<path class="st0" d="M13.5,16.9c-1.2-0.2-2.3-0.7-2.7-2c-0.2-0.6-0.5-1.1-0.8-1.7c-0.2-0.5-0.5-0.9-0.3-1.5c0-0.1-0.1-0.2-0.1-0.3
		C9.1,10.7,9,9.8,9.3,8.9C9.4,8.6,9.4,8.3,9.4,8c-0.2-0.7-0.3-1.5-1-1.9C8.2,6,8.1,5.9,8,5.7c-0.5-0.5-1.1-0.8-1.8-1
		C5.1,4.5,4,4.3,2.9,4.1C2.6,4,2.5,3.8,2.6,3.5C2.6,3.2,2.7,2.9,3.1,3c0.6,0.1,1.2,0.2,1.8,0.4c3.6,0.8,2.6,0.3,5.3,2.2
		c0.1,0.1,0.2,0.2,0.3,0.2c0.5-0.1,0.8,0.3,1.1,0.5c0.2,0.1,0.3,0.2,0.5,0.2c1.2,0.1,2.2,0.5,3,1.5c0.2,0.3,0.5,0.7,0.8,1
		c0.4,0.4,0.4,0.8,0.1,1.2c-0.2,0.3-0.2,0.6,0,1c0.6,1.5,1.2,2.9,1.8,4.4c0.3,0.7,0.1,1-0.6,1.1c-0.8,0.1-1.7,0.2-2.4,0.3
		C14.3,16.9,13.9,16.9,13.5,16.9z M13.1,14.9c0-0.5,0.1-1.1,0.1-1.6c0-0.4-0.1-0.7-0.4-0.8c-0.3-0.1-0.6-0.2-0.9-0.4
		c-0.3-0.1-0.5-0.1-0.7,0.2c-0.1,0.2-0.2,0.5-0.1,0.7c0.2,0.5,0.4,1,0.6,1.5c0.4,0.7,1,1.1,1.8,1.2c0.7,0.1,1.5,0,2.3,0
		c-0.1-0.3-0.3-0.6-0.4-0.8c-0.4-0.9-0.8-1.8-1.3-2.7c-0.3-0.6-0.3-0.6-1.1-0.4c0.8,0.4,0.9,1.1,0.7,1.8c-0.1,0.4-0.1,0.9-0.2,1.3
		c0,0.2-0.1,0.3-0.2,0.5c-0.1,0-0.1,0-0.2,0C13.1,15.2,13.1,15.1,13.1,14.9z"/>
	<path class="st0" d="M2.6,5.7C2.4,6.4,2.1,7.2,1.9,8C1.7,8.7,2.1,9.1,2.7,9.1c0.6,0,1-0.4,0.9-1.1C3.4,7.2,3.1,6.4,2.9,5.7
		C2.8,5.7,2.7,5.7,2.6,5.7z"/>
</g>
</svg>
