<?xml version="1.0" encoding="utf-8"?>
<!-- Generator: Adobe Illustrator 19.2.0, SVG Export Plug-In . SVG Version: 6.00 Build 0)  -->
<svg version="1.1" id="Layer_1" xmlns="http://www.w3.org/2000/svg" xmlns:xlink="http://www.w3.org/1999/xlink" x="0px" y="0px"
	 viewBox="0 0 40 40" style="enable-background:new 0 0 40 40;" xml:space="preserve">
<style type="text/css">
	.st0{fill:#636A75;}
</style>
<g>
	<path class="st0" d="M32.5,9.4c-2.1,0-4.4,0-6.8,0c-0.1-0.5-0.1-1-0.2-1.6c1.4,0,2.8,0,4.1,0c2.2,0,4.3,0,6.5,0
		c2.1,0,3.6,1.4,3.9,3.5c0.3,1.8-0.9,3.7-2.7,4.2c-0.3,0.1-0.7,0.1-1,0.2c-0.4-1.2-0.3-1.4,0.7-1.8c1-0.4,1.7-1.5,1.5-2.6
		c-0.2-1.1-1.2-2-2.3-2c-1.2,0-2.2,0.8-2.3,2c-0.1,1.4-0.1,2.8-0.1,4.2c0,6.5,0,12.9,0,19.4c0,3-1.5,4.6-4.6,4.6
		c-6.6,0-13.2,0-19.7,0c-2.7,0-4.4-2-4.1-4.5c0.2-1.8,1.7-3.2,3.4-3.4c0.4,0,0.7,0,1.1,0c5.7,0,11.3,0,17,0c0.4,0,0.7,0,1.1,0
		c1,0.1,1.3,0.9,0.8,1.8c-0.2,0.3-0.4,0.5-0.6,0.8c-0.6,0.8-0.6,2,0,2.8c0.5,0.7,1.4,1.1,2.3,0.9c1-0.2,1.7-1,1.9-2
		c0.1-0.4,0-0.7,0-1.1c0-7.3,0-14.7,0-22C32.1,11.7,32.3,10.6,32.5,9.4z M26.6,33.2c-1.6,0-3.1,0-4.6,0c-4.3,0-8.5,0-12.8,0
		c-1.5,0-2.6,1-2.5,2.4c0,1.3,1.1,2.3,2.5,2.3c5.6,0,11.2,0,16.8,0c0.1,0,0.3,0,0.5,0C25.7,36.3,25.6,34.8,26.6,33.2z"/>
	<path class="st0" d="M15.3,30.1c-0.6,0-1,0-1.5,0c0-1.6,0-3.1,0-4.7c0.5,0,0.9,0,1.5-0.1C15.3,26.9,15.3,28.5,15.3,30.1z"/>
	<path class="st0" d="M29.7,22.9c0,0.6,0,1,0,1.5c-3.1,0-6.1,0-9.3,0c0-0.5-0.1-0.9-0.1-1.5C23.5,22.9,26.5,22.9,29.7,22.9z"/>
	<path class="st0" d="M29.7,28.5c0,0.6,0,1,0,1.5c-3.6,0-7.2,0-11,0c0-0.5-0.1-0.9-0.2-1.5C22.3,28.5,26,28.5,29.7,28.5z"/>
	<g>
		<path class="st0" d="M11.4,15.5l1.3-1.3c0.4,0.5,0.8,0.9,1.1,1.1c0.4,0.2,0.7,0.4,1.2,0.4v-3.5c-1.2-0.3-2.1-0.7-2.7-1.2
			c-0.6-0.5-0.9-1.3-0.9-2.1c0-0.9,0.3-1.7,0.9-2.2c0.6-0.6,1.5-0.9,2.6-0.9V4.6h1v1.1c0.7,0.1,1.3,0.2,1.8,0.5
			c0.5,0.3,1.1,0.7,1.5,1.2l-1.3,1.3c-0.3-0.4-0.6-0.8-1-1c-0.3-0.2-0.7-0.3-1.1-0.4v3.2c1.3,0.3,2.3,0.8,2.9,1.3
			c0.6,0.6,0.9,1.3,0.9,2.3c0,1-0.3,1.8-1,2.4c-0.7,0.6-1.6,0.9-2.7,0.9v1.6h-1v-1.6c-0.8-0.1-1.4-0.3-2-0.6
			C12.4,16.5,11.9,16.1,11.4,15.5z M15,10.2V7.3c-0.6,0-1,0.2-1.3,0.4c-0.3,0.2-0.4,0.6-0.4,1c0,0.4,0.1,0.7,0.4,1
			C14,9.9,14.4,10.1,15,10.2z M16,15.8c0.6,0,1-0.1,1.3-0.4c0.3-0.2,0.5-0.6,0.5-1.1c0-0.5-0.1-0.9-0.4-1.1
			c-0.3-0.3-0.7-0.5-1.4-0.6V15.8z"/>
	</g>
	<path class="st0" d="M15,0.5C8.7,0.5,3.6,5.6,3.6,11.9v0L1.3,8.5c-0.2-0.3-0.7-0.4-1-0.2C0,8.5-0.1,9,0.1,9.3l3.3,4.9
		c0.1,0.2,0.3,0.3,0.5,0.3c0,0,0.1,0,0.1,0c0.2,0,0.3-0.1,0.5-0.2L9,10.3c0.3-0.3,0.3-0.7,0.1-1c-0.3-0.3-0.7-0.3-1-0.1l-3,2.7v-0.1
		C5,6.4,9.5,1.9,15,1.9c5.5,0,9.9,4.5,9.9,9.9c0,5.5-4.5,9.9-9.9,9.9c-2.7,0-5.1-1-7-2.9c-0.3-0.3-0.7-0.3-1,0c-0.3,0.3-0.3,0.7,0,1
		c2.2,2.2,5,3.3,8,3.3c6.3,0,11.4-5.1,11.4-11.4C26.4,5.6,21.2,0.5,15,0.5L15,0.5z M15,0.5"/>
</g>
</svg>
