<?xml version="1.0" encoding="utf-8"?>
<!-- Generator: Adobe Illustrator 19.2.0, SVG Export Plug-In . SVG Version: 6.00 Build 0)  -->
<svg version="1.1" id="Layer_1" xmlns="http://www.w3.org/2000/svg" xmlns:xlink="http://www.w3.org/1999/xlink" x="0px" y="0px"
	 viewBox="0 0 20 20" style="enable-background:new 0 0 20 20;" xml:space="preserve">
<style type="text/css">
	.st0{fill:#fff;}
</style>
<path class="st0" d="M8,14.5c0.3,0.3,0.5,0.7,0.5,1.1V20h1v-4.8c0-0.2,0.2-0.4,0.4-0.4c0.2,0,0.4,0.2,0.4,0.4V20h1v-4.4
	c0-0.4,0.2-0.8,0.5-1.1c0.8-0.6,1.3-1.5,1.3-2.6c0-1.1-0.5-2-1.3-2.6c-0.1-0.1-0.3,0-0.3,0.2v1.4c0,0.7-0.5,1.2-1.2,1.2H9.6
	c-0.7,0-1.2-0.5-1.2-1.2V9.5c0-0.2-0.2-0.2-0.3-0.2C7.3,9.9,6.8,10.9,6.8,12C6.8,13,7.3,13.9,8,14.5z"/>
<path class="st0" d="M19,7.8h-1.9c-0.3,0-0.5-0.2-0.7-0.4c-0.1-0.3-0.1-0.6,0.2-0.8l1.3-1.3c0.2-0.2,0.3-0.5,0.3-0.7
	c0-0.3-0.1-0.5-0.3-0.7l-1.7-1.7c-0.4-0.4-1.1-0.4-1.5,0l-1.3,1.3c-0.2,0.2-0.5,0.3-0.8,0.2c-0.3-0.1-0.4-0.4-0.4-0.7V1
	c0-0.6-0.5-1-1-1H8.8c-0.6,0-1,0.5-1,1v1.9c0,0.3-0.2,0.5-0.4,0.7C7.1,3.7,6.8,3.6,6.6,3.4L5.2,2.1c-0.4-0.4-1.1-0.4-1.5,0L2.1,3.8
	C1.9,4,1.8,4.2,1.8,4.5c0,0.3,0.1,0.5,0.3,0.7l1.3,1.3c0.2,0.2,0.3,0.5,0.2,0.8C3.5,7.6,3.2,7.8,2.9,7.8H1c-0.6,0-1,0.5-1,1v2.4
	c0,0.6,0.5,1,1,1h1.9c0.3,0,0.5,0.2,0.7,0.4c0.1,0.3,0.1,0.6-0.2,0.8l-1.3,1.3c-0.2,0.2-0.3,0.5-0.3,0.7c0,0.3,0.1,0.5,0.3,0.7
	l1.7,1.7c0.4,0.4,1.1,0.4,1.5,0l1.3-1.3c0.1-0.1,0.1-0.1,0.2-0.1v-0.8c-0.3,0.1-0.5,0.2-0.7,0.4l-1.3,1.3c-0.1,0.1-0.3,0.1-0.4,0
	l-1.7-1.7c-0.1-0.1-0.1-0.3,0-0.4L3.9,14c0.4-0.4,0.5-1,0.3-1.6c-0.2-0.6-0.7-0.9-1.3-0.9H1c-0.2,0-0.3-0.1-0.3-0.3V8.8
	c0-0.2,0.1-0.3,0.3-0.3h1.9c0.6,0,1.1-0.3,1.3-0.9C4.5,7.1,4.4,6.5,3.9,6L2.6,4.7c-0.1-0.1-0.1-0.3,0-0.4l1.7-1.7
	c0.1-0.1,0.3-0.1,0.4,0L6,3.9c0.4,0.4,1,0.5,1.6,0.3C8.2,4,8.5,3.5,8.5,2.9V1c0-0.2,0.1-0.3,0.3-0.3h2.4c0.2,0,0.3,0.1,0.3,0.3v1.9
	c0,0.6,0.3,1.1,0.9,1.3c0.6,0.2,1.2,0.1,1.6-0.3l1.3-1.3c0.1-0.1,0.3-0.1,0.4,0l1.7,1.7c0.1,0.1,0.1,0.3,0,0.4L16.1,6
	c-0.4,0.4-0.5,1-0.3,1.6c0.2,0.6,0.7,0.9,1.3,0.9H19c0.2,0,0.3,0.1,0.3,0.3v2.4c0,0.2-0.1,0.3-0.3,0.3h-1.9c-0.6,0-1.1,0.3-1.3,0.9
	c-0.2,0.6-0.1,1.2,0.3,1.6l1.3,1.3c0.1,0.1,0.1,0.3,0,0.4l-1.7,1.7c-0.1,0.1-0.3,0.1-0.4,0L14,16.1c-0.2-0.2-0.5-0.3-0.7-0.4v0.8
	c0.1,0,0.1,0.1,0.2,0.1l1.3,1.3c0.4,0.4,1.1,0.4,1.5,0l1.7-1.7c0.2-0.2,0.3-0.5,0.3-0.7c0-0.3-0.1-0.5-0.3-0.7l-1.3-1.3
	c-0.2-0.2-0.3-0.5-0.2-0.8c0.1-0.3,0.4-0.4,0.7-0.4H19c0.6,0,1-0.5,1-1V8.8C20,8.2,19.5,7.8,19,7.8z"/>
<path class="st0" d="M6.5,9.5C6.7,7.8,8.2,6.5,10,6.5c1.8,0,3.3,1.3,3.5,3.1c0.3,0.5,0.6,1,0.7,1.6c0.1-0.4,0.2-0.8,0.2-1.2
	c0-2.4-1.9-4.3-4.3-4.3S5.7,7.6,5.7,10c0,0.4,0.1,0.8,0.2,1.2C6,10.6,6.2,10,6.5,9.5z"/>
</svg>
