<?xml version="1.0" encoding="utf-8"?>
<!-- Generator: Adobe Illustrator 19.2.0, SVG Export Plug-In . SVG Version: 6.00 Build 0)  -->
<svg version="1.1" id="Layer_1" xmlns="http://www.w3.org/2000/svg" xmlns:xlink="http://www.w3.org/1999/xlink" x="0px" y="0px"
	 viewBox="0 0 40 40" style="enable-background:new 0 0 40 40;" xml:space="preserve">
<style type="text/css">
	.st0{fill:#636A75;}
</style>
<g>
	<path class="st0" d="M32.4,6.3c-0.5,0-1,0-1.5,0c0,0.1-0.1,0.1-0.1,0.2c-0.1,0.4-0.4,0.6-0.8,0.5c-0.3-0.1-0.5-0.1-0.8-0.2
		c0-0.1,0-0.1,0-0.1c0.6-0.4,0.5-1-0.3-1.2c-0.9-0.2-1.7-0.2-2.4,0.5c-0.5,0.6-1.1,0.7-1.9,0.8c-1,0-1.9-0.1-2.8-0.4
		c-0.2-0.1-0.3-0.1-0.4-0.2c-0.5-0.5-1.1-0.6-1.7-0.6c-0.4,0-0.6-0.2-0.6-0.6c0.5,0,1,0,1.5,0.1c0.4-1.1,0.5-1,1.9-0.6
		c0,0,0,0.1-0.1,0.1c-0.6,0.6-0.6,1.1,0.3,1.3c1,0.3,2,0.3,2.8-0.6c0.4-0.4,0.9-0.6,1.5-0.7c1.3-0.1,2.6,0,3.7,1
		c0.1,0.1,0.2,0.1,0.3,0.1c0.3,0,0.6,0.1,0.9,0.1C32.3,5.7,32.5,5.8,32.4,6.3z"/>
	<path class="st0" d="M19.9,9.7c-0.4,0.2-0.8,0.3-1.2,0.4c0.4,0.3,0.7,0.5,1.2,0.9c-0.6,0.1-1,0.2-1.4,0.2c-0.1,0-0.2-0.1-0.3-0.1
		c-1.1-0.8-2.3-1-3.7-0.7c-0.6,0.2-0.6,0.3-0.2,0.8c0.2,0.2,0.4,0.4,0.6,0.6c0.3,0.4,0.3,0.8-0.2,1c-0.6,0.3-1.2,0.5-1.7,0.5
		c-1,0.1-2.1,0-3.1-0.1c-0.4,0-0.8,0-1.2,0.2c-0.7,0.3-1.3,0.2-1.9-0.2C7.2,13.1,7.6,13,8,12.9c-0.5-0.3-0.9-0.6-1.3-0.9
		c0,0,0-0.1,0.1-0.1c0.4-0.1,0.8-0.1,1.2-0.2c0.1,0,0.3,0.1,0.4,0.1c1.3,1,2.8,1.2,4.3,0.7c0.5-0.2,0.5-0.3,0.1-0.7
		c-0.2-0.2-0.4-0.3-0.6-0.5c-0.5-0.5-0.4-0.9,0.2-1.2c0.5-0.2,1-0.4,1.5-0.4c0.9,0,1.8,0,2.7,0.1c0.5,0,1,0.1,1.4-0.2
		C18.7,9.2,19.2,9.4,19.9,9.7z"/>
	<path class="st0" d="M28.9,40c-5.7,0-10.2-4.6-10.2-10.2c0-5.6,4.6-10.2,10.2-10.2s10.2,4.6,10.2,10.2C39.1,35.4,34.5,40,28.9,40z
		 M28.9,20.9c-4.9,0-8.8,4-8.8,8.8c0,4.9,4,8.8,8.8,8.8c4.9,0,8.8-4,8.8-8.8C37.7,24.8,33.8,20.9,28.9,20.9z"/>
	<path class="st0" d="M34.2,30c0.3-0.3,0.3-0.9,0-1.3l-4.7-4.7c-0.2-0.2-0.4-0.3-0.6-0.3c-0.2,0-0.5,0.1-0.6,0.3l-4.7,4.7
		c-0.3,0.3-0.3,0.9,0,1.3c0.2,0.2,0.4,0.3,0.6,0.3c0.2,0,0.5-0.1,0.6-0.3l3.2-3.2v7.8c0,0.5,0.4,0.9,0.9,0.9c0.5,0,0.9-0.4,0.9-0.9
		v-7.8l3.2,3.2C33.3,30.4,33.8,30.4,34.2,30L34.2,30z M34.2,30"/>
	<path class="st0" d="M31.2,1.9c1.6,0.4,3,1.1,4.2,2.2c1.3,1.3,1.4,2.8,0.1,4.1c-0.4,0.4-0.9,0.8-1.4,1.1c-1.8,1.1-3.8,1.6-5.9,1.9
		c-0.5,0.1-1,0.1-1.4,0.2c0,0.4,0,0.7,0,1.1c3.5-0.3,6.9-1,9.6-3.5c0,0.8,0,1.6,0,2.4c-0.1,1.5-0.7,2.7-2,3.6
		c-1.5,1.1-3.3,1.5-5.1,1.7c-0.8,0.1-1.7,0.2-2.5,0.3c0,0.2,0,0.5,0,0.7c0.7-0.1,1.4-0.2,2.1-0.2c0.6,0,1.2,0.1,1.7,0.1
		c2.1-0.4,4.1-1.2,5.8-3c0,0.7,0,1.3,0,1.9c-0.1,1.1-0.4,2-1.1,2.8c0.3,0.2,0.6,0.4,0.9,0.6c0,0,0.1-0.1,0.1-0.1c0,0.1,0,0.1,0,0.2
		c0.4,0.3,0.7,0.6,1.1,0.9c0-4.8,0-9.7,0-14.5c0-1.2-0.4-2.1-1.2-3c-1.2-1.3-2.8-2-4.4-2.6c-4-1.2-8-1.3-12-0.4
		c-1.8,0.4-3.5,1-5,2.1c-0.8,0.5-1.4,1.2-1.8,2.1c0.4,0,0.7,0,1.1,0c0.1,0,0.2-0.1,0.3-0.2c1.1-1.3,2.6-2,4.2-2.5
		C22.8,0.8,27,0.8,31.2,1.9z"/>
	<path class="st0" d="M20,38.1c-2.2,0.7-4.5,0.9-6.8,0.9c-2.1,0-4.2-0.1-6.2-0.7c-1.2-0.4-2.4-0.8-3.4-1.7C2.9,35.9,2.3,35,2.2,34
		C2,32.9,2,31.8,1.9,30.8c0.1,0,0.1,0,0.2,0c1.6,1.9,3.8,2.6,6.1,3.1c3,0.5,6,0.5,9.1,0.2c0,0,0.1,0,0.1,0c-0.1-0.3-0.2-0.7-0.3-1.1
		c-0.2,0-0.4,0-0.5,0.1c-2.3,0.2-4.7,0.2-7-0.1c-1.9-0.2-3.7-0.6-5.3-1.7c-1.5-1-2.2-2.3-2.3-4.1c0-0.5,0-1.1,0-1.6
		c0.6,0.5,1.2,1.1,1.9,1.5c1.7,1.1,3.7,1.5,5.7,1.7c2.4,0.3,4.7,0.3,7.1,0c0-0.4,0.1-0.8,0.1-1.1C13.9,28,11,28,8.1,27.4
		c-1.6-0.3-3.2-0.8-4.5-1.9c-1-0.8-1.5-1.9-1.6-3.2c0-0.7,0-1.3,0-2.1c1.1,1.4,2.6,2.2,4.2,2.7c1.3,0.4,2.7,0.6,4.1,0.8
		c2.7,0.3,5.5,0.2,8.2-0.3c0.3-0.4,0.6-0.9,0.9-1.3c-1,0.3-2.1,0.4-3.1,0.5c-2.2,0.2-4.4,0.2-6.6-0.1c-1.9-0.2-3.8-0.6-5.4-1.7
		c-1.4-0.9-2.2-2.3-2.3-4c0-0.7,0-1.4,0-2.2c2.1,1.9,4.5,2.7,7.1,3.2c3.6,0.6,7.2,0.5,10.7-0.6c1.7-0.5,3.3-1.3,4.6-2.6
		c0,0,0.1,0,0.1,0c0,1.1,0,2.2-0.2,3.2c0,0.2-0.1,0.3-0.2,0.5c0.5-0.2,0.9-0.3,1.4-0.5c0-1.8,0-3.7,0-5.5c0-1.5-0.6-2.7-1.7-3.7
		c-1.4-1.2-3.2-1.9-5-2.4c-3.4-0.9-6.8-0.9-10.3-0.3c-2,0.4-3.9,1-5.6,2.2c-1.4,1-2.3,2.4-2.2,4.2c0.1,3.3,0,6.6,0,9.9c0,0,0,0,0,0
		c0,3.5,0,7.1,0,10.6c0,2,0.9,3.5,2.4,4.7c1.8,1.3,3.8,1.9,6,2.1c2,0.2,4.1,0.2,6.1,0.2c1.9,0,3.7-0.4,5.4-1
		C20.6,38.7,20.3,38.4,20,38.1z M2.6,10.3c1-1.2,2.3-1.9,3.7-2.4c3.2-1.1,6.5-1.3,9.8-1c2,0.2,3.9,0.7,5.6,1.6
		c0.7,0.4,1.3,0.8,1.8,1.3c1.3,1.2,1.3,2.9,0,4.1c-1.2,1.2-2.7,1.8-4.2,2.2c-2,0.6-4,0.8-6.3,0.8c-2.7-0.1-5.6-0.5-8.2-1.8
		c-0.8-0.4-1.6-0.9-2.1-1.7C1.8,12.5,1.8,11.3,2.6,10.3z"/>
</g>
</svg>
