<?xml version="1.0" encoding="utf-8"?>
<!-- Generator: Adobe Illustrator 19.2.0, SVG Export Plug-In . SVG Version: 6.00 Build 0)  -->
<svg version="1.1" id="Layer_1" xmlns="http://www.w3.org/2000/svg" xmlns:xlink="http://www.w3.org/1999/xlink" x="0px" y="0px"
	 viewBox="0 0 100 100" style="enable-background:new 0 0 100 100;" xml:space="preserve">
<style type="text/css">
	.st0{fill:#FFFFFF;}
</style>
<g>
	<path class="st0" d="M47.7,47.7c0,1.3,1,2.3,2.3,2.3c1.2,0,2.3-1,2.3-2.3c0-2.7,0.9-5.2,2.7-7.3c3.8-4.5,6.7-9.4,8.5-14.6
		c0.2-0.7,0.1-1.5-0.3-2.1c-0.4-0.6-1.1-1-1.9-1H38.7c-0.7,0-1.4,0.4-1.9,1c-0.4,0.6-0.5,1.4-0.3,2.1c1.8,5.1,4.7,10,8.5,14.6
		C46.8,42.5,47.7,45.1,47.7,47.7L47.7,47.7z M47.7,47.7"/>
	<path class="st0" d="M52.3,56.8c0-1.3-1-2.3-2.3-2.3c-1.3,0-2.3,1-2.3,2.3c0,3.3-2,6.5-5.5,9.2c-7.6,5.6-13.3,11.7-16.9,18.1
		c-0.4,0.7-0.4,1.6,0,2.3c0.4,0.7,1.2,1.1,2,1.1h45.4c0.8,0,1.6-0.4,2-1.1c0.4-0.7,0.4-1.6,0-2.3c-3.6-6.4-9.3-12.5-16.9-18.1
		C54.2,63.4,52.3,60.1,52.3,56.8L52.3,56.8z M52.3,56.8"/>
	<path class="st0" d="M89.8,90.9h-1.4c-1.6-17.7-11.9-31.3-20-40.9c8.1-9.6,18.4-23.2,20-40.9h1.4c2.5,0,4.6-2,4.6-4.6
		c0-2.5-2-4.5-4.6-4.5H10.2C7.7,0,5.7,2,5.7,4.5c0,2.5,2,4.6,4.5,4.6h1.4c1.6,17.7,11.9,31.3,20,40.9c-8.1,9.6-18.4,23.2-20,40.9
		h-1.4c-2.5,0-4.5,2-4.5,4.5s2,4.6,4.5,4.6h79.5c2.5,0,4.6-2,4.6-4.6S92.3,90.9,89.8,90.9L89.8,90.9z M20.7,90.9
		c1.7-16,12.1-28.3,19.9-37.5l0.4-0.5c1.4-1.7,1.4-4.2,0-5.9l-0.4-0.5c-7.8-9.2-18.1-21.5-19.9-37.5h58.6
		c-1.7,16-12.1,28.3-19.9,37.5L59,47.1c-1.4,1.7-1.4,4.2,0,5.9l0.4,0.5c7.8,9.2,18.1,21.5,19.9,37.5H20.7z M20.7,90.9"/>
</g>
</svg>
