<?xml version="1.0" encoding="utf-8"?>
<!-- Generator: Adobe Illustrator 19.2.0, SVG Export Plug-In . SVG Version: 6.00 Build 0)  -->
<svg version="1.1" id="Layer_1" xmlns="http://www.w3.org/2000/svg" xmlns:xlink="http://www.w3.org/1999/xlink" x="0px" y="0px"
	 viewBox="0 0 100 100" style="enable-background:new 0 0 100 100;" xml:space="preserve">
<style type="text/css">
	.st0{fill:#FFFFFF;}
</style>
<g>
	<path class="st0" d="M38.2,71.2c0-2.4,0.3-4.8,0.8-7.1c-4.2-3.3-6.9-8.4-6.9-14.1c0-9.9,8-17.9,17.9-17.9c5.7,0,10.8,2.7,14.1,6.9
		c2.3-0.5,4.6-0.8,7.1-0.8c12.3,0,23.1,6.8,28.7,16.8c0.1-0.3,0.1-0.7,0.1-1.1v-7.8c0-3.4-2.8-6.1-6.1-6.1h-4.8
		c-1.3,0-2.8-1.2-3.3-2.6c-0.5-1.3-1-2.6-1.6-3.8c-0.6-1.3-0.4-3.2,0.5-4.1l3.4-3.4c2.4-2.4,2.4-6.3,0-8.7l-5.5-5.5
		c-1.2-1.2-2.7-1.8-4.3-1.8c-1.6,0-3.2,0.6-4.3,1.8l-3.4,3.4c-0.5,0.5-1.5,0.9-2.4,0.9c-0.6,0-1.2-0.1-1.7-0.4
		c-1.2-0.6-2.5-1.1-3.8-1.6c-1.4-0.5-2.6-2-2.6-3.3V6.1C60,2.7,57.3,0,53.9,0h-7.8C42.7,0,40,2.7,40,6.1v4.8c0,1.3-1.2,2.8-2.6,3.3
		c-1.3,0.5-2.6,1-3.8,1.6c-0.5,0.2-1.1,0.4-1.7,0.4c-1,0-1.9-0.3-2.4-0.9l-3.4-3.4c-1.2-1.2-2.7-1.8-4.3-1.8c-1.6,0-3.2,0.6-4.3,1.8
		l-5.5,5.5c-1.2,1.2-1.8,2.7-1.8,4.3c0,1.6,0.6,3.2,1.8,4.3l3.4,3.4c0.9,0.9,1.2,2.8,0.5,4.1c-0.6,1.2-1.1,2.5-1.6,3.8
		c-0.5,1.4-2,2.6-3.3,2.6H6.1C2.7,40,0,42.7,0,46.1v7.8C0,57.3,2.7,60,6.1,60h4.8c1.3,0,2.8,1.2,3.3,2.6c0.5,1.3,1,2.6,1.6,3.8
		c0.6,1.3,0.4,3.2-0.5,4.1l-3.4,3.4c-2.4,2.4-2.4,6.3,0,8.7l5.5,5.5c1.2,1.2,2.7,1.8,4.3,1.8c1.6,0,3.2-0.6,4.3-1.8l3.4-3.4
		c0.5-0.5,1.5-0.9,2.4-0.9c0.6,0,1.2,0.1,1.7,0.4c1.2,0.6,2.5,1.1,3.8,1.6c1.4,0.5,2.6,2,2.6,3.3v4.8c0,3.4,2.7,6.1,6.1,6.1h7.8
		c0.4,0,0.7,0,1.1-0.1C45,94.2,38.2,83.5,38.2,71.2z"/>
	<g>
		<path class="st0" d="M71.2,42.3c-15.9,0-28.8,12.9-28.8,28.8c0,15.9,12.9,28.8,28.8,28.8c15.9,0,28.8-12.9,28.8-28.8
			C100,55.3,87.1,42.3,71.2,42.3L71.2,42.3z M71.2,94c-12.6,0-22.9-10.3-22.9-22.9c0-12.6,10.3-22.9,22.9-22.9
			C83.8,48.3,94,58.6,94,71.2C94,83.8,83.8,94,71.2,94L71.2,94z M71.2,94"/>
		<path class="st0" d="M76.1,69.5c-1.4-0.8-2.9-1.3-4.3-2c-0.8-0.3-1.7-0.8-2.4-1.3c-1.4-1.1-1.1-3,0.5-3.7c0.5-0.2,1-0.3,1.5-0.3
			c1.9-0.1,3.7,0.3,5.5,1.1c0.9,0.4,1.1,0.3,1.4-0.6c0.3-1,0.6-1.9,0.8-2.9c0.2-0.6,0-1.1-0.7-1.3c-1.1-0.5-2.3-0.8-3.5-1
			c-1.6-0.3-1.6-0.3-1.6-1.8c0-2.2,0-2.2-2.2-2.2c-0.3,0-0.6,0-1,0c-1,0-1.2,0.2-1.2,1.3c0,0.5,0,0.9,0,1.4c0,1.4,0,1.4-1.3,1.8
			c-3.2,1.2-5.2,3.4-5.4,6.9c-0.2,3.1,1.4,5.2,4,6.7c1.6,0.9,3.3,1.5,5,2.2c0.7,0.3,1.3,0.6,1.8,1.1c1.6,1.3,1.3,3.5-0.6,4.4
			c-1,0.4-2.1,0.6-3.2,0.4c-1.7-0.2-3.3-0.7-4.9-1.5c-0.9-0.5-1.2-0.3-1.5,0.6c-0.3,0.8-0.5,1.7-0.7,2.5c-0.3,1.1-0.2,1.4,0.9,1.9
			c1.4,0.7,2.9,1,4.4,1.3c1.2,0.2,1.2,0.2,1.2,1.5c0,0.6,0,1.1,0,1.7c0,0.7,0.3,1.1,1.1,1.1c0.8,0,1.6,0,2.5,0c0.7,0,1-0.4,1-1.1
			c0-0.8,0-1.5,0-2.3c0-0.8,0.3-1.2,1-1.4c1.7-0.5,3.2-1.4,4.3-2.8C81.7,77.6,80.5,72,76.1,69.5L76.1,69.5z M76.1,69.5"/>
	</g>
</g>
</svg>
