<?xml version="1.0" encoding="utf-8"?>
<!-- Generator: Adobe Illustrator 19.2.0, SVG Export Plug-In . SVG Version: 6.00 Build 0)  -->
<svg version="1.1" id="Layer_1" xmlns="http://www.w3.org/2000/svg" xmlns:xlink="http://www.w3.org/1999/xlink" x="0px" y="0px"
	 viewBox="0 0 40 40" style="enable-background:new 0 0 40 40;" xml:space="preserve">
<style type="text/css">
	.st0{fill:#636A75;}
</style>
<g>
	<g>
		<g>
			<g>
				<path class="st0" d="M26.4,36.5c2.1-0.7,4.1-1.9,5.8-3.3c1.8-1.5,3.2-3.4,4.2-5.5s1.6-4.4,1.7-6.7c0.1-2.2-0.2-4.5-0.9-6.6
					c-0.7-2.1-1.9-4.1-3.3-5.8c-1.5-1.8-3.4-3.2-5.5-4.2c-1.5-0.7-3.1-1.2-4.8-1.5c-0.8-0.5-0.1-1.6,0.7-1.5
					c1.6,0.3,3.2,0.8,4.7,1.6c9.4,4.6,13.3,15.9,8.7,25.3c-4.6,9.4-15.9,13.3-25.3,8.7c-4.5-2.2-7.8-6-9.4-10.3l-1.2,2.5
					c-0.2,0.4-0.7,0.6-1.1,0.4c-0.4-0.2-0.6-0.7-0.4-1.1l2.1-4.3c0.2-0.4,0.7-0.6,1.1-0.4L7.8,26c0.4,0.2,0.6,0.7,0.4,1.1
					c-0.2,0.4-0.7,0.6-1.1,0.4l-2.6-1.3c0.7,1.9,1.8,3.7,3.2,5.3c1.5,1.8,3.4,3.2,5.5,4.2c2.1,1,4.4,1.6,6.7,1.7
					C22,37.5,24.3,37.2,26.4,36.5z"/>
				<path class="st0" d="M20.7,39.3c-2.8,0-5.7-0.6-8.4-2c-4.2-2.1-7.5-5.5-9.3-9.8l-0.9,1.9c-0.1,0.3-0.4,0.5-0.6,0.6
					C1.2,30,0.9,30,0.6,29.9c-0.5-0.3-0.8-0.9-0.5-1.5l2.1-4.3c0.3-0.5,0.9-0.8,1.5-0.5l4.3,2.1c0.5,0.3,0.8,0.9,0.5,1.5
					C8.1,27.7,7.5,28,7,27.7l-1.9-0.9c0.7,1.6,1.6,3.1,2.8,4.5c1.5,1.7,3.3,3.1,5.4,4.1c2.1,1,4.3,1.6,6.6,1.7
					c2.2,0.1,4.4-0.2,6.5-0.9l0,0c2.1-0.7,4-1.8,5.7-3.3c1.7-1.5,3.1-3.3,4.1-5.4c1-2.1,1.6-4.3,1.7-6.6c0.1-2.2-0.2-4.4-0.9-6.5
					c-0.7-2.1-1.8-4-3.3-5.7c-1.5-1.7-3.3-3.1-5.4-4.1c-1.5-0.7-3-1.2-4.7-1.5l-0.1,0C23,2.9,22.8,2.4,23,1.9
					c0.2-0.5,0.7-0.9,1.4-0.8c1.7,0.3,3.3,0.9,4.8,1.6c4.6,2.3,8.1,6.2,9.8,11c1.7,4.9,1.4,10.1-0.9,14.7
					C34.7,35.3,27.8,39.3,20.7,39.3z M3.1,26l0.2,0.7c1.7,4.5,5,8.1,9.3,10.1c9.2,4.5,20.4,0.7,24.9-8.6c2.2-4.5,2.5-9.5,0.9-14.2
					c-1.6-4.7-5-8.5-9.5-10.7c-1.4-0.7-3-1.2-4.6-1.5c-0.3-0.1-0.6,0.2-0.7,0.4c-0.1,0.1-0.1,0.3,0.1,0.5c1.7,0.3,3.3,0.8,4.8,1.5
					c2.1,1.1,4,2.5,5.6,4.3c1.5,1.7,2.6,3.7,3.4,5.9c0.7,2.2,1.1,4.4,0.9,6.7c-0.1,2.4-0.7,4.7-1.8,6.8c-1,2.1-2.5,4-4.3,5.6
					c-1.7,1.5-3.7,2.6-5.9,3.4l0,0c-2.2,0.7-4.4,1.1-6.7,0.9c-2.4-0.1-4.6-0.7-6.8-1.8c-2.1-1-4-2.5-5.6-4.3
					c-1.4-1.6-2.5-3.4-3.2-5.4l-0.3-0.7l3.3,1.6c0.2,0.1,0.5,0,0.7-0.2c0.1-0.2,0-0.5-0.2-0.6l-4.3-2.1c-0.2-0.1-0.5,0-0.7,0.2
					l-2.1,4.3c-0.1,0.2,0,0.5,0.2,0.7c0.1,0.1,0.2,0.1,0.4,0c0.1,0,0.2-0.1,0.3-0.2L3.1,26z"/>
			</g>
			<g>
				<path class="st0" d="M28.6,4c2.2,1.1,4.1,2.5,5.6,4.3c1.5,1.7,2.7,3.7,3.4,5.9c0.8,2.2,1.1,4.5,0.9,6.8
					c-0.1,2.4-0.7,4.7-1.8,6.9c-1.1,2.2-2.5,4.1-4.3,5.6c-3.5,3-8.1,4.6-12.7,4.4c-2.4-0.1-4.7-0.7-6.9-1.8
					c-2.2-1.1-4.1-2.5-5.6-4.3c-1.4-1.6-2.5-3.4-3.3-5.5l-0.5-1.2L7.3,27c0.1,0.1,0.3,0,0.4-0.1c0.1-0.1,0-0.3-0.1-0.4l-4.3-2.1
					c-0.1-0.1-0.3,0-0.4,0.1l-2.1,4.3c-0.1,0.1,0,0.3,0.1,0.4c0.1,0.1,0.3,0,0.4-0.1l1.7-3.6l0.4,1.1c1.7,4.4,4.9,8,9.1,10
					c9.1,4.5,20.2,0.7,24.7-8.5C41.8,19,38,7.9,28.8,3.5c-1.4-0.7-2.9-1.2-4.6-1.5c-0.2,0-0.4,0.1-0.5,0.3c0,0.1,0,0.1,0,0.2
					C25.5,2.7,27.1,3.2,28.6,4z"/>
				<path class="st0" d="M20.7,38.8c-2.8,0-5.6-0.6-8.2-1.9c-4.3-2.1-7.6-5.7-9.3-10.2L3,26.2l-1.4,2.9c-0.1,0.3-0.5,0.4-0.8,0.3
					c-0.3-0.1-0.4-0.5-0.3-0.8l2.1-4.3c0.1-0.3,0.5-0.4,0.8-0.3l4.3,2.1c0.1,0.1,0.2,0.2,0.3,0.3c0,0.1,0,0.3,0,0.4
					c-0.1,0.3-0.5,0.4-0.8,0.3l-3.1-1.5l0.2,0.5c0.7,2,1.8,3.8,3.2,5.4c1.5,1.8,3.4,3.2,5.5,4.2c2.1,1,4.4,1.6,6.8,1.8
					c4.6,0.2,9.1-1.3,12.5-4.3c1.8-1.5,3.2-3.4,4.2-5.5c1-2.1,1.6-4.4,1.8-6.8c0.1-2.3-0.2-4.5-0.9-6.7c-0.7-2.2-1.9-4.1-3.4-5.8
					c-1.5-1.8-3.4-3.2-5.5-4.2l0,0C27,3.5,25.4,3,23.8,2.7l-0.1,0l-0.1-0.1c-0.1-0.1-0.2-0.3-0.1-0.5c0.1-0.3,0.4-0.5,0.8-0.5
					C26,2,27.5,2.5,29,3.2c9.3,4.5,13.1,15.8,8.6,25.1C34.3,34.9,27.6,38.8,20.7,38.8z"/>
			</g>
		</g>
	</g>
	<path class="st0" d="M22,13.3c-0.5,0-1,0.4-1,1v6c-0.4,0.3-0.7,0.7-0.7,1.3l-3.4,2c-0.5,0.3-0.6,0.9-0.4,1.3
		c0.2,0.3,0.5,0.5,0.9,0.5c0.2,0,0.3,0,0.5-0.1l3.4-2c0.2,0.1,0.5,0.2,0.7,0.2c1,0,1.7-0.8,1.7-1.7c0-0.6-0.3-1.1-0.7-1.4v-6
		C22.9,13.7,22.5,13.3,22,13.3L22,13.3z M22,22.5c-0.5,0-0.8-0.4-0.8-0.8c0-0.5,0.4-0.8,0.8-0.8c0.5,0,0.8,0.4,0.8,0.8
		C22.8,22.1,22.4,22.5,22,22.5L22,22.5z M22,22.4"/>
	<path class="st0" d="M11.5,9.7V5.2c2.6,0,2.6,2.6,4.1,2.6c0.8,0,1.5-0.5,1.5-1.5c0-2.3-3.8-3.5-5.6-3.5V1.5c0-0.4-0.3-0.8-0.7-0.8
		c-0.4,0-0.7,0.4-0.7,0.8v1.3c-3,0.1-5.6,1.8-5.6,5c0,2.6,2.1,4.2,5.6,4.8v5c-3.9-0.2-1.9-3.4-4.5-3.4c-0.9,0-1.5,0.5-1.5,1.5
		c0,1.9,2,4.3,6,4.4v1.5c0,0.4,0.3,0.8,0.7,0.8c0.4,0,0.7-0.4,0.7-0.8v-1.5c3.5-0.2,5.9-1.8,5.9-5C17.4,11.3,14.6,10.4,11.5,9.7
		L11.5,9.7z M10,9.3C8.2,9,7.2,8.2,7.2,7c0-1.1,1.1-2.1,2.8-2.1V9.3z M11.5,17.8v-4.9c1.3,0.3,3.1,0.8,3.1,2.5
		C14.6,17,13,17.7,11.5,17.8L11.5,17.8z M11.5,17.8"/>
	<path class="st0" d="M27,7c1.8,0.9,3.4,2.1,4.7,3.6c1.3,1.4,2.2,3.1,2.8,4.9c0.6,1.8,0.9,3.7,0.8,5.6c-0.1,2-0.6,3.9-1.5,5.7
		c-0.9,1.8-2.1,3.4-3.6,4.7c-2.9,2.5-6.7,3.8-10.5,3.6c-2-0.1-3.9-0.6-5.7-1.5c-1.8-0.9-3.4-2.1-4.7-3.6c-0.4-0.4-0.7-0.9-1-1.3
		c-0.1-0.1-0.6-0.1-0.4,0.2c1.5,2.2,3.5,3.9,5.9,5.1c7.6,3.7,16.7,0.5,20.4-7c3.7-7.6,0.5-16.7-7-20.4c-1.2-0.6-2.4-1-3.8-1.3
		c-0.2,0-0.3,0.1-0.4,0.2c0,0.1,0,0.1,0,0.2C24.4,6,25.8,6.4,27,7z"/>
</g>
</svg>
