<?xml version="1.0" encoding="utf-8"?>
<!-- Generator: Adobe Illustrator 19.2.0, SVG Export Plug-In . SVG Version: 6.00 Build 0)  -->
<svg version="1.1" id="Layer_1" xmlns="http://www.w3.org/2000/svg" xmlns:xlink="http://www.w3.org/1999/xlink" x="0px" y="0px"
	 viewBox="0 0 100 100" style="enable-background:new 0 0 100 100;" xml:space="preserve">
<style type="text/css">
	.st0{fill:#FFFFFF;}
</style>
<g>
	<path class="st0" d="M26.2,0.1c1.6,0.3,3.3,0.4,4.9,0.8C40.5,3.5,46.6,9.6,49.2,19c1.4,5,1,10.1-0.7,15c-0.2,0.6-0.6,1.2,0.1,1.7
		c-1.8,1.8-3.7,3.7-5.5,5.6c-1.8-1.8-3.6-3.6-5.5-5.5c-0.4,0.4-0.7,0.7-0.9,1c-2.4,2.7-4.9,5.4-7.2,8.2c-1.9,2.2-4.4,3.4-6.7,5
		C22.6,50.1,22.3,50,22,50c-9.2-1.7-16-6.6-20-15.2c-1.1-2.3-1.6-4.7-1.9-7.3c0-0.4-0.1-0.7-0.2-1c0-1,0-2,0-2.9
		c0.1-0.4,0.2-0.8,0.2-1.2c0.2-2.4,0.7-4.7,1.7-7.1c6.1,6.1,12,12.1,17.9,18c4.5-4.5,8.8-8.8,13.3-13.3C27.2,14,21.3,8,15.2,1.9
		c1-0.3,1.8-0.7,2.7-0.9c1.9-0.4,3.8-0.7,5.6-1C24.4,0.1,25.3,0.1,26.2,0.1z"/>
	<path class="st0" d="M50,57.1c1.9,1.9,3.7,3.7,5.6,5.6c-1.9,1.7-3.7,3.3-5.5,4.9c-0.6-0.4-1.2-0.7-1.8-1c-2.2-1-4.3-0.5-6.3,0.7
		c-1.9,1.2-3.1,2.8-3.3,5c-0.5,5.5-3.2,9.9-7,13.7c-4,4-8,7.9-12,12c-1.2,1.2-2.6,1.7-4.2,1.8c-3.2,0.3-6-0.8-8.4-2.8
		c-3.3-2.6-6-5.6-6.6-9.9c-0.2-1.5,0.1-3.2,0.4-4.7c0.1-0.5,0.4-1,0.8-1.3c4.7-4.7,9.3-9.3,14-13.9c2.7-2.7,5.9-4.7,9.7-5.5
		c1.2-0.3,2.5-0.4,3.7-0.7c5.1-1.2,7-6.8,3.5-10.8c1.6-1.8,3.2-3.6,4.8-5.5c1.9,1.9,3.7,3.7,5.6,5.6c0.4-0.3,0.6-0.5,0.8-0.8
		C55.2,38,66.5,26.6,77.7,15.1c0.4-0.4,0.7-0.9,1-1.4c0.9-2,1.6-4,2.5-5.9c0.2-0.4,0.6-0.8,1-1C86.4,4.8,90.7,3,95,1.1
		c0.6-0.3,1-0.2,1.4,0.3c1,1.1,2.1,2.2,3.2,3.2c0.4,0.4,0.5,0.7,0.2,1.2c-2.1,4.2-4.2,8.4-6.3,12.6c-0.2,0.3-0.6,0.6-0.9,0.7
		c-2,0.7-4.1,1.4-6.1,2.1c-0.4,0.1-0.8,0.4-1.2,0.7C73.7,33.4,62.1,45,50.5,56.6C50.4,56.7,50.3,56.9,50,57.1z M30.8,65.3
		c-8,8-15.9,15.9-23.7,23.7c1.4,1.4,2.8,2.8,4.2,4.2c7.8-7.8,15.7-15.7,23.7-23.7c-0.1-0.1-0.2-0.3-0.4-0.5
		C33.3,67.8,32.1,66.5,30.8,65.3z"/>
	<path class="st0" d="M57,70.3c2.6-2.6,5.1-5.1,7.5-7.5c-1.9-1.9-3.8-3.7-5.5-5.4c2-2,3.9-3.9,5.7-5.7c0.1,0.1,0.3,0.3,0.6,0.5
		c10.4,10.4,20.8,20.9,31.3,31.3c2.2,2.2,3.5,4.6,3.2,7.7c-0.3,3.7-2.4,6.4-5.8,7.9c-3.3,1.4-6.4,0.9-9.3-1.4
		c-0.5-0.4-1-0.9-1.5-1.4C74.8,88,66.4,79.6,58,71.1C57.7,70.9,57.4,70.7,57,70.3z M94,89c0-3.1-1.9-5-5-5c-2.9,0-5.1,2.1-5.1,5
		c0,2.9,2.2,5.1,5.1,5C92.1,94,94,92.1,94,89z"/>
</g>
</svg>
