<?xml version="1.0" encoding="utf-8"?>
<!-- Generator: Adobe Illustrator 19.2.0, SVG Export Plug-In . SVG Version: 6.00 Build 0)  -->
<svg version="1.1" id="Layer_1" xmlns="http://www.w3.org/2000/svg" xmlns:xlink="http://www.w3.org/1999/xlink" x="0px" y="0px"
	 viewBox="0 0 20 20" style="enable-background:new 0 0 20 20;" xml:space="preserve">
<style type="text/css">
	.st0{fill:#484D55;}
</style>
<path class="st0" d="M16.3,8.4c-2,0-3.7,1.6-3.7,3.7s3.7,7.9,3.7,7.9s3.7-5.9,3.7-7.9S18.4,8.4,16.3,8.4z M16.3,14.9
	c-1.6,0-2.9-1.3-2.9-2.9s1.3-2.9,2.9-2.9c1.6,0,2.9,1.3,2.9,2.9S17.9,14.9,16.3,14.9z"/>
<g>
	<path class="st0" d="M20,9.2V8.8c0-0.6-0.5-1-1-1h-0.8C18.9,8.1,19.5,8.6,20,9.2z"/>
	<path class="st0" d="M12.8,15.6c-0.2,0-0.3,0-0.5,0.1c-0.6,0.2-0.9,0.7-0.9,1.3V19c0,0.2-0.1,0.3-0.3,0.3H8.8
		c-0.2,0-0.3-0.1-0.3-0.3v-1.9c0-0.6-0.3-1.1-0.9-1.3c-0.2-0.1-0.4-0.1-0.6-0.1c-0.4,0-0.7,0.1-1,0.4l-1.3,1.3
		c-0.1,0.1-0.3,0.1-0.4,0l-1.7-1.7c-0.1-0.1-0.1-0.3,0-0.4L3.9,14c0.4-0.4,0.5-1,0.3-1.6c-0.2-0.6-0.7-0.9-1.3-0.9H1
		c-0.2,0-0.3-0.1-0.3-0.3V8.8c0-0.2,0.1-0.3,0.3-0.3h1.9c0.6,0,1.1-0.3,1.3-0.9C4.5,7.1,4.4,6.5,3.9,6L2.6,4.7
		c-0.1-0.1-0.1-0.3,0-0.4l1.7-1.7c0.1-0.1,0.3-0.1,0.4,0L6,3.9c0.4,0.4,1,0.5,1.6,0.3C8.2,4,8.5,3.5,8.5,2.9V1
		c0-0.2,0.1-0.3,0.3-0.3h2.4c0.2,0,0.3,0.1,0.3,0.3v1.9c0,0.6,0.3,1.1,0.9,1.3c0.6,0.2,1.2,0.1,1.6-0.3l1.3-1.3
		c0.1-0.1,0.3-0.1,0.4,0l1.7,1.7c0.1,0.1,0.1,0.3,0,0.4L16.1,6c-0.4,0.4-0.5,0.9-0.4,1.4c0.2,0,0.4-0.1,0.6-0.1c0,0,0.1,0,0.1,0
		c0,0,0-0.1,0-0.1c-0.1-0.3-0.1-0.6,0.2-0.8l1.3-1.3c0.2-0.2,0.3-0.5,0.3-0.7c0-0.3-0.1-0.5-0.3-0.7l-1.7-1.7
		c-0.4-0.4-1.1-0.4-1.5,0l-1.3,1.3c-0.2,0.2-0.5,0.3-0.8,0.2c-0.3-0.1-0.4-0.4-0.4-0.7V1c0-0.6-0.5-1-1-1H8.8c-0.6,0-1,0.5-1,1v1.9
		c0,0.3-0.2,0.5-0.4,0.7C7.1,3.7,6.8,3.6,6.6,3.4L5.2,2.1c-0.4-0.4-1.1-0.4-1.5,0L2.1,3.8C1.9,4,1.8,4.2,1.8,4.5
		c0,0.3,0.1,0.5,0.3,0.7l1.3,1.3c0.2,0.2,0.3,0.5,0.2,0.8C3.5,7.6,3.2,7.8,2.9,7.8H1c-0.6,0-1,0.5-1,1v2.4c0,0.6,0.5,1,1,1h1.9
		c0.3,0,0.5,0.2,0.7,0.4c0.1,0.3,0.1,0.6-0.2,0.8l-1.3,1.3c-0.2,0.2-0.3,0.5-0.3,0.7c0,0.3,0.1,0.5,0.3,0.7l1.7,1.7
		c0.4,0.4,1.1,0.4,1.5,0l1.3-1.3c0.2-0.2,0.5-0.3,0.8-0.2c0.3,0.1,0.4,0.4,0.4,0.7V19c0,0.6,0.5,1,1,1h2.4c0.6,0,1-0.5,1-1v-1.9
		c0-0.3,0.2-0.5,0.4-0.7c0.2-0.1,0.4-0.1,0.6,0C13.1,16.2,13,15.9,12.8,15.6z"/>
</g>
<path class="st0" d="M11.7,12.1c0,0,0-0.1,0-0.1c-0.5,0.4-1.1,0.7-1.7,0.7c-1.4,0-2.6-1.2-2.6-2.6c0-1.4,1.2-2.6,2.6-2.6
	c1.2,0,2.3,0.9,2.5,2c0.2-0.2,0.4-0.5,0.6-0.7c-0.5-1.2-1.7-2.1-3.1-2.1c-1.8,0-3.3,1.5-3.3,3.3c0,1.8,1.5,3.3,3.3,3.3
	c0.7,0,1.3-0.2,1.8-0.5C11.7,12.5,11.7,12.3,11.7,12.1z"/>
</svg>
