<?xml version="1.0" encoding="iso-8859-1"?>
<!-- Generator: Adobe Illustrator 16.0.0, SVG Export Plug-In . SVG Version: 6.00 Build 0)  -->
<!DOCTYPE svg PUBLIC "-//W3C//DTD SVG 1.1//EN" "http://www.w3.org/Graphics/SVG/1.1/DTD/svg11.dtd">
<svg xmlns="http://www.w3.org/2000/svg" xmlns:xlink="http://www.w3.org/1999/xlink" version="1.1" id="Capa_1" x="0px" y="0px" width="512px" height="512px" viewBox="0 0 58.511 58.511" style="enable-background:new 0 0 58.511 58.511;" xml:space="preserve">
<g>
	<g>
		<path d="M26.088,0c-9.625,0-11.194,6.804-11.194,15.196c0,8.391,5.012,15.196,11.194,15.196c6.183,0,11.194-6.805,11.194-15.196    C37.282,6.804,36.146,0,26.088,0z" fill="#878787"/>
		<path d="M26.088,58.51c0,0,8.219,0,15.155,0c1.057,0,2.048-0.144,2.978-0.386c-4.944-1.294-8.597-5.776-8.597-11.125    c0-6.091,4.734-11.064,10.723-11.471c-1.397-1.705-3.247-3.235-4.944-3.961l-7.559-3.231c0,0-1.729,4.759-5.731,6.057v2.46h-1.404    l3.082,12.653l-3.703,4.866l-3.703-4.866l3.082-12.653h-1.404v-2.46c-4.002-1.298-5.73-6.057-5.73-6.057l-7.56,3.231    c-2.635,1.127-6.04,3.996-7.242,6.602c-0.989,2.146-2.035,4.896-2.641,7.891c-1.39,6.877,3.107,12.451,10.043,12.451L26.088,58.51    L26.088,58.51z" fill="#878787"/>
		<path d="M47.576,36.845c-5.686,0-10.294,4.609-10.294,10.295s4.608,10.294,10.294,10.294s10.296-4.608,10.296-10.294    S53.262,36.845,47.576,36.845z M53.957,47.981h-1.172c-0.058,0.359-0.151,0.705-0.277,1.036l1.015,0.586l-0.842,1.456    l-1.012-0.585c-0.228,0.278-0.481,0.532-0.759,0.758l0.585,1.013l-1.457,0.841l-0.585-1.014c-0.33,0.126-0.677,0.22-1.034,0.276    v1.172h-1.684v-1.172c-0.357-0.057-0.703-0.149-1.034-0.276l-0.585,1.013l-1.457-0.84l0.584-1.013    c-0.278-0.226-0.532-0.479-0.759-0.758l-1.013,0.583l-0.842-1.455l1.014-0.585c-0.126-0.331-0.22-0.677-0.277-1.036h-1.171v-1.684    h1.171c0.058-0.358,0.151-0.704,0.277-1.034l-1.014-0.586l0.842-1.457l1.013,0.584c0.226-0.277,0.479-0.531,0.759-0.758    l-0.585-1.012l1.456-0.843l0.585,1.016c0.331-0.126,0.677-0.22,1.035-0.278v-1.17h1.684v1.17c0.357,0.059,0.703,0.152,1.035,0.278    l0.585-1.016l1.457,0.843l-0.585,1.013c0.277,0.228,0.531,0.48,0.758,0.759l1.013-0.585l0.842,1.458l-1.015,0.585    c0.126,0.331,0.219,0.677,0.277,1.034h1.172V47.981z" fill="#878787"/>
		<path d="M47.575,43.54c-1.983,0-3.6,1.616-3.6,3.601s1.615,3.599,3.6,3.599c1.985,0,3.601-1.614,3.601-3.599    S49.561,43.54,47.575,43.54z" fill="#878787"/>
	</g>
</g>
<g>
</g>
<g>
</g>
<g>
</g>
<g>
</g>
<g>
</g>
<g>
</g>
<g>
</g>
<g>
</g>
<g>
</g>
<g>
</g>
<g>
</g>
<g>
</g>
<g>
</g>
<g>
</g>
<g>
</g>
</svg>
