<?xml version="1.0" encoding="utf-8"?>
<!-- Generator: Adobe Illustrator 18.0.0, SVG Export Plug-In . SVG Version: 6.00 Build 0)  -->
<!DOCTYPE svg PUBLIC "-//W3C//DTD SVG 1.1//EN" "http://www.w3.org/Graphics/SVG/1.1/DTD/svg11.dtd">
<svg version="1.1" xmlns="http://www.w3.org/2000/svg" xmlns:xlink="http://www.w3.org/1999/xlink" x="0px" y="0px" width="20px" height="20px" 
	 viewBox="0 0 100 100" enable-background="new 0 0 100 100" xml:space="preserve">
<g id="ClockDashboard" display="none">
	<g display="inline">
		<path fill="#ABABAB" d="M62.9,13.2c-0.3-0.4-0.6-0.9-0.8-1.4c-0.8-1.7-0.9-3.6-0.6-5.4c0.2-0.8,0-1.6-0.5-2.3
			c-0.5-0.7-1.2-1.1-2-1.2c-5.2-0.7-10.5-0.6-15.7,0.2c-0.8,0.1-1.5,0.6-1.9,1.3c-0.4,0.7-0.6,1.5-0.4,2.3c0.4,1.8,0.3,3.6-0.3,5.2
			c-1.3,3.4-4.6,5.7-8.2,5.7c-1.1,0-2.1-0.2-3.2-0.6c-1.7-0.7-3.2-1.8-4.2-3.4c-0.4-0.7-1.1-1.1-1.9-1.3c-0.8-0.1-1.6,0.1-2.2,0.5
			c-4.2,3.2-7.9,7-10.9,11.3c-0.5,0.7-0.6,1.5-0.5,2.3c0.2,0.8,0.7,1.5,1.3,1.9c1.6,0.9,2.8,2.3,3.5,4c1,2.1,1,4.5,0.2,6.7
			c-0.8,2.2-2.5,3.9-4.6,4.9c-1.7,0.8-3.6,0.9-5.5,0.5c-0.8-0.2-1.6,0-2.3,0.4c-0.7,0.5-1.1,1.2-1.2,2C0.4,52,0.5,57.3,1.4,62.5
			C1.5,63.3,2,64,2.7,64.5C3.3,64.9,4.2,65,5,64.8c1.8-0.5,3.7-0.4,5.4,0.3c2.2,0.8,3.9,2.5,4.9,4.6c1,2.1,1,4.5,0.2,6.7
			c-0.7,1.8-1.9,3.2-3.6,4.3c-0.7,0.4-1.2,1.1-1.3,1.9c-0.1,0.8,0,1.6,0.5,2.3c3.2,4.3,7,8,11.3,11c0.7,0.5,1.5,0.6,2.3,0.5
			c0.8-0.2,1.5-0.7,1.9-1.4c0.9-1.6,2.4-2.9,4.1-3.6c0.6-0.3,3.4-0.5,3.4-0.7c0,0,0,0,0,0c6,4.3,14.5,6.8,23,6.8
			c23.4,0,42.4-19,42.4-42.4C99.4,33.8,83.6,16.1,62.9,13.2z M91.8,61.2l-4.6-0.6c-0.2,0-0.4,0.2-0.4,0.4c0,0.2,0.1,0.5,0.3,0.5
			l4.6,0.9c-0.6,2.6-1.4,5.1-2.4,7.5l-4.3-2.2c-0.2-0.1-0.4,0-0.5,0.2c-0.1,0.2,0,0.4,0.2,0.5l4.3,2.3c-1.1,2.2-2.4,4.3-3.8,6.2
			l-3.8-3.2c-0.2-0.1-0.4-0.1-0.5,0.1c-0.1,0.2-0.1,0.4,0.1,0.5l3.9,3.2c-1.5,1.9-3.3,3.7-5.2,5.2l-3.1-4c-0.1-0.2-0.4-0.2-0.5-0.1
			c-0.2,0.1-0.2,0.4-0.1,0.5l3.1,4c-1.8,1.4-3.7,2.6-5.8,3.7l-2.3-4.4c-0.1-0.2-0.3-0.3-0.5-0.2c-0.2,0.1-0.2,0.3-0.2,0.5l2.3,4.4
			c-2.2,1.1-4.6,2-7.1,2.5l-0.9-5.3c0-0.2-0.2-0.3-0.4-0.3c-0.2,0-0.3,0.2-0.3,0.4l1.1,5.3c-1.9,0.4-4.7,0.7-5.7,0.8v-6.3
			c0-1-1-1.8-2-1.8c-1,0-2,0.8-2,1.8v6.3c-1-0.1-3.1-0.3-4.7-0.6l0.8-4.5c0-0.2-0.1-0.4-0.3-0.4c-0.2,0-0.4,0.1-0.4,0.3l-0.8,4.4
			c-2.4-0.5-4.8-1.2-7-2.2l2.1-3.9c0.1-0.2,0-0.4-0.2-0.5c-0.2-0.1-0.4,0-0.5,0.2L42,87.3c-2.1-1-4-2.1-5.8-3.5l2.9-3.7
			c0.1-0.2,0.1-0.4-0.1-0.5c-0.2-0.1-0.4-0.1-0.5,0.1l-2.9,3.7c-1.9-1.5-3.7-3.1-5.3-5l3.8-3.1c0.2-0.1,0.2-0.4,0-0.5
			c-0.1-0.2-0.4-0.2-0.5-0.1l-3.8,3.2c-1.6-1.9-2.9-3.9-4-6.1l4.5-2.4c0.2-0.1,0.3-0.3,0.2-0.5c-0.1-0.2-0.3-0.2-0.5-0.2l-4.5,2.4
			c-1.2-2.4-2.2-4.9-2.8-7.5l5.2-1c0.2,0,0.3-0.2,0.3-0.4c0-0.2-0.2-0.3-0.4-0.3l-5.2,0.5C22,60.5,21.7,59,21.6,56h6
			c1,0,1.8-0.5,1.8-1.5c0-1-0.8-1.5-1.8-1.5h-6c0.1-2,0.4-3.7,0.8-5.5c0,0,0,0.1,0.1,0.1l5.8,1.1c0,0,0,0,0.1,0
			c0.2,0,0.3-0.1,0.4-0.3c0-0.2-0.1-0.4-0.3-0.4L22.6,47c0,0,0,0-0.1,0c0.6-2.7,1.6-5.3,2.8-7.7l5.1,2.7c0.1,0,0.1,0.1,0.2,0.1
			c0.1,0,0.3-0.1,0.3-0.2c0.1-0.2,0-0.4-0.2-0.5l-5.1-2.7c1.2-2.2,2.5-4.3,4.1-6.2l4.4,3.6c0.1,0.1,0.2,0.1,0.2,0.1
			c0.1,0,0.2,0,0.3-0.1c0.1-0.2,0.1-0.4-0.1-0.5l-4.3-3.6c1.6-1.9,3.5-3.6,5.5-5.1l3.3,4.2c0.1,0.1,0.2,0.1,0.3,0.1
			c0.1,0,0.2,0,0.2-0.1c0.2-0.1,0.2-0.4,0.1-0.5l-3.3-4.2c1.9-1.3,3.9-2.5,6-3.5l2.3,4.4c0.1,0.1,0.2,0.2,0.3,0.2c0.1,0,0.1,0,0.2,0
			c0.2-0.1,0.2-0.3,0.2-0.5L43,22.6c2.3-1,4.7-1.7,7.1-2.2l0.9,4.9c0,0.2,0.2,0.3,0.4,0.3c0,0,0,0,0.1,0c0.2,0,0.3-0.2,0.3-0.4
			l-0.9-4.9c1.4-0.2,2.8-0.4,4.2-0.5c0,0-0.1,0.1-0.1,0.1v6.6c0,1,1,1.8,2,1.8c1,0,2-0.8,2-1.8v-6.6c0,0-0.1,0-0.1-0.1
			c2,0.1,3.9,0.4,5.8,0.8l-1,5.6c0,0.2,0.1,0.4,0.3,0.4c0,0,0,0,0.1,0c0.2,0,0.3-0.1,0.4-0.3l1-5.6c2.5,0.6,4.9,1.5,7.2,2.6L70,28
			c-0.1,0.2,0,0.4,0.2,0.5c0.1,0,0.1,0,0.2,0c0.1,0,0.3-0.1,0.3-0.2l2.5-4.7c2.1,1.1,4,2.3,5.8,3.7l-3.3,4.2
			c-0.1,0.2-0.1,0.4,0.1,0.5c0.1,0,0.2,0.1,0.2,0.1c0.1,0,0.2-0.1,0.3-0.1l3.3-4.2c1.9,1.6,3.6,3.4,5.2,5.3l-4,3.3
			c-0.2,0.1-0.2,0.4,0,0.5c0.1,0.1,0.2,0.1,0.3,0.1c0.1,0,0.2,0,0.2-0.1l4-3.3c1.5,1.9,2.8,4,3.8,6.2l-4.4,2.3
			c-0.2,0.1-0.3,0.3-0.2,0.5c0.1,0.1,0.2,0.2,0.3,0.2c0.1,0,0.1,0,0.2,0l4.4-2.3c1.1,2.4,1.9,4.9,2.4,7.5L87,49.1
			c-0.2,0-0.3,0.2-0.3,0.4c0,0.2,0.2,0.3,0.4,0.3c0,0,0,0,0.1,0l4.7-1.1c0.3,1.5,0.5,2.3,0.5,4.3h-6.1c-1,0-1.8,0.5-1.8,1.5
			c0,1,0.8,1.5,1.8,1.5h6.1C92.3,58,92.1,59.7,91.8,61.2z"/>
		<path fill="#ABABAB" d="M80.1,53H59.9c-0.6-2-1.7-1.5-2.9-1.5c-0.4,0-0.8,0.2-1.2,0.3l-14-13.9c-0.7-0.7-1.8-0.7-2.5,0
			c-0.7,0.7-0.7,1.9,0,2.6l14.3,14.3c0,0.2-0.1,0.3-0.1,0.4c0,1.1,0.5,2.1,1.3,2.7l-9.9,17.6l1,0.6l9.9-17.6
			c0.4,0.1,0.8-0.3,1.2-0.3c1.3,0,2.3-0.2,2.9-2.2h20.2c1,0,1.8-0.5,1.8-1.5C81.9,53.5,81.1,53,80.1,53z"/>
	</g>
</g>
<g id="Employee" display="none">
	<path display="inline" fill="#ABABAB" d="M50,1C22.9,1,1,22.9,1,50s21.9,49,49,49s49-21.9,49-49S77.1,1,50,1z M50,15.7
		c9,0,16.2,7.3,16.2,16.2c0,9-7.3,16.2-16.2,16.2c-8.9,0-16.2-7.3-16.2-16.2C33.8,22.9,41.1,15.7,50,15.7z M50,89.7
		c-11,0-21.1-4-28.8-10.6c-1.9-1.6-3-4-3-6.5c0-11.2,9-20.1,20.2-20.1h23.2c11.2,0,20.2,8.9,20.2,20.1c0,2.5-1.1,4.9-3,6.5
		C71.1,85.7,61,89.7,50,89.7z"/>
</g>
<g id="GlobalSetting">
	<g>
		<path fill="#ABABAB" d="M23.9,62.9c0.7-0.5,1.5-0.9,2.3-1.1c0.6-0.2,1.3-0.3,1.9-0.3c0.3,0,0.6,0.1,0.9,0.1
			c-0.3-0.6-0.6-1.3-0.8-1.9c0.9,0.1,1.8,0.1,2.7,0.3c1.3-2.3,3.7-4,6.5-4h6.2c1.9,0,3.6,0.8,5,2c0-1.1,0.9-2.2,1.4-3.3
			C47.9,55,45,55.3,44,55.4V43h11.3c0,1-0.2,1.9-0.3,3.1c1-0.9,2.2-1.9,3.5-2.2c0.6-0.2,1.3,0.1,2,0.1c0-0.4,0.1-0.9,0.1-0.9h4.1
			c0.9-3,3.1-5,5.8-5h-9.9c-0.1-4-0.5-7.7-1.2-10.9c6,2.1,10.6,5.4,12.9,8.8c0.1,0.6,0.1,0.1,0.2,2.1H79c-1.3-21-18.3-37.2-39-37.2
			C18.5,0.8,1,17.9,1,39.5C1,53,7.8,64.7,18.2,71.7c0.1-0.3,0.2-0.7,0.4-1l2.8-5c-4.4-3.1-8-7.2-10.4-12c3.1,1.9,6.9,3.5,11.2,4.7
			C22.8,60,23.3,61.5,23.9,62.9z M69.5,25.5c-3.2-2-7.2-3.7-11.6-4.9C56.5,16,54.6,12.1,52.3,9C59.9,12.1,66.1,18,69.5,25.5z
			 M44,7.7c2,1.4,6.8,5.5,9.2,11.5c-2.9-0.5-7.2-0.8-9.2-0.9V7.7z M44,23.6c2,0.2,6.9,1.2,10.4,2c0.9,3.6,0.8,7.5,1,12.5H44V23.6z
			 M37,55h0.5c-3.9,0-7.6,0-11-0.7C25.6,50.7,25,46,24.9,43H37V55z M37,38H24.9c0.2-5,0.5-8.9,1.4-12.5c3.4-0.7,7.8-1.8,10.8-2V38z
			 M37,7.7v10.6c-2,0.1-6.3,0.4-9.2,0.9C30.2,13.1,35,9,37,7.7z M27.9,9c-2.3,3.1-4.2,7-5.6,11.5c-4.5,1.2-8.4,2.9-11.6,4.9
			C14.1,18,20.3,12.1,27.9,9z M8,44.7C7.9,44,7.8,43,7.7,43h11.9c0.1,3,0.5,6.9,1.2,10.1C14.8,51.1,10.3,48,8,44.7z M19.6,38H7.7
			c0-2,0.1-1.9,0.2-2.5c2.2-3.4,6.8-6.1,12.9-8.1C20.1,30.6,19.7,34,19.6,38z"/>
		<path fill="#ABABAB" d="M97.4,69l-2.9-1.7c0.1-0.8,0.2-1.5,0.2-2.3c0-0.8-0.1-1.5-0.2-2.3l2.9-1.7c0.7-0.4,1.3-1.1,1.5-1.9
			c0.2-0.8,0.1-1.7-0.3-2.4l-3.9-6.7c-0.6-1-1.7-1.6-2.8-1.6c-0.5,0-1.1,0.1-1.6,0.4l-2.1,1.7C86.9,49.5,86,48.6,85,48v-3.3
			c0-1.8-3.1-3.7-4.8-3.7h-7.8c-1.8,0-3.4,1.9-3.4,3.7V48c-1,0.6-2.7,1.4-3.9,2.4l-2.9-1.7c-0.5-0.3-1-0.4-1.6-0.4
			c-0.3,0-0.6,0-0.8,0.1c-0.8,0.2-1.5,0.8-1.9,1.5l-3.9,6.8c-0.9,1.5-0.4,3.5,1.2,4.4l2.9,1.7c0,0.3-0.1,0.5-0.1,0.8
			c0.6,0.5,1.1,1.1,1.5,1.8l3.1,5.4c1,1.7,1.3,3.7,0.7,5.7c-0.4,1.3-1.1,2.5-2,3.4c0.4,0.4,0.8,0.9,1.1,1.5l2.7-1.6
			c1.2,0.9,2.9,1.8,3.9,2.4v3.3c0,1.8,1.6,4.7,3.4,4.7h7.8c1.8,0,4.8-2.9,4.8-4.7V82c1-0.6,1.9-1.4,3.2-2.4l2.5,1.7
			c0.5,0.3,0.8,0.4,1.4,0.4c0.3,0,0.5,0,0.7-0.1c0.8-0.2,1.5-0.8,1.9-1.5l3.9-6.8C99.5,71.9,98.9,69.9,97.4,69z M76.3,76.7
			c-6.4,0-11.6-5.2-11.6-11.6c0-6.4,5.2-11.6,11.6-11.6c6.4,0,11.6,5.2,11.6,11.6C87.9,71.4,82.7,76.7,76.3,76.7z"/>
		<path fill="#ABABAB" d="M76.3,56.6c-4.6,0-8.4,3.8-8.4,8.4c0,4.6,3.8,8.4,8.4,8.4c4.6,0,8.4-3.8,8.4-8.4
			C84.6,60.4,80.9,56.6,76.3,56.6z"/>
		<path fill="#ABABAB" d="M57.4,82.9L55,81.6c0.1-0.6,0.2-1.2,0.2-1.8s-0.1-1.2-0.2-1.8l2.3-1.3c0.6-0.3,1-0.9,1.2-1.5
			c0.2-0.7,0.1-1.3-0.3-1.9l-3.1-5.4c-0.5-0.8-1.3-1.3-2.2-1.3c-0.4,0-0.9,0.1-1.3,0.3l-2.4,1.3c-1-0.7-2.3-1.4-3.3-1.9v-2.6
			c0-1.4-0.9-2.7-2.3-2.7h-6.2c-1.4,0-2.5,1.2-2.5,2.7v2.6c-1,0.5-2.2,1.1-3.2,1.9l-2.3-1.3c-0.4-0.2-0.8-0.3-1.3-0.3
			c-0.2,0-0.5,0-0.7,0.1c-0.7,0.2-1.2,0.6-1.5,1.2l-3.1,5.4c-0.7,1.2-0.3,2.8,0.9,3.5l2.3,1.3c-0.1,0.6-0.2,1.2-0.2,1.8
			s0.1,1.2,0.2,1.8l-2.3,1.3c-1.2,0.7-1.6,2.3-0.9,3.5l3.1,5.4c0.3,0.6,0.9,1,1.5,1.2C27.7,93,28,93,28.2,93c0.4,0,0.9-0.1,1.3-0.3
			l2.4-1.3c1,0.7,2.2,1.4,3.2,1.9v2.6c0,1.4,1.1,3.1,2.5,3.1h6.2c1.4,0,2.3-1.7,2.3-3.1v-2.6c1-0.5,2.3-1.1,3.3-1.9l2.4,1.3
			C52,92.9,52.5,93,53,93c0.2,0,0.5,0,0.7-0.1c0.7-0.2,1.2-0.6,1.6-1.2l3.1-5.4C59,85.2,58.6,83.6,57.4,82.9z M40.6,86.8
			c-3.9,0-7-3.1-7-7c0-3.9,3.1-7,7-7c3.9,0,7,3.1,7,7C47.6,83.6,44.5,86.8,40.6,86.8z"/>
	</g>
</g>
<g id="Home" display="none">
	<g display="inline">
		<g>
			<path fill="#ABABAB" d="M97.4,45.6L82.5,30.8V13.6c0-3.1-2.5-5.6-5.6-5.6c-3.1,0-5.6,2.5-5.6,5.6v5.9L60.2,8.5
				c-5.5-5.5-15-5.5-20.4,0L2.6,45.6c-2.2,2.2-2.2,5.8,0,7.9c2.2,2.2,5.8,2.2,7.9,0l37.1-37.1c1.2-1.2,3.3-1.2,4.5,0l37.1,37.1
				c1.1,1.1,2.5,1.6,4,1.6c1.4,0,2.9-0.5,4-1.6C99.5,51.4,99.5,47.8,97.4,45.6L97.4,45.6z M97.4,45.6"/>
		</g>
		<path fill="#ABABAB" d="M52,27.1c-1.1-1.1-2.8-1.1-3.9,0L15.4,59.7c-0.5,0.5-0.8,1.2-0.8,2v23.8c0,5.6,4.5,10.1,10.1,10.1h16.2
			v-25h18.3v25h16.2c5.6,0,10.1-4.5,10.1-10.1V61.7c0-0.7-0.3-1.4-0.8-2L52,27.1z M52,27.1"/>
	</g>
</g>
<g id="ManageAccount" display="none">
	<g display="inline">
		<path fill="#ABABAB" d="M99,4.1v91.8c0,1.7-1.4,3.1-3.1,3.1H4.1C2.4,99,1,97.6,1,95.9V4.1C1,4,1,3.9,1,3.8C1.2,2.2,2.5,1,4.1,1
			h91.8c1.6,0,2.9,1.2,3.1,2.8C99,3.9,99,4,99,4.1L99,4.1z M44,13.5c0,2.8,2.3,5,5,5c2.8,0,5-2.3,5-5c0-2.8-2.3-5-5-5
			C46.3,8.4,44,10.7,44,13.5L44,13.5z M25.7,13.5c0,2.8,2.3,5,5,5c2.8,0,5-2.3,5-5c0-2.8-2.3-5-5-5C28,8.4,25.7,10.7,25.7,13.5
			L25.7,13.5z M7.4,13.5c0,2.8,2.3,5,5,5c2.8,0,5-2.3,5-5c0-2.8-2.3-5-5-5C9.6,8.4,7.4,10.7,7.4,13.5L7.4,13.5z M92.8,25.9H7.2v66.9
			h85.6V25.9z M87.6,60.9l-2.2,5.8c-0.5,1.3-1.8,2.2-3.2,2.2h-3.2c-0.9,0-1.8-0.4-2.4-1l-2.2-2.2L72.2,68c-0.6,0.6-1.5,1-2.4,1h-2.5
			c-0.9,0-1.8-0.4-2.4-1l-2.2-2.2L60.5,68c-0.6,0.6-1.5,1-2.4,1h-4.3c-3.6,7.6-11.2,12.5-19.7,12.5c-12,0-21.8-9.8-21.8-21.8
			c0-12,9.8-21.8,21.8-21.8c8.5,0,16.2,4.9,19.7,12.5h28.4c1.4,0,2.7,0.9,3.2,2.2l2.2,5.8C87.9,59.3,87.9,60.2,87.6,60.9L87.6,60.9z
			 M26.3,55.6c-2.2,0-4.1,1.8-4.1,4.1c0,2.2,1.8,4.1,4.1,4.1c2.2,0,4.1-1.8,4.1-4.1C30.4,57.5,28.6,55.6,26.3,55.6L26.3,55.6z
			 M26.3,55.6"/>
	</g>
</g>
<g id="ProfileSettings" display="none">
	<g display="inline">
		<g>
			<path fill="#ABABAB" d="M37.1,47.5l-9.2,2.8c0.9,11.6,10.6,20.8,22.5,20.8c11.8,0,21.4-9.1,22.4-20.6l-9.9-3
				c-0.3-0.9-0.9-1.6-1.8-2.2c1-1.1,1.8-2.1,2.4-3c1.5-2.1,2.7-4.4,3.5-6.6c0.4-0.9,0.8-1.9,1.1-2.8c1.1-1,1.8-2.4,1.8-3.9v-3.6
				c0-1-0.3-2.1-0.9-2.9v-5.1C69,8.3,61.7,1,52.6,1h-5.3C38.3,1,31,8.3,31,17.3v5.1c-0.6,0.8-0.9,1.9-0.9,2.9V29
				c0,1.5,0.7,2.9,1.8,3.9c0.3,0.9,0.6,1.8,1.1,2.8c0.8,2.2,2.1,4.5,3.5,6.6c0.6,0.9,1.4,2,2.4,3C38,46,37.3,46.7,37.1,47.5
				L37.1,47.5z M46.9,60.2c0,0.4-0.3,0.8-0.8,0.9c-0.1,0-0.2,0-0.3,0c-0.3,0-0.6-0.2-0.8-0.4L42,56.9c-0.1-0.2-0.2-0.4-0.2-0.6
				l0-6.3c0-0.4,0.2-0.7,0.5-0.9c0.3-0.2,0.7-0.2,1,0c0.9,0.5,1.7,0.8,2.5,0.9c0.5,0.1,0.9,0.5,0.9,1v2.6c0.1,0.1,0.3,0.2,0.4,0.3
				c0.2,0.2,0.3,0.5,0.3,0.8L46.9,60.2z M58.2,56.2c0,0.2-0.1,0.4-0.2,0.6L55,60.8c-0.2,0.3-0.5,0.4-0.8,0.4c-0.1,0-0.2,0-0.3,0
				c-0.4-0.1-0.7-0.5-0.8-0.9l-0.6-5.6c0-0.3,0.1-0.6,0.3-0.8c0.1-0.1,0.2-0.2,0.4-0.3V51c0-0.5,0.4-0.9,0.9-1
				c0.8-0.1,1.7-0.5,2.5-0.9c0.3-0.2,0.7-0.2,1,0c0.3,0.2,0.5,0.5,0.5,0.9V56.2z M37.2,30.4l-0.1-0.4l-1-0.7
				c-0.3-0.2-0.5-0.5-0.5-0.9v-1.7c0-0.6,0.5-1,1-1h0.4v-1.9c0-0.4,0.2-0.8,0.6-0.9c1.4-0.7,4.3-1.9,7.3-1.9c2.4,0,4.3,0.8,5.8,2.3
				c1.9,1.9,4,2.9,6.4,2.9c1.3,0,2.7-0.3,4.1-0.9c0.3-0.1,0.7-0.1,1,0.1c0.1,0.1,0.3,0.2,0.3,0.3h0.6c0.6,0,1,0.5,1,1v1.7
				c0,0.4-0.2,0.7-0.5,0.9l-1,0.7l-0.1,0.4C62.4,32.9,61,36.1,59,39c-2.6,3.7-5,5.4-6.2,5.4h-5.6c-1.2,0-3.6-1.7-6.2-5.4
				C39,36.1,37.6,32.9,37.2,30.4L37.2,30.4z M37.2,30.4"/>
			<path fill="#ABABAB" d="M92.2,44.8h-9.6c-2.7,0-5,2.2-5,5c0,15-12.2,27.2-27.3,27.2c-15,0-27.3-12.2-27.3-27.2c0-2.7-2.2-5-5-5
				H7.8c-2.7,0-5,2.2-5,5c0,2.7,2.2,5,5,5h5.7c0.8,6.2,3.2,11.9,6.7,16.8l-4.7,4.7c-1.9,1.9-1.9,5.1,0,7c1,1,2.2,1.5,3.5,1.5
				c1.3,0,2.5-0.5,3.5-1.5l4.5-4.5c5.1,4.1,11.2,6.9,18,7.9V94c0,2.7,2.2,5,5,5c2.7,0,5-2.2,5-5v-7.4c6.9-0.8,13.1-3.6,18.3-7.6
				l4.2,4.2c1,1,2.2,1.5,3.5,1.5c1.3,0,2.5-0.5,3.5-1.5c1.9-1.9,1.9-5.1,0-7l-4.3-4.3c3.7-4.9,6.2-10.8,7-17.2h5c2.7,0,5-2.2,5-5
				C97.1,47,94.9,44.8,92.2,44.8L92.2,44.8z M92.2,44.8"/>
		</g>
	</g>
</g>
<g id="PunchManagement" display="none">
	<g display="inline">
		<path fill="#ABABAB" d="M75.3,50.1c-7-2.3-21-6.8-23.1-7.3c-0.7-0.1-1.3,0.3-1.9,0.3c-1.7,0-3.1,0.8-4,1.8H46v-1.1
			c0-0.2-3.1-24.7-3.1-24.7c-0.3-2.6-2.3-3.2-4.5-3.2h-0.2c-2.4,0-4.7,1.4-4.7,3.9l0,44.3c0,0.6-0.4,0.8-1,0.8h0
			c-0.1,0-0.1,0.1-0.2,0.1c-1.7-0.1-5.6-0.1-9.4-5.5c-0.5-0.7-1-1.4-1.4-2c-1.3-1.9-3.1-2.7-4.7-2.7c-2.9,0-5.5,2.8-4.9,6.6
			C12.8,67,18.8,79,30.6,90h42.3l4-7.5c1.5-2.6,2.1-5.8,2.1-8.8V55.5C79,53.1,77.7,50.9,75.3,50.1z"/>
		<path fill="#ABABAB" d="M4,1v37c0,0.7,0,2,0.7,2h23.8l0-20.4c0-1.4,0.3-2.9,0.8-4.2c0,0,0-0.2,0.1-0.3c2.6-5.3,10.4-7,15-3.5
			c2,1.5,3.3,4.1,3.6,6.7c0,0.1,0.1,1.6,2.2,21.6h44.3c0.7,0,1.4-1.3,1.4-2V1H4z M67,31.6c0,0.8-0.6,1.4-1.4,1.4h-3.2
			c-0.8,0-1.4-0.6-1.4-1.4v-3.2c0-0.8,0.6-1.4,1.4-1.4h3.2c0.8,0,1.4,0.6,1.4,1.4V31.6z M67,22.6c0,0.8-0.6,1.4-1.4,1.4h-3.2
			c-0.8,0-1.4-0.6-1.4-1.4v-3.2c0-0.8,0.6-1.4,1.4-1.4h3.2c0.8,0,1.4,0.6,1.4,1.4V22.6z M67,14.6c0,0.8-0.6,1.4-1.4,1.4h-3.2
			c-0.8,0-1.4-0.6-1.4-1.4v-3.2c0-0.8,0.6-1.4,1.4-1.4h3.2c0.8,0,1.4,0.6,1.4,1.4V14.6z M78,31.6c0,0.8-0.6,1.4-1.4,1.4h-3.2
			c-0.8,0-1.4-0.6-1.4-1.4v-3.2c0-0.8,0.6-1.4,1.4-1.4h3.2c0.8,0,1.4,0.6,1.4,1.4V31.6z M78,22.6c0,0.8-0.6,1.4-1.4,1.4h-3.2
			c-0.8,0-1.4-0.6-1.4-1.4v-3.2c0-0.8,0.6-1.4,1.4-1.4h3.2c0.8,0,1.4,0.6,1.4,1.4V22.6z M78,14.6c0,0.8-0.6,1.4-1.4,1.4h-3.2
			c-0.8,0-1.4-0.6-1.4-1.4v-3.2c0-0.8,0.6-1.4,1.4-1.4h3.2c0.8,0,1.4,0.6,1.4,1.4V14.6z M85,31.6c0,0.8-0.6,1.4-1.4,1.4h-3.2
			c-0.8,0-1.4-0.6-1.4-1.4v-3.2c0-0.8,0.6-1.4,1.4-1.4h3.2c0.8,0,1.4,0.6,1.4,1.4V31.6z M85,22.6c0,0.8-0.6,1.4-1.4,1.4h-3.2
			c-0.8,0-1.4-0.6-1.4-1.4v-3.2c0-0.8,0.6-1.4,1.4-1.4h3.2c0.8,0,1.4,0.6,1.4,1.4V22.6z M85,14.6c0,0.8-0.6,1.4-1.4,1.4h-3.2
			c-0.8,0-1.4-0.6-1.4-1.4v-3.2c0-0.8,0.6-1.4,1.4-1.4h3.2c0.8,0,1.4,0.6,1.4,1.4V14.6z"/>
		<path fill="#ABABAB" d="M29,96.2c0,1.4,2.7,2.8,4.1,2.8h37.3c1.4,0,2.6-1.4,2.6-2.8V91H29V96.2z"/>
	</g>
</g>
<g id="shift_x5F_sch" display="none">
	<g display="inline">
		<path fill="#ABABAB" d="M79.4,60.7c-10.5,0-19,8.5-19,19s8.5,19,19,19s19-8.5,19-19S89.9,60.7,79.4,60.7z M79.4,65.9
			c3.3,0,6.1,2.7,6.1,6.1c0,3.3-2.7,6.1-6.1,6.1c-3.3,0-6.1-2.7-6.1-6.1C73.3,68.6,76.1,65.9,79.4,65.9z M90.2,89.6
			c-2.9,2.5-6.7,4-10.8,4c-4.1,0-7.9-1.5-10.8-4c-0.7-0.6-1.1-1.8-1.1-2.8c0-4.2,3.4-7.9,7.6-7.9h8.7c4.2,0,7.5,3.7,7.5,7.9
			C91.3,87.8,90.9,89,90.2,89.6z"/>
		<polygon fill="#ABABAB" points="40,80 40,40 32.3,40 22,45.5 23.5,52.5 30.9,49 32,49 32,80 		"/>
		<path fill="#ABABAB" d="M56.4,74c-3.6,0-7.1-1.1-8.9-1.9l-1.6,6.9c2.2,1.1,6.2,2.2,10.9,2.2c0.3,0,0.6,0,0.9,0c0-0.5,0-0.9,0-1.4
			c0-2.1,0.3-4.1,0.8-6C57.8,73.9,57.1,74,56.4,74z"/>
		<path fill="#ABABAB" d="M73,49v-9H50.5l-2.6,21.2c1.6-0.2,3.1,0,5.3,0c5.7,0,8.9,1.5,10.3,3.7c2.1-2.3,4.8-4.1,7.7-5.3
			c-0.7-0.8-1.4-1.5-2.3-2.1c-2.8-2-6.6-2.8-10.3-2.8c-1,0-1.7,0.1-2.5,0.2l0.8-5.9H73z"/>
		<path fill="#ABABAB" d="M60.4,89H16.5C12,89,8,86.5,8,82V37.6c0-3.1,2.8-6.6,5.9-6.6h67.8c3.1,0,6.3,3.6,6.3,6.6v21.9
			c2,1,5,2.5,6,4.4V20.8c0-6.3-4-11.6-9-13.4v4.8c0,4.8-4.5,8.8-9.4,8.8h-0.4c-4.8,0-9.2-4-9.2-8.8V6h-8v6.2C58,17,52.7,21,47.9,21
			h-0.4c-4.8,0-8.5-4-8.5-8.8V6h-9v6.2c0,4.8-5,8.8-9.8,8.8h-0.4c-4.8,0-8.8-4-8.8-8.8V7.5c-5,1.8-9,7.1-9,13.3v62.4
			C2,91,7.7,97,15.4,97h51.2C64,94,61.9,92,60.4,89z"/>
		<path fill="#ABABAB" d="M19.8,16h0.4c1.4,0,3.2-0.2,4.1-1.2C25,14,26,13.4,26,12.2V6c0-1.3-1.1-2.4-1.9-3.2c0,0-0.3,0-0.3,0
			c0,0-0.2-0.2-0.2-0.2C22.8,1.7,21.5,1,20.2,1h-0.4c-1.3,0-2.4,0-3.2,1h0c0,0,0.4,0.4,0.4,0.4C16.1,3.2,16,4.8,16,6v6.2
			c0,1.1,0,1.8,0.7,2.6C17.5,15.8,18.4,16,19.8,16z"/>
		<path fill="#ABABAB" d="M45.5,16l-0.3,0c0,0-0.1-0.4-0.1-0.4c0.7,0.5,1.4,0.4,2.4,0.4h0.4c0.8,0,1.5,0.2,2.2-0.2c0,0,0,0.2,0,0.2
			c0,0-0.2,0.1-0.2,0.1c1.4-0.8,2.1-2.2,2.1-3.9V6c0-1.5-0.5-2.8-1.6-3.7c0,0,0.1,0,0.1,0l0.1-0.2C49.8,1.5,49,1,47.9,1h-0.4
			c-1.2,0-2.3,0.7-3.1,1.4c0,0,0,0.1,0,0.1c0,0,0.5,0.1,0.5,0.1C44,3.4,44,4.7,44,6v6.2C44,13.8,44.2,15.2,45.5,16z"/>
		<path fill="#ABABAB" d="M75.2,16h0.4c1.4,0,2.5-0.2,3.4-1.2c0.7-0.8,1-1.4,1-2.6V6c0-1.7-0.9-3.2-2.3-4c0,0,0,0,0,0
			c-0.1-0.1-0.2-0.1-0.3-0.2c0,0,0,0,0,0c0,0-0.1,0-0.1,0c0,0-0.1,0-0.1,0c0,0,0,0-0.1,0c0,0-0.1-0.2-0.1-0.3
			C76.6,1.3,76.1,1,75.6,1h-0.4c-0.2,0-0.3,0.2-0.5,0.3C72.5,1.6,71,3.7,71,6v6.2C71,14.7,72.6,16,75.2,16z"/>
	</g>
</g>
<g id="shift-management" display="none">
	<g display="inline">
		<path fill="#ABABAB" d="M48.4,43.2c-0.5-1.2-1.7-1.8-2.8-2.3l-7.7-3.5l-3.7-3.1l-6,6L30.7,57c0,0.1,0,0.1,0,0.2L28,60.8
			c0,0.1-0.1,0.1-0.2,0.1c-0.1,0-0.1,0-0.2-0.1L25,57.2c0,0,0-0.1,0-0.2l2.5-16.7l-6-5.9l-3.7,3.1L10,41.1c-1.1,0.5-2.5,1.3-2.8,2.1
			c0,0-8.4,19.8-3.9,19.8h49C56.9,63,48.4,43.2,48.4,43.2z"/>
		<path fill="#ABABAB" d="M27.8,34.3c7.9,0,13.8-7.4,14-19.8c0.1-8.6-4-13.7-14-13.7c-10,0-14.1,5.1-14,13.7
			C14,26.9,19.9,34.3,27.8,34.3z"/>
		<path fill="#ABABAB" d="M92.8,78.9c-0.5-1.2-1.7-2-2.8-2.4L82.2,73l-3.7-3.1l-6,5.9l2.5,16.7c0,0.1,0,0.1,0,0.2l-2.6,3.6
			c0,0.1-0.1,0.1-0.2,0.1c-0.1,0-0.1,0-0.2-0.1l-2.6-3.6c0,0,0-0.1,0-0.2l2.5-16.7l-6-5.9l-3.7,3.1l-7.7,3.6
			c-1.1,0.5-2.5,1.5-2.8,2.4c0,0-8.4,20.1-3.9,20.1h49C101.3,99,92.8,78.9,92.8,78.9z"/>
		<path fill="#ABABAB" d="M58.2,49.9c0.1,12.4,6,19.8,14,19.8c7.9,0,13.8-7.4,14-19.8c0.1-8.6-4-13.7-14-13.7
			C62.2,36.2,58.1,41.3,58.2,49.9z"/>
		<path fill="#ABABAB" d="M39.4,91.9c-10,0-19-5.8-23.3-14.6l2.2-0.4c0.6-0.1,1-0.5,1.2-1.1c0.2-0.5,0.1-1.1-0.3-1.6l-6.6-7.6
			c-0.3-0.4-0.8-0.6-1.2-0.6c-0.1,0-0.2,0-0.3,0c-0.6,0.1-1,0.5-1.2,1.1l-3.3,9.5c-0.2,0.5-0.1,1.1,0.3,1.6c0.4,0.4,1,0.6,1.5,0.5
			l2.8-0.5C16,89.4,27,96.7,39.4,96.7c1.3,0,2.4-1.1,2.4-2.4C41.8,93,40.7,91.9,39.4,91.9z"/>
		<path fill="#ABABAB" d="M48.8,8.5c10,0,19,5.8,23.3,14.6l-2.2,0.4c-0.6,0.1-1,0.5-1.2,1.1c-0.2,0.5-0.1,1.1,0.3,1.6l6.6,7.6
			c0.3,0.4,0.8,0.6,1.2,0.6c0.1,0,0.2,0,0.3,0c0.6-0.1,1-0.5,1.2-1.1l3.3-9.5c0.2-0.5,0.1-1.1-0.3-1.6c-0.4-0.4-1-0.6-1.5-0.5
			L77,22.2C72.1,11,61.1,3.7,48.8,3.7c-1.3,0-2.4,1.1-2.4,2.4C46.3,7.4,47.4,8.5,48.8,8.5z"/>
	</g>
</g>
<g id="site_x5F_settings" display="none">
	<g display="inline">
		<path fill="#ABABAB" d="M46.2,95.1c-1.6-0.4-2.9-1.5-3.8-2.9l-3.8-6.6c-1.7-3-0.7-6.8,2.3-8.5l1.1-0.6c0-0.2,0-0.4,0-0.5
			c0-0.2,0-0.4,0-0.5L41,74.8c-3-1.7-4-5.5-2.3-8.5l3.8-6.6c0.8-1.4,2.2-2.5,3.8-2.9c0.5-0.1,1.1-0.2,1.6-0.2c1.1,0,2.2,0.3,3.1,0.8
			l1.6,0.7c0.3-0.2,0.4-0.4,1.4-0.5v-1.3c0-3.4,1.8-6.3,5.2-6.3h7.6c2.3,0,4.3,1.3,5.3,3.1c2.5-7.2,4.1-14.5,4.1-21.5
			C76.2,14.7,62.5,1,45.6,1S15,14.7,15,31.6C15,62.3,45.6,99,45.6,99s1.1-1.3,2.9-3.7c-0.2,0-0.4,0-0.6,0
			C47.3,95.3,46.8,95.3,46.2,95.1z M28.6,31.6c0-9.4,7.6-16.9,16.9-16.9s16.9,7.6,16.9,16.9s-7.6,16.9-16.9,16.9S28.6,41,28.6,31.6z
			"/>
		<path fill="#ABABAB" d="M83.5,79.9l-2.9-1.6c0.1-0.7,0.2-1.5,0.2-2.2c0-0.8-0.1-1.5-0.2-2.2l2.9-1.6c0.7-0.4,1.2-1.1,1.5-1.9
			c0.2-0.8,0.1-1.6-0.3-2.4l-3.8-6.5c-0.6-1-1.6-1.6-2.7-1.6c-0.5,0-1.1,0.1-1.5,0.4l-2.8,1.6c-1.2-0.9-1.8-1.7-3.8-2.3v-3.2
			c0-1.7-1.5-3.3-3.2-3.3h-7.6c-1.7,0-3.2,1.6-3.2,3.3v3.2c-1,0.6-2.6,1.4-3.8,2.3l-2.8-1.6c-0.5-0.3-1-0.4-1.5-0.4
			c-0.3,0-0.5,0-0.8,0.1c-0.8,0.2-1.5,0.7-1.9,1.4l-3.8,6.5c-0.9,1.5-0.3,3.4,1.1,4.3l2.9,1.6c-0.1,0.7-0.2,1.5-0.2,2.2
			c0,0.8,0.1,1.5,0.2,2.2l-2.9,1.6c-1.5,0.9-2,2.8-1.1,4.3l3.8,6.6c0.4,0.7,1.1,1.2,1.9,1.4c0.3,0.1,0.5,0.1,0.8,0.1
			c0.5,0,1.1-0.1,1.6-0.4l2.8-1.6c1.2,0.9,2.8,1.7,3.8,2.3v3.2c0,1.7,1.5,2.3,3.2,2.3h7.6c1.7,0,3.2-0.6,3.2-2.3v-3.2
			c2-0.6,2.6-1.4,3.8-2.3l2.8,1.6c0.5,0.3,1,0.4,1.5,0.4c0.3,0,0.5,0,0.8-0.1c0.8-0.2,1.5-0.7,1.9-1.4l3.8-6.6
			C85.5,82.6,85,80.7,83.5,79.9z M63,84.6c-4.7,0-8.6-3.8-8.6-8.6c0-4.7,3.8-8.6,8.6-8.6c4.7,0,8.6,3.8,8.6,8.6
			C71.6,80.8,67.7,84.6,63,84.6z"/>
	</g>
</g>
<g id="TeamCenter" display="none">
	<g display="inline">
		<path fill="#ABABAB" d="M49.5,49.8C58.9,49.8,67,40.1,67,30v-3.2c0-10.1-8.1-17.2-17.5-17.2C40.1,9.7,32,16.8,32,26.9V30
			C32,40.1,40.1,49.8,49.5,49.8z"/>
		<path fill="#ABABAB" d="M78,53.1c2.7,0,10-3.5,10-10.7V37c0-7.2-5.3-10.7-10-10.7c-4.6,0-10,3.5-10,10.7v5.3
			C68,49.6,75.5,53.1,78,53.1z"/>
		<path fill="#ABABAB" d="M76.6,66.4c0-0.1,0-0.1,0-0.2c-0.1-0.6-0.2-1.2-0.4-1.8c0,0-0.2,0-0.2,0c-0.4-1.3-2-2.5-2-3.7v0
			c-2-2-3.4-4-7-6c-1.9-1.1-2.6-1-3.8-1c-1.8,0-3.4,1.4-6.1,4.4h0l-2.5,1.8c-0.1,0.1-2.7,3.6-4.7,3.6c-2,0-4.6-3.4-4.7-3.5L42.8,58
			h0c-2.7-3-4.3-4.4-6.2-4.4c-1.2,0-2.2,0.4-3.9,1.5c-3.4,2.2-5.7,4-7.2,6h0c0,0,0-0.2,0-0.1c-0.9,1.2-1.5,2.4-1.8,3.6c0,0,0,0,0,0
			c-0.2,0.6-0.3,1.2-0.4,1.8c0,0.1,0,0.1,0,0.2c-0.1,0.7-0.1,1.3-0.1,2c0,0.1,0,15.2,0,15.3c0,4.8,1.8,7.3,6.7,7.3h40.1
			c4.9,0,6.7-2.4,6.7-7.3c0-0.1,0-14.9,0-15C76.7,68.1,76.7,67.1,76.6,66.4z"/>
		<path fill="#ABABAB" d="M99,68.8c0-3.7-1.4-9.3-7.6-12.9c-2.6-1.5-6-0.3-9.6,2.8L78,62.1V83h14.3c5.1,0,6.7-2.2,6.7-7.1
			C99,75.8,99,68.9,99,68.8z M82.2,64.4C82.1,64.5,82.2,62.9,82.2,64.4L82.2,64.4z"/>
		<path fill="#ABABAB" d="M31,42.4V37c0-7.2-5.8-10.7-10.5-10.7C15.9,26.3,10,29.8,10,37v5.3c0,7.2,8,10.7,10.5,10.7
			C23.2,53.1,31,49.6,31,42.4z"/>
		<path fill="#ABABAB" d="M8.6,55.9C2.4,59.5,1,65.1,1,68.8c0,0.1,0,7,0,7.1C1,80.8,2.6,83,7.7,83H21V62.1l-3.3-3.3
			C14.1,55.7,11.2,54.5,8.6,55.9z M17.8,64.4C17.8,62.9,17.9,64.5,17.8,64.4L17.8,64.4z"/>
	</g>
</g>
</svg>
