<?xml version="1.0" encoding="utf-8"?>
<!-- Generator: Adobe Illustrator 18.0.0, SVG Export Plug-In . SVG Version: 6.00 Build 0)  -->
<!DOCTYPE svg PUBLIC "-//W3C//DTD SVG 1.1//EN" "http://www.w3.org/Graphics/SVG/1.1/DTD/svg11.dtd">
<svg version="1.1" id="Capa_1" xmlns="http://www.w3.org/2000/svg" xmlns:xlink="http://www.w3.org/1999/xlink" x="0px" y="0px"
	 viewBox="0 0 380 380" enable-background="new 0 0 380 380" xml:space="preserve">
<g>
	<path d="M208.7,304.2c0-0.9,0.1-1.8,0.2-2.6h-180V98.8h268.6v65.6c2.9-2,6.4-3.2,10-3.2c1.1,0,2.1,0.1,3.2,0.3
		c3.2-4.6,8.4-7.6,14.4-7.6h1.4V20.1c0-5.3-4.3-9.6-9.6-9.6H9.6c-5.3,0-9.6,4.3-9.6,9.6v300.8c0,5.3,4.3,9.6,9.6,9.6h202.1
		c-1.9-2.9-3-6.4-3-10.2V304.2z M279.1,43.2c7.6,0,13.7,6.1,13.7,13.7c0,7.6-6.1,13.7-13.7,13.7s-13.7-6.1-13.7-13.7
		C265.4,49.3,271.5,43.2,279.1,43.2z M236.1,43.2c7.6,0,13.7,6.1,13.7,13.7c0,7.6-6.1,13.7-13.7,13.7c-7.6,0-13.7-6.1-13.7-13.7
		C222.4,49.3,228.5,43.2,236.1,43.2z"/>
	<path d="M351.7,344.7c4.2-4.2,4.2-10.9,0-15.1l-2-2c0.9-2,1.8-4,2.5-6.1h2.8c5.9,0,10.7-4.8,10.7-10.7v-20.3
		c0-5.9-4.8-10.7-10.7-10.7h-2.8c-0.7-2.1-1.6-4.1-2.5-6.1l2-2c4.2-4.2,4.2-10.9,0-15.1l-14.3-14.3c-4.2-4.2-10.9-4.2-15.1,0l-2,2
		c-2-0.9-4-1.8-6.1-2.5v-2.8c0-5.9-4.8-10.7-10.7-10.7h-20.3c-5.9,0-10.7,4.8-10.7,10.7v2.8c-2.1,0.7-4.1,1.6-6.1,2.5l-2-2
		c-4.2-4.2-10.9-4.2-15.1,0l-14.3,14.3c-4.2,4.2-4.2,10.9,0,15.1l2,2c-0.9,2-1.8,4-2.5,6.1h-2.8c-5.9,0-10.7,4.8-10.7,10.7v20.3
		c0,5.9,4.8,10.7,10.7,10.7h2.8c0.7,2.1,1.6,4.1,2.5,6.1l-2,2c-4.2,4.2-4.2,10.9,0,15.1l14.3,14.3c4.2,4.2,10.9,4.2,15.1,0l2-2
		c2,0.9,4,1.8,6.1,2.5v2.8c0,5.9,4.8,10.7,10.7,10.7h20.3c5.9,0,10.7-4.8,10.7-10.7v-2.8c2.1-0.7,4.1-1.6,6.1-2.5l2,2
		c4.2,4.2,10.9,4.2,15.1,0L351.7,344.7z M293.4,335.5c-19.2,0-34.8-15.6-34.8-34.8c0-19.2,15.6-34.8,34.8-34.8
		c19.2,0,34.8,15.6,34.8,34.8C328.2,320,312.6,335.5,293.4,335.5z"/>
	<path d="M347.1,187.3H346c-0.3-0.8-0.6-1.6-1-2.4l0.8-0.8c1.6-1.6,1.6-4.2,0-5.8l-5.5-5.5c-0.8-0.8-1.9-1.2-2.9-1.2
		c-1.1,0-2.1,0.4-2.9,1.2l-0.8,0.8c-0.8-0.4-1.5-0.7-2.4-1v-1.1c0-2.3-1.8-4.1-4.1-4.1h-7.8c-2.3,0-4.1,1.8-4.1,4.1v1.1
		c-0.8,0.3-1.6,0.6-2.3,1l-0.8-0.8c-0.8-0.8-1.9-1.2-2.9-1.2c-1.1,0-2.1,0.4-2.9,1.2l-5.5,5.5c-1.6,1.6-1.6,4.2,0,5.8l0.8,0.8
		c-0.4,0.8-0.7,1.5-1,2.4h-1.1c-2.3,0-4.1,1.8-4.1,4.1v7.8c0,2.3,1.8,4.1,4.1,4.1h1.1c0.3,0.8,0.6,1.6,1,2.4l-0.8,0.8
		c-1.6,1.6-1.6,4.2,0,5.8l5.5,5.5c0.8,0.8,1.9,1.2,2.9,1.2c1.1,0,2.1-0.4,2.9-1.2l0.8-0.8c0.8,0.4,1.5,0.7,2.4,1v1.1
		c0,2.3,1.8,4.1,4.1,4.1h7.8c2.3,0,4.1-1.8,4.1-4.1V218c0.8-0.3,1.6-0.6,2.4-1l0.8,0.8c0.8,0.8,1.9,1.2,2.9,1.2
		c1.1,0,2.1-0.4,2.9-1.2l5.5-5.5c1.6-1.6,1.6-4.2,0-5.8l-0.8-0.8c0.4-0.8,0.7-1.5,1-2.4h1.1c2.3,0,4.1-1.8,4.1-4.1v-7.8
		C351.2,189.1,349.3,187.3,347.1,187.3z M323.3,208.7c-7.4,0-13.4-6-13.4-13.4s6-13.4,13.4-13.4s13.4,6,13.4,13.4
		S330.7,208.7,323.3,208.7z"/>
</g>
</svg>
