<?xml version="1.0" encoding="utf-8"?>
<!-- Generator: Adobe Illustrator 18.0.0, SVG Export Plug-In . SVG Version: 6.00 Build 0)  -->
<!DOCTYPE svg PUBLIC "-//W3C//DTD SVG 1.1//EN" "http://www.w3.org/Graphics/SVG/1.1/DTD/svg11.dtd">
<svg version="1.1" id="Capa_1" xmlns="http://www.w3.org/2000/svg" xmlns:xlink="http://www.w3.org/1999/xlink" x="0px" y="0px"
	fill="#777" height="20px" width="26px" viewBox="-168.2 -168.2 380 380" enable-background="new -168.2 -168.2 380 380" xml:space="preserve">
<g>
	<path d="M31.2-162.2c-72.9,0-135.5,45.6-163.1,110.5l-18.4-7.5c-4.4-1.8-9.3-0.7-12.6,2.7c-3.3,3.4-4.2,8.5-2.4,12.9l29.2,69.7
		c1.2,2.9,3.5,5.2,6.3,6.3c2.9,1.2,6,1.1,8.9-0.1l68.3-29.8c4.3-1.9,7.1-6.2,7-11c-0.1-4.8-2.9-9.1-7.3-10.8l-23.2-9.5
		c18.7-42.3,59.6-71.9,107.1-71.9c65.1,0,118,55.2,118,123s-52.9,123-118,123c-28.9,0-55.3-10.9-75.8-29c-12-10.5-29.8-10-40.9,1.4
		c-0.1,0.2-0.3,0.3-0.4,0.4c-12.3,12.6-11.4,33.1,1.8,44.7c31.1,27.4,71.4,44,115.4,44c98.3,0,178.4-82.8,178.4-184.6
		C209.6-79.4,129.6-162.2,31.2-162.2z"/>
</g>
<path d="M-52.3,27.3c-9,0-16.3,7.3-16.3,16.4c0,9,7.3,16.3,16.3,16.3l73.4,0v0h32.7v0V27.3V-46c0-9-7.3-16.3-16.4-16.3
	c-9,0-16.3,7.3-16.3,16.3l0,73.4C21.1,27.3-52.3,27.3-52.3,27.3z"/>
</svg>
