<?xml version="1.0" encoding="utf-8"?>
<!-- Generator: Adobe Illustrator 18.0.0, SVG Export Plug-In . SVG Version: 6.00 Build 0)  -->
<!DOCTYPE svg PUBLIC "-//W3C//DTD SVG 1.1//EN" "http://www.w3.org/Graphics/SVG/1.1/DTD/svg11.dtd">
<svg version="1.1" id="Layer_1" xmlns="http://www.w3.org/2000/svg" xmlns:xlink="http://www.w3.org/1999/xlink" x="0px" y="0px"
	height="20px" width="26px" fill="#fff" viewBox="0 0 380 380" enable-background="new 0 0 380 380" xml:space="preserve">
<g display="none">
	<g display="inline">
		<g>
			<circle fill="#777" cx="310.2" cy="311.3" r="22.2"/>
			<path fill="#777" d="M433.6,289.4l-31-5.8c-1.8-6.2-4.3-12.3-7.4-18l18-26.2c1.7-2.4,1.3-6.1-0.8-8.2l-22.1-22.1
				c-2.1-2.1-5.7-2.4-8.2-0.8l-26.2,18c-5.9-3.2-12-5.6-18.5-7.6l-5.8-30.8c-0.5-2.9-3.3-5.2-6.3-5.2H294c-2.9,0-5.8,2.3-6.3,5.2
				l-5.9,31.1c-6.2,1.9-12.1,4.4-17.7,7.4l-25.9-17.7c-2.4-1.7-6.1-1.3-8.2,0.8l-22,22.1c-2.1,2.1-2.4,5.7-0.8,8.2l17.8,26
				c-3,5.6-5.4,11.6-7.3,17.7l-31,5.8c-2.9,0.5-5.2,3.4-5.2,6.3V327c0,2.9,2.3,5.8,5.2,6.3l31,5.8c1.9,6.3,4.4,12.4,7.5,18.1
				l-17.6,25.7c-1.7,2.4-1.3,6.1,0.8,8.2l22.1,22.1c2.1,2.1,5.7,2.4,8.2,0.8l25.7-17.6c5.5,3,11.4,5.4,17.6,7.3l5.9,31.1
				c0.5,2.9,3.4,5.2,6.3,5.2h31.3c2.9,0,5.8-2.3,6.3-5.2l5.8-30.8c6.4-1.8,12.5-4.4,18.3-7.5l26,17.8c2.4,1.7,6.1,1.3,8.2-0.8
				l22.1-22.1c2.1-2.1,2.4-5.7,0.8-8.2l-17.7-25.9c3.2-5.8,5.6-11.9,7.6-18.3l31-5.8c2.9-0.5,5.2-3.4,5.2-6.3v-31.3
				C438.8,292.7,436.4,289.9,433.6,289.4z M310.2,365c-29.6,0-53.6-24-53.6-53.6s24-53.6,53.6-53.6s53.6,24,53.6,53.6
				C363.8,340.9,339.8,365,310.2,365z"/>
		</g>
	</g>
</g>
<g>
	<path fill="none" d="M155.3,304.3c1.8,0,3.3-0.6,4.5-1.8c1.3-1.1,1.8-2.7,1.8-4.4s-0.6-3.3-1.8-4.4c-1.3-1.1-2.8-1.8-4.5-1.8h-19.5
		v12.4H155.3z"/>
	<path fill="none" d="M143.9,327.3c2.8,0,5-1,7-2.8c1.8-1.8,2.8-4.3,2.8-7.1s-1-5.1-2.8-7.1c-1.8-1.8-4.3-2.8-7-2.8
		c-2.8,0-5,1-6.9,2.8c-0.5,0.5-0.9,1-1.2,1.6v7.4h-1.4c0.3,2,1.1,3.7,2.6,5.3C138.9,326.3,141.2,327.3,143.9,327.3z"/>
	<path fill="none" d="M55.2,222.6l6.9,2.2v-13.4l-3.2-1c-1.6-0.5-3.3-0.5-4.8,0.5c-1.5,0.8-2.6,2.2-3.1,3.8s-0.5,3.3,0.5,4.8
		C52.2,220.9,53.6,222.1,55.2,222.6z"/>
	<path fill="none" d="M87.2,327.3c2.8,0,5-1,7-2.8c1.4-1.4,2.3-3.2,2.6-5.3H77.6c0.3,2,1.2,3.7,2.6,5.3
		C82,326.3,84.4,327.3,87.2,327.3z"/>
	<path fill="none" d="M71.4,245.6h64.4v37.9h24.7c1.5,0,2.8-0.5,3.9-1.5c1.1-1,1.8-2.3,2.1-3.8l5.1-29.6c0.4-1.6-0.1-3.3-1.3-4.8
		c-1.1-1.3-2.6-2.3-4.4-2.4L82.7,232l-0.4-4H69.6L71.4,245.6z"/>
	<path fill="none" d="M43.7,189.6c4.8-4.2,9.8-7.9,15.3-11.1c1-0.6,2.1-1.2,3.1-1.7v-22.5h73.7v12.9c5.3,1.3,10.5,3.1,15.6,5.3
		c1,0.4,1.9,0.9,2.9,1.3v-19.5H228V228h-21.6c0,0,0,0,0,0c5.4,12.7,8.1,26.3,8.1,40.7c0,9.5-1.3,18.9-3.8,27.9
		c-2.5,9-6,17.2-10.4,25c-3.3,5.9-7.3,11.4-11.8,16.5H213h125V44.3H43.7V189.6z M246.4,62.1h73.7v73.7h-73.7V62.1z M246.4,154.3
		h73.7V228h-73.7V154.3z M246.4,245.6h73.7v73.7h-73.7V245.6z M154.3,62.1H228v73.7h-73.7V62.1z M62.1,62.1h73.7v73.7H62.1V62.1z"/>
	<path d="M356.1,6.9c0,0-310.8,0-330.8,0S6.9,26.1,6.9,26.1s0.2,311.4,0.2,330.3c0,18.9,19,19,19,19s311.6-0.4,330.4-0.4
		s18.8-18.8,18.8-18.8s0-311.6,0-330C375.3,7.8,356.1,6.9,356.1,6.9z M338,338H213h-24.4c-1.4,1.6-2.8,3.1-4.4,4.5
		c-6.1,6.5-13.2,11.9-20.8,16.3c-7.6,4.4-15.9,8.1-24.7,10.5s-17.9,3.8-27.6,3.8c-9.4,0-18.7-1.3-27.6-3.8
		c-8.8-2.4-17-6.1-24.7-10.5c-7.6-4.4-14.7-9.9-20.8-16.3c-6.4-6.2-11.8-13.3-16.2-21c-4.4-7.7-8-16.1-10.4-25
		c-2.4-8.9-3.8-18.1-3.8-27.9s1.3-18.9,3.8-27.9c2.4-8.9,6-17.2,10.4-25c4.4-7.7,9.8-14.8,16.2-21c1.8-1.8,3.6-3.6,5.5-5.2V44.3H338
		V338z"/>
	<rect x="62.1" y="62.1" width="73.7" height="73.7"/>
	<rect x="154.3" y="62.1" width="73.7" height="73.7"/>
	<rect x="246.4" y="62.1" width="73.7" height="73.7"/>
	<path d="M111.2,164.2c8.5,0,16.7,1,24.6,3v-12.9H62.1v22.5c6.8-3.7,14-6.7,21.6-8.8C92.7,165.3,101.8,164.2,111.2,164.2z"/>
	<rect x="246.4" y="154.3" width="73.7" height="73.7"/>
	<rect x="246.4" y="245.6" width="73.7" height="73.7"/>
	<rect x="185" y="244.8" width="43" height="73.7"/>
	<g>
		<path fill="none" d="M155.3,304.3c1.8,0,3.3-0.6,4.5-1.8c1.3-1.1,1.8-2.7,1.8-4.4s-0.6-3.3-1.8-4.4c-1.3-1.1-2.8-1.8-4.5-1.8
			h-19.5v12.4H155.3z"/>
		<path fill="none" d="M87.2,307.6c-2.8,0-5,1-7,2.8c-1.8,1.8-2.8,4.3-2.8,7.1c0,0.6,0.1,1.2,0.2,1.8c0.3,2,1.2,3.7,2.6,5.3
			c1.9,1.8,4.3,2.8,7,2.8c2.8,0,5-1,7-2.8c1.4-1.4,2.3-3.2,2.6-5.3c0.1-0.6,0.2-1.2,0.2-1.8c0-2.8-1-5.1-2.8-7.1
			C92.4,308.6,89.9,307.6,87.2,307.6z"/>
		<path fill="none" d="M166,241.3L82.7,232l-0.4-4l-0.6-6.3c-0.1-1.3-0.6-2.4-1.5-3.4c-0.8-1-1.8-1.6-2.9-2l-15.2-4.9l-3.2-1
			c-1.6-0.5-3.3-0.5-4.8,0.5c-1.5,0.8-2.6,2.2-3.1,3.8s-0.5,3.3,0.5,4.8c0.8,1.5,2.1,2.7,3.8,3.2l6.9,2.2l7.4,2.4l0.1,0.8l1.8,17.6
			h64.4v37.9h24.7c1.5,0,2.8-0.5,3.9-1.5c1.1-1,1.8-2.3,2.1-3.8l5.1-29.6c0.4-1.6-0.1-3.3-1.3-4.8
			C169.2,242.5,167.7,241.5,166,241.3z"/>
		<path fill="none" d="M143.9,307.6c-2.8,0-5,1-6.9,2.8c-0.5,0.5-0.9,1-1.2,1.6c-1,1.6-1.5,3.5-1.5,5.5c0,0.6,0,1.2,0.1,1.8
			c0.3,2,1.1,3.7,2.6,5.3c1.9,1.8,4.1,2.8,6.9,2.8s5-1,7-2.8c1.8-1.8,2.8-4.3,2.8-7.1s-1-5.1-2.8-7.1
			C149.2,308.6,146.7,307.6,143.9,307.6z"/>
		<path d="M228,154.3h-73.7v19.5c11.3,5.3,21.4,12.4,30,21.1c9.3,9.4,16.6,20.4,22.2,33.1H228V154.3z"/>
		<path fill="#FDB927" d="M154.3,173.8c-1-0.4-1.9-0.9-2.9-1.3c-5.1-2.2-10.3-3.9-15.6-5.3c-7.9-2-16.1-3-24.6-3
			c-9.4,0-18.5,1.1-27.6,3.8c-7.6,2.1-14.8,5.1-21.6,8.8c-1.1,0.6-2.1,1.1-3.1,1.7c-5.5,3.2-10.5,6.9-15.3,11.1
			c-1.9,1.7-3.7,3.4-5.5,5.2c-6.4,6.2-11.8,13.3-16.2,21c-4.4,7.7-8,16.1-10.4,25c-2.5,9-3.8,18.1-3.8,27.9s1.4,19,3.8,27.9
			c2.4,8.9,6,17.2,10.4,25c4.4,7.7,9.8,14.8,16.2,21c6.1,6.5,13.2,11.9,20.8,16.3c7.6,4.4,15.9,8.1,24.7,10.5
			c8.9,2.5,18.2,3.8,27.6,3.8c9.6,0,18.8-1.4,27.6-3.8s17-6.1,24.7-10.5c7.6-4.4,14.7-9.9,20.8-16.3c1.5-1.5,3-3,4.4-4.5
			c4.5-5,8.5-10.6,11.8-16.5c4.4-7.7,7.9-16,10.4-25c2.5-9,3.8-18.4,3.8-27.9c0-14.3-2.8-28-8.1-40.7c0,0,0,0,0,0
			c-5.5-12.8-12.9-23.8-22.2-33.1C175.7,186.2,165.6,179.1,154.3,173.8z M96.8,319.3c-0.3,2.1-1.2,3.9-2.6,5.3c-2,1.8-4.3,2.8-7,2.8
			c-2.8,0-5.1-1-7-2.8c-1.4-1.6-2.3-3.3-2.6-5.3c-0.1-0.6-0.2-1.2-0.2-1.8c0-2.8,1-5.3,2.8-7.1c2-1.8,4.3-2.8,7-2.8
			c2.8,0,5.3,1,7,2.8c1.8,2,2.8,4.3,2.8,7.1C96.9,318.1,96.9,318.7,96.8,319.3z M150.9,324.6c-2,1.8-4.3,2.8-7,2.8s-5-1-6.9-2.8
			c-1.5-1.6-2.3-3.3-2.6-5.3c-0.1-0.6-0.1-1.2-0.1-1.8c0-2,0.5-4,1.5-5.5c0.4-0.6,0.8-1.1,1.2-1.6c1.9-1.8,4.1-2.8,6.9-2.8
			c2.8,0,5.3,1,7,2.8c1.8,2,2.8,4.3,2.8,7.1S152.7,322.8,150.9,324.6z M171.6,248.6l-5.1,29.6c-0.4,1.5-1,2.8-2.1,3.8
			c-1.1,1-2.4,1.5-3.9,1.5h-24.7H86.5l-1.5,8.4h50.8h19.5c1.8,0,3.3,0.6,4.5,1.8c1.1,1.1,1.8,2.7,1.8,4.4s-0.5,3.3-1.8,4.4
			c-1.3,1.1-2.8,1.8-4.5,1.8h-19.5H77.6c-2,0-3.5-0.8-4.8-2.3c-0.6-0.8-1.1-1.4-1.3-2.4c-0.3-1-0.3-1.9-0.1-2.7l3.3-18.5l-3.4-32.9
			L69.6,228l-0.1-0.8l-7.4-2.4l-6.9-2.2c-1.6-0.5-3-1.6-3.8-3.2c-1-1.5-1-3.2-0.5-4.8s1.6-3,3.1-3.8c1.5-1,3.1-1,4.8-0.5l3.2,1
			l15.2,4.9c1.1,0.4,2.1,1,2.9,2c0.9,1,1.4,2.2,1.5,3.4l0.6,6.3l0.4,4l83.3,9.4c1.8,0.1,3.3,1.1,4.4,2.4
			C171.5,245.3,172,246.9,171.6,248.6z"/>
	</g>
</g>
</svg>
