<?xml version="1.0" encoding="utf-8"?>
<!-- Generator: Adobe Illustrator 18.0.0, SVG Export Plug-In . SVG Version: 6.00 Build 0)  -->
<!DOCTYPE svg PUBLIC "-//W3C//DTD SVG 1.1//EN" "http://www.w3.org/Graphics/SVG/1.1/DTD/svg11.dtd">
<svg version="1.1" id="Layer_1" xmlns="http://www.w3.org/2000/svg" xmlns:xlink="http://www.w3.org/1999/xlink" x="0px" y="0px"
	height="20px" width="26px" fill="#777" viewBox="0 0 380 380" enable-background="new 0 0 380 380" xml:space="preserve">
<path fill="#777" d="M274.6,144.6c-57.9,0-105,49.3-105,109.8s47.1,109.8,105,109.8s105-49.3,105-109.8S332.5,144.6,274.6,144.6z
	 M289.1,323.3v16.4c0,1.7-1.3,3.1-3,3.1h-22.6c-1.7,0-3-1.4-3-3.1v-17.1c-12-2.9-22.9-9.4-30.5-17.7l-4.4-4.9
	c-0.5-0.5-0.8-1.4-0.8-2.3c0-0.8,0.3-1.6,0.9-2.2l16.4-16.2c1.1-1.2,3-1.1,4.1,0.1l4.4,4.9c5.6,6.2,15.5,10.4,24.7,10.4
	c7.2,0,19.5-2.1,19.5-9.5c0.1-6.5-2.6-9.1-21.6-15.1c-16.2-5.1-43.4-13.8-43.4-45.8c0-17.9,11.7-32.2,30.7-37.7V169
	c0-1.7,1.3-3.1,3-3.1h22.6c1.7,0,3,1.4,3,3.1v16c9.8,1.5,19.3,5.1,26.5,9.9l5.4,3.6c1.3,1,1.8,2.8,0.9,4.2l-12.4,19.9
	c-0.9,1.4-2.7,1.8-4,1l-5.4-3.6c-5.1-3.4-14-5.9-21.2-5.9c-7.6,0-20.5,2.2-20.5,10.4c0,7.7,3,10.8,23.2,17.3
	c16.7,5.3,42.1,13.4,41.9,43.8C323.5,304.7,310.4,319.1,289.1,323.3z"/>
<g>
	<path fill="none" d="M36.4,39.6v264.9H145h19.4c-2.3-5.4-4.1-11-5.7-16.9h-27.1v-66.5h27.1c1.4-5.4,3.2-10.8,5.3-15.9h-32.3v-66.5
		h63.5v21.4c5-4.5,10.3-8.8,15.9-12.4v-9h16.3c14.5-6.5,30.5-10.2,47.2-10.2c5.3,0,10.3,0.3,15.4,1v-90H36.4z M115.9,287.7H52.3
		v-66.5h63.5V287.7z M115.9,205.3H52.3v-66.5h63.5V205.3z M115.9,122.2H52.3V55.7h63.5V122.2z M195.2,122.2h-63.5V55.7h63.5V122.2z
		 M211.1,122.2V55.7h63.5v66.5H211.1z"/>
	<path d="M145.1,304.4H36.4V39.6H290v90.1c11.4,1.5,22.1,4.6,32.1,9.3c0-57.9,0-108.9,0-115.8C322.2,6.6,305.6,6,305.6,6
		S37.9,6,20.6,6S4.7,23.3,4.7,23.3s0.2,280.8,0.2,297.8c0,17.1,16.3,17.1,16.3,17.1s86.1-0.1,163.7-0.2
		c-8.5-9.9-15.4-21.2-20.5-33.4L145.1,304.4L145.1,304.4z"/>
	<rect x="52.3" y="55.7" width="63.5" height="66.5"/>
	<rect x="131.8" y="55.7" width="63.5" height="66.5"/>
	<rect x="211.1" y="55.7" width="63.5" height="66.5"/>
	<rect x="52.3" y="138.8" width="63.5" height="66.5"/>
	<path d="M195.2,160.1v-21.3h-63.5v66.5H164C171.1,187.9,181.9,172.4,195.2,160.1z"/>
	<path d="M211.1,138.8v9c5.2-3.4,10.6-6.4,16.3-9H211.1z"/>
	<rect x="52.3" y="221.2" width="63.5" height="66.5"/>
	<path d="M158.8,221.2h-27.1v66.5h27.1c-2.8-10.6-4.2-21.7-4.2-33.2C154.6,243,156,231.8,158.8,221.2z"/>
</g>
</svg>
