<?xml version="1.0" encoding="utf-8"?>
<!-- Generator: Adobe Illustrator 18.0.0, SVG Export Plug-In . SVG Version: 6.00 Build 0)  -->
<!DOCTYPE svg PUBLIC "-//W3C//DTD SVG 1.1//EN" "http://www.w3.org/Graphics/SVG/1.1/DTD/svg11.dtd">
<svg version="1.1" id="Capa_1" xmlns="http://www.w3.org/2000/svg" xmlns:xlink="http://www.w3.org/1999/xlink" x="0px" y="0px"
	height="20px" width="26px" fill="#777" viewBox="0 0 380 380" enable-background="new 0 0 380 380" xml:space="preserve">
<g>
	<path fill="#777" d="M190,0C85.1,0,0,85.1,0,190s85.1,190,190,190s190-85.1,190-190S294.9,0,190,0z M229.5,294.5
		c-9.8,3.9-17.6,6.8-23.4,8.8c-5.8,2-12.6,3-20.3,3c-11.8,0-21.1-2.9-27.6-8.7c-6.6-5.8-9.8-13.1-9.8-22c0-3.5,0.2-7,0.7-10.6
		c0.5-3.6,1.3-7.7,2.4-12.2l12.2-43.2c1.1-4.1,2-8.1,2.8-11.8c0.7-3.7,1.1-7.1,1.1-10.2c0-5.5-1.1-9.4-3.4-11.5
		c-2.3-2.2-6.6-3.2-13.1-3.2c-3.2,0-6.4,0.5-9.7,1.4c-3.3,1-6.2,1.9-8.5,2.8l3.2-13.3c8-3.3,15.7-6.1,23-8.4
		c7.3-2.3,14.2-3.5,20.7-3.5c11.8,0,20.8,2.9,27.2,8.5c6.4,5.7,9.6,13.1,9.6,22.1c0,1.9-0.2,5.2-0.7,9.9c-0.4,4.7-1.3,9.1-2.4,13
		l-12.2,43.1c-1,3.5-1.9,7.4-2.7,11.8c-0.8,4.4-1.2,7.8-1.2,10.1c0,5.7,1.3,9.6,3.8,11.7c2.5,2.1,7,3.1,13.3,3.1
		c3,0,6.3-0.5,10.1-1.6c3.7-1,6.4-1.9,8.1-2.7L229.5,294.5z M227.4,119.5c-5.7,5.3-12.5,7.9-20.5,7.9c-8,0-14.9-2.6-20.6-7.9
		c-5.7-5.3-8.6-11.7-8.6-19.2c0-7.5,2.9-13.9,8.6-19.2c5.7-5.3,12.6-8,20.6-8c8,0,14.8,2.7,20.5,8c5.7,5.3,8.5,11.8,8.5,19.2
		C235.9,107.8,233.1,114.2,227.4,119.5z"/>
</g>
</svg>
