<?xml version="1.0" encoding="utf-8"?>
<!-- Generator: Adobe Illustrator 18.0.0, SVG Export Plug-In . SVG Version: 6.00 Build 0)  -->
<!DOCTYPE svg PUBLIC "-//W3C//DTD SVG 1.1//EN" "http://www.w3.org/Graphics/SVG/1.1/DTD/svg11.dtd">
<svg version="1.1" id="Capa_1" xmlns="http://www.w3.org/2000/svg" xmlns:xlink="http://www.w3.org/1999/xlink" x="0px" y="0px"
	fill="#777" height="20px" width="26px" viewBox="0 0 380 380" enable-background="new 0 0 380 380" xml:space="preserve">
<g>
	<path d="M113.3,80c23.4,0,42.2-23.4,42.2-43.8c0-20.4-18.8-36.6-42.2-36.6C89.9-0.4,71.1,16,71.1,36.3S90,80,113.3,80z"/>
	<path d="M252.6,73h2.4c3.6,0,6.7-3.2,6.7-7.3v-20v-7.5c0-3.9-3.1-7.3-6.7-7.3h-2.4c-3.6,0-6.7,3.2-6.7,7.3v7.5v20
		C245.9,69.8,248.7,73,252.6,73z"/>
	<path d="M338,72.8h2.4c3.6,0,6.7-3.2,6.7-7.3V43.9V38c0-3.9-3.1-7.3-6.7-7.3H338c-3.6,0-6.7,3.2-6.7,7.3v5.9v21.6
		C331.3,69.6,334.5,72.8,338,72.8z"/>
	<path d="M369.6,45.8h-17.2v21.6c0,7.3-5.5,11.2-12.2,11.2h-2.4c-6.7,0-12.2-5.9-12.2-13.1V45.8h-58.9v20c0,7.3-5.5,13.1-12.2,13.1
		h-2.3c-6.7,0-12.2-5.9-12.2-13.1v-20h-18.4c-5.9,0-10.7,5.3-10.7,11.6v62l-2,1.7l-14.5-19.7c-0.5-0.4-0.9-0.8-1.5-1.3
		c-0.7-0.8-1.5-1.4-2.4-2.1c-0.9-0.6-1.9-1-2.8-1.4c-0.7-0.2-0.9-0.6-1.6-0.8c-1.5-0.4-35.3-11-66.4-12.5l-4,6.9l11.2,76.1
		l-13.3,20.3l-13.3-20.3l11.2-76.1l-4-6.9c-31,1.3-64.9,11.8-66.4,12.5c-0.5,0.2-0.9,0.6-1.5,0.6c-1.2,0.4-2.1,1-3.1,1.6
		c-0.7,0.6-1.5,1-2.1,1.6c-0.6,0.6-1.5,1.4-1.9,2.3c-0.4,0.9-0.9,1.6-1.5,2.7c-0.3,0.4-0.7,0.8-0.7,1.4l-27,104.6
		c-1.9,7.9,3.6,15.5,12.6,17.2c1.2,0.2,2.4,0.4,3.6,0.4c7.7,0,14.5-4.6,16.3-11.4l24.6-96.4c1.6-0.4,3.6-1,5.8-1.4v99.1L52.8,361.7
		c-0.9,9.6,7.4,18,18.4,18.7c0.5,0,1.2,0,1.6,0c10.2,0,19.1-6.9,20-16l12-129.7c2.4,1,5.2,1.4,8.1,1.4c2.8,0,5.8-0.6,8.1-1.4
		l12,129.7c0.9,9.1,9.5,16,20,16c0.5,0,1.2,0,1.6,0c11-0.8,19.3-9.1,18.4-18.7l-13.3-143.6V119c3.6,0.8,6.7,1.6,9.3,2.5l22.4,30.3
		c2.7,3.7,7.1,6,12.2,6.6c0.7,0,1.2,0,1.9,0c1.8,0,3.6-0.3,5.4-0.9v41.8c0,6.6,4.8,11.6,10.7,11.6h147.8c5.9,0,10.7-5.3,10.7-11.6
		V57.7C380.5,51.1,375.5,45.8,369.6,45.8z M369.6,199.6H221.8V92.5h147.8V199.6z"/>
	<path d="M333.3,128.4h19.6c0.7,0,1.5-0.7,1.5-1.5v-18.5c0-0.7-0.7-1.5-1.5-1.5h-19.6c-0.7,0-1.5,0.7-1.5,1.5v18.3
		C331.8,127.7,332.3,128.4,333.3,128.4z"/>
	<path d="M237.7,158.3h19.6c0.7,0,1.5-0.7,1.5-1.5v-18.2c0-0.7-0.7-1.5-1.5-1.5h-19.6c-0.7,0-1.5,0.7-1.5,1.5v18.2
		C236.6,157.5,237,158.3,237.7,158.3z"/>
	<path d="M269.5,158.3h19.6c0.7,0,1.5-0.7,1.5-1.5v-18.2c0-0.7-0.7-1.5-1.5-1.5h-19.6c-0.7,0-1.5,0.7-1.5,1.5v18.2
		C268.3,157.5,268.8,158.3,269.5,158.3z"/>
	<path d="M301.3,158.3h19.6c0.7,0,1.5-0.7,1.5-1.5v-18.2c0-0.7-0.7-1.5-1.5-1.5h-19.6c-0.7,0-1.5,0.7-1.5,1.5v18.2
		C300.1,157.5,300.5,158.3,301.3,158.3z"/>
	<path d="M333.3,158.3h19.6c0.7,0,1.5-0.7,1.5-1.5v-18.2c0-0.7-0.7-1.5-1.5-1.5h-19.6c-0.7,0-1.5,0.7-1.5,1.5v18.2
		C331.8,157.5,332.3,158.3,333.3,158.3z"/>
	<path d="M237.7,188h19.6c0.7,0,1.5-0.7,1.5-1.5v-18.2c0-0.8-0.8-1.5-1.5-1.5h-19.6c-0.7,0-1.5,0.7-1.5,1.5v18.2
		C236.2,187.2,236.9,188,237.7,188z"/>
	<path d="M269.5,188h19.6c0.7,0,1.5-0.7,1.5-1.5v-18.2c-0.1-0.8-0.8-1.5-1.5-1.5h-19.6c-0.7,0-1.5,0.7-1.5,1.5v18.2
		C268,187.2,268.7,188,269.5,188z"/>
	<path d="M301.2,188h19.6c0.7,0,1.5-0.7,1.5-1.5v-18.2c0-0.8-0.7-1.5-1.5-1.5h-19.6c-0.7,0-1.5,0.7-1.5,1.5v18.2
		C299.7,187.2,300.4,188,301.2,188z"/>
	<path d="M352.6,166.8h-19.3c-0.7,0-1.5,0.7-1.5,1.5v18.2c0,0.7,0.7,1.5,1.5,1.5h19.6c0.7,0,1.5-0.7,1.5-1.5v-18.2
		C354,167.5,353.3,166.8,352.6,166.8z"/>
	<path d="M301.3,128.4h19.6c0.7,0,1.5-0.7,1.5-1.5v-18.5c0-0.7-0.7-1.5-1.5-1.5h-19.6c-0.7,0-1.5,0.7-1.5,1.5v18.3
		C300.1,127.7,300.5,128.4,301.3,128.4z"/>
	<path d="M269.5,128.4h19.6c0.7,0,1.5-0.7,1.5-1.5v-18.5c0-0.7-0.7-1.5-1.5-1.5h-19.6c-0.7,0-1.5,0.7-1.5,1.5v18.3
		C268.3,127.7,268.8,128.4,269.5,128.4z"/>
	<path d="M237.7,128.4h19.6c0.7,0,1.5-0.7,1.5-1.5v-18.5c0-0.7-0.7-1.5-1.5-1.5h-19.6c-0.7,0-1.5,0.7-1.5,1.5v18.3
		C236.6,127.7,237,128.4,237.7,128.4z"/>
</g>
</svg>
