<?xml version="1.0" encoding="utf-8"?>
<!-- Generator: Adobe Illustrator 18.0.0, SVG Export Plug-In . SVG Version: 6.00 Build 0)  -->
<!DOCTYPE svg PUBLIC "-//W3C//DTD SVG 1.1//EN" "http://www.w3.org/Graphics/SVG/1.1/DTD/svg11.dtd">
<svg version="1.1" id="Layer_1" xmlns="http://www.w3.org/2000/svg" xmlns:xlink="http://www.w3.org/1999/xlink" x="0px" y="0px"
	 height="20px" width="26px" fill="#777"  viewBox="0 0 380 380" enable-background="new 0 0 380 380" xml:space="preserve" >
<g>
	<path fill="#FFFFFF" d="M1010.3,205.5c-2.4-10.1-10.3-16.8-20.7-17.4c-5.2-0.3-10.5-0.1-15.9-0.1c0,4.5,0.1,8.8-0.1,13.1
		c-0.1,2.2-0.3,4.4-1,6.5c-2,6.7-9.1,10.9-16.1,9.9c-6.8-0.9-12.4-6.9-12.7-13.7c-0.2-4.6-0.1-9.1-0.1-13.6c0-0.7,0-1.3,0-2.2
		c-20,0-39.6,0-59.6,0c0,4.5,0.1,8.9-0.1,13.3c-0.1,2.2-0.3,4.4-0.9,6.5c-2,6.5-8.9,10.5-16,9.7c-6.6-0.8-12.3-6.5-12.7-13
		c-0.3-4.7-0.2-9.4-0.3-14.2c0-0.8,0-1.5,0-2.5c-2.3,0-4.4-0.1-6.4,0c-4.2,0.1-8.5-0.2-12.6,0.6c-9.5,1.6-16.2,8.9-17.7,18.4
		c-0.1,0.3-0.3,0.6-0.4,0.8c0,30.4,0,60.7,0,91.1c-6.9,21.7-15.4,41.7-24.9,56.7c-11.2-17.7-20.2-70.6-27.7-89.2
		c-9.7-24.1-16.3-48.8-16.9-75.2c-4.1,1.6-7.7,3.3-11.5,4.3c-15.5,4.4-31.1,8.4-46.5,12.8c-12.6,3.6-24.6,8.5-34.8,16.9
		c-9.1,7.5-16.7,16-18.3,28.3c-1.5,11-1.5,57-0.1,68c0.6,5.2,3.2,8.6,7.7,11.2c14.8,8.7,30.6,15.1,46.9,20.1
		c30.9,9.4,62.6,14.1,94.9,14.5c10.5,0.1,40.5-0.1,50.9-0.7l-0.1-0.1c0.2,0.1,0.3,0.1,0.5,0.2c51.2,0,102.4,0,153.6,0
		c1.3-0.3,2.7-0.6,4-1c8.7-2.9,14.1-8.9,15.7-18c0.1-0.4,0.3-0.7,0.4-1.1c0-46.3,0-92.5,0-138.8
		C1010.7,207,1010.5,206.3,1010.3,205.5z M996,242.3c0,33.6,0,67.2,0,100.8c0,5.9-3,8.9-8.9,8.9c-48.8,0-97.6,0-146.4,0
		c-5.8,0-8.9-3-8.9-8.9c0-33.6,0-67.2,0-100.8c0-0.7,0-1.3,0-2.2c54.8,0,109.4,0,164.1,0C996,240.9,996,241.6,996,242.3z"/>
	<path fill="#FFFFFF" d="M861.9,181c0,7.1-0.1,14.3,0,21.3c0.1,4.6,3.2,7.8,7.5,7.7c4.2-0.1,7.2-3.1,7.2-7.8
		c0.1-7.1,0.1-14.3,0-21.3c0-4.2-1.6-6.3-5.6-7.7c-0.2-0.1-0.3-0.2-0.5-0.3c-0.9,0-1.8,0-2.7,0C864.2,174.4,861.9,176.8,861.9,181z"
		/>
	<path fill="#FFFFFF" d="M956.2,209.7c5.1,1.8,9.9-1.8,9.9-7.5c0.1-6.5-0.1-12.9,0.1-19.3c0.1-4.8-1.3-8.2-6-9.9c-0.9,0-1.8,0-2.7,0
		c-3.3,1.1-6,3-6,6.8c-0.1,7.9-0.1,15.8,0,23.6C951.5,206.5,953.4,208.6,956.2,209.7z"/>
	<path fill="#FFFFFF" d="M852.3,336.8c41.1,0,82.2,0,123.3,0c4.2,0,5.3-1.1,5.3-5.3c0-23.8,0-47.6,0-71.3c0-4.2-1.1-5.2-5.3-5.2
		c-20.5,0-41,0-61.5,0c-20.6,0-41.2,0-61.9,0c-4.2,0-5.3,1-5.3,5.2c0,23.8,0,47.6,0,71.3C847.1,335.7,848.2,336.8,852.3,336.8z
		 M951.1,262.5c7.5,0,14.9,0,22.5,0c0,4.8,0,9.4-0.1,14.1c0,0.3-0.7,0.8-1.1,0.9c-6.7,0.1-13.5,0.1-20.2,0c-0.4,0-1.1-0.6-1.1-1
		C951.1,271.8,951.1,267.1,951.1,262.5z M951.1,286.1c0-1.1,0.4-1.5,1.5-1.5c6.5,0.1,13,0.1,19.5,0c1.3,0,1.6,0.6,1.6,1.7
		c-0.1,6.5-0.1,12.9,0,19.3c0,1.3-0.4,1.6-1.6,1.6c-3.3-0.1-6.6,0-9.8,0c-3.2,0-6.3-0.1-9.4,0c-1.2,0-1.6-0.3-1.6-1.6
		C951.2,299.1,951.2,292.6,951.1,286.1z M951.1,314.6c7.7,0,15,0,22.5,0c0,3.9,0,7.7,0,11.6c0,3.9,0.5,3.4-3.4,3.4
		c-5.8,0-11.6-0.1-17.4,0.1c-1.4,0-1.8-0.4-1.8-1.8C951.2,323.4,951.1,319.1,951.1,314.6z M943.7,329.4c-7.3,0-14.7,0-22.3,0
		c0-2.5-0.1-4.9,0.1-7.4c0-0.4,0.5-0.9,0.9-1.1c2.5-1.2,4.2-3,5.5-5.5c0.3-0.4,0.9-0.9,1.4-0.9c4.8-0.1,9.6-0.1,14.5-0.1
		C943.7,319.5,943.7,324.3,943.7,329.4z M928.8,286.6c0-1.5,0.3-2.1,2-2.1c4.2,0.1,8.5,0.1,13,0.1c0,7.5,0,14.9,0,22.4
		c-4.9,0-9.8,0-14.8,0c-0.1-0.7-0.1-1.3-0.1-1.9C928.8,299,928.8,292.9,928.8,286.6z M921.4,262.4c7.6,0,14.9,0,22.3,0
		c0,4.9,0,9.8,0,14.8c-0.4,0.1-0.9,0.2-1.3,0.2c-4.2,0-8.4,0.1-12.7-0.1c-0.7,0-1.6-0.6-2-1.2c-1.2-2.2-2.8-3.9-5-5
		c-1-0.4-1.4-1.1-1.3-2.2C921.5,266.9,921.4,264.7,921.4,262.4z M914,306.9c-9.9,0-19.7,0-29.7,0c0-7.3,0-14.6,0-22
		c9.9,0,19.8,0,29.7,0C914,292.2,914,299.5,914,306.9z M884.3,262.4c9.9,0,19.7,0,29.6,0c0,2.4,0,4.8,0,7.3c-9.8,0-19.6,0-29.6,0
		C884.3,267.3,884.3,264.9,884.3,262.4z M884.2,322.1c9.9,0,19.8,0,29.7,0c0,2.4,0,4.7,0,7.3c-9.9,0-19.7,0-29.7,0
		C884.2,326.9,884.2,324.6,884.2,322.1z M876.8,328.2c0,1-0.3,1.3-1.3,1.3c-6.6,0-13.2,0-19.8-0.1c-0.4,0-1.3-0.7-1.3-1
		c-0.1-4.6-0.1-9.2-0.1-14c5.1,0,9.9,0,14.7,0.1c0.4,0,1.1,0.5,1.3,0.9c1.3,2.5,3,4.2,5.5,5.5c0.4,0.3,0.9,1,1,1.6
		C876.9,324.4,876.8,326.3,876.8,328.2z M854.3,263.8c0-1,0.1-1.5,1.3-1.5c6.8,0.1,13.6,0,20.5,0.1c0.2,0,0.4,0.1,0.8,0.3
		c0,2.4,0.1,4.8-0.1,7c0,0.4-0.6,1.1-1,1.3c-2.4,1.2-4.1,3-5.4,5.4c-0.3,0.5-1.1,1-1.7,1c-4.3,0.1-8.6,0-12.9,0.1
		c-1.1,0-1.6-0.3-1.6-1.5C854.4,271.9,854.3,267.8,854.3,263.8z M854.4,286.1c0-0.5,0.7-1.4,1.1-1.4c4.5-0.1,9.1-0.1,13.8-0.1
		c0,7.6,0,14.9,0,22.5c-0.8,0-1.6,0-2.4,0c-3.7,0-7.3-0.1-11,0c-1.3,0-1.6-0.4-1.6-1.6C854.4,299.1,854.3,292.6,854.4,286.1z"/>
	<path fill="#FFFFFF" d="M776,265.8c5.2,11.3,10.5,57.6,16.1,69.5c0.7-1,0.9-1.3,1-1.6c5.6-11.6,11.3-58.3,16.9-69.9
		c0.4-1,0.6-2.3,0.4-3.4c-1.7-8.4-3.7-16.7-5.4-25c-0.6-2.8-2-3.7-4.7-3.7c-4.8,0.1-9.6,0.1-14.4,0c-2.8-0.1-4.4,0.9-4.9,3.9
		c-1.6,8.7-3.6,17.4-5.3,26.1C775.6,263,775.5,264.7,776,265.8z"/>
	<path fill="#FFFFFF" d="M785.9,225.3c4.4,0.5,9,0.4,13.5,0.1c3.5-0.3,6-2.6,6.9-5.9c1.1-3.7,1.9-7.6,2.3-11.5
		c0.4-3.9-1.6-6.1-5.6-6.3c-3.4-0.2-6.7-0.1-10-0.1v0.1c-3.7,0-7.4-0.1-11.1,0c-2.9,0.1-5.4,2-5,4.6c0.7,5.3,2,10.6,3.9,15.6
		C781.3,223.6,784,225.1,785.9,225.3z"/>
	<path fill="#FFFFFF" d="M727.4,120c2.1,1.8,3.1,3.5,3.7,6.1c1.3,5.6,2.5,11.3,4.4,16.8c4.6,13.4,11.5,25.7,22.5,35
		c25.5,21.5,61.7,15.3,79.3-12.9c7.9-12.6,12.4-26.3,14.9-40.8c0.3-1.3,1-3.1,2-3.7c12.1-7.3,13.8-19.1,14.1-31.5
		c0.1-3.2-1.3-5.6-4.4-4.9c0-9.2,0.3-18.3-0.1-27.4c-0.3-5.4-1-10.9-2.5-16.1c-4.4-15.3-13.9-26.3-29.6-31.1
		c-2.5-0.8-5.3-0.9-7.5-2.2c-19.6-11.5-40.3-14.6-62.4-9C746.4,2.3,733.5,9.8,725.5,24c-6.5,11.7-8.6,24.3-7.7,37.4
		c0.6,7.8,1.6,15.5,2.5,23.4c-6.1,0.4-6.9,1.1-6.7,6.1C714.1,102.6,718.5,112.5,727.4,120z"/>
</g>
<g>
	<path fill="#FFFFFF" d="M-126.2,307.4c1.8-1.8,3.8-3.5,5.9-5.1v-56c-7.3-5.3-12.9-12.4-16.3-20.5c-12.4-6.8-24.6-13.3-32.4-17.5
		l-0.4-0.2c-2.1-1.1-4.6-0.9-6.5,0.6c-9.6,7.5-20.1,12.6-31.2,15.1c-2,0.4-3.5,1.8-4.3,3.7l-11.3,29.9l-11.3-29.9
		c-0.7-1.9-2.3-3.3-4.3-3.7c-11.1-2.5-21.6-7.5-31.2-15.1c-1.8-1.5-4.4-1.7-6.5-0.6c-18.1,9.7-61.5,33.1-73.7,41.3
		c-20.7,13.9-29.8,64.5-31.4,74.5c-0.2,1-0.1,2,0.3,3c0.8,2.1,19.8,51.2,158.2,51.2c38.7,0,68.1-3.9,90.3-9.4c-5.1-7.8-8-17-8-26.7
		C-140.5,329-135.4,316.7-126.2,307.4z"/>
	<path fill="#FFFFFF" d="M-77.3,303.9v-61.2c4.6-1.8,8.9-4.6,12.6-8.3c7.1-7.1,11-16.5,11-26.5c0-13.7-7.5-26.2-19.5-32.7
		c-0.3-0.2-0.7-0.3-1.1-0.3s-0.8,0.1-1.1,0.3c-0.7,0.4-1.1,1.1-1.1,2l0.1,33.3c-1.4,0.6-5.3,1.7-14.6,1.7h-0.1
		c-9.2,0-13-1.1-14.4-1.7l-0.1-33.3c0-0.8-0.4-1.5-1.1-2c-0.3-0.2-0.8-0.3-1.1-0.3s-0.8,0.1-1.1,0.3c-3.1,1.7-6,3.9-8.4,6.3
		c-7.1,7.1-11,16.5-11,26.5c0,15.7,9.8,29.1,23.5,34.6v61.2c-4.6,1.8-8.9,4.6-12.5,8.3c-7.1,7.1-11,16.5-11,26.5
		c0,13.6,7.5,26.2,19.4,32.7c0.3,0.2,0.7,0.3,1.1,0.3c0.4,0,0.8-0.1,1.1-0.3c0.7-0.4,1.1-1.1,1.1-2l-0.1-33.3
		c1.4-0.6,5.3-1.7,14.6-1.7h0.2c9.2,0,13,1.1,14.4,1.7l0.1,33.3c0,0.8,0.4,1.5,1.1,1.9c0.4,0.2,0.8,0.3,1.1,0.3
		c0.4,0,0.8-0.1,1.1-0.3c3.1-1.7,6-3.9,8.4-6.3c7.1-7.1,11-16.5,11-26.5C-53.8,322.9-63.5,309.4-77.3,303.9z"/>
	<path fill="#FFFFFF" d="M-290.1,138.8c2.3,1.9,3.4,3.9,4,6.5c1.4,6.1,2.7,12.2,4.7,18.1c4.9,14.5,12.4,27.7,24.2,37.6
		c27.5,23.1,66.4,16.5,85.4-13.9c8.5-13.6,13.4-28.3,16-44c0.3-1.5,1-3.4,2.2-4.1c13-7.9,14.9-20.6,15.1-33.9c0.1-3.4-1.4-6-4.7-5.2
		c0-9.9,0.3-19.7-0.1-29.4c-0.3-5.8-1-11.8-2.7-17.3c-4.8-16.5-14.9-28.2-31.9-33.4c-2.7-0.8-5.7-1-8-2.4
		c-21.1-12.4-43.4-15.8-67.1-9.7c-16.5,4.2-30.5,12.4-39,27.6c-7,12.5-9.2,26.2-8.2,40.3c0.6,8.4,1.7,16.7,2.7,25.3
		c-6.5,0.5-7.4,1.1-7.2,6.6C-304.5,120.1-299.7,130.7-290.1,138.8z"/>
</g>
<path d="M25.6,120.5c1.6,5.7,4,11.3,6.9,16.4l-8.4,10.5c-2.7,3.4-2.4,8.4,0.6,11.5l14.4,14.4c3.1,3.1,8,3.4,11.5,0.6l10.4-8.3
	c5.4,3.1,11.1,5.5,17.1,7.2l1.6,13.5c0.5,4.4,4.2,7.7,8.6,7.7h20.3c4.4,0,8-3.3,8.6-7.7l1.5-13c6.4-1.6,12.5-4.2,18.3-7.4l10.1,8
	c3.4,2.7,8.4,2.4,11.5-0.6l14.4-14.4c3.1-3.1,3.4-8,0.6-11.5l-7.9-10c3.3-5.6,5.8-11.7,7.5-18l12.2-1.4c4.4-0.5,7.7-4.2,7.7-8.5
	V89.2c0-4.4-3.3-8-7.7-8.6l-12-1.4c-1.6-6.2-4.1-12.2-7.2-17.8l7.3-9.3c2.7-3.4,2.4-8.4-0.6-11.5l-14.4-14.4
	c-3.1-3.1-8-3.4-11.5-0.6l-9.1,7.2c-5.9-3.4-12.2-6.1-18.7-7.9l-1.4-11.7c-0.5-4.4-4.2-7.7-8.6-7.7H89.2c-4.4,0-8,3.3-8.6,7.7
	l-1.4,11.7c-6.8,1.8-13.2,4.6-19.2,8.1l-9.3-7.4c-3.4-2.7-8.4-2.4-11.5,0.6L24.9,40.8c-3.1,3.1-3.4,8-0.6,11.5l7.9,9.9
	c-3.2,5.6-5.5,11.7-7.1,18l-12.5,1.5c-4.4,0.5-7.7,4.2-7.7,8.5v20.3c0,4.4,3.3,8,7.7,8.6L25.6,120.5z M99.4,65.5
	c18.6,0,33.6,15.1,33.6,33.6s-15.1,33.6-33.6,33.6s-33.6-15.1-33.6-33.6S80.8,65.5,99.4,65.5z"/>
<g>
	<g>
		<path d="M2.5,379h177.3V201.8H2.5V379z M200.2,4.1V270h177.3V4.1H200.2z M200.2,379h177.3v-88.6H200.2V379z"/>
	</g>
</g>
</svg>
