<?xml version="1.0" encoding="utf-8"?>
<!-- Generator: Adobe Illustrator 18.0.0, SVG Export Plug-In . SVG Version: 6.00 Build 0)  -->
<!DOCTYPE svg PUBLIC "-//W3C//DTD SVG 1.1//EN" "http://www.w3.org/Graphics/SVG/1.1/DTD/svg11.dtd">
<svg version="1.1" id="Capa_1" xmlns="http://www.w3.org/2000/svg" xmlns:xlink="http://www.w3.org/1999/xlink" x="0px" y="0px"
	 viewBox="0 0 380 380" enable-background="new 0 0 380 380" xml:space="preserve">
<g>
	<path fill="#484D55" d="M118.9,9.7c-9-2.7-16.3,2.8-16.3,12.1V219c-2,11.1-4.2,12.2-11.3,21.7l-41.3,41.5
		c-8.6,6.1-7.4,13.8,1.3,17.3l166.9,68.9c8.8,3.5,21.8,1.6,29.2-4.2l34.5-34.2c7.4-5.8,22.5-29,22.5-38.3V132.1
		c0-9.4,4.4-23.1,9.9-30.6l19.9-28.3L118.9,9.7z M280.3,107.7c0,0-5.8,12.6-4.6,33.6l1.3,135.8c0,0,2.4,15.9-12.6,31.1l-17.7,17.4
		c-0.2,0.2-0.3,0.3-0.5,0.5c-1.6,1.7-22.1,14.1-42.9-0.2L88.2,276.4l24.3-24.5c0,0,13.3-10.7,17-52.8V42.6l161.1,49.3L280.3,107.7z
		 M216.2,221.9v13.3c0,1.6-1.3,2.8-2.8,2.8h-19.5c-1.6,0-2.8-1.3-2.8-2.8v-13.8c0-0.2,0-0.2-0.2-0.3c-10.4-2.5-19.9-8-26.5-14.9
		l-3.9-4.1c-0.5-0.5-0.8-1.1-0.6-1.9c0-0.6,0.3-1.4,0.8-1.9l14.3-13.5c1.1-1.1,3-0.9,4.1,0.2l3.6,3.9c4.9,5.2,13.7,8.8,21.7,8.8
		c6.4,0,17.1-1.6,17.3-8c0-5.5-2.4-7.7-19-12.7c-14.3-4.4-38.2-11.8-38.2-38.6c0-15.1,10.4-27,26.9-31.6c0.2,0,0.2-0.2,0.2-0.2V92.2
		c0-1.6,1.3-2.8,2.8-2.8h19.5c1.6,0,2.8,1.3,2.8,2.8v13c0,0.2,0.2,0.2,0.2,0.3c8.6,1.3,16.8,4.2,23.1,8.3l4.6,3
		c1.3,0.8,1.7,2.7,0.8,3.9l-10.5,16.3c-0.8,1.3-2.7,1.7-3.9,0.8l-4.6-3c-4.4-2.8-12.2-5-18.7-5c-6.8,0-18.1,1.7-18.1,8.6
		c0,6.4,2.7,9.1,20.4,14.6c14.8,4.6,37.1,11.3,36.7,36.9c0,16.2-11.6,28.3-30.1,31.7C216.2,221.7,216.2,221.9,216.2,221.9z
		 M225.5,314.8l-104.3-41.8c-2.8-1.1-4.2-4.4-3-7.2l0,0c1.1-2.8,4.4-4.2,7.2-3l104.3,41.8c2.8,1.1,4.2,4.4,3,7.2l0,0
		C231.6,314.7,228.3,316.1,225.5,314.8z M245.3,290.8L141,249c-2.8-1.1-4.2-4.4-3-7.2l0,0c1.1-2.8,4.4-4.2,7.2-3l104.3,41.8
		c2.8,1.1,4.2,4.4,3,7.2l0,0C251.4,290.5,248.1,291.9,245.3,290.8z"/>
</g>
</svg>
