<?xml version="1.0" encoding="utf-8"?>
<!-- Generator: Adobe Illustrator 19.2.0, SVG Export Plug-In . SVG Version: 6.00 Build 0)  -->
<svg version="1.1" id="Layer_1" xmlns="http://www.w3.org/2000/svg" xmlns:xlink="http://www.w3.org/1999/xlink" x="0px" y="0px"
	 viewBox="0 0 40 40" style="enable-background:new 0 0 40 40;" xml:space="preserve">
<style type="text/css">
	.st0{fill:#636A75;}
</style>
<g>
	<g>
		<path class="st0" d="M20.4,36.6v-0.9c-0.4,0-0.8-0.2-1.1-0.4c-0.3-0.2-0.6-0.5-0.8-0.9l0.5-0.4c0.2,0.3,0.4,0.6,0.6,0.7
			c0.2,0.2,0.5,0.3,0.8,0.3v-2.6c-0.6-0.2-1.1-0.5-1.4-0.7c-0.3-0.3-0.4-0.6-0.4-1.1c0-0.5,0.2-0.9,0.5-1.2c0.3-0.3,0.7-0.5,1.3-0.5
			v-0.6h0.5V29c0.4,0,0.7,0.1,1,0.3c0.3,0.2,0.5,0.4,0.7,0.8l-0.5,0.4c-0.2-0.3-0.3-0.5-0.5-0.7c-0.2-0.2-0.4-0.2-0.7-0.3V32
			c0.6,0.2,1.1,0.4,1.4,0.7c0.3,0.3,0.5,0.7,0.5,1.2c0,0.5-0.2,0.9-0.5,1.3c-0.3,0.3-0.8,0.5-1.4,0.5v0.9H20.4z M20.4,31.8v-2.3
			c-0.4,0-0.6,0.1-0.8,0.3c-0.2,0.2-0.3,0.4-0.3,0.8c0,0.3,0.1,0.5,0.3,0.7C19.7,31.5,20,31.7,20.4,31.8z M20.9,35.1
			c0.4,0,0.7-0.1,0.9-0.4c0.2-0.2,0.4-0.5,0.4-0.8c0-0.3-0.1-0.6-0.3-0.8c-0.2-0.2-0.5-0.4-1-0.5V35.1z"/>
	</g>
	<path class="st0" d="M31,0H5.9C4.6,0,3.6,1.1,3.6,2.5v35.1c0,1.4,1,2.5,2.3,2.5h29.4c1.3,0,2.3-1.1,2.3-2.5v-30L31,0z M31.5,3.7
		L34.4,7h-2.9V3.7z M35.7,37.5c0,0.2-0.2,0.4-0.4,0.4H5.9c-0.2,0-0.4-0.2-0.4-0.4V2.5c0-0.2,0.2-0.4,0.4-0.4h23.7v6c0,0.6,0.4,1,1,1
		h5.1V37.5z M28.3,27"/>
	<path class="st0" d="M10,14.4h15.4c0.5,0,0.9,0.3,0.9,0.8c0,0.4-0.4,0.8-0.9,0.8H10c-0.5,0-0.9-0.3-0.9-0.8
		C9.1,14.7,9.5,14.4,10,14.4L10,14.4z"/>
	<path class="st0" d="M10.3,10.2h20.1c0.6,0,1.2,0.3,1.2,0.8c0,0.4-0.5,0.8-1.2,0.8H10.3c-0.6,0-1.2-0.3-1.2-0.8
		C9.1,10.6,9.7,10.2,10.3,10.2L10.3,10.2z"/>
	<path class="st0" d="M26.3,20.3c0,0.4-0.4,0.8-0.9,0.8H10c-0.5,0-0.9-0.3-0.9-0.8c0-0.4,0.4-0.8,0.9-0.8h15.4
		C25.9,19.6,26.3,19.9,26.3,20.3L26.3,20.3z"/>
	<path class="st0" d="M26.3,25.4c0,0.4-0.4,0.8-0.9,0.8H10c-0.5,0-0.9-0.3-0.9-0.8c0-0.4,0.4-0.8,0.9-0.8h15.4
		C25.9,24.6,26.3,24.9,26.3,25.4L26.3,25.4z"/>
	<path class="st0" d="M28.2,14.4h2.5c0.5,0,0.9,0.3,0.9,0.8c0,0.4-0.4,0.8-0.9,0.8h-2.5c-0.5,0-0.9-0.3-0.9-0.8
		C27.3,14.7,27.7,14.4,28.2,14.4L28.2,14.4z"/>
	<path class="st0" d="M31.6,20.3c0,0.4-0.4,0.8-0.9,0.8h-2.5c-0.5,0-0.9-0.3-0.9-0.8c0-0.4,0.4-0.8,0.9-0.8h2.5
		C31.2,19.6,31.6,19.9,31.6,20.3L31.6,20.3z"/>
	<path class="st0" d="M31.6,25.4c0,0.4-0.4,0.8-0.9,0.8h-2.5c-0.5,0-0.9-0.3-0.9-0.8c0-0.4,0.4-0.8,0.9-0.8h2.5
		C31.2,24.6,31.6,24.9,31.6,25.4L31.6,25.4z"/>
</g>
</svg>
