<?xml version="1.0" encoding="utf-8"?>
<!-- Generator: Adobe Illustrator 22.1.0, SVG Export Plug-In . SVG Version: 6.00 Build 0)  -->
<svg version="1.1" id="Capa_1" xmlns="http://www.w3.org/2000/svg" xmlns:xlink="http://www.w3.org/1999/xlink" x="0px" y="0px"
	 viewBox="0 0 478.7 478.7" style="enable-background:new 0 0 478.7 478.7;" xml:space="preserve">
<style type="text/css">
	.st0{fill:#4FC0EF;}
</style>
<g>
	<path class="st0" d="M46.6,138.8c7.9,1.7,12,6.6,12.1,14.5c0.1,4.1,0.8,8.8,2.3,14.7c1.9,7.6-0.5,13.2-7.5,17.2
		c-6.8,3.9-13.4,8-20.4,12.3c-0.2,0.1-0.3,0.2-0.5,0.3c-1.2,0.7-1.5,2.2-0.8,3.4L53,235.9c0.7,1.2,2.3,1.5,3.4,0.8l73.7-45
		c1.4-0.9,1.6-2.9,0.3-4c-23.7-20.5-30.5-43.1-20.9-68.8c8.9-23.7,30.7-38.3,57.1-38.3c2.5,0,5.1,0.1,7.6,0.4
		c25.6,2.7,42,19.1,49.8,49.8c0.4,1.6,2.3,2.4,3.7,1.5L297.1,90c1.2-0.7,1.5-2.3,0.8-3.4L276.5,52c-0.7-1.2-2.2-1.5-3.4-0.8
		c-6.1,3.6-11.8,7.1-17.4,10.7c-3.7,2.5-7.8,4.7-12.5,4.7c-4.8,0-9.2-2.3-12.9-6.9c-1.4-1.7-3.8-3.4-7.5-5.2
		c-8-4-10.8-10.5-8.2-19.3c2.1-7.2,3.7-14.5,5.5-22.2c0-0.2,0.1-0.3,0.1-0.5c0.3-1.3-0.5-2.7-1.8-3L178.9,0c-1.3-0.3-2.7,0.5-3,1.8
		l-8,32.3c-0.2,1-1,1.7-2,1.9L131,41.6c-1,0.2-2-0.3-2.5-1.2l-17.6-28.5c-0.7-1.2-2.3-1.5-3.4-0.8L72.7,32.5
		c-1.2,0.7-1.5,2.2-0.8,3.4l17.3,28.6c0.5,0.9,0.5,1.9-0.1,2.8L68.3,95.6c-0.6,0.8-1.6,1.2-2.6,1l-32.6-7.7c-1.3-0.3-2.7,0.5-3,1.8
		l-9.5,39.4c0.7,1.2,1.1,1.8,1.9,3C30.8,135.2,38.6,137.1,46.6,138.8z M450.1,156.5c-6-7.6-13-14.7-19.8-21.7l-0.1-0.1
		c-13.5-13.7-31.4-21.3-50.6-21.3c-17,0-33.3,6.1-46,17.3c-17.7,15.5-34.1,31.6-47.9,45.3c-2.1,2-3.9,6.1-4.4,9.8
		c-0.8,5.3,4.5,13,10.7,15.6c2.3,0.9,4.5,1.4,6.5,1.4c3.7,0,7.1-1.5,10.4-4.7c3.7-3.5,7.3-7,11-10.5c11-10.5,22.3-21.3,33.7-31.7
		c7.3-6.7,16.5-10.3,26.1-10.3c10.2,0,19.9,4.1,27.5,11.5c3.6,3.5,7.1,7.2,10.4,10.8l2.3,2.4c16.1,17.2,15.5,39.8-1.4,56.1
		c-4.6,4.5-9.5,8.9-14.1,13.1c-3.5,3.2-7.2,6.6-10.7,9.9c-6,5.7-12.1,11.4-18.2,17.1C359.1,282,342.1,297.9,326,314
		c-11.4,11.4-22.2,16.7-34,16.7c-7.2,0-14.5-2-22.2-6.2c-1.9-1-3.9-1.5-6.1-1.5c-6,0-12.2,3.8-15,9.1c-4,7.8-1.4,15.6,7,20.8
		c10.9,6.8,23.6,10.3,36.9,10.3c17.6,0,34.7-6.5,46.8-17.9c34.9-32.6,69.6-65.4,101.9-95.9c15-14.2,22.4-31.2,22.6-51.8
		C463.6,181.9,458.9,167.6,450.1,156.5z M225.2,240.4c-12.5-7.8-24.5-11.5-36.8-11.5c-0.5,0-0.9,0-1.5,0c-18.8,0.3-33.8,5.9-45.8,17
		c-10,9.3-21.9,20.4-34.1,31.7c-7,6.6-14.1,13.1-21.2,19.7c-16.8,15.5-34.1,31.6-50.5,47.9C16.6,364,10.7,387.3,18,414.7
		c4.7,17.5,17.4,29.9,30.9,43l0.6,0.6C63,471.5,80.6,478.7,99,478.7c17.5,0,34.4-6.6,47.7-18.7c17.5-15.8,32.5-30,45.8-43.4
		c2.5-2.5,4.6-7,4.9-10.5c0.2-2.3,0.8-9.3-11.2-15.4c-2-1-4-1.6-5.9-1.6c-3.4,0-6.8,1.7-10.3,4.9c-13,12.3-28.4,26.8-44.1,41.6
		c-7.6,7.1-17.1,11-26.9,11c-10,0-19.6-4-27.2-11.4c-4.8-4.7-9.7-9.8-14.8-15.5c-13.9-15.7-13.2-38.2,1.6-52.3
		c30.1-28.8,62.6-59.5,102.4-96.5c6.7-6.3,15.8-9.7,25.6-9.7c6.5,0,13,1.5,18.8,4.3c3.6,1.8,8.7,2.7,14.7,2.8
		c2.9-0.2,10.4-7,11.1-10.1C232.8,251.5,230,243.3,225.2,240.4z"/>
</g>
</svg>
