<?xml version="1.0" encoding="utf-8"?>
<!-- Generator: Adobe Illustrator 22.1.0, SVG Export Plug-In . SVG Version: 6.00 Build 0)  -->
<svg version="1.1" id="Layer_1" xmlns="http://www.w3.org/2000/svg" xmlns:xlink="http://www.w3.org/1999/xlink" x="0px" y="0px"
	 viewBox="0 0 200 113.9" style="enable-background:new 0 0 200 113.9;" xml:space="preserve">
<style type="text/css">
	.st0{fill:#6E6F71;}
	.st1{fill:#1173BC;}
</style>
<g>
	<g>
		<path class="st0" d="M39.6,45.9c1.6-0.3,4.1-0.6,6.6-0.6c3.6,0,5.9,0.6,7.7,2c1.4,1.1,2.3,2.7,2.3,4.9c0,2.7-1.8,5.1-4.7,6.1v0.1
			c2.7,0.7,5.8,2.9,5.8,7c0,2.4-1,4.2-2.4,5.6c-1.9,1.8-5.1,2.6-9.6,2.6c-2.5,0-4.4-0.2-5.6-0.3V45.9z M43.2,57.3h3.3
			c3.8,0,6-2,6-4.7c0-3.3-2.5-4.6-6.1-4.6c-1.7,0-2.6,0.1-3.2,0.2V57.3z M43.2,70.7c0.7,0.1,1.7,0.2,3,0.2c3.7,0,7.2-1.4,7.2-5.4
			c0-3.8-3.3-5.4-7.2-5.4h-3V70.7z"/>
		<path class="st0" d="M61.9,59.6c0-2.4,0-4.4-0.2-6.3H65l0.1,3.9h0.2c0.9-2.7,3.1-4.4,5.5-4.4c0.4,0,0.7,0,1,0.1v3.4
			c-0.4-0.1-0.7-0.1-1.2-0.1c-2.6,0-4.4,1.9-4.9,4.7c-0.1,0.5-0.2,1.1-0.2,1.7v10.7h-3.6V59.6z"/>
		<path class="st0" d="M79.7,47.7c0,1.2-0.9,2.2-2.3,2.2c-1.3,0-2.2-1-2.2-2.2c0-1.3,1-2.3,2.3-2.3C78.8,45.5,79.7,46.4,79.7,47.7z
			 M75.7,73.4v-20h3.6v20H75.7z"/>
		<path class="st0" d="M85.3,58.8c0-2.1,0-3.8-0.2-5.4h3.2l0.2,3.3h0.1c1-1.9,3.3-3.8,6.6-3.8c2.8,0,7.1,1.7,7.1,8.5v12h-3.6V61.9
			c0-3.2-1.2-5.9-4.6-5.9c-2.4,0-4.3,1.7-4.9,3.7c-0.2,0.5-0.2,1.1-0.2,1.7v12.1h-3.6V58.8z"/>
		<path class="st0" d="M111.9,62.6L111.9,62.6c0.6-0.7,1.3-1.6,1.9-2.3l5.9-6.9h4.4l-7.7,8.2l8.8,11.8h-4.4l-6.9-9.6l-1.9,2.1v7.5
			h-3.6V44h3.6V62.6z"/>
	</g>
	<g>
		<path class="st1" d="M140.9,49.8c1.6-0.3,3.6-0.5,6.2-0.5c3.2,0,5.5,0.7,7,2.1c1.4,1.2,2.2,3,2.2,5.2c0,2.3-0.7,4-1.9,5.3
			c-1.7,1.8-4.5,2.7-7.6,2.7c-1,0-1.9,0-2.6-0.2v10h-3.2V49.8z M144.2,61.9c0.7,0.2,1.6,0.3,2.7,0.3c3.9,0,6.3-1.9,6.3-5.3
			c0-3.3-2.3-4.9-5.9-4.9c-1.4,0-2.5,0.1-3,0.3V61.9z"/>
		<path class="st1" d="M182,61.8c0,8.6-5.2,13.1-11.6,13.1c-6.6,0-11.2-5.1-11.2-12.7c0-7.9,4.9-13.1,11.6-13.1
			C177.6,49.1,182,54.4,182,61.8z M162.6,62.2c0,5.3,2.9,10.1,8,10.1c5.1,0,8-4.7,8-10.4c0-5-2.6-10.1-8-10.1
			C165.3,51.8,162.6,56.7,162.6,62.2z"/>
		<path class="st1" d="M185.7,70.6c1.4,0.9,3.6,1.6,5.8,1.6c3.3,0,5.2-1.7,5.2-4.3c0-2.3-1.3-3.7-4.7-5c-4.1-1.4-6.6-3.6-6.6-7.1
			c0-3.9,3.2-6.8,8.1-6.8c2.6,0,4.4,0.6,5.5,1.2l-0.9,2.6c-0.8-0.4-2.5-1.2-4.7-1.2c-3.4,0-4.7,2-4.7,3.7c0,2.3,1.5,3.5,5,4.8
			c4.2,1.6,6.4,3.7,6.4,7.3c0,3.9-2.9,7.2-8.7,7.2c-2.4,0-5-0.7-6.4-1.6L185.7,70.6z"/>
	</g>
	<path class="st1" d="M92.9,0C77.6,0,64.6,9.9,60,23.7c-7-8.8-18.9-12.8-30.2-9.2c-13,4.2-20.8,17.1-19,30.2
		c-10.8,8.4-14,23.6-7,35.8c5.6,9.6,16,14.6,26.3,13.8c1.8,9.8,8.8,17.8,18.3,19.4c12.5,2.1,24.5-7.5,26.9-21.5
		c0.1-0.5,0.1-0.9,0.2-1.4c-2.9,13.3-14.6,22.3-26.7,20.2c-8.6-1.5-15.2-8.2-17.6-16.8c3.6-0.4,7.2-1.6,10.5-3.5
		c0.4-0.2,0.8-0.5,1.3-0.8c-3.9,2-12.1,3-12.1,3s-0.5,0.1-0.9,0C20.4,92.7,11.3,87.7,6.3,79C-0.2,67.8,2,54,10.8,45.3
		c0.2,1.4,0.5,2.7,1,4.1c0.2,0.5,0.3,0.9,0.5,1.4c-0.5-2-0.9-6-0.9-6s0-0.3,0-0.6c-0.2-11.9,7.3-23.1,19.3-26.9
		c10.6-3.4,21.8-0.1,28.9,7.7c-0.9,3.1-1.4,6.4-1.4,9.7c0,0.6,0,1.2,0,1.8C59,29,68.7,4.2,92.9,3.7c18.5,0,33.7,14.5,34.6,32.8
		c0-0.6,0-1.2,0-1.8C127.6,15.5,112,0,92.9,0z"/>
</g>
</svg>
