<?xml version="1.0" encoding="utf-8"?>
<!-- Generator: Adobe Illustrator 23.0.1, SVG Export Plug-In . SVG Version: 6.00 Build 0)  -->
<svg version="1.1" id="Layer_1" xmlns="http://www.w3.org/2000/svg" xmlns:xlink="http://www.w3.org/1999/xlink" x="0px" y="0px"
	 viewBox="0 0 40 40" style="enable-background:new 0 0 40 40;" xml:space="preserve">
<style type="text/css">
	.st0{fill:#0F75BC;}
</style>
<g>
	<path class="st0" d="M21.5,6.4c-3.6,0-6.6,2.7-7.1,6.2c-0.1,0.5,0.3,0.9,0.7,1c0.5,0.1,0.9-0.3,1-0.7c0.4-2.7,2.7-4.7,5.4-4.7
		c0.5,0,0.9-0.4,0.9-0.9C22.3,6.8,21.9,6.4,21.5,6.4z"/>
	<path class="st0" d="M40,21.9c0-4.6-3.7-8.3-8.3-8.4c-0.1-6.1-5.1-11-11.2-11c-2.7,0-5.3,1-7.4,2.8c-1.8,1.6-3.1,3.7-3.6,6.1
		c0,0-0.1,0-0.1,0c-5.2,0-9.5,4.3-9.5,9.5C0,25.2,3.1,29,7.2,30v3.9c0,2,1.6,3.6,3.6,3.6h18.4c2,0,3.6-1.6,3.6-3.6v-3.7
		C36.9,29.6,40,26.1,40,21.9z M31.2,33.9c0,1.1-0.9,2-2,2H10.8c-1.1,0-2-0.9-2-2v-9.1c0-1.1,0.9-2,2-2h18.4c1.1,0,2,0.9,2,2V33.9z
		 M32.9,28.5v-3.6c0-2-1.6-3.6-3.6-3.6H10.8c-2,0-3.6,1.6-3.6,3.6v3.4c-3.2-1-5.5-3.9-5.5-7.4c0-4.3,3.5-7.8,7.8-7.8
		c0.2,0,0.5,0,0.7,0c0.5,0,0.9-0.3,0.9-0.7c0.3-2.3,1.4-4.3,3.1-5.8C16,5,18.2,4.1,20.5,4.1c5.2,0,9.5,4.3,9.5,9.5
		c0,0.2,0,0.7,0,0.7c0,0.3,0.1,0.5,0.3,0.7c0.2,0.2,0.4,0.3,0.7,0.2c0.2,0,0.5,0,0.7,0c3.7,0,6.7,3,6.7,6.7
		C38.3,25.1,36,27.9,32.9,28.5z"/>
	<path class="st0" d="M16.3,26.7C16.3,26.7,16.3,26.6,16.3,26.7c0-0.1-0.1-0.1-0.1-0.1h-0.5c0,0-0.1,0-0.1,0c0,0,0,0.1,0,0.1
		c0,0.2-0.1,0.3-0.3,0.4c-0.1,0.1-0.3,0.1-0.5,0.1c-0.5,0-0.7-0.3-0.7-0.8c0-0.1,0-0.2,0-0.4s0-0.3,0-0.4c0-0.5,0.3-0.8,0.7-0.8
		c0.2,0,0.4,0,0.5,0.1c0.1,0.1,0.2,0.2,0.3,0.4c0,0,0,0.1,0,0.1c0,0,0,0,0.1,0h0.5c0,0,0.1,0,0.1,0c0,0,0,0,0-0.1v0
		c0-0.2-0.1-0.4-0.2-0.6c-0.1-0.2-0.3-0.3-0.5-0.4c-0.2-0.1-0.5-0.2-0.8-0.2c-0.5,0-0.8,0.1-1.1,0.4c-0.3,0.2-0.4,0.6-0.4,1
		c0,0.1,0,0.2,0,0.4c0,0.2,0,0.3,0,0.4c0,0.4,0.1,0.8,0.4,1c0.2,0.2,0.6,0.3,1.1,0.3c0.3,0,0.5-0.1,0.8-0.2c0.2-0.1,0.4-0.2,0.5-0.4
		C16.3,27.1,16.3,26.9,16.3,26.7z"/>
	<path class="st0" d="M17,27.8h0.4c0,0,0.1,0,0.1,0c0,0,0-0.1,0-0.1v-3.3c0,0,0-0.1,0-0.1c0,0-0.1,0-0.1,0H17c0,0-0.1,0-0.1,0
		c0,0,0,0.1,0,0.1v3.3C16.9,27.7,16.9,27.7,17,27.8C16.9,27.8,17,27.8,17,27.8z"/>
	<path class="st0" d="M18.4,27.6c0.2,0.2,0.5,0.3,0.9,0.3c0.4,0,0.7-0.1,0.9-0.3c0.2-0.2,0.3-0.5,0.3-0.8c0,0,0-0.1,0-0.2
		c0-0.1,0-0.2,0-0.2c0-0.3-0.1-0.6-0.3-0.8c-0.2-0.2-0.5-0.3-0.9-0.3c-0.4,0-0.7,0.1-0.9,0.3c-0.2,0.2-0.3,0.5-0.3,0.8l0,0.2l0,0.2
		C18.1,27.1,18.2,27.4,18.4,27.6z M18.8,26.3c0-0.2,0.1-0.4,0.2-0.5c0.1-0.1,0.2-0.2,0.4-0.2c0.2,0,0.3,0.1,0.4,0.2
		c0.1,0.1,0.1,0.3,0.2,0.5c0,0,0,0.1,0,0.2s0,0.2,0,0.2c0,0.2-0.1,0.4-0.2,0.5c-0.1,0.1-0.2,0.2-0.4,0.2c-0.2,0-0.3-0.1-0.4-0.2
		c-0.1-0.1-0.1-0.3-0.2-0.5l0-0.2L18.8,26.3z"/>
	<path class="st0" d="M23.4,25.2H23c0,0-0.1,0-0.1,0c0,0,0,0.1,0,0.1v1.4c0,0.2-0.1,0.3-0.2,0.4s-0.2,0.2-0.4,0.2
		c-0.4,0-0.5-0.2-0.5-0.6v-1.4c0,0,0-0.1,0-0.1c0,0-0.1,0-0.1,0h-0.4c0,0-0.1,0-0.1,0c0,0,0,0.1,0,0.1v1.4c0,0.3,0.1,0.6,0.3,0.8
		c0.2,0.2,0.4,0.3,0.7,0.3c0.4,0,0.6-0.1,0.8-0.4v0.2c0,0,0,0.1,0,0.1c0,0,0.1,0,0.1,0h0.4c0,0,0.1,0,0.1,0c0,0,0-0.1,0-0.1v-2.3
		C23.5,25.3,23.5,25.3,23.4,25.2C23.5,25.2,23.5,25.2,23.4,25.2z"/>
	<path class="st0" d="M26.5,24.3H26c0,0-0.1,0-0.1,0c0,0,0,0.1,0,0.1v1.1c-0.2-0.2-0.4-0.3-0.8-0.3c-0.3,0-0.6,0.1-0.8,0.3
		c-0.2,0.2-0.3,0.5-0.3,0.8l0,0.2l0,0.2c0,0.4,0.1,0.6,0.3,0.9s0.4,0.3,0.8,0.3c0.3,0,0.6-0.1,0.8-0.4v0.2c0,0,0,0.1,0,0.1
		c0,0,0.1,0,0.1,0h0.4c0,0,0.1,0,0.1,0c0,0,0-0.1,0-0.1v-3.3C26.6,24.4,26.6,24.3,26.5,24.3C26.5,24.3,26.5,24.3,26.5,24.3z
		 M25.9,26.7c0,0.2-0.1,0.3-0.2,0.4c-0.1,0.1-0.2,0.2-0.4,0.2c-0.4,0-0.5-0.2-0.6-0.7l0-0.1l0-0.1c0-0.4,0.2-0.7,0.6-0.7
		c0.2,0,0.3,0.1,0.4,0.2c0.1,0.1,0.1,0.3,0.2,0.4c0,0,0,0.1,0,0.2C25.9,26.6,25.9,26.6,25.9,26.7z"/>
	<path class="st0" d="M13,32c-0.2-0.1-0.4-0.2-0.7-0.2c-0.2-0.1-0.4-0.1-0.5-0.2c-0.1,0-0.2-0.1-0.2-0.2c-0.1-0.1-0.1-0.1-0.1-0.2
		c0-0.1,0.1-0.2,0.2-0.3c0.1-0.1,0.2-0.1,0.4-0.1c0.2,0,0.3,0,0.4,0.1c0.1,0.1,0.2,0.2,0.2,0.3c0,0.1,0.1,0.1,0.1,0.1h0.5
		c0,0,0.1,0,0.1,0c0,0,0,0,0-0.1c0-0.1-0.1-0.3-0.2-0.4s-0.3-0.3-0.5-0.4c-0.2-0.1-0.4-0.1-0.7-0.1c-0.3,0-0.5,0-0.7,0.1
		c-0.2,0.1-0.3,0.2-0.5,0.4c-0.1,0.2-0.2,0.3-0.2,0.5c0,0.3,0.1,0.5,0.3,0.7c0.2,0.2,0.5,0.3,0.9,0.4c0.2,0.1,0.4,0.1,0.5,0.2
		c0.1,0,0.2,0.1,0.3,0.2c0.1,0.1,0.1,0.1,0.1,0.2c0,0.1-0.1,0.2-0.2,0.3c-0.1,0.1-0.3,0.1-0.5,0.1c-0.2,0-0.4,0-0.5-0.1
		c-0.1-0.1-0.2-0.2-0.2-0.3c0,0,0-0.1-0.1-0.1c0,0-0.1,0-0.1,0h-0.5c0,0-0.1,0-0.1,0c0,0,0,0,0,0.1c0,0.2,0.1,0.3,0.2,0.5
		c0.1,0.1,0.3,0.3,0.5,0.4c0.2,0.1,0.5,0.1,0.8,0.1c0.3,0,0.5,0,0.7-0.1c0.2-0.1,0.4-0.2,0.5-0.4c0.1-0.2,0.2-0.3,0.2-0.6
		c0-0.2,0-0.4-0.1-0.5C13.3,32.1,13.2,32,13,32z"/>
	<path class="st0" d="M15.6,33.2h-0.3c-0.1,0-0.2,0-0.2-0.1c0-0.1-0.1-0.2-0.1-0.3v-1.1h0.6c0,0,0.1,0,0.1,0c0,0,0-0.1,0-0.1v-0.3
		c0,0,0-0.1,0-0.1c0,0-0.1,0-0.1,0h-0.6v-0.8c0,0,0-0.1,0-0.1c0,0-0.1,0-0.1,0h-0.4c0,0-0.1,0-0.1,0c0,0,0,0.1,0,0.1v0.8h-0.4
		c0,0-0.1,0-0.1,0c0,0,0,0.1,0,0.1v0.3c0,0,0,0.1,0,0.1c0,0,0.1,0,0.1,0h0.4v1.1c0,0.3,0.1,0.5,0.2,0.7c0.2,0.2,0.4,0.2,0.7,0.2h0.4
		c0,0,0.1,0,0.1,0c0,0,0-0.1,0-0.1v-0.3C15.7,33.3,15.7,33.2,15.6,33.2C15.7,33.2,15.6,33.2,15.6,33.2z"/>
	<path class="st0" d="M18.2,31.4c-0.2-0.2-0.5-0.3-0.9-0.3c-0.4,0-0.7,0.1-0.9,0.3c-0.2,0.2-0.3,0.5-0.3,0.8l0,0.2l0,0.2
		c0,0.3,0.1,0.6,0.3,0.8c0.2,0.2,0.5,0.3,0.9,0.3c0.4,0,0.7-0.1,0.9-0.3c0.2-0.2,0.3-0.5,0.3-0.8c0,0,0-0.1,0-0.2c0-0.1,0-0.2,0-0.2
		C18.5,31.9,18.4,31.6,18.2,31.4z M17.9,32.6c0,0.2-0.1,0.4-0.2,0.5c-0.1,0.1-0.2,0.2-0.4,0.2c-0.2,0-0.3-0.1-0.4-0.2
		c-0.1-0.1-0.1-0.3-0.2-0.5l0-0.2l0-0.2c0-0.2,0.1-0.4,0.2-0.5c0.1-0.1,0.2-0.2,0.4-0.2c0.2,0,0.3,0.1,0.4,0.2
		c0.1,0.1,0.1,0.3,0.2,0.5c0,0,0,0.1,0,0.2S17.9,32.6,17.9,32.6z"/>
	<path class="st0" d="M20.7,31.2h-0.2c-0.3,0-0.5,0.1-0.7,0.3v-0.2c0,0,0-0.1,0-0.1c0,0-0.1,0-0.1,0h-0.4c0,0-0.1,0-0.1,0
		c0,0,0,0.1,0,0.1v2.3c0,0,0,0.1,0,0.1c0,0,0.1,0,0.1,0h0.4c0,0,0.1,0,0.1,0c0,0,0-0.1,0-0.1v-1.4c0-0.2,0-0.3,0.1-0.4
		c0.1-0.1,0.2-0.1,0.4-0.1h0.4c0,0,0.1,0,0.1,0c0,0,0-0.1,0-0.1v-0.4C20.8,31.2,20.8,31.2,20.7,31.2C20.7,31.2,20.7,31.2,20.7,31.2z
		"/>
	<path class="st0" d="M22.2,31.1c-0.2,0-0.4,0-0.6,0.1c-0.2,0.1-0.3,0.2-0.4,0.3c-0.1,0.1-0.1,0.2-0.1,0.3c0,0,0,0.1,0,0.1
		s0,0,0.1,0h0.4c0,0,0.1,0,0.1-0.1c0,0,0,0,0.1-0.1s0.1-0.1,0.2-0.1c0.1,0,0.2-0.1,0.3-0.1c0.2,0,0.3,0,0.3,0.1
		c0.1,0.1,0.1,0.2,0.1,0.3v0.1L22,32.2c-0.3,0-0.6,0.1-0.7,0.3C21.1,32.6,21,32.8,21,33c0,0.1,0,0.3,0.1,0.4
		c0.1,0.1,0.2,0.2,0.3,0.3c0.1,0.1,0.3,0.1,0.5,0.1c0.2,0,0.4,0,0.5-0.1c0.1-0.1,0.2-0.2,0.3-0.3v0.2c0,0,0,0.1,0,0.1
		c0,0,0.1,0,0.1,0h0.4c0,0,0.1,0,0.1,0c0,0,0-0.1,0-0.1v-1.6c0-0.3-0.1-0.5-0.3-0.7C22.9,31.2,22.6,31.1,22.2,31.1z M22.7,32.6
		c0,0.2-0.1,0.4-0.2,0.5c-0.1,0.1-0.3,0.2-0.4,0.2c-0.1,0-0.2,0-0.3-0.1c-0.1-0.1-0.1-0.1-0.1-0.2c0-0.2,0.2-0.3,0.6-0.4L22.7,32.6
		L22.7,32.6z"/>
	<path class="st0" d="M26.3,31.2C26.3,31.2,26.3,31.2,26.3,31.2l-0.5,0c0,0-0.1,0-0.1,0c0,0,0,0.1,0,0.1v0.2
		c-0.1-0.1-0.2-0.2-0.3-0.3c-0.1-0.1-0.3-0.1-0.5-0.1c-0.3,0-0.6,0.1-0.8,0.3c-0.2,0.2-0.3,0.5-0.3,0.9l0,0.1l0,0.1
		c0,0.4,0.1,0.6,0.3,0.9c0.2,0.2,0.4,0.3,0.8,0.3c0.3,0,0.6-0.1,0.8-0.3v0.3c0,0.2,0,0.4-0.1,0.5c-0.1,0.1-0.2,0.1-0.4,0.1
		c-0.2,0-0.3,0-0.3-0.1c-0.1-0.1-0.1-0.1-0.2-0.2c0,0,0-0.1-0.1-0.1c0,0,0,0-0.1,0H24c0,0-0.1,0-0.1,0c0,0,0,0,0,0.1
		c0,0.1,0,0.2,0.1,0.3c0.1,0.1,0.2,0.2,0.4,0.3c0.2,0.1,0.4,0.1,0.7,0.1c0.4,0,0.7-0.1,0.9-0.3c0.2-0.2,0.3-0.5,0.3-0.9L26.3,31.2
		C26.4,31.3,26.3,31.2,26.3,31.2z M25.7,32.6c0,0.2-0.1,0.3-0.2,0.4c-0.1,0.1-0.2,0.2-0.4,0.2c-0.4,0-0.6-0.3-0.6-0.8l0-0.1
		c0-0.4,0.2-0.7,0.6-0.7c0.2,0,0.3,0.1,0.4,0.2c0.1,0.1,0.1,0.3,0.2,0.4c0,0,0,0.1,0,0.2C25.7,32.5,25.7,32.6,25.7,32.6z"/>
	<path class="st0" d="M28.1,31.1c-0.4,0-0.7,0.1-0.9,0.4c-0.2,0.2-0.3,0.6-0.3,1l0,0.1c0,0.4,0.1,0.7,0.3,0.9
		c0.2,0.2,0.5,0.3,0.9,0.3c0.2,0,0.4,0,0.6-0.1c0.2-0.1,0.3-0.2,0.4-0.3c0.1-0.1,0.1-0.2,0.1-0.3c0,0,0-0.1,0-0.1c0,0,0,0-0.1,0
		h-0.4c0,0-0.1,0-0.1,0c0,0,0,0-0.1,0.1c-0.1,0.2-0.3,0.2-0.5,0.2c-0.2,0-0.3-0.1-0.4-0.2c-0.1-0.1-0.1-0.3-0.2-0.5v0h1.6
		c0,0,0.1,0,0.1,0c0,0,0-0.1,0-0.1v-0.1c0-0.4-0.1-0.7-0.3-1C28.8,31.2,28.5,31.1,28.1,31.1z M28.7,32.2h-1.1v0c0-0.2,0-0.4,0.1-0.5
		c0.1-0.1,0.2-0.2,0.4-0.2c0.2,0,0.3,0.1,0.4,0.2C28.6,31.9,28.7,32,28.7,32.2L28.7,32.2z"/>
</g>
</svg>
