<?xml version="1.0" encoding="utf-8"?>
<!-- Generator: Adobe Illustrator 23.0.1, SVG Export Plug-In . SVG Version: 6.00 Build 0)  -->
<svg version="1.1" id="Layer_1" xmlns="http://www.w3.org/2000/svg" xmlns:xlink="http://www.w3.org/1999/xlink" x="0px" y="0px"
	 viewBox="0 0 933.5 206.7" style="enable-background:new 0 0 933.5 206.7;" xml:space="preserve">
<path d="M305.6,148.2h-9.9c-0.8,0-1.4,0.2-1.8,0.6c-0.4,0.4-0.7,1-1,2c-1,4.2-2.8,7.2-5.3,8.9c-2.5,1.7-5.8,2.6-9.9,2.6
	c-9.7,0-14.7-5.4-15.1-16.3c-0.1-2-0.1-4.8-0.1-8.6c0-3.8,0-6.6,0.1-8.4c0.4-10.8,5.5-16.3,15.1-16.3c4.1,0,7.5,0.9,10,2.6
	c2.5,1.7,4.3,4.7,5.3,8.9c0.3,0.9,0.6,1.6,1,2c0.4,0.4,1,0.6,1.8,0.6h9.9c0.5,0,1-0.2,1.5-0.6c0.4-0.4,0.7-0.8,0.7-1.4v-0.2
	c-0.1-4.5-1.4-8.5-3.9-12.1c-2.5-3.6-5.9-6.4-10.4-8.5c-4.5-2.1-9.7-3.1-15.8-3.1c-9.3,0-16.5,2.4-21.6,7.3
	c-5.1,4.8-7.9,11.6-8.2,20.3c-0.1,1.9-0.1,4.9-0.1,9.1c0,4.1,0,7.1,0.1,8.9c0.3,8.8,3.1,15.6,8.2,20.4c5.1,4.8,12.3,7.2,21.7,7.2
	c6,0,11.3-1,15.8-3.1c4.5-2.1,7.9-4.9,10.4-8.5c2.5-3.6,3.8-7.6,3.9-12.1c0.1-0.6-0.1-1.1-0.6-1.5
	C306.7,148.4,306.2,148.2,305.6,148.2z"/>
<path d="M329.7,100.9h-8.5c-0.7,0-1.3,0.2-1.7,0.7c-0.5,0.4-0.7,1-0.7,1.8v67.3c0,0.7,0.2,1.3,0.7,1.7c0.5,0.5,1,0.7,1.7,0.7h8.5
	c0.7,0,1.3-0.2,1.8-0.7c0.4-0.5,0.7-1,0.7-1.7v-67.3c0-0.7-0.2-1.3-0.7-1.8C331,101.1,330.4,100.9,329.7,100.9z"/>
<path d="M387.4,125.3c-4.4-4.1-10.5-6.1-18.3-6.1c-7.9,0-14,2.1-18.4,6.1c-4.4,4.1-6.8,9.7-7.1,16.8l-0.1,4.5l0.1,4.5
	c0.3,7.2,2.7,12.8,7,16.9c4.3,4.1,10.5,6.1,18.5,6.1c7.9,0,14.1-2,18.4-6.1c4.3-4.1,6.7-9.7,7-16.9c0.1-0.8,0.1-2.3,0.1-4.5
	c0-2.2,0-3.7-0.1-4.5C394.2,135,391.8,129.4,387.4,125.3z M380.5,150.5c-0.1,4.3-1.2,7.6-3.1,9.9c-1.9,2.2-4.7,3.4-8.3,3.4
	c-3.6,0-6.4-1.1-8.3-3.4c-2-2.2-3-5.5-3.1-9.9l-0.1-4l0.1-4c0.1-4.3,1.2-7.6,3.1-9.9c2-2.3,4.7-3.4,8.3-3.4c3.5,0,6.3,1.1,8.2,3.4
	c2,2.3,3,5.6,3.2,9.9c0.1,0.7,0.1,2,0.1,4C380.6,148.6,380.6,149.9,380.5,150.5z"/>
<path d="M453.2,120.2h-9c-0.7,0-1.3,0.2-1.7,0.7c-0.5,0.4-0.7,1-0.7,1.8v27.9c0,3.9-1,6.9-3.1,9.1c-2.1,2.2-4.9,3.4-8.4,3.4
	c-7.3,0-10.9-4.2-10.9-12.5v-27.9c0-0.7-0.2-1.3-0.7-1.7c-0.5-0.5-1.1-0.7-1.7-0.7h-9.1c-0.7,0-1.3,0.2-1.7,0.7
	c-0.5,0.4-0.7,1-0.7,1.8v28.6c0,7.1,1.8,12.7,5.4,16.8c3.6,4.1,8.5,6.1,14.7,6.1c7.5,0,13.1-2.5,16.9-7.6v4.2c0,0.7,0.2,1.3,0.7,1.7
	c0.5,0.5,1,0.7,1.7,0.7h8.4c0.7,0,1.3-0.2,1.8-0.7c0.4-0.5,0.7-1,0.7-1.7v-48c0-0.7-0.2-1.3-0.7-1.8
	C454.6,120.4,454,120.2,453.2,120.2z"/>
<path d="M515.5,100.9h-8.8c-0.7,0-1.3,0.2-1.7,0.7c-0.5,0.4-0.7,1-0.7,1.8v22.6c-3.9-4.5-9-6.7-15.5-6.7c-6.8,0-12.1,2.2-15.8,6.7
	c-3.7,4.4-5.7,10.2-5.9,17.4l-0.1,3.4l0.1,3.4c0.3,7.3,2.3,13.2,6,17.5c3.7,4.4,8.9,6.6,15.8,6.6c7,0,12.4-2.4,16.2-7.2v3.8
	c0,0.7,0.2,1.3,0.7,1.7c0.5,0.5,1,0.7,1.7,0.7h8.2c0.7,0,1.3-0.2,1.8-0.7c0.4-0.5,0.7-1,0.7-1.7v-67.3c0-0.7-0.2-1.3-0.7-1.8
	C516.9,101.1,516.3,100.9,515.5,100.9z M504.3,150.1c-0.2,3.7-1.2,6.7-3.1,9.2c-1.9,2.5-4.7,3.7-8.6,3.7c-7.3,0-11.1-4.5-11.6-13.4
	l-0.1-3l0.1-3c0.5-8.9,4.3-13.4,11.6-13.4c3.7,0,6.6,1.2,8.5,3.6c2,2.4,3,5.3,3.2,8.6c0.1,0.8,0.1,2.1,0.1,4
	C504.4,148,504.3,149.3,504.3,150.1z"/>
<path d="M599.2,136.4c-3.6-1.7-8.4-3.2-14.4-4.6c-4.4-1.2-7.8-2.2-10.1-3.1c-2.3-0.9-4-2-5.1-3.2c-1.1-1.2-1.6-2.7-1.6-4.6
	c0-2.7,1.1-4.8,3.2-6.2c2.1-1.4,5.1-2.1,8.8-2.1c3.4,0,6.2,0.7,8.5,2.2c2.3,1.5,3.6,3.3,4,5.4c0.5,1.2,1.6,1.8,3,1.8h9.7
	c0.6,0,1.1-0.2,1.5-0.7c0.4-0.4,0.6-0.9,0.6-1.5c-0.1-2.9-1.3-5.8-3.4-8.8c-2.1-2.9-5.3-5.4-9.3-7.4c-4.1-2-9-2.9-14.6-2.9
	c-5.4,0-10,0.9-14.1,2.6c-4,1.8-7.1,4.2-9.3,7.3c-2.2,3.1-3.3,6.6-3.3,10.5c0,5.8,1.9,10.3,5.6,13.4c3.7,3.1,9.6,5.6,17.6,7.5
	c4.9,1.3,8.6,2.4,11,3.3c2.5,0.9,4.3,2,5.5,3.2c1.2,1.2,1.8,2.7,1.8,4.6c0,2.8-1.2,5-3.6,6.6c-2.4,1.6-6,2.4-10.7,2.4
	c-4.2,0-7.5-0.8-9.9-2.3c-2.4-1.6-3.9-3.5-4.6-5.8c-0.4-0.6-0.8-1.1-1.3-1.4c-0.5-0.3-1.1-0.5-1.8-0.5h-9.2c-0.6,0-1.1,0.2-1.5,0.7
	c-0.4,0.4-0.6,0.9-0.6,1.5c0.1,3.5,1.3,6.8,3.6,9.8c2.2,3,5.5,5.4,9.9,7.2c4.3,1.8,9.6,2.7,15.7,2.7c5.8,0,10.8-0.8,15.2-2.5
	c4.4-1.7,7.8-4.2,10.2-7.4c2.4-3.2,3.6-7,3.6-11.4c0-4-0.8-7.3-2.5-9.9C605.4,140.3,602.8,138.1,599.2,136.4z"/>
<path d="M652.3,161.7h-7.1c-2.3,0-4-0.7-5-2.2c-1-1.5-1.5-3.7-1.5-6.6V131h12.7c0.7,0,1.3-0.2,1.7-0.7c0.5-0.5,0.7-1,0.7-1.7v-6
	c0-0.7-0.2-1.3-0.7-1.7c-0.5-0.5-1.1-0.7-1.7-0.7h-12.7v-16.9c0-0.7-0.2-1.3-0.7-1.8c-0.4-0.4-1-0.7-1.8-0.7h-8.4
	c-0.7,0-1.3,0.2-1.7,0.7c-0.5,0.4-0.7,1-0.7,1.8v16.9h-8c-0.7,0-1.3,0.2-1.7,0.7c-0.5,0.5-0.7,1.1-0.7,1.7v6c0,0.7,0.2,1.3,0.7,1.7
	c0.5,0.5,1,0.7,1.7,0.7h8v23c0,6.2,1.6,11,4.7,14.2c3.1,3.2,7.8,4.8,13.9,4.8h8.3c0.7,0,1.3-0.2,1.8-0.7c0.4-0.5,0.7-1,0.7-1.7v-6.4
	c0-0.7-0.2-1.3-0.7-1.8C653.7,161.9,653.1,161.7,652.3,161.7z"/>
<path d="M705.6,125.3c-4.4-4.1-10.5-6.1-18.3-6.1c-7.9,0-14,2.1-18.4,6.1c-4.4,4.1-6.8,9.7-7.1,16.8l-0.1,4.5l0.1,4.5
	c0.3,7.2,2.7,12.8,7,16.9c4.3,4.1,10.5,6.1,18.5,6.1c7.9,0,14.1-2,18.4-6.1c4.3-4.1,6.7-9.7,7-16.9c0.1-0.8,0.1-2.3,0.1-4.5
	c0-2.2,0-3.7-0.1-4.5C712.3,135,710,129.4,705.6,125.3z M698.7,150.5c-0.1,4.3-1.2,7.6-3.1,9.9c-1.9,2.2-4.7,3.4-8.3,3.4
	c-3.6,0-6.4-1.1-8.3-3.4c-2-2.2-3-5.5-3.1-9.9l-0.1-4l0.1-4c0.1-4.3,1.2-7.6,3.1-9.9c2-2.3,4.7-3.4,8.3-3.4c3.5,0,6.3,1.1,8.2,3.4
	c2,2.3,3,5.6,3.2,9.9c0.1,0.7,0.1,2,0.1,4C698.8,148.6,698.7,149.9,698.7,150.5z"/>
<path d="M756.3,120.2H752c-6.4,0-11.2,2.2-14.6,6.7v-4.2c0-0.7-0.2-1.4-0.7-1.8c-0.5-0.5-1.1-0.7-1.8-0.7h-8.3
	c-0.7,0-1.3,0.2-1.7,0.7c-0.5,0.5-0.7,1.1-0.7,1.8v47.9c0,0.7,0.2,1.3,0.7,1.7c0.5,0.5,1,0.7,1.7,0.7h9c0.7,0,1.3-0.2,1.7-0.7
	c0.5-0.5,0.7-1,0.7-1.7v-27.8c0-3.2,0.9-5.7,2.7-7.5c1.8-1.8,4.3-2.7,7.5-2.7h8c0.7,0,1.3-0.2,1.8-0.7c0.4-0.5,0.7-1,0.7-1.7v-7.4
	c0-0.7-0.2-1.3-0.7-1.8C757.6,120.4,757,120.2,756.3,120.2z"/>
<path d="M788,119.1c-4.9,0-9,0.8-12.3,2.4c-3.3,1.6-5.8,3.5-7.4,5.6c-1.6,2.1-2.4,4-2.5,5.7c0,0.7,0.2,1.2,0.7,1.6
	c0.4,0.4,1,0.6,1.6,0.6h7.9c0.7,0,1.3-0.4,1.5-1.2c0.3-0.3,0.8-0.8,1.7-1.7c0.8-0.8,1.9-1.7,3.3-2.5c1.4-0.8,3.1-1.2,5.4-1.2
	c3.3,0,5.6,0.7,7.1,2.2c1.5,1.5,2.2,3.7,2.2,6.6v2.1l-13.9,2c-6.5,1-11.6,2.9-15.3,5.8c-3.7,2.8-5.6,6.6-5.6,11.2
	c0,2.8,0.8,5.5,2.5,7.8c1.7,2.4,3.9,4.3,6.8,5.6c2.9,1.4,6,2.1,9.5,2.1c4.1,0,7.5-0.7,10.2-2.1c2.7-1.4,4.8-3.2,6.3-5.3v4
	c0,0.7,0.2,1.3,0.7,1.7c0.5,0.5,1,0.7,1.7,0.7h8.4c0.7,0,1.3-0.2,1.8-0.7c0.4-0.5,0.7-1,0.7-1.7v-31.9c0-5.8-1.8-10.5-5.5-14.1
	C801.8,120.9,796,119.1,788,119.1z M797.3,150c0,4.6-1.2,8.1-3.6,10.6c-2.4,2.4-5.4,3.7-9.1,3.7c-2.5,0-4.7-0.6-6.5-1.8
	c-1.8-1.2-2.7-2.9-2.7-5c0-4,3.9-6.6,11.7-7.8l10.2-1.6V150z"/>
<path d="M872.3,120.9c-0.5-0.5-1.1-0.7-1.7-0.7h-8.3c-0.7,0-1.3,0.2-1.8,0.7c-0.5,0.5-0.8,1.1-0.8,1.8v4c-1.8-2.3-4-4.1-6.7-5.5
	c-2.7-1.4-5.9-2-9.5-2c-7,0-12.3,2.2-15.9,6.6c-3.6,4.4-5.5,10.2-5.8,17.5l-0.1,2.7l0.1,2.7c0.3,7.4,2.2,13.2,5.7,17.5
	c3.6,4.3,8.9,6.4,15.9,6.4c6.7,0,11.9-2.2,15.5-6.5v6.9c0,4.5-0.9,7.6-2.8,9.4c-1.9,1.8-4.9,2.7-8.9,2.7c-3.1,0-5.4-0.6-6.9-1.9
	c-1.5-1.3-2.6-2.8-3.4-4.5c-0.3-0.8-0.6-1.4-1.1-1.7c-0.4-0.3-1-0.5-1.6-0.5h-9c-0.7,0-1.3,0.2-1.7,0.7c-0.5,0.4-0.7,1-0.7,1.7
	c0,1.8,0.8,4,2.3,6.6c1.6,2.6,4.2,4.9,7.9,6.9c3.7,2,8.6,3,14.6,3c8.5,0,14.8-2.1,19-6.2c4.2-4.1,6.3-10,6.3-17.5l-0.1-49
	C873,122,872.8,121.4,872.3,120.9z M859.1,149.2c-0.2,3.5-1.3,6.5-3.2,8.9c-1.9,2.4-4.7,3.7-8.5,3.7c-7.8,0-11.7-5.3-11.7-15.9
	l0.1-2.4c0.4-8.9,4.3-13.4,11.6-13.4c3.8,0,6.6,1.2,8.5,3.7c1.9,2.4,2.9,5.4,3.2,8.9c0.1,0.5,0.1,1.6,0.1,3.3
	S859.2,148.7,859.1,149.2z"/>
<path d="M928,126.5c-4.4-4.9-10.6-7.3-18.6-7.3c-7.9,0-14,2.4-18.4,7.3c-4.4,4.9-6.7,11.6-6.7,20l0.1,2.5c0.3,8,2.6,14.2,7.1,18.5
	c4.4,4.3,10.4,6.5,18,6.5c4.7,0,8.9-0.8,12.5-2.4s6.4-3.5,8.3-5.7c1.9-2.2,2.9-4.1,2.9-5.7c0-0.6-0.2-1.1-0.7-1.4
	c-0.4-0.3-1-0.5-1.6-0.5h-8.9c-0.8,0-1.4,0.1-1.7,0.3c-0.3,0.2-0.8,0.6-1.4,1.4c-2.4,3.1-5.6,4.7-9.5,4.7c-3.4,0-6-1.2-8-3.7
	c-1.9-2.5-3-5.6-3.1-9.4v-0.8H932c0.7,0,1.4-0.2,1.8-0.7c0.5-0.5,0.7-1.1,0.7-1.7V146C934.5,137.8,932.3,131.3,928,126.5z
	 M920.5,141.9h-22.3v-0.2c0-4,1-7.2,2.9-9.6c2-2.4,4.7-3.6,8.1-3.6s6.2,1.2,8.2,3.6c2,2.4,3,5.6,3,9.6V141.9z"/>
<g>
	<path d="M165.1,62.4C163.7,31.1,137.5,5.9,106,5.9c-14.4,0-28.3,5.2-39.1,14.8c-9.1,8.1-15.7,18.9-18.5,30.7
		C21.1,51.9-1,74.4-1,101.8c0,27.8,22.6,50.5,50.5,50.5h17.8c3.5,0,6.4-2.9,6.4-6.4s-2.9-6.4-6.4-6.4H49.5
		c-20.8,0-37.7-16.9-37.7-37.7s16.9-37.7,37.7-37.7c1.1,0,2.3,0.1,3.6,0.2c0.2,0,0.4,0,0.6,0c3.2,0,5.9-2.4,6.3-5.5
		c1.5-11,7-21.2,15.3-28.6c8.5-7.5,19.4-11.6,30.7-11.6c25.6,0,46.5,20.9,46.5,46.5c0,0.7-0.1,2.6-0.2,3.3c-0.1,1.9,0.6,3.7,1.9,5
		c1.2,1.2,2.8,1.8,4.4,1.8c0.2,0,0.4,0,0.6,0c1.1-0.1,2.2-0.2,3.3-0.2c17.8,0,32.3,14.5,32.3,32.3c0,17.8-14.5,32.3-32.3,32.3H143
		c-3.5,0-6.4,2.9-6.4,6.4s2.9,6.4,6.4,6.4h19.5c24.8,0,45-20.2,45-45C207.5,83.5,188.7,63.8,165.1,62.4z"/>
	<path d="M106,26.4c-19.2,0-35.7,14.4-38.3,33.4c-0.5,3.5,2,6.7,5.4,7.2c0.3,0,0.6,0.1,0.9,0.1c0,0,0,0,0,0c3.2,0,5.9-2.4,6.3-5.5
		C82,48.8,93.1,39.1,106,39.1c3.5,0,6.4-2.9,6.4-6.4S109.5,26.4,106,26.4z"/>
	<path d="M104.6,102.1c-3.5,0-6.4,2.9-6.4,6.4v49.2l-7.2-6.4c-1.2-1-2.7-1.6-4.2-1.6c-1.8,0-3.5,0.8-4.7,2.1
		c-1.1,1.3-1.7,2.9-1.6,4.6s0.8,3.3,2.1,4.4l15.9,14.2c1.7,1.5,3.9,2.3,6.1,2.3c2.3,0,4.4-0.8,6.1-2.3l15.9-14.2
		c1.3-1.1,2-2.7,2.1-4.4c0.1-1.7-0.5-3.3-1.6-4.6c-1.2-1.3-2.9-2.1-4.7-2.1c-1.6,0-3.1,0.6-4.2,1.6l-7.2,6.4v-49.2
		C111,105,108.1,102.1,104.6,102.1z"/>
	<path d="M140.3,162.9c-3.4,0-6.2,2.8-6.2,6.2v21.2H72.5v-21.2c0-3.4-2.8-6.2-6.2-6.2c-3.4,0-6.2,2.8-6.2,6.2v26.6c0,3.9,3.2,7,7,7
		h72.3c3.9,0,7-3.2,7-7v-26.6C146.5,165.7,143.7,162.9,140.3,162.9z"/>
</g>
</svg>
