<?xml version="1.0" encoding="utf-8"?>
<!-- Generator: Adobe Illustrator 22.1.0, SVG Export Plug-In . SVG Version: 6.00 Build 0)  -->
<svg version="1.1" id="Capa_1" xmlns="http://www.w3.org/2000/svg" xmlns:xlink="http://www.w3.org/1999/xlink" x="0px" y="0px"
	 viewBox="0 0 478.7 478.7" style="enable-background:new 0 0 478.7 478.7;" xml:space="preserve">
<style type="text/css">
	.st0{fill:#35C4FF;}
</style>
<g>
	<path class="st0" d="M2,192.2c16.5,0,33.1-0.2,49.6,0c3.2,0,4.5-1,5.4-4c5-18.4,12.6-35.8,23.2-51.7c1.8-2.7,1.6-4.3-0.7-6.6
		c-11-10.8-21.9-21.8-32.4-32.4c16.7-16.7,33.4-33.4,50.3-50.3c8.8,8.8,18.1,18,27.3,27.2c8,8,8,7.9,17.7,2.1
		c14.8-8.9,30.6-15.2,47.2-19.7c0.6-0.2,1.2-0.1,2.3-0.2c0,9.5,0,18.9,0,28.3c0,5.4-0.2,10.8,0.1,16.2c0.2,3.4-1.2,4.7-4.2,6
		c-44.4,18.3-74.2,50.3-86.1,96.9c-12.4,48.7-1.3,92.7,32,130.6c20.1,22.9,45.4,37.7,75.1,43.8c50.4,10.2,94.5-2.8,131.4-38.8
		c14.2-13.9,24.6-30.4,31.7-49c0.8-2.1,1.4-3.8,4.4-3.8c15.1,0.2,30.3,0.1,46.4,0.1c-2,6.4-3.2,12.6-5.7,18.2
		c-5.8,12.7-12.2,25.2-18.6,37.7c-1.4,2.7-1.5,4.1,0.7,6.2c9.8,9.6,19.5,19.4,29.3,29.1c1.3,1.3,3,2.2,4.2,3
		c-17.5,17.5-34.1,34-51.3,51.2c-2.2-2.3-4.7-5.1-7.4-7.8c-8.4-8.4-16.8-16.8-25.2-25.3c-1.4-1.5-2.6-2.8-5-1.2
		c-17,11.3-35.4,19.3-55.1,24.7c-0.6,0.2-1.1,0.5-1.9,0.9c0,17.5,0,35.1,0,53c-31.6,0-62.8,0-94.6,0c0-17.7,0-35.4,0-53.1
		c-7-2.4-13.8-4-20-6.9c-11.9-5.5-23.6-11.4-35.1-17.6c-3.3-1.7-5-2-7.7,0.8c-9.5,9.9-19.4,19.5-29.1,29.3c-1.1,1.1-2.2,2.1-3.2,3
		c-16.7-16.8-33.2-33.4-50.1-50.3c0.7-0.7,1.6-1.9,2.7-2.9c10-10.1,20-20.2,30.2-30.1c2.1-2,2.2-3.5,0.6-5.9
		c-10.8-16.2-18.4-33.8-23.6-52.5c-0.8-2.7-2-3.6-4.8-3.6c-16.7,0.1-33.4,0-50.1,0C2,255.3,2,223.7,2,192.2z"/>
	<path class="st0" d="M476.7,142.1c-10.5,0.1-21,0.2-31.5,0.1c-3,0-4.3,0.9-5.3,3.7c-1.6,4.8-3.6,9.5-5.8,14.1
		c-1.1,2.3-1,3.8,0.9,5.6c6.7,6.4,13.2,13,19.4,19.2c-10.9,10.9-21.4,21.4-32.6,32.6c-5.7-5.7-11.9-11.8-17.9-18.2
		c-2.6-2.7-4.7-3.6-8.2-1.5c-3.6,2.1-7.5,3.6-11.5,4.7c-3.7,1-5.2,2.7-5,6.7c0.4,8.5,0.1,17,0.1,25.5c0,1.5-0.1,3-0.2,4.7
		c-14.3,0-28.3,0-42.8,0c0-10.2-0.2-20.2,0.1-30.2c0.1-3.7-0.9-5.5-4.5-6.6c-4.4-1.3-8.7-3.1-12.8-5.3c-2.9-1.5-4.6-1-6.7,1.2
		c-6.1,6.5-12.5,12.8-18.7,19.1c-10.8-11-21.3-21.6-32.3-32.8c5.1-5,10.7-10.6,16.4-16.3c5.3-5.3,5.2-5.3,2-12.2
		c-1.6-3.5-3-7.1-4.1-10.8c-0.8-2.6-2.1-3.3-4.6-3.3c-10.5,0.1-20.9,0.1-31.6,0.1c0-14.4,0-28.4,0-43c9.8,0,19.5-0.3,29.1,0.1
		c4.7,0.2,6.9-1.2,8-5.8c1.1-4.3,3.2-8.3,5.2-12.3c1.1-2.2,0.8-3.5-0.9-5.2c-6.7-6.4-13.2-13-19.6-19.4
		c10.9-10.7,21.7-21.3,32.8-32.2c5.8,5.9,12.3,12.2,18.6,18.8c2,2.1,3.6,2.5,6.3,1.2c4.4-2.2,9-4.1,13.7-5.6
		c2.8-0.9,3.8-2.2,3.8-5.2c-0.1-10.5,0-21,0.1-31.5c14.2,0,28.4,0,42.6,0c0.1,10.6,0.2,21.3,0.1,31.9c0,2.6,0.8,3.8,3.3,4.6
		c4.2,1.4,8.5,2.8,12.4,5c3.8,2.1,6.3,1.9,9.4-1.5c5.8-6.3,12-12.2,17.7-17.8c11.1,11,21.6,21.4,32.7,32.4
		c-6.4,6.3-12.8,12.7-19.4,18.9c-2.2,2.1-2.3,3.7-1,6.3c2.2,4.4,4.1,9,5.6,13.7c0.9,2.9,2.3,3.8,5.2,3.7c10.5-0.1,21,0.1,31.5,0.1
		C476.7,113.7,476.7,127.9,476.7,142.1z M405.4,121c0.1-26.1-21.1-47.5-47.2-47.5c-26.1-0.1-47.5,21.1-47.5,47.2
		c-0.1,26.1,21.1,47.5,47.2,47.5S405.3,147.1,405.4,121z"/>
</g>
</svg>
