<?xml version="1.0" encoding="utf-8"?>
<!-- Generator: Adobe Illustrator 23.0.4, SVG Export Plug-In . SVG Version: 6.00 Build 0)  -->
<svg version="1.1" id="Layer_1" xmlns="http://www.w3.org/2000/svg" xmlns:xlink="http://www.w3.org/1999/xlink" x="0px" y="0px"
	 viewBox="0 0 355 355" style="enable-background:new 0 0 355 355;" xml:space="preserve">
<style type="text/css">
	.st0{fill:#39B0D0;}
	.st1{fill:#FFFFFF;}
</style>
<g>
	<circle class="st0" cx="177.1" cy="177.4" r="177.5"/>
	<g>
		<path class="st1" d="M232.7,112.9c8.8,0,8.8,0,8.8,9c0,31.3,0,62.6,0,93.9c0,7.4,2.6,10,9.8,10c3.8,0,7.7,0,11.5,0
			c8.8,0,11-2.2,11-10.8c0-41.1,0-82.3,0-123.4c0-9-2.1-11.1-11.3-11.1c-20.5,0-41,0-61.5,0c0,0,0,0,0,0c-20.8,0-41.6,0-62.5,0
			c-7.7,0-10.1,2.5-10.1,10.2c0,3.8,0,7.7,0,11.5c0,8.4,2.3,10.6,10.7,10.6C170.4,112.9,201.6,112.9,232.7,112.9z"/>
		<path class="st1" d="M80.2,139.3c0,41.3,0,82.6,0,124c0,8.8,2.2,11,10.9,11c41.3,0,82.6,0,124,0c8.1,0,10.5-2.4,10.5-10.4
			c0-20.8,0-41.7,0-62.5c0-20.7,0-41.3,0-62c0-8-2.4-10.5-10.4-10.5c-41.5,0-83,0-124.5,0C82.6,128.9,80.2,131.2,80.2,139.3z
			 M112.5,167.2c0-4.1,1.7-5.8,5.6-5.8c23.1,0,46.3,0,69.4-0.1c4,0,5.6,1.8,5.6,5.8c-0.1,22.8-0.1,45.6,0,68.4
			c0,4.7-1.8,6.5-6.6,6.4c-11.3-0.2-22.6-0.1-34-0.1c-11.2,0-22.3-0.1-33.5,0.1c-4.6,0.1-6.7-1.5-6.6-6.3
			C112.6,212.8,112.6,190,112.5,167.2z"/>
	</g>
</g>
</svg>
