<?xml version="1.0" encoding="utf-8"?>
<!-- Generator: Adobe Illustrator 23.0.1, SVG Export Plug-In . SVG Version: 6.00 Build 0)  -->
<svg version="1.1" id="Layer_1" xmlns="http://www.w3.org/2000/svg" xmlns:xlink="http://www.w3.org/1999/xlink" x="0px" y="0px"
	 viewBox="0 0 40 40" style="enable-background:new 0 0 40 40;" xml:space="preserve">
<style type="text/css">
	.st0{fill:#0f75bc;}
</style>
<g>
	<path class="st0" d="M31.7,11l-3,3.1c-0.3,0.3-0.3,0.8,0,1.1c0.2,0.2,0.4,0.2,0.6,0.2c0.2,0,0.4-0.1,0.6-0.2l3-3.1
		c0.9-0.9,0.9-2.5,0-3.4l-3-3c-0.3-0.3-0.8-0.3-1.1,0c-0.3,0.3-0.3,0.8,0,1.1l3,3C32,10.1,32,10.6,31.7,11C31.7,11,31.7,11,31.7,11z
		"/>
	<path class="st0" d="M19.2,10.4c0,0.4,0.4,0.8,0.8,0.8h8.6c0.4,0,0.8-0.4,0.8-0.8c0-0.4-0.4-0.8-0.8-0.8h-8.6
		C19.6,9.6,19.2,9.9,19.2,10.4z"/>
	<path class="st0" d="M36.8,0H22.5c-1.8,0-3.2,1.5-3.2,3.2v1.6c0,0.4,0.4,0.8,0.8,0.8c0.4,0,0.8-0.4,0.8-0.8V3.2
		c0-0.9,0.7-1.6,1.6-1.6h14.3c0.9,0,1.6,0.7,1.6,1.6v14.3c0,0.9-0.7,1.6-1.6,1.6H22.9c0.1,0.5,0.2,1.1,0.2,1.6h13.7
		c1.8,0,3.2-1.5,3.2-3.2V3.2C40,1.5,38.5,0,36.8,0z"/>
	<path class="st0" d="M24,34.5l-6.6-3.3v-1.5c0,0,0-0.1,0-0.1c2-1.5,3.4-3.8,3.5-6.5c0.8-1.1,1.1-2.9,0.7-4.4
		c-0.4-1.4-1.2-2.4-2.5-2.9c-1.2-1.8-2.7-2.9-4.4-3.2c-2.4-0.4-5.2,0.6-8.5,3.1l-0.1,0.1c-1.9,1.9-2,4.8-2,6.2c0,0.1,0,0.2,0,0.3
		c0,0.3,0,0.5,0,0.5c0,2.5,1.2,4.8,3,6.3c0,0,0,0,0,0.1V31l-6.2,3.2c-0.5,0.3-0.9,0.8-0.9,1.4l0,3.6C0,39.6,0.4,40,0.8,40
		c0,0,0,0,0,0c0.5,0,0.8-0.4,0.8-0.8l0-3.5l5.6-2.9l5.1,3.5l4.5-3.4l6.2,3.1l0,3.2c0,0.5,0.4,0.8,0.8,0.8c0,0,0,0,0,0
		c0.5,0,0.8-0.4,0.8-0.9l0-3.2C24.8,35.3,24.5,34.8,24,34.5z M14.3,14.2c1.3,0.2,2.5,1.1,3.4,2.7l0.2,0.3l0.3,0.1
		c1.1,0.3,1.5,1.2,1.7,1.8c0.1,0.5,0.2,1.1,0.1,1.6c-0.1,0-0.3,0-0.4,0c-3,0.1-8.7,0.3-10.3-5.1C11.2,14.4,12.9,14,14.3,14.2z
		 M7.2,17c0.2-0.2,0.4-0.3,0.6-0.4c0.3,0.8,0.6,1.5,1.1,2.1c-0.2,0.8-0.9,1.7-1.8,2.2c-0.4,0.3-0.9,0.4-1.3,0.5
		C5.8,20.1,6,18.2,7.2,17z M15.7,31.7l-3.2,2.5l-3.7-2.5v-1.4c1.1,0.5,2.4,0.9,3.7,0.9c1.1,0,2.2-0.2,3.2-0.6V31.7z M12.5,29.4
		c-3.6,0-6.5-2.8-6.7-6.4c0.7,0,1.4-0.3,2.1-0.7c0.9-0.6,1.7-1.4,2.2-2.3c2.4,2.1,5.7,2.4,8,2.4c0.4,0,0.7,0,1,0l0,0v0.3
		C19.2,26.5,16.2,29.4,12.5,29.4z"/>
</g>
</svg>
