<?xml version="1.0" encoding="utf-8"?>
<!-- Generator: Adobe Illustrator 23.0.1, SVG Export Plug-In . SVG Version: 6.00 Build 0)  -->
<svg version="1.1" id="Layer_1" xmlns="http://www.w3.org/2000/svg" xmlns:xlink="http://www.w3.org/1999/xlink" x="0px" y="0px"
	 viewBox="0 0 40 40" style="enable-background:new 0 0 40 40;" xml:space="preserve">
<style type="text/css">
	.st0{fill:#0f75bc;}
</style>
<g>
	<path class="st0" d="M38.9,36.9c-4.5,0-9,0-13.5,0c-0.2,0-0.3,0-0.5,0.1c-0.3,0.1-0.5,0.4-0.5,0.7c0,0.3,0.2,0.6,0.5,0.7
		c0.2,0.1,0.3,0.1,0.5,0.1c4.5,0,9,0,13.5,0c0.5,0,0.8-0.2,1-0.6c0-0.1,0-0.2,0-0.3C39.8,37,39.4,36.9,38.9,36.9z"/>
	<path class="st0" d="M14.5,36.9c-4.5,0-8.9,0-13.4,0c-0.6,0-1,0.3-1,0.8c0,0.5,0.4,0.8,1,0.8c0.1,0,0.2,0,0.2,0c2.1,0,4.3,0,6.4,0
		c0,0,0,0,0,0c2.3,0,4.5,0,6.8,0c0.6,0,0.9-0.2,1-0.7C15.5,37.2,15.1,36.9,14.5,36.9z"/>
	<path class="st0" d="M27.6,33.1c0.5-1,0.5-2.2-0.1-3.1c-0.1-0.2-0.3-0.4-0.5-0.6c-0.1-0.1-0.1-0.1-0.2-0.2c0.5-0.4,0.8-0.9,1-1.4
		h3.8c4.6,0,8.4-3.8,8.4-8.4c0-2.2-0.9-4.3-2.4-5.9c-1.6-1.6-3.6-2.5-5.8-2.5l0,0l0,0c0-2.9-1.2-5.7-3.3-7.8C26.3,1.1,23.5,0,20.5,0
		c-2.7,0-5.3,1-7.4,2.8c-1.8,1.6-3.1,3.7-3.5,6.1l0,0c0,0-0.1,0-0.1,0c-5.2,0-9.4,4.2-9.4,9.4c0,5.2,4.2,9.4,9.4,9.4h2.6
		c0.2,0.5,0.5,1,1,1.4c0,0,0,0,0,0c-1.1,1-1.4,2.3-0.9,3.6c0.5,1.2,1.7,2,3.1,2h0.3c0.7,0,1.4,0,2.1,0l1.5,0v1.5l0,0
		c-0.1,0-0.1,0.1-0.2,0.1c-0.5,0.3-0.8,0.7-0.9,1.2c-0.1,0.5,0,1.1,0.2,1.5c0.3,0.5,0.9,0.8,1.3,0.9c0.5,0.1,0.9-0.1,0.9-0.1
		c1-0.3,1.5-1.4,1.2-2.4c-0.2-0.6-0.5-1-1.1-1.2v-1.6l0.4,0c0.4,0,0.7,0,1.1,0c0.4,0,0.7,0,1.1,0c0.6,0,1.2,0,1.6,0
		C26.1,34.7,27.1,34.1,27.6,33.1z M1.7,18.3c0-4.3,3.5-7.8,7.8-7.8c0.2,0,0.5,0,0.7,0c0,0,0.1,0,0.1,0c0.4,0,0.8-0.3,0.8-0.7
		c0.3-2.3,1.4-4.3,3.1-5.8c1.7-1.5,4-2.4,6.3-2.4c5.2,0,9.5,4.3,9.5,9.5c0,0.2,0,0.7,0,0.7c0,0.2,0.1,0.5,0.3,0.7
		c0.2,0.2,0.4,0.2,0.6,0.2c0,0,0.1,0,0.1,0c0.2,0,0.5,0,0.7,0c3.7,0,6.7,3,6.7,6.7c0,3.7-3,6.7-6.7,6.7h-3.7
		c-0.1-0.7-0.5-1.3-1.1-1.8c0,0,0,0,0.1-0.1c1-0.9,1.4-2.2,0.9-3.5c-0.4-1.2-1.6-2-3-2l-1.2,0c-1.5,0-3,0-4.5,0c-1.3,0-2.7,0-4,0
		c-1,0-1.9,0.5-2.5,1.3c-0.6,0.8-0.8,1.9-0.4,2.8c0.2,0.5,0.5,1,1,1.5c-0.6,0.5-1,1.1-1.1,1.8H9.5C5.2,26.1,1.7,22.6,1.7,18.3z
		 M20,23.6c-0.5,0-0.9,0-1.4,0c-0.5,0-0.9,0-1.4,0c-0.7,0-1.3,0-2,0c-0.9,0-1.6-0.6-1.8-1.4c-0.1-0.5,0-1,0.3-1.4
		c0.3-0.4,0.7-0.6,1.2-0.7c0.1,0,0.2,0,0.3,0l5,0c1.5,0,3,0,4.6,0c0.6,0,1.2,0.3,1.5,0.7c0.3,0.5,0.4,1,0.2,1.6
		c-0.3,0.7-0.9,1.1-1.7,1.1c-0.7,0-1.3,0-2,0C22.8,23.6,20.5,23.6,20,23.6L20,23.6L20,23.6z M14.4,25.2c0.3-0.1,0.6-0.2,0.8-0.2
		c1.6,0,3.3,0,5.1,0c1.5,0,3,0,4.5,0c0.5,0,1,0.2,1.3,0.5c0.3,0.3,0.5,0.8,0.5,1.2c0,1-0.8,1.7-1.8,1.7c-0.6,0-1.3,0-1.9,0
		c-0.5,0-1,0-1.4,0c-0.5,0-1,0-1.4,0l-0.3,0c-0.4,0-0.8,0-1.3,0c-0.4,0-0.8,0-1.3,0c-0.7,0-1.4,0-2,0c-0.9,0-1.6-0.6-1.7-1.4
		C13.2,26.3,13.6,25.5,14.4,25.2z M20.4,38.4c-0.1,0.1-0.2,0.2-0.4,0.2l0,0c-0.3,0-0.5-0.2-0.5-0.5c0-0.3,0.2-0.5,0.5-0.5l0,0
		c0.3,0,0.5,0.2,0.5,0.5C20.5,38.2,20.5,38.3,20.4,38.4z M23.5,33.4c-0.4,0-0.7,0-1.1,0c-0.4,0-0.7,0-1.1,0h0c0,0-3.2,0-3.9,0
		c-0.7,0-1.5,0-2.2,0c-0.9,0-1.5-0.4-1.8-1.2c-0.1-0.5-0.1-1,0.1-1.4c0.2-0.4,0.6-0.7,1.1-0.8c0.2,0,0.4-0.1,0.6-0.1
		c0.8,0,1.6,0,2.4,0l2.4,0c0.5,0,0.9,0,1.4,0c0.5,0,0.9,0,1.4,0c0.6,0,1.3,0,1.9,0c1,0,1.7,0.6,1.8,1.6c0,0.5-0.1,1-0.4,1.3
		c-0.3,0.4-0.8,0.6-1.4,0.6C24.4,33.4,24,33.4,23.5,33.4z"/>
	<path class="st0" d="M22.4,27.3L22.4,27.3c0.4,0,0.7-0.3,0.7-0.7c0-0.4-0.3-0.7-0.7-0.7c-0.2,0-0.4,0.1-0.5,0.2
		c-0.1,0.1-0.2,0.3-0.2,0.5C21.7,27,22,27.3,22.4,27.3z"/>
	<path class="st0" d="M24.5,27.3L24.5,27.3c0.2,0,0.4-0.1,0.5-0.2c0.1-0.1,0.2-0.3,0.2-0.5c0-0.4-0.3-0.7-0.7-0.7
		c-0.2,0-0.4,0.1-0.5,0.2c-0.1,0.1-0.2,0.3-0.2,0.5C23.9,27,24.2,27.3,24.5,27.3z"/>
	<path class="st0" d="M22.4,22.4C22.4,22.4,22.4,22.4,22.4,22.4c0.2,0,0.4-0.1,0.5-0.2c0.1-0.1,0.2-0.3,0.2-0.5
		c0-0.4-0.3-0.7-0.7-0.7c-0.4,0-0.7,0.3-0.7,0.7C21.7,22.1,22,22.4,22.4,22.4z"/>
	<path class="st0" d="M24.5,22.4L24.5,22.4c0.4,0,0.7-0.3,0.7-0.7c0-0.2-0.1-0.3-0.2-0.5c-0.1-0.1-0.3-0.2-0.5-0.2
		c-0.4,0-0.7,0.3-0.7,0.7c0,0.2,0.1,0.4,0.2,0.5C24.2,22.4,24.4,22.4,24.5,22.4z"/>
	<path class="st0" d="M22.4,30.8c-0.2,0-0.4,0.1-0.5,0.2c-0.1,0.1-0.2,0.3-0.2,0.5c0,0.4,0.3,0.7,0.7,0.7h0c0.2,0,0.4-0.1,0.5-0.2
		c0.1-0.1,0.2-0.3,0.2-0.5C23.1,31.1,22.8,30.8,22.4,30.8z"/>
	<path class="st0" d="M24.6,30.8L24.6,30.8c-0.4,0-0.7,0.3-0.7,0.7c0,0.2,0.1,0.4,0.2,0.5c0.1,0.1,0.3,0.2,0.5,0.2l0,0
		c0.4,0,0.7-0.3,0.7-0.7c0-0.2-0.1-0.3-0.2-0.5C24.9,30.9,24.7,30.8,24.6,30.8z"/>
	<path class="st0" d="M20.9,21.8c0-0.3-0.3-0.6-0.6-0.6h-4.9c-0.3,0-0.6,0.3-0.6,0.6c0,0.3,0.3,0.6,0.6,0.6h4.9
		C20.6,22.4,20.9,22.1,20.9,21.8z"/>
	<path class="st0" d="M15.4,27.3h4.9c0.3,0,0.6-0.3,0.6-0.6c0-0.3-0.3-0.6-0.6-0.6h-4.9c-0.3,0-0.6,0.3-0.6,0.6
		C14.8,27,15.1,27.3,15.4,27.3z"/>
	<path class="st0" d="M20.3,30.9h-4.9c-0.3,0-0.6,0.3-0.6,0.6c0,0.3,0.3,0.6,0.6,0.6h4.9c0.3,0,0.6-0.3,0.6-0.6
		C20.9,31.2,20.6,30.9,20.3,30.9z"/>
	<path class="st0" d="M14.2,11.1c0,0,0.1,0,0.1,0c0.4,0,0.8-0.3,0.8-0.7c0.4-2.7,2.7-4.7,5.4-4.7c0.5,0,0.8-0.4,0.8-0.8
		C21.4,4.4,21,4,20.5,4C17,4,14,6.7,13.5,10.2C13.4,10.6,13.7,11.1,14.2,11.1z"/>
</g>
</svg>
