<?xml version="1.0" encoding="utf-8"?>
<!-- Generator: Adobe Illustrator 22.1.0, SVG Export Plug-In . SVG Version: 6.00 Build 0)  -->
<svg version="1.1" id="Capa_1" xmlns="http://www.w3.org/2000/svg" xmlns:xlink="http://www.w3.org/1999/xlink" x="0px" y="0px"
	 viewBox="0 0 478.7 478.7" style="enable-background:new 0 0 478.7 478.7;" xml:space="preserve">
<style type="text/css">
	.st0{fill:#35C4FF;}
</style>
<path class="st0" d="M434.3,326.4c0.4,0,1,0,1.6,0.1c2.5,0.4,5.1,1.6,6.6,3.2c8.5,8.3,17.4,17.3,28.6,28.6l2.7,2.7
	c4.4,4.6,4.4,11.1,0,15.5c-10.8,10.9-21.8,21.8-31.5,31.4c-2,2-4.8,3.2-7.7,3.2c-3,0-5.7-1.1-7.8-3.3c-4.4-4.4-4.4-11.1,0-15.7
	c3-3,6-6.1,9-9c1.1-1.1,2.3-2.3,3.4-3.4l-42.4-0.1c-5.4,0-16.8,0-28.2,0c-11.4,0-22.8,0-28.2,0c-3.2,0-6.1-1.2-8.2-3.3
	c-2-2.1-3.1-4.7-3.1-7.9c0-6.3,4.8-10.9,11.5-10.9c7.1,0,20.1,0,33.2,0c13.1,0,26.2,0,33.2,0l32.2,0.1l-12.5-12.5
	c-3.4-3.5-4.1-8.3-2.1-12.5C426.5,328.8,430.2,326.4,434.3,326.4z"/>
<path class="st0" d="M368.4,463.9c-17.4,0-33.9-4.6-49.1-13.8c-26-15.7-41.1-37.1-46.1-65.3c-8.1-45.3,15-88.4,57.3-107.1
	c12.3-5.4,25.5-8,41.4-8l2,0c7.4,0.4,14.4,1.5,20.8,3.2c5,1.3,8.4,5.8,8.4,10.9v0.2c0,6.2-5,11.2-11.2,11.2c-0.9,0-1.9-0.1-2.9-0.3
	l-0.1,0c-6-1.7-12.5-2.5-19.6-2.5c-3,0-5.5,0.1-8,0.4c-33.4,3.2-57.8,24.9-65.4,58c-4.5,19.7-1,39.8,10,56.5
	c11.1,17,28.3,28.6,48.4,32.5c5.1,1,10.4,1.6,15.6,1.6c6.4,0,12.8-0.9,19-2.5c1-0.3,2-0.4,3-0.4c6.2,0,11.2,5.1,11.2,11.3
	c0,5.2-3.5,9.6-8.4,10.9c-2.5,0.7-5.3,1.3-8.7,1.9C380,463.4,374,463.9,368.4,463.9z"/>
<path class="st0" d="M192.7,477.4c-32.7,0-65-3.9-95.8-11.6c-29.5-7.4-51.7-17.3-69.8-31.2c-17.3-13.5-25.6-30.2-25.4-51
	c0.4-34.4,0.3-69.2,0.2-102.8c0-7,0-14-0.1-21c0-7,0-14,0-21c0-14.1,0.1-28.6,0.2-41.3c0.3-31.6,0.5-65.2-0.5-97.8
	C0.7,73,11.6,53.3,36,37.8c24.6-15.6,53.5-25.5,91-31c24.9-3.7,48.6-5.5,70.7-5.5c39.3,0,75,5.4,109.2,16.4
	c20.9,6.7,40.2,18.1,54.7,27.2c16.9,10.6,25.5,27.7,25.4,50.8v0.6c-0.2,47.2-0.4,105.9-0.4,161.6v2.3l-2.2-0.3
	c-3.9-0.5-7.9-0.7-12.4-0.7c-2.1,0-4.3,0.1-6.5,0.2l-2,0.1l-0.2-2c-0.1-1-0.1-2-0.1-3c0-1,0-1.9-0.1-2.8c-0.2-5.4-0.4-12.1-0.4-18.4
	l0,0c-36.4,26.6-99.4,42.4-168.3,42.4c-70,0-132.8-15.8-167.9-42.3l0,0.1c-0.1,0.3-0.2,0.6-0.2,0.9c-0.1,0.4-0.2,0.8-0.3,1.2
	c-0.3,1.2-0.6,2.5-0.7,4c0,4.8,0,9.8,0.1,14.6c0.1,9.3,0.2,19-0.3,28.5c-0.9,13.9,4.5,25,15,31.1c15.9,9.2,33.9,19.7,53,25.6
	c30.6,9.4,63.6,14.2,98.2,14.2c21.9,0,45-1.9,68.6-5.7c0.3-0.1,0.5-0.1,0.8-0.1c0.1,0,0.3,0,0.4-0.1l3-0.8l-0.5,3
	c-1.1,6.4-1.7,12.7-1.7,19v1.7l-1.6,0.3c-22.1,4.1-44.4,6.2-66.3,6.2c-56,0-112.8-13.7-168.7-40.6l0,0v0c0,2.1,0,4.2,0,6.4
	c0,2.2,0.1,4.5,0.1,6.9c0.4,9.6,0.6,21.1-0.1,32.8c-0.9,15.1,5.3,26.9,17.9,34.2c14.3,8.4,29.9,16.9,46.4,22
	c32.3,10,66.7,15.1,102.3,15.1c24.7,0,50.8-2.5,77.6-7.4c8.1-1.5,13.9-2.8,19.2-4.2l1.2-0.3l0.8,0.9c5.1,5.7,10.8,10.8,17,15.2
	l3.3,2.3l-3.8,1.2c-13.7,4.3-28.3,7.6-44.7,10.1C238.7,475.6,215.3,477.4,192.7,477.4L192.7,477.4L192.7,477.4z M25.2,137.9
	c0,1.5,0,2.9,0,4.4c0,2.3,0.1,4.6,0.1,6.9l0,3.4c0.1,9.6,0.2,19.5-0.3,29.4c-0.9,14.7,5.1,26.3,17.3,33.4
	c14.9,8.7,30.9,17.4,47.3,22.5c32,10,66.2,15,101.8,15c23.5,0,48.6-2.2,74.8-6.7c25.8-4.5,55.5-11.6,80.2-31.2
	c9.5-7.7,15.1-15.3,15.9-21.4c1.6-14.3,1.3-28.5,1-42.3l0-1c-0.1-5-0.2-9.6-0.2-14.3v0l0,0c-56.1,26.6-112.8,40.1-168.6,40.1
	c-55.9,0-112.8-13.6-169.1-40.3l0,0L25.2,137.9L25.2,137.9z M184.3,25.1c-2.2,0.2-5,0.4-8.6,0.6c-11.5,0.7-25.1,1.6-38.6,3.2
	c-12.6,1.6-26,4.4-40.8,8.5c-21.4,6.1-43.5,13.9-60.4,30.2c-7.5,7.4-11.2,14.7-10.9,21.8c0.2,6.7,3.9,13.1,11,19.1
	c12.7,10.7,25.9,18.7,38.2,23.2c37.9,13.9,77.7,20.9,118.1,20.9c32.1,0,65.7-4.4,99.6-13c20.2-5.1,43.3-12.8,61.2-30.7
	c7.4-7.3,11-14.6,10.7-21.6c-0.3-6.7-4-13.1-11.2-19.2c-10.5-8.9-22.7-16.4-35.4-21.7c-42.4-18.1-88.7-20.9-132.4-21.2l-0.3,0
	L184.3,25.1z"/>
</svg>
