<?xml version="1.0" encoding="utf-8"?>
<!-- Generator: Adobe Illustrator 22.1.0, SVG Export Plug-In . SVG Version: 6.00 Build 0)  -->
<svg version="1.1" id="Capa_1" xmlns="http://www.w3.org/2000/svg" xmlns:xlink="http://www.w3.org/1999/xlink" x="0px" y="0px"
	 viewBox="0 0 478.7 478.7" style="enable-background:new 0 0 478.7 478.7;" xml:space="preserve">
<style type="text/css">
	.st0{fill:#4FC0EF;}
</style>
<path class="st0" d="M252.2,365.8c0-25.4,0-50.7,0-76.3c-3-0.8-6-1.4-8.8-2.2c-27-8-44.2-25.8-51.6-52.9c-1.1-4-2.6-5-6.5-5
	c-20.5,0.1-41.1,0.2-61.6-0.1c-4.9-0.1-7.3,1.1-8.9,6.3c-8,25.9-31.8,40.8-60.2,38.4c-24-2-45.1-22.8-48.5-47.8
	c-4-28.7,15.3-56.3,43.5-62.2c29.6-6.2,58.1,10.8,66,39.7c1.1,4,2.7,5.1,6.5,5.1c21.1-0.1,42.1-0.2,63.2,0c3.6,0,4.6-1.2,5.6-4.5
	c3.2-10.1,7-20,10.5-29.9c1-0.4,2-0.8,3-1.1c-2.4-1.6-5-2.9-7-4.8c-12.7-12.5-25.4-25.1-37.9-37.8c-2.6-2.7-4.6-3-8.2-1.5
	c-16.1,6.8-31.6,5.3-45.2-5.9s-18.5-26-14.5-43.1c4-16.9,15-27.8,31.9-31.7c16.6-3.8,31.3,0.6,42.5,13.7c11.4,13.4,13.4,28.8,6.7,45
	c-1.7,4.2-1.2,6.5,1.9,9.5c13.6,13.2,26.9,26.6,40.2,40c1.8,1.8,3.1,2.7,5.8,1c26.8-17.6,54.1-17.8,81.6-1.5c0.5,0.3,1,0.5,1.4,0.7
	c0.1,0.1,0.3,0,0,0c22.4-22.4,44.6-44.6,67.1-67.1c-9-13.9-12.3-29.5-7.9-46.3c3.4-12.8,10.6-23.3,21.5-31
	c22.4-16,52.4-13.6,72.1,5.7c19.1,18.7,22,48.8,7.1,71.1c-12.8,19.2-43,35-76.5,16.4c-22.2,22.3-44.4,44.4-66.8,66.9
	c15.5,21.6,20.2,45.5,10.1,71.1s-29.7,40.2-56.9,45.9c0,2,0,3.9,0,5.8c0,21.9,0.1,43.8-0.1,65.8c0,3.7,0.7,5.6,4.7,6.7
	c24.9,7.2,42.3,31.9,40.2,56.5c-2.4,28.1-21.9,48.7-49.2,52.3c-28.4,3.7-55.7-15.3-61.5-43c-6.2-29.2,10.4-57.6,38.4-65.9
	C248,367,250,366.5,252.2,365.8z M313.7,217.2c0-28.5-22.8-51.3-51.3-51.2s-51.2,22.9-51.2,51.4c0,28.3,22.9,50.9,51.6,50.9
	C291.1,268.1,313.8,245.4,313.7,217.2z"/>
</svg>
