<?xml version="1.0" encoding="utf-8"?>
<!-- Generator: Adobe Illustrator 22.1.0, SVG Export Plug-In . SVG Version: 6.00 Build 0)  -->
<svg version="1.1" id="Layer_1" xmlns="http://www.w3.org/2000/svg" xmlns:xlink="http://www.w3.org/1999/xlink" x="0px" y="0px"
	 viewBox="0 0 469.3 469.3" style="enable-background:new 0 0 469.3 469.3;" xml:space="preserve">
<style type="text/css">
	.st0{fill:#35C4FF;}
</style>
<g>
	<g>
		<path class="st0" d="M341.3,138.7c5.9,0,10.7-4.8,10.7-10.7V74.7c0-17.6-14.4-32-32-32h-18C290,17.5,264.4,0,234.7,0h-85.3
			C119.6,0,94,17.5,82,42.7H64c-17.6,0-32,14.4-32,32v362.7c0,17.6,14.4,32,32,32h256c17.6,0,32-14.4,32-32V384
			c0-5.9-4.8-10.7-10.7-10.7s-10.7,4.8-10.7,10.7v53.3c0,5.9-4.8,10.7-10.7,10.7H64c-5.9,0-10.7-4.8-10.7-10.7V74.7
			C53.3,68.8,58.1,64,64,64h11.5c-0.5,3.5-0.9,7-0.9,10.7V96c0,5.9,4.8,10.7,10.7,10.7h213.3c5.9,0,10.7-4.8,10.7-10.7V74.7
			c0-3.6-0.4-7.2-0.9-10.7H320c5.9,0,10.7,4.8,10.7,10.7V128C330.7,133.9,335.4,138.7,341.3,138.7z M288,85.3H96V74.7
			c0-29.4,23.9-53.3,53.3-53.3h85.3c29.4,0,53.3,23.9,53.3,53.3L288,85.3L288,85.3z"/>
	</g>
</g>
<g>
	<g>
		<circle class="st0" cx="192" cy="53.3" r="10.7"/>
	</g>
</g>
<g>
	<g>
		<path class="st0" d="M277.3,138.7H106.7c-5.9,0-10.7,4.8-10.7,10.7s4.8,10.7,10.7,10.7h170.7c5.9,0,10.7-4.8,10.7-10.7
			S283.2,138.7,277.3,138.7z"/>
	</g>
</g>
<g>
	<g>
		<path class="st0" d="M224,192H106.7c-5.9,0-10.7,4.8-10.7,10.7s4.8,10.7,10.7,10.7H224c5.9,0,10.7-4.8,10.7-10.7
			S229.9,192,224,192z"/>
	</g>
</g>
<g>
	<g>
		<path class="st0" d="M213.3,245.3H106.7c-5.9,0-10.7,4.8-10.7,10.7s4.8,10.7,10.7,10.7h106.7c5.9,0,10.7-4.8,10.7-10.7
			C224,250.1,219.2,245.3,213.3,245.3z"/>
	</g>
</g>
<g>
	<g>
		<path class="st0" d="M277.3,352H192c-5.9,0-10.7,4.8-10.7,10.7s4.8,10.7,10.7,10.7h85.3c5.9,0,10.7-4.8,10.7-10.7
			S283.2,352,277.3,352z"/>
	</g>
</g>
<g>
	<g>
		<path class="st0" d="M149.3,352h-42.7c-5.9,0-10.7,4.8-10.7,10.7s4.8,10.7,10.7,10.7h42.7c5.9,0,10.7-4.8,10.7-10.7
			S155.2,352,149.3,352z"/>
	</g>
</g>
<g>
	<g>
		<path class="st0" d="M224,298.7H106.7c-5.9,0-10.7,4.8-10.7,10.7s4.8,10.7,10.7,10.7H224c5.9,0,10.7-4.8,10.7-10.7
			S229.9,298.7,224,298.7z"/>
	</g>
</g>
<g>
	<g>
		<path class="st0" d="M341.3,160c-52.9,0-96,43.1-96,96s43.1,96,96,96s96-43.1,96-96S394.3,160,341.3,160z M341.3,330.7
			c-41.2,0-74.7-33.5-74.7-74.7s33.5-74.7,74.7-74.7S416,214.8,416,256S382.5,330.7,341.3,330.7z"/>
	</g>
</g>
<g>
	<g>
		<path class="st0" d="M378.8,214.9c-5.1-3-11.6-1.4-14.6,3.7l-25,41.6l-22.3-22.3c-4.2-4.2-10.9-4.2-15.1,0s-4.2,10.9,0,15.1l32,32
			c2,2,4.7,3.1,7.5,3.1c0.4,0,0.9,0,1.3-0.1c3.3-0.4,6.2-2.3,7.8-5.1l32-53.3C385.5,224.4,383.9,217.9,378.8,214.9z"/>
	</g>
</g>
</svg>
