<?xml version="1.0" encoding="utf-8"?>
<!-- Generator: Adobe Illustrator 23.0.1, SVG Export Plug-In . SVG Version: 6.00 Build 0)  -->
<svg version="1.1" id="Capa_1" xmlns="http://www.w3.org/2000/svg" xmlns:xlink="http://www.w3.org/1999/xlink" x="0px" y="0px"
	 viewBox="0 0 40 40" style="enable-background:new 0 0 40 40;" xml:space="preserve">
<style type="text/css">
	.st0{fill:#3A3A3A;}
</style>
<g>
	<path class="st0" d="M40,30.6c0-0.6-0.5-1.2-1.1-1.3c-0.2,0-0.5,0-0.7-0.1c0-0.1,0-0.2,0-0.3c0-2.6,0-5.2,0-7.8c0-4.4,0-8.8,0-13.2
		c0-0.6-0.2-1.2-0.7-1.6c-0.5-0.4-1-0.6-1.6-0.6c-10.6,0-21.2,0-31.8,0c-0.1,0-0.2,0-0.3,0c-0.4,0-0.7,0.1-1,0.4
		C2.1,6.5,1.8,7.1,1.8,7.9c0,7,0,14,0,21c0,0.1,0,0.2,0,0.4c-0.2,0-0.3,0-0.4,0c-0.7,0-1.3,0.5-1.4,1.2c0,0.5-0.1,1,0,1.4
		c0.2,1.5,1.4,2.4,2.9,2.4c11.4,0,22.7,0,34.1,0c0.1,0,0.2,0,0.3,0c1.2,0,2.3-0.9,2.6-2.1C40,31.7,40,31.1,40,30.6z M4.2,7.1
		c10.5,0,21,0,31.5,0c0.2,0,0.3,0,0.5,0c0.4,0,0.6,0.3,0.6,0.7c0,0.1,0,0.2,0,0.3c0,7,0,13.9,0,20.9c0,0.1,0,0.2,0,0.3
		c-11.2,0-22.3,0-33.5,0c0-0.1,0-0.2,0-0.2c0-7,0-14,0-21C3.2,7.5,3.5,7.1,4.2,7.1z M38.6,31.8c-0.1,0.6-0.7,1.1-1.4,1.1
		c-0.1,0-0.2,0-0.3,0c-11.2,0-22.5,0-33.7,0c-0.2,0-0.4,0-0.6,0c-0.7-0.1-1.1-0.7-1.1-1.4c0-0.2,0-0.4,0-0.6c0-0.1,0-0.2,0.2-0.2
		c0,0,0.1,0,0.1,0c4.8,0,9.6,0,14.4,0c0.3,0,0.3,0,0.3,0.3c-0.1,0.9,0.3,1.1,1.1,1.1c1.7,0,3.5,0,5.2,0c0.6,0,0.8-0.3,0.8-0.8
		c0-0.6,0-0.6,0.6-0.6c4.7,0,9.4,0,14.1,0c0.1,0,0.2,0,0.4,0C38.6,31.1,38.6,31.4,38.6,31.8z"/>
	<path class="st0" d="M12.2,17.6c0.5,0.2,1.1,0.4,1.6,0.6c0.2,0.1,0.2,0.1,0.2,0.3c0,0.9,0,1.8,0,2.7c0,0.7,0.4,1.3,1,1.5
		c1.4,0.6,2.9,1.2,4.3,1.7c0.5,0.2,0.9,0.2,1.4,0c1.4-0.6,2.9-1.2,4.3-1.7c0.7-0.3,1.1-0.8,1.1-1.6c0-0.9,0-1.7,0-2.6
		c0-0.1,0-0.2,0.1-0.2c0.2-0.1,0.4-0.2,0.7-0.3c0,0.1,0,0.2,0,0.3c0,2,0,4,0,6c0,0.2-0.1,0.4-0.1,0.6c-0.1,0.3-0.2,0.6-0.3,0.9
		c-0.1,0.6,0.4,1.2,1,1.2c0.7,0,1.2-0.4,1.2-1c0-0.4-0.2-0.8-0.3-1.1c0-0.1-0.1-0.2-0.1-0.4c0-2.3,0-4.6,0-6.8c0-0.2,0-0.3,0.2-0.4
		c0.3-0.3,0.5-0.6,0.5-1c0-0.7-0.4-1.3-1.1-1.6c-2.3-0.9-4.7-1.9-7-2.8c-0.5-0.2-1-0.2-1.5,0c-2.4,1-4.7,1.9-7.1,2.9
		c-0.3,0.1-0.6,0.4-0.8,0.7C10.9,16.2,11.3,17.2,12.2,17.6z M24.5,21.4c-1.4,0.6-2.9,1.2-4.3,1.7c-0.1,0-0.2,0-0.3,0
		c-1.4-0.6-2.9-1.1-4.3-1.7c-0.1,0-0.2-0.1-0.2-0.2c0-0.8,0-1.5,0-2.3c0.1,0,0.2,0.1,0.2,0.1c1.2,0.5,2.4,1,3.6,1.5
		c0.5,0.2,1.1,0.2,1.6,0c1.2-0.5,2.4-1,3.6-1.5c0.1,0,0.1,0,0.2-0.1c0,0.4,0,0.8,0,1.2c0,0.4,0,0.7,0,1.1
		C24.7,21.3,24.7,21.4,24.5,21.4z M12.9,15.9c2.3-0.9,4.5-1.8,6.8-2.8c0.2-0.1,0.4-0.1,0.6,0c2.3,0.9,4.6,1.8,6.9,2.8c0,0,0,0,0,0
		c0.1,0.1,0.2,0.1,0.2,0.2c-0.1,0.1-0.1,0.2-0.2,0.2c-2.3,0.9-4.6,1.9-6.9,2.8c-0.1,0-0.2,0.1-0.3,0.1c-0.1,0-0.2-0.1-0.3-0.1
		c-2.3-0.9-4.5-1.8-6.8-2.7c-0.1,0-0.2-0.1-0.3-0.2C12.7,16.1,12.8,16,12.9,15.9z"/>
</g>
</svg>
