<?xml version="1.0" encoding="utf-8"?>
<!-- Generator: Adobe Illustrator 23.0.1, SVG Export Plug-In . SVG Version: 6.00 Build 0)  -->
<svg version="1.1" id="Capa_1" xmlns="http://www.w3.org/2000/svg" xmlns:xlink="http://www.w3.org/1999/xlink" x="0px" y="0px"
	 viewBox="0 0 40 40" style="enable-background:new 0 0 40 40;" xml:space="preserve">
<style type="text/css">
	.st0{fill:#3A3A3A;}
</style>
<g>
	<path class="st0" d="M39.8,28.2c-1-4.4-5.1-7.8-9.7-7.8c-0.7,0-1.4,0.1-2,0.2c-3.3,0.8-6.1,3.2-7.2,6.4c-1.1,3.1-0.6,6.3,1.5,9.1
		c0,0.1,0.3,0.5,0.3,0.6l0.1,0.1H9.6l0-7.6c0-7.9,0-15.7,0-23.6c0-0.9-0.1-2-0.6-3C8.9,2.4,8.6,2.1,8.4,2L9,2l24.9,0
		c1.8,0,2.8,1,2.8,2.8c0,1.3,0,11.8,0,13.8c0,0.5,0.2,0.8,0.6,1c0.1,0.1,0.3,0.1,0.4,0.1c0.5,0,1-0.5,1-1.1c0,0,0-9.9,0-13.9
		c0-2.5-2.3-4.8-4.8-4.8c-2.4,0-8.5,0-14.6,0s-12.2,0-14.6,0C2.3,0.1,0.1,2.2,0,4.6c0,2.3,0,9,0,9.1c0,0.5,0.4,1,0.9,1
		c0.6,0,1.3,0,1.9,0c0.7,0,1.3,0,2,0c0.5,0,0.8-0.3,0.9-0.6c0.1-0.3,0.1-0.6-0.1-0.9c-0.2-0.3-0.5-0.4-0.8-0.5c-0.3,0-0.7,0-1,0
		c-0.3,0-1.7,0-1.7,0L2,12.6l0,0c0,0,0-0.1,0-0.2l0-0.6C2,10,2,6.1,2,4.6c0-1.4,0.8-2.3,2.2-2.5c0.2,0,0.3,0,0.5,0
		c0.3,0,0.7,0,1,0.1C6.7,2.4,7.3,3,7.5,4c0.1,0.3,0.1,0.6,0.1,0.9c0,10.5,0,20.9,0,31.4c0,0.7,0.2,1.3,0.7,1.8
		c0.4,0.4,1.1,0.7,1.8,0.7c0.1,0,10.9,0,13.4,0c0.7,0,1-0.1,1.1-0.2c0,0,0.1,0,0.1,0l0.1,0l0.1,0c0.3,0.1,0.5,0.2,0.8,0.3
		c1.6,0.7,3.2,1,4.9,1c0.6,0,1.3-0.1,1.9-0.2c4-1,7-4.4,7.5-8.5C40,31,40.1,29.2,39.8,28.2z M35.8,35.8c-1.4,1.5-3.4,2.3-5.6,2.3h0
		c-4.5,0-7.9-3.4-7.9-7.8c0-2.2,0.8-4.2,2.2-5.6c1.4-1.5,3.4-2.3,5.6-2.3h0c4.5,0,7.9,3.3,7.9,7.9C38,32.4,37.3,34.4,35.8,35.8z"/>
	<path class="st0" d="M19.2,18.1c0.2,0.3,0.5,0.5,0.9,0.5c1.8,0,3.6,0,5.4,0l5.8,0c0.7,0,1.1-0.4,1.1-1c0-0.3-0.1-0.5-0.3-0.7
		c-0.2-0.2-0.5-0.3-0.8-0.3l-11.2,0c-0.5,0-0.8,0.2-1,0.6C19,17.5,19,17.8,19.2,18.1z"/>
	<path class="st0" d="M20.1,8.4c1.5,0,3.1,0,4.6,0l4,0c0.7,0,1.1-0.4,1.1-1c0-0.3-0.1-0.5-0.3-0.7c-0.2-0.2-0.5-0.3-0.9-0.3l-6.8,0
		c-0.6,0-1.3,0-1.9,0c-0.5,0-0.8,0.2-1,0.6C19,7.3,19,7.7,19.2,7.9C19.4,8.2,19.7,8.4,20.1,8.4z"/>
	<path class="st0" d="M19.3,13.1c0.2,0.2,0.5,0.3,0.8,0.3c1,0,2.1,0,3.1,0c1,0,2.1,0,3.1,0c0.6,0,1.1-0.4,1.1-1
		c0-0.3-0.1-0.5-0.3-0.7c-0.2-0.2-0.5-0.3-0.8-0.3l-1.3,0l-4.8,0c-0.6,0-1.1,0.4-1.1,1C19,12.7,19.1,12.9,19.3,13.1z"/>
	<path class="st0" d="M14.9,8.4L14.9,8.4c0.6,0,1-0.4,1-1c0-0.5-0.4-1-1-1c-0.5,0-1,0.4-1,1C14,7.9,14.4,8.4,14.9,8.4z"/>
	<path class="st0" d="M14.9,11.5c-0.3,0-0.5,0.1-0.7,0.3C14.1,12,14,12.2,14,12.5c0,0.5,0.4,1,1,1h0c0.3,0,0.5-0.1,0.7-0.3
		c0.2-0.2,0.3-0.4,0.3-0.7C15.9,11.9,15.5,11.5,14.9,11.5z"/>
	<path class="st0" d="M14.9,16.5c-0.3,0-0.5,0.1-0.7,0.3C14.1,17,14,17.3,14,17.5c0,0.5,0.4,1,1,1h0c0.3,0,0.5-0.1,0.7-0.3
		c0.2-0.2,0.3-0.4,0.3-0.7C15.9,17,15.5,16.6,14.9,16.5z"/>
	<path class="st0" d="M34.4,27.6c-0.3,0-0.5,0.1-0.8,0.3c-0.8,0.8-1.6,1.6-2.4,2.4l-0.8,0.8c-0.3,0.3-0.6,0.6-0.9,0.9l-0.6,0.6
		L28,31.8c-0.5-0.5-0.9-0.9-1.4-1.4c-0.2-0.2-0.4-0.3-0.7-0.3c-0.3,0-0.5,0.1-0.7,0.3c-0.2,0.2-0.3,0.4-0.3,0.7
		c0,0.3,0.1,0.5,0.3,0.7c1,1,2,2,3,3c0.2,0.2,0.4,0.3,0.7,0.3c0.2,0,0.5-0.1,0.7-0.3c1.8-1.7,3.5-3.5,5.5-5.5
		c0.3-0.3,0.3-0.6,0.2-0.9C35.2,27.9,34.8,27.6,34.4,27.6z"/>
</g>
</svg>
