<?xml version="1.0" encoding="utf-8"?>
<!-- Generator: Adobe Illustrator 23.0.1, SVG Export Plug-In . SVG Version: 6.00 Build 0)  -->
<svg version="1.1" id="Capa_1" xmlns="http://www.w3.org/2000/svg" xmlns:xlink="http://www.w3.org/1999/xlink" x="0px" y="0px"
	 viewBox="0 0 40 40" style="enable-background:new 0 0 40 40;" xml:space="preserve">
<style type="text/css">
	.st0{fill:#3A3A3A;}
</style>
<g>
	<path class="st0" d="M36.9,0H6.2c-0.5,0-1,0.4-1,1v8.5H3.1c-0.5,0-1,0.4-1,1c0,0.5,0.4,1,1,1h2.2V19H3.1c-0.5,0-1,0.4-1,1
		c0,0.5,0.4,1,1,1h2.2v7.6H3.1c-0.5,0-1,0.4-1,1c0,0.5,0.4,1,1,1h2.2V39c0,0.5,0.4,1,1,1h30.7c0.5,0,1-0.4,1-1V1
		C37.9,0.4,37.5,0,36.9,0z M36,38H7.2v-7.6h2.2c0.5,0,1-0.4,1-1c0-0.5-0.4-1-1-1H7.2V21h2.2c0.5,0,1-0.4,1-1c0-0.5-0.4-1-1-1H7.2
		v-7.6h2.2c0.5,0,1-0.4,1-1c0-0.5-0.4-1-1-1H7.2V2H36L36,38z"/>
	<path class="st0" d="M22.6,20.2c3,0,5.4-2.4,5.4-5.4s-2.4-5.4-5.4-5.4c-3,0-5.4,2.4-5.4,5.4S19.6,20.2,22.6,20.2z M22.6,11.5
		c1.9,0,3.4,1.5,3.4,3.4s-1.5,3.4-3.4,3.4c-1.9,0-3.4-1.5-3.4-3.4S20.7,11.5,22.6,11.5z"/>
	<path class="st0" d="M16.2,30.7c0.5,0,1-0.4,1-1v-2.4c0-1.8,1.5-3.3,3.3-3.3h4.4c1.8,0,3.3,1.5,3.3,3.3v2.4c0,0.5,0.4,1,1,1
		c0.5,0,1-0.4,1-1v-2.4c0-2.9-2.3-5.2-5.2-5.2h-4.4c-2.9,0-5.2,2.3-5.2,5.2v2.4C15.2,30.3,15.6,30.7,16.2,30.7z"/>
</g>
</svg>
