<?xml version="1.0" encoding="utf-8"?>
<!-- Generator: Adobe Illustrator 23.0.1, SVG Export Plug-In . SVG Version: 6.00 Build 0)  -->
<svg version="1.1" id="Capa_1" xmlns="http://www.w3.org/2000/svg" xmlns:xlink="http://www.w3.org/1999/xlink" x="0px" y="0px"
	 viewBox="0 0 40 40" style="enable-background:new 0 0 40 40;" xml:space="preserve">
<style type="text/css">
	.st0{fill:#3A3A3A;}
</style>
<g>
	<g>
		<g>
			<path class="st0" d="M35.9,4.3c-0.1,0-0.2,0-0.2,0h-3.1V1.7c0-1.1-1-1.7-2.1-1.7h-2.8c-1.1,0-1.8,0.6-1.8,1.7v2.7H14.2V1.7
				c0-1.1-0.8-1.7-1.8-1.7H9.5C8.5,0,7.5,0.6,7.5,1.7v2.7H4.4c-2-0.1-3.6,1.5-3.7,3.5c0,0.1,0,0.2,0,0.2v27.9C0.7,38,2.3,40,4.4,40
				h31.2c2.1,0,3.7-2,3.7-4.1V8C39.4,6.1,37.8,4.4,35.9,4.3z M27.6,1.9h3v5.3h-3V1.9z M9.5,1.9h2.7v5.3H9.5C9.5,7.2,9.5,1.9,9.5,1.9
				z M37.3,35.9c0,1.1-0.7,2.2-1.7,2.2H4.4c-1.1,0-1.7-1.1-1.7-2.2V15.4h34.7L37.3,35.9L37.3,35.9z M37.3,8v5.4H2.7V8
				C2.6,7.1,3.2,6.4,4.1,6.3c0.1,0,0.2,0,0.3,0h3.1v1.1c0,1.1,1,1.8,2.1,1.8h2.8c1,0,1.8-0.7,1.8-1.7c0,0,0-0.1,0-0.1V6.3h11.6v1.1
				c0,1,0.7,1.8,1.7,1.8c0,0,0.1,0,0.1,0h2.8c1.1,0,2.1-0.8,2.1-1.8V6.3h3.1c0.9-0.1,1.7,0.6,1.7,1.5C37.4,7.9,37.4,8,37.3,8z"/>
			<path class="st0" d="M14.7,28.6l-0.9,4.8c0,0.2,0,0.4,0.1,0.6c0.2,0.5,0.8,0.7,1.3,0.4l4.3-2.3l4.3,2.3l0.4,0.1
				c0.2,0,0.4-0.1,0.6-0.2c0.3-0.2,0.4-0.6,0.4-0.9l-0.9-4.8l3.5-3.4c0.3-0.3,0.3-0.7,0.2-1c-0.1-0.3-0.4-0.6-0.8-0.6l-4.8-0.7
				l-2.2-4.4c-0.1-0.2-0.3-0.4-0.4-0.4c-0.5-0.2-1.1,0-1.3,0.4l-2.2,4.4l-4.8,0.7c-0.3,0.1-0.6,0.3-0.8,0.6c-0.1,0.4,0,0.7,0.2,1
				L14.7,28.6z M17.3,24.7c0.3,0,0.6-0.2,0.7-0.5l1.5-3.1l1.5,3.1c0.1,0.3,0.4,0.5,0.7,0.5l3.4,0.5l-2.5,2.4
				c-0.2,0.2-0.3,0.5-0.3,0.9l0.6,3.4l-3-1.6l-0.4-0.1l-0.4,0.1l-3,1.6l0.6-3.4c0-0.3-0.1-0.6-0.3-0.9l-2.5-2.4L17.3,24.7z"/>
		</g>
	</g>
</g>
</svg>
