<?xml version="1.0" encoding="utf-8"?>
<!-- Generator: Adobe Illustrator 18.0.0, SVG Export Plug-In . SVG Version: 6.00 Build 0)  -->
<!DOCTYPE svg PUBLIC "-//W3C//DTD SVG 1.1//EN" "http://www.w3.org/Graphics/SVG/1.1/DTD/svg11.dtd">
<svg version="1.1" id="Capa_1" xmlns="http://www.w3.org/2000/svg" xmlns:xlink="http://www.w3.org/1999/xlink" x="0px" y="0px"
	 viewBox="0 0 380 380" enable-background="new 0 0 380 380" xml:space="preserve">
<path fill="#F7941D" d="M353.3,161.5H72.5l262.7-95.7c2.4-0.9,4.4-2.7,5.4-5c1.1-2.3,1.2-5,0.3-7.4L323.7,6.3
	c-1.8-5-7.3-7.6-12.3-5.7l-300,109.3c-2.4,0.9-4.3,2.7-5.4,5c-1.1,2.3-1.2,5-0.3,7.4l17.2,47.1c0.3,0.8,0.7,1.6,1.2,2.3v198.8
	c0,5.3,4.3,9.6,9.6,9.6h319.7c5.3,0,9.6-4.3,9.6-9.6V221.3v-50.2C362.9,165.8,358.6,161.5,353.3,161.5z M313.7,35.1l5.8,15.9l-9,3.3
	L313.7,35.1z M242,46.3l37.2-13.6l-5.8,35l-37.2,13.6L242,46.3z M167.7,73.4l37.2-13.6l-5.8,35l-37.2,13.6L167.7,73.4z M93.3,100.5
	l37.2-13.6l-5.8,35l-37.2,13.6L93.3,100.5z M27,124.6L56.2,114l-5.8,35l-12.8,4.7L27,124.6z M57.3,211.7H43.7v-30.9h31.1L57.3,211.7
	z M136.4,211.7H96.8l17.5-30.9h39.6L136.4,211.7z M215.5,211.7h-39.6l17.5-30.9H233L215.5,211.7z M294.6,211.7H255l17.5-30.9h39.6
	L294.6,211.7z M343.7,211.7h-9.5l9.5-16.9V211.7z"/>
</svg>
