<?xml version="1.0" encoding="utf-8"?>
<!-- Generator: Adobe Illustrator 18.0.0, SVG Export Plug-In . SVG Version: 6.00 Build 0)  -->
<!DOCTYPE svg PUBLIC "-//W3C//DTD SVG 1.1//EN" "http://www.w3.org/Graphics/SVG/1.1/DTD/svg11.dtd">
<svg version="1.1" id="Capa_1" xmlns="http://www.w3.org/2000/svg" xmlns:xlink="http://www.w3.org/1999/xlink" x="0px" y="0px"
	 viewBox="0 0 380 380" enable-background="new 0 0 380 380" xml:space="preserve">
<g>
	<circle fill="#F7941D" cx="302.8" cy="302.8" r="13.1"/>
	<path fill="#F7941D" d="M375.9,289.8l-18.4-3.4c-1.1-3.7-2.6-7.3-4.4-10.6l10.6-15.5c1-1.4,0.8-3.6-0.5-4.8l-13.1-13.1
		c-1.2-1.2-3.4-1.4-4.8-0.5l-15.5,10.6c-3.4-1.9-7.1-3.3-10.9-4.5l-3.4-18.3c-0.3-1.7-2-3.1-3.7-3.1h-18.5c-1.7,0-3.4,1.4-3.7,3.1
		l-3.5,18.4c-3.7,1.1-7.2,2.6-10.5,4.4L260.3,242c-1.4-1-3.6-0.8-4.8,0.5l-13.1,13.1c-1.2,1.2-1.4,3.4-0.5,4.8l10.6,15.4
		c-1.8,3.3-3.2,6.8-4.3,10.5l-18.4,3.4c-1.7,0.3-3.1,2-3.1,3.7v18.5c0,1.7,1.4,3.4,3.1,3.7l18.3,3.4c1.1,3.7,2.6,7.3,4.4,10.7
		L242.1,345c-1,1.4-0.8,3.6,0.5,4.8l13.1,13.1c1.2,1.2,3.4,1.4,4.8,0.5l15.3-10.4c3.3,1.8,6.8,3.2,10.4,4.3l3.5,18.4
		c0.3,1.7,2,3.1,3.7,3.1h18.5c1.7,0,3.4-1.4,3.7-3.1l3.4-18.3c3.8-1.1,7.4-2.6,10.8-4.4l15.4,10.6c1.4,1,3.6,0.8,4.8-0.5l13.1-13.1
		c1.2-1.2,1.4-3.4,0.5-4.8l-10.5-15.4c1.9-3.4,3.3-7,4.5-10.8l18.3-3.4c1.7-0.3,3.1-2,3.1-3.7v-18.5
		C379,291.8,377.6,290.1,375.9,289.8z M302.8,334.6c-17.5,0-31.8-14.2-31.8-31.8c0-17.5,14.2-31.8,31.8-31.8
		c17.6,0,31.8,14.2,31.8,31.8C334.6,320.4,320.4,334.6,302.8,334.6z"/>
	<path fill="#F7941D" d="M233.7,361.6c-6.2-6.3-7.2-16.5-2.2-23.9l3.4-5l-6.1-1.2c-8.8-1.7-15.1-9.5-15.1-18.5v-18.5
		c0-5.4,2.4-10.4,6.2-13.9H91.7c-2.8,0-5.2-1.2-7.2-3.5s-2.9-5.2-2.9-8.6v-49.3c0-2.3,0.6-4.6,1.7-6.7c1.2-2.1,2.8-3.5,4.8-4.3
		l61.5-29c-7.5-4.4-13.5-10.9-18-19.4s-6.8-17.9-6.8-28.4c0-7.3,1.2-14.2,3.7-20.7c2.4-6.5,5.7-12.2,9.9-17c4.1-4.8,9-8.7,14.5-11.5
		c5.5-2.9,11.4-4.3,17.6-4.3s12,1.4,17.6,4.3c5.5,2.9,10.4,6.7,14.5,11.5s7.3,10.5,9.7,17c2.3,6.5,3.5,13.4,3.5,20.7
		c0,10.2-2.2,19.5-6.6,28c-4.4,8.5-10.1,14.9-17,19.4l60.7,29.4c4.4,2.3,6.6,6,6.6,11v8.3h0.1c3.8,0,7.4,1.1,10.4,3.2l4.9,3.4
		l1.1-6.1c1.6-8.8,9.5-15.3,18.2-15.3h18.3c8.8,0,16.6,6.6,18.2,15.3l1.2,6.3l5.5-3.8c3.1-2.1,6.7-3.2,10.4-3.2
		c4.9,0,9.7,2,13.2,5.5l12.9,13.1c1.2,1.2,2.2,2.6,3,4.1v-32.3c0-3.1-1.1-5.8-3.3-8c-2.2-2.2-4.8-3.3-7.9-3.3h-25.9v-32.5h25.9
		c3.1,0,5.7-1.1,7.9-3.3c2.2-2.2,3.3-4.9,3.3-8v-34c0-3.1-1.1-5.8-3.3-8c-2.2-2.2-4.8-3.3-7.9-3.3h-25.9V84.5h25.9
		c3.1,0,5.7-1.1,7.9-3.3c2.2-2.2,3.3-4.9,3.3-8v-34c0-3.1-1.1-5.8-3.3-8c-2.2-2.2-4.8-3.3-7.9-3.3h-25.9v-9c0-5.2-1.7-9.6-5.2-13.1
		s-7.8-5.3-12.9-5.3H19.8c-5.2,0-9.5,1.8-12.9,5.3c-3.5,3.5-5.2,7.9-5.2,13.1v342.8c0,5.2,1.7,9.6,5.2,13.1s7.8,5.3,12.9,5.3h237.5
		c-4-0.6-7.8-2.4-10.7-5.3L233.7,361.6z"/>
	<path fill="#F7941D" d="M274.9,373.7l-4.7,3.3c-2.4,1.6-5,2.7-7.8,3h13.7c0-0.1-0.1-0.2-0.1-0.3L274.9,373.7z"/>
	<path fill="#F7941D" d="M259.8,380.2c0.9,0,1.8-0.1,2.6-0.2h-5.1C258.1,380.1,259,380.2,259.8,380.2z"/>
</g>
</svg>
