<?xml version="1.0" encoding="utf-8"?>
<!-- Generator: Adobe Illustrator 18.0.0, SVG Export Plug-In . SVG Version: 6.00 Build 0)  -->
<!DOCTYPE svg PUBLIC "-//W3C//DTD SVG 1.1//EN" "http://www.w3.org/Graphics/SVG/1.1/DTD/svg11.dtd">
<svg version="1.1" id="Capa_1" xmlns="http://www.w3.org/2000/svg" xmlns:xlink="http://www.w3.org/1999/xlink" x="0px" y="0px"
	fill="#F7941D" viewBox="0 0 380 380" enable-background="new 0 0 380 380" xml:space="preserve">
<g>
	<g>
		<path fill="#F7941D" d="M266.8,198.5c-17.3,0-31.4,14-31.4,31.4c0,17.3,14,31.3,31.4,31.3c17.3,0,31.4-14,31.4-31.3
			C298.2,212.5,284,198.5,266.8,198.5z M280,234.9l2.2,12.9c0.1,1-0.2,1.9-1,2.5c-0.4,0.4-1,0.5-1.5,0.5c-0.4,0-0.7-0.1-1.1-0.2
			l-11.7-6.1l-11.7,6.1c-0.9,0.5-1.9,0.4-2.6-0.2c-0.7-0.5-1.1-1.5-1-2.5l2.2-12.9l-9.4-9.2c-0.6-0.6-0.9-1.6-0.6-2.6
			c0.2-0.9,1.1-1.6,2-1.7l13-1.9l5.9-11.8c0.4-0.9,1.2-1.4,2.2-1.4s1.9,0.5,2.2,1.4l5.9,11.8l13,1.9c1,0.1,1.7,0.7,2,1.7
			c0.2,0.9,0,1.9-0.6,2.5L280,234.9z"/>
		<path fill="#F7941D" d="M231.9,303c-0.7,3.3,0.5,3.9,2.8,1.4l10.2-11.5c2.3-2.6,4.8-2,5.6,1.4l4.2,17.6c0.9,3.3,2,3.3,2.6,0
			l8.9-46.5c-0.2,0-0.5,0-0.7,0c-9.1,0-17.3-3.9-23-10.2L231.9,303z"/>
		<path fill="#F7941D" d="M277.9,326.2l4.6-14.1c1-3.3,3.6-3.7,5.9-1.1l9.9,12.6c2.1,2.7,3.3,2.1,2.7-1.2l-11.8-64.7
			c-5.5,5.1-12.8,8.3-20.7,8.5l7,60C275.5,329.3,276.7,329.4,277.9,326.2z"/>
		<path fill="#F7941D" d="M355.7,51.5H24.1c-12.6,0-23,10.1-23,22.3V290c0,12.4,10.3,22.5,23.1,22.5h202l-1.4-1.6
			c-2.3-2.8-3-6.6-2-11l1.6-7.1H24.3c-1.7,0-3.3-1.2-3.3-2.7V73.8c0-1.5,1.5-2.7,3.3-2.7h331.5c1.7,0,3.3,1.2,3.3,2.7V290
			c0,1.5-1.5,2.7-3.3,2.7h-49.4l3.6,19.7h45.8c12.6,0,23.1-10.1,23.1-22.5V73.8C378.8,61.5,368.4,51.5,355.7,51.5z"/>
		<path fill="#F7941D" d="M335.7,278c7.3,0,13.1-6,13.1-13.1V97.2c0-7.3-5.9-13.1-13.1-13.1H41c-7.3,0-13.1,6-13.1,13.1v167.6
			c0,7.3,6,13.1,13.1,13.1h186.7l5.7-25.4c-4.6-6.7-7.3-14.7-7.3-23.4c0-22.7,18.5-41.2,41.2-41.2s41.2,18.5,41.2,41.2
			c0,9.8-3.5,18.9-9.3,26l4.2,22.8H335.7L335.7,278z M61.3,116h248c1.9,0,3.2,1.5,3.2,3.3s-1.5,3.3-3.2,3.3h-248
			c-1.9,0-3.3-1.5-3.3-3.3S59.6,116,61.3,116z M61.3,164.5c-1.9,0-3.3-1.5-3.3-3.3c0-1.9,1.5-3.3,3.3-3.3h248c1.9,0,3.2,1.5,3.2,3.3
			c0,1.9-1.5,3.3-3.2,3.3H61.3z"/>
	</g>
</g>
</svg>
