<?xml version="1.0" encoding="utf-8"?>
<!-- Generator: Adobe Illustrator 19.2.0, SVG Export Plug-In . SVG Version: 6.00 Build 0)  -->
<svg version="1.1" id="Layer_1" xmlns="http://www.w3.org/2000/svg" xmlns:xlink="http://www.w3.org/1999/xlink" x="0px" y="0px"
	 viewBox="0 0 20 20" style="enable-background:new 0 0 20 20;" xml:space="preserve">
<style type="text/css">
	.st0{fill:#FFFFFF;}
</style>
<g>
	<path class="st0" d="M2.5,6.9h3.8c0.4,0,0.8-0.4,0.8-0.8V0.9h8.3v4.8h0.9V0.8c0-0.4-0.4-0.8-0.8-0.8H7c-0.3,0-0.7,0.2-1,0.5
		L1.9,5.9C1.8,6.2,1.6,6.6,1.6,6.9v11.2c0,0.4,0.4,0.8,0.8,0.8h10.1V18h-10V6.9z M6.2,1.7V6H2.9L6.2,1.7z M6.2,1.7"/>
	<g>
		<path class="st0" d="M14.5,16.8c-0.9,0-1.5,0.7-1.5,1.6c0,0.9,0.6,1.6,1.5,1.6c0.9,0,1.5-0.7,1.5-1.6C16,17.5,15.3,16.8,14.5,16.8
			L14.5,16.8z M14.4,19.1c-0.4,0-0.6-0.3-0.6-0.7c0-0.4,0.3-0.7,0.7-0.7c0.4,0,0.7,0.3,0.7,0.7C15.1,18.9,14.9,19.1,14.4,19.1
			L14.4,19.1z M14.4,19.1"/>
		<path class="st0" d="M14.7,6.2c-0.9,0-1.8,0.2-2.5,0.6c-0.4,0.2-0.5,0.7-0.4,1.1L12,8.4C12.1,8.8,12.6,9,13,8.7
			c0.4-0.2,0.9-0.3,1.3-0.3c0.9,0,1.3,0.4,1.3,1.2c0,0.7-0.4,1.4-1.2,2.3c-0.9,1.1-1.4,2.4-1.2,3.5l0,0.2c0,0.4,0.4,0.6,0.8,0.6h0.7
			c0.3,0,0.5-0.1,0.6-0.2c0.1-0.1,0.2-0.3,0.2-0.4l0-0.2c0-0.9,0.2-1.6,1-2.4c1-1.1,1.7-2.1,1.7-3.5C18.3,7.8,17.2,6.2,14.7,6.2
			L14.7,6.2z M15.9,12.3c-0.9,1-1.2,2-1.2,3.1h-0.6l0-0.1c-0.1-0.9,0.3-1.9,1-2.9c0.9-1,1.4-1.8,1.4-2.8c0-1.2-0.8-2-2.2-2h0
			c-0.6,0-1.2,0.1-1.6,0.4l-0.1-0.4c0.6-0.3,1.4-0.5,2.1-0.5c2,0,2.7,1.2,2.7,2.3C17.4,10.5,16.8,11.3,15.9,12.3L15.9,12.3z
			 M15.9,12.3"/>
	</g>
</g>
</svg>
