<?xml version="1.0" encoding="utf-8"?>
<!-- Generator: Adobe Illustrator 18.0.0, SVG Export Plug-In . SVG Version: 6.00 Build 0)  -->
<!DOCTYPE svg PUBLIC "-//W3C//DTD SVG 1.1//EN" "http://www.w3.org/Graphics/SVG/1.1/DTD/svg11.dtd">
<svg version="1.1" id="Capa_1" xmlns="http://www.w3.org/2000/svg" xmlns:xlink="http://www.w3.org/1999/xlink" x="0px" y="0px"
	fill="#F7941D" viewBox="0 0 380 380" enable-background="new 0 0 380 380" xml:space="preserve">
<g>
	<circle fill="#F7941D" cx="308.3" cy="308.3" r="12.4"/>
	<path fill="#F7941D" d="M377.1,296.1l-17.3-3.2c-1-3.5-2.4-6.8-4.1-10l10-14.6c0.9-1.4,0.7-3.4-0.4-4.5L353,251.5
		c-1.2-1.2-3.2-1.3-4.5-0.4l-14.6,10c-3.2-1.7-6.7-3.2-10.3-4.2l-3.2-17.2c-0.3-1.6-1.9-2.9-3.5-2.9h-17.4c-1.6,0-3.2,1.3-3.5,2.9
		l-3.3,17.3c-3.5,1.1-6.8,2.4-9.9,4.1l-14.4-9.9c-1.4-0.9-3.4-0.7-4.5,0.4l-12.3,12.3c-1.2,1.2-1.3,3.2-0.4,4.5l9.9,14.5
		c-1.7,3.1-3,6.4-4.1,9.9l-17.3,3.2c-1.6,0.3-2.9,1.9-2.9,3.5V317c0,1.6,1.3,3.2,2.9,3.5l17.3,3.2c1.1,3.5,2.4,6.9,4.2,10.1
		l-9.8,14.4c-0.9,1.4-0.7,3.4,0.4,4.5l12.3,12.3c1.2,1.2,3.2,1.3,4.5,0.4l14.4-9.8c3.1,1.7,6.4,3,9.8,4.1l3.3,17.4
		c0.3,1.6,1.9,2.9,3.5,2.9H317c1.6,0,3.2-1.3,3.5-2.9l3.2-17.2c3.6-1,7-2.4,10.2-4.2l14.5,9.9c1.4,0.9,3.4,0.7,4.5-0.4l12.3-12.3
		c1.2-1.2,1.3-3.2,0.4-4.5l-9.9-14.4c1.7-3.2,3.1-6.6,4.2-10.2l17.3-3.2c1.6-0.3,2.9-1.9,2.9-3.5v-17.4
		C380,297.9,378.7,296.4,377.1,296.1z M308.3,338.2c-16.5,0-29.9-13.4-29.9-29.9s13.4-29.9,29.9-29.9s29.9,13.4,29.9,29.9
		S324.8,338.2,308.3,338.2z"/>
	<path fill="#F7941D" d="M27.6,26.1C2.1,51.6-2.7,88.2,22.8,113.7l92.5-92.5C89.8-4.3,53.2,0.5,27.6,26.1z"/>
	<path fill="#F7941D" d="M190,0c-16.3,0-29.5,12.5-29.5,26.8h59C219.5,13.4,206.3,0,190,0z"/>
	<path fill="#F7941D" d="M352.4,26.1c-25.6-25.6-62.1-30.4-87.7-4.9l92.5,92.5C382.8,88.2,377.9,51.6,352.4,26.1z"/>
	<path fill="#F7941D" d="M222.1,320.9c-5.1,1.4-10.2,2.5-15.5,3.2v-9.7c0-9.1-7.4-16.5-16.5-16.5c-9.1,0-16.6,7.4-16.6,16.5v9.7
		c-53.8-7.4-96.4-50-103.8-103.8h9.7c9.1,0,16.6-7.4,16.6-16.5c0-9.1-7.4-16.6-16.6-16.6h-9.7c7.4-54.4,50.9-97.4,105.6-104.1v10
		c0,5.3,2.9,9.7,7.1,12.3c-1.2,1.8-1.9,3.8-2,5.3l-3.8,74.2c-5.9,4.2-9.7,11-9.7,18.8c0,12.8,10.4,23.2,23.2,23.2
		c1,0,1.9-0.2,2.8-0.3l42.7,37.8c0.4-4.1,2.2-8.1,5.3-11.1l7.7-7.7l-35.4-40.7c0-0.4,0.1-0.7,0.1-1.1c0-8.1-4.1-15.2-10.4-19.3
		l-3.2-73.7c-0.1-1.5-0.8-3.5-1.9-5.3c4.2-2.6,7.2-7,7.2-12.3v-10c54.7,6.7,98.1,49.7,105.6,104.1h-9.7c-9.1,0-16.5,7.4-16.5,16.6
		s7.4,16.5,16.5,16.5h9.7c-0.1,0.5-0.1,0.9-0.2,1.4h6.6c8.8,0,16.6,6.5,18.3,15.2l0.9,4.6l4.1-2.8c1.9-1.3,4-2.2,6.3-2.7
		c2.1-10.4,3.3-21.1,3.3-32.1c0-88.1-71.4-159.4-159.5-159.4S30.6,115.7,30.6,203.7c0,52.9,25.8,99.6,65.4,128.6l-11.7,34.1
		c-1.1,3.1-0.7,9.6,6,12.6c6.7,2.9,11.9-1.2,13.3-4.1l15.4-28.5c21.4,10.7,45.4,16.8,70.9,16.8c16.2,0,31.8-2.5,46.6-7
		c-1.7-5.4-1.1-11.6,2.3-16.5l2.5-3.6l-4.5-0.8C229.3,333.9,223.6,328.1,222.1,320.9z"/>
</g>
</svg>
