<?xml version="1.0" encoding="utf-8"?>
<!-- Generator: Adobe Illustrator 18.0.0, SVG Export Plug-In . SVG Version: 6.00 Build 0)  -->
<!DOCTYPE svg PUBLIC "-//W3C//DTD SVG 1.1//EN" "http://www.w3.org/Graphics/SVG/1.1/DTD/svg11.dtd">
<svg version="1.1" id="Capa_1" xmlns="http://www.w3.org/2000/svg" xmlns:xlink="http://www.w3.org/1999/xlink" x="0px" y="0px"
	 viewBox="0 0 380 380" enable-background="new 0 0 380 380" xml:space="preserve">
<g>
	<path fill="#F7941D" d="M240.9,45.6c-46.5,0-63.1,26.8-76,56.1c-7.3-6.2-16.7-10-26.9-10c-23,0-41.6,18.8-41.6,42
		c0,2.5,0.2,4.8,0.6,7.2c-31.4,5-55.4,32.4-55.4,65.4c0,36.6,29.4,66.2,65.7,66.2h124.6l-2.5-3.6c-5-7.4-4.1-17.6,2.2-23.9
		l13.1-13.1c3.5-3.5,8.3-5.5,13.3-5.5c3.8,0,7.5,1.1,10.6,3.2l4.9,3.4l1.1-6.1c1.7-8.8,9.6-15.3,18.5-15.3h18.5
		c8.9,0,16.8,6.6,18.5,15.3l1.2,6.3l5.5-3.8c3.1-2.1,6.8-3.2,10.6-3.2c5,0,9.9,2,13.3,5.5l7.1,7.1c5.4-9.6,8.4-20.7,8.4-32.5
		c-0.1-32-22.7-58.7-52.6-64.9c0.1-1.9,0.2-3.8,0.2-5.7C324,89.5,297.3,45.6,240.9,45.6z"/>
	<path fill="#F7941D" d="M273.7,372.7l-4.8,3.3c-3.1,2.1-6.8,3.2-10.6,3.2c-5,0-9.9-2-13.3-5.5l-13.1-13.1
		c-4.1-4.1-5.9-9.9-5.3-15.6H51c-8.6,0-15.7-7-15.7-15.7v-4.6c0-8.6,7-15.7,15.7-15.7l160.7-0.1v-15.3c0-2.1,0.4-4.1,1-5.9H107.2
		c-44.5-0.1-80.7-36.5-80.7-81.3c0-19.4,6.9-38.2,19.5-53c9.5-11.1,21.8-19.4,35.4-24c2.2-29.4,26.7-52.5,56.5-52.5
		c7.1,0,14,1.3,20.5,3.8c14.8-27.5,36.9-50,82.5-50c24.2,0,45.2,7.1,61.7,20.6v-9.7c0-23-18.6-41.6-41.5-41.6H41.5
		C18.6,0,0,18.6,0,41.5l0.1,287.8c0,28,22.8,50.7,50.9,50.7h206.3c0.8,0.1,1.7,0.2,2.5,0.2c0.9,0,1.8-0.1,2.6-0.2h12.7
		c-0.1-0.4-0.2-0.9-0.3-1.3L273.7,372.7z"/>
	<circle fill="#F7941D" cx="302.2" cy="302.1" r="13.4"/>
	<path fill="#F7941D" d="M376.8,288.8l-18.8-3.5c-1.1-3.8-2.6-7.4-4.5-10.9l10.9-15.9c1-1.5,0.8-3.7-0.5-4.9l-13.4-13.4
		c-1.3-1.3-3.5-1.5-4.9-0.5l-15.9,10.9c-3.5-1.9-7.3-3.4-11.2-4.6l-3.5-18.7c-0.3-1.7-2-3.2-3.8-3.2h-18.9c-1.8,0-3.5,1.4-3.8,3.2
		l-3.5,18.8c-3.8,1.1-7.3,2.6-10.7,4.5l-15.7-10.7c-1.5-1-3.7-0.8-4.9,0.5l-13.4,13.4c-1.3,1.3-1.5,3.5-0.5,4.9l10.8,15.8
		c-1.8,3.4-3.3,7-4.4,10.7l-18.8,3.5c-1.7,0.3-3.2,2-3.2,3.8v18.9c0,1.8,1.4,3.5,3.2,3.8l18.7,3.5c1.1,3.8,2.7,7.5,4.5,10.9
		l-10.7,15.6c-1,1.5-0.8,3.7,0.5,4.9l13.4,13.4c1.3,1.3,3.5,1.5,4.9,0.5l15.6-10.7c3.4,1.8,6.9,3.3,10.6,4.4l3.5,18.8
		c0.3,1.7,2,3.2,3.8,3.2h18.9c1.8,0,3.5-1.4,3.8-3.2l3.5-18.7c3.9-1.1,7.6-2.6,11.1-4.5l15.8,10.8c1.5,1,3.7,0.8,4.9-0.5l13.4-13.4
		c1.3-1.3,1.5-3.5,0.5-4.9L353.5,330c1.9-3.5,3.4-7.2,4.6-11.1l18.7-3.5c1.7-0.3,3.2-2,3.2-3.8v-18.9
		C380,290.9,378.6,289.2,376.8,288.8z M302.2,334.6c-17.9,0-32.5-14.5-32.5-32.5c0-17.9,14.5-32.5,32.5-32.5
		c17.9,0,32.5,14.5,32.5,32.5C334.6,320.1,320.1,334.6,302.2,334.6z"/>
</g>
</svg>
