<?xml version="1.0" encoding="utf-8"?>
<!-- Generator: Adobe Illustrator 18.0.0, SVG Export Plug-In . SVG Version: 6.00 Build 0)  -->
<!DOCTYPE svg PUBLIC "-//W3C//DTD SVG 1.1//EN" "http://www.w3.org/Graphics/SVG/1.1/DTD/svg11.dtd">
<svg version="1.1" id="Capa_1" xmlns="http://www.w3.org/2000/svg" xmlns:xlink="http://www.w3.org/1999/xlink" x="0px" y="0px"
	 viewBox="0 0 380 380" enable-background="new 0 0 380 380" xml:space="preserve">
<g>
	<circle fill="#F7941D" cx="302.8" cy="302.8" r="13.1"/>
	<path fill="#F7941D" d="M375.9,289.8l-18.4-3.4c-1.1-3.7-2.6-7.3-4.4-10.6l10.6-15.5c1-1.4,0.8-3.6-0.5-4.8l-13.1-13.1
		c-1.2-1.2-3.4-1.4-4.8-0.5l-15.5,10.6c-3.4-1.9-7.1-3.3-10.9-4.5l-3.4-18.3c-0.3-1.7-2-3.1-3.7-3.1h-18.5c-1.7,0-3.4,1.4-3.7,3.1
		l-3.5,18.4c-3.7,1.1-7.2,2.6-10.5,4.4L260.3,242c-1.4-1-3.6-0.8-4.8,0.5l-13.1,13.1c-1.2,1.2-1.4,3.4-0.5,4.8l10.6,15.4
		c-1.8,3.3-3.2,6.8-4.3,10.5l-18.4,3.4c-1.7,0.3-3.1,2-3.1,3.7v18.5c0,1.7,1.4,3.4,3.1,3.7l18.3,3.4c1.1,3.7,2.6,7.3,4.4,10.7
		L242.1,345c-1,1.4-0.8,3.6,0.5,4.8l13.1,13.1c1.2,1.2,3.4,1.4,4.8,0.5l15.3-10.4c3.3,1.8,6.8,3.2,10.4,4.3l3.5,18.4
		c0.3,1.7,2,3.1,3.7,3.1h18.5c1.7,0,3.4-1.4,3.7-3.1l3.4-18.3c3.8-1.1,7.4-2.6,10.8-4.4l15.4,10.6c1.4,1,3.6,0.8,4.8-0.5l13.1-13.1
		c1.2-1.2,1.4-3.4,0.5-4.8l-10.5-15.4c1.9-3.4,3.3-7,4.5-10.8l18.3-3.4c1.7-0.3,3.1-2,3.1-3.7v-18.5
		C379,291.8,377.6,290.1,375.9,289.8z M302.8,334.6c-17.5,0-31.8-14.2-31.8-31.8c0-17.5,14.2-31.8,31.8-31.8
		c17.6,0,31.8,14.2,31.8,31.8C334.6,320.4,320.4,334.6,302.8,334.6z"/>
	<path fill="#F7941D" d="M211.7,312v-18.5c0-8.9,6.6-16.8,15.3-18.5l6-1.1l-3.4-5c-5-7.4-4.1-17.6,2.2-23.9l13.1-13.1
		c3.5-3.5,8.3-5.5,13.3-5.5c3.8,0,7.5,1.1,10.6,3.2l4.9,3.4l1.1-6.1c1.7-8.8,9.6-15.3,18.5-15.3h18.5c8.9,0,16.8,6.6,18.5,15.3
		l1.2,6.3l5.5-3.8c1.7-1.1,3.5-2,5.4-2.5c5.1-16.4,7.8-33.8,7.8-51.8C350.2,78.4,271.8,0,175.1,0S0,78.4,0,175.1
		s78.4,175.1,175.1,175.1c18.1,0,35.6-2.8,52-7.9c0.5-2,1.4-3.9,2.6-5.6l3.4-5l-6.1-1.2C218.1,328.8,211.7,321,211.7,312z
		 M222.1,108.7c11.1,0,20,9,20,20c0,11.1-9,20-20,20c-11.1,0-20-9-20-20C202,117.6,211,108.7,222.1,108.7z M131.2,108.7
		c11.1,0,20,9,20,20c0,11.1-9,20-20,20c-11.1,0-20-9-20-20C111.1,117.6,120.1,108.7,131.2,108.7z M100.8,210.5
		c-2.1-4.9,0.3-10.6,5.2-12.7c1.2-0.5,2.5-0.7,3.7-0.7c3.8,0,7.4,2.2,9,6c9,21.6,31.2,35.6,56.6,35.6c24.8,0,46.9-14,56.3-35.6
		c2.1-4.9,7.8-7.2,12.7-5.1c4.9,2.1,7.2,7.8,5.1,12.7C237,239.5,207.9,258,175.3,258C142,258,112.7,239.4,100.8,210.5z"/>
</g>
</svg>
