<?xml version="1.0" encoding="utf-8"?>
<!-- Generator: Adobe Illustrator 19.2.0, SVG Export Plug-In . SVG Version: 6.00 Build 0)  -->
<svg version="1.1" id="Layer_1" xmlns="http://www.w3.org/2000/svg" xmlns:xlink="http://www.w3.org/1999/xlink" x="0px" y="0px"
	 viewBox="0 0 120 120" style="enable-background:new 0 0 120 120;" xml:space="preserve">
<style type="text/css">
	.st0{fill:#FFFFFF;}
</style>
<g>
	<g>
		<path class="st0" d="M83.6,120c-0.1,0-0.2,0-0.2,0c-17.2,0-32.3-12.1-35.8-28.8c-0.5-2.9-0.7-5.4-0.7-7.7c0-1.4,0.1-2.8,0.2-4.1
			c2-17.5,16.2-31.1,33.8-32.2c1-0.1,1.8-0.1,2.5-0.1c2.9,0,5.5,0.2,8.3,1c16.6,3.7,28.2,18.4,28.2,35.5c0,9.8-3.8,19-10.7,25.8
			C102.5,116.3,93.4,120,83.6,120z M83.5,51c-0.7,0-1.3,0-1.9,0.1h-0.2c-15.8,1-28.6,13.1-30.4,28.7c-0.1,1.2-0.2,2.4-0.2,3.6
			c0,2,0.2,4.3,0.7,7C54.6,105.1,68,116,83.4,116c8.8,0.1,17-3.2,23.2-9.4c6.1-6.1,9.6-14.3,9.6-23c0-15.2-10.3-28.3-25.2-31.8
			C88.4,51.4,86,51,83.5,51z"/>
	</g>
	<path class="st0" d="M43,57.7h2.6c1.3-1.8,2.6-3.6,4.2-5.2H43c-1.4,0-2.6,1.2-2.6,2.6C40.3,56.6,41.5,57.7,43,57.7z"/>
	<path class="st0" d="M29.2,55.1c0,1.4-1.2,2.6-2.6,2.6h-8.8c-1.4,0-2.6-1.2-2.6-2.6s1.2-2.6,2.6-2.6h8.8
		C28,52.4,29.2,53.6,29.2,55.1L29.2,55.1z"/>
	<path class="st0" d="M29.2,73c0,1.4-1.2,2.6-2.6,2.6h-8.8c-1.4,0-2.6-1.2-2.6-2.6s1.2-2.6,2.6-2.6h8.8C28,70.3,29.2,71.5,29.2,73
		L29.2,73z"/>
	<path class="st0" d="M29.2,91c0,1.4-1.2,2.6-2.6,2.6h-8.8c-1.4,0-2.6-1.2-2.6-2.6c0-1.4,1.2-2.6,2.6-2.6h8.8
		C28,88.2,29.2,89.4,29.2,91L29.2,91z"/>
	<path class="st0" d="M45.6,105.4H9.1c-2,0-3.6-1.6-3.6-3.6V40.6h109.1v9.7L120,54V20.6c0-4.9-4.1-9-9-9H99.2V5c0-2.8-2.3-5-5-5H87
		c-2.8,0-5,2.3-5,5v6.5H38.8V5c0-2.8-2.3-5-5-5h-7.2c-2.8,0-5,2.3-5,5v6.5H9c-4.9,0.1-9,4.2-9,9.1v81.1c0,4.9,4.1,9,9,9h38.3
		L45.6,105.4z M87.2,5.5H94v16h-6.7V5.5z M26.8,5.5h6.7v16h-6.7V5.5z M5.5,20.6c0-2,1.6-3.6,3.6-3.6h12.4v4.8c0,2.8,2.3,5,5,5h7.2
		c2.8,0,5-2.3,5-5V17h43v4.8c0,2.8,2.3,5,5,5H94c2.8,0,5-2.3,5-5V17h11.9c2,0,3.6,1.6,3.6,3.6v14.5H5.5V20.6z"/>
	<path class="st0" d="M45.5,70.3H43c-1.4,0-2.6,1.2-2.6,2.6s1.2,2.6,2.6,2.6H44C44.4,73.8,44.9,72,45.5,70.3z"/>
	<path class="st0" d="M44,91.9c-0.2-1.2-0.4-2.4-0.5-3.5H43c-1.4,0-2.6,1.2-2.6,2.6s1.2,2.6,2.6,2.6h1.4C44.3,93,44.2,92.5,44,91.9z
		"/>
	<g>
		<path class="st0" d="M101.1,102.2c-3.6,0-6.6-3-6.6-6.6c0-3.6,3-6.6,6.6-6.6c0.1,0,0.2,0,0.3,0c0.2-1,0.3-2,0.3-3
			c0-6.4-3.2-12.2-8.7-15.5c-0.4-0.3-0.7-0.6-0.8-1.1c-0.1-0.5,0-0.9,0.2-1.4c0.3-0.5,0.9-0.9,1.5-0.9c0.3,0,0.7,0.1,0.9,0.3
			c6.5,4,10.4,10.9,10.4,18.6c0,1.4-0.1,2.8-0.4,4.2c1.8,1.2,2.8,3.2,2.8,5.4C107.7,99.2,104.7,102.2,101.1,102.2z M101.1,92.6
			c-1.7,0-3,1.3-3,3s1.3,3,3,3s3-1.3,3-3S102.7,92.6,101.1,92.6z"/>
		<path class="st0" d="M83.5,107.8c-5.6,0-11.1-2.2-15.1-6.1c-0.8,0.3-1.6,0.5-2.5,0.5c-3.6,0-6.6-3-6.6-6.6c0-3.6,3-6.6,6.6-6.6
			c3.6,0,6.6,3,6.6,6.6c0,1.4-0.4,2.7-1.2,3.9c3.3,3,7.7,4.8,12.2,4.8c2.4,0,4.7-0.5,7-1.4c0.2-0.1,0.5-0.1,0.7-0.1
			c0.7,0,1.4,0.4,1.7,1.1c0.2,0.4,0.2,0.9,0,1.4c-0.2,0.4-0.5,0.8-1,1C89.1,107.2,86.3,107.8,83.5,107.8z M65.9,92.6
			c-1.7,0-3,1.3-3,3s1.3,3,3,3s3-1.3,3-3S67.5,92.6,65.9,92.6z"/>
		<path class="st0" d="M63.4,86.4L63.4,86.4c-0.5,0-1-0.3-1.3-0.6c-0.3-0.4-0.5-0.8-0.4-1.3c0.6-8.9,6.7-16.6,15.2-19.2
			c0.4-3.3,3.2-5.8,6.6-5.8c3.6,0,6.6,3,6.6,6.6c0,3.6-3,6.6-6.6,6.6c-2.6,0-4.9-1.5-6-3.8c-6.9,2.4-11.7,8.5-12.2,15.9
			C65.2,85.6,64.5,86.4,63.4,86.4L63.4,86.4z M83.5,63c-1.7,0-3,1.3-3,3s1.3,3,3,3s3-1.3,3-3S85.1,63,83.5,63z"/>
	</g>
</g>
</svg>
