<svg id="Layer_1" data-name="Layer 1" xmlns="http://www.w3.org/2000/svg" viewBox="0 0 40 27.23"><defs><style>.cls-1{fill:#626975;}</style></defs><title>Daypart-Grey_40</title><path class="cls-1" d="M20,9.79A10.22,10.22,0,0,0,9.79,20a10.12,10.12,0,0,0,2.09,6.19,0.64,0.64,0,1,0,1-.77A8.85,8.85,0,0,1,11.06,20,8.94,8.94,0,1,1,20,28.94a8.85,8.85,0,0,1-5.42-1.83,0.64,0.64,0,1,0-.78,1A10.12,10.12,0,0,0,20,30.21,10.21,10.21,0,0,0,20,9.79Z" transform="translate(0 -6.38)"/><path class="cls-1" d="M20,6.38A13.62,13.62,0,1,0,33.62,20,13.63,13.63,0,0,0,20,6.38Zm0,26A12.34,12.34,0,1,1,32.34,20,12.35,12.35,0,0,1,20,32.34Z" transform="translate(0 -6.38)"/><path class="cls-1" d="M20,14a0.64,0.64,0,0,0,.64-0.64V13a0.64,0.64,0,0,0-1.28,0V13.4A0.64,0.64,0,0,0,20,14Z" transform="translate(0 -6.38)"/><path class="cls-1" d="M17,13.6a0.64,0.64,0,1,0-1.11.64l0.21,0.37A0.64,0.64,0,1,0,17.25,14Z" transform="translate(0 -6.38)"/><path class="cls-1" d="M13.6,17L14,17.26a0.64,0.64,0,0,0,.64-1.11l-0.37-.21A0.64,0.64,0,0,0,13.6,17Z" transform="translate(0 -6.38)"/><path class="cls-1" d="M12.34,20a0.64,0.64,0,0,0,.64.64H13.4a0.64,0.64,0,0,0,0-1.28H13A0.64,0.64,0,0,0,12.34,20Z" transform="translate(0 -6.38)"/><path class="cls-1" d="M14.24,24.06l0.37-.21A0.64,0.64,0,0,0,14,22.75L13.6,23A0.64,0.64,0,1,0,14.24,24.06Z" transform="translate(0 -6.38)"/><path class="cls-1" d="M16.17,26.63A0.64,0.64,0,0,0,17,26.4L17.25,26a0.64,0.64,0,0,0-1.11-.64l-0.21.37A0.64,0.64,0,0,0,16.17,26.63Z" transform="translate(0 -6.38)"/><path class="cls-1" d="M20,26a0.64,0.64,0,0,0-.64.64V27a0.64,0.64,0,1,0,1.28,0V26.6A0.64,0.64,0,0,0,20,26Z" transform="translate(0 -6.38)"/><path class="cls-1" d="M22.75,26L23,26.4a0.64,0.64,0,0,0,1.11-.64l-0.21-.37A0.64,0.64,0,0,0,22.75,26Z" transform="translate(0 -6.38)"/><path class="cls-1" d="M25.39,23.85l0.37,0.21A0.64,0.64,0,1,0,26.4,23L26,22.75A0.64,0.64,0,0,0,25.39,23.85Z" transform="translate(0 -6.38)"/><path class="cls-1" d="M26,20a0.64,0.64,0,0,0,.64.64H27a0.64,0.64,0,0,0,0-1.28H26.6A0.64,0.64,0,0,0,26,20Z" transform="translate(0 -6.38)"/><path class="cls-1" d="M25.76,15.94l-0.37.21A0.64,0.64,0,1,0,26,17.26L26.4,17A0.64,0.64,0,0,0,25.76,15.94Z" transform="translate(0 -6.38)"/><path class="cls-1" d="M23,14.84a0.64,0.64,0,0,0,.87-0.23l0.21-.37A0.64,0.64,0,1,0,23,13.6L22.75,14A0.64,0.64,0,0,0,23,14.84Z" transform="translate(0 -6.38)"/><path class="cls-1" d="M19.36,19.36H16.81a0.64,0.64,0,1,0,0,1.28H20A0.64,0.64,0,0,0,20.64,20V16a0.64,0.64,0,1,0-1.28,0v3.4Z" transform="translate(0 -6.38)"/><path class="cls-1" d="M5.74,6.38A0.64,0.64,0,0,0,5.11,7v4H3.83V7A0.64,0.64,0,1,0,2.55,7v4H1.28V7A0.64,0.64,0,1,0,0,7V13.4A3.2,3.2,0,0,0,1.28,16V31.7a1.91,1.91,0,1,0,3.83,0V16A3.2,3.2,0,0,0,6.38,13.4V7A0.64,0.64,0,0,0,5.74,6.38Zm-1.6,8.68a0.64,0.64,0,0,0-.32.55V31.7a0.64,0.64,0,0,1-1.28,0V15.62a0.64,0.64,0,0,0-.32-0.55,1.92,1.92,0,0,1-1-1.66V12.34H5.11V13.4A1.92,1.92,0,0,1,4.15,15.06Z" transform="translate(0 -6.38)"/><path class="cls-1" d="M37.45,6.38a2.56,2.56,0,0,0-2.55,2.55v10a2.56,2.56,0,0,0,2.55,2.55h1.28V31.7a0.64,0.64,0,1,1-1.28,0V23.4a0.64,0.64,0,0,0-1.28,0v8.3a1.91,1.91,0,1,0,3.83,0V8.94A2.56,2.56,0,0,0,37.45,6.38Zm1.28,13.83H37.45a1.28,1.28,0,0,1-1.28-1.28v-10a1.28,1.28,0,0,1,2.55,0V20.21Z" transform="translate(0 -6.38)"/></svg>