<?xml version="1.0" encoding="utf-8"?>
<!-- Generator: Adobe Illustrator 19.2.0, SVG Export Plug-In . SVG Version: 6.00 Build 0)  -->
<svg version="1.1" id="Layer_1" xmlns="http://www.w3.org/2000/svg" xmlns:xlink="http://www.w3.org/1999/xlink" x="0px" y="0px"
	 viewBox="0 0 120 120" style="enable-background:new 0 0 120 120;" xml:space="preserve">
<style type="text/css">
	.st0{fill:#FFFFFF;}
</style>
<g>
	<g>
		<path class="st0" d="M107.1,94.1c-1.7-1.1-4-0.6-5.2,1.1c-4,6.2-10.8,9.9-18.2,9.9c-11.9,0-21.5-9.6-21.5-21.5
			c0-11.8,9.7-21.5,21.5-21.5c6.3,0,12.2,2.7,16.2,7.4l-4.5,3.4l13.2,1.8l1.8-13.1l-4.5,3.4c-5.5-6.5-13.5-10.3-22.2-10.3
			c-16,0-29,13-29,28.9c0,15.9,13,28.9,29,28.9c9.9,0,19.1-5,24.4-13.4C109.4,97.5,108.9,95.2,107.1,94.1z M100.5,87.3
			c2.7-2.1,5.2-4.2,5.2-7.4c0-2.4-1.7-4.2-4.8-4.2c-1.8,0-3.5,0.6-4.8,1.3l0.7,2.4c0.8-0.5,1.9-0.9,3.2-0.9c1.4,0,2.1,0.8,2.1,1.9
			c0,1.8-2,3.6-5.1,6.1l-3.3,2.6l-0.4,2.2h10.5l0.5-2.9l-5.5,0v0L100.5,87.3z M116.8,85l1.7-9h-4.2l-7.3,9.3l-0.4,2.3h6.6l-0.7,3.7
			h3.2l0.7-3.7h1.8l0.5-2.6H116.8z M114.3,81.7l-0.7,3.3h-3.2l0,0l2.5-3.3c0.7-1,1.3-2,2-3h0.1C114.8,79.6,114.5,80.7,114.3,81.7z
			 M92.8,74.7c-0.4-0.4-1-0.3-1.3,0l-5.6,5.8c-0.6-0.4-1.3-0.6-2-0.6c0,0-0.1,0-0.1,0l-7.6-7.3c-0.9-0.9-2.4-0.9-3.3,0.1
			c-0.9,0.9-0.9,2.4,0.1,3.3l7.3,7c0,0.2-0.1,0.5-0.1,0.7c0,0.8,0.3,1.5,0.7,2.2l-2.3,2.4c-0.4,0.4-0.3,1,0,1.3
			c0.2,0.2,0.4,0.3,0.6,0.3c0.2,0,0.5-0.1,0.7-0.3l2.4-2.5c0.5,0.2,1.1,0.4,1.7,0.4c0.3,0,0.6,0,0.9-0.1l1.7,1.6
			c0.5,0.4,1,0.6,1.6,0.6c0.6,0,1.2-0.2,1.7-0.7c0.9-0.9,0.9-2.4-0.1-3.3l-2.1-2c0-0.6-0.2-1.2-0.5-1.8l5.7-5.9
			C93.2,75.7,93.2,75.1,92.8,74.7z M21.9,59.8h-4v14.3h4V59.8z M28.4,57h-4v17.1h4V57z M30.9,48.9v25.2h4V48.9H30.9z M41.4,52.2h-4
			v21.9h4V52.2z M47.9,55.1h-4v19h4V55.1z M49.9,86.4c2.2,0,3.9-1.7,3.9-3.9c0-2.1-1.8-3.9-3.9-3.9c-2.2,0-3.9,1.7-3.9,3.9
			c0,0.5,0.1,1,0.3,1.4l-5.3,4.6C40.4,88.2,39.7,88,39,88c-0.9,0-1.8,0.3-2.5,0.9l-8.9-5.5c0.1-0.3,0.1-0.5,0.1-0.8
			c0-2.1-1.8-3.9-3.9-3.9c-2.2,0-3.9,1.7-3.9,3.9c0,0.7,0.2,1.4,0.6,2l-3.2,3.7c-0.4-0.2-0.9-0.3-1.4-0.3c-2.2,0-3.9,1.7-3.9,3.9
			s1.8,3.9,3.9,3.9c2.2,0,3.9-1.7,3.9-3.9c0-0.7-0.2-1.3-0.5-1.9l3.2-3.8c0.4,0.1,0.8,0.2,1.3,0.2c0.9,0,1.8-0.3,2.4-0.8l8.9,5.5
			c-0.1,0.3-0.1,0.5-0.1,0.8c0,2.1,1.8,3.9,3.9,3.9c2.2,0,3.9-1.7,3.9-3.9c0-0.5-0.1-1-0.3-1.4l5.3-4.6
			C48.6,86.2,49.2,86.4,49.9,86.4z M82.3,30.4c2.1,0,3.9-1.7,3.9-3.9V10.9c0-2.1-1.7-3.9-3.9-3.9c-2.1,0-3.9,1.7-3.9,3.9v15.6
			C78.4,28.6,80.2,30.4,82.3,30.4z M8.8,99.6V45.9h85.2v5h7.7V31.1c0-4.7-3.8-8.6-8.4-8.6h-3.2v3.9c0,4.3-3.5,7.8-7.7,7.8
			c-4.3,0-7.7-3.5-7.7-7.8v-3.9H28.1v3.9c0,4.3-3.5,7.8-7.7,7.8c-4.3,0-7.7-3.5-7.7-7.8v-3.9H9.4c-4.6,0-8.4,3.8-8.4,8.6v68.4
			c0,4.7,3.8,8.6,8.4,8.6h45.8v-7.8H9.4C9.1,100.3,8.8,100,8.8,99.6z M20.4,30.4c2.1,0,3.9-1.7,3.9-3.9V10.9c0-2.1-1.7-3.9-3.9-3.9
			c-2.1,0-3.9,1.7-3.9,3.9v15.6C16.5,28.6,18.2,30.4,20.4,30.4z"/>
	</g>
</g>
</svg>
