<?xml version="1.0" encoding="utf-8"?>
<!-- Generator: Adobe Illustrator 19.2.0, SVG Export Plug-In . SVG Version: 6.00 Build 0)  -->
<svg version="1.1" id="Layer_1" xmlns="http://www.w3.org/2000/svg" xmlns:xlink="http://www.w3.org/1999/xlink" x="0px" y="0px"
	 viewBox="0 0 120 120" style="enable-background:new 0 0 120 120;" xml:space="preserve">
<style type="text/css">
	.st0{fill:#FFFFFF;}
</style>
<g>
	<path class="st0" d="M105.2,12.2h-24c-1.4,0-2.5,0.7-2.5,1.6c0,0.9,1.1,1.6,2.5,1.6h24c1.4,0,2.5-0.7,2.5-1.6
		C107.7,12.9,106.6,12.2,105.2,12.2L105.2,12.2z M105.2,12.2"/>
	<path class="st0" d="M105.2,30.9h-24c-1.4,0-2.5,0.7-2.5,1.6c0,0.9,1.1,1.6,2.5,1.6h24c1.4,0,2.5-0.7,2.5-1.6
		C107.7,31.6,106.6,30.9,105.2,30.9L105.2,30.9z M105.2,30.9"/>
	<path class="st0" d="M104.5,21H73.6c-1.8,0-3.2,0.7-3.2,1.6c0,0.9,1.4,1.6,3.2,1.6h30.9c1.8,0,3.2-0.7,3.2-1.6
		C107.7,21.7,106.3,21,104.5,21L104.5,21z M104.5,21"/>
	<g>
		<g>
			<path class="st0" d="M60.3,111.2h7.5l3.8,7.6c0.8,1.5,2.9,1.6,3.8,0.2l10.1-16.2c2,1.4,4.8,1.4,6.9-0.3l10.3,16.5
				c0.9,1.5,3.1,1.4,3.8-0.2l3.8-7.6h7.5c1.8,0,2.8-2,1.8-3.4l-11.7-17.4l1.8-0.7c3.4-1.3,4.8-5.4,2.8-8.5l-1.4-2.1
				c-0.4-0.6-0.4-1.3,0-1.8l1.4-2.1c2-3.1,0.7-7.2-2.8-8.5l-2.5-1c-0.5-0.2-0.8-0.7-0.9-1.2l-0.1-2.7c-0.2-3.7-3.7-6.2-7.2-5.3
				l-2.6,0.7c-0.5,0.1-1.1,0-1.4-0.5l-1.7-2.1l0,0c-2.3-2.8-6.6-2.8-8.9,0l-1.7,2.1c-0.3,0.4-0.9,0.6-1.4,0.5l-2.6-0.7
				c-3.5-1-7,1.6-7.2,5.3l-0.1,2.7c0,0.5-0.4,1-0.9,1.2l-2.5,1c-3.4,1.3-4.8,5.4-2.8,8.5l1.5,2.3c0.3,0.4,0.3,1,0,1.5l-1.5,2.3
				c-2,3.1-0.7,7.2,2.8,8.5l2.2,0.8l-11.6,17.3C57.5,109.2,58.5,111.2,60.3,111.2z M109,106.8c-0.8,0-1.6,0.5-2,1.2l-2.7,5.3
				l-8.9-14.2c0.3-0.1,0.6-0.1,0.9-0.1l2.6,0.7c3.2,0.9,6.4-1.1,7.1-4.3l7.6,11.3L109,106.8L109,106.8z M68.8,83.6l1.5-2.3
				c1.2-1.9,1.2-4.4,0-6.3l-1.5-2.3c-0.5-0.7-0.2-1.7,0.6-2l2.5-1c2.1-0.8,3.6-2.8,3.7-5.1l0.1-2.7c0-0.9,0.9-1.4,1.7-1.2l2.6,0.7
				c2.2,0.6,4.5-0.2,6-1.9l1.7-2.1c0.5-0.7,1.5-0.7,2.1,0l1.7,2.1c1.4,1.8,3.8,2.5,6,1.9l2.6-0.7c0.8-0.2,1.6,0.4,1.7,1.2l0.1,2.7
				c0.1,2.3,1.6,4.3,3.7,5.1l2.5,1c0.8,0.3,1.1,1.3,0.6,2l-1.4,2.1c-1.3,2-1.3,4.6,0,6.6l1.4,2.1c0.5,0.7,0.2,1.7-0.6,2l-2.5,1
				c-1,0.4-1.8,1-2.4,1.8c0,0.1-0.1,0.1-0.1,0.2c-0.7,0.9-1.1,2-1.1,3.1l-0.1,2.7c0,0.8-0.9,1.4-1.7,1.2l-2.6-0.7
				c-2.2-0.6-4.5,0.2-6,1.9l-1.7,2.1c-0.5,0.7-1.5,0.7-2.1,0L86,96.7c-1.1-1.4-2.8-2.1-4.5-2.1c-0.5,0-1,0.1-1.5,0.2l-2.6,0.7
				c-0.8,0.2-1.6-0.4-1.7-1.2l-0.1-2.7c-0.1-2.3-1.6-4.3-3.7-5.1l-2.5-1C68.6,85.2,68.3,84.3,68.8,83.6z M71.7,96
				c0.9,2.8,4,4.6,6.9,3.8l2.6-0.7c0.4-0.1,0.9,0,1.2,0.3l-8.7,13.9l-2.7-5.3c-0.4-0.7-1.1-1.2-2-1.2h-4.7L71.7,96z"/>
			<path class="st0" d="M88.8,91.4c7.3,0,13.2-5.9,13.2-13.2c0-7.3-5.9-13.2-13.2-13.2s-13.2,5.9-13.2,13.2
				C75.6,85.4,81.5,91.4,88.8,91.4z M88.8,69.3c4.9,0,8.8,4,8.8,8.8s-4,8.8-8.8,8.8S80,83,80,78.1C80,73.3,83.9,69.3,88.8,69.3z"/>
		</g>
		<path class="st0" d="M46.6,98.3H7c-1.5,0-2.8-1.2-2.8-2.8V7c0-1.5,1.2-2.8,2.8-2.8h106c1.5,0,2.8,1.2,2.8,2.8v43
			c1.4,1.3,2.9,2.6,4.2,3.8V7c0-3.9-3.1-7-7-7H7C3.1,0,0,3.1,0,7v88.6c0,3.9,3.1,7,7,7h38.1C45.6,101.2,46.1,99.8,46.6,98.3z"/>
		<path class="st0" d="M34.5,42.9c-3.9-0.1-7.1-1.4-9.4-4.1c-5-5.6-4.2-15.1-4.1-16.1c0.3-7,3.7-10.4,6.5-12C30.3,9.2,33.2,9,34.7,9
			h0.2c2.7,0.1,5,0.7,7.1,1.9c2.8,1.6,6.1,4.9,6.5,12c0.1,1,0.9,10.4-4.1,16.1c-2.4,2.6-5.5,4-9.4,4.1h0H34.5z M26.3,23.3
			c0,0-0.8,8,2.8,12c1.3,1.5,3.2,2.3,5.6,2.3h0.1c2.4,0,4.2-0.8,5.6-2.3c3.4-3.8,2.9-11.3,2.8-12c0-0.1,0-0.2,0-0.3
			c-0.3-7.1-4.7-8.7-8.4-8.8l-0.1,0c-3,0-8,1.1-8.3,8.8l0,0.1L26.3,23.3L26.3,23.3z"/>
		<path class="st0" d="M34.8,70.3c-15.4,0-24.5-6-24.6-6c-0.5-0.3-0.8-0.7-1-1.2c-0.7-1.9-0.7-5.3-0.7-5.9l0-0.1c0-0.1,0-0.1,0-0.2
			c0.1-2.5,0.3-8.8,6.2-10.9c0.1,0,0.1,0,0.2-0.1c5.3-1.4,9.8-4.5,9.9-4.5c0.5-0.3,1-0.5,1.5-0.5c0.9,0,1.7,0.4,2.2,1.1
			c0.4,0.6,0.6,1.3,0.4,2c-0.1,0.7-0.5,1.3-1.1,1.7c-1.4,0.9-6,3.8-11.6,5.3c-2,0.7-2.4,2.8-2.5,5.9c0,0,0,0.3,0,0.3
			c0,0.9,0,2.2,0.2,3.1c2.5,1.4,9.9,4.7,20.8,4.7c10.9,0,18.3-3.3,20.8-4.7c0.1-0.9,0.2-2.1,0.2-3.1c0-0.1,0-0.2,0-0.4
			c-0.1-3.1-0.6-5.2-2.6-5.9c-6.2-1.6-11.3-5.1-11.5-5.3c-1.2-0.8-1.5-2.5-0.6-3.7c0.5-0.7,1.3-1.1,2.2-1.1c0.5,0,1.1,0.2,1.5,0.5
			c0,0,4.6,3.1,9.9,4.5l0.2,0.1c6,2,6.2,8.4,6.2,10.8c0,0,0,0.3,0,0.4c0,0.7,0,4.1-0.7,5.9c-0.2,0.5-0.6,1-1,1.3
			C58.3,64.9,49.4,70.3,34.8,70.3z"/>
	</g>
</g>
</svg>
