<?xml version="1.0" encoding="utf-8"?>
<!-- Generator: Adobe Illustrator 18.0.0, SVG Export Plug-In . SVG Version: 6.00 Build 0)  -->
<!DOCTYPE svg PUBLIC "-//W3C//DTD SVG 1.1//EN" "http://www.w3.org/Graphics/SVG/1.1/DTD/svg11.dtd">
<svg version="1.1" id="Capa_1" xmlns="http://www.w3.org/2000/svg" xmlns:xlink="http://www.w3.org/1999/xlink" x="0px" y="0px"
	fill="#f7941d"  viewBox="0 0 380 380" enable-background="new 0 0 380 380" xml:space="preserve">
<path fill="#f7941d" d="M378.8,168.9c-0.6-5.3-6.8-9.4-12.2-9.4c-17.4,0-32.9-10.2-39.3-26c-6.6-16.2-2.3-35.1,10.6-47
	c4.1-3.7,4.6-10,1.2-14.3c-8.9-11.3-19-21.5-30.1-30.4c-4.3-3.5-10.7-3-14.4,1.2c-11.3,12.5-31.7,17.2-47.4,10.6
	c-16.4-6.9-26.7-23.5-25.7-41.3c0.3-5.6-3.8-10.5-9.3-11.1c-14.2-1.6-28.5-1.7-42.7-0.1c-5.5,0.6-9.6,5.4-9.4,10.9
	c0.6,17.6-9.8,33.9-26,40.5c-15.5,6.3-35.7,1.7-47-10.7c-3.7-4.1-10-4.6-14.3-1.2C61.2,49.6,50.8,59.8,41.8,71
	c-3.5,4.4-3,10.7,1.1,14.4c13.2,12,17.5,31,10.6,47.4c-6.6,15.6-22.8,25.7-41.3,25.7c-6-0.2-10.3,3.9-11,9.3
	c-1.7,14.3-1.7,28.8-0.1,43.2c0.6,5.4,7,9.3,12.5,9.3c16.5-0.4,32.4,9.8,39.1,26c6.6,16.2,2.4,35.1-10.6,47
	c-4.1,3.7-4.6,10-1.2,14.3c8.8,11.2,19,21.5,30.1,30.4c4.4,3.5,10.7,3,14.5-1.1c11.4-12.6,31.7-17.2,47.4-10.7
	c16.4,6.9,26.7,23.4,25.7,41.2c-0.3,5.6,3.8,10.5,9.3,11.1c7.3,0.8,14.6,1.3,21.9,1.3c7,0,13.9-0.4,20.9-1.2
	c5.5-0.6,9.6-5.4,9.4-10.9c-0.6-17.6,9.8-33.9,26-40.5c15.6-6.4,35.7-1.7,47.1,10.7c3.8,4.1,10,4.6,14.3,1.2
	c11.4-8.9,21.7-19.1,30.7-30.4c3.5-4.4,3-10.7-1.1-14.4c-13.2-12-17.5-31-10.6-47.4c6.5-15.4,22.1-25.8,38.9-25.8l2.4,0.1
	c5.5,0.4,10.5-3.8,11.1-9.3C380.4,197.8,380.4,183.3,378.8,168.9z M190,299.5c-60.5,0-109.5-49-109.5-109.5S129.5,80.5,190,80.5
	s109.5,49,109.5,109.5c0,20.5-5.7,39.7-15.5,56.2l-48-48c3.5-8.2,5.3-17.1,5.3-26.2c0-17.9-7-34.8-19.7-47.5
	c-12.7-12.7-29.5-19.7-47.5-19.7c-6,0-11.9,0.8-17.7,2.4c-2.5,0.7-4.6,2.8-5.3,5.3c-0.7,2.6,0.1,5.2,2.1,7.3
	c0,0,23.7,23.9,31.6,31.8c0.8,0.8,0.8,2.8,0.7,3.5l-0.1,0.5c-0.8,8.7-2.3,19.2-3.6,23.2c-0.2,0.2-0.3,0.3-0.5,0.5
	c-0.2,0.2-0.4,0.4-0.5,0.5c-4.1,1.3-14.7,2.9-23.5,3.7l0,0l-0.4,0.1c-0.1,0-0.2,0-0.4,0c-1,0-2.4-0.3-3.6-1.5
	c-8.2-8.2-31-30.8-31-30.8c-2-2-4.1-2.5-5.5-2.5c-3.3,0-6.2,2.4-7.1,5.7c-6.3,23.2,0.4,48.1,17.3,65.1
	c12.7,12.7,29.5,19.7,47.5,19.7c9.2,0,18-1.8,26.2-5.3l48.5,48.5C231.9,293.2,211.7,299.5,190,299.5z"/>
</svg>
