<?xml version="1.0" encoding="utf-8"?>
<!-- Generator: Adobe Illustrator 18.0.0, SVG Export Plug-In . SVG Version: 6.00 Build 0)  -->
<!DOCTYPE svg PUBLIC "-//W3C//DTD SVG 1.1//EN" "http://www.w3.org/Graphics/SVG/1.1/DTD/svg11.dtd">
<svg version="1.1" id="Capa_1" xmlns="http://www.w3.org/2000/svg" xmlns:xlink="http://www.w3.org/1999/xlink" x="0px" y="0px"
	fill="#F7941D" viewBox="0 0 380 380" enable-background="new 0 0 380 380" xml:space="preserve">
<g>
	<path  d="M90,242.4c2.7-1.9,5.6-3.3,8.8-4.2c2.4-0.7,4.9-1,7.5-1c1.2,0,2.3,0.4,3.5,0.5c-1.1-2.4-2.2-4.9-3.2-7.5
		c3.3,0.6,6.8,0.9,10.3,1.4c4.9-8.9,14.3-15,25.1-15h23.8c7.3,0,13.9,2.8,19.1,7.3c0.1-4.4,1-8.8,3-12.9c-8.3,1.2-16.8,2.1-25.8,2.5
		v-51h48.4c-0.2,4.8-0.7,9.1-1.2,13.6c3.8-3.6,8.3-6.4,13.5-7.8c2.5-0.7,5-0.9,7.5-1c0.1-1.7,0.3-3.3,0.4-4.9h15.8
		c3.5-10,11.8-17.7,22.2-20.2h-38c-0.6-13.9-2.1-27.2-4.5-39.7c23.1,7.9,40.8,19.2,49.4,32.3c0.3,2.2,0.5,4.3,0.6,6.5h25.3
		c-5-78.2-70-140.3-149.5-140.3C69.2,1.2,1.9,68.5,1.9,151.2c0,51.6,26.2,97.3,66.1,124.3c0.5-1.1,0.9-2.3,1.5-3.3l10.9-18.9
		c-16.8-11.8-30.5-27.6-39.9-46c12.1,7.3,26.5,13.5,42.9,17.9C85.4,231.3,87.6,237,90,242.4z M265,98.7
		c-12.4-7.8-27.5-14.2-44.6-18.9c-5.5-17.5-12.8-32.5-21.7-44.2C228,47.5,251.7,70.2,265,98.7z M162,30.4
		c13.3,5.3,26.1,21,35.3,44.2c-11.2-1.9-23-3-35.3-3.5V30.4z M162,91.4c14.9,0.6,29.1,2.4,42.2,5.2c3.3,13.6,5.6,29,6.2,45.7H162
		L162,91.4L162,91.4z M141.9,213.6c-14.8-0.6-29.1-2.4-42.2-5.2c-3.3-13.6-5.6-29-6.2-45.8h48.4V213.6L141.9,213.6z M141.9,142.4
		H93.5c0.6-16.8,2.8-32.1,6.2-45.7c13.1-2.8,27.4-4.6,42.2-5.2V142.4L141.9,142.4z M141.9,30.4v40.8c-12.2,0.4-24.1,1.5-35.3,3.5
		C115.8,51.3,128.5,35.7,141.9,30.4z M105.2,35.6C96.3,47.3,89,62.3,83.6,79.8C66.4,84.5,51.3,91,38.9,98.7
		C52.2,70.2,75.9,47.5,105.2,35.6z M28.8,170.8c-0.4-2.7-0.9-5.4-1.1-8.2h45.5c0.5,13.9,2,27.2,4.5,39.7
		C55.1,194.6,37.5,183.6,28.8,170.8z M73.3,142.4H27.6c0.2-2.5,0.4-5,0.7-7.5c8.6-13.1,26.3-24.4,49.4-32.3
		C75.4,115.2,73.8,128.5,73.3,142.4z"/>
	<path  d="M371.9,265.9l-11.3-6.5c0.4-2.9,0.9-5.7,0.9-8.8c0-3-0.5-5.9-0.9-8.8l11.3-6.5c2.8-1.7,4.9-4.3,5.7-7.5
		c0.9-3.1,0.4-6.5-1.2-9.4l-15-25.9c-2.3-3.9-6.4-6.2-10.7-6.2c-2.1,0-4.2,0.6-6.2,1.7l-11.2,6.5c-4.7-3.6-9.7-6.8-15.3-9.1v-12.7
		c0-6.8-5.6-12.3-12.3-12.3h-29.9c-6.8,0-12.3,5.5-12.3,12.3v12.7c-5.6,2.3-10.6,5.5-15.3,9.1l-11.2-6.5c-1.9-1.1-4-1.7-6.2-1.7
		c-1,0-2.2,0.1-3.2,0.4c-3.1,0.9-5.9,2.9-7.5,5.7l-15,25.9c-3.4,5.9-1.4,13.5,4.5,16.8l11.3,6.5c-0.1,1-0.2,2-0.4,3
		c2.2,2,4.2,4.2,5.7,6.8l11.9,20.6c3.8,6.7,4.8,14.4,2.8,21.8c-1.4,5.1-4.1,9.5-7.8,13.1c1.7,1.7,3.1,3.6,4.4,5.6l10.6-6.1
		c4.7,3.6,9.7,6.8,15.3,9.1v12.7c0,6.8,5.6,12.3,12.3,12.3h29.9c6.8,0,12.3-5.5,12.3-12.3v-12.7c5.6-2.3,10.6-5.6,15.3-9.1l11.2,6.5
		c1.9,1.1,4,1.7,6.2,1.7c1,0,2.1-0.1,3.1-0.4c3.1-0.9,5.9-2.9,7.5-5.7l15-25.9C379.9,276.8,377.8,269.3,371.9,265.9z M290.8,295.3
		c-24.7,0-44.7-20.1-44.7-44.7s20.1-44.7,44.7-44.7c24.7,0,44.7,20.1,44.7,44.7C335.5,275.2,315.4,295.3,290.8,295.3z"/>
	<path  d="M290.8,218.4c-17.7,0-32.1,14.4-32.1,32.1c0,17.7,14.4,32.1,32.1,32.1c17.7,0,32.1-14.4,32.1-32.1
		C322.9,232.8,308.5,218.4,290.8,218.4z"/>
	<path  d="M218.3,319.3l-9-5.2c0.3-2.3,0.7-4.6,0.7-7c0-2.4-0.4-4.7-0.7-7l9-5.2c2.2-1.3,3.9-3.5,4.6-5.9
		c0.7-2.5,0.3-5.2-1-7.4l-11.9-20.5c-1.8-3.1-5.1-4.9-8.5-4.9c-1.7,0-3.3,0.4-4.9,1.3l-8.9,5.2c-3.8-2.8-7.8-5.4-12.2-7.2v-10.1
		c0-5.4-4.4-9.8-9.8-9.8h-23.8c-5.4,0-9.7,4.4-9.7,9.8v9.9c-4.4,1.9-8.4,4.4-12.2,7.2l-8.9-5.2c-1.5-0.9-3.1-1.3-4.9-1.3
		c-0.9,0-1.7,0.1-2.6,0.3c-2.5,0.7-4.6,2.3-5.9,4.6l-11.9,20.6c-2.7,4.7-1.1,10.7,3.6,13.4l8.9,5.2c-0.3,2.3-0.7,4.6-0.7,7
		c0,2.4,0.4,4.7,0.7,7l-8.9,5.2c-4.7,2.7-6.3,8.7-3.6,13.4l11.9,20.6c1.3,2.2,3.5,3.9,5.9,4.6c0.9,0.2,1.7,0.3,2.5,0.3
		c1.7,0,3.4-0.4,4.9-1.3l8.9-5.1c3.8,2.8,7.8,5.4,12.2,7.2v10.1c0,5.4,4.4,9.7,9.7,9.7h23.8c5.4,0,9.8-4.4,9.8-9.7V359
		c4.4-1.9,8.4-4.4,12.2-7.2l8.9,5.1c1.5,0.9,3.2,1.3,4.9,1.3c0.9,0,1.7-0.1,2.5-0.3c2.5-0.7,4.6-2.3,5.9-4.6l11.9-20.6
		C224.6,328,223,322,218.3,319.3z M153.8,334.1c-14.9,0-27-12.1-27-27c0-14.9,12.1-27,27-27c14.9,0,27,12.1,27,27
		C180.9,322.1,168.8,334.1,153.8,334.1z"/>
</g>
</svg>
