<?xml version="1.0" encoding="utf-8"?>
<!-- Generator: Adobe Illustrator 18.0.0, SVG Export Plug-In . SVG Version: 6.00 Build 0)  -->
<!DOCTYPE svg PUBLIC "-//W3C//DTD SVG 1.1//EN" "http://www.w3.org/Graphics/SVG/1.1/DTD/svg11.dtd">
<svg version="1.1" id="Capa_1" xmlns="http://www.w3.org/2000/svg" xmlns:xlink="http://www.w3.org/1999/xlink" x="0px" y="0px"
	 viewBox="0 0 380 380" enable-background="new 0 0 380 380" xml:space="preserve">
<g>
	<circle fill="#F7941D" cx="302.8" cy="302.8" r="13.1"/>
	<path fill="#F7941D" d="M375.9,289.8l-18.4-3.4c-1.1-3.7-2.6-7.3-4.4-10.6l10.6-15.5c1-1.4,0.8-3.6-0.5-4.8l-13.1-13.1
		c-1.2-1.2-3.4-1.4-4.8-0.5l-15.5,10.6c-3.4-1.9-7.1-3.3-10.9-4.5l-3.4-18.3c-0.3-1.7-2-3.1-3.7-3.1h-18.5c-1.7,0-3.4,1.4-3.7,3.1
		l-3.5,18.4c-3.7,1.1-7.2,2.6-10.5,4.4L260.3,242c-1.4-1-3.6-0.8-4.8,0.5l-13.1,13.1c-1.2,1.2-1.4,3.4-0.5,4.8l10.6,15.4
		c-1.8,3.3-3.2,6.8-4.3,10.5l-18.4,3.4c-1.7,0.3-3.1,2-3.1,3.7v18.5c0,1.7,1.4,3.4,3.1,3.7l18.3,3.4c1.1,3.7,2.6,7.3,4.4,10.7
		L242.1,345c-1,1.4-0.8,3.6,0.5,4.8l13.1,13.1c1.2,1.2,3.4,1.4,4.8,0.5l15.3-10.4c3.3,1.8,6.8,3.2,10.4,4.3l3.5,18.4
		c0.3,1.7,2,3.1,3.7,3.1h18.5c1.7,0,3.4-1.4,3.7-3.1l3.4-18.3c3.8-1.1,7.4-2.6,10.8-4.4l15.4,10.6c1.4,1,3.6,0.8,4.8-0.5l13.1-13.1
		c1.2-1.2,1.4-3.4,0.5-4.8l-10.5-15.4c1.9-3.4,3.3-7,4.5-10.8l18.3-3.4c1.7-0.3,3.1-2,3.1-3.7v-18.5
		C379,291.8,377.6,290.1,375.9,289.8z M302.8,334.6c-17.5,0-31.8-14.2-31.8-31.8c0-17.5,14.2-31.8,31.8-31.8
		c17.6,0,31.8,14.2,31.8,31.8C334.6,320.4,320.4,334.6,302.8,334.6z"/>
	<path fill="#F7941D" d="M211.7,312.1v-18.5c0-8.9,6.6-16.8,15.3-18.5l6-1.1l-3.4-5c-5-7.4-4.1-17.6,2.2-23.9l13.1-13.1
		c3.5-3.5,8.3-5.5,13.3-5.5c3.8,0,7.5,1.1,10.6,3.2l4.9,3.4l1.1-6.1c1.7-8.8,9.6-15.3,18.5-15.3h18.5c8.9,0,16.8,6.6,18.5,15.3
		l1.2,6.3l5.5-3.8c2.3-1.6,4.9-2.6,7.6-3c4.8-16,7.4-32.9,7.4-50.5C352,78.8,273.1,0,176,0S0,78.8,0,176s78.8,176,176,176
		c17.6,0,34.6-2.6,50.7-7.4c0.4-2.7,1.4-5.4,3-7.8l3.4-5l-6.1-1.2C218.1,328.8,211.7,321.1,211.7,312.1z M172.6,75.1
		c5.3-4.9,11.7-7.4,19.1-7.4s13.7,2.5,19,7.4c5.3,4.9,7.9,10.9,7.9,17.8c0,6.9-2.6,12.9-7.9,17.8c-5.3,4.9-11.6,7.3-19,7.3
		c-7.4,0-13.8-2.4-19.1-7.3c-5.3-4.9-8-10.8-8-17.8C164.6,86,167.3,80,172.6,75.1z M172.1,283.7c-10.9,0-19.5-2.7-25.6-8.1
		c-6.1-5.4-9.1-12.1-9.1-20.4c0-3.2,0.2-6.5,0.6-9.8c0.5-3.3,1.2-7.1,2.2-11.3l11.3-40c1-3.8,1.9-7.5,2.6-10.9c0.6-3.4,1-6.6,1-9.4
		c0-5.1-1-8.7-3.1-10.7c-2.1-2-6.1-3-12.1-3c-3,0-5.9,0.5-9,1.3c-3.1,0.9-5.7,1.8-7.9,2.6l3-12.3c7.4-3.1,14.5-5.6,21.3-7.8
		c6.8-2.1,13.2-3.2,19.2-3.2c10.9,0,19.3,2.7,25.2,7.9c5.9,5.3,8.9,12.1,8.9,20.5c0,1.8-0.2,4.8-0.6,9.2c-0.4,4.4-1.2,8.4-2.2,12
		l-11.3,39.9c-0.9,3.2-1.8,6.9-2.5,10.9c-0.7,4.1-1.1,7.2-1.1,9.4c0,5.3,1.2,8.9,3.5,10.8c2.3,1.9,6.5,2.9,12.3,2.9
		c2.8,0,5.8-0.5,9.4-1.5c3.4-0.9,5.9-1.8,7.5-2.5l-3,12.6c-9.1,3.6-16.3,6.3-21.7,8.2C185.5,282.8,179.2,283.7,172.1,283.7z"/>
</g>
</svg>
