<?xml version="1.0" encoding="utf-8"?>
<!-- Generator: Adobe Illustrator 19.2.0, SVG Export Plug-In . SVG Version: 6.00 Build 0)  -->
<svg version="1.1" id="Layer_1" xmlns="http://www.w3.org/2000/svg" xmlns:xlink="http://www.w3.org/1999/xlink" x="0px" y="0px"
	 viewBox="0 0 40 40" style="enable-background:new 0 0 40 40;" xml:space="preserve">
<style type="text/css">
	.st0{fill:#686868;}
</style>
<g>
	<g>
		<g>
			<path class="st0" d="M39.7,21.7"/>
		</g>
		<path class="st0" d="M21.3,24.9"/>
	</g>
	<g>
		<path class="st0" d="M39.8,18.1c-0.1-1.1-0.9-1.9-2-2.1l-2.8-0.4c-0.3-1.2-0.8-2.3-1.4-3.3l1.7-2.3c0.6-0.9,0.6-2-0.1-2.9
			c-0.8-1-1.7-1.8-2.6-2.6c-0.4-0.3-0.9-0.5-1.5-0.5c-0.5,0-1,0.2-1.4,0.5c-0.7,0.5-1.7,1.2-2.3,1.7c-1-0.6-2.1-1-3.3-1.4l-0.4-2.8
			c-0.2-1.1-1-1.9-2.1-2C21.1,0,20.5,0,19.9,0c-0.6,0-1.2,0-1.9,0.1C17,0.2,16.1,1,16,2.1l-0.4,2.8c-1.2,0.3-2.3,0.8-3.3,1.4L10,4.5
			C9.6,4.2,9.1,4.1,8.6,4.1c-0.5,0-1.1,0.2-1.5,0.5c-1,0.8-1.8,1.7-2.6,2.6c-0.7,0.8-0.7,2-0.1,2.9l1.7,2.3c-0.6,1-1,2.1-1.4,3.3
			l-2.8,0.4c-1.1,0.2-1.9,1-2,2.1c-0.1,1.2-0.1,2.5,0,3.7c0.1,1.1,0.9,1.9,2,2.1c0.9,0.1,2.1,0.3,2.8,0.4c0.3,1.2,0.8,2.3,1.4,3.3
			l-1.7,2.3c-0.6,0.9-0.6,2,0.1,2.9c0.8,0.9,1.7,1.8,2.6,2.6c0.4,0.3,0.9,0.5,1.5,0.5c0.5,0,1-0.2,1.4-0.5c0.7-0.5,1.7-1.2,2.3-1.7
			c1,0.6,2.2,1,3.3,1.4l0.4,2.8c0.2,1.1,1,1.9,2.1,2c0.6,0.1,1.2,0.1,1.8,0.1c0.6,0,1.2,0,1.9-0.1c1.1-0.1,1.9-0.9,2.1-2l0.4-2.8
			c1.1-0.3,2.3-0.8,3.3-1.4l2.3,1.7c0.4,0.3,0.9,0.5,1.4,0.5c0.5,0,1.1-0.2,1.5-0.5c1-0.8,1.8-1.7,2.6-2.6c0.7-0.8,0.7-2,0.1-2.9
			c-0.5-0.7-1.2-1.7-1.7-2.3c0.6-1,1-2.1,1.4-3.3l2.8-0.4c1.1-0.2,1.9-1,2-2.1C39.9,20.6,39.9,19.4,39.8,18.1z M38,21.7
			c0,0.2-0.2,0.4-0.4,0.4l-3.4,0.5c-0.4,0.1-0.7,0.3-0.8,0.7c-0.3,1.4-0.9,2.7-1.6,3.9c-0.2,0.3-0.2,0.7,0,1l2,2.7
			c0.1,0.2,0.1,0.4,0,0.6c-0.7,0.9-1.5,1.7-2.4,2.4c-0.1,0.1-0.2,0.1-0.3,0.1c-0.1,0-0.2,0-0.3-0.1l-2.7-2c-0.2-0.1-0.3-0.2-0.5-0.2
			c-0.2,0-0.3,0-0.5,0.1c-1.2,0.7-2.5,1.3-3.9,1.6c-0.4,0.1-0.6,0.4-0.7,0.8c0,0-0.3,2.1-0.5,3.4c0,0.2-0.2,0.4-0.4,0.4
			c-0.6,0.1-1.1,0.1-1.7,0.1c-0.6,0-1.1,0-1.7-0.1c-0.2,0-0.4-0.2-0.4-0.4l-0.5-3.4c-0.1-0.4-0.3-0.7-0.7-0.8
			c-1.4-0.3-2.7-0.9-3.9-1.6c-0.1-0.1-0.3-0.1-0.5-0.1c-0.2,0-0.4,0.1-0.5,0.2l-2.7,2c-0.1,0.1-0.2,0.1-0.3,0.1
			c-0.1,0-0.2,0-0.3-0.1c-0.9-0.7-1.7-1.5-2.4-2.4c-0.1-0.2-0.1-0.4,0-0.6l2-2.7c0.2-0.3,0.2-0.7,0-1c-0.7-1.2-1.3-2.5-1.6-3.9
			c-0.1-0.4-0.4-0.6-0.8-0.7c0,0-2.1-0.3-3.4-0.5c-0.2,0-0.4-0.2-0.4-0.4c-0.1-1.1-0.1-2.2,0-3.4c0-0.2,0.2-0.4,0.4-0.4l3.4-0.5
			c0.4-0.1,0.7-0.3,0.8-0.7C6.7,15.3,7.2,14,8,12.8c0.2-0.3,0.2-0.7,0-1c0,0-1.2-1.7-2-2.7c-0.1-0.2-0.1-0.4,0-0.6
			C6.6,7.5,7.4,6.7,8.3,6C8.4,6,8.5,5.9,8.6,5.9c0.1,0,0.2,0,0.3,0.1l2.7,2c0.2,0.1,0.3,0.2,0.5,0.2c0.2,0,0.3,0,0.5-0.1
			c1.2-0.7,2.5-1.3,3.9-1.6c0.4-0.1,0.6-0.4,0.7-0.8l0.5-3.4c0-0.2,0.2-0.4,0.4-0.4c0.6-0.1,1.1-0.1,1.7-0.1c0.6,0,1.1,0,1.7,0.1
			c0.2,0,0.4,0.2,0.4,0.4l0.5,3.4c0.1,0.4,0.3,0.7,0.7,0.8c1.4,0.3,2.7,0.9,3.9,1.6c0.1,0.1,0.3,0.1,0.5,0.1c0.2,0,0.4-0.1,0.5-0.2
			l2.7-2C31,6,31.1,5.9,31.2,5.9c0.1,0,0.2,0,0.3,0.1c0.9,0.7,1.7,1.5,2.4,2.4C34,8.6,34,8.8,33.9,9l-2,2.7c-0.2,0.3-0.2,0.7,0,1
			c0.7,1.2,1.3,2.5,1.6,3.9c0.1,0.4,0.4,0.6,0.8,0.7c0,0,2.1,0.3,3.4,0.5c0.2,0,0.4,0.2,0.4,0.4C38.1,19.4,38.1,20.6,38,21.7z"/>
		<path class="st0" d="M19.9,13.5c-3.6,0-6.5,2.9-6.5,6.5s2.9,6.5,6.5,6.5s6.5-2.9,6.5-6.5S23.4,13.5,19.9,13.5z M19.9,24.6
			c-2.5,0-4.6-2.1-4.6-4.6c0-2.5,2.1-4.6,4.6-4.6c2.5,0,4.6,2.1,4.6,4.6C24.5,22.5,22.4,24.6,19.9,24.6z"/>
		<path class="st0" d="M16.5,10.6c-0.1-0.5-0.4-0.8-0.9-0.8c0,0-0.1,0-0.1,0c0,0-4.9,0.7-5.7,5.7c-0.1,0.5,0.3,1,0.8,1.1
			c0.1,0,0.1,0,0.2,0c0.5,0,0.8-0.3,0.9-0.8c0.6-3.6,4-4.1,4.1-4.2C16.2,11.6,16.6,11.2,16.5,10.6z"/>
	</g>
</g>
</svg>
