<?xml version="1.0" encoding="utf-8"?>
<!-- Generator: Adobe Illustrator 19.2.0, SVG Export Plug-In . SVG Version: 6.00 Build 0)  -->
<svg version="1.1" id="Layer_1" xmlns="http://www.w3.org/2000/svg" xmlns:xlink="http://www.w3.org/1999/xlink" x="0px" y="0px"
	 viewBox="0 0 120 120" style="enable-background:new 0 0 120 120;" xml:space="preserve">
<style type="text/css">
	.st0{fill:#FFFFFF;}
</style>
<g>
	<path class="st0" d="M29.2,55.1c0,1.4-1.2,2.6-2.6,2.6h-8.8c-1.4,0-2.6-1.2-2.6-2.6s1.2-2.6,2.6-2.6h8.8
		C28,52.4,29.2,53.6,29.2,55.1L29.2,55.1z"/>
	<path class="st0" d="M29.2,73c0,1.4-1.2,2.6-2.6,2.6h-8.8c-1.4,0-2.6-1.2-2.6-2.6s1.2-2.6,2.6-2.6h8.8C28,70.3,29.2,71.5,29.2,73
		L29.2,73z"/>
	<path class="st0" d="M29.2,91c0,1.4-1.2,2.6-2.6,2.6h-8.8c-1.4,0-2.6-1.2-2.6-2.6s1.2-2.6,2.6-2.6h8.8C28,88.2,29.2,89.4,29.2,91
		L29.2,91z"/>
	<path class="st0" d="M52.4,55.1c0,1.4-1.2,2.6-2.6,2.6H43c-1.4,0-2.6-1.2-2.6-2.6s1.2-2.6,2.6-2.6h6.8
		C51.2,52.4,52.4,53.6,52.4,55.1L52.4,55.1z"/>
	<path class="st0" d="M52.4,73c0,1.4-1.2,2.6-2.6,2.6H43c-1.4,0-2.6-1.2-2.6-2.6s1.2-2.6,2.6-2.6h6.8C51.2,70.3,52.4,71.5,52.4,73
		L52.4,73z"/>
	<path class="st0" d="M52.4,91c0,1.4-1.2,2.6-2.6,2.6H43c-1.4,0-2.6-1.2-2.6-2.6s1.2-2.6,2.6-2.6h6.8C51.2,88.2,52.4,89.4,52.4,91
		L52.4,91z"/>
	<path class="st0" d="M45.6,105.4H9.1c-2,0-3.6-1.6-3.6-3.6V40.6h109.1v2.7L120,47V20.6c0-4.9-4.1-9-9-9H99.2V5c0-2.8-2.3-5-5-5H87
		c-2.8,0-5,2.3-5,5v6.5H38.8V5c0-2.8-2.3-5-5-5h-7.2c-2.8,0-5,2.3-5,5v6.5H9c-4.9,0.1-9,4.2-9,9.1v81.1c0,4.9,4.1,9,9,9h38.3
		L45.6,105.4z M87.2,5.5H94v16h-6.7v-16H87.2z M26.8,5.5h6.7v16h-6.7V5.5z M5.5,20.6c0-2,1.6-3.6,3.6-3.6h12.4v4.8c0,2.8,2.3,5,5,5
		h7.2c2.8,0,5-2.3,5-5V17h43v4.8c0,2.8,2.3,5,5,5H94c2.8,0,5-2.3,5-5V17h11.9c2,0,3.6,1.6,3.6,3.6v14.5H5.5V20.6z"/>
	<g>
		<path class="st0" d="M120,87.4c0,17.5-15.1,32.6-32.7,32.6c-17.5,0-32.6-15.1-32.6-32.5c0-17.7,15-32.7,32.7-32.7
			C104.8,54.7,120,69.9,120,87.4z M87.4,61.2c-14.9,0-26.2,11.3-26.3,26.1c0,14.9,11.2,26.2,26.1,26.3c15,0,26.2-11.2,26.3-26.2
			C113.6,72.6,102.3,61.2,87.4,61.2z"/>
		<path class="st0" d="M90.1,84.7c0.6,0,1,0,1.4,0c4.3,0,8.6,0,12.8,0c2.1,0,3.5,1.3,3.5,3.2c0,1.9-1.4,3.2-3.5,3.2
			c-5.7,0-11.4,0-17.2,0c-2.2,0-3.5-1.3-3.5-3.4c0-5.8,0-11.6,0-17.4c0-1.8,1.1-3.1,2.6-3.4c1.5-0.3,3,0.6,3.5,2
			c0.2,0.6,0.2,1.2,0.2,1.8c0,4.1,0,8.3,0,12.4C90.1,83.7,90.1,84.1,90.1,84.7z"/>
	</g>
</g>
</svg>
