<?xml version="1.0" encoding="utf-8"?>
<!-- Generator: Adobe Illustrator 18.0.0, SVG Export Plug-In . SVG Version: 6.00 Build 0)  -->
<!DOCTYPE svg PUBLIC "-//W3C//DTD SVG 1.1//EN" "http://www.w3.org/Graphics/SVG/1.1/DTD/svg11.dtd">
<svg version="1.1" id="Capa_1" xmlns="http://www.w3.org/2000/svg" xmlns:xlink="http://www.w3.org/1999/xlink" x="0px" y="0px"
	 viewBox="0 0 380 380" enable-background="new 0 0 380 380" xml:space="preserve">
<g>
	<polygon fill="#F7941D" points="235.6,2 235.6,72.7 306.3,72.7 	"/>
	<path fill="#F7941D" d="M245,373.7l-13.1-13.1c-6.3-6.3-7.3-16.5-2.2-23.9l3.4-5l-6.1-1.2c-8.9-1.7-15.3-9.5-15.3-18.5v-3.8H47.1
		v-23.6h166.8c2.6-4.9,7.4-8.6,13-9.7l6-1.1l-3.4-5c-5-7.4-4.1-17.6,2.2-23.9l7.4-7.4h-192V214h235.6v0.9c3.1-2.1,6.7-3.3,10.5-3.3
		h18.5c8.3,0,15.8,5.8,18.1,13.6v-129H212V2H0v377h255.6c0.9,0.1,1.8,0.2,2.7,0.2c1,0,1.9-0.1,2.9-0.2h-5.6
		C251.6,378.4,247.8,376.6,245,373.7z M47.1,72.7h141.4v23.6H47.1V72.7z M47.1,143.4h235.6V167H47.1V143.4z"/>
	<path fill="#F7941D" d="M273.7,372.7l-4.8,3.3c-2.3,1.6-5,2.6-7.7,3h13.7c0-0.1,0-0.2-0.1-0.3L273.7,372.7z"/>
	<circle fill="#F7941D" cx="303" cy="302.8" r="13"/>
	<path fill="#F7941D" d="M375.2,290l-18.1-3.4c-1.1-3.7-2.5-7.2-4.3-10.5l10.5-15.3c1-1.4,0.8-3.6-0.4-4.8L350,243.1
		c-1.2-1.2-3.3-1.4-4.8-0.4l-15.3,10.5c-3.4-1.8-7-3.3-10.8-4.4l-3.4-18c-0.3-1.7-2-3.1-3.7-3.1h-18.3c-1.7,0-3.4,1.4-3.7,3.1
		l-3.4,18.2c-3.6,1.1-7.1,2.5-10.4,4.3L261,242.9c-1.4-1-3.6-0.8-4.8,0.4l-12.9,12.9c-1.2,1.2-1.4,3.3-0.4,4.8l10.4,15.2
		c-1.8,3.3-3.2,6.7-4.3,10.4l-18.1,3.4c-1.7,0.3-3.1,2-3.1,3.7V312c0,1.7,1.4,3.4,3.1,3.7L249,319c1.1,3.7,2.6,7.2,4.4,10.6
		l-10.3,15.1c-1,1.4-0.8,3.6,0.4,4.8l12.9,12.9c1.2,1.2,3.3,1.4,4.8,0.5l15.1-10.3c3.2,1.8,6.7,3.2,10.3,4.3l3.4,18.2
		c0.3,1.7,2,3.1,3.7,3.1H312c1.7,0,3.4-1.4,3.7-3.1l3.4-18c3.7-1.1,7.3-2.6,10.7-4.4l15.2,10.4c1.4,1,3.6,0.8,4.8-0.5l12.9-12.9
		c1.2-1.2,1.4-3.3,0.5-4.8l-10.4-15.2c1.8-3.4,3.3-7,4.4-10.7l18.1-3.4c1.7-0.3,3-2,3-3.7v-18.3C378.2,291.9,376.8,290.3,375.2,290z
		 M303,334.2c-17.3,0-31.4-14-31.4-31.4c0-17.3,14-31.4,31.4-31.4c17.3,0,31.4,14,31.4,31.4C334.4,320.1,320.4,334.2,303,334.2z"/>
</g>
</svg>
