<?xml version="1.0" encoding="utf-8"?>
<!-- Generator: Adobe Illustrator 19.2.0, SVG Export Plug-In . SVG Version: 6.00 Build 0)  -->
<svg version="1.1" id="Layer_1" xmlns="http://www.w3.org/2000/svg" xmlns:xlink="http://www.w3.org/1999/xlink" x="0px" y="0px"
	 viewBox="0 0 100 100" style="enable-background:new 0 0 100 100;" xml:space="preserve">
<style type="text/css">
	.st0{fill:#FFFFFF;}
</style>
<g>
	<path d="M393,171.4c0-11.5-8-21.1-18.7-23.6c-1.8-0.4-3.6-0.6-5.5-0.6c-0.5,0-1,0-1.6,0.1c-11.7,0.7-21.2,9.8-22.5,21.3
		c-0.1,0.9-0.2,1.8-0.2,2.7c0,1.7,0.2,3.4,0.5,5.1c2.3,10.9,12,19.1,23.7,19.1C382.2,195.6,393,184.8,393,171.4L393,171.4z
		 M368.8,187.4c-8.8,0-16-7.2-16-16s7.2-16,16-16c8.8,0,16,7.2,16,16C384.8,180.2,377.6,187.4,368.8,187.4L368.8,187.4z"/>
	<path d="M371.9,160.4h-5.5v8.6h-8.6v5.5h14.1V169V160.4z"/>
	<path d="M311,95.6c-1.5,0-2.7,1.2-2.7,2.7v12.9c0,1.5,1.2,2.7,2.7,2.7h2.3c1.5,0,2.7-1.2,2.7-2.7V98.3c0-1.5-1.2-2.7-2.7-2.7H311z"
		/>
	<path d="M353.9,95.6c-1.5,0-2.7,1.2-2.7,2.7v12.9c0,1.5,1.2,2.7,2.7,2.7h2.3c1.5,0,2.7-1.2,2.7-2.7V98.3c0.1-1.5-1.1-2.7-2.6-2.7
		H353.9z"/>
	<path d="M299.2,176.5h38.7c-0.4-1.9-0.6-3.9-0.6-5.9c0-0.7,0-1.3,0.1-2h-32.7c-2.6,0-4.7-2-4.7-4.6v-37.5h67.2V141c0.5,0,1,0,1.6,0
		c1.9,0,3.7,0.2,5.5,0.5v-30.7c0-3.5-2.8-6.3-6.2-6.3H363v6.6c0,3.7-3,6.6-6.6,6.6h-2.3c-3.7,0-6.6-3-6.6-6.6v-6.5H320v6.6
		c0,3.7-3,6.6-6.6,6.6H311c-3.7,0-6.6-3-6.6-6.6v-6.6h-5.2c-3.4,0-6.2,2.8-6.2,6.2v59.4C293,173.7,295.8,176.5,299.2,176.5
		L299.2,176.5z"/>
	<path d="M321.2,138.2c0,3.4-2.8,6.2-6.2,6.2s-6.2-2.8-6.2-6.2c0-3.4,2.8-6.2,6.2-6.2S321.2,134.8,321.2,138.2L321.2,138.2z"/>
	<path d="M339.8,138.2c0,3.4-2.8,6.2-6.2,6.2s-6.2-2.8-6.2-6.2c0-3.4,2.8-6.2,6.2-6.2S339.8,134.8,339.8,138.2L339.8,138.2z"/>
	<path d="M358.4,138.2c0,3.4-2.8,6.2-6.2,6.2c-3.4,0-6.2-2.8-6.2-6.2c0-3.4,2.8-6.2,6.2-6.2C355.7,132,358.4,134.8,358.4,138.2
		L358.4,138.2z"/>
	<path d="M339.8,156.9c0,3.4-2.8,6.2-6.2,6.2s-6.2-2.8-6.2-6.2c0-3.4,2.8-6.2,6.2-6.2S339.8,153.5,339.8,156.9L339.8,156.9z"/>
	<path d="M321.2,156.9c0,3.4-2.8,6.2-6.2,6.2s-6.2-2.8-6.2-6.2c0-3.4,2.8-6.2,6.2-6.2S321.2,153.5,321.2,156.9L321.2,156.9z"/>
</g>
<g>
	<g>
		<path class="st0" d="M70.7,35.7c0.4,0.1,0.9,0.3,1.3,0.4c1.1,0.3,1.5,1.1,1.2,2.2c-0.8,2.5-1.7,5-2.6,7.4c-0.3,0.8-1.1,1.2-1.9,1
			c-0.8-0.2-1.3-1-1.2-1.8c0.5-2.6,1.1-5.3,1.7-7.9c0.1-0.5,0.7-0.8,1-1.3C70.4,35.8,70.6,35.8,70.7,35.7z"/>
		<path class="st0" d="M56.5,48.4c2.2-0.3,4.8,0.1,7.3,0.8c5.6,1.6,10.7,4.5,15.4,7.8c4.3,3,8.2,6.4,11.3,10.7c1.4,1.9,2.6,4,3,6.4
			c0.8,4.2-1.9,6.6-5.6,6.9c-3.8,0.3-7.4-0.8-10.8-2.2c-7.4-3.1-13.9-7.5-19.5-13.2c-2.4-2.4-4.5-5-5.7-8.3
			c-0.4-1.1-0.7-2.4-0.7-3.6C51.3,50.9,53.1,49,56.5,48.4z M58.6,53.7c-0.3,0.1-0.7,0.2-1,0.4c-0.2,0.1-0.4,0.4-0.4,0.6
			c0,0.5,0.1,0.9,0.2,1.4c0.5,1.8,1.6,3.4,2.8,4.8c4.4,5.1,9.7,8.9,15.7,11.9c2.5,1.2,5,2.3,7.7,2.7c1.2,0.2,2.5,0.3,3.7-0.2
			c0.3-0.1,0.6-0.5,0.6-0.7c0.1-0.5,0-0.9-0.2-1.4c-0.4-1.6-1.4-3-2.4-4.3c-5.7-6.7-12.8-11.5-21.1-14.4
			C62.4,53.8,60.6,53.4,58.6,53.7z"/>
		<path class="st0" d="M51.4,62c1.3,1.6,2.8,3.4,4.2,5.3c0.2,0.3,0.4,0.8,0.4,1.1c0.1,3.1-0.3,6.1-1.4,9c-0.1,0.3-0.1,0.7,0,1
			c1.3,2.9,3.6,4.8,6.3,6.3c1.6,0.9,3.4,1.5,5.2,1.6c0.3,0,0.7-0.1,0.9-0.3c2.3-2.1,4.9-3.6,7.9-4.7c0.4-0.1,1-0.1,1.4,0
			c2.1,0.6,4.1,1.3,6.1,1.9c-0.2,0-0.6,0.1-1,0.2c-6.2,1.1-11,4.3-14.6,9.5c-1,1.5-2.1,3-3.1,4.5c-1.4,2.3-3.5,3.2-6,2.9
			c-6.1-0.7-10.7-3.8-13.4-9.4c-1-2.1-0.9-4.1,0.6-6.1c1.6-2.2,3.1-4.5,4.5-6.9c2.1-3.7,2.9-7.7,2.4-11.9
			C51.8,64.6,51.6,63.1,51.4,62z"/>
		<path class="st0" d="M97.5,53.8c0.2,0,0.4,0,0.6,0c0.7,0.1,1.8,1.2,1.9,2c0.1,0.8-0.3,1.4-1,1.9c-2.1,1.4-4.2,2.8-6.2,4.2
			c-1.1,0.8-2.6,0.1-2.6-1.2c0-0.4,0.2-1,0.6-1.3c1.9-1.7,3.9-3.4,5.9-5.1C96.9,54.1,97.2,53.9,97.5,53.8z"/>
		<path class="st0" d="M82.4,52.3c-0.7,0-1.3-0.1-1.7-0.6c-0.4-0.5-0.5-1.2-0.2-1.7c1.4-2.3,2.7-4.7,4.1-7c0.5-0.8,1.3-1,2.2-0.5
			c0.3,0.2,0.6,0.3,0.8,0.5c0.9,0.7,1,1.6,0.3,2.5c-1.6,2-3.1,4.1-4.7,6.1C83.1,51.8,82.7,52,82.4,52.3z"/>
		<path class="st0" d="M66.6,63.6c1.2-1.3,2.6-1.8,4.2-1.5c2.2,0.5,4,1.7,5,3.8c0.5,1.2,0.4,2.4-0.2,3.7
			C72.4,67.9,69.5,65.9,66.6,63.6z"/>
	</g>
	<path class="st0" d="M12.2,62h24.8c1,0,1.7-0.8,1.7-1.7c0-0.9-0.8-1.7-1.7-1.7H12.2c-1,0-1.7,0.8-1.7,1.7
		C10.4,61.2,11.2,62,12.2,62L12.2,62z"/>
	<path class="st0" d="M37.5,68.9H12.2c-1,0-1.7,0.8-1.7,1.7c0,0.9,0.8,1.7,1.7,1.7h25.4c1,0,1.7-0.8,1.7-1.7
		C39.3,69.7,38.5,68.9,37.5,68.9L37.5,68.9z"/>
	<path class="st0" d="M12.2,31h22.4c0.9,0,1.7-0.8,1.7-1.7c0-1-0.8-1.7-1.7-1.7H12.2c-1,0-1.7,0.8-1.7,1.7
		C10.4,30.2,11.2,31,12.2,31L12.2,31z"/>
	<path class="st0" d="M37,82.7c0.9,0,1.7-0.8,1.7-1.7c0-1-0.8-1.7-1.7-1.7H12.2c-1,0-1.7,0.8-1.7,1.7c0,0.9,0.8,1.7,1.7,1.7
		C12.2,82.7,37,82.7,37,82.7z"/>
	<path class="st0" d="M54.6,37.9H12.2c-1,0-1.7,0.8-1.7,1.7c0,1,0.8,1.7,1.7,1.7h42.5c0.9,0,1.7-0.8,1.7-1.7
		C56.3,38.7,55.6,37.9,54.6,37.9L54.6,37.9z"/>
	<path class="st0" d="M12.2,51.7h29.1c0.9,0,1.7-0.8,1.7-1.7c0-0.9-0.8-1.7-1.7-1.7H12.2c-1,0-1.7,0.8-1.7,1.7
		C10.4,50.9,11.2,51.7,12.2,51.7L12.2,51.7z"/>
	<path class="st0" d="M35.7,91.5H3.5V13.8h12.1v3.4c0,1,0.8,1.7,1.7,1.7h39.6c1,0,1.7-0.8,1.7-1.7v-3.4h12.1v15.4
		c0,1,0.8,1.7,1.7,1.7c0.9,0,1.7-0.8,1.7-1.7V12.1c0-1-0.8-1.7-1.7-1.7H58.7V6.9c0-0.9-0.8-1.7-1.7-1.7H46.6V1.7
		c0-0.9-0.8-1.7-1.7-1.7H29.4c-1,0-1.7,0.8-1.7,1.7v3.4H17.3c-0.9,0-1.7,0.8-1.7,1.7v3.5H1.8c-1,0-1.7,0.8-1.7,1.7v81.1
		c0,0.9,0.8,1.7,1.7,1.7h33.8c0.9,0,1.7-0.8,1.7-1.7C37.4,92.2,36.6,91.5,35.7,91.5L35.7,91.5z M31.1,3.5h12.1v6.9H31.1
		C31.1,10.3,31.1,3.5,31.1,3.5z M19,8.6h8.6v3.5c0,0.9,0.8,1.7,1.7,1.7h15.5c0.9,0,1.7-0.8,1.7-1.7V8.6h8.6v6.9H19V8.6z"/>
</g>
</svg>
