<?xml version="1.0" encoding="iso-8859-1"?>
<!-- Generator: Adobe Illustrator 19.2.0, SVG Export Plug-In . SVG Version: 6.00 Build 0)  -->
<svg version="1.1" id="Layer_1" xmlns="http://www.w3.org/2000/svg" xmlns:xlink="http://www.w3.org/1999/xlink" x="0px" y="0px"
	 viewBox="0 0 40 40" style="enable-background:new 0 0 40 40;" xml:space="preserve">
<g>
	<g>
		<path style="fill:#FFFFFF;" d="M28.242,14.243c0.169,0.052,0.339,0.103,0.508,0.155c0.422,0.13,0.61,0.458,0.47,0.875
			c-0.333,0.992-0.676,1.981-1.026,2.967c-0.12,0.338-0.447,0.498-0.77,0.41c-0.33-0.09-0.536-0.383-0.464-0.731
			c0.218-1.052,0.439-2.103,0.697-3.145c0.047-0.19,0.274-0.334,0.418-0.5C28.131,14.264,28.187,14.253,28.242,14.243z"/>
		<path style="fill:#FFFFFF;" d="M22.571,19.273c0.886-0.136,1.914,0.026,2.925,0.319c2.248,0.651,4.257,1.782,6.155,3.121
			c1.703,1.202,3.273,2.552,4.509,4.251c0.563,0.774,1.043,1.596,1.213,2.555c0.299,1.685-0.777,2.621-2.238,2.735
			c-1.517,0.118-2.935-0.306-4.305-0.885c-2.937-1.241-5.532-3.003-7.776-5.269c-0.952-0.962-1.807-2.01-2.282-3.299
			c-0.169-0.458-0.274-0.967-0.277-1.454C20.489,20.278,21.224,19.534,22.571,19.273z M23.393,21.403
			c-0.11,0.037-0.265,0.066-0.391,0.142c-0.082,0.049-0.168,0.166-0.171,0.255c-0.006,0.184,0.022,0.376,0.07,0.555
			c0.2,0.736,0.639,1.339,1.126,1.904c1.743,2.024,3.868,3.551,6.247,4.736c0.981,0.489,1.99,0.908,3.079,1.092
			c0.494,0.083,0.995,0.133,1.47-0.082c0.107-0.048,0.23-0.182,0.244-0.29c0.023-0.18-0.016-0.375-0.064-0.554
			c-0.174-0.651-0.539-1.203-0.967-1.707c-2.275-2.676-5.092-4.571-8.392-5.751C24.932,21.449,24.194,21.296,23.393,21.403z"/>
		<path style="fill:#FFFFFF;" d="M20.543,24.69c0.518,0.647,1.105,1.369,1.676,2.103c0.096,0.124,0.171,0.299,0.176,0.454
			c0.045,1.235-0.112,2.441-0.562,3.603c-0.044,0.114-0.038,0.283,0.014,0.394c0.529,1.145,1.443,1.914,2.518,2.513
			c0.649,0.362,1.338,0.615,2.088,0.645c0.125,0.005,0.284-0.047,0.374-0.13c0.913-0.846,1.967-1.454,3.135-1.862
			c0.169-0.059,0.389-0.045,0.565,0.006c0.822,0.237,1.636,0.499,2.426,0.744c-0.092,0.018-0.238,0.048-0.386,0.074
			c-2.47,0.433-4.399,1.703-5.813,3.767c-0.411,0.6-0.852,1.182-1.218,1.808c-0.546,0.934-1.381,1.292-2.386,1.17
			c-2.426-0.294-4.246-1.518-5.336-3.733c-0.408-0.829-0.343-1.636,0.22-2.423c0.636-0.889,1.245-1.804,1.785-2.754
			c0.832-1.465,1.15-3.059,0.953-4.741C20.705,25.738,20.609,25.153,20.543,24.69z"/>
		<path style="fill:#FFFFFF;" d="M38.901,21.443c0.092,0.008,0.158,0.01,0.223,0.019c0.269,0.039,0.723,0.483,0.774,0.793
			c0.056,0.336-0.112,0.566-0.39,0.75c-0.833,0.55-1.664,1.104-2.482,1.675c-0.429,0.3-1.033,0.036-1.021-0.494
			c0.004-0.176,0.098-0.398,0.227-0.514c0.77-0.693,1.562-1.363,2.351-2.036C38.68,21.552,38.805,21.5,38.901,21.443z"/>
		<path style="fill:#FFFFFF;" d="M32.889,20.835c-0.281,0.011-0.505-0.04-0.658-0.257c-0.151-0.213-0.202-0.459-0.066-0.692
			c0.542-0.929,1.09-1.855,1.649-2.774c0.193-0.318,0.532-0.388,0.863-0.211c0.116,0.062,0.226,0.138,0.33,0.218
			c0.357,0.275,0.406,0.622,0.129,0.985c-0.618,0.81-1.238,1.619-1.868,2.421C33.172,20.65,33.018,20.732,32.889,20.835z"/>
		<path style="fill:#FFFFFF;" d="M26.614,25.348c0.482-0.509,1.031-0.723,1.666-0.588c0.892,0.19,1.595,0.669,1.984,1.523
			c0.219,0.481,0.175,0.969-0.066,1.487C28.927,27.076,27.754,26.271,26.614,25.348z"/>
	</g>
	<path style="fill:#FFFFFF;" d="M4.898,24.713h9.881c0.379,0,0.687-0.308,0.687-0.687c0-0.378-0.308-0.687-0.687-0.687H4.898
		c-0.379,0-0.687,0.309-0.687,0.687C4.211,24.405,4.519,24.713,4.898,24.713L4.898,24.713z M4.898,24.713"/>
	<path style="fill:#FFFFFF;" d="M15.02,27.458H4.898c-0.379,0-0.687,0.309-0.687,0.687s0.308,0.687,0.687,0.687H15.02
		c0.379,0,0.687-0.309,0.687-0.687S15.399,27.458,15.02,27.458L15.02,27.458z M15.02,27.458"/>
	<path style="fill:#FFFFFF;" d="M4.898,12.355h8.922c0.378,0,0.687-0.305,0.687-0.684c0-0.383-0.309-0.687-0.687-0.687H4.898
		c-0.379,0-0.687,0.305-0.687,0.687C4.211,12.05,4.519,12.355,4.898,12.355L4.898,12.355z M4.898,12.355"/>
	<path style="fill:#FFFFFF;" d="M14.815,32.948c0.378,0,0.687-0.305,0.687-0.684c0-0.383-0.309-0.687-0.687-0.687H4.898
		c-0.379,0-0.687,0.305-0.687,0.687c0,0.378,0.308,0.684,0.687,0.684H14.815z M14.815,32.948"/>
	<path style="fill:#FFFFFF;" d="M21.818,15.104H4.898c-0.379,0-0.687,0.305-0.687,0.684c0,0.382,0.308,0.686,0.687,0.686h16.92
		c0.378,0,0.687-0.305,0.687-0.686C22.505,15.408,22.196,15.104,21.818,15.104L21.818,15.104z M21.818,15.104"/>
	<path style="fill:#FFFFFF;" d="M4.898,20.593h11.6c0.378,0,0.687-0.308,0.687-0.687c0-0.378-0.309-0.686-0.687-0.686h-11.6
		c-0.379,0-0.687,0.308-0.687,0.686C4.211,20.285,4.519,20.593,4.898,20.593L4.898,20.593z M4.898,20.593"/>
	<path style="fill:#FFFFFF;" d="M14.266,36.451h-12.8V5.491h4.803v1.374c0,0.379,0.309,0.687,0.687,0.687h15.787
		c0.379,0,0.687-0.308,0.687-0.687V5.491h4.807v6.144c0,0.379,0.308,0.687,0.687,0.687c0.378,0,0.683-0.308,0.683-0.687V4.807
		c0-0.383-0.305-0.687-0.683-0.687h-5.494V2.745c0-0.378-0.308-0.686-0.687-0.686h-4.115V0.687C18.627,0.309,18.318,0,17.94,0
		h-6.177c-0.379,0-0.687,0.309-0.687,0.687v1.371h-4.12c-0.378,0-0.687,0.308-0.687,0.686V4.12h-5.49
		c-0.379,0-0.687,0.305-0.687,0.687v32.331c0,0.378,0.308,0.684,0.687,0.684h13.487c0.378,0,0.687-0.305,0.687-0.684
		C14.953,36.755,14.644,36.451,14.266,36.451L14.266,36.451z M12.445,1.375h4.807V4.12h-4.807V1.375z M7.643,3.432h3.432v1.375
		c0,0.378,0.308,0.684,0.687,0.684h6.177c0.378,0,0.687-0.305,0.687-0.684V3.432h3.432v2.745H7.643V3.432z M7.643,3.432"/>
</g>
</svg>
