<?xml version="1.0" encoding="utf-8"?>
<!-- Generator: Adobe Illustrator 18.0.0, SVG Export Plug-In . SVG Version: 6.00 Build 0)  -->
<!DOCTYPE svg PUBLIC "-//W3C//DTD SVG 1.1//EN" "http://www.w3.org/Graphics/SVG/1.1/DTD/svg11.dtd">
<svg version="1.1" id="Capa_1" xmlns="http://www.w3.org/2000/svg" xmlns:xlink="http://www.w3.org/1999/xlink" x="0px" y="0px"
	fill="#F7941D" viewBox="0 0 380 380" enable-background="new 0 0 380 380" xml:space="preserve">
<g>
	<path fill="#F7941D" d="M309,251.7c-8.2-9.1-18.1-13.5-30.8-13.5h-26.6l-17.5-16.9c-12.9,10.5-28.4,16.6-45.3,16.6
		c-15.8,0-30.8-5.5-42.9-14.9L130.4,238h-27.7c-14.1,0-25,4.8-33.7,14.7c-12.9,14.9-18,27.7-19.7,39.2c-2.3,15.7,9.8,29.8,25.6,29.8
		H302c14.9,0,26.6-12.5,25.9-27.2C327.5,281.8,323.3,267.7,309,251.7z"/>
	<path fill="#F7941D" d="M116,122.8c-5,4.2-8.4,11-8.4,18.7c0,11.6,7.6,21.1,17.3,22.7c2.1,17.5,9.3,32.8,20,44.2
		c2.3,2.3,4.6,4.6,7.2,6.6c3.2,2.5,6.6,4.6,10.1,6.6c7.9,4.2,16.9,6.6,26.3,6.6c9.5,0,18.3-2.3,26.3-6.6c3.6-1.9,6.9-4,10.1-6.6
		c2.5-1.9,4.8-4.2,7.2-6.6c10.5-11.3,17.9-26.5,19.8-44c0.2,0,0.4,0,0.6,0c11.1,0,20-10.3,20-23c0-7.8-3.4-14.5-8.4-18.7H116V122.8z
		"/>
	<path fill="#F7941D" d="M265.3,84.1c-6.6-21.7-23.8-43.7-45.6-55.1v49.4v6.7c0,0.4,0,0.6,0,0.8c-0.2,2.3-0.6,4.4-1.6,6.6
		c-2.8,5.2-8.2,9.1-14.5,9.1h-3.4H177c-5.9,0-11.1-3.2-13.9-7.8c-1.3-1.9-1.9-4-2.3-6.3c-0.2-0.8-0.2-1.4-0.2-2.3v-5.9V28.7
		c-21.9,11.6-39.1,33.7-45.6,55.3l-1.4,4.6h-12v26.2h13.2h18.5h7.8h101.4h7.6h28.7v-1.3v-25h-11.8L265.3,84.1z"/>
	<path fill="#F7941D" d="M176.8,95h26.2c3.8,0,6.9-2.1,8.6-5.3c0.8-1.4,1.3-2.9,1.3-4.6v-1.9v-7.8V25.7v-7.2v-2.8
		c0-1.6-0.4-3.2-0.8-4.6c-1.9-4.8-6.7-8.4-12.2-8.4h-23.2c-5,0-9.3,3.8-9.7,8.6c0,0.4-0.2,0.8-0.2,1.3v5.9v7.2v50.4v7.9V85
		c0,2.1,0.6,4,1.6,5.7C170.5,93.3,173.5,95,176.8,95z"/>
</g>
<path fill="#F7941D" d="M97.3,347.8c0.5-0.5,0.8-1.3,0.5-2c-0.3-0.8-0.9-1.3-1.6-1.3l-15.2-1.1c-0.7-0.1-1.3-0.5-1.6-1.1l-6.1-14
	c-0.3-0.7-1-1.1-1.8-1.1c-0.8,0-1.4,0.5-1.7,1.1l-5.7,14.1c-0.3,0.7-0.9,1.1-1.6,1.1L47.5,345c-0.8,0.1-1.4,0.6-1.6,1.3
	c-0.2,0.8,0,1.5,0.5,2l11.7,9.8c0.5,0.5,0.8,1.1,0.6,1.9l-3.4,14.9c-0.1,0.8,0.1,1.5,0.8,1.9c0.6,0.4,1.4,0.5,2,0.1l13-7.9
	c0.6-0.4,1.4-0.4,2,0l13.1,7.8c0.7,0.4,1.5,0.4,2-0.1c0.6-0.5,0.9-1.3,0.7-2l-3.6-14.8c-0.1-0.7,0.1-1.4,0.6-1.9L97.3,347.8z"/>
<path fill="#F7941D" d="M156.7,347.8c0.5-0.5,0.8-1.3,0.5-2c-0.3-0.8-0.9-1.3-1.6-1.3l-15.2-1.1c-0.7-0.1-1.3-0.5-1.6-1.1l-6.1-14
	c-0.3-0.7-1-1.1-1.8-1.1c-0.8,0-1.4,0.5-1.7,1.1l-5.8,14.1c-0.3,0.7-0.9,1.1-1.6,1.1l-15.1,1.4c-0.8,0.1-1.4,0.6-1.6,1.3
	c-0.2,0.8,0,1.5,0.5,2l11.6,9.8c0.5,0.5,0.8,1.1,0.6,1.9l-3.4,14.9c-0.1,0.8,0.1,1.5,0.8,1.9c0.6,0.4,1.4,0.5,2,0.1l12.9-7.9
	c0.6-0.4,1.4-0.4,2,0l13.1,7.8c0.7,0.4,1.5,0.4,2-0.1c0.6-0.5,0.9-1.3,0.7-2l-3.6-14.8c-0.1-0.7,0.1-1.4,0.6-1.9L156.7,347.8z"/>
<path fill="#F7941D" d="M217,347.8c0.5-0.5,0.8-1.3,0.5-2c-0.3-0.8-0.9-1.3-1.6-1.3l-15.2-1.1c-0.7-0.1-1.3-0.5-1.6-1.1l-6.1-14
	c-0.3-0.7-1-1.1-1.8-1.1c-0.8,0-1.4,0.5-1.7,1.1l-5.8,14.1c-0.3,0.7-0.9,1.1-1.6,1.1l-15.1,1.4c-0.8,0.1-1.4,0.6-1.6,1.3
	c-0.2,0.8,0,1.5,0.5,2l11.6,9.8c0.5,0.5,0.8,1.1,0.6,1.9l-3.3,14.9c-0.1,0.8,0.1,1.5,0.8,1.9c0.6,0.4,1.4,0.5,2,0.1l12.9-7.9
	c0.6-0.4,1.4-0.4,2,0l13.1,7.8c0.7,0.4,1.5,0.4,2-0.1c0.6-0.5,0.9-1.3,0.7-2l-3.6-14.8c-0.1-0.7,0.1-1.4,0.6-1.9L217,347.8z"/>
<path fill="#F7941D" d="M274.7,347.8c0.5-0.5,0.8-1.3,0.5-2c-0.3-0.8-0.9-1.3-1.6-1.3l-15.2-1.1c-0.7-0.1-1.3-0.5-1.6-1.1l-6.1-14
	c-0.3-0.7-1-1.1-1.8-1.1c-0.8,0-1.4,0.5-1.7,1.1l-5.8,14.1c-0.3,0.7-0.9,1.1-1.6,1.1l-15.1,1.4c-0.8,0.1-1.4,0.6-1.6,1.3
	c-0.2,0.8,0,1.5,0.5,2l11.6,9.8c0.5,0.5,0.8,1.1,0.6,1.9l-3.3,14.9c-0.1,0.8,0.1,1.5,0.8,1.9s1.4,0.5,2,0.1l12.9-7.9
	c0.6-0.4,1.4-0.4,2,0l13.1,7.8c0.7,0.4,1.5,0.4,2-0.1c0.6-0.5,0.9-1.3,0.7-2l-3.6-14.8c-0.1-0.7,0.1-1.4,0.6-1.9L274.7,347.8z"/>
<path fill="#F7941D" d="M333.9,347.8c0.5-0.5,0.8-1.3,0.5-2c-0.3-0.8-0.9-1.3-1.6-1.3l-15.2-1.1c-0.7-0.1-1.3-0.5-1.6-1.1l-6.1-14
	c-0.3-0.7-1-1.1-1.8-1.1c-0.8,0-1.4,0.5-1.7,1.1l-5.8,14.1c-0.3,0.7-0.9,1.1-1.6,1.1L284,345c-0.8,0.1-1.4,0.6-1.6,1.3
	c-0.2,0.8,0,1.5,0.5,2l11.6,9.8c0.5,0.5,0.8,1.1,0.6,1.9l-3.3,14.9c-0.1,0.8,0.1,1.5,0.8,1.9c0.7,0.4,1.4,0.5,2,0.1l12.9-7.9
	c0.6-0.4,1.4-0.4,2,0l13.1,7.8c0.7,0.4,1.5,0.4,2-0.1c0.6-0.5,0.9-1.3,0.7-2l-3.6-14.8c-0.1-0.7,0.1-1.4,0.6-1.9L333.9,347.8z"/>
</svg>
