<?xml version="1.0" encoding="utf-8"?>
<!-- Generator: Adobe Illustrator 19.2.0, SVG Export Plug-In . SVG Version: 6.00 Build 0)  -->
<svg version="1.1" id="Layer_1" xmlns="http://www.w3.org/2000/svg" xmlns:xlink="http://www.w3.org/1999/xlink" x="0px" y="0px"
	 viewBox="0 0 120 120" style="enable-background:new 0 0 120 120;" xml:space="preserve">
<style type="text/css">
	.st0{fill:#FFFFFF;}
</style>
<g>
	<path class="st0" d="M10,60c0-16.4,0-32.7,0-49.1c0-1.6-0.1-3.2,0.1-4.7C10.4,2.6,13.4,0,17,0C28.5,0,40,0,51.5,0
		c17.1,0,34.3,0,51.4,0c3.4,0,6.4,2.2,6.9,5.5c0.3,1.5,0.1,3.1,0.2,4.6c0,0.5,0,1,0,1.5c0,14.5,0,29.1,0,43.6c0,17.8,0,35.6,0,53.4
		c0,1.7,0.1,3.4-0.1,5c-0.3,3.7-3.3,6.3-7,6.3c-10.1,0-20.1,0-30.2,0c-18.5,0-37,0-55.5,0c-4.2,0-7.2-3-7.2-7.2
		c0-15.7,0-31.4,0-47.1C10,63.9,10,61.9,10,60z M14.6,60c0,3.6,0,7.2,0,10.9c0,13.9,0,27.8,0,41.7c0,2.1,0.9,3,3,3
		c14.8,0,29.5,0,44.3,0c13.6,0,27.2,0,40.8,0c1.8,0,2.8-1,2.8-2.7c0-2.6,0-5.3,0-7.9c0-17.9,0-35.7,0-53.6c0-14.6,0-29.3,0-43.9
		c0-1.9-1-2.9-2.9-2.9c-15.3,0-30.5,0-45.8,0c-13.1,0-26.3,0-39.4,0c-1.8,0-2.8,1-2.8,2.8c0,2.8,0,5.6,0,8.4
		C14.6,30.5,14.6,45.2,14.6,60z"/>
	<path class="st0" d="M81.9,70.1c7-0.1,14.3,3.9,17.7,11.3c3.6,7.8,1.6,16.8-4.4,22.5c-6.5,6-15.5,6.4-21.7,3.3
		c0.4-0.9,0.8-1.8,1.3-2.7c1.8-3.7,3.6-7.4,5.3-11.1c0.4-0.8,0.8-1.7,1.2-2.5c0.5-0.8,0.6-1.7,0.6-2.6c0-5.7,0-11.4,0-17.2
		C81.9,70.8,81.9,70.5,81.9,70.1z"/>
	<path class="st0" d="M59.6,90.5c6.5,0,12.9,0,19.4,0c-2.8,5.9-5.6,11.7-8.4,17.5C64.4,105.3,59.3,98.1,59.6,90.5z"/>
	<path class="st0" d="M82.9,19.3c-4.7,0-9.5,0-14.2,0c-2,0-3.4-1.8-2.8-3.7c0.4-1.2,1.5-2,2.9-2c4,0,8,0,12.1,0c5.4,0,10.8,0,16.2,0
		c1.7,0,3,1.2,3,2.8c0,1.6-1.3,2.9-3,2.9C92.4,19.3,87.7,19.3,82.9,19.3z"/>
	<path class="st0" d="M82.9,54.6c-4.7,0-9.4,0-14.1,0c-1.6,0-2.8-1-3-2.5c-0.2-1.3,0.6-2.7,2-3.2c0.3-0.1,0.7-0.1,1-0.1
		c9.4,0,18.8,0,28.3,0c1.3,0,2.2,0.6,2.8,1.7c0.5,1.1,0.3,2.1-0.4,3c-0.6,0.8-1.5,1-2.5,1C92.2,54.6,87.6,54.6,82.9,54.6
		C82.9,54.6,82.9,54.6,82.9,54.6z"/>
	<path class="st0" d="M38.1,109.1c-4.7,0-9.5,0-14.2,0c-2.3,0-3.6-2.2-2.6-4.2c0.5-1.1,1.5-1.5,2.7-1.5c2.7,0,5.4,0,8.1,0
		c6.7,0,13.4,0,20.1,0c2.2,0,3.6,1.9,2.9,3.9c-0.4,1.1-1.4,1.8-2.8,1.8C47.6,109.1,42.9,109.1,38.1,109.1z"/>
	<path class="st0" d="M38.1,91.5c-4.7,0-9.4,0-14.1,0c-1.4,0-2.5-0.9-2.9-2.1c-0.3-1.2,0.2-2.6,1.2-3.2c0.5-0.3,1-0.4,1.5-0.4
		c5.8,0,11.5,0,17.3,0c3.7,0,7.4,0,11.2,0c1.7,0,2.9,1.2,2.9,2.9c0,1.6-1.3,2.9-3,2.9C47.5,91.5,42.8,91.5,38.1,91.5z"/>
	<path class="st0" d="M38.2,73.8c-4.7,0-9.5,0-14.2,0c-1.2,0-2.1-0.4-2.6-1.5c-0.5-1.1-0.5-2.2,0.3-3.1c0.7-0.8,1.6-1.1,2.6-1.1
		c8.6,0,17.2,0,25.7,0c0.8,0,1.5,0,2.3,0c1.7,0,3,1.2,3,2.8c0,1.7-1.1,2.9-2.9,2.9C47.7,73.8,42.9,73.8,38.2,73.8z"/>
	<path class="st0" d="M82.9,36.9c-4.7,0-9.5,0-14.2,0c-1.4,0-2.4-0.8-2.8-2c-0.4-1.3,0-2.6,1.2-3.3c0.5-0.3,1.1-0.5,1.6-0.5
		c4.3,0,8.7,0,13,0c4.2,0,8.4,0,12.6-0.1c1,0,2.1,0,3.1,0c1.4,0.1,2.6,1.2,2.7,2.6c0.1,1.3-0.7,2.7-2,3c-0.4,0.1-0.8,0.1-1.2,0.1
		C92.2,36.9,87.6,36.9,82.9,36.9C82.9,36.9,82.9,36.9,82.9,36.9z"/>
	<path class="st0" d="M24.1,50.5c0.4,0,0.7,0,1,0c8.3,0,16.6,0,24.9,0c2.7,0,5.4,0,8.1,0c0.8,0,1.2,0.4,1.3,1.1
		c0,0.7-0.4,1.2-1.2,1.3c-0.3,0-0.5,0-0.8,0c-2.1,0-4.3,0-6.4,0c-9.1,0-18.2,0-27.3,0c-0.3,0-0.6,0-1,0c-0.6-0.1-1-0.5-1-1.1
		c0-0.3,0-0.6,0-1c0-11.3,0-22.6,0-34c0-0.6,0-1.2,0.7-1.5c0.7-0.4,1.6,0.1,1.7,0.9c0,0.2,0,0.4,0,0.7c0,7.3,0,14.7,0,22
		c0,3.6,0,7.1,0,10.7C24.1,49.9,24.1,50.2,24.1,50.5z"/>
	<path class="st0" d="M24.9,49.8c-0.3-2.2-0.4-4.3,0.8-6.2c1-1.7,1.8-3.5,2.7-5.3c0.4-0.9,0.9-1,1.8-0.6c2.1,0.9,4.1,1.7,6.2,2.6
		c0.9-1.9,1.7-3.7,2.6-5.5c0.4-0.8,0.8-1.6,1.2-2.4c0.3-0.6,0.7-0.8,1.5-0.6c1.6,0.5,3.2,1,4.8,1.5c0.3,0.1,0.6,0.1,0.8-0.2
		c2.5-4.3,5.1-8.7,7.6-13c0-0.1,0-0.1,0.1-0.3c-0.3,0-0.5-0.1-1-0.1c1.4-1.1,2.7-2,4.1-3.1c-0.3,1.8-0.5,3.4-0.7,5.2
		c-0.3-0.4-0.4-0.6-0.6-0.9c-0.4,0.7-0.9,1.4-1.3,2.1c-2.3,3.9-4.6,7.9-7,11.9c-0.5,0.9-0.8,1-1.7,0.7c-1.7-0.5-3.3-1-5.1-1.6
		c-0.6,1.2-1.2,2.4-1.7,3.5c-0.7,1.4-1.3,2.8-2,4.2c-0.5,1-0.9,1.1-1.9,0.7c-1.8-0.8-3.7-1.6-5.5-2.4c-0.2-0.1-0.4-0.1-0.6-0.2
		C28.3,43,26.6,46.4,24.9,49.8z"/>
	<path class="st0" d="M56.9,23c0,8.8,0,17.7,0,26.5c-1.4,0-2.9,0-4.5,0c0-0.2,0-0.5,0-0.7c0-6,0-12,0-18c0-0.4,0.1-0.8,0.3-1.2
		c1.2-2,2.4-4,3.5-6.1c0.1-0.2,0.3-0.4,0.4-0.6C56.8,23,56.9,23,56.9,23z"/>
	<path class="st0" d="M79.8,68.1c0,6.5,0,12.9,0,19.4c-6.5,0-12.9,0-19.4,0C60,77.5,68.9,67.9,79.8,68.1z M61.7,86.3
		c5.6,0,11.3,0,16.9,0c0-5.7,0-11.3,0-16.9C69.4,69.8,61.9,77.8,61.7,86.3z"/>
	<path class="st0" d="M50.4,49.6c-1.5,0-3,0-4.5,0c0-4.4,0-8.9,0-13.3c0.9,0.2,1.9,0.8,2.7,0c0.7-0.6,1.2-1.5,1.8-2.3
		C50.4,39.2,50.4,44.4,50.4,49.6z"/>
	<path class="st0" d="M43.8,49.6c-1.6,0-3.1,0-4.6,0c0-0.3,0-0.5,0-0.7c0-2.1,0-4.1,0-6.2c0-0.6,0.1-1.2,0.4-1.7
		c0.9-1.9,1.8-3.9,2.7-5.8c0.1,0,0.2-0.1,0.2,0c1.3,0.4,1.3,0.4,1.3,1.7c0,3.9,0,7.8,0,11.7C43.8,49,43.8,49.3,43.8,49.6z"/>
	<path class="st0" d="M32.6,41.9c1.5,0.6,3,1.2,4.5,1.8c0,1.8,0,3.8,0,5.8c-1.5,0-3,0-4.5,0C32.6,47.1,32.6,44.5,32.6,41.9z"/>
	<path class="st0" d="M30.5,41.4c0,2.7,0,5.4,0,8.2c-1.4,0-2.8,0-4.2,0c1.4-2.8,2.8-5.5,4.1-8.2C30.4,41.4,30.5,41.4,30.5,41.4z"/>
</g>
</svg>
