<?xml version="1.0" encoding="utf-8"?>
<!-- Generator: Adobe Illustrator 18.0.0, SVG Export Plug-In . SVG Version: 6.00 Build 0)  -->
<!DOCTYPE svg PUBLIC "-//W3C//DTD SVG 1.1//EN" "http://www.w3.org/Graphics/SVG/1.1/DTD/svg11.dtd">
<svg version="1.1" id="Layer_1" xmlns="http://www.w3.org/2000/svg" xmlns:xlink="http://www.w3.org/1999/xlink" x="0px" y="0px"
	 viewBox="0 0 380 380" enable-background="new 0 0 380 380" xml:space="preserve">
<g>
	<circle fill="#F7941D" cx="191.5" cy="145.1" r="50.5"/>
	<circle fill="#F7941D" cx="342" cy="170.1" r="25"/>
	
		<rect x="198.5" y="5.6" transform="matrix(0.1674 0.9859 -0.9859 0.1674 208.5218 -194.1843)" fill="#F7941D" width="41.5" height="41.5"/>
	<polygon fill="#F7941D" points="86,94.6 27,105.6 71,151.6 	"/>
	<path fill="#F7941D" d="M312,261.6l-7,23l-29-72H118l-37,57c0,0-4-55-17-57s-20,0-20,0c-12,1-17,16-17,16l17,117c15,26,42,3,42,3
		l32-56v71h143l-1-67.5l17,52.5c10,32,19,31,40,31s38-104,38-104C341,237.6,312,261.6,312,261.6z"/>
</g>
</svg>
