<?xml version="1.0" encoding="utf-8"?>
<!-- Generator: Adobe Illustrator 19.2.0, SVG Export Plug-In . SVG Version: 6.00 Build 0)  -->
<svg version="1.1" id="Layer_1" xmlns="http://www.w3.org/2000/svg" xmlns:xlink="http://www.w3.org/1999/xlink" x="0px" y="0px"
	 viewBox="0 0 120 120" style="enable-background:new 0 0 120 120;" xml:space="preserve">
<style type="text/css">
	.st0{fill:#FFFFFF;}
</style>
<g>
	<path class="st0" d="M113.7,75.2V25.6C113.7,11.5,102.2,0,88.1,0H25.6C11.5,0,0,11.5,0,25.6v62.4c0,14.1,11.5,25.6,25.6,25.6h49.5
		c4.8,3.9,10.8,6.3,17.5,6.3c15.1,0,27.4-12.3,27.4-27.4C120,86,117.6,79.9,113.7,75.2L113.7,75.2z M25.6,109.5
		c-11.8,0-21.4-9.6-21.4-21.4V25.6c0-11.8,9.6-21.4,21.4-21.4h62.4c11.8,0,21.4,9.6,21.4,21.4v45.5c-0.2-0.1-0.3-0.2-0.5-0.3
		c-0.4-0.3-0.9-0.7-1.4-1c0,0-0.1,0-0.1-0.1c-1.1-0.7-2.2-1.3-3.4-1.9c-0.2-0.1-0.3-0.2-0.5-0.2c-0.5-0.2-0.9-0.4-1.4-0.6
		c-0.3-0.1-0.6-0.2-0.9-0.3c-0.4-0.1-0.9-0.3-1.3-0.4c-0.4-0.1-0.7-0.2-1.1-0.3c-0.4-0.1-0.8-0.2-1.2-0.3c-0.5-0.1-1-0.2-1.5-0.2
		c-0.3,0-0.7-0.1-1-0.1c-0.8-0.1-1.7-0.1-2.5-0.1c-12.9,0-23.7,9-26.6,21h-9.2c-1.2,0-2.1,0.9-2.1,2.1c0,1.2,1,2.1,2.1,2.1h8.5
		c0,0.7-0.1,1.4-0.1,2.1c0,0.9,0,1.7,0.1,2.5c0,0.3,0.1,0.7,0.1,1c0.1,0.5,0.1,1,0.2,1.4c0.1,0.4,0.2,0.8,0.3,1.2
		c0.1,0.4,0.2,0.7,0.3,1.1c0.1,0.4,0.3,0.9,0.4,1.3c0.1,0.3,0.2,0.6,0.3,0.9c0.2,0.5,0.3,1,0.6,1.4c0.1,0.1,0.1,0.3,0.2,0.4
		c0.6,1.2,1.2,2.4,1.9,3.5c0,0,0,0.1,0,0.1c0.3,0.5,0.6,0.9,1,1.4c0.1,0.2,0.2,0.3,0.3,0.5L25.6,109.5L25.6,109.5z M92.6,115.8
		c-5.9,0-11.3-2.3-15.4-6c-0.5-0.4-1-0.9-1.5-1.4c-0.1-0.1-0.2-0.2-0.3-0.3c-0.4-0.5-0.9-1-1.3-1.5c-0.1-0.1-0.2-0.2-0.3-0.3
		c-0.4-0.5-0.7-1.1-1.1-1.7c-0.1-0.1-0.1-0.2-0.2-0.3c-0.3-0.6-0.7-1.2-1-1.8c0-0.1-0.1-0.2-0.1-0.3c-0.3-0.7-0.5-1.3-0.8-2
		c0-0.1-0.1-0.2-0.1-0.3c-0.2-0.7-0.4-1.4-0.6-2.1c0-0.1,0-0.2-0.1-0.3c-0.2-0.7-0.3-1.4-0.3-2.1c0-0.1,0-0.2,0-0.3
		c-0.1-0.8-0.1-1.6-0.1-2.4c0-12.8,10.4-23.2,23.2-23.2c0.8,0,1.6,0,2.4,0.1c0.1,0,0.2,0,0.3,0c0.7,0.1,1.4,0.2,2.1,0.3
		c0.1,0,0.2,0,0.2,0.1c0.7,0.2,1.4,0.3,2.1,0.6c0.1,0,0.2,0.1,0.2,0.1c0.7,0.2,1.4,0.5,2,0.8c0.1,0,0.2,0.1,0.3,0.1
		c0.6,0.3,1.2,0.6,1.8,1c0.1,0.1,0.2,0.1,0.3,0.2c0.6,0.3,1.1,0.7,1.7,1.1c0.1,0.1,0.2,0.2,0.3,0.3c0.5,0.4,1,0.8,1.5,1.3
		c0.1,0.1,0.2,0.2,0.3,0.3c0.5,0.5,1,1,1.4,1.5c3.7,4.1,5.9,9.5,5.9,15.4C115.8,105.4,105.4,115.8,92.6,115.8L92.6,115.8z"/>
	<path class="st0" d="M56.9,29.5h37.9c1.2,0,2.1-0.9,2.1-2.1s-1-2.1-2.1-2.1H56.9c-1.2,0-2.1,0.9-2.1,2.1
		C54.7,28.5,55.7,29.5,56.9,29.5L56.9,29.5z"/>
	<path class="st0" d="M56.9,58.9h37.9c1.2,0,2.1-0.9,2.1-2.1c0-1.2-1-2.1-2.1-2.1H56.9c-1.2,0-2.1,0.9-2.1,2.1
		C54.7,58,55.7,58.9,56.9,58.9L56.9,58.9z"/>
	<path class="st0" d="M40.4,15.5L27.2,30.8l-8-6c-0.9-0.7-2.3-0.5-3,0.4c-0.7,0.9-0.5,2.2,0.4,2.9l9.6,7.2c0.4,0.3,0.8,0.4,1.3,0.4
		c0.6,0,1.2-0.3,1.6-0.7l14.4-16.8c0.7-0.9,0.7-2.2-0.2-3C42.5,14.5,41.1,14.6,40.4,15.5L40.4,15.5z"/>
	<path class="st0" d="M40.4,44.9L27.2,60.3l-8-6c-0.9-0.7-2.3-0.5-3,0.4c-0.7,0.9-0.5,2.3,0.4,2.9l9.6,7.2c0.4,0.3,0.8,0.4,1.3,0.4
		c0.6,0,1.2-0.3,1.6-0.7l14.4-16.8c0.7-0.9,0.7-2.2-0.2-3C42.5,44,41.1,44.1,40.4,44.9L40.4,44.9z"/>
	<path class="st0" d="M40.4,76.5L27.2,91.9l-8-6c-0.9-0.7-2.3-0.5-3,0.4c-0.7,0.9-0.5,2.3,0.4,2.9l9.6,7.2c0.4,0.3,0.8,0.4,1.3,0.4
		c0.6,0,1.2-0.3,1.6-0.7l14.4-16.8c0.7-0.9,0.7-2.2-0.2-3C42.5,75.5,41.1,75.6,40.4,76.5L40.4,76.5z"/>
	<path class="st0" d="M103.8,101.1l-9.3-7.4c-0.1-0.7-0.3-1.3-0.7-1.8l2.8-17.1c0.1-0.6-0.3-1.2-0.9-1.4l0,0
		c-0.6-0.1-1.3,0.2-1.5,0.8l-5,16.6c-1.2,0.6-2.1,1.9-2.1,3.4c0,2.1,1.7,3.8,3.8,3.8c0.4,0,0.8-0.1,1.1-0.2l10.5,5.5
		c0.6,0.3,1.3,0.1,1.6-0.4l0,0C104.4,102.3,104.3,101.5,103.8,101.1z M90.8,96.1c-1,0-1.9-0.8-1.9-1.9c0-1,0.8-1.9,1.9-1.9
		c1,0,1.9,0.8,1.9,1.9C92.7,95.2,91.8,96.1,90.8,96.1z"/>
</g>
</svg>
