<?xml version="1.0" encoding="utf-8"?>
<!-- Generator: Adobe Illustrator 19.2.0, SVG Export Plug-In . SVG Version: 6.00 Build 0)  -->
<svg version="1.1" id="Layer_1" xmlns="http://www.w3.org/2000/svg" xmlns:xlink="http://www.w3.org/1999/xlink" x="0px" y="0px"
	 viewBox="0 0 120 120" style="enable-background:new 0 0 120 120;" xml:space="preserve">
<style type="text/css">
	.st0{fill:#FFFFFF;}
</style>
<g>
	<g>
		<path class="st0" d="M98.1,71.8l-2.5,11.5c-0.6,2.8-1,4.8-1.1,6c-0.1-0.9-0.3-2.2-0.7-4.1c-0.3-1.8-0.7-3.4-1-4.8l-1.9-8.6h-5.7
			l-2,8.6c-0.3,1.2-0.6,2.7-1,4.5c-0.3,1.8-0.6,3.3-0.7,4.3c-0.2-1.5-0.6-3.5-1.2-6l-2.5-11.4h-5.9l5.6,22.8h7.3
			c1.3-6,2.1-9.4,2.3-10.2c0.2-0.8,0.4-1.8,0.6-2.8c0.2-1,0.3-1.8,0.4-2.5c0.1,0.8,0.3,1.9,0.5,3.1c0.2,1.2,0.4,2.1,0.5,2.5l2.2,9.9
			h7.3l5.6-22.8H98.1z M22,58.3h-4v14.2h4V58.3z M28.5,55.5h-4v17h4V55.5z M31,47.4v25.1h4V47.4H31z M41.5,50.7h-4v21.8h4V50.7z
			 M48,53.6h-4v18.9h4V53.6z M49.9,84.7c2.2,0,3.9-1.7,3.9-3.8c0-2.1-1.7-3.8-3.9-3.8c-2.2,0-3.9,1.7-3.9,3.8c0,0.5,0.1,1,0.3,1.4
			L41,86.8c-0.6-0.3-1.2-0.5-1.9-0.5c-0.9,0-1.8,0.3-2.4,0.9l-8.9-5.5c0.1-0.3,0.1-0.5,0.1-0.8c0-2.1-1.7-3.8-3.9-3.8
			c-2.2,0-3.9,1.7-3.9,3.8c0,0.7,0.2,1.4,0.6,2l-3.2,3.7c-0.4-0.2-0.9-0.3-1.4-0.3c-2.2,0-3.9,1.7-3.9,3.8s1.7,3.8,3.9,3.8
			c2.2,0,3.9-1.7,3.9-3.8c0-0.7-0.2-1.3-0.5-1.9l3.2-3.8c0.4,0.1,0.8,0.2,1.3,0.2c0.9,0,1.7-0.3,2.4-0.8l8.9,5.5
			c-0.1,0.3-0.1,0.5-0.1,0.8c0,2.1,1.7,3.8,3.9,3.8c2.2,0,3.9-1.7,3.9-3.8c0-0.5-0.1-1-0.3-1.4l5.3-4.6
			C48.6,84.5,49.2,84.7,49.9,84.7z M82.2,28.9c2.1,0,3.9-1.7,3.9-3.9V9.6c0-2.1-1.7-3.9-3.9-3.9c-2.1,0-3.9,1.7-3.9,3.9v15.5
			C78.3,27.2,80.1,28.9,82.2,28.9z M87.5,51.9c-17,0-30.8,13.9-30.8,31c0,17.1,13.8,31,30.8,31c17,0,30.8-13.9,30.8-31
			C118.3,65.8,104.5,51.9,87.5,51.9z M87.5,106.1c-12.7,0-23.1-10.4-23.1-23.2c0-12.8,10.4-23.2,23.1-23.2
			c12.7,0,23.1,10.4,23.1,23.2C110.6,95.7,100.2,106.1,87.5,106.1z M20.6,28.9c2.1,0,3.9-1.7,3.9-3.9V9.6c0-2.1-1.7-3.9-3.9-3.9
			c-2.1,0-3.9,1.7-3.9,3.9v15.5C16.7,27.2,18.4,28.9,20.6,28.9z M9,97.8V44.4h84.7v5h7.7V29.7c0-4.7-3.7-8.5-8.3-8.5h-3.2v3.9
			c0,4.3-3.5,7.7-7.7,7.7c-4.3,0-7.7-3.5-7.7-7.7v-3.9H28.3v3.9c0,4.3-3.5,7.7-7.7,7.7c-4.3,0-7.7-3.5-7.7-7.7v-3.9H9.6
			c-4.6,0-8.3,3.8-8.3,8.5v68.1c0,4.7,3.7,8.5,8.3,8.5h45.6v-7.7H9.6C9.3,98.6,9,98.2,9,97.8z"/>
	</g>
</g>
</svg>
