<?xml version="1.0" encoding="utf-8"?>
<!-- Generator: Adobe Illustrator 23.0.1, SVG Export Plug-In . SVG Version: 6.00 Build 0)  -->
<svg version="1.1" id="Capa_1" xmlns="http://www.w3.org/2000/svg" xmlns:xlink="http://www.w3.org/1999/xlink" x="0px" y="0px"
	 viewBox="0 0 40 40" style="enable-background:new 0 0 40 40;" xml:space="preserve">
<style type="text/css">
	.st0{fill:#3A3A3A;}
</style>
<g>
	<path class="st0" d="M39.1,27.7l-1.6-0.2c-0.2-0.7-0.4-1.4-0.8-2l1-1.2c0.3-0.4,0.3-0.9-0.1-1.3l-1.4-1.4c-0.2-0.2-0.4-0.3-0.7-0.3
		c-0.2,0-0.4,0.1-0.6,0.2l-1.2,1c-0.6-0.4-1.3-0.7-2-0.9l-0.1-1.5c0-0.5-0.5-0.9-1-0.9h-2c-0.5,0-0.9,0.4-1,0.9l-0.1,1.5
		c-0.7,0.2-1.4,0.5-2,0.9l-1.2-1c-0.2-0.1-0.4-0.2-0.6-0.2c-0.3,0-0.5,0.1-0.7,0.3L21.6,23c-0.4,0.4-0.4,0.9-0.1,1.3l1,1.2
		c-0.4,0.6-0.6,1.3-0.8,2l-1.6,0.2c-0.5,0-0.9,0.5-0.9,1v2c0,0.5,0.4,0.9,0.9,1l1.6,0.2c0.2,0.7,0.5,1.3,0.8,1.9L21.6,35
		c-0.3,0.4-0.3,0.9,0.1,1.3l1.4,1.4c0.2,0.2,0.4,0.3,0.7,0.3c0.2,0,0.4-0.1,0.6-0.2l1.3-1.1c0.6,0.4,1.3,0.6,1.9,0.8l0.2,1.6
		c0,0.5,0.5,0.9,1,0.9h2c0.5,0,0.9-0.4,1-0.9l0.2-1.6c0.7-0.2,1.3-0.5,1.9-0.8l1.3,1.1c0.2,0.1,0.4,0.2,0.6,0.2
		c0.3,0,0.5-0.1,0.7-0.3l1.4-1.4c0.4-0.4,0.4-0.9,0.1-1.3l-1.1-1.3c0.4-0.6,0.6-1.3,0.8-1.9l1.6-0.2c0.5,0,0.9-0.5,0.9-1v-2
		C40,28.1,39.6,27.7,39.1,27.7z M38.7,30.4L37,30.5h-0.6L36.4,31c-0.2,0.8-0.5,1.6-1,2.4l-0.3,0.4l0.4,0.4l1.1,1.3l-1,1l-1.3-1.1
		l-0.4-0.4l-0.4,0.3c-0.7,0.5-1.5,0.8-2.4,1l-0.5,0.1l0,0.5l-0.2,1.7h-1.4L28.8,37v-0.6l-0.5-0.1c-0.8-0.2-1.6-0.5-2.4-1l-0.4-0.3
		l-0.4,0.4l-1.3,1.1l-1-1l1.1-1.3l0.4-0.4l-0.3-0.4c-0.5-0.7-0.8-1.5-1-2.4l-0.1-0.5l-0.6,0l-1.7-0.2v-1.5l1.7-0.2h0.5l0.1-0.5
		c0.2-0.9,0.5-1.7,1-2.4l0.3-0.4L23.8,25l-1.1-1.3l1-1l1.7,1.4l0.4-0.3c0.7-0.5,1.6-0.9,2.5-1.1l0.5-0.1l0.2-2.1h1.4l0.2,2.1
		l0.5,0.1c0.9,0.2,1.7,0.5,2.5,1.1l0.4,0.3l1.7-1.4l1,1L35.5,25l-0.4,0.4l0.3,0.4c0.5,0.7,0.8,1.6,1,2.4l0.1,0.5l0.5,0l1.7,0.2V30.4
		z"/>
	<path class="st0" d="M29.6,26.1c-2,0-3.6,1.6-3.6,3.6s1.6,3.6,3.6,3.6s3.6-1.6,3.6-3.6S31.6,26.1,29.6,26.1z M29.6,31.9
		c-1.2,0-2.2-1-2.2-2.2c0-1.2,1-2.2,2.2-2.2c1.2,0,2.2,1,2.2,2.2C31.9,30.9,30.9,31.9,29.6,31.9z"/>
	<path class="st0" d="M18.5,4.4h5.4c0.4,0,0.7-0.3,0.7-0.7S24.3,3,23.9,3h-5.4c-0.4,0-0.7,0.3-0.7,0.7S18.1,4.4,18.5,4.4z"/>
	<path class="st0" d="M18.5,9h5.4c0.4,0,0.7-0.3,0.7-0.7c0-0.4-0.3-0.7-0.7-0.7h-5.4c-0.4,0-0.7,0.3-0.7,0.7C17.8,8.7,18.1,9,18.5,9
		z"/>
	<path class="st0" d="M18.5,13.6h5.4c0.4,0,0.7-0.3,0.7-0.7c0-0.4-0.3-0.7-0.7-0.7h-5.4c-0.4,0-0.7,0.3-0.7,0.7
		C17.8,13.3,18.1,13.6,18.5,13.6z"/>
	<path class="st0" d="M18.5,18.2h3.2c0.4,0,0.7-0.3,0.7-0.7c0-0.4-0.3-0.7-0.7-0.7h-3.2c-0.4,0-0.7,0.3-0.7,0.7
		C17.8,17.9,18.1,18.2,18.5,18.2z"/>
	<path class="st0" d="M3.8,26.6c-0.9,1.5-1.3,3.2-1,5c0.3,1.8,1.3,3.3,2.8,4.3c1.2,0.8,2.6,1.3,4,1.3c0.4,0,0.9,0,1.3-0.1
		c1.6-0.3,3.1-1.2,4.1-2.5c1.1-1.4,1.6-3.2,1.4-5.1c-0.3-2.8-2.2-5-5-5.8c0-1,0-2,0-3l0-2.4c0-1,0-1.9,0-2.9c0-1-0.6-1.8-1.4-1.9
		c-0.1,0-0.3,0-0.4,0c-0.8,0-1.4,0.5-1.7,1.2c-0.1,0.3-0.2,0.7-0.2,1c0,2.5,0,5.1,0,8.1C6.1,24.1,4.7,25.1,3.8,26.6z M8.2,24.8
		C8.9,24.6,9,24.1,9,23.7c0-3.1,0-5.7,0-8.2c0-0.2,0-0.4,0.1-0.6c0.1-0.2,0.3-0.4,0.5-0.4c0.1,0,0.1,0,0.2,0c0.2,0,0.4,0.4,0.4,0.7
		c0,1,0,2,0,3l0,0.6h0l0,1.7c0,1,0,2.1,0,3.2c0,0.2,0,0.8,0.8,1c2.4,0.6,4,2.5,4.3,4.8c0.2,2-0.5,3.4-1.2,4.2
		c-0.9,1.1-2.1,1.8-3.4,2.1c-0.3,0.1-0.7,0.1-1.1,0.1c-1.2,0-2.3-0.4-3.3-1c-1.2-0.9-2-2.1-2.3-3.5c-0.3-1.5,0-2.9,0.8-4.1
		C5.6,26,6.8,25.1,8.2,24.8z"/>
	<path class="st0" d="M18.1,31.8L18,31.5l-0.1,0.3c-0.7,4-4.2,6.9-8.3,6.9c-4.6,0-8.4-3.8-8.4-8.4c0-1.6,0.5-3.2,1.3-4.5
		c0.8-1.3,2-2.4,3.4-3l0.3-0.2V4.5c0-1.8,1.5-3.3,3.3-3.3s3.3,1.5,3.3,3.3v18l0.3,0.2c1.4,0.7,2.6,1.7,3.5,3.1
		c0.4,0.7,0.8,1.4,1,2.2l0.1,0.3l0.1-0.3c0.1-0.4,0.3-0.8,0.6-1.1l0,0l0-0.1c-0.2-0.6-0.5-1.1-0.8-1.6c-0.9-1.4-2.1-2.5-3.6-3.3V4.5
		c0-2.5-2-4.5-4.5-4.5C7.1,0,5.1,2,5.1,4.5v17.3c-1.5,0.8-2.7,1.9-3.6,3.3c-1,1.5-1.5,3.3-1.5,5.2c0,5.3,4.3,9.6,9.6,9.6
		c4.4,0,8.2-2.9,9.3-7.2l0-0.1l-0.1,0C18.5,32.4,18.3,32.1,18.1,31.8z"/>
</g>
</svg>
