<?xml version="1.0" encoding="utf-8"?>
<!-- Generator: Adobe Illustrator 21.1.0, SVG Export Plug-In . SVG Version: 6.00 Build 0)  -->
<svg version="1.1" id="Layer_1" xmlns="http://www.w3.org/2000/svg" xmlns:xlink="http://www.w3.org/1999/xlink" x="0px" y="0px"
	 viewBox="0 0 52 52" style="enable-background:new 0 0 52 52;" xml:space="preserve">
<style type="text/css">
	.st0{fill:#FFFFFF;}
	.st1{enable-background:new    ;}
	.st2{fill:#A3A5AA;}
</style>
<g id="Group_849" transform="translate(4308)">
	<rect id="Rectangle_845" x="-4308" y="0" class="st0" width="52" height="52"/>
	<g class="st1">
		<path class="st2" d="M-4270.2,27.2c0,0.9-0.7,1.6-1.6,1.6h-6.7v6.7c0,0.9-0.7,1.6-1.6,1.6h-3.1c-0.9,0-1.6-0.7-1.6-1.6v-6.7h-6.7
			c-0.9,0-1.6-0.7-1.6-1.6V24c0-0.9,0.7-1.6,1.6-1.6h6.7v-6.7c0-0.9,0.7-1.6,1.6-1.6h3.1c0.9,0,1.6,0.7,1.6,1.6v6.7h6.7
			c0.9,0,1.6,0.7,1.6,1.6V27.2z"/>
	</g>
</g>
</svg>
