<?xml version="1.0" encoding="utf-8"?>
<!-- Generator: Adobe Illustrator 22.1.0, SVG Export Plug-In . SVG Version: 6.00 Build 0)  -->
<svg version="1.1" id="Layer_1" xmlns="http://www.w3.org/2000/svg" xmlns:xlink="http://www.w3.org/1999/xlink" x="0px" y="0px"
	 viewBox="0 0 40 40" style="enable-background:new 0 0 40 40;" xml:space="preserve">
<style type="text/css">
	.st0{fill:#626975;}
</style>
<g>
	<path class="st0" d="M37.8,33l-3.9-6.1v-7.1c2-1.3,3.3-3.6,3.3-6.2c0-4.1-3.3-7.4-7.4-7.4c-1.1,0-2.1,0.2-3,0.7
		c-0.4-0.2-0.9-0.5-1.4-0.7V5.3C25.3,2.4,22.9,0,20,0c-2.9,0-5.3,2.4-5.3,5.3v0.8c-5,2.1-8.6,7.1-8.6,13v7.8L2.2,33
		c-0.3,0.4-0.3,1-0.1,1.4c0.2,0.4,0.7,0.7,1.2,0.7h10.3c0.7,2.8,3.3,4.9,6.3,4.9H20c3,0,5.5-2.1,6.3-4.9h10.3c0.5,0,1-0.3,1.2-0.7
		C38.1,34,38.1,33.4,37.8,33z M28.9,9.5c0-0.5,0.4-0.8,0.8-0.8c0.5,0,0.8,0.4,0.8,0.8v5.1c0,0.5-0.4,0.8-0.8,0.8s-0.8-0.3-0.8-0.8
		V9.5z M29.8,16.4c0.6,0,1.1,0.5,1.1,1.1c0,0.6-0.5,1.1-1.1,1.1s-1.1-0.5-1.1-1.1C28.7,16.9,29.1,16.4,29.8,16.4z M17.4,5.3
		c0-1.4,1.2-2.6,2.6-2.6c1.4,0,2.6,1.2,2.6,2.6v0c-0.8-0.2-1.7-0.2-2.6-0.2C19.1,5.1,18.3,5.2,17.4,5.3L17.4,5.3z M20,37.2L20,37.2
		c-1.6,0-2.8-0.9-3.4-2.1h6.8C22.8,36.4,21.5,37.2,20,37.2z M5.9,32.4l2.8-4.3c0.1-0.2,0.2-0.5,0.2-0.7v-8.2c0-6.2,5-11.3,11.1-11.3
		c1.5,0,2.9,0.3,4.2,0.8c-1.2,1.3-1.9,3-1.9,4.9c0,4.1,3.3,7.4,7.4,7.4c0.5,0,0.9,0,1.4-0.1v6.4c0,0.3,0.1,0.5,0.2,0.7l2.8,4.3H5.9z
		"/>
</g>
</svg>
