<?xml version="1.0" encoding="utf-8"?>
<!-- Generator: Adobe Illustrator 19.0.0, SVG Export Plug-In . SVG Version: 6.00 Build 0)  -->
<svg version="1.1" id="Layer_1" xmlns="http://www.w3.org/2000/svg" xmlns:xlink="http://www.w3.org/1999/xlink" x="0px" y="0px"
	 viewBox="325 125 310 310" style="enable-background:new 325 125 310 310;" xml:space="preserve">
<style type="text/css">
	.st0{fill:#2E6CA4;}
</style>
<g>
	<g id="XMLID_1_">
		<path id="XMLID_15_" class="st0" d="M452.2,315.8c-0.2,0-0.3,0-0.5,0c-2.1-0.1-3.9-1-5.8-3c-5.7-5.7-11.4-11.4-17.1-17.1
			c-4-3.9-17.8-19.2-17.8-19.2l-21.4,21.4c-2.5-3.8-4.8-7.4-6.9-11.1c-0.5-0.8-1.2-2.1-1.6-3.1c0.6-0.7,1.6-1.7,2.5-2.6l6.1-6.2
			c4.6-4.6,9.3-9.3,13.9-13.9c1.5-1.5,3.9-3.4,6.6-3.4c2.1,0,4.3,1.1,6.5,3.3l1.9,1.9c4.9,4.9,10,10,15.7,14.8l9.8,8.2V197
			c0-4.6,1.6-7.5,4.9-8.7c1.2-0.4,2.3-0.7,3.3-0.7c2.2,0,4.3,1.1,6.4,3.2c7.3,7.4,14.6,14.7,21.8,21.9c2.9,2.9,5.8,5.8,8.7,8.7
			l4.2,4.3l69.4-73.4l-18.1-18.3c-1.5-1.5-0.4-4.2,1.7-4.2l51.9-4c1.3,0,2.4,1.1,2.4,2.4c0,7.4-4.9,41.6-4.9,52.5
			c0,2.2-2.6,3.3-4.2,1.7l-16.1-18.4l-4.3,4.1l-1.2,1.2c-0.8,0.7-1.4,1.3-2,2l-66.7,70.7c-2.6,2.6-5,3.9-7.1,3.9
			c-2.1,0-4.4-1.3-6.9-3.8l-1.7-1.7c-4.8-4.8-10.5-9.4-15.4-14.5l-9.9-8.3v36.4c0,17.5,0,35,0,52.6
			C460.2,312.1,457,315.8,452.2,315.8z"/>
	</g>
	<path id="XMLID_2_" class="st0" d="M617.4,434.7c-4.9-1.4-9-5.2-13.8-10.1c-15.2-15.4-30.7-30.8-45.7-45.8l-0.1-0.1
		c-5.6-5.6-11.1-11-16.6-16.5c-0.7-0.7-1.4-1.4-2.2-2.1l-0.9-0.8l-7.1-6.8l-9.2,5.5c-0.5,0.3-1,0.6-1.5,0.9
		c-22.4,13.5-45.2,20.4-67.9,20.4c-17.7,0-35.7-4.2-53.6-12.4c-38.5-17.7-62.5-48.5-71.4-91.5c-0.7-3.4-1.2-6.9-1.6-10.7
		c-0.2-1.6-0.4-3.2-0.6-4.7v-15.6c0.3-1.1,0.4-2.1,0.5-3.1c0.8-11.4,3-21.4,6.5-30.8c17.3-45.8,48.9-73,96.5-83.2
		c3.2-0.7,6.7-1.2,10.4-1.6c1.5-0.2,3.1-0.4,4.6-0.6h17c1.8,0.3,3.7,0.6,5.5,0.8c4.6,0.7,8.9,1.3,13.1,2.2
		c16.2,3.5,31.5,10.2,45.4,20l-11.6,11.6c-3.8-2.4-7.6-4.8-11.9-6.9c-15.5-7.8-32-11.7-49.1-11.7c-26.9,0-53,9.9-73.5,27.9
		c-21.2,18.6-34.3,44.3-37,72.4c-2.7,28.3,5.4,56.1,22.6,78.5c17.2,22.3,42.1,37.2,70.1,41.8c5.8,1,11.7,1.4,17.6,1.4
		c53.1,0,100-39.2,109.1-91.1c2.5-14.1,2.3-28.4-0.5-42.4c4.5-4.5,8.9-9,13.2-13.2c8.4,27.9,8.3,68.9-15.8,105.9l-5.6,8.6l7.1,7.4
		l0.7,0.8c0.7,0.7,1.4,1.4,2.1,2.2c5.5,5.5,11.1,11.1,16.6,16.6c15.3,15.4,31.1,31.2,46.8,46.6c4.7,4.7,7.9,8.5,9.2,12.9v4.7
		c-0.1,0.3-0.2,0.6-0.3,1c-1.5,5.7-4.6,9.1-9.9,11.1c-0.7,0.3-1.7,0.5-2.7,0.8h-0.1h-4.4V434.7z"/>
</g>
</svg>
