<?xml version="1.0" encoding="utf-8"?>
<!-- Generator: Adobe Illustrator 22.1.0, SVG Export Plug-In . SVG Version: 6.00 Build 0)  -->
<svg version="1.1" id="Layer_1" xmlns="http://www.w3.org/2000/svg" xmlns:xlink="http://www.w3.org/1999/xlink" x="0px" y="0px"
	 viewBox="0 0 40 40" style="enable-background:new 0 0 40 40;" xml:space="preserve">
<style type="text/css">
	.st0{fill:#FFFFFF;}
</style>
<g>
	<path class="st0" d="M26.2,26.2c-0.4,0-0.8,0.4-0.8,0.8s0.4,0.8,0.8,0.8S27,27.5,27,27S26.7,26.2,26.2,26.2z"/>
	<path class="st0" d="M15.6,25.5c-0.4,0-0.8-0.4-0.8-0.8s0.4-0.8,0.8-0.8c0.3,0,0.6,0.1,0.8,0.4c0.3,0.3,0.8,0.3,1.1,0
		c0.3-0.3,0.3-0.8,0-1.1c-0.4-0.4-0.8-0.6-1.2-0.7v-0.9c0-0.4-0.3-0.8-0.8-0.8s-0.8,0.3-0.8,0.8v0.9c-0.9,0.3-1.6,1.2-1.6,2.2
		c0,1.3,1.1,2.3,2.3,2.3c0.4,0,0.8,0.4,0.8,0.8s-0.4,0.8-0.8,0.8c-0.3,0-0.7-0.2-1-0.6c-0.3-0.3-0.8-0.4-1.1-0.1s-0.4,0.8-0.1,1.1
		c0.4,0.5,0.9,0.8,1.4,1v0.9c0,0.4,0.3,0.8,0.8,0.8s0.8-0.3,0.8-0.8V30c0.9-0.3,1.6-1.2,1.6-2.2C18,26.5,16.9,25.5,15.6,25.5z"/>
	<path class="st0" d="M9.4,13c0.4,0,0.8-0.3,0.8-0.8V9.1c0-0.4-0.3-0.8-0.8-0.8S8.6,8.6,8.6,9.1v3.1C8.6,12.6,8.9,13,9.4,13z"/>
	<path class="st0" d="M36.9,18.4v-6.2c0-2.2-1.8-3.9-3.9-3.9h-4.4v-6C28.6,1,27.5,0,26.3,0H11.7c-1.3,0-2.3,1.1-2.3,2.3v2.8H7
		c-1.3,0-2.3,1.1-2.3,2.3v0.8H3.9C1.8,8.3,0,10,0,12.2v23.9C0,38.2,1.8,40,3.9,40h23.9c1.9,0,3.5-1.3,3.8-3.1H33
		c2.2,0,3.9-1.8,3.9-3.9v-2h0.8c1.3,0,2.3-1.1,2.3-2.3v-7C40,19.8,38.6,18.4,36.9,18.4z M38.4,21.6c0,0.9-0.7,1.6-1.6,1.6V20
		C37.7,20,38.4,20.7,38.4,21.6z M33,9.8c1.3,0,2.3,1.1,2.3,2.3V23h-3.6v-4.7c0-1.9-1.3-3.5-3.1-3.8V9.8H33z M10.9,2.3
		c0-0.4,0.4-0.8,0.8-0.8h14.5c0.4,0,0.8,0.4,0.8,0.8v12.2h-3.6v-7c0-1.3-1.1-2.3-2.3-2.3H10.9V2.3z M18.8,14.5V6.7h2.3
		c0.4,0,0.8,0.4,0.8,0.8v7H18.8z M14.1,14.5V6.7h3.1v7.8H14.1z M6.2,7.5c0-0.4,0.4-0.8,0.8-0.8h5.5v7.8H6.2V7.5z M3.9,9.8h0.8v4.7
		H4.1c-1.3,0-2.5-0.9-2.5-2.3C1.6,10.9,2.6,9.8,3.9,9.8z M27.8,38.4H3.9c-1.3,0-2.3-1.1-2.3-2.3V15.3c0.7,0.5,1.6,0.8,2.5,0.8h23.7
		c1.3,0,2.3,1.1,2.3,2.3v4.7h-5.5c-1.3,0-2.3,1.1-2.3,2.3v3.1c0,1.3,1.1,2.3,2.3,2.3h5.5V36C30.2,37.4,29.1,38.4,27.8,38.4z
		 M35.3,33c0,1.3-1.1,2.3-2.3,2.3h-1.2v-4.4h3.6L35.3,33L35.3,33z M37.7,29.4h-13c-0.4,0-0.8-0.4-0.8-0.8v-3.1
		c0-0.4,0.4-0.8,0.8-0.8h12.2c0.6,0,1.1-0.1,1.6-0.4v4.3C38.4,29,38.1,29.4,37.7,29.4z"/>
	<path class="st0" d="M33,26.2h-3.6c-0.4,0-0.8,0.3-0.8,0.8s0.3,0.8,0.8,0.8H33c0.4,0,0.8-0.3,0.8-0.8S33.4,26.2,33,26.2z"/>
</g>
</svg>
