<?xml version="1.0" encoding="utf-8"?>
<!-- Generator: Adobe Illustrator 21.1.0, SVG Export Plug-In . SVG Version: 6.00 Build 0)  -->
<svg version="1.1" id="Layer_1" xmlns="http://www.w3.org/2000/svg" xmlns:xlink="http://www.w3.org/1999/xlink" x="0px" y="0px"
	 viewBox="0 0 30 34" style="enable-background:new 0 0 30 34;" xml:space="preserve">
<style type="text/css">
	.st0{fill:#909090;}
</style>
<path class="st0" d="M0.1,24.1c0-3.4,0-6.9,0-10.3c0,0,0-0.1,0-0.1c0.3-1,0.9-1.6,2-1.6c0.2,0,0.4,0,0.7,0c0-0.2,0-0.3,0-0.4
	c0-3.4,0-6.9,0-10.3C2.8,0.6,3.4,0,4.2,0c5.3,0,10.6,0,15.9,0c0.3,0,0.5,0.1,0.7,0.3c2.1,2.4,4.2,4.8,6.3,7.2
	c0.2,0.3,0.3,0.5,0.3,0.9c0,1.1,0,2.3,0,3.4c0,0.1,0,0.2,0,0.3c0.2,0,0.4,0,0.6,0c1.3,0,2.1,0.8,2.1,2.1c0,3.2,0,6.4,0,9.6
	c0,1.2-0.8,2-2,2c-0.2,0-0.4,0-0.7,0c0,0.2,0,0.3,0,0.4c0,2.1,0,4.1,0,6.2c0,1-0.5,1.5-1.5,1.5c-7.2,0-14.4,0-21.6,0
	c-1,0-1.5-0.5-1.5-1.5c0-2.1,0-4.1,0-6.2c0-0.1,0-0.2,0-0.4c-0.3,0-0.6,0-0.9,0c-0.6,0-1.1-0.3-1.5-0.9C0.2,24.7,0.2,24.4,0.1,24.1z
	 M4.1,12.1c7.3,0,14.6,0,21.9,0c0-1.1,0-2.2,0-3.3c-0.1,0-0.2,0-0.4,0c-1.8,0-3.5,0-5.3,0c-0.7,0-0.9-0.2-0.9-0.9c0-2.1,0-4.1,0-6.2
	c0-0.3-0.1-0.4-0.4-0.4c-4.9,0-9.8,0-14.6,0c-0.1,0-0.2,0-0.4,0C4.1,5,4.1,8.5,4.1,12.1z M26,32.2c0-2.1,0-4.2,0-6.4
	c-7.3,0-14.6,0-21.9,0c0,2.1,0,4.2,0,6.4C11.5,32.2,18.7,32.2,26,32.2z M18.8,13.6c0,0.1,0,0.1,0,0.2c1,3.2,2,6.4,3.1,9.5
	c0.1,0.2,0.2,0.2,0.3,0.2c0.7,0,1.4,0,2,0c0.3,0,0.4-0.1,0.4-0.3c0.9-2.6,1.8-5.2,2.6-7.8c0.2-0.6,0.4-1.2,0.6-1.8
	c-0.8,0-1.5,0-2.2,0c-0.1,0-0.2,0.1-0.2,0.2c-0.6,2.1-1.2,4.3-1.9,6.4c-0.1,0.3-0.2,0.7-0.3,1.1c-0.2-0.8-0.3-1.5-0.5-2.2
	c-0.5-1.8-1-3.6-1.5-5.4c0-0.1-0.1-0.2-0.2-0.2C20.3,13.6,19.6,13.6,18.8,13.6z M11.3,23.1c0.1,0,0.1,0.1,0.2,0.1
	c0.9,0.4,1.8,0.5,2.8,0.5c0.9,0,1.8-0.2,2.5-0.6c1.7-1,1.8-3.5,0.2-4.6c-0.5-0.3-1-0.5-1.5-0.8c-0.5-0.2-1-0.4-1.4-0.7
	c-0.6-0.4-0.5-1.2,0.2-1.5c0.2-0.1,0.5-0.2,0.7-0.2c0.8,0,1.5,0.1,2.2,0.5c0.2-0.6,0.3-1.2,0.5-1.8c-1.7-0.6-3.4-0.8-5,0.2
	C11.2,15,11,17,12.1,18.2c0.5,0.5,1.2,0.8,1.8,1.1c0.4,0.2,0.8,0.3,1.2,0.5c0.3,0.2,0.6,0.4,0.6,0.8c0.1,0.6-0.3,1.1-1,1.2
	c-0.7,0.1-1.4,0-2.1-0.2c-0.3-0.1-0.6-0.2-1-0.4C11.6,21.9,11.4,22.5,11.3,23.1z M9.9,21.6c-0.7,0.1-1.4,0.2-2.1,0.2
	c-1.3,0-2.3-0.7-2.7-1.8c-0.2-0.7-0.3-1.3-0.2-2C5,16.5,6,15.5,7.5,15.3c0.8-0.1,1.6,0,2.4,0.3c0.1-0.4,0.2-0.9,0.3-1.3
	c0.1-0.5,0.1-0.5-0.4-0.7c-0.9-0.2-1.8-0.3-2.7-0.2c-1.6,0.2-2.9,0.8-3.8,2.2c-0.8,1.1-0.9,2.4-0.8,3.8C2.7,21.5,4,23,6,23.5
	c0.9,0.2,1.8,0.3,2.8,0.1c0.5-0.1,1-0.2,1.5-0.3C10.1,22.7,10,22.1,9.9,21.6z"/>
</svg>
