<?xml version="1.0" encoding="UTF-8"?>
<svg version="1.1" viewBox="-459 261 40 40" xmlns="http://www.w3.org/2000/svg" xmlns:xlink="http://www.w3.org/1999/xlink">
    <!--Generated by IJSVG (https://github.com/curthard89/IJSVG)-->
    <g fill="#FFFFFF">
        <path d="M39.8,14l-19,-13.7c-0.4,-0.3 -0.9,-0.3 -1.2,0l-19,13.7c-0.5,0.3 -0.6,1 -0.2,1.4c0.3,0.5 1,0.6 1.5,0.2l18.3,-13.3l18.3,13.3c0.2,0.1 0.4,0.2 0.6,0.2c0.3,0 0.6,-0.1 0.8,-0.4c0.4,-0.4 0.3,-1.1 -0.1,-1.4Zm-5,1.9c-0.6,0 -1,0.5 -1,1v16.3h-8.3v-8.9c0,-2.8 -2.3,-5.1 -5.2,-5.1c-2.9,0 -5.2,2.3 -5.2,5.1v8.9h-8.3v-16.3c0,-0.6 -0.5,-1 -1,-1c-0.6,0 -1,0.5 -1,1v17.4c0,0.6 0.5,1 1,1h10.4c0.5,0 1,-0.4 1,-0.9c0,0 0,-0.1 0,-0.1v-9.9c0,-1.7 1.4,-3.1 3.1,-3.1c1.7,0 3.1,1.4 3.1,3.1v9.9c0,0 0,0.1 0,0.1c0,0.5 0.5,0.9 1,0.9h10.4c0.6,0 1,-0.5 1,-1v-17.4c0,-0.5 -0.5,-1 -1,-1Z" transform="translate(-459.2, 263.3)"></path>
    </g>
</svg>