<?xml version="1.0" encoding="utf-8"?>
<!-- Generator: Adobe Illustrator 19.2.0, SVG Export Plug-In . SVG Version: 6.00 Build 0)  -->
<svg version="1.1" id="Layer_1" xmlns="http://www.w3.org/2000/svg" xmlns:xlink="http://www.w3.org/1999/xlink" x="0px" y="0px"
	 viewBox="0 0 40 40" style="enable-background:new 0 0 40 40;" xml:space="preserve">
<style type="text/css">
	.st0{fill:#FFFFFF;}
</style>
<g>
	<g>
		<path class="st0" d="M31.7,11c-0.1-6.1-5-11-11.1-11c-2.7,0-5.3,1-7.3,2.8c-1.8,1.6-3,3.7-3.5,6.1c0,0-0.1,0-0.1,0
			c-5.2,0-9.4,4.2-9.4,9.4s4.2,9.4,9.4,9.4H13c0.5,0,0.8-0.4,0.8-0.8c0-0.5-0.4-0.8-0.8-0.8H9.5c-4.3,0-7.7-3.5-7.7-7.7
			s3.5-7.7,7.7-7.7c0.2,0,0.5,0,0.7,0c0.5,0,0.9-0.3,0.9-0.7c0.3-2.2,1.4-4.3,3.1-5.8c1.7-1.5,3.9-2.3,6.2-2.3
			c5.2,0,9.4,4.2,9.4,9.4c0,0.2,0,0.7,0,0.7c0,0.2,0.1,0.5,0.3,0.7c0.2,0.2,0.4,0.3,0.7,0.2c0.2,0,0.5,0,0.7,0c3.7,0,6.7,3,6.7,6.7
			c0,3.7-3,6.7-6.7,6.7h-1.8c-0.5,0-0.8,0.4-0.8,0.8c0,0.5,0.4,0.8,0.8,0.8h1.8c4.6,0,8.4-3.8,8.4-8.4C39.9,14.8,36.2,11,31.7,11z"
			/>
		<path class="st0" d="M21.3,6.5c0.5,0,0.8-0.4,0.8-0.8c0-0.5-0.4-0.8-0.8-0.8c-3.5,0-6.6,2.7-7.1,6.2c-0.1,0.5,0.3,0.9,0.7,1
			c0.5,0.1,0.9-0.3,1-0.7C16.3,8.5,18.6,6.5,21.3,6.5z"/>
	</g>
	<path class="st0" d="M20.5,39.5v-2.9l-0.5,0c-1.6-0.1-3.2-1.1-4.4-2.8l1.1-0.8c0.8,1.1,1.7,2.2,3.2,2.4l0.6,0.1v-7.3l-0.4-0.1
		c-2.5-0.7-4-2.3-4-4.4c0-2.3,2.1-3.9,4-4.2l0.4-0.1v-2.8H22v2.9l0.5,0c1.9,0.2,3.4,1.5,4.2,2.5l-1,0.9c-1.4-1.5-2.1-2-3.1-2.1
		L22,20.6v6.7l0.4,0.1c1.1,0.2,4.9,1,4.9,4.7c0,2.7-2.5,4.4-4.8,4.5l-0.5,0v2.9H20.5z M22,35.4l0.5,0c1.9-0.1,3.3-1.5,3.3-3.3
		c0-1.9-1.7-3.1-3.3-3.3L22,28.7V35.4z M19.9,20.7c-1.3,0.3-2.3,1.7-2.3,3.1c0,1.3,0.9,2.5,2.3,3l0.7,0.2v-6.4L19.9,20.7z"/>
</g>
</svg>
