<?xml version="1.0" encoding="utf-8"?>
<!-- Generator: Adobe Illustrator 22.1.0, SVG Export Plug-In . SVG Version: 6.00 Build 0)  -->
<svg version="1.1" id="Group_1931" xmlns="http://www.w3.org/2000/svg" xmlns:xlink="http://www.w3.org/1999/xlink" x="0px" y="0px"
	 viewBox="0 0 40 40" style="enable-background:new 0 0 40 40;" xml:space="preserve">
<style type="text/css">
	.st0{fill:#FFFFFF;}
</style>
<g>
	<path class="st0" d="M36.8,22C36.8,22,36.8,21.9,36.8,22c-1.6-0.1-3.1-0.1-4.7-0.1c-0.1,0-0.1,0-0.1,0.1c0,0.4,0,0.9,0,1.3
		c0,0.1,0,0.1,0.1,0.1c0.6,0,1.3,0,1.9,0h0.1L34,23.5c-2,2-4,4-6,6c-0.1,0.1-0.1,0.1-0.1,0c-1-1-2-2-3-3.1c-0.1-0.1-0.1-0.1-0.2,0
		c-0.8,0.8-1.6,1.6-2.4,2.4c0,0-0.1,0.1-0.1,0c-0.2-0.2-0.4-0.4-0.6-0.6c0,0-0.1-0.1,0-0.1c0.2-0.5,0.4-1,0.8-1.5
		c1.2-1.5,2.8-2.2,4.7-2.1c1.3,0.1,2.4,0.6,3.3,1.5c0.1,0.1,0.1,0,0.1,0c0.3-0.3,0.6-0.6,0.9-0.9c0.1-0.1,0.1-0.1,0-0.2
		C30,23.7,28.1,23,26,23.2c-1.4,0.1-2.7,0.7-3.7,1.7c-1.8,1.6-2.6,3.7-2.2,6.1c0.3,1.8,1.2,3.3,2.6,4.4c1.5,1.1,3.1,1.6,5,1.3
		c0.9-0.1,1.7-0.4,2.4-0.8c0.1,0,0.1,0,0.1,0c0.4,0.4,0.8,0.8,1.2,1.2c0.8,0.8,1.6,1.6,2.4,2.4c0.5,0.5,1.2,0.6,1.7,0.3
		c0.4-0.2,0.8-0.5,1-1c0.1-0.2,0.1-0.4,0.1-0.5c0-0.5-0.2-0.9-0.5-1.2c-1.2-1.2-2.4-2.4-3.5-3.5c0,0-0.1-0.1,0-0.1
		c1-1.6,1.2-3.3,0.8-5.2c-0.1-0.2-0.1-0.5-0.2-0.7l0,0c-0.4,0.4-0.7,0.7-1.1,1.1v0.1c0,0.2,0.1,0.4,0.1,0.7c0.1,1.6-0.4,2.9-1.4,4.1
		c-1.5,1.6-3.9,2.2-5.9,1.3c-1.9-0.8-3-2.3-3.3-4.3c0-0.1,0-0.3,0-0.4l0.1,0.1c0.3,0.3,0.5,0.5,0.8,0.8c0.1,0.1,0.1,0.1,0.1,0
		c0.8-0.8,1.6-1.6,2.4-2.4c0.1-0.1,0.1-0.1,0.1,0c1,1,2,2,3,3.1c0.1,0.1,0.1,0.1,0.2,0c2.4-2.4,4.7-4.7,7.1-7.1l0.1-0.1v0.1
		c0,0.7,0,1.2,0,1.9c0,0.1,0,0.1,0.1,0.1c0.4,0,0.9,0,1.3,0c0.1,0,0.1,0,0.1-0.1C36.8,25,36.8,23.6,36.8,22z"/>
	<path class="st0" d="M23,37c-0.1,0-0.2,0-0.4,0h-0.2c-2.1,0-4.3,0-6.4,0c-2.9,0-5.7,0-8.6,0c-1.4,0-2.3-0.9-2.3-2.3
		c0-10.1,0-20.3,0-30.4C5.2,2.9,6,2,7.4,2c2.2,0,4.4,0,6.6,0c3.3,0,6.8,0,10.1,0c0.2,0,0.4,0,0.5,0.2c0.1,0.1,0.2,0.3,0.2,0.5
		c0,2.1,0,4.2,0,6.2c0,0.3,0,0.7,0.1,1.1c0.2,1.2,0.8,1.9,2.1,2c0.4,0,0.7,0.1,1.1,0.1h0.6c0.4,0,2,0,2.4,0c0.8,0,1.8,0,2.8,0l0,0
		c0.2,0,0.4,0,0.5,0.2c0.1,0.1,0.2,0.4,0.2,0.5c0,2.3,0,6.7,0,6.7c0,0.7,0.4,1.1,1,1.1l0,0c0.6,0,1-0.4,1-1.1c0-2.1,0-7.2,0-8.4
		c0-0.5-0.2-0.9-0.5-1.3c-0.6-0.6-1.2-1.3-1.8-1.9c-2.1-2.3-4.3-4.6-6.4-7c-0.6-0.6-1.2-0.9-2-0.9C20.3,0,14.3,0,7.6,0
		C7.2,0,6.8,0,6.4,0.1c-2,0.4-3.2,2.1-3.2,4.1c0,3.6,0,7.3,0,10.8c0,1.5,0,2.9,0,4.4V22c0,4.2,0,8.4,0,12.6v0.1c0,0.3,0,0.6,0,0.8
		c0.4,2.1,2,3.5,4.1,3.5s4.2,0,6.3,0c1.6,0,8.8,0,8.8,0h0.1c0,0,0.1,0,0.2,0c0.5-0.1,0.9-0.4,0.9-0.9C23.8,37.6,23.5,37.2,23,37z
		 M26.7,3.2L26.7,3.2C26.8,3.1,26.9,3,26.9,3l0,0C27,3,27,3,27.1,3.1l6.2,6.7c0.1,0.1,0.1,0.2,0,0.3c0,0.1-0.1,0.2-0.2,0.2
		c-0.3,0-1.2,0-1.5,0s-0.6,0-0.8,0c-0.5,0-0.9,0-1.4,0c-0.7,0-1.3,0-2,0c-0.6,0-0.7-0.4-0.7-0.7c0-1.3,0-2.6,0-3.9
		c0-0.7,0-1.5,0-2.2C26.6,3.3,26.7,3.2,26.7,3.2z"/>
	<path class="st0" d="M14.7,5.6c0-0.3,0-0.3-0.3-0.3c-3.1,0.5-4.5,4.2-2.6,6.6c0.1,0.1,0.1,0.1,0.2,0c0.9-0.9,1.7-1.7,2.6-2.6
		c0.1-0.1,0.1-0.1,0.1-0.2c0-0.6,0-1.2,0-1.9C14.7,6.7,14.7,6.1,14.7,5.6z"/>
	<path class="st0" d="M15.2,9.9c-0.9,0.9-1.7,1.7-2.6,2.6c-0.1,0.1-0.1,0.2,0,0.2c0.9,0.7,1.9,0.9,3,0.8c1.8-0.2,3.4-1.8,3.6-3.6
		c0-0.1,0-0.1-0.1-0.1c-0.6,0-1.2,0-1.8,0s-1.2,0-1.8,0C15.4,9.8,15.3,9.8,15.2,9.9z"/>
	<path class="st0" d="M15.6,9c0.1,0.1,0.3,0,0.4,0c1,0,2.1,0,3.1,0c0.1,0,0.2,0,0.1-0.2c0-0.3-0.1-0.6-0.2-0.8
		c-0.6-1.5-1.7-2.5-3.3-2.7c-0.2,0-0.2,0-0.2,0.2c0,0.5,0,1.1,0,1.6s0,1,0,1.4C15.5,8.7,15.5,8.9,15.6,9z"/>
	<path class="st0" d="M21.5,21.3c0.7-0.6,1.3-1.3,2-2c0.2-0.2,0.4-0.3,0.6-0.2c1.2,0.4,2.5-0.6,2.5-1.8c0-0.9-0.4-1.5-1.1-1.9
		s-1.5-0.3-2.1,0.3c-0.7,0.5-0.9,1.3-0.7,2.1c0.1,0.2,0,0.4-0.1,0.6c-0.6,0.6-1.2,1.2-1.8,1.8c-0.2,0.2-0.3,0.2-0.5,0.1
		c-0.7-0.5-1.5-0.4-2.2,0.1c-0.2,0.1-0.3,0.1-0.4,0c-0.5-0.3-1.1-0.7-1.6-1c-0.2-0.1-0.2-0.2-0.2-0.4c0.2-0.9-0.2-1.7-0.9-2.1
		s-1.7-0.4-2.3,0.2c-0.7,0.6-0.9,1.4-0.6,2.2c0.1,0.2,0,0.4-0.1,0.5c-0.5,0.6-1,1.2-1.5,1.9c-0.2,0.2-0.3,0.3-0.6,0.3
		c-1.1,0-1.9,0.8-2,1.9c0,0.9,0.5,1.7,1.3,2s1.7,0.1,2.3-0.6s0.7-1.6,0.2-2.3c-0.1-0.2-0.1-0.4,0-0.6c0.5-0.5,0.9-1.1,1.3-1.7
		c0.1-0.2,0.3-0.2,0.5-0.2c0.4,0.1,0.9,0.1,1.3-0.1c0.2-0.1,0.4-0.1,0.6,0c0.6,0.3,1.1,0.7,1.7,1c0.2,0.1,0.3,0.3,0.3,0.5
		c0,1.1,0.9,2,2,2s2-0.9,2-2.1C21.2,21.7,21.3,21.5,21.5,21.3z M24.6,16.6c0.4,0,0.7,0.3,0.7,0.7c0,0.4-0.3,0.7-0.6,0.7
		c-0.4,0-0.7-0.3-0.7-0.7S24.3,16.6,24.6,16.6z M9.9,24.6c-0.4,0-0.7-0.3-0.7-0.7c0-0.4,0.3-0.7,0.7-0.7s0.7,0.3,0.7,0.7
		C10.5,24.3,10.2,24.6,9.9,24.6z M13.9,19.3c-0.4,0-0.7-0.3-0.7-0.7c0-0.4,0.3-0.7,0.7-0.7s0.7,0.3,0.7,0.7
		C14.6,18.9,14.3,19.2,13.9,19.3z M19.3,22.6c-0.4,0-0.7-0.3-0.7-0.7c0-0.4,0.3-0.7,0.7-0.7c0.4,0,0.7,0.3,0.7,0.7
		C19.9,22.3,19.7,22.6,19.3,22.6z"/>
</g>
</svg>
