<?xml version="1.0" encoding="utf-8"?>
<!-- Generator: Adobe Illustrator 21.1.0, SVG Export Plug-In . SVG Version: 6.00 Build 0)  -->
<svg version="1.1" id="Layer_1" xmlns="http://www.w3.org/2000/svg" xmlns:xlink="http://www.w3.org/1999/xlink" x="0px" y="0px"
	 viewBox="0 0 25 21.5" style="enable-background:new 0 0 25 21.5;" xml:space="preserve">
<style type="text/css">
	.st0{fill:#ED2024;stroke:#FFFFFF;stroke-miterlimit:10;}
	.st1{fill:#FFFFFF;}
</style>
<circle class="st0" cx="-72.9" cy="10.1" r="20"/>
<g>
	<polygon class="st1" points="-70.7,14.4 -69.8,-3.1 -75.9,-3.1 -75.1,14.4 	"/>
	<path class="st1" d="M-72.9,16.3c-2.1,0-3.5,1.4-3.5,3.5c0,2,1.4,3.5,3.4,3.5h0.1c2.1,0,3.4-1.5,3.4-3.5
		C-69.5,17.8-70.8,16.3-72.9,16.3z"/>
</g>
<image style="overflow:visible;" width="1366" height="662" xlink:href="../Downloads/IMG_19072017_165123_0.png"  transform="matrix(1 0 0 1 110.1951 -172.8715)">
</image>
<g>
	<polygon points="0,12.7 8.1,20.9 9.1,19.9 2,12.7 25,12.7 25,11.3 0,11.3 0,12.7 0,12.7 	"/>
	<polygon points="25,8.8 16.9,0.6 15.9,1.6 23,8.8 0,8.8 0,10.2 25,10.2 25,8.8 25,8.8 	"/>
</g>
<polygon points="-25.5,-27.6 -27.4,-27.6 -24.1,-24.2 -47.1,-24.2 -47.1,-22.8 -22.1,-22.8 -22.1,-24.2 -22.1,-24.2 -22.1,-24.2 "/>
<polygon points="-43.7,-16.7 -41.7,-16.7 -45.1,-20 -22.1,-20 -22.1,-21.4 -47.1,-21.4 -47.1,-20 -47.1,-20 -47.1,-20 "/>
</svg>
