<?xml version="1.0" encoding="UTF-8"?>
<svg version="1.1" viewBox="-459 261 40 40" xmlns="http://www.w3.org/2000/svg" xmlns:xlink="http://www.w3.org/1999/xlink">
    <!--Generated by IJSVG (https://github.com/curthard89/IJSVG)-->
    <g fill="#FFFFFF">
        <path d="M18.5,36.7h-15.8c-0.5,0 -0.9,-0.4 -0.9,-0.9v-33.1c0,-0.5 0.4,-0.9 0.9,-0.9h28.3c0.5,0 0.9,0.4 0.9,0.9v14.5c0,0.5 0.4,0.9 0.9,0.9c0.5,0 0.9,-0.4 0.9,-0.9v-16.3c0,-0.5 -0.4,-0.9 -0.9,-0.9h-31.9c-0.5,0 -0.9,0.4 -0.9,0.9v36.6c0,0.5 0.4,0.9 0.9,0.9h17.5c0.5,0 0.9,-0.4 0.9,-0.9v0c0.1,-0.4 -0.3,-0.8 -0.8,-0.8Zm20.9,1.7c-0.3,0 -0.6,0 -0.9,0c-0.1,0 -0.1,0 -0.2,0c0,-0.9 0,-1.7 0,-2.6c0,-1.3 -0.5,-2.3 -1.5,-3.1c-0.5,-0.4 -1,-0.8 -1.4,-1.2c0,0 -0.1,-0.1 -0.1,-0.1c0.5,-0.4 1,-0.8 1.5,-1.3c1,-0.8 1.5,-1.9 1.5,-3.2c0,-0.8 0,-1.6 0,-2.4v-0.1c0.3,0 0.6,0 0.9,0c0.5,0 0.8,-0.3 0.8,-0.8c0,-0.5 -0.3,-0.9 -0.7,-0.9c-0.1,0 -0.2,0 -0.2,0c-4.6,0 -9.3,0 -13.9,0c-0.1,0 -0.1,0 -0.2,0c-0.5,0 -0.8,0.3 -0.8,0.8c0,0.5 0.2,0.9 0.7,0.9c0.2,0 0.4,0 0.6,0c0.2,0 0.3,0 0.5,0v0.2c0,0.8 0,1.6 0,2.4c0,0.2 0,0.4 0,0.6c0.1,0.9 0.6,1.7 1.3,2.4c0.5,0.5 1.1,0.9 1.6,1.4c0,0 0.1,0.1 0.1,0.1c-0.5,0.4 -1,0.9 -1.5,1.3c-1,0.8 -1.6,1.9 -1.6,3.3c0,0.6 0,1.1 0,1.7v0.7c-0.3,0 -0.6,0 -1,0c-0.4,0 -0.8,0.3 -0.8,0.7c-0.1,0.4 0.2,0.8 0.6,0.9c0.1,0 0.3,0 0.4,0c4.7,0 9.3,0 14,0c0,0 0.1,0 0.1,0c0.5,0 0.8,-0.3 0.8,-0.8c0.1,-0.5 -0.2,-0.8 -0.6,-0.9Zm-2.9,-0.2v0.1h-1.8c-0.1,-0.9 -0.6,-1.7 -1.2,-2.3c-0.4,-0.4 -0.9,-0.8 -1.3,-1.1c0,0 -0.1,0 -0.2,0c-0.8,0.6 -1.6,1.2 -2.1,2.1c-0.3,0.4 -0.5,0.9 -0.5,1.4h-1.8v-0.2c0,-0.8 0,-1.6 0,-2.4c0,-0.6 0.2,-1.2 0.7,-1.6c0.4,-0.4 0.9,-0.8 1.3,-1.2c0.4,-0.3 0.8,-0.7 1.3,-1c0.3,-0.2 0.4,-0.7 0.2,-1c0,0 -0.1,-0.1 -0.1,-0.1c-0.5,-0.4 -1,-0.9 -1.6,-1.3c-0.3,-0.3 -0.7,-0.6 -1,-0.9c-0.5,-0.5 -0.8,-1.1 -0.8,-1.8c0,-0.8 0,-1.5 0,-2.3v-0.2h8.9v0.1c0,0.8 0,1.5 0,2.3c0,0.9 -0.3,1.6 -1,2.1c-0.7,0.6 -1.4,1.2 -2.1,1.8c-0.3,0.2 -0.4,0.7 -0.2,1c0,0.1 0.1,0.1 0.1,0.1c0.5,0.4 0.9,0.8 1.4,1.1c0.4,0.3 0.8,0.6 1.1,1c0.5,0.5 0.8,1.1 0.7,1.7c1.13687e-13,1 1.13687e-13,1.8 1.13687e-13,2.6Zm-9.8,-33.1h-19.5v1.7h19.5v-1.7Zm0,4.9h-13.3v1.7h13.3v-1.7Zm-5.2,5.3h-8.1v1.7h8.1c-0.2,-0.6 -0.2,-1.2 0,-1.7Zm-10.8,-5.3h-3.5v1.7h3.5v-1.7Zm-3.5,7h3.5v-1.7h-3.5v1.7Zm27.6,10h-5.3c0,0.5 0.2,1 0.5,1.3c0.6,0.6 1.3,1 2.1,1.2c0,0 0.1,0 0.1,0c0.8,-0.3 1.5,-0.6 2.1,-1.2c0.3,-0.3 0.4,-0.7 0.5,-1.3Zm-14.9,-4.1h-12l-0.2,-1.2c-0.1,-0.4 -0.3,-0.9 -0.6,-1.1l-1.7,-0.8c-0.1,0 -0.2,-0.1 -0.3,-0.1c-0.3,0 -0.5,0.2 -0.7,0.4c-0.2,0.4 0,0.8 0.4,0.9l1.6,0.7l1.9,9.2c0.1,0.5 0.6,0.9 1.1,0.9h9.5c0.4,0 0.7,-0.1 0.7,-0.5c0,-0.4 -0.3,-0.5 -0.7,-0.5h-9.2l-0.1,-1h9.4c0.5,0 1,-0.2 1.1,-0.8l1.1,-5.3c0.1,-0.3 0,-0.5 -0.2,-0.8c-0.4,-0.2 -0.7,1.7053e-13 -1.1,1.7053e-13Zm-1.3,5.9h-9.4l-1,-5h11.4l-1,5Zm-2.2,-2h-5c-0.4,0 -0.7,0.1 -0.7,0.5c0,0.4 0.3,0.5 0.7,0.5h5c0.4,0 0.7,-0.1 0.7,-0.5c0,-0.4 -0.3,-0.5 -0.7,-0.5Zm-5.4,-1h5.7c0.4,0 0.7,-0.1 0.7,-0.5c0,-0.4 -0.3,-0.5 -0.7,-0.5h-5.7c-0.4,0 -0.7,0.1 -0.7,0.5c0,0.4 0.3,0.5 0.7,0.5Zm7.1,7.8c0,-1 -0.8,-1.7 -1.7,-1.7c-1,0 -1.7,0.8 -1.7,1.7c0,0.9 0.8,1.7 1.7,1.7c0.9,0.1 1.7,-0.7 1.7,-1.7Zm-2.1,0c0,-0.2 0.1,-0.3 0.3,-0.3c0.2,0 0.3,0.1 0.3,0.3c0,0.2 -0.1,0.3 -0.3,0.3c-0.1,0.1 -0.3,-0.1 -0.3,-0.3Zm-2.9,0c0,-1 -0.8,-1.7 -1.7,-1.7c-1,0 -1.7,0.8 -1.7,1.7c0,0.9 0.8,1.7 1.7,1.7c0.9,0.1 1.7,-0.7 1.7,-1.7Zm-2,0c0,-0.2 0.1,-0.3 0.3,-0.3c0.2,0 0.3,0.1 0.3,0.3c0,0.2 -0.1,0.3 -0.3,0.3c-0.2,0.1 -0.3,-0.1 -0.3,-0.3Z" transform="translate(-459.1, 260.9)"></path>
    </g>
</svg>