<?xml version="1.0" encoding="utf-8"?>
<!-- Generator: Adobe Illustrator 19.0.0, SVG Export Plug-In . SVG Version: 6.00 Build 0)  -->
<svg version="1.1" id="Layer_1" xmlns="http://www.w3.org/2000/svg" xmlns:xlink="http://www.w3.org/1999/xlink" x="0px" y="0px"
	 viewBox="0 0 109 79" style="enable-background:new 0 0 109 79;" xml:space="preserve">
<style type="text/css">
	.st0{fill:#FFFFFF;}
</style>
<g>
	<path class="st0" d="M75.7,45.1c-4.1,0-8-2-10.4-5.3h-37c-4.1,0-7.5-3.4-7.5-7.5s3.4-7.5,7.5-7.5h37c2.4-3.4,6.3-5.3,10.4-5.3
		c7.1,0,12.8,5.8,12.8,12.8S82.8,45.1,75.7,45.1z M28.3,26.8c-3,0-5.5,2.5-5.5,5.5s2.5,5.5,5.5,5.5h38l0.3,0.4
		c2,3.1,5.4,4.9,9.1,4.9c6,0,10.8-4.9,10.8-10.8s-4.8-10.9-10.8-10.9c-3.7,0-7,1.8-9.1,4.9l-0.3,0.4L28.3,26.8L28.3,26.8z"/>
</g>
<g>
	<path class="st0" d="M33.6,71.1c-7.1,0-12.8-5.8-12.8-12.8s5.8-12.8,12.8-12.8c4.1,0,8,2,10.4,5.3h37c4.1,0,7.5,3.4,7.5,7.5
		s-3.4,7.5-7.5,7.5H44C41.6,69.1,37.8,71.1,33.6,71.1z M33.6,47.4c-6,0-10.8,4.9-10.8,10.8S27.7,69,33.6,69c3.7,0,7-1.8,9.1-4.9
		l0.3-0.4h38c3,0,5.5-2.5,5.5-5.5S84,52.7,81,52.7H43l-0.3-0.4C40.7,49.2,37.3,47.4,33.6,47.4z"/>
</g>
<g>
	<path class="st0" d="M75.8,45.1c-7,0-12.8-5.7-12.8-12.8s5.7-12.7,12.8-12.7s12.8,5.7,12.8,12.8S82.8,45.1,75.8,45.1z M75.8,21.6
		c-6,0-10.8,4.8-10.8,10.7s4.8,10.8,10.8,10.8s10.8-4.8,10.8-10.8S81.7,21.6,75.8,21.6z"/>
</g>
<g>
	<path class="st0" d="M33.2,71c-7,0-12.8-5.7-12.8-12.8s5.7-12.8,12.8-12.8S46,51.1,46,58.2S40.2,71,33.2,71z M33.2,47.5
		c-5.9,0-10.8,4.8-10.8,10.8S27.2,69,33.2,69S44,64.2,44,58.2S39.1,47.5,33.2,47.5z"/>
</g>
</svg>
