<?xml version="1.0" encoding="utf-8"?>
<!-- Generator: Adobe Illustrator 21.1.0, SVG Export Plug-In . SVG Version: 6.00 Build 0)  -->
<svg version="1.1" id="Layer_1" xmlns="http://www.w3.org/2000/svg" xmlns:xlink="http://www.w3.org/1999/xlink" x="0px" y="0px"
	 viewBox="0 0 40 40" style="enable-background:new 0 0 40 40;" xml:space="preserve">
<style type="text/css">
	.st0{opacity:0.2;}
	.st1{fill:#45CB8E;}
	.st2{fill:#FF4A5E;}
</style>
<image style="overflow:visible;" width="51" height="100" xlink:href="../Downloads/IMG_20072017_213037_0.png"  transform="matrix(1 0 0 1 -267.8333 28.7604)">
</image>
<g class="st0">
	<path d="M-92.7,40c-11,0-20-9-20-20c0-11,9-20,20-20c11,0,20,9,20,20C-72.7,31-81.6,40-92.7,40z M-92.7,1.9
		c-10,0-18.1,8.1-18.1,18.1s8.1,18.1,18.1,18.1S-74.6,30-74.6,20S-82.7,1.9-92.7,1.9z"/>
</g>
<g class="st0">
	<path d="M20,40C9,40,0,31,0,20C0,9,9,0,20,0c11,0,20,9,20,20C40,31,31,40,20,40z M20,1.9C10,1.9,1.9,10,1.9,20S10,38.1,20,38.1
		S38.1,30,38.1,20S30,1.9,20,1.9z"/>
</g>
<path class="st1" d="M-94.9,22.1l-4.4-4.4l-2.4,2.4l5.9,5.9l0,0l1.1,1.1l11.4-11.5L-86,13L-94.9,22.1z"/>
<g>
	<polygon class="st2" points="21.2,24.3 18.8,24.3 18.3,11.2 21.7,11.2 	"/>
	<circle class="st2" cx="20" cy="27.2" r="1.5"/>
</g>
</svg>
