<?xml version="1.0" encoding="utf-8"?>
<!-- Generator: Adobe Illustrator 19.0.0, SVG Export Plug-In . SVG Version: 6.00 Build 0)  -->
<svg version="1.1" id="Layer_1" xmlns="http://www.w3.org/2000/svg" xmlns:xlink="http://www.w3.org/1999/xlink" x="0px" y="0px"
	 viewBox="432 40 40 40" style="enable-background:new 432 40 40 40;" xml:space="preserve">
<style type="text/css">
	.st0{fill:#626975;}
</style>
<g>
	<g>
		<g>
			<path class="st0" d="M471.4,46.1c-0.7-0.3-1.5-0.5-2.3-0.6c0.5-0.3,1-0.6,1.5-0.8c0.5-0.2,0.6-0.8,0.4-1.3
				c-0.2-0.5-0.8-0.6-1.3-0.4c-0.9,0.5-1.8,1-2.6,1.5c0.2-1.2,0.1-2.4-0.3-3.5c-0.2-0.5-0.7-0.8-1.2-0.6c-0.5,0.2-0.8,0.7-0.6,1.2
				c0.4,1.2,0.4,2.5-0.1,3.7c-0.8-0.5-1.6-0.8-2.6-0.9c-1.4-0.1-2.8,0.3-3.8,1.3c-2.6,2.4-5.1,5.3-7,8.2c0.1-0.8,0-1.6-0.1-2.4
				c-0.3-2.1-1.1-3.9-2.3-5.2c-1.3-1.4-2.9-2.1-4.5-1.9c-1.1,0.2-2.1,0.7-2.9,1.6c0-0.3,0-0.6,0-0.9c0.1-0.7,0.5-1.2,1.1-1.6
				c0.4-0.3,0.6-0.9,0.3-1.3c-0.3-0.4-0.9-0.6-1.3-0.3c-0.2,0.1-0.5,0.3-0.7,0.5c-0.5-0.7-1.2-1.4-2-1.7l0,0
				c-1.5-0.6-3.2-0.5-4.5,0.5c-0.3,0.2-0.4,0.5-0.4,0.9c0.2,1.6,1.2,3,2.7,3.6c0.6,0.2,1.2,0.4,1.8,0.4c0.3,0,0.7,0,1-0.1
				c0,0.2,0,0.5,0.1,0.7c-1.2-0.1-2.3,0.1-3.2,0.8c-1.2,0.8-1.9,2.1-2,3.8c-0.1,1.1,0.1,2.2,0.4,3.4h-2.3c-0.5,0-0.9,0.4-0.9,0.9
				v7.7v0V71v7.7c0,0.5,0.4,0.9,0.9,0.9H468c0.5,0,0.9-0.4,0.9-0.9V71v-7.7v0v-7.7c0-0.5-0.4-0.9-0.9-0.9h-2.9
				c0.3-0.3,0.6-0.5,0.9-0.8c1-0.9,1.6-2.2,1.6-3.7c0-0.9-0.2-1.8-0.6-2.6c1.2-0.3,2.5-0.3,3.7,0.2c0.5,0.2,1,0,1.2-0.5
				C472.1,46.8,471.9,46.3,471.4,46.1z M437.9,44.1c-0.7-0.3-1.2-0.9-1.4-1.6c0.7-0.3,1.4-0.3,2.1,0c0.7,0.3,1.2,0.9,1.4,1.6
				C439.3,44.3,438.6,44.4,437.9,44.1z M437.9,49c0.8-0.5,1.7-0.5,2.3-0.4c1.1,0.2,2.2-0.2,2.8-1.1c0.4-0.5,1-1.1,2-1.3
				c1-0.1,2,0.3,2.9,1.3c1,1.1,1.6,2.6,1.9,4.2c0.1,1,0.1,2-0.1,2.9h-12.4C436.2,52.3,436.5,50,437.9,49z M467.1,56.5v6.8v0V71v6.8
				h-33.2V71v-7.7v0v-6.7h2.7h13.8h1.3l0,0l0,0H467.1L467.1,56.5z M464.7,52.5c-0.8,0.7-1.6,1.4-2.4,2l-0.9-1
				c-0.4-0.4-0.9-0.4-1.3-0.1c-0.4,0.3-0.4,0.9-0.1,1.2h-6.6c0.4-0.6,0.9-1.2,1.3-1.9l0.8,0.8c0.2,0.2,0.4,0.3,0.7,0.3
				c0.2,0,0.5-0.1,0.6-0.2c0.4-0.4,0.4-0.9,0.1-1.3l-1-1.1c0.7-0.9,1.5-1.7,2.3-2.5l0.8,0.9c0.2,0.2,0.4,0.3,0.7,0.3
				c0.2,0,0.5-0.1,0.6-0.2c0.4-0.4,0.4-0.9,0.1-1.3l-0.9-1c0.1-0.1,0.2-0.2,0.4-0.3c0.6-0.6,1.5-0.9,2.4-0.8
				c0.9,0.1,1.8,0.5,2.5,1.2c0.7,0.7,1,1.6,1,2.6C465.7,51.1,465.4,51.9,464.7,52.5z"/>
		</g>
	</g>
	<g>
		<g>
			<circle class="st0" cx="438.3" cy="59.4" r="1"/>
		</g>
	</g>
	<g>
		<g>
			<circle class="st0" cx="462.5" cy="59.4" r="1"/>
		</g>
	</g>
	<g>
		<g>
			<circle class="st0" cx="438.3" cy="67.1" r="1"/>
		</g>
	</g>
	<g>
		<g>
			<circle class="st0" cx="462.5" cy="67.1" r="1"/>
		</g>
	</g>
	<g>
		<g>
			<circle class="st0" cx="438.3" cy="74.8" r="1"/>
		</g>
	</g>
	<g>
		<g>
			<circle class="st0" cx="462.5" cy="74.8" r="1"/>
		</g>
	</g>
	<g>
		<g>
			<path class="st0" d="M464.6,62.3h-28.2c-0.5,0-0.9,0.4-0.9,0.9c0,0.5,0.4,0.9,0.9,0.9h28.2c0.5,0,0.9-0.4,0.9-0.9
				C465.5,62.8,465.1,62.3,464.6,62.3z"/>
		</g>
	</g>
	<g>
		<g>
			<path class="st0" d="M464.6,70h-28.2c-0.5,0-0.9,0.4-0.9,0.9c0,0.5,0.4,0.9,0.9,0.9h28.2c0.5,0,0.9-0.4,0.9-0.9
				C465.5,70.5,465.1,70,464.6,70z"/>
		</g>
	</g>
</g>
</svg>
