<?xml version="1.0" encoding="utf-8"?>
<!-- Generator: Adobe Illustrator 19.0.0, SVG Export Plug-In . SVG Version: 6.00 Build 0)  -->
<svg version="1.1" id="Layer_1" xmlns="http://www.w3.org/2000/svg" xmlns:xlink="http://www.w3.org/1999/xlink" x="0px" y="0px"
	 viewBox="-39 41 40 40" style="enable-background:new -39 41 40 40;" xml:space="preserve">
<style type="text/css">
	.st0{fill:#FFFFFF;}
</style>
<g>
	<g>
		<g>
			<path class="st0" d="M0.5,47.1c-0.7-0.3-1.5-0.5-2.3-0.6c0.5-0.3,1-0.6,1.5-0.8s0.6-0.8,0.4-1.3s-0.8-0.6-1.3-0.4
				c-0.9,0.5-1.8,1-2.6,1.5c0.2-1.2,0.1-2.4-0.3-3.5c-0.2-0.5-0.7-0.8-1.2-0.6s-0.8,0.7-0.6,1.2c0.4,1.2,0.4,2.5-0.1,3.7
				c-0.8-0.5-1.6-0.8-2.6-0.9c-1.4-0.1-2.8,0.3-3.8,1.3c-2.6,2.4-5.1,5.3-7,8.2c0.1-0.8,0-1.6-0.1-2.4c-0.3-2.1-1.1-3.9-2.3-5.2
				c-1.3-1.4-2.9-2.1-4.5-1.9c-1.1,0.2-2.1,0.7-2.9,1.6c0-0.3,0-0.6,0-0.9c0.1-0.7,0.5-1.2,1.1-1.6c0.4-0.3,0.6-0.9,0.3-1.3
				c-0.3-0.4-0.9-0.6-1.3-0.3c-0.2,0.1-0.5,0.3-0.7,0.5c-0.5-0.7-1.2-1.4-2-1.7l0,0c-1.5-0.6-3.2-0.5-4.5,0.5
				c-0.3,0.2-0.4,0.5-0.4,0.9c0.2,1.6,1.2,3,2.7,3.6c0.6,0.2,1.2,0.4,1.8,0.4c0.3,0,0.7,0,1-0.1c0,0.2,0,0.5,0.1,0.7
				c-1.2-0.1-2.3,0.1-3.2,0.8c-1.2,0.8-1.9,2.1-2,3.8c-0.1,1.1,0.1,2.2,0.4,3.4h-2.3c-0.5,0-0.9,0.4-0.9,0.9v7.7l0,0V72v7.7
				c0,0.5,0.4,0.9,0.9,0.9h35.3c0.5,0,0.9-0.4,0.9-0.9V72v-7.7l0,0v-7.7c0-0.5-0.4-0.9-0.9-0.9h-2.9c0.3-0.3,0.6-0.5,0.9-0.8
				c1-0.9,1.6-2.2,1.6-3.7c0-0.9-0.2-1.8-0.6-2.6c1.2-0.3,2.5-0.3,3.7,0.2c0.5,0.2,1,0,1.2-0.5C1.2,47.8,1,47.3,0.5,47.1z M-33,45.1
				c-0.7-0.3-1.2-0.9-1.4-1.6c0.7-0.3,1.4-0.3,2.1,0s1.2,0.9,1.4,1.6C-31.6,45.3-32.3,45.4-33,45.1z M-33,50
				c0.8-0.5,1.7-0.5,2.3-0.4c1.1,0.2,2.2-0.2,2.8-1.1c0.4-0.5,1-1.1,2-1.3c1-0.1,2,0.3,2.9,1.3c1,1.1,1.6,2.6,1.9,4.2
				c0.1,1,0.1,2-0.1,2.9h-12.4C-34.7,53.3-34.4,51-33,50z M-3.8,57.5v6.8l0,0V72v6.8H-37V72v-7.7l0,0v-6.7h2.7h13.8h1.3l0,0l0,0
				L-3.8,57.5L-3.8,57.5z M-6.2,53.5c-0.8,0.7-1.6,1.4-2.4,2l-0.9-1c-0.4-0.4-0.9-0.4-1.3-0.1c-0.4,0.3-0.4,0.9-0.1,1.2h-6.6
				c0.4-0.6,0.9-1.2,1.3-1.9l0.8,0.8c0.2,0.2,0.4,0.3,0.7,0.3c0.2,0,0.5-0.1,0.6-0.2c0.4-0.4,0.4-0.9,0.1-1.3l-1-1.1
				c0.7-0.9,1.5-1.7,2.3-2.5l0.8,0.9c0.2,0.2,0.4,0.3,0.7,0.3c0.2,0,0.5-0.1,0.6-0.2c0.4-0.4,0.4-0.9,0.1-1.3l-0.9-1
				c0.1-0.1,0.2-0.2,0.4-0.3c0.6-0.6,1.5-0.9,2.4-0.8c0.9,0.1,1.8,0.5,2.5,1.2s1,1.6,1,2.6C-5.2,52.1-5.5,52.9-6.2,53.5z"/>
		</g>
	</g>
	<g>
		<g>
			<circle class="st0" cx="-32.6" cy="60.4" r="1"/>
		</g>
	</g>
	<g>
		<g>
			<circle class="st0" cx="-8.4" cy="60.4" r="1"/>
		</g>
	</g>
	<g>
		<g>
			<circle class="st0" cx="-32.6" cy="68.1" r="1"/>
		</g>
	</g>
	<g>
		<g>
			<circle class="st0" cx="-8.4" cy="68.1" r="1"/>
		</g>
	</g>
	<g>
		<g>
			<circle class="st0" cx="-32.6" cy="75.8" r="1"/>
		</g>
	</g>
	<g>
		<g>
			<circle class="st0" cx="-8.4" cy="75.8" r="1"/>
		</g>
	</g>
	<g>
		<g>
			<path class="st0" d="M-6.3,63.3h-28.2c-0.5,0-0.9,0.4-0.9,0.9s0.4,0.9,0.9,0.9h28.2c0.5,0,0.9-0.4,0.9-0.9
				C-5.4,63.8-5.8,63.3-6.3,63.3z"/>
		</g>
	</g>
	<g>
		<g>
			<path class="st0" d="M-6.3,71h-28.2c-0.5,0-0.9,0.4-0.9,0.9s0.4,0.9,0.9,0.9h28.2c0.5,0,0.9-0.4,0.9-0.9C-5.4,71.5-5.8,71-6.3,71
				z"/>
		</g>
	</g>
</g>
</svg>
