<?xml version="1.0" encoding="utf-8"?>
<!-- Generator: Adobe Illustrator 19.0.0, SVG Export Plug-In . SVG Version: 6.00 Build 0)  -->
<svg version="1.1" id="Layer_1" xmlns="http://www.w3.org/2000/svg" xmlns:xlink="http://www.w3.org/1999/xlink" x="0px" y="0px"
	 viewBox="-39 41 40 40" style="enable-background:new -39 41 40 40;" xml:space="preserve">
<style type="text/css">
	.st0{fill:#FFFFFF;}
</style>
<g>
	<path class="st0" d="M-11.6,74.5c-0.2-0.1-0.3-0.2-0.3-0.2c-0.8-0.7-0.8-0.7,0-1.5c2-1.9,4.3-1.8,6.4,0.2c0.7,0.7,0.7,0.7,1.5,0.1
		c0.2-0.2,0.4-0.3,0.8-0.5C-4,73.9-3.7,75.2-3,76.4c-0.2,0-0.2,0-0.2,0c-1.1-1-1.9-0.7-3.2,0.1c-1.9,1.4-4.1,1-5.8-0.7
		c-0.4-0.4-0.5-0.6,0.1-0.9C-12,74.8-11.8,74.7-11.6,74.5z M-10.7,73.1c-0.3,0.1-0.4,0.2-0.4,0.5c0,0.2,0.2,0.4,0.4,0.4
		s0.4-0.2,0.4-0.5C-10.3,73.2-10.4,73.1-10.7,73.1z"/>
	<g>
		<path class="st0" d="M-29.1,71.5c0.9-0.6,1.3-1.3,1.2-2.3c-0.1-1-0.7-1.6-1.8-1.6c-0.9,0-1.8,0-2.8,0c-0.9-0.1-1.4,0.3-1.8,1.1
			c-0.3,0.8-0.1,1.8,0.6,2.4c0.5,0.3,0.6,0.7,0.6,1.2c0,0.8,0,1.6,0,2.5c0,0.5,0.1,0.7,0.6,0.6c0.9,0,1.7,0,2.7,0
			c0.5,0,0.7-0.1,0.6-0.6c0-0.7,0-1.5,0-2.3c0-0.4,0.1-0.6,0.5-0.5h0.1c0.8,0,1.9-0.3,2.5,0.2c0.5,0.5,0.1,1.5,0.2,2.4
			c0,1.5,0,1.5-1.5,1.5c-1.8,0-3.8,0-5.6,0c-0.6,0-0.8-0.2-0.7-0.8c0-0.6,0-1.2,0-1.8c0-0.9,0-1.7-0.7-2.5c-0.8-0.8-0.7-1.9-0.2-3
			c0.5-0.9,1.2-1.3,2.4-1.2c1.8,0.1,3.7,0,5.6,0c1.1,0,1.8,0.5,2.1,1.6c0.4,1,0.2,1.9-0.4,2.9c-0.2,0.2-0.4,0.2-0.7,0.2
			C-26.9,71.5-27.9,71.5-29.1,71.5z"/>
	</g>
	<g>
		<path class="st0" d="M-25.8,51.1c-0.2,1.5-1.1,3-2.8,4c-0.2,0.1-0.4,0.2-0.6,0.1c-0.9-0.6-1.9,0.3-3-0.1c-1.6-0.8-2.9-3.4-2.7-5.1
			c0.3-1.6,1.6-2.5,3.4-2c0.7,0.2,1.3,0.2,2,0C-27.2,47.4-25.8,48.6-25.8,51.1z M-31.6,49c-0.5,0-0.9-0.2-1.3,0.2
			c-0.9,0.9-0.9,3,0.1,3.9C-32.7,51.6-32.5,50.3-31.6,49z"/>
		<path class="st0" d="M-32.7,45.2c0.9-0.3,1.4-0.1,1.7,0.7c0.2,0.4,0.4,0.8,0.7,1.4c0.4-1.5,1.4-2,2.8-2.3c0.5-0.1,0.6,0.1,0.5,0.6
			c-0.3,1.1-1.3,1.8-3,1.9c-0.5,0-0.9-0.1-1.3-0.6C-31.8,46.5-32.2,45.9-32.7,45.2z"/>
	</g>
	<g>
		<path class="st0" d="M-3.3,52.9c0,0.7,0,1.4,0,2.1c0,0.5-0.1,0.6-0.6,0.7c-2.6,0.7-5.1,1.4-7.7,2c-1,0.3-1,0.2-1.1-0.9
			c-0.3-2.6,0.4-4.7,2.3-6.5c0.8-0.8,1.4-1.8,2.1-2.8c0.2-0.3,0.5-0.4,0.9-0.4c2.1,0,4.2,2,4.2,4.1C-3.3,51.8-3.3,52.4-3.3,52.9z
			 M-11.9,55.1c0,0.5,0,0.9,0,1.4s0.1,0.6,0.6,0.4c2.3-0.6,4.5-1.2,6.9-1.8c0.4-0.1,0.6-0.3,0.6-0.8c0-0.8,0-1.7,0-2.6
			c0-0.6-0.2-0.7-0.7-0.6c-1.8,0.5-3.6,1-5.4,1.5C-11.9,53.3-11.9,53.3-11.9,55.1z"/>
		<path class="st0" d="M-6.4,54.6c-0.6-0.1-0.9-0.4-0.9-1s0.4-0.9,1-1c0.5-0.1,1.1,0.5,1,1C-5.4,54.2-5.7,54.5-6.4,54.6z"/>
		<path class="st0" d="M-10,54.6c-0.1,0.4-0.2,0.6-0.6,0.6c-0.4,0-0.7-0.2-0.7-0.7c0-0.4,0.2-0.6,0.6-0.6
			C-10.2,53.9-10,54.2-10,54.6z"/>
		<path class="st0" d="M-8.3,55.2c-0.2,0-0.3-0.1-0.3-0.3c0-0.2,0.1-0.3,0.3-0.3S-8,54.7-8,54.9C-8,55.1-8.2,55.2-8.3,55.2z"/>
	</g>
	<path class="st0" d="M-14,64.2c-1.8,0-3.3-1.5-3.3-3.3V44.4c0-1.6,1-2.9,2.5-3.3c0.2,0,0.3,0,0.3-0.1H-2c1.2,0.2,2.3,1.1,2.7,2.4
		v0.1l0.1,0.1c0,0,0.1,0.1,0.1,0.3v17.3c0,0.1-0.1,0.2-0.1,0.4c0,0.1,0,0.2-0.1,0.2c-0.5,1.5-1.7,2.5-3.2,2.5L-14,64.2L-14,64.2z
		 M-13.7,42.4c-1.2,0-1.9,0.7-1.9,1.9v16.4c0,1.2,0.7,1.9,1.9,1.9h11.3c1.2,0,1.9-0.7,1.9-1.9V44.4c0-1.2-0.7-1.9-1.9-1.9
		L-13.7,42.4L-13.7,42.4z"/>
	<path class="st0" d="M-35.5,59c-1.8,0-3.1-1.2-3.4-2.9l0,0V43.7c0.2-1.2,0.9-2,2-2.5c0.1,0,0.3-0.1,0.5-0.1S-36.1,41-36,41h12.2
		c0.2,0,0.3,0.1,0.4,0.1c1.5,0.4,2.5,1.6,2.5,3.1v11.6c0,1.5-0.8,2.7-2.1,3.2c-0.3,0.2-0.8,0.2-1.2,0.2h-11.3V59z M-35.4,42.4
		c-1.2,0-1.9,0.7-1.9,1.9v11.3c0,1.2,0.7,1.9,1.9,1.9h11.3c1.2,0,1.9-0.7,1.9-1.9c-0.1-1.9-0.1-3.7-0.1-5.6v-6
		c-0.2-1-0.9-1.5-1.8-1.5h-11.3V42.4z"/>
	<path class="st0" d="M-36.1,80.9c-1.2-0.2-2.3-1.1-2.7-2.4c0-0.1,0-0.3-0.1-0.3v-0.1c0-4.2-0.1-8.4-0.1-12.3c0-0.1,0.1-0.2,0.1-0.4
		c0-0.1,0-0.2,0.1-0.2c0.5-1.5,1.6-2.4,3.2-2.5h11.5c1.6,0,2.9,1,3.3,2.5c0.1,0.3,0.1,0.6,0.1,1v11.3c0,1.9-1.5,3.3-2.9,3.5h-12.5
		V80.9z M-35.5,64.2c-1.1,0-1.9,0.8-1.9,1.9v11.3c0,1.2,0.7,1.9,1.9,1.9h11.3c1.2,0,1.9-0.7,1.9-1.9V66.1c0-1.1-0.7-1.8-1.8-1.8
		L-35.5,64.2L-35.5,64.2z"/>
	<path class="st0" d="M-14.2,80.8c0,0-0.1,0-0.2,0c-0.1,0-0.2-0.1-0.4-0.1c-1.4-0.4-2.4-1.7-2.4-3.2V71c0-1.8,1.5-3.3,3.3-3.3h11.7
		c1.6,0,3,1.2,3.2,2.8v7.4c-0.3,1.3-1,2.1-2.2,2.6h-0.1h-0.1c-0.3,0.2-0.4,0.2-0.5,0.2L-14.2,80.8L-14.2,80.8z M-13.7,69.4
		c-1.2,0-1.9,0.7-1.9,1.9v6.1c0,1.2,0.7,1.9,1.9,1.9c1.9-0.1,3.7-0.1,5.6-0.1h5.7c1.1,0,1.8-0.7,1.8-1.8v-6.2c0-1.1-0.7-1.8-1.8-1.8
		H-13.7z"/>
</g>
</svg>
