<?xml version="1.0" encoding="UTF-8"?>
<svg version="1.1" viewBox="-459 261 40 40" xmlns="http://www.w3.org/2000/svg" xmlns:xlink="http://www.w3.org/1999/xlink">
    <!--Generated by IJSVG (https://github.com/curthard89/IJSVG)-->
    <g fill="#FFFFFF">
        <path d="M10.1,7.8c3.8,0 7.7,0 11.5,0c0.7,0 1,-0.3 1,-1c0,-1.2 0,-2.4 0,-3.6c0,-0.7 -0.3,-1 -1,-1c-0.8,0 -1.6,0 -2.3,0c-0.2,0 -0.3,-0.1 -0.4,-0.3c-0.2,-0.4 -0.5,-0.9 -0.8,-1.2c-0.3,-0.3 -0.7,-0.5 -1.1,-0.7h-2c0,0 0,0.1 -0.1,0.1c-0.9,0.4 -1.6,1 -1.9,1.9c0,0.1 -0.2,0.2 -0.3,0.2c-0.8,0 -1.6,0 -2.4,0c-0.7,0 -1,0.3 -1,1c0,1.2 0,2.4 0,3.6c-0.1,0.7 0.2,1 0.8,1Zm5.8,-6.2c0.8,0 1.5,0.7 1.5,1.5c0,0.8 -0.7,1.5 -1.5,1.5c-0.8,0 -1.5,-0.7 -1.5,-1.5c0,-0.9 0.7,-1.5 1.5,-1.5Zm13.9,19.5c-4,0 -6.9,3.3 -6.9,6.9c0,3.7 3,6.9 6.9,6.9c3.7,0 6.9,-2.9 6.9,-6.9c0,-4 -3.2,-6.9 -6.9,-6.9Zm4.4,5.7c-1.5,1.5 -2.9,3.1 -4,4.9c-0.1,0.2 -0.2,0.4 -0.3,0.5c-0.5,0.7 -1.2,0.8 -1.8,0.1c-0.8,-1 -1.6,-2.1 -2.4,-3.2c-0.2,-0.2 -0.3,-0.4 -0.5,-0.7c-0.3,-0.5 -0.3,-1.1 0.2,-1.4c0.4,-0.3 1,-0.2 1.4,0.2c0.6,0.8 1.2,1.6 1.8,2.4c0.1,0.1 0.2,0.2 0.3,0.3c0.5,-0.7 1,-1.4 1.5,-2c0.8,-0.9 1.6,-1.8 2.5,-2.7c0.6,-0.6 1.5,-0.3 1.7,0.5c5.68434e-14,0.5 -0.1,0.8 -0.4,1.1Zm-4.2,10.4c-0.2,0.3 -0.4,0.6 -0.6,0.8c-0.4,0.3 -0.9,0.4 -1.4,0.4c-5.5,0 -11.1,0 -16.6,0c-2.5,0 -5,0 -7.5,0c-1.3,0 -2.1,-0.9 -2.1,-2.1c0,-0.7 0,-1.3 0,-2c0,-8.4 0,-16.7 0,-25.1c0,-1.3 0.9,-2.1 2.1,-2.1c0.6,0 1.2,0 1.8,0c0.6,0 1.1,0 1.7,0c0,-0.5 0,-1 0,-1.5c0,-0.1 -0.2,-0.2 -0.3,-0.2c-1.1,0 -2.2,0 -3.4,0c-2.2,0.1 -3.7,1.7 -3.7,3.8c0,1.6 0,3.2 0,4.8c0,7.4 0,14.8 0,22.2c0,2.1 1.6,3.8 3.7,3.8c8.2,0 16.4,0 24.6,0c1.5,0 2.8,-0.9 3.4,-2.3c0.1,-0.3 0.2,-0.7 0.3,-1c-0.6,0.1 -1,0.1 -1.4,0.2c-0.4,-0.1 -0.5,0.1 -0.6,0.3Zm-1.5,-30.2c1,0.2 1.7,1 1.7,2.2c0,3 0,5.9 0,8.9v1.3c0.6,0.1 1.1,0.2 1.7,0.2c0,-1 0,-1.9 0,-2.8c0,-2.6 0,-5.2 0,-7.8c0,-1.9 -1.4,-3.5 -3.2,-3.6c-1.3,-0.1 -2.7,0 -4,0c0,0 0,0 -0.1,0v1.6c1,0 2,0 3,0c0.3,5.68434e-14 0.6,-0.1 0.9,5.68434e-14Zm-3.3,6.1c-0.1,-0.2 -0.4,-0.3 -0.6,-0.3c-5.8,0 -11.6,0 -17.3,0c-0.1,0 -0.3,0 -0.3,0c-0.1,0.1 -0.3,0.3 -0.3,0.4c0,0.2 0.2,0.3 0.3,0.4c0.1,0.1 0.3,0 0.4,0c2.9,0 5.7,0 8.6,0v0c1.6,0 3.2,0 4.7,0c1.4,0 2.7,0 4.1,0c0.3,0.1 0.6,-0.2 0.4,-0.5Zm0,5.9c0,-0.3 -0.2,-0.4 -0.5,-0.4c-0.1,0 -0.2,0 -0.4,0h-8.5c-2.9,0 -5.7,0 -8.6,0c-0.1,0 -0.3,0 -0.3,0c-0.1,0.1 -0.4,0.3 -0.4,0.4c0,0.1 0.2,0.3 0.4,0.4c0.1,0.1 0.2,0 0.3,0c4.6,0 9.2,0 13.8,0c1.2,0 2.4,0 3.6,0c0.4,0 0.6,-0.1 0.6,-0.4Zm-4,5.3c-4.6,0 -9.3,0 -13.9,0c-0.6,0 -0.8,0.1 -0.8,0.5c0,0.3 0.2,0.4 0.8,0.4c2.7,0 5.5,0 8.2,0c1.8,0 3.6,0 5.5,0c0.1,0 0.3,-0.1 0.4,-0.2c0.1,-0.2 0.2,-0.4 0.3,-0.7h-0.5Zm-0.5,6.1c-2.4,0 -4.8,0 -7.2,0c-2.1,0 -4.2,0 -6.3,0c-0.4,0 -0.6,0.2 -0.6,0.5c0,0.4 0.3,0.4 0.6,0.4c0.1,0 0.1,0 0.2,0c3.8,0 7.7,0 11.5,0h2.7c-0.1,-0.2 -0.1,-0.3 -0.1,-0.4c-0.1,-0.4 -0.4,-0.5 -0.8,-0.5Z" transform="translate(-457.3, 261)"></path>
    </g>
</svg>