<?xml version="1.0" encoding="utf-8"?>
<!-- Generator: Adobe Illustrator 21.1.0, SVG Export Plug-In . SVG Version: 6.00 Build 0)  -->
<svg version="1.1" id="Capa_1" xmlns="http://www.w3.org/2000/svg" xmlns:xlink="http://www.w3.org/1999/xlink" x="0px" y="0px"
	 viewBox="0 0 103.9 103.3" style="enable-background:new 0 0 103.9 103.3;" xml:space="preserve">
<style type="text/css">
	.st0{fill:#FFFFFF;}
</style>
<g>
	<path class="st0" d="M47.3,103.3C47.3,103.3,47.3,103.3,47.3,103.3L47.3,103.3c-12.6,0-24.4-4.9-33.2-13.8S0.3,68.8,0.3,56.3
		c0-12.6,4.9-24.4,13.8-33.2c8.9-8.9,20.7-13.8,33.2-13.8c0,0,0,0,0,0h2.2v44.8h44.8v2.2c0,12.6-4.9,24.4-13.8,33.2
		C71.6,98.4,59.8,103.3,47.3,103.3z M47.3,98.9C47.3,98.9,47.3,98.9,47.3,98.9c11.4,0,22.1-4.4,30.1-12.5
		c7.5-7.5,11.9-17.4,12.4-27.9H45.1V13.8c-10.6,0.5-20.4,4.9-27.9,12.4c-8,8-12.5,18.7-12.5,30.1c0,11.4,4.4,22.1,12.5,30.1
		S35.9,98.9,47.3,98.9C47.3,98.9,47.3,98.9,47.3,98.9z"/>
</g>
<g>
	<path class="st0" d="M103.9,49.2H54.7V0h2.2c0,0,0,0,0,0c12.5,0,24.3,4.9,33.2,13.8c8.9,8.9,13.8,20.7,13.8,33.2V49.2z M59.1,44.8
		h40.3C98.9,34.2,94.6,24.4,87,16.9C79.5,9.3,69.7,5,59.1,4.4V44.8z"/>
</g>
</svg>
