<?xml version="1.0" encoding="utf-8"?>
<!-- Generator: Adobe Illustrator 22.1.0, SVG Export Plug-In . SVG Version: 6.00 Build 0)  -->
<svg version="1.1" id="Capa_1" xmlns="http://www.w3.org/2000/svg" xmlns:xlink="http://www.w3.org/1999/xlink" x="0px" y="0px"
	 viewBox="0 0 40 40" style="enable-background:new 0 0 40 40;" xml:space="preserve">
<style type="text/css">
	.st0{fill:#FFFFFF;}
</style>
<g>
	<ellipse class="st0" cx="8" cy="15.7" rx="1.4" ry="1.6"/>
	<path class="st0" d="M12,16.5h11.4c0.5,0,0.8-0.4,0.8-0.8c0-0.5-0.4-0.8-0.8-0.8H12c-0.5,0-0.8,0.4-0.8,0.8S11.6,16.5,12,16.5z"/>
	<ellipse class="st0" cx="8" cy="22.1" rx="1.4" ry="1.6"/>
	<path class="st0" d="M20.1,21.2H12c-0.5,0-0.8,0.4-0.8,0.8s0.4,0.8,0.8,0.8h8.1c0.5,0,0.8-0.4,0.8-0.8S20.5,21.2,20.1,21.2z"/>
	<path class="st0" d="M37.9,28.2c0-4.3-3.3-7.9-7.6-8.2V8.2c0-0.9-0.7-1.6-1.6-1.6h-2.3V6.1c0-0.9-0.7-1.6-1.6-1.6h-3.3
		C21,1.9,18.8,0,16.2,0s-4.8,1.9-5.1,4.4H7.7C6.8,4.4,6.1,5.1,6.1,6v0.5H3.8c-0.9,0-1.6,0.7-1.6,1.6v30.1c0,0.9,0.7,1.6,1.6,1.6
		h24.9c0.9,0,1.6-0.7,1.6-1.6v-2C34.5,36,37.9,32.5,37.9,28.2z M16.2,1.6c1.7,0,3.1,1.2,3.5,2.8h-6.9C13.1,2.8,14.5,1.6,16.2,1.6z
		 M7.7,6.1h17v3.4h-17C7.7,9.5,7.7,6.1,7.7,6.1z M28.7,38.4H3.8l0,0V8.2l0,0h2.3v1.2c0,0.9,0.7,1.6,1.6,1.6h17
		c0.9,0,1.6-0.7,1.6-1.6V8.2h2.3l0,0V20c-4.1,0.5-7.3,4-7.3,8.2s3.2,7.7,7.3,8.2L28.7,38.4L28.7,38.4z M29.6,34.7
		c-3.6,0-6.6-3-6.6-6.6s3-6.6,6.6-6.6s6.6,3,6.6,6.6S33.3,34.7,29.6,34.7z"/>
	<path class="st0" d="M34.2,29.9c0-0.1-0.1-0.2-0.1-0.2c-0.7-1.3-1.5-2.5-2.2-3.8c-0.1-0.2-0.3-0.4-0.4-0.7c-0.3-0.5-0.6-1-0.9-1.6
		C30.4,23.2,30,23,29.7,23s-0.7,0.2-0.9,0.6c0,0,0,0.1-0.1,0.1l-0.6,1c-1,1.7-1.9,3.3-2.9,5c-0.1,0.1-0.1,0.2-0.2,0.4
		c0,0.3,0,0.6,0.1,0.9c0.2,0.3,0.4,0.4,0.8,0.5c0.1,0,0.2,0,0.3,0h0.1c0.6,0,1.2,0,1.9,0h1.5h0.1c0.3,0,0.7,0,1,0c0.4,0,0.7,0,1.1,0
		c0.6,0,1,0,1.5,0c0.4,0,0.7-0.2,0.9-0.5C34.4,30.7,34.4,30.3,34.2,29.9z M33.4,30.5L33.4,30.5c-0.2,0-0.2,0-0.3,0
		c-0.7,0-1.4,0-2.1,0h-4.6h-0.1h-0.1c-0.2,0-0.2,0-0.2,0s0,0,0.1-0.2c0.4-0.6,0.7-1.3,1.1-1.9l0.4-0.6c0.4-0.8,0.9-1.5,1.3-2.3
		l0.7-1.2l0,0v-0.1c0.1-0.2,0.2-0.2,0.2-0.2s0,0,0.1,0.2c0.5,0.8,0.9,1.6,1.4,2.4l0.4,0.7c0.5,1,1.1,1.9,1.6,2.9
		C33.3,30.2,33.4,30.3,33.4,30.5C33.4,30.4,33.4,30.5,33.4,30.5z"/>
	<path class="st0" d="M29.6,25.5c-0.3,0-0.5,0.3-0.5,0.6c0,0.7,0.1,1.5,0.1,2.2c0,0.4,0.2,0.6,0.4,0.6c0.2,0,0.4-0.2,0.4-0.5
		c0.1-0.6,0.1-1.3,0.2-1.9c0-0.3,0-0.4-0.1-0.6C30.1,25.6,29.9,25.4,29.6,25.5z"/>
	<path class="st0" d="M29.7,29.2c-0.3,0-0.6,0.3-0.6,0.6c0,0.3,0.3,0.5,0.6,0.5c0.3,0,0.6-0.2,0.5-0.6C30.2,29.4,30,29.2,29.7,29.2z
		"/>
	<path class="st0" d="M15,26H8.9v4.7H6.6v6.2h10.7v-6.2H15V26z M10,27.1h0.8v1.4H13v-1.4h0.8v3.5H10V27.1z M11.3,35.8H7.7v-4h0.7
		v1.4h2.2v-1.4h0.7C11.3,31.8,11.3,35.8,11.3,35.8z M15.5,33.2v-1.4h0.7v4h-3.7v-4h0.8v1.4C13.3,33.2,15.5,33.2,15.5,33.2z"/>
</g>
</svg>
