<?xml version="1.0" encoding="utf-8"?>
<!-- Generator: Adobe Illustrator 19.0.0, SVG Export Plug-In . SVG Version: 6.00 Build 0)  -->
<svg version="1.1" id="Layer_1" xmlns="http://www.w3.org/2000/svg" xmlns:xlink="http://www.w3.org/1999/xlink" x="0px" y="0px"
	 viewBox="-39 41 40 40" style="enable-background:new -39 41 40 40;" xml:space="preserve">
<style type="text/css">
	.st0{fill:#FFFFFF;}
</style>
<g>
	<g>
		<g>
			<path class="st0" d="M-1.8,44.5h-15c-0.9,0-1.7,0.4-2.2,1c-0.5-0.6-1.3-1-2.2-1h-14.9c-1.6,0-2.9,1.3-2.9,2.9v27.2
				c0,1.6,1.3,2.9,2.9,2.9h14.9c0.9,0,1.7-0.4,2.2-1c0.5,0.6,1.3,1,2.2,1h15c1.6,0,2.9-1.3,2.9-2.9V47.4C1.1,45.8-0.2,44.5-1.8,44.5
				z M-19.7,74.6c0,0.8-0.6,1.4-1.4,1.4H-36c-0.8,0-1.4-0.6-1.4-1.4V47.4c0-0.8,0.6-1.4,1.4-1.4h14.9c0.8,0,1.4,0.6,1.4,1.4V74.6z
				 M-0.3,74.6c0,0.8-0.6,1.4-1.4,1.4h-15c-0.8,0-1.4-0.6-1.4-1.4V47.4c0-0.8,0.6-1.4,1.4-1.4h15c0.8,0,1.4,0.6,1.4,1.4
				C-0.3,47.4-0.3,74.6-0.3,74.6z"/>
			<rect x="-14.7" y="51.7" class="st0" width="10.7" height="1.4"/>
			<rect x="-14.7" y="54.6" class="st0" width="10.7" height="1.4"/>
			<rect x="-14.7" y="60.3" class="st0" width="10.7" height="1.4"/>
			<rect x="-14.7" y="63.1" class="st0" width="10.7" height="1.4"/>
			<rect x="-14.7" y="66" class="st0" width="10.7" height="1.4"/>
			<path class="st0" d="M-24,50.3h-10c-0.2,0-0.5,0.1-0.6,0.3s-0.1,0.5,0,0.7l4.9,9.9v7h-2.9v1.4h7.2v-1.4h-2.9v-7l4.9-9.9
				c0.1-0.2,0.1-0.5,0-0.7C-23.6,50.4-23.8,50.3-24,50.3z M-29,59.4l-3.9-7.7h7.7L-29,59.4z"/>
		</g>
	</g>
</g>
</svg>
