<?xml version="1.0" encoding="utf-8"?>
<!-- Generator: Adobe Illustrator 19.0.0, SVG Export Plug-In . SVG Version: 6.00 Build 0)  -->
<svg version="1.1" id="Layer_1" xmlns="http://www.w3.org/2000/svg" xmlns:xlink="http://www.w3.org/1999/xlink" x="0px" y="0px"
	 viewBox="-39 41 40 40" style="enable-background:new -39 41 40 40;" xml:space="preserve">
<style type="text/css">
	.st0{fill:#FFFFFF;}
</style>
<g>
	<path class="st0" d="M0.2,69.9h-0.7c-0.4-9.7-8.2-17.5-17.8-17.8v-0.7h0.4c1,0,1.8-0.8,1.8-1.8s-0.8-1.8-1.8-1.8H-20
		c-1,0-1.8,0.8-1.8,1.8s0.8,1.8,1.8,1.8h0.4v0.7c-9.7,0.4-17.5,8.2-17.8,17.8h-0.7c-0.4,0-0.7,0.3-0.7,0.7c0,0.4,0.3,0.7,0.7,0.7
		h0.9l0.3,1c0.3,1.1,1.4,1.9,2.5,1.9h31.2c1.1,0,2.2-0.8,2.5-1.9l0.3-1h0.9c0.1,0.1,0.4-0.3,0.4-0.7S0.6,69.9,0.2,69.9z M-20.5,49.6
		c0-0.2,0.2-0.4,0.4-0.4h2.1c0.2,0,0.4,0.2,0.4,0.4S-17.9,50-18,50h-2.1C-20.4,49.9-20.5,49.8-20.5,49.6z M-2.4,71.9
		c-0.1,0.4-0.7,0.9-1.1,0.9h-31.2c-0.5,0-1-0.4-1.1-0.9l0,0l-0.2-0.6h28.3c0.4,0,0.7-0.3,0.7-0.7c0-0.4-0.3-0.7-0.7-0.7h-28.6
		c0.4-9.1,7.9-16.4,17.1-16.4s16.8,7.3,17.1,16.4H-5c-0.4,0-0.7,0.3-0.7,0.7c0,0.4,0.3,0.7,0.7,0.7h2.6L-2.4,71.9L-2.4,71.9z"/>
	<path class="st0" d="M-10.6,57.4c-0.3-0.2-0.8-0.1-1,0.2s-0.1,0.8,0.2,1c1.4,0.9,2.6,2,3.5,3.3c0.1,0.2,0.4,0.3,0.6,0.3
		s0.3,0,0.4-0.2c0.3-0.2,0.4-0.7,0.1-1C-7.8,59.6-9.1,58.4-10.6,57.4z"/>
	<path class="st0" d="M-13.1,56.1c-0.6-0.2-1.2-0.4-1.8-0.6c-0.4-0.1-0.8,0.1-0.9,0.5c-0.1,0.4,0.1,0.8,0.5,0.9
		c0.5,0.2,1.1,0.3,1.6,0.6c0.1,0,0.2,0.1,0.3,0.1c0.3,0,0.5-0.2,0.7-0.4C-12.6,56.7-12.8,56.3-13.1,56.1z"/>
</g>
</svg>
