<?xml version="1.0" encoding="utf-8"?>
<!-- Generator: Adobe Illustrator 23.0.2, SVG Export Plug-In . SVG Version: 6.00 Build 0)  -->
<svg version="1.1" id="Capa_1" xmlns="http://www.w3.org/2000/svg" xmlns:xlink="http://www.w3.org/1999/xlink" x="0px" y="0px"
	 viewBox="0 0 512 512" style="enable-background:new 0 0 512 512;" xml:space="preserve">
<style type="text/css">
	.st0{fill:#626975;}
</style>
<g>
	<path class="st0" d="M0.1,445.1c3.1-5.5,7.9-7.3,14.2-7c13.1,0.3,26.2,0.1,39.8,0.1c0-2.6,0-4.7,0-6.8c0-121.6,0-243.2,0-364.8
		c0.1-32.4,19.8-57.8,50.4-64.7c5-1.2,10.2-1.5,15.4-1.5c109.4-0.1,218.9-0.1,328.3-0.1c33.5,0,58.9,22.2,63.4,55.2
		c0.2,1.3,0.2,2.7,0.3,3.9c0.2,8.6-3.5,12.7-12.2,12.7c-28.5,0-56.9,0-85.4,0c-1.8,0-3.6,0-6.2,0c0,1.9,0,3.7,0,5.4
		c0,20.2,0,40.3,0,60.5c0,1.7,0.1,3.3-0.2,5c-0.7,5.2-5,9-9.8,9c-4.9,0-9.1-3.8-9.8-9c-0.2-1.5-0.2-3-0.2-4.5c0-24.6,0.1-49.3,0-74
		c-0.1-15.8,4.4-29.9,14.4-42c0.4-0.4,0.6-1.1,1.5-2.3c-2.2,0-3.7,0-5.3,0c-92.7,0-185.2,0-277.9,0c-27.4,0-46.5,18.8-46.5,45.9
		c0,122.4,0,244.9,0,367.3c0,1.3,0,2.7,0,4.6c2.2,0,4.2,0,6.1,0c69.8,0,139.6,0,209.4,0c11,0,13.6,2.5,14.5,13.5
		c1.4,17.3,9.7,30.2,25.6,36.9c15.9,6.7,31,4.1,44.1-7.5c9-7.8,13.3-18,13.9-30.4c-45.3-3.1-80.3-23.5-102.8-63.2
		c-14.4-25.5-18.4-53-12.6-81.7c12.3-59.9,64.7-98.3,120.7-97.1c63.9,1.3,113.6,51.2,118.4,111.4c4.8,59.7-36.6,118.7-103,129.2
		c-0.6,4.7-0.9,9.6-2.1,14.2c-6.8,26.2-23.6,42.1-50.2,47.6c-0.7,0.1-1.5,0.6-2.2,1c-99.3,0-198.5,0-297.9,0c-0.7-0.3-1.4-0.7-2.2-1
		c-21.9-3.9-38-15.9-47.6-35.9c-2.9-6-4.3-12.7-6.3-19.2C0.1,452.4,0.1,448.7,0.1,445.1z M391.2,430.5
		c55.9-0.3,101.1-45.9,100.8-101.3c-0.4-55.6-46.1-100.9-101.2-100.4c-56,0.4-101.2,46-100.8,101.4
		C290.5,385.6,336,430.8,391.2,430.5z M21.8,458.3c0.3,1.3,0.4,2.5,0.7,3.5c5.5,18,22.7,30.2,43.2,30.2c76.8,0.1,153.7,0,230.4,0
		c1.1,0,2.1,0,4.4,0c-8.7-10.3-13.9-21.3-15.8-33.8C196.7,458.3,109.4,458.3,21.8,458.3z M409.8,51.8c27,0,53.6,0,80.4,0
		c-3.7-18-21.2-31.6-40.2-31.6C431,20.2,413.5,33.8,409.8,51.8z"/>
	<path class="st0" d="M188,101.5c-0.1,5.8-3.9,10.1-9.3,10.6c-5.1,0.4-9.9-3.1-10.4-9.2c-0.7-8.4-10.1-12.7-17.8-9.3
		c-3.8,1.7-6.9,4.8-6.1,8.7c0.6,3.1,3.4,6.4,6.1,8.3c2.2,1.6,5.7,1.5,8.6,1.7c23.9,2.5,36.9,27.6,23.5,46.1
		c-3.2,4.4-8.5,7.1-12.8,10.8c-1.6,1.4-3.4,2.9-4.2,4.7c-1.8,4.5-5,7.3-9.8,7.1c-4.6-0.1-7.6-2.7-9.4-7c-0.9-1.9-2.7-3.9-4.6-4.9
		c-10.3-5.4-16.8-13.4-17.8-25.3c-0.5-6.1,3.2-10.8,8.7-11.5c5.2-0.6,9.7,2.8,11,8.6c0.1,0.3,0.1,0.6,0.1,1
		c1.8,8.3,9.7,12.4,17.6,8.9c3.7-1.7,6.9-4.7,6.1-8.7c-0.6-3.1-3.4-6.3-6.1-8.3c-2-1.5-5.3-1.4-8.1-1.7
		c-12.5-1.5-22.2-7.3-27.2-19.1c-6.1-14.4,0.7-30.7,15.6-37.4c2.6-1.2,4.3-2.3,5.2-5.2c1.3-3.9,4.6-6,8.9-6.1c4.3-0.1,7.7,1.9,9,5.9
		c1.1,3.1,2.9,4.4,5.5,5.5C181,80.3,188.2,91.3,188,101.5z"/>
	<path class="st0" d="M214.8,218.6c-25.8,0-51.6,0-77.4,0c-2,0-4.1-0.1-6-0.5c-4.2-1-7.6-5.3-7.3-9.6c0.3-4.6,2.6-8,7-9.2
		c2.3-0.6,4.9-0.6,7.5-0.6c51,0,101.8,0,152.8,0c2.3,0,4.7,0.1,6.9,0.5c4.4,0.9,7.5,4.9,7.6,9.4c0,4.5-3.3,8.7-7.9,9.6
		c-2.2,0.4-4.6,0.4-6.9,0.4C265.7,218.7,240.2,218.6,214.8,218.6L214.8,218.6z"/>
	<path class="st0" d="M274.6,86.6c17,0,33.9-0.1,51,0c8.4,0.1,12.9,4.7,11.7,11.7c-0.7,4.3-3.3,6.8-7.4,7.7
		c-2.2,0.4-4.6,0.5-6.9,0.5c-32.9,0-65.9,0-98.8,0c-0.3,0-0.6,0-1,0c-8.1-0.1-12.9-3.8-12.9-10.1c0-6.2,4.8-9.9,13-9.9
		C240.2,86.6,257.4,86.6,274.6,86.6z"/>
	<path class="st0" d="M273.7,162.6c-16.4,0-32.9,0-49.4,0c-2.1,0-4.4-0.1-6.5-0.4c-4.4-0.9-7.6-4.9-7.7-9.3
		c-0.1-4.3,3.1-8.5,7.3-9.6c1.6-0.4,3.3-0.5,4.9-0.5c34.2,0,68.6,0,102.8,0c2,0,4.1,0.1,5.9,0.9c4.3,1.7,6.5,5.1,6.3,9.7
		c-0.2,4.6-3.3,8.5-7.9,9c-5.2,0.5-10.7,0.4-15.9,0.4C300.3,162.6,286.9,162.6,273.7,162.6z"/>
	<path class="st0" d="M185.6,274.6c-16.6,0-33.3,0.1-49.9,0c-7.7-0.1-12.5-5.1-11.3-11.4c0.9-4.5,3.5-7.5,8.2-8.2
		c1.8-0.2,3.6-0.4,5.4-0.4c31.8,0,63.7,0,95.4,0c9.5,0,14.3,3.6,14.2,10.2c-0.2,6.5-4.8,9.8-14.1,9.8
		C217.5,274.7,201.5,274.6,185.6,274.6L185.6,274.6z"/>
	<path class="st0" d="M185.5,330.5c-15.8,0-31.7,0-47.5,0c-1.8,0-3.6-0.1-5.4-0.3c-4.9-0.7-8.4-4.9-8.4-9.6c0-4.5,3.4-8.6,8-9.5
		c1.9-0.3,3.9-0.5,6-0.5c31.8,0,63.6,0,95.4,0c9.5,0,14.5,3.6,14.1,10.2c-0.3,5-3,10-14.1,9.8C217.5,330.3,201.5,330.5,185.5,330.5z
		"/>
	<path class="st0" d="M207.7,386.2c-10.3,0-20.6,0.2-30.9-0.1c-5-0.2-8.5-4.6-8.6-9.4c-0.1-4.7,3.3-9,8.2-9.8c1.9-0.3,3.9-0.4,6-0.4
		c10,0,19.9,0,30,0c7.8,0,15.7,0,23.5,0c4.8,0,9,1.5,11,6.2c2.9,6.7-1.7,13.4-9.6,13.8c-9.8,0.3-19.6,0.1-29.4,0.1
		C207.7,386.4,207.7,386.3,207.7,386.2z"/>
	<path class="st0" d="M134,366.8c5.4-0.1,10,4.3,10,9.6c0.1,5.3-4.5,9.8-9.8,9.9c-5.3,0.1-10-4.4-10-9.7
		C124.1,371.4,128.6,366.8,134,366.8z"/>
	<path class="st0" d="M407.9,177.7c-0.1,5.3-4.7,9.7-10.1,9.6c-5.4-0.1-9.9-4.6-9.8-9.9c0.1-5.3,4.7-9.7,10.1-9.6
		C403.5,167.9,408,172.5,407.9,177.7z"/>
	<path class="st0" d="M355.6,397.2c-6.4-0.1-11.1-6.1-9.3-12.4c0.5-2,1.7-3.9,2.7-5.9c18.2-32.4,36.6-64.8,54.9-97.4
		c4.6-8.1,9.6-10.4,15.5-7.4c5.9,3.2,6.5,9.2,1.9,17.4c-18.4,32.7-36.9,65.5-55.3,98.2C363.6,393.9,361,397.3,355.6,397.2z"/>
	<path class="st0" d="M351.1,315.2c-16.4-0.1-29.9-13.5-29.9-29.9c0-16.2,13.5-29.9,29.9-30.1c16.4-0.2,30.2,13.6,30,30.3
		C381,302.1,367.7,315.3,351.1,315.2z M361.2,285.2c0-5.3-4.6-9.9-9.9-9.8c-5.2,0.1-9.8,4.7-9.8,10c0,5.3,4.6,9.8,9.9,9.8
		C356.8,295.1,361.2,290.7,361.2,285.2z"/>
	<path class="st0" d="M432.1,343.9c16.3,0,29.9,13.6,29.8,30c0,16.2-13.6,29.9-30,30c-16.2,0.1-30-13.6-30-29.9
		C401.9,357.3,415.4,343.9,432.1,343.9z M431.8,364c-5.4,0.1-9.8,4.6-9.8,9.9c0.1,5.3,4.8,9.8,10,9.8c5.2-0.1,9.9-4.8,9.8-10
		C441.8,368.4,437.1,363.9,431.8,364z"/>
</g>
</svg>
