<?xml version="1.0" encoding="utf-8"?>
<!-- Generator: Adobe Illustrator 21.1.0, SVG Export Plug-In . SVG Version: 6.00 Build 0)  -->
<svg version="1.1" id="Layer_1" xmlns="http://www.w3.org/2000/svg" xmlns:xlink="http://www.w3.org/1999/xlink" x="0px" y="0px"
	 viewBox="0 0 40 40" style="enable-background:new 0 0 40 40;" xml:space="preserve">
<style type="text/css">
	.st0{fill:#636975;}
	.st1{fill:#626975;}
</style>
<g>
	<path class="st0" d="M239.3,76.6c-7.8,0-15.5,0-23.3,0c0-7.8,0-15.5,0-23.3c3.9,0,7.7,0,11.6,0c0-1.1,0-2.2,0-3.3c-5,0-10,0-15,0
		c0,10,0,20,0,30c10,0,20,0,30,0c0-5,0-10,0-15c-1.1,0-2.2,0-3.4,0C239.3,68.9,239.3,72.8,239.3,76.6z"/>
	<path class="st0" d="M252,45.3c-1.4-1.4-2.8-2.9-4.3-4.3c-0.4-0.4-0.9-0.7-1.3-1.1c-0.3,0-0.5,0-0.8,0c-0.3,0.2-0.7,0.4-1,0.7
		c-3.8,3.8-7.6,7.5-11.3,11.3c-0.3,0.3-0.5,0.7-0.7,1.2c-0.6,2.1-1.1,4.2-1.6,6.3c-0.4,1.4,0.7,2.5,2.1,2.1c2.1-0.5,4.2-1,6.3-1.6
		c0.5-0.1,0.9-0.3,1.2-0.7c3.8-3.8,7.5-7.5,11.3-11.3C252.9,47.1,252.9,46.2,252,45.3z M243.1,52.2c-1.4,1.4-2.9,2.9-4.3,4.3
		c-0.2,0.2-0.5,0.3-0.7,0.4c-1,0.3-2,0.5-3.1,0.8c0.1-0.6,0.3-1.1,0.4-1.7c0.2-1.3,0.8-2.3,1.8-3.2c1.3-1.2,2.6-2.5,3.8-3.8
		c0.9,0.9,1.7,1.7,2.7,2.7C243.5,51.9,243.3,52,243.1,52.2z M246,49.3c-0.9-0.9-1.7-1.7-2.6-2.6c0.9-0.8,1.7-1.7,2.6-2.6
		c0.8,0.8,1.7,1.7,2.5,2.5C247.7,47.5,246.9,48.4,246,49.3z"/>
	<path class="st0" d="M226,56.7c-2.2,0-4.4,0-6.6,0c0,2.2,0,4.4,0,6.6c2.2,0,4.4,0,6.6,0C226,61.1,226,58.9,226,56.7z"/>
	<path class="st0" d="M226,66.7c-2.2,0-4.5,0-6.6,0c0,2.2,0,4.4,0,6.6c2.2,0,4.4,0,6.6,0C226,71.1,226,68.9,226,66.7z"/>
	<path class="st0" d="M236,66.7c-2.2,0-4.4,0-6.6,0c0,2.2,0,4.4,0,6.6c2.2,0,4.4,0,6.6,0C236,71.1,236,68.9,236,66.7z"/>
</g>
<g>
	<path class="st1" d="M26.6,36.6c-7.8,0-15.5,0-23.3,0c0-7.8,0-15.5,0-23.3c3.9,0,7.7,0,11.6,0c0-1.1,0-2.2,0-3.3c-5,0-10,0-15,0
		c0,10,0,20,0,30c10,0,20,0,30,0c0-5,0-10,0-15c-1.1,0-2.2,0-3.4,0C26.6,28.9,26.6,32.8,26.6,36.6z"/>
	<path class="st1" d="M39.3,5.3C37.9,3.9,36.5,2.4,35,1c-0.4-0.4-0.9-0.7-1.3-1.1c-0.3,0-0.5,0-0.8,0c-0.3,0.2-0.7,0.4-1,0.7
		C28.2,4.4,24.4,8.2,20.7,12c-0.3,0.3-0.5,0.7-0.7,1.2c-0.6,2.1-1.1,4.2-1.6,6.3c-0.4,1.4,0.7,2.5,2.1,2.1c2.1-0.5,4.2-1,6.3-1.6
		c0.5-0.1,0.9-0.3,1.2-0.7c3.8-3.8,7.5-7.5,11.3-11.3C40.2,7.1,40.2,6.2,39.3,5.3z M30.4,12.2c-1.4,1.4-2.9,2.9-4.3,4.3
		c-0.2,0.2-0.5,0.3-0.7,0.4c-1,0.3-2,0.5-3.1,0.8c0.1-0.6,0.3-1.1,0.4-1.7c0.2-1.3,0.8-2.3,1.8-3.2c1.3-1.2,2.6-2.5,3.8-3.8
		c0.9,0.9,1.7,1.7,2.7,2.7C30.8,11.9,30.6,12,30.4,12.2z M33.3,9.3c-0.9-0.9-1.7-1.7-2.6-2.6c0.9-0.8,1.7-1.7,2.6-2.6
		C34.2,5,35,5.8,35.9,6.7C35,7.5,34.2,8.4,33.3,9.3z"/>
	<path class="st1" d="M13.3,16.7c-2.2,0-4.4,0-6.6,0c0,2.2,0,4.4,0,6.6c2.2,0,4.4,0,6.6,0C13.3,21.1,13.3,18.9,13.3,16.7z"/>
	<path class="st1" d="M13.3,26.7c-2.2,0-4.5,0-6.6,0c0,2.2,0,4.4,0,6.6c2.2,0,4.4,0,6.6,0C13.3,31.1,13.3,28.9,13.3,26.7z"/>
	<path class="st1" d="M23.3,26.7c-2.2,0-4.4,0-6.6,0c0,2.2,0,4.4,0,6.6c2.2,0,4.4,0,6.6,0C23.3,31.1,23.3,28.9,23.3,26.7z"/>
</g>
</svg>
