<?xml version="1.0" encoding="UTF-8"?>
<svg version="1.1" viewBox="-459 261 40 40" xmlns="http://www.w3.org/2000/svg" xmlns:xlink="http://www.w3.org/1999/xlink">
    <!--Generated by IJSVG (https://github.com/curthard89/IJSVG)-->
    <g fill="#FFFFFF">
        <g fill="#FFFFFF">
            <path d="M6.1,0c0.2,0.1 0.3,0.3 0.3,0.4c0,1.1 0,2.2 0,3.3c0,0.1 0,0.1 0,0.3c0.1,0 0.1,0 0.3,0c1.1,0 2.2,0 3.3,0c0.3,0 0.4,0.1 0.4,0.4c0,0.6 0,1.2 0,1.7c0,0.3 -0.1,0.4 -0.4,0.4c-1.1,0 -2.2,0 -3.3,0c-0.1,0 -0.1,0 -0.2,0c0,0.1 0,0.1 0,0.3c0,1.1 0,2.2 0,3.3c0,0.4 -0.1,0.4 -0.4,0.4c-0.6,0 -1.2,0 -1.7,0c-0.3,0 -0.4,-0.1 -0.4,-0.4c0,-1.1 0,-2.2 0,-3.3c0,-0.1 0,-0.1 0,-0.3c-0.1,0 -0.1,0 -0.3,0c-1.1,0 -2.2,0 -3.3,0c-0.3,0 -0.4,-0.1 -0.4,-0.4c0,-0.6 0,-1.2 0,-1.7c0,-0.3 0.1,-0.4 0.4,-0.4c1.1,0 2.2,0 3.3,0c0.1,0 0.1,0 0.2,0c0,-0.1 0,-0.2 0,-0.3c0,-1.1 0,-2.2 0,-3.3c0,-0.2 0.1,-0.3 0.3,-0.4c0.5,0 1.2,0 1.9,0Z" transform="translate(-429.5, 263.3)"></path>
        </g>
        <path d="M40,16.5c0,-0.2 -0.2,-0.5 -0.3,-0.5l-9.3,-5.1c0,0 0,0 0,0v-5c0,-0.2 0,-0.3 -0.1,-0.4c-0.1,-0.1 -0.1,-0.2 -0.3,-0.3l-9.3,-5.1c-0.1,0 -0.2,-0.1 -0.3,-0.1c-0.1,0 -0.2,0 -0.3,0.1l-10,5c0,0 -0.1,0.1 -0.1,0.1c-0.2,0.1 -0.3,0.3 -0.3,0.5v4.7l-9,4.5c-0.1,0 -0.2,0 -0.4,0.1c-0.2,0.1 -0.3,0.3 -0.3,0.6v9.8c0,0.3 0.2,0.5 0.4,0.6l9.9,4.8c0,0 0,0 0.1,0c0,0 0,0 0,0c0,0 0,0 0,0c0,0 0,0 0.1,0c0,0 0,0 0,0c0,0 0,0 0.1,0c0,0 0,0 0,0c0,0 0,0 0.1,0c0.1,0 0.2,0 0.3,-0.1c0,0 0,0 0,0l8.6,-4c0,0 0.1,0.1 0.2,0.1l10,4.9v0v0c0,0 0.1,0 0.1,0c0.1,0 0.1,0 0.2,0c0.1,0 0.2,0 0.3,-0.1c0.1,0 0.2,-0.1 0.2,-0.2l9,-4.2c0.2,-0.2 0.4,-0.4 0.4,-0.6v-9.8c5.68434e-14,-0.1 5.68434e-14,-0.2 5.68434e-14,-0.3Zm-29,-1.4v-8.4l8.7,4.3v8.3l-8.7,-4.2Zm10,-4.1l8.1,-4.1v8.7l-8.1,3.8v-8.4Zm17,5.5l-7.9,4.1l-4.2,-2.1l4.1,-1.9c0.2,-0.2 0.4,-0.4 0.4,-0.6v-3.7l7.6,4.2Zm-17.6,-15.1l8,4.4l-8,4.1l-8.5,-4.2l8.5,-4.3Zm-10.3,14.6l4,1.9l-3.4,1.8l-8.4,-4.2l7.5,-3.8v3.7c-0.1,0.3 0.1,0.5 0.3,0.6Zm-8.7,0.6l8.7,4.4v8.1l-8.7,-4.2v-8.3Zm9.9,4.4l4.3,-2.2l3.7,1.8v4.8l-8,3.7v-8.1Zm9.4,4.8v0v-4.8l3.7,-1.7l4.9,2.5v8.3l-8.6,-4.3Zm10,4.2v-8.2l8.1,-4.2v8.7l-8.1,3.7Z" transform="translate(-459, 266.9)"></path>
    </g>
</svg>