<?xml version="1.0" encoding="UTF-8"?>
<svg version="1.1" viewBox="-459 261 40 40" xmlns="http://www.w3.org/2000/svg" xmlns:xlink="http://www.w3.org/1999/xlink">
    <!--Generated by IJSVG (https://github.com/curthard89/IJSVG)-->
    <g fill="#FFFFFF">
        <path d="M4.6,11.1c0.3,0.3 0.6,0.4 1,0.4c0.4,0 0.7,-0.1 1,-0.4l8.6,-8.6c0.5,-0.5 0.5,-1.4 0,-2c-0.5,-0.5 -1.4,-0.5 -2,0l-7.6,7.6l-3.1,-3.1c-0.5,-0.5 -1.4,-0.5 -2,0c-0.5,0.5 -0.5,1.4 0,2l4.1,4.1Z" transform="translate(-443, 267.4)"></path>
        <path d="M11.2,25h23.9c2.6,0 4.8,-2.1 4.8,-4.8v-7.9c0,-0.6 -0.5,-1.1 -1.1,-1.1c-0.6,0 -1.1,0.5 -1.1,1.1v7.9c0,1.5 -1.2,2.6 -2.6,2.6h-23.9c-1.5,0 -2.6,-1.2 -2.6,-2.6v-16.4c0,0 0,-0.1 0,-0.1v0c0,0 0,-0.1 0,-0.1c0,0 0,0 0,-0.1c0,0 0,0 0,0c0,0 0,0 0,-0.1c0,0 0,0 0,0c0,0 0,0 0,-0.1c0,0 0,0 0,0v-0.1c0,0 0,0 0,0c0,0 0,0 0,0c0,0 0,0 0,0v0c0,0 0,0 0,-0.1c0,0 0,0 0,0c0,0 0,0 -0.1,0v0c0,0 0,0 -0.1,0c0,0 0,0 -0.1,0c0,0 0,0 0,0l-0.1,-0.1l-6.6,-2.8c-0.5,-0.2 -1.2,0 -1.4,0.6c-0.2,0.5 0,1.2 0.6,1.4l5.9,2.5v23.2c0,2.5 1.9,4.6 4.4,4.8c-0.5,0.7 -0.8,1.6 -0.8,2.6c0,2.6 2.1,4.7 4.7,4.7c2.6,0 4.7,-2.1 4.7,-4.7c0,-1 -0.3,-1.8 -0.8,-2.6h11.3c-0.5,0.7 -0.8,1.6 -0.8,2.6c0,2.6 2.1,4.7 4.7,4.7c2.6,0 4.7,-2.1 4.7,-4.7c0,-2.6 -2.1,-4.7 -4.7,-4.7h-22.7c-1.5,0 -2.6,-1.2 -2.6,-2.6v-3.5c0.6,0.2 1.5,0.5 2.4,0.5v0Zm6.2,10.1c0,1.4 -1.2,2.6 -2.6,2.6c-1.4,0 -2.6,-1.2 -2.6,-2.6c0,-1.4 1.2,-2.6 2.6,-2.6c1.4,5.68434e-14 2.6,1.2 2.6,2.6v0Zm19.2,0c0,1.4 -1.2,2.6 -2.6,2.6c-1.4,0 -2.6,-1.2 -2.6,-2.6c0,-1.4 1.2,-2.6 2.6,-2.6c1.4,5.68434e-14 2.6,1.2 2.6,2.6v0Z" transform="translate(-458.9, 261.1)"></path>
    </g>
</svg>