<?xml version="1.0" encoding="UTF-8"?>
<svg version="1.1" viewBox="-459 261 40 40" xmlns="http://www.w3.org/2000/svg" xmlns:xlink="http://www.w3.org/1999/xlink">
    <!--Generated by IJSVG (https://github.com/curthard89/IJSVG)-->
    <g fill="#FFFFFF">
        <path d="M12.3,6.3l-2,-0.1l-0.8,-1.8c-0.2,-0.4 -0.5,-0.6 -0.9,-0.6c-0.4,0 -0.8,0.2 -0.9,0.6l-0.8,1.8l-2,0.1c-0.4,0 -0.8,0.3 -0.9,0.7c-0.1,0.4 0,0.8 0.3,1.1l1.5,1.3l-0.5,1.9c-0.1,0.3 0,0.6 0.2,0.9c0.2,0.2 0.5,0.4 0.8,0.4c0.2,0 0.4,-0.1 0.5,-0.2l1.7,-1.1l1.7,1.1c0.2,0.1 0.3,0.2 0.5,0.2c0.3,0 0.6,-0.1 0.8,-0.4c0.2,-0.2 0.3,-0.6 0.2,-0.9l-0.5,-1.9l1.5,-1.3c0.3,-0.3 0.4,-0.7 0.3,-1.1c0.1,-0.4 -0.3,-0.7 -0.7,-0.7Zm-1.9,2.5c-0.2,0.1 -0.2,0.3 -0.2,0.5l0.5,2.2l-1.9,-1.2c-0.2,-0.1 -0.4,-0.1 -0.6,0l-1.9,1.2l0.5,-2.2c0,-0.2 0,-0.4 -0.2,-0.5l-1.7,-1.4l2.3,-0.2c0.2,0 0.4,-0.1 0.5,-0.3l0.8,-2.1l0.9,2.1c0.1,0.2 0.2,0.3 0.5,0.3l2.3,0.2l-1.8,1.4Zm6.3,0.2l-0.3,-0.4c-0.1,-0.2 -0.1,-0.5 0,-0.7l0.3,-0.4c0.2,-0.3 0.3,-0.7 0.2,-1.1c-0.1,-0.4 -0.4,-0.7 -0.7,-0.9l-0.5,-0.2c-0.2,-0.1 -0.3,-0.4 -0.3,-0.6l0.1,-0.5c0.1,-0.4 0,-0.8 -0.3,-1.1c-0.3,-0.3 -0.6,-0.5 -1.1,-0.5h-0.5c-0.2,0 -0.5,-0.2 -0.5,-0.4l-0.1,-0.5c-0.2,-0.6 -0.7,-1 -1.4,-1c-0.2,0 -0.4,0 -0.6,0.1l-0.5,0.2c-0.2,0.1 -0.5,0 -0.7,-0.1l-0.3,-0.4c-0.3,-0.3 -0.7,-0.5 -1.1,-0.5c-0.4,0 -0.8,0.2 -1.1,0.5l-0.3,0.4c-0.2,0.2 -0.4,0.2 -0.7,0.2l-0.5,-0.2c-0.2,-0.1 -0.4,-0.1 -0.5,-0.1c-0.6,0 -1.2,0.4 -1.4,1l-0.1,0.5c-0.1,0.2 -0.3,0.4 -0.5,0.4h-0.5c-0.4,0 -0.8,0.2 -1,0.5c-0.3,0.3 -0.4,0.7 -0.3,1.1l0.1,0.5c0,0.2 -0.1,0.5 -0.3,0.6l-0.5,0.3c-0.4,0.2 -0.6,0.5 -0.7,0.9c-0.1,0.4 0,0.8 0.2,1.1l0.3,0.4c0.1,0.2 0.1,0.5 0,0.7l-0.3,0.4c-0.2,0.3 -0.3,0.7 -0.2,1.1c0.1,0.4 0.4,0.7 0.7,0.9l0.5,0.2c0.2,0.1 0.3,0.4 0.3,0.6l-0.1,0.5c-0.1,0.4 0,0.8 0.3,1.1c0.3,0.3 0.6,0.5 1.1,0.5h0.5c0.2,0 0.5,0.2 0.5,0.4l0.1,0.5c0.2,0.6 0.7,1 1.4,1c0.2,0 0.4,0 0.6,-0.1l0.5,-0.2c0.2,-0.1 0.5,0 0.7,0.1l0.3,0.4c0.3,0.3 0.7,0.5 1.1,0.5c0.4,0 0.8,-0.2 1.1,-0.5l0.3,-0.4c0.2,-0.2 0.4,-0.2 0.7,-0.2l0.5,0.2c0.2,0.1 0.4,0.1 0.5,0.1c0.6,0 1.2,-0.4 1.4,-1l0.1,-0.5c0.1,-0.2 0.3,-0.4 0.5,-0.4h0.5c0.4,0 0.8,-0.2 1,-0.5c0.3,-0.3 0.4,-0.7 0.3,-1.1l-0.1,-0.5c0,-0.2 0.1,-0.5 0.3,-0.6l0.5,-0.3c0.4,-0.2 0.6,-0.5 0.7,-0.9c0.2,-0.3 0.1,-0.7 -0.2,-1.1Zm-1.1,0.9c0,0.1 -0.1,0.3 -0.3,0.3l-0.4,0.2c-0.5,0.3 -0.8,0.8 -0.7,1.4l0.1,0.5c0,0.1 0,0.3 -0.1,0.4c-0.1,0.1 -0.2,0.2 -0.4,0.2h-0.5c-0.6,0 -1.1,0.4 -1.2,1l-0.1,0.5c-0.1,0.2 -0.3,0.4 -0.5,0.4c-0.1,0 -0.1,0 -0.2,0l-0.4,-0.2c-0.2,-0.1 -0.3,-0.1 -0.5,-0.1c-0.4,0 -0.7,0.2 -1,0.5l-0.3,0.4c-0.1,0.1 -0.2,0.2 -0.4,0.2c-0.2,0 -0.3,-0.1 -0.4,-0.2l-0.3,-0.4c-0.3,-0.3 -0.6,-0.4 -1,-0.4c-0.2,0 -0.4,0 -0.5,0.1l-0.4,0.2c-0.1,0 -0.1,0 -0.2,0c-0.2,0 -0.4,-0.2 -0.5,-0.4l-0.1,-0.5c-0.2,-0.5 -0.6,-0.9 -1.2,-0.9h-0.5c-0.2,0 -0.3,-0.1 -0.4,-0.2c-0.1,-0.1 -0.1,-0.3 -0.1,-0.4l0.1,-0.5c0.1,-0.6 -0.2,-1.1 -0.7,-1.4l-0.4,-0.2c-0.1,-0.1 -0.2,-0.2 -0.3,-0.3c0,-0.1 0,-0.3 0.1,-0.4l0.3,-0.4c0.3,-0.5 0.3,-1.1 0,-1.5l-0.3,-0.4c-0.1,-0.1 -0.1,-0.3 -0.1,-0.4c0,-0.1 0.1,-0.3 0.3,-0.3l0.4,-0.2c0.5,-0.3 0.8,-0.8 0.7,-1.4l-0.1,-0.5c0,-0.2 0,-0.3 0.1,-0.4c0.1,-0.1 0.2,-0.2 0.4,-0.2h0.5c0.6,0 1.1,-0.4 1.2,-1l0.1,-0.5c0.1,-0.2 0.3,-0.4 0.5,-0.4c0.1,0 0.1,0 0.2,0l0.4,0.2c0.2,0.1 0.3,0.1 0.5,0.1c0.4,0 0.7,-0.2 1,-0.5l0.3,-0.4c0.1,-0.1 0.2,-0.2 0.4,-0.2c0.2,0 0.3,0.1 0.4,0.2l0.3,0.4c0.3,0.3 0.6,0.4 1,0.4c0.2,0 0.4,0 0.5,-0.1l0.4,-0.2c0.1,0 0.1,0 0.2,0c0.2,0 0.4,0.2 0.5,0.4l0.1,0.5c0.2,0.5 0.6,0.9 1.2,0.9h0.5c0.2,0 0.3,0.1 0.4,0.2c0.1,0.1 0.1,0.3 0.1,0.4l-0.1,0.5c-0.1,0.6 0.2,1.1 0.7,1.4l0.4,0.2c0.1,0.1 0.2,0.2 0.3,0.3c0,0.1 0,0.3 -0.1,0.4l-0.3,0.4c-0.3,0.5 -0.3,1.1 0,1.5l0.3,0.4c0.1,0.1 0.1,0.2 0.1,0.4Z" transform="translate(-436, 262.6)"></path>
        <path d="M3.2,0c-1.8,0 -3.2,1.4 -3.2,3.2c0,1.7 1.4,3.2 3.2,3.2c1.8,0 3.2,-1.4 3.2,-3.2c0,-1.8 -1.5,-3.2 -3.2,-3.2Zm0,4.5c-0.7,0 -1.3,-0.6 -1.3,-1.3c0,-0.7 0.6,-1.3 1.3,-1.3c0.7,0 1.3,0.6 1.3,1.3c-5.68434e-14,0.7 -0.6,1.3 -1.3,1.3Z" transform="translate(-448.1, 293.2)"></path>
        <path d="M3.2,0c-1.8,0 -3.2,1.4 -3.2,3.2c0,1.7 1.4,3.2 3.2,3.2c1.8,0 3.2,-1.4 3.2,-3.2c0,-1.8 -1.4,-3.2 -3.2,-3.2Zm0,4.5c-0.7,0 -1.3,-0.6 -1.3,-1.3c0,-0.7 0.6,-1.3 1.3,-1.3c0.7,0 1.3,0.6 1.3,1.3c-5.68434e-14,0.7 -0.6,1.3 -1.3,1.3Z" transform="translate(-437.1, 293.2)"></path>
        <path d="M0,0.9c0,0.5 0.4,0.9 1,0.9h10.6c0.5,0 1,-0.4 1,-0.9c0,-0.5 -0.4,-0.9 -1,-0.9h-10.6c-0.5,-5.68434e-14 -1,0.4 -1,0.9Z" transform="translate(-446.7, 276.7)"></path>
        <path d="M0,0.9c0,0.5 0.4,0.9 1,0.9h11.2c0.5,0 1,-0.4 1,-0.9c0,-0.5 -0.4,-0.9 -1,-0.9h-11.2c-0.6,-5.68434e-14 -1,0.4 -1,0.9Z" transform="translate(-446, 281.2)"></path>
        <path d="M33.3,14.6c-0.4,-0.1 -0.8,-0.2 -1.2,-0.3l-0.3,-0.1l-1.2,4.6h-22l-2.4,-11.6h14.7v-0.4l0.2,-0.1c0,-0.1 -0.1,-0.4 -0.1,-1.1v-0.3h-15.2l-0.5,-2.4c-0.1,-0.6 -0.6,-0.9 -1.1,-1.1l-2.8,-1.7c-0.1,-0.1 -0.3,-0.1 -0.4,-0.1c-0.4,0 -0.7,0.2 -0.9,0.6c-0.1,0.2 -0.1,0.5 0,0.7c0.1,0.2 0.3,0.4 0.5,0.5l2.8,1.6l4.2,20.3c0.2,0.9 1,1.5 1.8,1.5h21.1c0.5,0 1,-0.4 1,-0.9c0,-0.5 -0.4,-0.9 -1,-0.9h-21l-0.5,-2.6h21.6c0.9,0 1.6,-0.5 1.8,-1.3l1.2,-4.7l-0.3,-0.2Z" transform="translate(-459, 266.9)"></path>
    </g>
</svg>