<?xml version="1.0" encoding="UTF-8"?>
<svg version="1.1" viewBox="-459 261 40 40" xmlns="http://www.w3.org/2000/svg" xmlns:xlink="http://www.w3.org/1999/xlink">
    <!--Generated by IJSVG (https://github.com/curthard89/IJSVG)-->
    <g fill="#FFFFFF">
        <path d="M18.5,21.1c0.1,0 0.1,-0.1 0.2,-0.1c0,-0.2 0,-0.4 0,-0.5c-0.1,-0.4 -0.3,-0.7 -0.4,-1.1v-0.1c-0.3,-0.3 -0.6,-0.4 -1,-0.4c-0.6,0 -1.1,0 -1.7,0c-0.8,0 -1.5,0.7 -1.5,1.6c0,1.1 0,2.2 0,3.4c0,0.9 0.7,1.6 1.6,1.6c0.1,0 0.2,0 0.3,0c0,-0.3 0,-0.7 0,-1v-0.3c0,-1.1 0.5,-2 1.5,-2.4c0.1,-0.5 0.5,-0.6 1,-0.7Zm-7.8,-3.3c0,-0.5 0,-1.1 0,-1.6v0c0,-0.5 0,-1.1 0,-1.6c0,-0.9 -0.7,-1.6 -1.6,-1.6c-0.5,0 -1,0 -1.5,0c-1,0 -1.6,0.7 -1.6,1.7c0,1.1 0,2.1 0,3.2c0,1 0.6,1.6 1.5,1.7c0.5,0 1.1,0 1.6,0c1,-0.1 1.6,-0.8 1.6,-1.8Zm6.3,-0.7c0,-0.1 0,-0.2 0,-0.3c0,-2.7 0,-5.4 0,-8.1c0,-1 0,-2 0,-3c0,-0.4 -0.3,-0.7 -0.7,-0.8c-0.4,-0.1 -0.7,0.2 -0.9,0.5c0,0.1 0,0.3 0,0.5c0,3.6 0,7.3 0,10.9c0,0.1 0,0.2 0,0.3l1.6,5.68434e-14v0Zm-9.4,4.1c0,0.2 0,0.3 0,0.4c0,1.2 0,2.3 0,3.5c0,1.1 0,2.2 0,3.3c0,0.7 0.5,1.1 1.1,0.9c0.4,-0.2 0.5,-0.5 0.5,-0.9c0,-2.3 0,-4.6 0,-6.9c0,-0.1 0,-0.2 0,-0.3h-1.6Zm1.6,-10.4c0,-1.7 0,-3.3 0,-5c0,-0.2 0,-0.4 -0.1,-0.5c-0.1,-0.4 -0.4,-0.6 -0.7,-0.6c-0.4,0 -0.7,0.2 -0.8,0.6c0,0.1 0,0.3 0,0.4c0,1.7 0,3.4 0,5.1c0,0.1 0,0.2 0,0.4h1.6v-0.4v0Zm15.7,-5.3c0,-0.4 -0.4,-0.7 -0.8,-0.8c-0.4,0 -0.8,0.3 -0.8,0.7c0,0.6 0,1.1 0,1.7h1.6c0,-0.4 0,-1 0,-1.6Zm-9.1,21.5h-0.3c0,0.7 0,1.1 0,1.7c0,0.4 0.3,0.7 0.7,0.7c0.4,0 0.8,-0.2 0.8,-0.6v-0.1c-0.6,-0.5 -1.1,-1.1 -1.2,-1.7Zm2.3,4.6c-4.9,0 -9.8,0 -14.6,0c-0.9,0 -1.3,-0.4 -1.3,-1.3v-26.9c0,-0.1 0,-0.1 0,-0.2c0,-0.7 0.4,-1.2 1.1,-1.2c3.4,0 6.9,0 10.3,0c5.2,0 10.4,0 15.7,0c0.9,0 1.2,0.4 1.2,1.3v8.2c0.9,0.2 1.5,0.8 1.9,1.6c0.1,0.2 0.1,0.3 0.3,0.5v-11c0,-0.1 -0.1,-0.1 -0.1,-0.2c-0.3,-1.3 -1.1,-2.1 -2.4,-2.4c-0.1,0 -0.1,0 -0.2,0h-27.4c-0.2,0 -0.4,0.1 -0.5,0.1c-1.1,0.5 -1.8,1.2 -2,2.4l-0.1,0.1v28.3c0,0.2 0.1,0.4 0.2,0.5c0.4,1.1 1.1,1.8 2.2,2.1c0.1,0 0.1,0 0.2,0h15.9c-0.3,-0.2 -0.5,-1.1 -0.4,-1.9Zm22.1,-7.7c0,-0.4 -0.1,-0.6 -0.5,-0.9c-0.1,-0.1 -0.3,-0.2 -0.4,-0.2c-0.7,-0.3 -1.4,-0.6 -2,-0.8c-0.1,0 -0.2,-0.1 -0.3,-0.3c-0.1,-0.1 -0.1,-0.3 0,-0.4c0.4,-0.9 0.6,-1.5 0.8,-2.2c0.2,-0.6 0.1,-1.2 -0.4,-1.6c-0.2,-0.2 -0.4,-0.4 -0.7,-0.7c-0.2,-0.2 -0.4,-0.5 -0.7,-0.7c-0.2,-0.2 -0.5,-0.3 -0.8,-0.3c-0.1,0 -0.1,0 -0.2,0c-0.8,0.3 -1.7,0.7 -2.4,1c-0.1,0 -0.1,0 -0.2,0c-0.2,0 -0.5,-0.1 -0.6,-0.3c-0.3,-0.7 -0.6,-1.4 -1,-2.2c-0.2,-0.5 -0.6,-0.8 -1.1,-0.8c0,0 0,0 -0.1,0c-0.3,0 -0.6,0 -0.9,0c-0.3,0 -0.5,0 -0.8,0h-0.1c-0.6,0 -1,0.3 -1.3,0.9l-0.1,0.3c-0.2,0.6 -0.4,1.1 -0.7,1.7c-0.1,0.1 -0.2,0.3 -0.2,0.3c-0.1,0.1 -0.2,0.1 -0.3,0.1c-0.1,0 -0.3,0 -0.5,-0.1c-0.6,-0.3 -1.2,-0.5 -1.9,-0.8c-0.2,-0.1 -0.3,-0.1 -0.4,-0.1c-0.3,0 -0.6,0.1 -0.8,0.4c-0.4,0.4 -0.8,0.9 -1.4,1.5c-0.3,0.3 -0.4,0.8 -0.3,1.2c0.3,0.8 0.6,1.6 0.9,2.3c0,0.1 0,0.2 0,0.4c-0.1,0.1 -0.1,0.2 -0.2,0.3c-0.4,0.2 -0.8,0.4 -1.2,0.5c-0.4,0.2 -0.8,0.4 -1.2,0.5c-0.4,0.2 -0.6,0.5 -0.6,0.9v0.3c0,0.7 0,1.3 0,2c0,0.4 0.2,0.7 0.6,1h-0.1c0.1,0 0.1,0.1 0.2,0.1c0.7,0.3 1.4,0.6 2.1,0.9c0.1,0 0.2,0.2 0.3,0.3c0.1,0.1 0.1,0.2 0,0.3c-0.1,0.2 -0.2,0.5 -0.3,0.7c-0.2,0.5 -0.4,0.9 -0.6,1.4v0.1c-0.1,0.3 -0.3,0.9 0.2,1.4c0.2,0.2 0.5,0.5 0.7,0.7c0.3,0.3 0.5,0.5 0.8,0.8c0.3,0.3 0.5,0.4 0.8,0.4c0.1,0 0.2,0 0.3,-0.1c0.8,-0.3 1.6,-0.7 2.4,-1c0.1,0 0.1,0 0.2,0c0.2,0 0.5,0.1 0.5,0.3c0.3,0.7 0.6,1.4 0.9,2l0.1,0.2c0.2,0.5 0.6,0.7 1.1,0.7v0c0.3,0 0.5,0 0.8,0h0.8c0.1,0 0.2,0 0.3,0c0.6,0 0.9,-0.3 1,-0.6c0.3,-0.7 0.6,-1.5 1,-2.3c0.1,-0.2 0.4,-0.4 0.6,-0.4h0.1c0.2,0.1 0.4,0.2 0.6,0.2c0.2,0.1 0.4,0.2 0.5,0.2c0.3,0.1 0.7,0.3 1,0.4c0.2,0.1 0.6,0.2 0.6,0.2l0.1,-0.1c0.1,0 0.1,-0.1 0.2,-0.1c0.1,-0.1 0.3,-0.1 0.5,-0.3c0.3,-0.2 0.5,-0.5 0.8,-0.8c0.2,-0.3 0.5,-0.5 0.8,-0.8c0.4,-0.3 0.5,-0.8 0.3,-1.3c-0.3,-0.8 -0.6,-1.5 -0.9,-2.3c0,-0.1 0,-0.2 0,-0.4c0.1,-0.1 0.1,-0.3 0.2,-0.3c0.4,-0.2 0.8,-0.3 1.2,-0.5c0.3,-0.2 0.7,-0.3 1,-0.4c0.5,-0.2 0.8,-0.6 0.7,-1.2c0.2,-0.2 0.2,-0.8 0.2,-1.6Zm-2,1.9c-0.5,0.2 -1,0.4 -1.6,0.6l-0.2,0.1c-0.3,0.1 -0.7,0.4 -0.9,0.9c0,0.2 -0.1,0.3 -0.2,0.5c-0.4,0.7 -0.2,1.3 0,1.8c0.2,0.5 0.5,1 0.7,1.7c0,0 0,0 0,0.1c-0.2,0.2 -0.4,0.4 -0.7,0.7v0l-0.4,-0.1c-0.4,-0.2 -0.8,-0.3 -1.2,-0.5c-0.1,0 -0.1,-0.1 -0.2,-0.1c-0.2,-0.1 -0.4,-0.2 -0.6,-0.2c-0.1,0 -0.1,0 -0.2,0c-0.2,0 -0.5,0.1 -0.7,0.1c-0.2,0.1 -0.4,0.2 -0.6,0.2c-0.1,0.1 -0.3,0.1 -0.4,0.2c-0.5,0.2 -0.6,0.6 -0.7,0.9c0,0 0,0.1 -0.1,0.1c-0.1,0.3 -0.2,0.5 -0.3,0.8c-0.1,0.3 -0.2,0.7 -0.4,1v0c-0.2,0 -0.4,0 -0.5,0c-0.2,0 -0.3,0 -0.5,0v0c-0.1,-0.3 -0.3,-0.7 -0.4,-1c-0.2,-0.4 -0.3,-0.8 -0.5,-1.1c-0.1,-0.2 -0.3,-0.5 -0.6,-0.7c-0.2,-0.1 -0.4,-0.2 -0.6,-0.3c-0.2,-0.1 -0.4,-0.1 -0.6,-0.2c-0.1,-0.1 -0.3,-0.1 -0.4,-0.1c-0.2,0 -0.4,0.1 -0.6,0.1v0c-0.3,0.1 -0.7,0.3 -1,0.4c-0.3,0.1 -0.7,0.3 -1,0.4v0v0c-0.2,-0.1 -0.3,-0.3 -0.5,-0.5c-0.1,-0.1 -0.2,-0.2 -0.3,-0.3v0c0,0 0,-0.1 0.1,-0.1c0,-0.1 0.1,-0.1 0.1,-0.2c0.2,-0.4 0.3,-0.9 0.5,-1.3c0.1,-0.2 0.1,-0.3 0.2,-0.5c0.2,-0.4 0.2,-0.7 0,-1c-0.2,-0.4 -0.3,-0.8 -0.5,-1.1c-0.2,-0.4 -0.5,-0.6 -0.8,-0.7h-0.1c-0.7,-0.3 -1.3,-0.5 -1.9,-0.7h-0.1v0v0c0,-0.3 0,-0.6 0,-0.9c0,-0.1 0,-0.2 0.2,-0.3c0.3,-0.1 0.6,-0.2 0.8,-0.3c0.3,-0.1 0.7,-0.3 1,-0.4c0.5,-0.2 0.7,-0.7 0.9,-1v0c0,-0.1 0.1,-0.2 0.1,-0.3c0.1,-0.1 0.1,-0.3 0.2,-0.4c0.2,-0.4 0.2,-0.7 0,-1.1c-0.1,-0.3 -0.2,-0.5 -0.3,-0.8c-0.2,-0.4 -0.3,-0.8 -0.5,-1.2c0,-0.1 0,-0.1 0,-0.1v0c0.2,-0.2 0.5,-0.4 0.7,-0.7c0.1,-0.1 0.1,-0.1 0.1,-0.1c0,0 0.1,0 0.2,0c0.2,0.1 0.3,0.1 0.5,0.2c0.5,0.2 1,0.4 1.5,0.7c0.1,0.1 0.3,0.1 0.4,0.1c0.2,0 0.3,-0.1 0.5,-0.1h0.1c0.2,-0.1 0.5,-0.2 0.7,-0.3c0.1,0 0.2,-0.1 0.3,-0.1c0.4,-0.2 0.6,-0.6 0.7,-0.9c0,0 0,-0.1 0.1,-0.1c0.2,-0.5 0.4,-1.1 0.7,-1.8v0c0,0 0,0 0.1,0v0c0.1,0 0.1,0 0.2,0c0.1,0 0.2,0 0.2,0c0.1,0 0.2,0 0.2,0c0.2,0 0.3,0 0.4,0v0c0.3,0.6 0.6,1.3 0.9,2.1c0.2,0.4 0.4,0.6 0.8,0.8c0.3,0.1 0.7,0.2 1,0.4c0.1,0.1 0.3,0.1 0.5,0.1c0.2,0 0.4,-0.1 0.6,-0.2h0.1c0.2,-0.1 0.4,-0.2 0.6,-0.3c0.4,-0.2 0.9,-0.4 1.3,-0.6c0.3,0.3 0.6,0.5 0.8,0.8v0c-0.2,0.6 -0.5,1.2 -0.8,2c-0.1,0.3 -0.2,0.7 0,1.2c0.1,0.3 0.3,0.6 0.4,1v0.1c0.2,0.4 0.5,0.6 0.8,0.7v0c0.6,0.2 1.2,0.5 1.9,0.7h0.1c0,0 0,0 0,0.1c0,0.3 0,0.6 0,0.9c-0.2,1.7053e-13 -0.2,0.1 -0.3,0.2Zm-9.3,-4.9c-2.3,0 -4.2,1.8 -4.2,4.3c0,2.5 1.9,4.3 4.2,4.3c2.2,0 4.2,-1.8 4.2,-4.3c0,-2.5 -1.9,-4.3 -4.2,-4.3Zm0.1,7.1c-1.5,0 -2.7,-1.2 -2.7,-2.7c0,-1.5 1.1,-2.8 2.7,-2.8c1.5,0 2.7,1.2 2.7,2.7c0,1.5 -1.1,2.7 -2.7,2.8Zm-7.2,-17.4c0,0.5 0,1.1 0,1.6c0,0.5 0,1.1 0,1.6c0,0.1 0,0.1 0,0.2c0.1,0 0.3,0 0.4,0c0.3,0 0.6,0.1 0.9,0.2c0.6,0.2 1.1,0.4 1.6,0.6c0.1,-0.3 0.3,-0.7 0.4,-1l0.1,-0.3c0.3,-0.7 0.7,-1.2 1.2,-1.5c0,-0.5 0,-0.9 0,-1.4c0,-1 -0.6,-1.6 -1.6,-1.7c-0.5,0 -1.1,0 -1.6,0c-0.7,-5.68434e-14 -1.4,0.7 -1.4,1.7Z" transform="translate(-459.2, 262.7)"></path>
    </g>
</svg>