<?xml version="1.0" encoding="utf-8"?>
<!-- Generator: Adobe Illustrator 19.0.0, SVG Export Plug-In . SVG Version: 6.00 Build 0)  -->
<svg version="1.1" id="Layer_1" xmlns="http://www.w3.org/2000/svg" xmlns:xlink="http://www.w3.org/1999/xlink" x="0px" y="0px"
	 viewBox="-54 56 40 40" style="enable-background:new -54 56 40 40;" xml:space="preserve">
<style type="text/css">
	.st0{fill:#626975;}
</style>
<g id="ddQatC.tif">
	<g>
		<path class="st0" d="M-54,73.6c0-0.1,0.1-0.2,0.1-0.3c0.3-1.4,1.3-2.3,2.7-2.3c1.3,0,1.5,0.1,2.9,0.2c1,0.1,1.9,0.2,2.9,0.2
			c0-0.2,0-0.4,0-0.5c0-1.4,0-4.8,0-6.1c0-2.6,1.8-4.5,4.4-4.5c6.4,0,9.5,0,16,0c2.2,0,4.4,0,6.5,0c2.7,0,4.5,1.8,4.5,4.4
			c0,6.2,0,16.4,0,22.6c0,2.1-1.3,3.7-3.2,4.2c-0.3,0.1-0.7,0.1-1,0.1c-8.7,0-14,0-22.6,0c-1.6,0-2.9-0.6-3.9-2
			c-0.4-0.7-0.7-1.4-0.7-2.2c0-1.6,0-5.1,0-6.7c0-0.1,0-0.2,0-0.4c-0.5,0-0.9,0.1-1.4,0.1c-1.6,0.1-2.1,0.3-3.8,0.4
			c-0.4,0-0.8,0-1.1-0.1c-1.2-0.2-1.9-1-2.2-2.2c0-0.1-0.1-0.2-0.1-0.3C-54,76.8-54,75.2-54,73.6z M-43.7,78.5c0,0.2,0,0.3,0,0.5
			c0,2.1,0,6.3,0,8.4c0,1.2,0.7,2.1,1.8,2.4c0.3,0.1,0.6,0.1,0.9,0.1c5.7,0,8.1,0,13.9,0c3,0,5.9,0,8.9,0c1.2,0,2.1-0.7,2.3-1.8
			c0.1-0.3,0.1-0.7,0.1-1c0-5.3,0-12.7,0-18c0-1,0-4-0.1-5C-16,62.9-17,62-18.2,62c-0.7,0-1.5,0-2.2,0c-8,0-12.6,0-20.6,0
			c-1.7,0-2.7,1-2.7,2.7c0,2,0,6.1,0,8.1c0,0.2,0,0.3,0,0.5c-1.7-0.2-3.4-0.3-5.1-0.5c-1.1-0.1-1-0.2-2.1-0.2
			c-0.9,0-1.3,0.4-1.4,1.3c0,0.2,0,0.5,0,0.7c0,1.1,0,2.3,0,3.4c0,0.6,0.3,0.9,0.9,1c0.4,0.1,0.8,0,1.2,0
			C-47.6,79-46.2,78.7-43.7,78.5z"/>
		<path class="st0" d="M-30.2,86.4c-2.1,0-3.8-1.7-3.8-3.7c0-2.1,1.7-3.8,3.7-3.8c2.1,0,3.7,1.7,3.7,3.7
			C-26.5,84.7-28.1,86.4-30.2,86.4z"/>
		<path class="st0" d="M-30.2,65.1c2.1,0,3.7,1.7,3.7,3.8c0,2-1.7,3.7-3.7,3.7c-2.1,0-3.8-1.7-3.7-3.8C-33.9,66.7-32.3,65-30.2,65.1
			z"/>
		<path class="st0" d="M-21.3,74.7c-2.2,0-4-1.7-4.1-3.9c0-2.3,1.7-4.1,4-4.2c2.2,0,4.1,1.8,4.1,3.9C-17.2,72.9-18.9,74.7-21.3,74.7
			z M-21.3,73.4c1.5,0,2.8-1.2,2.7-2.8c0-1.5-1.2-2.7-2.7-2.7s-2.8,1.2-2.8,2.7C-24,72.2-22.8,73.4-21.3,73.4z"/>
		<path class="st0" d="M-37.6,86.2c-1.1,0.5-3-0.3-3.8-1.5c-1-1.5-0.8-3.6,0.6-4.8c1.3-1.2,3.3-1.3,4.7-0.3c-1.2,0.7-2,1.6-2.3,3
			C-38.7,83.9-38.4,85.1-37.6,86.2z"/>
		<path class="st0" d="M-36.1,65.8c-2.2,1.2-3.3,4-1.5,6.6c-1.5,0.4-3.3-0.5-4-2c-0.8-1.6-0.3-3.5,1.1-4.6
			C-39.3,64.8-37.2,64.8-36.1,65.8z"/>
		<path class="st0" d="M-33.7,66c-0.8,1.1-1.2,2.4-0.9,3.7c0.3,1.4,1.1,2.4,2.4,3c-0.7,0.8-2.7,0.9-3.9,0.1
			c-1.5-0.9-2.2-2.9-1.5-4.5C-37,66.7-35.3,65.7-33.7,66z"/>
		<path class="st0" d="M-33.7,79.9c-1.7,2.4-1,5.4,1.5,6.8c-1,0.9-2.9,0.8-4.2-0.1c-1.4-1-1.9-3-1.2-4.6
			C-36.9,80.5-35.2,79.5-33.7,79.9z"/>
		<path class="st0" d="M-23.1,84c0,0.5-0.5,1-1,1s-1-0.5-1-1s0.4-1,1-1C-23.5,83.1-23.1,83.5-23.1,84z"/>
		<path class="st0" d="M-21.1,78.5c0-0.6,0.4-1,1-1c0.5,0,1,0.4,1,1c0,0.5-0.4,1-0.9,1C-20.6,79.5-21.1,79.1-21.1,78.5z"/>
		<path class="st0" d="M-20.6,81.3c0,0.6-0.4,1-1,1c-0.5,0-1-0.5-1-1s0.4-1,1-1C-21.1,80.3-20.6,80.7-20.6,81.3z"/>
		<path class="st0" d="M-23.5,81.4c0,0.4-0.4,0.8-0.8,0.8s-0.8-0.3-0.8-0.8s0.3-0.8,0.8-0.8S-23.5,80.9-23.5,81.4z"/>
		<path class="st0" d="M-17.6,80.5c0,0.4-0.3,0.8-0.8,0.8c-0.4,0-0.8-0.3-0.8-0.8s0.3-0.8,0.8-0.8S-17.6,80-17.6,80.5z"/>
		<path class="st0" d="M-21.9,83.7c0-0.5,0.3-0.8,0.8-0.8s0.8,0.4,0.8,0.8c0,0.5-0.4,0.8-0.8,0.8S-21.9,84.1-21.9,83.7z"/>
		<path class="st0" d="M-17.7,82.9c0,0.5-0.4,0.8-0.9,0.8c-0.4,0-0.8-0.4-0.8-0.8s0.4-0.8,0.8-0.8C-18.1,82.1-17.7,82.5-17.7,82.9z"
			/>
	</g>
</g>
</svg>
