<?xml version="1.0" encoding="UTF-8"?>
<svg version="1.1" viewBox="-459 261 40 40" xmlns="http://www.w3.org/2000/svg" xmlns:xlink="http://www.w3.org/1999/xlink">
    <!--Generated by IJSVG (https://github.com/curthard89/IJSVG)-->
    <g fill="#FFFFFF">
        <path d="M5.68434e-14,13.3c0,-0.1 0.1,-0.2 0.1,-0.3c0.3,-1.4 1.3,-2.3 2.7,-2.3c1.3,0 1.5,0.1 2.9,0.2c1,0.1 1.9,0.2 2.9,0.2c0,-0.2 0,-0.4 0,-0.5c0,-1.4 0,-4.8 0,-6.1c0,-2.6 1.8,-4.5 4.4,-4.5c6.4,0 9.5,0 16,0c2.2,0 4.4,0 6.5,0c2.7,0 4.5,1.8 4.5,4.4c0,6.2 0,16.4 0,22.6c0,2.1 -1.3,3.7 -3.2,4.2c-0.3,0.1 -0.7,0.1 -1,0.1c-8.7,0 -14,0 -22.6,0c-1.6,0 -2.9,-0.6 -3.9,-2c-0.4,-0.7 -0.7,-1.4 -0.7,-2.2c0,-1.6 0,-5.1 0,-6.7c0,-0.1 0,-0.2 0,-0.4c-0.5,0 -0.9,0.1 -1.4,0.1c-1.6,0.1 -2.1,0.3 -3.8,0.4c-0.4,0 -0.8,0 -1.1,-0.1c-1.2,-0.2 -1.9,-1 -2.2,-2.2c0,-0.1 -0.1,-0.2 -0.1,-0.3c5.68434e-14,-1.4 5.68434e-14,-3 5.68434e-14,-4.6Zm10.3,4.9c0,0.2 0,0.3 0,0.5c0,2.1 0,6.3 0,8.4c0,1.2 0.7,2.1 1.8,2.4c0.3,0.1 0.6,0.1 0.9,0.1c5.7,0 8.1,0 13.9,0c3,0 5.9,0 8.9,0c1.2,0 2.1,-0.7 2.3,-1.8c0.1,-0.3 0.1,-0.7 0.1,-1c0,-5.3 0,-12.7 0,-18c0,-1 0,-4 -0.1,-5c-0.1,-1.2 -1.1,-2.1 -2.3,-2.1c-0.7,0 -1.5,0 -2.2,0c-8,0 -12.6,0 -20.6,0c-1.7,0 -2.7,1 -2.7,2.7c0,2 0,6.1 0,8.1c0,0.2 0,0.3 0,0.5c-1.7,-0.2 -3.4,-0.3 -5.1,-0.5c-1.1,-0.1 -1,-0.2 -2.1,-0.2c-0.9,0 -1.3,0.4 -1.4,1.3c0,0.2 0,0.5 0,0.7c0,1.1 0,2.3 0,3.4c0,0.6 0.3,0.9 0.9,1c0.4,0.1 0.8,0 1.2,0c2.6,5.68434e-14 4,-0.3 6.5,-0.5Z" transform="translate(-459, 265.3)"></path>
        <path d="M3.8,7.5c-2.1,0 -3.8,-1.7 -3.8,-3.7c0,-2.1 1.7,-3.8 3.7,-3.8c2.1,0 3.7,1.7 3.7,3.7c0.1,2.1 -1.5,3.8 -3.6,3.8Z" transform="translate(-439, 283.9)"></path>
        <path d="M3.8,0.1c2.1,0 3.7,1.7 3.7,3.8c0,2 -1.7,3.7 -3.7,3.7c-2.1,0 -3.8,-1.7 -3.7,-3.8c0,-2.1 1.6,-3.8 3.7,-3.7Z" transform="translate(-439, 270)"></path>
        <path d="M4.1,8.1c-2.2,0 -4,-1.7 -4.1,-3.9c0,-2.3 1.7,-4.1 4,-4.2c2.2,0 4.1,1.8 4.1,3.9c0.1,2.4 -1.6,4.2 -4,4.2Zm0,-1.3c1.5,0 2.8,-1.2 2.7,-2.8c0,-1.5 -1.2,-2.7 -2.7,-2.7c-1.5,0 -2.8,1.2 -2.8,2.7c0.1,1.6 1.3,2.8 2.8,2.8Z" transform="translate(-430.4, 271.6)"></path>
        <path d="M4.8,7.6c-1.1,0.5 -3,-0.3 -3.8,-1.5c-1,-1.5 -0.8,-3.6 0.6,-4.8c1.3,-1.2 3.3,-1.3 4.7,-0.3c-1.2,0.7 -2,1.6 -2.3,3c-0.3,1.3 5.68434e-14,2.5 0.8,3.6Z" transform="translate(-447.4, 283.6)"></path>
        <path d="M6.3,1c-2.2,1.2 -3.3,4 -1.5,6.6c-1.5,0.4 -3.3,-0.5 -4,-2c-0.8,-1.6 -0.3,-3.5 1.1,-4.6c1.2,-1 3.3,-1 4.4,0Z" transform="translate(-447.4, 269.8)"></path>
        <path d="M4.6,0.3c-0.8,1.1 -1.2,2.4 -0.9,3.7c0.3,1.4 1.1,2.4 2.4,3c-0.7,0.8 -2.7,0.9 -3.9,0.1c-1.5,-0.9 -2.2,-2.9 -1.5,-4.5c0.6,-1.6 2.3,-2.6 3.9,-2.3Z" transform="translate(-443.3, 270.7)"></path>
        <path d="M4.6,0.4c-1.7,2.4 -1,5.4 1.5,6.8c-1,0.9 -2.9,0.8 -4.2,-0.1c-1.4,-1 -1.9,-3 -1.2,-4.6c0.7,-1.5 2.4,-2.5 3.9,-2.1Z" transform="translate(-443.3, 284.5)"></path>
        <path d="M2,1c0,0.5 -0.5,1 -1,1c-0.5,0 -1,-0.5 -1,-1c0,-0.5 0.4,-1 1,-1c0.6,0.1 1,0.5 1,1Z" transform="translate(-430.1, 288)"></path>
        <path d="M0,1c0,-0.6 0.4,-1 1,-1c0.5,0 1,0.4 1,1c0,0.5 -0.4,1 -0.9,1c-0.6,0 -1.1,-0.4 -1.1,-1Z" transform="translate(-426.1, 282.5)"></path>
        <path d="M2,1c0,0.6 -0.4,1 -1,1c-0.5,0 -1,-0.5 -1,-1c0,-0.5 0.4,-1 1,-1c0.5,0 1,0.4 1,1Z" transform="translate(-427.6, 285.3)"></path>
        <path d="M1.6,0.8c0,0.4 -0.4,0.8 -0.8,0.8c-0.4,0 -0.8,-0.3 -0.8,-0.8c0,-0.5 0.3,-0.8 0.8,-0.8c0.5,5.68434e-14 0.8,0.3 0.8,0.8Z" transform="translate(-430.1, 285.6)"></path>
        <path d="M1.6,0.8c0,0.4 -0.3,0.8 -0.8,0.8c-0.4,0 -0.8,-0.3 -0.8,-0.8c0,-0.5 0.3,-0.8 0.8,-0.8c0.5,0 0.8,0.3 0.8,0.8Z" transform="translate(-424.2, 284.7)"></path>
        <path d="M0,0.8c0,-0.5 0.3,-0.8 0.8,-0.8c0.5,0 0.8,0.4 0.8,0.8c0,0.5 -0.4,0.8 -0.8,0.8c-0.4,0 -0.8,-0.4 -0.8,-0.8Z" transform="translate(-426.9, 287.9)"></path>
        <path d="M1.7,0.8c0,0.5 -0.4,0.8 -0.9,0.8c-0.4,0 -0.8,-0.4 -0.8,-0.8c0,-0.4 0.4,-0.8 0.8,-0.8c0.5,5.68434e-14 0.9,0.4 0.9,0.8Z" transform="translate(-424.4, 287.1)"></path>
    </g>
</svg>