<?xml version="1.0" encoding="utf-8"?>
<!-- Generator: Adobe Illustrator 22.1.0, SVG Export Plug-In . SVG Version: 6.00 Build 0)  -->
<svg version="1.1" id="Group_1931" xmlns="http://www.w3.org/2000/svg" xmlns:xlink="http://www.w3.org/1999/xlink" x="0px" y="0px"
	 viewBox="0 0 40 40" style="enable-background:new 0 0 40 40;" xml:space="preserve">
<style type="text/css">
	.st0{fill:#FFFFFF;}
</style>
<g>
	<path class="st0" d="M36.8,22C36.8,22,36.8,21.9,36.8,22c-1.6-0.1-3.1-0.1-4.7-0.1c-0.1,0-0.1,0-0.1,0.1c0,0.4,0,0.9,0,1.3
		c0,0.1,0,0.1,0.1,0.1c0.6,0,1.3,0,1.9,0c0,0,0.1,0,0.1,0c0,0-0.1,0.1-0.1,0.1c-2,2-4,4-6,6c-0.1,0.1-0.1,0.1-0.1,0c-1-1-2-2-3-3.1
		c-0.1-0.1-0.1-0.1-0.2,0c-0.8,0.8-1.6,1.6-2.4,2.4c0,0-0.1,0.1-0.1,0c-0.2-0.2-0.4-0.4-0.6-0.6c0,0-0.1-0.1,0-0.1
		c0.2-0.5,0.4-1,0.8-1.5c1.2-1.5,2.8-2.2,4.7-2.1c1.3,0.1,2.4,0.6,3.3,1.5c0.1,0.1,0.1,0,0.1,0c0.3-0.3,0.6-0.6,0.9-0.9
		c0.1-0.1,0.1-0.1,0-0.2C30,23.7,28.1,23,26,23.2c-1.4,0.1-2.7,0.7-3.7,1.7c-1.8,1.6-2.6,3.7-2.2,6.1c0.3,1.8,1.2,3.3,2.6,4.4
		c1.5,1.1,3.1,1.6,5,1.3c0.9-0.1,1.7-0.4,2.4-0.8c0.1,0,0.1,0,0.1,0c0.4,0.4,0.8,0.8,1.2,1.2c0.8,0.8,1.6,1.6,2.4,2.4
		c0.5,0.5,1.2,0.6,1.7,0.3c0.4-0.2,0.8-0.5,1-1c0.1-0.2,0.1-0.4,0.1-0.5c0-0.5-0.2-0.9-0.5-1.2c-1.2-1.2-2.4-2.4-3.5-3.5
		c0,0-0.1-0.1,0-0.1c1-1.6,1.2-3.3,0.8-5.2c-0.1-0.2-0.1-0.5-0.2-0.7c0,0,0,0,0,0c-0.4,0.4-0.7,0.7-1.1,1.1c0,0,0,0.1,0,0.1
		c0,0.2,0.1,0.4,0.1,0.7c0.1,1.6-0.4,2.9-1.4,4.1c-1.5,1.6-3.9,2.2-5.9,1.3c-1.9-0.8-3-2.3-3.3-4.3c0-0.1,0-0.3,0-0.4
		c0,0,0.1,0.1,0.1,0.1c0.3,0.3,0.5,0.5,0.8,0.8c0.1,0.1,0.1,0.1,0.1,0c0.8-0.8,1.6-1.6,2.4-2.4c0.1-0.1,0.1-0.1,0.1,0c1,1,2,2,3,3.1
		c0.1,0.1,0.1,0.1,0.2,0c2.4-2.4,4.7-4.7,7.1-7.1c0,0,0.1-0.1,0.1-0.1c0,0,0,0.1,0,0.1c0,0.7,0,1.2,0,1.9c0,0.1,0,0.1,0.1,0.1
		c0.4,0,0.9,0,1.3,0c0.1,0,0.1,0,0.1-0.1C36.8,25,36.8,23.6,36.8,22z"/>
	<path class="st0" d="M23,37c-0.1,0-0.2,0-0.4,0c0,0-0.2,0-0.2,0c-2.1,0-4.3,0-6.4,0c-2.9,0-5.7,0-8.6,0c-1.4,0-2.3-0.9-2.3-2.3
		c0-10.1,0-20.3,0-30.4C5.2,2.9,6,2,7.4,2c2.2,0,4.4,0,6.6,0c3.3,0,6.8,0,10.1,0c0.2,0,0.4,0,0.5,0.2c0.1,0.1,0.2,0.3,0.2,0.5
		c0,2.1,0,4.2,0,6.2c0,0.3,0,0.7,0.1,1.1c0.2,1.2,0.8,1.9,2.1,2c0.4,0,0.7,0.1,1.1,0.1l0.6,0c0.4,0,2,0,2.4,0c0.8,0,1.8,0,2.8,0l0,0
		c0.2,0,0.4,0,0.5,0.2c0.1,0.1,0.2,0.4,0.2,0.5c0,2.3,0,6.7,0,6.7c0,0.7,0.4,1.1,1,1.1l0,0c0.6,0,1-0.4,1-1.1c0-2.1,0-7.2,0-8.4
		c0-0.5-0.2-0.9-0.5-1.3c-0.6-0.6-1.2-1.3-1.8-1.9c-2.1-2.3-4.3-4.6-6.4-7c-0.6-0.6-1.2-0.9-2-0.9C20.3,0,14.3,0,7.6,0
		C7.2,0,6.8,0,6.4,0.1c-2,0.4-3.2,2.1-3.2,4.1c0,3.6,0,7.3,0,10.8c0,1.5,0,2.9,0,4.4l0,2.6c0,4.2,0,8.4,0,12.6v0.1
		c0,0.3,0,0.6,0,0.8c0.4,2.1,2,3.5,4.1,3.5c2.1,0,4.2,0,6.3,0c1.6,0,8.8,0,8.8,0l0.1,0c0,0,0.1,0,0.2,0c0.5-0.1,0.9-0.4,0.9-0.9
		C23.8,37.6,23.5,37.2,23,37z M26.7,3.2C26.7,3.2,26.7,3.2,26.7,3.2C26.8,3.1,26.9,3,26.9,3c0,0,0,0,0,0c0.1,0,0.1,0,0.2,0.1
		l6.2,6.7c0.1,0.1,0.1,0.2,0,0.3c0,0.1-0.1,0.2-0.2,0.2c-0.3,0-1.2,0-1.5,0c-0.3,0-0.6,0-0.8,0c-0.5,0-0.9,0-1.4,0c-0.7,0-1.3,0-2,0
		c-0.6,0-0.7-0.4-0.7-0.7c0-1.3,0-2.6,0-3.9c0-0.7,0-1.5,0-2.2C26.6,3.3,26.7,3.2,26.7,3.2z"/>
	<path class="st0" d="M17.8,21.6v-1.9c2.2-0.4,3.3-1.8,3.3-3.5c0-1.7-0.9-2.7-3.1-3.5c-1.6-0.6-2.3-1-2.3-1.6c0-0.5,0.4-1.1,1.6-1.1
		c1.4,0,2.2,0.4,2.7,0.6l0.5-2.1C20,8.2,19.1,8,17.9,7.9V6.3H16V8c-2,0.4-3.2,1.7-3.2,3.3c0,1.8,1.4,2.8,3.4,3.4
		c1.4,0.5,2,0.9,2,1.6c0,0.8-0.7,1.2-1.8,1.2c-1.2,0-2.3-0.4-3.1-0.8L12.7,19c0.7,0.4,1.9,0.8,3.2,0.8v1.8H17.8z"/>
</g>
</svg>
