<svg xmlns="http://www.w3.org/2000/svg" viewBox="-1126 -436 30 39.088">
  <defs>
    <style>
      .cls-1 {
        fill: #6b6d6e;
      }
    </style>
  </defs>
  <g id="Group_1348" data-name="Group 1348" transform="translate(-1126 -436)">
    <path id="Path_1523" data-name="Path 1523" class="cls-1" d="M25.9,0H1.564A1.544,1.544,0,0,0,0,1.564V34.593a1.544,1.544,0,0,0,1.564,1.564h3.42v1.857a1.084,1.084,0,0,0,1.075,1.075h1.27A1.084,1.084,0,0,0,8.4,38.013V36.156H25.9a4.129,4.129,0,0,0,4.1-4.1V4.1A4.194,4.194,0,0,0,25.9,0ZM4.1,34.3H1.857V1.857H4.1Zm23.941-2.248A2.169,2.169,0,0,1,25.9,34.2H5.961V1.857H25.9a2.169,2.169,0,0,1,2.15,2.15Z"/>
    <path id="Path_1524" data-name="Path 1524" class="cls-1" d="M13.272,16.488c.586-.977.2-2.443-.879-3.616-1.27-1.27-3.029-1.564-4.007-.586s-.684,2.736.586,4.007a3.176,3.176,0,0,0,3.616.879L20.8,25.381a.484.484,0,1,0,.684-.684Z" transform="translate(-0.178 -0.267)"/>
    <path id="Path_1525" data-name="Path 1525" class="cls-1" d="M12.3,24.925a.484.484,0,0,0,.684.684l3.225-3.225-.782-.684Z" transform="translate(-0.277 -0.495)"/>
    <path id="Path_1526" data-name="Path 1526" class="cls-1" d="M26.4,14.128,24.54,15.984l-.586-.586,1.857-1.857a.276.276,0,0,0-.391-.391l-1.857,1.857-.586-.586,1.857-1.857a.276.276,0,1,0-.391-.391l-1.954,1.759-.586-.586,1.857-1.857a.276.276,0,0,0-.391-.391l-1.857,1.857-.489.489-.586.586a2.274,2.274,0,0,0-.293,3.029L17.7,19.5l.684.684,2.443-2.443a2.655,2.655,0,0,0,3.127-.293l.586-.586.489-.489,1.857-1.857a.3.3,0,0,0,0-.391A.436.436,0,0,0,26.4,14.128Z" transform="translate(-0.404 -0.251)"/>
  </g>
</svg>
