<?xml version="1.0" encoding="UTF-8"?>
<svg version="1.1" viewBox="-459 261 40 40" xmlns="http://www.w3.org/2000/svg" xmlns:xlink="http://www.w3.org/1999/xlink">
    <!--Generated by IJSVG (https://github.com/curthard89/IJSVG)-->
    <g fill="#FFFFFF">
        <path d="M10.1,4.4h-3.7v3.6h3.7v-3.6Zm-3.7,7.6h18.1v-1.4h-18.1v1.4Zm7.1,-4h11v-3.6h-11v3.6Zm-7.1,7.7h18.1v-1.4h-18.1v1.4Zm0,3.7h18.1v-1.4h-18.1v1.4Zm23.9,14.5v-31.8c0,-1.1 -0.9,-2.1 -2.1,-2.1h-26.1c-1.1,0 -2.1,0.9 -2.1,2.1v31.8c0,1.1 0.9,2.1 2.1,2.1h26.1c1.2,0 2.1,-1 2.1,-2.1Zm-3.3,0.3h-23.6c-0.8,0 -1.5,-0.7 -1.5,-1.5v-29.5c0,-0.8 0.7,-1.5 1.5,-1.5h23.6c0.8,0 1.5,0.7 1.5,1.5v29.5c0,0.8 -0.7,1.5 -1.5,1.5Zm9.1,-30.2h-2.9c0,0 0,0 0,0v1.8c0,0 0,0 0,0h1v30.4c0,1.1 -0.9,1.9 -1.9,1.9h-24.7v-0.8c0,0 0,0 0,0h-1.8v2.6h28.3c1.1,0 1.9,-0.9 1.9,-1.9l0.1,-34Zm-14.8,20c-0.3,0 -0.6,0.1 -0.8,0.2l-0.2,0.1l-1.9,-1.1v-0.2c0,-0.8 -0.7,-1.4 -1.5,-1.4c-0.8,0 -1.5,0.7 -1.5,1.5c0,0.2 0,0.4 0.1,0.6l0.1,0.1l-2.4,3.6h-0.2c-0.1,0 -0.2,0 -0.2,0c-0.2,0 -0.5,0.1 -0.7,0.2l-0.2,0.1l-1.5,-1.3v-0.2c0,-0.1 0,-0.2 0,-0.3c0,-0.8 -0.7,-1.5 -1.5,-1.5c-0.8,0 -1.5,0.7 -1.5,1.5c0,0.8 0.7,1.5 1.5,1.5c0.2,0 0.3,0 0.5,-0.1l0.2,-0.1l1.7,1.4v0.1c0,0 0,0 0,0.1c0,0.8 0.7,1.5 1.5,1.5c0.8,0 1.5,-0.7 1.5,-1.5c0,-0.2 0,-0.4 -0.1,-0.5l-0.1,-0.1l2.5,-3.7h0.2c0,0 0.1,0 0.1,0c0.3,0 0.6,-0.1 0.8,-0.2l0.2,-0.1l1.9,1.1v0.2c0,0.8 0.7,1.4 1.5,1.4c0.8,0 1.5,-0.7 1.5,-1.5c-5.68434e-14,-0.7 -0.6,-1.4 -1.5,-1.4Z" transform="translate(-457.1, 261)"></path>
    </g>
</svg>