<?xml version="1.0" encoding="utf-8"?>
<!-- Generator: Adobe Illustrator 19.0.0, SVG Export Plug-In . SVG Version: 6.00 Build 0)  -->
<svg version="1.1" id="Layer_1" xmlns="http://www.w3.org/2000/svg" xmlns:xlink="http://www.w3.org/1999/xlink" x="0px" y="0px"
	 viewBox="-39 41 40 40" style="enable-background:new -39 41 40 40;" xml:space="preserve">
<style type="text/css">
	.st0{fill:#626975;}
</style>
<g>
	<g>
		<g>
			<path class="st0" d="M-1.6,76.8v-35c0-0.5-0.4-0.8-0.8-0.8h-30.8c-1.8,0-3.3,1.5-3.3,3.3l0,0v34.2c0,1.4,1.1,2.5,2.5,2.5h31.7
				c0.5,0,0.8-0.4,0.8-0.8s-0.4-0.8-0.8-0.8v-1.7C-2,77.7-1.6,77.3-1.6,76.8z M-34.1,79.3c-0.5,0-0.8-0.4-0.8-0.8s0.3-0.8,0.7-0.8
				h30c-0.4,0.1-0.7,0.4-0.7,0.8c0,0.5,0.4,0.8,0.8,0.8H-34.1z M-3.3,76h-30.8l0,0c-0.1,0-0.1,0-0.2,0h-0.6v-0.8V44.3
				c0-0.9,0.7-1.7,1.7-1.7h30L-3.3,76L-3.3,76z"/>
		</g>
	</g>
	<g>
		<g>
			<g>
				<path class="st0" d="M-16.4,55.8c-0.3,0-0.6,0.1-0.8,0.2c-0.5-0.4-1.2-0.6-1.8-0.6c-0.7,0-1.3,0.2-1.8,0.6
					c-0.3-0.1-0.5-0.2-0.8-0.2c-1.8,0-3.2,1.4-3.2,3.2c0,1.3,0.8,2.5,1.9,2.9v4.7h7.9v-4.7c1.2-0.5,1.9-1.6,1.9-2.9
					C-13.2,57.2-14.6,55.8-16.4,55.8z M-16,65.8L-16,65.8c0-0.2-0.2-0.5-0.5-0.5c-0.2,0-0.5,0.2-0.5,0.5h-0.5c0-0.2-0.2-0.5-0.5-0.5
					s-0.5,0.2-0.5,0.5H-19c0-0.2-0.2-0.5-0.5-0.5c-0.2,0-0.5,0.2-0.5,0.5h-0.5c0-0.2-0.2-0.5-0.5-0.5c-0.2,0-0.5,0.2-0.5,0.5H-22
					c0-0.2-0.2-0.5-0.5-0.5s-0.5,0.2-0.5,0.5v-0.5h0.5h1.3h1.3h1.3h1.3h0.5L-16,65.8L-16,65.8z M-14.5,60.3c-0.2,0.4-0.6,0.7-1,0.8
					l-0.5,0.2V62v2.5h-6.2V62v-0.6l-0.5-0.2c-0.8-0.4-1.4-1.2-1.4-2.2c0-1.3,1-2.3,2.3-2.3c0.1,0,0.1,0,0.2,0
					c-0.3,0.5-0.5,1-0.5,1.6v0.1c0,0.2,0.2,0.5,0.5,0.5s0.5-0.2,0.5-0.5l0,0c0-1.2,1-2.2,2.2-2.2s2.2,0.9,2.2,2.1c0,0,0,0,0,0.1
					c0,0.2,0.2,0.5,0.5,0.5c0.2,0,0.5-0.2,0.5-0.5l0,0c0-0.6-0.2-1.2-0.5-1.7c0.1,0,0.1,0,0.2,0c1.3,0,2.3,1,2.3,2.3
					C-14.1,59.5-14.3,59.9-14.5,60.3z"/>
			</g>
		</g>
		<g>
			<g>
				<path class="st0" d="M-19.1,59.5c-0.2,0-0.5,0.2-0.5,0.5l0,0v2.2l0,0c0,0.2,0.2,0.5,0.5,0.5c0.2,0,0.5-0.2,0.5-0.5l0,0V60l0,0
					C-18.6,59.7-18.9,59.5-19.1,59.5z"/>
			</g>
		</g>
		<g>
			<g>
				<path class="st0" d="M-19.1,59.5c-0.2,0-0.5,0.2-0.5,0.5l0,0v2.2l0,0c0,0.2,0.2,0.5,0.5,0.5c0.2,0,0.5-0.2,0.5-0.5l0,0V60l0,0
					C-18.6,59.7-18.9,59.5-19.1,59.5z"/>
			</g>
		</g>
		<g>
			<g>
				<path class="st0" d="M-19.1,59.5c-0.2,0-0.5,0.2-0.5,0.5l0,0v2.2l0,0c0,0.2,0.2,0.5,0.5,0.5c0.2,0,0.5-0.2,0.5-0.5l0,0V60l0,0
					C-18.6,59.7-18.9,59.5-19.1,59.5z"/>
			</g>
		</g>
	</g>
	<g>
		<path class="st0" d="M-19,75.5c-3.3,0-6.4-1.1-9.1-3.2c-0.1-0.1-0.2-0.1-0.3-0.2c-0.1,0-0.2-0.1-0.3-0.2l-0.8-0.5v3
			c0,1-0.6,1-0.8,1c-0.2,0-1-0.1-1-1c-0.1-1.3,0-2.6,0-3.9c0-0.6,0-1.3,0-1.9c0-0.7,0.3-1,1-1h5.7c0.7,0,1,0.3,1,0.9
			c0,0.2,0,0.9-1.1,0.9c-0.8,0-1.6,0-2.4,0.1l0,0c0,0-0.5,0.1-0.5,0.7v0.2l0.2,0.1c1.8,1.7,3.9,2.7,6.3,3c0.7,0.1,1.4,0.2,2.1,0.2
			c3.5,0,6.7-1.3,9.1-3.8c2.5-2.5,3.7-6,3.6-9.8v-0.5c0-0.6,0.4-1,0.9-1s0.8,0.3,0.9,0.9c0.3,2.9-0.2,5.5-1.5,8
			C-8.8,72.6-13.5,75.5-19,75.5z"/>
		<path class="st0" d="M-32.4,63.3c-0.6,0-0.9-0.3-1-1c-0.3-4.1,0.7-7.5,3.2-10.5c2.9-3.4,7-5.4,11.3-5.4c3.2,0,6.2,1,8.9,3
			c0.1,0.4,0.4,0.5,0.6,0.7l0.8,0.5l0.1-0.9v-2.2c0-0.3,0.2-1,0.9-1c0.5,0,0.9,0.4,0.9,1v5.9c0,0.6-0.3,0.9-0.9,0.9h-6
			c-0.5,0-0.9-0.4-0.9-0.9c0-0.4,0.4-0.9,0.9-0.9c0.3,0,0.6,0,0.9,0c0.3,0,0.6,0,0.9,0c0.4,0,0.8,0,1.2,0h1.3l-0.9-0.9
			c-1.7-1.6-3.4-2.5-5.3-2.9c-1.1-0.3-2.2-0.4-3.3-0.4c-3.4,0-6.8,1.4-9.2,3.9s-3.6,5.8-3.4,9.3v0.8C-31.7,62.8-31.9,63.3-32.4,63.3
			z"/>
	</g>
</g>
</svg>
