<?xml version="1.0" encoding="utf-8"?>
<!-- Generator: Adobe Illustrator 19.0.0, SVG Export Plug-In . SVG Version: 6.00 Build 0)  -->
<svg version="1.1" id="Layer_1" xmlns="http://www.w3.org/2000/svg" xmlns:xlink="http://www.w3.org/1999/xlink" x="0px" y="0px"
	 viewBox="-39 41 40 40" style="enable-background:new -39 41 40 40;" xml:space="preserve">
<style type="text/css">
	.st0{fill:#FFFFFF;}
</style>
<g id="XMLID_1_">
	<path id="XMLID_98_" class="st0" d="M-15.7,70.9c-0.3-0.6-0.6-1.1-0.9-1.7c-0.5-1-0.9-2-1.3-2.9C-18,66-18.1,66-18.4,66
		c-6.4,0-12.8,0-19.3,0c-0.1,0-0.2,0-0.3,0c-0.7,0-1-0.3-1-1c0-1.1,0-2.3,0-3.4c0-1.5,0-3.1,0-4.6c0-0.8,0.3-1,1-1c7,0,14,0,21.1,0
		c0.3,0,0.4-0.1,0.6-0.3c2.8-2.9,6.2-3.9,10.1-2.8c3.9,1.1,6.2,3.8,7.1,7.8c0.4,1.9,0,3.6-0.7,5.3c-1.1,2.8-2.5,5.5-4.1,8.1
		c-1.3,2.1-2.7,4.1-4,6.1C-8.3,80.8-8.7,81-9.4,81c-9.4,0-18.8,0-28.2,0c-0.1,0-0.3,0-0.4,0c-0.6,0-0.9-0.3-0.9-1c0-1.5,0-3.1,0-4.6
		c0-1.1,0-2.2,0-3.3c0-0.9,0.2-1.1,1.1-1.1c7.2,0,14.4,0,21.5,0C-16.1,70.9-15.9,70.9-15.7,70.9z M-8.9,78.6
		c0.2-0.2,0.2-0.3,0.3-0.4c1-1.5,2-2.9,2.9-4.4c1.7-2.7,3.2-5.4,4.4-8.3c0.5-1.4,0.9-2.8,0.6-4.3c-0.7-4.5-5.2-7.7-9.7-6.8
		c-4.7,0.9-8.1,6-6.1,10.9c1.1,2.8,2.5,5.4,4.1,7.9C-11.3,74.9-10.1,76.8-8.9,78.6z M-10.6,79.2c-1.3-2.2-2.7-4.3-4-6.4
		c-0.1-0.1-0.3-0.2-0.5-0.2c-7.2,0-14.5,0-21.7,0c-0.1,0-0.3,0-0.4,0c0,2.2,0,4.4,0,6.6C-28.3,79.2-19.4,79.2-10.6,79.2z
		 M-37.2,57.7c0,2.2,0,4.4,0,6.6c6.2,0,12.4,0,18.6,0c-0.3-1.1-0.4-2.3-0.1-3.4c0.2-1.1,0.6-2.2,0.9-3.2
		C-24.2,57.7-30.6,57.7-37.2,57.7z"/>
	<path id="XMLID_95_" class="st0" d="M-23.6,51c-4.7,0-9.5,0-14.2,0c-0.9,0-1.1-0.2-1.1-1.2c0-2.6,0-5.2,0-7.7
		c0-0.9,0.3-1.1,1.1-1.1c9.5,0,18.9,0,28.4,0c0.9,0,1.1,0.2,1.1,1.1c0,2.6,0,5.2,0,7.8c0,0.9-0.2,1.1-1.1,1.1
		C-14.1,51-18.8,51-23.6,51z M-10,49.2c0-2.2,0-4.4,0-6.6c-9.1,0-18.1,0-27.2,0c0,2.2,0,4.4,0,6.6C-28.1,49.2-19.1,49.2-10,49.2z"/>
	<path id="XMLID_79_" class="st0" d="M-14.2,62.5c0-3,2.3-5.4,5.3-5.4s5.4,2.4,5.4,5.3c0,3-2.3,5.4-5.4,5.4
		C-11.8,67.8-14.2,65.4-14.2,62.5z M-8.9,66.1c2,0,3.7-1.6,3.7-3.6s-1.6-3.7-3.7-3.7c-2,0-3.6,1.6-3.7,3.6
		C-12.5,64.6-10.9,66.1-8.9,66.1z"/>
	<path id="XMLID_78_" class="st0" d="M-30.9,76.8c-0.8,0-1.7,0-2.5,0c-0.6,0-0.9-0.3-0.9-0.8s0.3-0.8,0.9-0.8c1.7,0,3.4,0,5.1,0
		c0.6,0,0.9,0.3,0.9,0.8s-0.3,0.8-0.9,0.9C-29.2,76.8-30.1,76.8-30.9,76.8z"/>
	<path id="XMLID_77_" class="st0" d="M-30.9,61.9c-0.8,0-1.7,0-2.5,0c-0.6,0-1-0.4-0.9-0.9c0-0.4,0.3-0.8,0.8-0.8c1.8,0,3.6,0,5.3,0
		c0.5,0,0.8,0.4,0.8,0.9s-0.3,0.8-0.8,0.8C-29.1,61.9-30,61.8-30.9,61.9C-30.9,61.8-30.9,61.8-30.9,61.9z"/>
	<path id="XMLID_76_" class="st0" d="M-30.9,46.9c-0.9,0-1.7,0-2.6,0c-0.6,0-0.9-0.3-0.9-0.8s0.3-0.9,0.8-0.9c1.8,0,3.6,0,5.4,0
		c0.5,0,0.8,0.3,0.8,0.9c0,0.5-0.3,0.8-0.8,0.8C-29.1,46.9-30,46.9-30.9,46.9z"/>
	<path id="XMLID_75_" class="st0" d="M-13.7,46c0,0.7-0.6,1.3-1.3,1.3s-1.3-0.6-1.3-1.3s0.6-1.3,1.3-1.3S-13.7,45.2-13.7,46z"/>
</g>
</svg>
