<?xml version="1.0" encoding="utf-8"?>
<!-- Generator: Adobe Illustrator 21.1.0, SVG Export Plug-In . SVG Version: 6.00 Build 0)  -->
<svg version="1.1" id="Layer_1" xmlns="http://www.w3.org/2000/svg" xmlns:xlink="http://www.w3.org/1999/xlink" x="0px" y="0px"
	 viewBox="0 0 40 40" style="enable-background:new 0 0 40 40;" xml:space="preserve">
<style type="text/css">
	.st0{fill:#35C4FF;}
	.st1{fill:#8E87FF;}
</style>
<rect x="62.7" y="-4.9" class="st0" width="27.7" height="25.6"/>
<path class="st1" d="M18.5,36.6H2.7c-0.5,0-0.9-0.4-0.9-0.9v-33c0-0.5,0.4-0.9,0.9-0.9H31c0.5,0,0.9,0.4,0.9,0.9v14.5
	c0,0.5,0.4,0.9,0.9,0.9s0.9-0.4,0.9-0.9V0.9c0-0.5-0.4-0.9-0.9-0.9H0.9C0.4,0,0,0.4,0,0.9v36.5c0,0.5,0.4,0.9,0.9,0.9h17.5
	c0.5,0,0.9-0.4,0.9-0.9l0,0C19.4,37,19,36.6,18.5,36.6z M39.4,38.3c-0.3,0-0.6,0-0.9,0c-0.1,0-0.1,0-0.2,0c0-0.9,0-1.7,0-2.6
	c0-1.3-0.5-2.3-1.5-3.1c-0.5-0.4-1-0.8-1.4-1.2l-0.1-0.1c0.5-0.4,1-0.8,1.5-1.3c1-0.8,1.5-1.9,1.5-3.2c0-0.8,0-1.6,0-2.4v-0.1
	c0.3,0,0.6,0,0.9,0c0.5,0,0.8-0.3,0.8-0.8s-0.3-0.9-0.7-0.9c-0.1,0-0.2,0-0.2,0c-4.6,0-9.3,0-13.9,0c-0.1,0-0.1,0-0.2,0
	c-0.5,0-0.8,0.3-0.8,0.8s0.2,0.9,0.7,0.9c0.2,0,0.4,0,0.6,0s0.3,0,0.5,0v0.2c0,0.8,0,1.6,0,2.4c0,0.2,0,0.4,0,0.6
	c0.1,0.9,0.6,1.7,1.3,2.4c0.5,0.5,1.1,0.9,1.6,1.4l0.1,0.1c-0.5,0.4-1,0.9-1.5,1.3c-1,0.8-1.6,1.9-1.6,3.3c0,0.6,0,1.1,0,1.7v0.7
	c-0.3,0-0.6,0-1,0s-0.8,0.3-0.8,0.7c-0.1,0.4,0.2,0.8,0.6,0.9c0.1,0,0.3,0,0.4,0c4.7,0,9.3,0,14,0h0.1c0.5,0,0.8-0.3,0.8-0.8
	C40.1,38.7,39.8,38.4,39.4,38.3z M36.5,38.1L36.5,38.1l-1.8,0.1c-0.1-0.9-0.6-1.7-1.2-2.3c-0.4-0.4-0.9-0.8-1.3-1.1c0,0-0.1,0-0.2,0
	c-0.8,0.6-1.6,1.2-2.1,2.1c-0.3,0.4-0.5,0.9-0.5,1.4h-1.8v-0.2c0-0.8,0-1.6,0-2.4c0-0.6,0.2-1.2,0.7-1.6c0.4-0.4,0.9-0.8,1.3-1.2
	c0.4-0.3,0.8-0.7,1.3-1c0.3-0.2,0.4-0.7,0.2-1L31,30.8c-0.5-0.4-1-0.9-1.6-1.3c-0.3-0.3-0.7-0.6-1-0.9c-0.5-0.5-0.8-1.1-0.8-1.8
	c0-0.8,0-1.5,0-2.3v-0.2h8.9v0.1c0,0.8,0,1.5,0,2.3c0,0.9-0.3,1.6-1,2.1c-0.7,0.6-1.4,1.2-2.1,1.8c-0.3,0.2-0.4,0.7-0.2,1
	c0,0.1,0.1,0.1,0.1,0.1c0.5,0.4,0.9,0.8,1.4,1.1c0.4,0.3,0.8,0.6,1.1,1c0.5,0.5,0.8,1.1,0.7,1.7C36.5,36.5,36.5,37.3,36.5,38.1z
	 M25.8,5.1H7.2v1.7h18.6c0.5,0,0.8-0.4,0.8-0.8l0,0C26.7,5.5,26.3,5.1,25.8,5.1z M25.8,10H13.4v1.7h12.4c0.5,0,0.8-0.4,0.8-0.8l0,0
	C26.7,10.4,26.3,10,25.8,10z M21.5,15.3h-8.1V17h8.1C21.3,16.4,21.3,15.8,21.5,15.3z M10.7,10H7.2v1.7h3.5V10z M7.2,17h3.5v-1.7H7.2
	V17z M34.8,26.9h-5.3c0,0.5,0.2,1,0.5,1.3c0.6,0.6,1.3,1,2.1,1.2h0.1c0.8-0.3,1.5-0.6,2.1-1.2C34.6,27.9,34.7,27.5,34.8,26.9z
	 M19.9,22.8h-12l-0.2-1.2c-0.1-0.4-0.3-0.9-0.6-1.1l-1.7-0.8c-0.1,0-0.2-0.1-0.3-0.1c-0.3,0-0.5,0.2-0.7,0.4c-0.2,0.4,0,0.8,0.4,0.9
	l1.6,0.7l1.9,9.2c0.1,0.5,0.6,0.9,1.1,0.9h9.5c0.4,0,0.7-0.1,0.7-0.5s-0.3-0.5-0.7-0.5H9.7l-0.1-1H19c0.5,0,1-0.2,1.1-0.8l1.1-5.3
	c0.1-0.3,0-0.5-0.2-0.8C20.6,22.6,20.3,22.8,19.9,22.8z M18.6,28.7H9.2l-1-5h11.4L18.6,28.7z M16.4,26.7h-5c-0.4,0-0.7,0.1-0.7,0.5
	s0.3,0.5,0.7,0.5h5c0.4,0,0.7-0.1,0.7-0.5S16.8,26.7,16.4,26.7z M11,25.7h5.7c0.4,0,0.7-0.1,0.7-0.5s-0.3-0.5-0.7-0.5H11
	c-0.4,0-0.7,0.1-0.7,0.5S10.6,25.7,11,25.7z M18.1,33.5c0-1-0.8-1.7-1.7-1.7c-1,0-1.7,0.8-1.7,1.7s0.8,1.7,1.7,1.7
	C17.3,35.3,18.1,34.5,18.1,33.5z M16,33.5c0-0.2,0.1-0.3,0.3-0.3c0.2,0,0.3,0.1,0.3,0.3s-0.1,0.3-0.3,0.3C16.2,33.9,16,33.7,16,33.5
	z M13.1,33.5c0-1-0.8-1.7-1.7-1.7c-1,0-1.7,0.8-1.7,1.7s0.8,1.7,1.7,1.7C12.3,35.3,13.1,34.5,13.1,33.5z M11.1,33.5
	c0-0.2,0.1-0.3,0.3-0.3s0.3,0.1,0.3,0.3s-0.1,0.3-0.3,0.3C11.2,33.9,11.1,33.7,11.1,33.5z"/>
</svg>
