<?xml version="1.0" encoding="utf-8"?>
<!-- Generator: Adobe Illustrator 21.1.0, SVG Export Plug-In . SVG Version: 6.00 Build 0)  -->
<svg version="1.1" id="Layer_1" xmlns="http://www.w3.org/2000/svg" xmlns:xlink="http://www.w3.org/1999/xlink" x="0px" y="0px"
	 viewBox="0 0 40 40" style="enable-background:new 0 0 40 40;" xml:space="preserve">
<style type="text/css">
	.st0{fill:#06BCE7;}
	.st1{fill:#FFFFFF;}
</style>
<g>
	<circle class="st0" cx="20" cy="20" r="20"/>
	<g>
		<path class="st1" d="M13,26.8c2,1.8,4.6,3.1,7.1,3.1c3.1,0,4.7-1.4,4.7-3.5c0-2.2-1.7-3-4.2-4l-3.7-1.6c-2.7-1.1-5.5-3.2-5.5-7.2
			c0-4.3,3.8-7.7,9.2-7.7c3.2,0,6.2,1.3,8.4,3.5l-2.5,3.1c-1.7-1.5-3.6-2.3-5.9-2.3c-2.6,0-4.3,1.2-4.3,3.2c0,2.1,2.1,2.9,4.3,3.8
			l3.7,1.5c3.2,1.4,5.5,3.4,5.5,7.4c0,4.4-3.7,8.1-9.8,8.1c-3.7,0-7.2-1.5-9.8-4L13,26.8z"/>
	</g>
</g>
</svg>
