<?xml version="1.0" encoding="utf-8"?>
<!-- Generator: Adobe Illustrator 19.0.0, SVG Export Plug-In . SVG Version: 6.00 Build 0)  -->
<svg version="1.1" id="Layer_1" xmlns="http://www.w3.org/2000/svg" xmlns:xlink="http://www.w3.org/1999/xlink" x="0px" y="0px"
	 viewBox="-39 41 40 40" style="enable-background:new -39 41 40 40;" xml:space="preserve">
<style type="text/css">
	.st0{fill:#626975;}
</style>
<path class="st0" d="M-6.3,67.3c-1,0-1.9,0.4-2.6,1.1C-9.6,69.1-10,70-10,71c0,1,0.4,1.9,1.1,2.6c0.7,0.7,1.6,1.1,2.6,1.1
	c2,0,3.6-1.6,3.6-3.7C-2.7,68.9-4.3,67.3-6.3,67.3z M-6.3,73c-1.1,0-2.1-0.9-2.1-2c0-1.1,0.9-2,2.1-2c1.1,0,2,0.9,2,2
	C-4.3,72.1-5.2,73-6.3,73z M-5.4,55.1c-0.1-0.1-0.3-0.2-0.5-0.2h-4.2c-0.4,0-0.8,0.4-0.8,0.8v6.7c0,0.4,0.4,0.8,0.8,0.8h6.6
	c0.4,0,0.8-0.4,0.8-0.8v-4.5c0-0.2-0.1-0.4-0.3-0.6L-5.4,55.1z M-4.3,61.6h-5v-5.1h3l2,1.8V61.6z M-26.2,67.3c-1,0-1.9,0.4-2.6,1.1
	c-0.7,0.7-1.1,1.6-1.1,2.6c0,1,0.4,1.9,1.1,2.6c0.7,0.7,1.6,1.1,2.6,1.1c2,0,3.6-1.6,3.6-3.7C-22.6,68.9-24.2,67.3-26.2,67.3z
	 M-26.2,73c-1.1,0-2.1-0.9-2.1-2c0-1.1,0.9-2,2.1-2c1.1,0,2,0.9,2,2C-24.2,72.1-25.1,73-26.2,73z M-31.6,68.3h-1.6v-2.2
	c0-0.4-0.4-0.8-0.8-0.8c-0.4,0-0.8,0.4-0.8,0.8v3c0,0.4,0.4,0.8,0.8,0.8h2.5c0.4,0,0.8-0.4,0.8-0.8S-31.2,68.3-31.6,68.3z
	 M-27.5,63.9c0-0.4-0.4-0.8-0.8-0.8h-9.9c-0.4,0-0.8,0.4-0.8,0.8s0.4,0.8,0.8,0.8h9.9C-27.9,64.7-27.5,64.3-27.5,63.9z M-36.5,60.9
	l9.9,0.1c0.4,0,0.8-0.4,0.8-0.8c0-0.5-0.4-0.8-0.8-0.8l-9.9-0.1c0,0,0,0,0,0c-0.4,0-0.8,0.4-0.8,0.8C-37.3,60.6-37,60.9-36.5,60.9z
	 M-34.9,57.2h9.9c0.4,0,0.8-0.4,0.8-0.8c0-0.4-0.4-0.8-0.8-0.8h-9.9c-0.4,0-0.8,0.4-0.8,0.8C-35.7,56.9-35.3,57.2-34.9,57.2z
	 M0.7,56.1L0.7,56.1l-5.8-4.8c-0.1-0.1-0.3-0.2-0.5-0.2h-6.9v-2.9c0-0.4-0.4-0.8-0.8-0.8h-20.7c-0.4,0-0.8,0.4-0.8,0.8v6
	c0,0.4,0.4,0.8,0.8,0.8c0.4,0,0.8-0.4,0.8-0.8V49h19.1v19.3h-6.7c-0.4,0-0.8,0.4-0.8,0.8s0.4,0.8,0.8,0.8h9.9c0.4,0,0.8-0.4,0.8-0.8
	s-0.4-0.8-0.8-0.8h-1.6V52.7h6.6l5.3,4.4l-0.1,11.2h-0.8c-0.4,0-0.8,0.4-0.8,0.8c0,0.4,0.4,0.8,0.8,0.8h1.7c0.4,0,0.8-0.4,0.8-0.8
	L1,56.8C1,56.5,0.9,56.3,0.7,56.1z"/>
</svg>
