<?xml version="1.0" encoding="UTF-8"?>
<svg version="1.1" viewBox="-459 261 40 40" xmlns="http://www.w3.org/2000/svg" xmlns:xlink="http://www.w3.org/1999/xlink">
    <!--Generated by IJSVG (https://github.com/curthard89/IJSVG)-->
    <g fill="#FFFFFF">
        <path d="M32.6,20.4c-1,0 -2,0.4 -2.7,1.1c-0.7,0.7 -1.1,1.7 -1.1,2.7c0,1 0.4,2 1.1,2.7c0.7,0.7 1.7,1.1 2.7,1.1c2.1,0 3.7,-1.7 3.7,-3.8c0,-2.1 -1.7,-3.8 -3.7,-3.8Zm0,5.9c-1.1,0 -2.1,-1 -2.1,-2.1c0,-1.1 1,-2.1 2.1,-2.1c1.1,0 2.1,1 2.1,2.1c-0.1,1.1 -0.9,2.1 -2.1,2.1Zm0.9,-18.4c-0.1,-0.1 -0.3,-0.2 -0.5,-0.2h-4.3c-0.4,0 -0.8,0.4 -0.8,0.8v6.9c0,0.4 0.4,0.8 0.8,0.8h6.7c0.4,0 0.8,-0.4 0.8,-0.8v-4.6c0,-0.2 -0.1,-0.4 -0.3,-0.6l-2.4,-2.3Zm1.1,6.7h-5.2v-5.2h3.1l2.1,1.8v3.4Zm-21.4,5.8c-1,0 -2,0.4 -2.7,1.1c-0.7,0.7 -1.1,1.7 -1.1,2.7c0,1 0.4,2 1.1,2.7c0.7,0.7 1.7,1.1 2.7,1.1c2.1,0 3.7,-1.7 3.7,-3.8c0,-2.1 -1.6,-3.8 -3.7,-3.8Zm0,5.9c-1.1,0 -2.1,-1 -2.1,-2.1c0,-1.1 1,-2.1 2.1,-2.1c1.1,0 2.1,1 2.1,2.1c-5.68434e-14,1.1 -1,2.1 -2.1,2.1Zm-5.6,-4.8h-1.7v-2.2c0,-0.4 -0.4,-0.8 -0.8,-0.8c-0.4,0 -0.8,0.4 -0.8,0.8v3.1c0,0.4 0.4,0.8 0.8,0.8h2.5c0.4,0 0.8,-0.4 0.8,-0.8c0.2,-0.5 -0.4,-0.9 -0.8,-0.9Zm4.2,-4.6c0,-0.4 -0.4,-0.8 -0.8,-0.8h-10.2c-0.4,0 -0.8,0.4 -0.8,0.8c0,0.4 0.4,0.8 0.8,0.8h10.2c0.4,0.1 0.8,-0.4 0.8,-0.8Zm-9.2,-3.1l10.2,0.1c0.4,0 0.8,-0.4 0.8,-0.8c0,-0.5 -0.4,-0.8 -0.8,-0.8l-10.2,-0.1v0c-0.4,0 -0.8,0.4 -0.8,0.8c0,0.6 0.3,0.8 0.8,0.8Zm1.6,-3.7h10.2c0.4,0 0.8,-0.4 0.8,-0.8c0,-0.4 -0.4,-0.8 -0.8,-0.8h-10.2c-0.4,0 -0.8,0.4 -0.8,0.8c0,0.5 0.4,0.8 0.8,0.8Zm35.6,-1.2v0l-6,-4.9c-0.1,-0.1 -0.3,-0.2 -0.5,-0.2h-7.1v-3c0,-0.4 -0.4,-0.8 -0.8,-0.8h-20.2c-0.4,0 -0.8,0.4 -0.8,0.8v6.2c0,0.4 0.4,0.8 0.8,0.8c0.4,0 0.8,-0.4 0.8,-0.8v-5.3h18.6v19.8h-5.9c-0.4,0 -0.8,0.4 -0.8,0.8c0,0.4 0.4,0.8 0.8,0.8h9.1c0.4,0 0.8,-0.4 0.8,-0.8c0,-0.4 -0.4,-0.8 -0.8,-0.8h-1.7v-16h6.7l5.5,4.5l-0.1,11.5h-0.8c-0.4,0 -0.8,0.4 -0.8,0.8c0,0.4 0.4,0.8 0.8,0.8h1.7c0.4,0 0.8,-0.4 0.8,-0.8v-12.6c0.2,-0.3 0.1,-0.5 -0.1,-0.8Z" transform="translate(-459.1, 267)"></path>
    </g>
</svg>