<?xml version="1.0" encoding="utf-8"?>
<!-- Generator: Adobe Illustrator 23.0.1, SVG Export Plug-In . SVG Version: 6.00 Build 0)  -->
<svg version="1.1" id="Layer_1" xmlns="http://www.w3.org/2000/svg" xmlns:xlink="http://www.w3.org/1999/xlink" x="0px" y="0px"
	 viewBox="0 0 42 42" style="enable-background:new 0 0 42 42;" xml:space="preserve">
	 <style>
	 .st0{
	 fill:#ffffff;}
	 </style>
<g>
	<path class="st0" d="M11.7,37.4c-0.2,0-0.4-0.1-0.6-0.2L0.2,26.3c-0.3-0.3-0.3-0.9,0-1.2l10.9-10.9c0.2-0.2,0.6-0.3,0.9-0.2
		c0.3,0.1,0.5,0.4,0.5,0.8l-0.1,5.5l17.7,0.1c0.2,0,0.4,0.1,0.6,0.3c0.2,0.2,0.2,0.4,0.2,0.6L31,25.6l9.3-9.3L31,7.1l0.1,4.6
		c0,0.2-0.1,0.4-0.2,0.6c-0.2,0.2-0.4,0.3-0.6,0.3H17.3c-0.4,0-0.7-0.3-0.7-0.7c0-0.4,0.3-0.7,0.7-0.7h12.2l-0.1-5.5
		c0-0.3,0.2-0.7,0.5-0.8c0.3-0.1,0.7-0.1,0.9,0.2l10.9,10.9c0.2,0.2,0.2,0.4,0.2,0.6c0,0.2-0.1,0.4-0.2,0.6L30.9,27.8
		C30.6,28,30.3,28.1,30,28c-0.3-0.1-0.5-0.4-0.5-0.8l0.1-5.3l-17.7-0.1c-0.2,0-0.4-0.1-0.6-0.3C11,21.4,11,21.2,11,21l0.1-4.6
		l-9.3,9.3l9.3,9.3l0.1-4.6c0-0.5,0.4-0.8,0.8-0.8l12.7-0.2c0.4,0,0.8,0.3,0.8,0.7c0,0.4-0.3,0.8-0.7,0.8l-12.1,0.2l-0.1,5.5
		c0,0.3-0.2,0.6-0.5,0.8C11.9,37.4,11.8,37.4,11.7,37.4z"/>
</g>
</svg>
