<svg xmlns="http://www.w3.org/2000/svg" width="199.999" height="157.138" viewBox="0 0 199.999 157.138">
<style type="text/css">
	.st0{fill:#8E88FF;}
</style>
  <path class="st0" id="Path_2220" data-name="Path 2220" d="M1610.923,1241.891c0-3.4-.045-6.3.009-9.207.1-5.6,2.657-8.291,8.161-8.312q27.618-.092,55.232-.02c4.949.014,8.094,2.9,8.1,7.1,0,4.145-3.213,7.124-8.126,7.151-13.949.079-27.9.034-41.846.034h-7.244c0,6.539-.066,12.769.031,19,.056,3.845-.4,7.287-4.538,8.953-3.96,1.594-6.616-.512-9.193-3.1q-23.49-23.556-47.009-47.076c-4.676-4.685-4.678-8.194-.025-12.856q23.65-23.685,47.316-47.356c2.547-2.557,5.264-4.219,8.929-2.766s4.584,4.475,4.521,8.126c-.1,5.3.175,10.608-.073,15.9-.15,3.188.928,4.008,4.019,3.991,23.709-.113,47.424-.047,71.133-.07,8.773-.006,10.795,2,10.753,10.887-.009,2.082,0,4.168,0,5.543,10.266-10.312,20.777-20.873,31.058-31.2-9.646-9.613-20.235-20.16-31.055-30.936,0,2.922.075,5.923-.014,8.92-.166,5.594-2.712,8.152-8.317,8.17q-27.2.079-54.4.013c-5.605-.009-8.892-2.815-8.769-7.251.126-4.415,3.434-7,9.115-7.016q21.337-.038,42.676-.012h5.411c0-6.538.074-12.64-.025-18.738-.062-3.809.246-7.339,4.311-9.11,4.092-1.784,6.845.429,9.546,3.135q23.474,23.566,47.025,47.062c4.458,4.469,4.472,8.14.049,12.569q-23.793,23.839-47.617,47.65c-2.565,2.573-5.341,4.116-8.96,2.6-3.647-1.528-4.413-4.618-4.356-8.242.1-6.381.031-12.763.031-19.686h-6.649q-33.9.016-67.785.023c-9.736,0-11.41-1.689-11.44-11.479-.006-1.917,0-3.835,0-5.408-10.522,10.576-21.057,21.167-31.482,31.647C1589.315,1220.366,1599.853,1230.865,1610.923,1241.891Z" transform="translate(-1560.987 -1110.001)" fill="#9599a1"/>
</svg>
