<?xml version="1.0" encoding="utf-8"?>
<!-- Generator: Adobe Illustrator 21.1.0, SVG Export Plug-In . SVG Version: 6.00 Build 0)  -->
<svg version="1.1" id="Layer_1" xmlns="http://www.w3.org/2000/svg" xmlns:xlink="http://www.w3.org/1999/xlink" x="0px" y="0px"
	 viewBox="0 0 40 40" style="enable-background:new 0 0 40 40;" xml:space="preserve">
<style type="text/css">
	.st0{fill:#686868;}
</style>
<g>
	<g>
		<circle class="st0" cx="10.3" cy="16" r="1.5"/>
		<path class="st0" d="M17,24.5V10.7c0-0.6-0.5-1-1-1c-0.6,0-1,0.5-1,1v13.8c0.3-0.2,0.6-0.3,1-0.3S16.7,24.3,17,24.5z"/>
		<path class="st0" d="M14.9,27.8v1.4c0,0.6,0.5,1,1,1c0.6,0,1-0.5,1-1v-1.4c-0.3,0.2-0.6,0.3-1,0.3S15.2,28,14.9,27.8z"/>
		<circle class="st0" cx="16" cy="26.2" r="1.5"/>
		<path class="st0" d="M22.6,18.2v-7.4c0-0.6-0.5-1-1-1c-0.6,0-1,0.5-1,1v7.4c0.3-0.2,0.6-0.3,1-0.3C22,17.9,22.3,18,22.6,18.2z"/>
		<path class="st0" d="M20.6,21.3v8c0,0.6,0.5,1,1,1c0.6,0,1-0.5,1-1v-8c-0.3,0.2-0.6,0.3-1,0.3C21.2,21.6,20.9,21.5,20.6,21.3z"/>
		<circle class="st0" cx="21.6" cy="19.7" r="1.5"/>
		<path class="st0" d="M11.4,14.4v-3.7c0-0.6-0.5-1-1-1s-1,0.5-1,1v3.7c0.3-0.2,0.6-0.3,1-0.3S11.1,14.2,11.4,14.4z"/>
		<path class="st0" d="M9.3,17.7v11.6c0,0.6,0.5,1,1,1s1-0.5,1-1V17.7c-0.3,0.2-0.6,0.3-1,0.3S9.6,17.9,9.3,17.7z"/>
		<path class="st0" d="M27.1,7.4c-3-2.5-6.7-3.9-10.6-3.9C7.4,3.5,0,10.9,0,20s7.4,16.5,16.5,16.5c3.1,0,6.2-0.9,8.8-2.6l0.1-0.5
			c-0.4-0.4-0.7-0.8-1-1.3L24,32c-2.2,1.4-4.8,2.1-7.5,2.1C8.7,34.2,2.3,27.8,2.3,20c0-7.8,6.4-14.2,14.2-14.2
			c6.8,0,12.7,4.8,13.9,11.5c0,0,0,0,0,0l0.4,0.2c0.5-0.1,1.1-0.2,1.6-0.2l0.3-0.4C32.1,13.3,30.1,9.9,27.1,7.4z"/>
	</g>
	<g>
		<g>
			<g>
				<path class="st0" d="M39.1,24.9l-1.2-0.2c-0.1-0.4-0.3-0.8-0.5-1.2l0.7-1c0.3-0.4,0.3-1-0.1-1.3L37,20.1
					c-0.2-0.2-0.5-0.3-0.7-0.3c-0.2,0-0.4,0.1-0.6,0.2l-1,0.7c-0.4-0.2-0.8-0.4-1.2-0.5L33.3,19c-0.1-0.5-0.5-0.9-1-0.9h-1.5
					c-0.5,0-0.9,0.4-1,0.9l-0.2,1.2c-0.4,0.1-0.8,0.3-1.2,0.5l-1-0.7c-0.2-0.1-0.4-0.2-0.6-0.2c-0.3,0-0.5,0.1-0.7,0.3L25,21.2
					c-0.4,0.4-0.4,0.9-0.1,1.3l0.7,1c-0.2,0.4-0.4,0.8-0.5,1.2l-1.2,0.2c-0.5,0.1-0.9,0.5-0.9,1v1.5c0,0.5,0.4,0.9,0.9,1l1.2,0.2
					c0.1,0.4,0.3,0.8,0.5,1.2l-0.7,1c-0.3,0.4-0.3,1,0.1,1.3l1.1,1.1c0.2,0.2,0.5,0.3,0.7,0.3c0.2,0,0.4-0.1,0.6-0.2l1-0.7
					c0.4,0.2,0.7,0.3,1.1,0.5l0.2,1.2c0.1,0.5,0.5,0.9,1,0.9h1.5c0.5,0,0.9-0.4,1-0.9l0.2-1.2c0.4-0.1,0.8-0.3,1.2-0.5l1,0.7
					c0.2,0.1,0.4,0.2,0.6,0.2c0.3,0,0.5-0.1,0.7-0.3l1.1-1.1c0.4-0.4,0.4-0.9,0.1-1.3l-0.7-1c0.2-0.4,0.4-0.8,0.5-1.2l1.2-0.2
					c0.5-0.1,0.9-0.5,0.9-1v-1.5C40,25.4,39.6,24.9,39.1,24.9z M39.1,27.4L39.1,27.4C39.1,27.4,39,27.5,39.1,27.4l-1.6,0.3
					c-0.2,0-0.3,0.2-0.4,0.4c-0.1,0.5-0.3,1-0.6,1.5c-0.1,0.2-0.1,0.4,0,0.5l0.9,1.2c0,0,0,0.1,0,0.1l-1.1,1.1c0,0,0,0-0.1,0
					c0,0,0,0-0.1,0L35,31.6c-0.2-0.1-0.4-0.1-0.5,0c-0.5,0.3-1,0.5-1.5,0.6c-0.2,0-0.3,0.2-0.4,0.4l-0.3,1.5c0,0,0,0.1-0.1,0.1h-1.5
					c0,0-0.1,0-0.1-0.1l-0.2-1.5c0-0.2-0.2-0.3-0.4-0.4c-0.5-0.1-1-0.3-1.5-0.6c-0.1,0-0.2-0.1-0.2-0.1c-0.1,0-0.2,0-0.3,0.1
					l-1.2,0.9c0,0,0,0-0.1,0c0,0,0,0-0.1,0l-1.1-1.1c0,0,0-0.1,0-0.1l0.9-1.2c0.1-0.2,0.1-0.4,0-0.5c-0.3-0.5-0.5-1-0.6-1.5
					c0-0.2-0.2-0.3-0.4-0.4l-1.5-0.3c0,0-0.1,0-0.1-0.1v-1.5c0,0,0-0.1,0.1-0.1l1.5-0.2c0.2,0,0.3-0.2,0.4-0.4
					c0.1-0.5,0.3-1,0.6-1.5c0.1-0.2,0.1-0.4,0-0.5L25.6,22c0,0,0-0.1,0-0.1l1.1-1.1c0,0,0,0,0.1,0c0,0,0,0,0.1,0l1.2,0.9
					c0.2,0.1,0.4,0.1,0.5,0c0.5-0.3,1-0.5,1.5-0.6c0.2,0,0.3-0.2,0.4-0.4l0.3-1.5c0,0,0-0.1,0.1-0.1h1.5c0,0,0.1,0,0.1,0.1l0.2,1.5
					c0,0.2,0.2,0.3,0.4,0.4c0.5,0.1,1,0.3,1.5,0.6c0.2,0.1,0.4,0.1,0.5,0l1.2-0.9c0,0,0,0,0.1,0c0,0,0,0,0.1,0l1.1,1.1
					c0,0,0,0.1,0,0.1l-0.9,1.2c-0.1,0.2-0.1,0.4,0,0.5c0.3,0.5,0.5,1,0.6,1.5c0,0.2,0.2,0.3,0.4,0.4l1.5,0.3c0,0,0.1,0,0.1,0.1V27.4
					z M31.5,23c-2,0-3.7,1.6-3.7,3.7c0,2,1.6,3.7,3.7,3.7c2,0,3.7-1.6,3.7-3.7C35.2,24.6,33.5,23,31.5,23z M31.5,29.3
					c-1.5,0-2.7-1.2-2.7-2.7s1.2-2.7,2.7-2.7c1.5,0,2.7,1.2,2.7,2.7S33,29.3,31.5,29.3z"/>
			</g>
		</g>
	</g>
</g>
</svg>
