<?xml version="1.0" encoding="utf-8"?>
<!-- Generator: Adobe Illustrator 21.1.0, SVG Export Plug-In . SVG Version: 6.00 Build 0)  -->
<svg version="1.1" xmlns="http://www.w3.org/2000/svg" xmlns:xlink="http://www.w3.org/1999/xlink" x="0px" y="0px"
	 viewBox="0 0 40 40" style="enable-background:new 0 0 40 40;" xml:space="preserve">
<style type="text/css">
	.st0{clip-path:url(#SVGID_2_);}
	.st1{fill:#FF9F00;}
	.st2{opacity:0.4;fill:#FF7900;}
	.st3{opacity:0.6;fill:#FF7900;}
	.st4{clip-path:url(#SVGID_4_);}
	.st5{fill:#00BD00;}
	.st6{opacity:0.4;fill:#008E00;}
	.st7{fill:#6BBBFF;}
</style>
<g id="_x35_">
	<g>
		<defs>
			<path id="SVGID_1_" d="M1807.1,397.4l0-4.8h-0.2l0-1.8l-0.6,0l-0.5-18.8h0l0.2-0.7l0.3,0v0.7h0.3l0.3-1l0-0.7v-0.4l0-0.3l-0.5,0
				v0.3c0,0-0.3,0-0.8,0l-0.8-18.2l0.2,0l0.2-0.7l0.3,0v0.7h0.2l0.3-1l0-0.7l0-0.7l0-0.1l-0.4,0l0,0.1c0,0-0.4,0-0.9-0.1l-1-19.1
				l0.2,0v-0.4h-0.2l0-0.7l0.6,0l0-0.5l0.4,0v0.3h0.2c0-0.2,0.3-0.7,0.3-0.8l0,0v0l0-0.3v-0.2h-0.3v-0.7c0-0.1-0.5-0.2-1.2-0.3v-0.5
				c0,0-0.1-0.1-0.3-0.1c0-0.1,0-0.3,0-0.4l0-0.3h-0.1l0-2.5l0.1,0l0-1.7c1.1-0.1,1.8-0.3,1.8-0.6c0-0.3-0.7-0.6-1.9-0.7v-0.4h0.1
				l0-0.3h-0.1l0-0.6l-0.2,0c0,0,0,0,0-0.1c0-1.2-0.8-2.2-1.9-2.7v-0.5h-0.5c-0.1-0.2-0.3-0.3-0.5-0.4h0l0-0.4h-0.2l0-0.2h-0.1
				l0-0.4l0.3-0.3v-0.2l-0.4,0l0-0.6l0.3-0.2v-0.2l-0.3,0l0-0.6h0.1l0-0.4l-0.2-0.6l-0.2,0.6l0,0.4h0.1v0.6h-0.3l0,0.2l0.3,0.2
				l0,0.6l-0.4,0v0.2l0.3,0.3l0,0.4h-0.1v0.2l-0.2,0v0.4h0c-0.2,0.1-0.4,0.2-0.5,0.4l-0.5,0l0,0.5c-1.1,0.5-1.9,1.5-1.9,2.7
				c0,0,0,0,0,0.1h-0.2l0,0.6h-0.1l0,0.3l0.1,0v0.4c-1.2,0.2-1.9,0.5-1.9,0.8c0,0.3,0.8,0.5,2,0.6l0,1.8l0.3,0.7l0,1.6l0,0.2h-0.1
				l0,0.5c-0.1,0-0.1,0.1-0.1,0.1v0.4c-0.8,0.1-1.4,0.2-1.4,0.3l0,0.7l-0.2,0v0.4v0.1v0.2c0,0,0.4,0.5,0.4,0.8l0.2,0l0-0.3l0.4,0
				l0,0.5l0.7,0l0,0.5h-0.2l0,0.4l0.2,0l-0.4,19.1c-0.6,0-1.1,0.1-1.1,0.1v-0.1l-0.4,0v0.1v0.4l0,1l0.3,1l0.2,0v-0.7h0.3l0.2,0.7
				h0.2h0.2l-0.7,18.2c-0.5,0-0.8,0-0.8,0l0-0.3l-0.5,0l0,0.3v0.4l0,0.7l0.3,1h0.3l0-0.7h0.3l0.2,0.7h0l-0.3,18.6h-0.6l0,0.6
				l-10.6,0l-0.4-12.8h0l0.2-0.5l0.2,0l0,0.5l0.2,0l0.3-0.7l0-0.5V377l0-0.2l-0.3,0v0.2c0,0-0.2,0-0.6,0l-0.6-13.5h0.1l0.1-0.5h0.2
				v0.5h0.2l0.2-0.7l0-0.5v-0.5v-0.1l-0.3,0v0.1c0,0-0.3,0-0.7,0l-0.7-15l0.1,0v-0.3h-0.1l0-0.5h0.5l0-0.4h0.3l0,0.3h0.1
				c0-0.2,0.2-0.5,0.3-0.6h0l0,0v-0.2v-0.1l-0.2,0l0-0.5c0-0.1-0.3-0.1-0.9-0.2l0-0.3c0,0-0.1-0.1-0.2-0.1c0-0.1,0-0.2,0-0.3l0-0.2
				h-0.1l0-1.9l0.1,0l0-1.2c0.8-0.1,1.3-0.2,1.3-0.5c0-0.2-0.6-0.4-1.4-0.6l0-0.3h0.1v-0.2h-0.1v-0.5h-0.2c0,0,0,0,0,0
				c0-0.9-0.6-1.7-1.4-2v-0.3l-0.4,0c-0.1-0.1-0.2-0.2-0.4-0.3h0l0-0.3l-0.2,0l0-0.2l-0.1,0l0-0.3l0.2-0.2l0-0.1h-0.3v-0.4l0.2-0.2
				v-0.1l-0.2,0l0-0.4l0.1,0l0-0.3l-0.2-0.4l-0.2,0.4v0.3h0.1l0,0.4l-0.2,0v0.1l0.2,0.2l0,0.4l-0.3,0v0.1l0.2,0.2v0.3l-0.1,0l0,0.2
				h-0.2v0.3h0c-0.2,0.1-0.3,0.2-0.4,0.3l-0.4,0v0.3c-0.8,0.4-1.4,1.1-1.4,2c0,0,0,0,0,0l-0.1,0l0,0.5h-0.1l0,0.2h0.1v0.3
				c-0.9,0.1-1.4,0.3-1.4,0.6c0,0.2,0.6,0.4,1.5,0.5l0,1.3l0.2,0.6l0,1.2l0,0.2h-0.1v0.4c-0.1,0-0.1,0-0.1,0.1v0.3
				c-0.6,0.1-1,0.1-1,0.2v0.5h-0.1v0.3l0,0.1v0.1c0,0,0.3,0.4,0.3,0.6h0.1v-0.3h0.3l0,0.4h0.5l0,0.4h-0.1v0.3h0.1l-0.3,15
				c-0.5,0-0.8,0-0.8,0v-0.1l-0.3,0v0.1l0,0.3l0,0.7l0.2,0.7h0.2V363l0.2,0l0.2,0.5h0.1h0.1l-0.5,13.5c-0.4,0-0.6,0-0.6,0v-0.2h-0.3
				l0,0.2v0.3l0,0.5l0.3,0.7h0.2v-0.5l0.2,0l0.2,0.5h0l-0.2,12.8l-13.4,0.1l-0.2-38.3l-0.2-6.3h0.3v-0.3l-0.1,0
				c0-0.1-0.1-0.1-0.2-0.1c0.1-0.1,0.2-0.2,0.2-0.4l0-0.7l0.2,0V345l-0.2,0c0-0.3-0.3-0.6-0.6-0.7v-0.4h0.1l0-0.2h-0.1v-0.4h0.1
				v-0.1h-0.1l-0.1-0.4l-0.1,0.4l-0.1,0v0.1l0.1,0v0.4l-0.1,0v0.2l0.1,0l0,0.4c-0.4,0.1-0.6,0.3-0.6,0.7l0,0v0l0,0l-0.2-5h0.1
				c0.1,0,0.2-0.1,0.2-0.2c0-0.1-0.1-0.2-0.2-0.2h0c0.1-0.1,0.2-0.2,0.2-0.4v-0.7l0.2,0l0-0.4l-0.2,0c0-0.3-0.3-0.6-0.6-0.7v-0.4
				h0.1v-0.2h-0.1l0-0.4h0.1v-0.1h-0.1l-0.1-0.4l-0.1,0.4h-0.1v0.1h0.1l0,0.4h-0.1v0.2l0.1,0l0,0.4c-0.3,0.1-0.6,0.3-0.6,0.7l-0.2,0
				l0,0.4l0.2,0l0,0.7c0,0.2,0.1,0.3,0.2,0.4h0c-0.1,0-0.2,0.1-0.2,0.2c0,0.1,0.1,0.2,0.2,0.2h0.1l-0.1,5l-1.7,0l0-1.2l0.1,0
				c0.1,0,0.2-0.1,0.2-0.2c0-0.1-0.1-0.2-0.2-0.2c0.1-0.1,0.2-0.2,0.2-0.4l0-0.7h0.2v-0.4h-0.2c0-0.3-0.3-0.6-0.6-0.7l0-0.4h0.1
				v-0.2h-0.1v-0.4h0.1v-0.1l-0.1,0l-0.1-0.4l-0.1,0.4h-0.1v0.1l0.1,0v0.4h-0.1l0,0.2h0.1l0,0.4c-0.3,0.1-0.6,0.3-0.6,0.7l-0.2,0
				v0.4h0.2l0,0.7c0,0.2,0.1,0.3,0.2,0.4h0c-0.1,0-0.2,0.1-0.2,0.2c0,0.1,0.1,0.2,0.2,0.2h0.1l0,1.7l-2.4,2.9l0,0.9l-1.1,1.1v0.3
				l0.6,0l0.5,0.3l0,0.4l-3.8-0.2l-0.2-5.6l0.1,0c0.1,0,0.2-0.1,0.2-0.2c0-0.1-0.1-0.2-0.2-0.2c0.1-0.1,0.2-0.2,0.2-0.4v-0.7h0.2
				v-0.4l-0.2,0c0-0.3-0.3-0.6-0.6-0.7v-0.4l0.1,0l0-0.2h-0.1l0-0.4h0.1l0-0.1l-0.1,0l-0.1-0.4l-0.1,0.4h-0.1v0.1h0.1l0,0.4
				l-2.2-0.5l0-0.6h0.1l0-0.3h-0.1l0-1h-0.1c0-3.4-1.3-4.9-3.6-6.1v-0.3l-1.8-1l-1.1-0.9h-0.4l-0.1-0.6l-0.4,0l0-0.5
				c0.2-0.1,0.3-0.2,0.3-0.4c0-0.2-0.1-0.3-0.3-0.4l0-0.4c0.2-0.1,0.3-0.2,0.3-0.4c0-0.2-0.1-0.3-0.3-0.4l0-0.5
				c0.2,0,0.3-0.2,0.3-0.3c0-0.2-0.1-0.3-0.3-0.3l0-1.3l-0.1,1.3c-0.2,0-0.4,0.2-0.4,0.3c0,0.2,0.2,0.3,0.4,0.3l0,0.5
				c-0.2,0-0.4,0.2-0.4,0.4c0,0.2,0.2,0.3,0.4,0.4l0,0.4c-0.2,0-0.4,0.2-0.4,0.4c0,0.2,0.1,0.3,0.3,0.4l0,0.5l-0.5,0l-0.1,0.6h-0.3
				l-1.1,0.9l-1.8,1v0.4c-0.7,0.4-1.2,0.7-1.7,1.2l0-1.3c5.7-15.7-6.5-25.9-12.5-29.2l0,0l0,0l-0.4-0.7c0.2,0.2,0.6-0.1,0.5-0.4
				c-0.1-0.2,0.2-0.3,0-0.4c-0.1,0-0.2,0-0.2,0c-0.1-0.1,0-0.2,0-0.2c-0.2-0.2-0.7,0-1-0.1c0,0,0.1-0.1,0.1-0.1
				c-0.2-0.4-0.7-0.2-1-0.4c-1.3-0.4-3.9-4.1-5.7-4.3v0v-0.2h0c0.2-0.1,0.3-0.1,0.3-0.2c0-0.1-0.3-0.3-0.9-0.3c0,0,0-0.1,0-0.1
				c0-0.9-0.6-1.6-1.4-1.7l0-0.4c0.4-0.1,0.7-0.5,0.7-0.9s-0.3-0.8-0.7-0.9v-0.4c0.6-0.1,1-0.7,1-1.3c0-0.6-0.6-1.1-1-1.7l0-0.8
				l0.2,0v-0.2l0.1,0v-0.2h-0.3v-0.4c0.3-0.1,0.5-0.4,0.5-0.7c0-0.3-0.2-0.6-0.5-0.7v-0.6h-0.2v-0.8c0.7-0.1,1.2-0.5,1.2-1.1
				c0,0,0-0.1,0-0.1c-0.1,0.5-0.6,0.8-1.2,0.9l0-0.4c0.2-0.1,0.3-0.2,0.3-0.4c0-0.2-0.1-0.4-0.3-0.4v-0.4c0.1,0,0.2,0.1,0.3,0.1
				c0,0,0,0,0-0.1c0-0.1-0.1-0.2-0.3-0.2h0l-0.1-0.5l-0.1,0.5h0c-0.2,0-0.3,0.1-0.3,0.2c0,0,0,0.1,0,0.1c0-0.1,0.1-0.1,0.3-0.1
				l0,0.4c-0.2,0.1-0.3,0.2-0.3,0.4c0,0.2,0.1,0.4,0.3,0.4l0,0.4c-0.6-0.1-1.1-0.5-1.2-1c0,0.1,0,0.2,0,0.2c0,0.6,0.5,1,1.2,1.1
				l0,0.8h-0.2l0,0.6c-0.3,0.1-0.5,0.4-0.5,0.8c0,0.3,0.2,0.6,0.5,0.7v0.4l-0.3,0v0.2h0.1v0.2h0.2v0.8c-0.4,0.6-1,1.1-1,1.7
				c0,0.6,0.4,1.1,1,1.3v0.4c-0.4,0.1-0.7,0.5-0.7,0.9c0,0.4,0.3,0.8,0.7,0.9l0,0.4c-0.8,0.1-1.4,0.8-1.4,1.7c0,0,0,0.1,0,0.1
				c-0.5,0.1-0.8,0.2-0.8,0.3c0,0.1,0.1,0.2,0.3,0.2h0l0,0.2c-1.7,0.2-4.3,4-5.6,4.4c-0.3,0.2-0.8-0.1-1,0.4c0,0,0.1,0.1,0.1,0.1
				c-0.3,0.2-0.8,0-1,0.2c0,0,0.2,0.1,0,0.2c-0.1,0-0.2,0-0.2,0c-0.3,0.1,0,0.2,0,0.4c-0.1,0.2,0.2,0.6,0.5,0.3l-0.4,0.7
				c-6,3.3-18.3,13.8-12.1,29.7l0,1.1c-0.5-0.5-1.2-0.9-1.9-1.3v-0.3l-1.8-1l-1.1-0.9h-0.3l-0.1-0.6l-0.5,0l0-0.5
				c0.2-0.1,0.3-0.2,0.3-0.4c0-0.2-0.2-0.4-0.4-0.4l0-0.4c0.2,0,0.4-0.2,0.4-0.4c0-0.2-0.2-0.3-0.4-0.4l0-0.5c0.2,0,0.4-0.2,0.4-0.3
				c0-0.2-0.2-0.3-0.4-0.3l-0.1-1.3l0,1.3c-0.2,0-0.3,0.2-0.3,0.3c0,0.2,0.1,0.3,0.3,0.3l0,0.5c-0.2,0-0.3,0.2-0.3,0.4
				c0,0.2,0.1,0.3,0.3,0.4l0,0.4c-0.2,0.1-0.3,0.2-0.3,0.4c0,0.2,0.1,0.3,0.3,0.4l0,0.5h-0.4l-0.1,0.6l-0.4,0l-1.1,0.9l-1.8,1l0,0.3
				c-2.3,1.2-3.6,2.7-3.5,6.1h-0.1l0,1h-0.1l0,0.3l0.1,0v0.6l-2.2,0.6l0-0.4l0.1,0l0-0.1h-0.1l-0.1-0.4l-0.1,0.4h-0.1v0.1h0.1l0,0.4
				h-0.1l0,0.2h0.1l0,0.4c-0.4,0.1-0.6,0.3-0.6,0.7l-0.2,0v0.4h0.2v0.7c0,0.2,0.1,0.3,0.2,0.4c-0.1,0-0.2,0.1-0.2,0.2
				c0,0.1,0.1,0.2,0.2,0.2h0.1l-0.2,5.6l-3.8,0.2l0-0.4l0.5-0.3l0.6,0v-0.3l-1.1-1.1l0-0.9l-2.4-2.8l0-1.7h0.1
				c0.1,0,0.2-0.1,0.2-0.2c0-0.1-0.1-0.2-0.2-0.2h0c0.1-0.1,0.2-0.2,0.2-0.4v-0.7l0.2,0l0-0.4h-0.2c0-0.3-0.3-0.6-0.6-0.7l0-0.4h0.1
				v-0.2h-0.1l0-0.4l0.1,0l0-0.1h-0.1l-0.1-0.4l-0.1,0.4h-0.1v0.1h0.1l0,0.4l-0.1,0v0.2l0.1,0l0,0.4c-0.4,0.1-0.6,0.3-0.6,0.7
				l-0.2,0v0.4h0.2l0,0.7c0,0.2,0.1,0.3,0.2,0.4l0,0c-0.1,0-0.2,0.1-0.2,0.2c0,0.1,0.1,0.2,0.2,0.2h0.1l0,1.2l-1.7,0l-0.2-5h0.1
				c0.1,0,0.2-0.1,0.2-0.2c0-0.1-0.1-0.2-0.2-0.2l0,0c0.1-0.1,0.2-0.2,0.2-0.4l0-0.7h0.2l0-0.4l-0.2,0c0-0.3-0.3-0.6-0.6-0.7l0-0.4
				l0.1,0v-0.2l-0.1,0v-0.4h0.1v-0.1h-0.1l-0.1-0.4l-0.1,0.4h-0.1l0,0.1h0.1v0.4l-0.1,0v0.2h0.1v0.4c-0.4,0-0.6,0.3-0.6,0.7h-0.2
				v0.4h0.2v0.7c0,0.1,0.1,0.3,0.2,0.4c-0.1,0-0.2,0.1-0.2,0.2c0,0.1,0.1,0.2,0.2,0.2h0.1l-0.2,5h0v0h0c0-0.3-0.3-0.6-0.6-0.7l0-0.4
				h0.1l0-0.2l-0.1,0l0-0.4h0.1v-0.1l-0.1,0l-0.1-0.4l-0.1,0.4l-0.1,0v0.1l0.1,0l0,0.4h-0.1l0,0.2h0.1l0,0.4
				c-0.4,0.1-0.6,0.3-0.6,0.7l-0.2,0l0,0.4l0.2,0l0,0.7c0,0.2,0.1,0.3,0.2,0.4h0c-0.1,0-0.1,0.1-0.2,0.1l-0.1,0v0.3l0.3,0l-0.2,6.3
				h0l0,1.1h-0.2v0.5h0.2v0.3l-0.6,0l0,0.5l0.6,0l0.2,35.8l-13.5,0.1l-0.4-12.8h0l0.2-0.5l0.2,0v0.5l0.2,0l0.3-0.7l0-0.5l0-0.3v-0.2
				l-0.3,0v0.2c0,0-0.2,0-0.6,0l-0.6-13.5h0.1h0.1l0.1-0.5l0.2,0l0,0.5l0.2,0l0.2-0.7v-0.8l0-0.3v-0.1h-0.3v0.1c0,0-0.3,0-0.8,0
				l-0.4-15h0.1v-0.3l-0.1,0l0-0.4l0.5,0l0-0.4h0.3v0.3l0.1,0c0-0.2,0.3-0.6,0.3-0.6v-0.1l0-0.1v-0.3l-0.1,0l0-0.5
				c0-0.1-0.4-0.2-1-0.2v-0.3c0,0,0,0-0.1-0.1l0-0.4l-0.1,0v-0.2l0-1.2l0.2-0.6l0-1.3c0.9-0.1,1.5-0.3,1.5-0.5
				c0-0.2-0.5-0.4-1.4-0.6v-0.3h0.1v-0.2h-0.1v-0.5h-0.1c0,0,0,0,0,0c0-0.9-0.6-1.6-1.4-2l0-0.3h-0.4c-0.1-0.1-0.2-0.2-0.4-0.3l0,0
				l0-0.3h-0.2v-0.2h-0.1v-0.3l0.2-0.2l0-0.1h-0.3l0-0.4l0.2-0.2v-0.1l-0.2,0v-0.4h0.1v-0.3l-0.2-0.4l-0.2,0.4l0,0.3h0.1v0.4h-0.2
				v0.1l0.2,0.2l0,0.4l-0.3,0l0,0.1l0.2,0.2v0.3h-0.1l0,0.2l-0.2,0v0.3h0c-0.2,0.1-0.3,0.2-0.4,0.3l-0.4,0v0.3
				c-0.8,0.4-1.4,1.1-1.4,2c0,0,0,0,0,0l-0.1,0v0.5h-0.1v0.2l0.1,0v0.3c-0.9,0.1-1.4,0.3-1.4,0.6c0,0.2,0.5,0.4,1.4,0.5l0,1.2h0.1
				l0,1.9h-0.1v0.2c0,0.1,0,0.2,0,0.3c-0.1,0-0.2,0.1-0.2,0.1l0,0.3c-0.6,0.1-0.9,0.1-0.9,0.2v0.5l-0.2,0v0.1l0,0.2v0l0,0
				c0,0.1,0.3,0.4,0.3,0.6h0.1l0-0.3h0.3l0,0.4l0.5,0l0,0.5l-0.1,0v0.3l0.1,0l-0.6,15c-0.4,0-0.7,0-0.7,0v-0.1l-0.3,0v0.1l0,0.5
				l0,0.5l0.2,0.7l0.2,0l0-0.5l0.2,0l0.2,0.5h0.1l-0.5,13.5c-0.4,0-0.6,0-0.6,0v-0.2l-0.3,0v0.2v0.3l0,0.5l0.3,0.7h0.2v-0.5h0.2
				l0.2,0.5l0,0l-0.2,12.8l-10.6,0l0-0.6h-0.6l-0.5-18.6l0,0l0.2-0.7l0.3,0l0,0.7h0.3l0.3-1v-0.7l0-0.4l0-0.3h-0.5v0.3
				c0,0-0.3,0-0.8,0l-0.8-18.2h0.2l0.2,0l0.2-0.7h0.3v0.7h0.2l0.3-1l0-1V350v-0.1h-0.4v0.1c0,0-0.4,0-1.1-0.1l-0.6-19.1l0.2,0l0-0.4
				h-0.2l0-0.5l0.7,0l0-0.5h0.4v0.3h0.2c0-0.3,0.4-0.8,0.4-0.8v-0.2v-0.1v-0.4h-0.2v-0.7c0-0.1-0.5-0.2-1.4-0.3v-0.4
				c0,0-0.1-0.1-0.1-0.1l0-0.6l-0.1,0V326l0-1.6l0.3-0.8l0-1.8c1.2-0.1,2-0.3,2-0.6c0-0.3-0.7-0.6-1.9-0.8v-0.4l0.1,0v-0.3l-0.1,0
				l0-0.6l-0.2,0c0,0,0,0,0-0.1c0-1.2-0.8-2.2-1.9-2.7v-0.5h-0.5c-0.1-0.2-0.3-0.3-0.5-0.4l0,0l0-0.4h-0.2v-0.2h-0.1l0-0.4l0.3-0.3
				V314h-0.4v-0.6l0.3-0.2v-0.1h-0.3l0-0.6l0.1,0l0-0.4l-0.2-0.6l-0.2,0.6l0,0.4h0.1l0,0.6l-0.3,0v0.1l0.3,0.2l0,0.6l-0.4,0v0.2
				l0.3,0.3v0.4l-0.1,0v0.2l-0.2,0l0,0.4h0c-0.2,0.1-0.4,0.2-0.5,0.4h-0.5l0,0.5c-1.1,0.5-1.9,1.5-1.9,2.7c0,0,0,0,0,0.1h-0.2l0,0.6
				h-0.1l0,0.3l0.1,0l0,0.4c-1.2,0.2-1.9,0.5-1.9,0.8c0,0.3,0.7,0.5,1.8,0.6l0,1.7h0.1l0,2.5l-0.1,0v0.3c0,0.1,0,0.3,0,0.4
				c-0.2,0-0.3,0.1-0.3,0.1l0,0.5c-0.7,0.1-1.2,0.2-1.2,0.3l0,0.7h-0.3v0.2l0,0.3v0h0c0.1,0.1,0.3,0.5,0.3,0.8l0.2,0v-0.3l0.4,0
				l0,0.5l0.6,0l0,0.7h-0.2l0,0.4h0.2l-0.8,19.1c-0.5,0-0.9,0.1-0.9,0.1l0-0.1h-0.4v0.1l0,0.7v0.7l0.3,1l0.2,0l0-0.7h0.3l0.2,0.7
				l0.2,0l-0.7,18.2c-0.5,0-0.8,0-0.8,0v-0.3l-0.5,0l0,0.3l0,0.4l0,0.7l0.3,1l0.3,0l0-0.7h0.3l0.2,0.7h0l-0.3,18.8l-0.6,0l0,0.5
				l-1.2,0l0,1.1h-0.4v0.4l0.2,0v0.3l-0.2,0v0.1h0.2l0,3.4h-19.8l-0.1-37.1l0-1.2l0,0l0-11.9l-3.6-2.9c1.5-4.8-2.1-7.8-2.1-7.8
				l-4.3,2.9c-0.4-3.1-4.5-5.3-4.5-5.3c-3.3,1.9-2.9,3.7-2.9,3.7c-0.7-1.6-2.9-3.6-4-4.4l0-8.7c0,0,7.1-0.7,7.1-5.6
				c0,0-0.2-2.3-6.2-3.6c1-1.6,3-7-8.4-13.5l-5.1-4.3l-1.4-5l-1.4,5c0,0-3.8,3.2-6.2,5c-2.4,1.8-8.2,3.8-7.5,13.1h0
				c0,0-5.9,1.2-6.4,2.3c-0.5,1.1-2.3,2.2,2.6,3.9c4.8,1.8,4.2,2.4,4.2,2.4l0,7.4c-3.3,2.1-3.3,5.9-3.3,5.9c0-2.9-4.8-4.7-4.8-4.7
				c-3.2,1.5-4.6,4.9-4.6,4.9c-0.5-2.8-5.1-2.8-5.1-2.8l0.2,9.3c-0.9-0.8-2.3,0.6-2.3,0.6l0,10.3l0,0l0,1.5l-1.3,0.1l-0.5-9.3
				c-0.8-0.6-4.2-3-4.2-3l-1.9-35.5c0,0,2.4-0.2,2.7-2.9c0.4-2.7-2.6-3.6-2.6-3.6s2.6-0.7,2.4-3.1c-0.2-2.4-5.3-8.1-5.3-8.1
				s-3.2,4.1-4.5,6.8c-1.3,2.8,1.8,4.4,1.8,4.4c-2.8,0.8-2.8,3.3-2.8,3.3c0,3.2,3.8,3.3,3.8,3.3l0.1,19.1l-4,0l0-1.9l-0.6,0
				c0-1.8-0.6-5.6-4.9-7.7c0,0-4.7,2.6-4.7,7.8l-0.5,0l0,0l-0.6,0c0-1.8-0.6-5.6-4.9-7.7c0,0-4.7,2.6-4.7,7.8l-0.6,0v0l-0.5,0
				c0-1.8-0.6-5.6-4.9-7.7c0,0-4.7,2.6-4.7,7.8h-0.1l-0.1-22.9c0.3,0.7,1,1.6,2.8,1.2c1.5-0.3,0.8,1.9,1.4,2.2l0-2.5c0,0,0,0,0,0
				l0.2-2.9c0,0,0,0.1,0,0.1l0.2-1.7c-0.4-1-0.6,0.1-1.6-4.9c-0.9-4.2-2.5-5.2-3-5.5v-0.3h-0.8l0.1,37.2h-0.1c0.1-1.3,0.1-6-4.9-8.4
				c0,0-5.1,2.9-4.7,8.5l-0.5,0v0l-0.6,0c0-1.8-0.6-5.6-4.9-7.7c0,0-4.7,2.6-4.7,7.8l-0.5,0v0l-0.6,0c0-1.8-0.6-5.6-4.9-7.7
				c0,0-4.7,2.6-4.7,7.8l-0.6,0l0,1.9l-2,0l-0.1-22.1c2.7,0,2.8-2.7,2.8-2.7c0-3.1-3.4-4.3-3.4-4.3c0.5,0,2.5-1.5,2.5-3.8
				c0-3.5-5.3-6.4-5.3-6.4s-4.9,3.4-4.7,6.3c0.2,3.9,2.8,4.1,2.8,4.1s-3.1,0.8-3.3,3c-0.2,2.8,2,3.4,2,3.4l-0.6,37.1l-4.6,4.1
				l0.1,12.4l-0.8-0.1v0l0,0l0-11.9l-3.6-2.9c1.5-4.8-2.1-7.8-2.1-7.8l-4.3,2.9c-0.4-3.1-4.5-5.3-4.5-5.3c-3.3,1.9-2.9,3.7-2.9,3.7
				c-0.7-1.7-3.3-3.8-4.2-4.6l0-8.2c0,0,7.1-0.7,7.1-5.6c0,0-0.2-2.3-6.2-3.6c1-1.6,3-7-8.4-13.5l-5.1-4.3l-1.4-5l-1.4,5
				c0,0-3.8,3.2-6.2,5c-2.4,1.8-8.2,3.8-7.5,13.1c0,0-5.9,1.2-6.4,2.3c-0.5,1.1-2.3,2.2,2.6,3.9c4.8,1.8,4.2,2.4,4.2,2.4l0,7.2
				c-3.1,2.2-3.1,5.7-3.1,5.7c0-2.9-4.9-4.7-4.9-4.7c-3.2,1.5-4.6,4.9-4.6,4.9c-0.5-2.8-5.1-2.8-5.1-2.8l0.2,9.3
				c-0.9-0.8-2.3,0.6-2.3,0.6l0,10.3l0,0l0,2.5l0,0l0.1,39.3h-14.1l-0.6-3.4l-0.5-17.4l1-1.5l-1.1-0.3l0-0.8l-0.3-0.1l0-8.3l0.5-0.7
				l-0.6-0.6l-0.1-0.6l-0.4-0.3l0-16.5l2.4-3.9l1.2-1.5l0.3-1.2l0.2-0.4l-4.3-0.2l-0.1-7.3l-1.5-0.1l0.2-5.4l-6,0.2l0-7.7l-0.3-0.3
				l-0.2-4.7l-12.4,0.1l-0.1-2.1l-4.7,0.1c-1.5-1.7-5.5-2.7-5.5-2.7l0.3-1.1c-5.9-1.9-9.1,0-9.1,0l0,1c-2.5,0.6-5.9,3-5.9,3l-3.8,0
				l-0.1,1.9l-12.1,0l-0.4,12.8l-6.1,0l0,5.7l-1.4,0l0,7.2l-4,0l0.4,1.5l3.7,6.5l-0.2,17.2l-0.6-0.1l0.4,1l-0.4,9.5l-1,0.1l1.1,1.1
				l-0.4,17.7l-0.1,2.9h-13.8l-0.1,0l-3.9-38.4l2.4-4.1c0,0,0-4.1-1.2-6.3c-1.2-2.2-2.7-0.8-2.7-0.8l-1.6-23c0,0,2.2-2.2,1.9-4.3
				c-0.4-2.1-3.6-4.4-3.6-4.4l-1.1-13.7c0,0,1.4-0.5,1.4-3.6c0-3.1-3.3-5.1-3.3-5.1l-0.7-3.6c0,0,1.2,0.5,1.4-2.4
				c0.2-2.9-1.9-3.8-1.9-3.8l-0.5-4.8c0,0,0.9-0.7,0.5-2.1c-0.3-1.4-2.9-2.7-2.9-2.7s0.3-1.7-0.3-1.9c-0.7-0.2-1.4,2.2-1.4,2.2
				s-2.7,1.9-3.2,2.8c-0.5,0.9,1,0.9,1,0.9l0,5.8c0,0-2.6,1.7-2.9,2.8c-0.3,1,1.7,2.7,1.7,2.7l-0.7,5.7c0,0-2.1,1.2-2.4,2.9
				c-0.3,1.7,0.9,5.1,0.9,5.1l-0.8,11.8l-1.2,1.9c0,0-1.4,0.9-1.9,2.8c-0.5,1.9,1.9,5.3,1.9,5.3l-1.6,22.1l-1.2,1.4
				c0,0-3.1-0.8-2.9,3.1c0.2,3.9,1.9,6.7,1.9,6.7l-2.9,38.4c0,0-7.4,0.2-9.3,0.4c-0.5,0-1.1,0.2-1.7,0.4h-15.6v28.8h621.1v-28.8
				H1807.1z M1803,323.5l0,1.7h-0.1L1803,323.5L1803,323.5z M1802.2,322.7l0,0.6l0.4,0.5l0,1.6h-0.1l0,0.1h-0.2v0h0
				c-0.1,0-0.1-0.5-0.1-0.5h-0.1l0-2.3L1802.2,322.7z M1801.1,322.8h0.2v-0.2h0c0,0,0,0.1,0,0.1l0.2,0l0,2.3h0l-0.1,0
				c0,0,0,0.5-0.1,0.5l0,0l0,0.1l-0.3,0l0-0.1l-0.1,0l0-1.6l0.3-0.4V322.8z M1799.7,322.8C1799.7,322.8,1799.7,322.7,1799.7,322.8
				l0.3-0.1v0.2h0.2l0,0.6l0.3,0.4l0,1.6h-0.1v0.2l-0.6,0v-0.1h0c-0.2,0-0.1-0.5-0.1-0.5h-0.1l0-2.3H1799.7z M1798.7,322.8h0.2v-0.2
				h0c0,0,0,0.1,0,0.1h0.2l0,2.3h0h-0.1c0,0,0,0.5-0.1,0.5v0.1l-0.3,0v-0.2h0l0-1.7l0.3-0.4L1798.7,322.8z M1797.6,322.9
				L1797.6,322.9l0.1-0.1l0,0.6l0.4,0.5l0,1.6h-0.1l0,0.2l-0.5,0l0-0.1l-0.1,0v-0.1v-0.1l0-2.2L1797.6,322.9z M1781.3,341.6v1.3
				l-0.1,0L1781.3,341.6L1781.3,341.6z M1780.7,341v0.4l0.3,0.4l0,1.2h-0.1v0.1h-0.1l0,0l0,0c-0.1,0-0.1-0.4-0.1-0.4h-0.1l0-1.7
				H1780.7z M1779.9,341.5v-0.4l0.1,0V341l0,0c0,0,0,0,0,0.1h0.1l0,1.7l0,0h-0.1c0,0,0,0.4-0.1,0.4h0v0h-0.2V343l-0.1,0l0-1.2
				L1779.9,341.5z M1778.9,341C1778.9,341,1778.9,341,1778.9,341l0.2-0.1v0.1h0.1l0,0.4l0.3,0.3l0,1.2h0v0.1l-0.4,0l0-0.1h0
				c-0.1,0-0.1-0.4-0.1-0.4l-0.1,0l0-1.7L1778.9,341z M1778.1,341.1h0.1l0-0.1h0c0,0,0,0,0,0.1h0.1l0,1.7h0h-0.1c0,0,0,0.4-0.1,0.4
				v0.1l-0.2,0v-0.1h0l0-1.2l0.2-0.3L1778.1,341.1z M1777.3,341.2L1777.3,341.2l0.1,0l0,0.4l0.3,0.3l0,1.2h0v0.1h-0.4v-0.1h-0.1V343
				v-0.1l0-1.7L1777.3,341.2z M1760.2,345.4l0,0.7c0,0.1,0.1,0.3,0.2,0.4h0c-0.1,0-0.1,0.1-0.2,0.1h-0.1L1760.2,345.4L1760.2,345.4z
				 M1747.7,343.6l0.8-0.1c0,0,0.1,0,0.1,0c0,0-0.1,0-0.1,0l0.3-0.4V343l0.3-0.1v0.3c-0.3,0.1-0.6,0.3-0.6,0.7h-0.2v0.4h0.2l0,0.7
				c0,0.2,0.1,0.3,0.2,0.4l0,0c-0.1,0-0.2,0.1-0.2,0.2c0,0.1,0.1,0.2,0.2,0.2h0.1l-0.1,5.4l0,0l-1.6,0v-0.2h-0.1l0-6.8
				C1746.8,343.9,1747.2,343.7,1747.7,343.6z M1744.1,346.6v-0.3h0.2c0.1,0.1,0.1,0.1,0.3,0.2c0,0.1,0,0.2,0,0.3
				c0,0.1,0.1,0.1,0.2,0.1c0.1,0.1,0,0.2,0,0.3l-0.9,0l0-0.6H1744.1z M1743.8,349.2c0.2-0.1,0.4-0.4,0.5-0.7l0.8,0l0,2.6l-2,0l0-1.7
				C1743.4,349.4,1743.7,349.3,1743.8,349.2z M1677.5,347.2c0-0.1,0.1,0,0.2-0.1c0-0.1,0-0.2,0-0.3c0.1,0,0.2-0.1,0.3-0.2h0.2v0.3
				l0.2,0l0,0.6l-0.9,0C1677.4,347.4,1677.4,347.3,1677.5,347.2z M1677.9,348.8c0.1,0.2,0.3,0.4,0.4,0.6l0,1.6l-1.3,0l0-2.1
				L1677.9,348.8z M1673.4,343.3v0.2l0.3,0.4c0,0-0.1,0-0.1,0c0,0,0.1,0,0.1,0l0.8,0c0.5,0.1,0.8,0.2,0.8,0.5l0,6.8l-0.1,0v0.2
				l-1.6,0l0,0l-0.2-5.4h0.1c0.1,0,0.2-0.1,0.2-0.2c0-0.1-0.1-0.2-0.2-0.2c0.1-0.1,0.2-0.2,0.2-0.4l0-0.7l0.2,0l0-0.4h-0.2
				c0-0.3-0.3-0.6-0.6-0.7l0-0.3L1673.4,343.3z M1662,345.9L1662,345.9l0.1,1.2h-0.1c0-0.1-0.1-0.1-0.2-0.1c0.1-0.1,0.2-0.2,0.2-0.4
				L1662,345.9z M1644.6,341.7l0.1,0v0l0.1,0.1l0,1.7v0.1l0,0.1l-0.1,0v0.1l-0.4,0v-0.1h0l0-1.2l0.3-0.3L1644.6,341.7z
				 M1643.7,341.6L1643.7,341.6l0,0.1h0.1l0,0.4l0.2,0.3l0,1.2l0,0l0,0.1h-0.2l0-0.1c-0.1,0-0.1-0.4-0.1-0.4h-0.1l0,0l0-1.7
				L1643.7,341.6C1643.7,341.6,1643.7,341.6,1643.7,341.6z M1642.8,342.1l0-0.4h0.1v-0.1l0.2,0c0,0,0,0.1,0,0.1h0.1l0,1.7h-0.1
				c0,0,0,0.4-0.1,0.4h0v0.1h-0.4v-0.1h0l0-1.2L1642.8,342.1z M1641.9,341.6C1641.9,341.6,1641.9,341.6,1641.9,341.6L1641.9,341.6
				L1641.9,341.6l0.1,0.1l0,0.4l0.3,0.3l0,1.2l-0.1,0l0,0.1h-0.2v0h0c-0.1,0-0.1-0.4-0.1-0.4h-0.1l0,0l0-1.7H1641.9z M1641.3,342.1
				v-0.4h0.2l0,1.7h-0.1c0,0,0,0.4-0.1,0.4h0l0,0h-0.1v-0.1h-0.1l0-1.2L1641.3,342.1z M1640.8,342.3l0,1.2h-0.1L1640.8,342.3
				L1640.8,342.3z M1624.1,323.6h0.1v0.1l0.1,0.1l0,2.2v0.1v0.1l-0.1,0l0,0.1l-0.5,0l0-0.2h-0.1l0-1.6l0.4-0.5V323.6z M1622.9,323.4
				L1622.9,323.4l0,0.2h0.2l0,0.6l0.3,0.4l0,1.7h0v0.2h-0.3l0-0.1c-0.2,0-0.2-0.5-0.2-0.5l-0.1,0l0,0l0-2.3L1622.9,323.4
				C1622.9,323.5,1622.9,323.4,1622.9,323.4z M1621.7,324.2l0-0.6h0.2v-0.2l0.3,0c0,0.1,0,0.1,0,0.1h0.2l0,2.3h-0.1
				c0,0,0,0.5-0.1,0.5h0v0.1l-0.6,0v-0.2l-0.1,0l0-1.6L1621.7,324.2z M1620.5,323.5C1620.5,323.5,1620.5,323.5,1620.5,323.5
				L1620.5,323.5L1620.5,323.5l0.2,0.1l0,0.6l0.3,0.4l0,1.6h-0.1v0.1l-0.3,0l0-0.1l0,0c-0.2,0-0.2-0.5-0.2-0.5h-0.1l0,0l0-2.3
				H1620.5z M1619.7,324.1l0-0.6l0.2,0l0,2.3h-0.1c0,0,0,0.5-0.2,0.5l0,0l0,0h-0.2v-0.1h-0.1l0-1.6L1619.7,324.1z M1619,324.4l0,1.6
				h-0.1L1619,324.4L1619,324.4z M1446,334.1c0,0,2.1-0.6,2.8-1.8l0.2,0c0.4,0.4,2.3,2.2,3.5,2.3l0,10l0.3,0c-3,0.9-4.6,3.6-4.6,3.6
				c-0.3-1.1-1.2-2.2-2.2-3.1L1446,334.1z M1473.6,334.8c0,0,2.6-0.9,3.2-2.3c0,0,2.1,2.8,4.4,3.2l0,9.2h0.1
				c-1.6,1.1-2.8,3.2-2.8,3.2c-0.3-1.7-3.7-3.1-4.9-3.5L1473.6,334.8z M1483.4,335.4c0,0,2.4-1.4,3.2-3c0,0,1.4,3.1,3.3,3.9l0,9.1
				h0.1c-1.5,1.5-2.9,3.5-2.9,3.5c-0.6-2.1-2.7-3.8-3.7-4.4L1483.4,335.4z M1492.2,336.1c0,0,2.3-1.2,3-2.9c0,0,1.9,2.7,3.3,3.3
				l0,8.9c-1.6,1.2-2.2,3.4-2.2,3.4c-0.3-1.9-3-3.8-4-4.5L1492.2,336.1z M1454.7,334.5c0,0,2.3-0.8,3.8-2.2c0,0,2.4,2.1,3.9,2.1
				l0,9.6c-2.3,1-3.3,3.5-3.3,3.5c-1.1-1.6-3.6-2.6-4.8-2.9h0.5L1454.7,334.5z M1505.6,349.1c-0.5-2.5-3-3.6-4.6-4.1l0-8.8
				c0,0,3.1-1.6,3.5-3.4c0,0,2.1,4.2,3.5,4.4l0,7.9C1506.4,346.9,1505.6,349.1,1505.6,349.1z M1471.4,334.8l0.2,10.5h0.1
				c-2.1,1.4-2.6,2.4-2.6,2.4c-0.5-1.4-3-2.9-4.4-3.6l0-9.9c0,0,2.3-0.8,3.4-2h0.1C1468.2,332.4,1470.1,334.5,1471.4,334.8z
				 M1548.2,325.6c0,0,2.9,2.7,3.5,5.1l0,3.5c-0.6,0.8-0.6,1.5-0.6,1.5c-1.3-3.1-4.4-4-5.6-4.2l0.1-1.9
				C1545.5,329.6,1545,327.3,1548.2,325.6z M1554.1,332.2l0-2.1c0,0,1.4-3.6,4.7-3.8c0,0,4.3,2.7,4.5,4.6l0,1.3
				c-2-0.8-4.1-0.9-4.1-0.9C1556.9,331.3,1555.3,331.7,1554.1,332.2z M1571.2,329.3l0,3.7c-3.1,0.5-4.4,2.5-4.4,2.5
				c-0.3-0.8-0.8-1.5-1.3-2c0.1-1.5,0.2-4,0.2-4.5c0-0.8,1.1-2.6,2.8-2.4C1568.5,326.6,1571.2,327.5,1571.2,329.3z M1512,343.2
				c-0.6,0-1.1,0.2-1.7,0.4l0.2-11.5l1.4,0L1512,343.2z M1443.9,332.3l0,11l0.2,0.2c-1.2-0.9-2.2-1.5-2.2-1.5l0-9.7L1443.9,332.3z
				 M1383,326.4c0,0,2.9,2.7,3.5,5.1l0,3.5c-0.4,0.7-0.4,1.2-0.4,1.2c-1.4-3.3-4.7-4.1-5.8-4.3l0.1-1.5
				C1380.3,330.3,1379.8,328,1383,326.4z M1388.9,332.8l0-1.8c0,0,1.4-3.6,4.7-3.8c0,0,4.3,2.7,4.5,4.6v0.9c-2-0.7-3.9-0.8-3.9-0.8
				C1391.8,331.8,1390.1,332.2,1388.9,332.8z M1406,330.1l0,3.4c-2.9,0.5-4.2,2.4-4.2,2.4c-0.3-0.9-0.8-1.6-1.5-2.1
				c0.1-1.5,0.2-3.6,0.2-4c0-0.8,1.1-2.6,2.8-2.4C1403.2,327.3,1406,328.2,1406,330.1z M1297.8,370.4c0,0,1.3-1.3,1.5-2.2
				c0.1-0.8-0.8-3.8-0.8-3.8s2.9-6.7,10.1-6.8c7.2-0.1,9.9,6.4,10.1,7.6c0.1,1.1-1.2,2.2-0.9,3c0.3,0.8,1.5,1.5,1.5,1.5l0.1,27.7
				h-21.4L1297.8,370.4z"/>
		</defs>
		<clipPath id="SVGID_2_">
			<use xlink:href="#SVGID_1_"  style="overflow:visible;"/>
		</clipPath>
		<g class="st0">
			<path class="st1" d="M1927.9,420.6c-3.8-0.8-39.6,26.7-57,27c-41.6-3-241.9-12.1-128.1-6.2c-176.7-4.7-347.5,5.5-528.8,8.2
				c-7.7,0.1-23.2,0.3-30.9,0.5c-30.6-11.3-61.5-14.7-92.4-14.2c8.2-19.6-21.7-58.3,40-51.4c0.1-3.9,0.3-11.7,0.4-15.6
				c-61.4-18.6-83.1-73-20.9-89.5c70-16.7,162.3-2.4,247.6-11.5c62-4.8,123.9-9.7,185.5-2.8c84.7,10.5,177.6,5.2,262.2,19.5
				c30.8,3.4,85.3-9.1,100.4,2.4c11,5.4,3.4,46.9,6.3,54.6c0,0,15.5-0.2,23.2-0.3c30.4,19.1,22,46.5,6,66.3
				C1937.5,411.5,1933,416,1927.9,420.6z"/>
			<path class="st2" d="M1930.3,394.6c-3.8-0.5-7.6-1-11.3-1.4c-69.4-6.8-139-3.1-216.2-7.2c-54-4.4-115.9-0.9-170-0.1
				c128.1,2.9,263-0.9,385.7,15.3c-12.6,6.3-27.6,11.5-45,11.7c-41.6-1.8-82.8-2.9-123.5-3.4c0.1-2.6,0.2-7.8,0.3-10.3
				c-116.2,9.5-223.9-9.7-340.2,5.1c4.1,1.3,1.6,3.5,0.7,5.2c-0.3,0-0.6,0-0.8,0c0.3,0,0.5,0,0.8,0c-0.8,1.5-0.4,2.6,6.8,2.5
				c-7.2,0.1-7.7-1-6.8-2.5c114.2-4.2,220.8-3.3,334.6,0.1c-176.8-2.2-347.5,5.4-528.8,8c-7.7,0.1-23.2,0.3-30.9,0.5
				c-30.7-7.4-61.6-9.5-92.5-9c8.1-13.1-22.2-38.7,39.5-34.4c0.1-2.6,0.2-7.8,0.3-10.4c-61.5-12.1-83.8-48.2-21.6-59.6
				c69.8-11.4,162.3-2.4,247.5-8.9c61.9-3.5,123.9-7,185.5-2.8c84.8,6.6,177.7,2.6,262.4,11.7c30.9,2.1,85.2-6.5,100.5,1.1
				c11,3.6,11.3,9.1,9.4,15.3c-50.8-0.2-101.5,0.3-151.6-0.1c-61.4-2-122.8-4.3-184.1-8.6c59.9,6.3,121.5,8.1,184.1,8.6
				c49.9,1.6,99.9,3.1,149.8,5.1c-2,5.3-3.9,10.9-1,16c0,0,15.5-0.2,23.2-0.3c30.6,12.6,22.4,30.9,6.6,44.2
				C1939.8,388.5,1935.3,391.5,1930.3,394.6z"/>
			<path class="st3" d="M1919.4,376.9c-3.7,0.6-7.3,1.2-10.9,1.8c-33.4,5.5-66.7,10-101,13.9c-34.3,3.8-69.5,6.8-106.6,8.6
				c-13,0.5-26.4,1.1-40.1,1.6c-13.7,0.6-27.6,1-41.5,1.6l-5.2,0.2l-5.2,0.1c-3.5,0.1-6.9,0.2-10.4,0.3c-6.9,0.2-13.8,0.4-20.6,0.5
				c-6.8,0.1-13.6,0.2-20.3,0.3c-6.7,0.1-13.3,0.2-19.8,0.2c7.7,0.1,15.4,0,23.1,0c3.9,0,7.7,0,11.6-0.1c3.9,0,7.7,0,11.6-0.1
				c7.8-0.1,15.5-0.3,23.3-0.4l5.8-0.1l5.8-0.2c3.9-0.1,7.8-0.2,11.7-0.4c15.6-0.4,31.3-1.2,46.9-1.9c7.8-0.4,15.7-0.8,23.5-1.3
				c3.9-0.2,7.8-0.5,11.7-0.7c3.9-0.3,7.8-0.5,11.7-0.8c31.2-2.1,62.3-4.7,93-7.9c30.7-3.2,61-7,90.6-11.6c-2.9,1-6,1.9-9.2,2.8
				c-3.2,0.9-6.6,1.9-10.2,2.7c-3.5,0.9-7.2,1.7-11.1,2.5c-3.8,0.8-7.9,1.5-12,2.1c-20.1,2.8-40,5.2-59.8,7.4
				c-19.8,2-39.5,4-59.2,5.5c0-0.7-0.1-1.9-0.1-2.6c-13.9,1.5-27.7,2.6-41.4,3.7c-6.9,0.4-13.7,0.9-20.5,1.3
				c-3.4,0.2-6.8,0.4-10.2,0.6c-3.4,0.2-6.8,0.3-10.2,0.5c-6.8,0.3-13.6,0.6-20.3,0.8c-6.8,0.2-13.5,0.4-20.2,0.5
				c-3.4,0.1-6.7,0.2-10.1,0.3l-10.1,0.1c-6.7,0.1-13.4,0.2-20.2,0.3c-13.4,0-26.9,0.1-40.3,0.1c-13.5-0.1-26.9-0.1-40.5-0.2
				c-6.8-0.1-13.6-0.1-20.3-0.2c-6.8,0-13.6,0-20.5-0.1c-6.8-0.1-13.7-0.1-20.6-0.2c-6.9,0-13.8,0-20.8-0.1c3.9,0.5,1.5,0.9,0.7,1.3
				c-0.3,0-0.5,0-0.8,0c0.3,0,0.5,0,0.8,0c-0.8,0.3-0.3,0.6,6.6,0.9c-6.9-0.2-7.3-0.6-6.6-0.9c54.6,1.4,107.5,1.9,160.5,1.1
				c26.5-0.5,53-1.1,79.7-2.2c3.3-0.1,6.7-0.3,10-0.4l5-0.2l5-0.3c6.7-0.4,13.4-0.7,20.2-1.1c3.4-0.2,6.8-0.4,10.1-0.6
				c3.4-0.2,6.8-0.4,10.2-0.6c3.4-0.2,6.8-0.4,10.2-0.6c3.4-0.3,6.8-0.5,10.2-0.8c-85,6.6-168.5,8.8-252.3,8
				c-21-0.1-41.9-0.7-62.9-1.1c-10.5-0.4-21-0.7-31.6-1.1c-2.6-0.1-5.3-0.2-7.9-0.3c-2.6-0.1-5.3-0.2-7.9-0.3
				c-5.3-0.2-10.6-0.5-15.8-0.7c-21.2-0.9-42.4-2.3-63.7-3.5c-10.7-0.7-21.4-1.5-32.1-2.3c-5.4-0.4-10.7-0.8-16.1-1.2
				c-5.4-0.5-10.8-0.9-16.2-1.4c-7.3-0.6-22.1-1.9-29.4-2.5l-10.9-1.7l-10.9-1.6c-7.3-1.1-14.6-2-21.9-3l-11-1.3l-11-1.4
				c-7.3-0.9-14.6-1.7-22-2.5c7.8-2.5-20.6-12.1,37.8-4.4c0.1-0.6,0.3-1.9,0.4-2.6c-58.1-9.6-78.5-21.1-19.8-17.3
				c4.1,0.3,8.3,0.6,12.6,1c2.1,0.2,4.3,0.4,6.5,0.5c2.2,0.2,4.4,0.3,6.6,0.5c8.9,0.7,18,1.5,27.4,2.3c4.7,0.4,9.4,0.9,14.2,1.3
				c4.8,0.4,9.6,0.8,14.5,1.2c9.8,0.9,19.7,1.7,29.7,2.6c40.2,3.3,82.3,6.5,122.6,7.7c58.7,2.1,117.5,2.8,176.2,3.7
				c40.4,0.7,82.7-0.2,124.9-2.1c42.3-1.8,84.5-4.8,124.9-8.1c1.8-0.2,3.8-0.4,5.8-0.5c2-0.2,4-0.5,6.2-0.7
				c4.2-0.5,8.7-1.1,13.3-1.7c4.6-0.6,9.2-1.3,13.9-2c2.3-0.3,4.7-0.7,7-1c2.3-0.4,4.6-0.7,6.9-1.1c9.1-1.4,17.8-2.9,25-3.9
				c7.3-1.2,13.2-1.9,16.9-2.1c10.5-1,11.2,0.3,9.8,2.1c-47.8,8.8-96,14.7-143.7,18.9c-29.3,2.3-58.5,4-87.8,5.1l-22,0.7
				c-7.3,0.2-14.6,0.3-22,0.5l-11,0.2c-3.7,0.1-7.3,0-11,0.1l-21.9,0.1c7.1,0,14.3,0.1,21.5,0.1c3.6,0,7.2,0,10.8,0
				c3.6-0.1,7.2-0.1,10.9-0.2c7.2-0.1,14.5-0.2,21.8-0.4c7.3-0.2,14.6-0.5,21.9-0.7c29.3-1.1,58.9-2.9,88.7-5.5
				c47.6-3.9,95.2-9.3,142.3-17.4c-1.5,1.6-3,3.3,0,4c0,0,0.9-0.2,2.4-0.4c1.5-0.3,3.5-0.7,5.8-1.1c4.6-0.9,10-2,13.7-2.8
				c14.8-1.6,20.6-1.2,21.1,0.7c0.4,1.9-4.8,5.3-11.9,8.5C1928.1,373.5,1924,375.2,1919.4,376.9z"/>
		</g>
	</g>
	<g>
		<defs>
			<path id="SVGID_3_" d="M1821.4,455.1v-28.8h-621.1v28.8h15.6c0.6,0.2,1.2,0.3,1.7,0.4c1.9,0.2,9.3,0.4,9.3,0.4l2.9,38.4
				c0,0-1.7,2.7-1.9,6.7c-0.2,3.9,2.9,3.1,2.9,3.1l1.2,1.4l1.6,22.1c0,0-2.4,3.4-1.9,5.3c0.5,1.9,1.9,2.8,1.9,2.8l1.2,1.9l0.8,11.8
				c0,0-1.2,3.4-0.9,5.1c0.3,1.7,2.4,2.9,2.4,2.9l0.7,5.7c0,0-2.1,1.7-1.7,2.7c0.3,1,2.9,2.8,2.9,2.8l0,5.8c0,0-1.5,0-1,0.9
				c0.5,0.9,3.2,2.8,3.2,2.8s0.7,2.4,1.4,2.2c0.7-0.2,0.3-1.9,0.3-1.9s2.6-1.4,2.9-2.7c0.3-1.4-0.5-2.1-0.5-2.1l0.5-4.8
				c0,0,2.1-0.8,1.9-3.8c-0.2-2.9-1.4-2.4-1.4-2.4l0.7-3.6c0,0,3.3-2,3.3-5.1c0-3.1-1.4-3.6-1.4-3.6l1.1-13.7c0,0,3.3-2.4,3.6-4.4
				s-1.9-4.3-1.9-4.3l1.6-23c0,0,1.5,1.4,2.7-0.8c1.2-2.2,1.2-6.3,1.2-6.3l-2.4-4.1l3.9-38.4l0.1,0h13.8l0.1,2.9l0.4,17.7l-1.1,1.1
				l1,0.1l0.4,9.5l-0.4,1l0.6-0.1l0.2,17.2l-3.7,6.5l-0.4,1.5l4,0l0,7.2l1.4,0l0,5.7l6.1,0l0.4,12.8l12.1,0l0.1,1.9l3.8,0
				c0,0,3.3,2.4,5.8,3l0,1c0,0,3.1,1.9,9.1,0l-0.3-1c0,0,4.1-1,5.5-2.7l4.7,0.1l0.1-2.1l12.4,0.1l0.2-4.7l0.3-0.3l0-7.7l6,0.2
				l-0.2-5.4l1.5-0.1l0.1-7.3l4.3-0.2l-0.2-0.4l-0.3-1.2l-1.2-1.5l-2.4-3.9V489l0.4-0.3l0.1-0.6l0.6-0.6l-0.5-0.7l0-8.3l0.3-0.1
				l0-0.8l1.1-0.3l-1-1.5l0.5-17.4l0.6-3.4h14.1l-0.1,39.3l0,0l0,2.5l0,0l0,10.3c0,0,1.4,1.4,2.3,0.6l-0.2,9.3c0,0,4.6,0,5.1-2.8
				c0,0,1.4,3.3,4.6,4.9c0,0,4.8-1.8,4.9-4.7c0,0,0,3.6,3.1,5.7l0,7.2c0,0,0.6,0.6-4.2,2.4c-4.8,1.8-3.1,2.8-2.6,4
				c0.5,1.1,6.3,2.3,6.4,2.3c-0.8,9.2,5.1,11.3,7.5,13.1c2.4,1.8,6.2,5,6.2,5l1.4,5l1.4-5l5.1-4.3c11.4-6.5,9.4-11.9,8.4-13.5
				c5.9-1.3,6.2-3.6,6.2-3.6c0-5-7.1-5.6-7.1-5.6l0-8.2c0.9-0.7,3.4-2.9,4.2-4.6c0,0-0.4,1.8,2.9,3.7c0,0,4.1-2.3,4.5-5.3l4.3,2.9
				c0,0,3.6-2.9,2.1-7.8l3.6-2.9l0-11.9l0,0v0l0.8-0.1l-0.1,12.4l4.6,4.1l0.6,37.1c0,0-2.2,0.6-2,3.4c0.1,2.2,3.3,3,3.3,3
				s-2.6,0.2-2.8,4.1c-0.2,2.9,4.7,6.3,4.7,6.3s5.3-2.9,5.3-6.4c0-2.3-2-3.8-2.5-3.8c0,0,3.4-1.1,3.4-4.3c0,0-0.1-2.7-2.8-2.7
				l0.1-22.1l2,0l0,1.9l0.6,0c0,5.1,4.7,7.8,4.7,7.8c4.3-2.1,4.9-5.9,4.9-7.7h0.6v0l0.5,0c0,5.1,4.7,7.8,4.7,7.8
				c4.3-2.1,4.9-5.9,4.9-7.7h0.6l0,0h0.5c-0.5,5.6,4.7,8.5,4.7,8.5c5-2.4,5-7.1,4.9-8.4h0.1l-0.1,37.2h0.8v-0.3
				c0.5-0.2,2.1-1.3,3-5.5c1-5,1.2-3.9,1.6-4.9l-0.2-1.7c0,0,0,0,0,0.1l-0.2-2.9c0,0,0,0,0,0l0-2.5c-0.6,0.4,0.2,2.6-1.4,2.2
				c-1.9-0.4-2.6,0.5-2.8,1.2l0.1-22.9h0.1c0,5.1,4.7,7.8,4.7,7.8c4.3-2.1,4.9-5.9,4.9-7.7h0.5v0h0.6c0,5.1,4.7,7.8,4.7,7.8
				c4.3-2.1,4.9-5.9,4.9-7.7h0.6l0,0h0.5c0,5.1,4.7,7.8,4.7,7.8c4.3-2.1,4.9-5.9,4.9-7.7h0.6l0-1.9l4,0l-0.1,19.1
				c0,0-3.7,0.1-3.8,3.3c0,0,0.1,2.5,2.8,3.3c0,0-3,1.7-1.8,4.4c1.3,2.7,4.5,6.8,4.5,6.8s5.1-5.7,5.3-8.1c0.2-2.4-2.4-3.1-2.4-3.1
				s3-0.9,2.6-3.6c-0.4-2.7-2.7-2.9-2.7-2.9l1.9-35.5c0,0,3.4-2.3,4.2-3l0.5-9.3l1.3,0.1l0,1.5l0,0l0,10.3c0,0,1.4,1.4,2.3,0.6
				l-0.2,9.3c0,0,4.6,0,5.1-2.8c0,0,1.4,3.3,4.6,4.9c0,0,4.8-1.8,4.8-4.7c0,0,0,3.7,3.3,5.9l0,7.4c0,0,0.6,0.6-4.2,2.4
				c-4.8,1.8-3.1,2.8-2.6,3.9c0.5,1.1,6.4,2.3,6.4,2.3h0c-0.8,9.2,5.1,11.3,7.5,13.1c2.4,1.8,6.2,5,6.2,5l1.4,5l1.4-5l5.1-4.3
				c11.4-6.5,9.4-11.9,8.4-13.5c5.9-1.3,6.2-3.6,6.2-3.6c0-5-7.1-5.6-7.1-5.6l0-8.7c1-0.9,3.3-2.9,4-4.4c0,0-0.4,1.8,2.9,3.7
				c0,0,4.1-2.3,4.5-5.3l4.3,2.9c0,0,3.6-2.9,2.1-7.8l3.6-2.9l0-11.9l0,0l0-1.2l0.1-37.1h19.8l0,3.4h-0.2l0,0.1l0.2,0v0.3l-0.2,0
				v0.4h0.4l0,1.1l1.2,0l0,0.5l0.6,0l0.3,18.8h0l-0.2,0.7h-0.3l0-0.7l-0.3,0l-0.3,1l0,0.7l0,0.4l0,0.3l0.5,0v-0.3c0,0,0.3,0,0.8,0
				l0.7,18.2l-0.2,0l-0.2,0.7h-0.3l0-0.7l-0.2,0l-0.3,1v0.7l0,0.7v0.1h0.4l0-0.1c0,0,0.4,0,0.9,0.1l0.8,19.1h-0.2l0,0.4h0.2l0,0.7
				l-0.6,0l0,0.5l-0.4,0l0-0.3l-0.2,0c0,0.3-0.3,0.7-0.3,0.8h0v0l0,0.3v0.2h0.3l0,0.7c0,0.1,0.5,0.2,1.2,0.3l0,0.5
				c0,0,0.1,0.1,0.3,0.1c0,0.1,0,0.3,0,0.4v0.3l0.1,0l0,2.5h-0.1l0,1.7c-1.1,0.1-1.8,0.3-1.8,0.6c0,0.3,0.7,0.6,1.9,0.8l0,0.4
				l-0.1,0l0,0.3h0.1l0,0.6h0.2c0,0,0,0,0,0.1c0,1.2,0.8,2.2,1.9,2.7l0,0.5h0.5c0.1,0.2,0.3,0.3,0.5,0.4h0l0,0.4l0.2,0v0.2l0.1,0
				v0.4l-0.3,0.3v0.2l0.4,0l0,0.6l-0.3,0.2v0.1l0.3,0l0,0.6h-0.1l0,0.4l0.2,0.6l0.3-0.6l0-0.4l-0.1,0l0-0.6h0.3v-0.1l-0.3-0.2v-0.6
				h0.4v-0.2l-0.3-0.3v-0.4h0.1v-0.2h0.2V537l0,0c0.2-0.1,0.4-0.2,0.5-0.4h0.5l0-0.5c1.1-0.5,1.9-1.5,1.9-2.7c0,0,0,0,0-0.1h0.2
				l0-0.6l0.1,0v-0.3l-0.1,0V532c1.2-0.2,1.9-0.4,1.9-0.7c0-0.3-0.8-0.5-2-0.6l0-1.8l-0.3-0.7l0-1.6v-0.2l0.1,0l0-0.5
				c0.1,0,0.1-0.1,0.1-0.1v-0.4c0.9-0.1,1.4-0.2,1.4-0.3v-0.7h0.2v-0.4v-0.1v-0.2c0,0-0.4-0.5-0.4-0.8h-0.2v0.3h-0.4l0-0.5l-0.7,0
				l0-0.5h0.2v-0.4l-0.2,0l0.6-19.1c0.6,0,1.1-0.1,1.1-0.1v0.1h0.4v-0.1V502l0-1l-0.3-1h-0.2l0,0.7h-0.3l-0.2-0.7l-0.2,0h-0.2
				l0.8-18.2c0.5,0,0.8,0,0.8,0v0.3h0.5v-0.3l0-0.4v-0.7l-0.3-1h-0.3l0,0.7l-0.3,0l-0.2-0.7l0,0l0.5-18.6h0.6l0-0.6l10.6,0l0.2,12.8
				l0,0l-0.2,0.5h-0.2v-0.5h-0.2l-0.3,0.7l0,0.5l0,0.3l0,0.2l0.3,0v-0.2c0,0,0.2,0,0.6,0l0.5,13.5h-0.1l-0.2,0.5l-0.2,0l0-0.5
				l-0.2,0l-0.2,0.7l0,0.5l0,0.5v0.1l0.3,0v-0.1c0,0,0.3,0,0.7,0l0.6,15l-0.1,0v0.3l0.1,0l0,0.5l-0.5,0l0,0.4h-0.3l0-0.3h-0.1
				c0,0.2-0.2,0.5-0.3,0.6l0,0v0l0,0.2v0.1l0.2,0v0.5c0,0.1,0.3,0.2,0.9,0.2l0,0.3c0,0,0.1,0.1,0.2,0.1c0,0.1,0,0.2,0,0.3v0.2h0.1
				l0,1.9h-0.1l0,1.2c-0.8,0.1-1.4,0.2-1.4,0.5c0,0.2,0.5,0.4,1.4,0.6v0.3h-0.1v0.2h0.1v0.5l0.1,0c0,0,0,0,0,0.1
				c0,0.9,0.6,1.7,1.4,2v0.3l0.4,0c0.1,0.1,0.2,0.2,0.4,0.3h0v0.3l0.2,0l0,0.2h0.1v0.3l-0.2,0.2l0,0.1l0.3,0l0,0.4l-0.2,0.2v0.1h0.2
				v0.4h-0.1v0.3l0.2,0.4l0.2-0.4V519h-0.1v-0.4l0.2,0l0-0.1l-0.2-0.2v-0.4h0.3v-0.1l-0.2-0.2v-0.3h0.1l0-0.2h0.2l0-0.3l0,0
				c0.2-0.1,0.3-0.2,0.4-0.3h0.4l0-0.3c0.8-0.4,1.4-1.1,1.4-2c0,0,0,0,0,0h0.1v-0.5h0.1v-0.2h-0.1v-0.3c0.9-0.1,1.4-0.3,1.4-0.6
				c0-0.2-0.6-0.4-1.5-0.5l0-1.3l-0.2-0.6l0-1.2v-0.2l0.1,0l0-0.4c0.1,0,0.1,0,0.1-0.1V508c0.6-0.1,1-0.1,1-0.2l0-0.5l0.1,0V507
				v-0.1v-0.1c0,0-0.3-0.4-0.3-0.6l-0.1,0v0.3h-0.3l0-0.4l-0.5,0l0-0.4l0.1,0v-0.3h-0.1l0.4-15c0.5,0,0.8,0,0.8,0v0.1h0.3v-0.1
				l0-0.3v-0.8l-0.2-0.7l-0.2,0l0,0.5l-0.2,0l-0.2-0.5h-0.1h-0.1l0.6-13.5c0.4,0,0.6,0,0.6,0v0.2l0.3,0v-0.2l0-0.3l0-0.5l-0.3-0.7
				l-0.2,0l0,0.5l-0.2,0l-0.2-0.5h0l0.4-12.8l13.5,0.1l-0.2,35.8l-0.6,0l0,0.5l0.6,0v0.3h-0.2v0.5h0.2l0,1.1h0l0.2,6.3h-0.3v0.3
				l0.1,0c0,0.1,0.1,0.1,0.2,0.1h0c-0.1,0.1-0.2,0.2-0.2,0.4l0,0.7h-0.2l0,0.4h0.2c0,0.3,0.3,0.6,0.6,0.7l0,0.4h-0.1l0,0.2h0.1
				l0,0.4h-0.1v0.1l0.1,0l0.1,0.4l0.1-0.4l0.1,0v-0.1h-0.1l0-0.4l0.1,0l0-0.2h-0.1l0-0.4c0.3-0.1,0.6-0.3,0.6-0.7h0v0h0l0.2,5h-0.1
				c-0.1,0-0.2,0.1-0.2,0.2c0,0.1,0.1,0.2,0.2,0.2c-0.1,0.1-0.2,0.2-0.2,0.4v0.7h-0.2v0.4h0.2c0,0.3,0.3,0.6,0.6,0.7v0.4h-0.1v0.2
				l0.1,0v0.4h-0.1l0,0.1h0.1l0.1,0.4l0.1-0.4h0.1v-0.1h-0.1v-0.4l0.1,0V515l-0.1,0l0-0.4c0.3-0.1,0.6-0.3,0.6-0.7h0.2l0-0.4h-0.2
				l0-0.7c0-0.2-0.1-0.3-0.2-0.4l0,0c0.1,0,0.2-0.1,0.2-0.2s-0.1-0.2-0.2-0.2h-0.1l0.2-5l1.7,0l0,1.2h-0.1c-0.1,0-0.2,0.1-0.2,0.2
				c0,0.1,0.1,0.2,0.2,0.2l0,0c-0.1,0.1-0.2,0.2-0.2,0.4l0,0.7h-0.2v0.4l0.2,0c0,0.3,0.3,0.6,0.6,0.7l0,0.4h-0.1v0.2l0.1,0l0,0.4
				h-0.1v0.1h0.1l0.1,0.4l0.1-0.4h0.1l0-0.1l-0.1,0l0-0.4h0.1v-0.2h-0.1l0-0.4c0.3-0.1,0.6-0.3,0.6-0.7h0.2l0-0.4l-0.2,0V509
				c0-0.2-0.1-0.3-0.2-0.4h0c0.1,0,0.2-0.1,0.2-0.2c0-0.1-0.1-0.2-0.2-0.2h-0.1l0-1.7l2.4-2.8l0-0.9l1.1-1.1v-0.3h-0.6l-0.5-0.3
				l0-0.4l3.8,0.2l0.2,5.6h-0.1c-0.1,0-0.2,0.1-0.2,0.2c0,0.1,0.1,0.2,0.2,0.2c-0.1,0.1-0.2,0.2-0.2,0.4v0.7h-0.2v0.4l0.2,0
				c0,0.3,0.3,0.6,0.6,0.7l0,0.4h-0.1l0,0.2h0.1l0,0.4h-0.1v0.1h0.1l0.1,0.4l0.1-0.4h0.1l0-0.1l-0.1,0l0-0.4l2.2,0.5v0.6h-0.1l0,0.3
				h0.1l0,1h0.1c0,3.4,1.3,4.9,3.5,6.1l0,0.3l1.8,1l1.1,0.9h0.4l0.1,0.6h0.4l0,0.5c-0.2,0.1-0.3,0.2-0.3,0.4c0,0.2,0.1,0.3,0.3,0.4
				l0,0.4c-0.2,0.1-0.3,0.2-0.3,0.4c0,0.2,0.1,0.3,0.3,0.4l0,0.5c-0.2,0-0.3,0.2-0.3,0.3c0,0.2,0.1,0.3,0.3,0.3l0,1.3l0.1-1.3
				c0.2,0,0.4-0.2,0.4-0.3c0-0.2-0.2-0.3-0.4-0.3l0-0.5c0.2,0,0.4-0.2,0.4-0.4c0-0.2-0.2-0.3-0.4-0.4l0-0.4c0.2,0,0.4-0.2,0.4-0.4
				c0-0.2-0.1-0.3-0.3-0.4l0-0.5l0.5,0l0.1-0.6h0.3l1.1-0.9l1.8-1v-0.3c0.7-0.4,1.4-0.8,1.9-1.3l0,1.1c-6.2,15.9,6.1,26.3,12.1,29.7
				l0.4,0.7c-0.2-0.2-0.6,0.1-0.5,0.3c0.1,0.2-0.2,0.3,0,0.4c0.1,0,0.2,0,0.2,0c0.1,0.1,0,0.2,0,0.2c0.2,0.2,0.7,0,1,0.2
				c0,0-0.1,0.1-0.1,0.1c0.2,0.4,0.7,0.2,1,0.4c1.3,0.4,3.9,4.2,5.6,4.4l0,0.2h0c-0.2,0.1-0.3,0.1-0.3,0.2c0,0.1,0.3,0.3,0.8,0.3
				c0,0,0,0.1,0,0.1c0,0.8,0.6,1.6,1.4,1.7l0,0.4c-0.4,0.1-0.7,0.5-0.7,0.9c0,0.4,0.3,0.8,0.7,0.9v0.4c-0.6,0.1-1,0.6-1,1.3
				c0,0.6,0.6,1.1,1,1.7v0.8h-0.2v0.2h-0.1v0.2l0.3,0v0.4c-0.3,0.1-0.5,0.4-0.5,0.7c0,0.3,0.2,0.6,0.5,0.8l0,0.6h0.2l0,0.8
				c-0.7,0-1.2,0.5-1.2,1.1c0,0.1,0,0.2,0,0.2c0.1-0.5,0.6-0.9,1.2-1l0,0.4c-0.2,0.1-0.3,0.2-0.3,0.4c0,0.2,0.1,0.4,0.3,0.4l0,0.4
				c-0.1,0-0.2-0.1-0.3-0.1c0,0,0,0,0,0.1c0,0.1,0.1,0.2,0.3,0.2h0l0.1,0.5l0.1-0.5h0c0.2,0,0.3-0.1,0.3-0.2c0,0,0,0,0-0.1
				c0,0.1-0.1,0.1-0.3,0.1v-0.4c0.2-0.1,0.3-0.2,0.3-0.4c0-0.2-0.1-0.4-0.3-0.4l0-0.4c0.6,0,1.1,0.4,1.2,0.9c0,0,0-0.1,0-0.1
				c0-0.6-0.5-1.1-1.2-1.1v-0.8h0.2v-0.6c0.3-0.1,0.5-0.4,0.5-0.7c0-0.3-0.2-0.6-0.5-0.8v-0.4h0.3v-0.2l-0.1,0v-0.2l-0.2,0l0-0.8
				c0.4-0.6,1-1.1,1-1.7c0-0.6-0.4-1.1-1-1.3v-0.4c0.4-0.1,0.7-0.5,0.7-0.9c0-0.4-0.3-0.8-0.7-0.9l0-0.4c0.8-0.1,1.4-0.8,1.4-1.7
				c0,0,0-0.1,0-0.1c0.5-0.1,0.9-0.2,0.9-0.3c0-0.1-0.1-0.2-0.3-0.2h0v-0.2v0c1.7-0.2,4.3-4,5.7-4.3c0.3-0.2,0.8,0.1,1-0.4
				c0,0-0.1-0.1-0.1-0.1c0.3-0.2,0.8,0.1,1-0.1c0,0-0.2-0.1,0-0.2c0.1,0,0.2,0,0.2,0c0.3-0.1,0-0.2,0-0.4c0.1-0.3-0.2-0.6-0.5-0.4
				l0.4-0.7l0,0l0,0c6-3.3,18.2-13.5,12.5-29.2l0-1.3c0.5,0.4,1.1,0.8,1.7,1.2v0.4l1.8,1l1.1,0.9h0.3l0.1,0.6h0.5l0,0.5
				c-0.2,0.1-0.3,0.2-0.3,0.4c0,0.2,0.2,0.4,0.4,0.4l0,0.4c-0.2,0-0.4,0.2-0.4,0.4c0,0.2,0.2,0.4,0.4,0.4l0,0.5
				c-0.2,0-0.4,0.2-0.4,0.3c0,0.2,0.2,0.3,0.4,0.3l0.1,1.3l0-1.3c0.2,0,0.3-0.2,0.3-0.3c0-0.2-0.1-0.3-0.3-0.3l0-0.5
				c0.2-0.1,0.3-0.2,0.3-0.4c0-0.2-0.1-0.3-0.3-0.4l0-0.4c0.2-0.1,0.3-0.2,0.3-0.4c0-0.2-0.1-0.3-0.3-0.4l0-0.5l0.4,0l0.1-0.6h0.4
				l1.1-0.9l1.8-1v-0.3c2.3-1.2,3.6-2.7,3.6-6.1h0.1l0-1h0.1l0-0.3h-0.1l0-0.6l2.2-0.5l0,0.4h-0.1v0.1h0.1l0.1,0.4l0.1-0.4l0.1,0
				l0-0.1h-0.1l0-0.4h0.1l0-0.2l-0.1,0v-0.4c0.4,0,0.6-0.3,0.6-0.7h0.2v-0.4h-0.2v-0.7c0-0.2-0.1-0.3-0.2-0.4c0.1,0,0.2-0.1,0.2-0.2
				c0-0.1-0.1-0.2-0.2-0.2l-0.1,0l0.2-5.6l3.8-0.2l0,0.4l-0.5,0.3l-0.6,0v0.3l1.1,1.1l0,0.9l2.4,2.9l0,1.7h-0.1
				c-0.1,0-0.2,0.1-0.2,0.2c0,0.1,0.1,0.2,0.2,0.2h0c-0.1,0.1-0.2,0.2-0.2,0.4l0,0.7h-0.2v0.4l0.2,0c0,0.3,0.3,0.6,0.6,0.7l0,0.4
				h-0.1l0,0.2h0.1v0.4h-0.1v0.1h0.1l0.1,0.4l0.1-0.4l0.1,0v-0.1h-0.1v-0.4h0.1v-0.2h-0.1l0-0.4c0.4,0,0.6-0.3,0.6-0.7h0.2V510h-0.2
				l0-0.7c0-0.2-0.1-0.3-0.2-0.4c0.1,0,0.2-0.1,0.2-0.2c0-0.1-0.1-0.2-0.2-0.2l-0.1,0l0-1.2l1.7,0l0.1,5h-0.1
				c-0.1,0-0.2,0.1-0.2,0.2c0,0.1,0.1,0.2,0.2,0.2h0c-0.1,0.1-0.2,0.2-0.2,0.4l0,0.7l-0.2,0l0,0.4l0.2,0c0,0.3,0.3,0.6,0.6,0.7
				l0,0.4l-0.1,0v0.2h0.1l0,0.4h-0.1v0.1h0.1l0.1,0.4l0.1-0.4h0.1V516h-0.1l0-0.4h0.1v-0.2h-0.1V515c0.4-0.1,0.6-0.3,0.6-0.7l0.2,0
				l0-0.4h-0.2v-0.7c0-0.2-0.1-0.3-0.2-0.4h0c0.1,0,0.2-0.1,0.2-0.2c0-0.1-0.1-0.2-0.2-0.2h-0.1l0.2-5h0v0l0,0
				c0,0.3,0.3,0.6,0.6,0.7l0,0.4l-0.1,0v0.2h0.1v0.4l-0.1,0v0.1l0.1,0l0.1,0.4l0.1-0.4h0.1v-0.1h-0.1v-0.4h0.1l0-0.2h-0.1v-0.4
				c0.4,0,0.6-0.3,0.6-0.7h0.2V507l-0.2,0l0-0.7c0-0.2-0.1-0.3-0.2-0.4c0.1,0,0.1-0.1,0.2-0.1l0.1,0v-0.3h-0.3l0.2-6.3l0.2-38.3
				l13.4,0.1l0.2,12.8h0l-0.2,0.5l-0.2,0v-0.5h-0.2l-0.3,0.7l0,0.5v0.3l0,0.2h0.3v-0.2c0,0,0.2,0,0.6,0l0.5,13.5h-0.1h-0.1l-0.2,0.5
				l-0.2,0V489h-0.2l-0.2,0.7l0,0.8l0,0.3v0.1l0.3,0v-0.1c0,0,0.3,0,0.8,0l0.3,15h-0.1v0.3h0.1l0,0.4h-0.5l0,0.4h-0.3v-0.3h-0.1
				c0,0.2-0.3,0.6-0.3,0.6v0.1l0,0.1v0.3h0.1v0.5c0,0.1,0.4,0.2,1,0.2v0.3c0,0,0,0,0.1,0.1v0.4h0.1l0,0.2l0,1.2l-0.2,0.6l0,1.3
				c-0.9,0.1-1.5,0.2-1.5,0.5c0,0.2,0.5,0.4,1.4,0.6v0.3h-0.1l0,0.2h0.1l0,0.5h0.1c0,0,0,0,0,0c0,0.9,0.6,1.7,1.4,2v0.3l0.4,0
				c0.1,0.1,0.2,0.2,0.4,0.3h0v0.3h0.2l0,0.2l0.1,0v0.3l-0.2,0.2v0.1l0.3,0l0,0.4l-0.2,0.2v0.1l0.2,0l0,0.4h-0.1v0.3l0.2,0.4
				l0.2-0.4l0-0.3h-0.1l0-0.4l0.2,0v-0.1l-0.2-0.2v-0.4h0.3l0-0.1l-0.2-0.2l0-0.3h0.1l0-0.2l0.2,0l0-0.3h0c0.2-0.1,0.3-0.2,0.4-0.3
				l0.4,0v-0.3c0.8-0.4,1.4-1.1,1.4-2c0,0,0,0,0,0h0.2v-0.5h0.1V514h-0.1l0-0.3c0.9-0.1,1.4-0.3,1.4-0.6c0-0.2-0.5-0.4-1.3-0.5
				l0-1.2l-0.1,0l0-1.9h0.1l0-0.2c0-0.1,0-0.2,0-0.3c0.1,0,0.2-0.1,0.2-0.1l0-0.3c0.6-0.1,0.9-0.1,0.9-0.2l0-0.5l0.2,0v-0.1v-0.2
				l0,0h0c0-0.1-0.3-0.4-0.3-0.6h-0.1l0,0.3h-0.3l0-0.4h-0.5l0-0.5h0.1v-0.3l-0.1,0l0.7-15c0.4,0,0.7,0,0.7,0v0.1h0.3v-0.1v-0.5
				l0-0.5l-0.2-0.7h-0.2v0.5h-0.2l-0.1-0.5h-0.1l0.6-13.5c0.4,0,0.6,0,0.6,0v0.2l0.3,0l0-0.2v-0.3l0-0.5l-0.3-0.7l-0.2,0l0,0.5
				l-0.2,0l-0.2-0.5h0l0.4-12.8l10.6,0l0,0.6h0.6l0.3,18.6h0l-0.2,0.7h-0.3l0-0.7h-0.3l-0.3,1l0,0.7v0.4l0,0.3l0.5,0l0-0.3
				c0,0,0.3,0,0.8,0l0.7,18.2h-0.2h-0.2l-0.2,0.7h-0.3v-0.7l-0.2,0l-0.3,1l0,1v0.4v0.1l0.4,0v-0.1c0,0,0.4,0,1.1,0.1l0.4,19.1
				l-0.2,0l0,0.4h0.2l0,0.5l-0.7,0l0,0.5l-0.4,0l0-0.3h-0.2c0,0.3-0.4,0.8-0.4,0.8v0.2v0.1v0.4l0.2,0l0,0.7c0,0.1,0.5,0.2,1.4,0.3
				v0.4c0,0,0,0.1,0.1,0.1l0,0.6h0.1l0,0.2l0,1.6l-0.3,0.7l0,1.8c-1.2,0.1-2,0.3-2,0.6c0,0.3,0.7,0.6,1.9,0.8v0.4l-0.1,0l0,0.3h0.1
				l0,0.6h0.2c0,0,0,0,0,0.1c0,1.2,0.8,2.2,1.9,2.7l0,0.4l0.5,0c0.1,0.2,0.3,0.3,0.5,0.4h0v0.4l0.2,0v0.2h0.1l0,0.4l-0.3,0.3v0.2
				l0.4,0l0,0.6l-0.3,0.2l0,0.2h0.3v0.6h-0.1l0,0.4l0.2,0.6l0.2-0.6l0-0.4h-0.1l0-0.6l0.3,0V540l-0.3-0.2l0-0.6l0.4,0V539l-0.3-0.3
				l0-0.4h0.1l0-0.2h0.2l0-0.4h0c0.2-0.1,0.4-0.2,0.5-0.4h0.5v-0.5c1.1-0.5,1.9-1.5,1.9-2.7c0,0,0,0,0-0.1l0.2,0l0-0.6h0.1l0-0.3
				h-0.1v-0.4c1.2-0.2,1.9-0.4,1.9-0.8c0-0.3-0.7-0.5-1.8-0.6l0-1.7h-0.1l0-2.5h0.1l0-0.3c0-0.1,0-0.3,0-0.4c0.2,0,0.3-0.1,0.3-0.1
				v-0.5c0.7-0.1,1.2-0.2,1.2-0.3V525h0.3v-0.2l0-0.3v0l0,0c-0.1-0.1-0.3-0.5-0.3-0.8h-0.2v0.3h-0.4l0-0.5l-0.6,0l0-0.7h0.2v-0.4
				l-0.2,0l1-19.1c0.5,0,0.9-0.1,0.9-0.1l0,0.1l0.4,0l0-0.1l0-0.7l0-0.7l-0.3-1h-0.2v0.7l-0.3,0l-0.2-0.7l-0.2,0l0.8-18.2
				c0.5,0,0.8,0,0.8,0v0.3l0.5,0l0-0.3v-0.4l0-0.7l-0.3-1h-0.3v0.7l-0.3,0l-0.2-0.7h0l0.5-18.8l0.6,0l0-1.8h0.2l0-4.8H1821.4z
				 M1802.9,528.9l0-1.6h0.1L1802.9,528.9L1802.9,528.9z M1802,529.7l0-2.3h0.1c0,0,0-0.5,0.1-0.5h0v0h0.2l0,0.1h0.1l0,1.6l-0.4,0.5
				l0,0.6L1802,529.7z M1801.1,529.1l-0.3-0.4l0-1.6h0.1l0-0.1l0.3,0l0,0.1l0,0c0.2,0,0.1,0.5,0.1,0.5l0.1,0h0l0,2.3h-0.2
				c0,0,0,0.1,0,0.1h0v-0.2h-0.2V529.1z M1799.6,529.7l0-2.3h0.1c0,0,0-0.5,0.1-0.5h0v-0.1h0.6v0.2h0.1l0,1.6l-0.3,0.4l0,0.6h-0.2
				v0.2h-0.3c0-0.1,0-0.1,0-0.1H1799.6z M1798.7,529.1l-0.3-0.4l0-1.7h0v-0.2l0.3,0v0.1c0.2,0,0.1,0.5,0.1,0.5h0.1h0l0,2.3h-0.2
				c0,0,0,0.1,0,0.1h0v-0.2h-0.2L1798.7,529.1z M1797.5,529.4l0-2.2v-0.1V527l0.1,0l0-0.1h0.5l0,0.2h0.1l0,1.6l-0.4,0.5l0,0.6
				l-0.1,0v-0.1L1797.5,529.4z M1781.2,510.8l0-1.2l0.1,0L1781.2,510.8L1781.2,510.8z M1780.5,511.4l0-1.7h0.1c0,0,0-0.4,0.1-0.4
				l0,0l0,0h0.1v0.1h0.1l0,1.2l-0.3,0.4v0.4H1780.5z M1779.7,510.6l0-1.2l0.1,0v-0.1h0.2v0h0c0.1,0,0.1,0.4,0.1,0.4h0.1l0,0l0,1.7
				h-0.1c0,0,0,0,0,0.1l0,0v-0.1l-0.1,0V511L1779.7,510.6z M1778.7,511.4l0-1.7l0.1,0c0,0,0-0.4,0.1-0.4h0l0-0.1h0.4v0.1h0l0,1.2
				l-0.3,0.3l0,0.4h-0.1v0.1h-0.2c0,0,0-0.1,0-0.1L1778.7,511.4z M1778.1,510.9l-0.2-0.3l0-1.2h0v-0.1l0.2,0v0.1
				c0.1,0,0.1,0.4,0.1,0.4h0.1h0l0,1.7h-0.1c0,0,0,0,0,0.1h0l0-0.1h-0.1L1778.1,510.9z M1777.2,511.2l0-1.7v-0.1v-0.1h0.1v-0.1h0.4
				v0.1h0l0,1.2l-0.3,0.3l0,0.4h-0.1v0L1777.2,511.2z M1760.1,507l0-1.2h0.1c0,0.1,0.1,0.1,0.2,0.1h0c-0.1,0.1-0.2,0.2-0.2,0.4
				L1760.1,507L1760.1,507z M1746.9,508.4l0-6.8h0.1v-0.2l1.6,0h0l0.1,5.4h-0.1c-0.1,0-0.2,0.1-0.2,0.2c0,0.1,0.1,0.2,0.2,0.2l0,0
				c-0.1,0.1-0.2,0.2-0.2,0.4l0,0.7h-0.2v0.4h0.2c0,0.3,0.3,0.6,0.6,0.7v0.3l-0.3-0.1v-0.2l-0.3-0.4c0,0,0.1,0,0.1,0
				c0,0-0.1,0-0.1,0l-0.8-0.1C1747.2,508.8,1746.8,508.6,1746.9,508.4z M1743.9,505.9l0-0.6l0.9,0c0,0.1,0,0.2,0,0.3
				c0,0.1-0.1,0-0.2,0.1c0,0.1,0,0.2,0,0.3c-0.1,0-0.2,0.1-0.3,0.2h-0.2v-0.3H1743.9z M1743.2,503.1l0-1.7l2,0l0,2.6h-0.8
				c-0.1-0.3-0.4-0.5-0.5-0.7C1743.7,503.1,1743.4,503.1,1743.2,503.1z M1677.4,505l0.9,0l0,0.6h-0.2v0.3h-0.2
				c-0.1-0.1-0.1-0.2-0.3-0.2c0-0.1,0-0.2,0-0.3c0-0.1-0.1-0.1-0.2-0.1C1677.4,505.2,1677.4,505.1,1677.4,505z M1677,503.7l0-2.1
				l1.3,0l0,1.6c-0.2,0.1-0.3,0.3-0.4,0.6L1677,503.7z M1673.1,509.3l0-0.3c0.3-0.1,0.6-0.3,0.6-0.7h0.2l0-0.4h-0.2l0-0.7
				c0-0.2-0.1-0.3-0.2-0.4c0.1,0,0.2-0.1,0.2-0.2c0-0.1-0.1-0.2-0.2-0.2h-0.1l0.2-5.4l0,0l1.6,0v0.2l0.1,0l0,6.8
				c0,0.2-0.3,0.4-0.8,0.5l-0.8,0c0,0-0.1,0-0.1,0c0,0,0.1,0,0.1,0l-0.3,0.4v0.2L1673.1,509.3z M1662,506c0-0.1-0.1-0.3-0.2-0.4
				c0.1,0,0.1-0.1,0.2-0.1h0.1l0,1.2h0L1662,506z M1644.6,510.4l-0.3-0.3l0-1.2h0v-0.1h0.4v0.1h0.1l0,0.1v0.1l0,1.7l-0.1,0.1v0
				l-0.1,0L1644.6,510.4z M1643.7,510.9h-0.1l0-1.7l0,0h0.1c0,0,0-0.4,0.1-0.4l0-0.1h0.3l0,0.1l0,0l0,1.2l-0.2,0.3l0,0.4
				L1643.7,510.9L1643.7,510.9L1643.7,510.9C1643.7,510.9,1643.7,510.9,1643.7,510.9z M1642.6,510.1l0-1.2h0v-0.1h0.4v0.1h0
				c0.1,0,0.1,0.4,0.1,0.4h0.1l0,1.7h-0.1c0,0,0,0,0,0.1l-0.2,0v-0.1h-0.1v-0.4L1642.6,510.1z M1641.8,510.8l0-1.7l0,0h0.1
				c0,0,0-0.4,0.1-0.4h0v0h0.2l0,0.1l0.1,0l0,1.2l-0.3,0.3l0,0.4l-0.1,0l0,0.1h0c0,0,0,0,0-0.1H1641.8z M1641,510.1l0-1.2h0.1l0-0.1
				h0.1l0,0h0c0.1,0,0.1,0.4,0.1,0.4h0.1l0,1.7h-0.2v-0.4L1641,510.1z M1640.7,510.2l0-1.3h0.1L1640.7,510.2L1640.7,510.2z
				 M1624.1,528.3l-0.4-0.5l0-1.6h0.1l0-0.2l0.5,0l0,0.1l0.1,0v0.1v0.1l0,2.2l-0.1,0.2v0.1h-0.1L1624.1,528.3z M1622.9,529h-0.2
				l0-2.3h0h0.1c0,0,0-0.5,0.2-0.5l0-0.1h0.3v0.2h0l0,1.7l-0.3,0.4l0,0.6L1622.9,529L1622.9,529L1622.9,529
				C1622.9,529,1622.9,529,1622.9,529z M1621.4,527.9l0-1.6l0.1,0l0-0.2l0.6,0v0.1h0c0.2,0,0.1,0.5,0.1,0.5h0.1l0,2.3h-0.2
				c0,0,0,0,0,0.1l-0.3,0v-0.2h-0.2l0-0.6L1621.4,527.9z M1620.3,529l0-2.3h0h0.1c0,0,0-0.5,0.2-0.5l0,0l0-0.1l0.3,0v0.1h0.1l0,1.6
				l-0.3,0.4l0,0.6h-0.2l0,0.2h0c0,0,0-0.1,0-0.1H1620.3z M1619.3,527.9l0-1.6h0.1v-0.1h0.2l0,0l0,0c0.2,0,0.2,0.5,0.2,0.5h0.1
				l0,2.3h-0.2l0-0.6L1619.3,527.9z M1618.9,528.2l0-1.7h0.1L1618.9,528.2L1618.9,528.2z M1446.1,507.4c1-1,1.9-2.1,2.2-3.1
				c0,0,1.6,2.7,4.6,3.6l-0.3,0l0,10c-1.2,0.1-3.1,1.9-3.5,2.3h-0.2c-0.7-1.2-2.8-1.8-2.8-1.8L1446.1,507.4z M1473.6,507.9
				c1.2-0.4,4.6-1.8,4.9-3.5c0,0,1.2,2.2,2.8,3.2h-0.1l0,9.2c-2.3,0.4-4.4,3.2-4.4,3.2c-0.7-1.3-3.2-2.3-3.2-2.3L1473.6,507.9z
				 M1483.4,507.9c1-0.7,3.2-2.3,3.7-4.4c0,0,1.4,2.1,2.9,3.5h-0.1l0,9.1c-2,0.8-3.3,3.9-3.3,3.9c-0.9-1.7-3.2-3-3.2-3L1483.4,507.9
				z M1492.3,508.2c1-0.6,3.6-2.5,4-4.5c0,0,0.6,2.2,2.2,3.4l0,8.9c-1.4,0.6-3.3,3.3-3.3,3.3c-0.7-1.7-3-2.9-3-2.9L1492.3,508.2z
				 M1454.7,507.8h-0.5c1.2-0.4,3.7-1.3,4.8-2.9c0,0,0.9,2.4,3.3,3.5l0,9.6c-1.5,0-3.9,2.1-3.9,2.1c-1.5-1.3-3.8-2.2-3.8-2.2
				L1454.7,507.8z M1508.1,507.3l0,7.9c-1.4,0.2-3.5,4.4-3.5,4.4c-0.4-1.8-3.5-3.4-3.5-3.4l0-8.8c1.6-0.5,4.1-1.6,4.6-4.1
				C1505.6,503.4,1506.4,505.6,1508.1,507.3z M1468.1,520.2L1468.1,520.2c-1.1-1.2-3.5-2-3.5-2l0-9.9c1.4-0.7,3.9-2.1,4.4-3.6
				c0,0,0.5,1,2.6,2.4h-0.1l-0.2,10.5C1470.1,517.9,1468.2,520.1,1468.1,520.2z M1545.5,522.9l-0.1-1.9c1.2-0.2,4.3-1.1,5.6-4.2
				c0,0,0.1,0.7,0.6,1.5l0,3.5c-0.5,2.4-3.5,5.1-3.5,5.1C1545,525.2,1545.5,522.9,1545.5,522.9z M1559.2,521.2c0,0,2.1-0.1,4.1-0.9
				v1.3c-0.1,1.9-4.5,4.6-4.5,4.6c-3.3-0.3-4.7-3.8-4.7-3.8l0-2.1C1555.3,520.8,1556.9,521.2,1559.2,521.2z M1568.5,525.9
				c-1.7,0.1-2.8-1.7-2.8-2.4c0-0.5-0.1-3-0.2-4.5c0.6-0.5,1.1-1.2,1.3-2c0,0,1.3,2,4.4,2.5l0,3.7
				C1571.2,525,1568.5,525.9,1568.5,525.9z M1511.9,520.4l-1.4,0l-0.2-11.5c0.5,0.2,1.1,0.3,1.7,0.4L1511.9,520.4z M1441.9,520.2
				l0-9.7c0,0,1-0.6,2.2-1.5l-0.2,0.2l0,11L1441.9,520.2z M1380.3,522.2l-0.1-1.5c1.1-0.2,4.4-1,5.8-4.3c0,0,0.1,0.5,0.4,1.2l0,3.5
				c-0.5,2.4-3.5,5.1-3.5,5.1C1379.8,524.5,1380.3,522.2,1380.3,522.2z M1394.2,520.7c0,0,1.9-0.1,3.9-0.8l0,0.9
				c-0.1,1.9-4.5,4.6-4.5,4.6c-3.3-0.3-4.7-3.8-4.7-3.8l0-1.8C1390.1,520.3,1391.8,520.7,1394.2,520.7z M1403.2,525.2
				c-1.7,0.1-2.8-1.7-2.8-2.4c0-0.5-0.1-2.5-0.2-4c0.7-0.6,1.2-1.2,1.5-2.1c0,0,1.3,1.9,4.2,2.4l0,3.4
				C1406,524.3,1403.2,525.2,1403.2,525.2z M1297.9,455.1h21.4l-0.1,27.7c0,0-1.2,0.7-1.5,1.5c-0.3,0.8,1,1.9,0.9,3
				c-0.1,1.1-2.9,7.7-10.1,7.6c-7.2-0.1-10.1-6.8-10.1-6.8s0.9-3,0.8-3.8c-0.1-0.8-1.5-2.2-1.5-2.2L1297.9,455.1z"/>
		</defs>
		<clipPath id="SVGID_4_">
			<use xlink:href="#SVGID_3_"  style="overflow:visible;"/>
		</clipPath>
		<g class="st4">
			<path class="st5" d="M1894.6,565.7c-3.5-0.7-36.6,24.1-52.6,24.2c-38.7-3.2-224.6-13.3-119-6.9c-164.1-5.9-322.5,1.8-490.8,2.6
				c-7.2,0-21.5,0.1-28.7,0.1c-28.5-10.6-57.2-14-85.9-13.9c7.5-17.9-20.7-53.6,36.6-46.7c0.1-3.6,0.2-10.7,0.2-14.3
				c-57.1-17.6-77.8-67.6-20.2-82.2c64.8-14.6,150.7-0.7,229.7-8.2c57.5-3.8,114.9-7.7,172.2-0.8c78.8,10.4,184.6-17.7,263.2-3.8
				c28.7,3.4,59.4,16.6,73.6,27.3c10.2,5.1,10.5,12.7,8.8,21.2c-1.3,0-2.5-0.1-3.7-0.1c-43.5-0.7-1.5,21.9,1.2,28.9
				c0,0,14.3-0.1,21.5-0.1c28.4,17.8,20.8,42.9,6.2,60.8C1903.4,557.5,1899.2,561.6,1894.6,565.7z"/>
			<line class="st5" x1="1833.9" y1="467.5" x2="1878.2" y2="461.5"/>
			<path class="st5" d="M1880.6,464.3"/>
			<path class="st6" d="M1895.5,545.4c-3.5-0.5-7-1-10.5-1.4c-64.5-6.9-129.1-4.2-200.8-8.6c-50.2-4.5-107.6-1.9-157.8-1.7
				c119,3.8,244.1,1.6,358.2,17.6c-11.7,5.7-25.5,10.2-41.6,10.3c-38.7-2-76.8-3.4-114.7-4.3c0-2.4,0.1-7.1,0.2-9.5
				c-107.8,7.7-207.9-11-315.7,1.5c3.8,1.3,1.5,3.2,0.7,4.8c-0.3,0-0.5,0-0.8,0c0.2,0,0.5,0,0.8,0c-0.7,1.4-0.3,2.4,6.4,2.4
				c-6.7,0-7.1-1-6.4-2.4c105.9-2.8,204.9-1,310.6,3.1c-164.1-3.7-322.5,1.7-490.8,2.5c-7.2,0-21.5,0.1-28.7,0.1
				c-28.6-7-57.3-9.3-85.9-9.1c7.4-12-21-35.7,36.4-31.2c0-2.4,0.1-7.2,0.2-9.5c-57.2-11.7-78.2-45-20.6-54.8
				c64.7-9.8,150.7-0.7,229.7-5.8c57.5-2.7,114.9-5.3,172.2-0.8c78.8,6.8,165,4,243.7,13.2c28.7,2.3,79-5.1,93.3,2
				c10.3,3.4,10.6,8.5,8.9,14.1c-47.2-0.6-94.2-0.7-140.7-1.5c-57-2.4-114-5.1-171-9.6c55.7,6.3,112.9,8.6,171,9.6
				c46.4,2,92.8,3.7,139.1,6.1c-1.8,4.9-3.5,10-0.7,14.7c0,0,14.3-0.1,21.5-0.1c28.5,11.8,21.1,28.5,6.5,40.5
				C1904.3,539.9,1900.1,542.7,1895.5,545.4z"/>
			<path class="st6" d="M1897.7,475.6c-3.5,0.2-6.9,0.3-10.4,0.4l-11.9,0.6c-4,0.2-7.9,0.3-11.9,0.5c-7.9,0.3-15.9,0.8-23.8,1
				c-8,0.3-15.9,0.7-24,1c-8,0.3-16.1,0.5-24.2,0.8c-32.5,1.1-65.8,1.7-100.9,1.7c-12.3-0.1-25-0.1-37.9-0.2
				c-12.9,0-26.1,0-39.2,0.1c-13.1,0-26.3-0.1-39.2-0.1c-6.5,0-12.9,0-19.2,0c-6.3-0.1-12.6-0.2-18.7-0.2c3.6,0.1,7.3,0.2,10.9,0.3
				c3.6,0.1,7.3,0.2,10.9,0.2c7.3,0.1,14.6,0.2,22,0.2c7.3,0.1,14.7,0.2,22.1,0.2c3.7,0,7.4,0.1,11.1,0.1l5.5,0.1l5.5,0
				c14.8,0,29.6,0,44.4,0c3.7,0,7.4,0,11.1,0l11.1-0.1c7.4-0.1,14.8-0.1,22.2-0.2c3.7,0,7.4-0.1,11.1-0.1l5.5,0l5.5-0.1
				c7.4-0.1,14.7-0.2,22.1-0.4c7.3-0.1,14.7-0.2,22-0.4c7.3-0.2,14.6-0.3,21.9-0.5c14.5-0.2,29-0.8,43.3-1.1
				c3.6-0.1,7.2-0.2,10.7-0.3c3.6-0.1,7.1-0.2,10.7-0.4c3.5-0.1,7.1-0.2,10.6-0.3c3.5-0.1,7.1-0.3,10.6-0.4
				c-11.3,2.3-24.8,4.3-40.6,5.2c-9.5,0.4-19,0.7-28.4,1.1c-9.4,0.3-18.8,0.6-28.2,0.8c-4.7,0.1-9.4,0.3-14,0.4
				c-4.7,0.1-9.3,0.2-14,0.3c-9.3,0.2-18.6,0.4-27.9,0.6c0-0.6,0-1.8,0-2.4c-13.2,0.5-26.2,0.8-39.2,1.1c-6.5,0.1-13,0.3-19.4,0.3
				c-6.4,0-12.9,0-19.3,0.1c-12.8,0-25.6,0-38.4-0.1c-12.7-0.2-25.5-0.4-38.2-0.6c-25.4-0.3-50.8-1-76.5-1.4
				c-6.4-0.1-12.8-0.2-19.3-0.2c-6.4-0.1-12.9-0.2-19.4-0.3c-13-0.2-26-0.2-39.2-0.2c3.7,0.4,1.5,0.8,0.7,1.2c-0.3,0-0.5,0-0.7,0
				c0.2,0,0.5,0,0.7,0c-0.7,0.3-0.3,0.6,6.2,0.8c-6.5-0.2-7-0.4-6.2-0.8c12.9,0.3,25.8,0.5,38.5,0.8c6.4,0.1,12.7,0.3,19.1,0.4
				c6.3,0.1,12.7,0.2,19,0.3c25.2,0.3,50.3,0.9,75.3,1c12.5,0.1,25,0.2,37.6,0.3c3.1,0,6.3,0,9.4,0c3.1,0,6.3,0,9.4,0
				c6.3,0,12.6,0,18.9,0c25.2,0.2,50.7-0.2,76.6-0.4c-10,0.1-20.1,0.2-30.1,0.4c-5,0.1-10,0.1-15,0.2l-7.5,0.1l-7.5,0
				c-10,0-19.9,0.1-29.9,0.1c-9.9,0-19.9,0.2-29.8,0.1c-19.8-0.1-39.6-0.2-59.4-0.3c-19.8-0.3-39.6-0.5-59.4-0.8
				c-9.9-0.1-19.8-0.4-29.8-0.6c-9.9-0.2-19.9-0.4-29.8-0.7c-10-0.2-19.9-0.5-29.9-0.7c-10-0.3-20-0.7-30-1
				c-20-0.7-40.2-1.3-60.5-2.1c-20.2-0.9-40.6-1.8-61.1-2.7c-7-0.3-21-1-28-1.3c-27.9-3.3-55.8-5.5-83.7-7
				c7.2-2.6-20.3-10.1,35.5-5.8c0-0.6,0.1-1.8,0.2-2.4c-55.7-6.1-75.9-15.6-19.9-14.9c31.5,0.5,68.1,2.7,106.5,4.5
				c19.2,0.9,38.8,2,58.4,2.8c19.6,0.7,39.3,1.3,58.5,1.7c55.9,1.3,111.8,1.9,167.7,3.8c76.8,2.5,160.7,1.5,237.6,1
				c14-0.3,33.2-1.3,50.6-2.4c8.7-0.5,17-1,24-1.4c7-0.3,12.6-0.5,16.2-0.3c10,0.1,10.5,1.3,9,2.9l-8.6,0.6l-8.6,0.5
				c-5.7,0.3-11.5,0.7-17.2,1c-11.5,0.6-22.9,1.1-34.3,1.7c-11.4,0.4-22.8,0.8-34.2,1.3c-2.8,0.1-5.7,0.2-8.5,0.3
				c-2.8,0.1-5.7,0.1-8.5,0.2c-5.7,0.1-11.4,0.3-17,0.4l-10.4,0.2l-5.2,0.1l-5.2,0l-20.9,0.1l-20.9,0.1c-3.5,0-7,0-10.4,0l-10.4-0.1
				l-41.7-0.4c-13.9-0.3-27.8-0.6-41.7-1c13.6,0.5,27.3,0.9,41,1.2c13.8,0.2,27.6,0.3,41.5,0.5c3.5,0,7,0,10.5,0.1
				c3.5,0,7,0.1,10.5,0c7,0,14-0.1,21-0.2c14-0.1,28.2-0.2,42.3-0.6l17-0.3l8.5-0.1c2.8,0,5.7-0.1,8.5-0.2l33.9-1l33.9-1.3l17-0.9
				l8.5-0.4c2.8-0.1,5.6-0.3,8.5-0.5c-1.6,1.3-3.1,2.7-0.3,3.7c0,0,3.5-0.3,7.9-0.6c2.2-0.2,4.6-0.4,6.9-0.5
				c2.3-0.2,4.5-0.4,6.2-0.5c3.5,0.1,6.5,0.2,9,0.4c2.5,0.2,4.5,0.4,6,0.7c3.1,0.5,4.5,1.3,4.6,2.2c0.1,0.9-1.2,1.9-3.3,3
				c-2.1,1.1-5.2,2.2-8.6,3.3C1906.1,473.5,1902.2,474.6,1897.7,475.6z"/>
		</g>
	</g>
	<g>
		<g>
			<path class="st7" d="M31.4,22.9c-2.1,0-3.8,1.7-3.8,3.9s1.7,3.9,3.8,3.9c2.2,0,3.8-1.7,3.8-3.9C35.2,24.7,33.5,22.9,31.4,22.9z
				 M31.4,29.3c-1.4,0-2.5-1.2-2.5-2.6c0-1.4,1.1-2.6,2.5-2.6c1.4,0,2.5,1.2,2.5,2.6C33.9,28.1,32.8,29.3,31.4,29.3z M39,24.9
				l-1.1-0.2c-0.1-0.4-0.3-0.7-0.4-1.1l0.6-0.9c0.4-0.5,0.3-1.2-0.1-1.5L37,20c-0.2-0.2-0.6-0.3-0.8-0.3c-0.2,0-0.5,0.1-0.7,0.2
				l-0.9,0.7c-0.3-0.2-0.7-0.3-1.1-0.4L33.3,19c-0.1-0.6-0.6-1-1.1-1h-1.5c-0.5,0-1,0.4-1.1,1l-0.2,1.1c-0.4,0.1-0.7,0.3-1.1,0.4
				l-0.9-0.7c-0.2-0.1-0.4-0.2-0.7-0.2c-0.3,0-0.6,0.1-0.8,0.3l-1.1,1.1c-0.4,0.4-0.5,1-0.1,1.5l0.6,0.9c-0.2,0.3-0.3,0.7-0.4,1.1
				l-1.1,0.2c-0.6,0.1-1,0.6-1,1.2v1.5c0,0.6,0.4,1,1,1.2l1.1,0.2c0.1,0.4,0.3,0.7,0.4,1.1l-0.6,0.9c-0.4,0.5-0.3,1.2,0.1,1.5
				l1.1,1.1c0.2,0.2,0.6,0.3,0.8,0.3c0.2,0,0.5-0.1,0.7-0.2l0.9-0.7c0.2,0.1,0.3,0.1,0.5,0.2c0.2,0.1,0.3,0.1,0.5,0.2l0.2,1.1
				c0.1,0.6,0.6,1,1.1,1h1.5c0.5,0,1-0.4,1.1-1l0.2-1.1c0.4-0.1,0.7-0.3,1.1-0.4l0.9,0.7c0.2,0.1,0.4,0.2,0.7,0.2
				c0.3,0,0.6-0.1,0.8-0.3l1.1-1.1c0.4-0.4,0.5-1,0.1-1.5l-0.6-0.9c0.2-0.3,0.3-0.7,0.4-1.1l1.1-0.2c0.6-0.1,1-0.6,1-1.2V26
				C40,25.4,39.5,24.9,39,24.9z M39,27.4l-1.6,0.3c-0.3,0-0.4,0.3-0.5,0.5l0,0c-0.1,0.5-0.3,1-0.6,1.5c-0.1,0.3-0.1,0.5,0,0.7
				l0.9,1.2l-1,1H36L35,31.7l0,0c-0.3-0.1-0.5-0.1-0.7,0c-0.5,0.3-1,0.5-1.4,0.6c-0.3,0-0.4,0.3-0.5,0.5L32,34.2h-1.4l-0.2-1.5
				c0-0.3-0.3-0.4-0.5-0.5l0,0c-0.5-0.1-1-0.3-1.4-0.6l0,0l0,0c0,0-0.1,0-0.1-0.1l0,0h-0.1c-0.1,0-0.3,0-0.4,0.1l-1.2,0.9h-0.1l-1-1
				l0.9-1.2c0.1-0.3,0.1-0.5,0-0.7c-0.3-0.5-0.5-1-0.6-1.4c0-0.3-0.3-0.4-0.5-0.5l-1.5-0.3V26l1.4-0.2c0.3,0,0.4-0.3,0.5-0.5l0,0
				c0.1-0.5,0.3-1,0.6-1.5c0.1-0.3,0.1-0.5,0-0.7L25.6,22l1-1h0.1l1.2,0.9c0.3,0.1,0.5,0.1,0.7,0c0.5-0.3,1-0.5,1.4-0.6
				c0.3,0,0.4-0.3,0.5-0.5l0.3-1.5h1.4l0.2,1.5c0,0.3,0.3,0.4,0.5,0.5l0,0c0.5,0.1,1,0.3,1.5,0.6c0.3,0.1,0.5,0.1,0.7,0l1.2-0.9h0.1
				l1,1l-0.9,1.2c-0.1,0.3-0.1,0.5,0,0.7c0.3,0.5,0.5,1,0.6,1.4c0,0.3,0.3,0.4,0.5,0.5l1.5,0.3V27.4z M11.5,16
				c0-0.8-0.7-1.5-1.5-1.5S8.5,15.1,8.5,16c0,0.8,0.7,1.5,1.5,1.5S11.5,16.8,11.5,16z M14.6,28.3v0.9c0,0.6,0.5,1,1,1
				c0.6,0,1-0.5,1-1v-0.9c-0.3,0.1-0.6,0.2-0.9,0.2C15.3,28.6,14.9,28.5,14.6,28.3z M16.7,23.1V10.6c0-0.6-0.5-1-1-1
				c-0.6,0-1,0.5-1,1v12.5c0.3-0.1,0.6-0.2,1-0.2S16.3,23,16.7,23.1z M17.2,25.7c0-0.8-0.7-1.5-1.5-1.5c-0.8,0-1.5,0.7-1.5,1.5
				c0,0.8,0.7,1.5,1.5,1.5C16.5,27.2,17.2,26.6,17.2,25.7z M22.2,17v-6.2c0-0.6-0.5-1-1-1c-0.6,0-1,0.5-1,1V17
				c0.3-0.1,0.6-0.2,1-0.2C21.6,16.8,21.9,16.8,22.2,17z M22.2,24.5v-2.1c-0.3,0.1-0.6,0.2-1,0.2c-0.4,0-0.7-0.1-1-0.2v7
				c0,0.6,0.5,1,1,1c0.6,0,1-0.5,1-1v-0.5c-0.3-0.3-0.6-0.8-0.6-1.4V26C21.6,25.5,21.9,25,22.2,24.5z M22.7,19.7
				c0-0.8-0.7-1.5-1.5-1.5c-0.8,0-1.5,0.7-1.5,1.5c0,0.8,0.7,1.5,1.5,1.5C22.1,21.2,22.7,20.5,22.7,19.7z M11.1,13.3v-2.7
				c0-0.6-0.5-1-1-1c-0.5,0-1,0.5-1,1v2.6c0.3-0.1,0.6-0.1,0.9-0.1C10.4,13.1,10.7,13.2,11.1,13.3z M9,18.6v10.8c0,0.6,0.5,1,1,1
				c0.5,0,1-0.5,1-1V18.6c-0.3,0.1-0.6,0.2-1,0.2C9.6,18.8,9.3,18.8,9,18.6z M16.2,34.7c-8,0-14.5-6.6-14.5-14.7
				c0-8.1,6.5-14.7,14.5-14.7C22.6,5.3,28.3,9.7,30,16c0.5-0.1,1-0.2,1.6-0.2h0.1c-0.7-3.2-2.6-6.2-5.2-8.4c-3-2.5-6.6-3.9-10.4-3.9
				C7.2,3.6,0,11,0,20c0,9,7.2,16.4,16.2,16.4c2.7,0,5.4-0.7,7.9-2.1c-0.4-0.4-0.8-0.9-1.1-1.4C20.9,34.1,18.6,34.7,16.2,34.7z"/>
		</g>
	</g>
</g>
<g id="Layer_1">
</g>
</svg>
