<?xml version="1.0" encoding="utf-8"?>
<!-- Generator: Adobe Illustrator 22.1.0, SVG Export Plug-In . SVG Version: 6.00 Build 0)  -->
<svg version="1.1" id="Group_1931" xmlns="http://www.w3.org/2000/svg" xmlns:xlink="http://www.w3.org/1999/xlink" x="0px" y="0px"
	 viewBox="0 0 40 40" style="enable-background:new 0 0 40 40;" xml:space="preserve">
<style type="text/css">
	.st0{fill:#FFFFFF;}
</style>
<g>
	<path class="st0" d="M39,32.4H7.8V1c0-0.5-0.4-1-0.9-1c0,0,0,0-0.1,0l0,0l0,0c-0.6,0-1,0.4-1,0.9V1v31.4H1c-0.3,0-0.5,0.1-0.7,0.3
		S0,33.1,0,33.4c0,0.5,0.4,1,1,1h4.8V39c0,0.5,0.4,1,0.9,1c0,0,0,0,0.1,0l0,0l0,0c0.5,0,0.9-0.4,0.9-0.9V39v-4.6H39c0,0,0,0,0.1,0
		l0,0c0.5,0,0.9-0.4,0.9-0.9v-0.1C40,32.8,39.6,32.4,39,32.4z"/>
	<path class="st0" d="M10.4,19.4c0.2,0.2,0.4,0.2,0.6,0.2l0,0c0.3,0,0.6-0.1,0.7-0.3L21.9,8.4l9.2,10l-4,4.2l-4.9-6.2
		C22,16.2,21.8,16,21.5,16l0,0l0,0c-0.3,0-0.5,0.1-0.8,0.3L10.4,26.5c-0.2,0.2-0.3,0.4-0.3,0.7c0,0.3,0.1,0.5,0.3,0.7l0,0
		c0.2,0.2,0.4,0.3,0.7,0.3l0,0c0.3,0,0.5-0.1,0.7-0.3l9.6-9.4l4.9,6.3l0,0c0.2,0.2,0.4,0.3,0.7,0.4l0,0l0,0c0.3,0,0.5-0.1,0.7-0.3
		l0,0l4.7-4.9l4.2,4.6l0,0c0.2,0.2,0.4,0.3,0.7,0.3s0.6-0.1,0.7-0.3c0.3-0.4,0.4-0.9,0-1.3l0,0l-4.3-4.7l4.3-4.5
		c0.4-0.4,0.3-1-0.1-1.4c-0.2-0.2-0.4-0.2-0.6-0.2c-0.2,0-0.5,0.1-0.6,0.2l0,0L32.6,17L22.7,6.4C22.5,6.2,22.2,6.1,22,6l0,0
		c-0.3,0-0.5,0.1-0.7,0.3L10.3,18C10,18.4,10,19,10.4,19.4z"/>
</g>
</svg>
