<?xml version="1.0" encoding="utf-8"?>
<!-- Generator: Adobe Illustrator 22.1.0, SVG Export Plug-In . SVG Version: 6.00 Build 0)  -->
<svg version="1.1" id="Layer_1" xmlns="http://www.w3.org/2000/svg" xmlns:xlink="http://www.w3.org/1999/xlink" x="0px" y="0px"
	 viewBox="0 0 40 40" style="enable-background:new 0 0 40 40;" xml:space="preserve">
<style type="text/css">
	.st0{fill:#626975;}
</style>
<g>
	<path class="st0" d="M31.1,22.8c0-0.2-0.2-0.3-0.3-0.3h-5.5c-0.2,0-0.3,0.1-0.3,0.3l-0.5,2.9c0,0.1,0,0.2,0.1,0.3
		c0.1,0.1,0.1,0.1,0.2,0.1h6.5c0,0,0,0,0,0c0.2,0,0.3-0.1,0.3-0.3c0,0,0-0.1,0-0.1L31.1,22.8z M25.1,25.4l0.4-2.3h5l0.4,2.3H25.1z"
		/>
	<path class="st0" d="M34.1,26.7h-0.6l-0.9-5.5c0-0.3-0.3-0.4-0.5-0.4h-8.1c-0.3,0-0.5,0.2-0.5,0.4l-0.9,5.5h-0.6
		c-0.3,0-0.5,0.2-0.5,0.5s0.2,0.5,0.5,0.5h0.5l1,11.4c0,0.3,0.3,0.5,0.5,0.5H32c0.3,0,0.5-0.2,0.5-0.5l1-11.4h0.5
		c0.3,0,0.5-0.2,0.5-0.5C34.6,26.9,34.3,26.7,34.1,26.7z M24.4,21.8h7.2l0.8,4.9h-8.9L24.4,21.8z M31.5,38.6h-7.1l-0.9-10.8h9
		L31.5,38.6z"/>
	<path class="st0" d="M26.3,31.2c0.3,0.1,0.4,0.1,0.6-0.2c0-0.1,0.1-0.1,0.1-0.2c0.1-0.1,0.2-0.2,0.4-0.3c0.3-0.1,0.6-0.1,0.9,0
		c0.3,0.1,0.5,0.4,0.4,0.7c0,0.1-0.1,0.3-0.2,0.4c-0.2,0.2-0.4,0.4-0.6,0.5c-0.6,0.5-0.8,1.1-0.7,1.8c0,0.2,0.1,0.3,0.3,0.3
		c0.1,0,0.2,0,0.3,0c0.3,0,0.4-0.2,0.4-0.5c0-0.1,0-0.1,0-0.2c0-0.3,0.1-0.6,0.4-0.8c0.1-0.1,0.2-0.1,0.2-0.2c0.4-0.3,0.7-0.6,0.9-1
		c0.3-0.6,0.2-1.3-0.4-1.8c-0.4-0.4-1-0.5-1.6-0.5c-0.3,0-0.7,0-1,0.2c-0.5,0.2-0.8,0.5-0.9,1C25.9,30.9,26.1,31.1,26.3,31.2z"/>
	<path class="st0" d="M27.8,35.1c-0.4,0-0.7,0.3-0.7,0.8c0,0.4,0.3,0.8,0.7,0.7c0.4,0,0.8-0.4,0.8-0.8
		C28.5,35.4,28.2,35.1,27.8,35.1z"/>
	<path class="st0" d="M23.9,19.1h6.8c0.6,0,1.1-0.5,1.1-1.1c0-0.6-0.5-1.1-1.1-1.1h-6.4L20,12.8c-1.1-1-2.6-1.6-4.1-1.6H9.7
		c-2.4,0-4.3,1.9-4.3,4.3v8.7c0,1.8,1.2,3.5,2.9,4.1l0.3,0.1v10.5c0,0.6,0.5,1.1,1.1,1.1s1.1-0.5,1.1-1.1V27.4
		c0-0.6-0.5-1.1-1.1-1.1c-1.2,0-2.1-0.9-2.1-2.1v-8.7c0-1.2,0.9-2.1,2.1-2.1h6.2c1,0,1.9,0.4,2.5,1l4.7,4.5
		C23.4,19,23.6,19.1,23.9,19.1z"/>
	<path class="st0" d="M12.9,8.6c2.4,0,4.3-1.9,4.3-4.3S15.3,0,12.9,0S8.6,1.9,8.6,4.3C8.6,6.7,10.6,8.6,12.9,8.6z M12.9,2.2
		c1.2,0,2.1,0.9,2.1,2.1s-0.9,2.1-2.1,2.1s-2.1-0.9-2.1-2.1S11.8,2.2,12.9,2.2z"/>
	<path class="st0" d="M16.2,19.1c-0.6,0-1.1,0.5-1.1,1.1v18.7c0,0.6,0.5,1.1,1.1,1.1s1.1-0.5,1.1-1.1V20.2
		C17.3,19.6,16.8,19.1,16.2,19.1z"/>
</g>
</svg>
