<?xml version="1.0" encoding="utf-8"?>
<!-- Generator: Adobe Illustrator 22.1.0, SVG Export Plug-In . SVG Version: 6.00 Build 0)  -->
<svg version="1.1" id="Layer_1" xmlns="http://www.w3.org/2000/svg" xmlns:xlink="http://www.w3.org/1999/xlink" x="0px" y="0px"
	 viewBox="0 0 40 40" style="enable-background:new 0 0 40 40;" xml:space="preserve">
<style type="text/css">
	.st0{fill:#626975;}
</style>
<g>
	<g>
		<g>
			<path class="st0" d="M28.3,18.8l-1-0.2c-0.1-0.3-0.2-0.7-0.4-0.9l0.6-0.8c0.2-0.3,0.2-0.8-0.1-1.1l-0.9-0.9
				c-0.2-0.2-0.4-0.2-0.6-0.2c-0.2,0-0.3,0.1-0.5,0.2l-0.9,0.6c-0.3-0.2-0.6-0.3-1-0.4l-0.2-1c-0.1-0.4-0.4-0.7-0.8-0.7h-1.2
				c-0.4,0-0.8,0.3-0.8,0.7l-0.2,1c-0.3,0.1-0.6,0.2-0.9,0.4l-0.8-0.6c-0.2-0.1-0.3-0.1-0.5-0.1c-0.2,0-0.4,0.1-0.6,0.3l-0.9,0.9
				c-0.3,0.3-0.3,0.8-0.1,1.1l0.6,0.8c-0.2,0.3-0.3,0.6-0.4,0.9l-1,0.2c-0.4,0.1-0.7,0.4-0.7,0.8v1.2c0,0.4,0.3,0.8,0.7,0.8l1,0.2
				c0.1,0.3,0.2,0.6,0.4,0.9l-0.6,0.8c-0.2,0.3-0.2,0.8,0.1,1.1l0.9,0.9c0.2,0.2,0.4,0.2,0.6,0.2c0.2,0,0.3-0.1,0.5-0.2l0.8-0.6
				c0.3,0.1,0.6,0.3,0.9,0.4l0.2,1c0.1,0.4,0.4,0.8,0.9,0.8h1.2c0.4,0,0.8-0.3,0.8-0.7l0.2-1c0.3-0.1,0.7-0.2,0.9-0.4l0.8,0.6
				c0.1,0.1,0.3,0.2,0.5,0.2c0.2,0,0.4-0.1,0.6-0.2l0.9-0.9c0.3-0.3,0.3-0.8,0.1-1.1l-0.5-0.8c0.2-0.3,0.3-0.6,0.4-0.9l1-0.2
				c0.4-0.1,0.7-0.4,0.7-0.8v-1.2C29,19.2,28.7,18.8,28.3,18.8z M28.1,20.8L28.1,20.8C28.1,20.9,28,20.9,28.1,20.8l-1.2,0.3
				c-0.1,0-0.3,0.1-0.3,0.3c-0.1,0.4-0.3,0.8-0.5,1.2c-0.1,0.1-0.1,0.3,0,0.4l0.7,1c0,0,0,0.1,0,0.1l-0.8,0.8c0,0,0,0-0.1,0
				c0,0,0,0,0,0l-1-0.7c-0.1-0.1-0.3-0.1-0.4,0c-0.4,0.2-0.8,0.4-1.2,0.5c-0.1,0-0.3,0.2-0.3,0.3l-0.2,1.2c0,0,0,0.1-0.1,0.1h-1.2
				c0,0-0.1,0-0.1-0.1l-0.2-1.2c0-0.1-0.1-0.3-0.3-0.3c-0.4-0.1-0.8-0.3-1.1-0.5c-0.1,0-0.1-0.1-0.2-0.1s-0.2,0-0.2,0.1l-1,0.7h0
				c0,0,0,0-0.1,0L17.5,24c0,0,0-0.1,0-0.1l0.7-1c0.1-0.1,0.1-0.3,0-0.4c-0.2-0.4-0.4-0.8-0.5-1.2c0-0.1-0.2-0.3-0.3-0.3l-1.2-0.2
				c0,0-0.1,0-0.1-0.1v-1.2c0,0,0-0.1,0.1-0.1l1.2-0.2c0.1,0,0.3-0.1,0.3-0.3c0.1-0.4,0.3-0.8,0.5-1.2c0.1-0.1,0.1-0.3,0-0.4l-0.7-1
				c0,0,0-0.1,0-0.1l0.8-0.8c0,0,0,0,0.1,0s0,0,0,0l1,0.7c0.1,0.1,0.3,0.1,0.4,0c0.4-0.2,0.8-0.4,1.2-0.5c0.2,0,0.3-0.1,0.3-0.3
				l0.2-1.2c0,0,0-0.1,0.1-0.1h1.2c0,0,0.1,0,0.1,0.1l0.2,1.2c0,0.1,0.1,0.3,0.3,0.3c0.4,0.1,0.8,0.3,1.2,0.5c0.1,0.1,0.3,0.1,0.4,0
				l1-0.7h0c0,0,0,0,0.1,0l0.8,0.8c0,0,0,0.1,0,0.1l-0.7,1c-0.1,0.1-0.1,0.3,0,0.4c0.2,0.4,0.4,0.8,0.5,1.2c0,0.1,0.2,0.3,0.3,0.3
				l1.2,0.2c0,0,0.1,0,0.1,0.1L28.1,20.8L28.1,20.8z M22.1,17.2c-1.7,0-3,1.3-3,3c0,1.7,1.3,3,3,3c1.7,0,3-1.3,3-3
				C25.1,18.6,23.7,17.2,22.1,17.2z M22.1,22.4c-1.2,0-2.2-1-2.2-2.2c0-1.2,1-2.2,2.2-2.2c1.2,0,2.2,1,2.2,2.2
				C24.3,21.4,23.3,22.4,22.1,22.4z"/>
		</g>
	</g>
	<path class="st0" d="M35.8,4.7c-0.3-0.3-0.8-0.5-1.2-0.5h-1.7V3.3c0-0.2-0.1-0.4-0.2-0.6l-2.5-2.5C30,0.1,29.8,0,29.6,0H12.1
		c-0.2,0-0.4,0.1-0.6,0.2L9,2.8C8.8,2.9,8.8,3.1,8.8,3.3v0.8H7.1c-0.4,0-0.8,0.2-1.2,0.5S5.4,5.4,5.4,5.8v1.7H3.8v1.7h2.5h0.8V15
		c0,0.2,0.1,0.4,0.2,0.6l2.2,2.2v12.3c-2.3,0.4-4.2,2.4-4.2,4.9c0,2.8,2.2,5,5,5s5-2.2,5-5c0-2.5-1.8-4.5-4.2-4.9V17.5
		c0-0.2-0.1-0.4-0.2-0.6l-2.2-2.2V9.2h2.5V7.5H7.1V5.8h27.5v1.7H12.9v1.7h20v26.7c0,0.7-0.2,1.3-0.8,1.8c-0.5,0.4-1.1,0.8-1.7,0.8
		H16.2V40h14.2c1.1,0,2.2-0.4,2.9-1.2c0.8-0.8,1.2-1.8,1.2-2.9V9.2h0.8c0.5,0,0.8-0.3,0.8-0.8V5.8C36.2,5.4,36.1,5,35.8,4.7z
		 M13.8,35c0,1.8-1.5,3.3-3.3,3.3S7.1,36.8,7.1,35s1.5-3.3,3.3-3.3S13.8,33.2,13.8,35z M10.4,3.7l2-2h16.8l2,2v0.5H10.4V3.7z
		 M9.6,34.2h1.7v1.7H9.6V34.2z M17.9,35.8v-1.7h1.7v1.7H17.9z M21.2,34.2h1.7v1.7h-1.7V34.2z M24.6,35.8v-1.7h1.7v1.7H24.6z"/>
</g>
</svg>
