<?xml version="1.0" encoding="utf-8"?>
<!-- Generator: Adobe Illustrator 21.1.0, SVG Export Plug-In . SVG Version: 6.00 Build 0)  -->
<svg version="1.1" id="Layer_1" xmlns="http://www.w3.org/2000/svg" xmlns:xlink="http://www.w3.org/1999/xlink" x="0px" y="0px"
	 viewBox="0 0 40 40" style="enable-background:new 0 0 40 40;" xml:space="preserve">
<style type="text/css">
	.st0{fill:#FFFFFF;}
</style>
<g>
	<g>
		<path class="st0" d="M38.2,1.9c-0.1-0.3-0.5-0.7-0.8-0.8c-1.3-0.4-2.7-0.7-4-1.1h-2.7c-0.1,0-0.3,0.1-0.4,0.1
			c-3.5,0.4-6.5,1.9-9,4.5c-1,1.1-2.1,2.1-3.1,3.2C18,8,17.7,8.2,17.4,8.3c-2.4,0.3-4.8,0.6-7.2,0.9C9.6,9.3,8.9,9.3,8.6,9.6
			c-2.2,2.1-4.3,4.4-6.5,6.6C4,17,5.8,17.7,7.7,18.5c-0.4,0.5-0.8,0.9-1.2,1.4c0.7,0.6,1.3,1.2,1.9,1.7c-1,1.5-1.9,2.8-2.8,4
			c3,3.1,5.8,6.1,8.8,9.1c1.2-0.9,2.5-1.8,3.9-2.9c0.6,0.6,1.1,1.3,1.7,2c0.5-0.5,0.9-0.9,1.3-1.3c0.8,2,1.5,3.8,2.3,5.8
			c2.2-2.3,4.3-4.5,6.4-6.7c0.1-0.1,0.2-0.4,0.2-0.6c0.3-2.7,0.7-5.5,1-8.2c0.1-0.4,0.2-0.8,0.5-1.1c1-1.1,2.1-2.2,3.2-3.3
			c1.6-1.7,2.8-3.6,3.5-5.8c0.4-1.3,0.6-2.6,0.9-3.9V6C38.9,4.7,38.6,3.2,38.2,1.9z M6.4,15.4C7.6,14.2,8.6,13,9.8,12
			c0.4-0.3,1.1-0.3,1.7-0.4c1.1-0.2,2.2-0.3,3.3-0.4c0.1,0.1,0.1,0.1,0.2,0.2c-0.5,0.4-0.9,0.8-1.3,1.3c-1.2,1.2-2.4,2.5-3.6,3.7
			c-0.3,0.3-0.5,0.4-1,0.2C8.2,16.1,7.3,15.8,6.4,15.4z M14.6,31.6c-2-2.1-3.9-4.1-5.9-6.1c0.4-0.6,0.8-1.2,1.3-1.9
			c1.1,1.1,2.2,2.2,3.2,3.3c1.1,1.1,2.1,2.2,3.3,3.3C15.8,30.7,15.2,31.2,14.6,31.6z M27.9,30.2c0,0.2-0.1,0.3-0.2,0.5
			c-1.1,1.1-2.1,2.2-3.3,3.4C24,33,23.6,32,23.2,31c-0.1-0.2,0-0.5,0.1-0.6c1.7-1.7,3.3-3.5,5.2-5.4C28.3,26.9,28.1,28.6,27.9,30.2z
			 M33.3,16.6c-4.3,4.6-8.6,9-13,13.5c-0.1,0.1-0.2,0.2-0.2,0.2c-1.4-1.5-2.8-2.9-4.2-4.3c3-3.1,6-6.2,9.1-9.4
			c-0.6-0.7-1.2-1.2-1.7-1.8c-3.1,3.2-6.1,6.4-9.1,9.5c-1.4-1.5-2.8-2.9-4.2-4.4c0.1-0.1,0.2-0.3,0.4-0.4c4.2-4.3,8.4-8.7,12.6-13
			C26.5,3,30.6,1.9,35.3,3c0.7,0.2,1.1,0.5,1.2,1.2C37.5,8.8,36.6,13.1,33.3,16.6z M7.4,38.3c0.5,0.6,1,1.1,1.6,1.7h0.2
			c1-1.2,2.1-2.3,3.2-3.5c-0.6-0.5-1.1-1.1-1.6-1.5C9.7,36,8.6,37.2,7.4,38.3z M4,27.9c-1.1,1.1-2.2,2.3-3.3,3.4
			c0.5,0.5,1,1.1,1.4,1.5c1.1-1.1,2.2-2.3,3.3-3.3C5,29,4.5,28.4,4,27.9z M7.4,31.5c-1.1,1.1-2.2,2.2-3.3,3.3c0.5,0.5,1,1,1.5,1.6
			c1.1-1.2,2.2-2.3,3.3-3.4C8.4,32.5,7.8,31.9,7.4,31.5z M29.8,6.1c-2,0-3.6,1.7-3.6,3.7s1.7,3.7,3.6,3.7s3.5-1.7,3.5-3.7
			S31.7,6.1,29.8,6.1z M29.7,11c-0.7,0-1.2-0.6-1.2-1.3s0.6-1.2,1.2-1.2s1.2,0.6,1.2,1.3C31,10.5,30.4,11,29.7,11z"/>
	</g>
</g>
</svg>
