<?xml version="1.0" encoding="utf-8"?>
<!-- Generator: Adobe Illustrator 19.0.0, SVG Export Plug-In . SVG Version: 6.00 Build 0)  -->
<svg version="1.1" id="Layer_1" xmlns="http://www.w3.org/2000/svg" xmlns:xlink="http://www.w3.org/1999/xlink" x="0px" y="0px"
	 viewBox="0 0 150 150" style="enable-background:new 0 0 150 150;" xml:space="preserve">
<style type="text/css">
	.st0{fill:#FFFFFF;}
</style>
<g id="XMLID_2_">
	<g>
		<g id="XMLID_91_">
			<path id="XMLID_92_" class="st0" d="M27.2,86.8c2.6,1,5.3-0.2,6.7-2.9c0.4-0.7,0.7-1.5,0.9-2.3c7.7-21.1,15.4-42.2,23.1-63.3
				c0.6-1.6,1-2.7,3.2-2.2c16.3,3.3,32.5,6.5,48.8,9.8c0.2-3.8,1.2-7.3,2.9-10.4c-18.5-3.7-37-7.4-55.6-11.1c-4-0.8-5.8,0.3-7.2,4.2
				c-4.8,12.9-9.6,25.8-14.3,38.7C31.9,58.2,28,69.1,24.2,80C23.2,83.1,24.5,85.8,27.2,86.8z M123.4,48
				c-3.6,10.6-7.1,21.2-10.9,31.7c-4.8,13.4-10,26.6-15.6,39.7c-1.9,4.3-5,8.6-8.6,11.7c-7.2,6.2-20.1,4.9-23.1-7.4
				c-0.7-2.9-1.1-5.8-1.2-8.8c-0.1-2-0.7-3.1-2.7-3.8c-18.9-7.5-37.7-15.2-56.6-22.7c-0.9-0.4-2-0.6-3-1c-1.1,4.9-2.5,5.7-0.7,15.2
				c1.6,8.4,6.2,14.6,13.8,18.4c3,1.5,6.1,2.8,9.1,4.2c13.6,6.1,27.2,12.5,41,18.3c13.8,5.9,28.8,1.3,37.1-11.2
				c3-4.5,5.6-9.4,7.7-14.4c9.2-22.2,17-44.8,24.5-67.6c-0.3,0-0.6,0-0.9,0C129.7,50.1,126.4,49.4,123.4,48z M95.8,80.4
				c3-0.1,4.7-1.4,5.4-3.9c0.7-2.5-0.4-5.2-3-6.1c-8.4-2.8-16.8-5.6-25.3-8.1c-2.8-0.8-5.5,1.5-5.8,4.4c-0.3,2.7,1,4.8,4,5.8
				c7.5,2.5,15.1,5,22.6,7.4C94.4,80.3,95.3,80.4,95.8,80.4z M61.7,94.5c7.5,2.5,15,5,22.6,7.5c0.9,0.3,1.8,0.5,3,0.8
				c0.8-0.3,2.2-0.4,2.7-1.1c1.1-1.4,2.2-3.1,2.3-4.7c0.2-2.5-1.7-4-3.9-4.8c-7.9-2.6-15.8-5.3-23.7-7.7c-1.3-0.4-3.5,0-4.3,0.8
				c-1.2,1.2-2,3.2-2.1,5C58,92.6,59.7,93.9,61.7,94.5z M105.5,56.6c2.9,0,4.8-1.6,5.3-4.1c0.6-3-0.5-5.1-3.8-6.1
				c-7.7-2.3-15.4-4.4-23.2-6.5c-3.6-1-6.2,0.4-7.1,3.4c-0.9,3.1,0.7,5.8,4.3,6.8c7.5,2.1,14.9,4.1,22.4,6.1
				C104.3,56.5,105,56.5,105.5,56.6z M62.5,62.7c0-3.1-2.6-5.5-6-5.6c-2.9-0.1-5.4,2.5-5.5,5.5c0,2.9,2.7,5.4,5.8,5.5
				C59.9,68,62.4,65.6,62.5,62.7z M65.4,45.2c3.1,0.1,5.6-2.2,5.6-5.2c0-3.3-2.5-5.6-5.9-5.6c-3,0-5.3,2.3-5.3,5.2
				C59.7,42.7,62.2,45.1,65.4,45.2z M47.8,78.2c-3.1,0-5.5,2.4-5.4,5.4c0.1,3.2,2.3,5.3,5.8,5.3c3.3,0,5.5-2.2,5.4-5.3
				C53.6,80.6,51,78.2,47.8,78.2z M133.2,10.1c-9.3,0-16.8,7.5-16.8,16.8c0,9.3,7.5,16.8,16.8,16.8c9.3,0,16.8-7.5,16.8-16.8
				C150,17.6,142.5,10.1,133.2,10.1z M131,35.4l-8.4-8.4l2.9-2.9l5.3,5.3l10.4-10.6l3.3,3.4L131,35.4z"/>
		</g>
	</g>
</g>
</svg>
