<?xml version="1.0" encoding="utf-8"?>
<!-- Generator: Adobe Illustrator 23.0.1, SVG Export Plug-In . SVG Version: 6.00 Build 0)  -->
<svg version="1.1" id="Capa_1" xmlns="http://www.w3.org/2000/svg" xmlns:xlink="http://www.w3.org/1999/xlink" x="0px" y="0px"
	 viewBox="0 0 40 40" style="enable-background:new 0 0 40 40;" xml:space="preserve">
<style type="text/css">
	.st0{fill:#3A3A3A;}
</style>
<g>
	<path class="st0" d="M35.4,24.6c-1-1-2-2.1-3.1-3.1c-0.6-0.6-1.4-0.6-2,0c-0.7,0.7-1.4,1.3-2,2c-0.6,0.6-0.6,1.4,0,2
		c0.3,0.3,0.7,0.6,1.1,0.9c-1.3,1.3-2.5,2.5-3.6,3.6c-1.1,1.1-2.1,2.1-3.2,3.2c-0.4,0.4-0.6,0.8-0.1,1.3c0.4,0.4,0.9,0.3,1.3-0.1
		c0.1-0.1,0.3-0.2,0.4-0.3c0.6,0.3,1,1.4,1.8,0.7c1-0.9-0.3-1.3-0.6-2c0.3-0.3,0.6-0.5,0.8-0.8c1.1,1,1.5,1.1,1.8,0.6
		c0.7-0.9-0.3-1.3-0.5-1.7c1.1-1.1,2.1-2.1,3.2-3.1c0.2,0.2,0.4,0.5,0.7,0.7c0.8,0.7,1.5,0.8,2.3,0c0.6-0.6,1.2-1.2,1.8-1.9
		C36.1,26,36.1,25.2,35.4,24.6z M32.3,27.2c-0.8-0.8-1.7-1.7-2.6-2.6c0.5-0.5,1.1-1.1,1.6-1.6c0.8,0.8,1.7,1.7,2.6,2.6
		C33.5,26.1,32.9,26.6,32.3,27.2z"/>
	<path class="st0" d="M28.5,17c-3.1,0-5.9,1.2-8,3.2l-2.9-1.5v-1.5c0,0,0,0,0,0c2-1.5,3.3-3.8,3.4-6.5c0.8-1.2,1.1-2.9,0.7-4.5
		c-0.4-1.4-1.3-2.4-2.5-2.9c-1.2-1.8-2.7-2.9-4.4-3.3c-2.4-0.5-5.2,0.6-8.6,3.2L6.1,3.4c-2,1.9-2.1,5-2,6.4c0,0.1,0,0.2,0,0.4
		c0,0.2,0,0.3,0,0.4c0,2.6,1.2,4.8,3,6.4c0,0,0,0,0,0v1.7L1,21.7C0.4,22,0,22.5,0,23.2l0,8.1c0,0.3,0.1,0.5,0.3,0.7
		c0.2,0.3,0.5,0.4,0.8,0.4h13.4c0.5,0,0.9-0.4,0.9-0.9s-0.4-0.9-0.9-0.9H1.9l0-7.2l5.5-2.8l4.4,3c0.2,0.1,0.5,0.2,0.7,0.2
		c0.3,0,0.5-0.1,0.8-0.3l3.8-2.8l2.1,1.1C17.8,23.6,17,26,17,28.5C17,34.8,22.1,40,28.5,40C34.8,40,40,34.8,40,28.5S34.8,17,28.5,17
		z M14.5,2c1.3,0.2,2.4,1.1,3.3,2.7L18,5l0.3,0.1c1,0.3,1.4,1.1,1.6,1.7c0.1,0.5,0.2,1,0.1,1.4c-0.1,0-0.2,0-0.3,0
		c-3,0.1-8.5,0.3-10.2-4.9C11.4,2.2,13.1,1.7,14.5,2z M7.4,4.8c0.2-0.1,0.3-0.2,0.5-0.3c0.3,0.7,0.6,1.4,1,1.9C8.6,7.1,7.9,8,7,8.6
		C6.7,8.8,6.3,8.9,6,9C6,7.7,6.3,5.9,7.4,4.8z M15.7,19.3l-3.1,2.4L9,19.3v-1.2c1.1,0.5,2.3,0.8,3.6,0.8c1.1,0,2.1-0.2,3.1-0.6V19.3
		z M12.6,17c-3.5,0-6.3-2.7-6.5-6.1c0.6-0.1,1.3-0.3,2-0.7C9,9.6,9.8,8.8,10.3,7.9c2.4,2,5.7,2.3,8,2.3c0.3,0,0.6,0,0.9,0v0.2
		C19.2,14,16.2,17,12.6,17z M28.5,38.1c-5.3,0-9.6-4.3-9.6-9.6c0-5.3,4.3-9.6,9.6-9.6c5.3,0,9.6,4.3,9.6,9.6
		C38.1,33.8,33.8,38.1,28.5,38.1z"/>
</g>
</svg>
