<?xml version="1.0" encoding="utf-8"?>
<!-- Generator: Adobe Illustrator 23.0.1, SVG Export Plug-In . SVG Version: 6.00 Build 0)  -->
<svg version="1.1" id="Capa_1" xmlns="http://www.w3.org/2000/svg" xmlns:xlink="http://www.w3.org/1999/xlink" x="0px" y="0px"
	 viewBox="0 0 40 40" style="enable-background:new 0 0 40 40;" xml:space="preserve">
<style type="text/css">
	.st0{fill:#2C2F33;}
</style>
<path class="st0" d="M4.6,40c-0.3,0-0.6,0-0.9-0.1c-2.5-0.5-4.1-3-3.5-5.4c1.5-7.1,6.7-12.9,13.5-15.2l0.4-0.1l-0.3-0.3
	C9.1,15.5,8.1,8.9,11.6,4.2C13.6,1.5,16.7,0,20,0c2.3,0,4.5,0.7,6.3,2.1c4.6,3.5,5.6,10.1,2.1,14.7c-0.6,0.8-1.3,1.5-2.1,2.1
	L26,19.2l0.4,0.1c0.8,0.3,1.6,0.6,2.3,0.9c0.3,0.2,0.6,0.4,0.7,0.8c0.1,0.3,0.1,0.7-0.1,1c-0.2,0.5-0.7,0.8-1.2,0.8
	c-0.2,0-0.4,0-0.6-0.1c-2.2-1.1-4.6-1.6-7.1-1.7c-0.1,0-0.3,0-0.4,0c0,0,0,0,0,0c-0.1,0-0.1,0-0.2,0c-0.1,0-0.1,0-0.2,0
	c-8.2,0.2-15.1,6-16.8,14c-0.1,0.5,0,1,0.3,1.4c0.3,0.4,0.7,0.7,1.2,0.8c0.1,0,0.3,0,0.4,0H24c0.4,0,0.7,0.1,1,0.4
	c0.3,0.3,0.4,0.6,0.4,1c0,0.7-0.6,1.4-1.4,1.4H4.6z M20,2.7c-4.2,0-7.6,3.3-7.8,7.4c-0.2,4.3,3.1,8,7.4,8.2l0.8,0
	c4.3-0.2,7.6-3.9,7.4-8.2c-0.2-4-3.4-7.2-7.4-7.4C20.3,2.7,20.1,2.7,20,2.7L20,2.7z M32.7,40c-0.7,0-1.4-0.6-1.4-1.4v-4.6h-4.6
	c-0.7,0-1.4-0.6-1.4-1.4s0.6-1.4,1.4-1.4h4.6v-4.6c0-0.7,0.6-1.4,1.4-1.4c0.7,0,1.4,0.6,1.4,1.4v4.6h4.6c0.7,0,1.4,0.6,1.4,1.4
	s-0.6,1.4-1.4,1.4h-4.6v4.6C34.1,39.4,33.5,40,32.7,40z"/>
</svg>
