<?xml version="1.0" encoding="utf-8"?>
<!-- Generator: Adobe Illustrator 23.0.1, SVG Export Plug-In . SVG Version: 6.00 Build 0)  -->
<svg version="1.1" id="Capa_1" xmlns="http://www.w3.org/2000/svg" xmlns:xlink="http://www.w3.org/1999/xlink" x="0px" y="0px"
	 viewBox="0 0 40 40" style="enable-background:new 0 0 40 40;" xml:space="preserve">
<style type="text/css">
	.st0{fill:#2C2F33;}
</style>
<g>
	<path class="st0" d="M33.7,30.2c-0.9,0-1.9-0.1-2.9-0.2c-2.5-0.3-5-1-7.3-2.2c-0.2-0.1-0.4-0.1-0.6-0.1c-0.4,0-0.8,0.3-1,0.7
		l-2.8,5.7L19,34C13.4,31,9,26.6,6,21l-0.1-0.1l0.3-0.2c0,0,4.2-2,5.4-2.6c0.7-0.3,0.9-1,0.6-1.6L12,16.2c-1.4-3-2.2-6.4-2.2-10
		c0-0.7-0.4-1.1-1-1.2C8.7,5,8.7,5,8.6,5L1.3,5c-0.4,0-0.8,0.1-1,0.3C0.1,5.6,0,5.9,0,6.4c0,2.2,0.2,4.3,0.6,6.4
		c1.3,6.3,4.1,11.8,8.5,16.5c4.2,4.5,9.4,7.7,15.3,9.4c3,0.9,6.1,1.3,9.2,1.3h0c0.8,0,1.3-0.5,1.3-1.2c0-2.4,0-4.9,0-7.3
		C35,30.6,34.5,30.2,33.7,30.2z M4.9,18.7c-1.5-3.6-2.4-7.4-2.6-11.3l0-0.1h5.3l0,0.1c0.1,1.6,0.3,3.1,0.6,4.6
		c0.3,1.5,0.8,2.9,1.4,4.4l0,0.1l-4.7,2.3L4.9,18.7z M32.7,37.7l-0.1,0c-3.9-0.2-7.7-1-11.2-2.6l-0.1,0l2.3-4.8l0.1,0
		c2.9,1.2,5.8,1.9,9,2.1l0.1,0V37.7z"/>
	<path class="st0" d="M28.9,0L28.9,0c-6.2,0-11.3,5-11.3,11.1c0,3,1.1,5.8,3.2,8c2.1,2.1,4.9,3.3,7.9,3.3c0,0,0.1,0,0.1,0
		c6.1,0,11.1-5,11.1-11.2C40,5.1,35.1,0,28.9,0z M28.8,20.1c-2.4,0-4.6-0.9-6.3-2.6c-1.7-1.7-2.6-3.9-2.6-6.3c0-4.9,4-8.9,8.9-8.9h0
		c2.4,0,4.6,0.9,6.3,2.6c1.7,1.7,2.6,3.9,2.6,6.3C37.7,16.1,33.7,20.1,28.8,20.1z"/>
	<path class="st0" d="M31.9,12.7c-0.6-0.6-1.2-1.2-1.8-1.8c-0.1-0.1-0.2-0.3-0.2-0.5c0-0.5,0-1,0-1.5V6.2c0-0.5-0.2-0.8-0.6-1
		C29.2,5.1,29,5,28.8,5c-0.6,0-1.1,0.5-1.1,1.1c0,0.8,0,1.6,0,2.4c0,0.8,0,1.7,0,2.5c0,0.4,0.1,0.8,0.5,1.1c0.9,0.8,1.7,1.7,2.6,2.5
		l1,1c0,0,0.1,0.1,0.1,0.1c0.2,0.2,0.5,0.3,0.8,0.3c0.3,0,0.6-0.1,0.8-0.3c0.4-0.5,0.4-1.1,0-1.6C32.9,13.7,32.4,13.2,31.9,12.7z"/>
</g>
</svg>
