<?xml version="1.0" encoding="utf-8"?>
<!-- Generator: Adobe Illustrator 23.0.1, SVG Export Plug-In . SVG Version: 6.00 Build 0)  -->
<svg version="1.1" id="Capa_1" xmlns="http://www.w3.org/2000/svg" xmlns:xlink="http://www.w3.org/1999/xlink" x="0px" y="0px"
	 viewBox="0 0 40 40" style="enable-background:new 0 0 40 40;" xml:space="preserve">
<style type="text/css">
	.st0{fill:#2C2F33;}
</style>
<g>
	<path class="st0" d="M14.3,17h-3.4c-0.4,0-0.8,0.3-0.8,0.8v3.4c0,0.4,0.3,0.8,0.8,0.8h3.4c0.4,0,0.8-0.3,0.8-0.8v-3.4
		C15.1,17.4,14.7,17,14.3,17z M13.5,20.4h-1.9v-1.9h1.9V20.4z"/>
	<path class="st0" d="M19.6,17c-0.4,0-0.8,0.3-0.8,0.8v3.4c0,0.4,0.3,0.8,0.8,0.8H23c0.4,0,0.8-0.3,0.8-0.8v-3.4
		c0-0.4-0.3-0.8-0.8-0.8H19.6z M22.3,20.4h-1.9v-1.9h1.9V20.4z"/>
	<path class="st0" d="M14.3,25h-3.4c-0.4,0-0.8,0.3-0.8,0.8v3.4c0,0.4,0.3,0.8,0.8,0.8h3.4c0.4,0,0.8-0.3,0.8-0.8v-3.4
		C15.1,25.3,14.7,25,14.3,25z M13.5,28.4h-1.9v-1.9h1.9V28.4z"/>
	<path class="st0" d="M23,25h-3.4c-0.4,0-0.8,0.3-0.8,0.8v3.4c0,0.4,0.3,0.8,0.8,0.8H23c0.4,0,0.8-0.3,0.8-0.8v-3.4
		C23.8,25.3,23.5,25,23,25z M22.3,28.4h-1.9v-1.9h1.9V28.4z"/>
	<path class="st0" d="M14.2,36.3c0,0.4,0.3,0.8,0.8,0.8h4c0.4,0,0.8-0.3,0.8-0.8c0-0.4-0.3-0.8-0.8-0.8h-4
		C14.5,35.5,14.2,35.8,14.2,36.3z"/>
	<path class="st0" d="M35.3,14.3c0-0.3-0.1-0.6-0.2-0.8c-0.7-1.9-2.1-3.4-4-4.2c1-1,1.4-2.5,1-3.8s-1.6-2.4-3-2.6
		c0.1-1.1-0.6-2.2-1.6-2.6C26.9,0,26.2,0,25.5,0C19.8,0,14.1,0,8.4,0C7.5,0,6.6,0,5.8,0.5C5,1,4.8,1.8,4.7,2.7
		c-0.1,0.6,0,15.7,0,18.1s0,4.8,0,7.3s0,4.8,0,7.3c0,0.3,0,0.5,0,0.8c0,1.2,0.1,2.5,1,3.2C6.3,40,7.3,40,8.2,40c5.9,0,11.8,0,17.6,0
		c0.5,0,1.1,0,1.6-0.2c0.8-0.3,1.3-1.1,1.5-1.9s0.2-1.6,0.2-2.5c0-6.3,0-12.7-0.1-19c1.6,0,2.2,0,3.3,0.1c1.1,0.1,2.4-0.3,2.8-1.4
		C35.4,14.9,35.4,14.6,35.3,14.3z M30.7,6.5c0.1,1.1-0.8,2.1-1.9,2.3v0l-0.4,0c0,0,0,0,0,0h0c0,0,0,0,0,0l-0.4,0v0
		c-1.1-0.1-2-1.1-1.9-2.3c0.1-1.1,0.9-1.9,1.9-2.1v0l0.4,0c0,0,0,0,0,0l0,0l0,0l0.4,0v0C29.9,4.6,30.7,5.4,30.7,6.5z M27.6,37.2
		c0,0.7-0.6,1.2-1.2,1.2H15H7.5c-0.7,0-1.2-0.6-1.2-1.2v-3.1H15h12.6V37.2z M27.6,19.1v13.5H15H6.2V5.9h12.3c0.4,0,0.8-0.3,0.8-0.8
		c0-0.4-0.3-0.8-0.8-0.8H6.2V2.8c0-0.7,0.6-1.2,1.2-1.2H15c0,0,11.3,0,11.3,0c0.7,0,1.2,0.6,1.2,1.2v0.1c-0.9,0.2-1.7,0.7-2.2,1.4
		c-0.6,0.8-0.8,1.8-0.7,2.8c0.1,0.8,0.5,1.6,1.1,2.2c-2.1,0.9-3.7,2.7-4.2,5c-0.2,1,0.4,1.9,1.4,2.2c0.1,0,0.2,0,0.4,0h4.2
		C27.6,16.5,27.6,19.1,27.6,19.1z M33.8,14.8c0,0.1-0.1,0.1-0.2,0.1c0,0,0,0-0.1,0H23.4c0,0,0,0-0.1,0c-0.1,0-0.1-0.1-0.2-0.1
		c0-0.1-0.1-0.1,0-0.2c0.5-2.4,2.6-4.2,5.1-4.3c0,0,0,0,0.1,0c0,0,0,0,0.1,0c0,0,0.1,0,0.1,0c0,0,0.1,0,0.1,0c0,0,0,0,0.1,0
		c0,0,0,0,0,0c2.5,0.1,4.6,1.8,5.1,4.3C33.8,14.7,33.8,14.7,33.8,14.8z"/>
</g>
</svg>
