<?xml version="1.0" encoding="utf-8"?>
<!-- Generator: Adobe Illustrator 23.0.1, SVG Export Plug-In . SVG Version: 6.00 Build 0)  -->
<svg version="1.1" id="Capa_1" xmlns="http://www.w3.org/2000/svg" xmlns:xlink="http://www.w3.org/1999/xlink" x="0px" y="0px"
	 viewBox="0 0 40 40" style="enable-background:new 0 0 40 40;" xml:space="preserve">
<style type="text/css">
	.st0{fill:#2C2F33;}
</style>
<g>
	<path class="st0" d="M37.5,12.7c0-2-0.9-3.6-2.6-4.6c-4-2.4-8.1-4.9-12.1-7.3c-1.8-1.1-3.7-1.1-5.5,0c-4,2.4-8,4.8-12,7.2
		c-1.8,1.1-2.7,2.7-2.7,4.7c0,2.4,0,4.8,0,7.2c0,2.4,0,4.8,0,7.1c0,2.2,0.9,3.9,2.8,5c3.9,2.3,7.8,4.7,11.7,7c1.9,1.2,3.9,1.2,5.8,0
		c3.9-2.3,7.9-4.7,11.8-7.1c0.1-0.1,0.3-0.2,0.4-0.3c0.3-0.3,0.4-0.7,0.2-1.1c-0.2-0.4-0.5-0.6-0.9-0.6c-0.2,0-0.5,0.1-0.7,0.3
		c-4,2.4-7.9,4.7-11.9,7.1c-1.2,0.7-2.5,0.8-3.8,0c-4-2.4-8-4.8-11.9-7.1c-1.2-0.7-1.8-1.8-1.8-3.2c0-4.8,0-9.6,0-14.4
		c0-1.4,0.6-2.5,1.8-3.2c3.9-2.4,7.9-4.7,11.8-7.1c1.3-0.8,2.5-0.8,3.8,0c4,2.4,7.9,4.7,11.9,7.1c1.2,0.7,1.8,1.8,1.8,3.2
		c0,2.4,0,4.9,0,7.3c0,1.6,0,3.2,0,4.8c0,0.4,0.2,0.8,0.6,1c0.7,0.3,1.3-0.2,1.3-1C37.5,20.8,37.5,16.8,37.5,12.7z"/>
	<path class="st0" d="M22.6,8.3c-1.7-1-3.4-1-5.1,0c-1.3,0.8-2.1,2-2.1,3.6c0,0-0.1,0-0.2,0c-1.7,0.1-2.8,1-3.1,2.7
		c-0.2,1.2-0.3,2.4-0.5,3.6c-0.4,3-0.8,6-1.1,9c-0.2,1.8,1.1,3.3,2.9,3.4c4.4,0,8.8,0,13.2,0c1.8,0,3.1-1.5,2.9-3.3
		c-0.1-0.8-0.2-1.5-0.3-2.3c-0.4-3.5-0.9-7-1.3-10.4c-0.2-1.3-1.2-2.3-2.5-2.6c-0.3,0-0.6-0.1-0.8-0.1C24.8,10.7,23.9,9.2,22.6,8.3z
		 M19.9,9.5c1.4,0,2.6,0.9,2.9,2.5c-1.9,0-3.8,0-5.7,0C17.4,10.6,18.5,9.5,19.9,9.5z M25,13.9c0.6,0,1,0.4,1.1,1c0.4,3,0.8,6,1.2,9
		c0.1,1,0.3,2.1,0.4,3.1c0.2,1.1-0.3,1.6-1.4,1.6c-2.1,0-4.2,0-6.2,0c-2.1,0-4.2,0-6.3,0c-0.9,0-1.4-0.5-1.3-1.4
		c0.4-3.1,0.8-6.2,1.2-9.4c0.1-1,0.3-2,0.4-3c0.1-0.6,0.5-1,1.1-1C18.4,13.9,21.7,13.9,25,13.9z"/>
	<path class="st0" d="M17.8,22.3c-0.2-0.6-0.7-0.9-1.2-0.7c-0.5,0.2-0.8,0.6-0.6,1.2c0.5,1.9,2.1,3.2,4,3.2c1.9,0,3.6-1.3,4-3.2
		c0.1-0.6-0.1-1.1-0.6-1.2c-0.5-0.2-1,0.1-1.2,0.7c-0.3,1.1-1.2,1.7-2.2,1.8C19,24.1,18.1,23.4,17.8,22.3z"/>
	<path class="st0" d="M22.7,20.2c0.6,0,1-0.5,1-1c0-0.6-0.5-1-1-1c-0.6,0-1.1,0.5-1,1.1C21.6,19.8,22.1,20.2,22.7,20.2z"/>
	<path class="st0" d="M17.3,20.2c0.6,0,1.1-0.5,1.1-1c0-0.5-0.5-1-1-1c-0.6,0-1,0.5-1,1C16.3,19.8,16.7,20.2,17.3,20.2z"/>
</g>
</svg>
