<?xml version="1.0" encoding="utf-8"?>
<!-- Generator: Adobe Illustrator 23.0.1, SVG Export Plug-In . SVG Version: 6.00 Build 0)  -->
<svg version="1.1" id="Capa_1" xmlns="http://www.w3.org/2000/svg" xmlns:xlink="http://www.w3.org/1999/xlink" x="0px" y="0px"
	 viewBox="0 0 40 40" style="enable-background:new 0 0 40 40;" xml:space="preserve">
<style type="text/css">
	.st0{fill:#2C2F33;}
</style>
<g>
	<path class="st0" d="M13.8,17h-3.4c-0.4,0-0.8,0.3-0.8,0.8v3.4c0,0.4,0.3,0.8,0.8,0.8h3.4c0.4,0,0.8-0.3,0.8-0.8v-3.4
		C14.6,17.4,14.2,17,13.8,17z M13,20.4h-1.9v-1.9H13V20.4z"/>
	<path class="st0" d="M19.1,17c-0.4,0-0.8,0.3-0.8,0.8v3.4c0,0.4,0.3,0.8,0.8,0.8h3.4c0.4,0,0.8-0.3,0.8-0.8v-3.4
		c0-0.4-0.3-0.8-0.8-0.8H19.1z M21.8,20.4h-1.9v-1.9h1.9V20.4z"/>
	<path class="st0" d="M13.8,25h-3.4c-0.4,0-0.8,0.3-0.8,0.8v3.4c0,0.4,0.3,0.8,0.8,0.8h3.4c0.4,0,0.8-0.3,0.8-0.8v-3.4
		C14.6,25.4,14.2,25,13.8,25z M13,28.4h-1.9v-1.9H13V28.4z"/>
	<path class="st0" d="M22.5,25h-3.4c-0.4,0-0.8,0.3-0.8,0.8v3.4c0,0.4,0.3,0.8,0.8,0.8h3.4c0.4,0,0.8-0.3,0.8-0.8v-3.4
		C23.3,25.4,23,25,22.5,25z M21.8,28.4h-1.9v-1.9h1.9V28.4z"/>
	<path class="st0" d="M14.5,37.1h4c0.4,0,0.8-0.3,0.8-0.8c0-0.4-0.4-0.8-0.8-0.8h-4c-0.4,0-0.8,0.4-0.8,0.8
		C13.7,36.7,14,37.1,14.5,37.1z"/>
	<path class="st0" d="M28.7,2.4C28.5,1,27.3,0,25.9,0H7C5.4,0,4.2,1.3,4.2,2.8v34.4C4.2,38.7,5.4,40,7,40h18.9
		c1.5,0,2.8-1.3,2.8-2.8V18.1c4-0.4,7.1-3.8,7.1-7.8C35.8,6.1,32.7,2.8,28.7,2.4z M27.1,37.2c0,0.7-0.6,1.2-1.2,1.2H7
		c-0.7,0-1.2-0.6-1.2-1.2v-3.1h21.4V37.2z M27.1,32.6H5.8V5.9h12.3c0.4,0,0.8-0.3,0.8-0.8c0-0.4-0.3-0.8-0.8-0.8H5.8V2.8
		c0-0.7,0.6-1.2,1.2-1.2h18.9c0.5,0,1,0.4,1.2,0.8c-3.9,0.4-7,3.8-7,7.8c0,4.1,3.1,7.4,7.1,7.8V32.6z M27.9,16.6
		c-3.5,0-6.4-2.9-6.4-6.4c0-3.5,2.9-6.4,6.4-6.4s6.4,2.9,6.4,6.4C34.3,13.8,31.5,16.6,27.9,16.6z"/>
	<path class="st0" d="M32.5,12.7c-0.3-1.4-1.2-2.6-2.5-3.2c0.8-0.9,0.8-2.2,0.1-3.2c-0.5-0.7-1.3-1-2.1-1c0,0-0.1,0-0.1,0
		c0,0-0.1,0-0.1,0c-0.8,0-1.6,0.4-2.1,1c-0.4,0.6-0.6,1.2-0.5,1.9c0.1,0.5,0.3,0.9,0.6,1.3c-1.3,0.6-2.2,1.8-2.5,3.2
		c-0.2,0.7,0.3,1.5,1.1,1.6c0.1,0,0.2,0,0.3,0h6.5c0.1,0,0.2,0,0.3,0C32.2,14.2,32.7,13.5,32.5,12.7z M27.6,6.6l0.3,0l0.2,0
		c0.6,0.1,1,0.6,1,1.1c0,0.6-0.4,1.1-1,1.2l-0.3,0l-0.2,0c-0.6-0.1-1-0.6-1-1.2C26.7,7.2,27.1,6.7,27.6,6.6z M24.7,13
		C24.7,13,24.7,13,24.7,13L24.7,13L24.7,13z M24.7,13c0.3-1.5,1.6-2.5,3.1-2.5l0-0.2l0,0.2l0.1,0l0.1,0l0.1,0l0.1,0
		c1.5,0,2.8,1.1,3.1,2.5L24.7,13z"/>
</g>
</svg>
