<?xml version="1.0" encoding="utf-8"?>
<!-- Generator: Adobe Illustrator 23.0.1, SVG Export Plug-In . SVG Version: 6.00 Build 0)  -->
<svg version="1.1" id="Capa_1" xmlns="http://www.w3.org/2000/svg" xmlns:xlink="http://www.w3.org/1999/xlink" x="0px" y="0px"
	 viewBox="0 0 40 40" style="enable-background:new 0 0 40 40;" xml:space="preserve">
<style type="text/css">
	.st0{fill:#2C2F33;}
</style>
<g>
	<path class="st0" d="M24.2,16.8c0.2-0.3,0.3-0.6,0.2-0.9c-0.1-0.4-0.4-0.6-0.8-0.6c-0.1,0-0.3,0-0.4,0c-2.9,0-5.7,0-8.6,0
		c-2.9,0-5.8,0-8.7,0c-0.4,0-0.7,0.1-0.9,0.3c-0.5,0.5-0.2,1.4,0.5,1.5c0.2,0,0.3,0,0.5,0c5.8,0,11.5,0,17.3,0
		C23.6,17.1,24,17,24.2,16.8z"/>
	<path class="st0" d="M5.3,12.2c0.2,0.1,0.4,0.1,0.5,0.1c3.2,0,6.3,0,9.5,0c0.6,0,1-0.3,1.1-0.8c0.1-0.4-0.1-0.9-0.5-1
		c-0.2-0.1-0.4-0.1-0.6-0.1c-1.6,0-3.2,0-4.7,0c-1.6,0-3.2,0-4.8,0c-0.5,0-0.9,0.3-1,0.7C4.7,11.6,4.9,12,5.3,12.2z"/>
	<path class="st0" d="M5.3,7.5c0.2,0.1,0.4,0.1,0.5,0.1c1.6,0,3.2,0,4.8,0c1.6,0,3.2,0,4.8,0c0.5,0,0.9-0.3,1-0.8
		c0.1-0.4-0.1-0.9-0.5-1c-0.2-0.1-0.3-0.1-0.5-0.1c-3.2,0-6.4,0-9.6,0c-0.5,0-0.9,0.3-1,0.7C4.7,6.8,4.9,7.3,5.3,7.5z"/>
	<path class="st0" d="M39.9,36.8c-0.9-4.1-3.9-7.5-7.8-8.8l-0.2-0.1l0.2-0.1c2.7-2,3.2-5.8,1.2-8.5c-1-1.3-2.4-2.2-4.1-2.4
		c0-1.6,0-4.7,0-6.2c0-0.5-0.2-0.9-0.5-1.3c-3-2.9-5.9-5.9-8.9-8.9c-0.2-0.2-0.5-0.3-0.7-0.5C13.9,0,8.7,0,3.5,0
		C3.3,0.1,3.1,0.1,2.8,0.2C1.1,0.8,0,2.3,0,4.3c0,3.7,0,7.3,0,11c0,6.3,0,12.6,0,18.9c0,1.9,0,4.1,3.5,4.3c3.4,0,9.5,0,13.4,0
		c0.3,0.7,1,1.3,1.9,1.5c0.2,0,0.4,0.1,0.5,0.1H28h0.5h8.8c0.2,0,0.4,0,0.5-0.1C39.3,39.6,40.2,38.2,39.9,36.8z M32.9,22.7
		c0.1,2.5-1.8,4.6-4.3,4.7l-0.1,0v0c0,0-0.1,0-0.1,0l-0.1,0l-0.1,0c0,0-0.1,0-0.1,0v0l-0.1,0c-2.5-0.1-4.4-2.3-4.3-4.7
		c0.1-2.3,2-4.2,4.3-4.3v0c0,0,0.1,0,0.1,0c0,0,0.1,0,0.1,0c0,0,0.1,0,0.1,0c0,0,0.1,0,0.1,0v0C30.9,18.5,32.8,20.3,32.9,22.7z
		 M19.9,3.6c0-0.1,0-0.2,0-0.2c2,2,3.9,3.9,5.9,5.9c-0.1,0-0.2,0-0.2,0c-1.2,0-2.3,0-3.5,0c-1.4,0-2.2-0.9-2.2-2.3
		C19.9,5.9,19.9,4.8,19.9,3.6z M4.3,36.5c-1.5,0-2.4-0.9-2.4-2.4c0-9.9,0-19.9,0-29.8c0-1.5,0.9-2.4,2.4-2.4c4.4,0,8.8,0,13.2,0
		c0.1,0,0.3,0,0.4,0c0,0.2,0,0.3,0,0.4c0,1.5,0,3,0,4.5c0,0.3,0,0.7,0.1,1c0.4,2,2,3.3,4,3.3c1.7,0,3.5,0,5.3,0c0,0.2,0,0.3,0,0.4
		c0,1.1,0,3.9,0,5.2c-1.6,0.2-3,1.1-4,2.4c-2,2.7-1.5,6.5,1.2,8.5l0.2,0.1L24.5,28c-3.9,1.3-6.8,4.5-7.8,8.5
		C13.2,36.5,7.4,36.5,4.3,36.5z M38.3,37.9c-0.2,0.2-0.4,0.4-0.7,0.5c-0.1,0-0.1,0-0.2,0h-8.8H28h-8.8c-0.1,0-0.2,0-0.2,0
		c-0.3-0.1-0.5-0.2-0.7-0.5c-0.2-0.2-0.2-0.5-0.1-0.8c1-4.7,5-8,9.8-8.1c0,0,0,0,0.1,0v0c0,0,0,0,0,0c0,0,0,0,0,0c0,0,0.1,0,0.1,0
		c0,0,0,0,0,0c0,0,0.1,0,0.1,0c0,0,0.1,0,0.1,0c0,0,0,0,0,0c0,0,0.1,0,0.1,0c0,0,0,0,0,0c0,0,0,0,0,0v0c0,0,0,0,0.1,0
		c4.8,0.1,8.8,3.5,9.8,8.1C38.5,37.4,38.4,37.7,38.3,37.9z"/>
</g>
</svg>
