<?xml version="1.0" encoding="utf-8"?>
<!-- Generator: Adobe Illustrator 23.0.1, SVG Export Plug-In . SVG Version: 6.00 Build 0)  -->
<svg version="1.1" id="Capa_1" xmlns="http://www.w3.org/2000/svg" xmlns:xlink="http://www.w3.org/1999/xlink" x="0px" y="0px"
	 viewBox="0 0 40 40" style="enable-background:new 0 0 40 40;" xml:space="preserve">
<style type="text/css">
	.st0{fill:#3A3A3A;}
</style>
<g>
	<path class="st0" d="M28.5,17c-1.1,0-2.1,0.2-3.1,0.4c1.5-2.6,3.7-4.5,6.5-5.7c1.7-0.8,3.3-1.2,5-1.3c0,0-2.1,2.7-2.6,3.4
		c-0.4,0.5-0.3,1.2,0.1,1.5c0.2,0.1,0.4,0.2,0.6,0.2c0.3,0,0.7-0.2,0.9-0.5c1.3-1.7,2.6-3.4,3.9-5.2c0.4-0.6,0.3-1.2-0.2-1.6
		c-0.8-0.6-1.5-1.1-2.3-1.7L36.3,6l-0.6-0.4c-0.5-0.4-1-0.7-1.5-1.1c-0.2-0.1-0.4-0.2-0.6-0.2c-0.2,0-0.4,0.1-0.6,0.2
		c-0.4,0.3-0.6,0.7-0.4,1.1c0.1,0.2,0.3,0.5,0.5,0.6c0.8,0.6,1.6,1.2,2.4,1.8L36,8.4c0,0,0,0-0.1,0c-0.4,0-0.9,0.1-1.3,0.2
		c-4.6,1-8.2,3.4-10.7,7.1c-0.6,0.9-1.1,1.7-1.4,2.6c-0.1,0.1-0.1,0.3-0.1,0.4c-0.7,0.4-1.4,0.9-2,1.5l-2.9-1.5v-1.5c0,0,0,0,0,0
		c2-1.5,3.3-3.8,3.4-6.5c0.8-1.2,1.1-2.9,0.7-4.5c-0.4-1.4-1.3-2.4-2.5-2.9c-1.2-1.8-2.7-2.9-4.4-3.3c-2.4-0.5-5.2,0.6-8.6,3.2
		L6.1,3.4c-2,1.9-2.1,5-2,6.4c0,0.1,0,0.2,0,0.4c0,0.2,0,0.3,0,0.4c0,2.6,1.2,4.8,3,6.4c0,0,0,0,0,0v1.7L1,21.7
		C0.4,22,0,22.5,0,23.2l0,8.1c0,0.3,0.1,0.5,0.3,0.7c0.2,0.3,0.5,0.4,0.8,0.4h13.4c0.5,0,0.9-0.4,0.9-0.9c0-0.5-0.4-0.9-0.9-0.9H1.9
		l0-7.2l5.5-2.8l4.4,3c0.2,0.1,0.5,0.2,0.7,0.2c0.3,0,0.5-0.1,0.8-0.3l3.8-2.8l2.1,1.1C17.8,23.6,17,26,17,28.5
		C17,34.8,22.1,40,28.5,40C34.8,40,40,34.8,40,28.5S34.8,17,28.5,17z M14.5,2c1.3,0.2,2.4,1.1,3.3,2.7L18,5l0.3,0.1
		c1,0.3,1.4,1.1,1.6,1.7c0.1,0.5,0.2,1,0.1,1.4c-0.1,0-0.2,0-0.3,0c-3,0.1-8.5,0.3-10.2-4.9C11.4,2.2,13.1,1.7,14.5,2z M7.4,4.8
		c0.2-0.1,0.3-0.2,0.5-0.3c0.3,0.7,0.6,1.4,1,1.9C8.6,7.1,7.9,8,7,8.6C6.7,8.8,6.3,8.9,6,9C6,7.7,6.3,5.9,7.4,4.8z M15.7,19.3
		l-3.1,2.4L9,19.3v-1.2c1.1,0.5,2.3,0.8,3.6,0.8c1.1,0,2.1-0.2,3.1-0.6V19.3z M12.6,17c-3.5,0-6.3-2.7-6.5-6.1
		c0.6-0.1,1.3-0.3,2-0.7C9,9.6,9.8,8.8,10.3,7.9c2.4,2,5.7,2.3,8,2.3c0.3,0,0.6,0,0.9,0v0.2C19.2,14,16.2,17,12.6,17z M28.5,38.1
		c-5.3,0-9.6-4.3-9.6-9.6c0-5.3,4.3-9.6,9.6-9.6c5.3,0,9.6,4.3,9.6,9.6C38.1,33.8,33.8,38.1,28.5,38.1z"/>
	<path class="st0" d="M28.5,22.7c-0.9,0-1.5,0.7-1.5,1.5c0,0.8,0.7,1.5,1.5,1.5c0.9,0,1.5-0.7,1.5-1.5C30,23.4,29.3,22.7,28.5,22.7z
		"/>
	<path class="st0" d="M28.5,27.1c-0.6,0-1.2,0.5-1.2,1.2V34c0,0.6,0.5,1.2,1.2,1.2c0.6,0,1.2-0.5,1.2-1.2v-5.8
		C29.7,27.6,29.1,27.1,28.5,27.1z"/>
</g>
</svg>
