<?xml version="1.0" encoding="utf-8"?>
<!-- Generator: Adobe Illustrator 23.0.1, SVG Export Plug-In . SVG Version: 6.00 Build 0)  -->
<svg version="1.1" id="Capa_1" xmlns="http://www.w3.org/2000/svg" xmlns:xlink="http://www.w3.org/1999/xlink" x="0px" y="0px"
	 viewBox="0 0 40 40" style="enable-background:new 0 0 40 40;" xml:space="preserve">
<style type="text/css">
	.st0{fill:#2C2F33;}
</style>
<g>
	<path class="st0" d="M39,26.5L38,26.4c-0.2-0.5-0.4-1.1-0.6-1.6L38,24c0.4-0.4,0.3-1-0.1-1.4l-1.2-1.2c-0.2-0.2-0.5-0.3-0.8-0.3
		c-0.2,0-0.5,0.1-0.7,0.2L34.5,22c-0.5-0.3-1-0.5-1.6-0.6l-0.1-1.1c-0.1-0.5-0.5-1-1.1-1h-1.7c-0.6,0-1,0.4-1.1,1l-0.1,1.1
		c-0.5,0.2-1,0.4-1.5,0.6l-0.9-0.7c-0.2-0.2-0.4-0.2-0.7-0.2c-0.3,0-0.6,0.1-0.8,0.3l-1.2,1.2c-0.4,0.4-0.4,1-0.1,1.4l0.8,0.9
		c-0.2,0.5-0.4,0.9-0.6,1.4l-1.2,0.1c-0.5,0.1-1,0.5-1,1.1v1.7c0,0.6,0.4,1,1,1.1l1.2,0.1c0.1,0.5,0.3,1,0.6,1.4l-0.8,1
		c-0.4,0.4-0.3,1,0.1,1.4l1.2,1.2c0.2,0.2,0.5,0.3,0.8,0.3c0.2,0,0.5-0.1,0.7-0.2l1-0.8c0.4,0.2,0.9,0.4,1.4,0.6l0.1,1.2
		c0.1,0.5,0.5,1,1.1,1h1.7c0.6,0,1-0.4,1.1-1l0.1-1.2c0.5-0.1,1-0.3,1.4-0.6l0.9,0.8c0.2,0.2,0.4,0.2,0.7,0.2c0.3,0,0.6-0.1,0.8-0.3
		l1.2-1.2c0.4-0.4,0.4-1,0.1-1.4l-0.7-0.9c0.3-0.5,0.5-1,0.6-1.5l1.1-0.1c0.5-0.1,1-0.5,1-1.1v-1.7C40,27,39.6,26.5,39,26.5z
		 M36.7,29l-0.1,0.6c-0.2,0.7-0.4,1.4-0.9,2L35.4,32l1.2,1.4L36,34l-1-0.8l-0.4-0.4l-0.5,0.3c-0.6,0.4-1.3,0.7-2,0.8L31.4,34l0,0.6
		l-0.1,1.2h-0.8l-0.1-1.2V34l-0.6-0.1c-0.7-0.1-1.3-0.4-1.9-0.8l-0.5-0.4l-0.4,0.4l-1,0.8l-0.6-0.6l0.8-1l0.5-0.5l-0.4-0.5
		c-0.4-0.6-0.7-1.2-0.8-1.9l-0.1-0.6l-0.6,0l-1.3-0.1V28l1.2-0.1h0.7l0.1-0.6c0.1-0.7,0.4-1.4,0.8-2l0.3-0.5l-0.4-0.4l-0.8-1
		l0.6-0.6l1.4,1.2l0.5-0.3c0.6-0.4,1.3-0.7,2-0.9l0.6-0.1l0.2-1.8h0.8l0.2,1.8l0.6,0.1c0.7,0.1,1.4,0.4,2.1,0.8l0.5,0.3l1.4-1.1
		l0.6,0.6l-1.1,1.4l0.3,0.5c0.4,0.6,0.7,1.3,0.8,2.1l0.1,0.6l1.8,0.2v0.8L36.7,29z"/>
	<path class="st0" d="M31,24.2c-2.3,0-4.2,1.9-4.2,4.2c0,2.3,1.9,4.2,4.2,4.2c2.3,0,4.2-1.9,4.2-4.2C35.1,26,33.3,24.2,31,24.2z
		 M31,30.9c-1.4,0-2.6-1.2-2.6-2.6c0-1.4,1.2-2.6,2.6-2.6c1.4,0,2.6,1.2,2.6,2.6C33.6,29.8,32.4,30.9,31,30.9z"/>
	<path class="st0" d="M11.6,20.3c-2.1,1.9-4.2,3.8-6.3,5.7c-0.4,0.4-0.5,0.8-0.4,1.1c0.1,0.3,0.5,0.6,0.8,0.6c0,0,0.1,0,0.1,0
		c0.3,0,0.6-0.2,0.8-0.4c1.4-1.3,2.9-2.6,4.3-3.9l1.4-1.3l2.5-2.3c1.4,1.7,3.1,2.6,5.1,2.6c2,0,3.7-0.9,5.1-2.7
		c1.4-1.4,4.2-4.5,6.6-7.2c1-1.1,2-2.2,2.7-3c0.3-0.4,0.5-0.7,0.5-1c0-0.2-0.1-0.4-0.3-0.6c-0.2-0.2-0.4-0.3-0.6-0.3
		c-0.3,0-0.7,0.2-1,0.6l-2,2.1c-2.6,2.9-5.2,5.7-7.8,8.6c-0.8,0.9-1.7,1.3-2.6,1.5c-0.2,0-0.5,0-0.7,0c-1.1,0-2.1-0.4-2.8-1.2
		c-1.2-1.3-2.5-2.6-3.6-3.9c-0.5-0.5-0.9-1-1.4-1.5l-2.3-2.5c-1-1.1-2-2.2-3-3.3C6.5,7.9,6.2,7.7,5.9,7.7c-0.2,0-0.3,0-0.5,0.1
		C5,8.1,4.9,8.5,5,8.9C5,9.1,5.1,9.3,5.4,9.6c2.1,2.3,4.2,4.6,6.3,6.9l1.6,1.8c0.1,0.1,0.3,0.3,0.3,0.3s-0.2,0.2-0.3,0.3L11.6,20.3z
		"/>
	<path class="st0" d="M21.9,30.6l0-0.1l-5.7,0c-3.9,0-7.8,0-11.6,0c-1.1,0-1.8-0.4-2.2-1.2C2.1,28.9,2,28.5,2,28.1
		c0-7.3,0-14.5,0-21.2c0-1.5,1-2.4,2.5-2.4l25.9,0c1.6,0,3.3,0,4.9,0c1.6,0,2.6,0.9,2.6,2.5c0,4.1,0,8.3,0,12.4l0,1.6l0.1,0
		c0.2,0.2,0.3,0.3,0.5,0.5l0,0l0,0c0.4,0.2,0.8,0.4,1.1,0.6l0.3,0.1l0-0.3c0-2.2,0-4.3,0-6.5l0-4.3c0-1.5,0-3,0-4.5
		c0-1.8-1.1-3.3-2.7-4c-0.3-0.1-0.7-0.2-1.1-0.2c-2,0-4,0-6.1,0l-8.6,0c-5.5,0-11.4,0-17.3,0c-1.9,0-3.5,1.5-3.9,2.9
		C0.1,5.9,0,6.4,0,6.9C0,13.9,0,21,0,28c0,2.5,1.8,4.4,4.4,4.4c1.9,0,3.8,0,5.7,0l12.4,0l-0.1-0.2C22.2,31.6,22,31.1,21.9,30.6z"/>
</g>
</svg>
