<?xml version="1.0" encoding="utf-8"?>
<!-- Generator: Adobe Illustrator 23.0.1, SVG Export Plug-In . SVG Version: 6.00 Build 0)  -->
<svg version="1.1" id="Capa_1" xmlns="http://www.w3.org/2000/svg" xmlns:xlink="http://www.w3.org/1999/xlink" x="0px" y="0px"
	 viewBox="0 0 40 40" style="enable-background:new 0 0 40 40;" xml:space="preserve">
<style type="text/css">
	.st0{fill:#2C2F33;}
</style>
<path class="st0" d="M3.1,39.7c-1.6,0-2.9-1.3-2.9-2.9V3.1c0-1.6,1.3-2.9,2.9-2.9h18.7c1.6,0,2.9,1.3,2.9,2.9v2.3l0.4,0
	c8,0,14.6,6.6,14.6,14.6s-6.5,14.6-14.6,14.6l-0.4,0v2.3c0,1.6-1.3,2.9-2.9,2.9H3.1z M3.1,1.7c-0.8,0-1.4,0.6-1.4,1.4v33.8
	c0,0.8,0.6,1.4,1.4,1.4h18.7c0.8,0,1.4-0.6,1.4-1.4v-2.4l-0.4-0.1c-7.1-1.1-12.4-7.3-12.4-14.4c0-7.1,5.3-13.4,12.4-14.4l0.4-0.1
	V3.1c0-0.8-0.6-1.4-1.4-1.4H3.1z M17.6,28.3l0,2.3l0.2,0.1c2.2,1.5,4.7,2.3,7.4,2.3c2.9,0,5.6-0.9,7.8-2.6l0.1-0.1l0.1-0.2l0-1.5
	l-4.4-2.2l-3.3,2.5l-3.8-2.6L17.6,28.3z M25.1,7c-7.2,0-13,5.8-13,13c0,3.1,1.1,6.1,3.1,8.5l0.8,0.9v-1.2c0-0.5,0.3-1,0.7-1.2
	l4.5-2.3v-1.2l-0.1-0.1c-1.4-1.2-2.1-2.9-2.1-4.7c-0.1-0.6-0.3-3.6,1.5-5.4l0.1-0.1c2.1-1.6,3.9-2.4,5.6-2.4c0.3,0,0.6,0,0.9,0.1
	c1.3,0.2,2.4,1,3.3,2.3l0,0.1l0.1,0.1c0.9,0.4,1.6,1.2,1.8,2.2c0.3,1.1,0.1,2.4-0.4,3.3l0,0.1l0,0.1c-0.1,1.8-1,3.5-2.4,4.6
	l-0.1,0.1l-0.1,0.2v0.9l4.8,2.4c0.3,0.1,0.5,0.4,0.6,0.7l0.3,0.7l0.5-0.6c1.8-2.3,2.8-5.2,2.8-8.1C38.2,12.8,32.3,7,25.1,7z
	 M23.3,25.6l2,1.4l1.8-1.3l-0.3-0.7l-0.2,0c-0.4,0.1-0.8,0.1-1.2,0.1c-0.5,0-1-0.1-1.5-0.2l-0.2-0.1L23.3,25.6z M23.4,17.3
	c-0.3,0.4-0.8,0.8-1.3,1.1c-0.4,0.2-0.7,0.4-1.1,0.5l-0.4,0.1l0.1,0.4c0.3,2.3,2.4,4.1,4.7,4.1c2.5,0,4.6-1.9,4.8-4.4l0-0.5l-0.6,0
	c-2.4,0-4.2-0.5-5.6-1.4L23.7,17L23.4,17.3z M21.3,14.9c-0.3,0.4-0.5,1-0.7,1.7l-0.2,1l0.9-0.6c0.5-0.3,0.8-0.7,1.1-1.1l0.1-0.2
	l-0.1-0.2c-0.1-0.2-0.2-0.4-0.3-0.6l-0.3-0.7L21.3,14.9z M26.2,12.5c-0.8,0-1.7,0.3-2.6,0.8l-0.3,0.2l0.1,0.4
	c1.2,2.9,4.1,3.2,6.2,3.2c0.3,0,0.6,0,0.9,0l0.5,0l0-0.5c0-0.2,0-0.3-0.1-0.5c-0.2-0.6-0.6-1-1.1-1.2l-0.3-0.1l-0.2-0.2
	c-0.7-1.1-1.5-1.8-2.4-1.9C26.5,12.5,26.4,12.5,26.2,12.5z"/>
<path class="st0" d="M10.1,34.9c-0.4,0-0.7-0.3-0.7-0.7s0.3-0.7,0.7-0.7h4.8c0.4,0,0.7,0.3,0.7,0.7s-0.3,0.7-0.7,0.7H10.1z"/>
</svg>
