<?xml version="1.0" encoding="utf-8"?>
<!-- Generator: Adobe Illustrator 23.0.1, SVG Export Plug-In . SVG Version: 6.00 Build 0)  -->
<svg version="1.1" id="Capa_1" xmlns="http://www.w3.org/2000/svg" xmlns:xlink="http://www.w3.org/1999/xlink" x="0px" y="0px"
	 viewBox="0 0 40 40" style="enable-background:new 0 0 40 40;" xml:space="preserve">
<style type="text/css">
	.st0{fill:#2C2F33;}
</style>
<g>
	<path class="st0" d="M15.1,23.4c0.4,0,0.7-0.3,0.7-0.7c0-0.4-0.3-0.7-0.7-0.7c-0.4,0-0.7,0.3-0.7,0.7
		C14.4,23.1,14.7,23.4,15.1,23.4z"/>
	<path class="st0" d="M17.3,23.4c0.4,0,0.7-0.3,0.7-0.7c0-0.4-0.3-0.7-0.7-0.7c-0.4,0-0.7,0.3-0.7,0.7C16.7,23.1,17,23.4,17.3,23.4z
		"/>
	<circle class="st0" cx="19.6" cy="22.7" r="0.7"/>
	<circle class="st0" cx="21.7" cy="22.7" r="0.7"/>
	<path class="st0" d="M36.9,14.8h-0.5c-0.7,0.6-1.5,1.1-2.4,1.5h2.9c0.9,0,1.6,0.7,1.6,1.6v1.3h-26v-1.3c0-0.9,0.7-1.6,1.6-1.6h13
		c-0.9-0.4-1.7-0.9-2.4-1.5H14.1c-1,0-1.8,0.4-2.4,1.1c-0.5-0.3-1.1-0.4-1.7-0.5c-1.2-0.1-2.5,0.3-3.5,1.2l-6.2,5.1
		c-0.3,0.3-0.4,0.7-0.1,1.1C0.3,22.9,0.5,23,0.7,23c0.2,0,0.3-0.1,0.5-0.2l6.2-5.1c0.7-0.6,1.6-0.9,2.4-0.8c0.4,0,0.8,0.1,1.2,0.3
		c0,0.2-0.1,0.4-0.1,0.6V29c-0.8,0.4-1.4,0.7-1.5,0.7c-0.4,0.2-0.5,0.6-0.4,1c0.2,0.4,0.6,0.6,1,0.4c0.1,0,0.6-0.3,3.6-1.8
		c2.7-1.3,6.4-3.1,6.7-3.3c1.3-0.5,2.5-0.2,3,0.6c0.5,0.9,0.1,2.1-1,3.1l-10.5,8c-0.8,0.6-1.6,0.8-2.5,0.8l-8.1,0.1
		c-0.4,0-0.8,0.3-0.7,0.8c0,0.4,0.3,0.7,0.8,0.7c0,0,0,0,0,0l8.1-0.1c1.2,0,2.3-0.4,3.3-1.1l0.7-0.5c0.8,0.8,1.9,1.2,2.8,1.1
		c0.7-0.1,1.4-0.4,1.9-1c0.7,1,1.7,1.5,2.7,1.5c0,0,0.1,0,0.1,0c1.1,0,2-0.7,2.7-1.9c1.2,0.9,2.3,0.9,3,0.6c1.4-0.5,2.5-2.2,3-4.8
		h7.2c1.7,0,3.1-1.4,3.1-3.1V17.9C40,16.2,38.6,14.8,36.9,14.8z M20.4,26C20.4,26,20.4,26,20.4,26C20.4,26,20.4,26,20.4,26z
		 M26.2,37.2c-0.8,0.2-1.6-0.3-2.1-0.8c-0.2-0.2-0.5-0.3-0.8-0.2c-0.3,0.1-0.5,0.3-0.6,0.5c-0.4,1.1-1.1,1.7-1.8,1.7c0,0,0,0,0,0
		c-0.7,0-1.4-0.6-1.9-1.6c-0.2-0.3-0.5-0.5-0.8-0.5c-0.3,0-0.6,0.2-0.8,0.5c-0.2,0.5-0.7,1-1.3,1.1c-0.5,0-1-0.2-1.5-0.5l4.6-3.5
		h8.9C27.7,35.7,27,36.9,26.2,37.2z M38.5,30.8c0,0.9-0.7,1.6-1.6,1.6H21.2l2.1-1.6l0,0c0.9-0.7,1.4-1.6,1.7-2.5
		c0.2-0.9,0.1-1.8-0.3-2.5c-0.9-1.5-2.8-2-4.8-1.3c-0.1,0-0.1,0-6.9,3.4c-0.2,0.1-0.4,0.2-0.5,0.3v-7.5h26V30.8z"/>
	<path class="st0" d="M30.6,16.1c2.9,0,5.5-1.5,7-4c0.2-0.4,0.1-0.8-0.3-1c-0.4-0.2-0.8-0.1-1,0.3c-1.2,2-3.4,3.3-5.7,3.3
		c-3.6,0-6.6-3-6.6-6.6c0-3.6,3-6.6,6.6-6.6c3.1,0,5.8,2.2,6.4,5.1h-1.1c-0.1,0-0.3,0.1-0.3,0.2c-0.1,0.1,0,0.3,0.1,0.4l1.8,2.2
		c0.1,0.1,0.2,0.1,0.3,0.1c0.1,0,0.2,0,0.3-0.1l1.8-2.2C40,7.1,40,6.9,39.9,6.8c-0.1-0.1-0.2-0.2-0.3-0.2h-1.1
		c-0.7-3.8-4-6.6-7.9-6.6c-4.4,0-8.1,3.6-8.1,8.1S26.1,16.1,30.6,16.1z"/>
	<path class="st0" d="M30.6,2.5c-0.4,0-0.7,0.3-0.7,0.7V7c-0.3,0.2-0.6,0.6-0.6,1.1c0,0.7,0.6,1.3,1.3,1.3c0.2,0,0.4,0,0.5-0.1
		l2.6,1.5c0.1,0.1,0.2,0.1,0.4,0.1c0.3,0,0.5-0.1,0.6-0.4c0.2-0.4,0.1-0.8-0.3-1L31.9,8c0-0.4-0.2-0.7-0.5-0.9V3.2
		C31.3,2.8,31,2.5,30.6,2.5z M30.6,8.6c-0.3,0-0.6-0.2-0.6-0.5c0-0.3,0.2-0.6,0.6-0.6c0.3,0,0.6,0.2,0.6,0.6
		C31.1,8.4,30.9,8.6,30.6,8.6z"/>
</g>
</svg>
