<?xml version="1.0" encoding="utf-8"?>
<!-- Generator: Adobe Illustrator 23.0.1, SVG Export Plug-In . SVG Version: 6.00 Build 0)  -->
<svg version="1.1" id="Capa_1" xmlns="http://www.w3.org/2000/svg" xmlns:xlink="http://www.w3.org/1999/xlink" x="0px" y="0px"
	 viewBox="0 0 40 40" style="enable-background:new 0 0 40 40;" xml:space="preserve">
<g>
	<path d="M0.5,25.5c0.2,0.1,0.4,0.1,0.6,0.1c12.6,0,25.3,0,37.9,0c0,0,0.1,0,0.1,0c0.6,0,0.9-0.4,0.9-1c0-7.2,0-14.5,0-21.7
		c0-0.6-0.4-0.9-0.9-0.9c-5.7,0-11.5,0-17.2,0c-0.1,0-0.2,0-0.3,0c-0.4,0.1-0.6,0.5-0.6,0.9c0,2.7,0,5.3,0,8c0,0,0,0.1,0,0.1
		c0,0.5,0.4,0.9,0.9,0.9c0.8,0,1.7,0,2.5,0c0,0,0.1,0,0.2,0c-1.5,1.9-3,3.9-4.5,5.8c-1.5-1.9-3-3.9-4.5-5.8c0.1,0,0.1,0,0.2,0
		c0.8,0,1.7,0,2.5,0c0.6,0,0.9-0.4,0.9-0.9c0-2.7,0-5.4,0-8.1c0-0.6-0.4-1-1-1c-5.8,0-11.5,0-17.3,0c-0.1,0-0.1,0-0.2,0
		C0.2,2.1,0,2.4,0,2.9c0,7.2,0,14.5,0,21.7c0,0,0,0.1,0,0.1C0,25,0.2,25.3,0.5,25.5z M1.8,3.8c5.1,0,10.3,0,15.4,0
		c0,2.1,0,4.2,0,6.4c-0.1,0-0.1,0-0.2,0c-1.1,0-2.3,0-3.4,0c-0.5,0-0.8,0.3-0.9,0.7c-0.1,0.3,0,0.6,0.2,0.8c0.7,0.9,1.3,1.7,2,2.6
		c1.3,1.7,2.7,3.4,4,5.1c0.1,0.1,0.2,0.3,0.3,0.4c0.4,0.5,1,0.5,1.4,0c0.5-0.6,1-1.3,1.6-2c1.6-2.1,3.2-4.1,4.8-6.2
		c0.5-0.6,0.2-1.3-0.5-1.5c-0.1,0-0.2,0-0.3,0c-1.1,0-2.2,0-3.3,0c-0.1,0-0.1,0-0.2,0c0-2.1,0-4.2,0-6.4c5.1,0,10.3,0,15.4,0
		c0,6.7,0,13.3,0,20c-12.1,0-24.2,0-36.3,0C1.8,17.1,1.8,10.4,1.8,3.8z"/>
	<polygon points="0,31.6 2.4,31.6 2.4,38.1 4.5,38.1 4.5,31.6 6.9,31.6 6.9,30 0,30 	"/>
	<path d="M15.7,34.8c0.2-0.4,0.3-0.8,0.3-1.5v-1c0-0.8-0.2-1.4-0.5-1.8c-0.4-0.4-1-0.5-1.8-0.5H8.9v8.1H11v-2.4h1.6l1.3,2.4h2.2
		l-1.4-2.5C15.2,35.4,15.5,35.2,15.7,34.8z M14,33.3c0,0.5-0.2,0.7-0.7,0.7H11v-2.4h2.3c0.5,0,0.7,0.2,0.7,0.7V33.3z"/>
	<polygon points="18,31.6 19,31.6 19,36.4 18,36.4 18,38.1 22.2,38.1 22.2,36.4 21.1,36.4 21.1,31.6 22.2,31.6 22.2,30 18,30 	"/>
	<path d="M26.6,30l-3.1,8.1h2.2l0.5-1.4h2.9l0.5,1.4H32L28.9,30H26.6z M26.8,35.1l0.9-2.7l0.9,2.7H26.8z"/>
	<polygon points="35.8,30 33.7,30 33.7,38.1 40,38.1 40,36.4 35.8,36.4 	"/>
</g>
</svg>
