<?xml version="1.0" encoding="utf-8"?>
<!-- Generator: Adobe Illustrator 23.0.1, SVG Export Plug-In . SVG Version: 6.00 Build 0)  -->
<svg version="1.1" id="Capa_1" xmlns="http://www.w3.org/2000/svg" xmlns:xlink="http://www.w3.org/1999/xlink" x="0px" y="0px"
	 viewBox="0 0 40 40" style="enable-background:new 0 0 40 40;" xml:space="preserve">
<style type="text/css">
	.st0{fill:#2C2F33;}
</style>
<g>
	<path class="st0" d="M35.5,2.6L35.5,2.6c-4.4,0-31.6,0-31.6,0C1.5,2.6,0,4.1,0,6.5c0,7.4,0,14.8,0,22.2c0,2.4,1.5,3.9,3.9,3.9
		c3,0,13.3,0,13.3,0v-2.1l-13.1,0c-1.5,0-2-0.5-2-2c0-7,0.1-22.2,0.1-22.2S16,16,19,18.2c0.5,0.3,0.8,0.5,1,0.5
		c0.3,0,0.6-0.2,1.1-0.5l16.9-12v10H40V5.5C39.5,3.5,37.9,2.6,35.5,2.6z M20,16.3L3.9,4.8h32.2L20,16.3z"/>
	<path class="st0" d="M31.4,20.5c-4.6,0-8.4,3.8-8.4,8.4c0,4.7,3.7,8.5,8.4,8.5l0,0c4.7,0,8.5-3.8,8.5-8.4
		C39.8,24.3,36,20.5,31.4,20.5z M25.8,32.5c-1.7-2-1.5-5.7,0.6-8c1.3-1.4,3.1-2.2,5-2.2c1.3,0,2.5,0.4,3.5,1.1l0.4,0.3l-9.3,9.3
		L25.8,32.5z M36.2,33.6c-1.3,1.3-3.1,2.1-5,2.1c-1.3,0-2.5-0.4-3.5-1.1l-0.4-0.3l9.3-9.3l0.3,0.3C38.7,27.5,38.4,31.3,36.2,33.6z"
		/>
</g>
</svg>
