<?xml version="1.0" encoding="utf-8"?>
<!-- Generator: Adobe Illustrator 23.0.1, SVG Export Plug-In . SVG Version: 6.00 Build 0)  -->
<svg version="1.1" id="Capa_1" xmlns="http://www.w3.org/2000/svg" xmlns:xlink="http://www.w3.org/1999/xlink" x="0px" y="0px"
	 viewBox="0 0 40 40" style="enable-background:new 0 0 40 40;" xml:space="preserve">
<style type="text/css">
	.st0{fill:#3A3A3A;}
</style>
<path class="st0" d="M29.5,34c-2.1,0-4-0.8-5.5-2.2c-0.1-0.1-0.1-0.1-0.2-0.2c-0.5-0.5-0.9-1.1-1.3-1.7h-19c-2,0-3.6-1.6-3.6-3.6
	V9.5C0,7.6,1.6,6,3.6,6h25.3c2,0,3.6,1.6,3.6,3.6l0,8.7c1.1,0.4,2,1,2.8,1.8c1.8,1.8,2.7,4.4,2.3,7l1.1-0.7c0.2-0.1,0.3-0.1,0.5-0.1
	c0.3,0,0.6,0.2,0.8,0.4c0.3,0.4,0.2,1-0.3,1.3l-2.9,1.9c-0.2,0.1-0.3,0.1-0.5,0.1c-0.1,0-0.1,0-0.2,0c-0.1,0-0.3-0.1-0.4-0.2
	c-0.1-0.1-0.1-0.1-0.2-0.2l-1.9-2.9c-0.1-0.2-0.2-0.5-0.1-0.7c0.1-0.2,0.2-0.5,0.4-0.6c0.2-0.1,0.3-0.1,0.5-0.1
	c0.3,0,0.6,0.2,0.8,0.4l0.7,1c0.3-1.9-0.4-3.8-1.8-5.2c-1.2-1.2-2.7-1.8-4.4-1.8c-1.7,0-2.8,0.3-4,1.5c-0.2,0.2-0.4,0.3-0.7,0.3
	c-0.2,0-0.5-0.1-0.7-0.3c-0.2-0.2-0.3-0.4-0.3-0.7c0-0.2,0.1-0.5,0.3-0.7c1.5-1.5,3.1-2.1,5.3-2.1c0.3,0,0.6,0,0.9,0.1V9.5
	c0-0.1,0-0.2,0-0.4L18.1,19.3c-0.1,0-0.1,0.1-0.2,0.1c-0.5,0.3-1.1,0.5-1.7,0.5c-0.6,0-1.2-0.2-1.7-0.5L2.1,9.2c0,0.1,0,0.2,0,0.4
	v16.9c0,0.8,0.7,1.5,1.5,1.5l18.1,0c-0.3-1-0.3-2-0.2-3l-1.1,0.6c-0.1,0.1-0.3,0.1-0.5,0.1c-0.2,0-0.5-0.1-0.7-0.3
	c-0.1-0.1-0.1-0.1-0.1-0.2C19,25,19,24.7,19.1,24.5c0.1-0.2,0.2-0.4,0.4-0.6l3-1.7c0.1-0.1,0.3-0.1,0.5-0.1c0.1,0,0.2,0,0.2,0
	c0.2,0.1,0.4,0.2,0.6,0.4l1.7,3c0.1,0.2,0.2,0.5,0.1,0.7c-0.1,0.2-0.2,0.4-0.4,0.6c-0.1,0.1-0.3,0.1-0.5,0.1c-0.3,0-0.6-0.2-0.8-0.5
	l-0.6-1.1c-0.2,1.8,0.5,3.6,1.8,4.9c0,0,0.1,0.1,0.1,0.1c1.2,1.1,2.7,1.7,4.3,1.7c0.1,0,0.1,0,0.2,0c1.7-0.1,2.9-0.5,4.1-1.7
	c0.2-0.2,0.4-0.3,0.7-0.3c0.2,0,0.5,0.1,0.6,0.3c0.2,0.2,0.3,0.4,0.3,0.6c0,0.2-0.1,0.5-0.3,0.7c-1.5,1.6-3.2,2.2-5.4,2.3
	C29.7,34,29.6,34,29.5,34z M15.7,17.7c0.1,0.1,0.3,0.1,0.5,0.1c0.2,0,0.5-0.1,0.6-0.2L28.5,8L3.9,8L15.7,17.7z"/>
</svg>
