<?xml version="1.0" encoding="utf-8"?>
<!-- Generator: Adobe Illustrator 23.0.1, SVG Export Plug-In . SVG Version: 6.00 Build 0)  -->
<svg version="1.1" id="Capa_1" xmlns="http://www.w3.org/2000/svg" xmlns:xlink="http://www.w3.org/1999/xlink" x="0px" y="0px"
	 viewBox="0 0 40 40" style="enable-background:new 0 0 40 40;" xml:space="preserve">
<style type="text/css">
	.st0{fill:#2C2F33;}
</style>
<g>
	<path class="st0" d="M17.6,24.4h-2.2c-1.1,0-2,0.9-2,2v2.2c0,1.1,0.9,2,2,2h2.2c1.1,0,2-0.9,2-2v-2.2
		C19.6,25.3,18.7,24.4,17.6,24.4z M17.8,28.9h-2.6v-2.6h2.6V28.9z"/>
	<path class="st0" d="M8.7,24.4H6.5c-1.1,0-2,0.9-2,2v2.2c0,1.1,0.9,2,2,2h2.2c1.1,0,2-0.9,2-2v-2.2C10.7,25.3,9.8,24.4,8.7,24.4z
		 M8.9,28.9H6.2v-2.6h2.6V28.9z"/>
	<path class="st0" d="M10.7,17.6c0-1.1-0.9-2-2-2H6.5c-1.1,0-2,0.9-2,2v2.2c0,1.1,0.9,2,2,2h2.2c1.1,0,2-0.9,2-2V17.6z M8.9,20H6.2
		v-2.6h2.6V20z"/>
	<path class="st0" d="M19.6,17.6c0-1.1-0.9-2-2-2h-2.2c-1.1,0-2,0.9-2,2v2.2c0,1.1,0.9,2,2,2h2.2c1.1,0,2-0.9,2-2V17.6z M17.8,20
		h-2.6v-2.6h2.6V20z"/>
	<path class="st0" d="M24.2,15.5c-1.1,0-2,0.9-2,2v2.2c0,1.1,0.9,2,2,2h2.2c0,0,0,0,0,0c0.4-0.2,0.9-0.4,1.3-0.5
		c0.4-0.4,0.6-0.9,0.6-1.5v-2.2c0-1.1-0.9-2-2-2H24.2z M26.7,20H24v-2.6h2.6V20z"/>
	<path class="st0" d="M4.2,33.3c-1.3,0-2.4-1.1-2.4-2.4V10.7h29.3v10c0.6,0,1.2,0.1,1.8,0.2V6.5c0-2.3-1.9-4.2-4.2-4.2H24V0.9
		C24,0.4,23.6,0,23.1,0c-0.5,0-0.9,0.4-0.9,0.9v1.3H10.7V0.9c0-0.5-0.4-0.9-0.9-0.9C9.3,0,8.9,0.4,8.9,0.9v1.3H4.2
		C1.9,2.2,0,4.1,0,6.5v24.4c0,2.3,1.9,4.2,4.2,4.2h17.4c-0.3-0.6-0.5-1.2-0.6-1.8H4.2z M1.8,6.5C1.8,5.1,2.9,4,4.2,4h4.7v1.3
		c0,0.5,0.4,0.9,0.9,0.9c0.5,0,0.9-0.4,0.9-0.9V4h11.5v1.3c0,0.5,0.4,0.9,0.9,0.9c0.5,0,0.9-0.4,0.9-0.9V4h4.7
		c1.3,0,2.4,1.1,2.4,2.4v2.4H1.8V6.5z"/>
	<path class="st0" d="M30.9,21.8c-5,0-9.1,4.1-9.1,9.1c0,5,4.1,9.1,9.1,9.1c5,0,9.1-4.1,9.1-9.1C40,25.9,35.9,21.8,30.9,21.8z
		 M30.9,38.3c-4.1,0-7.4-3.3-7.4-7.4c0-4.1,3.3-7.4,7.4-7.4c4.1,0,7.4,3.3,7.4,7.4C38.3,35,35,38.3,30.9,38.3z"/>
	<path class="st0" d="M34.1,27.9c-0.2,0-0.5,0.1-0.6,0.3l-3.6,3.6l-1.5-1.5C28.2,30.1,28,30,27.7,30c-0.2,0-0.5,0.1-0.6,0.3
		c-0.2,0.2-0.3,0.4-0.3,0.6c0,0.2,0.1,0.5,0.3,0.6l2.1,2.1c0.2,0.2,0.4,0.3,0.6,0.3s0.5-0.1,0.6-0.3l4.2-4.2c0.4-0.4,0.4-0.9,0-1.3
		C34.5,28,34.3,27.9,34.1,27.9z"/>
</g>
</svg>
