<svg xmlns="http://www.w3.org/2000/svg" viewBox="0 0 150 150.093">
  <defs>
    <style>
      .cls-1 {
        fill: #46c955;
      }
    </style>
  </defs>
  <path id="Union_101" data-name="Union 101" class="cls-1" d="M17.792,150.093a17.45,17.45,0,0,1-3.642-.381A17.819,17.819,0,0,1,.387,128.622,76.542,76.542,0,0,1,51.161,71.75a39.845,39.845,0,1,1,47.726,0,83.308,83.308,0,0,1,8.808,3.557,5.853,5.853,0,0,1-5,10.587,64.088,64.088,0,0,0-26.086-6.183c-.508.042-1.059.042-1.567.042-.55,0-1.059-.042-1.567-.042a64.766,64.766,0,0,0-61.615,51.283,6.085,6.085,0,0,0,5.929,7.368h72.16a5.865,5.865,0,0,1,0,11.73ZM46.927,38.508A28.156,28.156,0,0,0,73.605,68.023h2.837a28.133,28.133,0,0,0,0-56.195q-.705-.035-1.4-.035A28.187,28.187,0,0,0,46.927,38.508Zm69.407,105.7V128.072H100.2a5.844,5.844,0,0,1,0-11.688h16.134V100.25a5.844,5.844,0,0,1,11.688,0v16.134h16.134a5.844,5.844,0,1,1,0,11.688H128.022v16.134a5.844,5.844,0,1,1-11.688,0Z" transform="translate(0 0)"/>
</svg>
