<?xml version="1.0" encoding="utf-8"?>
<!-- Generator: Adobe Illustrator 18.0.0, SVG Export Plug-In . SVG Version: 6.00 Build 0)  -->
<!DOCTYPE svg PUBLIC "-//W3C//DTD SVG 1.1//EN" "http://www.w3.org/Graphics/SVG/1.1/DTD/svg11.dtd">
<svg version="1.1" id="Layer_1" xmlns="http://www.w3.org/2000/svg" xmlns:xlink="http://www.w3.org/1999/xlink" x="0px" y="0px"
	 viewBox="0 0 300 300" enable-background="new 0 0 300 300" xml:space="preserve">
<g>
	<path fill="#1C75BC" stroke="#1E65AA" stroke-width="1.8048" stroke-miterlimit="10" d="M128.9,240.1
		c-49.7,0.6-90.5-39.3-91.1-89.1c-0.6-49.7,39.3-90.5,89.1-91.1c27.2-0.3,51.8,11.5,68.5,30.5h52.2c-1.3-2.5-3-5.4-4.9-8.8
		c-13-22.5-14.9-21.1-14.9-21.1c-14,4.8-24.1,7.1-30.4,8.3C187,59.9,174.9,53,161.6,48.5c-2.2-5.9-5.7-16.2-9-31.5
		c0,0,0.2-2.4-25.5-2.1c-25.8,0.3-25.5,2.7-25.5,2.7c-2.9,14.9-6,25.1-8.1,31.2c-13.1,4.4-25,11.3-35.3,20.1
		c-6.2-1.2-16.4-3.5-30.4-8.3c0,0-1.9-1.5-14.9,21.1C0,104.2,2.2,105.2,2.2,105.2c10.4,9.5,17.2,17.1,21.3,22.1
		c-1.7,7.7-2.6,15.7-2.5,24c0.1,7.5,0.9,14.7,2.5,21.7c-4.1,5-10.9,12.5-21.2,22c0,0-2.2,1,10.9,23.5c13,22.5,14.9,21.1,14.9,21.1
		c14-4.8,24.2-7.1,30.4-8.3c10.4,8.9,22.5,15.9,35.8,20.3c2.2,5.9,5.7,16.2,9,31.6c0,0-0.3,2.4,25.5,2.1c25.7-0.3,25.4-2.7,25.4-2.7
		c2.9-14.9,6-25.1,8.1-31.2c13.1-4.4,25-11.3,35.3-20.1c6.3,1.2,16.4,3.5,30.4,8.3c0,0,1.9,1.4,14.9-21.1c2.1-3.6,3.7-6.6,5.1-9.1
		h-52.2C179.5,227.9,155.6,239.8,128.9,240.1z"/>
	<g>
		<g>
			<path fill="#A4C8EA" stroke="#6BA3D1" stroke-width="1.8048" stroke-miterlimit="10" d="M134.1,155l11.5,17l11.9-17H134.1z
				 M163.4,137.7l-24.9-36.2h31.7l12.4,17.8l12.6-17.8h30.8l-28.1,39.7l20.5,29.5l48.3-69.2H298c0,0-46,67.1-59.6,85
				c-1,1.3-2,2.6-3.6,4.2c-0.3,0.3-1,0.9-1.3,1.2c-20.8,16.3-34.1-3.1-35.7-5.4l-15.8-22.3c-0.7,1.1-14,22.5-22.1,28.5
				c-6.2,4.2-22.7,10.4-34.9-6.3l-59.2-85.1h30.8l25.4,36.2L163.4,137.7z"/>
		</g>
		<path fill="#1C75BC" stroke="#1E65AA" stroke-width="1.8048" stroke-miterlimit="10" d="M170.2,101.6h-31.7l24.9,36.2l-41.5,0
			l-25.4-36.2H65.7l59.2,85.1c11.4,15.4,26.8,11.7,34.9,6.3c-1-1.4-25.7-37.9-25.7-37.9h41.2l22.4,31.6c15.1,21.6,33.7,7.1,35.5,5.6
			C233.2,192.1,170.2,101.6,170.2,101.6z"/>
	</g>
</g>
</svg>
