<?xml version="1.0" encoding="utf-8"?>
<!-- Generator: Adobe Illustrator 23.0.3, SVG Export Plug-In . SVG Version: 6.00 Build 0)  -->
<svg version="1.1" id="Layer_1" xmlns="http://www.w3.org/2000/svg" xmlns:xlink="http://www.w3.org/1999/xlink" x="0px" y="0px"
	 viewBox="0 0 1600 261.5" style="enable-background:new 0 0 1600 261.5;" xml:space="preserve">
<style type="text/css">
	.st0{fill:#58585A;}
	.st1{fill:#FE0000;}
</style>
<g>
	<g>
		<g>
			<path class="st0" d="M1560.9,65.6h4.6v12.2h2.9V65.6h4.6v-2.4h-12.2L1560.9,65.6L1560.9,65.6z M1590.7,63.2h-4.1l-2.6,7.2
				c-0.3,1-0.7,2.2-1,3.6l0,0c-0.3-1.5-0.7-2.6-1-3.8l-2.6-7.2h-4.3l-1,14.6h2.7l0.5-8.6c0-1.4,0.2-2.7,0.2-4.1h0.2
				c0.3,1.4,0.7,3.1,1,4.1l2.6,8.4h3.1l2.6-8.1c0.5-1.4,0.9-3.1,1.2-4.3h0.2c0,1.5,0,2.9,0.2,4.1l0.5,8.6h2.9L1590.7,63.2z
				 M1576.3,46.7c-13,0-23.7,10.6-23.7,23.7s10.6,23.7,23.7,23.7c13,0,23.7-10.6,23.7-23.7S1589.5,46.7,1576.3,46.7z M1576.3,89.6
				c-10.6,0-19.2-8.6-19.2-19.2s8.6-19.2,19.2-19.2s19.2,8.6,19.2,19.2C1595.7,81,1587,89.6,1576.3,89.6z M663.2,222.4
				c-3.8,3.9-7.9,7.2-12.2,9.8s-8.9,4.5-13.6,5.7c-4.8,1.2-9.4,1.7-13.9,1.7c-8.6,0-16.5-1.9-23.7-5.8c-7.2-3.9-13.6-9.1-18.9-15.6
				c-5.3-6.5-9.4-14.1-12.4-22.7c-2.9-8.6-4.5-17.5-4.5-26.9c0-8.4,1.2-16.8,3.8-25.1c2.6-8.4,6.2-15.8,11.2-22.5
				c5-6.7,11.2-12,18.5-16.1c7.4-4.1,15.8-6.2,25.2-6.2c4.3,0,8.8,0.5,13.2,1.5s8.9,2.7,13.2,5c4.3,2.4,8.2,5.5,11.8,9.3
				c3.6,3.9,6.7,8.8,9.3,14.4l17.2-11.7c-5.3-11.7-13.4-21.1-24.4-28.3s-24-10.8-39.3-10.8c-12.9,0-24.4,2.6-34.5,7.9
				c-10.1,5.1-18.7,12-25.7,20.6s-12.4,18-16,28.8c-3.6,10.6-5.5,21.5-5.5,32.3c0,11.5,1.9,22.7,5.8,33.6
				c3.9,10.9,9.4,20.9,16.6,29.5c7.2,8.8,15.6,15.8,25.4,21.1c9.8,5.3,20.6,8.1,32.3,8.1c6.5,0,13.4-0.9,20.2-2.7
				c6.9-1.9,13.4-4.5,19.7-8.1c6.2-3.6,11.7-7.9,16.6-13c5-5.1,8.8-11.2,11.5-17.8l-18-10.3C670.1,213.7,667,218.5,663.2,222.4z
				 M815.1,140.6c-3.1-4.8-7.2-8.8-12.4-11.7c-5.2-2.9-11.5-4.3-18.9-4.3c-10.1,0-19.4,2.7-28,8.1c-8.6,5.4-15.3,12.9-20.2,22.5
				V74.4h-21.3v184.3h21.3V179c1.4-5,3.6-9.6,6.3-13.9s6-7.9,9.6-10.8c3.6-3.1,7.6-5.5,11.7-7.2c4.1-1.7,8.4-2.6,12.5-2.6
				c8.8,0,15.3,3.3,19.7,10c4.4,6.7,6.7,16.8,6.7,30.4v73.8h21.3v-78.8c0-7.7-0.7-15.1-2.1-21.8C820.2,151.2,818,145.4,815.1,140.6z
				 M958.6,144.9c-5.5-6.2-12.2-11.2-19.9-14.8c-7.7-3.8-16.5-5.5-25.9-5.5s-18.2,1.9-26.1,5.5c-7.9,3.6-14.8,8.6-20.4,14.8
				s-10.2,13.5-13.3,21.8c-3.1,8.2-4.6,17-4.6,26.3s1.5,18,4.6,26.4c3.1,8.4,7.6,15.6,13.2,21.8c5.7,6.2,12.4,11.2,20.2,14.8
				c7.9,3.6,16.6,5.5,26.1,5.5c6.3,0,12.4-0.9,18-2.6c5.8-1.7,11-3.9,15.8-6.9c4.8-2.9,8.9-6.5,12.5-10.5c3.6-4.1,6.5-8.6,8.6-13.4
				l-18.4-5.3c-1.4,3.4-3.3,6.3-5.7,9.1c-2.6,2.7-5.3,5-8.6,6.9c-3.3,1.9-6.7,3.3-10.3,4.5c-3.8,1-7.6,1.7-11.3,1.7
				c-5.5,0-10.6-1-15.6-3.3c-5-2.2-9.3-5.1-13.2-9.1c-3.8-3.9-7-8.6-9.4-13.9s-3.8-11.3-4.3-17.8h104.5c0.2-0.9,0.3-2.1,0.3-3.6
				s0.2-3.3,0.2-5c0-8.8-1.5-17.2-4.5-25.4C968.2,158.2,964,151,958.6,144.9z M870.2,184c0.5-6.2,1.9-12,4.3-17.2
				c2.4-5.1,5.3-9.8,9.1-13.6c3.8-3.8,8.2-6.7,13.2-8.9c5-2.1,10.3-3.1,16-3.1s11,1,16,3.1c5,2.1,9.4,5,13.2,8.8
				c3.8,3.8,6.9,8.2,9.4,13.6c2.5,5.4,3.9,11.2,4.5,17.3H870.2L870.2,184z M1083.3,229.5c-2.2,2.4-4.8,4.6-7.9,6.5
				c-2.9,1.9-6.3,3.3-10,4.5c-3.6,1-7.2,1.7-11,1.7c-5.8,0-11.2-1.2-16.3-3.8c-5.1-2.6-9.4-6-13.2-10.5c-3.8-4.5-6.9-9.8-9.1-15.8
				s-3.4-12.5-3.4-19.4c0-7,1-13.6,3.3-19.4c2.2-5.8,5.1-11,8.8-15.4c3.8-4.5,8.1-7.7,13.2-10.3c5.1-2.4,10.6-3.6,16.5-3.6
				c7,0,13.6,1.7,19.2,5.1c5.8,3.4,10.3,8.2,13.6,14.6l20.8-6.9c-4.6-9.8-11.5-17.5-20.6-23.3c-9.1-5.8-19.9-8.8-32.4-8.8
				c-9.6,0-18.4,1.9-26.3,5.5c-7.7,3.6-14.6,8.6-20.1,14.6c-5.7,6.2-10,13.4-13,21.6c-3.1,8.2-4.6,17-4.6,26.3
				c0,9.3,1.5,18,4.6,26.4c3.1,8.4,7.6,15.6,13.2,21.8c5.7,6.2,12.4,11.2,20.2,14.9c7.9,3.8,16.6,5.5,26.1,5.5
				c6.3,0,12.2-0.9,18-2.6c5.7-1.7,10.8-3.9,15.6-6.9c4.6-2.9,8.8-6.3,12.2-10.3c3.4-4.1,6.2-8.6,8.1-13.4l-20.8-6.5
				C1087.1,224.5,1085.5,227.1,1083.3,229.5z M1242.2,127.2h-23.3l-64.7,68.5V74.5h-21.3v184.3h21.3v-40.7l24.2-23.7l43.4,64.4h23
				l-52.5-77L1242.2,127.2z M1305.2,239.4c-2.4,0.5-4.5,0.9-6.3,0.9c-4.5,0-8.1-1.4-10.5-4.1c-2.6-2.7-3.8-6.5-3.8-11.5V74.3h-21.3
				v158.4c0,8.8,2.4,15.6,7,20.4c4.8,4.8,11.2,7.4,19.4,7.4c3.8,0,7.9-0.5,12.9-1.5c4.8-1,8.9-2.2,12.5-3.8l-3.4-17.8
				C1309.8,238,1307.6,238.7,1305.2,239.4z M1332,258.6h21.3V126.8H1332V258.6z M1469.4,196.9c-4.1-2.9-9.3-5.3-15.4-7.4
				c-6.2-2.1-13.6-4.1-21.8-6.2c-5.3-1.4-9.8-2.6-13.6-3.8c-3.8-1.2-6.9-2.6-9.3-4.1s-4.1-3.3-5.1-5.3c-1-2.1-1.5-4.5-1.5-7.6
				c0-7.6,2.7-13,8.1-16.5c5.3-3.4,12-5.1,19.7-5.1c6.9,0,13.7,1.2,20.2,3.6c6.5,2.4,12.5,6.2,17.8,11l9.6-13.4
				c-5.7-5.1-12.5-9.4-20.8-12.7c-8.2-3.3-17-4.8-26.6-4.8c-6.7,0-13,0.9-18.9,2.6s-11,4.5-15.3,7.9c-4.3,3.4-7.7,7.7-10.3,12.9
				c-2.6,5.1-3.8,11-3.8,17.5c0,5.1,0.9,9.6,2.4,13.2c1.5,3.6,4.1,6.5,7.7,9.1c3.6,2.6,8.1,4.6,13.6,6.5c5.5,1.9,12,3.8,19.6,5.8
				c6,1.5,11.2,2.9,15.6,4.3c4.4,1.4,8.2,2.9,11.2,4.5c2.9,1.7,5.1,3.6,6.5,6c1.4,2.4,2.2,5,2.2,8.2c0,6.9-2.7,12.2-8.1,16
				c-5.3,3.8-12.7,5.7-21.8,5.7c-8.2,0-16-1.5-23.3-4.5c-7.4-2.9-14.8-7.4-22.1-13.2l-9.1,14.9c7,6.2,15.4,11,25.4,14.2
				c9.8,3.3,19.7,5,29.9,5c15.3,0,27.5-3.6,36.4-10.8s13.6-17,13.6-29.3c0-5.5-1-10.3-3.1-14.1
				C1476.6,203,1473.5,199.6,1469.4,196.9z M1559.7,237.9c-3.4,1.4-7.2,2.2-11.5,2.2c-3.8,0-6.9-1-9.6-3.3
				c-2.7-2.2-4.3-5.7-4.6-10.6v-81.9h28.1v-17.5H1534V82.9h-21.3v43.9h-17.2v17.5h17.2V233c0,9.4,2.7,16.3,8.4,20.8
				c5.7,4.5,12.4,6.7,20.1,6.7c3.4,0,6.7-0.3,9.8-0.9c3.1-0.5,6-1.4,8.8-2.2c2.6-0.9,5-1.9,7-2.7c2.1-0.9,3.8-1.7,5.1-2.4l-5.1-17.7
				C1565.5,235.3,1563.1,236.5,1559.7,237.9z"/>
		</g>
	</g>
	<g>
		<g>
			<path class="st1" d="M186.4,202.7H94.6L213.1,43.4L221.9,0h-167L43.6,56.5h81.2L7.9,216.2L0,259.1h175L186.4,202.7z"/>
			<path class="st1" d="M274.7,259.1L327,0h-67.3l-52.3,259.1H274.7z"/>
			<path class="st1" d="M513.8,20.1C498.2,6.7,475.7,0,446.5,0h-63.1L331,259.1h66.2l17-86h14.6c33.6,0,60.1-8.4,79.5-25.4
				c19.4-17,29-40.3,29-70.2C537.3,52.7,529.4,33.5,513.8,20.1z M438.3,56.5h10c7,0,12.7,2.1,16.8,6.3s6.2,10,6.2,16.8
				c0,10.6-3.1,19.4-9.4,26.3c-6.3,6.9-14.6,10.3-24.9,10.3h-11L438.3,56.5z"/>
		</g>
	</g>
	<path class="st1" d="M1339.7,98.4c0.7-1.2,1.2-1.9,1.7-2.7c8.2-14.6,18.4-27.3,30.9-38.1c3.4-2.9,12.5-10.1,16.1-12.9
		c0.3-0.2,0.7-0.5,1-0.7c0.7-0.3,1.2-0.3,1.7,0.3s0.5,1.4,0,1.9c-0.3,0.5-1,0.9-1.5,1.4c-17.8,13.2-35.7,35.7-43.2,53.7
		c-0.7,1.5-1.4,3.4-2.2,5c-0.5,0.9-1.2,1.7-1.9,2.4c-1,1-2.4,1.5-3.6,2.4c-1.2,1-1.7,0.7-2.4-0.7c-1.7-6.5-3.4-10.3-5.8-15.8
		c-1.2-2.6-3.6-5.5-6-6.9c-0.9-0.5-0.9-1.2,0-1.9c2.6-2.4,6.3-3.4,9.1,0.5c2.1,2.7,3.4,5.8,4.8,8.9C1338.5,96.1,1339,97,1339.7,98.4
		z"/>
</g>
</svg>
