<?xml version="1.0" encoding="utf-8"?>
<!-- Generator: Adobe Illustrator 19.2.0, SVG Export Plug-In . SVG Version: 6.00 Build 0)  -->
<svg version="1.1" id="Layer_1" xmlns="http://www.w3.org/2000/svg" xmlns:xlink="http://www.w3.org/1999/xlink" x="0px" y="0px"
	 viewBox="0 0 350 50" style="enable-background:new 0 0 350 50;" xml:space="preserve">
<style type="text/css">
	.st0{fill:#434D60;}
	.st1{fill:#73BF48;}
	.st2{fill:#FFFFFF;}
	.st3{fill:#6FC547;}
</style>
<path class="st2" d="M349.7,5.6c0,3.3-2.5,5.8-5.7,5.8c-3.2,0-5.7-2.6-5.7-5.8c0-3.2,2.6-5.7,5.7-5.7C347.2-0.1,349.7,2.4,349.7,5.6
	z M339.7,5.6c0,2.6,1.8,4.6,4.4,4.6c2.4,0,4.3-2,4.3-4.6c0-2.6-1.8-4.6-4.3-4.6C341.5,1,339.7,3.1,339.7,5.6z M343.1,8.6h-1.3V2.9
	c0.5-0.1,1.2-0.2,2.1-0.2c1.1,0,1.5,0.2,1.9,0.4c0.3,0.2,0.5,0.7,0.5,1.3c0,0.6-0.5,1.1-1.2,1.3v0.1c0.5,0.2,0.9,0.6,1,1.4
	c0.2,0.9,0.3,1.2,0.4,1.4h-1.4c-0.2-0.2-0.3-0.7-0.4-1.4c-0.1-0.6-0.4-0.9-1.2-0.9h-0.6V8.6z M343.1,5.4h0.6c0.7,0,1.3-0.2,1.3-0.8
	c0-0.5-0.4-0.9-1.2-0.9c-0.3,0-0.6,0-0.7,0.1V5.4z"/>
<path class="st3" d="M124,31.5c0.3-0.5,0.5-1,0.8-1.5c1.3-2.4,2.9-4.6,4.7-6.6c3.3-3.5,13.6-15.3,36.4-17.5c0.1,0,0.1,0,0.2,0
	c0,0,0,0.1,0,0.1c-0.4,0.3-0.8,0.6-1.3,0.8c-14.2,3.9-27.1,9.2-37.4,31.9c-1,1.9-1.8,3.9-3,5.4c-0.2,0.5-0.6,1-0.9,1.4
	c-0.4,0.5-0.8,0.5-1.2-0.1c-0.4-0.6-0.6-1.2-0.7-1.9c-1.7-10.7-6.2-15.6-8.1-17.7c-1.1-1.3-2.2-2.4-3.3-3.6
	c-0.2-0.2-0.4-0.5-0.6-0.8c-0.2-0.4-0.1-0.6,0.3-0.5c0.6,0.1,1.2,0.1,1.8,0.3c2.5,0.6,4.6,1.9,6.5,3.5c2,1.7,2.6,2.3,4.1,4.5
	c0.5,0.7,1,1.5,1.5,2.3C123.9,31.4,123.9,31.4,124,31.5z"/>
<g>
	<g>
		<path class="st2" d="M183.7,0.7l-18.3,48.5h8.4l4.8-13.4h18.7l4.9,13.4h8.5L192.4,0.7H183.7z M180.9,29l4.4-12.6
			c1.2-3.2,2-6.2,2.6-8.9c0.2,0.9,0.6,2.3,1.2,4.2c0.6,1.9,1.1,3.3,1.4,4.2l4.6,13.1H180.9z M238,7c2,0,4,0.3,5.8,0.9
			c1.8,0.6,3.6,1.3,5.2,2l2.9-6.6c-4.2-2.1-8.9-3.1-13.9-3.1c-4.8,0-8.9,1-12.4,3c-3.5,2-6.2,4.9-8.1,8.7c-1.9,3.8-2.8,8.2-2.8,13.2
			c0,8,1.9,14.1,5.8,18.4c3.8,4.3,9.3,6.4,16.5,6.4c4.9,0,9.2-0.7,13.1-2.1V41c-2.1,0.6-4.1,1.2-6.1,1.6c-1.9,0.4-4,0.6-6,0.6
			c-4.8,0-8.5-1.5-11-4.6c-2.5-3-3.8-7.5-3.8-13.4c0-5.7,1.3-10.1,4-13.3C229.8,8.6,233.4,7,238,7z M281.5,7c2,0,4,0.3,5.8,0.9
			c1.8,0.6,3.6,1.3,5.2,2l2.9-6.6c-4.2-2.1-8.9-3.1-13.9-3.1c-4.8,0-8.9,1-12.4,3c-3.5,2-6.2,4.9-8.1,8.7c-1.9,3.8-2.8,8.2-2.8,13.2
			c0,8,1.9,14.1,5.8,18.4c3.8,4.3,9.3,6.4,16.5,6.4c4.9,0,9.2-0.7,13.1-2.1V41c-2.1,0.6-4.1,1.2-6.1,1.6c-1.9,0.4-4,0.6-6,0.6
			c-4.8,0-8.5-1.5-11-4.6c-2.5-3-3.8-7.5-3.8-13.4c0-5.7,1.3-10.1,4-13.3C273.2,8.6,276.9,7,281.5,7z M331.9,4.6
			c-3-2.5-7.6-3.7-13.7-3.7h-14.1v48.3h8V31.2h5.1c6.2,0,11-1.3,14.3-4c3.3-2.7,5-6.5,5-11.6C336.5,10.7,335,7.1,331.9,4.6z
			 M325.4,22.4c-1.9,1.4-4.9,2.1-9,2.1h-4.3v-17h5.6c3.6,0,6.3,0.7,8,2c1.7,1.4,2.6,3.4,2.6,6.2C328.3,18.8,327.3,21,325.4,22.4z"/>
	</g>
</g>
<path class="st2" d="M158.9,5.6V0.9h-8v6.7C153.3,6.8,156,6.1,158.9,5.6z"/>
<path class="st2" d="M123.2,28.4c0.1,0.2,0.2,0.3,0.3,0.5c1.3-2.2,2.8-4.3,4.5-6.3l0.5-0.5c0.4-0.4,0.8-0.9,1.4-1.4h-1.6V0.9h-8
	v23.9C121.4,25.9,122,26.7,123.2,28.4z"/>
<path class="st2" d="M150.9,13.3v7.4h-10.2c-1.9,1.9-3.8,4.2-5.7,6.8h15.9v21.8h8V10C156.2,10.9,153.5,12,150.9,13.3z"/>
<path class="st2" d="M127.4,41.2c-0.6,1.3-1.3,2.6-2.1,3.7c-0.2,0.5-0.6,1.1-1.1,1.6c-0.6,0.7-1.2,0.9-1.7,0.9
	c-0.5,0-1.2-0.2-1.8-1.1c-0.2-0.3-0.4-0.6-0.5-0.9v3.8h8v-9.8C128,40,127.7,40.6,127.4,41.2z"/>
<g>
	<g>
		<path class="st3" d="M42.9,8.5l1.8-8.2H11.3L9,11h16.2L1.9,41.2l-1.6,8.1h35l2.3-10.7H19.2L42.9,8.5z M50.9,0.3l-10.5,49h13.4
			l10.5-49H50.9z M100.3,4.1c-3.1-2.5-7.6-3.8-13.5-3.8H74.2l-10.5,49H77l3.4-16.3h2.9c6.7,0,12-1.6,15.9-4.8
			C103,25,105,20.6,105,15C105,10.2,103.4,6.6,100.3,4.1z M89.8,20.4c-1.3,1.3-2.9,2-5,2h-2.1L85.2,11h2c1.4,0,2.5,0.4,3.4,1.2
			c0.8,0.8,1.2,1.9,1.2,3.2C91.7,17.4,91.1,19,89.8,20.4z"/>
	</g>
</g>
</svg>
