<?xml version="1.0" encoding="UTF-8" standalone="no"?>
<!-- Created with Inkscape (http://www.inkscape.org/) -->

<svg
   xmlns:dc="http://purl.org/dc/elements/1.1/"
   xmlns:cc="http://creativecommons.org/ns#"
   xmlns:rdf="http://www.w3.org/1999/02/22-rdf-syntax-ns#"
   xmlns:svg="http://www.w3.org/2000/svg"
   xmlns="http://www.w3.org/2000/svg"
   xmlns:sodipodi="http://sodipodi.sourceforge.net/DTD/sodipodi-0.dtd"
   xmlns:inkscape="http://www.inkscape.org/namespaces/inkscape"
   width="1828.3402"
   height="1673.8041"
   id="svg2"
   version="1.1"
   inkscape:version="0.48.2 r9819"
   sodipodi:docname="Square_Logo_Portrait.svg">
  <defs
     id="defs4">
    <linearGradient
       x1="0"
       y1="0"
       x2="1"
       y2="0"
       gradientUnits="userSpaceOnUse"
       gradientTransform="matrix(0,62.407227,62.407227,0,85.624512,40.025391)"
       spreadMethod="pad"
       id="linearGradient24">
      <stop
         style="stop-opacity:1;stop-color:#88898b"
         offset="0"
         id="stop26" />
      <stop
         style="stop-opacity:1;stop-color:#99999b"
         offset="1"
         id="stop28" />
    </linearGradient>
    <linearGradient
       x1="0"
       y1="0"
       x2="1"
       y2="0"
       gradientUnits="userSpaceOnUse"
       gradientTransform="matrix(0,61.240234,61.240234,0,135.18604,23.905273)"
       spreadMethod="pad"
       id="linearGradient44">
      <stop
         style="stop-opacity:1;stop-color:#88898b"
         offset="0"
         id="stop46" />
      <stop
         style="stop-opacity:1;stop-color:#99999b"
         offset="1"
         id="stop48" />
    </linearGradient>
    <linearGradient
       x1="0"
       y1="0"
       x2="1"
       y2="0"
       gradientUnits="userSpaceOnUse"
       gradientTransform="matrix(0,44.948242,44.948242,0,236.17676,40.197266)"
       spreadMethod="pad"
       id="linearGradient64">
      <stop
         style="stop-opacity:1;stop-color:#88898b"
         offset="0"
         id="stop66" />
      <stop
         style="stop-opacity:1;stop-color:#99999b"
         offset="1"
         id="stop68" />
    </linearGradient>
    <linearGradient
       x1="0"
       y1="0"
       x2="1"
       y2="0"
       gradientUnits="userSpaceOnUse"
       gradientTransform="matrix(0,43.931641,43.931641,0,278.63965,41.213867)"
       spreadMethod="pad"
       id="linearGradient84">
      <stop
         style="stop-opacity:1;stop-color:#88898b"
         offset="0"
         id="stop86" />
      <stop
         style="stop-opacity:1;stop-color:#99999b"
         offset="1"
         id="stop88" />
    </linearGradient>
    <linearGradient
       x1="0"
       y1="0"
       x2="1"
       y2="0"
       gradientUnits="userSpaceOnUse"
       gradientTransform="matrix(0,44.948242,44.948242,0,312.06738,40.197266)"
       spreadMethod="pad"
       id="linearGradient104">
      <stop
         style="stop-opacity:1;stop-color:#88898b"
         offset="0"
         id="stop106" />
      <stop
         style="stop-opacity:1;stop-color:#99999b"
         offset="1"
         id="stop108" />
    </linearGradient>
    <linearGradient
       x1="0"
       y1="0"
       x2="1"
       y2="0"
       gradientUnits="userSpaceOnUse"
       gradientTransform="matrix(0,44.058594,44.058594,0,186.74951,40.134766)"
       spreadMethod="pad"
       id="linearGradient124">
      <stop
         style="stop-opacity:1;stop-color:#88898b"
         offset="0"
         id="stop126" />
      <stop
         style="stop-opacity:1;stop-color:#99999b"
         offset="1"
         id="stop128" />
    </linearGradient>
    <linearGradient
       x1="0"
       y1="0"
       x2="1"
       y2="0"
       gradientUnits="userSpaceOnUse"
       gradientTransform="matrix(0,147.09229,147.09229,0,200.00391,122.93945)"
       spreadMethod="pad"
       id="linearGradient144">
      <stop
         style="stop-opacity:1;stop-color:#999b9d"
         offset="0"
         id="stop146" />
      <stop
         style="stop-opacity:1;stop-color:#aeafb1"
         offset="1"
         id="stop148" />
    </linearGradient>
  </defs>
  <sodipodi:namedview
     id="base"
     pagecolor="#ffffff"
     bordercolor="#666666"
     borderopacity="1.0"
     inkscape:pageopacity="0.0"
     inkscape:pageshadow="2"
     inkscape:zoom="0.175"
     inkscape:cx="1648.8174"
     inkscape:cy="945.58394"
     inkscape:document-units="px"
     inkscape:current-layer="layer1"
     showgrid="false"
     showborder="false"
     inkscape:window-width="1024"
     inkscape:window-height="712"
     inkscape:window-x="-4"
     inkscape:window-y="-4"
     inkscape:window-maximized="1"
     fit-margin-top="0"
     fit-margin-left="0"
     fit-margin-right="0"
     fit-margin-bottom="0" />
  <metadata
     id="metadata7">
    <rdf:RDF>
      <cc:Work
         rdf:about="">
        <dc:format>image/svg+xml</dc:format>
        <dc:type
           rdf:resource="http://purl.org/dc/dcmitype/StillImage" />
        <dc:title />
      </cc:Work>
    </rdf:RDF>
  </metadata>
  <g
     inkscape:label="Layer 1"
     inkscape:groupmode="layer"
     id="layer1"
     transform="translate(579.88438,241.68271)">
    <g
       id="g3129"
       transform="matrix(6.8005707,0,0,-6.8005707,-1025.8318,1594.689)">
      <g
         id="g12">
        <g
           id="g14">
          <g
             id="g20">
            <g
               id="g22">
              <path
                 id="path30"
                 style="fill:url(#linearGradient24);stroke:none"
                 d="m 67.603,86.326 c 0,-4.493 1.301,-7.94 3.977,-10.526 l 0,0 c 2.507,-2.42 6.275,-4.148 11.862,-5.443 l 0,0 c 13.731,-3.181 16.553,-7.231 16.562,-12.331 l 0,0 c 0,-6.803 -6.435,-12.336 -14.346,-12.336 l 0,0 -0.047,0 c -4.111,0 -8.038,1.562 -10.773,4.288 l 0,0 c -2.319,2.308 -3.589,5.273 -3.589,8.348 l 0,0 -5.674,0 c 0,-4.591 1.873,-8.975 5.259,-12.358 l 0,0 c 3.793,-3.779 9.17,-5.942 14.771,-5.942 l 0,0 0.056,0 c 5.303,0 10.293,1.83 14.055,5.158 l 0,0 c 3.841,3.405 5.958,7.966 5.958,12.842 l 0,0 c -0.028,11.465 -10.605,15.455 -20.953,17.85 l 0,0 c -9.679,2.242 -11.457,5.277 -11.457,10.45 l 0,0 c 0,5.659 5.533,10.445 12.083,10.445 l 0,0 c 6.695,0 12.131,-4.657 12.131,-10.375 l 0,0 5.676,0 c 0,4.385 -1.902,8.472 -5.355,11.494 l 0,0 c -3.344,2.933 -7.763,4.543 -12.452,4.543 l 0,0 c -9.78,0 -17.744,-7.225 -17.744,-16.107"
                 inkscape:connector-curvature="0" />
            </g>
          </g>
        </g>
      </g>
      <g
         id="g32">
        <g
           id="g34">
          <g
             id="g40">
            <g
               id="g42">
              <path
                 id="path50"
                 style="fill:url(#linearGradient44);stroke:none"
                 d="m 112.514,62.749 c 0,-12.92 10.187,-22.551 23.026,-22.551 l 0,0 c 6.663,0 12.999,2.899 16.683,8.532 l 0,0 0.158,0 0,-24.825 5.477,0 0,60.147 -5.477,0 0,-7.52 -0.158,0 c -3.684,5.715 -10.02,8.613 -16.683,8.613 l 0,0 c -12.596,0 -23.026,-9.553 -23.026,-22.396 m 5.489,-0.239 c 0,10.106 7.356,17.702 17.537,17.702 l 0,0 c 9.719,0 17.152,-8.062 17.152,-17.618 l 0,0 c 0,-9.555 -7.433,-17.466 -17.152,-17.466 l 0,0 c -10.021,0 -17.537,7.362 -17.537,17.382"
                 inkscape:connector-curvature="0" />
            </g>
          </g>
        </g>
      </g>
      <g
         id="g52">
        <g
           id="g54">
          <g
             id="g60">
            <g
               id="g62">
              <path
                 id="path70"
                 style="fill:url(#linearGradient64);stroke:none"
                 d="m 213.505,62.749 c 0,-12.92 10.185,-22.551 23.026,-22.551 l 0,0 c 6.66,0 12.922,2.899 16.677,8.532 l 0,0 0.163,0 0,-7.516 5.478,0 0,42.838 -5.478,0 0,-7.52 -0.163,0 c -3.678,5.795 -9.943,8.613 -16.677,8.613 l 0,0 c -12.606,0 -23.026,-9.553 -23.026,-22.396 m 5.485,-0.239 c 0,10.106 7.363,17.702 17.541,17.702 l 0,0 c 9.713,0 17.143,-8.062 17.143,-17.618 l 0,0 c 0,-9.555 -7.43,-17.466 -17.143,-17.466 l 0,0 c -10.024,0 -17.541,7.362 -17.541,17.382"
                 inkscape:connector-curvature="0" />
            </g>
          </g>
        </g>
      </g>
      <g
         id="g72">
        <g
           id="g74">
          <g
             id="g80">
            <g
               id="g82">
              <path
                 id="path90"
                 style="fill:url(#linearGradient84);stroke:none"
                 d="m 275.422,77.864 -0.144,0 0,6.188 -5.487,0 0,-42.838 5.487,0 0,25.06 c 0,7.675 4.694,12.454 12.21,13.078 l 0,0 0,5.793 c -5.568,-0.39 -9.712,-1.794 -12.066,-7.281"
                 inkscape:connector-curvature="0" />
            </g>
          </g>
        </g>
      </g>
      <g
         id="g92">
        <g
           id="g94">
          <g
             id="g100">
            <g
               id="g102">
              <path
                 id="path110"
                 style="fill:url(#linearGradient104);stroke:none"
                 d="m 289.709,62.594 c 0,-12.292 9.943,-22.396 22.322,-22.396 l 0,0 c 9.476,0 17.929,6.103 21.059,15.034 l 0,0 -5.794,0 c -2.345,-6.345 -8.769,-10.104 -15.345,-10.104 l 0,0 c -8.385,0 -16.215,7.048 -16.608,15.508 l 0,0 38.998,0 c 0,0.548 0.085,1.018 0.085,1.564 l 0,0 c 0,12.376 -9.944,22.945 -22.475,22.945 l 0,0 c -12.299,0 -22.242,-10.333 -22.242,-22.551 m 22.322,17.618 c 8.614,0 15.341,-6.263 16.752,-14.642 l 0,0 -33.44,0 c 1.338,8.379 8.146,14.642 16.688,14.642"
                 inkscape:connector-curvature="0" />
            </g>
          </g>
        </g>
      </g>
      <g
         id="g112">
        <g
           id="g114">
          <g
             id="g120">
            <g
               id="g122">
              <path
                 id="path130"
                 style="fill:url(#linearGradient124);stroke:none"
                 d="m 200.081,84.193 0,-22.736 c 0,-5.034 -0.7,-9.285 -4.479,-12.906 l 0,0 c -2.679,-2.519 -5.509,-3.46 -9.128,-3.46 l 0,0 c -9.836,0 -13.065,6.529 -13.065,15.422 l 0,0 0,23.68 -5.504,0 0,-23.761 c 0,-4.799 0.709,-9.99 3.774,-13.843 l 0,0 c 3.544,-4.486 9.207,-6.454 14.795,-6.454 l 0,0 c 5.67,0 11.251,2.436 13.767,7.712 l 0,0 0.157,0 0,-6.686 5.195,0 0,43.032 -5.512,0 z"
                 inkscape:connector-curvature="0" />
            </g>
          </g>
        </g>
      </g>
      <g
         id="g132">
        <g
           id="g134">
          <g
             id="g140">
            <g
               id="g142">
              <path
                 id="path150"
                 style="fill:url(#linearGradient144);stroke:none"
                 d="m 150.976,270.032 c -13.486,0 -24.517,-11.033 -24.517,-24.516 l 0,0 0,-98.06 c 0,-13.487 11.031,-24.517 24.517,-24.517 l 0,0 98.056,0 c 13.486,0 24.517,11.03 24.517,24.517 l 0,0 0,98.06 c 0,13.483 -11.031,24.516 -24.517,24.516 l 0,0 -98.056,0 z m 2.228,-112.546 0,77.999 c 0,4.288 3.51,7.795 7.795,7.795 l 0,0 78.009,0 c 4.286,0 7.792,-3.507 7.792,-7.795 l 0,0 0,-77.999 c 0,-4.288 -3.506,-7.796 -7.792,-7.796 l 0,0 -78.009,0 c -4.285,0 -7.795,3.508 -7.795,7.796 m 31.198,59.054 c -2.454,0 -4.457,-2.006 -4.457,-4.458 l 0,0 0,-31.192 c 0,-2.453 2.003,-4.459 4.457,-4.459 l 0,0 31.2,0 c 2.452,0 4.459,2.006 4.459,4.459 l 0,0 0,31.192 c 0,2.452 -2.007,4.458 -4.459,4.458 l 0,0 -31.2,0 z"
                 inkscape:connector-curvature="0" />
            </g>
          </g>
        </g>
      </g>
    </g>
  </g>
</svg>
