<?xml version="1.0" encoding="utf-8"?>
<!-- Generator: Adobe Illustrator 23.0.2, SVG Export Plug-In . SVG Version: 6.00 Build 0)  -->
<svg version="1.1" id="Layer_1" xmlns="http://www.w3.org/2000/svg" xmlns:xlink="http://www.w3.org/1999/xlink" x="0px" y="0px"
	 viewBox="0 0 40 40" style="enable-background:new 0 0 40 40;" xml:space="preserve">
<style type="text/css">
	.st0{fill:#636875;}
</style>
<g>
	<path class="st0" d="M30.6,31.1L30.4,31v-1.4c0.1,0,0.3,0.1,0.5,0.2c0.2,0.1,0.5,0.2,0.8,0.4v-1.5c-0.3-0.1-0.6-0.2-0.8-0.2
		s-0.4-0.1-0.6-0.1v-0.9h-0.6v0.9c-0.5,0-1,0.2-1.3,0.6c-0.3,0.3-0.5,0.7-0.5,1.2c0,0.4,0.1,0.7,0.3,1c0.2,0.3,0.5,0.6,1,0.8
		l0.6,0.3v1.6c-0.3,0-0.5-0.1-0.8-0.2c-0.3-0.1-0.6-0.3-1-0.5l0.1,1.7c0.4,0.1,0.7,0.2,0.9,0.2c0.2,0,0.4,0.1,0.6,0.1h0.1v1.1h0.6
		v-1.2c0.6-0.1,1-0.3,1.3-0.7c0.3-0.4,0.5-0.8,0.5-1.4c0-0.4-0.1-0.8-0.4-1.1C31.6,31.7,31.2,31.4,30.6,31.1z M29.9,30.7
		c-0.2-0.1-0.4-0.2-0.5-0.3c-0.1-0.1-0.2-0.2-0.2-0.4c0-0.1,0.1-0.3,0.2-0.3c0.1-0.1,0.3-0.2,0.5-0.2V30.7z M30.8,33.6
		c-0.1,0.1-0.2,0.2-0.4,0.2v-1.4c0.2,0.1,0.3,0.2,0.4,0.3c0.1,0.1,0.1,0.3,0.1,0.4C31,33.4,30.9,33.5,30.8,33.6z"/>
	<path class="st0" d="M22.1,38.4h-16c-1.7,0-2.7-1-2.7-2.7c0-10.3,0-20.9-0.1-31.4c0.1-1.8,1-2.7,2.8-2.7h17.7
		c0.3,0,0.5,0.3,0.5,0.5V9c0,0.4,0,0.7,0.1,1.1c0.2,1.1,0.7,1.7,1.9,1.9c0.2,0,0.4,0,0.6,0.1c0.2,0,0.4,0,0.6,0h6.4
		c0.3,0,0.5,0.3,0.5,0.5v9c0,0.5,0.3,0.9,0.7,0.9c0.2,0,0.7,0,0.7-0.9V11.3c0-0.4-0.1-0.8-0.5-1.2c-0.2-0.3-0.5-0.6-0.8-0.9
		c-0.3-0.3-0.6-0.6-0.8-0.9c-2.2-2.4-4.5-4.9-6.9-7.5l0,0l0,0C26.4,0.3,25.9,0,25,0H6C3.5,0,1.8,1.7,1.8,4.3c0,9.7,0,19.8,0.1,31.6
		c0,0.3,0,0.5,0.1,0.7l0,0l0,0c0.4,2,2,3.4,4.1,3.4h16.1c0.4-0.1,0.6-0.3,0.7-0.7l0-0.1C22.6,38.8,22.5,38.5,22.1,38.4z M25.6,3.1
		c0,0,0-0.1,0.1-0.1c0.1-0.2,0.2-0.2,0.3-0.3c0,0,0.1,0,0.1-0.1l0.1-0.1h0.1c0.1,0,0.3,0,0.4,0.2l6.4,7c0.2,0.2,0.2,0.3,0.2,0.4
		c0,0.2-0.2,0.4-0.4,0.4h-6c-0.2,0-0.6,0-0.8-0.3c-0.3-0.3-0.3-0.5-0.3-0.7V3.3C25.6,3.2,25.6,3.1,25.6,3.1z"/>
	<path class="st0" d="M30.1,23.8c-4.5,0-8.1,3.6-8.1,8.1s3.6,8.1,8.1,8.1s8.1-3.6,8.1-8.1S34.6,23.8,30.1,23.8z M34.9,36.5
		c-1.3,1.3-3,2-4.8,2c-3.7,0-6.7-3-6.7-6.6c0-3.7,3-6.7,6.6-6.7c3.7,0,6.7,3,6.7,6.6C36.8,33.6,36.1,35.3,34.9,36.5z"/>
	<path class="st0" d="M11.3,16.2c-0.1,0-0.3,0.1-0.4,0.1c-0.2,0-0.5,0.1-0.8,0.2c-1.9,0.7-2.7,1.8-2.7,3.5v2.8
		c0,0.2,0.2,0.4,0.4,0.4h15.4c0.2,0,0.4-0.2,0.4-0.4V20c0-1.7-0.8-2.8-2.8-3.5c-0.4-0.1-0.8-0.2-1.1-0.3l-0.2-0.1
		c-0.6-0.2-0.9-0.2-1.2-0.7l-0.1-0.1l0.1-0.1c1.1-1.6,1.2-3.4,1.2-3.9c0-1.4-0.3-2.4-0.9-3.2c-0.7-0.9-1.7-1.3-3.1-1.3
		c-3.5,0-4.1,2.9-4.1,4.6c0,1,0.4,2.6,1.2,3.9l0.1,0.1l-0.1,0.1C12.3,16,12,16.1,11.3,16.2z M15.5,8.2c1.7,0,2.5,1,2.5,3.1
		c0,0.6-0.2,1.7-0.6,2.6c-0.5,1.1-1.1,1.6-1.9,1.6c-1.7,0-2.6-2.8-2.6-4.2C13,9.2,13.8,8.2,15.5,8.2z M13.7,16.6l0.1-0.1l0.2,0.1
		c0.5,0.3,1.1,0.5,1.5,0.5c0.5,0,1-0.2,1.5-0.5l0.1-0.1l0.1,0.1c0.5,0.7,1.2,0.9,2.2,1.1l0,0c0.1,0,0.3,0.1,0.4,0.1
		c0.2,0,0.3,0.1,0.5,0.1c1,0.3,1.7,0.8,1.7,2v1.8H8.8V20c0-1.2,0.7-1.7,1.7-2c0.3-0.1,0.6-0.2,0.9-0.2
		C12.3,17.6,13.1,17.4,13.7,16.6z"/>
</g>
</svg>
