<?xml version="1.0" encoding="utf-8"?>
<!-- Generator: Adobe Illustrator 23.0.2, SVG Export Plug-In . SVG Version: 6.00 Build 0)  -->
<svg version="1.1" id="Layer_1" xmlns="http://www.w3.org/2000/svg" xmlns:xlink="http://www.w3.org/1999/xlink" x="0px" y="0px"
	 viewBox="0 0 40 40" style="enable-background:new 0 0 40 40;" xml:space="preserve">
<style type="text/css">
	.st0{fill:#636875;}
</style>
<g>
	<path class="st0" d="M30.6,31l-0.2-0.1v-1.4c0.1,0,0.3,0.1,0.6,0.2c0.2,0.1,0.5,0.2,0.8,0.4v-1.5c-0.3-0.1-0.6-0.2-0.8-0.2
		c-0.2,0-0.4-0.1-0.6-0.1l0-0.9h-0.6v0.9c-0.6,0-1,0.2-1.3,0.6c-0.3,0.3-0.5,0.7-0.5,1.2c0,0.4,0.1,0.7,0.3,1c0.2,0.3,0.5,0.6,1,0.8
		l0.6,0.3v1.6c-0.3,0-0.5-0.1-0.8-0.2c-0.3-0.1-0.6-0.3-1-0.5l0.1,1.7c0.4,0.1,0.7,0.2,0.9,0.2c0.2,0,0.5,0.1,0.6,0.1h0.1v1.1h0.6
		v-1.2c0.6-0.1,1-0.3,1.3-0.7c0.3-0.4,0.5-0.8,0.5-1.4c0-0.4-0.1-0.8-0.4-1.1C31.6,31.6,31.2,31.3,30.6,31z M29.8,30.6
		c-0.2-0.1-0.4-0.2-0.5-0.3c-0.1-0.1-0.2-0.2-0.2-0.4c0-0.1,0.1-0.3,0.2-0.3c0.1-0.1,0.3-0.2,0.5-0.2V30.6z M30.8,33.6
		c-0.1,0.1-0.2,0.2-0.4,0.2v-1.4c0.2,0.1,0.3,0.2,0.4,0.3c0.1,0.1,0.1,0.3,0.1,0.4C30.9,33.4,30.9,33.5,30.8,33.6z"/>
	<path class="st0" d="M22.1,38.3c-0.1,0-0.3,0-0.5,0h0c-3.4,0-6.8,0-10.2,0l-5.3,0c-1.7,0-2.6-1-2.6-2.6c0-10.4,0-20.9-0.1-31.3
		c0-1.7,0.9-2.6,2.6-2.6c2.7,0,5.3,0,8,0l9.6,0c0.3,0,0.5,0.2,0.5,0.5l0,2.1c0,1.6,0,3.2,0,4.7c0,0.4,0,0.7,0.1,1.1
		c0.2,1.1,0.8,1.7,1.9,1.9c0.4,0,0.8,0.1,1.2,0.1c0.4,0,0.9,0,1.3,0c0.6,0,1.1,0,1.7,0l3.4,0c0.3,0,0.5,0.2,0.5,0.5l0,3c0,2,0,4,0,6
		c0,0.6,0.3,0.9,0.8,1c0.5,0,0.8-0.4,0.8-0.9c0-1.8,0-3.7,0-5.5l0-0.2c0-1.5,0-3,0-4.4c0-0.5-0.2-0.9-0.5-1.2
		c-0.5-0.6-1.7-1.8-1.7-1.8c-2.2-2.4-4.5-4.9-6.8-7.4C26.4,0.3,25.9,0,25.1,0c-2.3,0-4.7,0-7,0l-0.2,0C13.9,0,10,0,6,0
		C3.5,0,1.8,1.8,1.8,4.3c0,9.9,0,19.8,0.1,31.5c0,0.3,0,0.5,0,0.8c0.4,2,2,3.4,4.1,3.4h0c2.2,0,4.4,0,6.6,0l9.2,0c0,0,0.1,0,0.1,0
		c0.4,0,0.7-0.4,0.7-0.7C22.7,38.8,22.5,38.4,22.1,38.3z M25.7,3C25.7,3,25.7,3,25.7,3c0.1-0.2,0.2-0.3,0.4-0.3c0,0,0,0,0.1,0
		c0.1,0,0.3,0.1,0.4,0.2l6.3,6.9C33,9.9,33,10,33,10.2c0,0.2-0.2,0.3-0.3,0.3c0,0-0.1,0-0.1,0c-0.1,0-0.1,0-0.2,0
		c-0.6,0-1.9,0-1.9,0c-1,0-2,0-3,0l-0.8,0c-0.2,0-0.5,0-0.8-0.3c-0.2-0.2-0.3-0.4-0.3-0.7c0-1.4,0-2.9,0-4.3c0,0,0-1.4,0-2
		C25.6,3.2,25.7,3.1,25.7,3z"/>
	<path class="st0" d="M30.1,23.7L30.1,23.7c-2.2,0-4.2,0.9-5.8,2.4c-1.5,1.5-2.4,3.6-2.4,5.7c0,4.5,3.7,8.1,8.1,8.1h0
		c2.2,0,4.2-0.9,5.7-2.4c1.5-1.5,2.4-3.6,2.4-5.7C38.2,27.4,34.6,23.7,30.1,23.7z M34.8,36.5c-1.3,1.3-2.9,1.9-4.7,2
		c-3.6,0-6.6-3-6.6-6.6c0-1.8,0.7-3.4,1.9-4.7c1.3-1.3,2.9-1.9,4.7-2h0c3.6,0,6.6,3,6.6,6.6C36.7,33.6,36,35.3,34.8,36.5z"/>
	<path class="st0" d="M19.2,23c0-0.9,0-1.7,0-2.6c0-0.3-0.1-0.4-0.4-0.4c-0.4,0-0.8,0-1.3,0c-0.4,0-0.9,0-1.3,0
		c-0.2,0-0.3,0.1-0.4,0.3c-0.1,0.3,0.1,0.5,0.4,0.5c0.5,0,1,0,1.5,0c0,0,0.1,0,0.1,0c-1.3,1.4-2.5,2.8-3.8,4.1
		c-0.4-0.3-0.9-0.6-1.3-0.9c-0.7-0.6-1.5-1.1-2.2-1.7c-0.2-0.2-0.4-0.2-0.6,0c-0.5,0.5-1.1,1-1.6,1.5c-0.4,0.4-0.8,0.7-1.2,1.1
		c-0.6,0.5-1.2,1-1.7,1.6c-0.1,0.1-0.1,0.2-0.2,0.3c0,0.2,0.1,0.3,0.2,0.4c0.2,0.1,0.3,0.1,0.5-0.1c0.3-0.2,0.5-0.5,0.8-0.7
		c0.5-0.4,1-0.9,1.5-1.3c0.7-0.6,1.4-1.2,2-1.8c0.1,0,0.1-0.1,0.2,0c0.4,0.3,0.9,0.7,1.3,1c0.7,0.5,1.4,1.1,2.2,1.6
		c0.2,0.2,0.4,0.2,0.6,0c0.4-0.5,0.9-0.9,1.3-1.4c0.8-0.9,1.7-1.8,2.5-2.7c0.1-0.1,0.1-0.1,0.2-0.2c0,0.6,0,1.1,0,1.6
		c0,0.1,0,0.2,0.1,0.3c0.1,0.1,0.3,0.1,0.4,0.1C19.1,23.3,19.2,23.2,19.2,23z"/>
	<path class="st0" d="M17.1,25c-0.3,0-0.4,0.1-0.4,0.4c0,0.3,0,0.5,0,0.8v1.2c0,1.1,0,2.2,0,3.3c0,0.3,0.2,0.3,0.3,0.3
		c0.3,0,0.6,0,0.9,0c0.3,0,0.5,0,0.8,0c0.2,0,0.3-0.1,0.3-0.3V28l0-0.1v-2.5c0-0.1,0-0.2-0.1-0.3C18.9,25,18.8,25,18.7,25
		C18.2,25,17.7,25,17.1,25z"/>
	<path class="st0" d="M11.5,26.3c0-0.2-0.1-0.4-0.4-0.4l-0.8,0c-0.3,0-0.6,0-0.9,0c-0.2,0-0.4,0.1-0.4,0.3c0,1.5,0,3,0,4.4
		c0,0.2,0.1,0.3,0.4,0.3l0.7,0l1,0c0.3,0,0.4-0.1,0.4-0.4c0-0.5,0-1,0-1.5v-0.5h0l0-0.8C11.5,27.3,11.5,26.8,11.5,26.3z"/>
	<path class="st0" d="M14.1,27.4l-0.8,0c-0.3,0-0.4,0.1-0.4,0.4l0,1.9c0,0.3,0,0.7,0,1c0,0.3,0.1,0.4,0.4,0.4l0.9,0l0.8,0
		c0.2,0,0.3-0.1,0.3-0.3c0-1,0-2,0-3c0-0.3-0.2-0.3-0.3-0.3L14.1,27.4z"/>
	<path class="st0" d="M5.3,30.7c0,0.2,0.1,0.3,0.3,0.3c0.3,0,0.6,0,0.9,0c0.3,0,0.6,0,0.9,0c0.2,0,0.3-0.1,0.3-0.3
		c0-0.6,0-1.2,0-1.9c0-0.2-0.1-0.3-0.3-0.3c-0.3,0-0.6,0-0.9,0c-0.3,0-0.6,0-0.9,0c-0.2,0-0.3,0.1-0.3,0.3c0,0.2,0,0.8,0,0.8h0v0.4
		C5.3,30.3,5.3,30.5,5.3,30.7z"/>
	<path class="st0" d="M8.7,10.7c-0.2,0-0.5,0.1-0.9,0.2c-1.5,0.5-2.2,1.4-2.2,2.8V16c0,0.2,0.2,0.4,0.4,0.4h12.4
		c0.2,0,0.4-0.2,0.4-0.4v-2.3c0-1.4-0.7-2.2-2.2-2.8c-0.4-0.1-0.7-0.2-0.9-0.2c-0.6-0.1-0.9-0.2-1.1-0.7l0-0.1l0-0.1
		c0.7-1,0.9-2.3,0.9-3.2c0-1.1-0.2-2-0.7-2.6c-0.5-0.7-1.4-1.1-2.5-1.1c-2.8,0-3.2,2.3-3.2,3.7c0,0.9,0.3,2.2,0.9,3.2l0,0.1l0,0.1
		C9.6,10.5,9.3,10.5,8.7,10.7z M12.1,4.3c1.4,0,2,0.8,2,2.5c0,0.6-0.2,1.4-0.5,2.1c-0.4,0.8-0.9,1.3-1.5,1.3c-1.3,0-2-2.2-2-3.3
		C10.1,5,10.7,4.3,12.1,4.3z M10.7,10.9L10.7,10.9l0.2,0c0.4,0.2,0.8,0.4,1.3,0.4c0.4,0,0.8-0.1,1.2-0.4l0.1-0.1l0.1,0.1
		c0.5,0.6,1.1,0.8,1.8,0.9c0.2,0,0.5,0.1,0.7,0.2c0.9,0.2,1.4,0.6,1.4,1.6v1.5H6.8v-1.5c0-1,0.5-1.3,1.4-1.6C8.4,12,8.7,12,8.9,11.9
		C9.6,11.7,10.2,11.6,10.7,10.9z"/>
</g>
</svg>
