<?xml version="1.0" encoding="utf-8"?>
<!-- Generator: Adobe Illustrator 23.0.2, SVG Export Plug-In . SVG Version: 6.00 Build 0)  -->
<svg version="1.1" id="Layer_1" xmlns="http://www.w3.org/2000/svg" xmlns:xlink="http://www.w3.org/1999/xlink" x="0px" y="0px"
	 viewBox="0 0 40 40" style="enable-background:new 0 0 40 40;" xml:space="preserve">
<style type="text/css">
	.st0{fill:#636875;}
</style>
<g>
	<path class="st0" d="M24.6,18.1c1,0,1.8-0.8,1.8-1.8s-0.8-1.8-1.8-1.8s-1.8,0.8-1.8,1.8c0,0.3,0.1,0.6,0.2,0.8l-2.4,2.2
		c-0.3-0.3-0.7-0.4-1.2-0.4c-0.5,0-0.9,0.2-1.3,0.5l-2.8-1.5c0-1-0.8-1.7-1.8-1.7c-1,0-1.8,0.8-1.8,1.8c0,0.4,0.1,0.7,0.3,1l-2,2.4
		c-0.1,0-0.3-0.1-0.5-0.1c-1,0-1.8,0.8-1.8,1.8s0.8,1.8,1.8,1.8s1.8-0.8,1.8-1.8c0-0.5-0.2-0.9-0.5-1.2l1.9-2.3
		c0.2,0.1,0.4,0.1,0.7,0.1c0.6,0,1.2-0.3,1.5-0.8l2.5,1.4c0,0.1,0,0.2,0,0.4c0,1,0.8,1.8,1.8,1.8s1.8-0.8,1.8-1.8
		c0-0.2,0-0.3-0.1-0.5l2.5-2.4C24,18,24.3,18.1,24.6,18.1z M24.6,15.5c0.4,0,0.8,0.3,0.8,0.8s-0.3,0.8-0.8,0.8s-0.8-0.3-0.8-0.8
		S24.2,15.5,24.6,15.5z M9.8,23.9c-0.4,0-0.8-0.3-0.8-0.8s0.3-0.8,0.8-0.8s0.8,0.3,0.8,0.8S10.2,23.9,9.8,23.9z M13.7,18.8
		c-0.4,0-0.8-0.3-0.8-0.8s0.3-0.8,0.8-0.8s0.8,0.3,0.8,0.8S14.1,18.8,13.7,18.8z M19.5,21.5c-0.4,0-0.8-0.3-0.8-0.8s0.3-0.8,0.8-0.8
		s0.8,0.3,0.8,0.8S19.9,21.5,19.5,21.5z"/>
	<path class="st0" d="M12.1,6.5h6.8c0.3,0,0.5-0.2,0.5-0.5s-0.2-0.5-0.5-0.5h-6.8c-0.3,0-0.5,0.2-0.5,0.5S11.8,6.5,12.1,6.5z"/>
	<path class="st0" d="M12.1,8.8h6.8c0.3,0,0.5-0.2,0.5-0.5c0-0.3-0.2-0.5-0.5-0.5h-6.8c-0.3,0-0.5,0.2-0.5,0.5
		C11.6,8.5,11.8,8.8,12.1,8.8z"/>
	<path class="st0" d="M12.1,11.1h6.8c0.3,0,0.5-0.2,0.5-0.5c0-0.3-0.2-0.5-0.5-0.5h-6.8c-0.3,0-0.5,0.2-0.5,0.5
		C11.6,10.8,11.8,11.1,12.1,11.1z"/>
	<path class="st0" d="M22.8,37.4l-15.7,0c-1.6,0-2.6-1-2.6-2.6V4.1l0,0c0.1-1.6,1.1-2.6,2.6-2.6H24c0.2,0,0.5,0,0.7,0.3
		C24.9,2,25,2.2,25,2.5v6.3c0,0.3,0,0.7,0.1,1.1l0,0c0.2,1.2,0.8,1.7,1.9,1.8c0.2,0,0.4,0,0.6,0.1c0.2,0,0.3,0,0.5,0h5.9
		c0.2,0,0.5,0,0.7,0.3c0.1,0.2,0.2,0.5,0.2,0.7v6.8c0,0.5,0.3,0.9,0.8,0.9s0.8-0.3,0.8-0.9V11c0-0.4-0.1-0.7-0.4-1.1
		c-0.3-0.3-0.6-0.6-0.9-1c-0.3-0.3-0.6-0.7-0.9-1c-0.7-0.8-1.5-1.6-2.2-2.4c-1.4-1.5-2.9-3.1-4.3-4.7C27.1,0.2,26.5,0,25.8,0H7.3
		C6.9,0,6.5,0,6.2,0.1C4.3,0.5,3.1,2,3.1,4v31.6c0.4,2,1.9,3.3,3.9,3.3l15.6,0C23.6,39,23.8,37.7,22.8,37.4z M26.5,2.8
		c0,0,0.3-0.4,0.8-0.1l6.3,6.8c0.1,0.1,0.2,0.2,0.2,0.3c0,0.1,0,0.2-0.1,0.3c-0.1,0.2-0.2,0.3-0.4,0.3h-5.8c-0.6,0-1-0.4-1-1V3.3
		C26.3,3.1,26.4,2.9,26.5,2.8z"/>
	<path class="st0" d="M32.5,33.8c-0.1-0.1-0.1-0.2-0.1-0.3c0,0,0-0.1,0.1-0.1c0.9-1.5,1.2-3.1,0.8-5.1c-0.1-0.1-0.1-0.2-0.1-0.4
		c0,0,0,0,0-0.1l-0.9,0.9v0c0,0.1,0,0.2,0,0.2c0,0.1,0.1,0.3,0.1,0.5c0.1,1.6-0.4,3-1.5,4.3c-1.1,1.1-2.6,1.8-4.1,1.8c0,0,0,0,0,0
		c-0.7,0-1.4-0.1-2.1-0.4c-1.9-0.8-3.1-2.4-3.4-4.5l0,0v-0.8l1.1,1.1l2.4-2.4c0.1-0.1,0.1-0.1,0.2-0.1c0.1,0,0.2,0,0.2,0.2
		c1,1,2,2,3,3.1l7.6-7.6v2.4h1.2c-0.2-1.5-0.2-2.9-0.2-4.4c-1.5-0.1-3-0.1-4.5-0.1v1.2h2.4l-6.5,6.5c-0.1,0.1-0.1,0.1-0.2,0.1
		c-0.1,0-0.2,0-0.2-0.2c-1-1-2-2-3-3.1L22.3,29c0,0-0.1,0.1-0.2,0.1c-0.1,0-0.1,0-0.2-0.1c0,0,0,0,0,0l-0.6-0.6
		c-0.1-0.1-0.1-0.2-0.1-0.3c0,0,0-0.1,0.1-0.1c0.2-0.5,0.4-1,0.8-1.5c1.2-1.5,2.7-2.2,4.5-2.2c0.1,0,0.2,0,0.4,0
		c1.3,0.1,2.4,0.6,3.4,1.5l0.8-0.8c-1.3-1.1-2.9-1.7-4.6-1.7c-0.2,0-0.5,0-0.7,0c-1.4,0.1-2.7,0.7-3.6,1.7c-1.8,1.6-2.6,3.7-2.2,6
		c0.3,1.8,1.2,3.3,2.6,4.3c1.3,0.9,2.5,1.4,3.9,1.4c0.3,0,0.7,0,1.1-0.1c0.8-0.1,1.6-0.4,2.4-0.8l0,0h0.2l3.7,3.7
		c0.3,0.3,0.6,0.4,1,0.4c0.2,0,0.4-0.1,0.6-0.2c0.5-0.2,0.8-0.5,0.9-0.9c0.1-0.2,0.1-0.3,0.1-0.4c0-0.4-0.2-0.8-0.5-1.1L32.5,33.8z"
		/>
</g>
</svg>
