<?xml version="1.0" encoding="utf-8"?>
<!-- Generator: Adobe Illustrator 23.0.2, SVG Export Plug-In . SVG Version: 6.00 Build 0)  -->
<svg version="1.1" id="Layer_1" xmlns="http://www.w3.org/2000/svg" xmlns:xlink="http://www.w3.org/1999/xlink" x="0px" y="0px"
	 viewBox="0 0 40 40" style="enable-background:new 0 0 40 40;" xml:space="preserve">
<style type="text/css">
	.st0{fill:#636875;}
</style>
<g>
	<path class="st0" d="M23.8,36.1H1.6V1.5h16.1v6c0,2.3,1.9,4.2,4.2,4.2h6.4v4.6c0,0.4,0.3,0.8,0.8,0.8c0.4,0,0.8-0.3,0.8-0.8V11
		c0-0.2-0.1-0.4-0.2-0.6l0,0L19,0.2l0,0C18.9,0.1,18.7,0,18.5,0H0.8C0.4,0,0.1,0.3,0.1,0.8v36.1c0,0.4,0.3,0.8,0.8,0.8h23
		c0.4,0,0.8-0.3,0.8-0.8S24.2,36.1,23.8,36.1z M19.3,2.6l7.9,7.6h-5.3c-1.5,0-2.6-1.2-2.6-2.6V2.6z"/>
	<path class="st0" d="M33.6,32.8c-0.4-0.4-0.9-0.6-1.5-0.6c-0.2,0-0.5,0-0.7,0.1l-0.1,0l-0.8-0.9l0.1-0.1c1.4-1.7,2.1-3.7,2.1-5.9
		c0-1.7-0.5-3.4-1.4-4.9c0,0,0,0,0-0.1c-0.4-0.6-0.8-1.1-1.2-1.5c-1.7-1.7-4.1-2.7-6.5-2.7c-2.5,0-4.8,1-6.5,2.7
		c-1.7,1.7-2.7,4.1-2.7,6.5c0,1,0.2,2,0.5,3l0,0.1l-2.2,3.6L7.9,26c-0.1-0.2-0.4-0.3-0.6-0.3c0,0-0.1,0-0.1,0
		c-0.3,0-0.5,0.2-0.6,0.5l-2.2,5.6c-0.2,0.4,0,0.8,0.4,1c0.1,0,0.2,0.1,0.3,0.1c0.3,0,0.6-0.2,0.7-0.5L7.5,28l4.6,5.9
		c0.1,0.2,0.4,0.3,0.6,0.3l0,0c0.3,0,0.5-0.2,0.6-0.4l2.2-3.6l0.1,0.2c0.4,0.6,0.8,1.1,1.2,1.5c1.7,1.7,4.1,2.7,6.5,2.7
		c2.1,0,4.2-0.7,5.8-2.1l0.1-0.1l0.8,0.9l0,0.1c-0.3,0.8-0.1,1.7,0.5,2.3l3.6,3.6c0.4,0.4,0.9,0.6,1.5,0.6c0.6,0,1.1-0.2,1.5-0.6
		c0.8-0.8,0.8-2.2,0-3L33.6,32.8z M28.9,30.9c-1.4,1.4-3.4,2.2-5.4,2.2c-2,0-4-0.8-5.4-2.2c-1.4-1.4-2.2-3.4-2.2-5.4
		c0-2,0.8-4,2.2-5.4c1.4-1.4,3.4-2.2,5.4-2.2c2,0,4,0.8,5.4,2.2c0.2,0.2,0.4,0.4,0.6,0.7l0.1,0.1l-6.2,5.9l-3.8-4.1
		c-0.1-0.2-0.4-0.2-0.6-0.2c0,0-0.1,0-0.1,0c-0.2,0-0.5,0.2-0.6,0.4l-1.4,2.3c-0.1,0.2-0.1,0.4-0.1,0.6c0,0.2,0.2,0.4,0.4,0.5
		c0.1,0.1,0.3,0.1,0.4,0.1c0.3,0,0.5-0.1,0.7-0.4l0.9-1.4l3.6,3.9c0.1,0.1,0.3,0.2,0.5,0.2h0c0.2,0,0.4-0.1,0.5-0.2l6.5-6.2l0.1,0.2
		c0.4,1,0.7,2,0.7,3.1C31.1,27.5,30.3,29.4,28.9,30.9z M36.1,38.3c-0.1,0.1-0.3,0.2-0.4,0.2s-0.3,0-0.4-0.2l-3.6-3.6
		c-0.1-0.1-0.2-0.2-0.2-0.4c0-0.2,0.1-0.3,0.2-0.4c0.1-0.1,0.3-0.2,0.4-0.2c0.1,0,0.3,0.1,0.4,0.2l3.6,3.6
		C36.3,37.7,36.3,38.1,36.1,38.3z"/>
	<path class="st0" d="M39.2,11.8h-3.5c-0.4,0-0.8,0.3-0.8,0.8s0.3,0.8,0.8,0.8h1.8L32,18.5c-0.1,0.1-0.2,0.3-0.2,0.5
		c0,0.2,0.1,0.4,0.2,0.6c0.1,0.2,0.3,0.2,0.6,0.2c0.2,0,0.4-0.1,0.5-0.2l5.3-5.1v1.5c0,0.4,0.3,0.8,0.8,0.8c0.4,0,0.8-0.3,0.8-0.8
		v-3.5C39.9,12.1,39.6,11.8,39.2,11.8z"/>
	<path class="st0" d="M6.9,11.9C6.7,12,6.4,12,6,12.2c-1.5,0.5-2.2,1.4-2.2,2.8v2.3c0,0.2,0.1,0.3,0.3,0.3h12.5
		c0.2,0,0.3-0.1,0.3-0.3v-2.3c0-1.4-0.7-2.2-2.2-2.8c-0.4-0.1-0.7-0.2-0.9-0.2c-0.6-0.1-0.9-0.2-1.2-0.7l0-0.1l0.1-0.1
		c0.7-1,1-2.4,1-3.2c0-1.1-0.2-2-0.7-2.6c-0.5-0.7-1.4-1.1-2.5-1.1c-1.2,0-2.2,0.4-2.7,1.3C7.2,6.3,7.1,7.2,7.1,7.9
		c0,0.9,0.3,2.2,1,3.2l0.1,0.1l0,0.1C7.8,11.7,7.6,11.8,6.9,11.9z M10.4,5.4c1.4,0,2,0.8,2,2.5c0,1.2-0.7,3.4-2,3.4
		C9,11.3,8.3,9,8.3,7.9C8.3,6.1,8.9,5.4,10.4,5.4z M8.9,12.2L9,12l0.1,0.1c0.4,0.2,0.8,0.4,1.3,0.4c0.4,0,0.8-0.1,1.2-0.4l0.1-0.1
		l0.1,0.1c0.5,0.6,1.1,0.8,1.8,0.9c0.2,0,0.5,0.1,0.7,0.2c0.9,0.2,1.4,0.6,1.4,1.6v1.5H4.9v-1.5c0-1,0.5-1.4,1.4-1.6
		c0.3-0.1,0.5-0.1,0.7-0.2C7.9,12.9,8.4,12.8,8.9,12.2z"/>
</g>
</svg>
