<?xml version="1.0" encoding="utf-8"?>
<!-- Generator: Adobe Illustrator 23.0.2, SVG Export Plug-In . SVG Version: 6.00 Build 0)  -->
<svg version="1.1" id="Layer_1" xmlns="http://www.w3.org/2000/svg" xmlns:xlink="http://www.w3.org/1999/xlink" x="0px" y="0px"
	 viewBox="0 0 40 40" style="enable-background:new 0 0 40 40;" xml:space="preserve">
<style type="text/css">
	.st0{fill:#636875;}
</style>
<g>
	<path class="st0" d="M18.8,20c0.5-0.6,1.1-1.2,1.8-1.7l-5.5,0c-2.6,0-5.1,0-7.7,0c-0.1,0-0.2,0-0.3,0c-0.5,0.1-0.7,0.5-0.7,1
		c0.1,0.5,0.4,0.8,1.1,0.8c2.2,0,4.5,0,6.7,0c1.4,0,4.2,0,4.2,0C18.6,20.2,18.7,20.2,18.8,20z"/>
	<path class="st0" d="M7.3,14.1c1.3,0,2.5,0,3.8,0l4.3,0c0.2,0,0.4,0,0.5-0.1c0.4-0.2,0.5-0.7,0.4-1.1c-0.1-0.4-0.5-0.6-0.9-0.6
		c-0.6,0-1.2,0-1.8,0l-2.3,0l-0.1,0l-2.2,0c-0.6,0-1.1,0-1.7,0c-0.6,0-1,0.4-1,0.9c0,0.3,0.1,0.5,0.3,0.7C6.7,14,7,14.1,7.3,14.1z"
		/>
	<path class="st0" d="M16,24.7c0.1-0.2,0.1-0.2,0-0.2c0,0-0.1,0-0.2,0l0,0c-0.6,0-1.3,0-1.9,0l-2.2,0l-0.1,0c0,0-2,0-2.4,0
		c-0.6,0-1.2,0-1.7,0c-0.6,0-1.1,0.4-1.1,1c0,0.3,0.1,0.5,0.3,0.7c0.2,0.2,0.5,0.3,0.8,0.3c1.2,0,2.4,0,3.6,0c1.4,0,2.8,0,4.2,0h0
		c0.2,0,0.3,0,0.3-0.2C15.7,25.6,15.9,25.1,16,24.7z"/>
	<path class="st0" d="M15.1,30.5c-1.5,0-3,0-4.5,0l-3.2,0c-0.2,0-0.4,0.1-0.6,0.2c-0.3,0.2-0.5,0.7-0.3,1.1c0.1,0.4,0.5,0.6,0.9,0.6
		c0.6,0,1.1,0,1.7,0l2.3,0l0.1,0c0.3,0,1.7,0,2.1,0c0.7,0,1.3,0,1.8,0l0,0c0.2,0,0.2,0,0.2-0.1c0,0,0-0.1,0-0.2
		c-0.1-0.4-0.2-0.8-0.2-1.3C15.4,30.5,15.3,30.5,15.1,30.5z"/>
	<path class="st0" d="M18.7,38.7c-0.2-0.2-0.4-0.3-0.8-0.3c-2.7,0-5.5,0-8.2,0l-6,0c-1.3,0-1.8-0.5-1.8-1.7c0-11.1,0-22.2,0-33.3
		c0-1.1,0.5-1.6,1.6-1.6l8,0c2.5,0,5.1,0,7.6,0c0.2,0,0.4,0,0.6,0.2c0.2,0.2,0.2,0.4,0.2,0.6c0,1.9,0,3.8,0,5.7l0,1.7
		c0,0.9,0.3,1.2,1.2,1.2c1.1,0,2.3,0,3.4,0c1,0,2,0,3.1,0c0.7,0,0.9,0.1,0.9,0.9l0,0.7c0,0.8,0,1.7,0,2.5c0,0,0,0,0,0.1c0,0,0,0,0,0
		c0.2,0,0.5-0.1,0.7-0.1c0.3,0,0.6,0,0.9,0.1c0,0,0,0,0,0c0,0,0,0,0-0.1c0-0.9,0-1.7,0-2.6l0-0.1c0-0.8,0-1.5,0-2.3
		c0-0.8-0.3-1.5-0.8-2.1l-1.2-1.3c-1.7-1.9-3.5-3.8-5.2-5.7C22.2,0.4,21.3,0,20.3,0c-2.6,0-5.1,0-7.7,0c-2,0-9.1,0-9.1,0
		C1.6,0,0.3,1.3,0.3,3.2c0,11.2,0,22.3,0,33.5c0,2,1.3,3.3,3.3,3.3c2.1,0,4.1,0,6.2,0h10.4C19.5,39.5,19.1,39.1,18.7,38.7z
		 M21.9,5.3l0-1.8c0-0.1,0-0.1,0.1-0.2c0,0,0-0.1,0-0.1c0-0.1,0.1-0.2,0.2-0.2c0,0,0,0,0,0c0.1,0,0.2,0,0.2,0.1l4.9,5.4
		c0.1,0.1,0.1,0.1,0.1,0.2c0,0.1,0,0.2-0.1,0.2c-0.2,0.2-0.4,0.2-0.5,0.2c0,0-0.1,0-0.1,0c0,0,0,0-0.1,0h0c-0.8,0-1.5,0-2.3,0
		l-1.9,0c-0.1,0-0.3,0-0.5-0.2c-0.1-0.1-0.2-0.3-0.2-0.4C21.9,7.4,21.9,6.3,21.9,5.3z"/>
	<path class="st0" d="M29.1,18.5L29.1,18.5c-2.9,0-5.5,1.1-7.5,3.2c-2,2-3.1,4.7-3.1,7.5c0,5.8,4.8,10.6,10.7,10.6l0,0
		c2.8,0,5.5-1.1,7.5-3.2c2-2,3.1-4.7,3.1-7.5C39.7,23.2,35,18.5,29.1,18.5z M35.5,35.6c-1.7,1.7-4,2.6-6.4,2.6l-0.1,0
		c-2.4,0-4.7-1-6.3-2.8c-1.7-1.7-2.6-4.1-2.5-6.5c0.1-4.8,4.2-8.8,9-8.8l0.1,0c5.1,0.1,9.1,4.1,9.1,9.1
		C38.2,31.6,37.2,33.9,35.5,35.6z"/>
	<polygon class="st0" points="29.2,39.8 29.2,39.8 29.2,39.8 	"/>
	<path class="st0" d="M33.3,25.5c-0.3,0-0.5,0.1-0.8,0.3c-1.5,1.4-2.8,2.8-4.1,4.1c-0.1,0.1-0.3,0.3-0.5,0.3c-0.2,0-0.4-0.1-0.5-0.3
		c-0.5-0.5-1-1.1-1.7-1.7c-0.2-0.2-0.5-0.3-0.7-0.3c-0.3,0-0.5,0.1-0.7,0.3c-0.4,0.4-0.4,1,0,1.4c0.9,0.9,1.8,1.8,2.6,2.6l0.3,0.3
		c0.2,0.2,0.4,0.3,0.6,0.3c0,0,0,0,0.1,0l0,0l0.1,0c0.2,0,0.4-0.1,0.6-0.3c1.8-1.8,3.6-3.6,5.4-5.4c0.2-0.3,0.3-0.5,0.3-0.9
		C34.1,25.8,33.7,25.5,33.3,25.5z"/>
</g>
</svg>
