<?xml version="1.0" encoding="utf-8"?>
<!-- Generator: Adobe Illustrator 23.0.1, SVG Export Plug-In . SVG Version: 6.00 Build 0)  -->
<svg version="1.1" id="Capa_1" xmlns="http://www.w3.org/2000/svg" xmlns:xlink="http://www.w3.org/1999/xlink" x="0px" y="0px"
	 viewBox="0 0 40 40" style="enable-background:new 0 0 40 40;" xml:space="preserve">
<style type="text/css">
	.st0{fill:#3A3A3A;}
</style>
<g>
	<path class="st0" d="M36.7,12.3h-6.6c-0.1,0.5-0.3,1-0.5,1.5h7.5l-15.8,16c-0.4,0.4-0.8,0.6-1.3,0.6c-0.5,0-1-0.2-1.3-0.6
		C15,26.2,2.8,14.1,2.7,14l-0.2-0.2l7.9,0c-0.2-0.5-0.4-1-0.5-1.5H3.4c-1.6,0-3.3,0.2-3.3,2.7v22.3c0,0.9,0.2,1.6,0.6,2
		c0.7,0.7,1.9,0.7,2.6,0.7h33.3c1.5,0,3.3-0.5,3.3-2.7l0-22.3C39.7,12.3,37.9,12.3,36.7,12.3z M1.6,15l11.3,11.1L1.6,37.3V15z
		 M2.8,38.5l0.8-0.8c3.4-3.4,6.8-6.7,10.2-10.1l0.3-0.3l0.3,0.3l0,0c0.1,0,0.1,0.1,0.2,0.2l0.1,0.1c1,1,1.9,1.9,2.9,2.9
		c0.7,0.7,1.6,1.1,2.4,1.1c0.9,0,1.8-0.4,2.5-1.1c0.9-0.9,1.8-1.8,2.9-2.9c0.1-0.1,0.1-0.1,0.1-0.2c0,0,0.1-0.1,0.1-0.1l0.3-0.4
		l11.4,11.2H2.8z M38.4,37.3L27.1,26.2L38.4,15V37.3z"/>
	<path class="st0" d="M20.7,12.1h-1.2c-0.1,0-0.1,0-0.2,0.1s-0.1,0.1-0.1,0.2v1.1c0,0.1,0,0.1,0.1,0.2c0.1,0.1,0.1,0.1,0.2,0.1h1.2
		c0.1,0,0.2,0,0.2-0.1c0.1-0.1,0.1-0.1,0.1-0.2v-1.1c0-0.1,0-0.1-0.1-0.2C20.8,12.1,20.7,12.1,20.7,12.1z"/>
	<path class="st0" d="M20,18.9L20,18.9c5.2,0,9.4-4.2,9.5-9.4c0-2.5-1-4.9-2.7-6.7c-1.8-1.8-4.2-2.8-6.7-2.8c-5.2,0-9.5,4.2-9.5,9.4
		C10.5,14.6,14.8,18.9,20,18.9z M20,1.5V1.4V1.5c4.4,0,7.9,3.6,7.9,7.9c0,2.1-0.8,4.1-2.3,5.6s-3.5,2.3-5.6,2.3
		c-4.3,0-7.9-3.6-7.9-7.9C12.1,5,15.7,1.5,20,1.5z"/>
	<path class="st0" d="M17.2,7.9h1.1c0.2,0,0.3-0.1,0.3-0.3c0.2-0.8,0.6-1.2,1.5-1.2c0.4,0,0.7,0.1,0.9,0.3c0.3,0.2,0.4,0.5,0.3,0.8
		c0,0.2-0.1,0.4-0.2,0.6c-0.1,0.2-0.3,0.4-0.6,0.7c-0.4,0.4-0.6,0.7-0.9,1c-0.2,0.3-0.3,0.6-0.4,1c0,0.1,0,0.2,0,0.4l0,0.1l0,0
		c0,0,0.1,0.1,0.2,0.1h1.2c0.1,0,0.2,0,0.2-0.1c0,0,0.1-0.1,0.1-0.2c0-0.1,0-0.2,0.1-0.4c0-0.2,0.1-0.5,0.3-0.7
		c0.1-0.2,0.4-0.4,0.6-0.7c0.4-0.4,0.6-0.7,0.8-1C23,8,23.1,7.6,23.1,7.2c0-0.4-0.1-0.7-0.3-1c-0.2-0.3-0.5-0.6-1-0.8
		c-0.4-0.2-1-0.3-1.7-0.3c-0.7,0-1.2,0.1-1.7,0.4c-0.5,0.2-0.9,0.6-1.1,1c-0.3,0.4-0.4,0.8-0.4,1.3c0,0.1,0,0.2,0.1,0.2
		C17,7.9,17.1,7.9,17.2,7.9z"/>
</g>
</svg>
