<?xml version="1.0" encoding="utf-8"?>
<!-- Generator: Adobe Illustrator 23.0.1, SVG Export Plug-In . SVG Version: 6.00 Build 0)  -->
<svg version="1.1" id="Capa_1" xmlns="http://www.w3.org/2000/svg" xmlns:xlink="http://www.w3.org/1999/xlink" x="0px" y="0px"
	 viewBox="0 0 40 40" style="enable-background:new 0 0 40 40;" xml:space="preserve">
<style type="text/css">
	.st0{fill:#3A3A3A;}
</style>
<g>
	<path class="st0" d="M20.8,18.7c0.1,0,0.3,0,0.4,0c1.2-0.1,2.2-1.2,2.2-2.4c0-1.9,0-3.8,0-5.8c0-0.7-0.3-1.3-0.8-1.7
		C22.2,8.2,21.6,8,20.8,8c-0.8,0-1.6,0-2.3,0l-3.1,0l0-0.5c0-0.5,0-1.1,0-1.6c0-0.1,0-0.2-0.1-0.3c-1.5-1.8-3.1-3.6-4.6-5.4
		C10.6,0,10.5,0,10.4,0C8.3,0,6.2,0,4.1,0L1.8,0C1.7,0,1.6,0,1.5,0C0.6,0.2,0,0.9,0,1.8v18.3c0,1,0.7,1.8,1.8,1.8l4.4,0l7.5,0
		c0.1,0,0.2,0,0.3,0c0.9-0.1,1.5-0.9,1.5-1.8c0-0.4,0-1.4,0-1.4S19.8,18.7,20.8,18.7z M10.7,2.5c0-0.3,0-0.5,0-0.8L14,5.6
		c-0.2,0-0.4,0-0.7,0c-0.3,0-0.5,0-0.8,0c-0.4,0-0.7,0-1.1,0c-0.2,0-0.4-0.1-0.5-0.2c-0.1-0.1-0.2-0.3-0.2-0.5
		C10.7,4,10.7,3.2,10.7,2.5z M13.7,20.8c0,0-0.1,0-0.1,0c0,0-9,0-11.8,0c-0.2,0-0.3,0-0.4-0.1c-0.2-0.1-0.3-0.3-0.3-0.5
		c0,0,0-0.1,0-0.1v-2c0-5.4,0-10.8,0-16.2c0-0.2,0-0.4,0.1-0.5c0.1-0.2,0.3-0.3,0.5-0.3c0,0,0.1,0,0.1,0h7.8l0,1.1
		c0,0.9,0,1.8,0,2.7c0,0.8,0.5,1.5,1.2,1.7c0.2,0,0.3,0.1,0.5,0.1c0.5,0,1,0,1.5,0l1.5,0V8l-1.9,0c0,0-4,0-5.1,0
		c-1,0-1.8,0.4-2.2,1.3c-0.2,0.4-0.3,0.8-0.3,1.3c0,0.7,0,1.5,0,2.2c0,1.1,0,2.2,0,3.3c0,0.3,0,0.5,0.1,0.8c0.3,1.1,1.2,1.8,2.4,1.8
		c0.8,0,1.6,0,2.4,0l4.7,0c0,0.5,0,1,0,1.5C14.4,20.5,14.1,20.8,13.7,20.8z M13.9,17.6c-2.2,0-4.4,0-6.5,0c-0.9,0-1.4-0.6-1.5-1.2
		c0-0.1,0-0.2,0-0.3c0-1.8,0-3.7,0-5.5c0-0.8,0.5-1.4,1.2-1.5c0.1,0,0.2,0,0.3,0c1.6,0,3.2,0,4.8,0l8.7,0c0.8,0,1.4,0.5,1.5,1.3
		c0,0.1,0,0.2,0,0.2l0,0.7c0,1.6,0,3.2,0,4.8c0,0.8-0.5,1.4-1.3,1.5c-0.1,0-0.2,0-0.3,0C20.8,17.6,13.9,17.6,13.9,17.6z"/>
	<path class="st0" d="M10,15c-0.3-0.6-0.5-1.2-0.8-1.8c0,0,0,0,0,0c-0.3,0-0.7,0-1,0c0,0,0,0,0,0c-0.3,0.6-0.5,1.2-0.8,1.8
		c-0.2,0.4-0.4,0.8-0.6,1.3c0,0.1-0.1,0.1-0.1,0.2c0,0,0,0,0,0c0.3,0,0.6,0,0.9,0c0,0,0,0,0,0c0.1-0.2,0.2-0.4,0.2-0.6c0,0,0,0,0,0
		c0.5,0,1,0,1.5,0c0,0,0,0,0,0c0.1,0.2,0.2,0.4,0.2,0.6c0,0,0,0,0.1,0c0.3,0,0.6,0,0.9,0c0,0,0,0,0,0c0,0,0,0,0,0
		C10.4,16,10.2,15.5,10,15z M8.1,15.2c0.2-0.4,0.3-0.9,0.5-1.3c0.2,0.4,0.3,0.9,0.5,1.3C8.8,15.2,8.5,15.2,8.1,15.2z"/>
	<path class="st0" d="M17,14.4c-0.2-0.4-0.4-0.8-0.6-1.3c0,0,0,0,0,0c-0.3,0-0.7,0-1,0c0,0,0,0,0,0c-0.1,0.2-0.2,0.4-0.3,0.6
		c-0.4,0.9-0.8,1.7-1.1,2.6c0,0,0,0.1-0.1,0.1c0,0,0,0,0,0c0.3,0,0.6,0,0.9,0c0,0,0,0,0,0c0.1-0.2,0.2-0.4,0.2-0.6c0,0,0,0,0,0
		c0.5,0,1,0,1.5,0c0,0,0,0,0,0c0.1,0.2,0.2,0.4,0.2,0.6c0,0,0,0,0,0c0.3,0,0.6,0,0.9,0c0,0,0,0,0,0c0,0,0,0,0,0
		C17.6,15.8,17.3,15.1,17,14.4z M15.4,15.2c0.2-0.4,0.3-0.9,0.5-1.3c0.2,0.4,0.3,0.9,0.5,1.3C16.1,15.2,15.7,15.2,15.4,15.2z"/>
	<path class="st0" d="M12.3,13.7c-0.1-0.1-0.3-0.3-0.4-0.4c-0.2,0.2-0.3,0.3-0.5,0.5c0,0,0,0,0,0c0-0.8,0-1.6,0-2.3
		c0-0.1,0-0.2,0-0.2c0-0.1,0.1-0.3,0.2-0.3c0.1-0.1,0.2-0.1,0.3-0.1c0.2,0,0.3,0,0.5,0c0.2,0,0.3,0.1,0.4,0.3c0,0.1,0.1,0.2,0.1,0.3
		c0,0.1,0,0.2,0,0.2c0.3,0,0.6,0,0.9,0c0-0.2,0-0.3,0-0.5c0-0.1-0.1-0.3-0.2-0.4c-0.1-0.2-0.3-0.3-0.6-0.4c-0.2-0.1-0.5-0.1-0.7-0.1
		c-0.2,0-0.4,0-0.6,0c-0.2,0-0.4,0-0.6,0.1c-0.3,0.1-0.5,0.3-0.6,0.6c-0.1,0.2-0.1,0.4-0.1,0.5c0,0.8,0,1.6,0,2.4c0,0,0,0,0,0
		c0,0,0,0,0,0c-0.2-0.2-0.3-0.3-0.5-0.5c-0.1,0.1-0.3,0.3-0.4,0.4c0.4,0.4,0.9,0.9,1.3,1.3C11.5,14.5,11.9,14.1,12.3,13.7z"/>
	<path class="st0" d="M14.7,13c-0.4-0.4-0.9-0.9-1.3-1.3c-0.4,0.4-0.9,0.9-1.3,1.3c0.1,0.1,0.3,0.3,0.4,0.4c0.2-0.2,0.3-0.3,0.5-0.5
		c0,0,0,0,0,0c0,0.8,0,1.6,0,2.4c0,0.1,0,0.2,0,0.2c0,0.1-0.1,0.3-0.2,0.3C12.7,16,12.6,16,12.5,16c-0.2,0-0.4,0-0.5,0
		c-0.2,0-0.4-0.1-0.4-0.4c0-0.1,0-0.1,0-0.2c0-0.1,0-0.1,0-0.2c-0.3,0-0.6,0-0.9,0c0,0.2,0,0.3,0,0.5c0.1,0.3,0.2,0.6,0.5,0.7
		c0.2,0.1,0.5,0.1,0.7,0.2c0.2,0,0.5,0,0.7,0c0.2,0,0.4,0,0.6-0.1c0.3-0.1,0.5-0.3,0.6-0.7c0-0.2,0-0.3,0-0.5c0-0.8,0-1.6,0-2.4
		c0,0,0,0,0,0c0,0,0,0,0,0c0.2,0.2,0.3,0.3,0.5,0.5C14.5,13.3,14.6,13.1,14.7,13z"/>
	<path class="st0" d="M21.9,16.5c-0.5-0.6-0.9-1.1-1.4-1.7c0.4-0.5,0.9-1.1,1.3-1.6c0,0,0,0,0,0c-0.3,0-0.7,0-1,0c0,0,0,0,0,0
		c-0.2,0.3-0.5,0.6-0.7,1c0,0,0,0,0,0c0,0,0,0,0-0.1c-0.2-0.3-0.4-0.6-0.7-0.9c0,0,0,0-0.1,0c-0.3,0-0.7,0-1,0c0,0,0,0,0,0
		c0,0,0,0,0,0c0.2,0.2,0.4,0.5,0.6,0.7c0.2,0.3,0.5,0.6,0.7,0.8c0,0,0,0,0,0c-0.1,0.1-0.2,0.2-0.3,0.3c-0.4,0.4-0.7,0.9-1.1,1.3
		c0,0,0,0.1-0.1,0.1c0,0,0,0,0,0c0.4,0,0.7,0,1.1,0c0,0,0,0,0,0c0.2-0.3,0.4-0.6,0.6-0.9c0.1-0.1,0.1-0.2,0.2-0.2c0,0,0,0,0,0
		c0.3,0.4,0.5,0.7,0.8,1.1c0,0,0,0,0,0C21.1,16.5,21.5,16.5,21.9,16.5C21.9,16.5,21.9,16.5,21.9,16.5z"/>
	<path class="st0" d="M40,27.4c0-0.6-0.5-1.1-1.1-1.1l0,0c-0.2,0-0.3,0-0.5,0c-0.1,0-0.3,0-0.4,0l0,0c-0.1,0-0.2,0-0.2-0.2
		c-0.2-0.6-0.4-1.3-0.8-1.9c-0.1-0.1-0.1-0.2,0-0.3c0.1-0.1,0.1-0.1,0.2-0.2l0,0c0.1-0.1,0.2-0.2,0.4-0.4c0.3-0.3,0.4-0.6,0.4-0.9
		c0-0.3-0.1-0.6-0.4-0.9c-0.5-0.5-1.1-1.1-1.8-1.8c-0.2-0.2-0.5-0.4-0.8-0.4c-0.3,0-0.6,0.1-0.8,0.4c-0.2,0.2-0.3,0.3-0.5,0.5
		l-0.2,0.2c0,0-0.1,0.1-0.1,0.1c0,0-0.1,0-0.1,0c-0.7-0.4-1.3-0.6-2-0.8c-0.1,0-0.2-0.1-0.2-0.2c0-0.3,0-0.5,0-0.8l0-0.1
		c0-0.7-0.4-1.1-1.1-1.1c-0.5,0-0.9,0-1.3,0c-0.4,0-0.9,0-1.3,0c-0.7,0-1.1,0.5-1.1,1.2c0,0.2,0,0.3,0,0.5c0,0.1,0,0.2,0,0.3
		c0,0.2,0,0.2-0.2,0.3c-0.6,0.2-1.3,0.5-1.9,0.8c0,0-0.1,0-0.1,0c0,0-0.1,0-0.1-0.1c-0.2-0.2-0.4-0.4-0.6-0.6
		c-0.2-0.2-0.5-0.4-0.8-0.4c-0.3,0-0.6,0.1-0.8,0.4c-0.5,0.5-1.1,1.1-1.8,1.8c-0.2,0.2-0.4,0.5-0.4,0.8c0,0.3,0.1,0.6,0.4,0.8
		c0.1,0.1,0.3,0.3,0.4,0.4c0.1,0.1,0.1,0.1,0.2,0.2c0.1,0.1,0.1,0.1,0,0.2c-0.4,0.7-0.6,1.3-0.8,1.9c0,0.2-0.1,0.2-0.2,0.2
		c-0.2,0-0.5,0-0.7,0l-0.2,0c-0.6,0-1.1,0.5-1.1,1c0,1,0,1.9,0,2.7c0,0.6,0.5,1.1,1.1,1.1c0.2,0,0.3,0,0.5,0c0.2,0,0.3,0,0.5,0
		c0.1,0,0.2,0,0.2,0.2c0.2,0.7,0.4,1.3,0.8,2c0.1,0.1,0,0.2,0,0.2c-0.1,0.1-0.1,0.1-0.2,0.2l0,0c-0.1,0.1-0.3,0.3-0.4,0.4
		c-0.2,0.2-0.4,0.5-0.4,0.8c0,0.3,0.1,0.6,0.3,0.8c0.5,0.5,0.9,0.9,1.4,1.4l0.5,0.5c0.2,0.2,0.5,0.4,0.8,0.4c0.3,0,0.6-0.1,0.8-0.4
		c0.1-0.1,0.2-0.2,0.4-0.4c0.1-0.1,0.2-0.2,0.3-0.3c0-0.1,0.1-0.1,0.1-0.1c0,0,0.1,0,0.1,0c0.7,0.4,1.3,0.6,2,0.8
		c0.1,0,0.2,0.1,0.2,0.2c0,0.2,0,0.5,0,0.7l0,0.2c0,0.7,0.5,1.1,1.1,1.1c0.2,0,0.3,0,0.5,0l2.1,0c0.6,0,1.1-0.5,1.1-1.1
		c0-0.3,0-0.6,0-0.9c0-0.1,0-0.2,0.2-0.2c0.6-0.2,1.3-0.4,2-0.8c0,0,0.1,0,0.1,0c0,0,0.1,0,0.1,0.1l0.1,0.1c0.2,0.2,0.3,0.3,0.5,0.5
		c0.2,0.3,0.5,0.4,0.8,0.4c0.3,0,0.6-0.1,0.8-0.4l1.8-1.8c0.2-0.2,0.4-0.5,0.3-0.8c0-0.3-0.1-0.6-0.4-0.8c-0.2-0.2-0.4-0.4-0.6-0.6
		c-0.1-0.1-0.1-0.2,0-0.3c0.4-0.7,0.6-1.3,0.8-1.9c0-0.1,0.1-0.2,0.2-0.2l0,0c0.1,0,0.3,0,0.4,0c0.2,0,0.3,0,0.5,0
		c0.6,0,1.1-0.5,1.1-1.1C40,29,40,28.2,40,27.4z M39,30c0,0.1,0,0.1-0.1,0.1l0,0c-0.1,0-0.1,0-0.2,0c-0.1,0-0.1,0-0.2,0
		c-0.2,0-0.4,0-0.6,0c-0.5,0.1-0.8,0.4-1,0.9c-0.2,0.7-0.5,1.3-0.7,1.8c-0.3,0.5-0.2,1.1,0.2,1.5c0.1,0.1,0.2,0.2,0.3,0.3
		c0.1,0.1,0.2,0.2,0.3,0.3c0,0,0,0.1,0,0.1c0,0,0,0-0.1,0.1c-0.6,0.6-1.2,1.2-1.8,1.8c0,0-0.1,0.1-0.1,0.1c0,0,0,0-0.1,0
		c-0.1-0.1-0.2-0.2-0.3-0.3c-0.1-0.1-0.2-0.2-0.3-0.3c-0.2-0.3-0.6-0.4-0.9-0.4c-0.2,0-0.4,0.1-0.6,0.2c-0.5,0.3-1.1,0.5-1.7,0.7
		c-0.6,0.2-1,0.6-1,1.3c0,0.1,0,0.2,0,0.3l0,0c0,0.2,0,0.3,0,0.5c0,0.1,0,0.1,0,0.1c0,0-0.1,0-0.1,0c-0.2,0-0.3,0-0.5,0l-0.7,0
		L28,39c-0.2,0-0.3,0-0.5,0c-0.1,0-0.1,0-0.1,0c0,0,0-0.1,0-0.1c0-0.1,0-0.2,0-0.3c0-0.2,0-0.5,0-0.8c-0.1-0.5-0.3-0.8-0.8-1
		c-0.8-0.2-1.4-0.5-1.9-0.8c-0.2-0.1-0.3-0.1-0.5-0.1c-0.3,0-0.6,0.1-0.9,0.4L23,36.4c-0.1,0.1-0.3,0.3-0.4,0.4c0,0-0.1,0.1-0.1,0.1
		c0,0,0,0-0.1-0.1c-0.5-0.5-1.1-1.1-1.8-1.8C20.6,35,20.6,35,20.6,35c0,0,0,0,0.1-0.1c0.1-0.1,0.2-0.2,0.3-0.3l0,0
		c0.1-0.1,0.2-0.2,0.3-0.3c0.4-0.4,0.5-1,0.2-1.5c-0.3-0.5-0.5-1.1-0.7-1.7c-0.2-0.6-0.6-0.9-1.3-0.9l-0.1,0c-0.1,0-0.2,0-0.3,0
		c-0.1,0-0.3,0-0.4,0l0,0c-0.1,0-0.1,0-0.1,0c0,0,0,0,0-0.1c0-0.8,0-1.7,0-2.5c0-0.1,0-0.1,0-0.1c0,0,0,0,0.1,0l0,0
		c0.1,0,0.1,0,0.2,0l0,0c0.1,0,0.1,0,0.2,0c0.2,0,0.4,0,0.6,0c0.5-0.1,0.8-0.3,1-0.8c0.2-0.7,0.5-1.3,0.8-1.8
		c0.3-0.5,0.2-1.1-0.3-1.5c-0.1-0.1-0.2-0.2-0.3-0.3c-0.1-0.1-0.2-0.2-0.3-0.3c0,0,0-0.1,0-0.1c0,0,0,0,0.1-0.1
		c0.6-0.6,1.2-1.2,1.8-1.8c0,0,0.1-0.1,0.1-0.1c0,0,0,0,0.1,0l0.1,0.1c0.2,0.2,0.4,0.4,0.7,0.6c0.2,0.2,0.4,0.3,0.7,0.3
		c0.2,0,0.4-0.1,0.6-0.2c0.6-0.3,1.1-0.5,1.7-0.7c0.6-0.2,1-0.6,1-1.3l0-0.2c0-0.2,0-0.4,0-0.6c0-0.1,0-0.1,0-0.1c0,0,0,0,0.1,0
		c0.4,0,0.8,0,1.2,0c0.5,0,0.9,0,1.4,0c0.1,0,0.1,0,0.1,0c0,0,0,0,0,0.1c0,0.2,0,0.5,0,0.7l0,0.2c0,0.6,0.3,1.1,0.9,1.2
		c0.7,0.2,1.2,0.4,1.8,0.7c0.2,0.1,0.4,0.2,0.6,0.2c0.3,0,0.7-0.1,0.9-0.4c0.1-0.1,0.2-0.2,0.3-0.3c0.1-0.1,0.2-0.2,0.3-0.3
		c0,0,0.1-0.1,0.1-0.1c0,0,0,0,0.1,0.1c0.6,0.6,1.2,1.2,1.8,1.8c0,0,0,0.1,0,0.1s0,0,0,0.1c-0.2,0.2-0.3,0.3-0.5,0.5l-0.1,0.1
		c-0.4,0.4-0.5,1-0.2,1.5c0.3,0.5,0.5,1.1,0.8,1.8c0.2,0.6,0.6,0.9,1.2,0.9c0.2,0,0.3,0,0.5,0c0.1,0,0.3,0,0.4,0l0,0
		c0.1,0,0.1,0,0.1,0c0,0,0,0,0,0.1C38.9,28.4,38.9,29.2,39,30z"/>
	<path class="st0" d="M28.8,24.2L28.8,24.2c-1.2,0-2.4,0.5-3.2,1.3c-0.8,0.9-1.3,2-1.3,3.2c0,2.5,2,4.5,4.5,4.5h0
		c1.2,0,2.3-0.5,3.2-1.3c0.8-0.9,1.3-2,1.3-3.2C33.3,26.3,31.2,24.2,28.8,24.2z M28.8,32.2L28.8,32.2c-1,0-1.8-0.4-2.5-1
		c-0.7-0.7-1-1.5-1-2.5c0-1.9,1.6-3.4,3.5-3.4l0,0c1.9,0,3.5,1.6,3.5,3.5C32.2,30.7,30.7,32.2,28.8,32.2z"/>
</g>
</svg>
