<?xml version="1.0" encoding="utf-8"?>
<!-- Generator: Adobe Illustrator 23.0.1, SVG Export Plug-In . SVG Version: 6.00 Build 0)  -->
<svg version="1.1" id="Capa_1" xmlns="http://www.w3.org/2000/svg" xmlns:xlink="http://www.w3.org/1999/xlink" x="0px" y="0px"
	 viewBox="0 0 40 40" style="enable-background:new 0 0 40 40;" xml:space="preserve">
<style type="text/css">
	.st0{fill:#3A3A3A;}
</style>
<g>
	<path class="st0" d="M24,34.5l-6.6-3.3v-1.5c0,0,0-0.1,0-0.1c2-1.5,3.4-3.8,3.5-6.5c0.8-1.1,1.1-2.9,0.7-4.4
		c-0.4-1.4-1.2-2.4-2.5-2.9c-1.2-1.8-2.7-2.9-4.4-3.2c-2.4-0.4-5.2,0.6-8.5,3.1l-0.1,0.1c-1.9,1.9-2,4.8-2,6.2c0,0.1,0,0.2,0,0.3
		c0,0.3,0,0.5,0,0.5c0,2.5,1.2,4.8,3,6.3c0,0,0,0,0,0.1V31l-6.2,3.2c-0.5,0.3-0.9,0.8-0.9,1.4l0,3.6C0,39.6,0.4,40,0.8,40
		c0,0,0,0,0,0c0.5,0,0.8-0.4,0.8-0.8l0-3.5l5.6-2.9l5.1,3.5l4.5-3.4l6.2,3.1l0,3.2c0,0.5,0.4,0.8,0.8,0.8c0,0,0,0,0,0
		c0.5,0,0.8-0.4,0.8-0.9l0-3.2C24.8,35.3,24.5,34.8,24,34.5z M14.3,14.2c1.3,0.2,2.5,1.1,3.4,2.7l0.2,0.3l0.3,0.1
		c1.1,0.3,1.5,1.2,1.7,1.8c0.1,0.5,0.2,1.1,0.1,1.6c-0.1,0-0.3,0-0.4,0c-3,0.1-8.7,0.3-10.3-5.1C11.2,14.4,12.9,14,14.3,14.2z
		 M7.2,17c0.2-0.2,0.4-0.3,0.6-0.4c0.3,0.8,0.6,1.5,1.1,2.1c-0.2,0.8-0.9,1.7-1.8,2.2c-0.4,0.3-0.9,0.4-1.3,0.5
		C5.8,20.1,6,18.2,7.2,17z M15.7,31.7l-3.2,2.5l-3.7-2.5v-1.4c1.1,0.5,2.4,0.9,3.7,0.9c1.1,0,2.2-0.2,3.2-0.6V31.7z M12.5,29.4
		c-3.6,0-6.5-2.8-6.7-6.4c0.7,0,1.4-0.3,2.1-0.7c0.9-0.6,1.7-1.4,2.2-2.3c2.4,2.1,5.7,2.4,8,2.4c0.4,0,0.7,0,1,0l0,0v0.3
		C19.2,26.5,16.2,29.4,12.5,29.4z"/>
	<path class="st0" d="M31.7,26c0.4-0.1,0.6-0.4,0.6-0.9c0.1-1.4,0.2-3,0.3-4.9c0.1-2.1,0.3-4.2,0.4-6.2l0.2-2.5h0l0-0.1
		c0,0,0-0.1,0-0.1c0-0.5-0.4-0.9-0.9-0.9c0,0,0,0,0,0c-0.5,0-0.9,0.4-0.9,0.9c-0.1,1.1-0.1,2.2-0.2,3.3c0,0.5-0.1,0.9-0.1,1.4
		l-0.1,1.9c-0.1,1.1-0.1,2.2-0.2,3.3c0,0.6-0.1,1.3-0.1,1.9c0,0.7-0.1,1.4-0.1,2c0,0.3,0.1,0.6,0.3,0.8c0.2,0.2,0.4,0.3,0.6,0.3
		C31.4,26.1,31.5,26,31.7,26z"/>
	<path class="st0" d="M26.1,25.2c0,0.5,0.4,0.8,0.9,0.8c0,0,0,0,0,0c0.5,0,0.9-0.4,0.9-0.9c0-0.1,0-0.1,0-0.2l0-11.3
		c0-0.8,0-1.6,0-2.4c0-0.4-0.2-0.7-0.6-0.9c-0.1-0.1-0.2-0.1-0.4-0.1c-0.5,0-0.9,0.4-0.9,1c0,1.6,0,3.3,0,4.9l0,8.7l0,0.1
		C26.1,25.1,26.1,25.1,26.1,25.2z"/>
	<path class="st0" d="M39.9,5.3c-0.4-1.2-1.3-1.9-2.6-1.9c-0.5,0-1,0-1.7,0c-0.3,0-2.5,0-2.5,0c0-0.1,0-0.2,0-0.2c0-0.2,0-0.4,0-0.5
		c0-1-0.4-1.7-1.1-2.1c-0.3-0.2-0.6-0.3-0.8-0.4c-0.1,0-0.3-0.1-0.4-0.1l0,0h-7.5l0,0c0,0,0,0,0,0c0,0,0,0-0.1,0
		c-1.2,0.2-2,1.1-2.2,2.3c0,0.3,0,0.5,0,0.8c0,0.1,0,0.2,0,0.3h-0.3c-0.4,0-0.8,0-1.2,0c-0.4,0-0.8,0-1.2,0c-0.5,0-1,0-1.5,0
		c-1.2,0-2.1,0.7-2.5,1.6c-0.5,1.4,0.1,2.8,1.4,3.4c0.1,0,0.2,0.1,0.2,0.2c0,0.3,0.1,0.6,0.1,0.9c0,0.1,0,0.2,0,0.3
		c0,0.4,0.1,0.9,0.1,1.3c0.7,0.2,1.3,0.6,1.9,1c-0.1-0.8-0.1-1.6-0.2-2.4l-0.1-1.1h18.7l-0.1,0.6c0,0.5-0.1,1-0.1,1.5
		c-0.1,0.9-0.2,1.9-0.2,2.8l-0.3,3.1c-0.1,1.5-0.3,3.1-0.4,4.6c-0.1,1-0.2,2-0.2,2.9C35,25,35,25.8,34.9,26.5l0,0c0,0.1,0,0.3,0,0.4
		c-0.1,0.4-0.4,0.7-0.8,0.7c0,0-0.1,0-0.1,0l-0.1,0H21.3c-0.4,0.6-0.8,1.2-1.3,1.8c0,0,0,0,0.1,0c2,0,4.1,0,6.5,0c2.5,0,5,0,7.5,0
		c0.8,0,1.5-0.3,2-0.9c0.5-0.6,0.6-1.3,0.7-2c0.1-1.6,0.3-3.1,0.4-4.7l0-0.6c0.1-1.3,0.2-2.6,0.3-3.9c0.1-0.9,0.2-1.8,0.2-2.7
		l0.1-0.9c0.1-1.7,0.3-3.4,0.4-5.1c0-0.2,0.1-0.2,0.2-0.3C39.6,8,40.3,6.6,39.9,5.3z M22.8,2.5c0.1-0.4,0.4-0.7,0.9-0.7
		c0.7,0,1.4,0,2.1,0l3.4,0c0.1,0,0.3,0,0.4,0c0.1,0,0.3,0,0.4,0c0.2,0,0.3,0,0.5,0c0.5,0,0.9,0.3,0.9,0.9c0,0.2,0,0.3,0,0.5
		c0,0.1,0,0.1,0,0.2h-8.5c0-0.1,0-0.2,0-0.3C22.7,2.9,22.7,2.7,22.8,2.5z M38.2,6.3c-0.1,0.4-0.4,0.6-0.8,0.6c-0.5,0-1,0-1.4,0
		l-1.8,0c0,0-14.8,0-17.1,0c0,0-0.1,0-0.2,0c-0.1,0-0.1,0-0.2,0c-0.4,0-0.7-0.4-0.7-0.8c0-0.4,0.3-0.8,0.7-0.8c0.1,0,0.1,0,0.2,0
		l0.1,0h20.4c0.4,0,0.7,0.1,0.8,0.4C38.2,5.8,38.2,6.1,38.2,6.3z"/>
	<path class="st0" d="M22.1,25.8c0.2,0.2,0.4,0.3,0.6,0.3c0,0,0,0,0,0c0.2,0,0.5-0.1,0.6-0.3c0.2-0.2,0.3-0.4,0.3-0.7
		c0-0.3,0-0.6-0.1-1c0-0.1,0-0.2,0-0.3c0-0.5-0.1-1.6-0.2-2.8c-0.1,0.9-0.4,1.8-0.8,2.6C22.5,24.4,22.3,25.1,22.1,25.8z"/>
	<path class="st0" d="M23,15.1c-0.1-1.3-0.2-2.6-0.2-3.9c0-0.4-0.2-0.7-0.6-0.8c-0.1,0-0.2-0.1-0.3-0.1c-0.2,0-0.4,0.1-0.6,0.3
		c-0.2,0.2-0.3,0.5-0.3,0.8l0.1,1.1c0.1,0.8,0.1,1.5,0.1,2.3c0,0.1,0,0.3,0,0.4c0.9,0.8,1.6,1.8,2,3.1c0,0,0,0.1,0,0.1
		c-0.1-0.9-0.1-1.6-0.1-1.6C23.1,16.2,23,15.6,23,15.1z"/>
</g>
</svg>
