<?xml version="1.0" encoding="utf-8"?>
<!-- Generator: Adobe Illustrator 23.0.1, SVG Export Plug-In . SVG Version: 6.00 Build 0)  -->
<svg version="1.1" id="Capa_1" xmlns="http://www.w3.org/2000/svg" xmlns:xlink="http://www.w3.org/1999/xlink" x="0px" y="0px"
	 viewBox="0 0 40 40" style="enable-background:new 0 0 40 40;" xml:space="preserve">
<style type="text/css">
	.st0{fill:#3A3A3A;}
</style>
<g>
	<path class="st0" d="M35,0L17,0c-1.3,0-2.6,0-3.9,0c-1.8,0-3.3,0.8-4.2,2.4C8.4,3.1,8.2,3.9,8.2,4.9c0,0.7,0,1.3,0,2l0,1.3l-2.1,0
		c-0.4,0-0.8,0-1.2,0c-0.4,0-0.9,0-1.3,0.1C1.4,8.8,0,10.7,0,13.1c0,6.7,0,13.3,0,20l0,2c0,3,2,5,5,5l10.9,0l10.9,0c3,0,5-2,5-5
		l0-3.1H35c3,0,5-2,5-5c0-7.3,0-14.6,0-21.9C40,2,38,0,35,0z M29.6,35c0,1.7-1,2.7-2.7,2.7H5c-1.7,0-2.7-1-2.7-2.7
		c0-7.3,0-14.6,0-21.9c0-1.8,1-2.8,2.8-2.8l10.9,0l10.9,0c1.8,0,2.8,1,2.8,2.8V35z M37.7,27c0,1.6-1,2.6-2.6,2.6l-1,0l-2.3,0l0-16.4
		c0-3-2-5-5-5l-6.1,0l-10.2,0l0-0.4l0-0.1c0-0.1,0-0.2,0-0.3c0-0.3,0-0.5,0-0.8c0-0.5,0-1,0-1.5c-0.1-0.8,0.2-1.4,0.7-2
		c0.5-0.5,1.3-0.9,2.1-0.9h0c2.1,0,4.4,0,7.2,0c1.4,0,2.8,0,4.2,0s2.8,0,4.2,0l6.3,0c1.6,0,2.6,1,2.6,2.6
		C37.7,12.2,37.7,19.6,37.7,27z"/>
	<path class="st0" d="M22,24.8c-0.3,0-0.6,0.1-0.8,0.4c-0.8,0.8-1.6,1.6-2.4,2.4c-0.3,0.3-1.2,1.2-1.2,1.2L17,28.5l0-10.8
		c0-0.2,0-0.4,0-0.5c-0.1-0.5-0.5-0.9-1-0.9l-0.1,0c-0.7,0-1.1,0.5-1.1,1.3c0,2.5,0,5,0,7.5l0,4.3l-0.9-0.8
		c-0.1-0.1-0.2-0.2-0.3-0.2l-1-1c-0.7-0.7-1.3-1.4-2-2c-0.2-0.2-0.5-0.4-0.8-0.4c-0.3,0-0.6,0.1-0.8,0.3c-0.5,0.5-0.5,1.1,0,1.6
		c1.9,2,3.9,4,6.1,6.1c0.2,0.2,0.5,0.4,0.8,0.4c0.3,0,0.5-0.1,0.8-0.3c2.1-2.1,4.2-4.2,6.2-6.2c0.3-0.3,0.4-0.6,0.3-1
		C23,25.1,22.5,24.8,22,24.8z"/>
</g>
</svg>
