<?xml version="1.0" encoding="utf-8"?>
<!-- Generator: Adobe Illustrator 23.0.1, SVG Export Plug-In . SVG Version: 6.00 Build 0)  -->
<svg version="1.1" id="Capa_1" xmlns="http://www.w3.org/2000/svg" xmlns:xlink="http://www.w3.org/1999/xlink" x="0px" y="0px"
	 viewBox="0 0 40 40" style="enable-background:new 0 0 40 40;" xml:space="preserve">
<style type="text/css">
	.st0{fill:#3A3A3A;}
</style>
<g>
	<path class="st0" d="M39.8,34.8c-1.4-1.4-2.6-2.6-3.8-3.8c-0.2-0.2-0.4-0.3-0.6-0.3c-0.2,0-0.4,0.1-0.6,0.3c-0.4,0.4-0.4,0.9,0,1.2
		c0.3,0.3,0.7,0.7,1,1c0.2,0.2,0.4,0.4,0.5,0.5c0.1,0.1,0.1,0.1,0.2,0.2l0.4,0.5H5.5V3.2L6,3.6c0.1,0.1,0.2,0.1,0.2,0.2
		C6.4,4,6.6,4.1,6.7,4.3c0.3,0.3,0.7,0.7,1,1c0.2,0.2,0.4,0.2,0.6,0.2c0.2,0,0.4-0.1,0.6-0.3C9.3,4.9,9.3,4.4,9,4.1
		C7.8,2.8,6.5,1.6,5.2,0.3C5,0.1,4.8,0,4.6,0C4.4,0,4.2,0.1,4.1,0.2C2.7,1.6,1.4,2.9,0.2,4.1C0.1,4.2,0,4.4,0,4.7
		c0,0.2,0.2,0.5,0.4,0.7c0.2,0.1,0.3,0.2,0.5,0.2c0.2,0,0.5-0.1,0.7-0.3C2,4.8,2.4,4.4,2.7,4l0.6-0.6l0.4,0.2v31.5
		c0,0.1,0,0.3,0,0.4c0,0.4,0.4,0.7,0.8,0.8c0.1,0,0.2,0,0.3,0l32.1,0l-0.5,0.5c-0.1,0.1-0.2,0.2-0.2,0.2c-0.2,0.2-0.3,0.3-0.5,0.5
		c-0.3,0.3-0.7,0.7-1,1c-0.3,0.4-0.3,0.9,0,1.2c0.2,0.2,0.4,0.3,0.6,0.3c0.2,0,0.4-0.1,0.6-0.2c1.2-1.2,2.5-2.5,3.8-3.8
		C40.1,35.6,40.1,35.1,39.8,34.8z"/>
	<path class="st0" d="M31.2,7.3c-5.4,7.1-12.8,10.9-21.8,11.3c-0.4,0-0.6,0.2-0.8,0.5c-0.2,0.3-0.2,0.6,0,0.9
		c0.2,0.3,0.5,0.5,0.9,0.5h0c1.6,0,3.3-0.2,5.1-0.6c7-1.4,12.7-4.9,17.2-10.4c0.2-0.2,0.3-0.4,0.5-0.7L33,8.1c0,0,0.2,1,0.2,1.3
		c0.1,0.6,0.2,1.1,0.3,1.7c0.1,0.4,0.4,0.7,0.9,0.7c0.1,0,0.1,0,0.2,0c0.4-0.1,0.7-0.4,0.7-0.9c0-0.2,0-0.4-0.1-0.6L35,8.9
		c-0.2-1.1-0.3-2.3-0.5-3.4C34.4,5,34,4.7,33.6,4.7c0,0-0.1,0-0.1,0c-1.8,0.2-3.5,0.5-5.3,0.7c-0.3,0-0.5,0.2-0.6,0.3
		c-0.1,0.2-0.2,0.4-0.1,0.7c0.1,0.5,0.4,0.8,0.9,0.8c0.1,0,0.1,0,0.2,0C28.6,7.1,28.8,7,29,7l2.7-0.4l-0.3,0.5
		C31.3,7.2,31.3,7.3,31.2,7.3z"/>
	<path class="st0" d="M31.3,16.9c-0.1-0.3-0.4-0.6-0.8-0.6c-0.1,0-0.1,0-0.2,0c-0.4,0.1-0.7,0.4-0.7,0.9c0,1.5,0,3,0,4.5
		c0,0,0,6.7,0,8.3c0,0.6,0.4,1.1,0.9,1.1h0c0.5,0,0.9-0.4,0.9-1c0-0.6,0-1.1,0-1.7l0-2.7c0-2.7,0-5.5,0-8.2
		C31.3,17.3,31.3,17,31.3,16.9z"/>
	<path class="st0" d="M24.7,20.2c-0.1,0-0.2,0-0.3,0c-0.5,0-0.9,0.4-0.9,1c0,1.1,0,2.1,0,3.2l0,2.6c0,1,0,2.1,0,3.1
		c0,0.6,0.4,1,0.9,1h0c0.5,0,0.9-0.4,0.9-1c0-0.7,0-1.3,0-2l0-2.4c0-1.5,0-3,0-4.5C25.4,20.7,25.1,20.3,24.7,20.2z"/>
	<path class="st0" d="M18.5,22.7c-0.5,0-0.9,0.4-0.9,1.1c0,2.1,0,4.2,0,6.2c0,0.6,0.4,1.1,0.9,1.1h0c0.5,0,0.9-0.4,0.9-1.1
		c0-0.7,0-1.4,0-2.2l0-1.9c0-0.7,0-1.4,0-2.2C19.4,23.2,19.1,22.8,18.5,22.7z"/>
	<path class="st0" d="M13.5,30.2c0-1.4,0-2.8,0-4.2c0-0.5-0.4-0.9-0.9-0.9c-0.5,0-0.9,0.4-0.9,0.9c0,0.5,0,1,0,1.4v1.3
		c0,0.5,0,1,0,1.4c0,0.5,0.4,0.9,0.9,0.9C13.1,31.1,13.5,30.7,13.5,30.2z"/>
	<polygon class="st0" points="12.6,31.1 12.6,31.1 12.6,31.1 	"/>
</g>
</svg>
