<?xml version="1.0" encoding="utf-8"?>
<!-- Generator: Adobe Illustrator 23.0.1, SVG Export Plug-In . SVG Version: 6.00 Build 0)  -->
<svg version="1.1" id="Capa_1" xmlns="http://www.w3.org/2000/svg" xmlns:xlink="http://www.w3.org/1999/xlink" x="0px" y="0px"
	 viewBox="0 0 40 40" style="enable-background:new 0 0 40 40;" xml:space="preserve">
<style type="text/css">
	.st0{fill:#3A3A3A;}
</style>
<g>
	<path class="st0" d="M39.7,9.1c-1-4.8-5.4-8.5-10.4-8.5c-0.6,0-1.2,0.1-1.9,0.2c-4,0.8-6.8,3.1-8.2,7c0,0,0,0,0,0L19.3,8l-0.2,0.1
		c0,0-0.1,0-0.2,0c-0.9,0-1.9,0-2.8,0l-13.5,0c-1.5,0-2.5,1-2.5,2.5c0,1,0,2,0,3.1v0.4c0,1,0,2,0,3c0,0.6,0.2,1.1,0.5,1.5l0.1,0.1
		l-0.1,0.1C0.2,19.4,0,20,0,20.8c0,2,0,3.9,0,5.7c0,0.7,0.1,1.4,0.6,2.1l0.1,0.1l-0.1,0.1c-0.5,0.6-0.6,1.4-0.6,2c0,1.4,0,2.8,0,4.1
		l0,1.9c0,1.6,1,2.6,2.6,2.6l13.7,0l13.7,0c1.6,0,2.6-1,2.6-2.6l0-1.6c0-1.4,0-2.9,0-4.3c0-0.7,0-1.4-0.6-2.1l-0.1-0.1l0.1-0.1
		c0.5-0.7,0.6-1.4,0.6-2.1c0-0.8,0-1.6,0-2.4v-0.2c0-0.7,0-1.4,0-2.1c0,0,0,0,0-0.1l-0.1-0.1l0.1-0.1c0,0,0.1-0.1,0.2-0.1
		c3.5-1.3,5.8-3.8,6.8-7.3C40.3,12.4,39.9,9.9,39.7,9.1z M1.6,10.7c0-0.8,0.3-1.1,1-1.1c3.7,0,7.3,0,11,0l5.1,0l0,0.2
		c-0.2,1.4-0.1,2.8,0.3,4.2c0.3,1.2,0.9,2.4,1.7,3.5L21,18H2.8c-0.9,0-1.1-0.3-1.1-1.1l0-2.1C1.6,13.4,1.6,12.1,1.6,10.7z M31,36.7
		c0,0.8-0.3,1-1.1,1l-27.3,0c-0.7,0-1-0.3-1-1c0-2.1,0-4.2,0-6.3c0-0.7,0.3-1,1-1l6.8,0h20.4c0.8,0,1.1,0.3,1.1,1.1
		C31,30.5,31,35,31,36.7z M31,26.9c0,0.7-0.3,1-1,1l-27.4,0c-0.6,0-0.9-0.3-0.9-1c0-2.1,0-4.3,0-6.4c0-0.6,0.3-0.9,0.9-0.9l7.4,0
		c4.2,0,8.3,0,12.5,0c0.1,0,0.2,0.1,0.4,0.2c2,1.5,4.2,2.3,6.5,2.3c0.2,0,0.3,0,0.5,0c0.3,0,0.6,0,0.9-0.1l0.3,0l0,3.4
		C31,25.8,31,26.4,31,26.9z M29.3,20.5L29.3,20.5c-5.1,0-9.2-4.2-9.1-9.2c0-5,4.1-9.1,9.1-9.1l0.1,0c5,0.1,9.1,4.2,9.1,9.2
		C38.4,16.4,34.3,20.5,29.3,20.5z"/>
	<polygon class="st0" points="30.1,6.1 28.5,6.1 28.5,10.5 24.1,10.5 24.1,12 28.5,12 28.5,16.4 30.1,16.4 30.1,12 34.5,12 
		34.5,10.4 30.1,10.4 	"/>
	<rect x="5" y="32.8" class="st0" width="10.2" height="1.5"/>
	<path class="st0" d="M26.7,32.7c-0.5,0-0.9,0.4-0.9,0.9c0,0.5,0.4,0.9,0.9,0.9h0c0.2,0,0.5-0.1,0.6-0.3c0.2-0.2,0.3-0.4,0.3-0.7
		C27.7,33.1,27.3,32.7,26.7,32.7z"/>
	<rect x="5" y="23" class="st0" width="10.2" height="1.5"/>
	<path class="st0" d="M26.8,22.8c-0.5,0-0.9,0.4-0.9,0.9c0,0.2,0.1,0.5,0.3,0.7c0.2,0.2,0.4,0.3,0.6,0.3h0c0.5,0,0.9-0.4,0.9-0.9
		c0-0.2-0.1-0.5-0.3-0.6C27.3,22.9,27.1,22.8,26.8,22.8z"/>
	<rect x="4.4" y="13.1" class="st0" width="10.2" height="1.5"/>
</g>
</svg>
