<?xml version="1.0" encoding="utf-8"?>
<!-- Generator: Adobe Illustrator 23.0.1, SVG Export Plug-In . SVG Version: 6.00 Build 0)  -->
<svg version="1.1" id="Capa_1" xmlns="http://www.w3.org/2000/svg" xmlns:xlink="http://www.w3.org/1999/xlink" x="0px" y="0px"
	 viewBox="0 0 40 40" style="enable-background:new 0 0 40 40;" xml:space="preserve">
<style type="text/css">
	.st0{fill:#3A3A3A;}
</style>
<g>
	<path class="st0" d="M36.6,12.2H30c-0.1,0.6-0.3,1.2-0.6,1.7h7.3L21.2,29.6c-0.3,0.3-0.8,0.5-1.2,0.5c-0.4,0-0.9-0.2-1.2-0.5
		C15.1,26,2.9,13.9,2.9,13.9l7.7,0c-0.2-0.6-0.4-1.1-0.6-1.7H3.5c-1.4,0-3.4,0.1-3.4,2.8v22.2C0,40,2.2,40,3.4,40h33.1
		c1.4,0,3.4-0.4,3.4-2.8V15C39.7,12.2,37.8,12.2,36.6,12.2z M1.8,15.3l0.6,0.5c1.7,1.7,3.5,3.5,5.3,5.2c1.6,1.6,5.1,5,5.1,5
		L1.8,36.9V15.3z M3.1,38.2l0.6-0.6c3.4-3.4,6.8-6.7,10.1-10l0.2-0.2l0.2,0.2l0,0c0.1,0,0.1,0.1,0.2,0.2c1,1,1.9,2,2.9,2.9
		c0.7,0.7,1.6,1.1,2.5,1.1c0.9,0,1.8-0.4,2.5-1.1c0.9-0.9,1.8-1.8,2.9-2.9c0.1-0.1,0.1-0.1,0.1-0.2c0,0,0-0.1,0.1-0.1l0.2-0.3
		l11,10.9H3.1z M38.2,36.9L27.3,26.1l10.9-10.8V36.9z"/>
	<path class="st0" d="M20,18.8c5.2,0,9.4-4.2,9.4-9.3c0-2.5-1-4.9-2.7-6.7C24.9,1,22.5,0,20,0c-5.2,0-9.4,4.2-9.4,9.4
		C10.6,14.6,14.8,18.8,20,18.8z M20,1.6L20,1.6c4.3,0,7.8,3.6,7.8,7.8c0,2.1-0.8,4-2.3,5.5c-1.5,1.5-3.4,2.3-5.6,2.3c0,0,0,0,0,0
		c-4.3,0-7.8-3.5-7.8-7.8C12.2,5.1,15.7,1.6,20,1.6z"/>
	<path class="st0" d="M16.6,12.8c0.2,0.2,0.4,0.3,0.7,0.3c0.2,0,0.5-0.1,0.7-0.3l2.1-2.1l2.1,2.1c0.2,0.2,0.4,0.3,0.7,0.3
		c0.2,0,0.5-0.1,0.7-0.3c0.4-0.4,0.4-1,0-1.3l-2.1-2.1l2.1-2.1c0.4-0.4,0.4-1,0-1.3c-0.4-0.4-1-0.4-1.3,0L20,8.1L17.9,6
		c-0.4-0.4-1-0.4-1.3,0c-0.4,0.4-0.4,1,0,1.3l2.1,2.1l-2.1,2.1C16.2,11.9,16.2,12.5,16.6,12.8z"/>
</g>
</svg>
