<?xml version="1.0" encoding="utf-8"?>
<!-- Generator: Adobe Illustrator 23.0.1, SVG Export Plug-In . SVG Version: 6.00 Build 0)  -->
<svg version="1.1" id="Capa_1" xmlns="http://www.w3.org/2000/svg" xmlns:xlink="http://www.w3.org/1999/xlink" x="0px" y="0px"
	 viewBox="0 0 40 40" style="enable-background:new 0 0 40 40;" xml:space="preserve">
<style type="text/css">
	.st0{fill:#3A3A3A;}
</style>
<g>
	<path class="st0" d="M19.3,35.6L14,32.9v-1.2c0,0,0,0,0-0.1c1.6-1.2,2.7-3.1,2.8-5.2c0.7-0.9,0.9-2.3,0.5-3.5c-0.3-1.1-1-1.9-2-2.3
		c-0.9-1.5-2.1-2.3-3.5-2.6c-1.9-0.4-4.2,0.5-6.8,2.5l-0.1,0.1c-1.5,1.5-1.6,3.9-1.6,5c0,0.1,0,0.1,0,0.2c0,0.2,0,0.4,0,0.4
		c0,2,0.9,3.9,2.4,5.1c0,0,0,0,0,0v1.4l-5,2.5C0.3,35.5,0,35.9,0,36.4l0,2.9C0,39.7,0.3,40,0.7,40c0,0,0,0,0,0
		c0.4,0,0.7-0.3,0.7-0.7l0-2.8l4.5-2.3l4.1,2.8l3.6-2.7l5,2.5l0,2.6c0,0.4,0.3,0.7,0.7,0.7c0,0,0,0,0,0c0.4,0,0.7-0.3,0.7-0.7l0-2.6
		C20,36.2,19.7,35.8,19.3,35.6z M11.5,19.3c1.1,0.2,2,0.9,2.7,2.2l0.1,0.2l0.2,0.1c0.9,0.3,1.2,1,1.3,1.5c0.1,0.4,0.1,0.8,0.1,1.3
		c-0.1,0-0.2,0-0.3,0c-2.4,0.1-7,0.2-8.3-4.1C9,19.4,10.4,19.1,11.5,19.3z M5.8,21.5c0.2-0.1,0.3-0.2,0.5-0.3
		c0.2,0.6,0.5,1.2,0.9,1.7c-0.2,0.7-0.7,1.4-1.5,1.8c-0.4,0.2-0.7,0.3-1,0.4C4.6,24,4.9,22.5,5.8,21.5z M12.6,33.3l-2.6,2l-2.9-2
		v-1.1c0.9,0.4,1.9,0.7,3,0.7c0.9,0,1.8-0.2,2.6-0.5V33.3z M10,31.5c-2.9,0-5.2-2.3-5.3-5.1c0.5,0,1.1-0.2,1.7-0.6
		c0.7-0.5,1.4-1.1,1.8-1.8c1.9,1.7,4.6,1.9,6.5,1.9c0.3,0,0.6,0,0.8,0l0,0v0.3C15.4,29.1,13,31.5,10,31.5z"/>
	<path class="st0" d="M38,0c-4.7,0-9.4,0-14.1,0c-1.1,0-1.7,0.6-1.7,1.7c0,1.3,0,2.6,0,3.9c0,0.9,0.2,1.1,1.1,1.1c5,0,10,0,15,0
		c0.1,0,0.2,0,0.3,0c0,1.3,0,2.5,0,3.8c-0.1,0-0.3,0-0.4,0c-2.1,0-4.3,0-6.4,0c-0.1,0-0.3,0-0.4,0c-0.3,0.1-0.5,0.3-0.5,0.6
		c0,0.4,0.3,0.7,0.8,0.7c2.2,0,4.4,0,6.6,0c0.1,0,0.2,0,0.4,0c0,0.9,0,1.7,0,2.5c0,0.4,0.2,0.7,0.6,0.8c0.3,0,0.5-0.1,0.7-0.4
		c0-4.6,0-9.2,0-13.7C39.6,0.2,38.9,0,38,0z M38.7,5.4c-5,0-10,0-15.1,0c0-1.3,0-2.5,0-3.7c0-0.1,0.2-0.2,0.3-0.3c0,0,0.1,0,0.2,0
		c4.7,0,9.5,0,14.2,0c0.5,0,0.5,0,0.5,0.5c0,1.1,0,2.1,0,3.2C38.7,5.1,38.7,5.3,38.7,5.4z"/>
	<path class="st0" d="M37.1,9.3c0.4,0,0.7-0.3,0.7-0.7c0-0.4-0.3-0.7-0.7-0.7c-0.4,0-0.8,0-1.1,0c-0.4,0-0.8,0-1.2,0
		c-0.4,0-0.7,0.3-0.7,0.7c0,0.4,0.3,0.7,0.7,0.7C35.6,9.3,36.4,9.3,37.1,9.3z"/>
	<path class="st0" d="M37.1,2.8c-0.4,0-0.8,0-1.2,0c-0.4,0-0.8,0-1.2,0c-0.4,0-0.7,0.3-0.7,0.7c0,0.4,0.3,0.7,0.7,0.7
		c0.8,0,1.5,0,2.3,0c0.4,0,0.7-0.3,0.7-0.7C37.8,3.1,37.6,2.8,37.1,2.8z"/>
	<path class="st0" d="M31.6,15.1c-0.4,0.1-0.8,0.2-1.3,0.3C30,11,26.1,8,21.9,8.5c-3.8,0.5-7.1,4.1-6.4,8.6c-0.4,0-0.8,0-1.1,0
		c0.6,0.4,1.2,0.9,1.7,1.5c0,0,0.1,0,0.1,0c0.3,0.1,0.6,0.1,0.8-0.1c0.2-0.2,0.2-0.5,0.1-0.8c-1.1-3.4,0.9-6.9,4.4-7.8
		c3.4-0.8,6.8,1.5,7.3,4.9c0.1,0.5,0.1,1,0.1,1.5c0,0.3,0.1,0.6,0.4,0.8c0.3,0.2,0.5,0.1,0.8,0c3.4-1.9,7.5-0.1,8.5,3.7
		c0.5,1.9-0.1,3.8-1.3,5.2c0.3,0.4,0.6,0.8,0.8,1.2c0.6-0.6,1.1-1.4,1.5-2.4c0.2-0.5,0.3-1,0.5-1.5c0-0.7,0-1.5,0-2.2
		c0-0.2-0.1-0.3-0.1-0.5C39.1,16.9,35.3,14.4,31.6,15.1z"/>
	<path class="st0" d="M34.8,36.5c-0.2,0-0.4,0.1-0.6,0.2c-1.1,1.1-2.3,1.7-4.1,1.7c-0.1,0-0.1,0-0.2,0c-1.6,0-3.1-0.6-4.2-1.7
		c-0.1,0-0.1-0.1-0.1-0.1c-1.3-1.3-2-3.1-1.8-4.9l0-0.4l0.8,1.4c0.1,0.2,0.4,0.4,0.7,0.4c0.1,0,0.3,0,0.4-0.1
		c0.2-0.1,0.3-0.3,0.4-0.5c0.1-0.2,0-0.4-0.1-0.6L24.2,29c-0.1-0.2-0.3-0.3-0.5-0.4c-0.1,0-0.1,0-0.2,0c-0.1,0-0.3,0-0.4,0.1
		l-2.9,1.7c-0.2,0.1-0.3,0.3-0.4,0.5c-0.1,0.2,0,0.4,0.1,0.6c0,0.1,0.1,0.1,0.1,0.2c0.1,0.1,0.3,0.2,0.5,0.2c0.1,0,0.3,0,0.4-0.1
		l1.3-0.8l0,0.3c-0.1,0.8-0.1,1.6,0.1,2.5c0.2,1.2,0.6,2.1,1.2,2.9c0.3,0.4,0.6,0.8,0.9,1.1c0.1,0.1,0.1,0.1,0.2,0.2
		c1.4,1.3,3.3,2.1,5.3,2.1c0.1,0,0.2,0,0.3,0c2.2-0.1,3.8-0.8,5.1-2.2c0.1-0.1,0.2-0.3,0.2-0.5c0-0.2-0.1-0.4-0.2-0.5
		C35.2,36.6,35,36.5,34.8,36.5z"/>
	<path class="st0" d="M39.2,32.7c-0.1,0-0.3,0-0.4,0.1l-1.3,0.8l0-0.3c0.4-2.4-0.4-4.9-2.2-6.7c-0.6-0.6-1.3-1.1-2.1-1.5
		c-0.3-0.1-1.7-0.7-3.4-0.8c-2.2,0-3.6,0.6-5,2c-0.1,0.1-0.2,0.3-0.2,0.5c0,0.2,0.1,0.4,0.2,0.5c0.1,0.1,0.3,0.2,0.5,0.2
		c0.2,0,0.4-0.1,0.5-0.2c1.1-1.1,2.2-1.5,4-1.5c1.7,0,3.2,0.6,4.4,1.8c1.4,1.4,2,3.3,1.8,5.2L36,33.3L35.2,32
		c-0.1-0.2-0.4-0.3-0.6-0.3c-0.1,0-0.3,0-0.4,0.1c-0.2,0.1-0.3,0.3-0.3,0.5c0,0.2,0,0.4,0.1,0.6l1.8,2.9c0,0.1,0.1,0.1,0.1,0.2
		c0.1,0.1,0.2,0.1,0.3,0.2c0.1,0,0.1,0,0.2,0c0.1,0,0.3,0,0.4-0.1l2.9-1.8c0.2-0.1,0.3-0.3,0.3-0.5c0-0.2,0-0.4-0.1-0.6
		C39.7,32.8,39.5,32.7,39.2,32.7z"/>
</g>
</svg>
