<?xml version="1.0" encoding="utf-8"?>
<!-- Generator: Adobe Illustrator 19.2.0, SVG Export Plug-In . SVG Version: 6.00 Build 0)  -->
<svg version="1.1" id="Layer_1" xmlns="http://www.w3.org/2000/svg" xmlns:xlink="http://www.w3.org/1999/xlink" x="0px" y="0px"
	 viewBox="0 0 40 40" style="enable-background:new 0 0 40 40;" xml:space="preserve">
<style type="text/css">
	.st0{fill-rule:evenodd;clip-rule:evenodd;fill:#F18535;}
	.st1{fill:#FFFFFF;}
</style>
<g>
	<path class="st0" d="M10,0h20c5.5,0,10,4.5,10,10v20c0,5.5-4.5,10-10,10H10C4.5,40,0,35.5,0,30V10C0,4.5,4.5,0,10,0z"/>
	<g>
		<g>
			<g>
				<path class="st1" d="M17.3,24.5c0,0.3,0.3,0.4,0.5,0.3l6.6-4.5c0.2-0.1,0.2-0.4,0-0.5l-6.6-4.5c-0.2-0.2-0.5,0-0.5,0.3v2.3H6.5
					c-0.4,0-0.7,0.3-0.7,0.7v3c0,0.4,0.3,0.7,0.7,0.7h10.8V24.5z M33.3,17.8h-2.1c-0.3-1.5-0.9-2.9-1.7-4.1l1.5-1.5
					c0.4-0.4,0.4-1,0-1.3l-1.8-1.8c-0.4-0.4-1-0.4-1.3,0l-1.5,1.5c-1.2-0.8-2.6-1.4-4.1-1.7V6.7c0-0.5-0.4-0.9-0.9-0.9h-2.6
					c-0.5,0-0.9,0.4-0.9,0.9v2.1c-1.5,0.3-2.9,0.9-4.1,1.7l-1.5-1.5c-0.4-0.4-1-0.4-1.3,0l-1.8,1.8c-0.4,0.4-0.4,1,0,1.3l1.5,1.5
					c-0.4,0.6-0.7,1.2-1,1.9h4.8c1.3-1.7,3.4-2.8,5.7-2.8c4,0,7.2,3.2,7.2,7.2c0,4-3.2,7.2-7.2,7.2c-2.3,0-4.3-1.1-5.7-2.8H9.5
					c0.3,0.7,0.6,1.3,1,1.9l-1.5,1.5c-0.4,0.4-0.4,1,0,1.3l1.8,1.8c0.4,0.4,1,0.4,1.3,0l1.5-1.5c1.2,0.8,2.6,1.4,4.1,1.7v2.1
					c0,0.5,0.4,0.9,0.9,0.9h2.6c0.5,0,0.9-0.4,0.9-0.9v-2.1c1.5-0.3,2.9-0.9,4.1-1.7l1.5,1.5c0.4,0.4,1,0.4,1.3,0l1.8-1.8
					c0.4-0.4,0.4-1,0-1.3l-1.5-1.5c0.8-1.2,1.4-2.6,1.7-4.1h2.1c0.5,0,0.9-0.4,0.9-0.9v-2.6C34.2,18.2,33.8,17.8,33.3,17.8z"/>
			</g>
		</g>
	</g>
</g>
</svg>
