<?xml version="1.0" encoding="UTF-8"?><svg width="100" height="100" version="1.1" viewBox="0 0 100 100" xmlns="http://www.w3.org/2000/svg" xmlns:xlink="http://www.w3.org/1999/xlink"><!--Generated by IJSVG (https://github.com/curthard89/IJSVG)--><g transform="scale(0.666667)"><g fill="#007236"><path d="M135,150h-120c-8.3,0 -15,-6.7 -15,-15v-120c0,-8.3 6.7,-15 15,-15h120c8.3,0 15,6.7 15,15v120c0,8.3 -6.7,15 -15,15Z"></path><g fill="#FFFFFF" fill-rule="evenodd"><path d="M15.2,76.3h-12.4c-1.5,0 -2.8,1.2 -2.8,2.8v31.9c0,1.5 1.2,2.8 2.8,2.8h12.4c1.5,0 2.8,-1.2 2.8,-2.8v-32c0,-1.5 -1.3,-2.7 -2.8,-2.7Zm22.8,-8.5h-12.5c-1.5,0 -2.8,1.2 -2.8,2.8v40.4c0,1.5 1.2,2.8 2.8,2.8h12.4c1.5,0 2.8,-1.2 2.8,-2.8v-40.4c7.10543e-15,-1.6 -1.2,-2.8 -2.7,-2.8Zm22.7,-13.3h-12.4c-1.5,0 -2.8,1.2 -2.8,2.8v53.7c0,1.5 1.2,2.8 2.8,2.8h12.4c1.5,0 2.8,-1.2 2.8,-2.8v-53.7c0,-1.6 -1.3,-2.8 -2.8,-2.8Zm22.8,8.4h-12.4c-1.5,0 -2.8,1.2 -2.8,2.8v45.2c0,1.5 1.2,2.8 2.8,2.8h12.4c1.5,0 2.8,-1.2 2.8,-2.8v-45.2c0,-1.5 -1.3,-2.8 -2.8,-2.8Zm22.7,-18.1h-12.4c-1.5,0 -2.8,1.2 -2.8,2.8v63.4c0,1.5 1.2,2.8 2.8,2.8h12.4c1.5,0 2.8,-1.2 2.8,-2.8v-63.4c0,-1.6 -1.2,-2.8 -2.8,-2.8Zm-9.5,-28.8c1.2,0.6 2.5,1 3.9,1c4.6,0 8.4,-3.8 8.4,-8.5c0,-4.7 -3.8,-8.5 -8.4,-8.5c-4.6,0 -8.4,3.8 -8.4,8.5c0,0.4 0,0.8 0.1,1.1l-10.1,8.5c-1.3,-0.8 -2.7,-1.2 -4.3,-1.2c-2.9,0 -5.4,1.5 -7,3.7l-7.5,-1.2c-0.5,-4.2 -4,-7.4 -8.3,-7.4c-4.6,0 -8.4,3.8 -8.4,8.5c0,1.2 0.3,2.4 0.7,3.4l-11.2,8.5c-1.2,-0.6 -2.5,-1 -3.9,-1c-4.6,0 -8.4,3.8 -8.4,8.5c0,0.3 0,0.6 0.1,0.9l-9.1,5.8c-1.4,-1.2 -3.3,-1.9 -5.3,-1.9c-4.6,0 -8.4,3.8 -8.4,8.5c0,4.7 3.8,8.5 8.4,8.5c4.6,0 8.4,-3.8 8.4,-8.5c0,0 0,0 0,-0.1l9.9,-6.1c1.3,0.8 2.8,1.3 4.5,1.3c4.6,0 8.4,-3.8 8.4,-8.5c0,-0.6 -0.1,-1.2 -0.2,-1.7l12.4,-9.5c0.7,0.2 1.4,0.3 2.2,0.3c2.4,0 4.6,-1.1 6.2,-2.8l8.5,1.2c0.9,3.7 4.2,6.4 8.1,6.4c4.6,0 8.4,-3.8 8.4,-8.5c0,-0.4 0,-0.7 -0.1,-1.1l10.4,-8.1Z" transform="translate(20.5, 18.1)"></path></g></g></g></svg>