<?xml version="1.0" encoding="UTF-8"?><svg width="100" height="100" version="1.1" viewBox="0 0 100 100" xmlns="http://www.w3.org/2000/svg" xmlns:xlink="http://www.w3.org/1999/xlink"><!--Generated by IJSVG (https://github.com/curthard89/IJSVG)--><g transform="scale(0.666667)"><g fill="#FE7B1B"><use transform="translate(1357.6, 50.6)" xlink:href="#path-1"></use><use transform="translate(1302.6, 63.6)" xlink:href="#path-2"></use><use transform="translate(1330.3, 30.6)" xlink:href="#path-3"></use><g fill="#FE7B1B"><use transform="translate(1401.2, -58.2)" xlink:href="#path-4"></use></g><use transform="translate(1305.4, -44.1)" xlink:href="#path-5"></use><use transform="translate(1357.6, 50.6)" xlink:href="#path-1"></use><use transform="translate(1302.6, 63.6)" xlink:href="#path-2"></use><use transform="translate(1330.3, 30.6)" xlink:href="#path-3"></use><g fill="#FE7B1B"><use transform="translate(1401.2, -58.2)" xlink:href="#path-4"></use></g><use transform="translate(1305.4, -44.1)" xlink:href="#path-5"></use></g><g fill="#ED1C24"><path d="M135,150h-120c-8.3,0 -15,-6.7 -15,-15v-120c0,-8.3 6.7,-15 15,-15h120c8.3,0 15,6.7 15,15v120c0,8.3 -6.7,15 -15,15Z"></path><g fill="#FFFFFF"><g fill="#FFFFFF"><path d="M0.1,10.5c0,0.6 0.2,0.8 0.8,0.8c3.4,0 10.5,0 21.3,0c2.6,0 5.1,0 7.7,0c0.8,0 0.9,-0.1 0.9,-0.9c0,-0.5 0,-0.9 0,-1.4c0,-0.9 0,-0.9 -0.9,-0.9c-8.5,0 -13.3,0 -14.4,0v0c-4.9,0 -9.8,0 -14.6,0c-0.6,0 -0.8,0.2 -0.8,0.8c0.1,0.6 0.1,1.1 -3.55271e-15,1.6Zm30,15.5c-8.6,0 -13.4,0 -14.5,0v0c-3.8,0 -7.6,0 -11.3,0c-1.2,0 -2.3,0 -3.5,0c-0.4,0 -0.6,0.1 -0.6,0.6c0,0.7 0,1.3 0,2c0,0.5 0.2,0.7 0.7,0.6c0.7,0 1.5,0 2.2,0c5.4,0 14.4,0 27.2,0c0.4,0 0.6,-0.2 0.6,-0.6c0,-0.6 0,-1.2 0,-1.8c0.1,-0.7 -0.2,-0.8 -0.8,-0.8Zm-0.1,18.1c-13.4,0 -23,0 -29,0c-0.3,0 -0.5,0 -0.9,0c0,0.6 0,1.1 0,1.6c0,1.6 0,1.6 1.6,1.6c5.7,0 15.2,0 28.4,0c0.6,0 0.8,-0.2 0.8,-0.7c0,-0.5 -0.1,-1.1 0,-1.6c0.1,-0.8 -0.2,-0.9 -0.9,-0.9Zm0,-27.2c-8.6,0 -13.4,0 -14.5,0v0c-1.2,0 -2.4,0 -3.6,0c-3.7,0 -7.3,0 -11,0c-0.7,0 -0.9,0.2 -0.8,0.9c0.1,0.5 0,1.1 0,1.6c0,0.6 0.1,0.8 0.8,0.8c2.6,0 5.2,0 7.8,0c3.4,0 10.5,0 21.4,0c0.7,0 0.9,-0.2 0.9,-0.9c0,-0.5 -0.1,-1 0,-1.5c7.10543e-15,-0.8 -0.4,-0.9 -1,-0.9Zm-29,21.9c4.8,0 9.6,0 14.5,0v0c1.1,0 6,0 14.6,0c0.7,0 0.9,-0.2 0.9,-0.9c0,-0.5 0,-0.9 0,-1.4c0.1,-0.7 -0.2,-0.9 -0.8,-0.9c-8.4,0 -13,0 -13.9,0c-5.1,0 -10.2,0 -15.3,0c-0.6,0 -0.8,0.1 -0.8,0.7c0,0.5 0,1 0,1.5c-0.1,1 -0.1,1 0.8,1Zm99.7,-38.8h-1v58.8h1c1.5,0 2.8,-1.2 2.8,-2.8v-53.3c0,-1.5 -1.2,-2.7 -2.8,-2.7Zm-12.9,21v-16.4c0,-1.5 -1.2,-2.8 -2.8,-2.8h-31c-1.5,0 -2.8,1.2 -2.8,2.8v16.4c0,1.5 1.2,2.8 2.8,2.8h31c1.6,7.10543e-15 2.8,-1.3 2.8,-2.8Zm-15.6,6h-4.4c-0.9,0 -1.7,0.7 -1.7,1.7v4.4c0,0.9 0.7,1.7 1.7,1.7h4.4c0.9,0 1.7,-0.7 1.7,-1.7v-4.4c0,-1 -0.8,-1.7 -1.7,-1.7Zm0,10.1h-4.4c-0.9,0 -1.7,0.7 -1.7,1.7v4.4c0,0.9 0.7,1.7 1.7,1.7h4.4c0.9,0 1.7,-0.7 1.7,-1.7v-4.4c0,-0.9 -0.8,-1.7 -1.7,-1.7Zm14.1,-10.1h-4.4c-0.9,0 -1.7,0.7 -1.7,1.7v4.4c0,0.9 0.7,1.7 1.7,1.7h4.4c0.9,0 1.7,-0.7 1.7,-1.7v-4.4c-0.1,-1 -0.8,-1.7 -1.7,-1.7Zm0,10.1h-4.4c-0.9,0 -1.7,0.7 -1.7,1.7v4.4c0,0.9 0.7,1.7 1.7,1.7h4.4c0.9,0 1.7,-0.7 1.7,-1.7v-4.4c-0.1,-0.9 -0.8,-1.7 -1.7,-1.7Zm0,10.2h-4.4c-0.9,0 -1.7,0.7 -1.7,1.7v4.4c0,0.9 0.7,1.7 1.7,1.7h4.4c0.9,0 1.7,-0.7 1.7,-1.7v-4.4c-0.1,-1 -0.8,-1.7 -1.7,-1.7Z" transform="translate(29.5, 29.8)"></path></g><path d="M43.9,42.8c0,2.4 0,4.8 0,7.2c0,0.2 -0.1,0.4 -0.1,0.5c-0.3,1.5 -0.5,2.9 -0.8,4.4c-1.1,4.4 -3.1,8.2 -6.1,11.6c-0.2,0.2 -0.6,0.4 -0.9,0.4c-3.5,0 -6.9,0.1 -10.4,0.1c-4.6,0 -9.1,0 -13.7,0c-0.4,0 -0.7,-0.1 -1,-0.5c-1.6,-1.9 -3.2,-3.8 -4.9,-5.6c-1.2,-1.2 -2.2,-2.5 -2.8,-4.1c-0.6,-1.5 -1.1,-3 -1.5,-4.6c-0.9,-3.3 -1.7,-6.6 -1.2,-10c0.4,-3.1 2,-5.3 5.3,-5.9c0.7,-0.1 0.8,-0.5 0.8,-1c0.2,-2.8 0.3,-5.6 0.5,-8.5c0.1,-2.2 0.3,-4.4 0.4,-6.6c0.1,-2 0.1,-4 0.2,-6c0.1,-1.5 0.2,-3 0.3,-4.6c0.1,-1.7 0.1,-3.5 0.2,-5.2c0,-1.3 0.2,-2.5 1.3,-3.4c0.7,-0.6 1.5,-0.8 2.4,-1c0.4,0 0.8,0 1.1,0c0.1,0 0.3,0.1 0.4,0.1c1.8,0.4 3.2,1.9 3.2,3.7c0,1.4 0,2.8 0,4.2c0,1.6 0,3.1 -0.1,4.7c0,4 0,8.1 -0.1,12.1c0,0.3 0,0.6 0,1.1c1.7,-1.7 3.7,-1.8 5.7,-1.3c2.1,0.5 3.5,1.9 4.2,4c1.5,-2 3.5,-2.2 5.6,-1.6c2.2,0.5 3.6,2 4.3,4.3c0.4,-1 1,-1.4 1.8,-1.5c0.7,-0.1 1.4,-0.1 2,0.1c2.1,0.6 3.4,2.4 3.5,4.8c0.1,2.4 0.2,4.7 0.3,7.1c0,0.4 0,0.7 0.1,1Z" transform="translate(74.9, 61.5)"></path><path d="M2.6,5.5c1.7,0.4 3.6,1.2 4.8,2.3c0.6,-0.2 1.6,-0.8 1.6,-1.6v-4.4c0,-0.9 -1.4,-1.8 -2.3,-1.8h-4.4c-0.9,0 -2.3,0.8 -2.3,1.8v3.4c1,-1.42109e-14 1.8,0.2 2.6,0.3Z" transform="translate(95, 76.9)"></path><path d="M0.8,3.4c1.4,-1.1 3.2,-1.8 4,-2l0.7,-0.4h2.3l0.6,0.5c0,-0.9 -0.7,-1.5 -1.7,-1.5h-4.4c-0.9,0 -2.3,0.5 -2.3,1.4v2.3c1.42109e-14,-0.1 0.6,-0.2 0.8,-0.3Z" transform="translate(81, 57)"></path><path d="M110.3,2.9c0,-0.4 -0.1,-0.9 -0.3,-1.3c-0.6,-1.1 -1.5,-1.6 -2.7,-1.6c-11.1,0 -22.1,0 -33.2,0c-4.4,0 -8.6,0.3 -12.8,1.8c-2,0.7 -3.9,1.7 -5.5,3.2c-0.6,0.6 -0.7,0.6 -1.3,0c-1.1,-1.1 -2.4,-1.9 -3.8,-2.5c-1.9,-0.9 -3.8,-1.5 -5.9,-1.8c-1.9,-0.3 -3.7,-0.5 -5.6,-0.6c-1.6,-0.1 -3.3,0 -5,0c-10.4,0 -20.8,0 -31.2,0c-0.4,0 -0.7,0 -1.1,0.1c-1.4,0.5 -1.9,1.4 -1.9,2.9c0,11 0,22.1 0,33.1c0,11.1 0,22.1 0,33.2c0,2 1.4,3.2 3.1,3.1c7.8,-0.1 15.6,0 23.5,0c2.9,0 5.9,0 8.8,0.1c2.7,0 5.4,0.3 8,0.8c2.7,0.5 5.3,1.3 7.7,2.6c0.8,0.4 1.6,0.7 2.5,0.6c0.2,0 0.5,0 0.7,0c0.8,0 1.7,-0.1 2.5,-0.1c1,-1.5 2.4,-2.6 4.1,-3.4c0,-0.4 0.1,-2.1 0.2,-3.6c-0.9,0.3 -1.7,0.6 -2.6,1c-0.6,0.3 -0.7,0.1 -0.7,-0.6c0,-7.1 0,-14.2 0,-21.3c0,-12.3 0,-24.6 0,-36.9c0,-1.1 0.5,-1.8 1.2,-2.5c1.7,-1.7 3.8,-2.5 6.1,-3.1c3.9,-1 7.8,-0.8 11.8,-0.8c8.5,0.1 17,0 25.5,0c0.7,0 1.3,0 2,0c0.6,0 0.7,0.2 0.7,0.8c0,7.7 0,15.4 0,23.1c0,2.4 0,4.7 0,7.1c0,10 0,20 0,30.1c0,0.9 0,0.9 -0.9,0.9c-1.2,0 -2.3,0 -3.5,0c1.9,1.2 3.2,3 3.8,5.2c1,0 2,0 3,0c1.5,0 2.8,-1.2 2.8,-2.8c0,-22.3 0,-44.5 0,-66.8Zm-58.5,67.6c-1.6,-0.6 -3.3,-1.3 -5,-1.7c-2.5,-0.6 -5,-1 -7.6,-1.3c-1.9,-0.2 -3.8,-0.2 -5.6,-0.2c-8.7,0 -17.5,0 -26.2,0c-0.5,0 -1.1,0 -1.6,0c-0.2,0 -0.5,-0.3 -0.6,-0.5c-0.1,-0.2 -0.1,-0.4 -0.1,-0.5c0,-10 0,-20 0,-30.1c0,-10 0.1,-20 0.1,-30.1c0,-0.7 0.2,-0.9 0.9,-0.9c6.7,0 13.4,0 20.1,0c4.1,0 8.3,-0.1 12.4,-0.1c3.1,0 6.2,0.4 9.1,1.6c1.6,0.6 3,1.5 4.1,2.8c0.4,0.5 0.7,1.1 0.7,1.8c0,2 0,4 0,6c0,8.9 0,17.9 0,26.8c0,8.5 0,17.1 0.1,25.6c-0.1,1 -0.2,1 -0.8,0.8Z" transform="translate(16.9, 21.4)"></path></g></g></g><defs><path id="path-3" d="M2.4,0c-1.3,0 -2.4,1.1 -2.4,2.4v69.1c0,1.3 1.1,2.4 2.4,2.4h17.1c1.3,0 2.6,-1.1 2.6,-2.4v-69c0,-1.3 -1.1,-2.4 -2.6,-2.4l-17.1,-0.1v0Z"></path><path id="path-1" d="M2.4,0c-1.3,0 -2.4,1.1 -2.4,2.4v49.1c0,1.3 1.1,2.4 2.4,2.4h17.1c1.3,0 2.4,-1.1 2.4,-2.4v-49.1c0,-1.3 -1.1,-2.4 -2.4,-2.4h-17.1Zm14.6,49.1h-12.1v-44.2h12.1v44.2Z"></path><path id="path-5" d="M139,66.7h-60.2v-60.5c0,-3.4 -2.8,-6.2 -6.2,-6.2c-40,0 -72.6,32.2 -72.6,72.2c0,8.1 1.3,16 3.8,22.8h13.2c-3,-6.7 -4.4,-14.5 -4.4,-22.8c0,-31.1 23.2,-56.4 54.1,-59.5v59.8c0,3.4 2.6,6.5 5.9,6.5h59.9c-2.8,27.3 -24.1,49 -51,53v12.4c36.4,-4.4 63.5,-34.7 63.5,-71.5c0.1,-3.7 -2.6,-6.2 -6,-6.2Z"></path><path id="path-4" d="M50,19.5c-11,-12.4 -27.1,-19.5 -43.8,-19.5c-3.4,0 -6.2,2.8 -6.2,6.2v52c0,3.4 2.7,6.1 6.2,6.1h52.1c3.4,0 6.2,-2.8 6.2,-6.2c0,-14.2 -5.1,-28 -14.5,-38.6Zm-37.6,32.4v-39.2c10.8,1.5 20.9,6.7 28.3,15.1c6.1,6.7 9.8,15.2 11,24.2h-39.3v-0.1Z"></path><path id="path-2" d="M2.6,0c-1.3,0 -2.6,1.1 -2.6,2.4v36.1c0,1.3 1.1,2.4 2.6,2.4h17.1c1.3,0 2.4,-1.1 2.4,-2.4v-36.1c0,-1.3 -1.1,-2.4 -2.4,-2.4h-17.1v0Zm2.6,36.1v-3.9l3.9,3.9h-3.9Zm7.8,0l-7.8,-7.8v-3.9l11.8,11.7h-4v0Zm4.3,-3.6l-12.1,-12v-3.9l12.1,12v3.9Zm0,-7.8l-12.1,-12v-3.9l12.1,12v3.9Zm0,-8l-11.7,-11.7h3.9l7.8,7.8v3.9v0Zm0,-7.8l-3.9,-3.9h3.9v3.9Z"></path></defs></svg>