<?xml version="1.0" encoding="utf-8"?>
<!-- Generator: Adobe Illustrator 22.1.0, SVG Export Plug-In . SVG Version: 6.00 Build 0)  -->
<svg version="1.1" id="Capa_1" xmlns="http://www.w3.org/2000/svg" xmlns:xlink="http://www.w3.org/1999/xlink" x="0px" y="0px"
	 viewBox="0 0 495.6 495.6" style="enable-background:new 0 0 495.6 495.6;" xml:space="preserve">
<style type="text/css">
	.st0{fill:#7B9AD0;}
</style>
<g>
	<path class="st0" d="M350.3,129.6l-26.6-10.9c-0.9-0.4-2-0.1-2.7,0.6c-0.7,0.7-0.8,1.8-0.4,2.7l45.3,91.7c0.5,0.9,1.4,1.5,2.4,1.5
		c1,0,2-0.6,2.4-1.5l45.3-91.7c0.4-0.9,0.3-2-0.4-2.7c-0.7-0.7-1.8-1-2.7-0.6L385.5,130C381.3,57.6,321.2,0,247.8,0
		c-76.2,0-138.2,62-138.2,138.1c0,9.7,7.9,17.6,17.6,17.6c9.7,0,17.6-7.9,17.6-17.6c0-56.8,46.2-103,103-103
		C301.7,35.2,346,76.8,350.3,129.6z"/>
	<path class="st0" d="M368.4,269.2c-62.4,0-113.2,50.8-113.2,113.2c0,62.4,50.8,113.2,113.2,113.2c62.4,0,113.2-50.8,113.2-113.2
		C481.6,319.9,430.8,269.2,368.4,269.2z M368.4,460.4c-43,0-78-35-78-78s35-78,78-78c43,0,78,35,78,78
		C446.4,425.4,411.4,460.4,368.4,460.4z"/>
	<path class="st0" d="M127.2,269.2C64.8,269.2,14,319.9,14,382.4c0,62.4,50.8,113.2,113.2,113.2s113.2-50.8,113.2-113.2
		C240.4,319.9,189.6,269.2,127.2,269.2z"/>
</g>
</svg>
