<?xml version="1.0" encoding="UTF-8"?><svg width="100" height="100" version="1.1" viewBox="0 0 100 100" xmlns="http://www.w3.org/2000/svg" xmlns:xlink="http://www.w3.org/1999/xlink"><!--Generated by IJSVG (https://github.com/curthard89/IJSVG)--><g transform="scale(1.35135)"><g fill="#EB7766"><path d="M66.6,74h-59.2c-4.1,0 -7.4,-3.3 -7.4,-7.4v-59.2c0,-4.1 3.3,-7.4 7.4,-7.4h59.2c4.1,0 7.4,3.3 7.4,7.4v59.2c0,4.1 -3.3,7.4 -7.4,7.4Z"></path><path fill="#FFFFFF" d="M34.7,16.3c-0.3,-1.5 -1.5,-2.6 -3,-2.9c-1.4,-0.3 -2.9,0.2 -3.8,1.4c-0.2,0.3 -0.5,0.4 -0.9,0.4h-3.8c-0.4,0 -0.5,-0.1 -0.7,-0.5c-0.8,-3 -1.7,-6 -2.6,-9c-0.3,-1 -0.6,-2 -1,-3c-0.2,-0.6 -0.8,-1 -1.5,-1c-1,-0.1 -1.9,0.6 -2.1,1.6c-0.8,3.4 -1.6,6.8 -2.3,10.2c-0.4,1.6 -0.7,3.2 -1.1,5c0.1,-0.2 0.1,-0.4 -3.55271e-15,-0.5c-0.5,-3.3 -1,-6.5 -1.5,-9.7c-0.3,-1.6 -0.5,-3.3 -0.8,-5c-0.1,-0.9 -0.9,-1.7 -1.8,-1.6c-1,0 -1.8,0.7 -2,1.6c-1.1,3.8 -2.2,7.6 -3.3,11.4c0,0.3 -0.3,0.5 -0.6,0.5c-0.5,0.1 -1,0.3 -1.3,0.6c-0.3,0.3 -0.4,0.7 -0.6,1v0.6l0.1,0.3c0.2,0.8 0.9,1.3 1.7,1.3c0.7,0 1.4,0 2,0c0.7,0 1.3,-0.3 1.6,-0.9c0.2,-0.6 0.4,-1.1 0.6,-1.7c0.3,-1.2 0.7,-2.4 1,-3.7c0.1,0.1 0.1,0.2 0.1,0.3c0.7,4.3 1.3,8.6 2,13c0.2,1.1 0.3,2.3 0.6,3.4c0.1,0.6 0.7,1.1 1.3,1.2c1,0.2 2.1,-0.4 2.3,-1.4c0,-0.1 0,-0.2 0,-0.3c1.3,-5.7 2.6,-11.3 3.9,-17c0,-0.2 0.1,-0.3 0.2,-0.6c0.1,0.3 0.1,0.4 0.2,0.6c0.5,1.8 1,3.6 1.6,5.4c0.2,1.1 1.2,1.9 2.3,1.7c1.7,0 3.4,0 5.1,0c0.5,0 1,0.2 1.3,0.6c1.1,1.3 3,1.7 4.6,0.9c1.8,-0.7 2.6,-2.5 2.2,-4.2Zm15.3,-2.9c-1,-5.5 -4.5,-10.3 -9.3,-13.1c-0.3,-0.1 -0.5,-0.2 -0.8,-0.3h-0.6c-0.1,0 -0.2,0.1 -0.3,0.2c-0.7,0.2 -1.2,0.9 -1.2,1.7c0,0.8 0.4,1.6 1.2,1.9c1.9,1.1 3.5,2.7 4.8,4.5c4,5.7 3.7,13.4 -0.7,18.8c-1.2,1.4 -2.6,2.6 -4.2,3.6c-1,0.4 -1.4,1.5 -1,2.5c0.1,0.2 0.2,0.3 0.3,0.4c0.3,0.3 0.7,0.6 1.1,0.8h0.5c1.5,-0.6 2.9,-1.5 4,-2.6c3.4,-3 5.7,-7.1 6.3,-11.6c0.1,-0.6 0.2,-1.2 0.2,-1.8v-2.2c0,-1 -0.1,-1.9 -0.3,-2.8Zm-7.4,4.2c0.1,-2.7 -0.8,-5.4 -2.5,-7.6c-0.9,-1.3 -2.2,-2.3 -3.6,-3c-0.8,-0.4 -1.7,-0.2 -2.2,0.4c-0.6,0.6 -0.7,1.6 -0.2,2.3c0.3,0.4 0.8,0.8 1.3,1.1c2.5,1.8 3.7,4.8 3.2,7.8c-0.4,2.1 -1.7,4 -3.5,5.1c-0.4,0.2 -0.7,0.5 -1,0.9c-0.5,0.7 -0.4,1.7 0.3,2.3c0.7,0.6 1.7,0.7 2.4,0.2c3.5,-1.9 5.7,-5.6 5.8,-9.5Z" transform="translate(12, 20)"></path></g></g></svg>