<?xml version="1.0" encoding="utf-8"?>
<!-- Generator: Adobe Illustrator 22.0.1, SVG Export Plug-In . SVG Version: 6.00 Build 0)  -->
<svg version="1.1" id="Layer_1" xmlns="http://www.w3.org/2000/svg" xmlns:xlink="http://www.w3.org/1999/xlink" x="0px" y="0px"
	 viewBox="0 0 150 150" style="enable-background:new 0 0 150 150;" xml:space="preserve">
<style type="text/css">
	.st0{fill:#FFFFFF;}
</style>
<g transform="scale(2.14592)">
	<g>
		<path class="st0" d="M33.8,9c6.8,0,13.7,0,20.5,0c0.9,0,1.5,0.4,1.9,1.2c0.3,0.7,0.4,1.4,0.4,2.2c0.1,1.1,0.1,2.3,0,3.4
			c0,0.8-0.1,1.6-0.4,2.3c-0.3,0.8-0.9,1.2-1.8,1.2c-4.6,0-9.2,0-13.8,0c-0.3,0-0.3,0-0.3,0.4c0,11.5,0,22.9,0,34.4
			c0,0.3,0.1,0.5,0.3,0.7c1.5,1.4,2.4,3,2.8,5c0.4,2.4-0.1,4.6-1.6,6.5s-3.5,3.1-6,3.5c-2.8,0.4-5.4-0.1-7.7-1.9
			c-1.9-1.5-3.1-3.4-3.4-5.8c-0.4-3,0.7-5.4,2.8-7.3c0.3-0.3,0.3-0.4,0.3-0.7c0-5,0-10,0-15c0-0.3,0-0.3,0.3-0.3c1.2,0,2.4,0,3.7,0
			c0.1,0,0.1,0,0.3,0c0.1,0,0.3-0.1,0.3-0.3c0-0.1-0.1-0.3-0.3-0.3H32c-2.3,0-4.6,0-6.9,0c-0.1,0-0.4,0-0.4-0.3s0.1-0.3,0.4-0.3
			c0.8,0,1.8,0,2.6,0c0.4,0,0.3,0,0.3-0.3c0-0.7,0-1.4,0-2c0-0.3,0-0.3,0.3-0.3c1.2,0,2.4,0,3.7,0c0.1,0,0.1,0,0.3,0
			c0.1,0,0.3-0.1,0.3-0.3c0-0.1-0.1-0.3-0.3-0.3h-0.1c-2.3,0-4.6,0-6.9,0c-0.1,0-0.4,0-0.4-0.3s0.1-0.3,0.4-0.3c0.8,0,1.8,0,2.6,0
			c0.3,0,0.3-0.1,0.3-0.3c0-0.7,0-1.5,0-2.2c0-0.3,0.1-0.3,0.3-0.3c1.2,0,2.4,0,3.7,0c0.1,0,0.1,0,0.3,0c0.1,0,0.3-0.1,0.3-0.3
			c0-0.1-0.1-0.3-0.3-0.3h-0.1c-2.3,0-4.6,0-6.9,0c-0.1,0-0.4,0-0.4-0.3s0.1-0.3,0.4-0.3c0.9,0,1.8,0,2.7,0c0.3,0,0.3,0,0.3-0.3
			c0-3.4,0-6.6,0-10c0-0.3,0-0.3-0.3-0.3c-4.6,0-9.2,0-13.8,0c-0.9,0-1.4-0.3-1.8-1.2c-0.3-0.7-0.4-1.5-0.4-2.3
			c-0.1-1.1-0.1-2.2,0-3.4c0-0.8,0.1-1.6,0.5-2.4c0.3-0.7,0.8-1.1,1.6-1.1C20.1,9,26.9,9,33.8,9L33.8,9z M37.5,36.4
			c-0.1,0-0.3,0.1-0.3,0.1c-2.2,1.5-4.5,3-6.6,4.5c-0.4,0.3-0.4,0.4-0.4,0.8c0,1.9,0,3.7,0,5.6c0,2.8,0,5.7,0,8.7
			c0,0.4-0.1,0.7-0.4,1.1c-1.5,1.5-2,3.3-1.6,5.3c0.5,2.7,2.7,4.7,5.6,4.7c1.9,0,3.4-0.5,4.6-2c1.4-1.5,1.8-3.3,1.4-5.3
			c-0.3-1.2-0.9-2.3-1.9-3.1c-0.3-0.1-0.3-0.4-0.3-0.7c0-6.4,0-12.9,0-19.2C37.5,36.7,37.5,36.5,37.5,36.4z"/>
		<path class="st0" d="M57.1,6.4c0-0.8,0.1-2,0.8-3.3c0.8-1.5,2-2.4,3.7-2.8c1.6-0.4,3.1-0.4,4.7,0.1c1.5,0.5,2.4,1.5,3,2.8
			c0.8,2.2,0.8,4.3,0,6.5c-0.7,1.6-1.9,2.7-3.7,3.3c-1.5,0.4-3.1,0.4-4.6,0c-1.8-0.5-2.8-1.8-3.4-3.5C57.1,8.6,57.1,7.6,57.1,6.4z
			 M63.2,10.6c0.1,0,0.4,0,0.5,0c1.1-0.1,1.8-0.9,2.2-2c0.3-0.9,0.3-1.9,0.1-3c0-0.5-0.1-1.1-0.4-1.6c-0.5-1.2-1.8-1.6-3.1-1.4
			c-1.1,0.3-1.6,0.9-1.9,2c-0.3,1.4-0.3,2.6,0.1,4C61.1,9.9,61.9,10.6,63.2,10.6z"/>
	</g>
</g>
</svg>
