<?xml version="1.0" encoding="utf-8"?>
<!-- Generator: Adobe Illustrator 22.0.1, SVG Export Plug-In . SVG Version: 6.00 Build 0)  -->
<svg version="1.1" id="Layer_1" xmlns="http://www.w3.org/2000/svg" xmlns:xlink="http://www.w3.org/1999/xlink" x="0px" y="0px"
	 viewBox="0 0 74 74" style="enable-background:new 0 0 74 74;" xml:space="preserve">
<style type="text/css">
	.st0{fill:#EB7766;}
	.st1{fill:#FFFFFF;}
</style>
<g>
	<path class="st0" d="M67.3,74H6.7C3,74,0,71,0,67.3V6.7C0,3,3,0,6.7,0h60.6C71,0,74,3,74,6.7v60.6C74,71,71,74,67.3,74z"/>
	<g>
		<path class="st1" d="M35.7,19.3c5,0,10.1,0,15.1,0c0.7,0,1.1,0.3,1.4,0.9c0.2,0.5,0.3,1,0.3,1.6c0.1,0.8,0.1,1.7,0,2.5
			c0,0.6-0.1,1.2-0.3,1.7c-0.2,0.6-0.7,0.9-1.3,0.9c-3.4,0-6.8,0-10.2,0c-0.2,0-0.2,0-0.2,0.3c0,8.5,0,16.9,0,25.4
			c0,0.2,0.1,0.4,0.2,0.5c1.1,1,1.8,2.2,2.1,3.7c0.3,1.8-0.1,3.4-1.2,4.8c-1.1,1.4-2.6,2.3-4.4,2.6c-2.1,0.3-4-0.1-5.7-1.4
			c-1.4-1.1-2.3-2.5-2.5-4.3c-0.3-2.2,0.5-4,2.1-5.4c0.2-0.2,0.2-0.3,0.2-0.5c0-3.7,0-7.4,0-11.1c0-0.2,0-0.2,0.2-0.2
			c0.9,0,1.8,0,2.7,0c0.1,0,0.1,0,0.2,0c0.1,0,0.2-0.1,0.2-0.2c0-0.1-0.1-0.2-0.2-0.2c0,0-0.1,0-0.1,0c-1.7,0-3.4,0-5.1,0
			c-0.1,0-0.3,0-0.3-0.2c0-0.2,0.1-0.2,0.3-0.2c0.6,0,1.3,0,1.9,0c0.3,0,0.2,0,0.2-0.2c0-0.5,0-1,0-1.5c0-0.2,0-0.2,0.2-0.2
			c0.9,0,1.8,0,2.7,0c0.1,0,0.1,0,0.2,0c0.1,0,0.2-0.1,0.2-0.2c0-0.1-0.1-0.2-0.2-0.2c0,0-0.1,0-0.1,0c-1.7,0-3.4,0-5.1,0
			c-0.1,0-0.3,0-0.3-0.2c0-0.2,0.1-0.2,0.3-0.2c0.6,0,1.3,0,1.9,0c0.2,0,0.2-0.1,0.2-0.2c0-0.5,0-1.1,0-1.6c0-0.2,0.1-0.2,0.2-0.2
			c0.9,0,1.8,0,2.7,0c0.1,0,0.1,0,0.2,0c0.1,0,0.2-0.1,0.2-0.2c0-0.1-0.1-0.2-0.2-0.2c0,0-0.1,0-0.1,0c-1.7,0-3.4,0-5.1,0
			c-0.1,0-0.3,0-0.3-0.2c0-0.2,0.1-0.2,0.3-0.2c0.7,0,1.3,0,2,0c0.2,0,0.2,0,0.2-0.2c0-2.5,0-4.9,0-7.4c0-0.2,0-0.2-0.2-0.2
			c-3.4,0-6.8,0-10.2,0c-0.7,0-1-0.2-1.3-0.9c-0.2-0.5-0.3-1.1-0.3-1.7c-0.1-0.8-0.1-1.6,0-2.5c0-0.6,0.1-1.2,0.4-1.8
			c0.2-0.5,0.6-0.8,1.2-0.8C25.6,19.3,30.6,19.3,35.7,19.3z M38.4,39.5c-0.1,0-0.2,0.1-0.2,0.1c-1.6,1.1-3.3,2.2-4.9,3.3
			C33,43.1,33,43.2,33,43.5c0,1.4,0,2.7,0,4.1c0,2.1,0,4.2,0,6.4c0,0.3-0.1,0.5-0.3,0.8c-1.1,1.1-1.5,2.4-1.2,3.9
			c0.4,2,2,3.5,4.1,3.5c1.4,0,2.5-0.4,3.4-1.5c1-1.1,1.3-2.4,1-3.9c-0.2-0.9-0.7-1.7-1.4-2.3c-0.2-0.1-0.2-0.3-0.2-0.5
			c0-4.7,0-9.5,0-14.2C38.4,39.7,38.4,39.6,38.4,39.5z"/>
		<path class="st1" d="M52.9,14.4c0-0.6,0.1-1.5,0.6-2.4c0.6-1.1,1.5-1.8,2.7-2.1c1.2-0.3,2.3-0.3,3.5,0.1c1.1,0.4,1.8,1.1,2.2,2.1
			c0.6,1.6,0.6,3.2,0,4.8c-0.5,1.2-1.4,2-2.7,2.4c-1.1,0.3-2.3,0.3-3.4,0c-1.3-0.4-2.1-1.3-2.5-2.6C52.9,16,52.9,15.3,52.9,14.4z
			 M57.4,17.5c0.1,0,0.3,0,0.4,0c0.8-0.1,1.3-0.7,1.6-1.5c0.2-0.7,0.2-1.4,0.1-2.2c0-0.4-0.1-0.8-0.3-1.2c-0.4-0.9-1.3-1.2-2.3-1
			c-0.8,0.2-1.2,0.7-1.4,1.5c-0.3,1-0.3,1.9,0,2.9C55.8,17,56.4,17.5,57.4,17.5z"/>
	</g>
</g>
</svg>
