<?xml version="1.0" encoding="utf-8"?>
<!-- Generator: Adobe Illustrator 21.1.0, SVG Export Plug-In . SVG Version: 6.00 Build 0)  -->
<svg version="1.1" id="Layer_1" xmlns="http://www.w3.org/2000/svg" xmlns:xlink="http://www.w3.org/1999/xlink" x="0px" y="0px"
	 viewBox="0 0 150 150" style="enable-background:new 0 0 150 150;" xml:space="preserve">
<style type="text/css">
	.st0{fill:#8E88FF;}
	.st1{fill:#FFFFFF;}
</style>
<path class="st0" d="M113.8,150H36.2C16.2,150,0,133.8,0,113.8V36.2C0,16.2,16.2,0,36.2,0h77.7c20,0,36.2,16.2,36.2,36.2v77.7
	C150,133.8,133.8,150,113.8,150z"/>
<g>
	<path class="st1" d="M38.5,84c2,0.7,4-0.1,5.1-2.2c0.3-0.6,0.5-1.2,0.7-1.8C50.2,63.9,56.1,47.8,62,31.7c0.4-1.2,0.7-2.1,2.5-1.7
		c12.4,2.5,24.9,5,37.3,7.5c0.1-2.9,0.9-5.6,2.2-7.9c-14.1-2.8-28.3-5.7-42.5-8.5c-3-0.6-4.4,0.2-5.5,3.2
		c-3.7,9.9-7.3,19.7-10.9,29.6c-3,8.3-5.9,16.6-8.8,25C35.4,81.2,36.4,83.2,38.5,84z M111.9,54.3c-2.7,8.1-5.5,16.2-8.3,24.2
		c-3.7,10.2-7.7,20.4-12,30.3c-1.4,3.3-3.8,6.5-6.6,8.9c-5.5,4.8-15.4,3.7-17.7-5.6c-0.5-2.2-0.8-4.5-0.9-6.7
		c-0.1-1.6-0.6-2.3-2-2.9C50,96.7,35.6,90.9,21.2,85.1c-0.7-0.3-1.5-0.5-2.3-0.8c-0.8,3.7-1.9,4.4-0.5,11.6
		c1.2,6.4,4.7,11.1,10.6,14c2.3,1.1,4.6,2.1,7,3.2c10.4,4.7,20.8,9.5,31.3,14c10.5,4.5,22,1,28.4-8.5c2.3-3.4,4.3-7.2,5.9-11
		c7-16.9,13-34.3,18.7-51.7c-0.2,0-0.4,0-0.7,0C116.8,56,114.2,55.4,111.9,54.3z M90.9,79.2c2.3-0.1,3.6-1,4.1-3
		c0.5-1.9-0.3-4-2.3-4.7c-6.4-2.2-12.8-4.3-19.3-6.2c-2.1-0.6-4.2,1.1-4.5,3.4c-0.2,2.1,0.8,3.7,3.1,4.5c5.7,1.9,11.5,3.8,17.3,5.7
		C89.9,79,90.5,79.1,90.9,79.2z M64.8,89.9c5.7,1.9,11.5,3.8,17.2,5.8c0.7,0.2,1.4,0.3,2.3,0.6C85,96,86,96,86.5,95.4
		c0.8-1,1.7-2.3,1.8-3.6c0.2-1.9-1.3-3.1-3-3.6c-6-2-12-4-18.1-5.9c-1-0.3-2.6,0-3.3,0.6c-0.9,0.9-1.5,2.5-1.6,3.8
		C62,88.4,63.3,89.4,64.8,89.9z M98.3,61c2.2,0,3.7-1.2,4.1-3.2c0.5-2.3-0.4-3.9-2.9-4.6c-5.9-1.8-11.8-3.4-17.7-5
		c-2.7-0.7-4.7,0.3-5.4,2.6c-0.7,2.4,0.5,4.4,3.3,5.2c5.7,1.6,11.4,3.1,17.1,4.7C97.4,60.9,98,60.9,98.3,61z M65.4,65.6
		c0-2.3-2-4.2-4.6-4.3c-2.2-0.1-4.2,1.9-4.2,4.2c0,2.2,2.1,4.2,4.5,4.2S65.4,67.8,65.4,65.6z M67.6,52.2c2.4,0.1,4.3-1.7,4.3-4
		c0-2.5-1.9-4.3-4.5-4.2c-2.3,0-4.1,1.8-4.1,4C63.3,50.3,65.2,52.2,67.6,52.2z M54.2,77.4c-2.4,0-4.2,1.8-4.1,4.1
		c0,2.5,1.8,4.1,4.4,4c2.5,0,4.2-1.7,4.2-4.1C58.7,79.3,56.7,77.4,54.2,77.4z M120.3,25.4c-7.7-0.5-14.1,5.8-13.6,13.6
		c0.4,6.4,5.6,11.6,12,12c7.7,0.5,14.1-5.8,13.6-13.6C131.9,31,126.7,25.8,120.3,25.4z M117.8,44.7l-6.4-6.4l2.2-2.2l4.1,4.1
		l7.9-8.1l2.5,2.6L117.8,44.7z"/>
</g>
</svg>
