<?xml version="1.0" encoding="UTF-8"?><svg width="100" height="100" version="1.1" viewBox="0 0 100 100" xmlns="http://www.w3.org/2000/svg" xmlns:xlink="http://www.w3.org/1999/xlink"><!--Generated by IJSVG (https://github.com/curthard89/IJSVG)--><g transform="scale(0.666667)"><g fill="#8E88FF"><path d="M135,150h-120c-8.3,0 -15,-6.7 -15,-15v-120c0,-8.3 6.7,-15 15,-15h120c8.3,0 15,6.7 15,15v120c0,8.3 -6.7,15 -15,15Z"></path><g fill="#FFFFFF"><path d="M21.5,63.5c2,0.7 4,-0.1 5.1,-2.2c0.3,-0.6 0.5,-1.2 0.7,-1.8c5.9,-16.1 11.8,-32.2 17.7,-48.3c0.4,-1.2 0.7,-2.1 2.5,-1.7c12.4,2.5 24.9,5 37.3,7.5c0.1,-2.9 0.9,-5.6 2.2,-7.9c-14.1,-2.8 -28.3,-5.7 -42.5,-8.5c-3,-0.6 -4.4,0.2 -5.5,3.2c-3.7,9.9 -7.3,19.7 -10.9,29.6c-3,8.3 -5.9,16.6 -8.8,25c-0.9,2.3 0.1,4.3 2.2,5.1Zm73.4,-29.7c-2.7,8.1 -5.5,16.2 -8.3,24.2c-3.7,10.2 -7.7,20.4 -12,30.3c-1.4,3.3 -3.8,6.5 -6.6,8.9c-5.5,4.8 -15.4,3.7 -17.7,-5.6c-0.5,-2.2 -0.8,-4.5 -0.9,-6.7c-0.1,-1.6 -0.6,-2.3 -2,-2.9c-14.4,-5.8 -28.8,-11.6 -43.2,-17.4c-0.7,-0.3 -1.5,-0.5 -2.3,-0.8c-0.8,3.7 -1.9,4.4 -0.5,11.6c1.2,6.4 4.7,11.1 10.6,14c2.3,1.1 4.6,2.1 7,3.2c10.4,4.7 20.8,9.5 31.3,14c10.5,4.5 22,1 28.4,-8.5c2.3,-3.4 4.3,-7.2 5.9,-11c7,-16.9 13,-34.3 18.7,-51.7c-0.2,0 -0.4,0 -0.7,0c-2.8,0.1 -5.4,-0.5 -7.7,-1.6Zm-21,24.9c2.3,-0.1 3.6,-1 4.1,-3c0.5,-1.9 -0.3,-4 -2.3,-4.7c-6.4,-2.2 -12.8,-4.3 -19.3,-6.2c-2.1,-0.6 -4.2,1.1 -4.5,3.4c-0.2,2.1 0.8,3.7 3.1,4.5c5.7,1.9 11.5,3.8 17.3,5.7c0.6,0.1 1.2,0.2 1.6,0.3Zm-26.1,10.7c5.7,1.9 11.5,3.8 17.2,5.8c0.7,0.2 1.4,0.3 2.3,0.6c0.7,-0.3 1.7,-0.3 2.2,-0.9c0.8,-1 1.7,-2.3 1.8,-3.6c0.2,-1.9 -1.3,-3.1 -3,-3.6c-6,-2 -12,-4 -18.1,-5.9c-1,-0.3 -2.6,0 -3.3,0.6c-0.9,0.9 -1.5,2.5 -1.6,3.8c-0.3,1.7 1,2.7 2.5,3.2Zm33.5,-28.9c2.2,0 3.7,-1.2 4.1,-3.2c0.5,-2.3 -0.4,-3.9 -2.9,-4.6c-5.9,-1.8 -11.8,-3.4 -17.7,-5c-2.7,-0.7 -4.7,0.3 -5.4,2.6c-0.7,2.4 0.5,4.4 3.3,5.2c5.7,1.6 11.4,3.1 17.1,4.7c0.6,0.2 1.2,0.2 1.5,0.3Zm-32.9,4.6c0,-2.3 -2,-4.2 -4.6,-4.3c-2.2,-0.1 -4.2,1.9 -4.2,4.2c0,2.2 2.1,4.2 4.5,4.2c2.4,0 4.3,-1.9 4.3,-4.1Zm2.2,-13.4c2.4,0.1 4.3,-1.7 4.3,-4c0,-2.5 -1.9,-4.3 -4.5,-4.2c-2.3,0 -4.1,1.8 -4.1,4c7.10543e-15,2.3 1.9,4.2 4.3,4.2Zm-13.4,25.2c-2.4,0 -4.2,1.8 -4.1,4.1c0,2.5 1.8,4.1 4.4,4c2.5,0 4.2,-1.7 4.2,-4.1c0,-2.1 -2,-4 -4.5,-4Zm65.3,-52c-7.1,0 -12.8,5.7 -12.8,12.8c0,7.1 5.7,12.8 12.8,12.8c7.1,0 12.8,-5.7 12.8,-12.8c0,-7.1 -5.7,-12.8 -12.8,-12.8Zm-1.7,19.3l-6.4,-6.4l2.2,-2.2l4.1,4.1l7.9,-8.1l2.5,2.6l-10.3,10Z" transform="translate(17, 20.5)"></path></g></g></g></svg>