<?xml version="1.0" encoding="utf-8"?>
<!-- Generator: Adobe Illustrator 21.1.0, SVG Export Plug-In . SVG Version: 6.00 Build 0)  -->
<svg version="1.1" id="Layer_1" xmlns="http://www.w3.org/2000/svg" xmlns:xlink="http://www.w3.org/1999/xlink" x="0px" y="0px"
	 viewBox="0 0 150 150" style="enable-background:new 0 0 150 150;" xml:space="preserve">
<style type="text/css">
	.st0{fill:#FE7B1B;}
	.st1{fill:#913BA0;}
	.st2{fill:#FFFFFF;}
</style>
<g>
	<g transform="translate(1357.6, 50.6)">
		<path id="path-1" class="st0" d="M906.7,33.7c-0.9,0-1.6,0.7-1.6,1.6v32.7c0,0.9,0.7,1.6,1.6,1.6h11.4c0.9,0,1.6-0.7,1.6-1.6V35.3
			c0-0.9-0.7-1.6-1.6-1.6C918.1,33.7,906.7,33.7,906.7,33.7z M916.4,66.5h-8.1V37h8.1V66.5z"/>
	</g>
	<g transform="translate(1302.6, 63.6)">
		<path id="path-2" class="st0" d="M870.1,42.4c-0.9,0-1.7,0.7-1.7,1.6v24.1c0,0.9,0.7,1.6,1.7,1.6h11.4c0.9,0,1.6-0.7,1.6-1.6V44
			c0-0.9-0.7-1.6-1.6-1.6H870.1C870.1,42.4,870.1,42.4,870.1,42.4z M871.9,66.5v-2.6l2.6,2.6C874.5,66.5,871.9,66.5,871.9,66.5z
			 M877.1,66.5l-5.2-5.2v-2.6l7.9,7.8H877.1L877.1,66.5z M879.9,64.1l-8.1-8v-2.6l8.1,8V64.1z M879.9,58.9l-8.1-8v-2.6l8.1,8V58.9z
			 M879.9,53.5l-7.8-7.8h2.6l5.2,5.2V53.5L879.9,53.5z M879.9,48.3l-2.6-2.6h2.6V48.3z"/>
	</g>
	<g transform="translate(1330.3, 30.6)">
		<path id="path-3" class="st0" d="M888.5,20.4c-0.9,0-1.6,0.7-1.6,1.6v46.1c0,0.9,0.7,1.6,1.6,1.6h11.4c0.9,0,1.7-0.7,1.7-1.6v-46
			c0-0.9-0.7-1.6-1.7-1.6L888.5,20.4C888.5,20.4,888.5,20.4,888.5,20.4z"/>
	</g>
	<g>
		<g transform="translate(1401.2, -58.2)">
			<path id="path-4" class="st0" d="M967.5-25.8c-7.3-8.3-18.1-13-29.2-13c-2.3,0-4.1,1.9-4.1,4.1V0c0,2.3,1.8,4.1,4.1,4.1H973
				c2.3,0,4.1-1.9,4.1-4.1C977.1-9.5,973.7-18.7,967.5-25.8z M942.4-4.2v-26.1c7.2,1,13.9,4.5,18.9,10.1c4.1,4.5,6.5,10.1,7.3,16.1
				L942.4-4.2L942.4-4.2z"/>
		</g>
	</g>
	<g transform="translate(1305.4, -44.1)">
		<path id="path-5" class="st0" d="M962.9,15.1h-40.1v-40.3c0-2.3-1.9-4.1-4.1-4.1c-26.7,0-48.4,21.5-48.4,48.1
			c0,5.4,0.9,10.7,2.5,15.2h8.8c-2-4.5-2.9-9.7-2.9-15.2c0-20.7,15.5-37.6,36.1-39.7v39.9c0,2.3,1.7,4.3,3.9,4.3h39.9
			c-1.9,18.2-16.1,32.7-34,35.3v8.3c24.3-2.9,42.3-23.1,42.3-47.7C967,16.7,965.2,15.1,962.9,15.1z"/>
	</g>
	<g transform="translate(1357.6, 50.6)">
		<path id="path-1_1_" class="st0" d="M906.7,33.7c-0.9,0-1.6,0.7-1.6,1.6v32.7c0,0.9,0.7,1.6,1.6,1.6h11.4c0.9,0,1.6-0.7,1.6-1.6
			V35.3c0-0.9-0.7-1.6-1.6-1.6C918.1,33.7,906.7,33.7,906.7,33.7z M916.4,66.5h-8.1V37h8.1V66.5z"/>
	</g>
	<g transform="translate(1302.6, 63.6)">
		<path id="path-2_1_" class="st0" d="M870.1,42.4c-0.9,0-1.7,0.7-1.7,1.6v24.1c0,0.9,0.7,1.6,1.7,1.6h11.4c0.9,0,1.6-0.7,1.6-1.6
			V44c0-0.9-0.7-1.6-1.6-1.6H870.1C870.1,42.4,870.1,42.4,870.1,42.4z M871.9,66.5v-2.6l2.6,2.6C874.5,66.5,871.9,66.5,871.9,66.5z
			 M877.1,66.5l-5.2-5.2v-2.6l7.9,7.8H877.1L877.1,66.5z M879.9,64.1l-8.1-8v-2.6l8.1,8V64.1z M879.9,58.9l-8.1-8v-2.6l8.1,8V58.9z
			 M879.9,53.5l-7.8-7.8h2.6l5.2,5.2V53.5L879.9,53.5z M879.9,48.3l-2.6-2.6h2.6V48.3z"/>
	</g>
	<g transform="translate(1330.3, 30.6)">
		<path id="path-3_1_" class="st0" d="M888.5,20.4c-0.9,0-1.6,0.7-1.6,1.6v46.1c0,0.9,0.7,1.6,1.6,1.6h11.4c0.9,0,1.7-0.7,1.7-1.6
			v-46c0-0.9-0.7-1.6-1.7-1.6L888.5,20.4C888.5,20.4,888.5,20.4,888.5,20.4z"/>
	</g>
	<g>
		<g transform="translate(1401.2, -58.2)">
			<path id="path-4_1_" class="st0" d="M967.5-25.8c-7.3-8.3-18.1-13-29.2-13c-2.3,0-4.1,1.9-4.1,4.1V0c0,2.3,1.8,4.1,4.1,4.1H973
				c2.3,0,4.1-1.9,4.1-4.1C977.1-9.5,973.7-18.7,967.5-25.8z M942.4-4.2v-26.1c7.2,1,13.9,4.5,18.9,10.1c4.1,4.5,6.5,10.1,7.3,16.1
				L942.4-4.2L942.4-4.2z"/>
		</g>
	</g>
	<g transform="translate(1305.4, -44.1)">
		<path id="path-5_1_" class="st0" d="M962.9,15.1h-40.1v-40.3c0-2.3-1.9-4.1-4.1-4.1c-26.7,0-48.4,21.5-48.4,48.1
			c0,5.4,0.9,10.7,2.5,15.2h8.8c-2-4.5-2.9-9.7-2.9-15.2c0-20.7,15.5-37.6,36.1-39.7v39.9c0,2.3,1.7,4.3,3.9,4.3h39.9
			c-1.9,18.2-16.1,32.7-34,35.3v8.3c24.3-2.9,42.3-23.1,42.3-47.7C967,16.7,965.2,15.1,962.9,15.1z"/>
	</g>
</g>
<path class="st1" d="M113.6,150H36.4C16.3,150,0,133.7,0,113.6V36.4C0,16.3,16.3,0,36.4,0h77.1C133.7,0,150,16.3,150,36.4v77.1
	C150,133.7,133.7,150,113.6,150z"/>
<g>
	<path class="st2" d="M96.4,17.1c-0.9,0-1.7,0-2.6,0.1c-8.6,0.8-15.2,4.9-19.6,12.3c-1.9,3.2-2.9,6.6-3.2,10.3
		c-0.1,1.1-0.2,2.2-0.3,3.3c-2.3-0.2-4.5-0.4-6.7-0.6c4.2,4.9,8.4,9.9,12.6,14.8c4.9-4.1,9.8-8.3,14.8-12.5
		c-2.1-0.2-4.4-0.4-6.6-0.5c-0.1-0.1-0.1-0.1-0.1-0.2c0.2-3.9,0.6-7.8,2.9-11.2c3.4-5.2,8.3-8.1,14.6-8.2c8.6-0.2,16,5.7,17.7,14.1
		c0,0.1,0.1,0.2,0.2,0.3c-0.2-1-0.3-2-0.5-2.9c-2.4-9.2-8.1-15.3-17.3-18.2c-0.9-0.3-1.9-0.4-2.9-0.6c-0.2,0-0.4-0.1-0.6-0.2
		C98,17.2,97.2,17.1,96.4,17.1z"/>
	<path class="st2" d="M127,53.7c-1.8-2.3-4.6-3.6-7.5-3.6H89.6l-11,9.2h40.9c0.1,0,0.2,0,0.3,0.1c0,0.1,0,0.2,0,0.4l-7.7,33.3
		c-0.1,0.4-1.1,2.5-3.1,2.5H56h-0.1l0,0c0,0-0.2,0-0.6,0c-1.3,0-3-0.5-3.9-2.7l-8.5-33.6h31.8l-7.9-9.2H40.5l-2.2-7.7
		c-1.4-5.3-6.6-9.3-12.1-9.3H14.4c-2.5,0-4.6,2.1-4.6,4.6s2.1,4.6,4.6,4.6h11.7c1.3,0,2.9,1.2,3.2,2.4l2.8,9.8c0,0.1,0,0.1,0,0.2
		c0,0.8,0.2,1.6,0.7,2.3l9.7,38.2c0.3,1.1,0.7,2.1,1.3,3.1c-2.6,2-4.1,5.2-4.1,8.5c0,5.1,3.7,9.5,8.5,10.5c-1.5,1.7-2.5,3.9-2.5,6.2
		c0,5,4.1,9.1,9.2,9.1s9.2-4.1,9.2-9.1c0-2.3-0.9-4.4-2.3-6H95c-1.4,1.6-2.3,3.7-2.3,6c0,5,4.1,9.1,9.2,9.1s9.2-4.1,9.2-9.1
		c0-2.3-0.9-4.4-2.3-6h2c2.5,0,4.6-2.1,4.6-4.6s-2.1-4.6-4.6-4.6H50.2c-0.6,0-1.3-0.8-1.3-1.7c0-0.9,0.7-1.7,1.2-1.7h33.6
		c-10.4,0,25.3-0.4,25.3-0.4c5.5,0,10.8-4.2,12-9.6l7.7-33.4C129.4,58.9,128.8,55.9,127,53.7z"/>
</g>
</svg>
