<?xml version="1.0" encoding="UTF-8"?><svg width="100" height="100" version="1.1" viewBox="0 0 100 100" xmlns="http://www.w3.org/2000/svg" xmlns:xlink="http://www.w3.org/1999/xlink"><!--Generated by IJSVG (https://github.com/curthard89/IJSVG)--><g transform="scale(0.666667)"><path fill="url(#gradient-1)" d="M15,0h120c8.3,0 15,6.7 15,15v120c0,8.3 -6.7,15 -15,15h-120c-8.3,0 -15,-6.7 -15,-15v-120c0,-8.3 6.7,-15 15,-15Z"></path><g fill="#FFFFFF"><path d="M92.9,0c-0.1,0 -0.3,0 -0.5,0c-7,0 -14,0 -21,0c-0.6,0 -0.8,0.2 -1,0.7c-1.8,5.2 -3.7,10.5 -5.6,15.7c-0.4,1.2 -0.9,2.4 -1.3,3.7h13.7c1.4,3.9 2.8,7.7 4.2,11.6h-0.9c-7,0 -14.1,0 -21.1,0c-0.5,0 -0.8,0.2 -0.9,0.7c-3.3,9.2 -6.7,18.3 -10,27.5c-3.3,9 -6.6,18 -9.9,27.1c-0.1,0.3 -0.2,0.5 -0.3,0.9c0.3,0 0.4,0.1 0.6,0.1c7.4,0 14.9,0 22.3,0c0.5,0 0.7,-0.2 0.9,-0.7c5.8,-15.9 11.5,-31.8 17.3,-47.7c0.8,-2.2 1.6,-4.4 2.4,-6.5c0.1,0 0.1,0 0.2,0c0.2,0.5 0.3,1 0.5,1.5c1.3,3.6 2.7,7.1 4,10.7c5.1,13.9 10.2,27.9 15.2,41.8c0.2,0.6 0.5,0.8 1.1,0.8c7.3,0 14.7,0 22,0c0.2,0 0.5,0 0.7,0c-11,-29.4 -21.8,-58.6 -32.6,-87.9Zm-41.5,32.3c0.1,-0.2 0.1,-0.3 0.1,-0.5c-0.2,0 -0.2,0 -0.3,0c-4.7,0 -9.3,0 -14,0c-0.5,0 -0.6,0.3 -0.7,0.6c-2.3,6.5 -4.7,12.9 -7,19.4c-3.9,10.7 -7.7,21.3 -11.6,32c-0.5,1.3 -0.9,2.6 -1.4,4c0.2,0 0.3,0.1 0.5,0.1c4.7,0 9.3,0 14,0c0.4,0 0.6,-0.2 0.7,-0.5c0.5,-1.5 1.1,-2.9 1.6,-4.4c2.4,-6.8 4.9,-13.5 7.3,-20.3c3.5,-10.2 7.2,-20.3 10.8,-30.4Zm-22.8,3.6c0.5,-1.3 1,-2.7 1.5,-4.1c-0.1,0 -0.2,-0.1 -0.3,-0.1c-3,0 -6.1,0 -9.1,0c-0.4,0 -0.5,0.3 -0.6,0.6c-2.2,6.1 -4.5,12.2 -6.7,18.4c-4,11.1 -8,22.2 -12,33.2c-0.5,1.2 -0.9,2.5 -1.4,3.8c0.2,0 0.3,0.1 0.4,0.1c3,0 6,0 9.1,0c0.5,0 0.6,-0.3 0.7,-0.6c2.5,-6.8 4.9,-13.6 7.4,-20.4c3.5,-10.3 7.2,-20.6 11,-30.9Z" transform="translate(12.4, 31.1)"></path></g></g><defs><linearGradient id="gradient-1" x1="75" x2="75" gradientUnits="userSpaceOnUse" y1="150" y2="-2.69301e-09"><stop offset="0%" stop-color="#5EC8E2" stop-opacity="1"></stop><stop offset="4.91827%" stop-color="#5ABDDD" stop-opacity="1"></stop><stop offset="26.23%" stop-color="#4693C8" stop-opacity="1"></stop><stop offset="41.78%" stop-color="#3B7BBC" stop-opacity="1"></stop><stop offset="49.82%" stop-color="#3772B9" stop-opacity="1"></stop><stop offset="59.12%" stop-color="#3C7DBE" stop-opacity="1"></stop><stop offset="78.05%" stop-color="#4A9CCC" stop-opacity="1"></stop><stop offset="100%" stop-color="#5EC8E2" stop-opacity="1"></stop></linearGradient></defs></svg>