<?xml version="1.0" encoding="UTF-8"?><svg width="100" height="100" version="1.1" viewBox="0 0 100 100" xmlns="http://www.w3.org/2000/svg" xmlns:xlink="http://www.w3.org/1999/xlink"><!--Generated by IJSVG (https://github.com/curthard89/IJSVG)--><g transform="scale(0.666667)"><g fill="#ED1C24"><path d="M135,150h-120c-8.3,0 -15,-6.7 -15,-15v-120c0,-8.3 6.7,-15 15,-15h120c8.3,0 15,6.7 15,15v120c0,8.3 -6.7,15 -15,15Z"></path><g fill="url(#gradient-1)"><path d="M105.4,0l-11,18.8c1.1,3.8 1.8,7.7 1.8,11.8c0,21.7 -17.7,39.3 -39.5,39.3c-19.5,0 -35.7,-14.1 -38.9,-32.6l-4.1,-4.8c0,0 -2.2,-2.4 -2.8,-2.8c-0.6,-0.3 -3.1,-1 -3.3,-1c-0.2,0 -4.6,0.9 -4.6,0.9c0,0 -0.3,0.2 -0.3,0.5c0,0.3 -0.6,0.7 -0.7,0.8c-0.1,0.1 -0.3,0.9 -0.3,0.9l-0.2,0.7c0,0 -0.7,1 -0.8,1.3c-0.1,0.2 -0.2,0.6 -0.2,0.8c0,0.2 0,0.3 0,0.7c0,0.3 -0.5,1.4 -0.5,1.4v1.3c0,0 0,0.9 0,1c0,0.1 0,0.7 0,0.7v0.1c1.8,11.9 7.5,22.8 16.2,31.6c10.8,10.7 25.3,16.6 40.6,16.6c15.3,0 29.8,-6 40.8,-16.8c11,-10.8 16.9,-25.3 16.9,-40.6c-0.1,-11 -3.2,-21.5 -9.1,-30.6Z" transform="translate(18, 43.2)"></path><g fill="#FFFFFF"><path d="M42.7,0h-21.3c-1.4,0 -2.4,1.1 -2.4,2.4v3.7c0,1.4 1.1,2.4 2.4,2.4h21.4c1.4,0 2.4,-1.1 2.4,-2.4v-3.7c-1.42109e-14,-1.4 -1.1,-2.4 -2.5,-2.4Zm0,17.1h-32.1c-1.4,0 -2.4,1.1 -2.4,2.4v3.7c0,1.4 1.1,2.4 2.4,2.4h32.1c1.4,0 2.4,-1.1 2.4,-2.4v-3.7c0.1,-1.4 -1,-2.4 -2.4,-2.4Zm0,17h-40.3c-1.4,0 -2.4,1.1 -2.4,2.4v3.6c0,1.4 1.1,2.4 2.4,2.4h40.3c1.4,0 2.4,-1.1 2.4,-2.4v-3.6c0.1,-1.4 -1,-2.4 -2.4,-2.4Z" transform="translate(59, 52.2)"></path></g><path fill="#FFFFFF" d="M1.3,63.7c0,0 -1.3,-8.5 5.1,-11.5l8.2,-5.2c0,0 3.6,-2.2 7,0.7l7.3,5.2c0,0 1.6,1.3 3.1,-1c0,0 26.3,-46.3 59,-51.8c0,0 2.8,-0.1 3.3,2.2c0,0 -2,-2.2 -7.6,0.8c0,0 -19.7,5.9 -51.9,70.7c0,0 -1.4,2.1 -3.6,-0.3c0,0 -13.9,-13.5 -22,-17.9c0,0 -3.9,-2.3 -5.9,2.1c0,0 -1.3,1.5 -1.6,6.1c0.1,-0.1 -0.3,1.3 -0.4,-0.1Z" transform="translate(16.4, 18.6)"></path></g></g></g><defs><linearGradient id="gradient-1" x1="53.2038" x2="92.814" gradientUnits="userSpaceOnUse" y1="19.3173" y2="106.1" gradientTransform="translate(0, 74.945) scale(1, -1)"><stop offset="0%" stop-color="#000000" stop-opacity="1"></stop><stop offset="51.19%" stop-color="#000000" stop-opacity="1"></stop><stop offset="83.89%" stop-color="#000000" stop-opacity="0.1"></stop><stop offset="100%" stop-color="#000000" stop-opacity="0"></stop></linearGradient></defs></svg>