<?xml version="1.0" encoding="UTF-8"?><svg width="100" height="100" version="1.1" viewBox="0 0 100 100" xmlns="http://www.w3.org/2000/svg" xmlns:xlink="http://www.w3.org/1999/xlink"><!--Generated by IJSVG (https://github.com/curthard89/IJSVG)--><g transform="scale(0.666667)"><g fill="#24C1AD"><path d="M135,150h-120c-8.3,0 -15,-6.7 -15,-15v-120c0,-8.3 6.7,-15 15,-15h120c8.3,0 15,6.7 15,15v120c0,8.3 -6.7,15 -15,15Z"></path><g fill="#FFFFFF"><g fill="#383838"><path d="M102,34.2c-2.7,-6.7 -6.3,-12.5 -11.1,-17.6c-4.7,-5 -10.3,-9.1 -16.8,-12.1c-6.5,-3 -13.5,-4.5 -21.2,-4.5c-7.6,0 -14.7,1.5 -21.1,4.5c-6.4,3 -12,7 -16.7,12.1c-4.7,5 -8.4,10.9 -11.1,17.6c-2.7,6.7 -4,13.8 -4,21.3c0,7.4 1.3,14.4 3.9,21.1c2.6,6.7 6.2,12.5 11,17.6c4.7,5 10.3,9 16.7,12c6.4,2.9 13.5,4.4 21.3,4.4c7.8,0 14.9,-1.5 21.4,-4.4c6.5,-2.9 12.1,-6.9 16.8,-12c4.7,-5 8.4,-10.9 11,-17.6c2.6,-6.7 3.9,-13.7 3.9,-21.1c0,-7.5 -1.3,-14.6 -4,-21.3Zm-13.2,37.9c-2,5.2 -4.8,9.7 -8.4,13.6c-3.6,3.9 -7.7,7 -12.4,9.2c-4.7,2.2 -9.7,3.4 -15,3.4c-5.3,0 -10.3,-1.1 -15,-3.3c-4.7,-2.2 -8.8,-5.2 -12.3,-9.1c-3.5,-3.9 -6.2,-8.4 -8.3,-13.5c-2,-5.1 -3.1,-10.7 -3.1,-16.7c0,-6 1,-11.6 3.1,-16.9c2,-5.2 4.8,-9.8 8.4,-13.8c3.5,-4 7.6,-7.1 12.3,-9.3c4.6,-2.2 9.6,-3.4 14.9,-3.4c5.3,0 10.3,1.1 15,3.4c4.7,2.2 8.8,5.3 12.4,9.2c3.5,3.9 6.3,8.5 8.4,13.7c2,5.3 3.1,10.8 3.1,16.7c0,6 -1,11.6 -3.1,16.8Z" transform="translate(12.8, 19.7)"></path></g><path d="M7.2,66.9c-1.6,0 -3.1,-0.5 -4.4,-1.5c-1.5,-1.1 -2.4,-2.8 -2.6,-4.6c-0.2,-1.8 0.3,-3.6 1.5,-5l23.4,-28c1.2,-1.5 3,-2.4 4.9,-2.6c0.2,0 0.3,0 0.5,0c1.7,0 3.4,0.6 4.7,1.7l20.9,15.7l21.4,-28.1l-7.4,-6.6c-0.6,-0.5 -0.4,-1.4 0.3,-1.6l27.7,-6.1c0.7,-0.2 1.4,0.4 1.2,1.1l-2.5,28.4c-0.2,0.7 -1,1 -1.6,0.5l-7.4,-6.6l-25.4,33c-1.2,1.5 -2.9,2.4 -4.8,2.5c-0.2,0 -0.4,0 -0.5,0c-1.7,0 -3.3,-0.6 -4.6,-1.7l-21,-15.7l-18.9,22.7c-1.2,1.5 -3,2.4 -5,2.6c-0.1,-0.1 -0.2,-0.1 -0.4,-0.1Z" transform="translate(37.6, 31.1)"></path></g></g></g></svg>