<?xml version="1.0" encoding="UTF-8"?><svg width="100" height="100" version="1.1" viewBox="0 0 100 100" xmlns="http://www.w3.org/2000/svg" xmlns:xlink="http://www.w3.org/1999/xlink"><!--Generated by IJSVG (https://github.com/curthard89/IJSVG)--><g transform="scale(0.666667)"><g fill="#FE7B1B"><path d="M135,150h-120c-8.3,0 -15,-6.7 -15,-15v-120c0,-8.3 6.7,-15 15,-15h120c8.3,0 15,6.7 15,15v120c0,8.3 -6.7,15 -15,15Z"></path><g fill="#FFFFFF"><path d="M1.6,0c-0.9,0 -1.6,0.8 -1.6,1.6v33.5c0,0.9 0.8,1.6 1.6,1.6h11.7c0.9,0 1.6,-0.8 1.6,-1.6v-33.4c0,-0.9 -0.8,-1.6 -1.6,-1.6h-11.7Zm10,33.5h-8.3v-30.1h8.3v30.1Z" transform="translate(56.9, 93.7)"></path><path d="M1.8,0c-0.9,0 -1.8,0.8 -1.8,1.6v24.6c0,0.9 0.8,1.6 1.8,1.6h11.7c0.9,0 1.6,-0.8 1.6,-1.6v-24.6c0,-0.9 -0.8,-1.6 -1.6,-1.6h-11.7v0Zm1.8,24.6v-2.7l2.7,2.7h-2.7Zm5.3,0l-5.3,-5.3v-2.7l8.1,8h-2.8v0Zm3,-2.4l-8.3,-8.2v-2.7l8.3,8.2v2.7Zm0,-5.4l-8.3,-8.2v-2.7l8.3,8.2v2.7Zm0,-5.4l-8,-8h2.7l5.3,5.3v2.7v0Zm0,-5.3l-2.7,-2.7h2.7v2.7Z" transform="translate(19.3, 102.6)"></path><path d="M1.6,0c-0.9,0 -1.6,0.8 -1.6,1.6v47.1c0,0.9 0.8,1.6 1.6,1.6h11.7c0.9,0 1.8,-0.8 1.8,-1.6v-47c0,-0.9 -0.8,-1.6 -1.8,-1.6l-11.7,-0.1v0Z" transform="translate(38.3, 80.1)"></path><g fill="#FFFFFF"><path d="M34.1,13.3c-7.5,-8.5 -18.5,-13.3 -29.9,-13.3c-2.3,0 -4.2,1.9 -4.2,4.2v35.5c0,2.3 1.8,4.2 4.2,4.2h35.5c2.3,0 4.2,-1.9 4.2,-4.2c0.1,-9.8 -3.3,-19.2 -9.8,-26.4Zm-25.6,22.1v-26.7c7.4,1 14.3,4.6 19.3,10.3c4.2,4.6 6.7,10.4 7.5,16.5l-26.8,-0.1v0Z" transform="translate(86.6, 19.5)"></path></g><path d="M94.8,45.5h-41.1v-41.3c0,-2.3 -1.9,-4.2 -4.2,-4.2c-27.3,0 -49.5,22 -49.5,49.3c0,5.5 0.9,10.9 2.6,15.6h9c-2,-4.6 -3,-9.9 -3,-15.6c0,-21.2 15.8,-38.5 36.9,-40.6v40.8c0,2.3 1.8,4.4 4,4.4h40.9c-1.9,18.6 -16.4,33.4 -34.8,36.2v8.5c24.8,-3 43.3,-23.7 43.3,-48.8c0.1,-2.6 -1.8,-4.3 -4.1,-4.3Z" transform="translate(21.3, 29.1)"></path></g><use transform="translate(1357.6, 50.6)" xlink:href="#path-1"></use><use transform="translate(1302.6, 63.6)" xlink:href="#path-2"></use><use transform="translate(1330.3, 30.6)" xlink:href="#path-3"></use><g fill="#FE7B1B"><use transform="translate(1401.2, -58.2)" xlink:href="#path-4"></use></g><use transform="translate(1305.4, -44.1)" xlink:href="#path-5"></use><use transform="translate(1357.6, 50.6)" xlink:href="#path-1"></use><use transform="translate(1302.6, 63.6)" xlink:href="#path-2"></use><use transform="translate(1330.3, 30.6)" xlink:href="#path-3"></use><g fill="#FE7B1B"><use transform="translate(1401.2, -58.2)" xlink:href="#path-4"></use></g><use transform="translate(1305.4, -44.1)" xlink:href="#path-5"></use></g></g><defs><path id="path-3" d="M2.4,0c-1.3,0 -2.4,1.1 -2.4,2.4v69.1c0,1.3 1.1,2.4 2.4,2.4h17.1c1.3,0 2.6,-1.1 2.6,-2.4v-69c0,-1.3 -1.1,-2.4 -2.6,-2.4l-17.1,-0.1v0Z"></path><path id="path-1" d="M2.4,0c-1.3,0 -2.4,1.1 -2.4,2.4v49.1c0,1.3 1.1,2.4 2.4,2.4h17.1c1.3,0 2.4,-1.1 2.4,-2.4v-49.1c0,-1.3 -1.1,-2.4 -2.4,-2.4h-17.1Zm14.6,49.1h-12.1v-44.2h12.1v44.2Z"></path><path id="path-5" d="M139,66.7h-60.2v-60.5c0,-3.4 -2.8,-6.2 -6.2,-6.2c-40,0 -72.6,32.2 -72.6,72.2c0,8.1 1.3,16 3.8,22.8h13.2c-3,-6.7 -4.4,-14.5 -4.4,-22.8c0,-31.1 23.2,-56.4 54.1,-59.5v59.8c0,3.4 2.6,6.5 5.9,6.5h59.9c-2.8,27.3 -24.1,49 -51,53v12.4c36.4,-4.4 63.5,-34.7 63.5,-71.5c0.1,-3.7 -2.6,-6.2 -6,-6.2Z"></path><path id="path-4" d="M50,19.5c-11,-12.4 -27.1,-19.5 -43.8,-19.5c-3.4,0 -6.2,2.8 -6.2,6.2v52c0,3.4 2.7,6.1 6.2,6.1h52.1c3.4,0 6.2,-2.8 6.2,-6.2c0,-14.2 -5.1,-28 -14.5,-38.6Zm-37.6,32.4v-39.2c10.8,1.5 20.9,6.7 28.3,15.1c6.1,6.7 9.8,15.2 11,24.2h-39.3v-0.1Z"></path><path id="path-2" d="M2.6,0c-1.3,0 -2.6,1.1 -2.6,2.4v36.1c0,1.3 1.1,2.4 2.6,2.4h17.1c1.3,0 2.4,-1.1 2.4,-2.4v-36.1c0,-1.3 -1.1,-2.4 -2.4,-2.4h-17.1v0Zm2.6,36.1v-3.9l3.9,3.9h-3.9Zm7.8,0l-7.8,-7.8v-3.9l11.8,11.7h-4v0Zm4.3,-3.6l-12.1,-12v-3.9l12.1,12v3.9Zm0,-7.8l-12.1,-12v-3.9l12.1,12v3.9Zm0,-8l-11.7,-11.7h3.9l7.8,7.8v3.9v0Zm0,-7.8l-3.9,-3.9h3.9v3.9Z"></path></defs></svg>