<?xml version="1.0" encoding="UTF-8"?><svg width="100" height="100" version="1.1" viewBox="0 0 100 100" xmlns="http://www.w3.org/2000/svg" xmlns:xlink="http://www.w3.org/1999/xlink"><!--Generated by IJSVG (https://github.com/curthard89/IJSVG)--><g transform="scale(0.666667)"><g fill="#FE7B1B"><use transform="translate(1357.6, 50.6)" xlink:href="#path-1"></use><use transform="translate(1302.6, 63.6)" xlink:href="#path-2"></use><use transform="translate(1330.3, 30.6)" xlink:href="#path-3"></use><g fill="#FE7B1B"><use transform="translate(1401.2, -58.2)" xlink:href="#path-4"></use></g><use transform="translate(1305.4, -44.1)" xlink:href="#path-5"></use><use transform="translate(1357.6, 50.6)" xlink:href="#path-1"></use><use transform="translate(1302.6, 63.6)" xlink:href="#path-2"></use><use transform="translate(1330.3, 30.6)" xlink:href="#path-3"></use><g fill="#FE7B1B"><use transform="translate(1401.2, -58.2)" xlink:href="#path-4"></use></g><use transform="translate(1305.4, -44.1)" xlink:href="#path-5"></use></g><path fill="#54A3F2" d="M135,150h-120c-8.3,0 -15,-6.7 -15,-15v-120c0,-8.3 6.7,-15 15,-15h120c8.3,0 15,6.7 15,15v120c0,8.3 -6.7,15 -15,15Z"></path><g fill="#FFFFFF"><path d="M48.1,87c-8.4,0 -16.9,0 -25.2,0c-0.8,0 -1.7,-0.1 -2.5,-0.2c-5.4,-1.1 -9,-5.4 -9,-11c0,-11.9 0,-23.8 0,-35.7c0,-0.2 0,-0.5 0,-0.8h65v8.6c4.1,0.5 7.9,1.9 11.5,4.1v-37.9h-10.3v0.9c0,2.6 -0.1,5.2 -0.1,7.9c0,7.2 -6,12.4 -13.1,11.6c-5.6,-0.7 -9.9,-5.4 -10,-11c-0.1,-2.8 0,-5.7 0,-8.5v-0.9h-21c0,2.3 0,4.1 0,6.2c0,1.6 0,3.2 -0.2,4.6c-0.9,6.3 -7.4,10.9 -13.6,9.4c-5.6,-1.3 -9.3,-5.7 -9.3,-11.6c0,-2.6 0,-5.3 0,-7.9c0,-0.7 -0.2,-0.8 -0.8,-0.8c-3.2,0 -6.5,0 -9.5,0v63.5c0.3,1.5 0.4,3 0.9,4.3c2.7,8.9 8.6,14.4 17.8,16.2c1.1,0.2 2.2,0.2 3.3,0.5h36.2c-4.5,-2.6 -7.9,-6.8 -10.1,-11.5Zm-27,-7.2c1.1,0 2.2,0 3.3,0c1.1,0 2.2,0 3.3,0c2.4,0 3.9,-1.5 4,-3.9c0,-2.2 0,-4.4 0,-6.6c0,-2.4 -1.6,-4 -4,-4c-2.2,0 -4.2,0 -6.4,0c-2.4,0 -4,1.5 -4.1,3.9c0,2.3 0,4.4 0,6.7c0.1,2.3 1.6,3.9 3.9,3.9Zm-0.3,-18.9c2.4,0 4.8,0 7.2,0c1.9,0 3.4,-1.5 3.5,-3.3c0.1,-2.6 0.1,-5.2 0,-7.8c-0.1,-1.9 -1.7,-3.3 -3.5,-3.3c-1.1,0 -2.4,0 -3.4,0c-1.1,0 -2.3,0 -3.4,0c-2.2,0 -3.9,1.5 -3.9,3.7c-0.1,2.4 -0.1,4.6 0,7c-7.10543e-15,2.2 1.5,3.7 3.5,3.7Zm26.7,4.5c-0.1,0 -0.3,0 -0.4,0c-2.2,0 -4.3,0 -6.5,0c-2.3,0 -3.9,1.5 -4,3.7c-0.1,2.3 -0.1,4.6 0,6.9c0.1,2.3 1.7,3.7 4,3.7c1.8,0 3.5,0 5.3,0c-0.3,-2.2 -0.4,-4.4 -0.2,-6.6c0.3,-2.7 0.9,-5.3 1.8,-7.7Zm3.6,-15.3c-0.1,-2 -1.7,-3.4 -3.7,-3.4c-2.3,0 -4.4,0 -6.7,0c-2.3,0 -3.9,1.5 -3.9,3.7c-0.1,2.3 0,4.6 0,6.9c0,2 1.6,3.6 3.5,3.7c2.4,0 4.9,0 7.2,0c1.9,0 3.4,-1.5 3.5,-3.4c0.1,-1.3 0,-2.5 0,-3.7v0c0.1,-1.3 0.1,-2.6 0.1,-3.8Zm9,-3.5c-2.3,0 -3.9,1.5 -3.9,3.7c0,1.1 0,2.2 0,3.3c3.7,-3 8.3,-4.9 13.4,-5.7h0.1c-0.7,-0.9 -1.7,-1.4 -2.7,-1.4c-1.1,0 -2.4,0 -3.4,0c-1.3,0.1 -2.4,0.1 -3.5,0.1Zm-45.4,-22.5c0.6,3.7 4,6.4 7.7,6.1c3.7,-0.3 6.6,-3.4 6.6,-7.2c0,-5.2 0,-10.5 0,-15.8c0,-3.1 -1.6,-5.3 -4.3,-6.6c-0.6,-0.3 -1.3,-0.4 -1.9,-0.6h-1.9c-0.1,0 -0.1,0.1 -0.2,0.1c-3.9,0.9 -6,3.5 -6,7.4c0,5 0,10 0,15c-0.1,0.6 -0.1,1.1 -7.10543e-15,1.6Zm44.1,-1.4c0,0.4 0,0.9 0.1,1.3c0.6,3.7 4,6.5 7.7,6.2c3.7,-0.3 6.6,-3.4 6.6,-7.2c0,-5.3 0,-10.5 0,-15.9c0,-3.2 -2,-5.9 -5,-6.8c-0.4,-0.1 -0.8,-0.2 -1.1,-0.3h-2.1c-0.1,0 -0.1,0.1 -0.2,0.1c-3.2,0.6 -6.1,3.5 -6,7.5c0.1,5.1 0,10.1 0,15.1Zm36.8,47.7c-2.4,-11.5 -13.8,-19.3 -25.3,-17.6c-10.8,1.6 -18.5,10 -19.5,20.7c-1,10.9 6.1,21.1 16.6,23.8c1.4,0.4 2.8,0.6 4.3,0.9h3.4c1.4,-0.3 2.8,-0.4 4.2,-0.9c9.3,-2.8 14.8,-9.1 16.5,-18.6c0.1,-0.5 0.2,-1.1 0.3,-1.6v-3.4c-0.2,-1.1 -0.3,-2.2 -0.5,-3.3Zm-5.5,3.6c-0.6,0 -1.1,0 -1.8,0c-0.9,0 -1.5,0.6 -1.5,1.5c0,0.9 0.6,1.5 1.5,1.5c0.6,0 1.1,0 1.8,0c-0.2,7.4 -7,15 -15.3,15.4c0,-0.6 0,-1.1 0,-1.8c0,-0.9 -0.6,-1.6 -1.5,-1.6c-0.9,0 -1.5,0.6 -1.5,1.6c0,0.6 0,1.1 0,1.7c0,0 0,0 -0.1,0.2c-3.7,-0.3 -7,-1.8 -9.8,-4.2c-3.3,-3 -5,-6.6 -5.6,-11.1c0.7,0 1.1,0 1.8,0c1,0 1.7,-0.6 1.7,-1.5c0,-0.9 -0.7,-1.4 -1.6,-1.5c-0.6,0 -1.1,0 -1.8,0c0.3,-3.6 1.7,-6.7 4,-9.4c3.2,-3.9 7.8,-5.7 11.5,-5.9c0,0.6 0,1.1 0,1.8c0,1 0.6,1.6 1.5,1.6c0.9,0 1.5,-0.6 1.5,-1.6c0,-0.6 0,-1.1 0,-1.7c8,-0.5 15.8,8.2 15.2,15Zm-8.1,-0.7c-1.6,0 -3.2,0 -4.9,0c-0.3,0 -0.8,-0.2 -1,-0.4c-0.7,-0.6 -1.4,-1.1 -2.3,-1.1c-0.5,0 -0.8,-0.3 -1.1,-0.7c-1.4,-1.9 -2.8,-4.1 -4.2,-6c-0.5,-0.8 -1.3,-1.1 -2.2,-1.1c-1.7,0.2 -2.5,2 -1.5,3.4c1.1,1.8 2.5,3.5 3.7,5.2c0.6,0.9 1.3,1.7 0.9,2.7c0,0 0,0 0,0.1c0,1.7 1,3.1 2.5,3.6c1.5,0.6 3.2,0.2 4.2,-1c0.3,-0.3 0.6,-0.5 1,-0.4c1.5,0 3,0 4.3,0c0.3,0 0.6,0 0.8,-0.1c1.1,-0.3 1.7,-1.3 1.6,-2.4c0.1,-0.9 -0.7,-1.8 -1.8,-1.8Z" transform="translate(27, 25.6)"></path></g></g><defs><path id="path-3" d="M2.4,0c-1.3,0 -2.4,1.1 -2.4,2.4v69.1c0,1.3 1.1,2.4 2.4,2.4h17.1c1.3,0 2.6,-1.1 2.6,-2.4v-69c0,-1.3 -1.1,-2.4 -2.6,-2.4l-17.1,-0.1v0Z"></path><path id="path-1" d="M2.4,0c-1.3,0 -2.4,1.1 -2.4,2.4v49.1c0,1.3 1.1,2.4 2.4,2.4h17.1c1.3,0 2.4,-1.1 2.4,-2.4v-49.1c0,-1.3 -1.1,-2.4 -2.4,-2.4h-17.1Zm14.6,49.1h-12.1v-44.2h12.1v44.2Z"></path><path id="path-5" d="M139,66.7h-60.2v-60.5c0,-3.4 -2.8,-6.2 -6.2,-6.2c-40,0 -72.6,32.2 -72.6,72.2c0,8.1 1.3,16 3.8,22.8h13.2c-3,-6.7 -4.4,-14.5 -4.4,-22.8c0,-31.1 23.2,-56.4 54.1,-59.5v59.8c0,3.4 2.6,6.5 5.9,6.5h59.9c-2.8,27.3 -24.1,49 -51,53v12.4c36.4,-4.4 63.5,-34.7 63.5,-71.5c0.1,-3.7 -2.6,-6.2 -6,-6.2Z"></path><path id="path-4" d="M50,19.5c-11,-12.4 -27.1,-19.5 -43.8,-19.5c-3.4,0 -6.2,2.8 -6.2,6.2v52c0,3.4 2.7,6.1 6.2,6.1h52.1c3.4,0 6.2,-2.8 6.2,-6.2c0,-14.2 -5.1,-28 -14.5,-38.6Zm-37.6,32.4v-39.2c10.8,1.5 20.9,6.7 28.3,15.1c6.1,6.7 9.8,15.2 11,24.2h-39.3v-0.1Z"></path><path id="path-2" d="M2.6,0c-1.3,0 -2.6,1.1 -2.6,2.4v36.1c0,1.3 1.1,2.4 2.6,2.4h17.1c1.3,0 2.4,-1.1 2.4,-2.4v-36.1c0,-1.3 -1.1,-2.4 -2.4,-2.4h-17.1v0Zm2.6,36.1v-3.9l3.9,3.9h-3.9Zm7.8,0l-7.8,-7.8v-3.9l11.8,11.7h-4v0Zm4.3,-3.6l-12.1,-12v-3.9l12.1,12v3.9Zm0,-7.8l-12.1,-12v-3.9l12.1,12v3.9Zm0,-8l-11.7,-11.7h3.9l7.8,7.8v3.9v0Zm0,-7.8l-3.9,-3.9h3.9v3.9Z"></path></defs></svg>