<?xml version="1.0" encoding="utf-8"?>
<!-- Generator: Adobe Illustrator 22.0.1, SVG Export Plug-In . SVG Version: 6.00 Build 0)  -->
<svg version="1.1" id="Layer_1" xmlns="http://www.w3.org/2000/svg" xmlns:xlink="http://www.w3.org/1999/xlink" x="0px" y="0px"
	 viewBox="0 0 150 150" style="enable-background:new 0 0 150 150;" xml:space="preserve">
<style type="text/css">
	.st0{fill:#F37865;}
	.st1{fill:#FFFFFF;}
</style>
<g>
	<path class="st0" d="M135.1,150H14.9C6.7,150,0,143.3,0,135.1V14.9C0,6.7,6.7,0,14.9,0h120.3c8.2,0,14.9,6.7,14.9,14.9v120.3
		C150,143.3,143.3,150,135.1,150z"/>
	<path class="st1" d="M109.2,40.3c-0.6-3.6-1.7-4.5-5.3-4.5c-9.6,0-19.2,0-28.9,0s-19.4,0-29.1,0c-3.3,0-4.6,1-5.1,4.2
		c-0.4,3-0.5,6,0.1,9c0.5,2.6,2,3.7,4.7,3.7c5.5-0.1,11,0,16.6-0.1c1.9,0,2.8,0.4,2.8,2.2c0,0.1,0,9.6,0,9.6l0,0
		c0,3.1-0.1,10.5-0.1,11.9c0.1,1.7,0.1,5.3,0,7c-0.1,6.1-0.1,12.3,0,18.4c0,1.3-0.4,2.3-1.3,3.4c-4.9,6.1-4.3,13.7,1.5,18.9
		c5.9,5.2,15.3,4.9,20.9-0.7c5.4-5.4,5.4-13,0-18.9c-0.8-0.9-1.1-1.7-1.1-2.8c0-15.6,0-31.2,0-46.8c0-1.8,0.6-2.2,2.3-2.2
		c5.7,0.1,11.4,0,17.1,0c3.1,0,4.1-0.8,4.8-3.9C109.7,46,109.6,43.2,109.2,40.3z"/>
	<path class="st1" d="M126.6,22.9c0,6.8-3.5,10.7-10,10.7c-6.3,0-9.7-3.4-9.7-9.9C106.8,17,110.7,13,117,12.9
		C123.3,12.9,126.6,16.3,126.6,22.9z M112.4,23.8c0,0.2,0,0.9,0.1,1.5c0.3,2.4,1.5,4.1,4.2,4.2c2.5,0,3.9-1.4,4.5-3.9
		c0.4-1.9,0.3-3.8-0.2-5.6c-0.6-2.1-2.1-3-4.3-2.9C113.7,17.2,112.3,19.3,112.4,23.8z"/>
	<g>
		<path class="st0" d="M80.5,77.1c0,9.3,0,18,0,26.7c0,1.9,0.3,3.5,1.6,5.1c2.9,3.6,2.2,8.8-1.3,11.8c-3.4,3-8.6,2.8-11.9-0.4
			c-3.2-3.1-3.6-8.1-0.7-11.6c0.9-1.1,1.3-2.2,1.3-3.6c0-6.1,0.2-12.3,0.2-18.4c0-1.5,0.4-2.5,1.7-3.3
			C74.4,81.5,77.2,79.5,80.5,77.1z"/>
		<path class="st1" d="M109.2,40.3c-0.6-3.6-1.7-4.5-5.3-4.5c-9.6,0-19.2,0-28.9,0s-19.4,0-29.1,0c-3.3,0-4.6,1-5.1,4.2
			c-0.4,3-0.5,6,0.1,9c0.5,2.6,2,3.7,4.7,3.7c5.5-0.1,11,0,16.6-0.1c1.9,0,2.8,0.4,2.8,2.2c0,0.1,0,9.6,0,9.6l0,0
			c0,3.1-0.1,10.5-0.1,11.9c0.1,1.7,0.1,5.3,0,7c-0.1,6.1-0.1,12.3,0,18.4c0,1.3-0.4,2.3-1.3,3.4c-4.9,6.1-4.3,13.7,1.5,18.9
			c5.9,5.2,15.3,4.9,20.9-0.7c5.4-5.4,5.4-13,0-18.9c-0.8-0.9-1.1-1.7-1.1-2.8c0-15.6,0-31.2,0-46.8c0-1.8,0.6-2.2,2.3-2.2
			c5.7,0.1,11.4,0,17.1,0c3.1,0,4.1-0.8,4.8-3.9C109.7,46,109.6,43.2,109.2,40.3z M98.9,50.5c-4.6,0-9.3,0.1-13.9,0
			c-1.7,0-2.3,0.6-2.3,2.3c0,16.7,0,33.5,0,50.2c0,0.9,0.2,1.6,0.9,2.4c4.6,4.8,5.3,10.3,2,14.9c-3.6,5-10.3,6.7-16,4
			c-7.4-3.5-9.2-12.3-3.6-18.2c1-1,1.2-2,1.2-3.3c0-6.5,0-13-0.1-19.5c0-1.9,0-10.3,0-12.3S67,56.9,67.2,53.2
			c0.1-2.2-0.8-2.7-2.8-2.7c-6.1,0.1-12.1,0-18.2,0.1c-2.1,0-3.1-0.7-3.3-2.8c-0.3-2.3-0.2-4.6,0-6.9c0.2-2.1,1.2-2.6,3.1-2.6
			c9.6,0.1,19.2,0,28.9,0c9.5,0,19.1,0.1,28.6,0c2.3,0,3.1,0.8,3.3,3C107.9,50,107.6,50.5,98.9,50.5z"/>
		<path class="st0" d="M71.4,66.8H60.8c-0.7,0-1.2-0.5-1.2-1.2l0,0c0-0.7,0.5-1.2,1.2-1.2h10.6c0.7,0,1.2,0.5,1.2,1.2l0,0
			C72.5,66.3,72,66.8,71.4,66.8z"/>
		<path class="st0" d="M71.4,72.6H60.8c-0.7,0-1.2-0.5-1.2-1.2l0,0c0-0.7,0.5-1.2,1.2-1.2h10.6c0.7,0,1.2,0.5,1.2,1.2l0,0
			C72.5,72.1,72,72.6,71.4,72.6z"/>
		<path class="st0" d="M71.4,78.3H60.8c-0.7,0-1.2-0.5-1.2-1.2l0,0c0-0.7,0.5-1.2,1.2-1.2h10.6c0.7,0,1.2,0.5,1.2,1.2l0,0
			C72.5,77.8,72,78.3,71.4,78.3z"/>
	</g>
</g>
</svg>
