<?xml version="1.0" encoding="utf-8"?>
<!-- Generator: Adobe Illustrator 19.2.0, SVG Export Plug-In . SVG Version: 6.00 Build 0)  -->
<svg version="1.1" id="Layer_1" xmlns="http://www.w3.org/2000/svg" xmlns:xlink="http://www.w3.org/1999/xlink" x="0px" y="0px"
	 viewBox="0 0 850.4 850.4" style="enable-background:new 0 0 850.4 850.4;" xml:space="preserve">
<style type="text/css">
	.st0{fill:#3895D2;}
	.st1{fill:#FFFFFF;}
</style>
<path class="st0" d="M810.6,849.5H39.8c-21.5,0-38.9-17.4-38.9-38.9V39.8c0-21.5,17.4-38.9,38.9-38.9h770.8
	c21.5,0,38.9,17.4,38.9,38.9v770.8C849.5,832.1,832.1,849.5,810.6,849.5z"/>
<g>
	<g>
		<path class="st1" d="M90.2,90.4V760h670V90.4H90.2z M715.9,715.3H134.5V135.1h581.4V715.3z M359.9,465.5h294.9v-44.2H359.9V465.5z
			 M189.5,620h465.3v-44.1H189.5V620z M654.8,266.9H425.2v44.2h229.6V266.9z M261.5,379.4l0.5,23.8l-14.6,5l0,117
			c0,0,14,14.4,32.2,13.1c18.3-1.1,29.3-13.1,29.3-13.1l0-117.1l-13.5-3.3l-0.5-25.5c48.1-8.1,84.9-50,84.9-100.8
			c0-56.6-45.6-102.5-101.6-102.5c-56.2,0-101.6,45.8-101.7,102.5C176.6,329.5,213.4,371.4,261.5,379.4z M278.2,199.8
			c43.2,0,78.3,35.3,78.3,78.9c0,43.6-35.1,78.9-78.4,79c-43.2,0-78.3-35.4-78.3-79C199.9,235.1,235,199.8,278.2,199.8z"/>
	</g>
</g>
</svg>
