<?xml version="1.0" encoding="utf-8"?>
<!-- Generator: Adobe Illustrator 19.2.0, SVG Export Plug-In . SVG Version: 6.00 Build 0)  -->
<svg version="1.1" id="Capa_1" xmlns="http://www.w3.org/2000/svg" xmlns:xlink="http://www.w3.org/1999/xlink" x="0px" y="0px"
	 viewBox="0 0 380 380" style="enable-background:new 0 0 380 380;" xml:space="preserve">
<style type="text/css">
	.st0{fill:#FFFFFF;}
</style>
<g>
	<path class="st0" d="M98.4,106.5c1.3,0,2.3-1,2.3-2.3V10.4c0-1.3-1-2.3-2.3-2.3H8.8c-1.3,0-2.3,1-2.3,2.3v93.7c0,1.3,1,2.3,2.3,2.3
		L98.4,106.5L98.4,106.5z"/>
	<path class="st0" d="M234.8,106.5c1.3,0,2.3-1,2.3-2.3V10.4c0-1.3-1-2.3-2.3-2.3h-89.6c-1.3,0-2.3,1-2.3,2.3v93.7
		c0,1.3,1,2.3,2.3,2.3L234.8,106.5L234.8,106.5z"/>
	<path class="st0" d="M371.2,273.5h-89.6c-1.3,0-2.3,1-2.3,2.3v93.7c0,1.3,1,2.3,2.3,2.3h89.6c1.2,0,2.3-1,2.3-2.3v-93.7
		C373.5,274.6,372.4,273.5,371.2,273.5z"/>
	<path class="st0" d="M235.7,238.6c1.3,0,2.3-1,2.3-2.3v-93.7c0-1.3-1-2.3-2.3-2.3h-89.6c-1.3,0-2.3,1-2.3,2.3v93.7
		c0,1.3,1,2.3,2.3,2.3H235.7L235.7,238.6z"/>
	<path class="st0" d="M236.7,273.5H147c-1.3,0-2.3,1-2.3,2.3v93.7c0,1.3,1,2.3,2.3,2.3h89.6c1.2,0,2.2-1,2.2-2.3v-93.7
		C238.9,274.6,237.9,273.5,236.7,273.5z"/>
	<path class="st0" d="M100.2,273.5H10.6c-1.3,0-2.2,1-2.2,2.3v93.7c0,1.3,1,2.3,2.2,2.3h89.6c1.2,0,2.3-1,2.3-2.3v-93.7
		C102.5,274.6,101.4,273.5,100.2,273.5z"/>
	<path class="st0" d="M370.3,238.6c1.2,0,2.3-1,2.3-2.3v-93.7c0-1.3-1-2.3-2.3-2.3h-89.6c-1.2,0-2.2,1-2.2,2.3v93.7
		c0,1.3,1,2.3,2.2,2.3H370.3L370.3,238.6z"/>
	<path class="st0" d="M369.3,106.5c1.3,0,2.3-1,2.3-2.3V10.4c0-1.3-1-2.3-2.3-2.3h-89.5c-1.3,0-2.3,1-2.3,2.3v93.7
		c0,1.3,1,2.3,2.3,2.3L369.3,106.5L369.3,106.5z"/>
	<path class="st0" d="M99.3,238.6c1.3,0,2.3-1,2.3-2.3v-93.7c0-1.3-1-2.3-2.3-2.3H9.7c-1.3,0-2.3,1-2.3,2.3v93.7
		c0,1.3,1,2.3,2.3,2.3H99.3L99.3,238.6z"/>
</g>
</svg>
