<?xml version="1.0" encoding="utf-8"?>
<!-- Generator: Adobe Illustrator 19.2.0, SVG Export Plug-In . SVG Version: 6.00 Build 0)  -->
<svg version="1.1" id="Layer_1" xmlns="http://www.w3.org/2000/svg" xmlns:xlink="http://www.w3.org/1999/xlink" x="0px" y="0px"
	 viewBox="0 0 850.4 850.4" style="enable-background:new 0 0 850.4 850.4;" xml:space="preserve">
<style type="text/css">
	.st0{fill:#3895D2;}
	.st1{fill:#ffffff;}
</style>
<path class="st0" d="M810.6,849.5H39.8c-21.5,0-38.9-17.4-38.9-38.9V39.8c0-21.5,17.4-38.9,38.9-38.9h770.8
	c21.5,0,38.9,17.4,38.9,38.9v770.8C849.5,832.1,832.1,849.5,810.6,849.5z"/>
<g>
	<g>
		<path class="st1" d="M741.9,529.1c-10.8-5.1-30.7-9.7-64.5-2.3c-2.3,0.4-157.2,28-186.1,33.2c-4.5,0.8-7.2,6.2-7.2,6.2
			c-57.2,88-147.8,25.1-147.4,23.8c51.1,14.2,94.5-5.6,110.8-25.1c38-45.6-22.1-52.4-53.9-60.2c-119.3-29-124.3,0.7-193.4,7.3
			L94.3,527c-2.4,0.7-4.4,2.4-5.5,4.7c-1.1,2.3-1.2,4.9-0.2,7.2l4.3,10.6c10.7,26.4,21.4,65.7,32.7,92.3c0.7,1.7,2,3.2,3.6,4.1
			c0.4,0.2,0.8,0.5,1.4,0.8c2.1,1,4.5,1.6,6.4,1.6l75.3-1.5c3.9,0,171.1,97,251.4,64.9l250-112.1c10-4.7,20.2-9.6,30.5-14.3
			c11.2-5.2,18.1-17,18.2-28.6C762.5,544.6,754.8,535.3,741.9,529.1z M223.7,244.8h7.5V425c0,13.8,11.2,25,25,25h337.8
			c13.8,0,25-11.2,25-25V244.8h7.5c6.9,0,12.5-5.6,12.5-12.5v-87.6c0-6.9-5.6-12.5-12.5-12.5H223.7c-6.9,0-12.5,5.6-12.5,12.5v87.6
			C211.2,239.2,216.8,244.8,223.7,244.8z M397,168.6h56.3c11.1,0,20,9,20,20c0,11.1-9,20-20,20H397c-11.1,0-20-9-20-20
			S386,168.6,397,168.6z"/>
	</g>
</g>
</svg>
