<?xml version="1.0" encoding="utf-8"?>
<!-- Generator: Adobe Illustrator 19.2.0, SVG Export Plug-In . SVG Version: 6.00 Build 0)  -->
<svg version="1.1" id="Layer_1" xmlns="http://www.w3.org/2000/svg" xmlns:xlink="http://www.w3.org/1999/xlink" x="0px" y="0px"
	 viewBox="0 0 300 300" style="enable-background:new 0 0 300 300;" xml:space="preserve">
<style type="text/css">
	.st0{fill:#FFFFFF;}
</style>
<g>
	<path fill="#FFFFFF" d="M63.7,69.6c-8.8-1.4-9-1.6-9-10.4c0-10.8,0-21.6,0-32.4c0-5.1,2.1-7.2,7.1-7.2c58.8,0,117.5,0,176.3,0c4.8,0,7,2.1,7,6.8
		c0.1,12,0,24,0,36c0,4.7-3,7.4-6.9,6.9c-0.5-0.1-1.1,0.1-2.1,0.1c0,1.1,0,2.2,0,3.3c0,25.2,0,50.3,0,75.5c0,8.3-4.4,12.7-12.7,12.7
		c-49.1,0-98.2,0-147.3,0c-8.1,0-12.5-4.4-12.5-12.5c0-25.1,0-50.1,0-75.2C63.7,72,63.7,70.9,63.7,69.6z M149.9,53.5
		C149.9,53.5,149.9,53.5,149.9,53.5c4.4,0,8.8,0.1,13.2-0.1c4.9-0.2,8.2-3.8,8.3-8.5c0.1-5-3.2-9.3-8-9.4c-8.9-0.3-17.8-0.3-26.7,0
		c-5,0.1-8.4,4.2-8.3,9.2c0,5,3.4,8.6,8.6,8.8C141.3,53.7,145.6,53.5,149.9,53.5z"/>
	<path  fill="#FFFFFF" d="M110.4,223.9c2.1,1.3,3.7,2.4,5.5,3.3c9.1,4.9,18.8,7.4,29.2,6.5c13.3-1.2,23-8.4,30.3-19.2c1.9-2.8,4-4.3,7.4-4.9
		c28.4-5,56.7-10.1,85-15.1c7.8-1.4,15.5-1.4,22.9,1.8c7,3.1,10.3,8.3,9.1,14.7c-1,5-4,8.4-8.6,10.4c-29.6,13.4-59.3,26.7-88.9,40.1
		c-10.9,4.9-21.8,9.7-32.6,14.6c-8.5,3.9-17.3,4.7-26.4,3.8c-20.7-2.1-39.9-9.2-58.7-17.5c-7.9-3.5-15.7-7.1-23.3-11.2
		c-4.2-2.2-8.3-2.9-12.9-2.7c-8.3,0.3-16.7,0.4-25,0.6c-4.6,0.1-6-0.8-7.6-5.1c-4.3-12.1-8.5-24.2-12.7-36.2
		c-0.8-2.3-1.8-4.5-2.6-6.8c-1.1-3.1,0.1-5.2,3.3-5.7c12.2-1.8,24.5-3.5,36.8-5.2c12.2-1.6,24.3-3.4,36.1-7.1
		c14.9-4.6,30.1-3.7,45.1-0.5c11.4,2.4,22.6,5.5,33.8,8.3c0.6,0.2,1.2,0.5,1.8,0.7c8.2,3.9,9.8,9.5,4.8,17
		c-6.5,9.8-16.4,13.9-27.4,15.9c-7,1.3-14,1-21-0.6c-0.7-0.2-1.5-0.3-2.2-0.4C111.4,223.5,111.2,223.6,110.4,223.9z"/>
	<path fill="#FFFFFF" class="st0" d="M149.9,53.5c-4.3,0-8.6,0.2-12.9,0c-5.2-0.2-8.6-3.8-8.6-8.8c0-5,3.3-9,8.3-9.2c8.9-0.2,17.8-0.3,26.7,0
		c4.9,0.2,8.1,4.4,8,9.4c-0.1,4.7-3.4,8.3-8.3,8.5C158.8,53.7,154.3,53.5,149.9,53.5C149.9,53.5,149.9,53.5,149.9,53.5z"/>
</g>
</svg>
