<?xml version="1.0" encoding="utf-8"?>
<!-- Generator: Adobe Illustrator 23.0.1, SVG Export Plug-In . SVG Version: 6.00 Build 0)  -->
<svg version="1.1" id="Layer_1" xmlns="http://www.w3.org/2000/svg" xmlns:xlink="http://www.w3.org/1999/xlink" x="0px" y="0px"
	 viewBox="0 0 40 40" style="enable-background:new 0 0 40 40;" xml:space="preserve">
<style type="text/css">
	.st0{fill:#3A3A3A;}
</style>
<g>
	<path class="st0" d="M32.4,9.7c1.2,0.9,1.2,0.9,2.2-0.1c0.5-0.5,0.9-0.9,1.4-1.4c0.4-0.4,0.4-0.9,0-1.3c-1.7-1.7-3.4-3.4-5.1-5.1
		c-0.4-0.4-0.9-0.4-1.3,0c-0.4,0.4-0.9,0.9-1.3,1.3c-1.1,1.1-1.1,1.1-0.2,2.3c-0.5,0.5-0.9,0.9-1.5,1.5c-0.8-0.7-1.4-1.6-2.3-2
		c-0.8-0.4-1.9-0.4-2.9-0.6c0-0.7,0-1.4,0-2.2c0-1.3-0.8-2.1-2.1-2.1c-3.5,0-7.1,0-10.6,0C7.5,0,6.7,0.8,6.7,2.1c0,0.7,0,1.5,0,2.3
		c-2.1,0.4-3,1.4-3,3.5c0,9.6,0,19.2,0,28.9c0,2.1,1.1,3.3,3.2,3.3c8.2,0,16.4,0,24.6,0c2.2,0,3.3-1.1,3.3-3.2c0-7.2,0-14.3,0-21.5
		c0-0.5-0.3-1-0.6-1.3c-1-1-2.1-2-3.1-3c0.3-0.3,0.4-0.5,0.6-0.7C31.9,10.1,32.1,9.9,32.4,9.7z M34.5,7.6c-0.3,0.4-0.6,0.7-1,1
		c-0.3-0.3-0.5-0.5-0.8-0.7c0.4-0.4,0.7-0.7,1.1-1C34,7.1,34.3,7.4,34.5,7.6z M30.2,3.2C30.5,3.5,30.7,3.7,31,4
		c-0.4,0.4-0.7,0.7-1.1,1.1c-0.3-0.3-0.5-0.5-0.8-0.7C29.5,3.9,29.9,3.6,30.2,3.2z M10.7,1.5c2.8,0,5.5,0,8.3,0c0.7,0,1,0.2,1,0.9
		c0,0.6,0,1.3,0,2c-4,0-7.9,0-11.7,0c0-0.1-0.1-0.1-0.1-0.2C8.1,1.5,8.1,1.5,10.7,1.5z M32.8,14.7c0.3,0.3,0.5,0.8,0.5,1.2
		c0,7,0,13.9,0,20.9c0,1.3-0.4,1.8-1.8,1.8c-8.2,0-16.4,0-24.6,0c-1.3,0-1.8-0.4-1.8-1.8c0-4.8,0-9.7,0-14.5c0-4.8,0-9.6,0-14.3
		c0-1.6,0.4-2,2-2c5.1,0,10.3,0,15.4,0c0.5,0,1,0.2,1.4,0.5C26.9,9.2,29.9,11.9,32.8,14.7z M29.9,9.9c-0.6-0.6-1.3-1.2-2.1-1.9
		c0.5-0.4,1-0.8,1.5-1.2c0.5,0.6,1.2,1.2,1.8,1.9C30.8,9,30.3,9.4,29.9,9.9z M31,6.1c0.4-0.3,0.7-0.6,1.2-0.9
		c0.2,0.2,0.4,0.3,0.7,0.6c-0.4,0.4-0.7,0.7-1.1,1.2C31.4,6.6,31.2,6.4,31,6.1z"/>
	<path class="st0" d="M21.5,17.2l-0.6-0.8c-0.4-0.5-0.8-1-1.2-1.6l-0.4-0.6l-1.4,1.8c-1.1,1.3-2.1,2.6-3.2,4c-1.6,2-1.7,5-0.1,7.1
		c1.1,1.5,2.9,2.4,4.7,2.4c1.1,0,2.2-0.3,3.1-0.9c1.4-0.9,2.4-2.4,2.7-4.1c0.3-1.7-0.2-3.4-1.3-4.7C22.9,19,22.2,18.1,21.5,17.2z
		 M22.3,26.7c-0.8,0.8-1.9,1.3-3.1,1.3c-0.9,0-1.7-0.2-2.4-0.7c-1-0.7-1.7-1.8-1.8-3c-0.2-1.2,0.2-2.5,1.1-3.4
		c0.6-0.7,1.3-1.5,1.9-2.3c0.3-0.4,0.6-0.7,0.8-1.1l0.5-0.6l0.5,0.6c0.3,0.4,0.6,0.7,0.9,1.1c0.2,0.3,0.4,0.5,0.7,0.8l0.1,0.1
		c0.4,0.5,0.8,1,1.2,1.5C23.9,22.8,23.8,25.1,22.3,26.7z"/>
</g>
</svg>
