<?xml version="1.0" encoding="utf-8"?>
<!-- Generator: Adobe Illustrator 23.0.1, SVG Export Plug-In . SVG Version: 6.00 Build 0)  -->
<svg version="1.1" id="Layer_1" xmlns="http://www.w3.org/2000/svg" xmlns:xlink="http://www.w3.org/1999/xlink" x="0px" y="0px"
	 viewBox="0 0 40 40" style="enable-background:new 0 0 40 40;" xml:space="preserve">
<style type="text/css">
	.st0{fill:#3A3A3A;}
</style>
<g>
	<path class="st0" d="M39.3,24.4c-0.4,0-0.8,0-1.3,0c0-0.1,0-0.3,0-0.4c0-1.2,0-2.4,0-3.5c0-0.2,0-0.3-0.1-0.5
		c-0.7-1.2-1.5-2.4-2.2-3.5c-0.1-0.1-0.3-0.2-0.4-0.3c-0.2-0.1-0.5,0.1-0.6,0.3c-0.1,0.2-0.1,0.5,0,0.7c0.7,1,1.3,2.1,2,3.1
		c0.1,0.1,0.1,0.3,0.1,0.5c0,1.1,0,2.2,0,3.4c0,0.1,0,0.2,0,0.3c-0.6,0-1.1,0-1.7,0c-0.5,0-0.8,0.2-0.8,0.8c0,2,0,3.9,0,5.9
		c0,0.6,0.2,0.8,0.8,0.8c0.5,0,1.1,0,1.6,0c0,0.1,0,0.1,0,0.2c0,1.6,0,3.1,0,4.7c0,0.6-0.6,1.1-1.2,1.1c-0.6,0-1.1-0.5-1.2-1.1
		c0-0.3,0-0.5,0-0.8c0-1.3-0.9-2.1-2.1-2.1c-0.5,0-0.9,0-1.4,0c-0.1,0-0.2,0-0.4,0c0-0.2,0-0.3,0-0.5c0-5,0-10,0-15
		c0-1.5-1-2.4-2.5-2.4c-1.6,0-3.2,0-4.9,0c-1.8,0-3.6,0-5.4,0c-1.1,0-1.9,0.6-2.2,1.6c-0.1,0.3-0.1,0.7-0.1,1.1c0,6.6,0,13.3,0,19.9
		c0,0.1,0,0.2,0,0.4c-0.4,0-0.8,0-1.2,0c-0.3,0-0.6,0.3-0.6,0.6c0,0.3,0.3,0.6,0.6,0.6c0.1,0,0.1,0,0.2,0c2.4,0,4.8,0,7.1,0
		c3.3,0,6.6,0,9.9,0c0.1,0,0.3,0,0.4-0.1c0.3-0.1,0.4-0.3,0.3-0.6c0-0.3-0.3-0.5-0.6-0.5c-0.4,0-0.8,0-1.2,0c0-1.3,0-2.5,0-3.8
		c0.6,0,1.3,0,1.9,0c0.4,0,0.6,0.2,0.7,0.6c0.1,0.2,0.1,0.4,0.1,0.7c0,0.3,0,0.6,0.1,0.9c0.3,1.2,1.4,1.9,2.5,1.8
		c1.2-0.1,2.1-1.2,2.1-2.4c0-1.4,0-2.7,0-4.1c0-0.2,0-0.4,0-0.6c0.1,0,0.1,0,0.1,0c0.4,0,0.8,0,1.2,0c0.5,0,0.7-0.2,0.7-0.7
		c0-2,0-4,0-6C40,24.6,39.8,24.4,39.3,24.4z M29.3,38.8c-4.2,0-8.4,0-12.6,0c0-0.1,0-0.2,0-0.3c0-6.7,0-13.5,0-20.2
		c0-0.7,0.4-1.1,1.1-1.1c3.5,0,6.9,0,10.4,0c0.7,0,1.1,0.4,1.1,1.1c0,6.7,0,13.5,0,20.2C29.3,38.6,29.3,38.7,29.3,38.8z M35.5,30.6
		c0-1.1,0-2.2,0-3.3c0.4,0,0.8,0,1.2,0c0.1,0,0.2,0.1,0.2,0.1c0.2,1.1,0.4,2.1,0.6,3.2C36.8,30.6,36.2,30.6,35.5,30.6z M38.8,30.6
		C38.7,30.6,38.7,30.6,38.8,30.6c-0.1-0.1-0.1-0.1-0.1-0.2c-0.2-1.2-0.4-2.5-0.6-3.7c-0.1-0.4-0.3-0.6-0.7-0.6c-0.6,0-1.2,0-1.8,0
		c0-0.2,0-0.3,0-0.5c1.1,0,2.2,0,3.2,0C38.8,27.3,38.8,28.9,38.8,30.6z"/>
	<path class="st0" d="M25.8,18.3c-1.9,0-3.7,0-5.6,0c-1.5,0-2.4,1-2.4,2.4c0,1.4,0,2.8,0,4.2c0,0.6,0.2,0.8,0.8,0.8
		c1.5,0,2.9,0,4.4,0c0.7,0,1.5,0,2.2,0c0.8,0,1.5,0,2.3,0c0.5,0,0.7-0.2,0.7-0.7c0-1.4,0-2.9,0-4.3C28.2,19.2,27.3,18.3,25.8,18.3z
		 M20.8,24.5c0.1-0.9,1.2-1.7,2.1-1.7c0,0,0.1,0.1,0.1,0.1c-0.1,0.1-0.3,0.2-0.4,0.3c-0.3,0.3-0.3,0.6-0.1,0.9
		c0.3,0.3,0.6,0.2,0.9,0c0.3-0.3,0.5-0.6,0.8-0.9c0.5,0.3,0.8,0.8,0.9,1.3C23.8,24.5,22.3,24.5,20.8,24.5z M26.9,24.5
		c-0.3,0.1-0.4,0-0.5-0.3c-0.2-0.8-0.6-1.4-1.3-1.9c0.3-0.2,0.5-0.5,0.8-0.7c0.3-0.3,0.4-0.7,0.1-0.9c-0.3-0.3-0.6-0.2-0.9,0.1
		c-0.3,0.3-0.6,0.6-0.9,0.9c-0.1,0.1-0.2,0.1-0.3,0.1c-2-0.5-3.8,0.6-4.3,2.6c0,0.1,0,0.2-0.1,0.2c-0.2,0-0.3,0-0.5,0
		c0-0.1,0-0.2,0-0.3c0-1.2,0-2.4,0-3.6c0-0.7,0.4-1.2,1.2-1.2c1.9,0,3.7,0,5.6,0c0.8,0,1.2,0.4,1.2,1.2c0,1.2,0,2.3,0,3.5
		C26.9,24.3,26.9,24.4,26.9,24.5z"/>
	<path class="st0" d="M23.4,28.5c-0.2-0.3-0.6-0.3-0.8,0c-0.8,0.9-1.5,1.9-2.1,3.1c-0.7,1.6,0.5,3.6,2.5,3.6c1.9,0,3.2-2,2.5-3.6
		C25,30.5,24.2,29.5,23.4,28.5z M23.9,33.6c-0.5,0.4-1.2,0.4-1.8,0c-0.5-0.4-0.7-1.1-0.5-1.7c0.3-0.8,0.8-1.4,1.4-2.2
		c0.4,0.7,0.9,1.4,1.3,2.1C24.6,32.6,24.4,33.2,23.9,33.6z"/>
	<path class="st0" d="M3.2,6.6c-0.6,0-0.8,0.2-0.8,0.9v6.9c0,1.3,0,2.7,0,4c0,0.6,0.2,0.8,0.8,0.8c2.5,0,5.1,0,7.6,0
		c0.6,0,0.8-0.2,0.8-0.8c0-3.6,0-7.3,0-10.9c0-0.6-0.2-0.8-0.8-0.8C8.3,6.6,5.8,6.6,3.2,6.6z M10.4,18H3.6V7.9h6.8V18z"/>
	<path class="st0" d="M17.2,6.6l-4,0c-0.6,0-0.8,0.2-0.8,0.8c0,1.4,0,2.9,0,4.3c0,0.6,0.2,0.8,0.8,0.8c0.5,0,1.1,0,1.6,0l4.5,0
		c0.5,0,1,0,1.6,0c0.6,0,0.8-0.2,0.8-0.8c0-1.4,0-2.9,0-4.3c0-0.6-0.2-0.8-0.8-0.8L17.2,6.6z M20.4,11.4h-6.8V7.9h6.8V11.4z"/>
	<path class="st0" d="M1.2,1.2h16.4l0,1.4c0,1,0,2,0,3c0,0.6,0.2,0.8,0.8,0.8l1.1,0l3.3,0l0,7.2c0.1,0.8,1.2,0.8,1.2,0
		c0-2.5,0-5.1,0-7.6c0-0.3-0.1-0.6-0.3-0.8c-1.8-1.8-3.4-3.3-4.9-4.9C18.6,0.1,18.3,0,18,0C14,0,10,0,6,0H0.8C0.2,0,0,0.2,0,0.8L0,6
		c0,7.9,0,15.9,0,23.8c0,0.3,0,0.6,0.4,0.8l0,0h12.8c0.8,0,0.8-1.2,0-1.2H1.2V1.2z M18.8,2.2l2.9,2.9h-2.9V2.2z"/>
	<path class="st0" d="M13.7,26.5v-5.6c0-0.4,0-1-1.3-0.9l-9.2,0c-0.6,0-0.8,0.2-0.8,0.8c0,1.9,0,3.9,0,5.8c0,0.5,0.2,0.8,0.8,0.8
		h2.8c2.4,0,4.4,0,6.9,0C13.5,27.3,13.7,26.9,13.7,26.5z M3.6,26.1v-4.9h8.9v4.9H3.6z"/>
</g>
</svg>
