<?xml version="1.0" encoding="utf-8"?>
<!-- Generator: Adobe Illustrator 23.0.1, SVG Export Plug-In . SVG Version: 6.00 Build 0)  -->
<svg version="1.1" id="Layer_1" xmlns="http://www.w3.org/2000/svg" xmlns:xlink="http://www.w3.org/1999/xlink" x="0px" y="0px"
	 viewBox="0 0 40 40" style="enable-background:new 0 0 40 40;" xml:space="preserve">
<style type="text/css">
	.st0{fill:#3A3A3A;}
</style>
<g>
	<path class="st0" d="M38.9,20c-0.6-0.5-1.3-0.8-2.1-0.8c-0.9,0-1.7,0.4-2.3,1l-4,4.3l-0.2-0.6c-0.4-1.3-1.6-2.2-3.1-2.2H21
		c-0.5,0-0.8-0.2-1.4-0.7l-0.3-0.2c-1.4-1.3-3.3-2-5.2-2c-1.9,0-3.8,0.7-5.3,2L6.3,23L6,22.8c-0.5-0.2-1-0.4-1.5-0.4
		c-0.5,0-1,0.1-1.4,0.3l-2.6,1.3c-0.4,0.2-0.6,0.7-0.4,1.1l7.2,14.3C7.4,39.8,7.7,40,8,40c0.1,0,0.2,0,0.4-0.1l2.6-1.3
		c1.1-0.6,1.8-1.7,1.8-3l0-0.4h14.5c2.5,0,4.9-1.2,6.4-3.2l5.7-7.6C40.4,23,40.2,21.1,38.9,20z M10.3,37.1l-1.9,1L1.9,25.2l1.9-1
		c0.2-0.1,0.5-0.2,0.7-0.2c0.6,0,1.1,0.3,1.4,0.9L11,35C11.3,35.8,11,36.8,10.3,37.1z M38.1,23.4l-5.7,7.6c-1.2,1.6-3.1,2.5-5.1,2.5
		H12.1l-4.7-9.4L9.8,22c1.2-1,2.6-1.6,4.2-1.6s3,0.6,4.2,1.6c1.2,1.1,2,1.3,2.8,1.3h6.3c0.9,0,1.6,0.7,1.6,1.6
		c0,0.9-0.7,1.6-1.6,1.6h-6.1c-0.4,0-0.8,0.4-0.8,0.8c0,0.4,0.4,0.8,0.8,0.8H28c0.9,0,1.7-0.4,2.3-1l5.3-5.6
		c0.3-0.3,0.7-0.5,1.1-0.5c0.4,0,0.8,0.1,1.1,0.4C38.5,21.8,38.6,22.8,38.1,23.4z"/>
	<path class="st0" d="M15.2,16.1h12c0.4,0,0.8-0.4,0.8-0.8v-1.2c0-2.5-1.3-4.8-3.5-6l-0.4-0.2l0.3-0.4c0.8-0.8,1.2-1.9,1.2-3
		c0-2.5-2-4.5-4.4-4.5c-2.4,0-4.5,2-4.5,4.5c0,1.1,0.4,2.2,1.3,3l0.4,0.4L18,8.1c-2.2,1.2-3.6,3.5-3.6,6v1.2
		C14.4,15.7,14.8,16.1,15.2,16.1z M21.3,1.6c1.5,0,2.8,1.3,2.8,2.9c0,1.5-1.2,2.8-2.8,2.8c-1.5,0-2.9-1.3-2.9-2.8
		C18.4,3,19.7,1.6,21.3,1.6z M16,14.1c0-2.8,2.4-5.2,5.2-5.2c2.8,0,5.2,2.4,5.2,5.2v0.4H16V14.1z"/>
</g>
</svg>
