<?xml version="1.0" encoding="utf-8"?>
<!-- Generator: Adobe Illustrator 19.2.0, SVG Export Plug-In . SVG Version: 6.00 Build 0)  -->
<svg version="1.1" id="Layer_1" xmlns="http://www.w3.org/2000/svg" xmlns:xlink="http://www.w3.org/1999/xlink" x="0px" y="0px"
	 viewBox="0 0 40 40" style="enable-background:new 0 0 40 40;" xml:space="preserve">
<style type="text/css">
	.st0{fill:#626975;}
</style>
<g>
	<g>
		<path class="st0" d="M15.5,9.1l-2.4-1.2l-0.5,0.5l2.9,3.3l5-6l-0.4-0.4L15.5,9.1z M25.2,9.1l-2.4-1.2l-0.5,0.5l2.9,3.3l5-6
			l-0.4-0.4L25.2,9.1z M40,5.7l-0.4-0.4L35,9.1l-2.4-1.2l-0.5,0.5l2.9,3.3L40,5.7z M6.2,9.2C6.1,9.1,5.4,8.9,5.4,8.7V8.5
			c0-0.4,0.8-1,1-1.7C6.8,6.7,7,6.3,7,5.9c0-0.4,0-0.6-0.8-0.7V5c0-0.1,0.2-1.4-0.6-2.2C5.2,2.3,4.8,2.1,4,2.1
			c-0.8,0-1.3,0.2-1.8,0.7C1.4,3.6,1.6,4.8,1.6,5v0.2C1.6,5.2,1,5.5,1,5.9c0,0.4,0.3,0.8,0.7,0.9c0.2,0.7,0.6,1.3,1.4,1.7v0.3
			C2.4,8.9,2.5,9.1,2.3,9.2c-2.1,0.7-2.3,1.9-2.3,2.1v0.5c0,0.2-0.2,0.9,0.1,0.9h7.7c0.2,0,0.7-0.6,0.7-0.9v-0.5
			C8.5,11.2,8.3,9.8,6.2,9.2z M0.8,11.8v-0.6c0,0-0.2-0.2,0-0.5c0.3-0.5,0.8-0.8,1.3-0.9c0,0,0.5-0.2,0.8-0.5c0,0,0,0.1,0.1,0.1
			l-0.2,0.7c0,0.1,0,0.3,0,0.3l0.3,1.3H0.8z M2.1,4.6c0-0.4,0.2-0.9,0.5-1.3C3,3,3.4,2.8,3.9,2.8c0.5,0,1,0.2,1.3,0.5
			c0.4,0.4,0.5,0.9,0.5,1.3C4.8,4.5,4.1,4,4.1,4C4,3.9,3.9,3.9,3.8,3.9c-0.1,0-0.1,0-0.2,0C3.5,4,3.5,4.1,3.5,4.2c0,0,0,0-0.1,0.1
			C3.2,4.4,3,4.4,2.7,4.5C2.5,4.5,2.3,4.5,2.1,4.6z M2.2,6.4c0-0.1,0.1-0.2,0.1-0.4V5.3c0,0,0.3-0.1,0.5-0.1C3.4,5.1,3.6,5,3.8,4.8
			C4.2,5,4.7,5.2,5.4,5.3v0.8c0,0.1,0.2,0.2,0.2,0.4C5.5,7.1,5.3,7.7,4.8,7.9C4.5,8.1,4.3,8.1,4,8.1c-0.3,0-0.5-0.1-0.8-0.2
			C2.6,7.7,2.3,7.1,2.2,6.4z M4,11L4,11l-0.5-1l0.2-0.3c0.1,0,0.2,0,0.3,0c0.1,0,0.2,0,0.3-0.1l0.2,0.4L4,11z M4.3,9
			C4.2,9,4.1,9,3.9,9C3.8,9,3.7,9,3.6,9c-0.1,0-0.2-0.1-0.2-0.1c0.2,0,0.4,0.1,0.6,0.1c0.2,0,0.4,0,0.6-0.1C4.4,8.9,4.4,8.9,4.3,9z
			 M7,11.2v0.6H4.8l0.3-1.3c0-0.1,0-0.4,0-0.5L4.9,9.5c0,0,0,0,0-0.1c0.3,0.2,0.7,0.5,0.7,0.5c0.9,0.3,1.2,0.7,1.4,0.9
			C7.2,11,7,11.2,7,11.2z M6.2,22c-0.2-0.1-0.8-0.3-0.8-0.4v-0.3c0-0.4,0.8-1,1-1.7C6.8,19.5,7,19.1,7,18.7c0-0.4,0-0.6-0.8-0.7
			v-0.2c0-0.1,0.2-1.4-0.6-2.2c-0.5-0.5-0.9-0.7-1.6-0.7c-0.8,0-1.3,0.2-1.8,0.7c-0.8,0.8-0.6,2.1-0.6,2.2V18c0,0.1-0.6,0.4-0.6,0.7
			c0,0.4,0.3,0.8,0.7,0.9c0.2,0.7,0.6,1.3,1.4,1.7v0.3C2.4,21.8,2.5,22,2.3,22c-2.1,0.7-2.3,1.9-2.3,2.1v0.5c0,0.2-0.2,0.3,0.1,0.3
			h7.7c0.2,0,0.7-0.1,0.7-0.3v-0.5C8.5,24,8.3,22.7,6.2,22z M0.8,24.1L0.8,24.1c0,0-0.2-0.2,0-0.5c0.3-0.5,0.8-0.8,1.3-0.9
			c0,0,0.5-0.3,0.8-0.5c0,0,0,0,0.1,0l-0.2,0.6c0,0.1,0,0.1,0,0.2l0.3,1H0.8z M2.1,17.4c0-0.4,0.2-0.9,0.5-1.3
			c0.3-0.3,0.7-0.5,1.3-0.5c0.5,0,1,0.2,1.3,0.5c0.4,0.4,0.5,0.9,0.5,1.3c-1-0.1-1.7-0.6-1.7-0.6c-0.1,0-0.1-0.1-0.2-0.1
			c-0.1,0-0.1,0-0.2,0c-0.1,0.1-0.2,0.2-0.2,0.3c0,0,0,0-0.1,0.1c-0.1,0.1-0.4,0.1-0.6,0.2C2.5,17.4,2.3,17.4,2.1,17.4z M2.2,19.3
			c0-0.1,0.1-0.2,0.1-0.4v-0.8c0,0,0.3-0.1,0.5-0.1c0.5-0.1,0.7-0.2,0.9-0.4c0.4,0.2,0.9,0.5,1.6,0.6v0.8c0,0.1,0.2,0.2,0.2,0.4
			c-0.1,0.7-0.3,1.2-0.8,1.5C4.5,20.9,4.3,21,4,21c-0.3,0-0.5-0.1-0.8-0.2C2.6,20.5,2.3,20,2.2,19.3z M4,24.1L4,24.1L3.5,23l0.2-0.4
			c0.1,0,0.2,0,0.3,0c0.1,0,0.2,0,0.3,0L4.4,23L4,24.1z M4.3,21.8c-0.1,0.1-0.2,0.1-0.3,0.1c-0.1,0-0.2,0-0.3-0.1
			c-0.1,0-0.2-0.1-0.2-0.1c0.2,0,0.4,0.1,0.6,0.1c0.2,0,0.4,0,0.6-0.1C4.4,21.7,4.4,21.8,4.3,21.8z M7,24.1L7,24.1l-2.2,0l0.3-1
			c0-0.1,0-0.1,0-0.2l-0.2-0.6c0,0,0,0,0-0.1c0.3,0.2,0.7,0.5,0.7,0.5C6.5,23,6.8,23.4,7,23.6C7.2,23.9,7,24.1,7,24.1z M6.2,34.9
			c-0.2-0.1-0.8-0.3-0.8-0.4v-0.3c0-0.4,0.8-1,1-1.7C6.8,32.4,7,32,7,31.6c0-0.4,0-0.6-0.8-0.7v-0.2c0-0.1,0.2-1.4-0.6-2.2
			C5.2,28,4.8,27.8,4,27.8c-0.8,0-1.3,0.2-1.8,0.7c-0.8,0.8-0.6,2.1-0.6,2.2v0.2C1.6,31,1,31.3,1,31.6c0,0.4,0.3,0.8,0.7,0.9
			c0.2,0.7,0.6,1.3,1.4,1.7v0.3c-0.8,0.2-0.6,0.3-0.8,0.4c-2.1,0.7-2.3,1.9-2.3,2.1v0.5c0,0.2-0.2,0.5,0.1,0.5h7.7
			c0.2,0,0.7-0.3,0.7-0.5V37C8.5,36.9,8.3,35.6,6.2,34.9z M0.8,37.2V37c0,0-0.2-0.2,0-0.5c0.3-0.5,0.8-0.8,1.3-0.9
			c0,0,0.5-0.2,0.8-0.5c0,0,0,0,0.1,0.1l-0.2,0.7c0,0.1,0,0.2,0,0.3l0.3,1.1H0.8z M2.1,30.3c0-0.4,0.2-0.9,0.5-1.3
			c0.3-0.3,0.7-0.5,1.3-0.5c0.5,0,1,0.2,1.3,0.5c0.4,0.4,0.5,0.9,0.5,1.3c-1-0.1-1.7-0.6-1.7-0.6c-0.1,0-0.1-0.1-0.2-0.1
			c-0.1,0-0.1,0-0.2,0c-0.1,0.1-0.2,0.2-0.2,0.3c0,0,0,0-0.1,0.1c-0.1,0.1-0.4,0.1-0.6,0.2C2.5,30.2,2.3,30.3,2.1,30.3z M2.2,32.2
			c0-0.1,0.1-0.2,0.1-0.4V31c0,0,0.3-0.1,0.5-0.1c0.5-0.1,0.7-0.2,0.9-0.4c0.4,0.2,0.9,0.5,1.6,0.6v0.8c0,0.1,0.2,0.2,0.2,0.4
			c-0.1,0.7-0.3,1.2-0.8,1.5c-0.2,0.1-0.5,0.2-0.8,0.2c-0.3,0-0.5-0.1-0.8-0.2C2.6,33.4,2.3,32.8,2.2,32.2z M4,37.2L4,37.2L3.5,36
			l0.2-0.5c0.1,0,0.2,0,0.3,0c0.1,0,0.2,0,0.3,0L4.4,36L4,37.2z M4.3,34.7c-0.1,0.1-0.2,0.1-0.3,0.1c-0.1,0-0.2,0-0.3-0.1
			c-0.1,0-0.2-0.1-0.2-0.1c0.2,0,0.4,0.1,0.6,0.1c0.2,0,0.4,0,0.6-0.1C4.4,34.6,4.4,34.6,4.3,34.7z M7,37v0.2H4.8l0.3-1.1
			c0-0.1,0-0.2,0-0.3l-0.2-0.6c0,0,0,0,0-0.1c0.3,0.2,0.7,0.5,0.7,0.5c0.9,0.3,1.2,0.7,1.4,0.9C7.2,36.8,7,37,7,37z M18.1,19
			l-1.9-0.3L15.4,17c-0.1-0.1-0.2-0.2-0.4-0.2c-0.2,0-0.3,0.1-0.4,0.2l-0.9,1.7L11.9,19c-0.2,0-0.3,0.1-0.3,0.3c0,0.2,0,0.3,0.1,0.4
			l1.3,1.3l-0.3,1.9c0,0.2,0,0.3,0.2,0.4c0.1,0.1,0.2,0.1,0.3,0.1c0.1,0,0.1,0,0.2,0l1.7-0.8l1.7,0.8c0.1,0,0.1,0,0.2,0
			c0.1,0,0.2,0,0.3-0.1c0.1-0.1,0.2-0.3,0.2-0.4L17,21.1l1.3-1.3c0.1-0.1,0.2-0.3,0.1-0.4C18.4,19.1,18.3,19,18.1,19z M16.2,20.6
			c-0.1,0.1-0.1,0.2-0.1,0.4l0.2,1.3l-1.1-0.6c-0.1,0-0.1,0-0.2,0s-0.1,0-0.2,0l-1.1,0.6l0.2-1.3c0-0.1,0-0.3-0.1-0.4l-0.9-0.9
			l1.3-0.2c0.1,0,0.2-0.1,0.3-0.2l0.6-1.1l0.6,1.1c0.1,0.1,0.2,0.2,0.3,0.2l1.3,0.2L16.2,20.6z M28,19l-1.9-0.3L25.3,17
			c-0.1-0.1-0.2-0.2-0.4-0.2c-0.2,0-0.3,0.1-0.4,0.2l-0.9,1.7L21.8,19c-0.2,0-0.3,0.1-0.3,0.3c0,0.2,0,0.3,0.1,0.4l1.3,1.3l-0.3,1.9
			c0,0.2,0,0.3,0.2,0.4c0.1,0.1,0.2,0.1,0.3,0.1c0.1,0,0.1,0,0.2,0l1.7-0.8l1.7,0.8c0.1,0,0.1,0,0.2,0c0.1,0,0.2,0,0.3-0.1
			c0.1-0.1,0.2-0.3,0.2-0.4l-0.3-1.9l1.3-1.3c0.1-0.1,0.2-0.3,0.1-0.4C28.3,19.1,28.1,19,28,19z M26.1,20.6C26,20.7,26,20.8,26,21
			l0.2,1.3l-1.1-0.6c-0.1,0-0.1,0-0.2,0s-0.1,0-0.2,0l-1.1,0.6l0.2-1.3c0-0.1,0-0.3-0.1-0.4l-0.9-0.9l1.3-0.2c0.1,0,0.2-0.1,0.3-0.2
			l0.6-1.1l0.6,1.1c0.1,0.1,0.2,0.2,0.3,0.2l1.3,0.2L26.1,20.6z M37.9,19L36,18.7L35.1,17c-0.1-0.1-0.2-0.2-0.4-0.2
			c-0.2,0-0.3,0.1-0.4,0.2l-0.9,1.7L31.6,19c-0.2,0-0.3,0.1-0.3,0.3c0,0.2,0,0.3,0.1,0.4l1.3,1.3l-0.3,1.9c0,0.2,0,0.3,0.2,0.4
			c0.1,0.1,0.2,0.1,0.3,0.1c0.1,0,0.1,0,0.2,0l1.7-0.8l1.7,0.8c0.1,0,0.1,0,0.2,0c0.1,0,0.2,0,0.3-0.1c0.1-0.1,0.2-0.3,0.2-0.4
			l-0.3-1.9l1.3-1.3c0.1-0.1,0.2-0.3,0.1-0.4C38.2,19.1,38,19,37.9,19z M36,20.6c-0.1,0.1-0.1,0.2-0.1,0.4l0.2,1.3L35,21.7
			c-0.1,0-0.1,0-0.2,0c-0.1,0-0.1,0-0.2,0l-1.1,0.6l0.2-1.3c0-0.1,0-0.3-0.1-0.4l-0.9-0.9l1.3-0.2c0.1,0,0.2-0.1,0.3-0.2l0.6-1.1
			l0.6,1.1c0.1,0.1,0.2,0.2,0.3,0.2l1.3,0.2L36,20.6z M18.3,32.8c0-0.2-0.1-0.4-0.2-0.6c0-0.1,0-0.1,0-0.2c0-0.3-0.1-0.5-0.2-0.7v0
			c0-0.4-0.1-0.7-0.3-0.9c-0.2-0.2-0.5-0.3-0.9-0.3h-0.5c-0.3,0-0.6,0-0.8,0.1c-0.3,0.1-0.6,0.1-0.9,0.3c-0.3,0.1-0.5,0.2-0.6,0.2
			h-1.2c-0.1,0-0.3,0.1-0.4,0.2c-0.1,0.1-0.2,0.2-0.2,0.4v2.6c0,0.1,0.1,0.3,0.2,0.4c0.1,0.1,0.2,0.2,0.4,0.2h1.1
			c0.1,0.1,0.3,0.3,0.6,0.6c0.2,0.2,0.3,0.4,0.4,0.5c0.1,0.1,0.1,0.1,0.1,0.3c0,0.1,0.1,0.2,0.1,0.3c0,0.1,0,0.2,0.1,0.4
			c0.1,0.1,0.1,0.2,0.2,0.3c0.1,0.1,0.2,0.1,0.4,0.1c0.2,0,0.4,0,0.6-0.1c0.2-0.1,0.3-0.2,0.4-0.4c0.1-0.2,0.1-0.4,0.1-0.8
			c0-0.3-0.1-0.5-0.2-0.8h0.7c0.3,0,0.5-0.1,0.7-0.3c0.2-0.2,0.3-0.4,0.3-0.7c0-0.2-0.1-0.5-0.2-0.7C18.3,33,18.3,32.9,18.3,32.8z
			 M13.2,31.6c-0.1,0.1-0.1,0.1-0.2,0.1c-0.1,0-0.1,0-0.2-0.1c-0.1-0.1-0.1-0.1-0.1-0.2c0-0.1,0-0.1,0.1-0.2
			c0.1-0.1,0.1-0.1,0.2-0.1c0.1,0,0.1,0,0.2,0.1c0.1,0.1,0.1,0.1,0.1,0.2C13.3,31.5,13.2,31.5,13.2,31.6z M17.6,34
			c-0.1,0.1-0.2,0.1-0.3,0.1H16c0,0.1,0.1,0.3,0.2,0.6c0.1,0.2,0.2,0.4,0.2,0.6c0,0.2,0,0.4-0.1,0.5C16.1,36,16,36,15.7,36
			c-0.1-0.1-0.1-0.2-0.1-0.3c0-0.1-0.1-0.3-0.1-0.5c0-0.2-0.1-0.3-0.2-0.4c-0.1-0.1-0.1-0.2-0.3-0.3c0,0,0,0-0.1-0.1
			c0-0.1-0.1-0.1-0.1-0.1c0,0-0.1-0.1-0.1-0.2c-0.1-0.1-0.1-0.1-0.1-0.2c0,0-0.1-0.1-0.1-0.1c0,0-0.1-0.1-0.1-0.1c0,0-0.1,0-0.1,0
			H14v-2.3h0.1c0,0,0.1,0,0.1,0c0,0,0.1,0,0.1,0c0,0,0.1,0,0.1,0c0.1,0,0.1,0,0.1,0c0,0,0.1,0,0.1,0c0.1,0,0.1,0,0.1,0
			c0.5-0.2,0.9-0.3,1.2-0.3h0.5c0.2,0,0.4,0,0.5,0.1c0.1,0.1,0.2,0.3,0.2,0.5c0,0.1,0,0.1,0,0.2c0.1,0,0.1,0.1,0.2,0.2
			c0,0.1,0.1,0.2,0.1,0.3c0,0.1,0,0.2-0.1,0.3c0.1,0.1,0.2,0.3,0.2,0.4c0,0.1,0,0.1,0,0.2c0,0.1-0.1,0.1-0.1,0.2
			c0.1,0,0.1,0.1,0.2,0.2c0.1,0.1,0.1,0.2,0.1,0.3C17.7,33.8,17.7,33.9,17.6,34z M27.7,32.8c0-0.2-0.1-0.4-0.2-0.6
			c0-0.1,0-0.1,0-0.2c0-0.3-0.1-0.5-0.2-0.7v0c0-0.4-0.1-0.7-0.3-0.9c-0.2-0.2-0.5-0.3-0.9-0.3h-0.5c-0.3,0-0.6,0-0.8,0.1
			c-0.3,0.1-0.6,0.1-0.9,0.3c-0.3,0.1-0.5,0.2-0.6,0.2h-1.2c-0.1,0-0.3,0.1-0.4,0.2c-0.1,0.1-0.2,0.2-0.2,0.4v2.6
			c0,0.1,0.1,0.3,0.2,0.4c0.1,0.1,0.2,0.2,0.4,0.2h1.1c0.1,0.1,0.3,0.3,0.6,0.6c0.2,0.2,0.3,0.4,0.4,0.5c0.1,0.1,0.1,0.1,0.1,0.3
			c0,0.1,0.1,0.2,0.1,0.3c0,0.1,0,0.2,0.1,0.4c0.1,0.1,0.1,0.2,0.2,0.3c0.1,0.1,0.2,0.1,0.4,0.1c0.2,0,0.4,0,0.6-0.1
			c0.2-0.1,0.3-0.2,0.4-0.4c0.1-0.2,0.1-0.4,0.1-0.8c0-0.3-0.1-0.5-0.2-0.8h0.7c0.3,0,0.5-0.1,0.7-0.3c0.2-0.2,0.3-0.4,0.3-0.7
			c0-0.2-0.1-0.5-0.2-0.7C27.7,33,27.7,32.9,27.7,32.8z M22.6,31.6c-0.1,0.1-0.1,0.1-0.2,0.1s-0.1,0-0.2-0.1
			c-0.1-0.1-0.1-0.1-0.1-0.2c0-0.1,0-0.1,0.1-0.2c0.1-0.1,0.1-0.1,0.2-0.1s0.1,0,0.2,0.1c0.1,0.1,0.1,0.1,0.1,0.2
			C22.7,31.5,22.7,31.5,22.6,31.6z M27,34c-0.1,0.1-0.2,0.1-0.3,0.1h-1.3c0,0.1,0.1,0.3,0.2,0.6c0.1,0.2,0.2,0.4,0.2,0.6
			c0,0.2,0,0.4-0.1,0.5C25.6,36,25.4,36,25.2,36c-0.1-0.1-0.1-0.2-0.1-0.3c0-0.1-0.1-0.3-0.1-0.5c0-0.2-0.1-0.3-0.2-0.4
			c-0.1-0.1-0.1-0.2-0.3-0.3c0,0,0,0-0.1-0.1c0-0.1-0.1-0.1-0.1-0.1c0,0-0.1-0.1-0.1-0.2C24,34,24,34,24,33.9c0,0-0.1-0.1-0.1-0.1
			c0,0-0.1-0.1-0.1-0.1c0,0-0.1,0-0.1,0h-0.1v-2.3h0.1c0,0,0.1,0,0.1,0c0,0,0.1,0,0.1,0c0,0,0.1,0,0.1,0c0.1,0,0.1,0,0.1,0
			c0,0,0.1,0,0.1,0c0.1,0,0.1,0,0.1,0c0.5-0.2,0.9-0.3,1.2-0.3H26c0.2,0,0.4,0,0.5,0.1c0.1,0.1,0.2,0.3,0.2,0.5c0,0.1,0,0.1,0,0.2
			c0.1,0,0.1,0.1,0.2,0.2c0,0.1,0.1,0.2,0.1,0.3c0,0.1,0,0.2-0.1,0.3c0.1,0.1,0.2,0.3,0.2,0.4c0,0.1,0,0.1,0,0.2
			c0,0.1-0.1,0.1-0.1,0.2c0.1,0,0.1,0.1,0.2,0.2s0.1,0.2,0.1,0.3C27.2,33.8,27.1,33.9,27,34z M37.1,32.8c0-0.2-0.1-0.4-0.2-0.6
			c0-0.1,0-0.1,0-0.2c0-0.3-0.1-0.5-0.2-0.7v0c0-0.4-0.1-0.7-0.3-0.9c-0.2-0.2-0.5-0.3-0.9-0.3h-0.5c-0.3,0-0.6,0-0.8,0.1
			c-0.3,0.1-0.6,0.1-0.9,0.3c-0.3,0.1-0.5,0.2-0.6,0.2h-1.2c-0.1,0-0.3,0.1-0.4,0.2c-0.1,0.1-0.2,0.2-0.2,0.4v2.6
			c0,0.1,0.1,0.3,0.2,0.4c0.1,0.1,0.2,0.2,0.4,0.2h1.1c0.1,0.1,0.3,0.3,0.6,0.6c0.2,0.2,0.3,0.4,0.4,0.5c0.1,0.1,0.1,0.1,0.1,0.3
			c0,0.1,0.1,0.2,0.1,0.3c0,0.1,0,0.2,0.1,0.4c0.1,0.1,0.1,0.2,0.2,0.3c0.1,0.1,0.2,0.1,0.4,0.1c0.2,0,0.4,0,0.6-0.1
			c0.2-0.1,0.3-0.2,0.4-0.4c0.1-0.2,0.1-0.4,0.1-0.8c0-0.3-0.1-0.5-0.2-0.8h0.7c0.3,0,0.5-0.1,0.7-0.3c0.2-0.2,0.3-0.4,0.3-0.7
			c0-0.2-0.1-0.5-0.2-0.7C37.1,33,37.1,32.9,37.1,32.8z M32.1,31.6c-0.1,0.1-0.1,0.1-0.2,0.1c-0.1,0-0.1,0-0.2-0.1
			c-0.1-0.1-0.1-0.1-0.1-0.2c0-0.1,0-0.1,0.1-0.2c0.1-0.1,0.1-0.1,0.2-0.1c0.1,0,0.1,0,0.2,0.1c0.1,0.1,0.1,0.1,0.1,0.2
			C32.1,31.5,32.1,31.5,32.1,31.6z M36.4,34c-0.1,0.1-0.2,0.1-0.3,0.1h-1.3c0,0.1,0.1,0.3,0.2,0.6c0.1,0.2,0.2,0.4,0.2,0.6
			c0,0.2,0,0.4-0.1,0.5C35,36,34.8,36,34.6,36c-0.1-0.1-0.1-0.2-0.1-0.3c0-0.1-0.1-0.3-0.1-0.5c0-0.2-0.1-0.3-0.2-0.4
			c-0.1-0.1-0.1-0.2-0.3-0.3c0,0,0,0-0.1-0.1c0-0.1-0.1-0.1-0.1-0.1c0,0-0.1-0.1-0.1-0.2c-0.1-0.1-0.1-0.1-0.1-0.2
			c0,0-0.1-0.1-0.1-0.1c0,0-0.1-0.1-0.1-0.1c0,0-0.1,0-0.1,0h-0.1v-2.3H33c0,0,0.1,0,0.1,0c0,0,0.1,0,0.1,0c0,0,0.1,0,0.1,0
			c0.1,0,0.1,0,0.1,0c0,0,0.1,0,0.1,0c0.1,0,0.1,0,0.1,0c0.5-0.2,0.9-0.3,1.2-0.3h0.5c0.2,0,0.4,0,0.5,0.1c0.1,0.1,0.2,0.3,0.2,0.5
			c0,0.1,0,0.1,0,0.2c0.1,0,0.1,0.1,0.2,0.2c0,0.1,0.1,0.2,0.1,0.3c0,0.1,0,0.2-0.1,0.3c0.1,0.1,0.2,0.3,0.2,0.4c0,0.1,0,0.1,0,0.2
			c0,0.1-0.1,0.1-0.1,0.2c0.1,0,0.1,0.1,0.2,0.2c0.1,0.1,0.1,0.2,0.1,0.3C36.6,33.8,36.5,33.9,36.4,34z"/>
	</g>
</g>
</svg>
