<?xml version="1.0" encoding="utf-8"?>
<!-- Generator: Adobe Illustrator 19.2.0, SVG Export Plug-In . SVG Version: 6.00 Build 0)  -->
<svg version="1.1" id="Layer_1" xmlns="http://www.w3.org/2000/svg" xmlns:xlink="http://www.w3.org/1999/xlink" x="0px" y="0px"
	 viewBox="0 0 40 40" style="enable-background:new 0 0 40 40;" xml:space="preserve">
<style type="text/css">
	.st0{fill:#35c4ff;}
</style>
<g>
	<path class="st0" d="M24.2,19.5h-4.3c-5.5,0-6,8-5.5,8.6c1.4,1.3,4.3,2.2,7.7,2.2s6.2-0.9,7.5-2C30.1,27.8,29.7,19.5,24.2,19.5
		L24.2,19.5z M28.4,27c-1,0.9-3.5,1.5-6.3,1.5c-2.8,0-5.3-0.6-6.3-1.5c-0.1-0.3,0.4-5.9,4.2-5.9h4.3C28,21.1,28.5,26.7,28.4,27
		L28.4,27z M28.4,27"/>
	<g>
		<path class="st0" d="M22,19c2.6,0,4.7-2,4.6-4.6c0-2.6-2-4.6-4.6-4.6c-2.6,0-4.6,2-4.6,4.6C17.4,16.9,19.4,19,22,19L22,19z
			 M22,11.5c1.7,0,3,1.3,3,2.9c0,1.6-1.4,2.9-3,2.9c-1.6,0-3-1.3-3-2.9C19,12.8,20.4,11.5,22,11.5L22,11.5z M22,11.5"/>
		<path class="st0" d="M35.2,0h-27c-2,0-3.7,1.6-3.7,3.7v7.5H1.1v1.7h3.4v6.3H1.1v1.7h3.4v6.3H1.1v1.7h3.4v7.5c0,2,1.6,3.7,3.7,3.7
			h26.9c2,0,3.7-1.6,3.7-3.7V3.7C38.9,1.6,37.2,0,35.2,0L35.2,0z M37.2,36.4c0,1-0.9,2-2,2h-27c-1,0-2-0.9-2-2v-7.5h3.2v-1.7H6.3
			v-6.3h3.2v-1.7H6.3v-6.3h3.2v-1.7H6.3V3.7c0-1,0.9-2,2-2h27c1,0,2,0.9,2,2L37.2,36.4L37.2,36.4z M37.2,36.4"/>
	</g>
</g>
</svg>
