<?xml version="1.0" encoding="utf-8"?>
<!-- Generator: Adobe Illustrator 19.2.0, SVG Export Plug-In . SVG Version: 6.00 Build 0)  -->
<svg version="1.1" id="Layer_1" xmlns="http://www.w3.org/2000/svg" xmlns:xlink="http://www.w3.org/1999/xlink" x="0px" y="0px"
	 viewBox="0 0 40 40" style="enable-background:new 0 0 40 40;" xml:space="preserve">
<style type="text/css">
	.st0{fill:#626975;}
</style>
<g>
	<g>
		<path class="st0" d="M14.9,25.6c-0.5,0-1,0.4-1,1v3.3c0,0.4-0.1,0.9-0.4,1.2c-0.2,0.2-0.3,0.3-0.5,0.4c-0.2,0.1-0.3,0.1-0.5,0.1
			H9.9c-0.2-0.5-0.4-0.9-0.8-1.3c-0.4-0.4-0.9-0.7-1.4-0.9c-0.3-0.1-0.6-0.1-0.8-0.1c-1.8,0-3.2,1.4-3.2,3.1c0,1.8,1.4,3.2,3.2,3.2
			c1.4,0,2.6-0.9,3.1-2.1h2.7c1.4,0,2.6-1,3-2.3c0.2-0.4,0.3-0.9,0.3-1.4v-3.3c0-0.3-0.1-0.5-0.3-0.6C15.4,25.7,15.1,25.6,14.9,25.6
			z M6.8,33.7c-0.7,0-1.3-0.6-1.3-1.3c0-0.7,0.6-1.3,1.3-1.3c0.7,0,1.3,0.6,1.3,1.3C8.1,33.1,7.5,33.7,6.8,33.7z M33.2,29.3
			c-1.4,0-2.6,1-3,2.3h-2.7c-0.2,0-0.4,0-0.6-0.1c-0.5-0.3-0.8-0.9-0.8-1.6v-3.3c0-0.5-0.4-1-1-1c-0.3,0-0.5,0.1-0.7,0.3
			c-0.2,0.2-0.3,0.4-0.3,0.6v3.3c0,0.5,0.1,1,0.3,1.4c0.5,1.3,1.6,2.3,3,2.3h2.7c0.4,1.3,1.7,2.1,3.1,2.1c1.8,0,3.2-1.4,3.2-3.2
			C36.4,30.8,34.9,29.3,33.2,29.3z M33.2,33.7c-0.7,0-1.3-0.6-1.3-1.3c0-0.7,0.6-1.3,1.3-1.3c0.7,0,1.3,0.6,1.3,1.3
			C34.4,33.1,33.9,33.7,33.2,33.7z M10.4,24.6h18.4c4.3-0.6,7.7-4,7.7-8.4c0-3.8-2.6-7.2-6.1-8.2C29.6,3.3,25.6,0,20.9,0
			c-3.4,0-6.6,1.8-8.3,4.8c-0.3-0.1-0.6-0.1-1-0.1C8.8,4.7,6.4,7,6.4,9.9c0,0.4,0,0.7,0.1,1.1c-1.9,1.3-3,3.6-3,5.9
			C3.6,20.8,6.7,23.9,10.4,24.6z M8.1,12.2c0.4-0.2,0.6-0.7,0.4-1.2c-0.1-0.3-0.2-0.7-0.2-1.1c0-1.8,1.5-3.3,3.3-3.3
			c0.4,0,0.8,0.1,1.1,0.2c0.1,0,0.2,0.1,0.3,0.1c0.4,0,0.7-0.2,0.9-0.5c1.3-2.7,4-4.4,6.9-4.4c4,0,7.2,3,7.6,6.9
			c0,0.4,0.4,0.8,0.8,0.9c3,0.5,5.2,3.3,5.2,6.4c0,3.3-2.6,5.9-5.8,6.5H10.5c-0.1,0-0.1,0-0.2,0c-1-0.1-2-0.5-2.8-1.2
			c-1.3-1.1-2.1-2.8-2.1-4.6C5.5,15,6.5,13.2,8.1,12.2z M21,33.6v-7c0-0.3-0.1-0.5-0.3-0.7c-0.2-0.2-0.4-0.3-0.7-0.3
			c-0.5,0-1,0.4-1,1v7.1c-1.3,0.4-2.2,1.6-2.2,3c0,0.9,0.3,1.7,0.9,2.3c0.6,0.6,1.4,1,2.2,1H20c1.7,0,3.2-1.5,3.2-3.2
			c0-0.9-0.3-1.7-0.9-2.3C21.9,34.1,21.6,33.8,21,33.6z M20,38c-0.3,0-0.6-0.1-0.8-0.4c-0.2-0.2-0.3-0.6-0.3-0.9
			c0-0.7,0.1-1.2,1.3-1.2c0.3,0,0.5,0.2,0.7,0.4c0.2,0.2,0.4,0.6,0.4,0.9C21.3,37.4,20.7,38,20,38z"/>
	</g>
</g>
</svg>
