<?xml version="1.0" encoding="utf-8"?>
<!-- Generator: Adobe Illustrator 19.2.0, SVG Export Plug-In . SVG Version: 6.00 Build 0)  -->
<svg version="1.1" id="Layer_1" xmlns="http://www.w3.org/2000/svg" xmlns:xlink="http://www.w3.org/1999/xlink" x="0px" y="0px"
	 viewBox="0 0 40 40" style="enable-background:new 0 0 40 40;" xml:space="preserve">
<style type="text/css">
	.st0{fill:#FFFFFF;}
</style>
<g>
	<path class="st0" d="M36.1,28.4c-0.4-3.4-3.2-6-6.5-6c-2.1,0-4.1,1.1-5.3,2.8c-0.2,0-0.5-0.1-0.7-0.1c-1.9,0-3.6,1.3-4.1,3.1
		c-1.6,0.9-2.6,2.7-2.6,4.5c0,2.9,2.3,5.2,5.1,5.2h8.8c0.1,0,0.1,0,0.1,0s0.1,0,0.2,0h3.5c2.6,0,4.8-2.2,4.8-4.9
		C39.3,31,38,29.1,36.1,28.4L36.1,28.4z M34.5,36.4h-3.6h-0.2h-8.9c-1.9,0-3.4-1.6-3.4-3.6c0-1.4,0.8-2.6,2-3.2l0.4-0.2l0.1-0.4
		c0.3-1.3,1.4-2.2,2.6-2.2c0.3,0,0.6,0,0.8,0.1l0.6,0.2l0.3-0.6c0.9-1.6,2.5-2.5,4.2-2.5c2.7,0,4.9,2.3,4.9,5v0.7l0.7,0.1
		c1.5,0.3,2.6,1.6,2.6,3.2C37.7,34.9,36.3,36.4,34.5,36.4L34.5,36.4z"/>
	<path class="st0" d="M7.3,1.3H30v16.5h1.3V0H0.7v40H15v-1.3H7.3V1.3z M2,38.7V1.3h4v37.3H2V38.7z"/>
	<path class="st0" d="M26.7,16V6.7h-16V16H26.7z M12,8h13.3v6.7H12V8z"/>
	<rect x="14" y="9.3" class="st0" width="9.3" height="1.3"/>
	<rect x="14" y="12" class="st0" width="9.3" height="1.3"/>
</g>
</svg>
