<?xml version="1.0" encoding="utf-8"?>
<!-- Generator: Adobe Illustrator 19.2.0, SVG Export Plug-In . SVG Version: 6.00 Build 0)  -->
<svg version="1.1" id="Layer_1" xmlns="http://www.w3.org/2000/svg" xmlns:xlink="http://www.w3.org/1999/xlink" x="0px" y="0px"
	 viewBox="0 0 40 40" style="enable-background:new 0 0 40 40;" xml:space="preserve">
<style type="text/css">
	.st0{fill:#686868;}
</style>
<g>
	<path class="st0" d="M36.2,26.1c-0.4-3.9-3.6-6.9-7.5-6.9c-2.4,0-4.7,1.2-6.1,3.2c-0.3,0-0.6-0.1-0.8-0.1c-2.2,0-4.1,1.5-4.8,3.6
		c-1.8,1.1-2.9,3-2.9,5.2c0,3.3,2.6,6,5.8,6h10.1c0.1,0,0.1,0,0.2,0c0.1,0,0.1,0,0.2,0h4.1c3,0,5.5-2.5,5.5-5.6
		C40,29,38.5,26.8,36.2,26.1L36.2,26.1z M34.9,35.5l-4.3,0l-0.2,0l-10.7,0c-2.3,0-4.1-1.9-4.1-4.3c0-1.6,0.9-3.2,2.4-3.9l0.4-0.2
		l0.1-0.5c0.3-1.5,1.7-2.7,3.2-2.7c0.3,0,0.7,0.1,1,0.2l0.8,0.3l0.4-0.7c1.1-1.9,3-3,5.1-3c3.2,0,5.9,2.7,5.9,6l0,0.8l0.8,0.2
		c1.8,0.4,3.1,2,3.1,3.9C38.7,33.7,37,35.5,34.9,35.5L34.9,35.5z M34.5,35.2"/>
	<path class="st0" d="M8.5,1.7h18.3c1.1,0,2,0.9,2,2v13.4h1.3V2.4c0-1.1-0.9-2-2-2H2c-1.1,0-2,0.9-2,2v35.3c0,1.1,0.9,2,2,2h17v-1.3
		H8.5c-1.1,0-2-0.9-2-2V3.7C6.5,2.6,7.4,1.7,8.5,1.7z M1.3,36.3V3.7c0-1.1,0.9-2,2-2h0c1.1,0,2,0.9,2,2v32.7c0,1.1-0.9,2-2,2h0
		C2.2,38.3,1.3,37.4,1.3,36.3z M1.3,38.3"/>
	<path class="st0" d="M25.5,13.8V9.2c0-1.3-1-2.3-2.3-2.3H12.1c-1.3,0-2.3,1-2.3,2.3v4.6c0,1.3,1,2.3,2.3,2.3h11.1
		C24.5,16.1,25.5,15.1,25.5,13.8z M13.4,8.2h8.5c1.3,0,2.3,1,2.3,2.3v2c0,1.3-1,2.3-2.3,2.3h-8.5c-1.3,0-2.3-1-2.3-2.3v-2
		C11.1,9.3,12.1,8.2,13.4,8.2z M11.1,8.2"/>
	<rect x="13.1" y="9.5" class="st0" width="9.1" height="1.3"/>
	<rect x="13.1" y="12.2" class="st0" width="9.1" height="1.3"/>
</g>
</svg>
