<?xml version="1.0" encoding="utf-8"?>
<!-- Generator: Adobe Illustrator 19.2.0, SVG Export Plug-In . SVG Version: 6.00 Build 0)  -->
<svg version="1.1" id="Layer_1" xmlns="http://www.w3.org/2000/svg" xmlns:xlink="http://www.w3.org/1999/xlink" x="0px" y="0px"
	 viewBox="0 0 40 40" style="enable-background:new 0 0 40 40;" xml:space="preserve">
<style type="text/css">
	.st0{fill:#686868;}
</style>
<g>
	<path class="st0" d="M3.5,40c-0.2,0-0.3,0-0.4-0.1c-0.2-0.2-0.3-0.4-0.3-0.7L3.3,36L1,33.7c-0.2-0.2-0.3-0.5-0.2-0.7
		c0.1-0.3,0.3-0.5,0.6-0.5l3.2-0.5L6.1,29c0.1-0.2,0.4-0.4,0.7-0.4c0.3,0,0.5,0.2,0.7,0.4l1.5,2.9l3.2,0.5c0.3,0,0.5,0.2,0.6,0.5
		c0.1,0.3,0,0.5-0.2,0.7L10.2,36l0.5,3.2c0,0.3-0.1,0.5-0.3,0.7C10.2,40,10.1,40,9.9,40c-0.1,0-0.2,0-0.3-0.1l-2.9-1.4l-2.9,1.4
		C3.7,40,3.6,40,3.5,40z M6.7,36.9c0.1,0,0.2,0,0.3,0.1l2,1l-0.3-2.2c0-0.2,0-0.5,0.2-0.6l1.5-1.6l-2.2-0.4c-0.2,0-0.4-0.2-0.5-0.4
		l-1-1.9l-1,1.9c-0.1,0.2-0.3,0.3-0.5,0.4L3,33.6l1.5,1.6c0.2,0.2,0.2,0.4,0.2,0.6L4.5,38l2-1C6.5,37,6.6,36.9,6.7,36.9z"/>
	<path class="st0" d="M16.3,40c-0.2,0-0.3,0-0.4-0.1c-0.2-0.2-0.3-0.4-0.3-0.7L16,36l-2.3-2.3c-0.2-0.2-0.3-0.5-0.2-0.7
		c0.1-0.3,0.3-0.5,0.6-0.5l3.2-0.5l1.5-2.9c0.1-0.2,0.4-0.4,0.7-0.4c0.3,0,0.5,0.2,0.7,0.4l1.5,2.9l3.2,0.5c0.3,0,0.5,0.2,0.6,0.5
		c0.1,0.3,0,0.5-0.2,0.7L23,36l0.5,3.2c0,0.3-0.1,0.5-0.3,0.7C23,40,22.9,40,22.7,40c-0.1,0-0.2,0-0.3-0.1l-2.9-1.4l-2.9,1.4
		C16.5,40,16.4,40,16.3,40z M17.3,35.2c0.2,0.2,0.2,0.4,0.2,0.6L17.2,38l2-1c0.1-0.1,0.2-0.1,0.3-0.1c0.1,0,0.2,0,0.3,0.1l2,1
		l-0.3-2.2c0-0.2,0-0.5,0.2-0.6l1.5-1.6L21,33.3c-0.2,0-0.4-0.2-0.5-0.4l-1-1.9l-1,1.9c-0.1,0.2-0.3,0.3-0.5,0.4l-2.2,0.4L17.3,35.2
		z"/>
	<path class="st0" d="M29.1,40c-0.2,0-0.3,0-0.4-0.1c-0.2-0.2-0.3-0.4-0.3-0.7l0.5-3.2l-2.3-2.3c-0.2-0.2-0.3-0.5-0.2-0.7
		c0.1-0.3,0.3-0.5,0.6-0.5l3.2-0.5l1.5-2.9c0.1-0.2,0.4-0.4,0.7-0.4c0.3,0,0.5,0.2,0.7,0.4l1.5,2.9l3.2,0.5c0.3,0,0.5,0.2,0.6,0.5
		c0.1,0.3,0,0.5-0.2,0.7L35.7,36l0.5,3.2c0,0.3-0.1,0.5-0.3,0.7C35.8,40,35.6,40,35.5,40c-0.1,0-0.2,0-0.3-0.1l-2.9-1.4l-2.9,1.4
		C29.3,40,29.2,40,29.1,40z M32.3,36.9c0.1,0,0.2,0,0.3,0.1l2,1l-0.3-2.2c0-0.2,0-0.5,0.2-0.6l1.5-1.6l-2.2-0.4
		c-0.2,0-0.4-0.2-0.5-0.4l-1-1.9l-1,1.9c-0.1,0.2-0.3,0.3-0.5,0.4l-2.2,0.4l1.5,1.6c0.2,0.2,0.2,0.4,0.2,0.6L30,38l2-1
		C32,37,32.2,36.9,32.3,36.9z"/>
	<path class="st0" d="M19.5,13.8c-3.8,0-6.9-3.1-6.9-6.9S15.7,0,19.5,0s6.9,3.1,6.9,6.9S23.3,13.8,19.5,13.8z M19.5,1.7
		c-2.9,0-5.3,2.4-5.3,5.3s2.4,5.3,5.3,5.3s5.3-2.4,5.3-5.3S22.4,1.7,19.5,1.7z"/>
	<path class="st0" d="M14,27c-0.5,0-0.8,0-0.8-0.5S13.5,26,14,26h15.7c-0.4-5-4.9-9.4-10.2-9.4S9.7,21,9.3,26h1.9
		c0.5,0,0.8,0,0.8,0.5S11.7,27,11.2,27H8.5c-0.5,0-0.8-0.1-0.8-0.5c0-6.5,5.3-11.7,11.9-11.7c6.5,0,11.9,5.1,11.9,11.6
		c0,0.5-0.4,0.6-0.8,0.6H14z"/>
	<path class="st0" d="M19.5,10.2c-0.9,0-1.8-0.4-2.5-1.1c-0.1-0.2-0.2-0.4-0.2-0.6c0-0.2,0.1-0.4,0.3-0.6c0.2-0.1,0.3-0.2,0.5-0.2
		c0.2,0,0.5,0.1,0.6,0.3c0.3,0.4,0.7,0.6,1.2,0.6c0.5,0,0.9-0.2,1.2-0.6c0.2-0.2,0.4-0.3,0.6-0.3c0.2,0,0.4,0.1,0.5,0.2
		C22,8,22.1,8.2,22.2,8.5c0,0.2-0.1,0.4-0.2,0.6C21.3,9.8,20.4,10.2,19.5,10.2z"/>
</g>
</svg>
