<?xml version="1.0" encoding="utf-8"?>
<!-- Generator: Adobe Illustrator 19.2.0, SVG Export Plug-In . SVG Version: 6.00 Build 0)  -->
<svg version="1.1" id="Layer_1" xmlns="http://www.w3.org/2000/svg" xmlns:xlink="http://www.w3.org/1999/xlink" x="0px" y="0px"
	 viewBox="0 0 40 40" style="enable-background:new 0 0 40 40;" xml:space="preserve">
<style type="text/css">
	.st0{fill:#636A75;}
</style>
<g>
	<g>
		<path class="st0" d="M7.6,11.5H2c-0.8,0-1.5,0.7-1.5,1.5v5.6c0,0.8,0.7,1.5,1.5,1.5h5.6c0.8,0,1.5-0.7,1.5-1.5V13
			C9.1,12.1,8.4,11.5,7.6,11.5z M8.3,18.4c0,0.5-0.4,0.9-0.9,0.9H2.2c-0.5,0-0.9-0.4-0.9-0.9v-5.2c0-0.5,0.4-0.9,0.9-0.9h5.2
			c0.5,0,0.9,0.4,0.9,0.9V18.4z"/>
		<path class="st0" d="M7.6,20.6H2c-1.1,0-2-0.9-2-2V13c0-1.1,0.9-2,2-2h5.6c1.1,0,2,0.9,2,2v5.6C9.6,19.7,8.7,20.6,7.6,20.6z
			 M2.2,12.7c-0.3,0-0.5,0.2-0.5,0.5v5.2c0,0.3,0.2,0.5,0.5,0.5h5.2c0.3,0,0.5-0.2,0.5-0.5v-5.2c0-0.3-0.2-0.5-0.5-0.5H2.2z"/>
	</g>
	<g>
		<path class="st0" d="M22.9,0.9h-5.6c-0.8,0-1.5,0.7-1.5,1.5V8c0,0.8,0.7,1.5,1.5,1.5h5.6c0.8,0,1.5-0.7,1.5-1.5V2.4
			C24.3,1.6,23.7,0.9,22.9,0.9z M23.6,7.8c0,0.5-0.4,0.9-0.9,0.9h-5.2c-0.5,0-0.9-0.4-0.9-0.9V2.6c0-0.5,0.4-0.9,0.9-0.9h5.2
			c0.5,0,0.9,0.4,0.9,0.9V7.8z"/>
		<path class="st0" d="M22.9,10h-5.6c-1.1,0-2-0.9-2-2V2.4c0-1.1,0.9-2,2-2h5.6c1.1,0,2,0.9,2,2V8C24.8,9.1,23.9,10,22.9,10z
			 M17.4,2.1c-0.3,0-0.5,0.2-0.5,0.5v5.2c0,0.3,0.2,0.5,0.5,0.5h5.2c0.3,0,0.5-0.2,0.5-0.5V2.6c0-0.3-0.2-0.5-0.5-0.5H17.4z"/>
	</g>
	<g>
		<path class="st0" d="M12.7,30.5H7c-0.8,0-1.5,0.7-1.5,1.5v5.6c0,0.8,0.7,1.5,1.5,1.5h5.6c0.8,0,1.5-0.7,1.5-1.5V32
			C14.1,31.2,13.5,30.5,12.7,30.5z M13.4,37.4c0,0.5-0.4,0.9-0.9,0.9H7.3c-0.5,0-0.9-0.4-0.9-0.9v-5.2c0-0.5,0.4-0.9,0.9-0.9h5.2
			c0.5,0,0.9,0.4,0.9,0.9V37.4z"/>
		<path class="st0" d="M12.7,39.6H7c-1.1,0-2-0.9-2-2V32c0-1.1,0.9-2,2-2h5.6c1.1,0,2,0.9,2,2v5.6C14.6,38.7,13.8,39.6,12.7,39.6z
			 M7.3,31.8c-0.3,0-0.5,0.2-0.5,0.5v5.2c0,0.3,0.2,0.5,0.5,0.5h5.2c0.3,0,0.5-0.2,0.5-0.5v-5.2c0-0.3-0.2-0.5-0.5-0.5H7.3z"/>
	</g>
	<g>
		<path class="st0" d="M32.2,30.5h-5.6c-0.8,0-1.5,0.7-1.5,1.5v5.6c0,0.8,0.7,1.5,1.5,1.5h5.6c0.8,0,1.5-0.7,1.5-1.5V32
			C33.7,31.2,33,30.5,32.2,30.5z M33,37.4c0,0.5-0.4,0.9-0.9,0.9h-5.2c-0.5,0-0.9-0.4-0.9-0.9v-5.2c0-0.5,0.4-0.9,0.9-0.9H32
			c0.5,0,0.9,0.4,0.9,0.9V37.4z"/>
		<path class="st0" d="M32.2,39.6h-5.6c-1.1,0-2-0.9-2-2V32c0-1.1,0.9-2,2-2h5.6c1.1,0,2,0.9,2,2v5.6C34.2,38.7,33.3,39.6,32.2,39.6
			z M26.8,31.8c-0.3,0-0.5,0.2-0.5,0.5v5.2c0,0.3,0.2,0.5,0.5,0.5H32c0.3,0,0.5-0.2,0.5-0.5v-5.2c0-0.3-0.2-0.5-0.5-0.5H26.8z"/>
	</g>
	<g>
		<path class="st0" d="M38,11.5h-5.6c-0.8,0-1.5,0.7-1.5,1.5v5.6c0,0.8,0.7,1.5,1.5,1.5H38c0.8,0,1.5-0.7,1.5-1.5V13
			C39.5,12.1,38.8,11.5,38,11.5z M38.8,18.4c0,0.5-0.4,0.9-0.9,0.9h-5.2c-0.5,0-0.9-0.4-0.9-0.9v-5.2c0-0.5,0.4-0.9,0.9-0.9h5.2
			c0.5,0,0.9,0.4,0.9,0.9V18.4z"/>
		<path class="st0" d="M38,20.6h-5.6c-1.1,0-2-0.9-2-2V13c0-1.1,0.9-2,2-2H38c1.1,0,2,0.9,2,2v5.6C40,19.7,39.1,20.6,38,20.6z
			 M32.6,12.7c-0.3,0-0.5,0.2-0.5,0.5v5.2c0,0.3,0.2,0.5,0.5,0.5h5.2c0.3,0,0.5-0.2,0.5-0.5v-5.2c0-0.3-0.2-0.5-0.5-0.5H32.6z"/>
	</g>
	<g>
		<path class="st0" d="M20.3,13.4h-0.5c-0.1,0-0.2-0.1-0.2-0.2V9.5c0-0.1,0.1-0.2,0.2-0.2h0.5c0.1,0,0.2,0.1,0.2,0.2v3.8
			C20.4,13.4,20.4,13.4,20.3,13.4z"/>
	</g>
	<g>
		<path class="st0" d="M18.3,20.7L18,21.1c0,0.1-0.2,0.1-0.2,0.1L8.9,16c-0.1,0-0.1-0.2-0.1-0.2l0.2-0.4c0-0.1,0.2-0.1,0.2-0.1
			l8.9,5.1C18.3,20.5,18.3,20.6,18.3,20.7z"/>
	</g>
	<g>
		<path class="st0" d="M13.8,30.6l-0.4-0.2c-0.1,0-0.1-0.2-0.1-0.2l1.7-2.9c0-0.1,0.2-0.1,0.2-0.1l0.4,0.2c0.1,0,0.1,0.2,0.1,0.2
			l-1.7,2.9C14,30.6,13.9,30.7,13.8,30.6z"/>
	</g>
	<g>
		<path class="st0" d="M21.8,20.6l-0.2-0.4c0-0.1,0-0.2,0.1-0.2l9-3.1c0.1,0,0.2,0,0.2,0.1l0.2,0.4c0,0.1,0,0.2-0.1,0.2l-9,3.1
			C22,20.8,21.9,20.7,21.8,20.6z"/>
	</g>
	<g>
		<path class="st0" d="M23.4,27.2l0.4-0.3c0.1-0.1,0.2,0,0.2,0l2.1,3.1c0.1,0.1,0,0.2,0,0.2l-0.4,0.3c-0.1,0.1-0.2,0-0.2,0l-2.1-3.1
			C23.3,27.4,23.3,27.3,23.4,27.2z"/>
	</g>
	<g>
		<g>
			<path class="st0" d="M19.9,21.1L19.9,21.1c1,0,1.7-0.3,2.2-0.9c1.2-1.3,1-3.5,0.9-3.8c-0.1-1.6-0.8-2.4-1.5-2.7
				c-0.5-0.3-1-0.4-1.6-0.4H20c-0.3,0-1,0.1-1.6,0.4c-0.6,0.4-1.4,1.1-1.5,2.7c0,0.2-0.2,2.5,0.9,3.8C18.4,20.8,19.1,21.1,19.9,21.1
				L19.9,21.1z M17.7,16.5C17.7,16.5,17.7,16.5,17.7,16.5c0.1-2.2,1.6-2.4,2.3-2.4h0c0.8,0,2.2,0.3,2.3,2.4c0,0,0,0,0,0
				c0,0,0.2,2.1-0.7,3.1c-0.4,0.4-0.9,0.6-1.5,0.6h0c-0.7,0-1.2-0.2-1.5-0.6C17.5,18.6,17.7,16.5,17.7,16.5L17.7,16.5z M17.7,16.5"
				/>
			<path class="st0" d="M20,21.5h-0.1c-1,0-1.8-0.4-2.4-1c-1.2-1.4-1.1-3.6-1-4c0.1-1.8,1-2.6,1.7-3c0.7-0.4,1.4-0.5,1.8-0.5
				c0.7,0,1.3,0.2,1.9,0.5c0.7,0.4,1.6,1.3,1.6,3c0,0.2,0.2,2.6-1,4C21.8,21.1,21,21.5,20,21.5L20,21.5z M20,20.7L20,20.7
				c0.9,0,1.5-0.3,1.9-0.8c1.1-1.2,0.9-3.4,0.8-3.5C22.7,15,22,14.4,21.5,14c-0.4-0.2-0.9-0.4-1.4-0.4c-0.3,0-0.9,0-1.5,0.4
				c-0.5,0.3-1.2,1-1.3,2.4c0,0.3-0.2,2.3,0.9,3.5C18.6,20.5,19.2,20.7,20,20.7z M20,20.7c-0.8,0-1.4-0.3-1.9-0.8
				c-1-1.1-0.9-2.9-0.8-3.4l0,0l0,0c0.1-2.5,2.1-2.7,2.7-2.7c0.8,0,2.6,0.3,2.7,2.7l0,0c0,0.1,0.2,2.2-0.8,3.4
				C21.4,20.4,20.8,20.7,20,20.7z M18.1,16.6c0,0.1-0.2,1.9,0.7,2.8c0.3,0.3,0.7,0.5,1.3,0.5c0.6,0,1-0.2,1.3-0.5
				c0.7-0.8,0.7-2.3,0.7-2.7l0,0l0-0.2c-0.1-1.3-0.7-2-1.9-2C19.2,14.5,18.1,14.8,18.1,16.6L18.1,16.6z"/>
		</g>
		<g>
			<path class="st0" d="M26.2,24.8L26.2,24.8C26.2,24.8,26.2,24.8,26.2,24.8c0-0.7-0.1-2.1-1.4-2.5c0,0,0,0,0,0
				c-1.4-0.3-2.5-1.1-2.5-1.1c-0.2-0.1-0.4-0.1-0.6,0.1c-0.1,0.2-0.1,0.4,0.1,0.6c0.1,0,1.2,0.9,2.7,1.3c0.7,0.2,0.8,1,0.8,1.7
				c0,0,0,0.1,0,0.1c0,0.3,0,0.7-0.1,0.9C24.8,26.1,22.9,27,20,27c-2.9,0-4.8-1-5.3-1.2c0-0.2-0.1-0.7-0.1-0.9c0,0,0,0,0-0.1
				c0-0.7,0.1-1.4,0.8-1.7c1.5-0.4,2.7-1.2,2.7-1.3c0.2-0.1,0.2-0.4,0.1-0.6c-0.1-0.2-0.4-0.2-0.6-0.1c0,0-1.1,0.8-2.5,1.1
				c0,0,0,0,0,0c-1.3,0.4-1.3,1.8-1.4,2.4c0,0,0,0.1,0,0.1v0c0,0.2,0,1,0.2,1.4c0,0.1,0.1,0.1,0.2,0.2c0.1,0.1,2.3,1.4,5.9,1.4
				s5.8-1.4,5.9-1.4c0.1,0,0.1-0.1,0.2-0.2C26.2,25.8,26.2,25,26.2,24.8L26.2,24.8z M26.2,24.8"/>
			<path class="st0" d="M20,28.2c-3.8,0-6.1-1.5-6.1-1.5c-0.1-0.1-0.2-0.2-0.3-0.4c-0.2-0.5-0.2-1.3-0.2-1.5l0-0.1
				c0-0.6,0.1-2.2,1.6-2.8c1.4-0.3,2.4-1.1,2.4-1.1c0.2-0.1,0.4-0.2,0.6-0.1c0.2,0,0.4,0.2,0.5,0.3c0.2,0.4,0.2,0.8-0.2,1.1
				c-0.1,0-1.3,0.9-2.9,1.3C15.1,23.6,15,24,15,24.8c0,0.3,0,0.5,0,0.7c0.6,0.3,2.4,1.1,5,1.1c2.6,0,4.4-0.8,5-1.1
				c0-0.2,0-0.5,0-0.7c0-0.8-0.1-1.3-0.5-1.4c-1.6-0.4-2.8-1.3-2.8-1.3c-0.2-0.1-0.3-0.3-0.3-0.5c0-0.2,0-0.4,0.1-0.6
				c0.1-0.2,0.3-0.3,0.5-0.3c0.2,0,0.4,0,0.6,0.1c0.2,0.1,1.2,0.8,2.4,1.1c1.6,0.5,1.7,2.2,1.7,2.8l0,0.1c0,0.2,0,1-0.2,1.5
				c-0.1,0.2-0.2,0.3-0.3,0.4C25.8,26.9,23.6,28.2,20,28.2z M18,21.5c-0.1,0-1.2,0.8-2.6,1.2c-1.1,0.4-1.1,1.5-1.1,2.1l0,0.1
				c0,0.4,0,0.9,0.1,1.2c0,0,2.1,1.4,5.7,1.4c3.5,0,5.6-1.3,5.7-1.4c0.1-0.3,0.1-0.8,0.1-1.2v0c0-0.6-0.1-1.8-1.1-2.2
				c-1.3-0.3-2.4-1-2.6-1.2c0,0,1.1,0.9,2.6,1.2c1,0.4,1.1,1.5,1.1,2c0,0.4,0,0.8-0.1,1.1l0,0.2l-0.2,0.1C25,26.4,23,27.4,20,27.4
				c-3,0-5-1-5.5-1.3L14.4,26l0-0.2c-0.1-0.3-0.1-0.7-0.1-1c0-0.7,0.1-1.8,1.1-2.1C16.8,22.3,17.9,21.5,18,21.5
				C18,21.5,18,21.5,18,21.5z"/>
		</g>
	</g>
</g>
</svg>
