<?xml version="1.0" encoding="utf-8"?>
<!-- Generator: Adobe Illustrator 18.0.0, SVG Export Plug-In . SVG Version: 6.00 Build 0)  -->
<!DOCTYPE svg PUBLIC "-//W3C//DTD SVG 1.1//EN" "http://www.w3.org/Graphics/SVG/1.1/DTD/svg11.dtd">
<svg version="1.1" id="Capa_1" xmlns="http://www.w3.org/2000/svg" xmlns:xlink="http://www.w3.org/1999/xlink" x="0px" y="0px"
	 viewBox="0 0 380 380" enable-background="new 0 0 380 380" xml:space="preserve">
<g>
	<circle fill="#FFFFFF" cx="302.8" cy="302.8" r="13.1"/>
	<path fill="#FFFFFF" d="M375.9,289.8l-18.4-3.4c-1.1-3.7-2.6-7.3-4.4-10.6l10.6-15.5c1-1.4,0.8-3.6-0.5-4.8l-13.1-13.1
		c-1.2-1.2-3.4-1.4-4.8-0.5l-15.5,10.6c-3.4-1.9-7.1-3.3-10.9-4.5l-3.4-18.3c-0.3-1.7-2-3.1-3.7-3.1h-18.5c-1.7,0-3.4,1.4-3.7,3.1
		l-3.5,18.4c-3.7,1.1-7.2,2.6-10.5,4.4L260.3,242c-1.4-1-3.6-0.8-4.8,0.5l-13.1,13.1c-1.2,1.2-1.4,3.4-0.5,4.8l10.6,15.4
		c-1.8,3.3-3.2,6.8-4.3,10.5l-18.4,3.4c-1.7,0.3-3.1,2-3.1,3.7v18.5c0,1.7,1.4,3.4,3.1,3.7l18.3,3.4c1.1,3.7,2.6,7.3,4.4,10.7
		L242.1,345c-1,1.4-0.8,3.6,0.5,4.8l13.1,13.1c1.2,1.2,3.4,1.4,4.8,0.5l15.3-10.4c3.3,1.8,6.8,3.2,10.4,4.3l3.5,18.4
		c0.3,1.7,2,3.1,3.7,3.1h18.5c1.7,0,3.4-1.4,3.7-3.1l3.4-18.3c3.8-1.1,7.4-2.6,10.8-4.4l15.4,10.6c1.4,1,3.6,0.8,4.8-0.5l13.1-13.1
		c1.2-1.2,1.4-3.4,0.5-4.8l-10.5-15.4c1.9-3.4,3.3-7,4.5-10.8l18.3-3.4c1.7-0.3,3.1-2,3.1-3.7v-18.5
		C379,291.8,377.6,290.1,375.9,289.8z M302.8,334.6c-17.5,0-31.8-14.2-31.8-31.8c0-17.5,14.2-31.8,31.8-31.8
		c17.6,0,31.8,14.2,31.8,31.8C334.6,320.4,320.4,334.6,302.8,334.6z"/>
	<path fill="#FFFFFF" d="M319.5,304.6c0.1-0.6,0.1-1.2,0.1-1.8c0-2.2-0.4-4.3-1.2-6.3C318.8,299.2,319.2,301.9,319.5,304.6z"/>
	<path fill="#FFFFFF" d="M161.1,202.4c59.6,0,81-56.3,86.6-102.6c6.9-57-21.6-99.9-86.6-99.9S67.6,42.8,74.5,99.8
		C80.2,146.1,101.6,202.4,161.1,202.4z"/>
	<path fill="#FFFFFF" d="M229.7,336.7l3.4-5l-6.1-1.2c-8.9-1.7-15.3-9.5-15.3-18.5v-18.5c0-8.9,6.6-16.8,15.3-18.5l6-1.1l-3.4-5
		c-5-7.4-4.1-17.6,2.2-23.9l13.1-13.1c3.5-3.5,8.3-5.5,13.3-5.5c3.8,0,7.5,1.1,10.6,3.2l4.9,3.4l1.1-6.1c1-5.5,4.6-10.1,9.3-12.8
		c-11-6.6-24.3-9.2-36.3-13.6c-6.4-2.4-12.1-4.7-17.5-7.4c-18.1,18.7-41.7,28.5-69.2,28.5s-51.1-9.8-69.2-28.5
		c-5.4,2.7-11.1,5-17.5,7.4c-13.1,4.9-27.9,7.5-39.4,15.6C15.2,230,10.1,261.4,6.1,282.8c-3.3,17.7-5.5,35.7-6.2,53.6
		c-0.5,13.9,6.8,15.8,19.1,20c15.4,5.3,31.3,9.2,47.4,12.3c31,6.2,62.9,10.9,94.6,11.1c27.3-0.2,54.7-3.7,81.5-8.6l-10.8-10.7
		C225.6,354.4,224.7,344.1,229.7,336.7z"/>
</g>
</svg>
