<?xml version="1.0" encoding="utf-8"?>
<!-- Generator: Adobe Illustrator 18.0.0, SVG Export Plug-In . SVG Version: 6.00 Build 0)  -->
<!DOCTYPE svg PUBLIC "-//W3C//DTD SVG 1.1//EN" "http://www.w3.org/Graphics/SVG/1.1/DTD/svg11.dtd">
<svg version="1.1" id="Capa_1" xmlns="http://www.w3.org/2000/svg" xmlns:xlink="http://www.w3.org/1999/xlink" x="0px" y="0px"
	 viewBox="0 0 380 380" enable-background="new 0 0 380 380" xml:space="preserve">
<g>
	<path fill="#FFFFFF" d="M189,97.1c-50.7,0-91.9,41.1-91.9,91.9s41.1,91.9,91.9,91.9s91.9-41.1,91.9-91.9S239.7,97.1,189,97.1z
		 M189,269.4c-44.3,0-80.4-36.1-80.4-80.4s36.1-80.4,80.4-80.4s80.4,36.1,80.4,80.4S233.3,269.4,189,269.4z"/>
	<path fill="#FFFFFF" d="M189,120.1c-38.1,0-68.9,30.8-68.9,68.9c0,38,30.8,68.9,68.9,68.9c38,0,68.9-30.8,68.9-68.9
		C257.9,150.9,227,120.1,189,120.1z M214,224.5c-4.5,5.1-11,8.1-19.6,8.9v13h-10.9v-12.9c-14.2-1.5-23-9.7-26.4-24.8l16.8-4.4
		c1.6,9.5,6.7,14.2,15.5,14.2c4.1,0,7.1-1,9-3s2.9-4.5,2.9-7.3c0-3-1-5.2-2.9-6.8c-1.9-1.5-6.2-3.5-12.9-5.8c-6-2.1-10.7-4.1-14-6.2
		c-3.4-2-6.1-4.9-8.2-8.5c-2.1-3.7-3.2-7.9-3.2-12.8c0-6.4,1.9-12.1,5.6-17.2c3.7-5.1,9.6-8.2,17.7-9.3v-10h10.9v10
		c12.2,1.5,20,8.3,23.6,20.6l-15,6.1c-2.9-8.4-7.4-12.6-13.6-12.6c-3.1,0-5.5,0.9-7.4,2.8c-1.9,1.9-2.8,4.2-2.8,6.9
		c0,2.7,0.9,4.8,2.7,6.3c1.8,1.5,5.6,3.3,11.5,5.4c6.5,2.4,11.5,4.6,15.2,6.7c3.7,2.1,6.6,5,8.8,8.7c2.2,3.7,3.3,8,3.3,13
		C220.8,213.1,218.6,219.4,214,224.5z"/>
	<path fill="#FFFFFF" d="M380,174.6c0-8.1-3-15.2-8.3-21.4c4.3-4.9,7.2-10.3,8.3-16.4l0-26.6c0-32.9-50.1-50.6-97.3-50.6
		c-34.6,0-70.7,9.5-87.6,27.5c0.5-1.4,0.9-2.8,1.1-4.3l0-26.6c0-32.9-50.1-50.6-97.3-50.6C51.8,5.7,1.6,23.4,1.6,56.2l0,26.1
		l0.1,0.6c1.1,6,4,11.5,8.2,16.3c-5.3,6.2-8.3,13.4-8.3,21.4l0,26.1l0.1,0.6c1.1,6,4,11.5,8.2,16.3c-5.3,6.2-8.3,13.4-8.3,21.4
		l0,26.1l0.1,0.6c1.1,6,4,11.5,8.2,16.3c-5.3,6.2-8.3,13.4-8.3,21.4l0,26.1l0.1,0.6c5.5,29.6,53.1,45,97.2,45
		c34.5,0,71-9.4,88.1-27.6c-1.1,3.1-1.6,6.5-1.6,9.9l0,26.1l0.1,0.6c5.5,29.6,53.1,45,97.2,45s91.8-15.5,97.3-45l0-26.6
		c0-8.1-3-15.2-8.3-21.4c4.3-4.9,7.2-10.3,8.3-16.4l0-26.6c0-8.1-3-15.2-8.3-21.4c4.3-4.9,7.2-10.3,8.3-16.4L380,174.6z M98.9,29.6
		c47.1,0,75.9,17.3,75.9,26.7c0,9.4-28.8,26.7-75.9,26.7c-47.1,0-75.9-17.3-75.9-26.7C23.1,46.8,51.9,29.6,98.9,29.6z M282.7,330
		c-47.1,0-75.9-17.3-75.9-26.7c0-2.3,1.7-5,4.9-7.8c19,10,45.5,15.1,71,15.1c25.4,0,51.9-5.1,71-15.1c3.2,2.8,4.9,5.6,4.9,7.8
		C358.6,312.8,329.7,330,282.7,330z M291.6,181.7c22.6-1.1,45.3-6.1,62.1-14.9c3.2,2.8,4.9,5.6,4.9,7.8c0,8.8-25.4,24.6-67.4,26.5
		c-2,16.5-7.9,31.8-16.8,45c2.8,0.1,5.6,0.2,8.3,0.2c25.4,0,51.9-5.1,71-15.1c3.2,2.8,4.9,5.6,4.9,7.8c0,9.4-28.8,26.7-75.9,26.7
		c-8.6,0-16.6-0.6-23.9-1.6c-18.1,16.6-42.3,26.8-68.8,26.8c-0.3,0-0.5,0-0.8,0c-0.4,0-0.8,0-1.2,0c-20.7-0.4-39.8-7-55.8-18
		c-9.7,2-20.9,3.2-33.3,3.2c-47.1,0-75.9-17.3-75.9-26.7c0-2.3,1.7-5,4.9-7.8c19,10,45.5,15.1,71,15.1c4.8,0,9.7-0.2,14.5-0.6
		c-11-12.5-19-27.8-22.8-44.6c-42.1-1.9-67.6-17.7-67.6-26.5c0-2.3,1.7-5,4.9-7.8c16.3,8.6,38.2,13.6,60.2,14.8c0-1,0-2,0-2.9
		c0-14.9,3.2-29,9-41.7c-46-0.4-74-17.4-74-26.6c0-2.3,1.7-5,4.9-7.8c19,10,45.5,15.1,71,15.1c3.3,0,6.5-0.1,9.8-0.3
		c18.6-24.6,48.1-40.5,81.2-40.5c1.7,0,3.4,0,5,0.1c0,0,0,0,0.1,0c10.9,0.5,21.3,2.8,31.1,6.5c13.1-5.7,32.4-10.2,56.5-10.2
		c47.1,0,75.9,17.3,75.9,26.7c0,9.4-28.8,26.7-75.9,26.7c-1.8,0-3.5,0-5.2-0.1C285.4,150.1,290.4,165.4,291.6,181.7z"/>
</g>
</svg>
