<?xml version="1.0" encoding="utf-8"?>
<!-- Generator: Adobe Illustrator 18.0.0, SVG Export Plug-In . SVG Version: 6.00 Build 0)  -->
<!DOCTYPE svg PUBLIC "-//W3C//DTD SVG 1.1//EN" "http://www.w3.org/Graphics/SVG/1.1/DTD/svg11.dtd">
<svg version="1.1" id="Capa_1" xmlns="http://www.w3.org/2000/svg" xmlns:xlink="http://www.w3.org/1999/xlink" x="0px" y="0px"
	 viewBox="0 0 508.8 508.8" enable-background="new 0 0 508.8 508.8" xml:space="preserve">
<g>
	<g>
		<path fill="#777777" d="M479.1,409.1H29.7c-5.4,0-9.7,4.4-9.7,9.7v80.2c0,5.4,4.4,9.7,9.7,9.7h449.3c5.4,0,9.7-4.4,9.7-9.7v-80.2
			C488.8,413.5,484.4,409.1,479.1,409.1z M301.4,454.4h-94c-8.3,0-15-6.7-15-15s6.7-15,15-15h94c8.3,0,15,6.7,15,15
			S309.7,454.4,301.4,454.4z"/>
		<path fill="#777777" d="M38.4,398.2h432c8.3,0,15-6.7,15-15l-20-282c0-8.3-6.7-15-15-15h-87.1V68.8h47.2c5,0,9.1-4.1,9.1-9.1v-5.5
			V14.6V9.1c0-5-4.1-9.1-9.1-9.1h-145c-5,0-9.1,4.1-9.1,9.1v5.5v45.1c0,5,4.1,9.1,9.1,9.1h47.2v17.4H58.4c-8.3,0-15,6.7-15,15
			l-20,282C23.4,391.5,30.1,398.2,38.4,398.2z M318.6,245.2c-0.6,7.9-0.9,11.8-1.6,19.7c-0.3,4.2-3.8,7.5-7.6,7.5
			c-8.2,0-16.3,0-24.5,0c-3.9,0-6.5-3.4-5.8-7.5c1.3-7.9,2-11.8,3.3-19.7c0.7-4.2,4.2-7.5,7.7-7.5c7.5,0,15,0,22.6,0
			C316.3,237.6,319,241,318.6,245.2z M367.2,371.9c-10,0-19.9,0-29.9,0c-4.7,0-8.4-3.4-8.3-7.5c0.3-7.9,0.5-11.8,0.9-19.7
			c0.2-4.2,3.9-7.5,8.4-7.5c9.3,0,18.7,0,28,0c4.4,0,8.2,3.4,8.4,7.5c0.3,7.9,0.5,11.8,0.9,19.7
			C375.6,368.5,371.9,371.9,367.2,371.9z M339.6,287.3c8.4,0,16.9,0,25.3,0c4,0,7.4,3.4,7.6,7.5c0.3,7.9,0.5,11.8,0.9,19.7
			c0.2,4.2-3.2,7.5-7.5,7.5c-9.1,0-18.1,0-27.2,0c-4.3,0-7.7-3.4-7.5-7.5c0.3-7.9,0.5-11.8,0.9-19.7
			C332.2,290.7,335.6,287.3,339.6,287.3z M333.3,264.9c0.3-7.9,0.5-11.8,0.9-19.7c0.2-4.2,3.2-7.5,6.8-7.5c7.5,0,15,0,22.6,0
			c3.6,0,6.6,3.4,6.8,7.5c0.3,7.9,0.5,11.8,0.9,19.7c0.2,4.2-2.8,7.5-6.7,7.5c-8.2,0-16.3,0-24.5,0
			C336.1,272.4,333.1,269.1,333.3,264.9z M385.8,245.2c-0.3-4.2,2.3-7.5,5.9-7.5c7.5,0,15,0,22.6,0c3.6,0,7,3.4,7.7,7.5
			c1.3,7.9,2,11.8,3.3,19.7c0.7,4.2-1.9,7.5-5.8,7.5c-8.2,0-16.3,0-24.5,0c-3.9,0-7.3-3.4-7.6-7.5C386.7,257,386.4,253,385.8,245.2z
			 M438.5,344.6c1.3,7.9,2,11.8,3.3,19.7c0.7,4.2-2.6,7.5-7.3,7.5c-10,0-19.9,0-29.9,0c-4.7,0-8.9-3.4-9.2-7.5
			c-0.6-7.9-0.9-11.8-1.6-19.7c-0.3-4.2,3-7.5,7.4-7.5c9.3,0,18.7,0,28,0C433.6,337.1,437.8,340.4,438.5,344.6z M427,322.1
			c-9.1,0-18.1,0-27.2,0c-4.3,0-8.1-3.4-8.4-7.5c-0.6-7.9-0.9-11.8-1.6-19.7c-0.3-4.2,2.6-7.5,6.7-7.5c8.4,0,16.9,0,25.3,0
			c4,0,7.8,3.4,8.5,7.5c1.3,7.9,2,11.8,3.3,19.7C434.2,318.8,431.3,322.1,427,322.1z M272.2,114.9c0-2.8,2.2-5,5-5h148
			c2.8,0,5,2.2,5,5v92c0,2.8-2.2,5-5,5h-148c-2.8,0-5-2.2-5-5V114.9z M270.9,314.6c1.3-7.9,2-11.8,3.3-19.7c0.7-4.2,4.5-7.5,8.5-7.5
			c8.4,0,16.9,0,25.3,0c4,0,7,3.4,6.7,7.5c-0.6,7.9-0.9,11.8-1.6,19.7c-0.3,4.2-4.1,7.5-8.4,7.5c-9.1,0-18.1,0-27.2,0
			C273.2,322.1,270.2,318.8,270.9,314.6z M262.7,364.3c1.3-7.9,2-11.8,3.3-19.7c0.7-4.2,4.9-7.5,9.3-7.5c9.3,0,18.7,0,28,0
			c4.4,0,7.8,3.4,7.4,7.5c-0.6,7.9-0.9,11.8-1.6,19.7c-0.3,4.2-4.4,7.5-9.2,7.5c-10,0-19.9,0-29.9,0
			C265.3,371.9,262,368.5,262.7,364.3z M155.2,114.9c0-2.8,2.2-5,5-5h50c2.8,0,5,2.2,5,5v92c0,2.8-2.2,5-5,5h-50c-2.8,0-5-2.2-5-5
			V114.9z M78.6,114.9c0-2.8,2.2-5,5-5h50c2.8,0,5,2.2,5,5v92c0,2.8-2.2,5-5,5h-50c-2.8,0-5-2.2-5-5V114.9z"/>
	</g>
</g>
</svg>
