<?xml version="1.0" encoding="utf-8"?>
<!-- Generator: Adobe Illustrator 18.0.0, SVG Export Plug-In . SVG Version: 6.00 Build 0)  -->
<!DOCTYPE svg PUBLIC "-//W3C//DTD SVG 1.1//EN" "http://www.w3.org/Graphics/SVG/1.1/DTD/svg11.dtd">
<svg version="1.1" id="Capa_1" xmlns="http://www.w3.org/2000/svg" xmlns:xlink="http://www.w3.org/1999/xlink" x="0px" y="0px"
	 viewBox="0 0 380 380" enable-background="new 0 0 380 380" xml:space="preserve">
<g>
	<circle fill="#FFFFFF" cx="302.8" cy="302.8" r="13.1"/>
	<path fill="#FFFFFF" d="M375.9,289.8l-18.4-3.4c-1.1-3.7-2.6-7.3-4.4-10.6l10.6-15.5c1-1.4,0.8-3.6-0.5-4.8l-13.1-13.1
		c-1.2-1.2-3.4-1.4-4.8-0.5l-15.5,10.6c-3.4-1.9-7.1-3.3-10.9-4.5l-3.4-18.3c-0.3-1.7-2-3.1-3.7-3.1h-18.5c-1.7,0-3.4,1.4-3.7,3.1
		l-3.5,18.4c-3.7,1.1-7.2,2.6-10.5,4.4L260.3,242c-1.4-1-3.6-0.8-4.8,0.5l-13.1,13.1c-1.2,1.2-1.4,3.4-0.5,4.8l10.6,15.4
		c-1.8,3.3-3.2,6.8-4.3,10.5l-18.4,3.4c-1.7,0.3-3.1,2-3.1,3.7v18.5c0,1.7,1.4,3.4,3.1,3.7l18.3,3.4c1.1,3.7,2.6,7.3,4.4,10.7
		L242.1,345c-1,1.4-0.8,3.6,0.5,4.8l13.1,13.1c1.2,1.2,3.4,1.4,4.8,0.5l15.3-10.4c3.3,1.8,6.8,3.2,10.4,4.3l3.5,18.4
		c0.3,1.7,2,3.1,3.7,3.1h18.5c1.7,0,3.4-1.4,3.7-3.1l3.4-18.3c3.8-1.1,7.4-2.6,10.8-4.4l15.4,10.6c1.4,1,3.6,0.8,4.8-0.5l13.1-13.1
		c1.2-1.2,1.4-3.4,0.5-4.8l-10.5-15.4c1.9-3.4,3.3-7,4.5-10.8l18.3-3.4c1.7-0.3,3.1-2,3.1-3.7v-18.5
		C379,291.8,377.6,290.1,375.9,289.8z M302.8,334.6c-17.5,0-31.8-14.2-31.8-31.8c0-17.5,14.2-31.8,31.8-31.8
		c17.6,0,31.8,14.2,31.8,31.8C334.6,320.4,320.4,334.6,302.8,334.6z"/>
	<path fill="#FFFFFF" d="M211.7,312.1v-18.5c0-8.9,6.6-16.8,15.3-18.5l6-1.1l-3.4-5c-5-7.4-4.1-17.6,2.2-23.9l0.3-0.3
		c-10.6-18.2-30.8-29.6-53.3-29.6c-25.4,0-47.7,14-56.7,35.6c-1.5,3.7-5.2,6-9,6c-1.2,0-2.5-0.2-3.7-0.7c-4.9-2.1-7.3-7.7-5.2-12.7
		c12-28.9,41.3-47.6,74.6-47.6c27.7,0,52.8,13.4,67.4,35c3.3-2.8,7.6-4.3,12.1-4.3c3.8,0,7.5,1.1,10.6,3.2l4.9,3.4l1.1-6.1
		c1.7-8.8,9.6-15.3,18.5-15.3h18.5c8.9,0,16.8,6.6,18.5,15.3l1.2,6.3l5.5-3.8c1.8-1.2,3.7-2.1,5.8-2.6c5-16.3,7.7-33.6,7.7-51.6
		C350.5,78.5,272,0,175.2,0C78.5,0,0,78.5,0,175.2s78.5,175.2,175.2,175.2c18,0,35.4-2.7,51.8-7.8c0.5-2.1,1.4-4.1,2.7-6l3.4-5
		l-6.1-1.2C218.1,328.8,211.7,321.1,211.7,312.1z M222.2,108.7c11.1,0,20.1,9,20.1,20.1c0,11.1-9,20.1-20.1,20.1
		c-11.1,0-20.1-9-20.1-20.1C202.2,117.7,211.2,108.7,222.2,108.7z M131.3,108.7c11.1,0,20.1,9,20.1,20.1c0,11.1-9,20.1-20.1,20.1
		c-11.1,0-20.1-9-20.1-20.1C111.2,117.7,120.2,108.7,131.3,108.7z"/>
</g>
</svg>
