<?xml version="1.0" encoding="utf-8"?>
<!-- Generator: Adobe Illustrator 19.2.0, SVG Export Plug-In . SVG Version: 6.00 Build 0)  -->
<svg version="1.1" id="Layer_1" xmlns="http://www.w3.org/2000/svg" xmlns:xlink="http://www.w3.org/1999/xlink" x="0px" y="0px"
	 viewBox="0 0 40 40" style="enable-background:new 0 0 40 40;" xml:space="preserve">
<style type="text/css">
	.st0{fill:#686868;}
</style>
<g>
	<path class="st0" d="M31,23.5c-4.6,0-8.4,3.7-8.4,8.4s3.7,8.4,8.4,8.4c4.6,0,8.4-3.7,8.4-8.4S35.6,23.5,31,23.5z M24.2,31.8
		c0-3.8,3.1-6.9,6.9-6.9c1.8,0,3.4,0.7,4.6,1.8L26,36.5C24.8,35.3,24.2,33.6,24.2,31.8z M31,38.7c-1.5,0-2.9-0.5-4-1.3l9.6-9.6
		c0.8,1.1,1.3,2.5,1.3,4C37.9,35.6,34.8,38.7,31,38.7z"/>
	<path class="st0" d="M16.6,21c-2.3,0-4.2-0.9-5.5-2.5c-3-3.4-2.6-9.3-2.5-10c0.2-4.3,2.2-6.4,3.9-7.3C14,0.3,15.8,0,16.6,0h0.1
		c1.6,0,3,0.5,4.2,1.2c1.6,0.9,3.6,3,3.8,7.2c0.1,0.7,0.6,6.6-2.5,10.1C21,20.1,19.1,21,16.8,21H16.6z M16.6,2
		c-1.8,0-6.2,0.6-6.4,6.6c0,0.1-0.6,5.7,2.1,8.6c1.1,1.2,2.5,1.7,4.4,1.7h0.1c1.9,0,3.3-0.5,4.4-1.7c2.7-3,2.1-8.6,2.1-8.6
		C22.9,2.9,19,2,16.7,2H16.6z"/>
	<g>
		<path class="st0" d="M24,24.1c0.5-0.4,0.9-0.8,1.5-1.1c-1.6-0.8-2.7-1.5-2.7-1.5c-0.1-0.1-0.3-0.2-0.5-0.2c-0.3,0-0.5,0.1-0.7,0.4
			c-0.3,0.4-0.2,0.9,0.2,1.2C21.8,22.9,22.7,23.4,24,24.1z"/>
		<path class="st0" d="M21.9,36.9c-1.6,0.2-3.3,0.4-5.2,0.4c-7.9,0-13.1-2.6-14.5-3.4l-0.1-0.1l0-0.1c-0.1-0.7-0.2-1.8-0.2-2.6
			l0-0.2C2,29,2.2,26.9,4.3,26.2c3.6-0.9,6.5-2.8,7.3-3.4c0.2-0.1,0.3-0.3,0.3-0.5c0-0.2,0-0.4-0.1-0.6c-0.2-0.2-0.4-0.4-0.7-0.4
			c-0.2,0-0.3,0.1-0.5,0.1c0,0-3.1,2.2-6.9,3.1c-3.4,1.2-3.5,4.8-3.5,6.3c0,0.1,0,0.2,0,0.2c0,0.1,0,2.5,0.4,3.6
			C0.7,34.9,0.8,35,1,35.1C1,35.2,6.8,39,16.7,39c2.3,0,4.4-0.2,6.2-0.5C22.6,38,22.2,37.5,21.9,36.9z"/>
	</g>
</g>
</svg>
