<?xml version="1.0" encoding="utf-8"?>
<!-- Generator: Adobe Illustrator 19.0.0, SVG Export Plug-In . SVG Version: 6.00 Build 0)  -->
<svg version="1.1" id="Layer_1" xmlns="http://www.w3.org/2000/svg" xmlns:xlink="http://www.w3.org/1999/xlink" x="0px" y="0px"
	 viewBox="0 0 40 40" style="enable-background:new 0 0 40 40;" xml:space="preserve">
<style type="text/css">
	.st0{fill:#484D55;}
</style>
<g>
	<path class="st0" d="M3.8,32.9c0-1.7,0-3.4,0-5.1c-0.5,0-1,0-1.6,0s-1-0.3-1-0.9c0-0.5,0.4-0.9,1-0.9c0.5,0,1,0,1.5,0
		c0-1.7,0-3.5,0-5.2c-0.5,0-1.1,0-1.6,0s-0.8-0.3-0.9-0.6c-0.1-0.5,0.3-0.9,0.8-0.9c0.3,0,0.6,0,0.8,0c0.3,0,0.6,0,0.9,0
		c0-1.7,0-3.5,0-5.2c-0.5,0-1,0-1.5,0c-0.6,0-1-0.3-1-0.9c0-0.5,0.4-0.9,1-0.9c0.5,0,1,0,1.5,0c0-1.7,0-3.4,0-5.1
		c-0.6,0-1.1,0-1.7,0C1.8,7.1,1.5,7,1.4,6.6C1.2,6.3,1.2,6,1.5,5.7C1.7,5.5,2,5.4,2.2,5.4c0.5,0,1.1,0,1.7,0c0-0.8-0.1-1.5,0-2.2
		C4.1,1.4,5.8,0,7.6,0c8,0,16.1,0,24.1,0c2,0,3.7,1.7,3.7,3.7c0,5.2,0,10.3,0,15.5c0,0.2-0.1,0.4-0.2,0.5c-0.5,0.4-0.9,0.7-1.5,1.1
		c0-0.2,0-0.4,0-0.6c0-5.2,0-10.3,0-15.5c0-0.3,0-0.6,0-0.9c0-1.2-0.9-2.1-2.1-2.1c-3.8,0-7.7,0-11.5,0c-2.8,0-5.5,0-8.3,0
		c-0.1,0-0.3,0-0.4,0c0,12.2,0,24.3,0,36.5c0.1,0,0.3,0,0.4,0c6.6,0,13.1,0,19.7,0c1.4,0,2.2-0.8,2.2-2.2c0-2.2,0-4.5,0-6.7
		c0-0.3,0.1-0.5,0.3-0.7c0.5-0.3,0.9-0.6,1.4-1c0,0.5,0,1,0,1.4c0,2.4,0,4.7,0,7.1c0,2.3-1.6,3.9-3.9,3.9c-7.9,0-15.8,0-23.8,0
		c-1.8,0-3.3-1.2-3.7-3c-0.1-0.6-0.1-1.2-0.1-1.8c0-0.2,0-0.4,0-0.6c-0.6,0-1.1,0-1.7,0c-0.5,0-0.9-0.4-0.9-0.9s0.4-0.9,0.9-0.9
		C2.7,32.8,3.3,32.9,3.8,32.9z M10.5,38.2c0-12.1,0-24.3,0-36.4c-0.7,0-1.4,0-2.1,0c-0.3,0-0.5,0-0.8,0c-1,0-1.8,0.7-1.9,1.6
		c-0.1,0.7,0,1.3,0,2c0.4,0,0.8,0.1,1.1-0.2c0.5-0.4,1.4-0.3,1.8,0.2c0.5,0.6,0.5,1.3,0,1.9C8.2,7.7,7.4,7.9,6.8,7.4
		C6.4,7.1,6.1,7.1,5.6,7.2c0,1.7,0,3.4,0,5c0.4,0,0.8,0.1,1.2-0.2c0.5-0.4,1.4-0.3,1.8,0.3c0.5,0.5,0.4,1.3,0,1.8
		c-0.5,0.5-1.3,0.7-1.8,0.2C6.4,13.9,6.1,14,5.6,14c0,1.8,0,3.5,0,5.2c0.5,0,0.8,0.1,1.2-0.3c0.5-0.5,1.3-0.3,1.8,0.2
		c0.4,0.5,0.4,1.3,0,1.8c-0.5,0.5-1.3,0.6-1.8,0.1c-0.4-0.3-0.8-0.3-1.2-0.3c0,1.7,0,3.5,0,5.2C6,26,6.4,26.2,6.7,25.8
		c0.5-0.5,1.4-0.5,1.9,0s0.5,1.3,0.1,1.9c-0.5,0.5-1.3,0.7-1.9,0.2c-0.4-0.3-0.7-0.2-1.1-0.2c0,1.7,0,3.4,0,5
		c0.6,0.1,0.7,0.1,1.2-0.2c0.6-0.4,1.3-0.3,1.8,0.2s0.5,1.3,0,1.8s-1.3,0.7-1.8,0.3c-0.4-0.3-0.8-0.2-1.2-0.3c0,0.6,0,1.2,0,1.8
		c0.1,0.9,0.7,1.6,1.6,1.7C8.3,38.3,9.4,38.2,10.5,38.2z"/>
	<path class="st0" d="M24.1,34.6c0-0.3,0.1-0.7,0-0.9c-0.3-0.4-0.3-0.8-0.5-1.3s-0.5-0.8-1-1c-0.1-0.1-0.3-0.1-0.3-0.2
		c-0.2-0.5-0.6-0.6-1.2-0.5c0.9-0.6,1.7-1.2,2.5-1.8c4-2.8,8-5.7,12-8.5c0.2-0.2,0.4-0.2,0.7-0.1c0.7,0.2,1.2,0.6,1.5,1.2
		c0.1,0.2,0.2,0.3,0.3,0.5c0.6,0.6,0.6,1.3,0.6,2c0,0.1-0.1,0.3-0.3,0.4c-2.3,1.7-4.7,3.3-7,5c-2.4,1.7-4.8,3.4-7.2,5.1
		C24.2,34.5,24.1,34.6,24.1,34.6z"/>
	<path class="st0" d="M20,32.5c0.9,0.3,1.8,1.6,1.9,2.6c-1,0.2-2,0.4-3,0.6c-0.1,0-0.1,0-0.2,0c-0.2-0.1-0.3-0.3-0.2-0.6
		C19,34.3,19.5,33.4,20,32.5z"/>
</g>
<g>
	<g>
		<path class="st0" d="M21.1,13.8c2.4,0,4.3-1.9,4.3-4.4C25.4,7,23.5,5,21.1,5s-4.3,1.9-4.3,4.4S18.7,13.8,21.1,13.8z M21.1,6.2
			c1.8,0,3.3,1.4,3.3,3.3c0,1.8-1.4,3.3-3.3,3.3c-1.8,0-3.3-1.4-3.3-3.3C17.8,7.6,19.3,6.2,21.1,6.2z M21.1,14.4
			c-4,0-7.4,3.2-7.4,7.4c0,0.2,0.2,0.2,0.5,0.2h1.7c0.2,0,0.5,0,0.5-0.2s-0.2-0.2-0.5-0.2h-1.2c0.2-3.1,3.1-5.9,6.4-5.9
			s6.1,2.9,6.4,5.9h-9.9c-0.2,0-0.5,0-0.5,0.2s0.2,0.2,0.5,0.2H28c0.2,0,0.5,0,0.5-0.4C28.5,17.5,25.1,14.4,21.1,14.4z M21.1,11.5
			c0.6,0,1.2-0.2,1.5-0.7c0.1-0.1,0.1-0.2,0.1-0.4c0-0.1-0.1-0.2-0.1-0.4C22.5,10,22.4,10,22.3,10c-0.1,0-0.2,0.1-0.4,0.2
			c-0.2,0.2-0.5,0.4-0.7,0.4c-0.2,0-0.6-0.1-0.7-0.4C20.3,10,20.1,10,19.9,10c-0.1,0-0.2,0-0.4,0.1c-0.1,0.1-0.1,0.2-0.1,0.4
			c0,0.1,0,0.2,0.1,0.4C19.9,11.3,20.5,11.5,21.1,11.5z"/>
	</g>
</g>
</svg>
