<?xml version="1.0" encoding="utf-8"?>
<!-- Generator: Adobe Illustrator 19.2.0, SVG Export Plug-In . SVG Version: 6.00 Build 0)  -->
<svg version="1.1" id="Layer_1" xmlns="http://www.w3.org/2000/svg" xmlns:xlink="http://www.w3.org/1999/xlink" x="0px" y="0px"
	 viewBox="0 0 40 40" style="enable-background:new 0 0 40 40;" xml:space="preserve">
<style type="text/css">
	.st0{fill:#35c4ff;}
</style>
<g>
	<path class="st0" d="M3.8,32.9c0-1.7,0-3.4,0-5.1c-0.5,0-1,0-1.6,0c-0.6,0-1-0.3-1-0.9c0-0.5,0.4-0.9,1-0.9c0.5,0,1,0,1.5,0
		c0-1.7,0-3.5,0-5.2c-0.5,0-1.1,0-1.6,0c-0.5,0-0.8-0.3-0.9-0.6c-0.1-0.5,0.3-0.9,0.8-0.9c0.3,0,0.6,0,0.8,0c0.3,0,0.6,0,0.9,0
		c0-1.7,0-3.5,0-5.2c-0.5,0-1,0-1.5,0c-0.6,0-1-0.3-1-0.9c0-0.5,0.4-0.9,1-0.9c0.5,0,1,0,1.5,0c0-1.7,0-3.4,0-5.1
		c-0.6,0-1.1,0-1.7,0C1.8,7.1,1.5,7,1.4,6.6C1.2,6.3,1.2,6,1.5,5.7C1.7,5.5,2,5.4,2.2,5.4c0.5,0,1.1,0,1.7,0c0-0.8-0.1-1.5,0-2.2
		C4.1,1.4,5.8,0,7.6,0c8,0,16.1,0,24.1,0c2,0,3.7,1.7,3.7,3.7c0,5.2,0,10.3,0,15.5c0,0.2-0.1,0.4-0.2,0.5c-0.5,0.4-0.9,0.7-1.5,1.1
		c0-0.2,0-0.4,0-0.6c0-5.2,0-10.3,0-15.5c0-0.3,0-0.6,0-0.9c0-1.2-0.9-2.1-2.1-2.1c-3.8,0-7.7,0-11.5,0c-2.8,0-5.5,0-8.3,0
		c-0.1,0-0.3,0-0.4,0c0,12.2,0,24.3,0,36.5c0.1,0,0.3,0,0.4,0c6.6,0,13.1,0,19.7,0c1.4,0,2.2-0.8,2.2-2.2c0-2.2,0-4.5,0-6.7
		c0-0.3,0.1-0.5,0.3-0.7c0.5-0.3,0.9-0.6,1.4-1c0,0.5,0,1,0,1.4c0,2.4,0,4.7,0,7.1c0,2.3-1.6,3.9-3.9,3.9c-7.9,0-15.8,0-23.8,0
		c-1.8,0-3.3-1.2-3.7-3c-0.1-0.6-0.1-1.2-0.1-1.8c0-0.2,0-0.4,0-0.6c-0.6,0-1.1,0-1.7,0c-0.5,0-0.9-0.4-0.9-0.9
		c0-0.5,0.4-0.9,0.9-0.9C2.7,32.8,3.3,32.9,3.8,32.9z M10.5,38.2c0-12.1,0-24.3,0-36.4c-0.7,0-1.4,0-2.1,0c-0.3,0-0.5,0-0.8,0
		C6.6,1.8,5.8,2.5,5.7,3.4c-0.1,0.7,0,1.3,0,2c0.4,0,0.8,0.1,1.1-0.2c0.5-0.4,1.4-0.3,1.8,0.2c0.5,0.6,0.5,1.3,0,1.9
		C8.2,7.7,7.4,7.9,6.8,7.4C6.4,7.1,6.1,7.1,5.6,7.2c0,1.7,0,3.4,0,5c0.4,0,0.8,0.1,1.2-0.2c0.5-0.4,1.4-0.3,1.8,0.3
		c0.5,0.5,0.4,1.3,0,1.8c-0.5,0.5-1.3,0.7-1.8,0.2C6.4,13.9,6.1,14,5.6,14c0,1.8,0,3.5,0,5.2c0.5,0,0.8,0.1,1.2-0.3
		c0.5-0.5,1.3-0.3,1.8,0.2c0.4,0.5,0.4,1.3,0,1.8c-0.5,0.5-1.3,0.6-1.8,0.1c-0.4-0.3-0.8-0.3-1.2-0.3c0,1.7,0,3.5,0,5.2
		C6,26,6.4,26.2,6.7,25.8c0.5-0.5,1.4-0.5,1.9,0c0.5,0.5,0.5,1.3,0.1,1.9c-0.5,0.5-1.3,0.7-1.9,0.2c-0.4-0.3-0.7-0.2-1.1-0.2
		c0,1.7,0,3.4,0,5c0.6,0.1,0.7,0.1,1.2-0.2c0.6-0.4,1.3-0.3,1.8,0.2c0.5,0.5,0.5,1.3,0,1.8c-0.5,0.5-1.3,0.7-1.8,0.3
		c-0.4-0.3-0.8-0.2-1.2-0.3c0,0.6,0,1.2,0,1.8c0.1,0.9,0.7,1.6,1.6,1.7C8.3,38.3,9.4,38.2,10.5,38.2z"/>
	<path class="st0" d="M24.1,34.6c0-0.3,0.1-0.7,0-0.9c-0.3-0.4-0.3-0.8-0.5-1.3c-0.2-0.5-0.5-0.8-1-1c-0.1-0.1-0.3-0.1-0.3-0.2
		c-0.2-0.5-0.6-0.6-1.2-0.5c0.9-0.6,1.7-1.2,2.5-1.8c4-2.8,8-5.7,12-8.5c0.2-0.2,0.4-0.2,0.7-0.1c0.7,0.2,1.2,0.6,1.5,1.2
		c0.1,0.2,0.2,0.3,0.3,0.5c0.6,0.6,0.6,1.3,0.6,2c0,0.1-0.1,0.3-0.3,0.4c-2.3,1.7-4.7,3.3-7,5c-2.4,1.7-4.8,3.4-7.2,5.1
		C24.2,34.5,24.1,34.6,24.1,34.6z"/>
	<path class="st0" d="M15.7,21.8c0.6-0.6,1-1.1,1.5-1.6c0.4-0.4,0.7-0.4,1.1-0.1c0.3,0.3,0.3,0.7,0,1c-0.6,0.6-1.2,1.3-1.9,1.9
		c-0.5,0.5-0.8,0.5-1.3,0c-0.4-0.4-0.9-0.9-1.3-1.3c-0.3-0.4-0.3-0.7,0-1.1c0.3-0.3,0.7-0.3,1,0.1c0.2,0.1,0.3,0.3,0.4,0.4
		C15.4,21.4,15.5,21.6,15.7,21.8z"/>
	<path class="st0" d="M22.2,21.8c0.6-0.6,1-1.1,1.5-1.6c0.4-0.4,0.7-0.4,1.1-0.1c0.3,0.3,0.3,0.7,0,1c-0.6,0.6-1.2,1.3-1.9,1.9
		c-0.5,0.5-0.8,0.5-1.3,0c-0.4-0.4-0.9-0.9-1.3-1.3c-0.3-0.4-0.3-0.7,0-1.1c0.3-0.3,0.7-0.3,1,0.1c0.2,0.1,0.3,0.3,0.4,0.4
		C21.8,21.4,22,21.6,22.2,21.8z"/>
	<path class="st0" d="M15.7,27c0.6-0.6,1-1.1,1.5-1.6c0.4-0.4,0.7-0.4,1.1-0.1c0.3,0.3,0.3,0.7,0,1c-0.6,0.6-1.2,1.3-1.9,1.9
		c-0.5,0.5-0.8,0.5-1.3,0c-0.4-0.4-0.9-0.9-1.3-1.3c-0.3-0.4-0.3-0.7,0-1.1c0.3-0.3,0.7-0.3,1,0.1c0.2,0.1,0.3,0.3,0.4,0.4
		C15.4,26.6,15.5,26.8,15.7,27z"/>
	<path class="st0" d="M22.2,27c0.6-0.6,1-1.1,1.5-1.6c0.4-0.4,0.7-0.4,1.1-0.1c0.3,0.3,0.3,0.7,0,1c-0.6,0.6-1.2,1.3-1.9,1.9
		c-0.5,0.5-0.8,0.5-1.3,0c-0.4-0.4-0.9-0.9-1.3-1.3c-0.3-0.4-0.3-0.7,0-1.1c0.3-0.3,0.7-0.3,1,0.1c0.2,0.1,0.3,0.3,0.4,0.4
		C21.8,26.6,22,26.8,22.2,27z"/>
	<path class="st0" d="M28.6,21.8c0.6-0.6,1-1.1,1.5-1.6c0.4-0.4,0.7-0.4,1.1-0.1c0.3,0.3,0.3,0.7,0,1c-0.6,0.6-1.2,1.3-1.9,1.9
		c-0.5,0.5-0.8,0.5-1.3,0c-0.4-0.4-0.9-0.9-1.3-1.3c-0.3-0.4-0.3-0.7,0-1.1c0.3-0.3,0.7-0.3,1,0.1c0.2,0.1,0.3,0.3,0.4,0.4
		C28.3,21.4,28.4,21.6,28.6,21.8z"/>
	<path class="st0" d="M25.9,10.9c0.6-0.6,1-1.1,1.5-1.5C27.8,9,28.2,9,28.5,9.3c0.3,0.3,0.3,0.7-0.1,1.1c-0.6,0.6-1.2,1.3-1.9,1.9
		c-0.5,0.5-0.8,0.5-1.3,0c-0.4-0.4-0.9-0.9-1.3-1.3c-0.3-0.4-0.3-0.7,0-1c0.3-0.3,0.7-0.3,1.1,0.1C25.3,10.3,25.6,10.6,25.9,10.9z"
		/>
	<path class="st0" d="M20,32.5c0.9,0.3,1.8,1.6,1.9,2.6c-1,0.2-2,0.4-3,0.6c-0.1,0-0.1,0-0.2,0c-0.2-0.1-0.3-0.3-0.2-0.6
		C19,34.3,19.5,33.4,20,32.5z"/>
</g>
<g>
	<g>
		<path class="st0" d="M20,20.2c2,0,3.6-1.6,3.6-3.7c0-2-1.6-3.7-3.6-3.7c-2,0-3.6,1.6-3.6,3.7C16.4,18.6,18,20.2,20,20.2z M20,13.8
			c1.5,0,2.8,1.2,2.8,2.8c0,1.5-1.2,2.8-2.8,2.8c-1.5,0-2.8-1.2-2.8-2.8C17.2,15,18.5,13.8,20,13.8z M20,20.7
			c-3.4,0-6.2,2.7-6.2,6.2c0,0.2,0.2,0.2,0.4,0.2h1.4c0.2,0,0.4,0,0.4-0.2c0-0.2-0.2-0.2-0.4-0.2h-1c0.2-2.6,2.6-5,5.4-5
			c2.8,0,5.1,2.4,5.4,5h-8.3c-0.2,0-0.4,0-0.4,0.2c0,0.2,0.2,0.2,0.4,0.2h8.7c0.2,0,0.4,0,0.4-0.3C26.2,23.3,23.4,20.7,20,20.7z
			 M20,18.3c0.5,0,1-0.2,1.3-0.6c0.1-0.1,0.1-0.2,0.1-0.3c0-0.1-0.1-0.2-0.1-0.3C21.2,17,21.1,17,21,17c-0.1,0-0.2,0.1-0.3,0.2
			c-0.2,0.2-0.4,0.3-0.6,0.3c-0.2,0-0.5-0.1-0.6-0.3C19.3,17,19.2,17,19,17c-0.1,0-0.2,0-0.3,0.1c-0.1,0.1-0.1,0.2-0.1,0.3
			c0,0.1,0,0.2,0.1,0.3C19,18.1,19.5,18.3,20,18.3z"/>
	</g>
</g>
</svg>
