<?xml version="1.0" encoding="utf-8"?>
<!-- Generator: Adobe Illustrator 19.2.0, SVG Export Plug-In . SVG Version: 6.00 Build 0)  -->
<svg version="1.1" id="Layer_1" xmlns="http://www.w3.org/2000/svg" xmlns:xlink="http://www.w3.org/1999/xlink" x="0px" y="0px"
	 viewBox="0 0 40 40" style="enable-background:new 0 0 40 40;" xml:space="preserve">
<style type="text/css">
	.st0{fill:#FFFFFF;}
</style>
<g>
	<g>
		<path class="st0" d="M23.5,31.8c-0.3,0-0.6-0.1-0.9-0.2L20,30.2l-2.6,1.4c-0.6,0.3-1.4,0.3-2-0.1c-0.6-0.4-0.9-1.1-0.8-1.8
			l0.5-2.9L13,24.6c-0.5-0.5-0.7-1.3-0.5-1.9c0.2-0.7,0.8-1.2,1.5-1.3l3-0.4l1.3-2.7c0.3-0.6,1-1,1.7-1c0.7,0,1.4,0.4,1.7,1l1.3,2.7
			l3,0.4c0.7,0.1,1.3,0.6,1.5,1.3c0.2,0.7,0,1.4-0.5,1.9l-2.1,2.1l0.5,2.9c0.1,0.7-0.2,1.4-0.8,1.8C24.3,31.7,23.9,31.8,23.5,31.8z
			 M20,18.6c-0.2,0-0.4,0.1-0.5,0.3l-1.6,3.3l-3.7,0.5c-0.2,0-0.4,0.2-0.4,0.4c-0.1,0.2,0,0.4,0.1,0.5l2.6,2.6L16,29.8
			c0,0.2,0,0.4,0.2,0.5c0.2,0.1,0.4,0.1,0.5,0l3.3-1.7l3.3,1.7c0.2,0.1,0.4,0.1,0.5,0c0.2-0.1,0.2-0.3,0.2-0.5l-0.6-3.6l2.6-2.6
			c0.1-0.1,0.2-0.3,0.1-0.5c-0.1-0.2-0.2-0.3-0.4-0.3l-3.7-0.5l-1.6-3.3C20.4,18.7,20.2,18.6,20,18.6z"/>
	</g>
	<g>
		<path class="st0" d="M35.1,40H4.9c-2.5,0-4.6-2-4.6-4.6V8.7c0-2.5,2-4.6,4.6-4.6h3.3V2.6C8.1,1.2,9.3,0,10.7,0H11
			c1.4,0,2.6,1.2,2.6,2.6v1.5h12.8V2.6C26.4,1.2,27.5,0,29,0h0.3c1.4,0,2.6,1.2,2.6,2.6v1.5h3.3c2.5,0,4.6,2,4.6,4.6v26.8
			C39.7,38,37.7,40,35.1,40z M4.9,5.6c-1.7,0-3.1,1.4-3.1,3.1v26.8c0,1.7,1.4,3.1,3.1,3.1h30.3c1.7,0,3.1-1.4,3.1-3.1V8.7
			c0-1.7-1.4-3.1-3.1-3.1h-4.8v-3c0-0.6-0.5-1.1-1.1-1.1H29c-0.6,0-1.1,0.5-1.1,1.1v3H12.1v-3c0-0.6-0.5-1.1-1.1-1.1h-0.3
			c-0.6,0-1.1,0.5-1.1,1.1v3H4.9z"/>
	</g>
	<g>
		<path class="st0" d="M32.6,35.7H7.4c-1.5,0-2.8-1.3-2.8-2.8V16.2c0-1.5,1.3-2.8,2.8-2.8h25.2c1.5,0,2.8,1.3,2.8,2.8v16.7
			C35.4,34.4,34.1,35.7,32.6,35.7z M7.4,14.8c-0.7,0-1.3,0.6-1.3,1.3v16.7c0,0.7,0.6,1.3,1.3,1.3h25.2c0.7,0,1.3-0.6,1.3-1.3V16.2
			c0-0.7-0.6-1.3-1.3-1.3H7.4z"/>
	</g>
</g>
</svg>
