<?xml version="1.0" encoding="utf-8"?>
<!-- Generator: Adobe Illustrator 18.0.0, SVG Export Plug-In . SVG Version: 6.00 Build 0)  -->
<!DOCTYPE svg PUBLIC "-//W3C//DTD SVG 1.1//EN" "http://www.w3.org/Graphics/SVG/1.1/DTD/svg11.dtd">
<svg version="1.1" id="Capa_1" xmlns="http://www.w3.org/2000/svg" xmlns:xlink="http://www.w3.org/1999/xlink" x="0px" y="0px"
	fill="#578ebe" viewBox="-127.6 -127.6 380 380" enable-background="new -127.6 -127.6 380 380" xml:space="preserve">
<g>
	<g>
		<path d="M19.2,116.6l-5.8,34.3c-0.8,4.7,1.1,9.4,5,12.2c3.8,2.8,9,3.2,13.2,1L62.4,148l30.9,16.1c1.8,0.9,3.8,1.4,5.8,1.4
			c2.6,0,5.2-0.8,7.4-2.4c3.8-2.8,5.8-7.5,5-12.2l-5.8-34.3l24.9-24.4c3.4-3.3,4.6-8.3,3.2-12.8c-1.5-4.5-5.4-7.8-10.1-8.5
			l-34.4-5.1L73.6,34.6c-2.1-4.3-6.5-7-11.2-7c-4.7,0-9.1,2.7-11.2,7L35.7,65.8L1.2,70.9c-4.7,0.7-8.6,4-10.1,8.5
			c-1.5,4.5-0.3,9.5,3.1,12.8L19.2,116.6z"/>
		<path d="M210.4-85.9H171v-21.9c0-10-8.1-18.2-18.2-18.2h-2.9c-10,0-18.2,8.1-18.2,18.2v21.9H-7.4v-21.9c0-10-8.1-18.2-18.2-18.2
			h-2.9c-10,0-18.2,8.1-18.2,18.2v21.9h-39c-20.6,0-37.4,16.8-37.4,37.4v261.9c0,20.6,16.8,37.4,37.4,37.4h296
			c20.6,0,37.4-16.8,37.4-37.4V-48.5C247.8-69.1,231-85.9,210.4-85.9z M205.5,208.5H-80.7V4.6h286.3V208.5z"/>
	</g>
</g>
</svg>
