<?xml version="1.0" encoding="utf-8"?>
<!-- Generator: Adobe Illustrator 19.2.0, SVG Export Plug-In . SVG Version: 6.00 Build 0)  -->
<svg version="1.1" id="Layer_1" xmlns="http://www.w3.org/2000/svg" xmlns:xlink="http://www.w3.org/1999/xlink" x="0px" y="0px"
	 viewBox="0 0 40 40" style="enable-background:new 0 0 40 40;" xml:space="preserve">
<style type="text/css">
	.st0{fill:#686868;}
</style>
<g>
	<g>
		<path class="st0" d="M25.7,22c-0.1-0.7-0.6-1.2-1.3-1.3l-1.8-0.3c-0.2-0.7-0.5-1.5-0.9-2.1l1.1-1.4c0.4-0.6,0.4-1.3-0.1-1.8
			c-0.5-0.6-1.1-1.2-1.7-1.7c-0.3-0.2-0.6-0.3-0.9-0.3c-0.3,0-0.6,0.1-0.9,0.3c-0.5,0.3-1.1,0.8-1.4,1.1c-0.7-0.4-1.4-0.7-2.1-0.9
			l-0.3-1.8c-0.1-0.7-0.7-1.2-1.3-1.3c-0.4,0-0.8-0.1-1.2-0.1c-0.4,0-0.8,0-1.2,0.1c-0.7,0.1-1.2,0.6-1.3,1.3l-0.3,1.8
			C9.4,13.7,8.7,14,8,14.4l-1.4-1.1C6.3,13.1,6,13,5.7,13c-0.3,0-0.7,0.1-1,0.3C4.1,13.9,3.5,14.4,3,15c-0.4,0.5-0.5,1.3,0,1.8
			L4,18.3c-0.4,0.7-0.7,1.4-0.9,2.1l-1.8,0.3c-0.7,0.1-1.2,0.7-1.3,1.3c-0.1,0.8-0.1,1.6,0,2.4c0.1,0.7,0.6,1.2,1.3,1.3
			C2,25.8,2.7,26,3.2,26c0.2,0.7,0.5,1.5,0.9,2.1L3,29.6c-0.4,0.5-0.4,1.3,0.1,1.8c0.5,0.6,1.1,1.2,1.7,1.7c0.3,0.2,0.6,0.3,0.9,0.3
			c0.3,0,0.6-0.1,0.9-0.3C7,32.8,7.6,32.4,8,32.1c0.7,0.4,1.4,0.7,2.1,0.9l0.3,1.8c0.1,0.7,0.7,1.2,1.3,1.3c0.4,0,0.8,0.1,1.2,0.1
			c0.4,0,0.8,0,1.2-0.1c0.7-0.1,1.2-0.6,1.3-1.3l0.3-1.8c0.7-0.2,1.4-0.5,2.1-0.9l1.4,1.1c0.3,0.2,0.6,0.3,0.9,0.3
			c0.3,0,0.7-0.1,1-0.3c0.6-0.5,1.2-1.1,1.7-1.7c0.4-0.5,0.5-1.3,0-1.8c-0.3-0.5-0.8-1.1-1.1-1.4c0.4-0.7,0.7-1.4,0.9-2.1l1.8-0.3
			c0.7-0.1,1.2-0.7,1.3-1.3C25.8,23.6,25.8,22.8,25.7,22z M24.5,24.3c0,0.1-0.1,0.3-0.3,0.3l-2.2,0.3c-0.2,0-0.4,0.2-0.5,0.4
			c-0.2,0.9-0.6,1.7-1,2.5c-0.1,0.2-0.1,0.5,0,0.7l1.3,1.8c0.1,0.1,0.1,0.3,0,0.4c-0.5,0.5-1,1.1-1.5,1.5c-0.1,0-0.1,0.1-0.2,0.1
			c-0.1,0-0.1,0-0.2-0.1l-1.8-1.3c-0.1-0.1-0.2-0.1-0.4-0.1c-0.1,0-0.2,0-0.3,0.1c-0.8,0.5-1.6,0.8-2.5,1c-0.2,0.1-0.4,0.2-0.4,0.5
			c0,0-0.2,1.3-0.3,2.2c0,0.1-0.1,0.2-0.3,0.3c-0.4,0-0.7,0.1-1.1,0.1c-0.4,0-0.7,0-1.1,0c-0.1,0-0.3-0.1-0.3-0.3l-0.3-2.2
			c0-0.2-0.2-0.4-0.4-0.5c-0.9-0.2-1.7-0.6-2.5-1c-0.1-0.1-0.2-0.1-0.3-0.1c-0.1,0-0.3,0-0.4,0.1l-1.8,1.3c-0.1,0-0.1,0.1-0.2,0.1
			c-0.1,0-0.1,0-0.2-0.1c-0.5-0.5-1.1-1-1.5-1.5c-0.1-0.1-0.1-0.3,0-0.4l1.3-1.8c0.1-0.2,0.2-0.5,0-0.7c-0.5-0.8-0.8-1.6-1-2.5
			C4.2,25.1,4,25,3.7,24.9c0,0-1.3-0.2-2.2-0.3c-0.1,0-0.2-0.1-0.3-0.3c-0.1-0.7-0.1-1.4,0-2.2c0-0.1,0.1-0.3,0.3-0.3l2.2-0.3
			c0.2,0,0.4-0.2,0.5-0.4c0.2-0.9,0.6-1.7,1-2.5c0.1-0.2,0.1-0.5,0-0.7c0,0-0.8-1.1-1.3-1.8c-0.1-0.1-0.1-0.3,0-0.4
			c0.5-0.6,1-1.1,1.5-1.5c0.1,0,0.1-0.1,0.2-0.1c0.1,0,0.1,0,0.2,0.1l1.8,1.3c0.1,0.1,0.2,0.1,0.4,0.1c0.1,0,0.2,0,0.3-0.1
			c0.8-0.5,1.6-0.8,2.5-1c0.2-0.1,0.4-0.2,0.4-0.5l0.3-2.2c0-0.1,0.1-0.2,0.3-0.3c0.4,0,0.7-0.1,1.1-0.1c0.4,0,0.7,0,1.1,0
			c0.1,0,0.3,0.1,0.3,0.3l0.3,2.2c0,0.2,0.2,0.4,0.4,0.5c0.9,0.2,1.7,0.6,2.5,1c0.1,0.1,0.2,0.1,0.3,0.1c0.1,0,0.2,0,0.4-0.1
			l1.8-1.3c0.1,0,0.1-0.1,0.2-0.1c0.1,0,0.1,0,0.2,0.1c0.6,0.5,1.1,1,1.5,1.5c0.1,0.1,0.1,0.3,0,0.4l-1.3,1.8
			c-0.1,0.2-0.2,0.5,0,0.7c0.5,0.8,0.8,1.6,1,2.5c0.1,0.2,0.2,0.4,0.5,0.4c0,0,1.3,0.2,2.2,0.3c0.1,0,0.2,0.1,0.3,0.3
			C24.6,22.9,24.6,23.6,24.5,24.3z"/>
		<path class="st0" d="M12.9,19.1c-2.3,0-4.1,1.9-4.1,4.1s1.9,4.1,4.1,4.1s4.1-1.9,4.1-4.1S15.2,19.1,12.9,19.1z M12.9,26.2
			c-1.6,0-3-1.3-3-3c0-1.6,1.3-3,3-3c1.6,0,3,1.3,3,3C15.9,24.9,14.5,26.2,12.9,26.2z"/>
		<path class="st0" d="M10.7,17.2c0-0.3-0.3-0.5-0.6-0.5c0,0-0.1,0-0.1,0c0,0-3.1,0.5-3.7,3.6c-0.1,0.3,0.2,0.6,0.5,0.7
			c0,0,0.1,0,0.1,0c0.3,0,0.5-0.2,0.6-0.5c0.4-2.3,2.6-2.7,2.7-2.7C10.6,17.9,10.8,17.6,10.7,17.2z"/>
	</g>
	<path class="st0" d="M30.6,21c-0.3,0-0.5,0.3-0.8,0.2c-0.3,0-0.5,0.1-0.8,0c-0.5-0.1-0.9-0.5-0.9-1l0-1c-0.4-0.2-0.7-0.3-1.1-0.6
		l-0.9,0.5c-0.2,0.1-0.4,0.2-0.6,0.2c0,0-0.1,0-0.1,0c-0.3,0-0.5-0.1-0.7-0.3c-0.4-0.4-0.7-0.8-1-1.2c-0.3-0.5-0.3-1,0.1-1.4
		l0.7-0.7c-0.2-0.4-0.3-0.8-0.4-1.2c-0.3-0.1-0.7-0.2-1-0.3c-0.5-0.1-0.9-0.6-0.9-1.1c0-0.5,0.1-1,0.2-1.6c0.1-0.5,0.6-0.9,1.1-0.9
		l1-0.1c0.2-0.4,0.4-0.7,0.6-1.1l-0.5-0.9c-0.3-0.5-0.2-1,0.2-1.4c0.4-0.4,0.8-0.7,1.2-1C26.2,6,26.4,6,26.6,6c0,0,0.1,0,0.1,0
		c0.3,0,0.5,0.1,0.7,0.3l0.7,0.7c0.4-0.2,0.8-0.3,1.2-0.4l0.3-1c0.1-0.5,0.6-0.9,1.1-0.9c0.3,0,0.5,0,0.8,0c0.3,0,0.5,0.1,0.8,0.1
		C32.8,5,33.2,5.4,33.2,6l0.1,1c0.4,0.2,0.7,0.4,1.1,0.6l0.9-0.5c0.2-0.1,0.4-0.2,0.6-0.2c0,0,0.1,0,0.1,0c0.3,0,0.5,0.1,0.7,0.3
		c0.4,0.4,0.7,0.8,1,1.2c0.3,0.5,0.3,1-0.1,1.4l-0.7,0.7c0.2,0.4,0.3,0.8,0.4,1.2l1,0.3c0.5,0.1,0.9,0.6,0.9,1.1
		c0,0.5-0.1,1-0.2,1.6c-0.1,0.5-0.6,0.9-1.1,0.9l-1,0c-0.2,0.4-0.4,0.7-0.6,1.1c0.2,0.3,0.4,0.6,0.5,0.9c0.3,0.5,0.2,1-0.2,1.4
		c-0.4,0.4-0.8,0.7-1.2,1c-0.2,0.1-0.4,0.2-0.7,0.2l0,0c0,0-0.1,0-0.1,0c-0.3,0-0.5-0.1-0.7-0.3l-0.7-0.7c-0.4,0.2-0.8,0.3-1.2,0.4
		l-0.3,0.7C31.6,20.9,31.1,21,30.6,21L30.6,21z M27.1,17.4c0.1,0,0.2,0.1,0.3,0.1c0.4,0.3,0.9,0.6,1.5,0.8c0.2,0.1,0.4,0.3,0.4,0.5
		l0.1,1.4c0.2,0,0.4,0.1,0.6,0.1c0.2,0,0.4,0,0.7,0c0.1-0.5,0.3-1.3,0.3-1.3c0.1-0.2,0.3-0.4,0.5-0.4c0.6-0.1,1.1-0.2,1.6-0.5
		c0.1,0,0.2-0.1,0.3-0.1l0.1,0c0.1,0,0.2,0.1,0.3,0.2l1,0.9c0.3-0.3,0.7-0.5,1-0.8L35,17.1c-0.1-0.2-0.1-0.5,0-0.7
		c0.3-0.4,0.6-0.9,0.8-1.5c0.1-0.2,0.3-0.4,0.5-0.4l1.4-0.1c0.1-0.4,0.1-0.9,0.1-1.3l-1.3-0.3c-0.2-0.1-0.4-0.3-0.4-0.5
		c-0.1-0.6-0.2-1.1-0.5-1.6c-0.1-0.2-0.1-0.5,0.1-0.7l0.9-1c-0.3-0.3-0.5-0.7-0.8-1l-1.2,0.7c-0.1,0.1-0.2,0.1-0.3,0.1l-0.1,0
		c-0.1,0-0.2-0.1-0.3-0.1C33.5,8.4,33,8.1,32.5,8c-0.2-0.1-0.4-0.3-0.4-0.5L32,6C31.8,6,31.6,6,31.4,6c-0.2,0-0.5,0-0.7,0l-0.3,1.3
		c-0.1,0.2-0.3,0.4-0.5,0.4c-0.6,0.1-1.1,0.2-1.6,0.5c-0.1,0-0.2,0.1-0.3,0.1l-0.1,0c-0.1,0-0.2-0.1-0.3-0.2l-1-0.9
		c-0.3,0.2-0.7,0.5-1,0.8l0.7,1.2c0.1,0.2,0.1,0.5,0,0.7c-0.3,0.4-0.6,0.9-0.8,1.5c-0.1,0.2-0.3,0.4-0.5,0.4l-1.4,0.1
		c-0.1,0.4-0.1,0.9-0.1,1.3l1.3,0.3c0.2,0.1,0.4,0.3,0.4,0.5c0.1,0.6,0.2,1.1,0.5,1.6c0.1,0.2,0.1,0.5-0.1,0.7l-0.9,1
		c0.3,0.3,0.5,0.7,0.8,1l1.2-0.7C26.8,17.4,26.9,17.4,27.1,17.4L27.1,17.4z"/>
	<path class="st0" d="M30.7,16c-0.1,0-0.2,0-0.3,0c-1.6-0.2-2.7-1.6-2.6-3.1c0.2-1.5,1.4-2.6,2.8-2.6c0.1,0,0.2,0,0.3,0
		c0.8,0.1,1.4,0.4,1.9,1c0.5,0.6,0.7,1.3,0.6,2.1C33.4,14.9,32.1,16,30.7,16L30.7,16z M30.7,11.5c-0.9,0-1.6,0.6-1.7,1.5
		c0,0.4,0.1,0.9,0.4,1.2s0.7,0.6,1.1,0.6c0.1,0,0.1,0,0.2,0c0.9,0,1.6-0.6,1.7-1.5c0.1-0.9-0.6-1.7-1.5-1.8
		C30.8,11.5,30.7,11.5,30.7,11.5z"/>
	<path class="st0" d="M27,11.6c0,0-0.1,0-0.1,0c-0.1,0-0.3-0.1-0.4-0.3c-0.1-0.1-0.1-0.3-0.1-0.5c0.6-2.2,2.7-2.2,2.8-2.2l0.1,0
		c0.3,0,0.5,0.3,0.5,0.6c0,0.2-0.1,0.3-0.2,0.4c-0.1,0.1-0.3,0.2-0.4,0.2c-0.1,0-1.3,0.1-1.7,1.4C27.6,11.4,27.4,11.6,27,11.6
		L27,11.6z"/>
</g>
</svg>
