<?xml version="1.0" encoding="utf-8"?>
<!-- Generator: Adobe Illustrator 19.2.0, SVG Export Plug-In . SVG Version: 6.00 Build 0)  -->
<svg version="1.1" id="Layer_1" xmlns="http://www.w3.org/2000/svg" xmlns:xlink="http://www.w3.org/1999/xlink" x="0px" y="0px"
	 viewBox="0 0 40 40" style="enable-background:new 0 0 40 40;" xml:space="preserve">
<style type="text/css">
	.st0{fill:#FFFFFF;}
</style>
<g>
	<g>
		<g>
			<path class="st0" d="M39.9,19.7c0-0.1-0.1-0.2-0.2-0.3l-6.8-6.6c-0.2-0.2-0.4-0.3-0.6-0.3c-0.2,0-0.5,0.1-0.6,0.3
				c-0.2,0.2-0.3,0.4-0.3,0.6c0,0.2,0.1,0.5,0.3,0.6l3.6,3.5c0.3,0.3,0.4,0.7,0.2,1c-0.2,0.3-0.5,0.6-0.9,0.6H15.9
				c-0.5,0-0.9,0.3-0.9,0.8c0,0.5,0.4,0.8,0.9,0.8h18.6c0.4,0,0.7,0.3,0.9,0.6c0.2,0.3,0.1,0.8-0.2,1.1l-3.6,3.5
				c-0.2,0.2-0.3,0.4-0.3,0.6c0,0.2,0.1,0.5,0.3,0.6c0.2,0.2,0.4,0.3,0.6,0.3s0.5-0.1,0.6-0.3l6.8-6.6c0.1-0.1,0.2-0.2,0.2-0.3
				c0-0.1,0.1-0.2,0.1-0.3C40,19.9,40,19.8,39.9,19.7z M26.3,25.3c-0.2,0-0.4,0.1-0.5,0.2l0,4.9c0,1.9-1.6,3.4-3.5,3.4H5.2
				c-1.9,0-3.5-1.6-3.5-3.4V9.8c0-1.8,1.6-3.4,3.5-3.4h17.2c1.9,0,3.5,1.5,3.5,3.4l0,4.9c0.2,0.1,0.3,0.2,0.5,0.2
				c0.5,0,0.9-0.4,0.9-0.9V9.8c0-2.8-2.4-5.1-5.3-5.1H5.2C2.2,4.6,0,6.9,0,9.8v20.5c0,2.9,2.2,5,5.2,5h16.8c2.9,0,5.3-2.3,5.3-5.1
				l0-4.1C27.2,25.7,26.8,25.3,26.3,25.3z"/>
		</g>
	</g>
</g>
</svg>
