<?xml version="1.0" encoding="utf-8"?>
<!-- Generator: Adobe Illustrator 19.2.0, SVG Export Plug-In . SVG Version: 6.00 Build 0)  -->
<svg version="1.1" id="Layer_1" xmlns="http://www.w3.org/2000/svg" xmlns:xlink="http://www.w3.org/1999/xlink" x="0px" y="0px"
	 viewBox="0 0 20 20" style="enable-background:new 0 0 20 20;" xml:space="preserve">
<style type="text/css">
	.st0{fill:#484D55;}
</style>
<g>
	<g>
		<path class="st0" d="M17.4,12.1V7.9c0.9-0.2,1.5-0.9,1.5-1.9c0-1.1-0.9-1.9-1.9-1.9c-0.6,0-1.1,0.3-1.4,0.7l-3.8-2.2
			c0.1-0.2,0.1-0.4,0.1-0.6C11.9,0.9,11.1,0,10,0C8.9,0,8.1,0.9,8.1,1.9c0,0.2,0,0.4,0.1,0.6L4.4,4.7C4.1,4.3,3.5,4.1,3,4.1
			C1.9,4.1,1.1,4.9,1.1,6c0,0.9,0.6,1.7,1.5,1.9l0,4.3c-0.9,0.2-1.5,1-1.5,1.9c0,1.1,0.9,1.9,1.9,1.9c0.6,0,1.1-0.2,1.4-0.6l3.8,2.2
			c-0.1,0.2-0.1,0.4-0.1,0.6c0,1.1,0.9,1.9,1.9,1.9c1.1,0,1.9-0.9,1.9-1.9c0-0.2,0-0.4-0.1-0.6l3.8-2.2c0.4,0.4,0.9,0.6,1.4,0.6
			c1.1,0,1.9-0.9,1.9-1.9C18.9,13.1,18.3,12.3,17.4,12.1z M17,4.8c0.6,0,1.2,0.5,1.2,1.2c0,0.6-0.5,1.2-1.2,1.2
			c-0.6,0-1.2-0.5-1.2-1.2C15.9,5.3,16.4,4.8,17,4.8z M10,0.7c0.6,0,1.2,0.5,1.2,1.2c0,0.2,0,0.4-0.1,0.6c0,0,0,0,0,0l0,0
			c-0.2,0.3-0.6,0.6-1,0.6c-0.6,0-1.2-0.5-1.2-1.2C8.8,1.3,9.4,0.7,10,0.7z M1.8,6c0-0.6,0.5-1.2,1.2-1.2c0.6,0,1.2,0.5,1.2,1.2
			c0,0.6-0.5,1.2-1.2,1.2C2.3,7.2,1.8,6.6,1.8,6z M3,15.2c-0.6,0-1.2-0.5-1.2-1.2c0-0.6,0.5-1.2,1.2-1.2c0.6,0,1.2,0.5,1.2,1.2
			C4.1,14.7,3.6,15.2,3,15.2z M10,19.3c-0.6,0-1.2-0.5-1.2-1.2c0-0.6,0.5-1.2,1.2-1.2c0.6,0,1.2,0.5,1.2,1.2
			C11.2,18.7,10.7,19.3,10,19.3z M15.1,14c0,0.2,0,0.4,0.1,0.6l-3.8,2.2c-0.4-0.4-0.9-0.7-1.5-0.7s-1.1,0.3-1.5,0.7l-3.8-2.2
			c0.1-0.2,0.1-0.4,0.1-0.6c0-0.9-0.7-1.7-1.6-1.9l0-4.3C4.2,7.7,4.9,6.9,4.9,6c0-0.2,0-0.4-0.1-0.6l3.8-2.2C8.9,3.6,9.4,3.8,10,3.8
			c0.6,0,1.1-0.3,1.4-0.7l3.8,2.2c-0.1,0.2-0.1,0.4-0.1,0.6c0,0.9,0.7,1.7,1.5,1.9v4.3C15.8,12.3,15.1,13.1,15.1,14z M17,15.2
			c-0.6,0-1.2-0.5-1.2-1.2c0-0.6,0.5-1.2,1.2-1.2c0.6,0,1.2,0.5,1.2,1.2C18.2,14.7,17.7,15.2,17,15.2z M11.8,11.5v-1.3
			c0.2-0.2,0.4-0.5,0.4-0.8V7.6c0-1.1-0.9-1.9-1.9-1.9H9.8c-1.1,0-1.9,0.9-1.9,1.9v1.8c0,0.3,0.1,0.6,0.4,0.8v1.3
			c-0.4,0.2-1.4,0.8-2.4,1.6c-0.2,0.1-0.2,0.4,0,0.5c0.1,0.2,0.4,0.2,0.5,0c1.1-0.9,2.2-1.4,2.4-1.6C8.9,12,9,11.8,9,11.7V10
			c0-0.1-0.1-0.2-0.2-0.3C8.7,9.6,8.6,9.5,8.6,9.3V7.6c0-0.7,0.5-1.2,1.2-1.2h0.4c0.7,0,1.2,0.5,1.2,1.2v1.8c0,0.1-0.1,0.3-0.2,0.4
			c-0.1,0.1-0.2,0.2-0.2,0.3v1.7c0,0.2,0.1,0.3,0.3,0.4c0.2,0.1,1.4,0.7,2.4,1.6c0.1,0.1,0.2,0.1,0.2,0.1c0.1,0,0.2,0,0.3-0.1
			c0.1-0.2,0.1-0.4,0-0.5C13.2,12.3,12.2,11.7,11.8,11.5z"/>
	</g>
</g>
</svg>
