<?xml version="1.0" encoding="utf-8"?>
<!-- Generator: Adobe Illustrator 19.2.0, SVG Export Plug-In . SVG Version: 6.00 Build 0)  -->
<svg version="1.1" id="Layer_1" xmlns="http://www.w3.org/2000/svg" xmlns:xlink="http://www.w3.org/1999/xlink" x="0px" y="0px"
	 viewBox="0 0 40 40" style="enable-background:new 0 0 40 40;" xml:space="preserve">
<style type="text/css">
	.st0{fill:#686868;}
</style>
<g>
	<path class="st0" d="M31.5,32.2c0.2-0.1,0.3-0.3,0.3-0.5V3.4c0-0.4-0.3-0.7-0.7-0.7H11.3C10.8,1.2,9.3,0,7.5,0
		C5.8,0,4.3,1.1,3.8,2.7H1.6C1.3,2.7,1,3,1,3.4v35.9C1,39.7,1.3,40,1.6,40h21.7c0.2,0,0.4-0.1,0.5-0.3L31.5,32.2z M24.1,37.7v-5.3
		h5.3L24.1,37.7z M7.5,1.4c1,0,1.8,0.6,2.2,1.4H5.3C5.7,1.9,6.6,1.4,7.5,1.4L7.5,1.4z M2.3,4.1h7.7v4.8c0,0.6-0.5,1.1-1.1,1.1
		c-0.6,0-1.1-0.5-1.1-1.1V6.2c0-0.4-0.3-0.7-0.7-0.7c-0.4,0-0.7,0.3-0.7,0.7v2.7c0,1.4,1.1,2.5,2.5,2.5c1.4,0,2.5-1.1,2.5-2.5V4.1
		h18.9V31h-7c-0.4,0-0.7,0.3-0.7,0.7v7H2.3V4.1z M2.3,4.1"/>
	<path class="st0" d="M25.6,28.6c0.4,0,0.7-0.3,0.7-0.7c0-0.4-0.3-0.7-0.7-0.7H7.1c-0.4,0-0.7,0.3-0.7,0.7c0,0.4,0.3,0.7,0.7,0.7
		H25.6z M25.6,28.6"/>
	<path class="st0" d="M7.1,24.5h18.5c0.4,0,0.7-0.3,0.7-0.7c0-0.4-0.3-0.7-0.7-0.7H7.1c-0.4,0-0.7,0.3-0.7,0.7
		C6.4,24.2,6.7,24.5,7.1,24.5L7.1,24.5z M7.1,24.5"/>
	<path class="st0" d="M7.1,20.4h18.5c0.4,0,0.7-0.3,0.7-0.7c0-0.4-0.3-0.7-0.7-0.7H7.1c-0.4,0-0.7,0.3-0.7,0.7
		C6.4,20.1,6.7,20.4,7.1,20.4L7.1,20.4z M7.1,20.4"/>
	<path class="st0" d="M7.1,16.3h18.5c0.4,0,0.7-0.3,0.7-0.7c0-0.4-0.3-0.7-0.7-0.7H7.1c-0.4,0-0.7,0.3-0.7,0.7
		C6.4,16,6.7,16.3,7.1,16.3L7.1,16.3z M7.1,16.3"/>
	<path class="st0" d="M34.7,2.7h-0.9c-0.4,0-0.7,0.3-0.7,0.7s0.3,0.7,0.7,0.7H34v34.5h-7.3c-0.4,0-0.7,0.3-0.7,0.7s0.3,0.7,0.7,0.7
		h8c0.4,0,0.7-0.3,0.7-0.7V3.4C35.4,3,35.1,2.7,34.7,2.7L34.7,2.7z M34.7,2.7"/>
	<path class="st0" d="M38.4,2.7h-0.9c-0.4,0-0.7,0.3-0.7,0.7s0.3,0.7,0.7,0.7h0.2v34.5h-0.2c-0.4,0-0.7,0.3-0.7,0.7s0.3,0.7,0.7,0.7
		h0.9c0.4,0,0.7-0.3,0.7-0.7V3.4C39,3,38.7,2.7,38.4,2.7L38.4,2.7z M38.4,2.7"/>
</g>
</svg>
