<?xml version="1.0" encoding="utf-8"?>
<!-- Generator: Adobe Illustrator 19.2.0, SVG Export Plug-In . SVG Version: 6.00 Build 0)  -->
<svg version="1.1" id="Layer_1" xmlns="http://www.w3.org/2000/svg" xmlns:xlink="http://www.w3.org/1999/xlink" x="0px" y="0px"
	 viewBox="0 0 40 40" style="enable-background:new 0 0 40 40;" xml:space="preserve">
<style type="text/css">
	.st0{fill:#626975;}
</style>
<g>
	<g>
		<path class="st0" d="M38.8,5H13.5c-0.7,0-1.2,0.5-1.2,1.2v2c0,0.7,0.5,1.2,1.2,1.2h25.3c0.7,0,1.2-0.5,1.2-1.2v-2
			C40,5.5,39.5,5,38.8,5z M38.9,7.6c0,0.7-0.5,1.2-1.2,1.2H27.3c-0.7,0-1.2-0.5-1.2-1.2V6.9c0-0.7,0.5-1.2,1.2-1.2h10.3
			c0.7,0,1.2,0.5,1.2,1.2V7.6z M38.8,19.3H13.5c-0.7,0-1.2,0.5-1.2,1.2v2c0,0.7,0.5,1.2,1.2,1.2h25.3c0.7,0,1.2-0.5,1.2-1.2v-2
			C40,19.9,39.5,19.3,38.8,19.3z M38.9,21.9c0,0.7-0.5,1.2-1.2,1.2h-2.8c-0.7,0-1.2-0.5-1.2-1.2v-0.7c0-0.7,0.5-1.2,1.2-1.2h2.8
			c0.7,0,1.2,0.5,1.2,1.2V21.9z M38.8,33.7H13.5c-0.7,0-1.2,0.5-1.2,1.2v2c0,0.7,0.5,1.2,1.2,1.2h25.3c0.7,0,1.2-0.5,1.2-1.2v-2
			C40,34.2,39.5,33.7,38.8,33.7z M38.9,37.4H20.7c-0.7,0-1.2-0.5-1.2-1.2v-0.7c0-0.7,0.5-1.2,1.2-1.2h17c0.7,0,1.2,0.5,1.2,1.2V37.4
			z M7.3,8C7.1,7.9,6.8,7.7,6.8,7.5V7.2c0-0.4,0.8-1.1,1-1.9c0.4-0.1,0.5-0.6,0.5-1c0-0.4,0.2-0.7-0.7-0.8V3.3c0-0.2,0-1.5-0.9-2.4
			C6.3,0.4,5.5,0.1,4.7,0.1c-0.8,0-1.6,0.3-2.1,0.8C1.8,1.8,1.7,3.2,1.7,3.3v0.2c0,0.1-0.5,0.4-0.5,0.8c0,0.4,0.5,0.9,0.9,1
			c0.2,0.8,0.5,1.4,1.3,1.9v0.3C2.5,7.7,2.7,7.9,2.5,8C0.2,8.7,0,10.1,0,10.3v0.6c0,0.2,0.3,0.9,0.5,0.9H9c0.2,0,0.4-0.7,0.4-0.9
			v-0.6C9.3,10.2,9.6,8.7,7.3,8z M3.3,1.5c0.3-0.4,0.8-0.5,1.4-0.5c0.6,0,1.1,0.2,1.4,0.5c0.4,0.4,0.6,1,0.6,1.4
			C5.7,2.8,4.9,2.2,4.9,2.2c-0.1,0-0.2-0.1-0.2-0.1c-0.1,0-0.1,0-0.2,0C4.3,2.2,4.2,2.4,4.2,2.5c0,0,0,0-0.1,0.1
			C3.9,2.6,3.7,2.7,3.4,2.8c-0.2,0-0.5,0.1-0.7,0.1C2.8,2.5,2.9,1.9,3.3,1.5z M2.7,4.9c0-0.1-0.1-0.3-0.1-0.4V3.7
			c0,0,0.6-0.1,0.9-0.1c0.6-0.1,1.1-0.3,1.3-0.5c0.4,0.2,1.2,0.5,2,0.6v0.8c0,0.1,0,0.3,0,0.4C6.7,5.7,6.3,6.3,5.7,6.6
			C5.4,6.8,5.1,6.8,4.7,6.8c-0.3,0-0.7-0.1-0.9-0.2C3.2,6.3,2.8,5.7,2.7,4.9z M0.8,10.9v-0.6c0,0,0.1-0.2,0.3-0.5
			c0.4-0.5,1.1-0.8,1.6-1c0,0,0.5-0.3,0.9-0.5c0,0,0.1,0.1,0.1,0.1L3.5,9.1c0,0.1,0,0.3,0,0.4l0.4,1.4H0.8z M4.8,10.1L4.8,10.1
			L4.3,9l0.2-0.3c0.1,0,0.2,0,0.3,0S4.9,8.6,5,8.5L5.2,9L4.8,10.1z M5.1,7.7C5,7.8,4.9,7.8,4.7,7.8c-0.1,0-0.3,0-0.4-0.1
			c-0.1,0-0.2-0.1-0.3-0.2c0.2,0,0.4,0.1,0.6,0.1c0.2,0,0.4,0,0.6-0.1C5.3,7.6,5.2,7.7,5.1,7.7z M8.5,10.3v0.6H5.7L6,9.5
			c0-0.1,0-0.4,0-0.5L5.8,8.3c0,0,0.1,0,0.1-0.1c0.3,0.2,0.8,0.5,0.9,0.5c1,0.3,1.4,0.7,1.6,1C8.5,10,8.5,10.3,8.5,10.3z M7.3,22.3
			c-0.2-0.1-0.5-0.3-0.5-0.5v-0.3c0-0.4,0.8-1.1,1-1.9c0.4-0.1,0.5-0.6,0.5-1c0-0.4,0.2-0.7-0.7-0.8v-0.2c0-0.2,0-1.5-0.9-2.4
			c-0.5-0.5-1.2-0.8-2.1-0.8c-0.8,0-1.6,0.3-2.1,0.8c-0.9,0.9-0.9,2.3-0.9,2.4v0.2c0,0.1-0.5,0.4-0.5,0.8c0,0.4,0.5,0.9,0.9,1
			c0.2,0.8,0.5,1.4,1.3,1.9v0.3c-0.8,0.2-0.7,0.4-0.9,0.5C0.2,23,0,24.4,0,24.5v0.6c0,0.2,0.3,0.3,0.5,0.3H9c0.2,0,0.4-0.1,0.4-0.3
			v-0.6C9.3,24.5,9.6,23,7.3,22.3z M3.3,15.7c0.3-0.4,0.8-0.5,1.4-0.5c0.6,0,1.1,0.2,1.4,0.5c0.4,0.4,0.6,1,0.6,1.4
			c-1.1-0.1-1.9-0.7-1.9-0.7c-0.1,0-0.2-0.1-0.2-0.1c-0.1,0-0.1,0-0.2,0c-0.1,0.1-0.2,0.2-0.2,0.3c0,0,0,0-0.1,0.1
			C3.9,16.9,3.7,17,3.4,17c-0.2,0-0.5,0.1-0.7,0.1C2.8,16.7,2.9,16.2,3.3,15.7z M2.7,19.2c0-0.1-0.1-0.3-0.1-0.4V18
			c0,0,0.6-0.1,0.9-0.1c0.6-0.1,1.1-0.3,1.3-0.5c0.4,0.2,1.2,0.5,2,0.6v0.8c0,0.1,0,0.3,0,0.4c-0.1,0.8-0.5,1.4-1.1,1.7
			c-0.3,0.1-0.6,0.2-0.9,0.2c-0.3,0-0.7-0.1-0.9-0.2C3.2,20.6,2.8,20,2.7,19.2z M0.9,24.6c0,0,0.1-0.2,0.3-0.5
			c0.4-0.5,1.1-0.9,1.6-1c0,0,0.5-0.3,0.9-0.5c0,0,0.1,0,0.1,0.1l-0.2,0.7c0,0.1,0,0.1,0,0.2l0.4,1.1H0.9z M4.8,24.6L4.8,24.6
			l-0.5-1.2l0.2-0.4c0.1,0,0.2,0,0.3,0s0.2,0,0.3,0l0.2,0.5L4.8,24.6z M5.1,22c-0.1,0.1-0.2,0.1-0.4,0.1c-0.1,0-0.3,0-0.4-0.1
			c-0.1,0-0.2-0.1-0.3-0.2c0.2,0,0.4,0.1,0.6,0.1c0.2,0,0.4,0,0.6-0.1C5.3,21.9,5.2,22,5.1,22z M8.5,24.5L8.5,24.5l-2.8,0L6,23.5
			c0-0.1,0-0.1,0-0.2l-0.2-0.7c0,0,0.1,0,0.1-0.1C6.2,22.8,6.7,23,6.7,23c1,0.3,1.4,0.7,1.6,1C8.5,24.3,8.5,24.5,8.5,24.5z
			 M7.3,36.5c-0.2-0.1-0.5-0.3-0.5-0.5v-0.3c0-0.4,0.8-1.1,1-1.9c0.4-0.1,0.5-0.6,0.5-1c0-0.4,0.2-0.7-0.7-0.8v-0.2
			c0-0.2,0-1.5-0.9-2.4c-0.5-0.5-1.2-0.8-2.1-0.8c-0.8,0-1.6,0.3-2.1,0.8c-0.9,0.9-0.9,2.3-0.9,2.4v0.2c0,0.1-0.5,0.4-0.5,0.8
			c0,0.4,0.5,0.9,0.9,1c0.2,0.8,0.5,1.4,1.3,1.9v0.3c-0.8,0.2-0.7,0.4-0.9,0.5C0.2,37.3,0,38.7,0,38.8v0.6c0,0.2,0.3,0.5,0.5,0.5H9
			c0.2,0,0.4-0.3,0.4-0.5v-0.6C9.3,38.8,9.6,37.3,7.3,36.5z M3.3,30c0.3-0.4,0.8-0.5,1.4-0.5c0.6,0,1.1,0.2,1.4,0.5
			c0.4,0.4,0.6,1,0.6,1.4c-1.1-0.1-1.9-0.7-1.9-0.7c-0.1,0-0.2-0.1-0.2-0.1c-0.1,0-0.1,0-0.2,0c-0.1,0.1-0.2,0.2-0.2,0.3
			c0,0,0,0-0.1,0.1c-0.2,0.1-0.4,0.1-0.7,0.2c-0.2,0-0.5,0.1-0.7,0.1C2.8,31,2.9,30.4,3.3,30z M2.7,33.5c0-0.1-0.1-0.3-0.1-0.4v-0.9
			c0,0,0.6-0.1,0.9-0.1c0.6-0.1,1.1-0.3,1.3-0.5c0.4,0.2,1.2,0.5,2,0.6v0.8c0,0.1,0,0.3,0,0.4c-0.1,0.8-0.5,1.4-1.1,1.7
			c-0.3,0.1-0.6,0.2-0.9,0.2c-0.3,0-0.7-0.1-0.9-0.2C3.2,34.9,2.8,34.3,2.7,33.5z M0.8,39v-0.2c0,0,0.1-0.2,0.3-0.5
			c0.4-0.5,1.1-0.9,1.6-1c0,0,0.5-0.3,0.9-0.5c0,0,0.1,0,0.1,0.1l-0.2,0.7c0,0.1,0,0.2,0,0.3L3.8,39H0.8z M4.8,39L4.8,39l-0.5-1.3
			l0.2-0.5c0.1,0,0.2,0,0.3,0s0.2,0,0.3,0l0.2,0.5L4.8,39z M5.1,36.3c-0.1,0.1-0.2,0.1-0.4,0.1c-0.1,0-0.3,0-0.4-0.1
			c-0.1,0-0.2-0.1-0.3-0.2c0.2,0,0.4,0.1,0.6,0.1c0.2,0,0.4,0,0.6-0.1C5.3,36.2,5.2,36.3,5.1,36.3z M8.5,38.8V39H5.7L6,37.9
			c0-0.1,0-0.2,0-0.3l-0.2-0.7c0,0,0.1,0,0.1-0.1c0.3,0.2,0.8,0.5,0.9,0.5c1,0.3,1.4,0.7,1.6,1C8.5,38.6,8.5,38.8,8.5,38.8z"/>
	</g>
</g>
</svg>
