<?xml version="1.0" encoding="utf-8"?>
<!-- Generator: Adobe Illustrator 19.2.0, SVG Export Plug-In . SVG Version: 6.00 Build 0)  -->
<svg version="1.1" id="Layer_1" xmlns="http://www.w3.org/2000/svg" xmlns:xlink="http://www.w3.org/1999/xlink" x="0px" y="0px"
	 viewBox="0 0 40 40" style="enable-background:new 0 0 40 40;" xml:space="preserve">
<style type="text/css">
	.st0{fill:#FFFFFF;}
</style>
<g transform="translate(1 1)">
	<path class="st0" d="M35.7,39H10.3c-0.4,0-0.7-0.3-0.7-0.7V-0.3C9.7-0.7,9.9-1,10.3-1h25.3c1.1,0,2,0.9,2,2v36
		C37.7,38.1,36.8,39,35.7,39z M11,37.7h24.7c0.4,0,0.7-0.3,0.7-0.7V1c0-0.4-0.3-0.7-0.7-0.7H11V37.7z"/>
	<path class="st0" d="M10.3,39H5c-1.1,0-2-0.9-2-2V1c0-1.1,0.9-2,2-2h5.3C10.7-1,11-0.7,11-0.3v38.7C11,38.7,10.7,39,10.3,39z
		 M5,0.3C4.6,0.3,4.3,0.6,4.3,1v36c0,0.4,0.3,0.7,0.7,0.7h4.7V0.3H5z"/>
	<path class="st0" d="M3.7,7.7c-1.9,0-3.3-1.5-3.3-3.3S1.8,1,3.7,1S7,2.5,7,4.3C7,4.7,6.7,5,6.3,5C5.9,5,5.7,4.7,5.7,4.3
		c0-1.1-0.9-2-2-2s-2,0.9-2,2s0.9,2,2,2c0.4,0,0.7,0.3,0.7,0.7S4.1,7.7,3.7,7.7z"/>
	<path class="st0" d="M3.7,15c-1.9,0-3.3-1.5-3.3-3.3s1.5-3.3,3.3-3.3S7,9.8,7,11.7c0,0.4-0.3,0.7-0.7,0.7c-0.4,0-0.7-0.3-0.7-0.7
		c0-1.1-0.9-2-2-2s-2,0.9-2,2s0.9,2,2,2c0.4,0,0.7,0.3,0.7,0.7C4.3,14.7,4.1,15,3.7,15z"/>
	<path class="st0" d="M3.7,22.3c-1.9,0-3.3-1.5-3.3-3.3s1.5-3.3,3.3-3.3S7,17.1,7,19c0,0.4-0.3,0.7-0.7,0.7c-0.4,0-0.7-0.3-0.7-0.7
		c0-1.1-0.9-2-2-2s-2,0.9-2,2s0.9,2,2,2c0.4,0,0.7,0.3,0.7,0.7C4.3,22.1,4.1,22.3,3.7,22.3z"/>
	<path class="st0" d="M3.7,29.7c-1.9,0-3.3-1.5-3.3-3.3c0-1.9,1.5-3.3,3.3-3.3S7,24.5,7,26.3C7,26.7,6.7,27,6.3,27
		c-0.4,0-0.7-0.3-0.7-0.7c0-1.1-0.9-2-2-2s-2,0.9-2,2c0,1.1,0.9,2,2,2c0.4,0,0.7,0.3,0.7,0.7S4.1,29.7,3.7,29.7z"/>
	<path class="st0" d="M3.7,37c-1.9,0-3.3-1.5-3.3-3.3c0-1.9,1.5-3.3,3.3-3.3S7,31.8,7,33.7c0,0.4-0.3,0.7-0.7,0.7
		c-0.4,0-0.7-0.3-0.7-0.7c0-1.1-0.9-2-2-2s-2,0.9-2,2c0,1.1,0.9,2,2,2c0.4,0,0.7,0.3,0.7,0.7C4.3,36.7,4.1,37,3.7,37z"/>
	<path class="st0" d="M29,13.7L29,13.7c-0.2,0-0.3-0.1-0.5-0.2l-4.9-4.9l-4.9,4.9c-0.1,0.1-0.3,0.2-0.5,0.2l0,0
		c-0.2,0-0.3-0.1-0.5-0.2l-2-2c-0.3-0.3-0.3-0.7,0-0.9l7.3-7.3C23.3,3.1,23.5,3,23.7,3l0,0c0.2,0,0.3,0.1,0.5,0.2l7.3,7.3
		c0.1,0.1,0.2,0.3,0.2,0.5s-0.1,0.3-0.2,0.5l-2,2C29.3,13.6,29.2,13.7,29,13.7z M23.8,7c0.1,0,0.3,0.1,0.3,0.2l4.9,4.9l1.1-1.1
		l-6.4-6.4L17.3,11l1.1,1.1l4.9-4.9C23.3,7.1,23.5,7,23.7,7C23.7,7,23.8,7,23.8,7z"/>
	<path class="st0" d="M27.7,17.7h-8c-0.4,0-0.7-0.3-0.7-0.7v-5.3c0-0.2,0.1-0.3,0.2-0.5l4-4C23.3,7.1,23.5,7,23.7,7l0,0
		c0.2,0,0.3,0.1,0.5,0.2l4,4c0.1,0.1,0.2,0.3,0.2,0.5V17C28.3,17.4,28.1,17.7,27.7,17.7z M20.3,16.3H27v-4.4l-3.3-3.3l-3.3,3.3V16.3
		z"/>
	<path class="st0" d="M21,24.3h-6.7c-0.4,0-0.7-0.3-0.7-0.7c0-0.4,0.3-0.7,0.7-0.7H21c0.4,0,0.7,0.3,0.7,0.7
		C21.7,24.1,21.4,24.3,21,24.3z"/>
	<path class="st0" d="M28.3,24.3h-4.7c-0.4,0-0.7-0.3-0.7-0.7c0-0.4,0.3-0.7,0.7-0.7h4.7c0.4,0,0.7,0.3,0.7,0.7
		C29,24.1,28.7,24.3,28.3,24.3z"/>
	<path class="st0" d="M33,24.3h-2c-0.4,0-0.7-0.3-0.7-0.7c0-0.4,0.3-0.7,0.7-0.7h2c0.4,0,0.7,0.3,0.7,0.7
		C33.7,24.1,33.4,24.3,33,24.3z"/>
	<path class="st0" d="M33,28.3h-4.7c-0.4,0-0.7-0.3-0.7-0.7c0-0.4,0.3-0.7,0.7-0.7H33c0.4,0,0.7,0.3,0.7,0.7
		C33.7,28.1,33.4,28.3,33,28.3z"/>
	<path class="st0" d="M25.7,28.3h-5.3c-0.4,0-0.7-0.3-0.7-0.7c0-0.4,0.3-0.7,0.7-0.7h5.3c0.4,0,0.7,0.3,0.7,0.7
		C26.3,28.1,26.1,28.3,25.7,28.3z"/>
	<path class="st0" d="M17.7,28.3h-3.3c-0.4,0-0.7-0.3-0.7-0.7c0-0.4,0.3-0.7,0.7-0.7h3.3c0.4,0,0.7,0.3,0.7,0.7
		C18.3,28.1,18.1,28.3,17.7,28.3z"/>
	<path class="st0" d="M19,32.3h-4.7c-0.4,0-0.7-0.3-0.7-0.7c0-0.4,0.3-0.7,0.7-0.7H19c0.4,0,0.7,0.3,0.7,0.7
		C19.7,32.1,19.4,32.3,19,32.3z"/>
	<path class="st0" d="M27.7,32.3h-6c-0.4,0-0.7-0.3-0.7-0.7c0-0.4,0.3-0.7,0.7-0.7h6c0.4,0,0.7,0.3,0.7,0.7
		C28.3,32.1,28.1,32.3,27.7,32.3z"/>
	<path class="st0" d="M33,32.3h-2.7c-0.4,0-0.7-0.3-0.7-0.7c0-0.4,0.3-0.7,0.7-0.7H33c0.4,0,0.7,0.3,0.7,0.7
		C33.7,32.1,33.4,32.3,33,32.3z"/>
</g>
</svg>
