<svg xmlns="http://www.w3.org/2000/svg" height="512pt" version="1.1" viewBox="0 0 512 512" width="512pt">
<g id="surface1">
<path d="M 467 212 L 452 212 L 452 167 C 452 142.1875 431.8125 122 407 122 L 392 122 L 392 15 C 392 6.714844 385.285156 0 377 0 L 75 0 C 66.714844 0 60 6.714844 60 15 L 60 122 C 26.917969 122 0 148.914062 0 181.996094 C 0 181.996094 0 182 0 182 L 0 437 C 0 478.355469 33.644531 512 75 512 L 347 512 C 366.554688 512 383.226562 499.460938 389.421875 482 L 407 482 C 431.8125 482 452 461.8125 452 437 L 452 422 L 467 422 C 491.8125 422 512 401.8125 512 377 L 512 257 C 512 232.1875 491.8125 212 467 212 Z M 407 152 C 415.269531 152 422 158.730469 422 167 L 422 272 L 392 272 C 392 258.011719 392 170.246094 392 152 Z M 90 30 L 362 30 L 362 214.578125 C 357.304688 212.914062 352.257812 212 347 212 L 332 212 L 332 107 C 332 98.714844 325.285156 92 317 92 C 308.730469 92 302 85.269531 302 77 C 302 68.714844 295.285156 62 287 62 L 166 62 C 157.714844 62 151 68.714844 151 77 C 151 84.992188 143.523438 92 135 92 C 126.714844 92 120 98.714844 120 107 L 120 212 L 90 212 Z M 150 212 L 150 119.496094 C 156.296875 117.332031 162.117188 113.800781 167.078125 109.058594 C 172.203125 104.15625 176.015625 98.339844 178.34375 92 L 274.570312 92 C 279.097656 104.769531 289.234375 114.902344 302 119.429688 L 302 212 Z M 60 152 L 60 212 C 43.457031 212 30 198.542969 30 182 C 30 165.457031 43.457031 152 60 152 Z M 347 482 L 75 482 C 50.1875 482 30 461.8125 30 437 L 30 233.929688 C 38.832031 239.050781 49.074219 242 60 242 L 347 242 C 355.269531 242 362 248.730469 362 257 L 362 272 L 347 272 C 305.644531 272 272 305.644531 272 347 C 272 388.355469 305.644531 422 347 422 L 362 422 L 362 467 C 362 475.269531 355.269531 482 347 482 Z M 422 437 C 422 445.269531 415.269531 452 407 452 L 392 452 L 392 422 L 422 422 Z M 482 377 C 482 385.269531 475.269531 392 467 392 L 347 392 C 322.1875 392 302 371.8125 302 347 C 302 322.1875 322.1875 302 347 302 L 467 302 C 472.257812 302 477.308594 301.09375 482 299.429688 Z M 467 272 L 452 272 L 452 242 L 467 242 C 475.269531 242 482 248.730469 482 257 C 482 265.269531 475.269531 272 467 272 Z M 467 272 " style="stroke: none; fill-rule: nonzero; fill: rgb(53, 196, 255); fill-opacity: 1;"></path>
<path d="M 361.972656 347 C 361.972656 355.285156 355.253906 362 346.972656 362 C 338.6875 362 331.972656 355.285156 331.972656 347 C 331.972656 338.714844 338.6875 332 346.972656 332 C 355.253906 332 361.972656 338.714844 361.972656 347 Z M 361.972656 347 " style="stroke: none; fill-rule: nonzero; fill: rgb(53, 196, 255); fill-opacity: 1;"></path>
<path d="M 241 167.027344 C 241 175.3125 234.285156 182.027344 226 182.027344 C 217.714844 182.027344 211 175.3125 211 167.027344 C 211 158.746094 217.714844 152.027344 226 152.027344 C 234.285156 152.027344 241 158.746094 241 167.027344 Z M 241 167.027344 " style="stroke: none; fill-rule: nonzero; fill: rgb(53, 196, 255); fill-opacity: 1;"></path>
</g>
</svg>