<?xml version="1.0" encoding="utf-8"?>
<!-- Generator: Adobe Illustrator 19.2.0, SVG Export Plug-In . SVG Version: 6.00 Build 0)  -->
<svg version="1.1" id="Layer_1" xmlns="http://www.w3.org/2000/svg" xmlns:xlink="http://www.w3.org/1999/xlink" x="0px" y="0px"
	 viewBox="0 0 40 40" style="enable-background:new 0 0 40 40;" xml:space="preserve">
<style type="text/css">
	.st0{fill:#FFFFFF;}
</style>
<g>
	<g>
		<path class="st0" d="M14.5,30.6c-1.6,0-2.9,1.3-2.9,2.8c0,1.6,1.3,2.8,2.9,2.8c1.6,0,2.9-1.3,2.9-2.8
			C17.4,31.8,16.1,30.6,14.5,30.6z M14.5,35c-0.9,0-1.6-0.7-1.6-1.6c0-0.9,0.7-1.6,1.6-1.6c0.9,0,1.6,0.7,1.6,1.6
			C16.1,34.3,15.4,35,14.5,35z M25.4,30.6c-1.6,0-2.9,1.3-2.9,2.8c0,1.6,1.3,2.8,2.9,2.8c1.6,0,2.9-1.3,2.9-2.8
			C28.2,31.8,27,30.6,25.4,30.6z M25.4,35c-0.9,0-1.6-0.7-1.6-1.6c0-0.9,0.7-1.6,1.6-1.6c0.9,0,1.6,0.7,1.6,1.6
			C27,34.3,26.2,35,25.4,35z M13.8,14.5c-0.4,0-0.6,0.3-0.6,0.6c0,0.3,0.3,0.6,0.6,0.6h12.4c0.4,0,0.6-0.3,0.6-0.6
			c0-0.3-0.3-0.6-0.6-0.6H13.8z M14.4,19c-0.4,0-0.6,0.3-0.6,0.6c0,0.3,0.3,0.6,0.6,0.6h11c0.4,0,0.6-0.3,0.6-0.6
			c0-0.3-0.3-0.6-0.6-0.6H14.4z M31,23.4H8.9l-2.5-12h19.8c-0.1,0-0.2-0.6-0.2-1.3H6.1L5.6,7.3c-0.1-0.5-0.4-0.8-0.9-1L0.9,4.7
			c-0.1,0-0.2-0.1-0.3-0.1C0.4,4.7,0.2,4.8,0.1,5C0,5.2,0,5.4,0,5.5c0.1,0.2,0.2,0.3,0.3,0.4l3.9,1.7l4.2,20.2
			c0.1,0.7,0.8,1.3,1.5,1.3h20.7c0.4,0,0.6-0.3,0.6-0.6c0-0.3-0.3-0.6-0.6-0.6H9.8l-0.6-3.2h21.6c0.8,0,1.3-0.5,1.5-1.2l1.1-5.4
			c-0.4-0.1-0.8-0.1-1.2-0.2L31,23.4z M36.4,8.7l-1.5-0.1l-0.6-1.4c-0.1-0.3-0.4-0.5-0.7-0.5c-0.3,0-0.6,0.2-0.7,0.5l-0.6,1.4
			l-1.5,0.1c-0.3,0-0.6,0.2-0.7,0.5c-0.1,0.3,0,0.6,0.2,0.8l1.2,1l-0.4,1.5c-0.1,0.2,0,0.5,0.1,0.7c0.1,0.2,0.4,0.3,0.6,0.3
			c0.1,0,0.3,0,0.4-0.1l1.3-0.8l1.3,0.8c0.1,0.1,0.3,0.1,0.4,0.1c0.2,0,0.5-0.1,0.6-0.3c0.1-0.2,0.2-0.4,0.1-0.7L35.7,11l1.2-1
			c0.2-0.2,0.3-0.5,0.2-0.8C37,8.9,36.7,8.7,36.4,8.7z M35,10.6c-0.1,0.1-0.2,0.3-0.1,0.4l0.4,1.7l-1.5-0.9c-0.1-0.1-0.3-0.1-0.4,0
			l-1.5,0.9l0.4-1.7c0-0.1,0-0.3-0.1-0.4l-1.3-1.1l1.7-0.1c0.1,0,0.3-0.1,0.3-0.2l0.6-1.6l0.6,1.6c0.1,0.1,0.2,0.2,0.3,0.2l1.7,0.1
			L35,10.6z M39.8,10.8l-0.2-0.3c-0.1-0.1-0.1-0.4,0-0.5l0.2-0.3C40,9.4,40,9.1,40,8.8c-0.1-0.3-0.3-0.6-0.5-0.7l-0.3-0.2
			c-0.2-0.1-0.3-0.3-0.2-0.5L38.9,7c0.1-0.3,0-0.6-0.2-0.9c-0.2-0.2-0.5-0.4-0.8-0.4l-0.4,0c-0.2,0-0.3-0.1-0.4-0.3L37,5.1
			c-0.1-0.5-0.6-0.8-1-0.8c-0.1,0-0.3,0-0.4,0.1l-0.4,0.2c-0.2,0.1-0.4,0-0.5-0.1l-0.3-0.3c-0.2-0.2-0.5-0.4-0.8-0.4
			c-0.3,0-0.6,0.1-0.8,0.4l-0.3,0.3c-0.1,0.1-0.3,0.2-0.5,0.1l-0.4-0.1c-0.1-0.1-0.3-0.1-0.4-0.1c-0.5,0-0.9,0.3-1,0.8l-0.1,0.4
			c0,0.2-0.2,0.3-0.4,0.3l-0.4,0c-0.3,0-0.6,0.2-0.8,0.4c-0.2,0.2-0.3,0.6-0.2,0.9l0.1,0.4c0,0.2-0.1,0.4-0.2,0.5l-0.3,0.2
			c-0.3,0.2-0.5,0.4-0.5,0.7c-0.1,0.3,0,0.6,0.2,0.9l0.2,0.3c0.1,0.1,0.1,0.4,0,0.5l-0.2,0.3c-0.2,0.3-0.2,0.6-0.2,0.9
			c0.1,0.3,0.3,0.6,0.5,0.7l0.3,0.2c0.2,0.1,0.3,0.3,0.2,0.5l-0.1,0.4c-0.1,0.3,0,0.6,0.2,0.9c0.2,0.2,0.5,0.4,0.8,0.4l0.4,0
			c0.2,0,0.3,0.1,0.4,0.3l0.1,0.4c0.1,0.5,0.6,0.8,1,0.8c0.1,0,0.3,0,0.4-0.1l0.4-0.2c0.2-0.1,0.4,0,0.5,0.1l0.3,0.3
			c0.2,0.2,0.5,0.4,0.8,0.4c0.3,0,0.6-0.1,0.8-0.4l0.3-0.3c0.1-0.1,0.3-0.2,0.5-0.1l0.4,0.1c0.1,0.1,0.3,0.1,0.4,0.1
			c0.5,0,0.9-0.3,1-0.8l0.1-0.4c0-0.2,0.2-0.3,0.4-0.3l0.4,0c0.3,0,0.6-0.2,0.8-0.4c0.2-0.2,0.3-0.6,0.2-0.9L38.9,13
			c0-0.2,0.1-0.4,0.2-0.5l0.3-0.2c0.3-0.2,0.5-0.4,0.5-0.7C40,11.4,40,11,39.8,10.8z M38.9,11.4c0,0.1-0.1,0.2-0.2,0.3l-0.3,0.2
			c-0.4,0.2-0.6,0.6-0.5,1.1l0.1,0.4c0,0.1,0,0.2-0.1,0.3c-0.1,0.1-0.2,0.1-0.3,0.2l-0.4,0c-0.4,0-0.8,0.3-0.9,0.7l-0.1,0.3
			c0,0.2-0.2,0.3-0.4,0.3c-0.1,0-0.1,0-0.2,0L35.3,15c-0.1,0-0.3-0.1-0.4-0.1c-0.3,0-0.6,0.1-0.8,0.3L34,15.5
			c-0.1,0.1-0.2,0.1-0.3,0.1c-0.1,0-0.2,0-0.3-0.1l-0.2-0.3c-0.2-0.2-0.5-0.3-0.8-0.3c-0.1,0-0.3,0-0.4,0.1l-0.3,0.1
			c-0.1,0-0.1,0-0.2,0c-0.2,0-0.3-0.1-0.4-0.3L31,14.5c-0.1-0.4-0.5-0.7-0.9-0.7l-0.4,0c-0.1,0-0.2-0.1-0.3-0.1
			c-0.1-0.1-0.1-0.2-0.1-0.3l0.1-0.4c0.1-0.4-0.1-0.8-0.5-1l-0.3-0.2c-0.1-0.1-0.2-0.1-0.2-0.3c0-0.1,0-0.2,0.1-0.3l0.2-0.3
			c0.2-0.4,0.2-0.8,0-1.2l-0.2-0.3c-0.1-0.1-0.1-0.2-0.1-0.3c0-0.1,0.1-0.2,0.2-0.3l0.3-0.2c0.4-0.2,0.6-0.6,0.5-1.1l-0.1-0.4
			c0-0.1,0-0.2,0.1-0.3c0.1-0.1,0.2-0.1,0.3-0.2l0.4,0c0.4,0,0.8-0.3,0.9-0.7L31,5.7c0-0.2,0.2-0.3,0.4-0.3c0.1,0,0.1,0,0.2,0
			l0.3,0.1c0.1,0,0.3,0.1,0.4,0.1c0.3,0,0.6-0.1,0.8-0.3L33.3,5c0.1-0.1,0.2-0.1,0.3-0.1c0.1,0,0.2,0,0.3,0.1l0.2,0.3
			c0.2,0.2,0.5,0.3,0.8,0.3c0.1,0,0.3,0,0.4-0.1l0.3-0.1c0.1,0,0.1,0,0.2,0c0.2,0,0.3,0.1,0.4,0.3L36.2,6c0.1,0.4,0.5,0.7,0.9,0.7
			l0.4,0c0.1,0,0.2,0.1,0.3,0.1c0.1,0.1,0.1,0.2,0.1,0.3l-0.1,0.4c-0.1,0.4,0.1,0.8,0.5,1l0.3,0.2c0.1,0.1,0.2,0.1,0.2,0.3
			c0,0.1,0,0.2-0.1,0.3l-0.2,0.3c-0.2,0.4-0.2,0.8,0,1.2l0.2,0.3C38.9,11.2,38.9,11.3,38.9,11.4z"/>
	</g>
</g>
</svg>
