<?xml version="1.0" encoding="utf-8"?>
<!-- Generator: Adobe Illustrator 19.2.0, SVG Export Plug-In . SVG Version: 6.00 Build 0)  -->
<svg version="1.1" id="Layer_1" xmlns="http://www.w3.org/2000/svg" xmlns:xlink="http://www.w3.org/1999/xlink" x="0px" y="0px"
	 viewBox="0 0 40 40" style="enable-background:new 0 0 40 40;" xml:space="preserve">
<style type="text/css">
	.st0{fill:#FFFFFF;}
</style>
<g>
	<g>
		<path class="st0" d="M20.6,19.1c0.2,0.2,0.6,0.4,0.9,0.4c0.3,0,0.7-0.1,0.9-0.4l7.9-7.9c0.5-0.5,0.5-1.3,0-1.8
			c-0.5-0.5-1.3-0.5-1.8,0l-7,7l-2.8-2.8c-0.5-0.5-1.3-0.5-1.8,0c-0.5,0.5-0.5,1.3,0,1.8L20.6,19.1z M12,26.3h22
			c2.4,0,4.4-2,4.4-4.4v-9.3c0-0.5-0.4-1-1-1c-0.5,0-1,0.4-1,1v9.3c0,1.4-1.1,2.5-2.4,2.5H12c-1.4,0-2.4-1.1-2.4-2.5V3.6
			c0,0,0-0.1,0-0.1v0c0,0,0,0,0-0.1s0,0,0-0.1c0,0,0,0,0,0c0,0,0,0,0-0.1c0,0,0,0,0,0c0,0,0,0,0-0.1c0,0,0,0,0,0l0,0c0,0,0,0,0,0
			c0,0,0,0,0,0c0,0,0,0,0,0l0,0c0,0,0,0,0,0c0,0,0,0,0,0c0,0,0,0,0,0l0,0c0,0,0,0,0,0c0,0,0,0-0.1,0c0,0,0,0,0,0L9,2.6L2.9,0.1
			c-0.5-0.2-1.1,0-1.3,0.5c-0.2,0.5,0,1.1,0.5,1.3l5.5,2.3v24.5c0,2.3,1.8,4.2,4,4.4c-0.5,0.7-0.7,1.5-0.7,2.4c0,2.4,2,4.4,4.4,4.4
			c2.4,0,4.4-2,4.4-4.4c0-0.9-0.3-1.7-0.7-2.4h10.4c-0.5,0.7-0.7,1.5-0.7,2.4c0,2.4,2,4.4,4.4,4.4s4.4-2,4.4-4.4
			c0-2.4-2-4.4-4.4-4.4H12c-1.4,0-2.4-1.1-2.4-2.5v-3.3C10.3,26,11.1,26.3,12,26.3z M33,33.2c1.3,0,2.4,1.1,2.4,2.4
			c0,1.3-1.1,2.4-2.4,2.4c-1.3,0-2.4-1.1-2.4-2.4C30.6,34.3,31.7,33.2,33,33.2z M15.3,33.2c1.3,0,2.4,1.1,2.4,2.4
			c0,1.3-1.1,2.4-2.4,2.4c-1.3,0-2.4-1.1-2.4-2.4C12.9,34.3,13.9,33.2,15.3,33.2z"/>
	</g>
</g>
</svg>
