<?xml version="1.0" encoding="utf-8"?>
<!-- Generator: Adobe Illustrator 19.2.0, SVG Export Plug-In . SVG Version: 6.00 Build 0)  -->
<svg version="1.1" id="Layer_1" xmlns="http://www.w3.org/2000/svg" xmlns:xlink="http://www.w3.org/1999/xlink" x="0px" y="0px"
	 viewBox="0 0 40 40" style="enable-background:new 0 0 40 40;" xml:space="preserve">
<style type="text/css">
	.st0{fill:#FFFFFF;}
</style>
<g>
	<g>
		<path class="st0" d="M22.5,35H3.9c-0.5,0-0.8-0.4-0.8-0.8V2.5c0-0.5,0.4-0.8,0.8-0.8H31c0.5,0,0.8,0.4,0.8,0.8v18.3
			c0,0.5,0.4,0.8,0.8,0.8c0.5,0,0.8-0.4,0.8-0.8v-20c0-0.5-0.4-0.8-0.8-0.8H2.2C1.7,0,1.4,0.4,1.4,0.8v35c0,0.5,0.4,0.8,0.8,0.8
			h20.3c0.5,0,0.8-0.4,0.8-0.8v0C23.4,35.4,23,35,22.5,35z M38,38.4c-0.3,0-0.6,0-0.9,0c-0.1,0-0.1,0-0.2,0c0-0.8,0-1.6,0-2.4
			c0-1.2-0.5-2.2-1.4-3c-0.5-0.4-0.9-0.8-1.4-1.2c0,0-0.1-0.1-0.1-0.1c0.5-0.4,1-0.8,1.4-1.2c1-0.8,1.5-1.8,1.5-3c0-0.8,0-1.5,0-2.3
			V25c0.3,0,0.6,0,0.9,0c0.5,0,0.8-0.3,0.8-0.8c0-0.5-0.2-0.8-0.7-0.9c-0.1,0-0.2,0-0.2,0c-4.4,0-8.9,0-13.3,0c-0.1,0-0.1,0-0.2,0
			c-0.4,0-0.7,0.3-0.8,0.7c0,0.5,0.2,0.8,0.7,0.9c0.2,0,0.4,0,0.5,0c0.2,0,0.3,0,0.5,0v0.2c0,0.8,0,1.5,0,2.3c0,0.2,0,0.4,0,0.6
			c0.1,0.9,0.6,1.7,1.2,2.3c0.5,0.5,1,0.9,1.6,1.3c0,0,0.1,0.1,0.1,0.1c-0.5,0.4-1,0.8-1.5,1.2c-1,0.8-1.5,1.8-1.5,3.1
			c0,0.5,0,1.1,0,1.6v0.7c-0.3,0-0.6,0-0.9,0c-0.4,0-0.7,0.3-0.8,0.7c-0.1,0.4,0.2,0.8,0.6,0.9c0.1,0,0.2,0,0.4,0
			c4.5,0,8.9,0,13.4,0c0,0,0.1,0,0.1,0c0.4,0,0.8-0.3,0.8-0.7C38.7,38.8,38.4,38.4,38,38.4z M35.2,38.2v0.1h-1.7
			c-0.1-0.9-0.6-1.6-1.2-2.2c-0.4-0.4-0.8-0.7-1.3-1.1c0,0-0.1,0-0.1,0c-0.8,0.6-1.5,1.2-2,2c-0.3,0.4-0.4,0.8-0.5,1.3h-1.7v-0.1
			c0-0.8,0-1.5,0-2.3c0-0.6,0.2-1.1,0.6-1.5c0.4-0.4,0.8-0.7,1.3-1.1c0.4-0.3,0.8-0.7,1.2-1c0.3-0.2,0.4-0.7,0.2-1
			c0,0-0.1-0.1-0.1-0.1c-0.5-0.4-1-0.8-1.5-1.2c-0.3-0.3-0.7-0.6-1-0.9c-0.5-0.5-0.7-1-0.7-1.7c0-0.7,0-1.4,0-2.2V25h8.5v0.1
			c0,0.7,0,1.5,0,2.2c0,0.9-0.3,1.5-1,2c-0.7,0.6-1.4,1.1-2.1,1.7c-0.3,0.2-0.4,0.7-0.2,1c0,0.1,0.1,0.1,0.1,0.1
			c0.4,0.4,0.9,0.7,1.3,1.1c0.4,0.3,0.7,0.6,1.1,0.9c0.5,0.4,0.7,1,0.7,1.7C35.2,36.6,35.2,37.4,35.2,38.2z M26.8,4.7H8.1v1.7h18.6
			V4.7z M26.8,9.5H14.1v1.7h12.7V9.5z M21.8,14.5h-7.8v1.7h7.8C21.6,15.6,21.6,15.1,21.8,14.5z M11.5,9.5H8.1v1.7h3.4V9.5z
			 M8.1,16.2h3.4v-1.7H8.1V16.2z M33.5,27.5h-5.1c0,0.5,0.2,0.9,0.5,1.3c0.5,0.6,1.2,0.9,2,1.2c0,0,0.1,0,0.1,0
			c0.8-0.2,1.5-0.6,2-1.2C33.4,28.4,33.5,28,33.5,27.5z M19.2,28.1l1-4.6c0.1-0.3,0-0.5-0.2-0.7c-0.2-0.2-0.5-0.2-0.8-0.2H8.5
			l-0.2-1c-0.1-0.3-0.3-0.8-0.6-0.9l-1.5-0.7c-0.1,0-0.2-0.1-0.3-0.1c-0.3,0-0.5,0.1-0.6,0.4c-0.1,0.3,0,0.7,0.3,0.8l1.4,0.6
			l1.7,8.1c0.1,0.5,0.5,0.7,1,0.7h8.4c0.4,0,0.6-0.1,0.6-0.4c0-0.3-0.3-0.4-0.6-0.4H10l-0.1-0.9h8.3C18.7,28.7,19.1,28.5,19.2,28.1z
			 M9.7,27.8l-0.9-4.4h10.1L18,27.8H9.7z M16.1,26.1h-4.5c-0.4,0-0.6,0.1-0.6,0.4s0.3,0.4,0.6,0.4h4.5c0.4,0,0.6-0.1,0.6-0.4
			S16.4,26.1,16.1,26.1z M16.3,24.3h-5c-0.4,0-0.6,0.1-0.6,0.4s0.3,0.4,0.6,0.4h5c0.4,0,0.6-0.1,0.6-0.4S16.7,24.3,16.3,24.3z
			 M14.5,32.2c0,0.9,0.7,1.5,1.5,1.5c0.9,0,1.5-0.7,1.5-1.5c0-0.9-0.7-1.5-1.5-1.5C15.2,30.7,14.5,31.4,14.5,32.2z M16.3,32.2
			c0,0.2-0.1,0.3-0.3,0.3c-0.1,0-0.3-0.1-0.3-0.3s0.1-0.3,0.3-0.3C16.2,31.9,16.3,32.1,16.3,32.2z M10.1,32.2c0,0.9,0.7,1.5,1.5,1.5
			c0.9,0,1.5-0.7,1.5-1.5c0-0.9-0.7-1.5-1.5-1.5C10.8,30.7,10.1,31.4,10.1,32.2z M11.9,32.2c0,0.2-0.1,0.3-0.3,0.3
			c-0.1,0-0.3-0.1-0.3-0.3s0.1-0.3,0.3-0.3C11.8,31.9,11.9,32.1,11.9,32.2z"/>
	</g>
</g>
</svg>
