<?xml version="1.0" encoding="utf-8"?>
<!-- Generator: Adobe Illustrator 21.1.0, SVG Export Plug-In . SVG Version: 6.00 Build 0)  -->
<svg version="1.1" id="Layer_1" xmlns="http://www.w3.org/2000/svg" xmlns:xlink="http://www.w3.org/1999/xlink" x="0px" y="0px"
	 viewBox="0 0 150 150" style="enable-background:new 0 0 150 150;" xml:space="preserve">
<style type="text/css">
	.st0{fill:#6BBBFF;}
	.st1{fill:#6BBBFF;}
</style>
<g>
	<path id="XMLID_8_" class="st0" d="M1360,50.6c-1.3,0-2.4,1.1-2.4,2.4v49.1c0,1.3,1.1,2.4,2.4,2.4h17.1c1.3,0,2.4-1.1,2.4-2.4V53
		c0-1.3-1.1-2.4-2.4-2.4H1360z M1374.6,99.7h-12.1V55.5h12.1V99.7z"/>
	<path id="XMLID_7_" class="st0" d="M1305.2,63.6c-1.3,0-2.6,1.1-2.6,2.4v36.1c0,1.3,1.1,2.4,2.6,2.4h17.1c1.3,0,2.4-1.1,2.4-2.4V66
		c0-1.3-1.1-2.4-2.4-2.4H1305.2L1305.2,63.6z M1307.8,99.7v-3.9l3.9,3.9H1307.8z M1315.6,99.7l-7.8-7.8V88l11.8,11.7H1315.6
		L1315.6,99.7z M1319.9,96.1l-12.1-12v-3.9l12.1,12V96.1z M1319.9,88.3l-12.1-12v-3.9l12.1,12V88.3z M1319.9,80.3l-11.7-11.7h3.9
		l7.8,7.8L1319.9,80.3L1319.9,80.3z M1319.9,72.5l-3.9-3.9h3.9V72.5z"/>
	<path id="XMLID_6_" class="st0" d="M1332.7,30.6c-1.3,0-2.4,1.1-2.4,2.4v69.1c0,1.3,1.1,2.4,2.4,2.4h17.1c1.3,0,2.6-1.1,2.6-2.4
		v-69c0-1.3-1.1-2.4-2.6-2.4L1332.7,30.6L1332.7,30.6z"/>
	<g id="XMLID_3_">
		<g id="XMLID_4_">
			<path id="XMLID_5_" class="st0" d="M1451.2-38.7c-11-12.4-27.1-19.5-43.8-19.5c-3.4,0-6.2,2.8-6.2,6.2V0c0,3.4,2.7,6.1,6.2,6.1
				h52.1c3.4,0,6.2-2.8,6.2-6.2C1465.7-14.3,1460.6-28.1,1451.2-38.7z M1413.6-6.3v-39.2c10.8,1.5,20.9,6.7,28.3,15.1
				c6.1,6.7,9.8,15.2,11,24.2h-39.3V-6.3z"/>
		</g>
	</g>
	<path id="XMLID_2_" class="st0" d="M1444.4,22.6h-60.2v-60.5c0-3.4-2.8-6.2-6.2-6.2c-40,0-72.6,32.2-72.6,72.2
		c0,8.1,1.3,16,3.8,22.8h13.2c-3-6.7-4.4-14.5-4.4-22.8c0-31.1,23.2-56.4,54.1-59.5v59.8c0,3.4,2.6,6.5,5.9,6.5h59.9
		c-2.8,27.3-24.1,49-51,53v12.4c36.4-4.4,63.5-34.7,63.5-71.5C1450.5,25.1,1447.8,22.6,1444.4,22.6z"/>
</g>
<g>
	<path id="XMLID_15_" class="st0" d="M1360,50.6c-1.3,0-2.4,1.1-2.4,2.4v49.1c0,1.3,1.1,2.4,2.4,2.4h17.1c1.3,0,2.4-1.1,2.4-2.4V53
		c0-1.3-1.1-2.4-2.4-2.4H1360z M1374.6,99.7h-12.1V55.5h12.1V99.7z"/>
	<path id="XMLID_14_" class="st0" d="M1305.2,63.6c-1.3,0-2.6,1.1-2.6,2.4v36.1c0,1.3,1.1,2.4,2.6,2.4h17.1c1.3,0,2.4-1.1,2.4-2.4
		V66c0-1.3-1.1-2.4-2.4-2.4H1305.2L1305.2,63.6z M1307.8,99.7v-3.9l3.9,3.9H1307.8z M1315.6,99.7l-7.8-7.8V88l11.8,11.7H1315.6
		L1315.6,99.7z M1319.9,96.1l-12.1-12v-3.9l12.1,12V96.1z M1319.9,88.3l-12.1-12v-3.9l12.1,12V88.3z M1319.9,80.3l-11.7-11.7h3.9
		l7.8,7.8L1319.9,80.3L1319.9,80.3z M1319.9,72.5l-3.9-3.9h3.9V72.5z"/>
	<path id="XMLID_13_" class="st0" d="M1332.7,30.6c-1.3,0-2.4,1.1-2.4,2.4v69.1c0,1.3,1.1,2.4,2.4,2.4h17.1c1.3,0,2.6-1.1,2.6-2.4
		v-69c0-1.3-1.1-2.4-2.6-2.4L1332.7,30.6L1332.7,30.6z"/>
	<g id="XMLID_10_">
		<g id="XMLID_11_">
			<path id="XMLID_12_" class="st0" d="M1451.2-38.7c-11-12.4-27.1-19.5-43.8-19.5c-3.4,0-6.2,2.8-6.2,6.2V0c0,3.4,2.7,6.1,6.2,6.1
				h52.1c3.4,0,6.2-2.8,6.2-6.2C1465.7-14.3,1460.6-28.1,1451.2-38.7z M1413.6-6.3v-39.2c10.8,1.5,20.9,6.7,28.3,15.1
				c6.1,6.7,9.8,15.2,11,24.2h-39.3V-6.3z"/>
		</g>
	</g>
	<path id="XMLID_9_" class="st0" d="M1444.4,22.6h-60.2v-60.5c0-3.4-2.8-6.2-6.2-6.2c-40,0-72.6,32.2-72.6,72.2
		c0,8.1,1.3,16,3.8,22.8h13.2c-3-6.7-4.4-14.5-4.4-22.8c0-31.1,23.2-56.4,54.1-59.5v59.8c0,3.4,2.6,6.5,5.9,6.5h59.9
		c-2.8,27.3-24.1,49-51,53v12.4c36.4-4.4,63.5-34.7,63.5-71.5C1450.5,25.1,1447.8,22.6,1444.4,22.6z"/>
</g>
<g>
	<path class="st1" d="M109,2.3c-1.1,0-2.1,0-3.3,0.1C94.9,3.4,86.6,8.6,81,17.9c-2.4,4-3.6,8.3-4,13c-0.1,1.4-0.3,2.8-0.4,4.2
		c-2.9-0.3-5.7-0.5-8.4-0.8c5.3,6.2,10.6,12.5,15.9,18.6c6.2-5.2,12.3-10.4,18.6-15.7c-2.6-0.3-5.5-0.5-8.3-0.6
		c-0.1-0.1-0.1-0.1-0.1-0.3c0.3-4.9,0.8-9.8,3.6-14.1c4.3-6.5,10.4-10.2,18.4-10.3c10.8-0.3,20.1,7.2,22.3,17.7
		c0,0.1,0.1,0.3,0.3,0.4c-0.3-1.3-0.4-2.5-0.6-3.6c-3-11.6-10.2-19.3-21.8-22.9c-1.1-0.4-2.4-0.5-3.6-0.8c-0.3,0-0.5-0.1-0.8-0.3
		C111,2.4,110,2.3,109,2.3z"/>
	<path class="st1" d="M147.5,48.4c-2.3-2.9-5.8-4.5-9.4-4.5h-37.6L86.6,55.4h51.5c0.1,0,0.3,0,0.4,0.1c0,0.1,0,0.3,0,0.5l-9.8,42
		c-0.1,0.5-1.4,3.1-3.9,3.1H58.1H58l0,0c0,0-0.3,0-0.8,0c-1.6,0-3.8-0.6-4.9-3.4L41.7,55.4h40l-9.9-11.6H38.6l-2.8-9.7
		c-1.8-6.7-8.3-11.7-15.2-11.7H5.8C2.7,22.4,0,25,0,28.2S2.6,34,5.8,34h14.7c1.6,0,3.6,1.5,4,3L28,49.3c0,0.1,0,0.1,0,0.3
		c0,1,0.3,2,0.9,2.9l12.2,48.1c0.4,1.4,0.9,2.6,1.6,3.9c-3.3,2.5-5.2,6.5-5.2,10.7c0,6.4,4.7,12,10.7,13.2c-1.9,2.1-3.1,4.9-3.1,7.8
		c0,6.3,5.2,11.5,11.6,11.5s11.6-5.2,11.6-11.5c0-2.9-1.1-5.5-2.9-7.6h41.8c-1.8,2-2.9,4.7-2.9,7.6c0,6.3,5.2,11.5,11.6,11.5
		s11.6-5.2,11.6-11.5c0-2.9-1.1-5.5-2.9-7.6h2.5c3.1,0,5.8-2.6,5.8-5.8s-2.6-5.8-5.8-5.8H50.8c-0.8,0-1.6-1-1.6-2.1s0.9-2.1,1.5-2.1
		H93c-13.1,0,31.8-0.5,31.8-0.5c6.9,0,13.6-5.3,15.1-12.1l9.7-42C150.5,54.9,149.8,51.2,147.5,48.4z"/>
</g>
</svg>
