<?xml version="1.0" encoding="utf-8"?>
<!-- Generator: Adobe Illustrator 19.2.0, SVG Export Plug-In . SVG Version: 6.00 Build 0)  -->
<svg version="1.1" id="Layer_1" xmlns="http://www.w3.org/2000/svg" xmlns:xlink="http://www.w3.org/1999/xlink" x="0px" y="0px"
	 viewBox="0 0 40 40" style="enable-background:new 0 0 40 40;" xml:space="preserve">
<style type="text/css">
	.st0{fill:#FFFFFF;}
</style>
<g>
	<path class="st0" d="M31.4,40c-0.2,0-0.4,0-0.6,0c-1,0-2.2-0.1-3.3-0.5c-0.3-0.1-0.6-0.3-0.8-0.4c-0.3-0.2-0.4-0.5-0.4-0.6
		c0-0.2,0.1-0.4,0.4-0.7c0.3-0.3,0.7-0.4,1.1-0.5c0.5-0.1,0.9-0.2,1.4-0.3l0.5-0.1l0.1,0c0.1,0,0.2,0,0.3,0.1
		c0.1,0.1,0.1,0.1,0.2,0.2l0.5,0.5l-1.1,0.2c-0.5,0.1-0.9,0.1-1.3,0.2c-0.1,0-0.2,0.1-0.4,0.1c0,0,0,0,0,0c0,0,0,0.1,0,0.1
		c0.2,0.2,0.5,0.3,0.8,0.4c0.8,0.2,1.6,0.3,2.6,0.3c0.2,0,0.4,0,0.6,0c0.8,0,1.7-0.1,2.5-0.4c0.2-0.1,0.3-0.2,0.5-0.3
		c0.1,0,0.1-0.1,0.1-0.1c0,0,0,0,0,0c0,0,0,0-0.1,0c-0.3-0.1-0.5-0.2-0.9-0.3c-0.3-0.1-0.5-0.1-0.8-0.1c-0.1,0-0.2,0-0.4,0l-0.4,0
		l0.2-0.4c0.1-0.3,0.3-0.4,0.6-0.4c0,0,0.1,0,0.1,0c0.7,0.1,1.5,0.2,2.3,0.6c0.2,0.1,0.4,0.2,0.5,0.4c0.2,0.2,0.3,0.4,0.3,0.6
		c0,0.1-0.1,0.4-0.3,0.6c-0.2,0.2-0.5,0.3-0.7,0.4c-0.6,0.3-1.3,0.4-1.9,0.5C32.8,40,32.1,40,31.4,40z"/>
	<path class="st0" d="M31.5,29c-1.1,0-2.2-0.1-3-1c-0.8-0.8-1.3-1.8-1.3-2.9c0-2.4,2-4.3,4.5-4.3c1.1,0,2.2,0.5,3,1.3
		c0.8,0.8,1.3,2,1.3,3.1c0,1.2-0.5,2-1.3,2.8C33.9,28.9,32.7,29,31.5,29L31.5,29z M31,22.5c-1,0-2.5,1.2-2.5,2.8
		c0,0.7,0.5,1.4,1,1.9c0.5,0.5,1.4,0.8,2.1,0.8c0,0,0,0,0,0c0.8,0,1.5-0.2,2-0.8c0.5-0.5,0.8-1.2,0.8-2c0-0.7-0.3-1.4-0.8-2
		c-0.5-0.5-1.5-0.8-2.2-0.8L31,22.1V22.5z"/>
	<path class="st0" d="M29.9,35.7c-0.9-1-1.8-2-2.6-2.9c-0.8-1-1.7-2-2.3-3.1c-1.9-3-1.8-6.6,0.3-9.4c1.5-2,3.9-3.2,6.4-3.2
		c0.7,0,1.4,0.1,2.1,0.3c3.1,0.8,5.5,3.6,5.9,6.8c0.2,1.7-0.1,3.4-1.1,4.8c-0.9,1.4-1.9,2.6-2.6,3.6c-0.8,1-1.6,2-2.5,3l-0.1,0.2
		c-0.3,0.4-0.7,0.8-1,1.2l-0.6,0.7C31.6,37.6,30.3,36.1,29.9,35.7z M31.6,18.7c-2,0-4,1-5.1,2.6c-1.6,2.2-1.7,5.1-0.2,7.6
		c0.6,1,1.4,1.9,2.2,2.9c0.8,1,1.7,1.9,2.5,2.9l0.6,0.6l0.6-0.7c0.9-1.1,1.7-2,2.5-3c0.7-0.9,1.7-2.2,2.5-3.5c0.7-1.1,1-2.4,0.8-3.8
		c-0.3-2.6-2.2-4.7-4.7-5.4C32.7,18.8,32.2,18.7,31.6,18.7z"/>
	<g>
		<path class="st0" d="M17.2,19.4c-5.3,0-9.7-4.3-9.7-9.7S11.9,0,17.2,0s9.7,4.3,9.7,9.7S22.6,19.4,17.2,19.4z M17.2,1.6
			c-4.4,0-8,3.6-8,8s3.6,8,8,8c4.4,0,8-3.6,8-8S21.7,1.6,17.2,1.6z"/>
		<g>
			<path class="st0" d="M17.2,23.1c1.9,0,3.7,0.4,5.3,1.1c0-0.5,0.1-1,0.2-1.5c-1.7-0.6-3.6-0.9-5.5-0.9c-9.3,0-16.9,7.4-16.9,16.7
				c0,0.5,0.5,0.6,0.8,0.6h4C5.6,39,6,38.9,6,38.5S5.6,38,5.2,38H2l0-0.7C2.7,30.6,8.9,23.1,17.2,23.1z"/>
			<path class="st0" d="M22.2,38h-13c-0.5,0-0.8,0.1-0.8,0.5S8.7,39,9.2,39h12.3L22.2,38z"/>
		</g>
	</g>
	<path class="st0" d="M17.2,14c-1.3,0-2.5-0.5-3.3-1.5c-0.1-0.2-0.2-0.4-0.2-0.6c0-0.2,0.1-0.4,0.3-0.6c0.1-0.1,0.3-0.2,0.5-0.2
		c0.2,0,0.5,0.1,0.6,0.3c0.5,0.6,1.3,0.9,2,0.9c0.8,0,1.5-0.3,2-0.9c0.2-0.2,0.4-0.3,0.6-0.3c0.2,0,0.4,0.1,0.5,0.2
		c0.2,0.1,0.3,0.3,0.3,0.6c0,0.2-0.1,0.4-0.2,0.6C19.7,13.5,18.5,14,17.2,14z"/>
</g>
</svg>
