<?xml version="1.0" encoding="utf-8"?>
<!-- Generator: Adobe Illustrator 19.2.0, SVG Export Plug-In . SVG Version: 6.00 Build 0)  -->
<svg version="1.1" id="Layer_1" xmlns="http://www.w3.org/2000/svg" xmlns:xlink="http://www.w3.org/1999/xlink" x="0px" y="0px"
	 viewBox="0 0 40 40" style="enable-background:new 0 0 40 40;" xml:space="preserve">
<style type="text/css">
	.st0{fill:#FFFFFF;}
</style>
<g>
	<g>
		<path class="st0" d="M32.9,26.7c-0.9,0-1.8,0.4-2.5,1c-0.7,0.7-1,1.5-1,2.4c0,0.9,0.4,1.8,1,2.4l2.5,1c1.9,0,3.4-1.6,3.4-3.5
			C36.3,28.2,34.8,26.7,32.9,26.7z M36.2,21.4v-4.5c0-0.2,0-0.3-0.1-0.4l-2.4-2.3c-0.1-0.1-0.2-0.2-0.4-0.2H29
			c-0.3,0-0.7,0.3-0.7,0.7v6.8c0,0.3,0.4,0.7,0.7,0.7h6.7C36.1,22.1,36.2,21.7,36.2,21.4z M35.2,20.8h-5.5v-5.5h3.4l2.1,1.8V20.8z
			 M12.7,26.7c-0.9,0-1.8,0.4-2.5,1c-0.7,0.7-1,1.5-1,2.4c0,0.9,0.4,1.8,1,2.4l2.5,1c1.9,0,3.4-1.6,3.4-3.5
			C16.1,28.2,14.6,26.7,12.7,26.7z M7.2,27.6H5.4v-2.4c0-0.3-0.3-0.6-0.7-0.6s-0.7,0.3-0.7,0.6v3c0,0.3,0.3,0.6,0.6,0.6h2.5
			c0.3,0,0.6-0.3,0.6-0.7S7.5,27.6,7.2,27.6z M11.1,22.9c0-0.3-0.3-0.5-0.6-0.5h-10c-0.3,0-0.6,0.2-0.6,0.5s0.3,0.5,0.6,0.5h10
			C10.9,23.4,11.1,23.2,11.1,22.9z M2.2,19.7l10,0.1c0.3,0,0.6-0.3,0.6-0.6c0-0.2-0.1-0.3-0.2-0.4c-0.1-0.1-0.2-0.2-0.4-0.2l-10-0.1
			c-0.3,0-0.6,0.3-0.6,0.6c0,0.2,0.1,0.3,0.2,0.4S2.1,19.7,2.2,19.7z M3.9,15.8h10c0.3,0,0.6-0.2,0.6-0.5c0-0.3-0.3-0.5-0.6-0.5h-10
			c-0.3,0-0.6,0.2-0.6,0.5C3.4,15.6,3.6,15.8,3.9,15.8z M39.8,15.3l-5.9-4.9c-0.1-0.1-0.2-0.1-0.4-0.1h-7.2V7c0-0.3-0.2-0.6-0.5-0.6
			h-21C4.4,6.4,4.1,6.7,4.1,7v6.1c0,0.3,0.3,0.6,0.7,0.6s0.7-0.3,0.7-0.6V7.4h19.8v20.2h-7.1c-0.3,0-0.6,0.3-0.6,0.7
			s0.3,0.7,0.6,0.7h10.1c0.3,0,0.6-0.3,0.6-0.7s-0.3-0.7-0.6-0.7h-2V11.4h7l5.5,4.6l-0.1,11.7h-1.1c-0.3,0-0.6,0.3-0.6,0.7
			s0.3,0.7,0.6,0.7h1.7c0.3,0,0.6-0.3,0.6-0.6L40,15.7C40,15.6,39.9,15.4,39.8,15.3z"/>
	</g>
</g>
</svg>
