<svg xmlns="http://www.w3.org/2000/svg" viewBox="0 0 13 10.214">
  <defs>
    <style>
      .cls-1 {
        fill: #484c55;
        opacity: 0.8;
      }
    </style>
  </defs>
  <path id="Path_1619" data-name="Path 1619" class="cls-1" d="M13-1.393a.468.468,0,0,0-.464-.464H.464A.468.468,0,0,0,0-1.393v.929A.468.468,0,0,0,.464,0H12.536A.468.468,0,0,0,13-.464Zm0-2.786a.468.468,0,0,0-.464-.464H3.25a.468.468,0,0,0-.464.464v.929a.468.468,0,0,0,.464.464h9.286A.468.468,0,0,0,13-3.25Zm0-2.786a.468.468,0,0,0-.464-.464H1.393a.468.468,0,0,0-.464.464v.929a.468.468,0,0,0,.464.464H12.536A.468.468,0,0,0,13-6.036ZM13-9.75a.468.468,0,0,0-.464-.464H4.179a.468.468,0,0,0-.464.464v.929a.468.468,0,0,0,.464.464h8.357A.468.468,0,0,0,13-8.821Z" transform="translate(0 10.214)"/>
</svg>
