<?xml version="1.0" encoding="utf-8"?>
<!-- Generator: Adobe Illustrator 24.0.0, SVG Export Plug-In . SVG Version: 6.00 Build 0)  -->
<svg version="1.1" id="Layer_1" xmlns="http://www.w3.org/2000/svg" xmlns:xlink="http://www.w3.org/1999/xlink" x="0px" y="0px"
	 viewBox="0 0 100 100" style="enable-background:new 0 0 100 100;" xml:space="preserve">
<style type="text/css">
	.st0{fill:#67B43C;}
	.st1{fill:#FFFFFF;}
</style>
<circle id="_87186bdea42c7c678e662572b65c25ad" class="st0" cx="50" cy="50" r="49.5"/>
<path id="Path_2303" class="st1" d="M60.64,60.42h3.32V44.49h5.42v-2.81H55.22v2.81h5.42V60.42z M77.57,60.42h3.93l5.82-18.74h-3.41
	l-2.61,9.43c-0.57,2.12-1,3.95-1.63,6.1h-0.12c-0.63-2.15-1.06-3.98-1.66-6.1l-2.64-9.43h-3.52L77.57,60.42z"/>
<g>
	<path class="st1" d="M25.55,43.92h-4.33v8.72h0.02v6.1c0,2.26,1.75,4.1,3.97,4.28v5.73c0,1.24,1.01,2.25,2.25,2.25
		c1.24,0,2.25-1.01,2.25-2.25v-5.7h4.19v5.7c0,1.24,1.01,2.25,2.25,2.25c1.24,0,2.25-1.01,2.25-2.25v-5.73
		c2.22-0.18,3.97-2.01,3.97-4.28v-6.1h0.02v-8.72h-4.33H25.55z"/>
	<path class="st1" d="M45.78,43.17c-1.24,0-2.25,1.01-2.25,2.25v10.12c0,1.24,1.01,2.25,2.25,2.25c1.24,0,2.25-1.01,2.25-2.25V45.42
		C48.03,44.18,47.02,43.17,45.78,43.17z"/>
	<path class="st1" d="M17.83,43.17c-1.24,0-2.25,1.01-2.25,2.25v10.12c0,0,0,0,0,0c0,1.24,1.01,2.25,2.25,2.25
		c1.24,0,2.25-1.01,2.25-2.25l0-10.12C20.09,44.18,19.08,43.17,17.83,43.17z"/>
	<path class="st1" d="M36.91,34.63l1.82-2.57c0.04-0.05-0.01-0.16-0.12-0.23c-0.1-0.07-0.22-0.09-0.26-0.04l-1.87,2.64
		c-1.26-0.5-2.8-0.81-4.67-0.81c-1.88-0.01-3.42,0.3-4.69,0.78l-1.85-2.62c-0.04-0.05-0.15-0.03-0.25,0.04
		c-0.11,0.07-0.16,0.18-0.12,0.23l1.79,2.54c-5.21,2.31-5.38,7.96-5.38,7.96h21.01C42.31,42.56,42.08,36.96,36.91,34.63z
		 M27.2,39.25c-0.7,0-1.26-0.57-1.26-1.26s0.57-1.26,1.26-1.26c0.7,0,1.26,0.57,1.26,1.26S27.89,39.25,27.2,39.25z M36.42,39.25
		c-0.7,0-1.26-0.57-1.26-1.26s0.57-1.26,1.26-1.26s1.26,0.57,1.26,1.26S37.11,39.25,36.42,39.25z"/>
</g>
</svg>
