<svg xmlns="http://www.w3.org/2000/svg" viewBox="0 0 13 13">
  <defs>
    <style>
      .cls-1 {
        fill: #484c55;
        opacity: 0.8;
      }
    </style>
  </defs>
  <path id="Path_1617" data-name="Path 1617" class="cls-1" d="M12.3-8.357H9.286a2.008,2.008,0,0,0-.929.29v-2.379a.7.7,0,0,0-.7-.7H4.643a1.946,1.946,0,0,0-1.19.493L.493-7.69A1.946,1.946,0,0,0,0-6.5v4.875a.7.7,0,0,0,.7.7H4.643V1.161a.7.7,0,0,0,.7.7H12.3a.7.7,0,0,0,.7-.7V-7.661A.7.7,0,0,0,12.3-8.357ZM8.357-6.812v2.169H6.188ZM3.714-9.6v2.169H1.545ZM5.136-4.9a1.946,1.946,0,0,0-.493,1.19v1.857H.929V-6.5H3.946a.7.7,0,0,0,.7-.7v-3.018H7.429V-7.2ZM12.071.929h-6.5V-3.714H8.589a.7.7,0,0,0,.7-.7V-7.429h2.786Z" transform="translate(0 11.142)"/>
</svg>
