<?xml version="1.0" encoding="utf-8"?>
<!-- Generator: Adobe Illustrator 22.1.0, SVG Export Plug-In . SVG Version: 6.00 Build 0)  -->
<svg version="1.1" id="Group_1528" xmlns="http://www.w3.org/2000/svg" xmlns:xlink="http://www.w3.org/1999/xlink" x="0px" y="0px"
	 viewBox="0 0 100 100" style="enable-background:new 0 0 100 100;" xml:space="preserve">
<style type="text/css">
	.st0{fill:#35C4FF;}
</style>
<g>
	<path id="Path_1516" class="st0" d="M0,0v100h100V0H0z M90,20H80V10h10L90,20z M70,10v10H10V10H70z M10,90V30h80v60L10,90z"/>
	<path id="Path_1517" class="st0" d="M46.9,64c2-2.6,3.1-5.7,3.1-9c0-8.3-6.7-15-15-15c-8.3,0-15,6.7-15,15c0,3.3,1.1,6.4,3.1,9
		C18,67.8,15,73.7,15,80h10c0.1-5.5,4.7-9.9,10.2-9.8c5.4,0.1,9.7,4.4,9.8,9.8h10C55,73.7,52,67.8,46.9,64z M30,55c0-2.8,2.2-5,5-5
		s5,2.2,5,5c0,2.8-2.2,5-5,5h0C32.2,60,30,57.8,30,55L30,55z"/>
	<rect id="Rectangle_1212" x="60" y="45" class="st0" width="25" height="10"/>
	<rect id="Rectangle_1213" x="60" y="65" class="st0" width="25" height="10"/>
</g>
</svg>
