<?xml version="1.0" encoding="utf-8"?>
<!-- Generator: Adobe Illustrator 23.1.0, SVG Export Plug-In . SVG Version: 6.00 Build 0)  -->
<svg version="1.1" id="Layer_1" xmlns="http://www.w3.org/2000/svg" xmlns:xlink="http://www.w3.org/1999/xlink" x="0px" y="0px"
	 viewBox="0 0 300 300" style="enable-background:new 0 0 300 300;" xml:space="preserve">
<style type="text/css">
	.st0{fill:#767676;}
</style>
<g>
	<path class="st0" d="M282.1,46.8c-18.1-24.8-43.3-37.6-75-38.2l-0.1,0c-3.6,0-6.6,2.7-7,6.3c-0.4,3.7,2,7,5.6,7.8
		c1,0.2,2.1,0.2,3.4,0.2c0.7,0,1.3,0,2,0.1c18,0.9,33.7,7.2,46.9,18.5c28.2,24.4,35.7,61.9,19.3,95.5
		c-12.6,25.8-40.8,43.2-70.1,43.2c-4.3,0-8.6-0.4-12.7-1.1c-23.2-4.2-43.3-17.9-54.9-37.7c-11.6-19.7-13.9-43.6-6.3-65.7
		c2.9-8.4,7.2-16.1,13.6-24.2l7.7-9.7v12.3c0,1.6,0,3,0,4.5c0,2.9,0,5.3,0,7.9c0,4.6,3,7.8,7.1,7.8c4.2,0,7.1-3.2,7.1-7.8
		c0.1-13.2,0.1-26.3,0-38.9c0-4.7-3-7.6-7.6-7.6c-7.2,0-14.4,0-21.5,0c-5.8,0-11.6,0-17.3,0c-2.2,0-4.2,0.8-5.6,2.1
		c-1.4,1.3-2.1,3.1-2.1,5.1c0,4.1,3.3,7,7.9,7.1c1.3,0,2.6,0,4,0c0,0,6.5,0,7.3,0h9.2l-6,7.1c-11.8,13.9-18.7,30-21.3,49.1l-0.5,3.7
		H14.3l0-9.4c0-13.9,8-21.9,21.9-21.9l30,0c6.5,0,13.1,0,19.6,0c4.1,0,8.4-1.9,8.5-7.2c0-1.9-0.6-3.5-1.8-4.8
		c-1.5-1.5-3.9-2.3-6.6-2.3l-8,0c-8,0-16.1,0-24.1,0c-6.1,0-12.1,0-18.2,0C14.3,48.6,0,62.9,0,84.1c0,52.3,0,108.7,0,172.5
		c0,20.2,14.6,34.8,34.7,34.8c28.7,0,57.4,0,86.1,0c29.1,0,58.3,0,87.4,0c19.7,0,34.5-14.9,34.5-34.6l0-11.1c0-16.7,0.1-34-0.1-51
		c0-5.1,1.9-8.3,6.4-10.6c24.5-12.6,42.1-34.9,48.4-61.4C303.7,96.4,298.1,68.7,282.1,46.8z M14.3,256.3c0-32.4,0-64.8,0-97.2
		l0-50.5h99.9l0.5,3.7c3.2,24,13.7,43.6,31.9,59.8c1.3,1.3,22,21.4,59.9,21.4c3.8,0,7.6-0.2,11.4-0.6l0.2,0c1.9-0.1,3.7-0.2,5.7-0.2
		l4-0.2l0.7,16v0.2c0,15.8,0,32.1,0,48.2c0,11.6-8.6,20.1-20.3,20.1c-33.2,0-66.3,0-99.5,0c-24.8,0-49.5,0-74.3,0
		C22.5,277.1,14.3,268.6,14.3,256.3z"/>
	<path class="st0" d="M201.2,116.4c5.1,0,10.1,0,15.2,0c5.9,0,11.7,0,17.6,0c2.4,0,4.6-0.8,6-2.3c1.3-1.3,1.9-3,1.9-5
		c-0.1-4.1-3.3-6.9-8-7c-2.8,0-5.5,0-8.4,0l-17.9,0c0-4.1,0-16,0-18.9c0-7.7,0-16.5,0-24.9c0-4.3-3-7.5-7-7.6l-0.1,0
		c-4.1,0-7.1,3.2-7.1,7.6c-0.1,17.8-0.1,34.2,0,50.3C193.4,113.6,196.2,116.4,201.2,116.4z"/>
	<path class="st0" d="M52.9,158.1c5.4,0,9.8-4.4,9.8-9.8v-8.2c0-5.4-4.4-9.8-9.8-9.8s-9.8,4.4-9.8,9.8v8.2
		C43.1,153.8,47.5,158.1,52.9,158.1z"/>
	<path class="st0" d="M97.4,158.1c5.4,0,9.8-4.4,9.8-9.8v-8.2c0-5.4-4.4-9.8-9.8-9.8c-5.4,0-9.8,4.4-9.8,9.8v8.2
		C87.7,153.8,92.1,158.1,97.4,158.1z"/>
	<path class="st0" d="M52.9,203.9c5.4,0,9.8-4.4,9.8-9.8v-8.2c0-5.4-4.4-9.8-9.8-9.8s-9.8,4.4-9.8,9.8v8.2
		C43.1,199.5,47.5,203.9,52.9,203.9z"/>
	<path class="st0" d="M97.4,203.9c5.4,0,9.8-4.4,9.8-9.8v-8.2c0-5.4-4.4-9.8-9.8-9.8c-5.4,0-9.8,4.4-9.8,9.8v8.2
		C87.7,199.5,92.1,203.9,97.4,203.9z"/>
	<path class="st0" d="M143.7,203.9c5.4,0,9.8-4.4,9.8-9.8v-8.2c0-5.4-4.4-9.8-9.8-9.8s-9.8,4.4-9.8,9.8v8.2
		C134,199.5,138.3,203.9,143.7,203.9z"/>
	<path class="st0" d="M52.9,249.6c5.4,0,9.8-4.4,9.8-9.8v-8.2c0-5.4-4.4-9.8-9.8-9.8s-9.8,4.4-9.8,9.8v8.2
		C43.1,245.2,47.5,249.6,52.9,249.6z"/>
	<path class="st0" d="M97.4,249.6c5.4,0,9.8-4.4,9.8-9.8v-8.2c0-5.4-4.4-9.8-9.8-9.8c-5.4,0-9.8,4.4-9.8,9.8v8.2
		C87.7,245.2,92.1,249.6,97.4,249.6z"/>
	<path class="st0" d="M143.7,249.6c5.4,0,9.8-4.4,9.8-9.8v-8.2c0-5.4-4.4-9.8-9.8-9.8s-9.8,4.4-9.8,9.8v8.2
		C134,245.2,138.3,249.6,143.7,249.6z"/>
	<path class="st0" d="M190,249.6c5.4,0,9.8-4.4,9.8-9.8v-8.2c0-5.4-4.4-9.8-9.8-9.8c-5.4,0-9.8,4.4-9.8,9.8v8.2
		C180.2,245.2,184.6,249.6,190,249.6z"/>
</g>
</svg>
