<svg id="Layer_1" data-name="Layer 1" xmlns="http://www.w3.org/2000/svg" viewBox="0 0 500 500"><defs><style>.cls-1{fill:#801452;}.cls-2{fill:none;}</style></defs><title>Untitled-1-01</title><path class="cls-1" d="M137.56.55a62.25,62.25,0,0,0,1.8,23.26C146,49,160.2,69.58,178.29,87.87A40.58,40.58,0,0,0,200,99.19a62.82,62.82,0,0,0,24,.07c22.43-4.35,32.16-20.44,25.47-42.25-6.15-19.94-19-34.3-37.41-43.83-14.5-7.59-30-11.38-46-12.49C156.68.07,147.23.55,137.56.55Zm223.36,34.1c-2.9-.9-5.18-1.73-7.46-2.28-11.11-2.69-22.36-2.34-33.54-.69C305.7,33.82,292.17,37.89,280,45.9a33.57,33.57,0,0,0-14.21,18.84c-6.15,20.16,6.42,36.38,27.4,35.62a48.89,48.89,0,0,0,27-9.39C339.73,76.82,351.19,56.74,360.92,34.65Z"/><path class="cls-1" d="M233.43,499.66c-6.9-.9-13.87-1.66-20.77-2.83a194.1,194.1,0,0,1-56.32-18.71c-.69-.34-1.38-.76-2.07-1.17-.21-.14-.28-.35-.69-.83,42.31,11,82.41,6,119.82-16.15s61.36-54.53,72.2-96.5c19.25-74.68-20.16-153.09-91.94-182.42-70.75-29-153.16-3.11-194.23,65.5.21-.83.34-1.66.62-2.48,25-70.48,73.65-115.55,147-130.73,103.88-21.61,204.17,43.48,228.39,146.6,2.28,9.59,3,19.46,4.56,29.27.14,1.1.41,2.2.62,3.38v23.47c-.21,1.1-.48,2.2-.62,3.31-2.42,32.44-12.15,62.6-30,89.87C378.52,457.55,334.28,487,277.33,497c-6.55,1.18-13.18,1.8-19.74,2.63Z"/><path class="cls-1" d="M137.56.55c9.73,0,19.12-.55,28.44.14,16.08,1.11,31.54,4.9,45.9,12.36,18.36,9.52,31.27,23.88,37.41,43.83,6.69,21.81-3,37.89-25.47,42.24a61.08,61.08,0,0,1-24-.07,40.83,40.83,0,0,1-21.67-11.32c-18.09-18.29-32.24-38.86-38.93-64.05A62.92,62.92,0,0,1,137.56.55Z"/><path class="cls-1" d="M360.92,34.65C351.19,56.74,339.73,76.89,320.06,91a48.51,48.51,0,0,1-27,9.39c-21,.76-33.54-15.46-27.4-35.62A33.58,33.58,0,0,1,279.89,45.9c12.14-8,25.67-12.08,39.89-14.22,11.25-1.65,22.43-2,33.55.69C355.74,32.92,358,33.75,360.92,34.65Z"/><path class="cls-1" d="M306.6,279.47V380.25c-.21.62-.48,1.24-.69,1.86-2,6.63-5.94,11.32-12.84,13.05a32.85,32.85,0,0,1-5.8.55c-11.18,1-22.36,2.14-33.54,3.17l-25.33,2.35c5.66,4.56,10.69,8.63,15.73,12.77-.07.34-.2.69-.27,1.1-1.38.35-2.69.83-4.08,1-10.42,1.38-20.91,2.69-31.33,3.93-6.28.76-12.49,1.59-18.78,2.21a25.08,25.08,0,0,1-4.55-.41c-.07-.35-.07-.76-.14-1.11,5.8-5.52,11.6-11,18-17.11-1.94.13-2.83.13-3.8.2-11,1.11-22.16,2.21-33.2,3.25-14.15,1.38-28.3,2.76-42.52,3.93-6,.48-12.22.9-18.15.14a22.57,22.57,0,0,1-19.6-22.92c.27-44.38.13-88.76.07-133.14,0-7.87,3.52-13.67,10.21-17.53,6.42-3.66,13.32-3.8,20.43-2.63,20.36,3.32,40.66,6.7,61,10,17.6,2.9,35.27,5.66,52.87,8.49,17.94,2.9,35.89,5.73,53.77,8.84A52.27,52.27,0,0,1,297.49,266C302.94,268.5,304.8,274.09,306.6,279.47ZM100.77,322.41v65.22c0,8.22,4.9,13.05,13.19,12.63,10.69-.55,21.32-1.45,32-2.21,9.25-.69,18.57-1.44,27.82-2.14l32.3-2.48c10.22-.76,20.36-1.52,30.58-2.35,10.91-.82,21.74-1.65,32.65-2.55,7.18-.55,14.42-.9,21.6-1.73,5.59-.62,8.15-3.86,8.15-9.52v-95.6c0-4.76-3-8.83-7.25-9.59-3.45-.69-7-1-10.49-1.52-13.39-1.93-26.71-3.8-40.1-5.8s-26.72-4-40.11-5.93l-45.21-6.63c-14.28-2.07-28.57-4.35-42.93-6.14-5.31-.69-12.42,3.24-12.29,10.83C101.05,278.65,100.77,300.53,100.77,322.41Z"/><path class="cls-1" d="M216,360.92c-11.32,0-22.15.07-32.92-.07a24.09,24.09,0,0,1-8.35-1.52c-5.18-2.14-7.53-6.55-7.6-12.08-.07-5.17,0-10.35,0-15.87-1.38-.14-2.62-.28-3.79-.35-11.94-.34-23.88-.62-35.89-1.1a29.15,29.15,0,0,1-8.08-1.45c-7-2.28-10.77-7.8-10.77-15.12,0-15,.14-30.16-.07-45.21-.13-12.07,7.25-16.35,17.19-15.18,18.57,2.14,37,5,55.49,7.66,7,1,14.09,2,21.13,2.9,8.55,1,13.94,6.83,14,15.46.07,4.56,0,9.18,0,14.15,4.35.48,8.56,1,12.7,1.31,5.86.55,11.66,1,17.53,1.52,7.45.69,12,5.73,12.22,13.67.13,4.48,0,9,0,13.73l14.9.83c3.8.21,7.6.21,11.39.62,6.08.69,9.67,4.42,9.74,10.49.13,12.57.13,25.06,0,37.62-.07,6.21-4.28,10.28-10.36,10.7-18.08,1.38-36.17,2.69-54.25,4.07-9.11.69-14.22-3.93-14.22-13Zm-7.31-68.4c0-5.73.13-11.11-.07-16.43-.14-2.69-2.14-4.35-4.7-4.83-3.72-.69-7.52-1-11.25-1.45l-35.82-4.55c-10.22-1.32-20.5-2.7-30.72-3.73-5.1-.55-7,1.45-7,6.49v45.9c0,5,2.35,7.45,7.32,7.66,12.63.55,25.26,1,37.89,1.45.9,0,1.73-.14,2.83-.21,0-6.9-.07-13.53,0-20.15.14-6.84,4.08-11.46,10.77-12a66,66,0,0,1,11.67.34C195.82,291.28,202,292,208.66,292.52Zm14.77,67c0,6.21-.14,11.53.07,16.77.13,3,2.14,4.35,5.59,4.14,18.36-1,36.65-2,55-3,3.24-.21,5.17-1.94,5.24-5.18.07-12.08.07-24.16,0-36.17,0-3-1.65-4.83-5-4.9-6-.14-11.94-.41-17.94-.55-2.49-.07-5,0-7.6,0v15.25c-.06,9.11-4.76,13.67-13.87,13.67C237.92,359.54,230.81,359.54,223.43,359.54Z"/><path class="cls-1" d="M137.77,347.32c6,0,11.94-.07,17.95,0,5.24.07,7.17,2.14,7.24,7.46v27.61c0,5.17-1.72,7.24-6.76,7.59-12.29,1-24.5,1.86-36.79,2.62-5.73.35-7.94-1.93-7.94-7.73V355.19c0-5.38,2.35-7.8,7.73-7.87,6.15-.07,12.36,0,18.57,0Z"/><path class="cls-1" d="M293.07,293.42c-.14,8.35-2.69,13.52-8.77,16.22s-11.73,1.24-16.56-3A18.67,18.67,0,0,1,261.46,288c1.24-6.07,5-10.35,11.32-11.59,6.69-1.38,11.94,1.52,16,6.49C291.62,286.38,293.21,290.52,293.07,293.42Z"/><rect class="cls-2" width="500" height="500"/></svg>