<?xml version="1.0" encoding="utf-8"?>
<!-- Generator: Adobe Illustrator 22.1.0, SVG Export Plug-In . SVG Version: 6.00 Build 0)  -->
<svg version="1.1" id="Layer_1" xmlns="http://www.w3.org/2000/svg" xmlns:xlink="http://www.w3.org/1999/xlink" x="0px" y="0px"
	 viewBox="0 0 1590 242" style="enable-background:new 0 0 1590 242;" xml:space="preserve">
<style type="text/css">
	.st0{fill:#FFFFFF;}
	.st1{fill-rule:evenodd;clip-rule:evenodd;fill:#4CB4B8;}
</style>
<g>
	<g>
		<g>
			<path class="st0" d="M367.4,54h34.8c40,0,63.6,21.5,63.6,64.7s-23.6,65.7-62.4,65.7h-36V54z M400.7,165.7
				c26.2,0,41.3-14.9,41.3-47c0-32.1-15.1-45.9-41.3-45.9h-10.1v92.9H400.7z"/>
			<path class="st0" d="M487.5,56.3c0-7.7,6.1-13,14.2-13c8.1,0,14.2,5.3,14.2,13c0,7.6-6.1,13-14.2,13
				C493.5,69.3,487.5,63.9,487.5,56.3z M490.1,86.5h23v97.9h-23V86.5z"/>
			<path class="st0" d="M535.6,202.2c0-8.3,5.1-15.5,14.1-20.9v-0.8c-5-3.3-8.9-8.5-8.9-16.4c0-7.6,5.2-14.3,10.8-18.3v-0.8
				c-6.7-4.9-12.9-14.3-12.9-25.8c0-22.5,18.2-35.2,38.7-35.2c5.4,0,10.5,1,14.5,2.4h35v17.1h-17.9c3.2,3.7,5.6,9.7,5.6,16.4
				c0,21.8-16.5,33.4-37.2,33.4c-4.1,0-8.9-0.9-13.2-2.6c-3,2.5-4.8,5-4.8,9.4c0,5.5,4,8.9,15.9,8.9h17.4c23.4,0,35.9,7.3,35.9,24.2
				c0,19.3-20.3,34.5-52.2,34.5C553,227.7,535.6,219.4,535.6,202.2z M606.4,197c0-7.6-6.1-9.8-17.3-9.8h-13.4
				c-5.3,0-9.5-0.4-13.2-1.4c-5.3,4-7.6,8.4-7.6,12.9c0,8.9,9.6,14.1,25,14.1C595.6,212.8,606.4,205.4,606.4,197z M594.4,119.3
				c0-12.3-7.4-19.3-17-19.3s-17,6.9-17,19.3c0,12.4,7.6,19.7,17,19.7C586.9,139,594.4,131.7,594.4,119.3z"/>
			<path class="st0" d="M643.2,56.3c0-7.7,6.1-13,14.2-13c8.1,0,14.2,5.3,14.2,13c0,7.6-6.1,13-14.2,13
				C649.3,69.3,643.2,63.9,643.2,56.3z M645.9,86.5h23v97.9h-23V86.5z"/>
			<path class="st0" d="M701.5,151.4v-46.7h-14V87.5l15.2-1l2.7-26.7h19.1v26.7h25v18.3h-25v46.6c0,11.5,4.5,17.2,13.9,17.2
				c3.3,0,7.3-1.1,10.2-2.2l3.9,16.9c-5.3,1.8-12.2,3.6-20,3.6C709.8,186.8,701.5,172.5,701.5,151.4z"/>
			<path class="st0" d="M764.7,158.1c0-21,17.4-31.9,57.6-36.2c-0.3-10.5-4.5-19.3-17.8-19.3c-9.7,0-18.9,4.4-27.5,9.7l-8.5-15.3
				c10.8-6.8,24.6-12.8,40.2-12.8c24.5,0,36.5,15.1,36.5,42.4v58h-18.8l-1.8-10.8h-0.6c-8.8,7.5-18.8,13.2-30.4,13.2
				C776.5,186.8,764.7,175.2,764.7,158.1z M822.3,158.2v-22c-26.6,3.3-35.4,10.3-35.4,20.2c0,8.7,5.9,12.4,14.1,12.4
				C809,168.8,815,164.9,822.3,158.2z"/>
			<path class="st0" d="M872.9,159.2V43.6h23v116.9c0,5.7,2.6,7.7,4.9,7.7c1,0,1.8,0,3.6-0.4l2.9,17.1c-2.8,1.1-6.6,2-12.1,2
				C878.9,186.8,872.9,176.3,872.9,159.2z"/>
			<path class="st0" d="M961.4,167l5.9-6.3c9.5,10.8,23.2,17.8,38.6,17.8c20.1,0,32.7-10.7,32.7-26.4c0-16.4-10.7-21.6-23.6-27.5
				l-19.9-8.9c-11.4-5-26.7-13.2-26.7-32.7c0-19.1,16.4-32.4,38.2-32.4c15.8,0,28.6,7.2,36.6,15.7l-5.3,6.1
				c-7.7-8.2-18.1-13.5-31.3-13.5c-17.3,0-29,9.3-29,23.5c0,15.3,13.1,21.1,22.7,25.3l19.9,8.9c14.7,6.6,27.7,14.7,27.7,34.8
				c0,20.1-16.6,35.4-42,35.4C986.6,186.8,971.8,178.7,961.4,167z"/>
			<path class="st0" d="M1071,57.7c0-4.9,3.7-7.8,8-7.8s8,2.9,8,7.8c0,4.6-3.7,7.8-8,7.8S1071,62.3,1071,57.7z M1074.4,88.7h8.8
				v95.8h-8.8V88.7z"/>
			<path class="st0" d="M1111.9,204c0-8.4,5.5-16.9,14.3-23.1v-0.8c-4.8-2.9-8.5-8.1-8.5-15.4c0-8.6,6.2-14.7,10.4-17.7v-0.8
				c-6.1-5.1-12.1-14.7-12.1-26.2c0-19.7,15-33.8,33.7-33.8c5.2,0,9.7,1.2,12.7,2.4h32.4v7.5h-22.3c6.2,5.3,10.6,13.9,10.6,24
				c0,19.6-14.7,33.8-33.5,33.8c-5.3,0-11.4-1.5-15.8-4.1c-4.1,3.4-7.8,7.5-7.8,13.9c0,6.9,4,12.4,18.3,12.4h20.5
				c21.5,0,31.6,6.9,31.6,22c0,16.5-17.7,32.3-45.3,32.3C1127.1,230.5,1111.9,220.2,1111.9,204z M1187.5,199.1
				c0-10.6-7.7-14.6-22.2-14.6h-20.5c-1.9,0-6.9-0.4-11.8-1.6c-8.9,6-12.6,13.4-12.6,20.1c0,12.1,11.6,20.3,31.7,20.3
				C1173.7,223.4,1187.5,211.2,1187.5,199.1z M1174.5,120.1c0-16.2-11.2-26.5-24.8-26.5s-24.8,10.1-24.8,26.5
				c0,16,11.6,26.9,24.8,26.9C1163,146.9,1174.5,136.1,1174.5,120.1z"/>
			<path class="st0" d="M1217,88.7h7.5l1,14.8h0.4c9.8-9.7,19.7-17.2,32.9-17.2c19.8,0,29,12,29,36.7v61.4h-8.8v-60.3
				c0-20.3-6.4-30-21.8-30c-11.4,0-19.7,6-31.3,18v72.2h-8.8V88.7z"/>
			<path class="st0" d="M1316.1,160.6c0-21.3,19.2-31.4,61.8-36.1c0.3-14.7-3.7-30.5-22.6-30.5c-12.9,0-24.1,6.4-30.5,11.2l-4.1-6.5
				c6.8-4.8,20.1-12.4,35.6-12.4c22.7,0,30.3,16.5,30.3,37v61.2h-7.5l-1-12.4h-0.4c-9.8,7.9-21.4,14.8-34,14.8
				C1328.7,186.8,1316.1,178.6,1316.1,160.6z M1377.9,163.8v-32.6c-39.3,4.5-52.8,13.7-52.8,29c0,13.7,9.3,19,20.3,19
				C1356.4,179.2,1366.1,173.9,1377.9,163.8z"/>
			<path class="st0" d="M1412.8,204c0-8.4,5.5-16.9,14.3-23.1v-0.8c-4.8-2.9-8.5-8.1-8.5-15.4c0-8.6,6.2-14.7,10.4-17.7v-0.8
				c-6.1-5.1-12.1-14.7-12.1-26.2c0-19.7,15-33.8,33.7-33.8c5.2,0,9.7,1.2,12.7,2.4h32.4v7.5h-22.3c6.2,5.3,10.6,13.9,10.6,24
				c0,19.6-14.7,33.8-33.5,33.8c-5.3,0-11.4-1.5-15.8-4.1c-4.1,3.4-7.8,7.5-7.8,13.9c0,6.9,4,12.4,18.3,12.4h20.5
				c21.5,0,31.6,6.9,31.6,22c0,16.5-17.7,32.3-45.3,32.3C1428,230.5,1412.8,220.2,1412.8,204z M1488.4,199.1
				c0-10.6-7.7-14.6-22.2-14.6h-20.5c-1.9,0-6.9-0.4-11.8-1.6c-8.9,6-12.6,13.4-12.6,20.1c0,12.1,11.6,20.3,31.7,20.3
				C1474.7,223.4,1488.4,211.2,1488.4,199.1z M1475.5,120.1c0-16.2-11.2-26.5-24.8-26.5s-24.8,10.1-24.8,26.5
				c0,16,11.6,26.9,24.8,26.9C1463.9,146.9,1475.5,136.1,1475.5,120.1z"/>
			<path class="st0" d="M1509.9,136.7c0-31.2,20.3-50.4,41.8-50.4c22.7,0,36.6,16.2,36.6,44.3c0,2.4-0.1,4.8-0.5,7.2h-68.9
				c0.3,24.2,14.5,41.4,36.1,41.4c10.4,0,18.5-3.4,25.7-8.5l3.6,6.7c-7.5,4.7-16.2,9.4-30.2,9.4
				C1529.7,186.8,1509.9,168,1509.9,136.7z M1580,130.5c0-24.4-11.1-36.6-28.3-36.6c-16.2,0-30.8,13.7-32.8,36.6H1580z"/>
		</g>
	</g>
	<g>
		<path class="st1" d="M278.8,210.2c8.4,0,15.2,6.8,15.2,15.2s-6.8,15.2-15.2,15.2c-8.4,0-15.2-6.8-15.2-15.2
			S270.4,210.2,278.8,210.2z"/>
		<g>
			<path class="st1" d="M196.9,96.4h-64.7V112h64.9v59.1h-9.6v0.1H43.8v69.4h158.9c33.6,0,60.9-27.3,60.9-60.9V85.4h-66.7V96.4z
				 M225.9,190.1c8.4,0,15.2,6.8,15.2,15.2c0,8.4-6.8,15.2-15.2,15.2s-15.2-6.8-15.2-15.2C210.6,196.9,217.4,190.1,225.9,190.1z"/>
			<path class="st1" d="M202.7,5H43.8v155.3h67v-11h64.4V134h-64.9V74.5h10.2v-0.1h143.1v-8.5C263.6,32.3,236.3,5,202.7,5z
				 M84.6,45.8H54.2V15.4h30.4V45.8z"/>
		</g>
		<rect x="0.6" y="0.1" class="st1" width="30.4" height="30.4"/>
	</g>
</g>
</svg>
