<?xml version="1.0" encoding="utf-8"?>
<!-- Generator: Adobe Illustrator 22.1.0, SVG Export Plug-In . SVG Version: 6.00 Build 0)  -->
<svg version="1.1" id="Layer_1" xmlns="http://www.w3.org/2000/svg" xmlns:xlink="http://www.w3.org/1999/xlink" x="0px" y="0px"
	 viewBox="0 0 500 500" style="enable-background:new 0 0 500 500;" xml:space="preserve">
<style type="text/css">
	.st0{fill:#4CB4B8;}
	.st1{fill:#FFFFFF;}
</style>
<g>
	<g>
		<path class="st0" d="M431.5,476.5h-363c-24.8,0-45-20.2-45-45v-363c0-24.8,20.2-45,45-45h363c24.8,0,45,20.2,45,45v363
			C476.5,456.2,456.2,476.5,431.5,476.5z"/>
	</g>
	<g>
		<path class="st1" d="M387.6,343.9c8.8,0,15.9,7.1,15.9,15.9s-7.1,15.9-15.9,15.9s-15.9-7.1-15.9-15.9S378.8,343.9,387.6,343.9z"/>
		<g>
			<path class="st1" d="M301.9,224.9h-67.6v16.4h67.8v61.9H292v0.1H141.7v72.6H308c35.2,0,63.7-28.5,63.7-63.7v-98.7H302v11.4H301.9
				z M332.2,322.9c8.8,0,15.9,7.1,15.9,15.9s-7.1,15.9-15.9,15.9s-15.9-7.1-15.9-15.9C316.2,330.1,323.4,322.9,332.2,322.9z"/>
			<path class="st1" d="M308,129.3H141.7v162.4h70.1v-11.5h67.4v-16h-67.8V202H222v-0.1h149.7V193
				C371.7,157.8,343.1,129.3,308,129.3z M184.4,172h-31.8v-31.8h31.8V172z"/>
		</g>
		<rect x="96.5" y="124.2" class="st1" width="31.8" height="31.8"/>
	</g>
</g>
</svg>
