<?xml version="1.0" encoding="utf-8"?>
<!-- Generator: Adobe Illustrator 23.0.3, SVG Export Plug-In . SVG Version: 6.00 Build 0)  -->
<svg version="1.1" id="Layer_1" xmlns="http://www.w3.org/2000/svg" xmlns:xlink="http://www.w3.org/1999/xlink" x="0px" y="0px"
	 viewBox="0 0 553 724" style="enable-background:new 0 0 553 724;" xml:space="preserve">
<style type="text/css">
	.st0{fill:#FFFFFF;}
</style>
<g>
	<g>
		<path class="st0" d="M113.6,0.6c-1.4,11.8-0.2,22.8,2.6,33.7c9.6,36.5,30.2,66.3,56.4,92.8c8.8,8.9,19.3,14,31.4,16.4
			c11.6,2.3,23.2,2.3,34.8,0.1c32.5-6.3,46.6-29.6,36.9-61.2c-8.9-28.9-27.6-49.7-54.2-63.5C200.5,7.9,178.1,2.4,154.8,0.8
			C141.3-0.1,127.6,0.6,113.6,0.6z M437.2,50c-4.2-1.3-7.5-2.5-10.8-3.3c-16.1-3.9-32.4-3.4-48.6-1c-20.6,3.1-40.2,9-57.8,20.6
			c-10.1,6.6-17.1,15.7-20.6,27.3c-8.9,29.2,9.3,52.7,39.7,51.6c14.4-0.5,27.4-5.3,39.1-13.6C406.5,111.1,423.1,82,437.2,50z"/>
		<path class="st0" d="M252.5,723.7c-10-1.3-20.1-2.4-30.1-4.1c-28.6-4.7-55.7-14-81.6-27.1c-1-0.5-2-1.1-3-1.7
			c-0.3-0.2-0.4-0.5-1-1.2c61.3,16,119.4,8.7,173.6-23.4c54-31.9,88.9-79,104.6-139.8c27.9-108.2-29.2-221.8-133.2-264.3
			c-102.5-42-221.9-4.5-281.4,94.9c0.3-1.2,0.5-2.4,0.9-3.6C37.6,251.3,108,186,214.2,164C364.7,132.7,510,227,545.1,376.4
			c3.3,13.9,4.4,28.2,6.6,42.4c0.2,1.6,0.6,3.2,0.9,4.9c0,11.3,0,22.7,0,34c-0.3,1.6-0.7,3.2-0.9,4.8c-3.5,47-17.6,90.7-43.4,130.2
			c-45.6,70-109.7,112.6-192.2,127.2c-9.5,1.7-19.1,2.6-28.6,3.8C275.9,723.7,264.2,723.7,252.5,723.7z"/>
		<path class="st0" d="M113.6,0.6c14.1,0,27.7-0.8,41.2,0.2c23.3,1.6,45.7,7.1,66.5,17.9c26.6,13.8,45.3,34.6,54.2,63.5
			c9.7,31.6-4.3,54.9-36.9,61.2c-11.6,2.3-23.2,2.2-34.8-0.1c-12-2.4-22.6-7.5-31.4-16.4c-26.2-26.5-46.7-56.3-56.4-92.8
			C113.3,23.5,112.2,12.4,113.6,0.6z"/>
		<path class="st0" d="M437.2,50c-14.1,32-30.7,61.2-59.2,81.6c-11.6,8.3-24.6,13.1-39.1,13.6c-30.4,1.1-48.6-22.4-39.7-51.6
			c3.5-11.6,10.5-20.7,20.6-27.3c17.6-11.6,37.2-17.5,57.8-20.6c16.3-2.4,32.5-2.9,48.6,1C429.7,47.5,433,48.7,437.2,50z"/>
	</g>
	<g>
		<path class="st0" d="M358.5,404.7c0,48.7,0,97.3,0,146c-0.3,0.9-0.7,1.8-1,2.7c-2.9,9.6-8.6,16.4-18.6,18.9
			c-2.7,0.7-5.6,0.6-8.4,0.8c-16.2,1.5-32.4,3.1-48.6,4.6c-11.8,1.1-23.7,2.2-36.7,3.4c8.2,6.6,15.5,12.5,22.8,18.5
			c-0.1,0.5-0.3,1-0.4,1.6c-2,0.5-3.9,1.2-5.9,1.5c-15.1,2-30.3,3.9-45.4,5.7c-9.1,1.1-18.1,2.3-27.2,3.2c-2.2,0.2-4.4-0.4-6.6-0.6
			c-0.1-0.5-0.1-1.1-0.2-1.6c8.4-8,16.8-16,26.1-24.8c-2.8,0.2-4.1,0.2-5.5,0.3c-16,1.6-32.1,3.2-48.1,4.7c-20.5,2-41,4-61.6,5.7
			c-8.7,0.7-17.7,1.3-26.3,0.2c-13.5-1.7-28.5-13.3-28.4-33.2c0.4-64.3,0.2-128.6,0.1-192.9c0-11.4,5.1-19.8,14.8-25.4
			c9.3-5.3,19.3-5.5,29.6-3.8c29.5,4.8,58.9,9.7,88.4,14.5c25.5,4.2,51.1,8.2,76.6,12.3c26,4.2,52,8.3,77.9,12.8
			c6.6,1.1,13.4,2.6,19.4,5.4C353.2,388.8,355.9,396.9,358.5,404.7z M60.3,466.9c0,31.5,0,63,0,94.5c0,11.9,7.1,18.9,19.1,18.3
			c15.5-0.8,30.9-2.1,46.3-3.2c13.4-1,26.9-2.1,40.3-3.1c15.6-1.2,31.2-2.4,46.8-3.6c14.8-1.1,29.5-2.2,44.3-3.4
			c15.8-1.2,31.5-2.4,47.3-3.7c10.4-0.8,20.9-1.3,31.3-2.5c8.1-0.9,11.8-5.6,11.8-13.8c0-25.2,0-50.3,0-75.5c0-21,0-42,0-63
			c0-6.9-4.3-12.8-10.5-13.9c-5-1-10.2-1.5-15.2-2.2c-19.4-2.8-38.7-5.5-58.1-8.4c-19.4-2.8-38.7-5.8-58.1-8.6
			c-21.8-3.2-43.7-6.4-65.5-9.6c-20.7-3-41.4-6.3-62.2-8.9c-7.7-1-18,4.7-17.8,15.7C60.7,403.5,60.3,435.2,60.3,466.9z"/>
		<path class="st0" d="M227.2,522.7c-16.4,0-32.1,0.1-47.7-0.1c-4.1-0.1-8.4-0.7-12.1-2.2c-7.5-3.1-10.9-9.5-11-17.5
			c-0.1-7.5,0-15,0-23c-2-0.2-3.8-0.4-5.5-0.5c-17.3-0.5-34.6-0.9-52-1.6c-3.9-0.2-8-0.8-11.7-2.1c-10.1-3.3-15.6-11.3-15.6-21.9
			c0-21.8,0.2-43.7-0.1-65.5c-0.2-17.5,10.5-23.7,24.9-22c26.9,3.1,53.6,7.3,80.4,11.1c10.2,1.4,20.4,2.9,30.6,4.2
			c12.4,1.5,20.2,9.9,20.3,22.4c0.1,6.6,0,13.3,0,20.5c6.3,0.7,12.4,1.4,18.4,1.9c8.5,0.8,16.9,1.4,25.4,2.2
			c10.8,1,17.4,8.3,17.7,19.8c0.2,6.5,0,13,0,19.9c7.4,0.4,14.5,0.8,21.6,1.2c5.5,0.3,11,0.3,16.5,0.9c8.8,1,14,6.4,14.1,15.2
			c0.2,18.2,0.2,36.3,0,54.5c-0.1,9-6.2,14.9-15,15.5c-26.2,2-52.4,3.9-78.6,5.9c-13.2,1-20.6-5.7-20.6-18.9
			C227.2,535.8,227.2,529,227.2,522.7z M216.6,423.6c0-8.3,0.2-16.1-0.1-23.8c-0.2-3.9-3.1-6.3-6.8-7c-5.4-1-10.9-1.4-16.3-2.1
			c-17.3-2.2-34.6-4.4-51.9-6.6c-14.8-1.9-29.7-3.9-44.5-5.4c-7.4-0.8-10.2,2.1-10.2,9.4c0,22.2,0,44.3,0,66.5
			c0,7.2,3.4,10.8,10.6,11.1c18.3,0.8,36.6,1.4,54.9,2.1c1.3,0,2.5-0.2,4.1-0.3c0-10-0.1-19.6,0-29.2c0.2-9.9,5.9-16.6,15.6-17.4
			c5.6-0.5,11.3,0,16.9,0.5C198,421.8,207,422.8,216.6,423.6z M238,520.7c0,9-0.2,16.7,0.1,24.3c0.2,4.4,3.1,6.3,8.1,6
			c26.6-1.4,53.1-2.9,79.7-4.3c4.7-0.3,7.5-2.8,7.6-7.5c0.1-17.5,0.1-35,0-52.4c0-4.4-2.4-7-7.2-7.1c-8.7-0.2-17.3-0.6-26-0.8
			c-3.6-0.1-7.2,0-11,0c0,7.8,0,14.9,0,22.1c-0.1,13.2-6.9,19.8-20.1,19.8C259,520.7,248.7,520.7,238,520.7z"/>
		<path class="st0" d="M113.9,503c8.7,0,17.3-0.1,26,0c7.6,0.1,10.4,3.1,10.5,10.8c0,13.3,0,26.7,0,40c0,7.5-2.5,10.5-9.8,11
			c-17.8,1.4-35.5,2.7-53.3,3.8c-8.3,0.5-11.5-2.8-11.5-11.2c0-14.3,0-28.7,0-43c0-7.8,3.4-11.3,11.2-11.4
			C95.9,502.9,104.9,503,113.9,503C113.9,503,113.9,503,113.9,503z"/>
		<path class="st0" d="M338.9,424.9c-0.2,12.1-3.9,19.6-12.7,23.5c-8.8,3.9-17,1.8-24-4.4c-8.2-7.2-11.2-16.5-9.1-27
			c1.8-8.8,7.3-15,16.4-16.8c9.7-2,17.3,2.2,23.2,9.4C336.8,414.7,339.1,420.7,338.9,424.9z"/>
	</g>
</g>
</svg>
