<?xml version="1.0" encoding="utf-8"?>
<!-- Generator: Adobe Illustrator 22.1.0, SVG Export Plug-In . SVG Version: 6.00 Build 0)  -->
<svg version="1.1" id="Layer_1" xmlns="http://www.w3.org/2000/svg" xmlns:xlink="http://www.w3.org/1999/xlink" x="0px" y="0px"
	 viewBox="0 0 150 150" style="enable-background:new 0 0 150 150;" xml:space="preserve">
<style type="text/css">
	.st0{fill:#2D2D2D;}
	.st1{fill:#0F0F10;}
	.st2{fill:#8A8A8A;}
	.st3{fill:#FFFFFF;}
</style>
<g>
	<path class="st0" d="M144.6,124.1H5.4c-3,0-5.4-2.4-5.4-5.4V31.3c0-3,2.4-5.4,5.4-5.4h139.2c3,0,5.4,2.4,5.4,5.4v87.4
		C150,121.7,147.6,124.1,144.6,124.1z"/>
	<path class="st1" d="M135.5,32.8l-44.4,0c-2.2,0-4.3,0.7-6.1,2c-3.2,2.3-8.2,3.8-13.8,3.8c-5.6,0-10.7-1.5-13.8-3.8
		c-1.8-1.3-3.9-2-6.1-2l-39.8,0c-1.9,0-3.5,1.6-3.5,3.5v77.4c0,1.9,1.6,3.5,3.5,3.5h124c1.9,0,3.5-1.6,3.5-3.5V36.3
		C138.9,34.3,137.4,32.8,135.5,32.8z"/>
	<g>
		<path class="st2" d="M148.5,74.3c-0.2-0.4-0.5-0.6-0.9-0.5c-0.1,0-0.2,0.1-0.3,0.1c0-0.1,0-0.1,0-0.2c0-0.6-0.7-1.2-1.4-0.8
			c-0.1,0.1-0.1,0-0.2-0.1c-0.2-0.4-0.6-0.6-1-0.5c-0.1,0-0.2,0.1-0.3,0.1c0,0,0-0.1,0-0.1c0-0.6,0-1.2,0-1.9c0-0.1,0-0.1,0-0.2
			c-0.1-0.4-0.6-0.8-1-0.7c-0.5,0.1-0.9,0.5-0.9,1c0,1.2,0,2.4,0,3.6c0,0.3,0,0.5,0,0.8c0,0,0,0,0,0c0,0,0-0.1-0.1-0.1
			c-0.3-0.4-0.5-0.9-0.8-1.3c-0.2-0.3-0.4-0.4-0.7-0.4c-0.3,0-0.5,0.2-0.6,0.5c-0.1,0.2-0.1,0.4,0,0.6c0.4,1,0.8,2,1.3,2.9
			c0.2,0.3,0.4,0.6,0.7,0.9c0.2,0.2,0.4,0.4,0.5,0.7c0,0.1,0.1,0.2,0.2,0.2c0.7,0.1,1.4,0.1,2.1,0.1c0.7,0,1.4,0,2-0.1
			c0.1,0,0.1,0,0.1-0.1c0,0,0.1-0.1,0.1-0.2c0.1-0.5,0.2-1,0.5-1.4c0.4-0.7,0.6-1.5,0.7-2.2C148.6,74.8,148.6,74.6,148.5,74.3z
			 M148,75c-0.1,0.7-0.3,1.3-0.6,1.9c-0.3,0.5-0.4,1-0.5,1.6c-1.2,0.1-2.4,0.1-3.6,0c-0.1-0.2-0.2-0.3-0.3-0.5
			c-0.2-0.2-0.4-0.4-0.5-0.6c-0.5-0.7-0.8-1.4-1.2-2.1c-0.2-0.4-0.3-0.8-0.5-1.2c-0.1-0.2,0-0.3,0.2-0.4c0.2-0.1,0.3-0.1,0.4,0.1
			c0.4,0.7,0.9,1.5,1.3,2.2c0.1,0.1,0.2,0.2,0.3,0.1c0.1,0,0.2-0.1,0.2-0.3c0-1.4,0-2.9,0-4.3c0-0.3,0-0.7,0-1
			c0-0.3,0.2-0.5,0.4-0.5c0.3,0,0.5,0.1,0.5,0.4c0,0.3,0,0.6,0,0.9c0,0.6,0,1.3,0,1.9c0,0.2,0,0.5,0,0.7c0,0.2,0.1,0.3,0.2,0.3
			c0.1,0,0.2-0.1,0.2-0.3c0-0.2,0-0.5,0-0.7c0-0.3,0.2-0.4,0.4-0.4c0.3,0,0.5,0.1,0.5,0.4c0,0.1,0,0.3,0,0.4c0,0.3,0,0.5,0,0.8
			c0,0.2,0.1,0.3,0.3,0.2c0.1,0,0.2-0.1,0.2-0.3c0-0.2,0-0.5,0-0.7c0-0.3,0.2-0.5,0.5-0.5c0.3,0,0.5,0.2,0.5,0.4c0,0.1,0,0.3,0,0.4
			c0,0.3,0,0.5,0,0.8c0,0.1,0.1,0.2,0.2,0.2c0.1,0,0.2-0.1,0.2-0.2c0-0.1,0-0.2,0-0.2c0-0.1,0-0.2,0.1-0.3c0.1-0.1,0.3-0.2,0.5-0.2
			c0.2,0,0.2,0.2,0.2,0.3C148.1,74.7,148.1,74.9,148,75z"/>
		<path class="st2" d="M144.6,69.5c0,0,0.1,0,0.1,0c0,0,0,0,0,0c0.3-0.3,0.6-0.5,0.8-0.8c0.1-0.1,0.1-0.2,0-0.3
			c-0.1-0.1-0.2-0.1-0.3,0c-0.3,0.3-0.6,0.6-0.9,0.8c-0.1,0.1-0.1,0.2,0,0.3C144.4,69.5,144.5,69.5,144.6,69.5z"/>
		<path class="st2" d="M142.3,69.4c0,0,0.1,0.1,0.1,0.1c0.1,0,0.2-0.1,0.3-0.2c0-0.1,0-0.2-0.1-0.3c-0.3-0.3-0.5-0.5-0.8-0.8
			c-0.1-0.1-0.3-0.1-0.4,0c-0.1,0.1-0.1,0.2,0,0.4C141.7,68.9,142,69.2,142.3,69.4z"/>
		<path class="st2" d="M145.1,70c-0.2,0-0.3,0.1-0.3,0.2c0,0.1,0.1,0.2,0.3,0.2c0.2,0,0.3,0,0.5,0c0.2,0,0.3,0,0.5,0
			c0.2,0,0.3-0.1,0.3-0.2c0-0.1-0.1-0.2-0.3-0.2C145.7,70,145.4,70,145.1,70z"/>
		<path class="st2" d="M141,70.5c0.2,0,0.3,0,0.5,0c0.2,0,0.3,0,0.5,0c0.2,0,0.2-0.1,0.2-0.2c0-0.1-0.1-0.2-0.3-0.2
			c-0.3,0-0.7,0-1,0c-0.1,0-0.3,0.1-0.3,0.2C140.8,70.4,140.9,70.5,141,70.5z"/>
		<path class="st2" d="M143.5,69.2c0.1,0,0.2-0.1,0.2-0.3c0-0.2,0-0.3,0-0.5c0-0.2,0-0.3,0-0.5c0-0.2-0.1-0.3-0.2-0.3
			c-0.1,0-0.2,0.1-0.2,0.2c0,0.3,0,0.6,0,1C143.3,69.1,143.4,69.2,143.5,69.2z"/>
	</g>
	<g>
		<path class="st3" d="M37.7,63.3h1.9c2.4,0,3.7,1.4,3.7,3.9S42,71,39.7,71h-2V63.3z M39.6,70.2c1.8,0,2.7-1.1,2.7-3.1s-0.9-3-2.7-3
			h-0.9v6.1H39.6z"/>
		<path class="st3" d="M44.7,63.5c0-0.4,0.3-0.6,0.7-0.6s0.7,0.2,0.7,0.6c0,0.4-0.3,0.6-0.7,0.6S44.7,63.8,44.7,63.5z M44.9,65.3h1
			V71h-1V65.3z"/>
		<path class="st3" d="M47.4,72.1c0-0.5,0.3-1,0.8-1.3v0c-0.3-0.2-0.5-0.5-0.5-0.9c0-0.5,0.3-0.9,0.6-1.1v0
			c-0.4-0.3-0.7-0.9-0.7-1.5c0-1.3,1-2.1,2.2-2.1c0.3,0,0.6,0.1,0.8,0.1h2V66h-1.2c0.3,0.3,0.5,0.7,0.5,1.2c0,1.2-0.9,2-2.1,2
			c-0.3,0-0.6-0.1-0.9-0.2c-0.2,0.2-0.4,0.4-0.4,0.7c0,0.4,0.2,0.6,1,0.6h1.1c1.3,0,2,0.4,2,1.4c0,1.1-1.1,2-2.9,2
			C48.4,73.7,47.4,73.1,47.4,72.1z M51.7,71.8c0-0.5-0.4-0.7-1.2-0.7h-1c-0.2,0-0.5,0-0.7-0.1c-0.4,0.3-0.6,0.6-0.6,1
			c0,0.6,0.6,1,1.7,1C51,73,51.7,72.4,51.7,71.8z M51,67.2c0-0.8-0.5-1.3-1.2-1.3s-1.2,0.5-1.2,1.3c0,0.8,0.6,1.4,1.2,1.4
			S51,68,51,67.2z"/>
		<path class="st3" d="M53.6,63.5c0-0.4,0.3-0.6,0.7-0.6c0.4,0,0.7,0.2,0.7,0.6c0,0.4-0.3,0.6-0.7,0.6
			C53.9,64.1,53.6,63.8,53.6,63.5z M53.8,65.3h1V71h-1V65.3z"/>
		<path class="st3" d="M56.9,69.3v-3.2H56v-0.7l0.9-0.1l0.1-1.6h0.8v1.6h1.6v0.8h-1.6v3.2c0,0.7,0.2,1.1,0.9,1.1
			c0.2,0,0.5-0.1,0.7-0.2l0.2,0.7c-0.3,0.1-0.7,0.2-1.1,0.2C57.3,71.2,56.9,70.4,56.9,69.3z"/>
		<path class="st3" d="M60.1,69.5c0-1.3,1.1-1.9,3.5-2.1c0-0.7-0.2-1.5-1.2-1.5c-0.7,0-1.3,0.3-1.7,0.6l-0.4-0.7
			c0.5-0.3,1.3-0.8,2.3-0.8c1.4,0,2,0.9,2,2.4V71h-0.8l-0.1-0.7h0c-0.5,0.5-1.2,0.8-1.9,0.8C60.8,71.2,60.1,70.6,60.1,69.5z
			 M63.7,69.6V68c-1.9,0.2-2.6,0.7-2.6,1.4c0,0.7,0.4,0.9,1,0.9C62.6,70.4,63.1,70.1,63.7,69.6z"/>
		<path class="st3" d="M66.5,69.9v-7.3h1v7.3c0,0.3,0.1,0.4,0.3,0.4c0.1,0,0.1,0,0.2,0l0.1,0.7c-0.1,0-0.3,0.1-0.6,0.1
			C66.8,71.2,66.5,70.7,66.5,69.9z"/>
		<path class="st3" d="M71.4,70l0.6-0.7c0.6,0.6,1.3,1,2.1,1c1,0,1.6-0.5,1.6-1.3c0-0.8-0.6-1-1.3-1.4l-1.1-0.5
			c-0.7-0.3-1.6-0.9-1.6-2c0-1.2,1-2.1,2.4-2.1c0.9,0,1.7,0.4,2.3,1L76,64.7c-0.5-0.4-1-0.7-1.8-0.7c-0.9,0-1.4,0.4-1.4,1.1
			c0,0.7,0.7,1,1.3,1.3l1.1,0.5c0.9,0.4,1.6,0.9,1.6,2.1c0,1.2-1,2.2-2.6,2.2C73,71.2,72.1,70.7,71.4,70z"/>
		<path class="st3" d="M78,63.5c0-0.4,0.3-0.6,0.7-0.6s0.7,0.2,0.7,0.6c0,0.4-0.3,0.6-0.7,0.6S78,63.8,78,63.5z M78.2,65.3h1V71h-1
			V65.3z"/>
		<path class="st3" d="M80.7,72.1c0-0.5,0.3-1,0.8-1.3v0c-0.3-0.2-0.5-0.5-0.5-0.9c0-0.5,0.3-0.9,0.6-1.1v0
			c-0.4-0.3-0.7-0.9-0.7-1.5c0-1.3,1-2.1,2.2-2.1c0.3,0,0.6,0.1,0.8,0.1h2V66h-1.2c0.3,0.3,0.5,0.7,0.5,1.2c0,1.2-0.9,2-2.1,2
			c-0.3,0-0.6-0.1-0.9-0.2c-0.2,0.2-0.4,0.4-0.4,0.7c0,0.4,0.2,0.6,1,0.6h1.1c1.3,0,2,0.4,2,1.4c0,1.1-1.1,2-2.9,2
			C81.6,73.7,80.7,73.1,80.7,72.1z M85,71.8c0-0.5-0.4-0.7-1.2-0.7h-1c-0.2,0-0.5,0-0.7-0.1c-0.4,0.3-0.6,0.6-0.6,1
			c0,0.6,0.6,1,1.7,1C84.3,73,85,72.4,85,71.8z M84.3,67.2c0-0.8-0.5-1.3-1.2-1.3s-1.2,0.5-1.2,1.3c0,0.8,0.6,1.4,1.2,1.4
			S84.3,68,84.3,67.2z"/>
		<path class="st3" d="M87.1,65.3h0.8l0.1,0.8h0c0.5-0.5,1.1-1,1.9-1c1.2,0,1.8,0.8,1.8,2.3V71h-1v-3.5c0-1.1-0.3-1.5-1.1-1.5
			c-0.6,0-1,0.3-1.6,0.9V71h-1V65.3z"/>
		<path class="st3" d="M93.2,69.5c0-1.3,1.1-1.9,3.5-2.1c0-0.7-0.2-1.5-1.2-1.5c-0.7,0-1.3,0.3-1.7,0.6l-0.4-0.7
			c0.5-0.3,1.3-0.8,2.3-0.8c1.4,0,2,0.9,2,2.4V71h-0.8l-0.1-0.7h0c-0.5,0.5-1.2,0.8-1.9,0.8C93.9,71.2,93.2,70.6,93.2,69.5z
			 M96.7,69.6V68c-1.9,0.2-2.6,0.7-2.6,1.4c0,0.7,0.4,0.9,1,0.9C95.7,70.4,96.2,70.1,96.7,69.6z"/>
		<path class="st3" d="M99.1,72.1c0-0.5,0.3-1,0.8-1.3v0c-0.3-0.2-0.5-0.5-0.5-0.9c0-0.5,0.3-0.9,0.6-1.1v0
			c-0.4-0.3-0.7-0.9-0.7-1.5c0-1.3,1-2.1,2.2-2.1c0.3,0,0.6,0.1,0.8,0.1h2V66h-1.2c0.3,0.3,0.5,0.7,0.5,1.2c0,1.2-0.9,2-2.1,2
			c-0.3,0-0.6-0.1-0.9-0.2c-0.2,0.2-0.4,0.4-0.4,0.7c0,0.4,0.2,0.6,1,0.6h1.1c1.3,0,2,0.4,2,1.4c0,1.1-1.1,2-2.9,2
			C100.1,73.7,99.1,73.1,99.1,72.1z M103.4,71.8c0-0.5-0.4-0.7-1.2-0.7h-1c-0.2,0-0.5,0-0.7-0.1c-0.4,0.3-0.6,0.6-0.6,1
			c0,0.6,0.6,1,1.7,1C102.7,73,103.4,72.4,103.4,71.8z M102.7,67.2c0-0.8-0.5-1.3-1.2-1.3s-1.2,0.5-1.2,1.3c0,0.8,0.6,1.4,1.2,1.4
			S102.7,68,102.7,67.2z"/>
		<path class="st3" d="M104.9,68.2c0-1.9,1.3-3,2.6-3c1.5,0,2.3,1.1,2.3,2.7c0,0.2,0,0.4,0,0.6h-3.9c0.1,1.2,0.8,2,1.9,2
			c0.6,0,1-0.2,1.4-0.5l0.3,0.6c-0.5,0.3-1.1,0.6-1.9,0.6C106.1,71.2,104.9,70.1,104.9,68.2z M108.9,67.7c0-1.2-0.5-1.8-1.4-1.8
			c-0.8,0-1.5,0.7-1.7,1.8H108.9z"/>
		<path class="st3" d="M58.2,77.5h1.9c2.4,0,3.7,1.4,3.7,3.9c0,2.5-1.3,3.9-3.6,3.9h-2V77.5z M60,84.4c1.8,0,2.7-1.1,2.7-3.1
			s-0.9-3-2.7-3h-0.9v6.1H60z"/>
		<path class="st3" d="M64.9,82.4c0-1.9,1.3-3,2.6-3c1.5,0,2.3,1.1,2.3,2.7c0,0.2,0,0.4,0,0.6h-3.9c0.1,1.2,0.8,2,1.9,2
			c0.6,0,1-0.2,1.4-0.5l0.3,0.6c-0.5,0.3-1.1,0.6-1.9,0.6C66.1,85.4,64.9,84.3,64.9,82.4z M69,81.9c0-1.2-0.5-1.8-1.4-1.8
			c-0.8,0-1.5,0.6-1.7,1.8H69z"/>
		<path class="st3" d="M70.5,79.5h1l1.1,3.3c0.2,0.6,0.4,1.1,0.5,1.7h0c0.2-0.5,0.4-1.1,0.5-1.7l1.1-3.3h1l-2,5.8h-1.1L70.5,79.5z"
			/>
		<path class="st3" d="M76.6,77.7c0-0.4,0.3-0.6,0.7-0.6c0.4,0,0.7,0.2,0.7,0.6c0,0.4-0.3,0.6-0.7,0.6C76.9,78.3,76.6,78,76.6,77.7z
			 M76.8,79.5h1v5.8h-1V79.5z"/>
		<path class="st3" d="M79.3,82.4c0-1.9,1.3-3,2.8-3c0.8,0,1.3,0.3,1.7,0.7l-0.5,0.6c-0.3-0.3-0.7-0.5-1.1-0.5c-1,0-1.8,0.9-1.8,2.2
			s0.7,2.2,1.8,2.2c0.5,0,1-0.3,1.4-0.6l0.4,0.7c-0.5,0.5-1.2,0.7-1.9,0.7C80.5,85.4,79.3,84.3,79.3,82.4z"/>
		<path class="st3" d="M84.5,82.4c0-1.9,1.3-3,2.6-3c1.5,0,2.3,1.1,2.3,2.7c0,0.2,0,0.4,0,0.6h-3.9c0.1,1.2,0.8,2,1.9,2
			c0.6,0,1-0.2,1.4-0.5l0.3,0.6c-0.5,0.3-1.1,0.6-1.9,0.6C85.7,85.4,84.5,84.3,84.5,82.4z M88.5,81.9c0-1.2-0.5-1.8-1.4-1.8
			c-0.8,0-1.5,0.6-1.7,1.8H88.5z"/>
	</g>
</g>
</svg>
