<?xml version="1.0" encoding="utf-8"?>
<!-- Generator: Adobe Illustrator 22.1.0, SVG Export Plug-In . SVG Version: 6.00 Build 0)  -->
<svg version="1.1" id="Layer_1" xmlns="http://www.w3.org/2000/svg" xmlns:xlink="http://www.w3.org/1999/xlink" x="0px" y="0px"
	 viewBox="0 0 50 50" style="enable-background:new 0 0 50 50;" xml:space="preserve">
<style type="text/css">
	.st0{fill:#6B6D6E;}
</style>
<g>
	<path id="Union_108" class="st0" d="M24.4,49.9c-0.7-0.4-1.2-1.1-1.1-2c0-7.9,0-16,0-23.8v-6.1c0-0.9,0-2.1,0-3.3
		c-0.1-0.9,0.5-1.7,1.4-1.8c0.1,0,0.2,0,0.3,0l0,0c0.9,0,1.7,0.7,1.7,1.6c0,0.1,0,0.1,0,0.2v19.5c0,4.5,0,9.1,0,13.7
		c0.1,0.8-0.4,1.6-1.1,2L25.4,50h-0.8l0,0L24.4,49.9z M46,46L33.9,34.6L32,32.8c-0.4-0.4-0.7-0.9-0.7-1.4c0-0.5,0.3-1.1,0.7-1.4
		c4.8-4.6,9.6-9.1,14.1-13.4c0.3-0.4,0.8-0.6,1.3-0.6c0.6,0.1,1.2,0.4,1.5,1l0.2,0.3v28.4l-0.2,0.3c-0.3,0.5-0.9,0.8-1.5,0.9
		C46.9,46.7,46.4,46.5,46,46L46,46z M35.5,31.4L45.7,41V21.8L35.5,31.4z M1.1,45.9l-0.2-0.3V17.2L1,17c0.3-0.5,0.9-0.9,1.5-1
		c0.5,0,1,0.3,1.4,0.6L7,19.3c4.2,3.6,8.3,7.1,12.5,10.6c0.5,0.4,0.8,0.9,0.8,1.5c0,0.6-0.3,1.1-0.8,1.4
		c-5.2,4.4-10.4,8.9-15.7,13.4c-0.3,0.3-0.8,0.5-1.3,0.5C1.9,46.7,1.4,46.4,1.1,45.9L1.1,45.9z M4.3,41.3l11.6-9.9L4.3,21.5V41.3z
		 M38.6,17.6c-1.1-0.8-2.3-1.7-3.8-2.7c-0.4-0.3-0.7-0.7-0.7-1.2c-0.1-0.4,0.1-0.9,0.3-1.3c0.3-0.4,0.8-0.7,1.3-0.7
		c0.4,0,0.8,0.1,1.1,0.4c0.1,0.1,0.2,0.1,0.3,0.2c-0.1-0.2-0.1-0.4-0.2-0.6c-1.6-4.4-5.5-7.6-10.2-8.2c-0.6-0.1-1.2-0.1-1.8-0.1
		C18.7,3.5,13.4,8,12.4,14.2c-0.1,0.6-0.1,1.1-0.2,1.7V16c0.1,0.9-0.7,1.7-1.6,1.8c0,0-0.1,0-0.1,0h-0.1c-0.9,0-1.7-0.8-1.6-1.8
		c0,0,0-0.1,0-0.1c0-3.6,1.3-7.1,3.6-9.9c2.3-2.8,5.4-4.8,9-5.6C22.6,0.1,23.8,0,25,0c3.7,0,7.3,1.3,10.1,3.6
		c2.7,2.2,4.6,5.2,5.5,8.5c0.1-0.2,0.3-0.4,0.4-0.6c0.3-0.5,0.9-0.9,1.5-0.9c0.4,0,0.7,0.1,1,0.3c0.4,0.2,0.6,0.6,0.7,1.1
		c0.1,0.5-0.1,1.1-0.4,1.5c-0.7,1-1.6,2.3-2.6,3.6c-0.3,0.5-0.8,0.9-1.4,0.9C39.3,18.1,38.9,17.9,38.6,17.6L38.6,17.6z"/>
</g>
</svg>
