<?xml version="1.0" encoding="utf-8"?>
<!-- Generator: Adobe Illustrator 22.1.0, SVG Export Plug-In . SVG Version: 6.00 Build 0)  -->
<svg version="1.1" id="Layer_1" xmlns="http://www.w3.org/2000/svg" xmlns:xlink="http://www.w3.org/1999/xlink" x="0px" y="0px"
	 viewBox="0 0 50 50" style="enable-background:new 0 0 50 50;" xml:space="preserve">
<style type="text/css">
	.st0{fill:#6B6D6E;}
</style>
<g>
	<path id="Union_107" class="st0" d="M4.3,49.2L4.3,49.2l-0.3-0.2c-0.8-0.5-1.1-1.6-0.6-2.4c0.1-0.2,0.3-0.3,0.4-0.5
		c4.4-5.2,8.8-10.3,13.2-15.5c0.3-0.5,0.9-0.8,1.5-0.9c0.6,0,1.2,0.4,1.5,0.9c4.4,5.2,8.8,10.4,13.3,15.6c0.4,0.4,0.6,0.9,0.5,1.4
		c-0.1,0.6-0.4,1.1-0.9,1.4l-0.3,0.2L4.3,49.2z M8.7,45.6h19.8L18.6,34L8.7,45.6z M36.5,43.8c-1.2-0.9-2.5-1.8-3.9-2.8
		c-0.4-0.3-0.6-0.6-0.7-1.1c-0.1-0.4,0-0.9,0.3-1.3c0.9-1.3,1.9-2.6,2.9-3.9c0.3-0.4,0.8-0.7,1.4-0.7c0.4,0,0.8,0.1,1.1,0.4
		c0.7,0.6,0.8,1.6,0.3,2.3c-0.1,0.1-0.2,0.2-0.2,0.3c4.8-1.5,8.3-5.7,8.8-10.8c0.3-3.1-0.5-6.3-2.4-8.8c-1.8-2.5-4.6-4.3-7.6-4.9
		c-0.7-0.1-1.4-0.2-2.2-0.3l-0.4,0c-0.9,0-1.8-0.7-1.8-1.6c0,0,0-0.1,0-0.1c0-0.9,0.8-1.7,1.8-1.7c0,0,0.1,0,0.1,0h0.1
		c3.9,0.1,7.7,1.6,10.6,4.2c2.9,2.6,4.7,6.1,5.2,10c0,0.2,0.1,0.4,0.1,0.6l0,0.4v1.8V26c0,0.2-0.1,0.5-0.1,0.8
		c-0.1,0.6-0.2,1.1-0.3,1.7c-1.3,5.9-5.9,10.6-11.7,12.2c0.2,0.2,0.4,0.3,0.7,0.5c0.8,0.5,1,1.6,0.5,2.4c0,0,0,0,0,0
		c-0.3,0.5-0.9,0.8-1.4,0.8C37.2,44.2,36.8,44.1,36.5,43.8z M29.4,26.7H3.4c-0.2,0-0.3,0-0.5,0H2.5c-0.2,0-0.3,0-0.4,0
		c-0.1,0-0.1,0-0.2,0c-0.8,0-1.5-0.4-1.8-1.1L0,25.4v-0.8l0.1-0.2c0.4-0.7,1.1-1.2,2-1.1h32.6c0.3,0,0.5,0,0.8,0
		c0.9-0.1,1.7,0.7,1.7,1.6c0,0.1,0,0.1,0,0.2c0,0.9-0.7,1.7-1.6,1.7c0,0-0.1,0-0.1,0h-2.9L29.4,26.7z M17,19.4
		c-2.2-2.5-4.3-5.1-6.5-7.6L7,7.6C6,6.4,4.9,5.1,3.8,3.9c-0.5-0.5-0.7-1.3-0.4-2c0.3-0.7,1.1-1.1,1.8-1H32c0.9-0.1,1.7,0.5,1.9,1.4
		c0.1,0.6-0.1,1.2-0.5,1.6c-2.2,2.7-4.6,5.4-6.8,8c-0.6,0.7-1.2,1.4-1.8,2.1l-4.6,5.5c-0.4,0.5-0.9,0.8-1.5,0.9
		C18,20.3,17.4,19.9,17,19.4z M18.6,15.9l9.9-11.6H8.7L18.6,15.9z"/>
</g>
</svg>
