<?xml version="1.0" encoding="utf-8"?>
<!-- Generator: Adobe Illustrator 23.1.0, SVG Export Plug-In . SVG Version: 6.00 Build 0)  -->
<svg version="1.1" id="Layer_1" xmlns="http://www.w3.org/2000/svg" xmlns:xlink="http://www.w3.org/1999/xlink" x="0px" y="0px"
	 viewBox="0 0 300 300" style="enable-background:new 0 0 300 300;" xml:space="preserve">
<style type="text/css">
	.st0{fill:#767676;}
</style>
<g>
	<path class="st0" d="M294.7,217.3h-5.3c-3-73.3-62-132.2-134.5-134.5v-5.3h3c7.6,0,13.6-6,13.6-13.6s-6-13.6-13.6-13.6h-15.9
		c-7.6,0-13.6,6-13.6,13.6s6,13.6,13.6,13.6h3v5.3c-73.3,3-132.2,62-134.5,134.5H5.3c-3,0-5.3,2.3-5.3,5.3c0,3,2.3,5.3,5.3,5.3h6.8
		l2.3,7.6c2.3,8.3,10.6,14.4,18.9,14.4H269c8.3,0,16.6-6,18.9-14.4l2.3-7.6h6.8c0.8,0.8,3-2.3,3-5.3S297.7,217.3,294.7,217.3z
		 M138.3,63.9c0-1.5,1.5-3,3-3h15.9c1.5,0,3,1.5,3,3s-1.5,3-3,3h-15.9C139,66.1,138.3,65.4,138.3,63.9z M275.1,232.4
		c-0.8,3-5.3,6.8-8.3,6.8H31c-3.8,0-7.6-3-8.3-6.8l0,0l-1.5-4.5H235c3,0,5.3-2.3,5.3-5.3c0-3-2.3-5.3-5.3-5.3H18.9
		c3-68.8,59.7-123.9,129.2-123.9s127,55.2,129.2,123.9h-21.2c-3,0-5.3,2.3-5.3,5.3c0,3,2.3,5.3,5.3,5.3h19.6L275.1,232.4
		L275.1,232.4z"/>
	<path class="st0" d="M213.1,122.8c-2.3-1.5-6-0.8-7.6,1.5c-1.5,2.3-0.8,6,1.5,7.6c10.6,6.8,19.6,15.1,26.4,24.9
		c0.8,1.5,3,2.3,4.5,2.3s2.3,0,3-1.5c2.3-1.5,3-5.3,0.8-7.6C234.3,139.4,224.4,130.4,213.1,122.8z"/>
	<path class="st0" d="M194.2,113c-4.5-1.5-9.1-3-13.6-4.5c-3-0.8-6,0.8-6.8,3.8c-0.8,3,0.8,6,3.8,6.8c3.8,1.5,8.3,2.3,12.1,4.5
		c0.8,0,1.5,0.8,2.3,0.8c2.3,0,3.8-1.5,5.3-3C198,117.5,197.2,114.5,194.2,113z"/>
</g>
</svg>
