<svg xmlns="http://www.w3.org/2000/svg" viewBox="0 0 13 13">
  <defs>
    <style>
      .cls-1 {
        fill: #484c55;
        opacity: 0.8;
      }
    </style>
  </defs>
  <path id="Path_1618" data-name="Path 1618" class="cls-1" d="M5.571.929V-7.429H8.357v3.018a.7.7,0,0,0,.7.7h3.018V.929ZM7.429-9.518a.239.239,0,0,1-.232.232H2.089a.239.239,0,0,1-.232-.232v-.464a.239.239,0,0,1,.232-.232H7.2a.239.239,0,0,1,.232.232ZM9.286-4.643V-6.812l2.169,2.169ZM13-3.714a1.922,1.922,0,0,0-.493-1.19l-2.96-2.96a1.4,1.4,0,0,0-.261-.2v-2.379a.7.7,0,0,0-.7-.7H.7a.7.7,0,0,0-.7.7V-.7A.7.7,0,0,0,.7,0H4.643V1.161a.7.7,0,0,0,.7.7H12.3a.7.7,0,0,0,.7-.7Z" transform="translate(0 11.142)"/>
</svg>
