<svg xmlns="http://www.w3.org/2000/svg" viewBox="0 0 12.071 10.214">
  <defs>
    <style>
      .cls-1 {
        fill: #484c55;
        opacity: 0.8;
      }
    </style>
  </defs>
  <path id="Path_1620" data-name="Path 1620" class="cls-1" d="M3.714-1.161a.229.229,0,0,1-.232.232H1.161a.229.229,0,0,1-.232-.232V-2.554a.229.229,0,0,1,.232-.232H3.482a.229.229,0,0,1,.232.232Zm0-2.786a.229.229,0,0,1-.232.232H1.161a.229.229,0,0,1-.232-.232V-5.339a.229.229,0,0,1,.232-.232H3.482a.229.229,0,0,1,.232.232ZM7.429-1.161A.229.229,0,0,1,7.2-.929H4.875a.229.229,0,0,1-.232-.232V-2.554a.229.229,0,0,1,.232-.232H7.2a.229.229,0,0,1,.232.232ZM3.714-6.732a.229.229,0,0,1-.232.232H1.161a.229.229,0,0,1-.232-.232V-8.125a.229.229,0,0,1,.232-.232H3.482a.229.229,0,0,1,.232.232ZM7.429-3.946a.229.229,0,0,1-.232.232H4.875a.229.229,0,0,1-.232-.232V-5.339a.229.229,0,0,1,.232-.232H7.2a.229.229,0,0,1,.232.232Zm3.714,2.786a.229.229,0,0,1-.232.232H8.589a.229.229,0,0,1-.232-.232V-2.554a.229.229,0,0,1,.232-.232h2.321a.229.229,0,0,1,.232.232ZM7.429-6.732A.229.229,0,0,1,7.2-6.5H4.875a.229.229,0,0,1-.232-.232V-8.125a.229.229,0,0,1,.232-.232H7.2a.229.229,0,0,1,.232.232Zm3.714,2.786a.229.229,0,0,1-.232.232H8.589a.229.229,0,0,1-.232-.232V-5.339a.229.229,0,0,1,.232-.232h2.321a.229.229,0,0,1,.232.232Zm0-2.786a.229.229,0,0,1-.232.232H8.589a.229.229,0,0,1-.232-.232V-8.125a.229.229,0,0,1,.232-.232h2.321a.229.229,0,0,1,.232.232Zm.929-2.321a1.164,1.164,0,0,0-1.161-1.161H1.161A1.164,1.164,0,0,0,0-9.054v7.893A1.164,1.164,0,0,0,1.161,0h9.75a1.164,1.164,0,0,0,1.161-1.161Z" transform="translate(0 10.214)"/>
</svg>
