<?xml version="1.0" encoding="utf-8"?>
<!-- Generator: Adobe Illustrator 23.1.0, SVG Export Plug-In . SVG Version: 6.00 Build 0)  -->
<svg version="1.1" id="Layer_1" xmlns="http://www.w3.org/2000/svg" xmlns:xlink="http://www.w3.org/1999/xlink" x="0px" y="0px"
	 viewBox="0 0 300 300" style="enable-background:new 0 0 300 300;" xml:space="preserve">
<style type="text/css">
	.st0{fill:#767676;}
</style>
<g>
	<g>
		<path class="st0" d="M291.6,73.5H8.4c-4.6,0-8.4-3.8-8.4-8.4V26.6c0-4.6,3.8-8.4,8.4-8.4h283.2c4.6,0,8.4,3.8,8.4,8.4v38.5
			C300,69.7,296.2,73.5,291.6,73.5z M12.9,60.6h274.3V31.1H12.9V60.6z"/>
	</g>
	<g>
		<path class="st0" d="M123,174.4H8.3c-4.6,0-8.3-3.7-8.3-8.3v-61.2c0-4.6,3.7-8.3,8.3-8.3H123c4.6,0,8.3,3.7,8.3,8.3V166
			C131.4,170.6,127.6,174.4,123,174.4z M12.9,161.5h105.7v-52.2H12.9V161.5z"/>
	</g>
	<g>
		<path class="st0" d="M290.3,281.8H169.5c-5.3,0-9.7-4.3-9.7-9.7v-166c0-5.3,4.3-9.7,9.7-9.7h120.9c5.3,0,9.7,4.3,9.7,9.7v166
			C300,277.5,295.7,281.8,290.3,281.8z M172.7,268.9h114.4V109.3H172.7V268.9z"/>
	</g>
	<g>
		<path class="st0" d="M123,281.8H8.3c-4.6,0-8.3-3.7-8.3-8.3v-61.2c0-4.6,3.7-8.3,8.3-8.3H123c4.6,0,8.3,3.7,8.3,8.3v61.2
			C131.4,278.1,127.6,281.8,123,281.8z M12.9,268.9h105.7v-52.2H12.9V268.9z"/>
	</g>
</g>
</svg>
