<?xml version="1.0" encoding="utf-8"?>
<!-- Generator: Adobe Illustrator 22.1.0, SVG Export Plug-In . SVG Version: 6.00 Build 0)  -->
<svg version="1.1" id="Layer_1" xmlns="http://www.w3.org/2000/svg" xmlns:xlink="http://www.w3.org/1999/xlink" x="0px" y="0px"
	 viewBox="0 0 50 50" style="enable-background:new 0 0 50 50;" xml:space="preserve">
<style type="text/css">
	.st0{fill:#6B6D6E;}
</style>
<g>
	<path id="Union_109" class="st0" d="M27.3,34.2c0-7,8.4-20.3,9.4-21.8l1.9-3l1.9,3c1,1.5,9.5,14.9,9.5,21.8c0,6.2-5,11.3-11.3,11.3
		c-0.1,0-0.1,0-0.2,0c-6.1,0.1-11.2-4.8-11.3-10.9C27.3,34.4,27.3,34.3,27.3,34.2z M0,34.2L11.4,6.8c0,0,1.1-2.1,3.4-2.1
		c2.1,0,3.4,2.1,3.4,2.1L25,20.5v9.1L21.4,25H8.2l-3.6,9.1H0z M10,20.5h9.5l-3.6-9.1h-2.3L10,20.5z"/>
</g>
</svg>
