<?xml version="1.0" encoding="utf-8"?>
<!-- Generator: Adobe Illustrator 22.1.0, SVG Export Plug-In . SVG Version: 6.00 Build 0)  -->
<svg version="1.1" id="Layer_1" xmlns="http://www.w3.org/2000/svg" xmlns:xlink="http://www.w3.org/1999/xlink" x="0px" y="0px"
	 viewBox="0 0 50 50" style="enable-background:new 0 0 50 50;" xml:space="preserve">
<style type="text/css">
	.st0{fill:#6B6D6E;}
</style>
<g>
	<path id="Path_1580" class="st0" d="M41,43.7c-4.8,0.1-8.8-3.8-8.9-8.6c0-0.1,0-0.2,0-0.3c0-5.4,6.6-16,7.4-17.1l1.5-2.3l1.5,2.3
		c0.8,1.2,7.5,11.7,7.5,17.2c0,4.9-4,8.9-8.9,8.9C41.1,43.7,41,43.7,41,43.7z M41,18.7c0,0-7.1,11.1-7.1,16.2
		c-0.1,3.8,2.9,7,6.8,7.1c0.1,0,0.2,0,0.3,0c3.9,0.1,7.1-3.1,7.2-7c0,0,0-0.1,0-0.1C48.2,29.8,41,18.7,41,18.7L41,18.7z M25,17
		l1.8,7.2h-5.4l1.8-7.2L25,17z M32.1,24.1l-5.4-10.7c0,0-0.8-1.8-2.7-1.9c-1.5,0-2.7,1.9-2.7,1.9l-9.6,21.5h4.2l3.6-7.2h8.9l1.4,1.7
		c-0.8,1.7-1.3,3.5-1.4,5.4c0,1.9,0.6,3.8,1.8,5.4H10.7c-2,0-3.6-1.6-3.6-3.6v-3.6H5.4c-1,0-1.8-0.8-1.8-1.8s0.8-1.8,1.8-1.8h1.8
		v-3.6H5.4c-1,0-1.8-0.8-1.8-1.8c0-1,0.8-1.8,1.8-1.8h1.8v-3.6H3.6c-1,0-1.8-0.8-1.8-1.8c0-1,0.8-1.8,1.8-1.8h3.6V9.8H1.8
		C0.8,9.8,0,9,0,8c0-1,0.8-1.8,1.8-1.8h33.9c2,0,3.6,1.6,3.6,3.6v3.6l-1.8,1.8C35.5,18,33.7,21,32.1,24.1z"/>
</g>
</svg>
