<?xml version="1.0" encoding="utf-8"?>
<!-- Generator: Adobe Illustrator 24.0.0, SVG Export Plug-In . SVG Version: 6.00 Build 0)  -->
<svg version="1.1" id="Layer_1" xmlns="http://www.w3.org/2000/svg" xmlns:xlink="http://www.w3.org/1999/xlink" x="0px" y="0px"
	 viewBox="0 0 100 100" style="enable-background:new 0 0 100 100;" xml:space="preserve">
<style type="text/css">
	.st0{fill:#198AD4;}
	.st1{fill:#FFFFFF;}
	.st2{opacity:0.6;fill:#FFFFFF;enable-background:new    ;}
	.st3{opacity:0.4;fill:#FFFFFF;enable-background:new    ;}
</style>
<g id="Group_6323" transform="translate(8671 -7471)">
	<circle id="_87186bdea42c7c678e662572b65c25ad" class="st0" cx="-8621" cy="7521" r="49.5"/>
	<path id="Path_2339" class="st1" d="M-8610.36,7531.42h3.32v-15.93h5.42v-2.81h-14.16v2.81h5.42V7531.42z M-8593.43,7531.42h3.93
		l5.82-18.74h-3.41l-2.61,9.43c-0.57,2.12-1,3.95-1.63,6.1h-0.12c-0.63-2.15-1.06-3.98-1.66-6.1l-2.64-9.43h-3.53L-8593.43,7531.42z
		"/>
	<g id="Group_6288" transform="translate(-230.579 -246.08)">
		<path id="Path_2304" class="st1" d="M-8418.38,7782.06c-0.25,0-0.45-0.2-0.45-0.45c0-0.09,0.03-0.18,0.08-0.26l4.58-6.3
			c0.13-0.18,0.33-0.28,0.55-0.28h5.35v5.07l-1.44,1.2c-1.06,0.79-2.38,1.15-3.7,1.03L-8418.38,7782.06z"/>
		<g id="Group_6290" transform="translate(-8428.818 7736.743)">
			<path id="Path_2306" class="st1" d="M22.04,32.21c-0.09-0.13-0.26-0.18-0.41-0.13l-0.82,0.26c-0.15,0.05-0.26,0.19-0.26,0.35
				v7.41c0.11,1.53-0.41,3.03-1.44,4.17l6.73-5.65c0.3-0.25,0.35-0.69,0.12-1.01L22.04,32.21z"/>
			<path id="Path_2307" class="st2" d="M22.04,32.21c-0.09-0.13-0.26-0.18-0.41-0.13l-0.82,0.26c-0.15,0.05-0.26,0.19-0.26,0.35
				v7.41c0.11,1.53-0.41,3.03-1.44,4.17l6.73-5.65c0.3-0.25,0.35-0.69,0.12-1.01L22.04,32.21z"/>
		</g>
		<g id="Group_6293" transform="translate(-8430.237 7739.832)">
			<path id="Path_2309" class="st1" d="M21.98,37.02c0.1,1.52-0.44,3.01-1.49,4.12c-1.04,0.81-2.34,1.19-3.65,1.08
				c1.32,0.13,2.63-0.24,3.7-1.02C21.58,40.06,22.1,38.55,21.98,37.02z"/>
			<path id="Path_2310" class="st3" d="M21.98,37.02c0.1,1.52-0.44,3.01-1.49,4.12c-1.04,0.81-2.34,1.19-3.65,1.08
				c1.32,0.13,2.63-0.24,3.7-1.02C21.58,40.06,22.1,38.55,21.98,37.02z"/>
		</g>
		<path id="Path_2311" class="st1" d="M-8396.99,7781.22c-0.08,0.23-0.33,0.36-0.57,0.28c-0.08-0.03-0.16-0.08-0.21-0.15l-4.58-6.3
			c-0.13-0.18-0.17-0.4-0.1-0.61l1.65-5.09l4.82,1.56l0.7,1.74c0.42,1.25,0.36,2.62-0.17,3.83L-8396.99,7781.22z"/>
		<g id="Group_6297" transform="translate(-8427.442 7734.909)">
			<path id="Path_2313" class="st1" d="M21.59,31.22c-0.15,0.05-0.26,0.19-0.26,0.35v0.86c0,0.16,0.11,0.3,0.26,0.35l7.05,2.29
				c1.49,0.36,2.77,1.32,3.53,2.65l-3.29-8.14c-0.15-0.36-0.55-0.55-0.92-0.43L21.59,31.22z"/>
			<path id="Path_2314" class="st2" d="M21.59,31.22c-0.15,0.05-0.26,0.19-0.26,0.35v0.86c0,0.16,0.11,0.3,0.26,0.35l7.05,2.29
				c1.49,0.36,2.77,1.32,3.53,2.65l-3.29-8.14c-0.15-0.36-0.55-0.55-0.92-0.43L21.59,31.22z"/>
		</g>
		<g id="Group_6300" transform="translate(-8424.639 7737.195)">
			<path id="Path_2316" class="st1" d="M25.83,32.79c1.48,0.38,2.73,1.35,3.46,2.69c0.45,1.23,0.41,2.59-0.1,3.8
				c0.53-1.21,0.59-2.58,0.17-3.83C28.6,34.11,27.33,33.15,25.83,32.79z"/>
			<path id="Path_2317" class="st3" d="M25.83,32.79c1.48,0.38,2.73,1.35,3.46,2.69c0.45,1.23,0.41,2.59-0.1,3.8
				c0.53-1.21,0.59-2.58,0.17-3.83C28.6,34.11,27.33,33.15,25.83,32.79z"/>
		</g>
		<path id="Path_2318" class="st1" d="M-8391.17,7760.62c0.2,0.15,0.24,0.43,0.09,0.63c-0.05,0.07-0.13,0.12-0.21,0.15l-7.41,2.41
			c-0.21,0.07-0.44,0.03-0.61-0.1l-4.33-3.14l2.98-4.1l1.87-0.13c1.32-0.01,2.6,0.47,3.59,1.34L-8391.17,7760.62z"/>
		<g id="Group_6304" transform="translate(-8428.266 7731.958)">
			<path id="Path_2320" class="st1" d="M20.01,32.44c0,0.16,0.11,0.3,0.26,0.35l0.82,0.26c0.15,0.05,0.32,0,0.41-0.13l4.36-5.99
				c0.81-1.3,2.11-2.22,3.61-2.53L20.72,25c-0.39,0.03-0.69,0.36-0.69,0.75L20.01,32.44z"/>
			<path id="Path_2321" class="st2" d="M20.01,32.44c0,0.16,0.11,0.3,0.26,0.35l0.82,0.26c0.15,0.05,0.32,0,0.41-0.13l4.36-5.99
				c0.81-1.3,2.11-2.22,3.61-2.53L20.72,25c-0.39,0.03-0.69,0.36-0.69,0.75L20.01,32.44z"/>
		</g>
		<g id="Group_6307" transform="translate(-8426.023 7731.952)">
			<path id="Path_2323" class="st1" d="M23.61,26.93c0.81-1.29,2.13-2.18,3.63-2.46c1.31-0.04,2.59,0.41,3.58,1.27
				c-0.99-0.88-2.27-1.36-3.6-1.35C25.72,24.7,24.42,25.62,23.61,26.93z"/>
			<path id="Path_2324" class="st3" d="M23.61,26.93c0.81-1.29,2.13-2.18,3.63-2.46c1.31-0.04,2.59,0.41,3.58,1.27
				c-0.99-0.88-2.27-1.36-3.6-1.35C25.72,24.7,24.42,25.62,23.61,26.93z"/>
		</g>
		<path id="Path_2325" class="st1" d="M-8408.96,7748.72c0.2-0.14,0.48-0.1,0.63,0.1c0.05,0.08,0.08,0.17,0.08,0.26v7.79
			c0,0.22-0.1,0.42-0.28,0.55l-4.33,3.14l-2.98-4.11l0.45-1.82c0.4-1.26,1.25-2.33,2.39-3L-8408.96,7748.72z"/>
		<g id="Group_6311" transform="translate(-8431.827 7731.312)">
			<path id="Path_2327" class="st1" d="M21.18,34.83c0.15,0.05,0.32,0,0.41-0.13l0.51-0.7c0.09-0.13,0.09-0.3,0-0.43l-4.36-5.99
				c-1-1.17-1.47-2.69-1.3-4.22l-2.13,8.52c-0.09,0.38,0.13,0.77,0.5,0.89L21.18,34.83z"/>
			<path id="Path_2328" class="st2" d="M21.18,34.83c0.15,0.05,0.32,0,0.41-0.13l0.51-0.7c0.09-0.13,0.09-0.3,0-0.43l-4.36-5.99
				c-1-1.17-1.47-2.69-1.3-4.22l-2.13,8.52c-0.09,0.38,0.13,0.77,0.5,0.89L21.18,34.83z"/>
		</g>
		<g id="Group_6314" transform="translate(-8431.035 7730.159)">
			<path id="Path_2330" class="st1" d="M16.94,28.72c-0.98-1.17-1.42-2.7-1.22-4.21c0.37-1.26,1.19-2.34,2.31-3.01
				c-1.14,0.67-1.99,1.74-2.39,3C15.48,26.02,15.95,27.55,16.94,28.72z"/>
			<path id="Path_2331" class="st3" d="M16.94,28.72c-0.98-1.17-1.42-2.7-1.22-4.21c0.37-1.26,1.19-2.34,2.31-3.01
				c-1.14,0.67-1.99,1.74-2.39,3C15.48,26.02,15.95,27.55,16.94,28.72z"/>
		</g>
		<path id="Path_2332" class="st1" d="M-8425.77,7761.97c-0.08-0.24,0.06-0.49,0.29-0.56c0.09-0.03,0.18-0.03,0.27,0l7.41,2.41
			c0.21,0.07,0.37,0.23,0.44,0.44l1.65,5.09l-4.82,1.56l-1.59-0.99c-1.07-0.77-1.82-1.91-2.11-3.19L-8425.77,7761.97z"/>
		<g id="Group_6318" transform="translate(-8433.587 7736.309)">
			<path id="Path_2334" class="st1" d="M23.85,32.65c0.09-0.13,0.09-0.3,0-0.43l-0.52-0.7c-0.09-0.13-0.26-0.18-0.41-0.13
				l-7.05,2.29c-1.42,0.58-3.01,0.55-4.41-0.08l7.45,4.66c0.33,0.21,0.77,0.12,1-0.2L23.85,32.65z"/>
			<path id="Path_2335" class="st2" d="M23.85,32.65c0.09-0.13,0.09-0.3,0-0.43l-0.52-0.7c-0.09-0.13-0.26-0.18-0.41-0.13
				l-7.05,2.29c-1.42,0.58-3.01,0.55-4.41-0.08l7.45,4.66c0.33,0.21,0.77,0.12,1-0.2L23.85,32.65z"/>
		</g>
		<g id="Group_6321" transform="translate(-8434.399 7735.939)">
			<path id="Path_2337" class="st1" d="M16.7,34.05c-1.42,0.57-3,0.51-4.38-0.14c-1.08-0.73-1.85-1.85-2.15-3.13
				c0.29,1.29,1.04,2.43,2.12,3.2C13.68,34.61,15.28,34.63,16.7,34.05z"/>
			<path id="Path_2338" class="st3" d="M16.7,34.05c-1.42,0.57-3,0.51-4.38-0.14c-1.08-0.73-1.85-1.85-2.15-3.13
				c0.29,1.29,1.04,2.43,2.12,3.2C13.68,34.61,15.28,34.63,16.7,34.05z"/>
		</g>
	</g>
</g>
</svg>
