<?xml version="1.0" encoding="utf-8"?>
<!-- Generator: Adobe Illustrator 23.0.1, SVG Export Plug-In . SVG Version: 6.00 Build 0)  -->
<svg version="1.1" id="Capa_1" xmlns="http://www.w3.org/2000/svg" xmlns:xlink="http://www.w3.org/1999/xlink" x="0px" y="0px"
	 viewBox="0 0 40 40" style="enable-background:new 0 0 40 40;" xml:space="preserve">
<style type="text/css">
	.st0{fill:#3A3A3A;}
</style>
<g>
	<path class="st0" d="M39.2,23.2h-1.9L36,4.7C36,4.3,35.7,4,35.2,4h-4c-0.4,0-0.8,0.3-0.8,0.7l-1.3,18.5h-1.1v-3.9
		c0-0.4-0.3-0.8-0.8-0.8c-0.2,0-0.3,0.1-0.5,0.2L21.4,23v-3.7c0-0.4-0.3-0.8-0.8-0.8c-0.2,0-0.3,0.1-0.5,0.2L14.8,23v-3.7
		c0-0.4-0.3-0.8-0.8-0.8c-0.2,0-0.3,0.1-0.5,0.2L8.2,23v-3.7c0-0.4-0.3-0.8-0.8-0.8c-0.1,0-0.3,0-0.4,0.1l-6.6,4
		C0.1,22.8,0,23,0,23.3v15.9C0,39.7,0.4,40,0.8,40h38.4c0.4,0,0.8-0.3,0.8-0.8V24C40,23.5,39.6,23.2,39.2,23.2z M32,5.5h2.5
		l1.2,17.7h-5L32,5.5z M26.5,38.4h-3.7v-7.7h3.7V38.4z M38.4,38.4H28.1v-8.5c0-0.4-0.3-0.8-0.8-0.8H22c-0.4,0-0.8,0.3-0.8,0.8v8.5
		H1.6V23.8l5.1-3v3.9c0,0.4,0.3,0.8,0.8,0.8c0.2,0,0.3-0.1,0.5-0.2l5.4-4.3v3.7c0,0.4,0.3,0.8,0.8,0.8c0.2,0,0.3-0.1,0.5-0.2
		l5.4-4.3v3.7c0,0.4,0.3,0.8,0.8,0.8c0.2,0,0.3-0.1,0.5-0.2l5.4-4.3v3c0,0.4,0.3,0.8,0.8,0.8h11.2V38.4z"/>
	<path class="st0" d="M22.6,1.6C22.8,1.7,23,1.8,23.2,2c0.4,0.5,0.9,0.8,1.6,0.9C25.4,2.8,26,2.5,26.4,2c0.2-0.2,0.3-0.3,0.5-0.4
		c0.1,0,0.3,0.2,0.6,0.5c0.4,0.5,0.9,0.8,1.5,0.8c0.7-0.1,1.3-0.4,1.7-1c0.1-0.1,0.3-0.3,0.4-0.4c0.3,0,0.3,0.1,0.5,0.4
		c0.3,0.6,0.9,0.9,1.6,1h0c0.4,0,0.8-0.3,0.8-0.8s-0.3-0.8-0.8-0.8c-0.1,0-0.1,0-0.3-0.3C32.6,0.4,31.9,0,31.2,0l-0.1,0
		c-0.6,0.1-1.1,0.4-1.4,0.8c-0.3,0.3-0.5,0.5-0.6,0.5c-0.2-0.1-0.3-0.2-0.5-0.4c-0.4-0.5-1-0.8-1.7-0.9c-0.6,0.1-1.2,0.4-1.5,0.9
		C25.2,1,25,1.2,24.8,1.3c-0.2-0.1-0.4-0.3-0.5-0.4c-0.4-0.5-1-0.8-1.6-0.9c-0.4,0-0.8,0.3-0.8,0.8c0,0.2,0.1,0.4,0.2,0.6
		C22.2,1.5,22.4,1.6,22.6,1.6z"/>
	<path class="st0" d="M7.4,30.5H4.8c-0.4,0-0.8,0.3-0.8,0.8v4C4,35.7,4.3,36,4.8,36h2.7c0.4,0,0.8-0.3,0.8-0.8v-4
		C8.2,30.8,7.8,30.5,7.4,30.5z M6.6,34.5H5.5V32h1.1V34.5z"/>
	<path class="st0" d="M12.7,30.5h-2.7c-0.4,0-0.8,0.3-0.8,0.8v4c0,0.4,0.3,0.8,0.8,0.8h2.7c0.4,0,0.8-0.3,0.8-0.8v-4
		C13.5,30.8,13.1,30.5,12.7,30.5z M11.9,34.5h-1.1V32h1.1V34.5z"/>
	<path class="st0" d="M18,30.5h-2.7c-0.4,0-0.8,0.3-0.8,0.8v4c0,0.4,0.3,0.8,0.8,0.8H18c0.4,0,0.8-0.3,0.8-0.8v-4
		C18.8,30.8,18.4,30.5,18,30.5z M17.2,34.5h-1.1V32h1.1V34.5z"/>
</g>
</svg>
