<?xml version="1.0" encoding="utf-8"?>
<!-- Generator: Adobe Illustrator 19.2.0, SVG Export Plug-In . SVG Version: 6.00 Build 0)  -->
<svg version="1.1" id="Layer_1" xmlns="http://www.w3.org/2000/svg" xmlns:xlink="http://www.w3.org/1999/xlink" x="0px" y="0px"
	 viewBox="0 0 512 512" style="enable-background:new 0 0 512 512;" xml:space="preserve">
<style type="text/css">
	.st0{fill:#5B5B5B;}
</style>
<g>
	<g>
		<path class="st0" d="M290.2,491.8c-21.2-17-36.5-38.1-45.3-63.2c-14.5-41.3-10.2-81.1,12-119.1c1-1.7,2.1-3.5,2.2-5.3
			c0.2-7.3,3.1-13.4,7.3-19.3c9.6-13.6,17.7-27.9,22-44c0.4-1.5,1.4-2.9,2.5-4c21.8-21.1,31.5-45.1,19.2-74.4
			c-0.3-0.8,0.1-1.9,0.2-2.8c1.4-10.4,3.6-20.8,4.2-31.3c1.3-23-1-45.7-10.5-67.2c-9-20.4-25.9-32-46.7-30.6
			c-6.9,0.4-11.3-0.8-16.3-5.8c-9.1-9.2-21.7-12.8-34.5-14.5c-30-4.1-56.1,3.7-76.4,26c-19.6,21.6-28,47.7-30.5,75.8
			c-1.5,17.5,0.7,34.6,7.3,51.7c-5.3,2.1-5.8,6.4-6.4,10.6c-2.2,16.4,2.5,31.5,9.6,46.1c2.9,5.9,7.3,10.4,13.3,13.6
			c1.8,1,3.6,3.1,4.1,5c4.8,17.3,12.4,33.2,23.7,47.4c1.3,1.7,2.8,3.4,3.4,5.3c3.6,12-7.6,28.8-20.2,31.9
			c-15.6,3.9-31.3,7.7-46.4,13c-25.6,9-49.5,21.3-68.7,40.5C8.5,388,0.4,400.7,0.5,416.9c0,10.2,0.1,20.5,0,30.7
			C0.4,457.4,5,465,12.7,471.1c8.7,7,18.8,11.3,29.3,14.7c27.3,8.9,55.6,12.3,84.2,14.3c45,3,90,4.6,135.1,0.2
			c11.1-1.1,22.2-2.5,33.4-3.8c-0.4-1-0.4-1.3-0.6-1.5C292.8,493.9,291.5,492.8,290.2,491.8z M386.6,260.6
			c-68.9-0.6-125.3,53.5-125.7,120.7c-0.4,66.6,55.7,121,125.1,121.2c69,0.2,124.7-53.2,125.4-120.4
			C512.3,315.7,456.3,261.3,386.6,260.6z M462,405.9c-13.9,0-27.6,0-41.3,0c-9.2,0-9.2,0-9.2,8.7c0,13.3,0,26.5,0,40.3h-50.8v-48.7
			h-50.4V357h49.9v-48.8h51v48.2H462V405.9z"/>
	</g>
</g>
</svg>
