<?xml version="1.0" encoding="utf-8"?>
<!-- Generator: Adobe Illustrator 22.1.0, SVG Export Plug-In . SVG Version: 6.00 Build 0)  -->
<svg version="1.1" id="Layer_1" xmlns="http://www.w3.org/2000/svg" xmlns:xlink="http://www.w3.org/1999/xlink" x="0px" y="0px"
	 viewBox="0 0 40 40" style="enable-background:new 0 0 40 40;" xml:space="preserve">
<style type="text/css">
	.st0{fill:#FFFFFF;}
</style>
<g>
	<path class="st0" d="M22.1,38.1c-0.2,0-0.4,0-0.6,0c-3.4,0-6.8,0-10.1,0H6.2c-1.6,0-2.5-0.9-2.5-2.5c0-10.4,0-20.7-0.1-31.1
		C3.7,2.8,4.6,2,6.2,2c2.6,0,5.3,0,7.9,0h9.6C23.9,2,24,2.2,24,2.3v2.1c0,1.5,0,3.1,0,4.7c0,0.4,0,0.7,0.1,1.1c0.2,1.2,0.8,1.8,2,2
		c0.4,0,0.8,0.1,1.2,0.1c1,0,2,0,3,0c0.5,0,2.8,0,3.3,0c0.2,0,0.3,0.2,0.3,0.3v2.8c0,2,0,4.1,0,6.1c0,0.6,0.4,1.1,0.9,1.1l0,0
		c0.6,0,0.9-0.4,0.9-1.1c0-1.8,0-3.7,0-5.5c0-1.5,0-3.1,0-4.6c0-0.5-0.2-0.9-0.5-1.3c-0.5-0.6-1.1-1.2-1.6-1.8
		c-2.2-2.4-4.5-4.9-6.8-7.4C26.5,0.3,25.9,0,25,0c-2.3,0-4.6,0-6.9,0c-4,0-8,0-12,0C3.5,0,1.8,1.8,1.8,4.4c0,9.8,0,19.6,0.1,31.3
		c0,0.3,0,0.5,0.1,0.8C2.4,38.6,4.1,40,6.2,40c2.2,0,4.4,0,6.6,0c1.6,0,3.3,0,4.9,0h4.2H22c0.1,0,0.1,0,0.2,0
		c0.5-0.1,0.8-0.4,0.9-0.9C22.8,38.6,22.6,38.2,22.1,38.1z M25.8,3.2L25.8,3.2C25.9,3,26,3,26.1,2.9l0,0c0.1,0,0.2,0,0.3,0.1
		l6.3,6.9c0.1,0.1,0.1,0.2,0.1,0.3s-0.1,0.2-0.2,0.2h-0.1c-0.1,0-0.1,0-0.2,0c-0.6,0-1.2,0-1.9,0c-1.2,0-2.5,0-3.7,0
		c-0.2,0-0.5,0-0.7-0.2s-0.2-0.4-0.2-0.6c0-1.4,0-2.9,0-4.2c0-0.7,0-1.3,0-2C25.7,3.3,25.8,3.2,25.8,3.2z"/>
	<path class="st0" d="M30,23.6c-4.5,0-8.2,3.7-8.2,8.2S25.5,40,30,40s8.2-3.7,8.2-8.2S34.5,23.6,30,23.6z M30,38.2
		c-3.6,0-6.5-2.9-6.5-6.4c0-3.6,2.9-6.5,6.4-6.5c3.6,0,6.5,2.9,6.5,6.4C36.5,35.3,33.6,38.2,30,38.2z"/>
	<path class="st0" d="M30.5,31l-0.2-0.1v-1.4c0.1,0,0.3,0.1,0.5,0.2s0.5,0.2,0.8,0.4v-1.5c-0.3-0.1-0.6-0.2-0.8-0.2
		c-0.2,0-0.4-0.1-0.6-0.1v-0.9h-0.6v0.9c-0.5,0-1,0.2-1.3,0.6c-0.3,0.3-0.5,0.7-0.5,1.2c0,0.4,0.1,0.7,0.3,1c0.2,0.3,0.5,0.6,1,0.8
		l0.6,0.3v1.6c-0.3,0-0.5-0.1-0.8-0.2c-0.3-0.1-0.6-0.3-1-0.5l0.1,1.7c0.4,0.1,0.7,0.2,0.9,0.2c0.2,0,0.4,0.1,0.6,0.1h0.1v1.1h0.6
		V35c0.6-0.1,1-0.3,1.3-0.7s0.5-0.8,0.5-1.4c0-0.4-0.1-0.8-0.4-1.1C31.5,31.6,31.1,31.3,30.5,31z M29.8,30.6
		c-0.2-0.1-0.4-0.2-0.5-0.3c-0.1-0.1-0.2-0.2-0.2-0.4c0-0.1,0.1-0.3,0.2-0.3c0.1-0.1,0.3-0.2,0.5-0.2V30.6z M30.7,33.5
		c-0.1,0.1-0.2,0.2-0.4,0.2v-1.4c0.2,0.1,0.3,0.2,0.4,0.3s0.1,0.3,0.1,0.4C30.9,33.3,30.8,33.4,30.7,33.5z"/>
	<path class="st0" d="M11.3,16.1c-0.3,0.1-0.7,0.1-1.2,0.3c-1.9,0.7-2.8,1.8-2.8,3.6v2.8c0,0.3,0.3,0.6,0.6,0.6h15.3
		c0.3,0,0.6-0.3,0.6-0.6V20c0-1.8-0.9-2.9-2.9-3.6c-0.4-0.1-0.8-0.2-1.1-0.3c-0.8-0.2-1-0.2-1.3-0.7c0.9-1.3,1.2-2.9,1.2-4
		c0-1.4-0.3-2.5-0.9-3.3c-0.7-0.9-1.8-1.4-3.2-1.4c-3.6,0-4.2,2.9-4.2,4.7c0,1.1,0.4,2.7,1.2,4C12.3,15.9,12,16,11.3,16.1z
		 M15.5,8.5c1.6,0,2.3,0.9,2.3,2.9c0,1.3-0.8,4-2.3,4s-2.4-2.6-2.4-4C13.2,9.4,13.9,8.5,15.5,8.5z M13.9,16.7
		c0.5,0.3,1.1,0.5,1.6,0.5s1.1-0.2,1.6-0.5c0.6,0.8,1.4,1,2.3,1.2c0.3,0.1,0.6,0.1,0.9,0.2c1,0.3,1.6,0.7,1.6,1.8v1.6H9.1V20
		c0-1.1,0.6-1.5,1.6-1.8c0.3-0.1,0.6-0.2,0.9-0.2C12.5,17.8,13.3,17.6,13.9,16.7z"/>
</g>
</svg>
