<?xml version="1.0" encoding="utf-8"?>
<!-- Generator: Adobe Illustrator 22.1.0, SVG Export Plug-In . SVG Version: 6.00 Build 0)  -->
<svg version="1.1" id="Layer_1" xmlns="http://www.w3.org/2000/svg" xmlns:xlink="http://www.w3.org/1999/xlink" x="0px" y="0px"
	 viewBox="0 0 507.8 544.6" style="enable-background:new 0 0 507.8 544.6;" xml:space="preserve">
<style type="text/css">
	.st0{fill:#FFFFFF;}
</style>
<path id="Subtraction_1" class="st0" d="M475.1,544.6c-8.7,0-17-3.4-23.1-9.5l-51.7-50.4v35.4c0.3,10.3-7.9,18.8-18.2,19.1
	c-0.3,0-0.6,0-0.9,0H19.1c-5.1,0.1-10-1.9-13.6-5.4c-3.6-3.6-5.5-8.5-5.4-13.6V57.2c-0.1-5.1,1.9-10,5.4-13.6
	C9.1,40,14,38,19.1,38.1h88.5V16.3c0-2.2,0.4-4.5,1.2-6.6c1.5-3.9,4.6-7,8.6-8.6c2.1-0.8,4.3-1.2,6.6-1.2h153.8
	c4.2,0.1,8.2,1.7,11.2,4.6c3.3,3,5.1,7.3,5.1,11.7v21.8h87.1c10.3-0.3,18.8,7.9,19.1,18.2c0,0.3,0,0.6,0,0.9v249.1
	c9.5,14.1,15.2,30.4,16.9,47.3c0.8,8.4,0.5,16.8-1,25.1c-1.4,8.4-4,16.6-7.7,24.3l88.5,85.8c3.4,2.7,6.1,6.1,8,10
	c3.8,8,3.9,17.2,0.2,25.2c-1.8,4-4.1,7.7-6.8,11.1C492.1,541.1,483.8,544.6,475.1,544.6L475.1,544.6z M396.2,423.4
	c-1.4,2.7-2.7,4.1-5.4,6.8l-6.8,6.8l84.4,81.7c1.4,1.4,4.1,2.7,5.4,2.7c5.3-0.1,9.6-4.4,9.5-9.7c0-2.5-1-4.8-2.7-6.6L396.2,423.4
	L396.2,423.4z M25.9,64v449.3h348.5v-53.1l-10.9-10.9c-6.8,3.4-13.9,6.1-21.3,8c-7.3,1.9-14.8,2.9-22.3,2.9
	c-6.4,0-12.8-0.6-19.1-1.8c-6.2-1.2-12.2-2.9-18-5.2c-5.8-2.3-11.3-5.1-16.5-8.5c-5.2-3.4-10.1-7.3-14.5-11.7
	c-4.7-4.4-9-9.2-12.7-14.5c-3.7-5.2-6.8-10.7-9.4-16.5c-5.2-11.7-7.8-24.3-7.8-37.1c-0.1-25.8,9.7-50.6,27.2-69.4
	c9.3-9.4,20.2-16.9,32.3-22.1c12.2-5.2,25.2-7.9,38.5-7.8c9.6,0,19.1,1.4,28.2,4.1c9.3,2.7,18.1,6.9,26.2,12.3V64h-80.3v24.5
	c0,2.2-0.4,4.5-1.2,6.6c-1.5,3.9-4.6,7-8.6,8.6c-2.1,0.8-4.3,1.2-6.6,1.2H123.9c-2.3,0-4.5-0.5-6.6-1.4c-2-0.9-3.8-2.2-5.3-3.7
	c-3-3.1-5-7-5.8-11.2V64H25.9z M319.9,290c-9.8,0-19.4,1.9-28.4,5.8c-8.7,3.8-16.6,9.2-23.3,16c-6.6,7-11.8,15.2-15.3,24.2
	c-3.4,8.7-5,18-5,27.4c0,4.6,0.5,9.3,1.4,13.8c0.9,4.6,2.3,9,4.1,13.3c7.6,17.5,21.6,31.4,39.2,38.7c8.7,3.4,17.9,5.2,27.2,5.1
	c9.8,0,19.4-1.9,28.4-5.8c8.7-3.8,16.6-9.2,23.3-16c6.5-7.1,11.7-15.4,15.3-24.3c3.4-8.7,5.1-18,5.1-27.4c0-9.4-2-18.7-5.8-27.2
	c-3.8-8.6-9.3-16.5-16-23.1c-6.6-6.6-14.5-11.8-23.1-15.3C338.5,291.7,329.2,289.9,319.9,290z M133.4,25.9V79h134.8V25.9H133.4z
	 M151.1,449.3H70.8c-3.7,0-7.3-1.5-9.9-4.3c-2.4-2.5-3.7-5.9-3.7-9.4c0-3.7,1.5-7.3,4.3-9.9c2.5-2.4,5.9-3.7,9.4-3.7h80.3
	c1.7,0,3.3,0.4,4.8,1.2c1.5,0.8,2.9,1.8,4,3.1c2.4,2.6,4.1,5.9,4.8,9.4c0,3.7-1.5,7.3-4.3,9.9C157.9,447.9,154.6,449.2,151.1,449.3
	L151.1,449.3z M151.1,411.1H70.8c-7.1,0.4-13.2-5-13.6-12.1c0-0.5,0-1,0-1.6c0-3.7,1.5-7.3,4.3-9.9c2.5-2.4,5.9-3.7,9.4-3.7h80.3
	c3.5,0,6.8,1.4,9.4,3.7c5.5,5.1,5.7,13.7,0.5,19.2c-0.2,0.2-0.4,0.4-0.5,0.5C157.9,409.8,154.6,411.1,151.1,411.1L151.1,411.1z
	 M151.1,370.3H70.8c-3.7,0-7.3-1.5-9.9-4.3c-2.4-2.5-3.7-5.9-3.7-9.4c0-3.7,1.5-7.3,4.3-9.9c2.5-2.4,5.9-3.7,9.4-3.7h80.3
	c3.3,0,6.5,1.3,8.8,3.7c2.6,2.7,4.2,6.2,4.8,9.9c0,3.7-1.5,7.3-4.3,9.9C157.9,368.9,154.6,370.3,151.1,370.3L151.1,370.3z
	 M196,272.3c-4.3,0-8.5-0.9-12.4-2.6c-3.7-1.6-7.1-4-9.9-6.9c-2.8-2.9-5.1-6.3-6.6-10c-1.6-3.7-2.4-7.7-2.4-11.8
	c0.1-4.8,1.5-9.5,4.1-13.6L147,206.9c-4.1,1.4-6.8,1.4-10.9,1.4c-2.1,0-4.3-0.2-6.4-0.5c-3.7-0.4-7.3-1.5-10.6-3.2l-53.8,37.7
	c-1.4,1.4-2.7,1.4-5.4,1.4c-2.5,0-6.8-1.3-8.2-4.1c-1.4-2.6-2-5.6-1.7-8.5c0.2-2.8,1.9-5.2,4.4-6.5l50.1-35
	c-7.5-16-0.6-35.1,15.4-42.6c16-7.5,35.1-0.6,42.6,15.4c2,4.3,3,8.9,3,13.6c0,5.4-1.4,10.7-4,15.4l20.9,19.6h0
	c4-1.3,8.2-2.7,12.2-2.7c5.7,0.1,11.3,1.5,16.3,4.1l30-24.5l0,0c-1.3-4-2.7-8.2-2.7-12.2c-0.3-17,13.3-31,30.3-31.3c0.3,0,0.7,0,1,0
	c4.3,0,8.5,0.9,12.4,2.6c3.7,1.6,7.1,4,9.9,6.9c2.8,2.9,5.1,6.3,6.6,10c1.6,3.7,2.4,7.7,2.4,11.8c0,4.1,0,6.8-1.4,10.9l53.1,36.7
	c2.4,1.6,4,4.1,4.4,7c0.2,2.8-0.3,5.6-1.7,8c-0.7,1.3-1.7,2.4-3.1,3.1c-1.6,0.7-3.3,1.1-5.1,1c-1.3,0-4.1,0-5.4-1.4l-54.5-38.1
	c-2.1,1.4-4.5,2.4-7,3.1c-2.6,0.7-5.3,1-8,1c-5.4,0-9.6-1.4-13.6-2.7L226,231.4c1.4,2.7,1.4,6.8,1.4,9.5c0.3,17-13.3,31-30.3,31.3
	C196.7,272.3,196.4,272.3,196,272.3L196,272.3z M197.4,231.4c-5.1,0.1-9.2,4.4-9.1,9.5c0.1,5.1,4.4,9.2,9.5,9.1s9.2-4.4,9.1-9.5
	c-0.1-2.4-1-4.7-2.7-6.4C202.4,232.4,199.9,231.4,197.4,231.4L197.4,231.4z M133.5,165c-6.1,0-11,4.9-11,11s4.9,11,11,11
	c6.1,0,11-4.9,11-11c0-2.9-1.2-5.7-3.2-7.8C139.2,166.2,136.4,165,133.5,165z M270.9,167.5c-5.1,0.1-9.2,4.4-9.1,9.5
	c0.1,5.1,4.4,9.2,9.5,9.1c5.1-0.1,9.2-4.4,9.1-9.5c-0.1-2.4-1-4.7-2.7-6.4C275.9,168.4,273.5,167.4,270.9,167.5L270.9,167.5z"/>
</svg>
