<?xml version="1.0" encoding="utf-8"?>
<!-- Generator: Adobe Illustrator 22.1.0, SVG Export Plug-In . SVG Version: 6.00 Build 0)  -->
<svg version="1.1" id="Layer_1" xmlns="http://www.w3.org/2000/svg" xmlns:xlink="http://www.w3.org/1999/xlink" x="0px" y="0px"
	 viewBox="0 0 40 40" style="enable-background:new 0 0 40 40;" xml:space="preserve">
<style type="text/css">
	.st0{fill:#FFFFFF;}
</style>
<g>
	<path class="st0" d="M23.8,35.8H1.9V1.8h15.7v5.8c0,2.4,1.9,4.3,4.3,4.3h6.2v4.4c0,0.5,0.4,0.9,0.9,0.9c0.5,0,0.9-0.4,0.9-0.9V11
		c0-0.3-0.1-0.5-0.3-0.7c0,0,0,0,0,0L19.1,0.3c0,0,0,0,0,0C19,0.1,18.7,0,18.5,0H1C0.5,0,0.1,0.4,0.1,0.9v35.8
		c0,0.5,0.4,0.9,0.9,0.9h22.8c0.5,0,0.9-0.4,0.9-0.9C24.7,36.2,24.3,35.8,23.8,35.8z M19.4,3.1l7.3,7h-4.9c-1.4,0-2.5-1.1-2.5-2.5
		V3.1z"/>
	<path class="st0" d="M33.6,32.6c-0.4-0.4-1-0.7-1.6-0.7c-0.3,0-0.5,0.1-0.7,0.1l-0.7-0.7c1.4-1.7,2.1-3.7,2.1-5.9
		c0-1.8-0.5-3.5-1.4-5c0,0,0-0.1-0.1-0.1c-0.4-0.5-0.8-1.1-1.2-1.5c-1.8-1.8-4.1-2.7-6.6-2.7c-2.5,0-4.8,1-6.6,2.7
		c-1.8,1.8-2.7,4.1-2.7,6.6c0,1.1,0.2,2.1,0.5,3.1l-2,3.3l-4.6-5.9c-0.2-0.3-0.5-0.4-0.9-0.3c-0.3,0-0.6,0.3-0.7,0.6l-2.2,5.5
		c-0.2,0.5,0,1,0.5,1.2c0.5,0.2,1,0,1.2-0.5l1.6-4L12,34c0.2,0.2,0.4,0.4,0.7,0.4c0,0,0,0,0.1,0c0.3,0,0.6-0.2,0.7-0.4l2.1-3.4
		c0.4,0.5,0.8,1.1,1.2,1.5c1.8,1.8,4.1,2.7,6.6,2.7c2.2,0,4.2-0.7,5.9-2.1l0.6,0.7c-0.3,0.8-0.2,1.8,0.5,2.4l3.6,3.6
		c0.4,0.4,1,0.7,1.6,0.7c0.6,0,1.2-0.2,1.6-0.7c0.9-0.9,0.9-2.3,0-3.2L33.6,32.6z M28.7,30.7c-1.4,1.4-3.3,2.2-5.3,2.2
		c-2,0-3.9-0.8-5.3-2.2c-1.4-1.4-2.2-3.3-2.2-5.3c0-2,0.8-3.9,2.2-5.3c1.4-1.4,3.3-2.2,5.3-2.2c2,0,3.9,0.8,5.3,2.2
		c0.2,0.2,0.4,0.4,0.6,0.6l-5.9,5.7l-3.7-4c-0.2-0.2-0.5-0.3-0.8-0.3c-0.3,0-0.5,0.2-0.7,0.4l-1.4,2.3c-0.3,0.4-0.1,1,0.3,1.3
		c0.4,0.3,1,0.1,1.3-0.3l0.8-1.3l3.5,3.8c0.2,0.2,0.4,0.3,0.6,0.3c0,0,0,0,0,0c0.2,0,0.5-0.1,0.6-0.3l6.3-6c0.4,0.9,0.6,2,0.6,3
		C30.9,27.4,30.1,29.3,28.7,30.7z M35.9,38c-0.1,0.1-0.2,0.1-0.3,0.1c-0.1,0-0.2,0-0.3-0.1l-3.6-3.6c-0.2-0.2-0.2-0.4,0-0.6
		c0.1-0.1,0.2-0.1,0.3-0.1c0.1,0,0.2,0,0.3,0.1l3.6,3.6C36,37.6,36,37.9,35.9,38z"/>
	<path class="st0" d="M39,11.7h-3.5c-0.5,0-0.9,0.4-0.9,0.9c0,0.5,0.4,0.9,0.9,0.9h1.4l-5.1,4.9c-0.4,0.4-0.4,0.9,0,1.3
		c0.2,0.2,0.4,0.3,0.7,0.3c0.2,0,0.5-0.1,0.6-0.3l5-4.8v1.2c0,0.5,0.4,0.9,0.9,0.9c0.5,0,0.9-0.4,0.9-0.9v-3.5
		C39.9,12.1,39.5,11.7,39,11.7z"/>
	<path class="st0" d="M7,11.8c-0.2,0-0.5,0.1-0.9,0.2c-1.6,0.5-2.3,1.5-2.3,2.9v2.3c0,0.3,0.2,0.5,0.5,0.5h12.4
		c0.3,0,0.5-0.2,0.5-0.5V15c0-1.4-0.7-2.4-2.3-2.9c-0.4-0.1-0.7-0.2-0.9-0.2c-0.6-0.1-0.8-0.2-1-0.6c0.7-1,1-2.4,1-3.3
		c0-1.1-0.3-2-0.7-2.7c-0.6-0.7-1.5-1.1-2.6-1.1c-3,0-3.4,2.4-3.4,3.8c0,0.9,0.3,2.2,1,3.2C7.8,11.7,7.6,11.7,7,11.8z M10.5,5.6
		c1.3,0,1.9,0.7,1.9,2.3c0,1.1-0.7,3.2-1.9,3.2c-1.2,0-1.9-2.1-1.9-3.2C8.6,6.3,9.1,5.6,10.5,5.6z M9.1,12.3
		c0.4,0.3,0.9,0.4,1.3,0.4c0.4,0,0.9-0.1,1.3-0.4c0.5,0.7,1.2,0.8,1.9,1c0.2,0.1,0.5,0.1,0.7,0.2c0.8,0.2,1.3,0.5,1.3,1.5v1.3H5.2
		V15c0-0.9,0.5-1.2,1.3-1.5c0.3-0.1,0.5-0.1,0.7-0.2C8,13.1,8.6,13,9.1,12.3z"/>
</g>
</svg>
