<?xml version="1.0" encoding="utf-8"?>
<!-- Generator: Adobe Illustrator 22.1.0, SVG Export Plug-In . SVG Version: 6.00 Build 0)  -->
<svg version="1.1" id="Layer_1" xmlns="http://www.w3.org/2000/svg" xmlns:xlink="http://www.w3.org/1999/xlink" x="0px" y="0px"
	 viewBox="0 0 40 40" style="enable-background:new 0 0 40 40;" xml:space="preserve">
<style type="text/css">
	.st0{fill:#FFFFFF;}
</style>
<g>
	<path class="st0" d="M19.3,19.8c0.6-0.7,1.2-1.2,1.9-1.8c-0.1,0-0.1,0-0.1,0c-4.3,0-8.7,0-13,0c-0.1,0-0.2,0-0.3,0
		c-0.5,0.2-0.8,0.6-0.7,1.1C7.2,19.6,7.6,20,8.2,20c3.6,0,7.1,0,10.7,0C19,19.9,19.1,19.9,19.3,19.8z"/>
	<path class="st0" d="M8,12c-0.6,0-1.1,0.4-1.1,1s0.4,1,1.1,1c2.6,0,5.3,0,7.9,0c0.2,0,0.4,0,0.6-0.2c0.4-0.3,0.5-0.7,0.4-1.2
		c-0.1-0.4-0.5-0.7-1-0.7c-1.3,0-2.7,0-4,0l0,0C10.6,12,9.3,12,8,12z"/>
	<path class="st0" d="M16.6,24.2c0.1-0.4,0-0.4-0.3-0.4c-1.4,0-2.7,0-4.1,0l0,0c-1.4,0-2.7,0-4.1,0c-0.7,0-1.1,0.4-1.1,1
		s0.4,1,1.1,1c2.5,0,5.1,0,7.6,0c0.2,0,0.4,0,0.4-0.3C16.3,25.1,16.4,24.7,16.6,24.2z"/>
	<path class="st0" d="M15.8,31.8c0.3,0,0.4-0.1,0.3-0.4C16,31,16,30.6,16,30.2c0-0.3-0.1-0.4-0.4-0.4c-2.5,0-5,0-7.5,0
		c-0.2,0-0.4,0.1-0.6,0.2C7,30.2,6.9,30.7,7,31.1s0.5,0.7,1,0.7c1.3,0,2.6,0,3.9,0l0,0C13.2,31.8,14.5,31.8,15.8,31.8z"/>
	<path class="st0" d="M38.6,28.8c-0.2-0.1-0.4-0.1-0.7-0.1c-0.3,0.1-0.5,0.2-0.6,0.6c0,0.2,0,0.3,0,0.5c0,0.5-0.1,0.9-0.1,1.3
		c-0.3,1.6-1,3-2.1,4.3c-1.1,1.2-2.5,2.1-4,2.6s-3.1,0.5-4.7,0.1c-2.9-0.7-4.9-2.5-6.1-5.2c-0.5-1.1-0.7-2.2-0.7-3.4
		c0-0.8,0.1-1.6,0.3-2.4c0.7-2.6,2.3-4.5,4.7-5.6c0.9-0.4,1.9-0.7,2.9-0.8c0.1,0,0.2,0,0.3,0.1c0.1,0.1,0.1,0.2,0.1,0.3v1.2
		c0,0.1,0,0.2,0,0.2l0,0c0,0,0,0,0.1,0c1.2-0.7,2.4-1.4,3.6-2.2c0.4-0.2,0.4-0.7,0-1l-0.3-0.2c-1.1-0.7-2.2-1.3-3.3-2
		c0,0-0.1,0-0.1,0.1c0,0.3,0,0.9,0,1.3l0,0c0,0,0,0.3-0.3,0.3l0,0c-0.8,0.1-1.6,0.2-2.3,0.4c-1,0.3-2,0.8-2.8,1.3
		c-0.9,0.6-1.6,1.3-2.3,2.1c-1,1.3-1.8,2.7-2.1,4.4c-0.1,0.6-0.2,1.1-0.2,1.5v0.1c0,0.2,0,0.5,0,0.7s0,0.5,0,0.8v0.1
		c0,0.4,0,0.8,0.2,1.3c0.3,1.2,0.7,2.2,1.2,3.2c0.6,1,1.3,1.9,2.2,2.6c1.5,1.3,3.3,2.2,5.3,2.5c0.4,0.1,0.7,0.1,1.1,0.1H28l0,0h0.9
		l0,0H29c1-0.1,2.1-0.3,3-0.6c2-0.7,3.8-2.1,5-3.8c1.3-1.8,1.9-3.8,2-6l0,0C39,29.2,38.9,28.9,38.6,28.8z"/>
	<path class="st0" d="M28.4,28.7c-0.2,0-0.3-0.1-0.4-0.2c-0.9-0.9-1.8-1.8-2.7-2.7c-0.3-0.3-0.8-0.3-1.2,0c-0.1,0.1-0.2,0.3-0.2,0.6
		c0,0.2,0.1,0.4,0.2,0.6c0.6,0.6,1.2,1.2,1.7,1.7c0.4,0.4,0.9,0.9,1.4,1.4c0.2,0.2,0.4,0.3,0.7,0.3c0.7,0,1.4,0,2.1,0
		c0.3,0,0.6,0,0.8,0h0.6c0.8,0,1.6,0,2.4,0c0.1,0,0.2,0,0.2,0c0.5-0.1,0.6-0.6,0.6-0.8c0-0.1,0-0.3-0.1-0.4
		c-0.1-0.3-0.4-0.4-0.7-0.4C31.7,28.7,30,28.7,28.4,28.7z"/>
	<path class="st0" d="M28.3,34.8c-0.4,0-0.7,0.3-0.7,0.7s0.3,0.7,0.7,0.7c0.4,0,0.7-0.3,0.7-0.7S28.7,34.8,28.3,34.8z"/>
	<path class="st0" d="M24.3,33.2c-0.4,0-0.7,0.3-0.7,0.7s0.3,0.7,0.7,0.7c0.4,0,0.7-0.3,0.7-0.7S24.7,33.2,24.3,33.2z"/>
	<path class="st0" d="M21.5,29.4c0,0.4,0.3,0.7,0.7,0.7c0.4,0,0.7-0.3,0.7-0.7c0-0.4-0.3-0.7-0.7-0.7C21.8,28.7,21.5,29,21.5,29.4z"
		/>
	<path class="st0" d="M31.8,33.9c0,0.4,0.3,0.7,0.7,0.7s0.7-0.3,0.7-0.7s-0.3-0.7-0.7-0.7S31.8,33.5,31.8,33.9z"/>
	<path class="st0" d="M19.2,37.8c-0.2-0.3-0.4-0.4-0.8-0.4c-2.7,0-5.4,0-8.1,0H4.4c-1.2,0-1.6-0.4-1.6-1.6c0-10.8,0-21.7,0-32.5
		c0-1,0.5-1.5,1.5-1.5h7.8c2.5,0,5,0,7.4,0c0.2,0,0.4,0,0.5,0.2c0.1,0.1,0.2,0.3,0.2,0.5c0,1.9,0,3.8,0,5.6v1.6
		c0,0.9,0.4,1.3,1.3,1.3c1.1,0,2.2,0,3.3,0c1,0,2,0,3,0c0.7,0,0.8,0.1,0.8,0.8v0.7c0,0.8,0,1.6,0,2.4c0,0.1,0,0.1,0,0.2l0,0h0.1
		c0.2,0,0.5-0.1,0.7-0.1c0.3,0,0.6,0,0.8,0.1c0.1,0,0.1,0,0.1,0l0,0c0,0,0-0.1,0-0.2c0-0.8,0-1.7,0-2.5s0-1.6,0-2.3
		c0-0.8-0.3-1.5-0.8-2.1l-1-1.1C26.8,5,25,3.1,23.3,1.1C22.6,0.4,21.7,0,20.7,0c-2.5,0-5,0-7.5,0C11,0,8.9,0,6.8,0H4.2
		C2.3,0,1,1.3,1,3.2C1,14.1,1,25.1,1,36c0,2,1.3,3.3,3.3,3.3c1.9,0,3.7,0,5.6,0H15h5.8C20.2,38.8,19.6,38.3,19.2,37.8z M22.3,5.1
		c0-0.5,0-1.1,0-1.6c0-0.1,0-0.1,0-0.1V3.3c0-0.1,0.1-0.1,0.1-0.1l0,0c0.1,0,0.1,0,0.1,0.1l4.8,5.3c0,0,0.1,0.1,0,0.1s0,0.1-0.1,0.1
		C27,8.9,26.9,9,26.8,9l0,0h-0.1c0,0,0,0-0.1,0l0,0c-0.8,0-1.6,0-2.4,0c-0.6,0-1.1,0-1.7,0h-0.1c-0.1,0-0.3,0-0.4-0.1
		s-0.1-0.2-0.1-0.4C22.3,7.3,22.3,6.2,22.3,5.1z"/>
</g>
</svg>
