<?xml version="1.0" encoding="utf-8"?>
<!-- Generator: Adobe Illustrator 24.0.0, SVG Export Plug-In . SVG Version: 6.00 Build 0)  -->
<svg version="1.1" id="Layer_1" xmlns="http://www.w3.org/2000/svg" xmlns:xlink="http://www.w3.org/1999/xlink" x="0px" y="0px"
	 viewBox="0 0 40 40" style="enable-background:new 0 0 40 40;" xml:space="preserve">
<style type="text/css">
	.st0{fill:#636A75;}
</style>
<g>
	<g>
		<path class="st0" d="M15.31,10.55c-0.1-0.08-0.23-0.13-0.36-0.13c-0.17,0-0.32,0.07-0.43,0.2c-0.2,0.24-0.17,0.59,0.06,0.79l0,0
			l1.44,1.44c0.11,0.09,0.26,0.15,0.4,0.15c0.01,0,0.03,0,0.04,0c0.01,0,0.02,0,0.03,0c0.17-0.02,0.33-0.11,0.43-0.25l0-0.01
			l3.79-5.32c0.18-0.25,0.12-0.6-0.13-0.78c-0.1-0.07-0.21-0.1-0.33-0.1c-0.18,0-0.35,0.09-0.46,0.24l-3.48,4.88L15.31,10.55z"/>
		<path class="st0" d="M11.06,12.59c0.37,0.03,0.75,0.05,1.09,0.07c0.14,0.31,0.27,0.6,0.39,0.9c0.01,0.03-0.01,0.1-0.04,0.13
			c-0.21,0.24-0.43,0.48-0.65,0.71c-0.25,0.28-0.25,0.57,0.01,0.84c0.25,0.25,0.49,0.49,0.74,0.74c0.26,0.26,0.56,0.26,0.83,0.01
			c0.24-0.22,0.48-0.44,0.72-0.66c0.05-0.05,0.09-0.05,0.16-0.02c0.26,0.11,0.51,0.22,0.78,0.32c0.07,0.03,0.09,0.06,0.1,0.13
			c0.02,0.34,0.04,0.69,0.07,1.03c0.02,0.32,0.24,0.53,0.56,0.53c0.37,0,0.74,0,1.11,0c0.32,0,0.54-0.2,0.56-0.52
			c0.03-0.35,0.04-0.69,0.07-1.04c0-0.04,0.03-0.1,0.06-0.11c0.3-0.12,0.59-0.24,0.91-0.36c0.26,0.24,0.52,0.47,0.78,0.71
			c0.27,0.24,0.57,0.24,0.82-0.02c0.25-0.25,0.5-0.5,0.75-0.75c0.25-0.26,0.26-0.56,0.02-0.82c-0.22-0.24-0.44-0.48-0.66-0.72
			c-0.05-0.06-0.06-0.1-0.03-0.17c0.12-0.25,0.22-0.51,0.32-0.78c0.02-0.06,0.05-0.09,0.12-0.09c0.35-0.02,0.69-0.04,1.04-0.07
			c0.31-0.02,0.52-0.24,0.52-0.55c0-0.38,0-0.76,0-1.14c0-0.3-0.21-0.52-0.51-0.55c-0.35-0.03-0.69-0.05-1.04-0.07
			c-0.08,0-0.11-0.04-0.14-0.11c-0.1-0.25-0.32-0.83-0.35-0.89l-0.93,1.2c0.1,0.3,0.16,0.63,0.16,0.97c0,1.69-1.37,3.05-3.05,3.05
			c-1.69,0-3.05-1.37-3.05-3.05s1.37-3.05,3.05-3.05c0.47,0,0.91,0.1,1.3,0.29l0.76-1.08c-0.28-0.12-0.56-0.25-0.86-0.38
			c-0.02-0.36-0.05-0.74-0.07-1.12c-0.02-0.3-0.24-0.5-0.54-0.51c-0.38,0-0.77,0-1.15,0c-0.3,0-0.52,0.21-0.54,0.51
			c-0.03,0.35-0.05,0.69-0.07,1.04c0,0.07-0.03,0.1-0.1,0.13c-0.26,0.1-0.52,0.21-0.78,0.32c-0.07,0.03-0.11,0.03-0.16-0.02
			c-0.24-0.22-0.48-0.44-0.72-0.66c-0.27-0.25-0.57-0.24-0.83,0.02c-0.24,0.24-0.49,0.49-0.73,0.73c-0.27,0.27-0.28,0.57-0.02,0.85
			c0.22,0.24,0.44,0.47,0.65,0.71c0.03,0.03,0.05,0.1,0.04,0.13c-0.12,0.29-0.26,0.59-0.39,0.9c-0.35,0.02-0.72,0.04-1.1,0.07
			c-0.33,0.02-0.53,0.24-0.53,0.57c0,0.37,0,0.73,0,1.1C10.53,12.35,10.73,12.57,11.06,12.59z M18.54,15.29
			C18.53,15.28,18.54,15.28,18.54,15.29L18.54,15.29z"/>
	</g>
	<g>
		<path class="st0" d="M40,38.26l-20.55-0.02l-0.05-0.62c0-0.02,0-0.03-0.01-0.05c-0.01-0.06-0.01-0.12-0.01-0.2
			c0-0.25,0-0.5,0-0.76c0-0.59-0.01-1.2,0.01-1.81c0.07-2.55,1.16-4.61,3.22-6.13c1.31-0.97,2.84-1.45,4.53-1.45
			c0.01,0,0.01,0,0.02,0c0.61,0,1.23,0,1.84,0c1.07,0,2.18,0,3.27,0.01c2.35,0.02,4.32,0.93,5.86,2.71
			c1.22,1.41,1.85,3.11,1.87,5.07l0,0c0,0.53,0,1.07,0,1.59c0,0.24,0,0.48,0,0.71L40,38.26z M20.72,36.89l17.92,0.02
			c0-0.1,0-0.21,0-0.31c0-0.52,0-1.05,0-1.57l0,0c-0.02-1.65-0.52-3.02-1.53-4.19c-1.3-1.49-2.88-2.23-4.85-2.25
			c-1.09-0.01-2.19-0.01-3.26-0.01c-0.62,0-1.23,0-1.85,0c-0.01,0-0.01,0-0.02,0c-1.4,0-2.66,0.4-3.73,1.19
			c-1.73,1.28-2.61,2.94-2.67,5.07c-0.02,0.58-0.01,1.18-0.01,1.76C20.72,36.7,20.72,36.79,20.72,36.89z"/>
	</g>
	<g>
		<path class="st0" d="M30.36,26.1c-0.03,0-0.06,0-0.09,0c-1.75-0.02-3.39-0.71-4.6-1.94c-1.21-1.23-1.87-2.87-1.85-4.61
			c0.02-1.72,0.72-3.33,1.96-4.54c1.22-1.19,2.81-1.83,4.5-1.83c0.04,0,0.07,0,0.11,0c1.73,0.03,3.35,0.73,4.54,1.97
			c1.19,1.24,1.84,2.88,1.81,4.62c-0.02,1.69-0.71,3.29-1.95,4.5C33.59,25.45,32.02,26.1,30.36,26.1z M30.29,14.53
			c-1.33,0-2.59,0.51-3.55,1.45c-0.98,0.95-1.53,2.23-1.55,3.58c-0.02,1.38,0.5,2.67,1.46,3.64c0.96,0.97,2.25,1.52,3.65,1.54h0
			c1.32,0.02,2.59-0.5,3.56-1.45c0.97-0.95,1.52-2.21,1.54-3.55c0.02-1.38-0.49-2.68-1.43-3.66c-0.94-0.98-2.22-1.53-3.59-1.55
			C30.34,14.53,30.31,14.53,30.29,14.53z"/>
	</g>
	<path class="st0" d="M21.27,25.37H16.2c0-1.07,0-2.09,0-3.17c0.33,0,0.58,0,0.84,0c1.83,0,3.67,0,5.5,0
		c-0.14-0.43-0.25-0.88-0.32-1.35c-6.95,0-13.89,0-20.86,0c0-5.04,0-12.65,0-17.73c9.5,0,19.02,0,28.58,0c0,2.39,0,5.36,0,8.37
		c0.16-0.01,0.32-0.01,0.48-0.01c0.3,0.01,0.6,0.03,0.89,0.06c0-3.13,0-6.23,0-8.74c0-0.93-0.13-1.06-1.04-1.06
		c-9.73,0-19.46,0-29.18,0C0.13,1.74,0,1.87,0,2.81c0,5.25,0,13.08,0,18.33c0,0.9,0.15,1.05,1.05,1.05c4.35,0,8.69,0,13.04,0
		c0.25,0,0.49,0,0.71,0c0,1.11,0,2.13,0,3.17h-4.76c-0.33,0-0.59,0.27-0.59,0.59c0,0.33,0.27,0.59,0.59,0.59h11.23
		c0.33,0,0.59-0.27,0.59-0.59C21.87,25.63,21.6,25.37,21.27,25.37z"/>
</g>
</svg>
