<?xml version="1.0" encoding="utf-8"?>
<!-- Generator: Adobe Illustrator 22.1.0, SVG Export Plug-In . SVG Version: 6.00 Build 0)  -->
<svg version="1.1" id="Capa_1" xmlns="http://www.w3.org/2000/svg" xmlns:xlink="http://www.w3.org/1999/xlink" x="0px" y="0px"
	 viewBox="0 0 480 480" style="enable-background:new 0 0 480 480;" xml:space="preserve">
<style type="text/css">
	.st0{fill:#626975;}
</style>
<path class="st0" d="M1.5,154.8V64.2h135.4V17.5h51.8v44.6h103.5V17.5h51.1V63h136.9v91.7H1.5V154.8z M463.7,138.4v-59H326.8V33.9
	h-18.3v44.7H172.2V33.9h-19v46.7H17.9v57.8L463.7,138.4L463.7,138.4z"/>
<path class="st0" d="M466.5,242.1c-27.2-26.6-61.4-43.6-98.9-49l-0.9-0.1l1.2-16.2h112.5v78.9L466.5,242.1z M424.4,193.2
	c14.1,6.6,27.4,14.9,39.5,24.8v-24.8H424.4z"/>
<path class="st0" d="M1.6,466.6V176.9h314.2l1.2,16.2l-0.9,0.1c-79,11.4-141.2,74.8-151.1,154l-0.9,7.2h-49v40.2h50.1l1.2,6.7
	c3.3,18.6,9.6,36.5,18.7,53.2l6.6,12.1L1.6,466.6L1.6,466.6z M164.6,450.2c-5.7-12.6-10.1-25.8-13-39.3H98.7v-73h51
	c1.8-11.1,4.6-22.2,8.4-32.8H98.9v-72.9H171v43.9c19.9-36.2,51-65.5,88.3-83H18v257L164.6,450.2L164.6,450.2z M154.6,288.8v-40.1
	h-39.3v40.1H154.6z"/>
<path class="st0" d="M289.6,454.1c-12.8,0-25.6,0-38.4,0c-12,0-21.2-7.4-23.6-18.8c-0.4-1.8-0.4-3.8-0.4-5.4c0-25.9,0-56.6,0-87.5
	c0-14.8,9.9-24.7,24.6-24.7c28.9,0,57.8,0,86.7,0c30.1,0,60.2,0,90.3,0c14.3,0,24.4,10.1,24.4,24.5c0,27.9,0,56.5,0,87.5
	c0,14.7-9.9,24.5-24.5,24.5c-12.1,0-24.2,0-36.3,0h-52.2L289.6,454.1z M338.9,435.3c21.1,0,38.7,0,55.2,0.2h0.3
	c6,0,9.7-1.4,12.7-4.8c1-1.1,1.6-1.8,1.6-3.1c0.1-7.7,5.6-13.8,12.7-14.1c4.1-0.2,6.8-2,9.8-4.8c0.1-0.1,0.3-0.3,0.4-0.4
	c0.5-0.5,1-1.1,1.8-1.3c1-0.3,1.1-0.8,1.1-2.3c0-2.7,0-5.4,0-8c-0.1-8.8-0.1-17.9,0.1-26.9c0.1-3.9-0.6-7-4.2-9.3L430,360
	c-1.9-1.3-3.5-2.3-5.8-2.4c-7.7-0.3-13.6-5.7-14.1-12.8c-0.2-2.8-1.2-4.6-3.4-6.1c-0.7-0.5-1.5-1.1-2.2-1.9
	c-1.2-1.4-2.6-1.6-4.6-1.6c-10.9,0-21.7,0-32.5,0h-27.1c-5.1,0-10.2,0-15.3,0c-5.1,0-10.2,0-15.3,0c-9.4,0-17-0.1-24-0.2
	c-0.3,0-0.5,0-0.8,0c-6,0-9.8,1.6-13,5.4c-0.7,0.8-1.1,1.7-1.2,2.3c-0.6,8.7-5.8,14.2-13.9,14.8c-2.9,0.2-5.1,1.2-7.4,3.4
	c-0.3,0.3-0.7,0.6-1,0.8c-0.4,0.3-0.8,0.6-1.1,1c-0.6,0.9-1.4,2-1.4,2.8c-0.1,11.8-0.1,23.9-0.1,35.5v4.7c0,0.3,0,0.7,0,1
	c1,0.8,2,1.7,2.8,2.5c2.1,2,4.1,4,7.4,4c7.9,0,13.9,5.9,14.2,13.8c0.1,1.8,0.6,2.9,1.9,3.9c0.9,0.6,2,1.5,2.9,2.5
	c1.5,1.7,3.3,2,5.6,2h8.5C305.9,435.3,322.4,435.3,338.9,435.3z"/>
<path class="st0" d="M451.6,317c-5.6-5.1-11.6-7.8-18.2-8.3c-2.7-0.2-5.4-0.2-7.7-0.2c-1,0-2,0-3,0s-2,0-3,0h-1.4
	c-4.5,0-5.1-0.2-6.4-4.7c-0.5-1.6-1.3-2.5-3.1-3.3c-38.6-16.8-69.9-30.4-98.5-43c-1.9-0.8-3.4-1.2-4.8-1.2c-1,0-2,0.2-3,0.6
	s-2.1,0.6-3.1,0.9c-0.2,0.1-0.5,0.1-0.7,0.2c-0.1,2-1.1,3.9-2.7,5.6c-2.3,2.4-5.7,3.9-9,3.9c-1.5,0-3-0.3-4.4-0.9
	c-1.3-0.6-2.6-0.8-3.9-0.8c-2.3,0-4.4,0.8-6.6,1.7c-0.4,0.2-0.8,0.3-1.3,0.5c-0.3,0.1-0.8,0.7-1.1,1.4L268,273
	c-4.2,9.4-8.4,19.1-12.5,28.7c-0.4,0.9-0.3,2.1-0.1,3.5c0.1,0.7,0.1,1.5,0.1,2.2v1h-1c-0.9,0-1.8-0.1-2.7-0.1
	c-8.3,0-14.9,2-20.5,6.3l-2.6,2l1.1-3.1c0.2-0.5,0.3-0.9,0.4-1.2c0.2-0.6,0.4-1.1,0.6-1.5l5.6-12.5c8.4-18.8,16.8-37.6,25.2-56.5
	c3.8-8.4,11.1-13.4,19.7-13.4c3.1,0,6.3,0.7,9.4,2c40.8,17.9,82.3,36.2,122.4,53.9l27.4,12.1c6.7,3,10.9,8.3,12.6,15.9
	c0.2,0.7,0.2,1.4,0.2,2.3c0,0.4,0.1,0.9,0.1,1.5l0.2,2.4L451.6,317z"/>
<path class="st0" d="M312.5,308.3l0.3-1.2c2-8,13.5-15.7,25.1-16.7c0.7-0.1,1.5-0.1,2.2-0.1c11.1,0,23.2,7.3,27.5,16.6l0.6,1.4
	L312.5,308.3L312.5,308.3z"/>
<path class="st0" d="M285.8,308.4c-3.6,0-6.8-1.6-8.9-4.4c-2.1-2.9-2.7-6.6-1.6-10.1c1.9-6.1,7-10.1,13.1-10.1c1.5,0,3,0.2,4.4,0.7
	c3.7,1.3,6.8,3.9,8.5,7.4c1.7,3.4,1.9,7.3,0.6,10.9s-4,5.6-7.8,5.6h-1.7H285.8z"/>
<path class="st0" d="M342.8,418.3c-13.6-0.4-23-4.7-29.7-13.3c-5.1-6.6-7.3-14.8-6.2-23.2c1.1-8.4,5.4-15.9,12.1-21
	c6.1-4.7,14-7.3,22.1-7.3c8,0,15.7,2.5,21.6,7c10.1,7.7,14.5,17.9,12.8,29.5c-1.9,13-9.7,21.8-23,26.4c-2.6,0.9-5.4,1.3-7.5,1.6
	c-0.8,0.1-1.4,0.2-2,0.3H342.8L342.8,418.3z"/>
<path class="st0" d="M278.5,400.3c-4.4,0-8.5-1.6-11.4-4.6c-2.7-2.7-4.1-6.2-4.1-10c0.1-8.1,6.7-14.2,15.5-14.2s15.5,6.2,15.5,14.3
	C294,393.9,287.3,400.3,278.5,400.3L278.5,400.3z"/>
<path class="st0" d="M401.6,400.3c-8.6-0.1-15.3-6.5-15.3-14.6c0.1-8.1,6.8-14.2,15.5-14.2s15.5,6.4,15.5,14.4
	c0,8.1-6.8,14.4-15.5,14.4L401.6,400.3z"/>
</svg>
