<svg id="Layer_1" data-name="Layer 1" xmlns="http://www.w3.org/2000/svg" viewBox="0 0 288.69 189"><defs><style>.cls-1{fill:#2d2d2d;}.cls-2{fill:#0f0f10;}.cls-3{fill:#8a8a8a;}.cls-4{font-size:25px;fill:#fff;font-family:MyriadPro-Regular, Myriad Pro;}.cls-5{letter-spacing:0em;}.cls-6{letter-spacing:0em;}.cls-7{letter-spacing:-0.01em;}</style></defs><title>dsng_device</title><g id="dsng_device" data-name="dsng device"><path id="Path_1080" data-name="Path 1080" class="cls-1" d="M278.3,189H10.39A10.35,10.35,0,0,1,0,178.69V10.39A10.35,10.35,0,0,1,10.31,0h268a10.35,10.35,0,0,1,10.39,10.31V178.6a10.35,10.35,0,0,1-10.3,10.4Z" transform="translate(0 0)"/><path id="Path_1081" data-name="Path 1081" class="cls-2" d="M260.78,13.28H175.33a19.92,19.92,0,0,0-11.74,3.85c-6.16,4.43-15.78,7.31-26.56,7.31s-20.59-2.89-26.56-7.31a19.9,19.9,0,0,0-11.74-3.85H22.13A6.81,6.81,0,0,0,15.4,20V169a6.82,6.82,0,0,0,6.73,6.74H260.78a6.82,6.82,0,0,0,6.74-6.74V20A6.81,6.81,0,0,0,260.78,13.28Z" transform="translate(0 0)"/><g id="Group_52" data-name="Group 52"><path id="Path_1082" data-name="Path 1082" class="cls-3" d="M285.8,93.15a1.46,1.46,0,0,0-1.73-1c-.19,0-.38.19-.58.19V92a1.8,1.8,0,0,0-1.84-1.77,1.69,1.69,0,0,0-.85.23c-.19.19-.19,0-.38-.19a1.69,1.69,0,0,0-1.93-1c-.19,0-.38.2-.58.2V85.26A1.86,1.86,0,0,0,276,83.91a2,2,0,0,0-1.73,1.93v8.47h0a.2.2,0,0,0-.19-.2h0c-.57-.77-1-1.73-1.54-2.5a1.46,1.46,0,0,0-1.34-.77,1.58,1.58,0,0,0-1.24,1.85A2.76,2.76,0,0,0,270,93a48.94,48.94,0,0,0,2.5,5.58,10.73,10.73,0,0,0,1.35,1.73,3.59,3.59,0,0,1,1,1.35.43.43,0,0,0,.39.39,28.69,28.69,0,0,0,4,.19,24.83,24.83,0,0,0,3.85-.19c.19,0,.19,0,.19-.2a.69.69,0,0,0,.19-.38,6.59,6.59,0,0,1,1-2.69,12,12,0,0,0,1.35-4.24A1.59,1.59,0,0,0,285.8,93.15Zm-1,1.35a11.69,11.69,0,0,1-1.15,3.65,8.4,8.4,0,0,0-1,3.08,40.1,40.1,0,0,1-6.93,0c-.19-.38-.38-.57-.57-1a4.82,4.82,0,0,1-1-1.15A40.6,40.6,0,0,1,272,95.07c-.39-.77-.58-1.54-1-2.31-.19-.38,0-.57.39-.77s.58-.19.77.2c.77,1.34,1.73,2.88,2.5,4.23.19.19.38.39.58.19.19,0,.38-.19.38-.57V85.84a.89.89,0,0,1,.77-1c.58,0,1,.2,1,.77v6.74c0,.38.19.58.39.58s.38-.2.38-.58V91a.7.7,0,0,1,.63-.77h.14c.58,0,1,.2,1,.77v2.31c0,.39.2.58.58.39.19,0,.39-.19.39-.58V91.8a.91.91,0,0,1,.85-1h.11a.88.88,0,0,1,1,.77v2.31a.39.39,0,1,0,.77,0v-.38a.71.71,0,0,1,.19-.58,1.52,1.52,0,0,1,1-.39c.38,0,.38.39.38.58,0,.77,0,1.15-.19,1.35Z" transform="translate(0 0)"/><path id="Path_1083" data-name="Path 1083" class="cls-3" d="M278.3,83.91h.19A11.21,11.21,0,0,0,280,82.37a.41.41,0,0,0,0-.58.43.43,0,0,0-.58,0,12,12,0,0,1-1.73,1.54.37.37,0,0,0-.07.51.23.23,0,0,0,.07.07Z" transform="translate(0 0)"/><path id="Path_1084" data-name="Path 1084" class="cls-3" d="M273.87,83.72l.19.19c.19,0,.39-.19.58-.38a.76.76,0,0,0-.19-.58l-1.54-1.54a.59.59,0,0,0-.77,0c-.2.19-.2.39,0,.77A11.54,11.54,0,0,0,273.87,83.72Z" transform="translate(0 0)"/><path id="Path_1085" data-name="Path 1085" class="cls-3" d="M279.26,84.88c-.39,0-.58.19-.58.38s.19.39.58.39h1.92c.39,0,.58-.2.58-.39s-.19-.38-.58-.38Z" transform="translate(0 0)"/><path id="Path_1086" data-name="Path 1086" class="cls-3" d="M271.37,85.84h1.92c.39,0,.39-.19.39-.39s-.19-.38-.58-.38h-1.92c-.19,0-.58.19-.58.38C271,85.64,271.18,85.84,271.37,85.84Z" transform="translate(0 0)"/><path id="Path_1087" data-name="Path 1087" class="cls-3" d="M276.18,83.34c.19,0,.39-.2.39-.58V80.83c0-.38-.2-.57-.39-.57a.39.39,0,0,0-.38.38v1.93C275.8,83.14,276,83.34,276.18,83.34Z" transform="translate(0 0)"/></g></g><text class="cls-4" transform="translate(89.4 89.68)"><tspan class="cls-5">P</tspan><tspan x="13.18" y="0">lumPOS</tspan><tspan class="cls-6" x="12.91" y="30">D</tspan><tspan x="29.66" y="30">evi</tspan><tspan class="cls-7" x="60.06" y="30">c</tspan><tspan x="71.11" y="30">e</tspan></text></svg>