<?xml version="1.0" encoding="utf-8"?>
<!-- Generator: Adobe Illustrator 22.1.0, SVG Export Plug-In . SVG Version: 6.00 Build 0)  -->
<svg version="1.1" id="Layer_1" xmlns="http://www.w3.org/2000/svg" xmlns:xlink="http://www.w3.org/1999/xlink" x="0px" y="0px"
	 viewBox="0 0 150 150" style="enable-background:new 0 0 150 150;" xml:space="preserve">
<style type="text/css">
	.st0{fill:#636A75;}
</style>
<g>
	<path class="st0" d="M135.8,37.1h-12.3C117.7,15.7,98.2,0,75,0S32.3,15.7,26.5,37.1H14.2c-5.5,0-10,4.5-10,10v93
		c0,5.5,4.5,10,10,10h121.6c5.5,0,10-4.5,10-10V47C145.8,41.5,141.3,37.1,135.8,37.1z M135.8,43.7c1.9,0,3.4,1.5,3.4,3.4v34.8h-25.1
		c2.8-3.5,5.2-7.3,7-11.5c2.8-6.4,4.2-13.1,4.2-20.1c0-2.2-0.1-4.4-0.4-6.6H135.8z M75,6.6c24.1,0,43.7,19.6,43.7,43.7
		c0,11.6-4.5,22.5-12.6,30.7H44c-8.1-8.2-12.6-19.1-12.6-30.7C31.4,26.2,50.9,6.6,75,6.6z M14.2,43.7h11c-0.3,2.2-0.4,4.4-0.4,6.6
		c0,7,1.4,13.8,4.2,20.1c1.8,4.2,4.2,8,7,11.5H10.8V47C10.8,45.2,12.3,43.7,14.2,43.7z M135.8,143.4H14.2c-1.9,0-3.4-1.5-3.4-3.4
		V88.5h128.4V140C139.2,141.9,137.7,143.4,135.8,143.4z"/>
	<circle class="st0" cx="75.8" cy="72.7" r="6.8"/>
	<path class="st0" d="M67.4,35.4c0.4-6.8,4-10.7,9.7-10.7c5.1,0,8.3,3.2,8.3,8.3c0,4.5-1.6,7.6-7.6,14.3c-4.9,5.6-6.5,8.9-7.1,14.3
		l-0.2,1.6h10.1l0.1-1.3c0.2-3.8,1.5-5.8,6.3-10.6c6.4-6.4,9.3-12,9.3-18.2c0-4.7-1.8-9-5-12c-3.4-3.2-8.2-4.8-14-4.8
		c-5.8,0-10.8,1.8-14.5,5.2c-3.7,3.4-5.7,8.2-5.9,13.9l0,1.5h10.4L67.4,35.4z"/>
	<path class="st0" d="M92.3,112.2l-2.3-0.4c-0.2-0.7-0.5-1.4-0.9-2.1l1.4-1.9c0.8-1.1,0.7-2.6-0.3-3.6l-2.3-2.3
		c-0.5-0.5-1.2-0.8-2-0.8c-0.6,0-1.1,0.2-1.6,0.5l-1.9,1.4c-0.7-0.4-1.4-0.7-2.2-0.9l-0.4-2.3c-0.2-1.3-1.4-2.3-2.7-2.3h-3.3
		c-1.4,0-2.5,1-2.7,2.3l-0.4,2.4c-0.7,0.2-1.4,0.5-2.1,0.9l-1.9-1.4c-0.5-0.3-1-0.5-1.6-0.5c-0.7,0-1.4,0.3-2,0.8l-2.3,2.3
		c-1,1-1.1,2.5-0.3,3.6l1.4,1.9c-0.3,0.7-0.6,1.4-0.8,2.1l-2.3,0.4c-1.3,0.2-2.3,1.4-2.3,2.7v3.3c0,1.4,1,2.5,2.3,2.7l2.4,0.4
		c0.2,0.7,0.5,1.4,0.9,2.1l-1.4,1.9c-0.8,1.1-0.7,2.6,0.3,3.6l2.3,2.3c0.5,0.5,1.2,0.8,2,0.8c0.6,0,1.1-0.2,1.6-0.5l1.9-1.4
		c0.6,0.3,1.3,0.6,2,0.8l0.4,2.3c0.2,1.3,1.4,2.3,2.7,2.3h3.3c1.4,0,2.5-1,2.7-2.3l0.4-2.3c0.7-0.2,1.4-0.5,2.1-0.9l1.9,1.4
		c0.5,0.3,1,0.5,1.6,0.5c0.7,0,1.4-0.3,2-0.8l2.3-2.3c1-1,1.1-2.5,0.3-3.6l-1.4-1.9c0.3-0.7,0.6-1.4,0.9-2.1l2.3-0.4
		c1.3-0.2,2.3-1.4,2.3-2.7V115C94.6,113.6,93.7,112.5,92.3,112.2z M91.6,117.8L91.6,117.8l0,0.2l-3,0.5c-0.6,0.1-1.1,0.5-1.2,1.1
		c-0.3,1.1-0.7,2.2-1.3,3.1c-0.3,0.5-0.3,1.2,0.1,1.6l1.8,2.5l-2,2l-2.5-1.8c-0.3-0.2-0.6-0.3-0.9-0.3c-0.3,0-0.5,0.1-0.8,0.2
		c-1,0.6-2,1-3.1,1.3c-0.6,0.1-1,0.6-1.1,1.2l-0.5,3h-2.8l-0.5-3c-0.1-0.6-0.5-1.1-1.1-1.2c-1.1-0.3-2.1-0.7-3.1-1.3
		c-0.2-0.1-0.5-0.2-0.8-0.2c-0.3,0-0.6,0.1-0.9,0.3l-2.5,1.8l-2-2l1.8-2.5c0.3-0.5,0.4-1.1,0.1-1.7c-0.6-1-1-2-1.3-3.1
		c-0.2-0.6-0.6-1-1.2-1.1l-3.1-0.5v-2.8l3-0.5c0.6-0.1,1.1-0.5,1.2-1.1c0.3-1.1,0.7-2.2,1.3-3.1c0.3-0.5,0.3-1.2-0.1-1.6l-1.8-2.5
		l2-2l2.5,1.8c0.3,0.2,0.6,0.3,0.9,0.3c0.3,0,0.5-0.1,0.8-0.2c1-0.6,2-1,3.1-1.3c0.6-0.2,1-0.6,1.1-1.2l0.5-3.1h2.8l0.5,3
		c0.1,0.6,0.5,1.1,1.1,1.2c1.1,0.3,2.2,0.7,3.2,1.3c0.2,0.1,0.5,0.2,0.8,0.2c0.3,0,0.6-0.1,0.9-0.3l2.5-1.8l2,2l-1.8,2.5
		c-0.3,0.5-0.4,1.1-0.1,1.7c0.6,1,1,2,1.3,3.1c0.1,0.6,0.6,1,1.2,1.1l3,0.5V117.8z"/>
	<path class="st0" d="M75.6,108.1c-4.7,0-8.5,3.8-8.5,8.5s3.8,8.5,8.5,8.5c4.7,0,8.5-3.8,8.5-8.5S80.3,108.1,75.6,108.1z M75.6,122
		c-3,0-5.4-2.4-5.4-5.4s2.4-5.4,5.4-5.4s5.4,2.4,5.4,5.4S78.6,122,75.6,122z"/>
	<path class="st0" d="M46.2,113.3H24c-1.8,0-3.3,1.5-3.3,3.3c0,1.8,1.5,3.3,3.3,3.3h22.1c1.8,0,3.3-1.5,3.3-3.3
		C49.4,114.8,48,113.3,46.2,113.3z"/>
	<path class="st0" d="M127.2,113.3h-22.1c-1.8,0-3.3,1.5-3.3,3.3s1.5,3.3,3.3,3.3h22.1c1.8,0,3.3-1.5,3.3-3.3
		S129.1,113.3,127.2,113.3z"/>
</g>
</svg>
