<svg id="noun_Settings_1813099" xmlns="http://www.w3.org/2000/svg" width="44.018" height="36.123" viewBox="0 0 44.018 36.123">
  <g id="Group_8" data-name="Group 8">
    <g id="Group_7" data-name="Group 7">
      <g id="Group_6" data-name="Group 6">
        <path id="Path_33" data-name="Path 33" d="M18,30.118l-.021.02a2.12,2.12,0,0,1,2.3,2.3H3.475A3.479,3.479,0,0,1,0,28.959V3.475A3.479,3.479,0,0,1,3.475,0H35.909a3.479,3.479,0,0,1,3.475,3.475v8.112H37.1l-.028.027v-.031H2.317V28.959a1.159,1.159,0,0,0,1.158,1.158Zm18.18,2.306q-.134.01-.27.01H34.7Q35.53,32.434,36.18,32.424ZM3.475,2.317A1.159,1.159,0,0,0,2.317,3.475V9.267H37.068V3.475a1.159,1.159,0,0,0-1.158-1.158Z" fill="#626975"/>
        <path id="Path_34" data-name="Path 34" d="M4.317,3.158A1.158,1.158,0,1,1,3.158,2,1.159,1.159,0,0,1,4.317,3.158Z" transform="translate(2.633 2.633)" fill="#626975"/>
        <path id="Path_35" data-name="Path 35" d="M6.317,3.158A1.158,1.158,0,1,1,5.158,2,1.159,1.159,0,0,1,6.317,3.158Z" transform="translate(5.267 2.633)" fill="#626975"/>
        <path id="Path_36" data-name="Path 36" d="M8.317,3.158A1.158,1.158,0,1,1,7.158,2,1.159,1.159,0,0,1,8.317,3.158Z" transform="translate(7.9 2.633)" fill="#626975"/>
        <path id="Path_37" data-name="Path 37" d="M21.608,3.158A1.039,1.039,0,0,1,20.49,4.317H11.158a1.158,1.158,0,1,1,0-2.317h9.233A1.08,1.08,0,0,1,21.608,3.158Z" transform="translate(13.167 2.633)" fill="#626975"/>
        <g id="Group_5" data-name="Group 5" transform="translate(20.851 13.9)">
          <path id="Path_38" data-name="Path 38" d="M6.975,10.25A3.475,3.475,0,1,1,10.45,6.775,3.479,3.479,0,0,1,6.975,10.25Zm0-4.633A1.158,1.158,0,1,0,8.133,6.775,1.159,1.159,0,0,0,6.975,5.617Z" transform="translate(4.609 4.345)" fill="#626975"/>
          <path id="Path_39" data-name="Path 39" d="M8.458,22.22a1.045,1.045,0,0,1-.312-.046,11.631,11.631,0,0,1-4.425-2.559,1.048,1.048,0,0,1-.337-.811,1.062,1.062,0,0,1,.4-.786,2.107,2.107,0,0,0-1.318-3.751,2.063,2.063,0,0,0-.765.145,1.052,1.052,0,0,1-1.413-.748A11.7,11.7,0,0,1,0,11.11,11.556,11.556,0,0,1,.284,8.556,1.052,1.052,0,0,1,1.7,7.808a2.063,2.063,0,0,0,.765.145A2.107,2.107,0,0,0,3.78,4.2a1.053,1.053,0,0,1-.059-1.6A11.675,11.675,0,0,1,8.146.047,1.054,1.054,0,0,1,9.5.9a2.107,2.107,0,0,0,4.166,0A1.054,1.054,0,0,1,15.021.047a11.659,11.659,0,0,1,4.425,2.559,1.048,1.048,0,0,1,.337.811,1.062,1.062,0,0,1-.4.786,2.107,2.107,0,0,0,1.318,3.751,2.063,2.063,0,0,0,.765-.145,1.052,1.052,0,0,1,1.413.748,11.7,11.7,0,0,1,.284,2.555,11.556,11.556,0,0,1-.284,2.555,1.052,1.052,0,0,1-1.413.748,2.063,2.063,0,0,0-.765-.145,2.107,2.107,0,0,0-1.318,3.751,1.053,1.053,0,0,1,.059,1.6,11.659,11.659,0,0,1-4.425,2.559,1.054,1.054,0,0,1-1.354-.849,2.107,2.107,0,0,0-4.166,0,1.057,1.057,0,0,1-1.043.9ZM5.952,18.732A9.557,9.557,0,0,0,7.793,19.8a4.213,4.213,0,0,1,7.578,0,9.557,9.557,0,0,0,1.841-1.066,4.214,4.214,0,0,1,3.494-6.571c.1,0,.2,0,.295.011a9.621,9.621,0,0,0,0-2.127c-.1.006-.2.011-.295.011a4.213,4.213,0,0,1-3.494-6.569A9.557,9.557,0,0,0,15.371,2.42a4.213,4.213,0,0,1-7.578,0A9.557,9.557,0,0,0,5.952,3.486a4.212,4.212,0,0,1,.156,4.463,4.224,4.224,0,0,1-3.65,2.106c-.1,0-.2,0-.295-.011a9.621,9.621,0,0,0,0,2.127c.1-.006.2-.011.295-.011A4.213,4.213,0,0,1,6.6,17.172a4.256,4.256,0,0,1-.644,1.559Z" transform="translate(0 0)" fill="#626975"/>
        </g>
      </g>
    </g>
  </g>
</svg>
