<?xml version="1.0" encoding="utf-8"?>
<!-- Generator: Adobe Illustrator 22.1.0, SVG Export Plug-In . SVG Version: 6.00 Build 0)  -->
<svg version="1.1" id="Layer_1" xmlns="http://www.w3.org/2000/svg" xmlns:xlink="http://www.w3.org/1999/xlink" x="0px" y="0px"
	 viewBox="0 0 150 150" style="enable-background:new 0 0 150 150;" xml:space="preserve">
<style type="text/css">
	.st0{fill:#636A75;}
</style>
<g>
	<path class="st0" d="M137.8,22.6H12.2C5.5,22.6,0,28.1,0,34.8v80.3c0,6.7,5.5,12.2,12.2,12.2h125.5c6.7,0,12.2-5.5,12.2-12.2V34.8
		C150,28.1,144.5,22.6,137.8,22.6z M44.6,120.8H12.2c-3.1,0-5.6-2.5-5.6-5.6V64.9h11.6l0.3,0.8c1.8,5.2,6.7,8.8,12.2,8.8
		c0.8,0,1.6-0.1,2.5-0.2l1.2,1.8l-7,10.5c-0.5,0.7-0.7,1.6-0.5,2.5c0.2,0.9,0.7,1.6,1.4,2.1c0.5,0.4,1.2,0.6,1.8,0.6
		c1.1,0,2.1-0.6,2.8-1.5l9.7-14.5l2.1,0.6V120.8z M24.5,61.6c0-3.4,2.8-6.2,6.2-6.2c1.2,0,2.4,0.4,3.4,1.1l7.8,5.2l-7.8,5.2
		c-1,0.7-2.2,1.1-3.4,1.1C27.3,67.9,24.5,65.1,24.5,61.6z M44.6,53.3l-1.8,1l-5-3.3c-2.1-1.4-4.6-2.2-7.1-2.2
		c-5.6,0-10.5,3.5-12.2,8.8l-0.3,0.8H6.6V34.8c0-3.1,2.5-5.6,5.6-5.6h32.4V53.3z M143.4,115.2c0,3.1-2.5,5.6-5.6,5.6H51.2V76.3
		l2.1-0.6L63,90.2c0.6,0.9,1.6,1.5,2.8,1.5c0.7,0,1.3-0.2,1.8-0.6c1.5-1,1.9-3.1,0.9-4.6l-7-10.5l1.2-1.8c0.8,0.2,1.7,0.2,2.5,0.2
		c5.5,0,10.4-3.5,12.2-8.8l0.3-0.8h65.8V115.2z M53.9,61.6l7.8-5.2c1-0.7,2.2-1.1,3.4-1.1c3.4,0,6.2,2.8,6.2,6.3
		c0,3.4-2.8,6.3-6.2,6.3c-1.2,0-2.4-0.4-3.4-1.1L53.9,61.6z M143.4,58.3H77.6l-0.3-0.8c-1.8-5.2-6.7-8.8-12.2-8.8
		c-2.5,0-5,0.7-7.1,2.2l-5,3.3l-1.8-1v-24h86.5c3.1,0,5.6,2.5,5.6,5.6V58.3z"/>
	<path class="st0" d="M92.6,91.7h36.3c1.8,0,3.3-1.5,3.3-3.3c0-1.8-1.5-3.3-3.3-3.3H92.6c-1.8,0-3.3,1.5-3.3,3.3
		C89.2,90.2,90.7,91.7,92.6,91.7z"/>
	<path class="st0" d="M92.6,109.5h36.3c1.8,0,3.3-1.5,3.3-3.3c0-1.8-1.5-3.3-3.3-3.3H92.6c-1.8,0-3.3,1.5-3.3,3.3
		C89.2,108.1,90.7,109.5,92.6,109.5z"/>
</g>
</svg>
