<?xml version="1.0" encoding="utf-8"?>
<!-- Generator: Adobe Illustrator 22.1.0, SVG Export Plug-In . SVG Version: 6.00 Build 0)  -->
<svg version="1.1" id="Layer_1" xmlns="http://www.w3.org/2000/svg" xmlns:xlink="http://www.w3.org/1999/xlink" x="0px" y="0px"
	 viewBox="0 0 150 150" style="enable-background:new 0 0 150 150;" xml:space="preserve">
<style type="text/css">
	.st0{fill:#636A75;}
</style>
<g>
	<path class="st0" d="M145.2,45l-8.3-8.2c-6.3-6.3-12.6-12.6-18.9-18.9c-3-3.1-6.5-4.6-10.8-4.6c-21.3,0.1-42.6,0.1-63.9,0.1l-1.6,0
		c-3.6,0-6.6,1.3-9.2,3.9c-5.3,5.3-28,28-28,28c-0.7,0.7-1.4,1.5-2,2.3c-3.7,4.8-3.3,11.8,0.9,16c0.8,0.8,1.2,1.6,1.2,3
		c0,18.2,0,36.4,0,54.7c0,1.6,0,3.4,0.5,5.1c1.7,6.7,6.9,10.6,14.4,10.6c8.2,0,16.4,0,24.7,0l58.5,0c9.9,0,19.7,0,29.6-0.1
		c2,0,4.9-0.3,7.6-1.5c5.3-2.4,7.9-6.9,7.9-13.5c0-18.6,0-37.1,0-55.7c0-0.8,0-1.7,0.3-2.3C151.5,57.1,150.4,50.2,145.2,45z
		 M70.4,129.3c-0.4,0-0.9,0.1-1.3,0.1H19.6c-5.1,0-7.5-2.3-7.5-7.3c0-13.8,0-27.5,0-41.3l0-12.4c0-0.3,0-0.5,0-0.8
		c0.1,0,0.3,0,0.4,0c5.1,0,8.6-3.1,12.2-6.8c3.3-3.4,6.7-6.8,10-10.1c2-2,3.9-3.9,5.9-5.9c0.4-0.4,0.7-0.8,1-1.3l18.2,18.2
		c4.4,4.4,5.1,4.8,10.7,5.9V129.3z M74.5,58.5c-1.1,1.1-2.3,1.6-3.7,1.6c-1.3,0-2.6-0.6-3.8-1.7c-2.5-2.4-4.9-4.8-7.4-7.3L53,44.5
		c-2.8-2.8-5.5-5.6-8.3-8.3c-1.1-1.1-2.1-1.6-3-1.6c-0.9,0-1.8,0.5-2.9,1.6c-3.8,3.7-7.6,7.5-11.3,11.3c-3.4,3.4-6.8,6.7-10.2,10.1
		c-0.6,0.6-1.6,1.5-2.6,2c-0.7,0.3-1.4,0.5-2.1,0.5c-1.4,0-2.8-0.7-3.8-1.8C7.2,56.4,7,54,8.4,52.1c0.4-0.5,0.8-1,1.5-1.7L37.1,23
		c1.4-1.4,2.7-2.4,4.7-2.7c0.4,0.2,0.8,0.4,1.2,0.6c1,0.5,1.9,0.9,2.6,1.6c8.6,8.5,18,17.9,28.7,28.7C76.5,53.3,76.5,56.3,74.5,58.5
		z M140.2,121.3c0,5.7-2.3,8-7.9,8l-54.1,0V67.6h62V121.3z M142.2,58.6c-0.1,0.9-0.7,1.4-2.8,1.4l-11.2,0l-45.7,0
		c0.1-0.4,0.2-0.8,0.2-1.1c0.3-1.5,0.6-2.8,0.6-4.3c0.1-3.4-1.4-6.4-4.4-9.4C72.7,39,66.4,32.6,60.1,26.3l-5-5
		c-0.2-0.2-0.4-0.4-0.6-0.6c0.1,0,0.3,0,0.4,0h23.4c9.6,0,19.3,0,28.9,0c2.2,0,3.9,0.7,5.4,2.2c7.9,8,17.8,18,27.5,27.4
		C142.6,52.8,142.6,55.8,142.2,58.6z"/>
	<path class="st0" d="M47.5,85.9c-1.3-0.6-2.6-1.1-3.8-1.6c-1.9-0.7-3.8-1.5-5.6-2.4c-2.8-1.4-4-3.9-3.3-7.2c0.5-2.4,2.8-4.1,6-4.4
		c0.6-0.1,1.3-0.1,1.9-0.1c2.7,0,5.3,0.6,7.8,1.9c0.8,0.4,1.5,0.6,2.1,0.6c1.2,0,2.1-0.6,2.9-2c1.2-2,0.7-4-1.2-5.3
		c-1-0.7-2.2-1.3-3.4-1.6c-1.3-0.4-2.7-0.7-4.1-1l-1.3-0.3l0-0.5c0-0.8,0-1.6,0-2.4c-0.2-2.3-1.7-4-4.1-4c-2.2,0-3.8,1.5-4.1,3.8
		c-0.1,0.8-0.1,1.7,0,2.7c0.1,0.8,0,1.1-0.9,1.3c-6.1,1.8-9.4,5.9-9.7,12.2c-0.4,6.6,2.4,11.2,8.3,13.9c1,0.5,2.1,0.9,3.2,1.3
		c1.3,0.5,2.6,1,3.9,1.7c1.9,0.9,3.5,1.7,4.9,2.9c2.4,2.1,3.1,5,2.1,8.9c-0.7,2.8-2.7,4.3-6,4.8c-0.8,0.1-1.5,0.2-2.2,0.2
		c-3.6,0-6.4-1.3-8.7-4c-1-1.1-1.9-1.7-2.9-1.7c-0.7,0-1.4,0.3-2,0.8c-1.9,1.4-2.3,3.8-1.1,5.6c0.8,1.1,1.9,2.7,3.5,3.6
		c1.8,1,3.7,1.8,5.6,2.6c0.7,0.3,1.4,0.6,2.2,0.9l0,0.2c0,0.7,0,1.6,0,2.5c0.2,2.3,1.9,3.9,4.1,3.9h0.1c2.2,0,3.8-1.7,4-4
		c0.1-0.8,0-1.6,0-2.5l0-0.5c4.3-1.1,7.2-2.8,9.1-5.7c2.8-4.2,3.7-9.3,2.3-14.1C55.6,92,52.1,88,47.5,85.9z"/>
	<path class="st0" d="M95.8,106c1.5,0.1,3.1,0.2,5.1,0.2c1.4,0,2.7,0,4.1-0.1c1.1,0,2.2,0,3.4-0.1v0.2l7.7,0c1.4,0,2.8,0,4.2,0
		c7.5-0.1,13.2-4.5,14.5-11.1c0.8-4,0.6-8.2,0.3-11.4c-0.6-6.8-6.3-12.3-13-12.5c-4.2-0.1-8.5-0.2-12.7-0.2c-4.2,0-8.5,0.1-12.7,0.2
		c-6.1,0.1-11.4,4.3-12.7,10.1c-0.9,3.8-0.8,7.9-0.7,11.4C83.6,99.7,88.9,105.4,95.8,106z M113.1,78.8c0.8,0,1.6,0,2.4-0.1
		c1,0,2-0.1,3.1-0.1c1.5,0,2.7,0.1,3.8,0.2c2.9,0.3,5,2.7,5.4,6.1h-14.7V78.8z M113,92.6h14.7c-0.2,3-2.4,5.4-5.5,6.1
		c-0.6,0.1-1.2,0.2-1.8,0.2c-1.2,0-2.4,0-3.6,0l-3.7,0V92.6z M92.2,81.2c1.2-1.4,2.9-2.3,4.7-2.4c1.1-0.1,2.3-0.1,3.4-0.1
		c0.9,0,4.3,0,5.1,0.1v6.2H90.8C90.8,83.6,91.3,82.3,92.2,81.2z M105.4,92.6v6.2c-0.7,0-1.5,0-2.2,0c-0.9,0-1.8,0-2.7,0
		c-1.1,0-2.2,0-3.3-0.1c-3.6-0.3-6-2.7-6.4-6.2H105.4z"/>
</g>
</svg>
