<svg id="noun_Human_Resource_Management_1880548" data-name="noun_Human Resource Management_1880548" xmlns="http://www.w3.org/2000/svg" width="45.514" height="45.514" viewBox="0 0 45.514 45.514">
  <g id="_04-worker" data-name="04-worker">
    <path id="Path_40" data-name="Path 40" d="M15.171,24.654H9.482a.948.948,0,0,1-.948-.948V22.043c-.132-.053-.263-.108-.394-.166L6.963,23.054a.976.976,0,0,1-1.341,0L1.6,19.032a.948.948,0,0,1,0-1.341l1.177-1.178c-.059-.131-.113-.262-.165-.394H.948A.948.948,0,0,1,0,15.171V9.482a.948.948,0,0,1,.948-.948H2.611c.052-.132.106-.263.165-.394L1.6,6.963a.948.948,0,0,1,0-1.341L5.622,1.6a.976.976,0,0,1,1.341,0L8.139,2.776c.132-.058.263-.113.394-.166V.948A.948.948,0,0,1,9.482,0h5.689a.948.948,0,0,1,.948.948V2.61c.132.053.263.108.394.166L17.691,1.6a.976.976,0,0,1,1.341,0l4.022,4.022a.948.948,0,0,1,0,1.341L21.877,8.14c.059.131.113.262.165.394h1.663a.948.948,0,0,1,.948.948v5.689a.948.948,0,0,1-.948.948H22.042c-.052.132-.106.263-.165.394l1.177,1.178a.948.948,0,0,1,0,1.341l-4.022,4.022a.976.976,0,0,1-1.341,0l-1.177-1.177c-.132.058-.263.113-.394.166v1.662A.948.948,0,0,1,15.171,24.654Zm-4.741-1.9h3.793V21.374a.948.948,0,0,1,.664-.9,8.489,8.489,0,0,0,1.383-.578.948.948,0,0,1,1.109.17l.982.982,2.682-2.682-.982-.982a.948.948,0,0,1-.17-1.109,8.607,8.607,0,0,0,.578-1.382.948.948,0,0,1,.9-.664h1.382V10.43H21.374a.948.948,0,0,1-.9-.664,8.608,8.608,0,0,0-.578-1.382.948.948,0,0,1,.17-1.109l.982-.982L18.361,3.611l-.982.982a.948.948,0,0,1-1.109.17,8.489,8.489,0,0,0-1.383-.578.948.948,0,0,1-.664-.9V1.9H10.43V3.28a.948.948,0,0,1-.664.9,8.489,8.489,0,0,0-1.383.578.948.948,0,0,1-1.109-.17l-.981-.982L3.611,6.292l.982.982a.948.948,0,0,1,.17,1.109,8.608,8.608,0,0,0-.578,1.382.948.948,0,0,1-.9.664H1.9v3.793H3.28a.948.948,0,0,1,.9.664,8.608,8.608,0,0,0,.578,1.382.948.948,0,0,1-.17,1.109l-.982.982,2.682,2.682.982-.982a.948.948,0,0,1,1.109-.17,8.49,8.49,0,0,0,1.383.578.948.948,0,0,1,.664.9Z" fill="#626975"/>
    <path id="Path_41" data-name="Path 41" d="M12.689,18.379a5.689,5.689,0,1,1,5.689-5.689A5.689,5.689,0,0,1,12.689,18.379Zm0-9.482a3.793,3.793,0,1,0,3.793,3.793A3.793,3.793,0,0,0,12.689,8.9Z" transform="translate(-0.362 -0.362)" fill="#626975"/>
    <path id="Path_42" data-name="Path 42" d="M37.638,29.171h-1.9A4.747,4.747,0,0,1,31,24.43V18.741A4.747,4.747,0,0,1,35.741,14h1.9a4.747,4.747,0,0,1,4.741,4.741V24.43a4.747,4.747,0,0,1-4.741,4.741ZM35.741,15.9A2.845,2.845,0,0,0,32.9,18.741V24.43a2.845,2.845,0,0,0,2.845,2.845h1.9a2.845,2.845,0,0,0,2.845-2.845V18.741A2.845,2.845,0,0,0,37.638,15.9Z" transform="translate(-1.605 -0.725)" fill="#626975"/>
    <path id="Path_43" data-name="Path 43" d="M41.482,21.793H37.689a.948.948,0,0,1-.67-.278l-1.226-1.226-1.226,1.226a.948.948,0,0,1-.67.278H32V19.9h1.5l1.619-1.619a.948.948,0,0,1,1.341,0L38.082,19.9h3.4Z" transform="translate(-1.657 -0.932)" fill="#626975"/>
    <path id="Path_44" data-name="Path 44" d="M44.016,47.12H28.845A2.845,2.845,0,0,1,26,44.275V37.638A6.645,6.645,0,0,1,32.638,31a.948.948,0,0,1,.881.6l2.912,7.282L39.342,31.6a.948.948,0,0,1,.881-.6,6.645,6.645,0,0,1,6.638,6.638v6.638A2.845,2.845,0,0,1,44.016,47.12Zm-12-14.182a4.749,4.749,0,0,0-4.115,4.7v6.638a.948.948,0,0,0,.948.948H44.016a.948.948,0,0,0,.948-.948V37.638a4.749,4.749,0,0,0-4.115-4.7l-3.538,8.846a.948.948,0,0,1-1.762,0Z" transform="translate(-1.346 -1.605)" fill="#626975"/>
    <path id="Path_45" data-name="Path 45" d="M36.638,42.638a.948.948,0,0,1-.424-.095L30.524,39.7A.948.948,0,0,1,30,38.845V36h1.9v2.259l4.741,2.371,4.741-2.371V36h1.9v2.845a.948.948,0,0,1-.524.853l-5.689,2.845A.948.948,0,0,1,36.638,42.638Z" transform="translate(-1.554 -1.864)" fill="#626975"/>
    <rect id="Rectangle_4" data-name="Rectangle 4" width="1.896" height="4.741" transform="translate(34.136 39.825)" fill="#626975"/>
    <path id="Path_46" data-name="Path 46" d="M37.379,11.586h-1.9V6.845a.948.948,0,0,0-.948-.948H26V4h8.534a2.845,2.845,0,0,1,2.845,2.845Z" transform="translate(-1.346 -0.207)" fill="#626975"/>
    <path id="Path_47" data-name="Path 47" d="M22.913,37.327H5.845A2.845,2.845,0,0,1,3,34.482V25H4.9v9.482a.948.948,0,0,0,.948.948H22.913Z" transform="translate(-0.155 -1.295)" fill="#626975"/>
    <rect id="Rectangle_5" data-name="Rectangle 5" width="4.741" height="1.896" transform="translate(22.757 20.861)" fill="#626975"/>
    <path id="Path_48" data-name="Path 48" d="M30.586,4.741h-1.9v-1.9a.948.948,0,0,0-.948-.948H23V0h4.741a2.845,2.845,0,0,1,2.845,2.845Z" transform="translate(-1.191)" fill="#626975"/>
  </g>
</svg>
