<svg xmlns="http://www.w3.org/2000/svg" width="78.883" height="81.572" viewBox="0 0 78.883 81.572">
  <g id="like_5_" data-name="like (5)" transform="translate(-8.438 0)">
    <path id="Path_2027" data-name="Path 2027" d="M222.357,106.9H201.648a2.394,2.394,0,0,1-1.218-4.456c9.023-5.331,13.71-11.551,14.328-19.013a5.146,5.146,0,0,1,5.141-4.624,10.12,10.12,0,0,1,9.961,10.115h0v.8c0,6.532-1.935,10.7-5.5,16.1A2.4,2.4,0,0,1,222.357,106.9Z" transform="translate(-160.415 -66.252)" fill="#ffc380"/>
    <path id="Path_2028" data-name="Path 2028" d="M195.3,232.585a7.511,7.511,0,0,0-7.5-7.5H149.212a2.392,2.392,0,0,0-1.218.333c-2.709,1.6-5.444,2.92-7.641,3.979-.766.369-1.49.719-2.149,1.048a2.394,2.394,0,0,0-1.323,2.142v30.647a2.394,2.394,0,0,0,1.323,2.142c9.674,4.836,17.716,5.421,27.094,5.421,1.452,0,2.937-.014,4.465-.028,1.689-.016,3.435-.033,5.266-.033H182.6a7.5,7.5,0,0,0,6.459-11.314,7.5,7.5,0,0,0,2.554-10.216,7.494,7.494,0,0,0,1.633-11.458A7.45,7.45,0,0,0,195.3,232.585Z" transform="translate(-107.979 -189.223)" fill="#ffcf99"/>
    <g id="Group_1401" data-name="Group 1401" transform="translate(39.085 0)">
      <path id="Path_2029" data-name="Path 2029" d="M432.717,115.85h-5.108a2.394,2.394,0,1,1,0-4.789h5.108a2.394,2.394,0,1,1,0,4.789Z" transform="translate(-389.461 -93.367)" fill="#29ccb1"/>
      <path id="Path_2030" data-name="Path 2030" d="M208.3,115.85H203.19a2.394,2.394,0,1,1,0-4.789H208.3a2.394,2.394,0,0,1,0,4.789Z" transform="translate(-200.796 -93.367)" fill="#29ccb1"/>
      <path id="Path_2031" data-name="Path 2031" d="M269.866,9.214a2.393,2.393,0,0,1-2.076-1.2l-2.554-4.424A2.394,2.394,0,1,1,269.383,1.2l2.554,4.424a2.395,2.395,0,0,1-2.071,3.592Z" transform="translate(-254.7 -0.001)" fill="#29ccb1"/>
      <path id="Path_2032" data-name="Path 2032" d="M379.515,9.213a2.395,2.395,0,0,1-2.071-3.592L380,1.2a2.394,2.394,0,0,1,4.147,2.394l-2.554,4.424A2.393,2.393,0,0,1,379.515,9.213Z" transform="translate(-349.031 0)" fill="#29ccb1"/>
    </g>
    <path id="SVGCleanerId_0" d="M77.346,420.026v12.61H72.557v-12.61a2.394,2.394,0,1,1,4.789,0Z" transform="translate(-53.904 -351.095)" fill="#73c3ff"/>
    <g id="Group_1402" data-name="Group 1402" transform="translate(39.085 0)">
      <path id="Path_2033" data-name="Path 2033" d="M432.717,115.85h-5.108a2.394,2.394,0,1,1,0-4.789h5.108a2.394,2.394,0,1,1,0,4.789Z" transform="translate(-389.461 -93.367)" fill="#29ccb1"/>
      <path id="Path_2034" data-name="Path 2034" d="M208.3,115.85H203.19a2.394,2.394,0,1,1,0-4.789H208.3a2.394,2.394,0,0,1,0,4.789Z" transform="translate(-200.796 -93.367)" fill="#29ccb1"/>
      <path id="Path_2035" data-name="Path 2035" d="M269.866,9.214a2.393,2.393,0,0,1-2.076-1.2l-2.554-4.424A2.394,2.394,0,1,1,269.383,1.2l2.554,4.424a2.395,2.395,0,0,1-2.071,3.592Z" transform="translate(-254.7 -0.001)" fill="#29ccb1"/>
      <path id="Path_2036" data-name="Path 2036" d="M379.515,9.213a2.395,2.395,0,0,1-2.071-3.592L380,1.2a2.394,2.394,0,0,1,4.147,2.394l-2.554,4.424A2.393,2.393,0,0,1,379.515,9.213Z" transform="translate(-349.031 0)" fill="#29ccb1"/>
    </g>
    <g id="Group_1403" data-name="Group 1403" transform="translate(18.653 66.537)">
      <path id="SVGCleanerId_0_1_" d="M77.346,420.026v12.61H72.557v-12.61a2.394,2.394,0,1,1,4.789,0Z" transform="translate(-72.557 -417.632)" fill="#73c3ff"/>
    </g>
    <path id="Path_2037" data-name="Path 2037" d="M31.263,225.083H10.832a2.4,2.4,0,0,0-2.394,2.394v40.862a2.44,2.44,0,0,0,2.394,2.425H26.156a7.589,7.589,0,0,0,6.712-4.185,7.438,7.438,0,0,0,.79-3.347V227.477A2.4,2.4,0,0,0,31.263,225.083Z" transform="translate(0 -189.223)" fill="#44a4ec"/>
    <path id="Path_2038" data-name="Path 2038" d="M77.346,419.024v12.77H72.557v-12.77a2.394,2.394,0,1,1,4.789,0Z" transform="translate(-53.904 -350.252)" fill="#73c3ff"/>
  </g>
</svg>
