<?xml version="1.0" encoding="utf-8"?>
<!-- Generator: Adobe Illustrator 22.1.0, SVG Export Plug-In . SVG Version: 6.00 Build 0)  -->
<svg version="1.1" id="Layer_1" xmlns="http://www.w3.org/2000/svg" xmlns:xlink="http://www.w3.org/1999/xlink" x="0px" y="0px"
	 viewBox="0 0 150 150" style="enable-background:new 0 0 150 150;" xml:space="preserve">
<style type="text/css">
	.st0{fill:#636A75;}
</style>
<g>
	<path class="st0" d="M133.8,26.5H16.2c-2.9,0-5.3,2.4-5.3,5.3v75.8c0,2.9,2.4,5.3,5.3,5.3h117.6c2.9,0,5.3-2.4,5.3-5.3V31.8
		C139.1,28.8,136.7,26.5,133.8,26.5z M133.9,107.6c0,0.1-0.1,0.1-0.1,0.1H16.2c-0.1,0-0.1-0.1-0.1-0.1V31.8c0-0.1,0.1-0.1,0.1-0.1
		h117.6c0.1,0,0.1,0.1,0.1,0.1V107.6z"/>
	<path class="st0" d="M141.2,13.6H8.8c-4.9,0-8.8,4-8.8,8.8v105.1c0,4.9,4,8.8,8.8,8.8h132.3c4.9,0,8.8-4,8.8-8.8V22.5
		C150,17.6,146,13.6,141.2,13.6z M144.8,127.5c0,2-1.6,3.6-3.6,3.6H8.8c-2,0-3.6-1.6-3.6-3.6V22.5c0-2,1.6-3.6,3.6-3.6h132.3
		c2,0,3.6,1.6,3.6,3.6V127.5z"/>
	<path class="st0" d="M77.5,40.5h-10c-2.1,0-3.7,1.7-3.7,3.7v6.5c0,2.1,1.7,3.7,3.7,3.7h10c2.1,0,3.7-1.7,3.7-3.7v-6.5
		C81.2,42.1,79.5,40.5,77.5,40.5z M78.1,50.7c0,0.3-0.3,0.6-0.6,0.6h-10c-0.3,0-0.6-0.3-0.6-0.6v-6.5c0-0.3,0.3-0.6,0.6-0.6h10
		c0.3,0,0.6,0.3,0.6,0.6V50.7z"/>
	<path class="st0" d="M101.2,40.5h-10c-2.1,0-3.7,1.7-3.7,3.7v6.5c0,2.1,1.7,3.7,3.7,3.7h10c2.1,0,3.7-1.7,3.7-3.7v-6.5
		C104.9,42.1,103.3,40.5,101.2,40.5z M101.8,50.7c0,0.3-0.3,0.6-0.6,0.6h-10c-0.3,0-0.6-0.3-0.6-0.6v-6.5c0-0.3,0.3-0.6,0.6-0.6h10
		c0.3,0,0.6,0.3,0.6,0.6V50.7z"/>
	<path class="st0" d="M123.1,40.5h-10c-2.1,0-3.7,1.7-3.7,3.7v6.5c0,2.1,1.7,3.7,3.7,3.7h10c2.1,0,3.7-1.7,3.7-3.7v-6.5
		C126.8,42.1,125.1,40.5,123.1,40.5z M123.7,50.7c0,0.3-0.3,0.6-0.6,0.6h-10c-0.3,0-0.6-0.3-0.6-0.6v-6.5c0-0.3,0.3-0.6,0.6-0.6h10
		c0.3,0,0.6,0.3,0.6,0.6V50.7z"/>
	<path class="st0" d="M77.5,55.9h-10c-2.1,0-3.7,1.7-3.7,3.7v6.5c0,2.1,1.7,3.7,3.7,3.7h10c2.1,0,3.7-1.7,3.7-3.7v-6.5
		C81.2,57.6,79.5,55.9,77.5,55.9z M78.1,66.1c0,0.3-0.3,0.6-0.6,0.6h-10c-0.3,0-0.6-0.3-0.6-0.6v-6.5c0-0.3,0.3-0.6,0.6-0.6h10
		c0.3,0,0.6,0.3,0.6,0.6V66.1z"/>
	<path class="st0" d="M101.2,55.9h-10c-2.1,0-3.7,1.7-3.7,3.7v6.5c0,2.1,1.7,3.7,3.7,3.7h10c2.1,0,3.7-1.7,3.7-3.7v-6.5
		C104.9,57.6,103.3,55.9,101.2,55.9z M101.8,66.1c0,0.3-0.3,0.6-0.6,0.6h-10c-0.3,0-0.6-0.3-0.6-0.6v-6.5c0-0.3,0.3-0.6,0.6-0.6h10
		c0.3,0,0.6,0.3,0.6,0.6V66.1z"/>
	<path class="st0" d="M123.1,55.9h-10c-2.1,0-3.7,1.7-3.7,3.7v6.5c0,2.1,1.7,3.7,3.7,3.7h10c2.1,0,3.7-1.7,3.7-3.7v-6.5
		C126.8,57.6,125.1,55.9,123.1,55.9z M123.7,66.1c0,0.3-0.3,0.6-0.6,0.6h-10c-0.3,0-0.6-0.3-0.6-0.6v-6.5c0-0.3,0.3-0.6,0.6-0.6h10
		c0.3,0,0.6,0.3,0.6,0.6V66.1z"/>
	<path class="st0" d="M77.3,71.3h-10c-2.1,0-3.7,1.7-3.7,3.7v6.5c0,2.1,1.7,3.7,3.7,3.7h10c2.1,0,3.7-1.7,3.7-3.7V75
		C81,73,79.3,71.3,77.3,71.3z M77.9,81.6c0,0.3-0.3,0.6-0.6,0.6h-10c-0.3,0-0.6-0.3-0.6-0.6V75c0-0.3,0.3-0.6,0.6-0.6h10
		c0.3,0,0.6,0.3,0.6,0.6V81.6z"/>
	<path class="st0" d="M101,71.3H91c-2.1,0-3.7,1.7-3.7,3.7v6.5c0,2.1,1.7,3.7,3.7,3.7h10c2.1,0,3.7-1.7,3.7-3.7V75
		C104.7,73,103.1,71.3,101,71.3z M101.6,81.6c0,0.3-0.3,0.6-0.6,0.6H91c-0.3,0-0.6-0.3-0.6-0.6V75c0-0.3,0.3-0.6,0.6-0.6h10
		c0.3,0,0.6,0.3,0.6,0.6V81.6z"/>
	<path class="st0" d="M122.9,71.3h-10c-2.1,0-3.7,1.7-3.7,3.7v6.5c0,2.1,1.7,3.7,3.7,3.7h10c2.1,0,3.7-1.7,3.7-3.7V75
		C126.6,73,124.9,71.3,122.9,71.3z M123.5,81.6c0,0.3-0.3,0.6-0.6,0.6h-10c-0.3,0-0.6-0.3-0.6-0.6V75c0-0.3,0.3-0.6,0.6-0.6h10
		c0.3,0,0.6,0.3,0.6,0.6V81.6z"/>
	<path class="st0" d="M77.3,86.7h-10c-2.1,0-3.7,1.7-3.7,3.7V97c0,2.1,1.7,3.7,3.7,3.7h10c2.1,0,3.7-1.7,3.7-3.7v-6.5
		C81,88.4,79.3,86.7,77.3,86.7z M77.9,97c0,0.3-0.3,0.6-0.6,0.6h-10c-0.3,0-0.6-0.3-0.6-0.6v-6.5c0-0.3,0.3-0.6,0.6-0.6h10
		c0.3,0,0.6,0.3,0.6,0.6V97z"/>
	<path class="st0" d="M101,86.7H91c-2.1,0-3.7,1.7-3.7,3.7V97c0,2.1,1.7,3.7,3.7,3.7h10c2.1,0,3.7-1.7,3.7-3.7v-6.5
		C104.7,88.4,103.1,86.7,101,86.7z M101.6,97c0,0.3-0.3,0.6-0.6,0.6H91c-0.3,0-0.6-0.3-0.6-0.6v-6.5c0-0.3,0.3-0.6,0.6-0.6h10
		c0.3,0,0.6,0.3,0.6,0.6V97z"/>
	<path class="st0" d="M122.9,86.7h-10c-2.1,0-3.7,1.7-3.7,3.7V97c0,2.1,1.7,3.7,3.7,3.7h10c2.1,0,3.7-1.7,3.7-3.7v-6.5
		C126.6,88.4,124.9,86.7,122.9,86.7z M123.5,97c0,0.3-0.3,0.6-0.6,0.6h-10c-0.3,0-0.6-0.3-0.6-0.6v-6.5c0-0.3,0.3-0.6,0.6-0.6h10
		c0.3,0,0.6,0.3,0.6,0.6V97z"/>
	<path class="st0" d="M55.7,40.5H27.3c-2.2,0-4,1.8-4,4v52.2c0,2.2,1.8,4,4,4h28.4c2.2,0,4-1.8,4-4V44.5
		C59.7,42.3,57.9,40.5,55.7,40.5z M56.6,96.7c0,0.5-0.4,0.9-0.9,0.9H27.3c-0.5,0-0.9-0.4-0.9-0.9V44.5c0-0.5,0.4-0.9,0.9-0.9h28.4
		c0.5,0,0.9,0.4,0.9,0.9V96.7z"/>
	<path class="st0" d="M31.2,80.9h20.1c2.2,0,4-1.8,4-4v-3.7c0-2.2-1.8-4-4-4H31.2c-2.2,0-4,1.8-4,4v3.7
		C27.1,79.1,28.9,80.9,31.2,80.9z M30.2,73.1c0-0.5,0.4-0.9,0.9-0.9h20.1c0.5,0,0.9,0.4,0.9,0.9v3.7c0,0.5-0.4,0.9-0.9,0.9H31.2
		c-0.5,0-0.9-0.4-0.9-0.9V73.1z"/>
	<path class="st0" d="M51.6,83.5H31.5c-2.2,0-4,1.8-4,4v3.7c0,2.2,1.8,4,4,4h20.1c2.2,0,4-1.8,4-4v-3.7
		C55.6,85.3,53.8,83.5,51.6,83.5z M52.5,91.3c0,0.5-0.4,0.9-0.9,0.9H31.5c-0.5,0-0.9-0.4-0.9-0.9v-3.7c0-0.5,0.4-0.9,0.9-0.9h20.1
		c0.5,0,0.9,0.4,0.9,0.9V91.3z"/>
</g>
</svg>
