<?xml version="1.0" encoding="utf-8"?>
<!-- Generator: Adobe Illustrator 22.1.0, SVG Export Plug-In . SVG Version: 6.00 Build 0)  -->
<svg version="1.1" id="Layer_1" xmlns="http://www.w3.org/2000/svg" xmlns:xlink="http://www.w3.org/1999/xlink" x="0px" y="0px"
	 viewBox="0 0 150 150" style="enable-background:new 0 0 150 150;" xml:space="preserve">
<style type="text/css">
	.st0{fill:#636A75;}
</style>
<g>
	<path class="st0" d="M61.6,100.1c0.1,0,0.1,0.2,0.1,0.4c0,2.5,0,4.9,0,7.4c0,0.2-0.1,0.4-0.2,0.5c-0.4,0.4-0.6,0.8-0.6,1.3
		c0,0.7,0,1.4-0.1,2.1c-0.1,3-0.2,6.1-0.3,9.1c0,1.3,1,2.2,2.1,2.2c1-0.1,1.8-1.1,1.8-2.2c-0.1-3.8-0.2-7.6-0.4-11.4
		c0-0.4-0.3-0.7-0.5-1.1c-0.1-0.2-0.2-0.3-0.2-0.5c0-2.4,0-4.9,0-7.3c0-0.1,0.1-0.3,0.2-0.4c1.2-0.6,1.7-1.7,2.1-2.9
		c0.3-1.2,0.3-2.4,0.2-3.7c-0.1-1.3-0.2-2.7-0.2-4c0-0.6-0.3-0.9-0.8-0.9c-0.5,0-0.8,0.4-0.8,0.9c0,0.1,0,0.3,0,0.4
		c0.1,1.4,0.2,2.7,0.2,4.1c0.1,1.1,0,2.2-0.4,3.2c-0.1,0.3-0.3,0.6-0.5,0.9c-0.1-0.1-0.1-0.3-0.1-0.4c0-2,0-4,0-5.9
		c0-1.1,0-2.2,0-3.4c0-0.5-0.3-0.8-0.7-0.8c-0.4,0-0.8,0.3-0.8,0.7c0,0.1,0,0.3,0,0.4c0,2.9,0,5.8,0,8.8c0,0.2,0,0.3,0,0.5
		c-0.1,0-0.1,0-0.2,0.1c-0.2-0.6-0.5-1.2-0.6-1.8c-0.3-1.3-0.1-2.6-0.1-3.9c0.1-1.1,0.1-2.1,0.2-3.2c0-0.4-0.2-0.7-0.7-0.8
		c-0.4,0-0.7,0.2-0.8,0.6c0,0.1,0,0.3-0.1,0.4c-0.1,1.1-0.2,2.3-0.2,3.4c0,1.1-0.1,2.2,0.1,3.3C59.6,97.9,60.1,99.3,61.6,100.1z
		 M62.6,110.2c0-0.1,0-0.1,0-0.3c0.1,3.7,0.2,7.3,0.3,10.8c0,0.1,0,0.3,0,0.4c-0.1,0.1-0.2,0.3-0.4,0.3c-0.1,0-0.2-0.2-0.3-0.3
		c-0.1-0.1-0.1-0.2-0.1-0.3C62.3,117.3,62.4,113.7,62.6,110.2z"/>
	<path class="st0" d="M31.5,101.1c0.3,0.1,0.3,0.3,0.3,0.5c0,2.3,0,4.5,0,6.8c0,0.2-0.2,0.4-0.2,0.5c-0.2,0.4-0.5,0.8-0.5,1.2
		c-0.1,1.8-0.1,3.6-0.2,5.4c0,0,0,0,0,0c-0.1,1.8-0.1,3.5-0.2,5.3c0,1.2,0.9,2.2,2,2.2c1.1,0,2-1,1.9-2.2c-0.1-3.6-0.3-7.2-0.4-10.8
		c0-0.5-0.2-0.8-0.6-1.1c-0.1-0.1-0.2-0.3-0.2-0.4c0-2.3,0-4.6,0-6.9c0-0.1,0.2-0.4,0.3-0.4c1.8-0.6,3-1.9,3.4-3.7
		c0.6-2.9-0.2-5.5-1.9-7.9c-1.5-2.1-3.6-2.1-5.2,0.1c-1.4,2-2.1,4.2-2,6.6C28,98.6,29.6,100.5,31.5,101.1z M32.9,121.1
		c-0.1,0.1-0.2,0.3-0.4,0.3c-0.1,0-0.3-0.2-0.3-0.3c-0.1-0.1,0-0.3,0-0.5c0.1-3,0.2-6,0.3-9c0-0.2,0-0.4,0.1-0.7c0,0,0,0,0.1,0
		c0.1,3.3,0.2,6.6,0.3,9.8C33,120.9,33,121,32.9,121.1z M29.5,95.3c0.2-1.5,0.6-2.9,1.3-4.3c0.2-0.4,0.5-0.8,0.9-1.1
		c0.6-0.5,1.1-0.5,1.7,0c0.3,0.2,0.5,0.5,0.7,0.8c1,1.5,1.5,3.2,1.6,4.7c0,1.4-0.3,2.4-1,3.2c-1.2,1.3-3,1.4-4.1,0
		C29.7,97.7,29.4,96.5,29.5,95.3z"/>
	<path class="st0" d="M47.4,117.4c6.5,0,11.8-5.3,11.8-11.8c0-6.5-5.3-11.8-11.8-11.8c-6.7,0-11.9,5.3-11.9,11.9
		C35.5,112.2,40.9,117.4,47.4,117.4z M47.4,95.1c5.8,0,10.4,4.7,10.4,10.5c0,5.7-4.6,10.4-10.4,10.5c-5.8,0-10.5-4.6-10.5-10.4
		C36.9,99.8,41.6,95.2,47.4,95.1z"/>
	<path class="st0" d="M47.3,113.7c4.5,0,8.1-3.5,8.2-8c0-4.4-3.6-8.1-7.9-8.1c-4.6,0-8.2,3.5-8.2,8.1
		C39.3,110,42.9,113.7,47.3,113.7z M47.4,98.9c3.7,0,6.7,3,6.7,6.7c0,3.7-3,6.7-6.7,6.7c-3.7,0-6.7-3-6.7-6.7
		C40.7,101.9,43.6,98.9,47.4,98.9z"/>
	<path class="st0" d="M103.8,55.2c-1.2,0-2.3,1-2.3,2.3c0,1.3,1,2.3,2.3,2.3c1.2,0,2.3-1,2.3-2.3C106.1,56.2,105.1,55.2,103.8,55.2z
		 M103.8,58.8c-0.7,0-1.3-0.6-1.3-1.3c0-0.7,0.6-1.3,1.3-1.3c0.7,0,1.3,0.6,1.3,1.3C105.1,58.2,104.5,58.8,103.8,58.8z"/>
	<path class="st0" d="M86.6,55.3c-0.9-0.2-1.7,0.1-2.3,0.8c-0.6,0.8-0.6,1.6-0.2,2.5c0.4,0.8,1.4,1.3,2.3,1.2c0.1,0,0.4-0.1,0.4-0.1
		c1-0.3,1.7-1.5,1.5-2.6C88.1,56.1,87.5,55.5,86.6,55.3z M86,58.8c-0.7,0-1.3-0.6-1.3-1.3c0-0.7,0.6-1.3,1.3-1.3
		c0.7,0,1.3,0.6,1.3,1.3C87.3,58.2,86.7,58.8,86,58.8z"/>
	<path class="st0" d="M91.8,48.7c0.1,0,0.1,0,0.2,0c1.9,0,3.7,0,5.6,0c0,0,0,0,0.1,0c0,0,0.1-0.1,0.1-0.1c0-0.3,0-0.6,0-0.8
		c-2,0-4,0-5.9,0C91.8,48.1,91.8,48.4,91.8,48.7z"/>
	<path class="st0" d="M107,53.7c-0.2,0-0.3-0.1-0.3-0.2c-1.1-2.4-2.1-4.9-3.2-7.3c-0.1-0.1-0.1-0.2-0.3-0.2c-5.5,0-11,0-16.5,0
		c-0.2,0-0.2,0.1-0.3,0.2c-1.1,2.5-2.1,4.9-3.2,7.4c-0.1,0.2-0.1,0.2-0.3,0.2c-0.2,0-0.5,0-0.7,0v0h-1.3c0,0,0,0-0.1,0h-1v1h0.8
		c0.1,0,0.2,0,0.3,0c0,0,0,0,0,0h1.1c0,0,0,0,0,0.1c0,0-0.1,0.1-0.1,0.1c-0.5,0.5-1,0.9-1.5,1.4c-0.1,0.1-0.1,0.2-0.1,0.3
		c0,1.6,0,3.1,0,4.7c0,0.2,0,0.2,0.2,0.2c1,0,1.9,0,2.9,0c0.1,0,0.2,0,0.3,0c0,1.3,0,2.6,0,4c1.6,0,3.1,0,4.6,0c0-1.3,0-2.6,0-4
		c0.1,0,0.2,0,0.3,0c2.2,0,4.4,0,6.6,0v0h2.2c0,0,0,0,0.1,0c0.2,0,0.3,0,0.5,0h1.1v0c0.7,0,1.4,0,2.1,0c0.1,0,0.2,0,0.3,0
		c0,1.3,0,2.6,0,4c1.6,0,3.1,0,4.6,0c0-1.3,0-2.6,0-4c1.1,0,2.2,0,3.3,0c0,0,0-0.1,0-0.1c0-1.6,0-3.3,0-4.9c0-0.1-0.1-0.2-0.1-0.2
		c-0.3-0.3-0.5-0.5-0.8-0.8c-0.3-0.3-0.6-0.5-0.9-0.8c0.8,0,1.6,0,2.3,0c0-0.3,0-0.6,0-0.9c-0.1,0-0.2,0-0.3,0
		C108.9,53.7,107.9,53.7,107,53.7z M84.2,53.5c0.6-1.3,1.1-2.5,1.7-3.8c0.4-0.9,0.8-1.7,1.1-2.6c0.1-0.1,0.1-0.2,0.3-0.2
		c5.1,0,10.2,0,15.3,0c0.1,0,0.2,0,0.2,0.1c0.9,2.2,1.9,4.3,2.8,6.5c0,0,0,0.1,0,0.1c-7.2,0-14.4,0-21.6,0
		C84.2,53.6,84.2,53.6,84.2,53.5z M87.4,64.4c-0.1,0-0.1,0-0.2,0c-0.8,0-1.6,0-2.3,0c-0.1,0-0.2,0-0.2-0.1c0-0.9,0-1.9,0-2.9
		c0.9,0,1.8,0,2.7,0C87.4,62.5,87.4,63.4,87.4,64.4z M105.2,64.5c-0.9,0-1.8,0-2.7,0c0-1,0-2,0-3c0.9,0,1.8,0,2.7,0
		C105.2,62.5,105.2,63.4,105.2,64.5z M108.4,56.7c0.1,0.1,0.2,0.2,0.2,0.4c0,1.1,0,2.2,0,3.2c0,0.1,0,0.1,0,0.2c-0.1,0-0.2,0-0.3,0
		c-3,0-6.1,0-9.1,0v0h-0.9c0,0,0,0,0,0c-0.1,0-0.2,0-0.2,0h-1.2c0,0-0.1,0-0.1,0c-0.9,0-1.9,0-2.8,0c-2.2,0-4.3,0-6.5,0
		c-1.9,0-3.8,0-5.7,0c-0.1,0-0.2,0-0.3,0c0-0.1,0-0.1,0-0.2c0-1.1,0-2.2,0-3.3c0-0.1,0-0.2,0.1-0.3c0.7-0.6,1.3-1.2,2-1.8
		c0.1-0.1,0.2-0.1,0.3-0.1c2.6,0,5.2,0,7.8,0c4,0,8.1,0,12.1,0c0.8,0,1.6,0,2.4,0c0.1,0,0.2,0,0.3,0.1
		C107.1,55.4,107.7,56,108.4,56.7z"/>
	<path class="st0" d="M111.6,33.7c0.1,0,0.2,0,0.3,0c4.7,0,9.5,0,14.2,0c0.2,0,0.3,0,0.3,0.3c0,5.4,0,10.8,0,16.2c0,0.1,0,0.2,0,0.3
		c-1,0-1.9,0-2.9,0c0-0.1,0-0.2,0-0.2c0-2.1,0-4.2,0-6.3c0-0.4,0-0.8-0.1-1.2c-0.1-0.7-0.3-1.3-0.8-1.8c-0.1-0.1-0.2-0.2-0.4-0.3
		c1.6-1.6,1.4-3.9,0.1-5.2c-1.3-1.3-3.4-1.4-4.9-0.2c-0.7,0.6-1.1,1.3-1.3,2.2c-0.2,1.3,0.2,2.4,1.2,3.4c-0.4,0.5-0.6,1-0.8,1.5
		c-0.3,1-0.7,2-1.1,2.9c-0.1,0.2-0.1,0.2-0.3,0.2c-1.3,0.2-2.7,0.3-4,0.5c-0.7,0.1-1.2,0.5-1.4,1.2c-0.2,0.6-0.1,1.2,0.4,1.7
		c0.1,0.1,0.1,0.2,0.3,0.3c0,0,0.3,0.2,0.4,0.2c0.3,0,0.5,0.1,0.8,0.1c1.4,0,2.8-0.1,4.2-0.1c0.1,0,0.2,0,0.3,0c0,0.4,0,0.8,0,1.2
		c-1.7,0-3.3,0-5,0c0,5,0,9.9,0,14.9c5.4,0,10.8,0,16.2,0c0-10.9,0-21.7,0-32.6c-5.2,0-10.5,0-15.7,0
		C111.6,33.1,111.6,33.4,111.6,33.7z M117.2,38c0-1.5,1.2-2.7,2.6-2.7c1.3,0,2.6,1,2.7,2.5c0.1,1.6-1.2,2.8-2.7,2.8
		C118.4,40.6,117.2,39.4,117.2,38z M117.2,45c0-1,0.1-2,0.6-3c0-0.1,0.1-0.2,0.2-0.3c0.1-0.2,0.2-0.4,0.3-0.4
		c0.1-0.1,0.3,0.1,0.5,0.1c0.9,0.3,1.7,0.2,2.6-0.2c0.1-0.1,0.2,0,0.3,0c0.3,0.2,0.5,0.5,0.6,0.8c0.2,0.5,0.3,1,0.3,1.5
		c0,1.6,0,3.1,0,4.7c0,0.6,0,1.2,0,1.9c0,0.1,0,0.1,0,0.2c-0.5,0-1,0-1.5,0c0-2.2,0-4.4,0-6.7c-0.3,0-0.6,0-1,0c0,2.2,0,4.4,0,6.6
		c-1,0-2,0-3,0c0-0.1,0-0.1,0-0.2C117.1,48.5,117.1,46.7,117.2,45z M112,48c0,0.4,0,0.4-0.4,0.4c-0.5,0-0.8-0.3-0.8-0.7
		c0-0.4,0.2-0.8,0.7-0.9c0.2,0,0.4-0.1,0.6-0.1C112,47.2,112,47.6,112,48z M113,48.4c0-0.1,0-0.3,0-0.4c0-0.4,0-0.8,0-1.2
		c0-0.1,0.1-0.2,0.1-0.2c1-0.1,2-0.3,3-0.4c0,0,0.1,0,0.1,0c0,0,0,0.1,0,0.1c0,0.6,0,1.2,0,1.9C115.1,48.3,114.1,48.4,113,48.4z
		 M126.4,64.2c0,0.3,0,0.3-0.3,0.3c-2.3,0-4.6,0-6.9,0c-2.3,0-4.6,0-6.9,0c-0.3,0-0.3,0-0.3-0.3c0-4.2,0-8.3,0-12.5
		c0-0.2,0.1-0.3,0.3-0.3c4.6,0,9.2,0,13.9,0c0.2,0,0.2,0.1,0.2,0.2C126.4,55.8,126.4,60,126.4,64.2z"/>
	<path class="st0" d="M119.3,53.4c-3.4,0-6.1,2.7-6.1,6.1v1.1h12.2v-1.1C125.3,56.1,122.6,53.4,119.3,53.4z M124.5,59.7H114v-0.2
		c0-2.9,2.4-5.2,5.2-5.2c2.9,0,5.2,2.4,5.2,5.2V59.7z"/>
	<path class="st0" d="M33.3,69.2c8.3,0,16.6,0,24.8,0c0.7-0.5,0.9-1.1,0.9-2c-0.3-5.6-0.6-11.3-0.9-16.9c-0.2-3-0.3-6-0.5-9
		c-0.1-1.2-0.5-1.6-1.7-1.6c-1.2,0-2.4,0-3.6,0c-0.6,0-0.8-0.1-0.9-0.7c-0.3-1.8-0.7-3.7-0.8-5.5c-0.3-2.7-1.6-4.4-4.2-5
		c-0.4,0-0.8,0-1.3,0c-2.3,0.5-3.8,1.9-4.1,4.3c-0.3,2-0.7,4-0.9,6.1c-0.1,0.7-0.3,0.9-1,0.9c-1.2-0.1-2.4,0-3.5,0
		c-1.2,0-1.7,0.4-1.7,1.6c-0.2,3-0.3,6-0.5,9c-0.3,5.6-0.6,11.3-0.9,16.9C32.4,68,32.6,68.7,33.3,69.2z M42.5,32.1
		c0.3-1.4,1.9-2.4,3.4-2.4c1.6,0,3,1.1,3.3,2.6c0.5,2.4,0.8,4.8,1.2,7.3c-3.1,0-6,0-9.1,0C41.6,37,42,34.5,42.5,32.1z M35.1,41
		c1.6,0,3,0,4.6,0c-0.1,0.4-0.2,0.8-0.1,1.2c0,0.4-0.1,0.9,0.5,0.9c0.5,0,0.6-0.3,0.7-0.7c0.2-0.4,0.2-0.9,0.3-1.4
		c3.2,0,6.3,0,9.5,0c0.1,0.5,0.1,1,0.3,1.4c0.1,0.3,0.2,0.6,0.7,0.6c0.4,0,0.5-0.5,0.5-0.8c0.1-0.4-0.1-0.8-0.2-1.2c1.5,0,3,0,4.6,0
		c0.4,8.9,0.9,17.8,1.3,26.8c-8.1,0-16,0-24,0C34.2,58.8,34.6,49.9,35.1,41z"/>
	<path class="st0" d="M45.1,45.8c-0.2,0-0.6,0.6-0.6,0.9c-0.1,1.1,0,2.2,0,3.2c-0.7,0.2-0.9,0-0.9-0.6c0-0.8,0-1.6,0-2.4
		c0-0.5,0.1-1.1-0.6-1.1c-0.7,0-0.7,0.6-0.7,1.1c0,1,0,2,0,3c-0.6,0.2-0.8,0-0.8-0.5c0-0.9,0.1-1.8,0-2.7c0-0.3-0.4-0.8-0.6-0.9
		c-0.5-0.1-0.6,0.4-0.6,0.9c0,1.4,0,2.8,0,4.3c0,1.5,0.5,2.1,2.1,2.5c0,0.4,0,0.7,0,1c0,3.2,0,6.4,0,9.6c0,0.3,0,0.6,0.1,0.8
		c0.1,0.2,0.4,0.4,0.7,0.4c0.2,0,0.4-0.3,0.5-0.5c0.1-0.2,0-0.5,0-0.8c0-3.3,0-6.5,0-9.8c0-0.5,0-0.8,0.7-0.9c0.9-0.2,1.5-1,1.5-1.9
		c0-1.5,0-3.1,0-4.6C45.7,46.2,45.7,45.7,45.1,45.8z M43.3,52c-0.6-0.1-1.4,0.3-1.8-0.7c1,0,2,0,2.9,0C44.3,52,43.8,52.1,43.3,52z"
		/>
	<path class="st0" d="M50.1,47.2c-0.1-1.1-1-1.7-1.9-1.3c-0.8,0.3-0.9,1-0.9,1.7c0,5.5,0,11,0,16.5c0,0.2,0,0.5,0.1,0.7
		c0.1,0.2,0.4,0.5,0.5,0.5c0.2,0,0.5-0.3,0.6-0.5c0.1-0.3,0.1-0.6,0.1-0.9c0-1.1,0-2.3,0-3.5c2.2,0,2.8-1.2,2.6-2.9
		C50.8,54.1,50.4,50.6,50.1,47.2z M48.6,59c0-3.9,0-7.8,0-11.7c0,0,0.1,0,0.1,0c0.4,3.5,0.8,7,1.1,10.5C50,58.9,49.8,59.1,48.6,59z"
		/>
	<path class="st0" d="M101.6,107.3c0-0.5,0.2-1,0.3-1.5c-3.7,0-7.4,0-11.2,0c0,0.3,0,0.6,0.1,0.8c0.4,0.6,0.8,1.2,1.3,1.8
		c2.3-0.8,4.5-0.7,6.6,0.7c2,1.3,3.1,3.3,3.3,5.7c7.6,0,15.1,0,22.7,0c0-1-0.3-1.8-0.9-2.6c-1.1-1.5-2.6-2.2-4.5-2
		c0-0.2,0-0.3,0-0.4c-1-2.6-2-5.3-3-7.9c-0.4-1.1-0.9-2.2-1.3-3.4c0.5-0.1,0.9-0.2,1.3-0.6c-0.6,0.1-0.9,0-1.1-0.6
		c0-0.1-0.1-0.2-0.1-0.3c-0.4-1.2-0.4-2.3,0-3.5c0.1-0.3,0.2-0.5,0.4-0.7c0.2-0.2,0.5-0.3,0.8-0.2c-0.1-0.1-0.2-0.2-0.3-0.2
		c-1-0.5-2.1-0.5-3.1,0.1c-0.4,0.2-0.8,0.6-1.1,0.9c-0.2,0.2-0.3,0.4-0.4,0.7c0.9,0.3,1.5,0.9,1.5,1.9c0,0.9-0.5,1.4-1.3,1.7
		c0,0.1,0.1,0.1,0.1,0.2c1.5,2.7,2.8,5.6,3.6,8.6c0.5,1.7,0.8,3.3,0.7,5.1c0,0.4-0.1,0.8-0.3,1.1c-0.1,0.2-0.2,0.4-0.3,0.6
		c-0.1,0.2-0.2,0.3-0.4,0.3c-3.4,0-6.8,0-10.2,0c-0.2,0-0.3-0.1-0.5-0.2c-0.7-0.8-1.4-1.7-1.9-2.8
		C101.7,109.4,101.5,108.4,101.6,107.3z"/>
	<path class="st0" d="M83.5,102.9c1.7,0,3.3,0,5,0c1.6,0,3.2,0,4.8,0c0.6,0,0.7-0.1,0.9-0.6c0.1-0.2,0.1-0.4,0.1-0.7
		c0-2.7,0-5.4,0-8.1c0-1.1-0.7-1.8-1.8-1.8c-2.7,0-5.4,0-8,0c-1,0-1.8,0.7-1.8,1.8c0,2.7,0,5.4,0,8.1c0,0.4,0.1,0.8,0.4,1.1
		C83.1,102.9,83.3,102.9,83.5,102.9z"/>
	<path class="st0" d="M91.9,108.8c-1.2-1.7-2.4-3.3-3.7-5c0.1,0,0.2,0,0.3,0c1.7,0,3.4,0,5.1,0c0.1,0,0.2,0,0.2,0
		c0.1-0.1,0.2-0.1,0.2-0.2c0-0.1-0.1-0.2-0.2-0.2c-0.1,0-0.2,0-0.2,0c-3.5,0-7,0-10.5,0c-0.1,0-0.2,0-0.2,0
		c-0.1,0.1-0.2,0.2-0.2,0.2c0,0.1,0.1,0.2,0.2,0.2c0,0,0.1,0,0.2,0c1.4,0,2.8,0,4.2,0c0.4,0,0.6,0.1,0.8,0.4c1,1.4,2,2.7,3,4.1
		c0.2,0.2,0.3,0.4,0.5,0.7c-1.1,0.6-2,1.4-2.7,2.4c-0.7,1-1,2.2-1.1,3.4c4.5,0,9.1,0,13.6,0C101.5,110.5,96.9,106.7,91.9,108.8z"/>
	<path class="st0" d="M94.9,118.8c-0.8,0-1.5-0.2-2.2-0.6c-1-0.7-1.5-1.8-1.5-3c-0.5,0-1,0-1.6,0c0,1.9,0.8,3.3,2.3,4.4
		c1.7,1.2,4,1.2,5.7,0c1.5-1,2.2-2.5,2.3-4.3c-0.6,0-1.1,0-1.6,0C97.9,117.5,96.8,118.7,94.9,118.8z"/>
	<path class="st0" d="M122.8,115.1c0.5,2.4-1.4,3.9-3,3.9c-0.8,0-1.6-0.3-2.2-0.9c-0.9-0.8-1.1-1.9-0.9-3c-0.5,0-0.9,0-1.3,0
		c-0.4,1.7,0.4,3.5,2,4.5c1.5,1,3.6,0.9,5.1-0.2c1.4-1,2.1-2.9,1.7-4.4C123.6,115.1,123.2,115.1,122.8,115.1z"/>
	<path class="st0" d="M96.4,118c1-0.6,1.5-1.6,1.6-2.8c-2.2,0-4.3,0-6.4,0c0,1.2,0.5,2.1,1.4,2.8C94.1,118.6,95.2,118.6,96.4,118z"
		/>
	<path class="st0" d="M90.8,104.1c-0.5,0.1-0.7,0.7-0.4,1.1c0.1,0.1,0.4,0.3,0.6,0.3c1.8,0,3.7,0,5.5,0c0,0,0,0,0,0c1,0,2,0,3.1,0
		c0.9,0,1.8,0,2.6,0c0.4,0,0.6-0.3,0.7-0.6c0-0.3-0.2-0.7-0.6-0.7c-0.1,0-0.2,0-0.3,0c-3.6,0-7.3,0-10.9,0
		C91,104.1,90.9,104.1,90.8,104.1z"/>
	<path class="st0" d="M121.1,118.3c1.1-0.7,1.6-2,1.2-3.2c-0.1,0-0.1,0-0.1,0c-1.6,0-3.3,0-4.9,0c-0.2,0-0.3,0.1-0.3,0.3
		c-0.1,0.9,0.1,1.7,0.7,2.4C118.6,118.7,120,118.9,121.1,118.3z"/>
	<path class="st0" d="M91.1,108.8c-0.4-0.6-0.8-1.1-1.3-1.7c-2.2,2.1-2.6,4.9-2.7,7.7c0.2,0,0.3,0,0.4,0
		C87.8,112.1,88.9,110.2,91.1,108.8z"/>
	<path class="st0" d="M111.6,95.5c0,0.3-0.1,0.5-0.3,0.6c-0.5,0.3-1,0.5-1.4,0.8c0.4,0.5,1.2,0.6,1.8,0.3c0.6-0.4,0.9-1.2,0.6-1.9
		c-0.3-0.7-1-1.1-1.7-0.9c-0.7,0.2-1.2,0.8-1.1,1.4c0.5-0.2,0.9-0.5,1.4-0.7C111.2,95,111.6,95.1,111.6,95.5z"/>
	<path class="st0" d="M116.1,93.3c0-0.1-0.1-0.3-0.3-0.4c-0.1,0-0.3,0.1-0.4,0.2c-0.1,0.1-0.2,0.3-0.2,0.5c-0.1,0.4-0.2,0.9-0.2,1.3
		c0,0.8,0,1.5,0.4,2.3c0.1,0.2,0.2,0.4,0.5,0.3c0.2-0.1,0.3-0.3,0.3-0.5c0-0.6,0-1.2,0-1.8C116.1,94.6,116.1,94,116.1,93.3z"/>
	<path class="st0" d="M106.4,98.6c0.2-0.1,0.2-0.1,0.3-0.1c0.7-0.3,1.4-0.7,2.1-1c0.3-0.1,0.4-0.4,0.3-0.6c-0.1-0.3-0.4-0.3-0.7-0.2
		c-0.4,0.2-0.9,0.4-1.3,0.6c-0.3,0.1-0.6,0.3-0.9,0.4c-0.2,0.1-0.3,0.3-0.2,0.5C106.1,98.4,106.3,98.5,106.4,98.6z"/>
	<path class="st0" d="M111.1,95.8c0.1,0,0.1-0.2,0.1-0.3c-0.1,0-0.2-0.1-0.3-0.1c-0.6,0.3-1.2,0.6-1.8,0.9c0.1,0.1,0.2,0.2,0.2,0.3
		C110,96.4,110.6,96.1,111.1,95.8z"/>
	<path class="st0" d="M75,0C33.6,0,0,33.6,0,75c0,40.7,32.6,73.9,73.1,75v0h3.9v0c40.5-1,73.1-34.3,73.1-75C150,33.6,116.4,0,75,0z
		 M73.1,145.2c-36.4-1-65.9-29.8-68.1-65.8h68.1V145.2z M73.1,75.5H4.8c0-0.2,0-0.3,0-0.5c0-38.1,30.4-69.1,68.2-70.2V75.5z
		 M76.9,145.2V79.3H145C142.8,115.4,113.3,144.2,76.9,145.2z M76.9,75.5V4.8c37.8,1,68.2,32.1,68.2,70.2c0,0.2,0,0.3,0,0.5H76.9z"/>
</g>
</svg>
