<?xml version="1.0" encoding="utf-8"?>
<!-- Generator: Adobe Illustrator 22.1.0, SVG Export Plug-In . SVG Version: 6.00 Build 0)  -->
<svg version="1.1" id="Layer_1" xmlns="http://www.w3.org/2000/svg" xmlns:xlink="http://www.w3.org/1999/xlink" x="0px" y="0px"
	 viewBox="0 0 150 150" style="enable-background:new 0 0 150 150;" xml:space="preserve">
<style type="text/css">
	.st0{fill:#636A75;}
</style>
<g>
	<path class="st0" d="M111.2,89.2c0,0,0.2-0.3,0.2-0.3c0,0,0,0,0,0l16.1-6.2c1.1-0.4,1.7-1.7,1.2-2.8L117,49.6c0,0,0,0,0,0
		c0,0,0,0,0,0l-6.2-16.1c-0.4-1.1-1.7-1.7-2.8-1.2l-16.1,6.2c0,0,0,0,0,0c0,0,0,0,0,0l-28.6,11V38.6c0-0.9-0.7-1.6-1.6-1.6h-6.5
		c-0.9,0-1.6,0.7-1.6,1.6v13c0,0.6,0.3,1.1,0.7,1.3l-14.9,5.7c0,0,0,0,0,0c0,0,0,0,0,0l-16.1,6.2c-1.1,0.4-1.7,1.7-1.2,2.8l16,41.7
		c0,0,2.8,6.9,2.8,6.9c0,0,6.6-2.4,6.6-2.4l39.3-15.1v9.6c0,0.9,0.7,1.6,1.6,1.6h6.5c0.9,0,1.6-0.7,1.6-1.6v-13c0-0.1,0-0.2,0-0.3
		L111.2,89.2z M56.8,40.2H60v9.7h-3.2V40.2z M107.5,37l4.6,12c-3.2,0.7-6.5,0.4-9.5-0.9c-3-1.3-5.5-3.6-7.1-6.4L107.5,37z
		 M43.2,110.6l-4.6-12c6.5-1.5,13.3,1.5,16.6,7.4L43.2,110.6z M56.7,100.7l2.7-1.1c1.1-0.4,1.7-1.7,1.2-2.8
		c-0.4-1.1-1.7-1.7-2.8-1.2l-4.8,1.8c-4.6-3.2-10.5-4.4-16.1-2.9L26.8,68.1l12-4.6c0.7,3,0.4,6.1-0.7,9c-0.4,1.1,0.1,2.3,1.1,2.8
		c0,0,0,0,0.1,0c1.1,0.4,2.4-0.1,2.8-1.2c1.6-3.9,1.8-8.2,0.8-12.2l48.7-18.7c0.7,1.3,1.5,2.6,2.5,3.7l-2.7,1.1
		c-1.1,0.4-1.7,1.7-1.2,2.8c0.2,0.6,0.6,1,1.1,1.2c0.5,0.2,1.1,0.3,1.7,0l4.8-1.8c1,0.7,2.1,1.4,3.3,1.9c4.1,1.8,8.6,2.2,12.8,1
		l10.2,26.5l-12,4.6c-0.7-3-0.4-6.1,0.7-9c0.4-1.1-0.1-2.4-1.2-2.8c-1.1-0.4-2.4,0.1-2.8,1.2c-1.6,3.9-1.8,8.2-0.8,12.2l-48.7,18.7
		C58.5,103.1,57.7,101.8,56.7,100.7z M93.2,96.9v9.7H90v-9.2l1.4-0.5H93.2z"/>
	<path class="st0" d="M35.1,77.2c-0.2,0.2-0.4,0.5-0.7,0.7c-0.9,0.8-0.9,2.2-0.1,3.1c0.2,0.2,0.4,0.4,0.7,0.5
		c0.8,0.3,1.7,0.2,2.4-0.4c0.3-0.3,0.6-0.6,0.9-0.9c0.8-0.9,0.8-2.2-0.1-3.1C37.3,76.2,35.9,76.3,35.1,77.2z"/>
	<path class="st0" d="M79.6,59c-3.3-1.5-6.9-1.6-10.1-0.4c-3.6,1.4-6.3,4.3-7.7,8.2c-1.3,3.8-1.2,8.1,0.3,12.1c1.7,4.4,5,8,9,9.7
		c3.3,1.5,6.9,1.6,10.1,0.4c3.6-1.4,6.3-4.3,7.7-8.2c1.3-3.8,1.2-8.1-0.3-12.1C86.9,64.3,83.6,60.7,79.6,59z M84.8,79.4
		C83.9,82.1,82,84,79.7,85c-2.1,0.8-4.5,0.7-6.8-0.3c-3-1.3-5.4-4-6.7-7.3c-1.2-3-1.3-6.3-0.3-9.1c0.9-2.7,2.8-4.7,5.2-5.6
		c2.1-0.8,4.5-0.7,6.8,0.3c3,1.3,5.4,4,6.7,7.3C85.7,73.3,85.8,76.5,84.8,79.4z"/>
	<path class="st0" d="M83.9,54.7c0.5,0.2,1.1,0.3,1.7,0l1.2-0.5c1.1-0.4,1.7-1.7,1.2-2.8c-0.4-1.1-1.7-1.7-2.8-1.2L84,50.7
		c-1.1,0.4-1.7,1.7-1.2,2.8C83,54.1,83.4,54.5,83.9,54.7z"/>
	<path class="st0" d="M65.2,92.8L64,93.3c-1.1,0.4-1.7,1.7-1.2,2.8c0.2,0.6,0.6,1,1.1,1.2c0.5,0.2,1.1,0.3,1.7,0l1.2-0.5
		c1.1-0.4,1.7-1.7,1.2-2.8C67.5,93,66.3,92.4,65.2,92.8z"/>
	<path class="st0" d="M113.2,70.9c0.8,0.4,1.8,0.2,2.5-0.5c0.2-0.2,0.4-0.5,0.7-0.7c0.9-0.8,0.9-2.2,0.1-3.1
		c-0.8-0.9-2.2-0.9-3.1-0.1c-0.3,0.3-0.6,0.6-0.9,0.9c-0.8,0.9-0.8,2.2,0.1,3.1C112.7,70.7,112.9,70.8,113.2,70.9z"/>
	<ellipse transform="matrix(0.2068 -0.9784 0.9784 0.2068 -39.7125 116.5676)" class="st0" cx="52" cy="82.8" rx="4.3" ry="4.3"/>
	<path class="st0" d="M100.4,60.9c-2.2-1-4.7,0-5.7,2.2c-1,2.2,0,4.7,2.2,5.7c2.2,1,4.7,0,5.7-2.2C103.6,64.4,102.6,61.8,100.4,60.9
		z"/>
	<path class="st0" d="M80.6,74.9c-1.9-4.1-7.2-1.1-8.3-3.6c-0.5-1.1-0.1-1.9,1-2.4c1-0.4,1.8-0.3,2.9,0l0.6-1.9
		c-1.1-0.5-2.3-0.7-3.7-0.3l-0.9-2l-1.6,0.7l0.9,2.1c-1.7,1.2-2.3,3.1-1.4,5c1.7,3.8,7.1,0.9,8.4,3.6c0.5,1.1,0.1,2.1-1.2,2.7
		c-1.1,0.5-2.3,0.4-3.6,0.1l-0.3,2.1c1.3,0.4,2.9,0.4,4.2,0l0.9,2l1.6-0.7l-1-2.1C81,78.8,81.5,76.8,80.6,74.9z"/>
	<path class="st0" d="M149.4,102l-19.5-14.6c-0.5-0.4-1.2-0.4-1.7-0.2c-0.5,0.3-0.9,0.8-0.9,1.5v6.5h-26c-0.9,0-1.6,0.7-1.6,1.6v13
		c0,0.9,0.7,1.6,1.6,1.6h26v8.1c0,0.6,0.4,1.2,0.9,1.5c0.2,0.1,0.5,0.2,0.7,0.2c0.4,0,0.7-0.1,1-0.4l19.5-16.2
		c0.4-0.3,0.6-0.8,0.6-1.3S149.7,102.3,149.4,102z M130.5,116.1v-6.3c0-0.9-0.7-1.6-1.6-1.6h-26v-9.7h26c0.9,0,1.6-0.7,1.6-1.6V92
		l15.2,11.4L130.5,116.1z"/>
	<path class="st0" d="M22.7,61.3v-8.1h26c0.9,0,1.6-0.7,1.6-1.6v-13c0-0.9-0.7-1.6-1.6-1.6h-26v-6.5c0-0.6-0.3-1.2-0.9-1.5
		c-0.5-0.3-1.2-0.2-1.7,0.2L0.6,43.8C0.3,44.1,0,44.5,0,45s0.2,1,0.6,1.3l19.5,16.2c0.3,0.2,0.7,0.4,1,0.4c0.2,0,0.5-0.1,0.7-0.2
		C22.3,62.5,22.7,61.9,22.7,61.3z M21.1,49.9c-0.9,0-1.6,0.7-1.6,1.6v6.3L4.2,45.1l15.2-11.4v4.9c0,0.9,0.7,1.6,1.6,1.6h26v9.7H21.1
		z"/>
</g>
</svg>
