<?xml version="1.0" encoding="utf-8"?>
<!-- Generator: Adobe Illustrator 22.1.0, SVG Export Plug-In . SVG Version: 6.00 Build 0)  -->
<svg version="1.1" id="Layer_1" xmlns="http://www.w3.org/2000/svg" xmlns:xlink="http://www.w3.org/1999/xlink" x="0px" y="0px"
	 viewBox="0 0 150 150" style="enable-background:new 0 0 150 150;" xml:space="preserve">
<style type="text/css">
	.st0{fill:#FFFFFF;}
</style>
<g>
	<path class="st0" d="M73.8,34.9c-26,0-48.1,17.4-55.2,41.1c7.9-13.9,22.8-23.3,40.1-23.3c25.4,0,46,20.6,46,46s-20.6,46-46,46
		c-4.3,0-8.5-0.6-12.4-1.7c8.2,4.5,17.6,7,27.5,7c31.8,0,57.6-25.8,57.6-57.6S105.6,34.9,73.8,34.9z"/>
	<g>
		<path class="st0" d="M58.7,52.6c3.2,0,6.3,0.3,9.4,0.9C62.9,48,56.7,43.4,49.7,40.2C35,47.1,23.5,60,18.8,75.8
			C26.7,62,41.6,52.6,58.7,52.6z"/>
		<path class="st0" d="M46.4,143.1c1.1,0.6,2.2,1.2,3.3,1.7c0.5-0.2,0.9-0.4,1.4-0.6C49.5,143.8,48,143.5,46.4,143.1z"/>
	</g>
	<g>
		<path class="st0" d="M42,0.2c0,0,26-3,32.7,15.7C80,30.5,61.1,32.1,55,26.8S40.8,10.1,42,0.2z"/>
		<path class="st0" d="M107.8,10.3c0,0-7.1,18.8-19.9,19.3c-10,0.3-10.8-10.9-4.7-15.5C89.7,9.3,101.9,7.6,107.8,10.3z"/>
	</g>
	<g>
		<path class="st0" d="M40.4,127.7h34.9c0.8,0,1.4,0.7,1.4,1.4c0,0.8-0.7,1.4-1.4,1.4H40.4c-0.8,0-1.4-0.7-1.4-1.4
			C38.9,128.4,39.6,127.7,40.4,127.7z"/>
		<path class="st0" d="M50.8,121.9h14.4c0.5,0,0.9,0.4,0.9,0.9l5.8,4.7c0,0.5-0.4,0.9-0.9,0.9h-26c-0.5,0-0.9-0.4-0.9-0.9l5.8-4.7
			C49.8,122.3,50.2,121.9,50.8,121.9z"/>
		<path class="st0" d="M86.9,84.6c-0.3-0.7-0.7-1.4-1.2-2c-0.8-1.1-2-1.8-3.3-2.1c-1.2-0.2-2.4-0.2-3.6-0.2c-0.9,0-1.1,0.3-1.1,1.2
			c0,2.3,0,12.4,0,14.8c0,2.3,0,4.6,0,6.9c0,0.9,0.3,1.2,1.2,1.2c0.7,0,1.4,0.1,2,0c0.9-0.1,1.8-0.1,2.7-0.6c1.1-0.6,2-1.4,2.6-2.4
			c0.3-0.6,0.6-1.4,0.6-2C87,97.3,87,85,86.9,84.6z M82.2,103.2L82.2,103.2V81.5l0,0c0.7,0,1.4,0.6,1.4,1.4v18.9
			C83.6,102.5,83,103.2,82.2,103.2z"/>
		<g>
			<g>
				<path class="st0" d="M67.8,111.4c-0.5,0-0.6-0.2-0.6-0.7c0-4.4,0-8.8,0-13.2c0-0.7-0.2-0.9-0.9-0.9c-0.7,0-1.4,0-2.2,0
					c-0.8,0-0.9,0.1-0.9,0.9c0,4.3,0,8.7,0,13.1c0,0.5-0.1,0.7-0.7,0.7c-0.5,0-0.8,0-0.8-0.7c0.1-2.1,0-4.1,0-6.2
					c0-0.7-0.2-0.9-0.9-0.9s-1.4,0-2.1,0c-0.7,0-0.9,0.1-0.9,0.9c0,2.1,0,4.1,0,6.2c0,0.2-0.1,0.5-0.2,0.5c-0.7,0.3-1.3-0.1-1.3-0.8
					c0-2.8,0-5.5,0-8.3c0-0.9-0.1-1-0.9-1c-0.7,0-1.4,0-2,0c-0.8,0-0.9,0.1-0.9,0.9c0,2.7,0,5.5,0,8.2c0,0.9,0,0.9-0.9,0.9
					c-0.5,0-0.6-0.2-0.6-0.6c0-1.1,0-2.2,0-3.3c0-0.6-0.2-0.8-0.7-0.8c-0.7,0-1.5,0-2.3,0c-0.6,0-0.7,0.2-0.8,0.8c0,0.9,0,1.8,0,2.6
					c0,0.3,0.1,0.8-0.1,1c-0.1,0.2-0.6,0.1-0.9,0.3c-0.2,0.1-0.3,0.3-0.5,0.4c0.1,0.1,0.2,0.4,0.4,0.5c0.2,0.1,0.4,0.1,0.7,0.1
					c3.5,0,7,0,10.4,0c0.5,0,0.9,0,1.4,0c3.1,0,6.2,0,9.2,0c0.4,0,0.7-0.1,0.8-0.5C68.5,111.6,68.1,111.4,67.8,111.4z M49.3,101.5
					c0.6-0.3,0.9-0.9,0.8-1.8c0-0.2,0.1-0.5,0.3-0.6c0.9-0.9,1.9-1.7,2.8-2.5c0.1-0.1,0.4-0.2,0.6-0.1c0.6,0.2,1.1,0.1,1.6-0.3
					c0.2-0.1,0.5-0.2,0.7-0.1c0.7,0.2,1.4,0.5,2,0.8c0.2,0.1,0.5,0.3,0.5,0.5c0.3,1,1,1.6,1.9,1.4c0.9-0.2,1.4-1,1.1-2.1
					c-0.1-0.2,0-0.5,0.1-0.6c1.1-1.4,2.2-2.7,3.4-4.1c0.1-0.1,0.4-0.3,0.6-0.2c0.6,0.1,1.2-0.1,1.5-0.5c0.4-0.5,0.4-1.1,0.2-1.6
					c-0.3-0.6-0.7-1-1.4-0.9c-1.2,0-1.8,0.9-1.6,2c0.1,0.2,0.1,0.5-0.1,0.7c-1.1,1.4-2.2,2.7-3.3,4c-0.1,0.1-0.4,0.3-0.6,0.3
					c-0.5-0.1-0.9,0.1-1.4,0.3c-0.1,0.1-0.3,0.1-0.5,0.1c-0.7-0.3-1.4-0.6-2-0.8c-0.3-0.1-0.5-0.3-0.6-0.7c-0.1-0.9-1-1.4-1.9-1.2
					c-0.8,0.2-1.3,1-1.2,1.9c0,0.2-0.1,0.5-0.3,0.7c-0.9,0.8-1.8,1.6-2.6,2.4c-0.3,0.3-0.5,0.3-0.9,0.2c-0.7-0.3-1.4,0.1-1.8,0.7
					c-0.3,0.5-0.2,1.4,0.2,1.8C47.8,101.7,48.7,101.8,49.3,101.5z"/>
			</g>
		</g>
		<path class="st0" d="M78.8,81.6c0-5.4-4.3-9.7-9.7-9.7H47.4c-5.4,0-9.7,4.3-9.7,9.7v31.9c0,5.4,4.3,9.7,9.7,9.7h21.6
			c5.4,0,9.7-4.3,9.7-9.7L78.8,81.6L78.8,81.6z M74.4,111c0,3.5-2.2,6.3-6.4,6.3H50.2c-4.1,0-8-2.8-8-6.3V81.9c0-3.5,3.9-5.7,8-5.7
			h17.9c4.1,0,6.4,2.2,6.4,5.7C74.4,81.9,74.4,111,74.4,111z"/>
	</g>
</g>
</svg>
