<?xml version="1.0" encoding="utf-8"?>
<!-- Generator: Adobe Illustrator 22.1.0, SVG Export Plug-In . SVG Version: 6.00 Build 0)  -->
<svg version="1.1" id="Layer_1" xmlns="http://www.w3.org/2000/svg" xmlns:xlink="http://www.w3.org/1999/xlink" x="0px" y="0px"
	 viewBox="0 0 150 150" style="enable-background:new 0 0 150 150;" xml:space="preserve">
<style type="text/css">
	.st0{fill:#636A75;}
</style>
<g>
	<path class="st0" d="M120,67.5h-17.5v-20c0-1.4-1.1-2.5-2.5-2.5H35c-1.4,0-2.5,1.1-2.5,2.5v20H15c-4.1,0-7.5,3.4-7.5,7.5v40
		c0,4.1,3.4,7.5,7.5,7.5h17.5V150H86l16.5-16.5v-11H120c4.1,0,7.5-3.4,7.5-7.5V75C127.5,70.9,124.1,67.5,120,67.5z M37.5,50h60v17.5
		h-60V50z M87.5,141.5V135H94L87.5,141.5z M97.5,130h-15v15h-45v-32.5h60V130z M122.5,115c0,1.4-1.1,2.5-2.5,2.5h-17.5v-5h10v-5h-90
		v5h10v5H15c-1.4,0-2.5-1.1-2.5-2.5V75c0-1.4,1.1-2.5,2.5-2.5h105c1.4,0,2.5,1.1,2.5,2.5V115z"/>
	<circle class="st0" cx="115" cy="80" r="2.5"/>
	<rect x="52.5" y="120" class="st0" width="20" height="5"/>
	<rect x="42.5" y="120" class="st0" width="5" height="5"/>
	<rect x="62.5" y="130" class="st0" width="15" height="5"/>
	<rect x="77.5" y="120" class="st0" width="15" height="5"/>
	<rect x="42.5" y="130" class="st0" width="15" height="5"/>
	<path class="st0" d="M110,0c-1.4,0-2.5,1.1-2.5,2.5S108.6,5,110,5c15.2,0,27.5,12.3,27.5,27.5c0,1.4,1.1,2.5,2.5,2.5
		c1.4,0,2.5-1.1,2.5-2.5C142.5,14.6,127.9,0,110,0z"/>
	<path class="st0" d="M110,12.5c-1.4,0-2.5,1.1-2.5,2.5c0,1.4,1.1,2.5,2.5,2.5c8.3,0,15,6.7,15,15c0,1.4,1.1,2.5,2.5,2.5
		c1.4,0,2.5-1.1,2.5-2.5C130,21.5,121,12.5,110,12.5z"/>
	<circle class="st0" cx="110" cy="32.5" r="5"/>
</g>
</svg>
