<?xml version="1.0" encoding="utf-8"?>
<!-- Generator: Adobe Illustrator 22.1.0, SVG Export Plug-In . SVG Version: 6.00 Build 0)  -->
<svg version="1.1" id="Capa_1" xmlns="http://www.w3.org/2000/svg" xmlns:xlink="http://www.w3.org/1999/xlink" x="0px" y="0px"
	 viewBox="0 0 460 460" style="enable-background:new 0 0 460 460;" xml:space="preserve">
<style type="text/css">
	.st0{fill:#686868;}
</style>
<path class="st0" d="M336.9,238.9c4.8,0,9.3,0,14.3,0c0-2,0-3.8,0-5.5c0-20.7-0.1-41.3,0-62c0.1-17.1,11.4-33.8,26.5-39.6
	c24.7-9.5,52.5,9.2,52.9,36.3c0.5,30.7,0.4,61.3,0,92c-0.3,22-18.3,38.4-41.4,38.7c-12.5,0.1-25,0-37.5,0c-1.8,0-3.6,0-5.8,0
	c0.4,2.9,0.3,5.3,1.1,7.4c0.5,1.3,2.3,2.9,3.5,2.9c24.2,0.2,48.3,0.3,72.5,0c10.6-0.1,18.2-8.7,18.2-19.9c0-45.2,0-90.3,0-135.5
	c0-1.8-0.1-3.7,0.1-5.5c0.7-5.1,5.1-9.1,9.8-9c4.8,0.1,8.9,4,9.6,9.2c0.2,1.3,0.1,2.7,0.1,4c0,45.3,0,90.7,0,136
	c0,13.5-5.2,24.6-16.2,32.6c-2.4,1.7-3.1,3.4-2.8,6.2c2.6,22.8,5.1,45.7,7.6,68.5c0.4,3.8,1,7.6,1.3,11.4c0.5,5.8-3.3,10.9-8.6,11.6
	c-5.1,0.6-10.2-3.7-10.8-9.5c-2.4-21.8-4.8-43.7-7.2-65.5c-0.5-4.8-1.2-9.6-1.8-14.6c-23.9,0-47.5,0-71.8,0
	c1.2,8.6,2.4,17.1,3.7,25.6c2.1,14,4.3,28,6.4,42c0.8,5-1.4,8.7-5.5,11.4c-10.5,6.8-22.3,9.4-34.5,10.3c-16.4,1.1-32.6,0.2-47.8-7.1
	c-1-0.5-2.5-0.3-3.6,0.1c-25.4,10.2-50.8,10.4-76.2,0c-1.1-0.5-2.8-0.3-4,0.1c-24.8,10.1-49.7,10.1-74.4,0.5
	c-12.9-5-14.1-8.3-11.9-21.8c2.9-18.6,5.7-37.2,8.5-55.8c0.2-1.6,0.3-3.3,0.4-5.2c-23.8,0-47.4,0-71.6,0c-0.9,8-1.9,16.1-2.8,24.1
	c-2.1,18.7-4.1,37.4-6.2,56.1c-0.7,5.8-5.7,10.1-10.9,9.4c-5.7-0.7-9.2-6.2-8.4-12.6c3-26.1,5.8-52.3,8.8-78.4c0.4-3.3-0.6-5-3.2-7
	C6.6,313,1.3,302.3,1.3,289.4c-0.2-46-0.1-92-0.1-138c0-7.3,3.9-12.1,9.7-12.2c6,0,9.9,4.8,9.9,12.5c0,45.2,0,90.3,0,135.5
	c0,14.3,7.5,22,21.8,22c21.3,0,42.7,0,64,0c9.4,0,9.4,0,9.1-10.4c-1.9,0-3.9,0-5.9,0c-14.6-0.2-29.4,0.4-43.9-0.9
	c-19.6-1.8-34.4-18.6-34.5-38.3c-0.2-30.2-0.4-60.3-0.1-90.5c0.3-27.7,28-46.9,53-37.2c15.1,5.8,26.4,22.4,26.5,39.1
	c0.1,20.7,0,41.3,0,62c0,1.8,0,3.6,0,5.9c4.8,0,9.4,0,14.4,0c1.6-10.6,3.4-21.3,4.8-32c2.2-16.6,3.3-17.6,20-17.6
	c55.5,0,111,0,166.5,0c10.5,0,13.1,2.2,14.7,12.6C333.2,214.1,335,226.5,336.9,238.9z M231.1,208.8c-25.5,0-51,0.1-76.5-0.1
	c-3.8,0-5.4,0.7-6,4.9c-8.7,58.8-17.5,117.5-26.5,176.3c-0.6,3.8,1.1,5,4.2,5.9c16.6,4.7,33.2,4.6,49.8,0c4-1.1,5.7-3.1,5.3-7.4
	c-0.4-4.3-0.1-8.7-0.1-13c0-11.8-0.1-23.7,0.1-35.5c0.1-6.1,4.4-10.7,9.7-10.7c5.4-0.1,9.5,4.4,9.9,10.5c0.1,1.3,0,2.7,0,4
	c0,15.3,0.1,30.7-0.1,46c0,3.2,0.9,4.8,4,5.8c17.6,5.2,35.1,5.2,52.6,0c2.8-0.8,4-2.3,3.9-5.4c-0.2-9.7-0.1-19.3-0.1-29
	c0-7,3.9-11.7,9.5-11.9c5.8-0.2,10,4.6,10,11.9c0.1,9.3,0.2,18.7-0.1,28c-0.1,3.9,1.2,5.7,4.8,6.7c16.4,4.6,32.8,4.7,49.3,0.5
	c4.5-1.1,5.7-3.1,4.9-7.7c-2.2-12.1-3.8-24.3-5.6-36.5c-6.9-46.3-13.9-92.5-20.7-138.8c-0.5-3.7-1.9-4.5-5.4-4.5
	C282.4,208.9,256.7,208.8,231.1,208.8z M122.3,258.8c-6.7,0-13,0-19.3,0c-7.7-0.1-11.6-3.9-11.8-11.7c-0.1-5.5,0-11,0-16.5
	c0-20,0.2-40-0.1-59.9c-0.2-13-8.8-22-20.4-21.9c-11.7,0.1-19.9,9.1-19.9,22.1c0,29.1,0,58.3,0,87.4c0,12.3,8.4,20.6,20.7,20.8
	c8.7,0.1,17.3,0,26,0c7.1,0,14.2,0,21.6,0C120.2,272.3,121.2,265.9,122.3,258.8z M342.9,279.1c17.2,0,33.9,0.4,50.5-0.1
	c9.8-0.3,17.7-9,17.8-18.9c0.2-30.6,0.2-61.3,0-91.9c-0.1-14.9-16.7-24.3-29.6-16.8c-7.8,4.5-10.6,12.2-10.6,20.8
	c-0.1,21.6,0,43.3,0,64.9c0,21.6-0.2,21.8-21.6,21.8c-3,0-5.9,0-9.4,0C340.9,265.8,341.8,272.2,342.9,279.1z"/>
<path class="st0" d="M110.8,78.8c0.1,21.4-18.3,39.9-39.7,40c-21.4,0.1-39.8-18.4-39.8-39.8c0-21.2,18.2-39.6,39.4-39.8
	C92.1,39,110.7,57.4,110.8,78.8z M91.2,79c0-11.4-8.9-20.2-20.3-20.1c-11.2,0.1-19.9,8.8-20,20c-0.1,11.5,8.7,20.3,20.1,20.4
	C82.4,99.2,91.2,90.4,91.2,79z"/>
<path class="st0" d="M390.9,118.8c-21.4-0.1-39.8-18.6-39.6-40c0.1-21.2,18.4-39.5,39.6-39.6c21.4-0.1,39.9,18.4,39.9,39.8
	C430.7,100.4,412.3,118.9,390.9,118.8z M411.2,78.8c-0.1-11.4-9-20.1-20.5-20c-11.1,0.1-19.8,8.9-19.9,20.1
	c0,11.4,8.8,20.2,20.2,20.2C402.5,99.1,411.2,90.3,411.2,78.8z"/>
</svg>
