<?xml version="1.0" encoding="utf-8"?>
<!-- Generator: Adobe Illustrator 22.1.0, SVG Export Plug-In . SVG Version: 6.00 Build 0)  -->
<svg version="1.1" id="Layer_1" xmlns="http://www.w3.org/2000/svg" xmlns:xlink="http://www.w3.org/1999/xlink" x="0px" y="0px"
	 viewBox="0 0 150 150" style="enable-background:new 0 0 150 150;" xml:space="preserve">
<style type="text/css">
	.st0{fill:#636A75;}
</style>
<g>
	<path class="st0" d="M74.9,142.7c-19.3,0-38.5-0.1-57.8,0.1c-3.5,0-4.8-0.6-4.8-4.5c0.2-42.3,0.1-84.5,0.1-126.8
		c0-1.2,0.1-2.3,0.2-3.7c1.4-0.1,2.6-0.2,3.7-0.2c17.5,0,35,0,52.6,0c7.2,0,11.1,3.6,10.9,10.7c-0.2,6.7,1.9,11,8.3,14
		c7.7,3.6,14.8,8.4,22.4,12.8c1.2-2.9,2.3-5.3,3.1-7.8c0.3-0.8,0-2.1-0.5-2.8c-7.8-8.8-15.5-17.7-23.7-26.2
		c-4.6-4.8-10.8-7.6-17.6-7.7C53.5,0.2,35.2,0,16.9,0C9.2,0,5.1,1.1,5.1,6c0,46,0,92,0,138c2.4,4.7,6.2,6,11.4,5.9
		c19.8-0.2,39.6-0.1,59.4-0.1c1.4,0,2.9,0,5,0c-0.5-2.7-0.9-4.9-1.3-7.2C77.8,142.7,76.3,142.7,74.9,142.7z"/>
	<path class="st0" d="M96,82.6c-23.3,0-46.3,0-69.5,0c0,2.1,0,3.9,0,6.1c1.6,0,3.1,0,4.5,0c19.4,0,38.7,0,58.1,0
		C94.8,88.7,94.8,88.7,96,82.6z"/>
	<path class="st0" d="M26.9,105.4c20.6,0,41,0,61.6,0c0.6-1.9,1.2-3.7,1.9-5.9c-21.5,0-42.5,0-63.5,0
		C26.9,101.5,26.9,103.4,26.9,105.4z"/>
	<path class="st0" d="M26.8,122.5c1.9,0,3.3,0,4.8,0c15.6,0,31.3,0,46.9,0c5.9,0,5.9,0,6.3-6c-19.3,0-38.6,0-58,0
		C26.8,118.5,26.8,120.2,26.8,122.5z"/>
	<path class="st0" d="M118.8,112.9c-2.3,5.8-7,10.6-6.2,17.6c0.3,2.8-0.1,5.6,0.1,8.4c0.3,3.1-1,4.3-3.9,3.7
		c-5.8-1.2-8.3,2.2-10.3,6.9c0.6,0.1,0.9,0.3,1.3,0.3c3.9,0,7.7,0.1,11.6,0c4.7-0.1,8.1-2.8,8.3-7.5c0.4-9.8,0.1-19.6,0.1-29.3
		C119.2,112.9,119.3,113,118.8,112.9z"/>
	<path class="st0" d="M143.6,45.3c-5.8,14-11.6,28-17.4,42.2c3.6,1.2,6.2,0.4,7.5-3.4c3.3-9.9,6.8-19.8,9.9-29.7
		c0.9-2.8,0.8-5.8,1.2-8.7C144.5,45.5,144,45.4,143.6,45.3z"/>
	<path class="st0" d="M128.5,15.9c-19.4,46.9-36.6,91.2-42,123.9l1.7,0.8l-0.5,7.2l4.1-5.7l1.8,0.5C109.4,119.7,125,79.7,140.3,39
		C142.1,27.1,136.3,20.1,128.5,15.9z"/>
	<polygon class="st0" points="32.3,39.9 37.7,39.9 37.7,68.1 42.9,68.1 42.9,39.9 48.3,39.9 48.3,35.3 32.3,35.3 	"/>
	<path class="st0" d="M52.1,68.1l0.9-6h6.3l0.9,6h5.2l-5.3-32.9h-7.6l-5.3,32.9H52.1z M56.2,41.1l2.5,16.6h-5L56.2,41.1z"/>
	<polygon class="st0" points="71.5,68.1 75.8,55.1 80,68.1 85.4,68.1 79.7,51.2 85.1,35.3 80.3,35.3 76.3,47.4 72.4,35.3 67,35.3 
		72.4,51.2 66.7,68.1 	"/>
</g>
</svg>
