<?xml version="1.0" encoding="utf-8"?>
<!-- Generator: Adobe Illustrator 22.1.0, SVG Export Plug-In . SVG Version: 6.00 Build 0)  -->
<svg version="1.1" id="Layer_1" xmlns="http://www.w3.org/2000/svg" xmlns:xlink="http://www.w3.org/1999/xlink" x="0px" y="0px"
	 viewBox="0 0 150 150" style="enable-background:new 0 0 150 150;" xml:space="preserve">
<style type="text/css">
	.st0{fill:#636A75;}
</style>
<g>
	<path class="st0" d="M125,14.7l-82.1-0.3c-2.1,0-4,1.3-4.7,3.4L21.7,70.4c-0.5,1.4-0.3,3,0.6,4.2c0.8,1.3,2.2,2.1,3.7,2.2l82.5,5.3
		c0.1,0,0.2,0,0.4,0c2.2,0,4.1-1.5,4.7-3.5l16.2-57.7c0.4-1.5,0.1-3-0.8-4.3C128,15.4,126.6,14.7,125,14.7z M109.3,77.8l-83.7-5.4
		l16.9-53.8l83.3,0.3L109.3,77.8z"/>
	<path class="st0" d="M148.8,3.9c-1.2-1.6-3-2.5-4.9-2.5L33.2,1.7c-2.6,0-4.9,1.7-5.8,4.2L0.3,82.1C-0.3,83.9,0,85.9,1,87.5
		c1,1.6,2.7,2.6,4.7,2.7l41.1,2.6l0.2,27.3l-36.3-5.7c-0.2,0-0.3,0-0.5,0c-0.7,0-1.4,0.3-2,0.7c-0.7,0.6-1.1,1.4-1.1,2.3l0.4,11.1
		c0,4.3,2.6,7.7,7.3,9.6l0.2,0.1l60.4,9.8l0-0.2l1.1,0.3c0.8,0.2,1.6,0.3,2.5,0.3c1.5,0,3.1-0.3,4.2-1l28.4-14.8
		c3.6-1.9,6-5.6,6-9.8l-0.1-25.7l1.8,0.1c0.2,0,0.3,0,0.5,0c2.7,0,5.1-1.8,5.9-4.4l24-83.8C150.3,7.4,149.9,5.4,148.8,3.9z
		 M16.2,134.1l-0.1-0.1c-2.9-1.3-4.3-3.1-4.3-5.5l-0.4-9.6l55.6,8.8l-0.1,0.9c-0.3,3.3-0.5,8.2,1.4,12.3l0.8,1.7L16.2,134.1z
		 M109.7,129l-28.4,14.8c-0.8,0.4-2,0.5-2.3,0.5c-0.6,0-1.1-0.1-1.4-0.2c-5.7-2.3-7.3-6.8-6.1-17.1c0.2-1.6-0.9-3.1-2.5-3.4
		l-17.7-2.8l-0.2-27.7l62.2,3.9l0.1,26C113.3,125.5,111.9,127.8,109.7,129z M145.6,8.1l-24,83.8c-0.2,0.8-0.9,1.3-1.8,1.3L6,85.9
		c-0.6-0.1-1-0.3-1.3-0.8c-0.3-0.5-0.4-1-0.2-1.6L31.5,7.3c0.3-0.7,0.9-1.2,1.7-1.2l110.6-0.3h0c0.6,0,1.1,0.3,1.4,0.7
		C145.7,6.9,145.8,7.5,145.6,8.1z"/>
	<path class="st0" d="M92.7,23.1H82.4l-2,6.3h10.3L92.7,23.1z M89.5,27.8h-6.9l1-3.1h6.9L89.5,27.8z"/>
	<path class="st0" d="M106.8,23.1H96.5l-2,6.3h10.3L106.8,23.1z M103.6,27.8h-6.9l1-3.1h6.9L103.6,27.8z"/>
	<path class="st0" d="M120.9,23.1h-10.3l-2,6.3h10.3L120.9,23.1z M117.7,27.8h-6.9l1-3.1h6.9L117.7,27.8z"/>
	<path class="st0" d="M86.7,41.7l2-6.3H78.4l-2,6.3H86.7z M79.6,37h6.9l-1,3.1h-6.9L79.6,37z"/>
	<path class="st0" d="M102.8,35.4H92.6l-2,6.3h10.3L102.8,35.4z M99.6,40.1h-6.9l1-3.1h6.9L99.6,40.1z"/>
	<path class="st0" d="M104.7,41.7h10.3l2-6.3h-10.3L104.7,41.7z M107.9,37h6.9l-1,3.1h-6.9L107.9,37z"/>
	<path class="st0" d="M85.6,47.5H75.3l-2,6.3h10.3L85.6,47.5z M82.4,52.2h-6.9l1-3.1h6.9L82.4,52.2z"/>
	<path class="st0" d="M87.4,53.8h10.3l2-6.3H89.5L87.4,53.8z M90.6,49.1h6.9l-1,3.1h-6.9L90.6,49.1z"/>
	<path class="st0" d="M101.6,53.8h10.3l2-6.3h-10.3L101.6,53.8z M104.8,49.1h6.9l-1,3.1h-6.9L104.8,49.1z"/>
	<path class="st0" d="M68.4,67.8h10.3l2-6.3H70.4L68.4,67.8z M71.6,63.1h6.9l-1,3.1h-6.9L71.6,63.1z"/>
	<path class="st0" d="M82.5,67.8h10.3l2-6.3H84.5L82.5,67.8z M85.7,63.1h6.9l-1,3.1h-6.9L85.7,63.1z"/>
	<path class="st0" d="M96.6,67.8h10.3l2-6.3H98.7L96.6,67.8z M99.8,63.1h6.9l-1,3.1h-6.9L99.8,63.1z"/>
	<path class="st0" d="M55.9,67.5l1.5-4.9l9.4-0.1l1.9-6.7L43.5,56l-2.1,6.7l14.1-0.1l-1,3.1L33.4,66l12.6-39.8l20.8-0.7l-1.6,3.9
		l-14.1,0.1l-2.1,6.7L74.5,36l1.9-6.7l-9.3,0l2.1-5.5l-24.4,0.6L31.1,67.7L55.9,67.5z M43.9,60.9l1-3.2l21.6-0.2l-0.9,3.2L43.9,60.9
		z M74.1,31.1l-0.9,3.2l-21.6,0.2l1-3.2L74.1,31.1z"/>
	<path class="st0" d="M46.3,44.9l25.8-0.2l2-6.2l-25.7,0.2L46.3,44.9z M49.8,40.3l21.9-0.1l-0.9,2.9l-22,0.1L49.8,40.3z"/>
	<path class="st0" d="M43.9,53.8l26-0.2l2-6.2L46,47.6L43.9,53.8z M47.3,49.2l22.1-0.1L68.5,52l-22.1,0.1L47.3,49.2z"/>
</g>
</svg>
