<?xml version="1.0" encoding="utf-8"?>
<!-- Generator: Adobe Illustrator 22.1.0, SVG Export Plug-In . SVG Version: 6.00 Build 0)  -->
<svg version="1.1" id="Layer_1" xmlns="http://www.w3.org/2000/svg" xmlns:xlink="http://www.w3.org/1999/xlink" x="0px" y="0px"
	 viewBox="0 0 150 150" style="enable-background:new 0 0 150 150;" xml:space="preserve">
<style type="text/css">
	.st0{fill:#636A75;}
</style>
<g>
	<path class="st0" d="M62,75c3.3,0,6.4-1.3,8.7-3.6c2.3-2.3,3.6-5.4,3.6-8.7c0-3.3-1.3-6.4-3.6-8.7c-2.3-2.3-5.4-3.6-8.7-3.6
		c-3.3,0-6.4,1.3-8.7,3.6c-4.8,4.8-4.8,12.6,0,17.4C55.7,73.7,58.8,75,62,75z M58.1,58.8c1-1,2.4-1.6,3.9-1.6c1.5,0,2.9,0.6,3.9,1.6
		c2.2,2.2,2.2,5.7,0,7.8c-1,1-2.4,1.6-3.9,1.6c-1.5,0-2.9-0.6-3.9-1.6C56,64.5,56,61,58.1,58.8z"/>
	<path class="st0" d="M68.4,94.6c-3.3,0-6.4,1.3-8.7,3.6c-4.8,4.8-4.8,12.6,0,17.4c2.3,2.3,5.4,3.6,8.7,3.6c3.3,0,6.4-1.3,8.7-3.6
		c4.8-4.8,4.8-12.6,0-17.4C74.7,95.8,71.6,94.6,68.4,94.6z M72.3,110.8c-1,1-2.4,1.6-3.9,1.6c-1.5,0-2.9-0.6-3.9-1.6
		c-1-1-1.6-2.4-1.6-3.9c0-1.5,0.6-2.9,1.6-3.9c1-1,2.4-1.6,3.9-1.6c1.5,0,2.9,0.6,3.9,1.6C74.4,105.1,74.4,108.6,72.3,110.8z"/>
	<path class="st0" d="M93.2,78.3c0,0-56.8,6.3-56.8,6.3c-0.9,0.1-1.7,0.5-2.3,1.2c-0.6,0.7-0.8,1.6-0.7,2.5c0.2,1.7,1.6,3,3.3,3
		l0.4,0L93.9,85c1.8-0.2,3.2-1.9,3-3.7C96.7,79.6,95.3,78.3,93.2,78.3z"/>
	<path class="st0" d="M136,56.3l0.6-0.8c7.9-10.6,7.9-25.4,0-36l-0.6-0.8l13-13c0.6-0.6,1-1.5,1-2.4s-0.4-1.7-1-2.4
		c-0.6-0.6-1.5-1-2.4-1s-1.7,0.4-2.4,1l-13,13l-0.8-0.6c-5.2-3.9-11.5-6-18.1-6c-6.6,0-12.8,2.1-18,6L93.7,14L84,4.3
		c-2.3-2.3-5.4-3.6-8.7-3.6c-3.3,0-6.4,1.3-8.7,3.6l-63,63c-4.8,4.8-4.8,12.6,0,17.4l11.5,11.5l-0.2,0.6c-3.9,10.9-1.1,23.2,7,31.3
		c5.6,5.6,13.2,8.7,21.2,8.7c3.5,0,6.9-0.6,10.1-1.7l0.6-0.2l11.5,11.5c2.3,2.3,5.4,3.6,8.7,3.6c3.3,0,6.4-1.3,8.7-3.6l63-63
		c2.3-2.3,3.6-5.4,3.6-8.7c0-3.3-1.3-6.4-3.6-8.7L136,56.3z M141,78.6l-10.3,10.3l-1.9-0.7c0-0.8-0.4-1.6-1-2.2l-6.3-6.3
		c-0.6-0.6-1.5-1-2.4-1s-1.7,0.3-2.4,1c-0.6,0.6-1,1.5-1,2.4c0,0.9,0.4,1.7,1,2.4l6.3,6.3c0.6,0.6,1.4,0.9,2.2,1l0.7,1.9l-48.1,48.1
		c-1,1-2.4,1.6-3.9,1.6c-1.5,0-2.9-0.6-3.9-1.6L57,128.5c-0.6-0.6-1.5-1-2.4-1c-0.5,0-1,0.1-1.4,0.3c-3.1,1.5-6.6,2.3-10.1,2.3
		c-6.2,0-12.1-2.4-16.4-6.8c-6.9-6.9-8.7-17.6-4.5-26.5c0.6-1.3,0.3-2.8-0.7-3.8L8.4,79.9c-1-1-1.6-2.4-1.6-3.9
		c0-1.5,0.6-2.9,1.6-3.9l49.3-49.3l1.8,1.2c-0.6,1.3-0.3,2.8,0.7,3.7l6.3,6.3c0.6,0.6,1.5,1,2.4,1s1.7-0.4,2.4-1
		c0.6-0.6,1-1.5,1-2.4s-0.3-1.7-1-2.4l-6.3-6.3c-0.6-0.6-1.5-1-2.4-1c-0.5,0-0.9,0.1-1.4,0.3l-1.2-1.8L71.4,9c1-1,2.4-1.6,3.9-1.6
		c1.5,0,2.9,0.6,3.9,1.6l12,12c0.6,0.6,1.5,1,2.4,1c0.9,0,1.7-0.4,2.4-1c4.4-4.4,10.3-6.8,16.5-6.8c4.6,0,9.1,1.4,12.9,3.9l1.1,0.7
		l-8,8l-0.7-0.3c-1.6-0.8-3.5-1.2-5.3-1.2c-3.3,0-6.4,1.3-8.7,3.6c-4.8,4.8-4.8,12.6,0,17.4c2.3,2.3,5.4,3.6,8.7,3.6
		c3.3,0,6.4-1.3,8.7-3.6c3.7-3.7,4.6-9.3,2.4-14l-0.3-0.7l8-8l0.7,1.1c6.1,9.2,4.8,21.5-3,29.4c-1.3,1.3-1.3,3.4,0,4.8l12,12
		C143.1,72.9,143.1,76.5,141,78.6z M116.5,41.4c-1,1-2.4,1.6-3.9,1.6s-2.9-0.6-3.9-1.6c-2.2-2.2-2.2-5.7,0-7.8c1-1,2.4-1.6,3.9-1.6
		s2.9,0.6,3.9,1.6C118.6,35.8,118.6,39.3,116.5,41.4z"/>
	<path class="st0" d="M85.3,52.9c0.6,0.6,1.5,1,2.4,1c0.9,0,1.7-0.3,2.4-1c1.3-1.3,1.3-3.5,0-4.8l-6.3-6.3c-0.6-0.6-1.5-1-2.4-1
		c-0.9,0-1.7,0.4-2.4,1c-1.3,1.3-1.3,3.5,0,4.8L85.3,52.9z"/>
	<path class="st0" d="M102.7,60.8c-0.6-0.6-1.5-1-2.4-1s-1.7,0.3-2.4,1c-0.6,0.6-1,1.5-1,2.4c0,0.9,0.3,1.7,1,2.4l6.3,6.3
		c0.6,0.6,1.5,1,2.4,1c0.9,0,1.7-0.3,2.4-1c1.3-1.3,1.3-3.4,0-4.8L102.7,60.8z"/>
</g>
</svg>
