<?xml version="1.0" encoding="utf-8"?>
<!-- Generator: Adobe Illustrator 23.0.1, SVG Export Plug-In . SVG Version: 6.00 Build 0)  -->
<svg version="1.1" id="Layer_1" xmlns="http://www.w3.org/2000/svg" xmlns:xlink="http://www.w3.org/1999/xlink" x="0px" y="0px"
	 viewBox="0 0 40 40" style="enable-background:new 0 0 40 40;" xml:space="preserve">
<style type="text/css">
	.st0{fill:#54A2F2;}
</style>
<g>
	<g>
		<path class="st0" d="M22.3,35.1l0.6-0.6h-0.6V35.1z M28.2,36.3v-2H27l-1.7,2H28.2z M30.4,39c0-0.3,0.1-0.7,0.3-0.7h-7.6L22.5,39
			l-0.7-0.7h-2.4l1.7-5.2c0.1-0.2,0.1-0.4,0-0.6L20,29.5c0.5-0.3,0.8-0.6,1.1-0.8c1.2,1,3.4,2.1,3.5,2.1c0.6,0.2,1.1,0.4,1.5,0.6
			l1.3-1.3c-0.1,0-0.1-0.1-0.2-0.1c-0.3,0.3-0.6,0.4-1,0.4c-0.4,0-0.7-0.1-1-0.4l-1.6-1.7C23,27.9,22,27.5,22,27.1v-1.8
			c2-1.5,4.1-4,4.7-7.1c1.6-0.3,2.6-1.9,2.6-3.3c0-1.3-1.2-2.2-2.6-2.4v-1.3c0-0.4,0.2-5.3-2.9-8.6c-1.7-1.8-4.1-2.7-7-2.7
			S11.7,0.9,10,2.7c-3,3.3-2.8,8.3-2.8,8.7v1.3c-2,0.2-2.7,1.1-2.7,2.4c0,1.4,1.1,3,2.7,3.3c0.6,3.1,2,5.6,4.7,7.1v1.8
			c-0.7,0.7-2.4,1.7-3.2,2.1c-8.2,2.7-8.3,7.6-8.3,7.8v2.1c0,0.5,0.1,0.7,0.6,0.7h29.6C30.5,39.7,30.4,39.4,30.4,39z M26.9,14.3
			c0.4,0.1,0.8,0.3,0.8,0.7c0,0.5-0.4,1.1-0.8,1.4C26.9,16.2,26.9,14.3,26.9,14.3z M6.2,15c0-0.4,0.4-0.6,0.8-0.7c0,0,0,2,0,2.1
			C6.5,16.1,6.2,15.5,6.2,15z M20.1,27.2c0,0.3-0.8,0.8-1.6,1.2c-1.1,0.5-2.4,0.5-3.5,0c-0.8-0.4-1.1-0.9-1.7-1.2v-1.1
			c1.4,0.4,2.2,0.6,3.4,0.6s2.7-0.2,3.4-0.6V27.2z M11.1,4c1.4-1.5,3.4-2.2,5.8-2.2s4.4,0.7,5.8,2.2c2,2.1,2.4,5.1,2.5,6.5
			C20.5,10.1,17,7.8,17,7.8c-0.3-0.2-0.6-0.2-0.9-0.1c-0.3,0.1-0.5,0.4-0.5,0.7c0,0.2-0.2,0.4-0.9,0.8C14,9.5,13.1,9.8,11.9,10
			c-1.3,0.2-2.6,0.4-3.4,0.4C8.8,9,9.2,6,11.1,4z M8.8,17.4c-0.1-0.5-0.1-1.1-0.1-1.5V12c0.8-0.1,2.3-0.2,3.7-0.5
			c2.4-0.5,4-1.1,4.7-2c1.4,0.8,4.4,2.3,8.5,2.5v3.8c0,0.5-0.1,1-0.2,1.5c-0.4,3.1-2.1,5.5-4.6,6.8C19.6,24.7,18.3,25,17,25
			s-2.6-0.3-3.7-0.9C10.8,22.9,9.2,20.4,8.8,17.4z M1.9,38.4V37c0-0.1,0.1-1,1-2.2c1.5-2.1,4.3-3.4,6.4-4.1c0,0,2.3-1.2,3.5-2.1
			c0.3,0.3,0.7,0.6,1.1,0.8l-1.1,3.2c-0.1,0.2-0.1,0.4,0,0.6l1.7,5.2C14.4,38.4,1.9,38.4,1.9,38.4z M16.3,38.4l-1.8-5.5l0.9-2.8
			c0.5,0.2,1,0.2,1.5,0.2c0.5,0,1-0.1,1.5-0.2l0.9,2.8l-1.8,5.5H16.3z M27.9,22l-4.3,4.3c-0.3,0.3-0.3,0.8,0,1.1l2.1,2.1
			c0.1,0.1,0.3,0.2,0.5,0.2c0.2,0,0.4-0.1,0.5-0.2l0.5-0.5l1.1,1.1l-7,7l1.1,1.1l7-7l1.1,1.1L30,32.6c-0.3,0.3-0.3,0.8,0,1.1
			l2.1,2.1c0.1,0.1,0.3,0.2,0.5,0.2c0.2,0,0.4-0.1,0.5-0.2l4.3-4.3c0.1-0.1,0.2-0.3,0.2-0.5c0-0.2-0.1-0.4-0.2-0.5l-2.1-2.1
			c-0.3-0.3-0.8-0.3-1.1,0L33.7,29l-3.2-3.2l0.5-0.5c0.1-0.1,0.2-0.3,0.2-0.5c0-0.2-0.1-0.4-0.2-0.5L28.9,22
			C28.6,21.7,28.2,21.7,27.9,22z M34.7,30l1.1,1.1l-3.2,3.2l-1.1-1.1l0.5-0.5l0,0l1.1-1.1L34.7,30z M32.6,30L32,30.6l-0.5,0.5
			L28.4,28l0.3-0.3l0.8-0.8L32.6,30z M28.9,25.2L28.9,25.2l-1.7,1.7l-1,1l-1.1-1.1l3.2-3.2l1.1,1.1L28.9,25.2z M38.7,38.4h-6.8
			c-0.4,0-0.8,0.3-0.8,0.8c0,0.4,0.3,0.8,0.8,0.8h6.8c0.4,0,0.8-0.3,0.8-0.8C39.4,38.7,39.1,38.4,38.7,38.4z M34.1,36.1
			c-0.4,0-0.8,0.3-0.8,0.8c0,0.4,0.3,0.8,0.8,0.8h2.3c0.4,0,0.8-0.3,0.8-0.8c0-0.4-0.3-0.8-0.8-0.8H34.1z"/>
	</g>
</g>
</svg>
