<?xml version="1.0" encoding="utf-8"?>
<!-- Generator: Adobe Illustrator 23.0.1, SVG Export Plug-In . SVG Version: 6.00 Build 0)  -->
<svg version="1.1" id="Layer_1" xmlns="http://www.w3.org/2000/svg" xmlns:xlink="http://www.w3.org/1999/xlink" x="0px" y="0px"
	 viewBox="0 0 40 40" style="enable-background:new 0 0 40 40;" xml:space="preserve">
<style type="text/css">
	.st0{fill:#54A2F2;}
</style>
<g>
	<path class="st0" d="M26.8,21.7c1.2,0,1.5-0.3,1.5-1.5l0-0.4c0-0.7,0-1.4,0-2.1c-0.1-3.2-2.4-5.8-5.6-6.1c-0.1,0-0.2,0-0.2,0
		c-0.6,0-1,0.3-1.2,0.8c-0.3,0.6-0.6,1.1-0.9,1.7c0,0.1-0.1,0.2-0.1,0.2c0-0.1-0.1-0.1-0.1-0.2c-0.3-0.6-0.6-1.1-0.9-1.7
		c-0.2-0.5-0.6-0.8-1.2-0.8c0,0,0,0-0.1,0c-2.5,0.1-4.8,1.8-5.5,4.2c-0.3,1-0.3,2.1-0.3,3.1c0,0.4,0,0.7,0,0.9c0,0.8,0,1.2,0.2,1.5
		c0.2,0.3,0.6,0.3,1.1,0.3c0.1,0,0.3,0,0.5,0c0.2,0,0.5,0,0.7,0l0.1,0c1.8,0,3.5,0,5.3,0c2.2,0,4.3,0,6.5,0L26.8,21.7z M25.6,19.5
		c-0.1-0.5-0.1-1.1-0.2-1.7c-0.1-0.4-0.4-0.6-0.7-0.6c-0.2,0-0.4,0.1-0.5,0.2c-0.1,0.1-0.2,0.3-0.2,0.5l0,0c0,0.5,0.1,1,0.2,1.5
		c0,0.1,0,0.2,0,0.3h-7.7c0-0.1,0-0.2,0-0.3c0.1-0.5,0.1-1.1,0.2-1.6l0,0c0-0.2-0.1-0.4-0.2-0.5c-0.1-0.1-0.3-0.2-0.5-0.2
		c-0.4,0-0.7,0.2-0.7,0.6c-0.1,0.6-0.2,1.1-0.3,1.7c0,0.1,0,0.2,0,0.4h-1c0-0.3,0-0.6,0-0.9c0-0.9,0-1.7,0.2-2.4
		c0.4-1.7,1.6-2.8,3.5-3.2c0.1,0,0.2,0,0.2,0c0.1,0,0.3,0,0.4,0.4c0.4,0.9,0.9,1.8,1.3,2.6c0.1,0.3,0.5,0.6,0.8,0.6l0,0h0
		c0.4,0,0.8-0.6,0.8-0.6c0.4-0.8,0.9-1.7,1.3-2.6c0.1-0.3,0.3-0.4,0.5-0.4c0.1,0,0.2,0,0.3,0c1.7,0.3,3.1,1.8,3.5,3.5
		c0.1,0.4,0.1,0.8,0.1,1.2c0,0.5,0,1,0,1.5c0,0.1,0,0.2,0,0.4h-1C25.6,19.8,25.6,19.7,25.6,19.5z"/>
	<path class="st0" d="M20.2,10.9L20.2,10.9c1.1,0,2.1-0.4,2.9-1.2c0.8-0.8,1.2-1.8,1.2-2.9c0-2.2-1.8-4-4.1-4l0,0
		c-2.2,0-4,1.9-4,4.1c0,1.1,0.4,2.1,1.2,2.9C18.1,10.4,19.1,10.9,20.2,10.9z M20.2,4.2L20.2,4.2c1.4,0,2.4,1.1,2.4,2.5
		c0,0.7-0.3,1.3-0.7,1.7c-0.5,0.5-1.1,0.7-1.7,0.7c0,0,0,0,0,0c-1.4,0-2.5-1.1-2.4-2.5C17.7,5.3,18.8,4.2,20.2,4.2z"/>
	<path class="st0" d="M31.5,26.9c-2.4-0.1-4.4,1.7-4.6,4.1c-0.1,1.2,0.3,2.3,1.1,3.1c0.8,0.9,1.8,1.4,3,1.4l0,0l0,0
		c2.4,0.1,4.4-1.7,4.5-4.1C35.7,29,33.9,27,31.5,26.9z M34.4,31.4c-0.1,1.8-1.6,3.1-3.4,3c-0.9-0.1-1.6-0.4-2.2-1.1
		C28.3,32.7,28,31.8,28,31c0.1-1.8,1.6-3.1,3.4-3l0-0.2l0,0.2C33.2,28.1,34.5,29.6,34.4,31.4z"/>
	<path class="st0" d="M39.6,29.8c-0.2-0.2-0.4-0.3-0.7-0.3c-0.1,0-0.1,0-0.2,0c-0.1,0-0.1,0-0.2,0c-0.2,0-0.3-0.1-0.5-0.7
		c-0.2-0.6-0.1-0.6,0.1-0.8c0.3-0.2,0.5-0.5,0.6-0.9c0.1-0.4,0-0.7-0.3-1c-0.4-0.5-0.8-0.9-1.2-1.4c-0.2-0.2-0.5-0.4-0.9-0.4
		c0,0-0.1,0-0.1,0c-0.3,0-0.6,0.2-0.8,0.4c-0.2,0.2-0.3,0.3-0.4,0.3c-0.2,0-0.4-0.1-0.7-0.2c-0.6-0.3-0.5-0.4-0.5-0.7
		c0-0.1,0-0.3,0-0.4h0l0-6.7c0-5.1,0-10.3,0-15.5c0-0.4,0-0.8-0.3-1.1C33.2,0,32.8,0,32.5,0c-4.8,0-9.7,0-14.7,0C13.3,0,8.6,0,3.9,0
		c-0.3,0-0.7,0-1,0.3C2.6,0.6,2.6,1,2.6,1.4c0,0.8,0,1.5,0,2.3c0,0.2,0,0.4,0,0.7c-0.1,0-0.2,0-0.3,0c-0.2,0-0.4,0-0.5,0
		c-0.3,0-0.5,0-0.7,0c0,0,0,0-0.1,0c-0.3,0-0.6,0.1-0.8,0.3C0.1,4.8,0,5,0,5.4c0,0.6,0,1.4,0,2.1c0,0.4,0.1,0.7,0.3,0.9
		c0.2,0.2,0.5,0.3,0.8,0.3c0,0,0.1,0,0.1,0c0.2,0,0.4,0,0.6,0c0.2,0,0.3,0,0.5,0c0.1,0,0.1,0,0.2,0v3.7c-0.1,0-0.1,0-0.2,0
		c-0.2,0-0.3,0-0.5,0c-0.3,0-0.5,0-0.6,0c0,0,0,0-0.1,0c-0.3,0-0.6,0.1-0.8,0.3C0.1,12.9,0,13.2,0,13.5l0,0.1c0,0.7,0,1.3,0,2
		c0,0.4,0.1,0.7,0.3,0.9c0.2,0.2,0.5,0.3,0.9,0.3l0.1,0c0.2,0,0.4,0,0.6,0c0.2,0,0.3,0,0.5,0c0,0,0.1,0,0.1,0v3.7
		c-0.2,0-0.3,0-0.5,0c-0.7,0-1.4,0.1-1.7,0.5C-0.1,21.6,0,22.3,0,22.9c0,0.3,0,0.5,0,0.8c0,0.5,0.1,0.8,0.3,1.1
		c0.2,0.2,0.5,0.3,0.9,0.3c0.1,0,0.1,0,0.2,0c0.2,0,0.3,0,0.5,0c0.2,0,0.3,0,0.5,0c0.1,0,0.1,0,0.2,0v3.8c-0.1,0-0.1,0-0.2,0
		c-0.2,0-0.3,0-0.5,0c-0.2,0-0.5,0-0.6,0c0,0-0.1,0-0.1,0c-0.3,0-0.6,0.1-0.8,0.3C0.1,29.3,0,29.6,0,30c0,0.7,0,1.4,0,2.1
		c0,0.4,0.1,0.7,0.3,0.9c0.2,0.2,0.5,0.3,0.8,0.3c0,0,0,0,0.1,0c0.2,0,0.4,0,0.6,0c0.2,0,0.3,0,0.5,0c0.1,0,0.2,0,0.2,0v2.4
		c0,1.3,0.1,1.6,1.6,1.6l9.9,0l10.7,0c0.5,0.5,0.8,0.8,1.2,0.8c0.4,0,0.9-0.3,1.4-0.7c0.3,0.2,0.7,0.4,1.1,0.6
		c-0.2,1.7,0.6,1.9,1.8,2.1l0,0c0,0,0.1,0,0.1,0l0.1,0l0.1,0c0,0,0.1,0,0.1,0c0.2,0,0.5,0,0.9,0c0.4,0,0.7-0.2,1-0.5
		c0.2-0.2,0.3-0.5,0.3-0.8c0-0.4,0-0.5,0.7-0.7c0.3-0.1,0.4-0.1,0.5-0.1c0.1,0,0.2,0,0.3,0.2c0.2,0.3,0.5,0.5,0.9,0.6
		c0,0,0.1,0,0.1,0c0.3,0,0.6-0.1,0.9-0.3c0.5-0.4,0.9-0.8,1.4-1.2c0.3-0.3,0.4-0.6,0.4-1c0-0.3-0.2-0.6-0.4-0.8
		c-0.3-0.3-0.4-0.3,0-1c0.3-0.5,0.3-0.5,0.5-0.5c0,0,0.1,0,0.2,0c0.1,0,0.1,0,0.2,0c0.4,0,0.7-0.1,0.8-0.2c0.2-0.2,0.5-0.5,0.5-1
		C40,32,40,31.4,40,30.8C40,30.4,39.9,30,39.6,29.8z M1.8,6.9V6.1h3.3v0.7H1.8z M1.8,15v-0.7h3.3V15H1.8z M1.8,23.1v-0.7h3.4v0.7
		H1.8z M1.8,31.2v-0.8h3.3v0.8H1.8z M7.8,35.5c-0.2,0-0.4,0-0.6,0c-0.3,0-0.6,0-0.9,0c-0.7,0-1.3,0-1.8,0c-0.1,0-0.2-0.1-0.2-0.2
		c0-0.6,0-1.2,0-1.9c0-0.1,0-0.3,0-0.4c0.1,0,0.2,0,0.2,0c0.2,0,0.3,0,0.5,0c0.2,0,0.4,0,0.6,0c0,0,0.1,0,0.1,0
		c0.4,0,0.7-0.1,0.9-0.3c0.2-0.2,0.3-0.5,0.3-1c0-0.7,0-1.3,0-1.9c0-0.4-0.1-0.7-0.3-0.9c-0.2-0.2-0.5-0.3-0.9-0.3c0,0-0.1,0-0.1,0
		c-0.2,0-0.4,0-0.6,0c-0.2,0-0.3,0-0.5,0c-0.1,0-0.1,0-0.2,0v-3.8l1.4,0c0.4,0,0.7-0.1,0.9-0.3C6.9,24.4,7,24.1,7,23.7
		c0-0.8,0-1.4,0-2c0-0.4-0.1-0.7-0.3-0.9c-0.2-0.2-0.5-0.3-0.9-0.3c0,0-0.1,0-0.1,0c-0.2,0-0.4,0-0.6,0c-0.2,0-0.3,0-0.5,0
		c-0.1,0-0.1,0-0.2,0v-3.8c0.1,0,0.1,0,0.2,0c0.2,0,0.3,0,0.5,0c0.2,0,0.4,0,0.6,0c0,0,0,0,0.1,0c0.4,0,0.7-0.1,0.9-0.3
		C6.9,16.1,7,15.8,7,15.5c0-0.6,0-1.3,0-2.1c0-0.4-0.1-0.6-0.3-0.8c-0.2-0.2-0.5-0.3-0.8-0.3l-0.7,0l-0.8,0V8.4c0.1,0,0.1,0,0.2,0
		c0.2,0,0.3,0,0.5,0c0.2,0,0.4,0,0.5,0c0.1,0,0.2,0,0.3,0c0.4,0,0.7-0.1,0.9-0.4C6.9,7.8,7,7.5,7,7c0-0.1,0-0.2,0-0.4
		c0-0.1,0-0.1,0-0.2C7,6.1,7,6,7,5.8c0-0.6,0-1-0.3-1.3C6.4,4.2,6,4.2,4.9,4.2l-0.1,0c-0.1,0-0.3,0-0.5,0V1.8h3.4V35.5z M9.6,35.6
		V1.8h22.4c0,0.1,0,0.3,0,0.4c0,6.6,0,13.2,0,19.8c0,0.1,0,0.1,0,0.2l0,0.2c-0.1,0-0.3,0-0.4,0c-0.3,0-0.6,0-0.9,0
		c-0.4,0-0.7,0.2-1,0.4c-0.2,0.2-0.3,0.6-0.3,0.9c0,0.4,0,0.5-0.7,0.8c-0.2,0.1-0.4,0.1-0.5,0.1c-0.1,0-0.2,0-0.3-0.3
		c-0.2-0.3-0.5-0.5-0.8-0.6c0,0-0.1,0-0.1,0c-0.3,0-0.6,0.1-0.9,0.3c-0.3,0.2-0.6,0.4-0.9,0.7c-0.4,0.4-0.9,0.8-0.9,1.4
		c0,0.5,0.3,1,0.7,1.3c-0.2,0.2-0.3,0.5-0.4,0.8c-0.1,0.3-0.1,0.3-0.4,0.3c-0.1,0-0.1,0-0.2,0c-0.1,0-0.1,0-0.2,0
		c-0.4,0-0.7,0.1-0.9,0.2c-0.3,0.2-0.5,0.5-0.5,0.9c-0.1,0.6-0.1,1.2-0.1,1.8c0,0.4,0.2,0.8,0.4,1c0.2,0.2,0.4,0.3,0.7,0.3
		c0.1,0,0.1,0,0.2,0c0.1,0,0.2,0,0.2,0c0.2,0,0.4,0.1,0.5,0.6c0,0.1,0.1,0.2,0.1,0.3c0.2,0.3,0.2,0.4-0.2,0.6
		c-0.3,0.2-0.5,0.5-0.6,0.8c0,0.1,0,0.2,0,0.3H9.6z M38.7,32.4c0,0.1,0,0.1,0,0.1c0,0,0,0,0,0c-0.1,0-0.2,0-0.3,0
		c-1-0.1-1.4,0.6-1.7,1.2c-0.3,0.6-0.8,1.6,0.3,2.5c0,0,0,0,0,0c-0.4,0.4-0.9,0.8-1.3,1.1c0,0,0,0,0,0c0,0,0,0,0,0
		c-0.3-0.5-0.8-0.8-1.3-0.8c-0.4,0-0.7,0.1-1,0.2c-0.6,0.2-1.7,0.6-1.6,2c0,0,0,0-0.1,0c-0.2,0-0.7,0-0.8,0l-0.2,0l0,0
		c-0.2,0-0.6-0.1-0.7-0.1c0,0,0-0.2,0-0.6c0.1-0.6-0.2-1.1-0.8-1.3c-0.4-0.1-0.7-0.3-1-0.5c-0.2-0.1-0.4-0.2-0.6-0.2
		c-0.3,0-0.6,0.1-0.8,0.3c-0.3,0.3-0.5,0.4-0.5,0.4c-0.1,0-0.2-0.2-0.5-0.5c-0.2-0.2-0.4-0.5-0.6-0.7c0-0.1-0.1-0.1-0.1-0.1
		c0,0,0,0,0,0c0.9-0.6,1.1-1.4,0.6-2.3c-0.2-1-0.8-1.5-1.6-1.6c-0.1,0-0.2,0-0.3,0c0,0,0,0,0-0.1c0-0.6,0-1.1,0.1-1.6c0,0,0,0,0-0.1
		c0,0,0,0,0,0c0,0,0,0,0.1,0c0.1,0,0.2,0,0.3,0c0.9,0.1,1.5-0.4,1.7-1.3c0-0.1,0.1-0.3,0.2-0.4l0-0.1c0.3-0.5,0.3-1-0.1-1.4
		c0,0,0,0,0,0c-0.3-0.3-0.4-0.4-0.4-0.5c0.1-0.1,0.4-0.4,0.5-0.5c0.2-0.2,0.5-0.4,0.7-0.6c0,0,0.1,0,0.1-0.1c0,0,0,0,0,0
		c0.3,0.5,0.8,0.8,1.3,0.8c0.4,0,0.7-0.1,1-0.2c0.6-0.2,1.7-0.6,1.6-2c0.3,0,0.6,0,0.8,0c0.3,0,0.6,0,0.9,0.1c0,0,0,0,0,0
		c-0.2,1.2,0.4,1.7,1.2,2c0.3,0.2,0.7,0.3,1.1,0.4c0.5,0,1-0.2,1.4-0.6c0.4,0.4,0.8,0.9,1.1,1.3c0,0,0,0,0,0c0,0,0,0,0,0
		c-1,0.7-0.9,1.5-0.6,2.3c0.2,0.6,0.5,1.5,1.7,1.6c0.1,0,0.2,0,0.3,0c0,0,0,0,0,0.1C38.7,31.3,38.7,31.9,38.7,32.4z"/>
</g>
</svg>
