<?xml version="1.0" encoding="UTF-8"?>
<!-- Generator: Adobe Illustrator 19.2.0, SVG Export Plug-In . SVG Version: 6.00 Build 0)  -->
<svg version="1.1" id="Layer_1" xmlns="http://www.w3.org/2000/svg" xmlns:xlink="http://www.w3.org/1999/xlink" x="0px" y="0px" viewBox="0 0 40 40" style="enable-background:new 0 0 40 40;" xml:space="preserve">
<style type="text/css">
	.st0{fill:#35c4ff;}
</style>
<g>
	<g>
		<path class="st0" d="M27.9,40C27.8,40,27.8,40,27.9,40c-5.8,0-10.8-4-12-9.6c-0.2-1-0.2-1.8-0.2-2.6c0-0.5,0-0.9,0.1-1.4    c0.7-5.8,5.4-10.4,11.3-10.7c0.3,0,0.6,0,0.8,0c1,0,1.8,0.1,2.8,0.3c5.5,1.2,9.4,6.1,9.4,11.8c0,3.3-1.3,6.3-3.6,8.6    C34.2,38.8,31.1,40,27.9,40z M27.8,17c-0.2,0-0.4,0-0.6,0h-0.1c-5.3,0.3-9.5,4.4-10.1,9.6c0,0.4-0.1,0.8-0.1,1.2    c0,0.7,0.1,1.4,0.2,2.3c1,4.9,5.5,8.5,10.6,8.5c2.9,0,5.7-1.1,7.7-3.1c2-2,3.2-4.8,3.2-7.7c0-5.1-3.4-9.4-8.4-10.6    C29.5,17.1,28.7,17,27.8,17z"/>
	</g>
	<path class="st0" d="M14.3,19.2h0.9c0.4-0.6,0.9-1.2,1.4-1.7h-2.3c-0.5,0-0.9,0.4-0.9,0.9C13.4,18.9,13.8,19.2,14.3,19.2z"/>
	<path class="st0" d="M9.7,18.4c0,0.5-0.4,0.9-0.9,0.9H5.9c-0.5,0-0.9-0.4-0.9-0.9c0-0.5,0.4-0.9,0.9-0.9h2.9   C9.3,17.5,9.7,17.9,9.7,18.4L9.7,18.4z"/>
	<path class="st0" d="M9.7,24.3c0,0.5-0.4,0.9-0.9,0.9H5.9c-0.5,0-0.9-0.4-0.9-0.9s0.4-0.9,0.9-0.9h2.9C9.3,23.4,9.7,23.8,9.7,24.3   L9.7,24.3z"/>
	<path class="st0" d="M9.7,30.3c0,0.5-0.4,0.9-0.9,0.9H5.9c-0.5,0-0.9-0.4-0.9-0.9s0.4-0.9,0.9-0.9h2.9C9.3,29.4,9.7,29.8,9.7,30.3   L9.7,30.3z"/>
	<path class="st0" d="M15.2,35.1H3c-0.7,0-1.2-0.5-1.2-1.2V13.5h36.4v3.2L40,18V6.9c0-1.6-1.4-3-3-3h-3.9V1.7c0-0.9-0.8-1.7-1.7-1.7   H29c-0.9,0-1.7,0.8-1.7,1.7v2.2H12.9V1.7c0-0.9-0.8-1.7-1.7-1.7H8.9C7.9,0,7.2,0.8,7.2,1.7v2.2H3c-1.6,0-3,1.4-3,3v27   c0,1.6,1.4,3,3,3h12.8L15.2,35.1z M29.1,1.8h2.3v5.3h-2.2L29.1,1.8L29.1,1.8z M8.9,1.8h2.2v5.3H8.9V1.8z M1.8,6.9   c0-0.7,0.5-1.2,1.2-1.2h4.1v1.6c0,0.9,0.8,1.7,1.7,1.7h2.4c0.9,0,1.7-0.8,1.7-1.7V5.7h14.3v1.6c0,0.9,0.8,1.7,1.7,1.7h2.4   c0.9,0,1.7-0.8,1.7-1.7V5.7h4c0.7,0,1.2,0.5,1.2,1.2v4.8H1.8V6.9z"/>
	<path class="st0" d="M15.2,23.4h-0.8c-0.5,0-0.9,0.4-0.9,0.9s0.4,0.9,0.9,0.9h0.3C14.8,24.6,15,24,15.2,23.4z"/>
	<path class="st0" d="M14.7,30.6c-0.1-0.4-0.1-0.8-0.2-1.2h-0.2c-0.5,0-0.9,0.4-0.9,0.9s0.4,0.9,0.9,0.9h0.5   C14.8,31,14.7,30.8,14.7,30.6z"/>
	<g>
		<path class="st0" d="M33.7,34.1c-1.2,0-2.2-1-2.2-2.2c0-1.2,1-2.2,2.2-2.2c0,0,0.1,0,0.1,0c0.1-0.3,0.1-0.7,0.1-1    c0-2.1-1.1-4.1-2.9-5.2c-0.1-0.1-0.2-0.2-0.3-0.4c0-0.2,0-0.3,0.1-0.5c0.1-0.2,0.3-0.3,0.5-0.3c0.1,0,0.2,0,0.3,0.1    c2.2,1.3,3.5,3.6,3.5,6.2c0,0.5,0,0.9-0.1,1.4c0.6,0.4,0.9,1.1,0.9,1.8C35.9,33.1,34.9,34.1,33.7,34.1z M33.7,30.9    c-0.6,0-1,0.4-1,1c0,0.6,0.4,1,1,1s1-0.4,1-1C34.7,31.3,34.2,30.9,33.7,30.9z"/>
		<path class="st0" d="M27.8,35.9c-1.9,0-3.7-0.7-5-2c-0.3,0.1-0.5,0.2-0.8,0.2c-1.2,0-2.2-1-2.2-2.2c0-1.2,1-2.2,2.2-2.2    s2.2,1,2.2,2.2c0,0.5-0.1,0.9-0.4,1.3c1.1,1,2.6,1.6,4.1,1.6c0.8,0,1.6-0.2,2.3-0.5c0.1,0,0.2,0,0.2,0c0.2,0,0.5,0.1,0.6,0.4    c0.1,0.1,0.1,0.3,0,0.5c-0.1,0.1-0.2,0.3-0.3,0.3C29.7,35.7,28.8,35.9,27.8,35.9z M22,30.9c-0.6,0-1,0.4-1,1c0,0.6,0.4,1,1,1    s1-0.4,1-1C23,31.3,22.5,30.9,22,30.9z"/>
		<path class="st0" d="M21.1,28.8L21.1,28.8c-0.2,0-0.3-0.1-0.4-0.2c-0.1-0.1-0.2-0.3-0.1-0.4c0.2-3,2.2-5.5,5.1-6.4    c0.1-1.1,1.1-1.9,2.2-1.9c1.2,0,2.2,1,2.2,2.2s-1,2.2-2.2,2.2c-0.9,0-1.6-0.5-2-1.3c-2.3,0.8-3.9,2.8-4.1,5.3    C21.7,28.5,21.5,28.8,21.1,28.8L21.1,28.8z M27.8,21c-0.6,0-1,0.4-1,1s0.4,1,1,1s1-0.4,1-1S28.4,21,27.8,21z"/>
	</g>
</g>
</svg>