<?xml version="1.0" encoding="utf-8"?>
<!-- Generator: Adobe Illustrator 19.2.0, SVG Export Plug-In . SVG Version: 6.00 Build 0)  -->
<svg version="1.1" id="Layer_1" xmlns="http://www.w3.org/2000/svg" xmlns:xlink="http://www.w3.org/1999/xlink" x="0px" y="0px"
	 viewBox="0 0 40 40" style="enable-background:new 0 0 40 40;" xml:space="preserve">
<style type="text/css">
	.st0{fill:#35c4ff;}
</style>
<g>
	<path class="st0" d="M35.1,4.1h-8c-0.5,0-0.8,0.2-0.8,0.5s0.4,0.5,0.8,0.5h8c0.5,0,0.8-0.2,0.8-0.5C35.9,4.3,35.5,4.1,35.1,4.1
		L35.1,4.1z"/>
	<path class="st0" d="M35.1,10.3h-8c-0.5,0-0.8,0.2-0.8,0.5c0,0.3,0.4,0.5,0.8,0.5h8c0.5,0,0.8-0.2,0.8-0.5
		C35.9,10.5,35.5,10.3,35.1,10.3L35.1,10.3z"/>
	<path class="st0" d="M34.8,7H24.5c-0.6,0-1.1,0.2-1.1,0.5c0,0.3,0.5,0.5,1.1,0.5h10.3c0.6,0,1.1-0.2,1.1-0.5
		C35.9,7.2,35.4,7,34.8,7L34.8,7z"/>
	<g>
		<g>
			<path class="st0" d="M20.1,37h2.5l1.3,2.5c0.3,0.5,1,0.5,1.3,0.1l3.4-5.4c0.7,0.5,1.6,0.5,2.3-0.1l3.4,5.5c0.3,0.5,1,0.5,1.3-0.1
				l1.3-2.5h2.5c0.6,0,0.9-0.7,0.6-1.1L36,30.1l0.6-0.2c1.1-0.4,1.6-1.8,0.9-2.8L37,26.4c-0.1-0.2-0.1-0.4,0-0.6l0.5-0.7
				c0.7-1,0.2-2.4-0.9-2.8l-0.8-0.3c-0.2-0.1-0.3-0.2-0.3-0.4l0-0.9c-0.1-1.2-1.2-2.1-2.4-1.8l-0.9,0.2c-0.2,0-0.4,0-0.5-0.2
				l-0.6-0.7l0,0c-0.8-0.9-2.2-0.9-3,0l-0.6,0.7c-0.1,0.1-0.3,0.2-0.5,0.2l-0.9-0.2c-1.2-0.3-2.3,0.5-2.4,1.8l0,0.9
				c0,0.2-0.1,0.3-0.3,0.4l-0.8,0.3c-1.1,0.4-1.6,1.8-0.9,2.8l0.5,0.8c0.1,0.1,0.1,0.3,0,0.5l-0.5,0.8c-0.7,1-0.2,2.4,0.9,2.8
				l0.7,0.3l-3.9,5.8C19.2,36.4,19.5,37,20.1,37z M36.3,35.6c-0.3,0-0.5,0.2-0.7,0.4l-0.9,1.8l-3-4.7c0.1,0,0.2,0,0.3,0l0.9,0.2
				c1.1,0.3,2.1-0.4,2.4-1.4l2.5,3.8L36.3,35.6L36.3,35.6z M22.9,27.9l0.5-0.8c0.4-0.6,0.4-1.5,0-2.1l-0.5-0.8
				c-0.2-0.2-0.1-0.6,0.2-0.7l0.8-0.3c0.7-0.3,1.2-0.9,1.2-1.7l0-0.9c0-0.3,0.3-0.5,0.6-0.4l0.9,0.2c0.7,0.2,1.5-0.1,2-0.6l0.6-0.7
				c0.2-0.2,0.5-0.2,0.7,0l0.6,0.7c0.5,0.6,1.3,0.8,2,0.6l0.9-0.2c0.3-0.1,0.5,0.1,0.6,0.4l0,0.9c0,0.8,0.5,1.4,1.2,1.7l0.8,0.3
				c0.3,0.1,0.4,0.4,0.2,0.7l-0.5,0.7c-0.4,0.7-0.4,1.5,0,2.2l0.5,0.7c0.2,0.2,0.1,0.6-0.2,0.7l-0.8,0.3c-0.3,0.1-0.6,0.3-0.8,0.6
				c0,0,0,0,0,0.1c-0.2,0.3-0.4,0.7-0.4,1l0,0.9c0,0.3-0.3,0.5-0.6,0.4l-0.9-0.2c-0.7-0.2-1.5,0.1-2,0.6L30,32.9
				c-0.2,0.2-0.5,0.2-0.7,0l-0.6-0.7c-0.4-0.5-0.9-0.7-1.5-0.7c-0.2,0-0.3,0-0.5,0.1l-0.9,0.2c-0.3,0.1-0.5-0.1-0.6-0.4l0-0.9
				c0-0.8-0.5-1.4-1.2-1.7l-0.8-0.3C22.9,28.4,22.8,28.1,22.9,27.9z M23.9,32c0.3,0.9,1.3,1.5,2.3,1.3l0.9-0.2c0.1,0,0.3,0,0.4,0.1
				l-2.9,4.6L23.7,36c-0.1-0.2-0.4-0.4-0.7-0.4h-1.6L23.9,32z"/>
			<path class="st0" d="M29.6,30.5c2.4,0,4.4-2,4.4-4.4s-2-4.4-4.4-4.4s-4.4,2-4.4,4.4C25.2,28.5,27.2,30.5,29.6,30.5z M29.6,23.1
				c1.6,0,2.9,1.3,2.9,2.9S31.2,29,29.6,29s-2.9-1.3-2.9-2.9C26.7,24.4,28,23.1,29.6,23.1z"/>
		</g>
		<path class="st0" d="M15.5,32.7H2.3c-0.5,0-0.9-0.4-0.9-0.9V2.3c0-0.5,0.4-0.9,0.9-0.9h35.3c0.5,0,0.9,0.4,0.9,0.9v14.3
			c0.5,0.4,1,0.9,1.4,1.3V2.3C40,1,39,0,37.7,0H2.3C1,0,0,1,0,2.3v29.5c0,1.3,1,2.3,2.3,2.3H15C15.2,33.7,15.4,33.2,15.5,32.7z"/>
		<path class="st0" d="M11.5,14.3c-1.3,0-2.4-0.5-3.1-1.4C6.7,11.1,7,7.9,7,7.6c0.1-2.3,1.2-3.5,2.2-4C10.1,3.1,11.1,3,11.6,3h0.1
			c0.9,0,1.7,0.2,2.4,0.6c0.9,0.5,2,1.6,2.2,4c0,0.3,0.3,3.5-1.4,5.4c-0.8,0.9-1.8,1.3-3.1,1.4l0,0L11.5,14.3L11.5,14.3z M8.8,7.8
			c0,0-0.3,2.7,0.9,4c0.4,0.5,1.1,0.8,1.9,0.8h0c0.8,0,1.4-0.3,1.9-0.8c1.1-1.3,1-3.8,0.9-4c0,0,0-0.1,0-0.1
			c-0.1-2.4-1.6-2.9-2.8-2.9h0C10.6,4.7,8.9,5.1,8.8,7.8L8.8,7.8L8.8,7.8L8.8,7.8z"/>
		<path class="st0" d="M11.6,23.4c-5.1,0-8.2-2-8.2-2c-0.2-0.1-0.3-0.2-0.3-0.4c-0.2-0.6-0.2-1.8-0.2-2v0c0,0,0,0,0-0.1
			c0-0.8,0.1-2.9,2.1-3.6c0,0,0,0,0.1,0c1.8-0.5,3.3-1.5,3.3-1.5c0.2-0.1,0.3-0.2,0.5-0.2c0.3,0,0.6,0.1,0.7,0.4
			c0.1,0.2,0.2,0.4,0.1,0.7c0,0.2-0.2,0.4-0.4,0.6c-0.5,0.3-2,1.3-3.9,1.8c-0.7,0.2-0.8,0.9-0.8,2v0.1c0,0.3,0,0.7,0.1,1
			c0.8,0.5,3.3,1.6,6.9,1.6s6.1-1.1,6.9-1.6c0-0.3,0.1-0.7,0.1-1c0,0,0-0.1,0-0.1c0-1-0.2-1.7-0.9-2c-2.1-0.5-3.8-1.7-3.8-1.8
			c-0.4-0.3-0.5-0.8-0.2-1.2c0.2-0.2,0.4-0.4,0.7-0.4c0.2,0,0.4,0.1,0.5,0.2c0,0,1.5,1,3.3,1.5l0.1,0c2,0.7,2.1,2.8,2.1,3.6
			c0,0,0,0.1,0,0.1c0,0.2,0,1.4-0.2,2c-0.1,0.2-0.2,0.3-0.3,0.4C19.4,21.6,16.5,23.4,11.6,23.4z"/>
	</g>
</g>
</svg>
