<?xml version="1.0" encoding="utf-8"?>
<!-- Generator: Adobe Illustrator 19.2.0, SVG Export Plug-In . SVG Version: 6.00 Build 0)  -->
<svg version="1.1" id="Layer_1" xmlns="http://www.w3.org/2000/svg" xmlns:xlink="http://www.w3.org/1999/xlink" x="0px" y="0px"
	 viewBox="0 0 40 40" style="enable-background:new 0 0 40 40;" xml:space="preserve">
<style type="text/css">
	.st0{fill:#35c4ff;}
</style>
<g>
	<path class="st0" d="M9.7,18.4c0,0.5-0.4,0.9-0.9,0.9H5.9c-0.5,0-0.9-0.4-0.9-0.9c0-0.5,0.4-0.9,0.9-0.9h2.9
		C9.3,17.5,9.7,17.9,9.7,18.4L9.7,18.4z"/>
	<path class="st0" d="M9.7,24.3c0,0.5-0.4,0.9-0.9,0.9H5.9c-0.5,0-0.9-0.4-0.9-0.9s0.4-0.9,0.9-0.9h2.9C9.3,23.4,9.7,23.8,9.7,24.3
		L9.7,24.3z"/>
	<path class="st0" d="M9.7,30.3c0,0.5-0.4,0.9-0.9,0.9H5.9c-0.5,0-0.9-0.4-0.9-0.9s0.4-0.9,0.9-0.9h2.9C9.3,29.4,9.7,29.8,9.7,30.3
		L9.7,30.3z"/>
	<path class="st0" d="M17.5,18.4c0,0.5-0.4,0.9-0.9,0.9h-2.3c-0.5,0-0.9-0.4-0.9-0.9c0-0.5,0.4-0.9,0.9-0.9h2.3
		C17.1,17.5,17.5,17.9,17.5,18.4L17.5,18.4z"/>
	<path class="st0" d="M17.5,24.3c0,0.5-0.4,0.9-0.9,0.9h-2.3c-0.5,0-0.9-0.4-0.9-0.9s0.4-0.9,0.9-0.9h2.3
		C17.1,23.4,17.5,23.8,17.5,24.3L17.5,24.3z"/>
	<path class="st0" d="M17.5,30.3c0,0.5-0.4,0.9-0.9,0.9h-2.3c-0.5,0-0.9-0.4-0.9-0.9s0.4-0.9,0.9-0.9h2.3
		C17.1,29.4,17.5,29.8,17.5,30.3L17.5,30.3z"/>
	<path class="st0" d="M15.2,35.1H3c-0.7,0-1.2-0.5-1.2-1.2V13.5h36.4v0.9l1.8,1.2V6.9c0-1.6-1.4-3-3-3h-3.9V1.7
		c0-0.9-0.8-1.7-1.7-1.7H29c-0.9,0-1.7,0.8-1.7,1.7v2.2H12.9V1.7c0-0.9-0.8-1.7-1.7-1.7H8.9C7.9,0,7.2,0.8,7.2,1.7v2.2H3
		c-1.6,0-3,1.4-3,3v27c0,1.6,1.4,3,3,3h12.8L15.2,35.1z M29.1,1.8h2.3v5.3h-2.2L29.1,1.8L29.1,1.8z M8.9,1.8h2.2v5.3H8.9V1.8z
		 M1.8,6.9c0-0.7,0.5-1.2,1.2-1.2h4.1v1.6c0,0.9,0.8,1.7,1.7,1.7h2.4c0.9,0,1.7-0.8,1.7-1.7V5.7h14.3v1.6c0,0.9,0.8,1.7,1.7,1.7h2.4
		c0.9,0,1.7-0.8,1.7-1.7V5.7h4c0.7,0,1.2,0.5,1.2,1.2v4.8H1.8V6.9z"/>
	<g>
		<path class="st0" d="M40,29.1C40,35,35,40,29.1,40c-5.8,0-10.9-5-10.9-10.8c0-5.9,5-10.9,10.9-10.9C34.9,18.2,40,23.3,40,29.1z
			 M29.1,20.4c-5,0-8.7,3.8-8.8,8.7c0,5,3.7,8.7,8.7,8.8c5,0,8.7-3.7,8.8-8.7C37.9,24.2,34.1,20.4,29.1,20.4z"/>
		<path class="st0" d="M30,28.2c0.2,0,0.3,0,0.5,0c1.4,0,2.9,0,4.3,0c0.7,0,1.2,0.4,1.2,1.1c0,0.6-0.5,1.1-1.2,1.1
			c-1.9,0-3.8,0-5.7,0c-0.7,0-1.2-0.4-1.2-1.1c0-1.9,0-3.9,0-5.8c0-0.6,0.4-1,0.9-1.1s1,0.2,1.2,0.7c0.1,0.2,0.1,0.4,0.1,0.6
			c0,1.4,0,2.8,0,4.1C30,27.9,30,28,30,28.2z"/>
	</g>
</g>
</svg>
