<?xml version="1.0" encoding="utf-8"?>
<!-- Generator: Adobe Illustrator 19.0.0, SVG Export Plug-In . SVG Version: 6.00 Build 0)  -->
<svg version="1.1" id="Layer_1" xmlns="http://www.w3.org/2000/svg" xmlns:xlink="http://www.w3.org/1999/xlink" x="0px" y="0px"
	 viewBox="-282 195.9 30 30" style="enable-background:new -282 195.9 30 30;" xml:space="preserve">
<style type="text/css">
	.st0{fill:#484D55;}
</style>
<path class="st0" d="M-254.4,197.6c-0.3-1-1.1-1.6-2.1-1.7h-0.1c-6.9,0-13.9,0-20.8,0c-0.3,0.1-0.6,0.1-0.8,0.2
	c-0.9,0.3-1.5,1.1-1.5,2.1c0,0.1,0,0.1,0,0.2c0,8.4,0,16.8,0,25.1c0,0.9,0.3,1.6,1.1,2c0.3,0.3,0.8,0.4,1.2,0.4c2,0,4,0,6,0
	c4.9,0,9.8,0,14.7,0c1.1,0,2-0.7,2.3-1.7c0-0.2,0.1-0.3,0.1-0.5c0-8.5,0-17,0-25.5C-254.3,198-254.3,197.8-254.4,197.6z M-256,222.6
	c0,0.7-0.3,1.2-0.9,1.5c-0.2,0.1-0.5,0.2-0.7,0.2c-6.2,0-12.5,0-18.7,0c-0.8,0-1.4-0.5-1.6-1.3c0-0.1,0-0.2,0-0.4
	c0-3.9,0-7.8,0-11.7s0-7.8,0-11.7c0-0.6,0.2-1.1,0.8-1.4c0.1-0.2,0.4-0.3,0.6-0.3h0.1c6.2,0,12.4,0,18.7,0c0.6,0,1.1,0.2,1.4,0.8
	c0.2,0.3,0.3,0.6,0.3,0.9c0,3.6,0,7.2,0,10.8C-256,214.2-256,218.4-256,222.6z"/>
<g>
	<path class="st0" d="M-266.6,203.4h2v4.2h-2V203.4z"/>
	<path class="st0" d="M-263.6,201.6h2v6.1h-2V201.6z"/>
	<path class="st0" d="M-260.6,199.2h2v8.4h-2V199.2z"/>
</g>
<g id="PU8nnU.tif">
	<g>
		<path class="st0" d="M-268.7,205.9c0-0.3-0.1-0.6-0.3-0.8c-0.2-0.4-0.5-0.6-0.9-0.7c-0.2-0.1-0.4-0.2-0.7-0.3
			c-0.1,0-0.3-0.2-0.4-0.3c-0.1,0.1-0.2,0.2-0.4,0.3c-0.3,0.2-0.5,0.3-0.8,0.3c-0.3,0-0.6-0.1-0.8-0.3c-0.2,0-0.3-0.2-0.4-0.3
			c-0.1,0.1-0.2,0.1-0.2,0.2c-0.3,0.2-0.6,0.3-1,0.4c-0.2,0.1-0.4,0.2-0.6,0.3c-0.3,0.3-0.5,0.7-0.6,1.2c-0.1,0.4-0.1,0.7,0,1.1
			c0,0.2,0.1,0.5,0.1,0.7c0,0,0,0.1,0.1,0.1c0.2,0.1,0.4,0.1,0.5,0.2c0.7,0.2,1.4,0.3,2.1,0.3c0.1,0,0.2,0,0.3,0c0.3,0,0.7,0,1,0
			l0,0c0.5,0,1-0.1,1.6-0.1c0.4-0.1,0.9-0.2,1.3-0.3c0.1,0,0.1-0.1,0.1-0.1c0.1-0.3,0.1-0.6,0.1-0.9
			C-268.6,206.5-268.7,206.2-268.7,205.9z"/>
		<path class="st0" d="M-272.4,199.2c0.2,0.1,0.3,0.1,0.5,0.2c0.3,0.1,0.6,0.3,0.9,0.5c0.2,0.2,0.4,0.4,0.3,0.7c0,0.2,0,0.5-0.1,0.7
			c0,0.1,0,0.1,0,0.1l0.1,0.1c0,0.2-0.1,0.4-0.2,0.6c-0.1,0.1-0.1,0.2-0.1,0.4c-0.2,0.4-0.4,0.8-0.8,1.1c-0.2,0.3-0.6,0.3-1,0.1
			c-0.3-0.2-0.6-0.5-0.7-0.9c-0.1-0.1-0.1-0.3-0.2-0.5v-0.1c-0.1-0.1-0.2-0.4-0.2-0.6c0-0.1,0-0.1,0.1-0.2v-0.1
			c0-0.3-0.1-0.5-0.1-0.8c0-0.3,0.1-0.5,0.3-0.7c0.3-0.2,0.6-0.4,0.9-0.5h0.1C-272.5,199.2-272.4,199.2-272.4,199.2z"/>
	</g>
</g>
<path class="st0" d="M-264.6,209.1c0.2,0,0.3,0,0.5,0.1c1.5,0.3,2.6,1.1,3.3,2.5c0.4,0.7,0.5,1.5,0.5,2.3c0,0.8-0.3,1.5-0.7,2.2
	c0,0,0,0,0,0.1c0,0,0.1,0,0.1,0.1c0.9,0.9,1.8,1.8,2.7,2.7c0.5,0.5,0.3,1.2-0.3,1.4c-0.3,0.1-0.6,0.1-0.9-0.1
	c-0.3-0.3-0.6-0.6-0.8-0.8c-0.1-0.1-0.2-0.2-0.3-0.2c-0.6-0.6-1.1-1.1-1.7-1.7l0,0c0,0-0.1,0-0.1,0.1c-0.7,0.5-1.4,0.7-2.2,0.8
	c-2.3,0.2-4.4-1.3-4.9-3.6c-0.5-2.5,1-5,3.5-5.5c0.2,0,0.4-0.1,0.6-0.1c0,0,0,0,0.1,0C-265,209.1-264.8,209.1-264.6,209.1z
	 M-261.9,213.8c0-1.7-1.3-3.1-3.1-3.1c-1.7,0-3.1,1.4-3.1,3.1s1.4,3.1,3.1,3.1S-261.9,215.5-261.9,213.8z"/>
<path class="st0" d="M-268,218c0.1,0.1,0.3,0.2,0.4,0.3c0.1,0.1,0.3,0.2,0.4,0.2c-0.1,0.1-0.1,0.2-0.2,0.3c-0.2,0.4-0.5,0.8-0.7,1.2
	c0,0.1,0,0.1,0,0.1c0.4,0.7-0.1,1.6-1,1.7c-0.2,0-0.4-0.1-0.6-0.2c-0.3-0.2-0.5-0.5-0.5-0.8c0-0.2,0-0.5,0.1-0.7V220
	c-0.5-0.6-0.9-1.2-1.4-1.9c0-0.1-0.1-0.1-0.1,0c-0.2,0.1-0.4,0.1-0.7,0c-0.2,0.3-0.3,0.6-0.5,0.8c-0.4,0.7-0.8,1.3-1.2,2
	c0,0.1,0,0.1,0,0.1c0.5,0.7,0.1,1.6-0.7,1.8c-0.6,0.1-1.2-0.4-1.3-1.1c0-0.6,0.4-1.1,1.1-1.2c0.1,0,0.1,0,0.2,0c0.1,0,0.2,0,0.2-0.1
	c0.1-0.2,0.3-0.5,0.4-0.7c0.4-0.7,0.8-1.4,1.2-2c0-0.1,0-0.1,0-0.2c-0.1-0.3-0.1-0.8,0.2-1.2c0.3-0.4,0.7-0.5,1.1-0.4
	c0.5,0.1,0.7,0.4,0.8,0.9c0.1,0.2,0,0.5-0.1,0.7c0,0.1,0,0.1,0,0.1c0.5,0.6,0.9,1.3,1.4,1.9c0,0,0.1,0.1,0.1,0c0.1,0,0.2,0,0.3,0
	s0.1,0,0.1-0.1C-268.6,219-268.3,218.5-268,218L-268,218z"/>
<path class="st0" d="M-265.8,216.2c-0.3-0.1-0.6-0.3-0.8-0.5v-0.1c0.2-0.4,0.5-0.8,0.7-1.1v-0.1c-0.2-0.3-0.2-0.6-0.1-1
	c0.1-0.3,0.3-0.5,0.5-0.6c0.8-0.4,1.6,0.2,1.6,1c0,0.6-0.5,1.1-1.1,1.1c-0.1,0-0.1,0-0.2,0.1C-265.3,215.4-265.6,215.8-265.8,216.2
	L-265.8,216.2z"/>
</svg>
