<?xml version="1.0" encoding="utf-8"?>
<!-- Generator: Adobe Illustrator 19.2.0, SVG Export Plug-In . SVG Version: 6.00 Build 0)  -->
<svg version="1.1" id="Layer_1" xmlns="http://www.w3.org/2000/svg" xmlns:xlink="http://www.w3.org/1999/xlink" x="0px" y="0px"
	 viewBox="0 0 40 40" style="enable-background:new 0 0 40 40;" xml:space="preserve">
<style type="text/css">
	.st0{fill:#484D55;}
</style>
<g>
	<path class="st0" d="M3.3,20c0-5.5,0-10.9,0-16.4c0-0.5,0-1.1,0-1.6C3.5,0.9,4.5,0,5.7,0c3.8,0,7.7,0,11.5,0c5.7,0,11.4,0,17.1,0
		c1.1,0,2.1,0.7,2.3,1.8c0.1,0.5,0,1,0.1,1.5c0,0.2,0,0.3,0,0.5c0,4.8,0,9.7,0,14.5c0,5.9,0,11.9,0,17.8c0,0.6,0,1.1,0,1.7
		c-0.1,1.2-1.1,2.1-2.3,2.1c-3.4,0-6.7,0-10.1,0c-6.2,0-12.3,0-18.5,0c-1.4,0-2.4-1-2.4-2.4c0-5.2,0-10.5,0-15.7
		C3.3,21.3,3.3,20.7,3.3,20z M4.9,20c0,1.2,0,2.4,0,3.6c0,4.6,0,9.3,0,13.9c0,0.7,0.3,1,1,1c4.9,0,9.8,0,14.8,0c4.5,0,9.1,0,13.6,0
		c0.6,0,0.9-0.3,0.9-0.9c0-0.9,0-1.8,0-2.6c0-6,0-11.9,0-17.9c0-4.9,0-9.8,0-14.6c0-0.6-0.3-1-1-1c-5.1,0-10.2,0-15.3,0
		c-4.4,0-8.8,0-13.1,0c-0.6,0-0.9,0.3-0.9,0.9c0,0.9,0,1.9,0,2.8C4.9,10.2,4.9,15.1,4.9,20z"/>
	<path class="st0" d="M27.3,23.4c2.3,0,4.8,1.3,5.9,3.8c1.2,2.6,0.5,5.6-1.5,7.5c-2.2,2-5.2,2.1-7.2,1.1c0.1-0.3,0.3-0.6,0.4-0.9
		c0.6-1.2,1.2-2.5,1.8-3.7c0.1-0.3,0.3-0.6,0.4-0.8c0.2-0.3,0.2-0.6,0.2-0.9c0-1.9,0-3.8,0-5.7C27.3,23.6,27.3,23.5,27.3,23.4z"/>
	<path class="st0" d="M19.9,30.2c2.2,0,4.3,0,6.5,0c-0.9,2-1.9,3.9-2.8,5.8C21.5,35.1,19.8,32.7,19.9,30.2z"/>
	<path class="st0" d="M27.6,6.4c-1.6,0-3.2,0-4.7,0c-0.7,0-1.1-0.6-0.9-1.2c0.1-0.4,0.5-0.7,1-0.7c1.3,0,2.7,0,4,0
		c1.8,0,3.6,0,5.4,0c0.6,0,1,0.4,1,0.9s-0.4,1-1,1C30.8,6.4,29.2,6.4,27.6,6.4z"/>
	<path class="st0" d="M27.6,18.2c-1.6,0-3.1,0-4.7,0c-0.5,0-0.9-0.3-1-0.8c-0.1-0.4,0.2-0.9,0.7-1.1c0.1,0,0.2,0,0.3,0
		c3.1,0,6.3,0,9.4,0c0.4,0,0.7,0.2,0.9,0.6c0.2,0.4,0.1,0.7-0.1,1c-0.2,0.3-0.5,0.3-0.8,0.3C30.7,18.2,29.2,18.2,27.6,18.2
		L27.6,18.2z"/>
	<path class="st0" d="M12.7,36.4c-1.6,0-3.2,0-4.7,0c-0.8,0-1.2-0.7-0.9-1.4c0.2-0.4,0.5-0.5,0.9-0.5c0.9,0,1.8,0,2.7,0
		c2.2,0,4.5,0,6.7,0c0.7,0,1.2,0.6,1,1.3c-0.1,0.4-0.5,0.6-0.9,0.6C15.9,36.4,14.3,36.4,12.7,36.4z"/>
	<path class="st0" d="M12.7,30.5c-1.6,0-3.1,0-4.7,0c-0.5,0-0.8-0.3-1-0.7c-0.1-0.4,0.1-0.9,0.4-1.1c0.2-0.1,0.3-0.1,0.5-0.1
		c1.9,0,3.8,0,5.8,0c1.2,0,2.5,0,3.7,0c0.6,0,1,0.4,1,1c0,0.5-0.4,1-1,1C15.8,30.5,14.3,30.5,12.7,30.5z"/>
	<path class="st0" d="M12.7,24.6c-1.6,0-3.2,0-4.7,0c-0.4,0-0.7-0.1-0.9-0.5c-0.2-0.4-0.2-0.7,0.1-1c0.2-0.3,0.5-0.4,0.9-0.4
		c2.9,0,5.7,0,8.6,0c0.3,0,0.5,0,0.8,0c0.6,0,1,0.4,1,0.9c0,0.6-0.4,1-1,1C15.9,24.6,14.3,24.6,12.7,24.6z"/>
	<path class="st0" d="M27.6,12.3c-1.6,0-3.2,0-4.7,0c-0.5,0-0.8-0.3-0.9-0.7c-0.1-0.4,0-0.9,0.4-1.1c0.2-0.1,0.4-0.2,0.5-0.2
		c1.4,0,2.9,0,4.3,0c1.4,0,2.8,0,4.2,0c0.3,0,0.7,0,1,0c0.5,0,0.9,0.4,0.9,0.9c0,0.4-0.2,0.9-0.7,1c-0.1,0-0.3,0-0.4,0
		C30.7,12.3,29.2,12.3,27.6,12.3L27.6,12.3z"/>
	<path class="st0" d="M8,16.8c0.1,0,0.2,0,0.3,0c2.8,0,5.5,0,8.3,0c0.9,0,1.8,0,2.7,0c0.3,0,0.4,0.1,0.4,0.4c0,0.2-0.1,0.4-0.4,0.4
		c-0.1,0-0.2,0-0.3,0c-0.7,0-1.4,0-2.1,0c-3,0-6.1,0-9.1,0c-0.1,0-0.2,0-0.3,0c-0.2,0-0.3-0.2-0.3-0.4c0-0.1,0-0.2,0-0.3
		c0-3.8,0-7.5,0-11.3c0-0.2,0-0.4,0.2-0.5C7.7,5,8,5.1,8,5.4c0,0.1,0,0.1,0,0.2c0,2.4,0,4.9,0,7.3c0,1.2,0,2.4,0,3.6
		C8,16.6,8,16.7,8,16.8z"/>
	<path class="st0" d="M8.3,16.6c-0.1-0.7-0.1-1.4,0.3-2.1c0.3-0.6,0.6-1.2,0.9-1.8c0.1-0.3,0.3-0.3,0.6-0.2c0.7,0.3,1.4,0.6,2.1,0.9
		c0.3-0.6,0.6-1.2,0.9-1.8c0.1-0.3,0.3-0.5,0.4-0.8c0.1-0.2,0.2-0.3,0.5-0.2c0.5,0.2,1.1,0.3,1.6,0.5c0.1,0,0.2,0,0.3-0.1
		c0.8-1.4,1.7-2.9,2.5-4.3c0,0,0,0,0-0.1c-0.1,0-0.2,0-0.3,0c0.5-0.4,0.9-0.7,1.4-1c-0.1,0.6-0.2,1.1-0.2,1.7C19,7.1,19,7.1,18.9,7
		c-0.1,0.2-0.3,0.5-0.4,0.7c-0.8,1.3-1.5,2.6-2.3,4c-0.2,0.3-0.3,0.3-0.6,0.2c-0.6-0.2-1.1-0.3-1.7-0.5c-0.2,0.4-0.4,0.8-0.6,1.2
		c-0.2,0.5-0.4,0.9-0.7,1.4c-0.2,0.3-0.3,0.4-0.6,0.2c-0.6-0.3-1.2-0.5-1.8-0.8c-0.1,0-0.1,0-0.2-0.1C9.4,14.3,8.9,15.5,8.3,16.6z"
		/>
	<path class="st0" d="M19,7.7c0,2.9,0,5.9,0,8.8c-0.5,0-1,0-1.5,0c0-0.1,0-0.2,0-0.2c0-2,0-4,0-6c0-0.1,0-0.3,0.1-0.4
		c0.4-0.7,0.8-1.3,1.2-2c0-0.1,0.1-0.1,0.1-0.2C18.9,7.7,19,7.7,19,7.7z"/>
	<path class="st0" d="M26.6,22.7c0,2.2,0,4.3,0,6.5c-2.2,0-4.3,0-6.5,0C20,25.9,23,22.7,26.6,22.7z M20.6,28.8c1.9,0,3.8,0,5.6,0
		c0-1.9,0-3.8,0-5.6C23.1,23.3,20.6,26,20.6,28.8z"/>
	<path class="st0" d="M16.8,16.5c-0.5,0-1,0-1.5,0c0-1.5,0-3,0-4.4c0.3,0.1,0.6,0.3,0.9,0c0.2-0.2,0.4-0.5,0.6-0.8
		C16.8,13.1,16.8,14.8,16.8,16.5z"/>
	<path class="st0" d="M14.6,16.5c-0.5,0-1,0-1.5,0c0-0.1,0-0.2,0-0.2c0-0.7,0-1.4,0-2.1c0-0.2,0-0.4,0.1-0.6
		c0.3-0.6,0.6-1.3,0.9-1.9c0,0,0.1,0,0.1,0c0.4,0.1,0.4,0.1,0.4,0.6c0,1.3,0,2.6,0,3.9C14.6,16.3,14.6,16.4,14.6,16.5z"/>
	<path class="st0" d="M10.9,14c0.5,0.2,1,0.4,1.5,0.6c0,0.6,0,1.3,0,1.9c-0.5,0-1,0-1.5,0C10.9,15.7,10.9,14.8,10.9,14z"/>
	<path class="st0" d="M10.2,13.8c0,0.9,0,1.8,0,2.7c-0.5,0-0.9,0-1.4,0C9.2,15.6,9.7,14.7,10.2,13.8L10.2,13.8z"/>
</g>
</svg>
