<svg id="book" xmlns="http://www.w3.org/2000/svg" width="21.215" height="21.215" viewBox="0 0 21.215 21.215">
  <path id="Path_25" data-name="Path 25" d="M10.608,0h-4.6a.354.354,0,0,0-.354.354V2.829H.354A.354.354,0,0,0,0,3.182V20.862a.354.354,0,0,0,.354.354H10.608a.354.354,0,0,0,.354-.354V.354A.354.354,0,0,0,10.608,0Zm-.354,18.387H6.365v-.707h3.889ZM.707,5.3h4.95V15.911H.707Zm9.547-1.414H6.365V2.829h3.889ZM.707,16.619h4.95v1.061H.707Zm5.657.354V4.6h3.889V16.972ZM10.254.707V2.122H6.365V.707Zm-4.6,2.829V4.6H.707V3.536ZM.707,18.387h4.95v2.122H.707Zm5.657,2.122V19.094h3.889v1.414Zm0,0" fill="#fff"/>
  <path id="Path_26" data-name="Path 26" d="M258.24,80.531,254,64.266a.353.353,0,0,0-.433-.252l-5.3,1.414a.353.353,0,0,0-.251.431l4.243,16.265a.353.353,0,0,0,.433.252l5.3-1.414A.354.354,0,0,0,258.24,80.531ZM249.346,68.18l4.621-1.232.166.636-4.62,1.234Zm4.965.091,2.051,7.866-4.619,1.232L249.692,69.5Zm2.231,8.551.362,1.388-4.621,1.232-.361-1.387ZM253.4,64.788l.385,1.476L249.167,67.5l-.385-1.475ZM252.847,81.6l-.385-1.476,4.621-1.232.385,1.475Zm0,0" transform="translate(-237.037 -61.173)" fill="#fff"/>
  <path id="Path_27" data-name="Path 27" d="M35.182,144H32.354a.354.354,0,0,0-.354.354v2.829a.354.354,0,0,0,.354.354h2.829a.354.354,0,0,0,.354-.354v-2.829A.354.354,0,0,0,35.182,144Zm-.354,2.829H32.707v-2.122h2.122Zm0,0" transform="translate(-30.586 -137.635)" fill="#fff"/>
</svg>
