<?xml version="1.0" encoding="utf-8"?>
<!-- Generator: Adobe Illustrator 23.0.3, SVG Export Plug-In . SVG Version: 6.00 Build 0)  -->
<svg version="1.1" id="Layer_1" xmlns="http://www.w3.org/2000/svg" xmlns:xlink="http://www.w3.org/1999/xlink" x="0px" y="0px"
	 viewBox="0 0 150 150" style="enable-background:new 0 0 150 150;" xml:space="preserve">
<g>
	<path d="M57.9,130.5H23.2h-0.5V21.9h9.9c0.5,4.3,2.4,8.1,5.2,11V53c0,1.4,0.7,2.6,1.9,3.3c1.2,0.7,2.6,0.7,3.8,0l7.7-4.3l8.1,4.4
		c0.6,0.3,1.2,0.5,1.8,0.5c0.7,0,1.4-0.2,2-0.6c1.2-0.7,1.9-1.9,1.9-3.3V42.2c0-1.5-1.2-2.8-2.8-2.8s-2.8,1.2-2.8,2.8v8L53,46.8
		c-1.2-0.6-2.5-0.6-3.7,0l-6,3.3V36.9c2.4,1.1,5.1,1.8,8,1.8c9.7,0,17.7-7.4,18.7-16.8h41.8v54.3c0,1.5,1.2,2.8,2.8,2.8
		s2.8-1.2,2.8-2.8V19.4c0-1.7-1.4-3.1-3.1-3.1H69.7C68.1,7.6,60.4,1,51.2,1S34.4,7.6,32.7,16.3H20.2c-1.7,0-3.1,1.4-3.1,3.1v111.1
		h-3.2c-4.6,0-8.3-3.7-8.3-8.3V79c0,0,0-0.1,0.1-0.1h5c1.5,0,2.8-1.2,2.8-2.8s-1.2-2.8-2.8-2.8h-5C2.5,73.4,0,75.9,0,79v43.1
		c0,7.7,6.2,13.9,13.9,13.9h6.3h2.9h34.7c1.5,0,2.8-1.2,2.8-2.8C60.7,131.7,59.5,130.5,57.9,130.5z M51.2,6.5
		c7.3,0,13.3,6,13.3,13.3s-6,13.3-13.3,13.3c-7.3,0-13.3-6-13.3-13.3S43.9,6.5,51.2,6.5z"/>
	<path d="M97.6,34.9H84.7c-1.5,0-2.8,1.2-2.8,2.8s1.2,2.8,2.8,2.8h12.9c1.5,0,2.8-1.2,2.8-2.8S99.2,34.9,97.6,34.9z"/>
	<path d="M100.4,51.8c0-1.5-1.2-2.8-2.8-2.8H84.7c-1.5,0-2.8,1.2-2.8,2.8s1.2,2.8,2.8,2.8h12.9C99.2,54.6,100.4,53.3,100.4,51.8z"/>
	<path d="M46.8,80.7c-1.5,0-2.8,1.2-2.8,2.8s1.2,2.8,2.8,2.8h12.9c1.5,0,2.8-1.2,2.8-2.8s-1.2-2.8-2.8-2.8H46.8z"/>
	<path d="M90.1,69.5c0-1.5-1.2-2.8-2.8-2.8H46.8c-1.5,0-2.8,1.2-2.8,2.8s1.2,2.8,2.8,2.8h40.5C88.8,72.2,90.1,71,90.1,69.5z"/>
	<path d="M146.7,118.8v-16.1c0,0,0,0,0-0.1c0.1-0.2,0.1-0.5,0.1-0.7c0-1.3-0.8-2.5-2.1-2.9l-44.3-13.8c-0.6-0.2-1.2-0.2-1.8,0
		L54.3,99c-1.3,0.4-2.1,1.5-2.1,2.9s0.8,2.5,2.1,2.9l16.3,5.1v32.4c0,2,1.4,3.7,3.4,4.1c8.6,1.8,17.5,2.7,26.6,2.7
		c9.1,0,18.4-0.9,27.8-2.7c2-0.4,3.4-2.1,3.4-4.2v-21.3c0-1.5-1.2-2.8-2.8-2.8c-1.5,0-2.8,1.2-2.8,2.8V141
		c-17.3,3.2-34.2,3.2-50.1,0v-29.5l22.4,7c0.3,0.1,0.6,0.1,0.9,0.1c0.3,0,0.6,0,0.9-0.1l40.7-12.7v13c-1.4,1.9-3.3,4.8-3.3,6.8
		c0,3.4,2.7,6.1,6.1,6.1s6.1-2.7,6.1-6.1C150,123.5,148.1,120.7,146.7,118.8z M99.5,113l-35.7-11.2l35.7-11.2l35.7,11.2L99.5,113z"
		/>
</g>
</svg>
