<svg xmlns="http://www.w3.org/2000/svg" width="17.678" height="22.264" viewBox="0 0 17.678 22.264">
  <g id="Group_1716" data-name="Group 1716" transform="translate(-20.949 -345.926)">
    <g id="book" transform="translate(20.949 345.925)">
      <g id="Group_1703" data-name="Group 1703" transform="translate(0 0)">
        <path id="Path_2296" data-name="Path 2296" d="M67.064,5.787H53.5a2.284,2.284,0,0,1,0-4.567H67.068a.61.61,0,0,0,0-1.22H53.5A3.509,3.509,0,0,0,50,3.5V18.76a3.509,3.509,0,0,0,3.5,3.5H67.068a.61.61,0,0,0,.61-.61V6.4A.617.617,0,0,0,67.064,5.787Zm-.61,15.257H53.5A2.287,2.287,0,0,1,51.22,18.76V6.163a3.5,3.5,0,0,0,2.284.848h12.95V21.044Z" transform="translate(-50 0)" fill="#fff"/>
        <path id="Path_2297" data-name="Path 2297" d="M117.91,64.3a.61.61,0,1,0,0,1.22h11.455a.61.61,0,0,0,0-1.22Z" transform="translate(-114.214 -61.351)" fill="#fff"/>
      </g>
    </g>
    <g id="settings" transform="translate(24.54 354.515)">
      <g id="Group_1690" data-name="Group 1690" transform="translate(0 0)">
        <path id="Path_2288" data-name="Path 2288" d="M10.655,4.437,9.867,4.3a4.45,4.45,0,0,0-.317-.765l.464-.65a.692.692,0,0,0-.075-.894l-.7-.7a.689.689,0,0,0-.49-.2.682.682,0,0,0-.4.129L7.7,1.685A4.4,4.4,0,0,0,6.9,1.359L6.773.58A.693.693,0,0,0,6.088,0H5.1A.693.693,0,0,0,4.415.58l-.136.8a4.341,4.341,0,0,0-.762.321l-.645-.464a.693.693,0,0,0-.894.075l-.7.7A.694.694,0,0,0,1.2,2.9l.469.659a4.347,4.347,0,0,0-.312.767L.579,4.46A.693.693,0,0,0,0,5.145v.988a.693.693,0,0,0,.579.685l.8.136a4.341,4.341,0,0,0,.321.762l-.462.643a.692.692,0,0,0,.075.894l.7.7a.689.689,0,0,0,.49.2.682.682,0,0,0,.4-.129l.659-.469a4.438,4.438,0,0,0,.741.3l.131.788a.693.693,0,0,0,.685.579h.99a.693.693,0,0,0,.685-.579l.134-.788a4.45,4.45,0,0,0,.765-.317l.65.464a.689.689,0,0,0,.4.129h0a.689.689,0,0,0,.49-.2l.7-.7a.694.694,0,0,0,.075-.894l-.464-.652a4.419,4.419,0,0,0,.317-.765l.788-.131a.693.693,0,0,0,.579-.685V5.122A.685.685,0,0,0,10.655,4.437ZM10.6,6.11a.061.061,0,0,1-.052.061l-.985.164a.315.315,0,0,0-.253.232A3.755,3.755,0,0,1,8.9,7.55a.317.317,0,0,0,.014.345l.579.816a.064.064,0,0,1-.007.08l-.7.7a.06.06,0,0,1-.045.019A.058.058,0,0,1,8.71,9.5L7.9,8.918A.317.317,0,0,0,7.551,8.9a3.755,3.755,0,0,1-.983.408.311.311,0,0,0-.232.253l-.167.985a.061.061,0,0,1-.061.052H5.121a.061.061,0,0,1-.061-.052L4.9,9.565a.315.315,0,0,0-.232-.253A3.9,3.9,0,0,1,3.7,8.918a.325.325,0,0,0-.16-.042.309.309,0,0,0-.183.059l-.821.584A.07.07,0,0,1,2.5,9.53a.063.063,0,0,1-.045-.019l-.7-.7a.064.064,0,0,1-.007-.08l.577-.809a.321.321,0,0,0,.014-.347A3.72,3.72,0,0,1,1.931,6.6a.321.321,0,0,0-.253-.232L.685,6.194a.061.061,0,0,1-.052-.061V5.145a.061.061,0,0,1,.052-.061l.978-.164a.317.317,0,0,0,.256-.235,3.752,3.752,0,0,1,.4-.985A.313.313,0,0,0,2.3,3.358L1.72,2.537a.064.064,0,0,1,.007-.08l.7-.7a.06.06,0,0,1,.045-.019.058.058,0,0,1,.035.012l.809.577a.321.321,0,0,0,.347.014,3.72,3.72,0,0,1,.981-.413.321.321,0,0,0,.232-.253L5.044.684A.061.061,0,0,1,5.1.632h.988a.061.061,0,0,1,.061.052l.164.978a.317.317,0,0,0,.235.256,3.808,3.808,0,0,1,1.006.413A.317.317,0,0,0,7.9,2.316l.809-.582a.07.07,0,0,1,.035-.012.063.063,0,0,1,.045.019l.7.7a.064.064,0,0,1,.007.08l-.579.814a.317.317,0,0,0-.014.345,3.755,3.755,0,0,1,.408.983.311.311,0,0,0,.253.232l.985.167a.061.061,0,0,1,.052.061V6.11Z" transform="translate(0 -0.001)" fill="#fff"/>
        <path id="Path_2289" data-name="Path 2289" d="M138.523,136a2.423,2.423,0,1,0,2.423,2.423A2.425,2.425,0,0,0,138.523,136Zm0,4.213a1.79,1.79,0,1,1,1.79-1.79A1.791,1.791,0,0,1,138.523,140.214Z" transform="translate(-132.907 -132.811)" fill="#fff"/>
      </g>
    </g>
  </g>
</svg>
