<?xml version="1.0" encoding="utf-8"?>
<!-- Generator: Adobe Illustrator 23.0.5, SVG Export Plug-In . SVG Version: 6.00 Build 0)  -->
<svg version="1.1" id="Layer_1" xmlns="http://www.w3.org/2000/svg" xmlns:xlink="http://www.w3.org/1999/xlink" x="0px" y="0px"
	 viewBox="0 0 150 150" style="enable-background:new 0 0 150 150;" xml:space="preserve">
<g>
	<path d="M70.4,137.2H33.6h-0.6v-115h10.5c0.5,4.5,2.5,8.5,5.5,11.7v21.4c0,1.4,0.8,2.8,2,3.6c1.3,0.7,2.8,0.7,4,0l8.2-4.5l8.5,4.6
		c0.6,0.3,1.3,0.5,2,0.5s1.5-0.2,2.1-0.6c1.3-0.7,2-2.1,2-3.5V43.9c0-1.6-1.3-2.9-2.9-2.9c-1.6,0-2.9,1.3-2.9,2.9v8.4l-6.9-3.8
		c-1.3-0.7-2.7-0.7-3.9,0l-6.4,3.6V38c2.5,1.2,5.4,1.8,8.4,1.8c10.3,0,18.7-7.9,19.9-17.8h44.2v57.6c0,1.6,1.3,2.9,2.9,2.9
		c1.6,0,2.9-1.3,2.9-2.9V19.6c0-1.8-1.5-3.3-3.3-3.3H83C81.2,7,73,0,63.3,0S45.4,7,43.7,16.3H30.5c-1.8,0-3.3,1.5-3.3,3.3v117.7
		h-3.3c-4.9,0-8.9-3.9-8.9-8.9V82.7c0,0,0-0.1,0.1-0.1h5.3c1.6,0,2.9-1.3,2.9-2.9c0-1.6-1.3-2.9-2.9-2.9H15c-3.2,0-6,2.7-6,6v45.7
		c0,8.1,6.6,14.8,14.8,14.8h6.7h3.1h36.8c1.6,0,2.9-1.3,2.9-2.9C73.4,138.6,72,137.2,70.4,137.2z M63.3,5.9
		c7.7,0,14.1,6.4,14.1,14.1s-6.4,14.1-14.1,14.1S49.2,27.7,49.2,20S55.6,5.9,63.3,5.9z"/>
	<path d="M112.5,35.9H98.8c-1.6,0-2.9,1.3-2.9,2.9c0,1.6,1.3,2.9,2.9,2.9h13.7c1.6,0,2.9-1.3,2.9-2.9
		C115.4,37.2,114.1,35.9,112.5,35.9z"/>
	<path d="M115.4,53.8c0-1.6-1.3-2.9-2.9-2.9H98.8c-1.6,0-2.9,1.3-2.9,2.9c0,1.6,1.3,2.9,2.9,2.9h13.7
		C114.1,56.8,115.4,55.4,115.4,53.8z"/>
	<path d="M72.3,84.6H58.6c-1.6,0-2.9,1.3-2.9,2.9c0,1.6,1.3,2.9,2.9,2.9h13.7c1.6,0,2.9-1.3,2.9-2.9C75.2,85.8,73.9,84.6,72.3,84.6z
		"/>
	<path d="M58.6,69.7c-1.6,0-2.9,1.3-2.9,2.9c0,1.6,1.3,2.9,2.9,2.9h43c1.6,0,2.9-1.3,2.9-2.9s-1.3-2.9-2.9-2.9
		C101.6,69.7,58.6,69.7,58.6,69.7z"/>
	<path d="M108.7,85.4c-17.8,0-32.3,14.5-32.3,32.3c0,17.8,14.5,32.3,32.3,32.3s32.3-14.5,32.3-32.3C141,99.9,126.5,85.4,108.7,85.4z
		 M108.7,145.2c-15.2,0-27.5-12.3-27.5-27.5s12.3-27.5,27.5-27.5s27.5,12.3,27.5,27.5S123.9,145.2,108.7,145.2z"/>
	<path d="M41.5,100.9v28.7c0,1.3,1.3,2.3,2.9,2.3c1.6,0,2.9-1,2.9-2.3v-28.7c0-1.3-1.3-2.3-2.9-2.3C42.7,98.6,41.5,99.6,41.5,100.9z
		"/>
	<path d="M53.1,118.5v11.1c0,1.3,1.3,2.3,2.9,2.3s2.9-1,2.9-2.3v-11.1c0-1.3-1.3-2.3-2.9-2.3C54.4,116.1,53.1,117.1,53.1,118.5z"/>
	<path d="M119.2,120.9c-0.4,0-0.8-0.2-1.2-0.5c-0.7-0.7-0.6-1.7,0.1-2.5c0.7-0.7,1.4-1.4,2.1-2.2l1.2-1.2c0.1-0.1,0.2-0.3,0.4-0.4
		l2.7-2.9l-9.2,0c-0.9,0-4.4,0-5.3,0c-1.2,0-2.4,0-3.6,0c-0.7,0-1.3-0.3-1.6-0.8c-0.3-0.5-0.3-1.1,0-1.6c0.2-0.5,0.6-0.9,1.7-0.9
		c1.6,0,3.1,0,4.7,0l9.3,0c0.1,0,0.3,0,0.4,0l3.1-0.3l-2-2.4c-0.1-0.2-0.2-0.3-0.4-0.4c-0.4-0.4-0.8-0.8-1.2-1.2
		c-0.8-0.8-1.6-1.6-2.3-2.3c-0.7-0.8-0.7-1.7,0-2.4c0.3-0.3,0.7-0.5,1.1-0.5c0.5,0,0.9,0.2,1.3,0.5c3.2,3.2,6.4,6.4,9.6,9.5
		c0.7,0.7,0.7,1.7,0,2.4c-3.2,3.2-6.3,6.3-9.5,9.5C120.1,120.7,119.6,120.9,119.2,120.9z"/>
	<path d="M95.6,129.4c0-0.4,0.2-0.9,0.5-1.2c0.7-0.7,1.7-0.7,2.5,0.1c0.7,0.7,1.5,1.5,2.2,2.2l1.2,1.2c0.1,0.1,0.3,0.2,0.4,0.4
		l2.9,2.7l0-9.4c0-0.9,0-4.5,0-5.4c0-1.2,0-2.4,0-3.7c0-0.7,0.3-1.3,0.9-1.6c0.5-0.3,1.1-0.3,1.6,0c0.5,0.2,0.9,0.6,0.9,1.7
		c0,1.6,0,3.2,0,4.8l0,9.4c0,0.1,0,0.3,0,0.4l0.3,3.2l2.5-2.1c0.2-0.1,0.3-0.2,0.4-0.4c0.4-0.4,0.8-0.8,1.2-1.2
		c0.8-0.8,1.6-1.6,2.4-2.4c0.8-0.7,1.8-0.8,2.5,0c0.3,0.3,0.5,0.7,0.5,1.2c0,0.5-0.2,0.9-0.6,1.3c-3.2,3.3-6.5,6.5-9.7,9.8
		c-0.8,0.7-1.7,0.7-2.5,0c-3.2-3.2-6.5-6.5-9.7-9.7C95.8,130.4,95.6,129.9,95.6,129.4z"/>
</g>
</svg>
