<svg xmlns="http://www.w3.org/2000/svg" width="24.434" height="24.398" viewBox="0 0 24.434 24.398">
  <g id="filter-tool-black-shape_1_" data-name="filter-tool-black-shape (1)" transform="translate(0 -0.291)">
    <path id="Path_2226" data-name="Path 2226" d="M24.329.967A1.037,1.037,0,0,0,23.306.291H1.127A1.036,1.036,0,0,0,.1.967,1,1,0,0,0,.347,2.18L8.89,10.723v8.421a1.067,1.067,0,0,0,.329.78l4.436,4.436a1.031,1.031,0,0,0,.78.329,1.206,1.206,0,0,0,.433-.087,1.036,1.036,0,0,0,.676-1.022V10.723L24.087,2.18A1,1,0,0,0,24.329.967Z" transform="translate(0)" fill="#484d55"/>
  </g>
</svg>
