<svg xmlns="http://www.w3.org/2000/svg" width="20.37" height="15.941" viewBox="0 0 20.37 15.941">
  <path id="Path_2301" data-name="Path 2301" d="M20.413,14.362c-.041-.279-.054-.557-.115-.829a6.3,6.3,0,0,0-3.383-4.355c-.285-.149-.6-.265-.9-.394a.021.021,0,0,1,.007-.014A.744.744,0,0,0,16.1,8.7a4.988,4.988,0,0,0,1.413-1.923,4.665,4.665,0,0,0-.224-3.988,4.636,4.636,0,0,0-2.31-2.14A4.83,4.83,0,0,0,12.73.211a.577.577,0,0,0-.584.482.544.544,0,0,0,.387.584.86.86,0,0,0,.265.034,4.619,4.619,0,0,1,1.012.109A3.689,3.689,0,0,1,16.521,6.2,3.545,3.545,0,0,1,14.2,8.513a.565.565,0,0,0-.414.618.581.581,0,0,0,.537.5c.156.02.319.034.476.061a5.187,5.187,0,0,1,3.4,2.031,4.874,4.874,0,0,1,1.039,2.806c.014.245-.007.489,0,.734a.583.583,0,0,0,1.148.136l.041-.183v-.754A.4.4,0,0,0,20.413,14.362Zm-4.837.183a7.783,7.783,0,0,0-5.007-5.36c-.027-.014-.054-.02-.1-.041a4.88,4.88,0,0,0,1.284-7.351A5.077,5.077,0,0,0,4.591,1.23a4.62,4.62,0,0,0-1.7,3.349A4.846,4.846,0,0,0,5.325,9.138c-.034.014-.048.027-.068.034a7.849,7.849,0,0,0-3.58,2.507,7.6,7.6,0,0,0-1.61,3.56.572.572,0,0,0,.333.652.638.638,0,0,0,.9-.482,7.692,7.692,0,0,1,.51-1.63A6.483,6.483,0,0,1,3.986,11.2,6.342,6.342,0,0,1,7.465,9.96a7.22,7.22,0,0,1,3.01.5A6.466,6.466,0,0,1,13.9,13.635a6.809,6.809,0,0,1,.6,1.841.612.612,0,0,0,.727.462.6.6,0,0,0,.489-.679A6.331,6.331,0,0,0,15.576,14.546ZM7.9,8.71A3.823,3.823,0,0,1,4.027,4.919a3.87,3.87,0,0,1,7.738.007A3.842,3.842,0,0,1,7.9,8.71Zm.6,2.819c-.17-.279-.333-.557-.51-.842a.552.552,0,0,1-.041.054L6.072,13.86a.125.125,0,0,0,.034.183c.591.571,1.182,1.135,1.766,1.705.109.1.115.1.224,0L9.836,14.07c.115-.115.115-.115.034-.258C9.414,13.051,8.959,12.29,8.5,11.529Z" transform="translate(-0.057 -0.008)" fill="#fff"/>
</svg>
