<?xml version="1.0" encoding="utf-8"?>
<!-- Generator: Adobe Illustrator 23.0.3, SVG Export Plug-In . SVG Version: 6.00 Build 0)  -->
<svg version="1.1" id="Layer_1" xmlns="http://www.w3.org/2000/svg" xmlns:xlink="http://www.w3.org/1999/xlink" x="0px" y="0px"
	 viewBox="0 0 150 150" style="enable-background:new 0 0 150 150;" xml:space="preserve">
<g>
	<path d="M53.1,118.8H21.3h-0.5V19.2h9.1c0.4,3.9,2.2,7.4,4.8,10.1v18.5c0,1.2,0.7,2.4,1.7,3.1c1.1,0.6,2.4,0.6,3.5,0l7.1-3.9l7.4,4
		c0.5,0.3,1.1,0.4,1.7,0.4c0.6,0,1.3-0.2,1.8-0.5c1.1-0.6,1.7-1.8,1.7-3v-9.9c0-1.4-1.1-2.5-2.5-2.5c-1.4,0-2.5,1.1-2.5,2.5v7.3
		L48.6,42c-1.1-0.6-2.3-0.6-3.4,0l-5.5,3.1V32.9c2.2,1,4.7,1.6,7.3,1.6c8.9,0,16.2-6.8,17.2-15.4h38.3V69c0,1.4,1.1,2.5,2.5,2.5
		c1.4,0,2.5-1.1,2.5-2.5v-52c0-1.6-1.3-2.9-2.9-2.9H64C62.5,6.1,55.4,0,47,0c-8.4,0-15.5,6.1-17,14.1H18.6c-1.6,0-2.9,1.3-2.9,2.9
		v101.9h-2.9c-4.2,0-7.7-3.4-7.7-7.7V71.6c0,0,0-0.1,0.1-0.1h4.6c1.4,0,2.5-1.1,2.5-2.5c0-1.4-1.1-2.5-2.5-2.5H5.2
		c-2.8,0-5.2,2.3-5.2,5.2v39.6c0,7,5.7,12.8,12.8,12.8h5.8h2.7h31.9c1.4,0,2.5-1.1,2.5-2.5C55.7,120,54.5,118.8,53.1,118.8z M47,5.1
		c6.7,0,12.2,5.5,12.2,12.2c0,6.7-5.5,12.2-12.2,12.2c-6.7,0-12.2-5.5-12.2-12.2C34.8,10.6,40.3,5.1,47,5.1z"/>
	<path d="M89.6,31.1H77.7c-1.4,0-2.5,1.1-2.5,2.5c0,1.4,1.1,2.5,2.5,2.5h11.9c1.4,0,2.5-1.1,2.5-2.5C92.1,32.2,91,31.1,89.6,31.1z"
		/>
	<path d="M92.1,46.6c0-1.4-1.1-2.5-2.5-2.5H77.7c-1.4,0-2.5,1.1-2.5,2.5c0,1.4,1.1,2.5,2.5,2.5h11.9C91,49.2,92.1,48,92.1,46.6z"/>
	<path d="M54.8,73.2H42.9c-1.4,0-2.5,1.1-2.5,2.5c0,1.4,1.1,2.5,2.5,2.5h11.9c1.4,0,2.5-1.1,2.5-2.5C57.3,74.3,56.2,73.2,54.8,73.2z
		"/>
	<path d="M42.9,60.3c-1.4,0-2.5,1.1-2.5,2.5c0,1.4,1.1,2.5,2.5,2.5h37.2c1.4,0,2.5-1.1,2.5-2.5c0-1.4-1.1-2.5-2.5-2.5H42.9z"/>
	<path d="M149.8,100.9c-1.9-14.3-15.6-24-29.7-21c-0.5,0.1-0.8,0-1.1-0.2c-8.8-6.2-18.2-7.5-28.3-3.7c-10.6,3.9-18.3,14.7-18.5,26
		c-0.1,3.1-0.8,5.9-2.3,8.6c-1.7,3-3.5,6-4.7,9.3c0,0.6,0,1.1,0,1.7c0.2,0.2,0.2,0.5,0.3,0.7c0.6,1.7,1.8,2.8,3.6,3.2
		c0.7,0.2,1.4,0.2,2.1,0.1c0.8-0.1,1.1,0.1,1.1,1c-0.1,2.2-0.1,4.5,0,6.7c0.1,3.9,3,7.2,6.9,7.8c1.5,0.2,3,0.1,4.5,0.1
		c0.7,0,1.5-0.3,1.9,0.1c0.4,0.4,0.1,1.3,0.2,1.9c0,0,0,0.1,0,0.1c0,3.9,3,6.8,6.9,6.9c1.8,0,3.6,0,5.4,0c5.8,0,11.7,0,17.5,0
		c3.6,0,6.3-2.4,6.9-5.9c0.2-1.2,0.1-2.5,0.1-3.7c-0.1-3.6,0.1-7.3,0.8-10.9c0.1-0.6,0.3-0.7,0.9-0.7c1.2,0.1,2.5,0,3.7-0.1
		C141.6,127.2,151.6,114.6,149.8,100.9z M118.3,128.7c-0.9,4.4-1,8.8-0.9,13.3c0,0.4,0,0.9,0,1.3c-0.1,1-0.8,1.7-1.8,1.8
		c-0.6,0-1.2,0-1.7,0c-7,0-14,0-20.9,0c-1.7,0-2.3-0.6-2.3-2.3c0-0.8,0-1.6,0-2.4c-0.1-2.4-1.9-4.2-4.3-4.3c-1.8,0-3.7,0-5.5,0
		c-2.3,0-3.6-1.3-3.6-3.5c0-2.5,0-5,0-7.4c0-2.8-1.8-4.7-4.6-4.7c-0.7,0-1.4,0-2.2,0c1.1-2,2.1-3.9,3-5.7c1.2-2.3,2.5-4.4,3.2-6.9
		c0.4-1.5,0.6-3,0.7-4.6c0.2-12.5,8.5-22.2,20.8-24.2c5.5-0.9,10.6,0.2,15.5,2.8c0.1,0,0.1,0.1,0.2,0.2c-0.1,0.3-0.4,0.3-0.5,0.4
		c-7.2,4.3-11.4,10.5-12.4,18.8c-1.4,11.6,5.8,22.6,16.9,26.3C118.3,127.8,118.4,128,118.3,128.7z M125.2,123.8
		c-10.9,0-19.7-9-19.7-19.8c0-10.9,9-19.8,19.9-19.8c10.9,0.1,19.7,8.9,19.7,19.8C145,115,136.1,123.9,125.2,123.8z"/>
	<path d="M83.8,103.2c-1.3,0-2.4,1.1-2.5,2.5c0,0.9,0,1.8,0,2.6c0,0,0,0,0,0c0,0.9,0,1.8,0,2.6c0,1.5,1,2.5,2.4,2.5
		c1.4,0,2.5-1,2.5-2.5c0-1.8,0.1-3.6,0-5.4C86.3,104.2,85.2,103.1,83.8,103.2z"/>
	<path d="M128,90.3c-1.1-0.2-2.2,0-3.3,0c0,0,0-0.1,0-0.1c-0.8,0-1.7,0-2.5,0c-1.6,0-2.7,1-2.7,2.4c0,1.5,1.1,2.5,2.8,2.5
		c1.6,0,3.1,0,4.7,0c1.6,0,2.6,1.4,2.3,3c-0.2,1.2-1.1,1.8-2.6,2c-2.3,0.2-3.8,1.8-3.9,4.2c0,1,0,2.1,0,3.1c0,1.5,1,2.5,2.4,2.5
		c1.4,0,2.5-1,2.6-2.5c0-0.5,0-1.1,0-1.6c-0.1-0.6,0.1-0.9,0.8-1.1c3.5-0.8,5.9-3.9,5.7-7.4C134.2,93.8,131.6,90.8,128,90.3z"/>
	<path d="M125.2,111.6c-1.4,0.1-2.4,1.1-2.4,2.6c0,0.3,0,0.6,0,0.9c0,0.3,0,0.7,0,1c0,1.4,1.1,2.5,2.4,2.5c1.3,0,2.5-1,2.5-2.4
		c0-0.7,0-1.4,0-2.2C127.7,112.6,126.5,111.6,125.2,111.6z"/>
</g>
</svg>
