<svg xmlns="http://www.w3.org/2000/svg" width="27.034" height="27.112" viewBox="0 0 27.034 27.112">
  <g id="magnifying-glass-search" transform="translate(-0.49 -0.001)">
    <path id="Path_2145" data-name="Path 2145" d="M27.184,23.3,20.692,16.59c-.465-.481-1.047-.674-1.3-.428s-.835.052-1.3-.429l-.093-.1a9.723,9.723,0,1,0-1.677,1.729l.041.043c.465.481.638,1.069.384,1.314s-.081.833.385,1.313l6.488,6.709a1.213,1.213,0,0,0,1.714.028l1.821-1.762A1.214,1.214,0,0,0,27.184,23.3ZM14.992,14.5a6.72,6.72,0,1,1,0-9.5A6.728,6.728,0,0,1,14.992,14.5Z" transform="translate(0 0)" fill="#02bdff"/>
  </g>
</svg>
