<?xml version="1.0" encoding="utf-8"?>
<!-- Generator: Adobe Illustrator 23.0.1, SVG Export Plug-In . SVG Version: 6.00 Build 0)  -->
<svg version="1.1" id="Layer_1" xmlns="http://www.w3.org/2000/svg" xmlns:xlink="http://www.w3.org/1999/xlink" x="0px" y="0px"
	 viewBox="0 0 150 150" style="enable-background:new 0 0 150 150;" xml:space="preserve">
<style type="text/css">
	.st0{fill:#FFFFFF;}
</style>
<g>
	<path class="st0" d="M112.5,78.2L78.2,90.6c-1.9,0.7-5,0.7-6.9,0L38,78.2c-1.9-0.7-3.4,0.4-3.4,2.4v18.1c0,2,1.5,4.3,3.4,5.1
		l33.4,13.9c1.9,0.8,4.9,0.8,6.8,0l34.4-13.9c1.9-0.8,3.4-3,3.4-5V80.6C115.9,78.6,114.4,77.5,112.5,78.2z"/>
	<path class="st0" d="M147.9,58.6c2.8-1.1,2.8-2.8,0-3.9L80.1,29.2c-2.8-1.1-7.5-1.1-10.3,0L2.1,54.8c-2.8,1.1-2.8,2.8,0,3.9
		l67.7,25.4c2.8,1.1,7.5,1.1,10.3,0l40.5-15.2l3.3,26.5c-1.8,0.9-3.1,2.9-3,5.1c0.1,2.8,2.3,5.1,5.1,5.3c2.1,9.2,7.3,15.8,7.3,15.8
		c11.2-1.8,15.2-9.6,15.2-9.6c-7.8,0.1-14-5.1-17.3-8.7c0.6-0.9,0.9-2,0.9-3.2c-0.1-2.8-2.2-5-4.9-5.3L125.5,67L147.9,58.6z
		 M143.9,113.4l-4.3,2.7c0,0-2.6,1-9.5-10.7C130.1,105.4,137.6,114.1,143.9,113.4z M76.4,80.2c-2.8,1-5.2,1.9-5.2,1.9c0,0,0,0,0,0
		c0,0,2.4-1,5.1-2.2l47-20.7c2.8-1.2,2.8-3.3,0.2-4.7l-22.1-11.5c-2.7-1.4-2.6-1.7,0.3-0.6l33,12.4c2.8,1.1,2.8,2.8,0,3.8L76.4,80.2
		z"/>
</g>
</svg>
