<svg xmlns="http://www.w3.org/2000/svg" viewBox="0 0 967.77 967.77"><defs><style>.cls-1{fill:#0c97c4;}.cls-2{fill:#fff;}</style></defs><title>Asset 3</title><g id="Layer_2" data-name="Layer 2"><g id="Layer_1-2" data-name="Layer 1"><rect class="cls-1" width="967.77" height="967.77" rx="81.86"/><rect class="cls-2" x="268.85" y="391.99" width="155.41" height="88.78" rx="9.5"/><rect class="cls-2" x="268.85" y="521.74" width="198.84" height="16.92" rx="6.75"/><rect class="cls-2" x="501.2" y="521.74" width="198.84" height="16.92" rx="6.75"/><rect class="cls-2" x="268.85" y="562.43" width="198.84" height="16.92" rx="6.75"/><rect class="cls-2" x="501.2" y="562.43" width="198.84" height="16.92" rx="6.75"/><rect class="cls-2" x="268.85" y="603.11" width="198.84" height="16.92" rx="6.75"/><rect class="cls-2" x="501.2" y="603.11" width="198.84" height="16.92" rx="6.75"/><path class="cls-2" d="M797.18,729.47c-7.93,11.13-24.2,11-32.54,11H203.16c-8.36,0-19.67,1.7-32.54-11l-17.41-22.06c-4.19-5.15-4.33-11.06,15.13-11.06H799.47c19.3,0,19.3,6.08,15.13,11.06Z"/><path class="cls-2" d="M733.67,453.05V647.29c0,6.21-4.74,11.25-10.6,11.25H244.74c-5.86,0-10.6-5-10.6-11.25V359.12c0-6.22,4.74-11.25,10.6-11.25H472.79V330.94c0-5,1.23-7.46,2.83-8.62H225c-8.33,0-15.12,7.18-15.12,16V668c0,8.87,6.79,16.05,15.12,16.05H742.77c8.36,0,15.13-7.18,15.13-16.05V435.62A120.38,120.38,0,0,1,733.67,453.05Z"/><g id="Layer_5" data-name="Layer 5"><path class="cls-2" d="M649,387.76a47.72,47.72,0,0,1-47.08,0L495.35,322.39s-9.62-5.89-9.62,7.47v65.27c0,34.39,62.56,71.45,139.74,71.45s139.74-37.06,139.74-71.45V326.18c0-10.73-6.84-5.49-6.84-5.49Z"/><path class="cls-2" d="M802.73,270.4c8.19-5,8.19-13.24,0-18.27L640.36,170.94c-8.19-5-21.59-5-29.78,0L448.22,252.13c-8.19,5-8.19,13.24,0,18.27L610.58,370c8.19,5,21.59,5,29.78,0"/><path class="cls-2" d="M796,418V308s.08-5.21-3-3.49c-2.48,1.38-8.56,4.77-10.7,6.63-2.47,2.15-1.92,7-1.92,7V418a2.93,2.93,0,0,1-1.8,2.44,19,19,0,1,0,19.17,0A2.84,2.84,0,0,1,796,418Z"/></g></g></g></svg>