<svg xmlns="http://www.w3.org/2000/svg" viewBox="0 0 665.89 573.36"><defs><style>.cls-1{fill:#fff;}</style></defs><title>Asset 1</title><g id="Layer_2" data-name="Layer 2"><g id="Layer_1-2" data-name="Layer 1"><g id="Layer_1-2-2" data-name="Layer 1-2"><rect class="cls-1" x="117.91" y="224.8" width="155.41" height="88.78" rx="9.5"/><rect class="cls-1" x="117.91" y="354.55" width="198.84" height="16.92" rx="6.75"/><rect class="cls-1" x="350.26" y="354.55" width="198.84" height="16.92" rx="6.75"/><rect class="cls-1" x="117.91" y="395.24" width="198.84" height="16.92" rx="6.75"/><rect class="cls-1" x="350.26" y="395.24" width="198.84" height="16.92" rx="6.75"/><rect class="cls-1" x="117.91" y="435.92" width="198.84" height="16.92" rx="6.75"/><rect class="cls-1" x="350.26" y="435.92" width="198.84" height="16.92" rx="6.75"/><path class="cls-1" d="M646.24,562.28c-7.93,11.13-24.2,11-32.54,11H52.22c-8.36,0-19.67,1.7-32.54-11L2.27,540.22c-4.19-5.15-4.33-11.06,15.13-11.06H648.53c19.3,0,19.3,6.08,15.13,11.06Z"/><path class="cls-1" d="M582.73,285.86V480.1c0,6.21-4.74,11.25-10.6,11.25H93.8c-5.86,0-10.6-5-10.6-11.25V191.93c0-6.22,4.74-11.25,10.6-11.25H321.85V163.75c0-5,1.23-7.46,2.83-8.62H74.06c-8.33,0-15.12,7.18-15.12,16V500.81c0,8.87,6.79,16.05,15.12,16.05H591.83c8.36,0,15.13-7.18,15.13-16.05V268.43A120.29,120.29,0,0,1,582.73,285.86Z"/><g id="Layer_5" data-name="Layer 5"><path class="cls-1" d="M498.06,220.57a47.72,47.72,0,0,1-47.08,0L344.41,155.2s-9.62-5.89-9.62,7.47v65.27c0,34.39,62.56,71.45,139.74,71.45s139.74-37.06,139.74-71.45V159c0-10.73-6.84-5.49-6.84-5.49Z"/><path class="cls-1" d="M651.79,103.21c8.19-5,8.19-13.24,0-18.27L489.42,3.75c-8.19-5-21.59-5-29.78,0L297.28,84.94c-8.19,5-8.19,13.24,0,18.27l162.36,99.6c8.19,5,21.59,5,29.78,0"/><path class="cls-1" d="M645.06,250.81v-110s.08-5.21-3-3.49c-2.48,1.38-8.56,4.77-10.7,6.63-2.47,2.15-1.92,7-1.92,7v99.86a2.94,2.94,0,0,1-1.8,2.44,19,19,0,1,0,19.17,0A2.84,2.84,0,0,1,645.06,250.81Z"/></g></g></g></g></svg>