<?xml version="1.0" encoding="iso-8859-1"?>
<!-- Generator: Adobe Illustrator 19.0.0, SVG Export Plug-In . SVG Version: 6.00 Build 0)  -->
<svg version="1.1" id="Capa_1" xmlns="http://www.w3.org/2000/svg" xmlns:xlink="http://www.w3.org/1999/xlink" x="0px" y="0px"
	 viewBox="0 0 512.001 512.001" style="enable-background:new 0 0 512.001 512.001;" xml:space="preserve">
<g>
	<path style="fill:#0D70B2;" d="M173.789,232.153c-3.839,0-7.678-1.464-10.606-4.394l-79.864-79.864l-57.712,57.712
		c-4.289,4.291-10.739,5.573-16.347,3.252C3.654,206.538,0,201.068,0,195.001v-180c0-8.284,6.716-15,15-15h180
		c6.067,0,11.536,3.655,13.858,9.26c2.321,5.605,1.038,12.057-3.252,16.347l-58.653,58.653l79.864,79.864
		c5.858,5.858,5.858,15.355,0,21.213l-42.422,42.422C181.467,230.689,177.628,232.153,173.789,232.153z M83.318,111.682
		c3.979,0,7.794,1.581,10.606,4.394l79.864,79.864l21.209-21.208l-79.864-79.864c-2.813-2.813-4.394-6.628-4.394-10.606
		c0-3.979,1.58-7.793,4.394-10.606l43.653-43.655H30v128.787l42.712-42.712C75.524,113.263,79.34,111.682,83.318,111.682z"/>
	<path style="fill:#0D70B2;" d="M195,512H15c-8.284,0-15-6.716-15-15v-180c0-6.067,3.654-11.537,9.26-13.858
		c5.604-2.32,12.058-1.039,16.347,3.252l58.653,58.652l78.923-78.922c5.857-5.858,15.355-5.858,21.213,0l42.422,42.422
		c5.858,5.858,5.858,15.355,0,21.213l-78.923,78.923l57.712,57.712c4.29,4.29,5.573,10.742,3.252,16.347
		C206.536,508.346,201.067,512,195,512z M30,482.001h128.787l-42.712-42.712c-5.858-5.858-5.858-15.355,0-21.213l78.923-78.923
		l-21.209-21.208l-78.923,78.922c-5.857,5.858-15.355,5.858-21.213,0L30,353.214V482.001z"/>
	<path style="fill:#0D70B2;" d="M497,512H317c-6.067,0-11.536-3.655-13.858-9.26c-2.321-5.605-1.038-12.057,3.252-16.347
		l57.712-57.712l-78.923-78.923c-5.858-5.858-5.858-15.355,0-21.213l42.422-42.422c5.857-5.858,15.355-5.858,21.213,0l78.923,78.922
		l58.653-58.652c4.29-4.29,10.745-5.572,16.347-3.252c5.605,2.322,9.26,7.792,9.26,13.858v180C512,505.285,505.284,512,497,512z
		 M353.213,482.001H482V353.214l-43.653,43.653c-5.857,5.858-15.355,5.858-21.213,0l-78.923-78.922l-21.209,21.208l78.923,78.923
		c5.858,5.858,5.858,15.355,0,21.213L353.213,482.001z"/>
	<path style="fill:#0D70B2;" d="M338.211,232.153c-3.839,0-7.678-1.464-10.606-4.394l-42.422-42.422
		c-5.858-5.858-5.858-15.355,0-21.213l79.864-79.864l-58.653-58.653c-4.29-4.29-5.573-10.742-3.252-16.347
		c2.322-5.604,7.791-9.259,13.858-9.259h180c8.284,0,15,6.716,15,15v180c0,6.067-3.654,11.537-9.26,13.858
		c-5.602,2.321-12.057,1.04-16.347-3.252l-57.712-57.712l-79.864,79.864C345.889,230.689,342.05,232.153,338.211,232.153z
		 M317.002,174.731l21.209,21.208l79.864-79.864c2.813-2.813,6.628-4.394,10.606-4.394s7.794,1.581,10.606,4.394L482,158.788V30.001
		H353.214l43.652,43.653c2.813,2.813,4.394,6.628,4.394,10.606c0,3.978-1.58,7.793-4.394,10.606L317.002,174.731z"/>
</g>
<g>
</g>
<g>
</g>
<g>
</g>
<g>
</g>
<g>
</g>
<g>
</g>
<g>
</g>
<g>
</g>
<g>
</g>
<g>
</g>
<g>
</g>
<g>
</g>
<g>
</g>
<g>
</g>
<g>
</g>
</svg>
