<?xml version="1.0" encoding="utf-8"?>
<!-- Generator: Adobe Illustrator 23.0.1, SVG Export Plug-In . SVG Version: 6.00 Build 0)  -->
<svg version="1.1" id="Capa_1" xmlns="http://www.w3.org/2000/svg" xmlns:xlink="http://www.w3.org/1999/xlink" x="0px" y="0px"
	 viewBox="0 0 40 40" style="enable-background:new 0 0 40 40;" xml:space="preserve">
<style type="text/css">
	.st0{fill:#2C2F33;}
</style>
<g>
	<path class="st0" d="M40,36.5c0-0.5-0.3-1-0.8-1.3l-5.5-2.8v-1.3l0,0c1.7-1.3,2.8-3.3,2.9-5.4l0,0l0,0c0.7-1,0.9-2.5,0.5-3.7
		c-0.3-1.1-1.1-2-2.1-2.5l0,0l0,0c-1-1.5-2.3-2.4-3.7-2.7c-0.3-0.1-0.6-0.1-1-0.1c-1.8,0-3.9,0.9-6.3,2.8L24,19.5
		c-1.6,1.6-1.8,4-1.7,5.3c0,0.1,0,0.2,0,0.2c0,0.2,0,0.4,0,0.5c0,2.1,0.9,4,2.5,5.3l0,0v1.4l-5.2,2.6c-0.5,0.2-0.8,0.7-0.8,1.3l0,3
		c0,0.2,0.1,0.4,0.2,0.6c0.2,0.2,0.4,0.2,0.6,0.2c0.4,0,0.8-0.4,0.8-0.8l0-2.9l4.6-2.4l4.3,2.9l3.8-2.8l5.1,2.6l0,2.6
		c0,0.4,0.4,0.8,0.8,0.8l0,0c0.2,0,0.4-0.1,0.6-0.2c0.2-0.2,0.2-0.4,0.2-0.6L40,36.5z M26.9,19.4c1.3-0.8,2.4-1.1,3.4-1.1
		c0.2,0,0.4,0,0.7,0.1c1.1,0.2,2,0.9,2.8,2.2l0.2,0.3l0.3,0.1c0.9,0.3,1.2,1,1.3,1.5c0.1,0.3,0.1,0.7,0.1,1.1l0,0.1l-0.3,0
		c-0.4,0-0.8,0-1.3,0c-2.5,0-6-0.4-7.3-4.1L26.9,19.4L26.9,19.4z M23.9,24c0-1,0.3-2.4,1.2-3.4c0.1-0.1,0.4-0.3,0.4-0.3l0,0.1
		c0.2,0.5,0.5,1,0.8,1.5l0,0l0,0c-0.2,0.6-0.8,1.3-1.5,1.7c-0.3,0.2-0.6,0.3-0.8,0.3l-0.1,0L23.9,24z M32.1,32.9l-2.6,2l-3-2v-1
		l0.1,0.1c0.9,0.4,1.9,0.6,2.9,0.6c0.9,0,1.7-0.2,2.5-0.4l0.1,0V32.9z M29.5,30.9c-2.9,0-5.3-2.2-5.5-5.1l0-0.1l0.1,0
		c0.5-0.1,1.1-0.3,1.6-0.6c0.7-0.4,1.3-1.1,1.8-1.8l0.1-0.1l0.1,0.1c1.6,1.3,3.7,1.9,6.6,1.9c0.2,0,0.4,0,0.7,0l0.1,0v0.2
		C35,28.5,32.5,30.9,29.5,30.9z"/>
	<path class="st0" d="M20.2,29.4L20.2,29.4c-0.2-0.4-0.3-0.8-0.4-1.2l0-0.1l-0.1,0c-0.3,0.1-0.6,0.2-0.9,0.3l-0.3,0.1l0.2-0.2
		c0.3-0.4,0.6-0.8,0.9-1.3l0,0l0,0c-0.1-0.4-0.1-0.9-0.1-1.3c0-0.1,0-0.2,0-0.3c0-0.1,0-0.2,0-0.4l-0.2,0c-0.1,0.2-0.2,0.4-0.2,0.5
		c-0.4,1-0.9,1.7-1.5,2.3c-0.5,0.5-0.9,0.8-1.4,1c0,0-0.1,0-0.1,0l-0.1,0v-7.1l0.1,0c1.2,0.1,2.3,0.3,3.5,0.6l0.1,0l0-0.1
		c0.1-0.4,0.2-0.8,0.3-1.1l0-0.1l-0.1,0c-1.2-0.4-2.5-0.6-3.8-0.7l-0.1,0v-4.5h5l0,0.1c0,0.9-0.1,1.9-0.2,2.7l0.2,0.1
		c0.3-0.5,0.7-1,1.1-1.4l0.1-0.1l0.1-0.1l0,0c0-0.4,0-0.8,0-1.1c0,0,0-0.2,0-0.2H24l0,0c0.7-0.4,1.4-0.8,2-1.1l0-0.2h-3.9l0-0.1
		c0,0,0,0,0-0.1c-0.1-2.4-0.3-4.5-0.9-6.6l0,0l0-0.1l0.1-0.1c0,0,0,0,0.1,0c1.2-0.5,2.3-1.2,3.4-2.1l0.1-0.1l0.1,0.1
		c2.3,2.4,3.6,5.1,4,8.3l0,0.1l0.1,0c0.4-0.1,0.8-0.1,1.1-0.1l0.1,0l0-0.1C29.4,6,23,0.1,15.4,0l-0.2,0C6.9,0,0.1,6.7,0,14.9
		c-0.1,4.1,1.5,7.9,4.3,10.8c2.9,2.9,6.7,4.5,10.8,4.5C16.8,30.2,18.5,30,20.2,29.4L20.2,29.4z M15.8,14.5V8.8l0.1,0
		c1.4-0.1,2.7-0.3,4-0.7L20,8l0,0.1c0.5,1.9,0.7,3.9,0.8,6.2l0,0.1H15.8z M18.7,1.8c1.8,0.5,3.5,1.3,5,2.5l0.1,0.1l-0.1,0.1
		c-0.6,0.5-2.1,1.4-2.8,1.7l-0.1,0l0-0.1c-0.4-1.1-1-2.7-2.2-4.1l-0.2-0.2L18.7,1.8z M15.8,1.4l0.1,0c0.2,0.1,0.3,0.1,0.4,0.2
		l0.2,0.2c0.4,0.3,0.8,0.6,1.1,0.9c1,1.2,1.6,2.6,2,3.9l0,0.1l-0.1,0c-1.2,0.4-2.4,0.6-3.6,0.7l-0.1,0V1.4z M6.6,4.3
		c1.5-1.2,3.1-2,4.9-2.5l0.3-0.1L11.6,2c-1.1,1.4-1.7,3-2.1,4.1l0,0.1l-0.1,0c-1-0.5-1.9-1-2.8-1.7V4.3L6.6,4.3z M10.4,8.1
		c1.3,0.4,2.6,0.7,4,0.7l0.1,0v5.7h-5l0-0.1c0.1-2.3,0.3-4.3,0.8-6.2L10.4,8.1L10.4,8.1z M5.4,5.4L5.4,5.4l0.1,0
		C6.6,6.2,7.7,7,8.9,7.5c0,0,0,0,0,0l-0.1,0l-0.1,0L9,7.7C8.5,9.8,8.2,12,8.1,14.4l0,0.1H1.4l0-0.1C1,12.2,3.2,7.3,5.4,5.4z
		 M4.9,24.3L4.9,24.3c-2.2-2.5-3.3-5.2-3.5-8.4l0-0.1h6.7l0,0.4c0,0.4,0,0.8,0.1,1.1c0.1,1.1,0.3,2.3,0.5,3.4l0.1,0.8
		c0,0.1,0,0.1-0.1,0.2C7.3,22.4,6.1,23.2,4.9,24.3L4.9,24.3z M11.5,28.4c-2.1-0.6-4-1.6-5.6-3.1l-0.1-0.1l0.1-0.1
		c0.7-0.7,2.3-1.8,3.1-2.1l0.1,0l0,0.1c0.5,1.5,1.1,3.4,2.5,5.1l0.2,0.2L11.5,28.4z M14.5,28.8l-0.1,0c-0.1,0-0.2-0.1-0.3-0.1
		c-0.1-0.1-0.2-0.1-0.3-0.2c-0.4-0.3-0.7-0.5-1-0.9c-1.2-1.4-1.8-3.2-2.3-4.9l0-0.1l0.1,0c1.3-0.5,2.6-0.7,3.9-0.8l0.1,0V28.8z
		 M14.5,20.3L14.5,20.3c-1.6,0.1-3,0.4-4.3,0.8l-0.1,0l0-0.1c-0.3-1.6-0.5-3.3-0.6-5.2l0-0.1h5V20.3z M14.5,7.4l-0.1,0
		c-1.2-0.1-2.4-0.3-3.6-0.7l-0.1,0l0.1-0.4c0.1-0.3,0.2-0.7,0.4-1c0.6-1.4,1.2-2.3,1.9-3c0.4-0.4,0.8-0.7,1.3-0.8l0.1,0V7.4z"/>
</g>
</svg>
