<?xml version="1.0" encoding="utf-8"?>
<!-- Generator: Adobe Illustrator 23.0.1, SVG Export Plug-In . SVG Version: 6.00 Build 0)  -->
<svg version="1.1" id="Capa_1" xmlns="http://www.w3.org/2000/svg" xmlns:xlink="http://www.w3.org/1999/xlink" x="0px" y="0px"
	 viewBox="0 0 40 40" style="enable-background:new 0 0 40 40;" xml:space="preserve">
<style type="text/css">
	.st0{fill:#3A3A3A;}
</style>
<g>
	<path class="st0" d="M16.1,19.5c0.3-0.9,1.9-6.4,1.9-6.4s20.2,0,21,0c0.5,0,0.8-0.3,0.9-0.7c0-0.2-0.1-0.4-0.2-0.5
		c-0.2-0.2-0.4-0.3-0.6-0.3c-1.1,0-20.5,0-21.6,0c-0.5,0-0.7,0.1-0.8,0.6l-1.1,3.4c0,0-1.4-10.2-1.5-11.3l0,0
		c-0.2-1.2-0.3-2.4-0.5-3.6C13.5,0.3,13.3,0,12.9,0c-0.1,0-0.1,0-0.2,0c-0.4,0.1-0.5,0.4-0.6,0.8c-0.5,2.3-2.2,10.8-2.2,10.8
		S8.7,8.1,8.5,7.7c0,0-0.6-1.8-0.9-2.6C7.6,4.7,7.3,4.5,6.9,4.5c-0.3,0-0.6,0.2-0.7,0.6c0,0.1-1.1,4.6-1.5,6.2
		c-0.1,0.2-0.2,0.3-0.4,0.3l0,0c-0.5,0-3.4,0-3.4,0c-0.4,0-0.8,0.2-0.8,0.7c0,0.4,0.4,0.7,0.8,0.7c0.4,0,4,0,4.3,0
		c0.4,0,0.6-0.2,0.7-0.4c0.4-1.3,1.2-4.4,1.2-4.4s2.1,6.5,2.1,6.5c0.1,0.4,0.4,0.6,0.8,0.6c0,0,0,0,0.1,0c0.3,0,0.6-0.3,0.7-0.7
		c0.3-1.5,1.9-8.9,1.9-8.9s1.2,8.6,1.3,9.2c0,0,0.4,3.1,0.6,4.7C14.6,20.3,15.8,20.8,16.1,19.5z"/>
	<path class="st0" d="M36.5,19.3c-2.3-2.3-5.3-3.6-8.5-3.7l-0.2,0c-6.6,0-12.1,5.4-12.2,12c-0.1,3.3,1.2,6.4,3.5,8.8
		c2.3,2.4,5.4,3.6,8.7,3.7c6.6,0,12.1-5.4,12.2-12C40.1,24.7,38.8,21.6,36.5,19.3z M21.2,19c1-0.7,2-1.3,3.1-1.6l0.5-0.2l-0.3,0.5
		c-0.5,0.7-0.9,1.6-1.3,2.7l-0.1,0.2L23,20.5c-0.6-0.3-1.2-0.7-1.8-1.1L21,19.2L21.2,19z M24.2,22.3c0.9,0.3,1.9,0.5,2.8,0.5l0.2,0
		v4.4h-3.8l0-0.2c0.1-1.7,0.2-3.2,0.6-4.6l0-0.2L24.2,22.3z M19.9,20.2L20,20l0.1,0.1c0.8,0.6,1.6,1.1,2.5,1.5l0.1,0.1l0,0.2
		c-0.4,1.6-0.6,3.3-0.7,5.1l0,0.2h-5.2l0-0.2C16.7,25.3,18.3,21.7,19.9,20.2z M19.6,35.1l-0.1-0.2c-1.5-1.8-2.4-3.9-2.6-6.3l0-0.2
		h5.2l0,0.3c0,0.3,0,0.6,0.1,0.9c0.1,0.9,0.2,1.8,0.4,2.7l0.1,0.7l-0.1,0.1c-1,0.5-1.9,1.1-2.8,1.8L19.6,35.1z M24.4,38.2
		c-1.4-0.5-2.6-1.1-3.7-2.1l-0.2-0.1l0.2-0.2c0.6-0.5,1.5-1.1,2.1-1.4l0.2-0.1l0.1,0.2c0.3,1,0.8,2.2,1.6,3.4l0.3,0.5L24.4,38.2z
		 M27.2,38.7l-0.4-0.3c-0.3-0.2-0.6-0.4-0.8-0.7c-1-1.1-1.4-2.5-1.8-3.7l-0.1-0.2l0.2-0.1c0.9-0.3,1.8-0.5,2.7-0.6l0.2,0V38.7z
		 M27.2,31.9l-0.2,0c-1.1,0.1-2,0.3-3,0.6l-0.2,0.1l0-0.2c-0.2-1.1-0.3-2.4-0.4-3.7l0-0.2h3.8V31.9z M27.2,21.5l-0.2,0
		c-0.8-0.1-1.6-0.2-2.5-0.5L24.3,21l0.1-0.3c0.1-0.3,0.2-0.5,0.3-0.8c0.4-1.1,0.9-1.8,1.5-2.4c0.2-0.2,0.5-0.4,0.7-0.5l0.3-0.1V21.5
		z M31.2,17.4c1.2,0.4,2.2,0.9,3.2,1.7l0.2,0.2l-0.2,0.2c-0.5,0.4-1.3,0.9-1.8,1.1l-0.2,0.1l-0.1-0.2c-0.4-1.1-0.8-1.9-1.3-2.7
		l-0.3-0.5L31.2,17.4z M32.2,27.2h-3.8v-4.4l0.2,0c1-0.1,1.9-0.2,2.8-0.5l0.2-0.1l0,0.2c0.3,1.4,0.5,2.8,0.6,4.6L32.2,27.2z
		 M28.4,16.8l0.4,0.3c0.3,0.2,0.6,0.5,0.9,0.7c0.8,0.9,1.2,2,1.5,2.9l0.1,0.2l-0.2,0.1c-0.8,0.3-1.6,0.4-2.5,0.5l-0.2,0V16.8z
		 M28.4,28.4h3.8l0,0.2c0,1.3-0.2,2.5-0.4,3.7l0,0.2l-0.2-0.1c-1-0.3-2-0.5-3-0.6l-0.2,0V28.4z M28.7,38.5l-0.3,0.1v-5.5l0.2,0
		c0.9,0.1,1.8,0.3,2.7,0.6l0.2,0.1l0,0.2c-0.2,0.8-0.5,1.4-0.8,2.1c-0.4,0.8-0.7,1.3-1.2,1.8C29.3,38.1,29,38.4,28.7,38.5z
		 M34.9,36.1c-1.1,1-2.3,1.6-3.7,2.1l-0.6,0.2l0.3-0.5c0.8-1.2,1.3-2.5,1.6-3.4l0.1-0.2l0.2,0.1c0.8,0.4,1.4,0.9,2.1,1.4l0.2,0.2
		L34.9,36.1z M38.7,28.6c-0.2,2.4-1,4.4-2.6,6.3L36,35.1c0,0-0.3-0.3-0.4-0.3c-0.8-0.7-1.7-1.2-2.6-1.7L32.9,33l0-0.2
		c0.3-1.4,0.5-2.8,0.5-4.3l0-0.2h5.3L38.7,28.6z M33.5,27.2l0-0.2c0-1.8-0.3-3.5-0.7-5.1l0-0.2l0.2-0.1c0.9-0.4,1.7-0.9,2.5-1.5
		l0.1-0.1l0.1,0.1c1.8,1.9,2.8,4.2,3,6.8l0,0.2H33.5z"/>
</g>
</svg>
