<?xml version="1.0" encoding="utf-8"?>
<!-- Generator: Adobe Illustrator 23.0.1, SVG Export Plug-In . SVG Version: 6.00 Build 0)  -->
<svg version="1.1" id="Capa_1" xmlns="http://www.w3.org/2000/svg" xmlns:xlink="http://www.w3.org/1999/xlink" x="0px" y="0px"
	 viewBox="0 0 40 40" style="enable-background:new 0 0 40 40;" xml:space="preserve">
<style type="text/css">
	.st0{fill:#3A3A3A;}
</style>
<g>
	<path class="st0" d="M27.8,20.1c0-2.1-0.8-4.1-2.2-5.6c-1.4-1.5-3.4-2.3-5.4-2.3l-0.1,0c-4.2,0-7.7,3.4-7.8,7.6
		c0,2.1,0.8,4.1,2.2,5.6c1.5,1.5,3.4,2.3,5.5,2.3h0C24.2,27.8,27.7,24.3,27.8,20.1z M17.9,13.6c-0.4,0.6-0.6,1.2-0.8,1.7
		c-0.4-0.2-0.8-0.4-1.1-0.7C16.5,14.2,17.2,13.8,17.9,13.6z M19.5,17v2.5h-2.2c0-1,0.2-2,0.4-2.8C18.3,16.8,18.9,17,19.5,17z
		 M15.2,15.3c0.5,0.4,1,0.7,1.6,1c-0.3,1-0.4,2.1-0.4,3.2h-3C13.2,18.5,14.2,16.2,15.2,15.3z M13.3,20.5h3c0,0,0,0,0,0.1
		c0,0.2,0,0.4,0,0.6c0.1,0.6,0.2,1.1,0.2,1.7l0,0.3c-0.6,0.3-1.2,0.7-1.8,1.2C13.9,23.2,13.4,22,13.3,20.5z M15.6,25.1
		c0.3-0.3,0.9-0.7,1.3-0.9c0.2,0.7,0.5,1.5,1,2.2C17,26.1,16.3,25.7,15.6,25.1z M19.5,26.6L19.5,26.6c-0.3-0.2-0.4-0.3-0.6-0.5
		c-0.6-0.7-0.9-1.5-1.1-2.3c0.5-0.2,1.1-0.3,1.7-0.3V26.6z M19.5,22.5c-0.7,0-1.3,0.2-1.9,0.4c-0.1-0.7-0.2-1.5-0.2-2.3h2.2V22.5z
		 M19.5,16c-0.5,0-1-0.1-1.5-0.3l0,0c0.1-0.2,0.1-0.3,0.2-0.5c0.3-0.7,0.6-1.1,0.9-1.5c0.1-0.1,0.3-0.2,0.4-0.3V16z M26.7,19.5h-3
		c0-1.1-0.2-2.2-0.4-3.2c0.6-0.3,1.1-0.6,1.6-1C26,16.5,26.6,17.9,26.7,19.5z M24.1,14.6c-0.3,0.2-0.8,0.5-1.1,0.7
		c-0.2-0.5-0.4-1.1-0.8-1.7C22.8,13.8,23.5,14.2,24.1,14.6z M22.7,19.5h-2.2V17c0.6,0,1.2-0.2,1.8-0.3
		C22.5,17.5,22.6,18.4,22.7,19.5z M20.5,13.4L20.5,13.4c0.3,0.2,0.5,0.3,0.6,0.5c0.4,0.5,0.7,1.1,0.9,1.8c-0.5,0.2-1,0.3-1.5,0.3
		V13.4z M20.5,20.5h2.2c0,0.8-0.1,1.6-0.2,2.3c-0.6-0.2-1.3-0.3-1.9-0.4V20.5z M21,26.2c-0.2,0.2-0.3,0.3-0.5,0.4v-3.1
		c0.6,0,1.1,0.2,1.7,0.3c-0.1,0.5-0.3,0.9-0.5,1.3C21.5,25.6,21.3,25.9,21,26.2z M22.1,26.4c0.5-0.7,0.8-1.5,1-2.2
		c0.5,0.2,0.9,0.5,1.3,0.9C23.7,25.7,23,26.1,22.1,26.4z M25,24.3c-0.5-0.4-1.1-0.8-1.6-1.1c0.2-0.9,0.3-1.8,0.3-2.7h3
		c-0.1,1.5-0.6,2.7-1.6,3.9C25.1,24.3,25,24.3,25,24.3z"/>
	<path class="st0" d="M19.9,7.2c0.1,0,0.2,0,0.2,0h0c1.4,0,2.7-0.9,3.3-2.2c0.6-1.4,0.2-3.2-0.9-4.1c-0.5-0.4-1.1-0.6-1.7-0.8
		L20.5,0h-1.1c-0.1,0.1-0.2,0.1-0.4,0.1c-0.1,0-0.2,0-0.2,0.1c-1.5,0.5-2.5,1.9-2.4,3.5C16.4,5.6,17.9,7.1,19.9,7.2z M20,1.2
		c1.3,0,2.4,1.1,2.4,2.4c0,1.3-1,2.4-2.3,2.4h-0.1c-1.3,0-2.4-1-2.4-2.4C17.6,2.3,18.7,1.2,20,1.2z"/>
	<path class="st0" d="M30.5,12c0.1,1.9,1.7,3.4,3.6,3.4l0.1,0c1,0,1.9-0.4,2.6-1.1c0.7-0.7,1-1.6,1-2.6c0-2-1.7-3.6-3.7-3.6
		c-1,0-1.9,0.4-2.6,1.1C30.9,10,30.5,11,30.5,12z M34.1,9.4c0.6,0,1.2,0.3,1.7,0.7c0.5,0.5,0.7,1.1,0.7,1.7c0,0.6-0.2,1.2-0.7,1.7
		c-0.5,0.5-1.1,0.7-1.7,0.7c-1.3,0-2.4-1.1-2.4-2.4C31.8,10.5,32.8,9.4,34.1,9.4z"/>
	<path class="st0" d="M5.8,15.5L5.8,15.5c2,0,3.6-1.6,3.6-3.6c0-2-1.6-3.7-3.5-3.7l-0.1,0c-2,0-3.6,1.6-3.6,3.6
		C2.2,13.8,3.8,15.4,5.8,15.5z M5.8,9.4L5.8,9.4c1.3,0,2.4,1.1,2.4,2.4c0,1.4-1.1,2.5-2.4,2.5s-2.4-1-2.4-2.4
		C3.4,10.5,4.5,9.4,5.8,9.4z"/>
	<path class="st0" d="M5.8,24.5L5.8,24.5c-2.1,0.1-3.7,1.7-3.7,3.7c0,2.1,1.6,3.7,3.6,3.7l0.1,0c2,0,3.6-1.7,3.6-3.7
		C9.4,26.1,7.8,24.5,5.8,24.5z M5.8,30.6L5.8,30.6c-1.3,0-2.4-1.1-2.4-2.4c0-1.3,1.1-2.4,2.4-2.4c1.3,0,2.4,1.1,2.4,2.4
		C8.2,29.5,7.1,30.6,5.8,30.6z"/>
	<path class="st0" d="M36.8,25.6c-0.7-0.7-1.6-1.1-2.6-1.1l-0.1,0c-2,0-3.6,1.6-3.6,3.6c0,1,0.4,1.9,1,2.6c0.7,0.7,1.6,1.1,2.5,1.1
		l0.1,0c2,0,3.6-1.6,3.6-3.6C37.8,27.2,37.5,26.3,36.8,25.6z M34.2,30.6c-1.3,0-2.4-1.1-2.4-2.4c0-1.3,1.1-2.4,2.4-2.4
		c1.3,0,2.4,1.1,2.4,2.4C36.6,29.5,35.5,30.6,34.2,30.6z"/>
	<path class="st0" d="M20,32.8L20,32.8c-2.1,0-3.7,1.6-3.7,3.6c0,2,1.7,3.6,3.6,3.6l0.1,0c1,0,1.9-0.4,2.6-1.1
		c0.6-0.7,1-1.6,0.9-2.5C23.6,34.4,22,32.8,20,32.8z M20,38.8c-1.3,0-2.4-1.1-2.4-2.4c0-1.3,1.1-2.4,2.4-2.4c1.3,0,2.4,1.1,2.4,2.4
		C22.4,37.7,21.3,38.8,20,38.8z"/>
	<path class="st0" d="M24.7,4.9L24.7,4.9C27,5.7,29,6.8,30.6,8.3c0,0,0.1,0.1,0.1,0.1c0,0,0.1,0,0.1-0.1c0.1-0.2,0.3-0.4,0.5-0.5
		c0.1,0,0.1-0.1,0.2-0.1c0.1-0.1,0.1-0.1,0.1-0.1c0,0,0-0.1-0.1-0.1c-1.4-1.2-2.9-2.2-4.7-3c-0.6-0.2-1.1-0.4-1.8-0.6c0,0,0,0,0,0
		c-0.1,0.2-0.1,0.3-0.2,0.5c0,0.2-0.1,0.3-0.2,0.5C24.6,4.9,24.6,4.9,24.7,4.9z"/>
	<path class="st0" d="M15.3,35.1L15.3,35.1c-2.3-0.8-4.2-1.9-5.8-3.4c-0.1-0.1-0.1-0.1-0.1-0.1c0,0-0.1,0-0.1,0.1l0,0l-0.6,0.6l0,0
		c-0.1,0.1-0.1,0.1-0.1,0.1c0,0,0,0,0.1,0.1c0.6,0.5,1.3,1,2,1.6c1.3,0.9,2.8,1.6,4.3,2.1c0,0,0,0,0.1,0c0,0,0,0,0,0c0,0,0,0,0,0
		c0.1-0.2,0.1-0.3,0.2-0.5l0,0C15.2,35.5,15.3,35.3,15.3,35.1C15.3,35.1,15.3,35.1,15.3,35.1C15.3,35.1,15.3,35.1,15.3,35.1z"/>
	<path class="st0" d="M35.4,22.9c-0.1,0.2-0.1,0.5-0.1,0.5l0,0l0,0c0.1,0.1,0.3,0.2,0.6,0.2c0.1,0,0.3,0,0.4,0.1c0.1,0,0.1,0,0.1,0
		c0,0,0,0,0.1-0.2c0.3-1.2,0.4-2.4,0.4-3.8c0-0.7,0-1.7-0.3-2.9c-0.1-0.7-0.2-0.7-0.3-0.7c-0.1,0-0.3,0-0.5,0.1l0,0h0
		c-0.1,0-0.1,0-0.1,0c0,0-0.1,0-0.1,0c-0.1,0-0.1,0-0.1,0.1c0,0,0,0.1,0,0.2c0.4,2,0.5,3.9,0.2,5.8C35.5,22.6,35.4,22.8,35.4,22.9z"
		/>
	<path class="st0" d="M8.7,7.9C8.8,8,8.9,8,9,8.1c0,0,0,0,0.1,0.1c0,0,0.1,0.1,0.1,0.2c0.1,0.1,0.1,0.1,0.1,0.1c0,0,0,0,0.1-0.1l0,0
		l0,0c0.1-0.1,0.2-0.2,0.3-0.2l0,0C9.8,8,9.9,7.9,10,7.8c1.5-1.3,3.2-2.2,5.1-2.8c0,0,0,0,0.1,0c0.1,0,0.1,0,0.1-0.1
		c0-0.2-0.1-0.3-0.1-0.5l0,0c0-0.2-0.1-0.3-0.1-0.5l0,0l0,0C15,3.8,15,3.8,15,3.8c0,0-0.1,0-0.1,0C12.7,4.5,10.8,5.6,9,7l0,0
		L8.9,7.1C8.7,7.2,8.5,7.4,8.5,7.5C8.5,7.7,8.6,7.8,8.7,7.9z"/>
	<path class="st0" d="M4.6,16.5c0,0,0,0-0.1-0.1c-0.4,0-0.7-0.1-0.9-0.2l0,0l0,0c0,0-0.1,0-0.1,0c0,0,0,0,0,0c0,0,0,0.1,0,0.2
		C3.2,17.5,3,18.7,3,20c0,1.2,0.1,2.4,0.4,3.5l0,0c0,0.2,0.1,0.2,0.1,0.2c0,0,0.1,0,0.2,0c0.2-0.1,0.5-0.1,0.7-0.2l0.1,0
		c0.1,0,0.2-0.1,0.2-0.1c0,0,0,0,0-0.2c-0.3-1-0.3-2.1-0.4-2.9c0-1.3,0.1-2.5,0.4-3.8C4.7,16.5,4.6,16.5,4.6,16.5z"/>
	<path class="st0" d="M31,31.8L31,31.8c0-0.1-0.1-0.1-0.1-0.2l0,0l0,0c-0.1-0.1-0.1-0.1-0.1-0.1c0,0-0.1,0-0.1,0.1
		c-0.6,0.6-1.3,1.1-2.1,1.6c-1.1,0.7-2.3,1.3-3.6,1.7c0,0,0,0-0.1,0c0,0-0.1,0-0.1,0c0,0,0,0,0,0.1l0,0l0,0c0,0.2,0.1,0.3,0.1,0.5
		c0,0.2,0.1,0.3,0.1,0.5l0,0v0c0,0,0,0,0,0c0.1,0,0.2-0.1,0.3-0.1c2.1-0.7,4-1.7,5.7-3.1c0.3-0.3,0.5-0.5,0.5-0.6
		C31.5,32.3,31.3,32.2,31,31.8L31,31.8z"/>
	<path class="st0" d="M27,24.7c0.5,0.2,0.9,0.5,1.3,0.7l0,0c0.4,0.2,0.9,0.5,1.3,0.7l0,0l0,0c0,0,0,0,0.1,0c0.1-0.2,0.2-0.3,0.3-0.5
		l0,0c0.1-0.2,0.2-0.3,0.3-0.5c0,0,0,0,0,0c0,0-0.1,0-0.1-0.1l0,0c-0.3-0.2-0.6-0.3-0.9-0.5c-0.3-0.2-0.6-0.3-0.9-0.5l0,0
		c-0.1-0.1-0.2-0.1-0.3-0.2l0,0c-0.2-0.1-0.4-0.3-0.5-0.3c0,0,0,0-0.1,0c-0.2,0.1-0.3,0.3-0.4,0.5l0,0c0,0.1-0.1,0.2-0.2,0.3l0,0.1
		l0,0l0,0l0,0C26.9,24.7,26.9,24.7,27,24.7C26.9,24.7,26.9,24.7,27,24.7z"/>
	<path class="st0" d="M9.7,14.8c0.2,0.1,0.4,0.2,0.6,0.3l0.1,0.1c0.6,0.4,1.3,0.7,1.9,1.1c0.1,0,0.1,0,0.1,0c0,0,0,0,0.1-0.1l0,0
		c0.2-0.3,0.3-0.6,0.5-0.8c0.1-0.1,0.1-0.1,0.1-0.2c0,0,0-0.1-0.1-0.1c-0.4-0.2-0.8-0.5-1.3-0.7l0,0c-0.4-0.2-0.8-0.5-1.2-0.7
		c-0.1,0-0.1,0-0.2-0.1c0,0,0,0,0,0l0,0.1c-0.1,0.1-0.2,0.3-0.3,0.4l0,0C9.8,14.4,9.7,14.6,9.7,14.8C9.6,14.8,9.6,14.8,9.7,14.8
		C9.6,14.8,9.6,14.8,9.7,14.8C9.6,14.8,9.7,14.8,9.7,14.8L9.7,14.8z"/>
	<path class="st0" d="M9.9,25.8c0.1,0.1,0.2,0.3,0.3,0.4c0,0,0,0.1,0.1,0.1h0c0,0,0,0,0.1,0c0.9-0.5,1.7-1,2.5-1.4l0.1,0
		c0,0,0,0,0.1,0l0,0c0,0,0,0,0,0c0,0,0,0,0,0c0,0,0,0,0,0c-0.2-0.3-0.4-0.6-0.6-0.9l0,0l0,0c0-0.1-0.1-0.1-0.1-0.1c0,0-0.1,0-0.1,0
		l0,0l0,0c-0.3,0.2-0.6,0.3-0.9,0.5c-0.3,0.2-0.6,0.3-0.9,0.5c-0.1,0.1-0.2,0.1-0.3,0.2l0,0C10,25,9.7,25.2,9.7,25.3
		C9.6,25.4,9.8,25.6,9.9,25.8L9.9,25.8z"/>
	<path class="st0" d="M30.3,14.8L30.3,14.8L30.3,14.8c-0.3-0.3-0.4-0.6-0.5-0.8c0-0.1-0.1-0.1-0.1-0.1c0,0-0.1,0-0.1,0.1
		c-0.1,0.1-0.3,0.2-0.4,0.2l-0.1,0c-0.4,0.2-0.9,0.5-1.3,0.8c-0.1,0.1-0.2,0.1-0.4,0.2l0,0c-0.3,0.1-0.5,0.2-0.5,0.4
		c0,0.1,0.1,0.3,0.3,0.5c0.1,0.1,0.2,0.2,0.2,0.4c0,0.1,0.1,0.1,0.1,0.1c0,0,0,0,0.1,0c0.9-0.5,1.7-1,2.5-1.5l0,0L30.3,14.8
		C30.2,14.8,30.2,14.8,30.3,14.8C30.3,14.8,30.3,14.8,30.3,14.8C30.3,14.8,30.3,14.8,30.3,14.8z"/>
	<path class="st0" d="M20.6,9c0-0.2,0.1-0.4-0.1-0.5l0,0l0,0c-0.1-0.1-0.2-0.1-0.3-0.1c-0.1,0-0.2,0-0.3,0c-0.1,0-0.2,0-0.3,0
		c-0.1,0-0.1,0-0.1,0c-0.1,0-0.2,0-0.2,0.2v2c0,0.1,0,0.3,0,0.4c0,0.3-0.1,0.5,0.1,0.6c0.1,0.1,0.2,0.1,0.3,0.1c0.1,0,0.2,0,0.3,0
		l0,0c0.1,0,0.2,0,0.3,0c0.1,0,0.1,0,0.1,0c0.1,0,0.1,0,0.1-0.2l0-2.1C20.6,9.3,20.6,9.2,20.6,9L20.6,9z"/>
	<path class="st0" d="M20.5,28.3c-0.1,0-0.1,0-0.2,0l0,0c-0.1,0-0.2,0-0.3,0c-0.1,0-0.2,0-0.3,0c0,0-0.1,0-0.1,0
		c-0.1,0-0.1,0-0.1,0.2v2c0,0.1,0,0.2,0,0.3l0,0c0,0.3-0.1,0.5,0.1,0.6l0,0l0,0c0.1,0.1,0.2,0.1,0.3,0.1c0.1,0,0.2,0,0.3,0l0,0
		c0.1,0,0.2,0,0.3,0c0.1,0,0.1,0,0.1,0c0.1,0,0.2,0,0.2-0.2v-1.4c0-0.1,0-0.2,0-0.4c0-0.4,0-0.7,0-1.1
		C20.6,28.3,20.6,28.3,20.5,28.3z"/>
</g>
</svg>
