<?xml version="1.0" encoding="utf-8"?>
<!-- Generator: Adobe Illustrator 23.0.1, SVG Export Plug-In . SVG Version: 6.00 Build 0)  -->
<svg version="1.1" id="Capa_1" xmlns="http://www.w3.org/2000/svg" xmlns:xlink="http://www.w3.org/1999/xlink" x="0px" y="0px"
	 viewBox="0 0 40 40" style="enable-background:new 0 0 40 40;" xml:space="preserve">
<style type="text/css">
	.st0{fill:#3A3A3A;}
</style>
<g>
	<path class="st0" d="M19.1,14.1c0-0.4-0.2-0.7-0.7-0.7l-0.3,0c-0.2,0-0.3,0-0.5,0c-0.2,0-0.4,0-0.6,0c-0.2,0-0.5,0.1-0.8,0.3
		c-0.2,0.1-0.3,0.3-0.5,0.4c-0.1,0.1-0.2,0.2-0.2,0.2l-0.2,0.2l-0.4-0.9c-0.3-0.5-0.5-1-0.8-1.5c-0.2-0.3-0.4-0.5-0.6-0.5
		c-0.2,0-0.4,0.1-0.6,0.3c-0.1,0.1-0.3,0.3-0.4,0.4c-0.2,0.2-0.5,0.5-0.7,0.7c-0.2,0.1-0.4,0.2-0.6,0.3c-0.1,0-0.3,0-0.4,0l-0.4,0
		c-0.1,0-0.2,0-0.3,0c-0.4,0-0.6,0.3-0.6,0.7c0,0.4,0.2,0.6,0.6,0.6l0.2,0c0.3,0,0.5,0,0.7,0c0,0,0,0,0,0c0.7,0,1.5-0.1,2-0.9
		c0-0.1,0.1-0.1,0.1-0.1l0.2-0.1l0.4,0.9c0.3,0.5,0.5,1,0.8,1.5c0.1,0.3,0.4,0.4,0.6,0.4c0.2,0,0.4-0.1,0.5-0.2l0.1-0.1
		c0.1-0.1,0.2-0.2,0.3-0.3c0.5-0.7,1.2-1.1,2-1.1c0.1,0,0.3,0,0.4,0c0,0,0.1,0,0.1,0C18.9,14.8,19.1,14.5,19.1,14.1z"/>
	<path class="st0" d="M36.6,20.2c-2.1-2.2-5-3.4-8-3.4l-0.2,0c-6.2,0-11.4,5.1-11.5,11.3c0,3.1,1.1,6,3.3,8.2
		c2.2,2.2,5.1,3.4,8.2,3.4c6.2,0,11.4-5.1,11.5-11.3C39.9,25.3,38.7,22.4,36.6,20.2z M22.2,20c0.9-0.7,1.9-1.2,3-1.5l0.5-0.2
		l-0.3,0.4c-0.5,0.7-0.9,1.5-1.2,2.5L24,21.4l-0.2-0.1c-0.6-0.3-1.1-0.6-1.7-1L22,20.1L22.2,20z M25,23c0.9,0.3,1.7,0.4,2.7,0.5
		l0.2,0v4.1h-3.6l0-0.2c0.1-1.6,0.2-3,0.5-4.3l0-0.2L25,23z M21,21l0.1-0.1l0.1,0.1c0.7,0.6,1.5,1.1,2.3,1.5l0.1,0.1l0,0.1
		c-0.4,1.5-0.6,3.1-0.6,4.8l0,0.2h-4.9l0-0.2C18,25.8,19.5,22.5,21,21z M20.7,35l-0.1-0.1c-1.5-1.7-2.2-3.7-2.4-5.9l0-0.2H23l0,0.3
		c0,0.3,0,0.6,0.1,0.9c0.1,0.9,0.2,1.7,0.3,2.6l0.1,0.7l-0.1,0.1c-0.9,0.4-1.8,1-2.6,1.7L20.7,35z M25.1,38c-1.3-0.4-2.4-1.1-3.5-2
		l-0.2-0.1l0.2-0.1c0.5-0.5,1.4-1.1,2-1.3l0.2-0.1l0.1,0.2c0.3,0.9,0.7,2.1,1.5,3.2l0.3,0.5L25.1,38z M27.8,38.5l-0.4-0.3
		c-0.3-0.2-0.6-0.4-0.8-0.7c-0.9-1-1.4-2.4-1.7-3.5l0-0.2l0.2-0.1c0.8-0.3,1.7-0.5,2.6-0.5l0.2,0V38.5z M27.8,32.1l-0.2,0
		c-1,0.1-1.9,0.2-2.8,0.5l-0.2,0.1l0-0.2c-0.2-1.1-0.3-2.2-0.4-3.5l0-0.2h3.6V32.1z M27.8,22.3l-0.2,0c-0.8-0.1-1.5-0.2-2.3-0.4
		l-0.2-0.1l0.1-0.2c0.1-0.3,0.2-0.5,0.3-0.7c0.4-1,0.9-1.7,1.4-2.3c0.2-0.2,0.4-0.4,0.6-0.5l0.3-0.1V22.3z M35.7,20.9l0.1,0.1
		c1.7,1.8,2.7,3.9,2.9,6.4l0,0.2h-4.9l0-0.2c0-1.7-0.3-3.2-0.6-4.8l0-0.2l0.1-0.1c0.8-0.4,1.6-0.8,2.3-1.4L35.7,20.9z M31.6,18.4
		c1.1,0.4,2.1,0.9,3,1.6l0.2,0.1l-0.2,0.1c-0.5,0.4-1.2,0.8-1.7,1l-0.2,0.1l-0.1-0.2c-0.4-1-0.8-1.8-1.2-2.5l-0.3-0.5L31.6,18.4z
		 M32.6,27.6h-3.6v-4.1l0.2,0c0.9-0.1,1.8-0.2,2.7-0.5L32,23l0,0.2c0.3,1.3,0.5,2.7,0.5,4.3L32.6,27.6z M28.9,17.9l0.4,0.3
		c0.3,0.2,0.6,0.4,0.8,0.7c0.7,0.8,1.1,1.9,1.4,2.7l0.1,0.2l-0.2,0.1c-0.8,0.2-1.5,0.4-2.3,0.4l-0.2,0V17.9z M28.9,28.8h3.6l0,0.2
		c0,1.2-0.2,2.4-0.4,3.5l0,0.2l-0.2-0.1c-0.9-0.3-1.9-0.5-2.8-0.5l-0.2,0V28.8z M29.2,38.3l-0.3,0.1v-5.2l0.2,0
		c0.9,0.1,1.7,0.2,2.6,0.5l0.2,0.1l0,0.2c-0.2,0.7-0.4,1.4-0.7,2c-0.3,0.7-0.7,1.2-1.1,1.7C29.8,37.9,29.5,38.1,29.2,38.3z M35.1,36
		c-1.1,0.9-2.2,1.5-3.5,2l-0.5,0.2l0.3-0.5c0.8-1.1,1.2-2.3,1.5-3.2l0.1-0.2l0.2,0.1c0.7,0.4,1.4,0.8,2,1.3l0.2,0.1L35.1,36z
		 M38.6,29c-0.2,2.2-1,4.2-2.4,5.9L36.1,35c0,0-0.3-0.2-0.3-0.3c-0.7-0.6-1.6-1.2-2.4-1.6l-0.1-0.1l0-0.1c0.3-1.3,0.4-2.6,0.5-4
		l0-0.2h4.9L38.6,29z"/>
	<path class="st0" d="M19,18.5H6.2c-0.2,0-1,0-1.2,0c-0.3,0-0.6,0-0.8,0c-0.3,0-0.5,0.1-0.6,0.3c-0.1,0.2-0.1,0.4,0,0.7
		c0.1,0.2,0.3,0.3,0.7,0.3h0c1.9,0,3.8,0,5.8,0l4.2,0l0.2,0h3.3C18.1,19.3,18.5,18.9,19,18.5z"/>
	<path class="st0" d="M6.8,22.7c-0.9,0-1.7,0-2.6,0c-0.3,0-0.5,0.1-0.6,0.3c-0.1,0.2-0.1,0.4-0.1,0.6C3.6,23.8,3.8,24,4.3,24l10.4,0
		h0.8c0.1-0.4,0.3-0.9,0.5-1.3L6.8,22.7z"/>
	<path class="st0" d="M4.2,28.2c0.1,0,0.2,0,0.2,0l10.4,0c0-0.1,0-0.2,0-0.2c0-0.3,0-0.7,0.1-1.1h-0.6l-0.2,0l-8.7,0
		c-0.4,0-0.8,0-1.2,0c-0.4,0-0.7,0.2-0.7,0.6C3.5,28.1,3.9,28.2,4.2,28.2z"/>
	<path class="st0" d="M3.6,32c0.1,0.3,0.3,0.4,0.8,0.4c1.1,0,2.2,0,3.3,0l7.8,0c-0.1-0.4-0.3-0.9-0.4-1.3l-7.8,0c-1,0-2,0-3.1,0
		c-0.3,0-0.5,0.1-0.6,0.3C3.5,31.6,3.5,31.8,3.6,32z"/>
	<path class="st0" d="M2.6,38.7c-0.8,0-1.2-0.4-1.2-1.2c0-1.7,0-3.4,0-5.1l0-24.7c0-1,0.3-1.3,1.3-1.3l2,0L4.6,6.8
		c0,0.1-0.1,0.2-0.1,0.2c-0.1,0.3-0.1,0.5,0,0.7C4.6,7.9,4.8,8,5.1,8c0.4,0,0.8,0,1.3,0l1.5,0l15.3,0l0.2,0c0.1,0,0.1,0,0.2,0
		c0.3,0,0.5-0.1,0.5-0.3c0.1-0.2,0.1-0.4,0-0.6l-0.3-0.7h0.3c0.2,0,0.5,0,0.7,0c0.2,0,0.5,0,0.7,0c0.4,0,0.7,0,0.9,0
		c0.3,0,0.7,0.3,0.7,1.1c0,1.3,0,2.6,0,3.9l0,3.2c0.4,0,0.9-0.1,1.3-0.1h0c0-2.4,0-4.7,0-7.1c0-1.6-0.9-2.5-2.6-2.5c0,0-1.1,0-1.3,0
		c-0.3,0-0.6,0-1,0c-0.3,0-0.5-0.1-0.7-0.5c-0.2-0.3-0.3-0.7-0.5-1c-0.2-0.4-0.4-0.9-0.6-1.3c-0.2-0.4-0.5-0.6-0.9-0.6l0,0
		c-0.5,0-0.9,0-1.4,0l-1.5,0c-0.3,0-0.5,0-0.8,0c-0.3,0-0.5-0.1-0.7-0.4c-0.4-0.8-1.1-1.2-2-1.2c-0.9,0-1.6,0.4-2,1.3
		c-0.1,0.3-0.3,0.4-0.7,0.4c0,0,0,0,0,0c-0.5,0-1,0-1.5,0l-1.2,0c-0.4,0-0.7,0-1.1,0C7.3,1.7,7,1.8,6.9,2.2C6.7,2.4,6.6,2.7,6.5,2.9
		C6.3,3.3,6.1,3.7,5.9,4.2C5.7,4.6,5.4,5.1,4.7,5.1c-0.1,0-0.2,0-0.2,0C4.3,5,4,5,3.8,5C3.6,5,3.4,5,3.2,5C3,5,2.9,5,2.7,5
		c-1.6,0-2.5,0.9-2.5,2.5c0,3.5,0,7.1,0,10.6l0,4.1h0l0,4.4c0,3.6,0,7.3,0,10.9c0,1.5,0.9,2.4,2.4,2.4c3,0,6,0,9,0l10.1,0
		c-0.7-0.4-1.3-0.8-1.9-1.3H2.6z M6.6,5.7C7,4.9,7.4,4.1,7.8,3.3C7.9,3.1,8.2,3,8.4,3c0.7,0,1.5,0,2.2,0h1.9c0.6,0,0.7-0.1,0.8-0.7
		c0.1-0.6,0.5-1,1-1c0.6,0,1,0.4,1,1C15.4,2.8,15.5,3,16.1,3c0.6,0,1.3,0,1.9,0c0.7,0,1.4,0,2.2,0c0.3,0,0.5,0.1,0.6,0.4
		c0.4,0.7,0.7,1.5,1.1,2.2l0.5,1.1H6.1L6.6,5.7z"/>
</g>
</svg>
