<?xml version="1.0" encoding="utf-8"?>
<!-- Generator: Adobe Illustrator 23.0.1, SVG Export Plug-In . SVG Version: 6.00 Build 0)  -->
<svg version="1.1" id="Capa_1" xmlns="http://www.w3.org/2000/svg" xmlns:xlink="http://www.w3.org/1999/xlink" x="0px" y="0px"
	 viewBox="0 0 40 40" style="enable-background:new 0 0 40 40;" xml:space="preserve">
<style type="text/css">
	.st0{fill:#3A3A3A;}
</style>
<g>
	<path class="st0" d="M22.1,32.5c-0.9,0-1.8,0-2.6,0c-0.2,0-0.4,0-0.6,0c0,0,0-0.1,0-0.1c0-1.8,0-3.5,0-5.3c0-0.6-0.2-0.8-0.8-0.8
		c-2.5,0-5,0-7.6,0c-0.6,0-0.8,0.2-0.8,0.8c0,1.5,0,3.1,0,4.6c0,0.2,0,0.5,0,0.7c-0.1,0-0.2,0-0.4,0c-1,0-1.9,0-2.9,0
		c-0.4,0-0.7,0.2-0.7,0.7c0,2,0,4.1,0,6.1c0,0.3,0.2,0.6,0.6,0.6c0.1,0,0.2,0,0.3,0c1.3,0,2.7,0,4,0c1.3,0,2.7,0,4,0
		c2.2,0,4.3,0,6.5,0c1,0,1.6-0.6,1.7-1.6c0-1.7,0-3.4,0-5.1C22.8,32.8,22.6,32.5,22.1,32.5z M17.8,33.9c0.3,0,0.5,0,0.8,0
		c0,0.4,0,0.7,0,1.1c-0.3,0-0.5-0.1-0.8-0.1C17.8,34.5,17.8,34.2,17.8,33.9z M13.8,27.7c0.3,0,0.5,0,0.8,0c0,0.4,0,0.7,0,1.1
		c-0.3,0-0.5-0.1-0.8-0.1C13.8,28.4,13.8,28.1,13.8,27.7z M9.8,33.9c0.3,0,0.5,0,0.8,0c0,0.4,0,0.7,0,1.1c-0.3,0-0.5-0.1-0.8-0.1
		C9.8,34.6,9.8,34.2,9.8,33.9z M13.2,38.7c-2,0-4,0-6.1,0c0,0-0.1,0-0.2,0c0-1.6,0-3.2,0-4.8c0.5,0,1,0,1.5,0c0,0.1,0,0.2,0,0.3
		c0,0.6,0,1.3,0,1.9c0,0.3,0.1,0.5,0.4,0.7c0.3,0.1,0.6,0.1,0.8-0.1c0.4-0.4,0.7-0.4,1.1,0c0,0,0.1,0.1,0.1,0.1c0.5,0.3,1,0,1.1-0.6
		c0-0.7,0-1.3,0-2c0-0.1,0-0.2,0-0.3c0.5,0,1,0,1.6,0c0,0.1,0,0.1,0,0.2c0,1.4,0,2.8,0,4.3C13.6,38.6,13.5,38.7,13.2,38.7z
		 M11.2,32.5c-0.1,0-0.1,0-0.2,0c0-1.6,0-3.2,0-4.8c0.5,0,1,0,1.5,0c0,0.1,0,0.2,0,0.3c0,0.7,0,1.3,0,2c0,0.3,0.1,0.5,0.4,0.6
		c0.3,0.1,0.5,0.1,0.7-0.1c0.4-0.4,0.8-0.4,1.2,0c0.2,0.2,0.5,0.3,0.8,0.1c0.3-0.2,0.3-0.4,0.3-0.7c0-0.7,0-1.4,0-2.2
		c0.6,0,1.1,0,1.6,0c0,0.1,0,0.2,0,0.3c0,1.4,0,2.8,0,4.1c0,0.3-0.1,0.4-0.3,0.4C15.2,32.5,13.2,32.5,11.2,32.5z M21.2,38.7
		c-2,0-4,0-6,0c0,0-0.1,0-0.2,0c0-1.6,0-3.2,0-4.8c0.5,0,1,0,1.5,0c0,0.4,0,0.9,0,1.3c0,0.3,0,0.7,0,1c0,0.5,0.6,0.8,1,0.5
		c0.2-0.1,0.3-0.2,0.5-0.3c0.2-0.1,0.3-0.1,0.4,0c0.2,0.1,0.3,0.2,0.5,0.3c0.5,0.3,1,0,1-0.6c0-0.7,0-1.3,0-2c0-0.1,0-0.2,0-0.3
		c0.5,0,1.1,0,1.6,0c0,0.1,0,0.2,0,0.2c0,1.4,0,2.8,0,4.2C21.5,38.6,21.4,38.7,21.2,38.7z"/>
	<path class="st0" d="M28.1,23.7c-0.1,0-0.1-0.1-0.2-0.1c-3-1.3-6-2.7-9-4c-0.1,0-0.2-0.1-0.2-0.1c0.2-0.8,0.5-1.6,0.6-2.4
		c0.1-0.8-0.1-1.6-0.5-2.4c-0.4-0.7-0.9-1.4-1.5-1.9c-1.7-1.3-4.1-1.4-5.8-0.2c-0.9,0.6-1.5,1.4-1.9,2.4c-0.6,1.5-0.3,2.9,0.4,4.3
		c-0.1,0.1-0.2,0.1-0.3,0.1c-1.8,0.8-3.6,1.6-5.4,2.4c-1.3,0.6-2.5,1.1-3.8,1.7C0.1,23.8,0,24.1,0,24.4c0,0.5,0.5,0.7,0.9,0.5
		c0.5-0.2,1.1-0.5,1.6-0.7c0,0.1,0,0.2,0,0.3c0,4.9,0,9.8,0,14.6c0,0.1,0,0.2,0,0.3c0,0.3,0.3,0.6,0.6,0.6c0.3,0,0.6-0.2,0.6-0.6
		c0-0.2,0-0.4,0-0.6c0-5,0-9.9,0-14.9c0-0.2,0.1-0.3,0.3-0.4c2.1-0.9,4.1-1.8,6.2-2.7c0.1,0,0.1,0,0.2-0.1c0,0.1,0.1,0.1,0.1,0.1
		c0.9,1.7,2,3.3,3.1,4.9c0.4,0.5,0.9,0.5,1.2,0c1.1-1.6,2.1-3.2,3-4.9c0-0.1,0.1-0.1,0.1-0.2c2.1,0.9,4.2,1.9,6.3,2.8
		c0.2,0.1,0.3,0.2,0.3,0.4c0,4,0,8.1,0,12.1c0,1.1,0,2.2,0,3.3c0,0.4,0.3,0.7,0.7,0.7c0.4,0,0.6-0.3,0.6-0.8c0-4.9,0-9.8,0-14.7
		c0-0.1,0-0.2,0-0.3c0.6,0.2,1.1,0.5,1.6,0.7c0.4,0.1,0.7,0,0.9-0.3C28.6,24.3,28.5,23.9,28.1,23.7z M17.7,18.4
		C17,20.1,16,21.7,15,23.2c-0.2,0.4-0.5,0.7-0.8,1.2c-1.3-2-2.6-4-3.5-6.2c-0.6-1.5-0.2-2.8,0.9-3.9c1.2-1.1,2.5-1.4,4-0.7
		c1.5,0.6,2.3,1.8,2.3,3.4C18,17.4,17.8,17.9,17.7,18.4z"/>
	<path class="st0" d="M14.2,14.4c-1.4,0-2.5,1.2-2.5,2.6c0,1.4,1.2,2.5,2.5,2.5c1.4,0,2.5-1.2,2.5-2.5
		C16.7,15.5,15.6,14.4,14.2,14.4z M14.3,18.1c-0.7,0-1.2-0.5-1.2-1.2c0-0.7,0.5-1.2,1.2-1.2c0.7,0,1.2,0.5,1.2,1.2
		C15.4,17.6,14.9,18.1,14.3,18.1z"/>
	<path class="st0" d="M36.3,3.9c-2.4-2.5-5.7-3.9-9.1-3.9l-0.2,0c-5.8,0-10.7,3.8-12.5,9.1c0.5,0,0.9,0.1,1.4,0.2
		c0.6-1.6,1.6-3.3,2.7-4.3l0.1-0.1l0.1,0.1c0.8,0.7,1.7,1.2,2.7,1.7l0.2,0.1l0,0.2c-0.4,1.7-0.7,3.5-0.7,5.4l0,0.2h-0.1
		c0.3,0.4,0.5,0.7,0.7,1.1c0.7,1.4,0.9,2.7,0.7,4c0,0.1,0,0.2-0.1,0.3c0.2,0.1,0.3,0.2,0.6,0.2l0-0.2c-0.2-1.2-0.4-2.5-0.4-4l0-0.2
		h4.1v3.7l-0.2,0c-1.1,0.1-2.2,0.3-3.2,0.6l-0.2,0.1c0.5,0.2,1.2,0.5,1.9,0.9c0.5-0.1,1-0.2,1.5-0.2l0.2,0v1
		c0.5,0.2,0.9,0.4,1.3,0.6v-1.6l0.2,0c1,0.1,2,0.3,2.9,0.6l0.2,0.1l-0.1,0.2c-0.2,0.7-0.4,1.4-0.7,2c0.4,0.3,0.7,0.7,0.9,1.1
		c0.5-0.9,0.8-1.8,1-2.6l0.1-0.2l0.2,0.1c0.8,0.4,1.6,0.9,2.2,1.5l0.2,0.2L34.6,22c-1,0.9-2.1,1.5-3.3,2c0.1,0.5,0,1-0.2,1.5
		c5.1-1.8,8.8-6.5,8.8-12.1C40.1,9.8,38.7,6.4,36.3,3.9z M22,5.1L22,5.3l-0.2-0.1c-0.7-0.3-1.3-0.7-1.9-1.2l-0.2-0.2l0.2-0.2
		c1.1-0.8,2.2-1.4,3.4-1.8l0.6-0.2l-0.3,0.5C22.9,3.1,22.5,4,22,5.1z M26.3,12.4h-4.1l0-0.2c0.1-1.8,0.3-3.4,0.6-4.9l0.1-0.2L23,7.2
		c1,0.3,2,0.5,3,0.6l0.2,0V12.4z M26.3,6.4l-0.2,0c-0.9-0.1-1.8-0.2-2.7-0.5l-0.2-0.1l0.1-0.3c0.1-0.3,0.2-0.6,0.3-0.8
		c0.5-1.1,1-1.9,1.6-2.6c0.2-0.2,0.5-0.4,0.7-0.5l0.3-0.2V6.4z M27.6,1.4L28,1.7C28.4,2,28.7,2.2,29,2.5c0.8,1,1.3,2.2,1.6,3.1
		l0.1,0.2l-0.2,0.1c-0.9,0.3-1.7,0.4-2.7,0.5l-0.2,0V1.4z M31.7,14c0,1.4-0.2,2.7-0.4,4l0,0.2L31,18.1c-1.1-0.3-2.1-0.5-3.2-0.6
		l-0.2,0v-3.7h4.1L31.7,14z M27.6,12.4V7.7l0.2,0c1-0.1,2-0.3,3-0.6L31,7.1l0.1,0.2c0.4,1.5,0.5,3,0.6,4.9l0,0.2H27.6z M32.1,5.2
		l-0.2,0.1l-0.1-0.2c-0.4-1.1-0.9-2.1-1.4-2.9L30,1.7l0.6,0.2c1.2,0.4,2.4,1,3.4,1.8l0.2,0.2L34,4C33.5,4.4,32.6,5,32.1,5.2z
		 M38.6,14c-0.2,2.6-1.1,4.8-2.8,6.7l-0.1,0.2c0,0-0.3-0.3-0.4-0.3c-0.9-0.7-1.8-1.3-2.7-1.8l-0.2-0.1l0-0.2c0.3-1.5,0.5-3,0.5-4.6
		l0-0.2h5.6L38.6,14z M33,12.4l0-0.2c-0.1-1.9-0.3-3.7-0.7-5.4l0-0.2l0.2-0.1c0.9-0.4,1.8-1,2.7-1.7l0.2-0.1l0.1,0.1
		c2,2.1,3,4.5,3.3,7.3l0,0.2H33z"/>
</g>
</svg>
