<?xml version="1.0" encoding="utf-8"?>
<!-- Generator: Adobe Illustrator 18.0.0, SVG Export Plug-In . SVG Version: 6.00 Build 0)  -->
<!DOCTYPE svg PUBLIC "-//W3C//DTD SVG 1.1//EN" "http://www.w3.org/Graphics/SVG/1.1/DTD/svg11.dtd">
<svg version="1.1" id="Layer_1" xmlns="http://www.w3.org/2000/svg" xmlns:xlink="http://www.w3.org/1999/xlink" x="0px" y="0px"
	 viewBox="294.5 0 23 23" enable-background="new 294.5 0 23 23" xml:space="preserve">
<path fill="#00BFF3" d="M315.9,15.3c0.4-0.5,0.7-1.1,0.6-1.7c0-0.7-0.3-1.2-0.6-1.5c0.3-0.7,0.4-1.8-0.6-2.7
	c-0.7-0.6-1.9-0.9-3.6-0.8c-1.2,0.1-2.2,0.3-2.2,0.3h0c-0.2,0-0.5,0.1-0.7,0.1c0-0.3,0-1,0.6-2.6c0.6-1.9,0.6-3.3-0.1-4.3
	c-0.7-1-1.9-1.1-2.3-1.1c-0.3,0-0.7,0.1-0.9,0.4c-0.5,0.6-0.4,1.6-0.4,2.1c-0.6,1.6-2.3,5.4-3.7,6.4c0,0,0,0-0.1,0.1
	c-0.4,0.4-0.7,0.9-0.9,1.3c-0.3-0.1-0.6-0.2-0.9-0.2h-2.8c-1,0-1.9,0.8-1.9,1.8V20c0,1,0.8,1.8,1.9,1.8h2.8c0.4,0,0.8-0.1,1.1-0.3
	l1.1,0.1c0.2,0,3.1,0.4,6,0.3c0.5,0,1,0.1,1.5,0.1c0.8,0,1.5-0.1,2.1-0.2c1.4-0.3,2.3-0.9,2.8-1.7c0.4-0.6,0.4-1.3,0.3-1.7
	c0.9-0.8,1.1-1.7,1-2.3C316,15.8,316,15.5,315.9,15.3z M297.4,20.6c-0.4,0-0.7-0.3-0.7-0.6v-7.1c0-0.4,0.3-0.6,0.7-0.6h2.8
	c0.4,0,0.7,0.3,0.7,0.6V20c0,0.4-0.3,0.6-0.7,0.6L297.4,20.6L297.4,20.6z M314.7,14.8c-0.2,0.2-0.2,0.5-0.1,0.7c0,0,0.2,0.3,0.2,0.7
	c0,0.6-0.3,1.1-0.8,1.5c-0.2,0.2-0.3,0.4-0.2,0.7c0,0,0.2,0.6-0.1,1.1c-0.3,0.5-1,0.9-2,1.1c-0.8,0.2-1.9,0.2-3.3,0.1c0,0,0,0-0.1,0
	c-2.9,0.1-5.8-0.3-5.9-0.3h0l-0.5-0.1c0-0.1,0-0.3,0-0.4v-7.1c0-0.2,0-0.4-0.1-0.5c0.1-0.3,0.3-0.9,0.8-1.5c2-1.6,4-6.8,4.1-7.1
	c0-0.1,0-0.2,0-0.3c-0.1-0.5,0-1.1,0.1-1.3c0.2,0,0.9,0.1,1.3,0.6c0.5,0.6,0.4,1.7-0.1,3.2c-0.8,2.2-0.8,3.4-0.2,3.9
	c0.3,0.3,0.7,0.3,1,0.2c0.3-0.1,0.5-0.1,0.8-0.2c0,0,0,0,0.1,0c1.4-0.3,3.9-0.5,4.7,0.3c0.7,0.6,0.2,1.5,0.2,1.6
	c-0.2,0.2-0.1,0.6,0.1,0.8c0,0,0.5,0.4,0.5,1C315.3,14,315.1,14.4,314.7,14.8z"/>
</svg>
