<?xml version="1.0" encoding="utf-8"?>
<!-- Generator: Adobe Illustrator 18.0.0, SVG Export Plug-In . SVG Version: 6.00 Build 0)  -->
<!DOCTYPE svg PUBLIC "-//W3C//DTD SVG 1.1//EN" "http://www.w3.org/Graphics/SVG/1.1/DTD/svg11.dtd">
<svg version="1.1" id="Layer_1" xmlns="http://www.w3.org/2000/svg" xmlns:xlink="http://www.w3.org/1999/xlink" x="0px" y="0px"
	 viewBox="0 0 23 23" enable-background="new 0 0 23 23" xml:space="preserve">
<path fill="#4FC0EF" d="M16.4,8l3.1-4c0.1-0.2,0.1-0.4,0-0.6c-0.1-0.2-0.3-0.3-0.5-0.3H5.8V2.4c0.4-0.2,0.8-0.6,0.8-1.2
	C6.5,0.6,6,0,5.2,0C4.5,0,3.9,0.6,3.9,1.3c0,0.5,0.3,1,0.8,1.2v19.5H4c-0.3,0-0.5,0.2-0.5,0.5C3.5,22.8,3.7,23,4,23h2.5
	C6.8,23,7,22.8,7,22.5c0-0.3-0.2-0.5-0.5-0.5H5.8v-9.1H19c0.2,0,0.4-0.1,0.5-0.3c0.1-0.2,0.1-0.4,0-0.6L16.4,8z M5.2,1.6
	c-0.2,0-0.3-0.1-0.3-0.3C4.9,1.1,5.1,1,5.2,1c0.2,0,0.3,0.1,0.3,0.3S5.4,1.6,5.2,1.6z M5.8,11.8L5.8,11.8V10h1.7C7.8,10,8,9.8,8,9.5
	c0-0.3-0.2-0.5-0.5-0.5H5.8V7h2.7C8.8,7,9,6.7,9,6.5c0-0.3-0.2-0.5-0.5-0.5H5.8V4.2h12.1l-2.7,3.5c-0.1,0.2-0.1,0.4,0,0.6l2.6,3.5
	H5.8L5.8,11.8z"/>
</svg>
