<?xml version="1.0" encoding="utf-8"?>
<!-- Generator: Adobe Illustrator 18.0.0, SVG Export Plug-In . SVG Version: 6.00 Build 0)  -->
<!DOCTYPE svg PUBLIC "-//W3C//DTD SVG 1.1//EN" "http://www.w3.org/Graphics/SVG/1.1/DTD/svg11.dtd">
<svg version="1.1" id="Layer_1" xmlns="http://www.w3.org/2000/svg" xmlns:xlink="http://www.w3.org/1999/xlink" x="0px" y="0px"
	 viewBox="0 0 30 30" enable-background="new 0 0 30 30" xml:space="preserve">
<g>
	<g>
		<path fill="#666666" d="M19.9,0.3h-8.1V3h8.1V0.3z M3.8,4.3L2.1,6l3.7,3.7c-1.3,1.9-2,4.2-2,6.6c0,6.6,5.4,12,12.1,12
			c2.5,0,4.8-0.7,6.7-2l3.4,3.3l1.7-1.7L17.2,17.7L3.8,4.3z M7.8,11.7l0.9,0.9L7.6,12C7.6,11.9,7.7,11.8,7.8,11.7z M20.1,24.7
			l-0.6-1.1c0,0-0.1-0.1-0.1,0c0,0-0.1,0.1,0,0.1l0.6,1.1c-0.6,0.3-1.2,0.5-1.9,0.7l-0.2-1.4c0-0.1-0.1-0.1-0.1-0.1
			c-0.1,0-0.1,0.1-0.1,0.1l0.2,1.4c-0.5,0.1-1,0.2-1.5,0.2V24c0-0.3-0.2-0.5-0.5-0.5c-0.3,0-0.5,0.2-0.5,0.5v1.6
			c-0.4,0-0.9-0.1-1.3-0.1l0.2-1.2c0-0.1,0-0.1-0.1-0.1c-0.1,0-0.1,0-0.1,0.1l-0.2,1.2c-0.6-0.1-1.3-0.3-1.8-0.6l0.5-1
			c0,0,0-0.1,0-0.1c0,0-0.1,0-0.1,0l-0.5,1c-0.1,0-0.2-0.1-0.3-0.2c0,0,0,0,0,0c0,0,0,0-0.1,0c-0.4-0.2-0.8-0.4-1.1-0.7l0.8-1
			c0,0,0-0.1,0-0.1c0,0-0.1,0-0.1,0l-0.8,1c-0.5-0.4-1-0.8-1.4-1.3l1-0.8c0,0,0-0.1,0-0.1c0,0-0.1,0-0.1,0l-1,0.8
			c-0.4-0.5-0.8-1-1.1-1.6l1.2-0.6c0,0,0.1-0.1,0-0.1c0,0-0.1-0.1-0.1,0l-1.2,0.6c-0.3-0.6-0.6-1.3-0.7-2l1.4-0.3
			c0.1,0,0.1-0.1,0.1-0.1c0-0.1-0.1-0.1-0.1-0.1l-1.4,0.3c-0.1-0.5-0.2-1-0.2-1.6h1.6c0.3,0,0.5-0.2,0.5-0.5c0-0.3-0.2-0.5-0.5-0.5
			H6.5c0-0.5,0.1-1,0.2-1.5c0,0,0,0,0,0l1.5,0.3c0,0,0,0,0,0c0,0,0.1,0,0.1-0.1c0-0.1,0-0.1-0.1-0.1l-1.5-0.3c0,0,0,0,0,0
			c0.2-0.7,0.4-1.4,0.7-2l1.4,0.7c0,0,0,0,0,0c0,0,0.1,0,0.1,0l5.6,5.5l-1.9,3.3l0.3,0.2l1.8-3.2l5.8,5.8
			C20.4,24.5,20.2,24.6,20.1,24.7z M9.8,6.9l1.4,1.3C11.4,8.1,11.7,8,12,7.9L12.6,9c0,0,0.1,0.1,0.1,0.1c0,0,0,0,0,0
			c0,0,0.1-0.1,0-0.1l-0.6-1.2c0.6-0.3,1.2-0.4,1.9-0.6l0.2,1.3c0,0,0,0.1,0.1,0.1c0,0,0,0,0,0c0.1,0,0.1-0.1,0.1-0.1l-0.2-1.3
			C14.6,7.1,15,7.1,15.4,7c0,0,0,0,0,0v1.7c0,0.3,0.2,0.5,0.5,0.5c0.3,0,0.5-0.2,0.5-0.5V7.1c0,0,0,0,0,0c0.5,0,1,0.1,1.5,0.2
			l-0.3,1.5c0,0.1,0,0.1,0.1,0.1c0,0,0,0,0,0c0,0,0.1,0,0.1-0.1l0.3-1.5C18.7,7.5,19.4,7.7,20,8l-0.7,1.2c0,0,0,0.1,0,0.1
			c0,0,0,0,0,0c0,0,0.1,0,0.1-0.1l0.7-1.2c0.5,0.3,1.1,0.6,1.5,1l-0.9,1.1c0,0,0,0.1,0,0.1c0,0,0,0,0.1,0c0,0,0.1,0,0.1,0l0.9-1.1
			c0.5,0.4,1,0.9,1.4,1.4l-1.1,0.9c0,0,0,0.1,0,0.1c0,0,0,0,0.1,0c0,0,0,0,0.1,0l1.1-0.9c0.4,0.5,0.7,1.1,1,1.6L23.2,13
			c0,0-0.1,0.1,0,0.1c0,0,0.1,0.1,0.1,0.1c0,0,0,0,0,0l1.2-0.6c0.3,0.6,0.5,1.3,0.6,2l-1.2,0.2c-0.1,0-0.1,0.1-0.1,0.1
			c0,0,0,0.1,0.1,0.1c0,0,0,0,0,0l1.2-0.2c0.1,0.4,0.1,0.8,0.1,1.2h-1.6c-0.3,0-0.5,0.2-0.5,0.5c0,0.3,0.2,0.5,0.5,0.5h1.6
			c0,0.4-0.1,0.8-0.2,1.3l-1.2-0.2c-0.1,0-0.1,0-0.1,0.1c0,0.1,0,0.1,0.1,0.1l1.2,0.2c-0.1,0.7-0.4,1.3-0.7,2l-1.1-0.6
			c0,0-0.1,0-0.1,0c0,0,0,0.1,0,0.1l1.1,0.6c-0.1,0.2-0.2,0.4-0.3,0.6l0,0c0,0,0,0,0,0l1.4,1.3c0,0,0,0,0,0l0.6,0.6
			c1.3-1.9,2-4.2,2-6.6c0-2.8-1-5.4-2.6-7.5l1.9-1.9l-1.9-1.9l-1.9,1.9c-2.1-1.6-4.7-2.6-7.5-2.6c-2.5,0-4.7,0.7-6.6,2L9.8,6.9
			C9.8,6.9,9.8,6.9,9.8,6.9z M18.8,15.9l1,0.9H22c0.3,0,0.5-0.2,0.5-0.5c0-0.3-0.2-0.5-0.5-0.5H18.8z"/>
	</g>
</g>
</svg>
