<?xml version="1.0" encoding="utf-8"?>
<!-- Generator: Adobe Illustrator 22.1.0, SVG Export Plug-In . SVG Version: 6.00 Build 0)  -->
<svg version="1.1" id="Layer_1" xmlns="http://www.w3.org/2000/svg" xmlns:xlink="http://www.w3.org/1999/xlink" x="0px" y="0px"
	 viewBox="0 0 512 512" style="enable-background:new 0 0 512 512;" xml:space="preserve">
<style type="text/css">
	.st0{fill:#009889;}
</style>
<g>
	<path class="st0" d="M454.4,367.4c36.8-32.8,57.6-79.3,57.2-129c-0.7-94-77.4-170-171.2-170c-0.4,0-0.8,0-1.2,0
		c-46.1,0.3-89.2,18.7-121.4,51.7c-15.8,16.2-27.9,34.9-36.2,55.1h-74.7c-7.7,0-13.9,6.2-13.9,13.9s6.2,13.9,13.9,13.9h66.1
		c-2,9.1-3.2,18.4-3.7,27.8h-67.8c-7.7,0-13.9,6.2-13.9,13.9c0,7.7,6.2,13.9,13.9,13.9h68.7c1.1,9.5,2.9,18.7,5.5,27.8h-68.9
		c-7.7,0-13.9,6.2-13.9,13.9c0,7.7,6.2,13.9,13.9,13.9h79.6c8.2,16.6,19.1,32,32.5,45.6c3.5,3.5,7.1,6.8,10.9,10
		c-17.3,7.9-36.1,12.3-55.3,12.8c-12.3,0.3-24.5-0.9-36.3-3.7c-4.6-1.1-9.5,0.3-12.9,3.6c-19.5,19-43.4,26.2-51.3,28.6
		c-1.9,0.6-3.8,1.1-5.8,1.6c8.1-13.6,14-29.7,17.7-48.1c1-5.1-0.9-10.3-4.9-13.6c-34.3-27.6-53.8-68.7-53.5-112.7
		c0.6-78.7,64.8-142.3,143.3-142.3c0.3,0,0.7,0,1,0c8.4,0.1,16.8,0.8,25,2.3c7.6,1.4,14.8-3.6,16.2-11.2c1.4-7.6-3.6-14.8-11.2-16.2
		c-9.8-1.8-19.8-2.7-29.9-2.8c-0.4,0-0.8,0-1.2,0c-93.8,0-170.5,76-171.2,170c-0.4,49.6,20.4,96.2,57.2,129
		c-3.3,13.1-9.3,29-19.8,41.8c-5.6,6.8-6.5,16.1-2.3,23.7c3.7,6.8,10.8,10.9,18.4,10.9c0.9,0,1.8-0.1,2.7-0.2
		c8.9-1.1,17.7-3,26.3-5.5c8.8-2.6,34.1-10.2,57.2-30.2c11.8,2.2,23.9,3.1,36,2.8c28.2-0.7,55.8-8.5,80.3-22.6
		c24.3,14,51.8,21.8,80.3,22.6c12.1,0.3,24.2-0.6,36-2.8c23,19.9,48.4,27.5,57.2,30.2c8.5,2.6,17.4,4.4,26.3,5.5
		c0.9,0.1,1.8,0.2,2.7,0.2c7.6,0,14.7-4.1,18.4-10.9c4.2-7.6,3.3-16.9-2.3-23.7C463.6,396.4,457.7,380.5,454.4,367.4z M437.1,411.4
		c-7.9-2.4-31.8-9.5-51.3-28.6c-2.6-2.6-6.1-4-9.7-4c-1,0-2.1,0.1-3.2,0.4c-11.8,2.7-24,4-36.3,3.7c-25.9-0.7-50.7-8.3-72.3-22
		c-0.7-0.5-1.4-1-2.1-1.4c-8.3-5.5-16.2-11.8-23.4-19.1c-13-13.1-23.2-28.4-30.3-44.9c-0.1-0.3-0.2-0.5-0.3-0.8
		c-6.9-16.5-10.7-34.3-11.1-52.5c-0.7-38.6,13.7-75.1,40.7-102.7c27-27.6,63-43,101.6-43.3c0.3,0,0.7,0,1,0
		c78.6,0,142.8,63.6,143.3,142.3c0.3,44-19.2,85.1-53.5,112.7c-4,3.3-5.9,8.5-4.9,13.6c3.6,18.4,9.5,34.5,17.7,48.1
		C441,412.5,439,412,437.1,411.4z"/>
	<path class="st0" d="M265.1,193.8H423c7.7,0,13.9-6.2,13.9-13.9c0-7.7-6.2-13.9-13.9-13.9H265.1c-7.7,0-13.9,6.2-13.9,13.9
		C251.2,187.5,257.4,193.8,265.1,193.8z"/>
	<path class="st0" d="M436.9,235.5c0-7.7-6.2-13.9-13.9-13.9H265.1c-7.7,0-13.9,6.2-13.9,13.9c0,7.7,6.2,13.9,13.9,13.9H423
		C430.7,249.5,436.9,243.2,436.9,235.5z"/>
	<path class="st0" d="M346.6,277.3h-81.5c-7.7,0-13.9,6.2-13.9,13.9c0,7.7,6.2,13.9,13.9,13.9h81.5c7.7,0,13.9-6.2,13.9-13.9
		C360.6,283.5,354.3,277.3,346.6,277.3z"/>
</g>
</svg>
