<svg id="Group_1323" data-name="Group 1323" xmlns="http://www.w3.org/2000/svg" viewBox="0 0 17.162 24.413">
  <defs>
    <style>
      .cls-1 {
        fill: #159788;
      }
    </style>
  </defs>
  <g id="Group_1320" data-name="Group 1320">
    <g id="Group_1319" data-name="Group 1319">
      <path id="Path_1475" data-name="Path 1475" class="cls-1" d="M8.581,0a8.583,8.583,0,0,0-7.3,13.1L8.095,24.075a.716.716,0,0,0,.605.338h0a.716.716,0,0,0,.61-.348l6.636-11.084A8.585,8.585,0,0,0,8.581,0Zm6.145,12.242L8.691,22.32,2.5,12.338a7.154,7.154,0,1,1,12.228-.1Z"/>
    </g>
  </g>
  <g id="Group_1322" data-name="Group 1322" transform="translate(4.291 4.291)">
    <g id="Group_1321" data-name="Group 1321">
      <path id="Path_1476" data-name="Path 1476" class="cls-1" d="M94.291,90a4.291,4.291,0,1,0,4.291,4.291A4.3,4.3,0,0,0,94.291,90Zm0,7.16a2.87,2.87,0,1,1,2.865-2.87A2.87,2.87,0,0,1,94.291,97.16Z" transform="translate(-90 -90)"/>
    </g>
  </g>
</svg>
