<?xml version="1.0" encoding="utf-8"?>
<!-- Generator: Adobe Illustrator 22.1.0, SVG Export Plug-In . SVG Version: 6.00 Build 0)  -->
<svg version="1.1" id="Layer_1" xmlns="http://www.w3.org/2000/svg" xmlns:xlink="http://www.w3.org/1999/xlink" x="0px" y="0px"
	 viewBox="0 0 512 512" style="enable-background:new 0 0 512 512;" xml:space="preserve">
<g>
	<g>
		<path class="st0" d="M0,437.3c0,5.9,4.8,10.7,10.7,10.7s10.7-4.8,10.7-10.7c0-45.3,102.4-93.8,256-95.9V416c0,17.6,14.4,32,32,32
			c7.9,0,15.6-3,21.5-8.6l13.8-12.7c45.3-41.9,121.2-112.1,160-151c4.8-4.8,7.4-11.8,7.4-19.7c0-7.9-2.6-14.9-7.4-19.7
			c-38.8-38.9-114.7-109.1-160-151l-13.8-12.7c-5.9-5.5-13.6-8.6-21.5-8.6c-17.6,0-32,14.4-32,32v74.8C123.4,176.1,0,293.6,0,437.3z
			 M27,386.9C52.4,275.7,159.8,192,288,192c5.9,0,10.7-4.8,10.7-10.7V96c0-5.9,4.8-10.7,10.7-10.7c3.2,0,5.6,1.6,7,2.9l13.8,12.8
			c45.2,41.8,120.9,111.8,159.4,150.4c0.6,0.6,1.2,2.2,1.2,4.6c0,2.4-0.6,4.1-1.2,4.6C451,299.2,375.4,369.2,330.1,411l-13.8,12.8
			c-1.4,1.3-3.8,2.9-7,2.9c-5.9,0-10.7-4.8-10.7-10.7v-85.3c0-5.9-4.8-10.7-10.7-10.7C171.1,320,72.5,347,27,386.9z" fill="#069cff"/>
	</g>
</g>
</svg>
