<?xml version="1.0" encoding="utf-8"?>
<!-- Generator: Adobe Illustrator 22.1.0, SVG Export Plug-In . SVG Version: 6.00 Build 0)  -->
<svg version="1.1" id="Layer_1" xmlns="http://www.w3.org/2000/svg" xmlns:xlink="http://www.w3.org/1999/xlink" x="0px" y="0px"
	 viewBox="0 0 162 162" style="enable-background:new 0 0 162 162;" xml:space="preserve">
<style type="text/css">
	.st0{fill:#FFFFFF;}
</style>
<g id="Group_5">
	<g id="Group_4">
		<path id="Path_4" class="st0" d="M123.6,45L36.9,72.9c-3.6,1.1-3.8,3.6-0.5,5.5l9.7,5.5c3.7,1.9,8.1,2,11.9,0.2l49.8-26.8
			c3.3-1.8,3.5-1.4,0.6,0.8L67.5,88.8c-3,2.2-2.7,5.5,0.6,7.4l1.1,0.6c3.3,1.8,8.6,4.9,11.9,6.8l10.7,6.2c3.2,1.9,5.9,3.4,5.9,3.5
			v0.1c0,0,1.3-2.7,2.8-6L127.4,49C128.8,45.6,127.1,43.8,123.6,45z M66.1,100l-7.4-4.3c-3.2-1.9-5.1-0.6-4.2,3c0,0,4.7,18,4.4,18.6
			s8.6-8.9,8.6-8.9c2-2.1,1.9-5.5-0.2-7.5C67,100.5,66.6,100.3,66.1,100z"/>
	</g>
</g>
</svg>
