<svg xmlns="http://www.w3.org/2000/svg" viewBox="-1651 855 176.5 176.5">
  <defs>
    <style>
      .cls-1 {
        fill: #b2b4ba;
      }
    </style>
  </defs>
  <g id="Group_8" data-name="Group 8" transform="translate(-1651 855)">
    <g id="Group_7" data-name="Group 7">
      <path id="Path_5" data-name="Path 5" class="cls-1" d="M88.2,0a88.25,88.25,0,1,0,88.3,88.3A88.364,88.364,0,0,0,88.2,0Zm0,167a78.9,78.9,0,0,1-55.5-22.9,81.934,81.934,0,0,1-14.3-19.3A78.685,78.685,0,1,1,88.2,167ZM59.4,78.1a9.5,9.5,0,1,0-9.5-9.5A9.5,9.5,0,0,0,59.4,78.1Zm59.1,0a9.5,9.5,0,1,0-9.5-9.5A9.5,9.5,0,0,0,118.5,78.1ZM83,127.3a45.556,45.556,0,0,1-32.8-20.5l-8,5.2A55.74,55.74,0,0,0,82,136.8c2.1.2,4.1.4,6.2.4a55.394,55.394,0,0,0,46.3-25.1l-8-5.2A46.25,46.25,0,0,1,83,127.3Z"/>
    </g>
  </g>
</svg>
