<?xml version="1.0" encoding="utf-8"?>
<!-- Generator: Adobe Illustrator 23.0.1, SVG Export Plug-In . SVG Version: 6.00 Build 0)  -->
<svg version="1.1" id="Capa_1" xmlns="http://www.w3.org/2000/svg" xmlns:xlink="http://www.w3.org/1999/xlink" x="0px" y="0px"
	 viewBox="0 0 40 40" style="enable-background:new 0 0 40 40;" xml:space="preserve">
<style type="text/css">
	.st0{fill:#3A3A3A;}
</style>
<g>
	<path class="st0" d="M36.8,3.8c0,0-26.1,0-27,0C9.3,3.8,9,4.2,8.9,4.6c0,0.4,0.3,0.8,0.7,0.9c0.1,0,27.3,0,27.3,0
		c1,0,1.4,0.4,1.4,1.4l0,18.1c0,0.5,0.3,0.9,0.7,1c0.1,0,0.1,0,0.2,0c0.5,0,0.7-0.4,0.8-0.6c0,0,0,0,0-0.1v-19
		C40,5.5,39.6,3.8,36.8,3.8z"/>
	<path class="st0" d="M26.9,14h-24C1.2,14,0,15.2,0,16.9c0,5.5,0,10.9,0,16.4c0,1.7,1.2,2.9,2.9,2.9c0,0,22.4,0,24.1,0
		c1.6,0,2.8-1.2,2.8-2.8c0-5.5,0-11,0-16.5C29.8,15.2,28.6,14,26.9,14z M28.1,33.2c0,0.9-0.4,1.3-1.3,1.3H3c-0.9,0-1.3-0.4-1.3-1.3
		l0-16.1c0-0.9,0.4-1.3,1.3-1.3h23.7c0.9,0,1.3,0.4,1.3,1.3V33.2z"/>
	<path class="st0" d="M32,8.9c0,0-25.6,0-27.2,0c-0.5,0-0.9,0.3-0.9,0.8c0,0.4,0.2,0.8,0.7,0.9c0.1,0,0.2,0,0.4,0c0,0,18,0,27,0
		c0.9,0,1.3,0.4,1.3,1.3c0,0,0,16,0,18.1c0,0.3,0.1,0.8,0.6,0.9c0.1,0,0.2,0.1,0.3,0.1c0.2,0,0.4-0.1,0.6-0.3
		c0.2-0.2,0.3-0.5,0.3-0.8c0,0,0-12.6,0-18.2C34.9,10.1,33.7,8.9,32,8.9z"/>
	<path class="st0" d="M19.7,24.3c-2.2-1.2-4.3-2.5-6.5-3.7c-0.2-0.1-0.4-0.2-0.6-0.2c-0.5,0-0.8,0.4-0.8,1c0,0.9,0,6.5,0,7.4
		c0,0.6,0.3,1,0.8,1c0.2,0,0.4-0.1,0.6-0.2c2.1-1.2,4.3-2.4,6.4-3.7c0.4-0.2,0.6-0.5,0.6-0.8C20.3,24.8,20.1,24.5,19.7,24.3z"/>
</g>
</svg>
