<?xml version="1.0" encoding="utf-8"?>
<!-- Generator: Adobe Illustrator 23.0.1, SVG Export Plug-In . SVG Version: 6.00 Build 0)  -->
<svg version="1.1" id="Capa_1" xmlns="http://www.w3.org/2000/svg" xmlns:xlink="http://www.w3.org/1999/xlink" x="0px" y="0px"
	 viewBox="0 0 40 40" style="enable-background:new 0 0 40 40;" xml:space="preserve">
<style type="text/css">
	.st0{fill:#3A3A3A;}
</style>
<g>
	<path class="st0" d="M39.5,1.4l-39,0C0.3,1.4,0,1.5,0,2l0,27.2l0,0.1c0,0.1,0,0.1,0,0.2l0,1c0,0.6,0,1.2,0,1.8
		c0,0.5,0.2,0.7,0.7,0.7c0.3,0,0.5,0,0.8,0l5.9,0c3.5,0,7.1,0,10.6,0c0.2,0,0.3-0.1,0.5-0.3c0.2-0.2,0.2-0.5,0.1-0.8
		c-0.1-0.2-0.3-0.4-0.7-0.4c-1.7,0-3.5,0-5.2,0l-4.3,0V3h23.1l0,3.3c0,2.7,0,5.4,0,8.1c0,1,0,2,0.1,2.8c0,0.7,0.1,0.8,0.8,0.8
		c1.4,0,2.8,0,4.3,0l1.7,0l0,0.9c0,1.1,0,2.2,0,3.3c0,0.2,0,0.4,0,0.6c0.1,0.4,0.4,0.7,0.7,0.7c0,0,0,0,0.1,0c0.4,0,0.7-0.4,0.7-0.8
		l0-3.8c0-5.4,0-10.8,0-16.2l0-0.3C40,1.7,40,1.4,39.5,1.4z M1.6,3h5.2v5.9H1.6V3z M6.8,31.6H1.6v-5.9h5.2V31.6z M6.8,24H1.6v-5.9
		h5.2V24z M6.8,16.5H1.6v-5.9h5.2V16.5z M38.4,16.5h-5.2v-5.9h5.2V16.5z M38.4,8.9h-5.2V3h5.2V8.9z"/>
	<path class="st0" d="M38.8,28.1c-0.1-0.1-0.3-0.1-0.4-0.1c-0.1,0-0.1,0-0.2-0.1c-0.1,0-0.2-0.1-0.3-0.1c-0.2-0.1-0.5-0.1-0.7-0.2
		c-0.5-0.2-0.7-0.8-0.5-1.3c0.1-0.2,0.2-0.4,0.3-0.6l0-0.1c0.1-0.1,0.2-0.2,0.2-0.4c0.1-0.1,0.2-0.3,0.3-0.4c0.2-0.3,0.2-0.6,0-0.8
		c-0.5-0.5-1-1.1-1.5-1.5c-0.1-0.1-0.3-0.2-0.4-0.2c-0.1,0-0.3,0-0.4,0.1c-0.1,0.1-0.3,0.2-0.4,0.3c-0.1,0.1-0.3,0.2-0.4,0.2
		c-0.2,0.1-0.3,0.2-0.5,0.3c-0.1,0.1-0.3,0.1-0.4,0.1c-0.4,0-0.8-0.2-0.9-0.7c-0.1-0.2-0.1-0.4-0.2-0.6c0-0.1-0.1-0.3-0.1-0.4
		c0-0.2-0.1-0.4-0.1-0.6c-0.1-0.4-0.3-0.5-0.7-0.5c-0.5,0-1,0-1.5,0h-0.1c-0.8,0-1,0.1-1.2,1c-0.1,0.5-0.2,0.9-0.4,1.3
		c-0.2,0.4-0.5,0.7-0.9,0.7c-0.1,0-0.2,0-0.3,0c-0.2,0-0.3-0.1-0.5-0.2c-0.2-0.1-0.5-0.3-0.7-0.4l-0.2-0.1c-0.3-0.2-0.6-0.3-0.9-0.3
		c-0.1,0-0.2,0-0.2,0.1l-0.2,0.2c-0.4,0.4-0.8,0.8-1.2,1.3c-0.3,0.3-0.3,0.6-0.1,1c0.2,0.3,0.4,0.6,0.5,0.8c0.2,0.3,0.3,0.6,0.3,0.9
		c0,0.1,0,0.1,0,0.2c0,0.1,0,0.2-0.1,0.3c-0.2,0.3-0.4,0.5-0.7,0.6C22.7,27.9,22.4,28,22,28c-0.5,0.1-0.7,0.3-0.7,0.8
		c0,0.6,0,1.2,0,1.8c0,0.5,0.1,0.6,0.6,0.8c0,0,0.1,0,0.1,0c0.1,0,0.3,0.1,0.4,0.1c0.3,0.1,0.6,0.1,0.9,0.2c0.3,0.1,0.5,0.3,0.6,0.5
		c0.1,0.2,0.1,0.5,0,0.8c-0.1,0.2-0.2,0.4-0.3,0.6l0,0.1c-0.1,0.1-0.1,0.2-0.2,0.3c-0.1,0.1-0.1,0.2-0.2,0.3
		c-0.2,0.4-0.2,0.8,0.1,1.1c0.4,0.4,0.7,0.8,1.1,1.1c0.3,0.3,0.5,0.4,0.8,0.4c0.2,0,0.5-0.1,0.7-0.3c0.3-0.2,0.6-0.4,0.9-0.6
		c0.2-0.1,0.3-0.1,0.5-0.1c0.2,0,0.5,0.1,0.7,0.3c0.2,0.2,0.3,0.4,0.4,0.7c0.1,0.2,0.1,0.4,0.2,0.6c0,0.2,0.1,0.3,0.1,0.5
		c0.1,0.3,0.3,0.5,0.6,0.5l0.3,0c0.3,0,0.6,0,0.9,0h0c0.3,0,0.5,0,0.9-0.1c0.3,0,0.5-0.2,0.6-0.5c0.1-0.3,0.1-0.5,0.2-0.8
		c0.1-0.6,0.5-1.1,1.1-1.1c0.1,0,0.2,0,0.3,0c0.2,0,0.3,0.1,0.5,0.2c0.1,0.1,0.3,0.2,0.4,0.3c0.1,0.1,0.1,0.1,0.2,0.2
		c0.2,0.1,0.4,0.2,0.5,0.2c0.2,0,0.3-0.1,0.5-0.2c0.5-0.4,0.9-0.9,1.4-1.3c0.3-0.3,0.3-0.6,0.1-1c-0.1-0.1-0.1-0.2-0.2-0.3
		C37,34,37,33.9,36.9,33.8l0-0.1c-0.1-0.2-0.2-0.4-0.3-0.6c-0.2-0.5,0-1,0.5-1.2c0.1-0.1,0.3-0.1,0.4-0.2c0.2,0,0.4-0.1,0.6-0.1
		c0.2,0,0.4-0.1,0.6-0.1c0.4-0.1,0.6-0.3,0.6-0.7c0-0.5,0-1,0-1.4v-0.6C39.3,28.5,39.1,28.3,38.8,28.1z M35.3,31.8
		c-0.5,1.1-0.3,2.1,0.4,3l-0.1,0.1c-0.1,0.1-0.2,0.2-0.3,0.3c0,0-0.1,0-0.1,0c-0.5-0.3-1-0.4-1.6-0.4c-0.1,0-0.1,0-0.2,0
		c-1.2,0.1-2.3,0.9-2.6,2.1L30.7,37h-0.6l0-0.1c-0.3-1.4-1.5-2.4-2.8-2.4c-0.4,0-0.9,0.1-1.3,0.3c-0.2,0.1-0.4,0.2-0.6,0.3
		c0,0-0.1,0-0.1,0c0,0,0,0-0.1-0.1c-0.3-0.3-0.3-0.3,0-0.7c0.4-0.7,0.4-1.5,0.2-2.3c-0.2-0.8-0.7-1.4-1.4-1.7
		c-0.2-0.1-0.4-0.2-0.7-0.2c-0.1,0-0.2-0.1-0.3-0.1c-0.1,0-0.1,0-0.2,0l0,0l0-0.1c0-0.2,0-0.3,0-0.4c0,0,0,0,0,0
		c0.1,0,0.3-0.1,0.4-0.1c0.8-0.2,1.5-0.9,1.9-1.8c0.4-1,0.2-2-0.4-2.8l-0.1-0.2l0.4-0.4l0.1,0.1c0.1,0.1,0.3,0.2,0.4,0.3
		c0.4,0.3,0.9,0.4,1.5,0.4c1.1,0,2.1-0.6,2.6-1.5c0.2-0.3,0.2-0.6,0.3-1l0.1-0.2c0-0.2,0.1-0.2,0.2-0.2l0.1,0l0.1,0
		c0.3,0,0.3,0,0.3,0.3c0.1,1.1,1.2,2.2,2.3,2.4c0.2,0,0.5,0.1,0.7,0.1c0.6,0,1.1-0.2,1.6-0.5c0,0,0.1-0.1,0.2-0.1l0,0l0.4,0.4
		c0,0.1-0.1,0.1-0.1,0.2c-0.1,0.2-0.2,0.4-0.3,0.6c-0.3,0.7-0.3,1.5,0,2.3c0.3,0.8,0.9,1.3,1.6,1.6c0.1,0,0.2,0.1,0.3,0.1
		c0.1,0,0.2,0.1,0.3,0.1c0,0,0.1,0.1,0.1,0.1c0,0.1,0,0.3,0,0.4l0,0.1C36.6,30.1,35.7,30.7,35.3,31.8z"/>
	<path class="st0" d="M16.5,22.1c0,0.4,0.3,0.7,0.7,0.7c0.1,0,0.2,0,0.2,0c0.3-0.1,0.6-0.3,0.9-0.5c1.1-0.7,2.2-1.4,3.3-2
		c1.2-0.8,2.4-1.5,3.6-2.3c0.2-0.2,0.4-0.4,0.4-0.6c0-0.2-0.1-0.4-0.3-0.6c-0.1-0.1-0.3-0.3-0.5-0.4c-0.9-0.6-1.7-1.1-2.6-1.7
		c-1.6-1-3.1-1.9-4.7-2.9c-0.1-0.1-0.2-0.1-0.3-0.1c-0.3,0-0.6,0.2-0.6,0.6c0,0.4-0.1,0.7-0.1,1.1c0,1,0,2,0,2.9l0,1h0V22.1z
		 M18,13.9l0.2,0.1c1.8,1.1,3.4,2.1,5,3.2L18,20.6C18,18.5,18,16.2,18,13.9z"/>
	<path class="st0" d="M32.9,27.3c-0.7-0.8-1.7-1.2-2.6-1.2c-1.8,0-3.5,1.7-3.5,3.5c0,1.4,1.3,3.5,3.6,3.5h0c0.9,0,1.9-0.5,2.6-1.3
		c0.6-0.7,0.9-1.5,0.8-2.2C33.8,28.8,33.5,28,32.9,27.3z M31.6,31.1c-0.4,0.3-0.8,0.5-1.3,0.5c-0.6,0-1.1-0.2-1.5-0.6
		c-0.3-0.4-0.4-0.7-0.4-1.4c0-0.9,0.4-1.5,1.2-1.8c0.2-0.1,0.5-0.1,0.7-0.1c0.6,0,1.2,0.2,1.5,0.7C32.5,29.1,32.4,30.4,31.6,31.1z"
		/>
</g>
</svg>
