<?xml version="1.0" encoding="utf-8"?>
<!-- Generator: Adobe Illustrator 23.0.1, SVG Export Plug-In . SVG Version: 6.00 Build 0)  -->
<svg version="1.1" id="Capa_1" xmlns="http://www.w3.org/2000/svg" xmlns:xlink="http://www.w3.org/1999/xlink" x="0px" y="0px"
	 viewBox="0 0 40 40" style="enable-background:new 0 0 40 40;" xml:space="preserve">
<style type="text/css">
	.st0{fill:#3A3A3A;}
</style>
<g>
	<path class="st0" d="M39.7,16C37.8,6.7,29.5,0,20,0c-2.4,0-4.8,0.4-7.1,1.3C3.7,4.8-1.7,14.7,0.4,24.3c1.7,7.9,8.2,14.2,16.1,15.5
		c2.8,0.2,4.8,0.2,6.9,0c7.7-1.3,14.1-7.2,16-14.8C40.4,20.6,39.9,17.6,39.7,16z M37.9,20.2C37.9,30,29.8,38,20.1,38l-0.1,0
		c-9.9-0.1-17.9-8.2-17.8-18.1c0.1-9.8,8-17.7,17.8-17.7l0.1,0c4.8,0,9.4,1.9,12.7,5.4C36.1,10.9,38,15.4,37.9,20.2z"/>
	<path class="st0" d="M27.8,19l-2.7-1.8c-2.8-1.9-5.6-3.7-8.4-5.6c-0.2-0.1-0.5-0.3-0.8-0.3c-0.2,0-0.3,0-0.5,0.1
		c-0.5,0.3-0.6,0.8-0.6,1.2c0,1.9,0,3.8,0,5.6l0,3.8c0,1.8,0,3.6,0,5.4c0,0.4,0.1,0.9,0.6,1.1c0.2,0.1,0.3,0.1,0.5,0.1
		c0.3,0,0.6-0.2,0.8-0.3c2.4-1.6,4.9-3.2,7.3-4.8l3.9-2.5c0.5-0.3,0.7-0.7,0.7-1.1C28.5,19.7,28.3,19.3,27.8,19z M17,25.7V14.5
		l8.5,5.6L17,25.7z"/>
</g>
</svg>
