<?xml version="1.0" encoding="utf-8"?>
<!-- Generator: Adobe Illustrator 19.2.0, SVG Export Plug-In . SVG Version: 6.00 Build 0)  -->
<svg version="1.1" id="Layer_1" xmlns="http://www.w3.org/2000/svg" xmlns:xlink="http://www.w3.org/1999/xlink" x="0px" y="0px"
	 viewBox="0 0 40 40" style="enable-background:new 0 0 40 40;" xml:space="preserve">
<style type="text/css">
	.st0{fill:#484D55;}
</style>
<g>
	<path class="st0" d="M26.7,18.5c-0.4,0-0.7,0.3-0.7,0.7v17.2c0,1.1-0.9,2-2,2H3.5c-1.1,0-2-0.9-2-2V7.9C1.5,7,2.1,6.3,3,6
		c0.4-0.1,0.6-0.5,0.5-0.8C3.4,4.9,3,4.7,2.7,4.7C1.2,5.1,0.2,6.4,0.2,7.9v28.5c0,1.8,1.5,3.3,3.3,3.3H24c1.8,0,3.3-1.5,3.3-3.3
		V19.2C27.3,18.8,27.1,18.5,26.7,18.5z"/>
	<path class="st0" d="M24.5,6C25.4,6.3,26,7,26,7.9v0.7c0,0.4,0.3,0.7,0.7,0.7c0.4,0,0.7-0.3,0.7-0.7V7.9c0-1.5-1-2.8-2.5-3.2
		c-0.4-0.1-0.7,0.1-0.8,0.5C24,5.6,24.2,5.9,24.5,6z"/>
	<path class="st0" d="M4.8,9.3h17.9c0.4,0,0.7-0.3,0.7-0.7v-2c0-1.1-0.9-2-2-2h-0.8l-0.9-3.2c-0.2-0.9-1-1.4-1.9-1.4H9.8
		C8.9,0,8.1,0.6,7.9,1.4L7,4.6H6.2c-1.1,0-2,0.9-2,2v2C4.2,9,4.5,9.3,4.8,9.3z M5.5,6.6C5.5,6.3,5.8,6,6.2,6h1.3
		C7.8,6,8,5.8,8.1,5.5l1-3.7c0.1-0.3,0.3-0.5,0.6-0.5h7.9c0.3,0,0.6,0.2,0.6,0.5l1,3.7C19.5,5.8,19.8,6,20.1,6h1.3
		c0.4,0,0.7,0.3,0.7,0.7v1.3H5.5L5.5,6.6L5.5,6.6z"/>
	<path class="st0" d="M13.9,2.3c-1.1,0-2,0.9-2,2s0.9,2,2,2s2-0.9,2-2S15,2.3,13.9,2.3z M13.9,5c-0.4,0-0.7-0.3-0.7-0.7
		c0-0.4,0.3-0.7,0.7-0.7c0.4,0,0.7,0.3,0.7,0.7C14.6,4.7,14.3,5,13.9,5z"/>
	<path class="st0" d="M20.1,16.6c0-0.4-0.3-0.7-0.7-0.7h-4c-0.4,0-0.7,0.3-0.7,0.7s0.3,0.7,0.7,0.7h4C19.8,17.2,20.1,16.9,20.1,16.6
		z"/>
	<path class="st0" d="M5.5,21.9h4c0.4,0,0.7-0.3,0.7-0.7c0-0.4-0.3-0.7-0.7-0.7h-4c-0.4,0-0.7,0.3-0.7,0.7
		C4.8,21.6,5.1,21.9,5.5,21.9z"/>
	<path class="st0" d="M23.4,11.9c0-0.4-0.3-0.7-0.7-0.7h-7.3c-0.4,0-0.7,0.3-0.7,0.7c0,0.4,0.3,0.7,0.7,0.7h7.3
		C23.1,12.6,23.4,12.3,23.4,11.9z"/>
	<path class="st0" d="M12.8,21.2c0,0.4,0.3,0.7,0.7,0.7h4.6c0.4,0,0.7-0.3,0.7-0.7c0-0.4-0.3-0.7-0.7-0.7h-4.6
		C13.1,20.5,12.8,20.8,12.8,21.2z"/>
	<path class="st0" d="M22.7,25.2H5.5c-0.4,0-0.7,0.3-0.7,0.7c0,0.4,0.3,0.7,0.7,0.7h17.2c0.4,0,0.7-0.3,0.7-0.7
		C23.4,25.5,23.1,25.2,22.7,25.2z"/>
	<path class="st0" d="M5.5,31.1h4c0.4,0,0.7-0.3,0.7-0.7s-0.3-0.7-0.7-0.7h-4c-0.4,0-0.7,0.3-0.7,0.7C4.8,30.8,5.1,31.1,5.5,31.1z"
		/>
	<path class="st0" d="M22.7,29.8h-9.3c-0.4,0-0.7,0.3-0.7,0.7s0.3,0.7,0.7,0.7h9.3c0.4,0,0.7-0.3,0.7-0.7S23.1,29.8,22.7,29.8z"/>
	<path class="st0" d="M5.5,35.8h17.2c0.4,0,0.7-0.3,0.7-0.7s-0.3-0.7-0.7-0.7H5.5c-0.4,0-0.7,0.3-0.7,0.7
		C4.8,35.5,5.1,35.8,5.5,35.8z"/>
	<path class="st0" d="M11.5,11.3H6.8c-1.1,0-2,0.9-2,2v2c0,1.1,0.9,2,2,2h4.6c1.1,0,2-0.9,2-2v-2C13.4,12.1,12.6,11.3,11.5,11.3z
		 M12.1,15.2c0,0.4-0.3,0.7-0.7,0.7H6.8c-0.4,0-0.7-0.3-0.7-0.7v-2c0-0.4,0.3-0.7,0.7-0.7h4.6c0.4,0,0.7,0.3,0.7,0.7V15.2z"/>
	<path class="st0" d="M29.9,21.8c0,2.7,2.2,5,5,5s5-2.2,5-5s-2.2-5-5-5C32.1,16.8,29.9,19,29.9,21.8z M38.5,21.8
		c0,2-1.6,3.7-3.7,3.7s-3.7-1.6-3.7-3.7s1.6-3.7,3.7-3.7S38.5,19.8,38.5,21.8z"/>
	<path class="st0" d="M33.8,21.4c-0.3-0.3-0.7-0.2-0.9,0c-0.3,0.3-0.2,0.7,0,0.9l1.5,1.4c0.1,0.1,0.3,0.2,0.5,0.2c0,0,0.1,0,0.1,0
		c0.2,0,0.4-0.1,0.5-0.3l1.7-2.7c0.2-0.3,0.1-0.7-0.2-0.9c-0.3-0.2-0.7-0.1-0.9,0.2l-1.3,2L33.8,21.4z"/>
	<path class="st0" d="M34.8,30c-2.7,0-5,2.2-5,5s2.2,5,5,5c2.7,0,5-2.2,5-5S37.6,30,34.8,30z M34.8,38.7c-2,0-3.7-1.6-3.7-3.7
		s1.6-3.7,3.7-3.7c2,0,3.7,1.6,3.7,3.7S36.8,38.7,34.8,38.7z"/>
	<path class="st0" d="M36.8,33.2c-0.3-0.2-0.7-0.1-0.9,0.2l-1.2,2l-0.9-0.9c-0.3-0.3-0.7-0.2-0.9,0c-0.3,0.3-0.2,0.7,0,0.9l1.5,1.4
		c0.1,0.1,0.3,0.2,0.5,0.2c0,0,0.1,0,0.1,0c0.2,0,0.4-0.1,0.5-0.3l1.7-2.7C37.3,33.8,37.2,33.4,36.8,33.2z"/>
	<path class="st0" d="M35.5,10.3l-4.2,4.2c-0.3,0.3-0.3,0.7,0,0.9c0.1,0.1,0.3,0.2,0.5,0.2c0.2,0,0.3-0.1,0.5-0.2l4.7-4.7
		c0.3-0.3,0.3-0.7,0-0.9l-1.4-1.4C35.8,8,36.1,7.5,36.1,7s-0.2-1-0.6-1.4c-0.8-0.8-2-0.8-2.8,0L32,6.3L27,11.2l-5.6,5.6
		c-0.4,0.4-0.6,0.9-0.6,1.4c0,0.3,0.1,0.6,0.2,0.9l-1,1c-0.3,0.3-0.3,0.7,0,0.9c0.1,0.1,0.3,0.2,0.5,0.2c0.2,0,0.3-0.1,0.5-0.2l1-1
		c0.3,0.1,0.6,0.2,0.9,0.2c0.5,0,1-0.2,1.4-0.6l5.6-5.6l4.7-4.7L35.5,10.3z M33.6,6.5c0.3-0.3,0.7-0.3,0.9,0
		c0.1,0.1,0.2,0.3,0.2,0.5c0,0.2-0.1,0.3-0.2,0.5l-0.2,0.2l-0.5-0.5l-0.5-0.5L33.6,6.5z M23.3,18.7c-0.3,0.3-0.7,0.3-0.9,0
		c-0.1-0.1-0.2-0.3-0.2-0.5s0.1-0.3,0.2-0.5l0,0l5.1-5.1l0.9,0.9L23.3,18.7z M29.4,12.6l-0.9-0.9l4-4l0.5,0.5l0.5,0.5L29.4,12.6z"/>
</g>
</svg>
