<?xml version="1.0" encoding="UTF-8"?>
<!-- Generator: Adobe Illustrator 19.0.0, SVG Export Plug-In . SVG Version: 6.00 Build 0)  -->
<svg version="1.1" id="Layer_1" xmlns="http://www.w3.org/2000/svg" xmlns:xlink="http://www.w3.org/1999/xlink" x="0px" y="0px" viewBox="0 0 40 40" style="enable-background:new 0 0 40 40;" xml:space="preserve">
<style type="text/css">
	.st0{fill:#35c4ff;}
</style>
<g>
	<path class="st0" d="M4.9,39.7c-1.4,0-2.1-0.7-2.1-2.1c0-11.8,0-23.7,0-35.5C2.8,0.7,3.6,0,5,0c4.3,0,8.6,0,12.9,0   C22.4,0,30,0,34.5,0c1.4,0,2.1,0.7,2.1,2.1c0,1.8,0,16.7,0,18.5c0,0.6-0.3,1.1-0.7,1.1c-0.5-0.1-0.9-0.2-0.9-1.1   c0-1.3,0-15.7,0-17.1l0-1.9H4.4v36.6c0,0,13.2,0,13.2,0c0.2,0,0.5,0,0.7,0.2c0.1,0.1,0.2,0.3,0.2,0.6c0,0.3-0.1,0.7-0.8,0.7l-9.7,0   C6.9,39.7,5.9,39.7,4.9,39.7z"/>
	<path class="st0" d="M9.2,26.4c-1,0-1.2-0.5-1.2-0.9c0-0.2,0-0.4,0.2-0.5c0.2-0.2,0.6-0.4,1.1-0.4c0.5,0,3,0,3,0l2.8,0   c0.6,0,1.2,0,1.8,0c0,0,0,0,0,0c0.9,0,1.3,0.3,1.3,0.9c0,0.2,0,0.4-0.2,0.5c-0.2,0.2-0.6,0.4-1.1,0.4c-1.3,0-1.5,0-2.8,0L9.2,26.4z   "/>
	<path class="st0" d="M13.5,35.8l-4.6,0c-0.4,0-0.9-0.1-0.9-0.8c0-0.2,0-0.5,0.2-0.7C8.4,34.1,8.7,34,8.9,34l5.7,0   c0.2,0,0.6,0,0.7,0.2c0.1,0.1,0.2,0.4,0.2,0.6c0,0.6-0.3,0.9-0.9,0.9C14.6,35.8,13.9,35.8,13.5,35.8z"/>
	<path class="st0" d="M11.8,31.2c-1,0-1.9,0-2.9,0c-0.6,0-0.9-0.3-0.9-0.9c0-0.6,0.3-0.9,1-0.9l6.7,0c0.6,0,0.9,0.3,0.9,0.9   c0,0.6-0.3,0.8-0.9,0.8C14.7,31.2,12.7,31.2,11.8,31.2z"/>
	<path class="st0" d="M28.1,21.8c-5,0-9.1,4.1-9.1,9.1c0,5,4.1,9.1,9.1,9.1c5,0,9.1-4.1,9.1-9.1C37.2,25.9,33.1,21.8,28.1,21.8z    M28.1,38.3c-4.1,0-7.4-3.3-7.4-7.4s3.3-7.4,7.4-7.4s7.4,3.3,7.4,7.4S32.1,38.3,28.1,38.3z M31.6,27c-0.4-0.2-0.9-0.1-1.1,0.3   l-3.1,5.5l-1.7-2.1c-0.3-0.4-0.7-0.5-1.1-0.3c-0.4,0.2-0.5,0.8-0.3,1.1l2.4,2.9c0.2,0.2,0.4,0.4,0.6,0.4l0,0l0,0   c0,0,0.8,0.1,1.1-0.4l3.5-6.3C32.2,27.8,32,27.3,31.6,27z"/>
	<path class="st0" d="M28.4,20.7c0.9,0,1.9,0.1,2.8,0.3c0-0.1,0-0.2,0-0.3c0-0.4-0.1-0.8-0.9-0.9c-0.1,0-0.2,0-0.3,0   c0,0-15.7,0-20.5,0l-0.4,0c-0.3,0-0.4,0-0.4,0.1C8.2,20.2,8,20.6,8,20.8c0,0.1,0.1,0.3,0.8,0.9c0,0,0,0,0.2,0c0.1,0,0.2,0,0.3,0   c0.1,0,0.2,0,0.3,0l14.1,0C25.1,21.1,26.8,20.7,28.4,20.7z"/>
	<path class="st0" d="M6,17.2c-0.3,0-0.6-0.2-0.6-0.5c0-0.3,0.3-0.5,0.6-0.5h0.3V4.3C6,4.2,5.8,3.8,5.8,3.5c0-0.5,0.5-1,1.1-1   c0.6,0,1,0.5,1,1c0,0.3-0.2,0.6-0.5,0.8v0.1h8.3c0.2,0,0.4,0.1,0.5,0.3c0.1,0.2,0.1,0.4,0,0.6l-1.9,2.4l1.9,2.3   c0.1,0.2,0.2,0.4,0,0.6c-0.1,0.2-0.3,0.3-0.5,0.3H7.4v5.3h0.3c0.3,0,0.6,0.2,0.6,0.5c0,0.3-0.3,0.5-0.6,0.5H6z M7.4,9.9l7.2,0   L13.1,8c-0.2-0.2-0.2-0.5,0-0.7l1.5-1.8H7.4v0.7h1.6c0.3,0,0.6,0.2,0.6,0.5c0,0.3-0.3,0.5-0.6,0.5H7.4v0.8h0.9   c0.3,0,0.6,0.2,0.6,0.5c0,0.3-0.3,0.5-0.6,0.5H7.4V9.9z"/>
	<path class="st0" d="M29.1,16.3c-0.3,0-0.6,0-0.9,0l-0.4,0c-1.6,0-3.1-0.2-3.1-0.2L24.2,16c-0.2,0.1-0.4,0.2-0.7,0.2H22   c-0.7,0-1.3-0.6-1.3-1.3v-4.2c0-0.7,0.6-1.3,1.3-1.3h1.6c0.1,0,0.3,0,0.4,0.1c0.1-0.2,0.3-0.5,0.5-0.6l0.1-0.1   c0.7-0.5,1.6-2.5,2-3.7c-0.1-0.3-0.1-0.9,0.3-1.3c0.2-0.2,0.4-0.3,0.7-0.3c0.2,0,1,0.1,1.5,0.7C29.3,4.9,29.4,5.8,29,7   c-0.2,0.6-0.3,1-0.3,1.2c0.1,0,0.1,0,0.2,0c0.2,0,0.7-0.1,1.3-0.2c0.1,0,0.2,0,0.3,0c0.9,0,1.5,0.2,1.9,0.6   c0.7,0.6,0.5,1.4,0.4,1.7c0.1,0.2,0.3,0.5,0.3,0.9c0,0.4-0.1,0.7-0.3,1.1c0,0.1,0.1,0.3,0.1,0.5c0,0.4-0.1,0.9-0.6,1.4   c0,0.3,0,0.6-0.2,1c-0.3,0.5-0.9,0.9-1.7,1.1C30,16.3,29.6,16.3,29.1,16.3z M28.2,15.2c0.3,0,0.6,0,0.8,0c0.4,0,0.7,0,1-0.1   c0.5-0.1,0.9-0.3,1-0.6c0.1-0.2,0.1-0.5,0.1-0.5c-0.1-0.2,0-0.5,0.2-0.6c0.3-0.2,0.4-0.5,0.4-0.7c0-0.2-0.1-0.3-0.1-0.3   c-0.1-0.2-0.1-0.5,0.1-0.7c0.2-0.2,0.3-0.4,0.3-0.6c0-0.3-0.2-0.5-0.2-0.5c-0.2-0.2-0.2-0.5-0.1-0.7c0,0,0.2-0.4-0.1-0.7   C31.4,9.1,31,9,30.4,9c-0.4,0-0.9,0.1-1.3,0.1c-0.2,0-0.3,0.1-0.5,0.1c-0.1,0-0.2,0-0.2,0c-0.2,0-0.4-0.1-0.5-0.2   c-0.4-0.4-0.4-1.1,0.1-2.5c0.3-0.8,0.3-1.4,0.1-1.7c-0.1-0.2-0.3-0.2-0.4-0.2c0,0.1,0,0.3,0,0.5c0,0.1,0,0.2,0,0.3   c-0.2,0.6-1.3,3.4-2.4,4.3c-0.2,0.2-0.3,0.5-0.4,0.7c0,0.1,0,0.2,0,0.3c0,0,0,4.2,0,4.3l0.1,0c0,0,1.5,0.2,3,0.2L28.2,15.2   L28.2,15.2z M22,10.6c-0.1,0-0.2,0.1-0.2,0.2v4.2c0,0.1,0.1,0.2,0.2,0.2l1.6,0c0.1,0,0.2-0.1,0.2-0.2v-4.2c0-0.1-0.1-0.2-0.2-0.2   H22z"/>
</g>
</svg>