<?xml version="1.0" encoding="utf-8"?>
<!-- Generator: Adobe Illustrator 19.2.0, SVG Export Plug-In . SVG Version: 6.00 Build 0)  -->
<svg version="1.1" id="Layer_1" xmlns="http://www.w3.org/2000/svg" xmlns:xlink="http://www.w3.org/1999/xlink" x="0px" y="0px"
	 viewBox="0 0 40 40" style="enable-background:new 0 0 40 40;" xml:space="preserve">
<style type="text/css">
	.st0{fill:#35c4ff;}
</style>
<g>
	<path class="st0" d="M34.5,27l-3.9,5.6l-2.8-2.3c-0.3-0.2-0.7-0.2-1,0.1c-0.2,0.3-0.2,0.7,0.1,1l3.4,2.8c0.1,0.1,0.3,0.2,0.4,0.2
		c0,0,0.1,0,0.1,0c0.2,0,0.4-0.1,0.5-0.3l4.4-6.3c0.2-0.3,0.1-0.8-0.2-1C35.2,26.6,34.7,26.7,34.5,27L34.5,27z"/>
	<path class="st0" d="M37.9,25.1V8.5c0-4.7-3.8-8.5-8.5-8.5H8.5C3.8,0,0,3.8,0,8.5v20.8c0,4.7,3.8,8.5,8.5,8.5H25
		c1.6,1.3,3.6,2.1,5.8,2.1c5,0,9.1-4.1,9.1-9.1C40,28.7,39.2,26.6,37.9,25.1L37.9,25.1z M8.5,36.5c-3.9,0-7.1-3.2-7.1-7.1V8.5
		c0-3.9,3.2-7.1,7.1-7.1h20.8c3.9,0,7.1,3.2,7.1,7.1v15.2c-0.1,0-0.1-0.1-0.2-0.1c-0.1-0.1-0.3-0.2-0.5-0.3c0,0,0,0,0,0
		c-0.4-0.2-0.7-0.4-1.1-0.6c-0.1,0-0.1-0.1-0.2-0.1c-0.2-0.1-0.3-0.1-0.5-0.2c-0.1,0-0.2-0.1-0.3-0.1c-0.1,0-0.3-0.1-0.4-0.1
		c-0.1,0-0.2-0.1-0.4-0.1c-0.1,0-0.3-0.1-0.4-0.1c-0.2,0-0.3-0.1-0.5-0.1c-0.1,0-0.2,0-0.3,0c-0.3,0-0.6,0-0.8,0c-4.3,0-7.9,3-8.9,7
		H19c-0.4,0-0.7,0.3-0.7,0.7s0.3,0.7,0.7,0.7h2.8c0,0.2,0,0.5,0,0.7c0,0.3,0,0.6,0,0.8c0,0.1,0,0.2,0,0.3c0,0.2,0,0.3,0.1,0.5
		c0,0.1,0.1,0.3,0.1,0.4c0,0.1,0.1,0.2,0.1,0.4c0,0.1,0.1,0.3,0.1,0.4c0,0.1,0.1,0.2,0.1,0.3c0.1,0.2,0.1,0.3,0.2,0.5
		c0,0,0,0.1,0.1,0.1c0.2,0.4,0.4,0.8,0.6,1.2c0,0,0,0,0,0c0.1,0.2,0.2,0.3,0.3,0.5c0,0.1,0.1,0.1,0.1,0.2L8.5,36.5L8.5,36.5z
		 M30.9,38.6c-2,0-3.8-0.8-5.1-2c-0.2-0.1-0.3-0.3-0.5-0.5c0,0-0.1-0.1-0.1-0.1c-0.1-0.2-0.3-0.3-0.4-0.5c0,0-0.1-0.1-0.1-0.1
		c-0.1-0.2-0.2-0.4-0.4-0.6c0,0,0-0.1-0.1-0.1c-0.1-0.2-0.2-0.4-0.3-0.6c0,0,0-0.1,0-0.1c-0.1-0.2-0.2-0.4-0.3-0.7c0,0,0-0.1,0-0.1
		c-0.1-0.2-0.1-0.5-0.2-0.7c0,0,0-0.1,0-0.1c-0.1-0.2-0.1-0.5-0.1-0.7c0,0,0-0.1,0-0.1c0-0.3,0-0.5,0-0.8c0-4.3,3.5-7.7,7.7-7.7
		c0.3,0,0.5,0,0.8,0c0,0,0.1,0,0.1,0c0.2,0,0.5,0.1,0.7,0.1c0,0,0.1,0,0.1,0c0.2,0.1,0.5,0.1,0.7,0.2c0,0,0.1,0,0.1,0
		c0.2,0.1,0.5,0.2,0.7,0.3c0,0,0.1,0,0.1,0c0.2,0.1,0.4,0.2,0.6,0.3c0,0,0.1,0,0.1,0.1c0.2,0.1,0.4,0.2,0.6,0.4c0,0,0.1,0.1,0.1,0.1
		c0.2,0.1,0.3,0.3,0.5,0.4c0,0,0.1,0.1,0.1,0.1c0.2,0.2,0.3,0.3,0.5,0.5c1.2,1.4,2,3.2,2,5.1C38.6,35.1,35.1,38.6,30.9,38.6
		L30.9,38.6z"/>
	<path class="st0" d="M19,9.8h12.6c0.4,0,0.7-0.3,0.7-0.7S32,8.4,31.6,8.4H19c-0.4,0-0.7,0.3-0.7,0.7C18.2,9.5,18.6,9.8,19,9.8
		L19,9.8z"/>
	<path class="st0" d="M19,19.6h12.6c0.4,0,0.7-0.3,0.7-0.7s-0.3-0.7-0.7-0.7H19c-0.4,0-0.7,0.3-0.7,0.7C18.2,19.3,18.6,19.6,19,19.6
		L19,19.6z"/>
	<path class="st0" d="M13.5,5.2l-4.4,5.1l-2.7-2C6.1,8,5.6,8.1,5.4,8.4c-0.2,0.3-0.2,0.7,0.1,1l3.2,2.4c0.1,0.1,0.3,0.1,0.4,0.1
		c0.2,0,0.4-0.1,0.5-0.2l4.8-5.6c0.2-0.3,0.2-0.7-0.1-1C14.2,4.8,13.7,4.9,13.5,5.2L13.5,5.2z"/>
	<path class="st0" d="M13.5,15l-4.4,5.1l-2.7-2c-0.3-0.2-0.8-0.2-1,0.1c-0.2,0.3-0.2,0.8,0.1,1l3.2,2.4c0.1,0.1,0.3,0.1,0.4,0.1
		c0.2,0,0.4-0.1,0.5-0.2l4.8-5.6c0.2-0.3,0.2-0.7-0.1-1C14.2,14.7,13.7,14.7,13.5,15L13.5,15z"/>
	<path class="st0" d="M13.5,25.5l-4.4,5.1l-2.7-2c-0.3-0.2-0.8-0.2-1,0.1c-0.2,0.3-0.2,0.8,0.1,1l3.2,2.4c0.1,0.1,0.3,0.1,0.4,0.1
		c0.2,0,0.4-0.1,0.5-0.2l4.8-5.6c0.2-0.3,0.2-0.7-0.1-1C14.2,25.2,13.7,25.2,13.5,25.5L13.5,25.5z"/>
</g>
</svg>
