<?xml version="1.0" encoding="utf-8"?>
<!-- Generator: Adobe Illustrator 23.0.1, SVG Export Plug-In . SVG Version: 6.00 Build 0)  -->
<svg version="1.1" id="Capa_1" xmlns="http://www.w3.org/2000/svg" xmlns:xlink="http://www.w3.org/1999/xlink" x="0px" y="0px"
	 viewBox="0 0 40 40" style="enable-background:new 0 0 40 40;" xml:space="preserve">
<style type="text/css">
	.st0{fill:#3A3A3A;}
</style>
<g>
	<path class="st0" d="M19.4,17c-0.1-0.3-0.3-0.5-0.6-0.5L15.5,16L14,13c-0.1-0.2-0.2-0.3-0.4-0.4c-0.1-0.1-0.2-0.1-0.3-0.1
		c-0.3,0-0.6,0.2-0.7,0.4l-1.5,3l-3.3,0.5c-0.3,0-0.5,0.2-0.6,0.5c-0.1,0.3,0,0.6,0.2,0.8l2.4,2.3l-0.6,3.3c0,0.2,0,0.3,0.1,0.5
		c0.1,0.3,0.4,0.4,0.7,0.4c0.1,0,0.2,0,0.4-0.1l3-1.6l3,1.6l0.3,0.1c0.2,0,0.3-0.1,0.5-0.2c0.2-0.2,0.3-0.5,0.3-0.7l-0.6-3.3
		l2.4-2.3C19.4,17.6,19.5,17.3,19.4,17z M15.2,20l0.4,2.2l-2-1.1l-0.3-0.1l-0.4,0.1l-2,1.1l0.4-2.2c0-0.3,0-0.5-0.2-0.7l-1.6-1.5
		l2.2-0.3c0.2,0,0.5-0.2,0.5-0.4l1-2l1,2c0.1,0.2,0.3,0.4,0.5,0.4l2.2,0.3l-1.6,1.5C15.3,19.5,15.2,19.8,15.2,20z"/>
	<path class="st0" d="M29.6,19.2c-5.7,0-10.4,4.7-10.4,10.4S23.9,40,29.6,40S40,35.3,40,29.6S35.3,19.2,29.6,19.2z M34.9,22.6
		c2.2,1.7,3.4,4.2,3.4,7c0,4.8-3.9,8.8-8.8,8.8c-1.3,0-2.6-0.3-3.8-0.9L34.9,22.6z M29.6,20.8c1.4,0,2.8,0.3,4,1l-9.1,15
		c-2.3-1.7-3.6-4.3-3.6-7.1C20.8,24.7,24.7,20.8,29.6,20.8z"/>
	<path class="st0" d="M1.5,25.3V11h24.2v7.3l0.1,0c0.4-0.1,0.9-0.3,1.3-0.4l0.1,0V5.8c0-0.7-0.2-1.4-0.7-1.9
		c-0.5-0.5-1.1-0.8-1.8-0.8c0,0-0.1,0-0.1,0l-2.1,0V1.3C22.5,0.4,21.7,0,21,0h-2c-0.8,0-1.4,0.5-1.4,1.3V3H9.7V1.3
		C9.7,0.5,9.1,0,8.3,0h-2C5.5,0,4.7,0.4,4.7,1.3V3L2.6,3C1.2,3,0,4.2,0,5.6c0,0.1,0,0.1,0,0.2v19.6c0,1.6,1.2,3,2.7,3h15.1l0-0.1
		c0.1-0.5,0.1-0.9,0.2-1.3l0-0.1H2.7C2,26.7,1.5,26,1.5,25.3z M8.1,1.5v3.5H6.4V1.5H8.1z M6.3,6.6l2,0c0.7,0,1.3-0.6,1.3-1.3
		c0,0,0-0.7,0-0.7h7.9v0.6c0,0.7,0.6,1.4,1.3,1.4l0-0.1l0,0L19,6.6h2c0.7,0,1.6-0.6,1.6-1.4V4.6l2.1,0c0,0,0,0,0.1,0
		c0.6,0,1,0.4,1.1,1c0,0.1,0,0.1,0,0.2v3.7H1.5l0-3.7c-0.1-0.6,0.4-1.1,1-1.1c0,0,0.1,0,0.1,0c0,0,0,0,0.1,0h2.1v0.6
		C4.7,6.1,5.5,6.6,6.3,6.6z M19.1,5.1V1.5H21v3.5H19.1z"/>
</g>
</svg>
