<?xml version="1.0" encoding="utf-8"?>
<!-- Generator: Adobe Illustrator 23.0.1, SVG Export Plug-In . SVG Version: 6.00 Build 0)  -->
<svg version="1.1" id="Capa_1" xmlns="http://www.w3.org/2000/svg" xmlns:xlink="http://www.w3.org/1999/xlink" x="0px" y="0px"
	 viewBox="0 0 40 40" style="enable-background:new 0 0 40 40;" xml:space="preserve">
<style type="text/css">
	.st0{fill:#2C2F33;}
</style>
<g>
	<path class="st0" d="M39,25.2L37,25c-0.2-0.9-0.6-1.8-1-2.6l1.3-1.6c0.3-0.4,0.3-1-0.1-1.4l-1.7-1.7c-0.2-0.2-0.5-0.3-0.7-0.3
		c-0.2,0-0.5,0.1-0.7,0.2l-1.5,1.2c-0.8-0.5-1.7-0.9-2.6-1.1l-0.2-1.9c-0.1-0.5-0.5-1-1-1h-2.4c-0.5,0-1,0.4-1,1l-0.2,1.9
		c-0.9,0.2-1.8,0.6-2.6,1.1l-1.5-1.2c-0.2-0.2-0.4-0.2-0.7-0.2c-0.3,0-0.5,0.1-0.7,0.3l-1.7,1.7c-0.4,0.4-0.4,1-0.1,1.4l1.3,1.6
		c-0.5,0.8-0.8,1.7-1,2.6l-2.1,0.2c-0.5,0.1-1,0.5-1,1v2.4c0,0.5,0.4,1,1,1l2.1,0.2c0.2,0.9,0.6,1.7,1,2.5l-1.3,1.6
		c-0.3,0.4-0.3,1,0.1,1.4l1.7,1.7c0.2,0.2,0.5,0.3,0.7,0.3c0.2,0,0.5-0.1,0.7-0.2l1.6-1.3c0.8,0.5,1.6,0.8,2.5,1l0.2,2.1
		c0.1,0.5,0.5,1,1,1h2.4c0.5,0,1-0.4,1-1l0.2-2.1c0.9-0.2,1.7-0.6,2.5-1l1.6,1.3c0.2,0.2,0.4,0.2,0.7,0.2h0c0.3,0,0.5-0.1,0.7-0.3
		l1.7-1.7c0.4-0.4,0.4-1,0.1-1.4l-1.3-1.6c0.5-0.8,0.8-1.6,1-2.5l2.1-0.2c0.5-0.1,1-0.5,1-1v-2.4C40,25.7,39.6,25.3,39,25.2z
		 M38.7,28.5l-2.2,0.2h-0.6l-0.1,0.5c-0.2,1-0.6,2-1.2,2.9l-0.3,0.4l0.4,0.4l1.4,1.7l-1.4,1.4L33,34.7l-0.4-0.4l-0.4,0.3
		c-0.9,0.6-1.9,1-2.9,1.2l-0.5,0.1l0,0.6l-0.2,2.2h-2l-0.2-2.2v-0.6l-0.5-0.1c-1-0.2-2-0.6-2.9-1.2l-0.4-0.3L22,34.7l-1.7,1.4
		l-1.4-1.4l1.4-1.7l0.4-0.4l-0.3-0.4c-0.6-0.9-1-1.9-1.2-2.9l-0.1-0.5l-0.6,0l-2.2-0.2v-2l2.2-0.2H19l0.1-0.5c0.2-1.1,0.6-2.1,1.2-3
		l0.3-0.4l-0.4-0.4l-1.4-1.7l1.4-1.4l2.1,1.7l0.4-0.3c0.9-0.6,1.9-1.1,3-1.3l0.5-0.1l0.3-2.6h2l0.3,2.6l0.5,0.1
		c1.1,0.2,2.1,0.7,3,1.3l0.4,0.3l2.1-1.7l1.4,1.4l-1.4,1.7l-0.4,0.4l0.3,0.4c0.6,0.9,1,1.9,1.2,3l0.1,0.5l0.6,0l2.2,0.2V28.5z"/>
	<path class="st0" d="M27.5,23.2c-2.3,0-4.2,1.9-4.2,4.2s1.9,4.2,4.2,4.2c2.3,0,4.2-1.9,4.2-4.2S29.8,23.2,27.5,23.2z M27.5,30.3
		c-1.6,0-2.8-1.3-2.8-2.8s1.3-2.8,2.8-2.8c1.6,0,2.8,1.3,2.8,2.8S29.1,30.3,27.5,30.3z"/>
	<path class="st0" d="M16.1,19.5c0.3-0.9,1.9-6.4,1.9-6.4s20.2,0,21,0c0.5,0,0.8-0.3,0.9-0.7c0-0.2-0.1-0.4-0.2-0.5
		c-0.2-0.2-0.4-0.3-0.6-0.3c-1.1,0-20.5,0-21.6,0c-0.5,0-0.7,0.1-0.8,0.6l-1.1,3.4c0,0-1.4-10.2-1.5-11.3l0,0
		c-0.2-1.2-0.3-2.4-0.5-3.6C13.5,0.3,13.3,0,12.9,0c-0.1,0-0.1,0-0.2,0c-0.4,0.1-0.5,0.4-0.6,0.8c-0.5,2.3-2.2,10.8-2.2,10.8
		S8.7,8.1,8.5,7.7c0,0-0.6-1.8-0.9-2.6C7.6,4.7,7.3,4.5,6.9,4.5c-0.3,0-0.6,0.2-0.7,0.6c0,0.1-1.1,4.6-1.5,6.2
		c-0.1,0.2-0.2,0.3-0.4,0.3l0,0c-0.5,0-3.4,0-3.4,0c-0.4,0-0.8,0.2-0.8,0.7c0,0.4,0.4,0.7,0.8,0.7c0.4,0,4,0,4.3,0
		c0.4,0,0.6-0.2,0.7-0.4c0.4-1.3,1.2-4.4,1.2-4.4s2.1,6.5,2.1,6.5c0.1,0.4,0.4,0.6,0.8,0.6c0,0,0,0,0.1,0c0.3,0,0.6-0.3,0.7-0.7
		c0.3-1.5,1.9-8.9,1.9-8.9s1.2,8.6,1.3,9.2c0,0,0.4,3.1,0.6,4.7C14.6,20.3,15.8,20.8,16.1,19.5z"/>
</g>
</svg>
