<?xml version="1.0" encoding="utf-8"?>
<!-- Generator: Adobe Illustrator 23.0.1, SVG Export Plug-In . SVG Version: 6.00 Build 0)  -->
<svg version="1.1" id="Capa_1" xmlns="http://www.w3.org/2000/svg" xmlns:xlink="http://www.w3.org/1999/xlink" x="0px" y="0px"
	 viewBox="0 0 40 40" style="enable-background:new 0 0 40 40;" xml:space="preserve">
<style type="text/css">
	.st0{fill:#2C2F33;}
</style>
<g>
	<path class="st0" d="M39.2,26.7L38,26.6l0-0.1c-0.1-0.5-0.4-1-0.6-1.5l-0.1-0.1l0.8-0.9c0.3-0.4,0.3-0.9-0.1-1.2l-1.2-1.2
		c-0.2-0.2-0.4-0.3-0.6-0.3c-0.2,0-0.4,0.1-0.6,0.2l-0.9,0.8l-0.1-0.1c-0.5-0.3-1-0.5-1.5-0.6l-0.1,0l-0.1-1.2
		c0-0.5-0.4-0.8-0.9-0.8h-1.7c-0.5,0-0.9,0.4-0.9,0.8l-0.1,1.2l-0.1,0c-0.5,0.2-1,0.4-1.5,0.6l-0.1,0.1l-1-0.8
		c-0.2-0.1-0.4-0.2-0.6-0.2c-0.2,0-0.5,0.1-0.6,0.3L24,22.7c-0.3,0.3-0.4,0.9-0.1,1.2l0.8,1L24.8,25c-0.2,0.5-0.4,0.9-0.6,1.4l0,0.1
		l-1.3,0.1c-0.5,0-0.8,0.4-0.8,0.9v1.7c0,0.5,0.4,0.9,0.8,0.9l1.4,0.1l0,0.1c0.1,0.5,0.3,0.9,0.6,1.4l0.1,0.1L24,33
		c-0.3,0.4-0.3,0.9,0.1,1.2l1.2,1.2c0.2,0.2,0.4,0.3,0.6,0.3c0.2,0,0.4-0.1,0.6-0.2l1.1-0.9l0.1,0.1c0.4,0.2,0.9,0.4,1.4,0.6l0.1,0
		l0.1,1.4c0,0.5,0.4,0.8,0.9,0.8h1.7c0.5,0,0.9-0.4,0.9-0.8l0.1-1.3l0.1,0c0.5-0.1,1-0.3,1.4-0.6l0.1-0.1l1,0.8
		c0.2,0.1,0.4,0.2,0.6,0.2c0.2,0,0.5-0.1,0.6-0.3l1.2-1.2c0.3-0.3,0.4-0.9,0.1-1.2l-0.8-1l0.1-0.1c0.3-0.5,0.5-1,0.6-1.5l0-0.1
		l1.2-0.1c0.5,0,0.8-0.4,0.8-0.9v-1.7C40,27.1,39.6,26.7,39.2,26.7z M38.8,29l-1.8,0.2l-0.1,0.4c-0.2,0.7-0.5,1.5-0.9,2.1l-0.3,0.4
		l1.2,1.4l-0.8,0.8L35,33.4l-0.3-0.3l-0.4,0.3c-0.6,0.4-1.3,0.7-2.1,0.8l-0.5,0.1v0.5l-0.1,1.4h-1.1l-0.1-1.4v-0.5l-0.5-0.1
		c-0.7-0.2-1.4-0.4-2-0.8L27.4,33L27,33.4l-1.1,0.9l-0.8-0.8l0.9-1.1l0.4-0.4l-0.3-0.4c-0.4-0.6-0.7-1.3-0.8-2l-0.1-0.5h-0.5
		L23.3,29v-1.1l1.4-0.1h0.5l0.1-0.5c0.1-0.7,0.4-1.4,0.8-2.1l0.3-0.4L26,24.5l-0.9-1.1l0.8-0.8l1.4,1.2l0.4-0.3
		c0.6-0.4,1.3-0.7,2.1-0.9l0.4-0.1l0.2-1.8h1.1l0.2,1.8l0.5,0.1c0.8,0.1,1.5,0.4,2.1,0.9l0.4,0.3l1.4-1.1l0.8,0.8l-1.1,1.4l0.3,0.4
		c0.4,0.7,0.7,1.4,0.9,2.1l0.1,0.5l1.8,0.2V29z"/>
	<path class="st0" d="M31.1,24.4c-2.2,0-4,1.8-4,4s1.8,4,4,4s4-1.8,4-4S33.3,24.4,31.1,24.4z M31.1,31.2c-1.5,0-2.8-1.3-2.8-2.8
		c0-1.5,1.3-2.8,2.8-2.8c1.5,0,2.8,1.3,2.8,2.8C33.9,29.9,32.6,31.2,31.1,31.2z"/>
	<path class="st0" d="M11.7,20.4c-2.1,1.9-4.2,3.8-6.3,5.7c-0.4,0.3-0.5,0.7-0.3,1c0.1,0.2,0.4,0.5,0.7,0.6c0,0,0.1,0,0.1,0
		c0.3,0,0.6-0.2,0.7-0.3c1.5-1.3,2.9-2.6,4.3-3.9l1.4-1.3l2.7-2.4l0.1,0.1c1.4,1.7,3,2.5,5,2.5c2,0,3.6-0.9,5-2.7
		c1.4-1.4,4.2-4.5,6.7-7.2c1-1.1,2-2.2,2.7-3c0.3-0.3,0.5-0.6,0.4-0.9c0-0.2-0.1-0.4-0.3-0.5c-0.2-0.1-0.3-0.2-0.5-0.2
		c-0.3,0-0.6,0.2-0.9,0.5l-2,2.2c-2.6,2.9-5.3,5.7-7.9,8.6c-0.8,0.9-1.7,1.4-2.8,1.6c-0.2,0-0.5,0.1-0.7,0.1c-1.2,0-2.2-0.4-3-1.3
		c-1.3-1.3-2.5-2.7-3.7-4l-0.1-0.1c-0.4-0.5-0.9-1-1.3-1.4l-2.3-2.5c-1-1.1-2-2.2-3-3.3C6.3,7.9,6,7.8,5.8,7.8c-0.1,0-0.3,0-0.4,0.1
		C5.1,8.1,4.9,8.4,5,8.8C5,9,5.2,9.2,5.4,9.4c2.1,2.3,4.2,4.6,6.4,6.9l1.6,1.8c0.1,0.1,0.4,0.4,0.4,0.4s-0.3,0.3-0.4,0.4L11.7,20.4z
		"/>
	<path class="st0" d="M16.1,30.7c-3.9,0-7.8,0-11.7,0c-1.2,0-1.9-0.4-2.4-1.3c-0.2-0.4-0.3-0.9-0.3-1.3c0-7.3,0-14.6,0-21.4
		c0-1.6,1-2.6,2.7-2.6l26.1,0c1.7,0,3.3,0,5,0c1.7,0,2.7,1,2.7,2.7c0,4.2,0,8.3,0,12.5l0,1.6c0.2,0.2,0.3,0.3,0.5,0.5h0
		c0.4,0.2,0.8,0.4,1.2,0.6c0-2.2,0-4.3,0-6.5l0-4.6c0-1.4,0-2.8,0-4.3c0-1.7-1-3.2-2.6-3.8c-0.3-0.1-0.7-0.2-1-0.2c-2,0-4.1,0-6.1,0
		l-8.7,0c-5.5,0-11.5,0-17.5,0C2.1,2.6,0.6,4,0.2,5.4C0.1,5.8,0,6.3,0,6.8C0,13.9,0,21,0,28.1c0,2.5,1.8,4.2,4.2,4.2
		c1.9,0,3.9,0,5.8,0l12.3,0c-0.2-0.5-0.4-1.1-0.6-1.6L16.1,30.7z"/>
</g>
</svg>
