<?xml version="1.0" encoding="utf-8"?>
<!-- Generator: Adobe Illustrator 23.0.1, SVG Export Plug-In . SVG Version: 6.00 Build 0)  -->
<svg version="1.1" id="Capa_1" xmlns="http://www.w3.org/2000/svg" xmlns:xlink="http://www.w3.org/1999/xlink" x="0px" y="0px"
	 viewBox="0 0 40 40" style="enable-background:new 0 0 40 40;" xml:space="preserve">
<style type="text/css">
	.st0{fill:#3A3A3A;}
</style>
<g>
	<path class="st0" d="M23.6,7.6c0.7-0.8,1.5-1.6,2-2.2C25.9,5.1,26,4.8,26,4.6c0-0.2-0.1-0.4-0.3-0.5c-0.2-0.1-0.3-0.2-0.5-0.2
		c-0.3,0-0.5,0.1-0.8,0.5L23,5.9c-1.9,2.1-3.9,4.2-5.8,6.3c-0.6,0.6-1.2,1-1.9,1.1c-0.2,0-0.3,0-0.5,0c-0.8,0-1.5-0.3-2-0.9
		c-0.9-0.9-1.8-1.9-2.7-2.9c0,0-0.8-0.8-1.1-1.2c0,0-3.2-3.4-3.9-4.3C4.9,4,4.7,3.8,4.5,3.8c-0.1,0-0.3,0-0.4,0.1
		C3.7,4.1,3.6,4.5,3.7,4.8C3.7,5,3.8,5.2,4,5.3c1.5,1.6,3,3.2,4.4,4.9l1.4,1.6c0,0,0.1,0.1,0.2,0.2C9.9,12,9.8,12,9.8,12.1l-1.2,1.1
		C7.1,14.6,5.5,16,4,17.4c-0.4,0.4-0.4,0.7-0.3,0.9c0.1,0.2,0.4,0.5,0.6,0.5c0,0,0.1,0,0.1,0c0.2,0,0.5-0.1,0.7-0.3
		c1.1-1,2.1-1.9,3.2-2.9l1-0.9l1.8-1.6c1.1,1.3,2.3,1.9,3.8,1.9c1.5,0,2.8-0.7,3.8-2C19.8,11.9,21.9,9.5,23.6,7.6z"/>
	<path class="st0" d="M37.7,17.8L37.7,17.8l-1.8,0v-1.4c0-0.8-0.8-1.2-1.5-1.2h-1.7c-0.8,0-1.3,0.5-1.3,1.2v1.4h-1.7
		c0-2.8,0-13.6,0-14.6c0-1.3-0.8-2.5-2-3C27.4,0.1,27.1,0,26.8,0c-1.5,0-3,0-4.5,0L16,0C11.9,0,7.5,0,3.1,0c-1.5,0-2.7,1.2-3,2.2
		C0.1,2.6,0,2.9,0,3.3c0,5.2,0,10.4,0,15.6c0,1.9,1.4,3.3,3.3,3.3c1.4,0,2.8,0,4.3,0l8.4,0v15c0,1.5,1.1,2.7,2.4,2.7h19.1
		c1.3,0,2.4-1.2,2.4-2.7v-17C40.1,18.9,39,17.8,37.7,17.8z M32.9,16.7h1.4v2.8h-1.4V16.7z M16,20.1c0,0.1,0,0.1,0,0.2v0.4l-3.9,0
		c-2.9,0-5.7,0-8.6,0c-0.8,0-1.3-0.3-1.6-0.8c-0.1-0.2-0.2-0.6-0.2-0.8c0-5.2,0-10.4,0-15.7c0-1.1,0.7-1.7,1.8-1.7l19.2,0
		c1.2,0,2.4,0,3.6,0c1.2,0,1.8,0.7,1.8,1.8c0,2.7,0,12.2,0,14.4h-3.4v-1.4c0-0.7-0.5-1.2-1.3-1.2h-1.7c-0.7,0-1.5,0.4-1.5,1.2v1.4
		l-1.8,0C17.1,17.8,16,18.8,16,20.1z M23.1,16.7v2.8h-1.3v-2.8H23.1z M38.4,37.3c0,0.5-0.3,1.1-0.9,1.1H18.4c-0.5,0-0.9-0.6-0.9-1.1
		V25h20.8V37.3z M38.4,20.2v3.1H17.6l0-3.2c0-0.2,0-0.4,0.2-0.6c0.1-0.2,0.3-0.3,0.5-0.3c0,0,0,0,0.1,0l0.1,0h1.7v0.4
		c0,0.7,0.7,1.3,1.5,1.3l1.8,0c0.7,0,1.3-0.6,1.3-1.3c0,0,0-0.5,0-0.5h6.7v0.4c0,0.3,0.1,0.7,0.4,0.9c0.2,0.3,0.6,0.4,0.9,0.4l0-0.2
		l0.1,0.2h1.7c0.8,0,1.5-0.6,1.5-1.3v-0.4l1.7,0l0.1,0c0.4,0,0.8,0.3,0.8,0.8C38.4,20.1,38.4,20.2,38.4,20.2z"/>
	<path class="st0" d="M24.5,32.9L24,35.7c0,0.2,0,0.3,0.1,0.5c0.1,0.3,0.4,0.4,0.7,0.4c0.1,0,0.3,0,0.4-0.1l2.6-1.3l2.6,1.4l0.3,0.1
		l0,0h0c0.2,0,0.3-0.1,0.5-0.2c0.2-0.2,0.4-0.5,0.3-0.8l-0.5-2.8l2.1-2c0.2-0.2,0.3-0.5,0.2-0.8c-0.1-0.3-0.3-0.5-0.6-0.5l-2.8-0.4
		l-1.3-2.6c-0.1-0.2-0.2-0.3-0.4-0.4c-0.1-0.1-0.2-0.1-0.3-0.1c-0.3,0-0.6,0.2-0.7,0.4l-1.3,2.6l-2.9,0.4c-0.3,0-0.5,0.2-0.6,0.5
		c-0.1,0.3,0,0.6,0.2,0.8L24.5,32.9z M26.4,30.6c0.3,0,0.5-0.2,0.6-0.4l0.8-1.5l0.8,1.5c0.1,0.2,0.3,0.4,0.6,0.4l1.7,0.2L29.5,32
		c-0.2,0.2-0.3,0.4-0.2,0.7l0.3,1.7L28,33.6l-0.3-0.1l-0.3,0.1l-1.5,0.8l0.3-1.7c0-0.3,0-0.5-0.2-0.7l-1.2-1.2L26.4,30.6z"/>
</g>
</svg>
