<?xml version="1.0" encoding="utf-8"?>
<!-- Generator: Adobe Illustrator 19.2.0, SVG Export Plug-In . SVG Version: 6.00 Build 0)  -->
<svg version="1.1" id="Layer_1" xmlns="http://www.w3.org/2000/svg" xmlns:xlink="http://www.w3.org/1999/xlink" x="0px" y="0px"
	 viewBox="0 0 113.4 113.4" style="enable-background:new 0 0 113.4 113.4;" xml:space="preserve">
<style type="text/css">
	.st0{fill:#FFFFFF;}
</style>
<g>
	<path class="st0" d="M98,59.6H53.8V15.4c0-1.8-1.4-3.2-3.2-3.2C22.7,12.2,0,34.9,0,62.8c0,27.9,22.7,50.6,50.6,50.6
		c27.9,0,50.6-22.7,50.6-50.6C101.2,61,99.8,59.6,98,59.6L98,59.6z M50.6,107C26.3,107,6.4,87.1,6.4,62.8c0-23.3,18.1-42.4,41-44.1
		v44.1c0,1.8,1.4,3.2,3.2,3.2h44.1C93,88.9,73.9,107,50.6,107L50.6,107z M50.6,107"/>
	<path class="st0" d="M113.4,50.4c0-12.3-4.5-24.1-12.7-33.3C91.1,6.2,77.3,0,62.8,0c-1.8,0-3.2,1.4-3.2,3.2v47.4
		c0,1.8,1.4,3.2,3.2,3.2h47.4c1.8,0,3.2-1.4,3.2-3.2V50.4z M66,47.4V6.6c11.5,0.8,22.2,6.1,29.9,14.8c6.4,7.3,10.2,16.4,11,26H66z
		 M66,47.4"/>
</g>
</svg>
