<svg id="Layer_1" data-name="Layer 1" xmlns="http://www.w3.org/2000/svg" viewBox="0 0 35.94 35.55"><defs><style>.cls-1{fill:none;stroke:#626975;stroke-miterlimit:10;}.cls-2{fill:#626975;}</style></defs><title>Admin user1</title><path class="cls-1" d="M30.92,35.45l-0.68-2A9.6,9.6,0,0,0,22,26.8,6.2,6.2,0,0,1,17.48,29a6.2,6.2,0,0,1-4.56-2.23,9.6,9.6,0,0,0-8.2,6.6L4,35.45a2,2,0,0,0,.25,1.75A1.86,1.86,0,0,0,5.82,38H29.14a1.87,1.87,0,0,0,1.53-.81A2,2,0,0,0,30.92,35.45ZM17.48,27.21c3.36,0,6.08-4.93,6.08-9.53,0-9.53-12.16-9.55-12.16,0C11.4,22.28,14.13,27.21,17.48,27.21Z" transform="translate(-2.61 -2.95)"/><path class="cls-2" d="M9.88,15.38a4.05,4.05,0,0,1-.79-3.28A3.78,3.78,0,0,1,12.23,9a3.69,3.69,0,0,1,2.15.29A11.62,11.62,0,0,0,9.88,15.38Z" transform="translate(-2.61 -2.95)"/><path class="cls-2" d="M30.48,27.68a15.58,15.58,0,0,0-5.61-3,20,20,0,0,0,1.46-3.85,3.76,3.76,0,0,1,1.74-.43A4,4,0,0,1,32,24.5,4.09,4.09,0,0,1,30.48,27.68Z" transform="translate(-2.61 -2.95)"/><path class="cls-2" d="M16.25,5.16l1.13-.35c-0.08,0-.29-0.36-0.44-0.44l-1.47-.8a1.22,1.22,0,0,0-1.56.31l-0.74,1L13,4.83a7.59,7.59,0,0,0-1-.08H11.88L11.31,3.62A1.24,1.24,0,0,0,9.82,3l-1.56.5a1.25,1.25,0,0,0-.86,1.36L7.59,6.12l-0.12.1a7.41,7.41,0,0,0-.72.62L6.64,7,5.45,6.57A1.2,1.2,0,0,0,4,7.21L3.25,8.66a1.2,1.2,0,0,0,.31,1.55l1,0.73,0,0.16a7.53,7.53,0,0,0-.08,1v0.16l-1.12.58a1.24,1.24,0,0,0-.62,1.49l0.49,1.56a1.23,1.23,0,0,0,.61.73,1.22,1.22,0,0,0,.74.13l1.25-.18,0.13,0.1a8.13,8.13,0,0,0,.68.74l0.11,0.12L6.26,18.71a1.29,1.29,0,0,0,.57,1.54L8.17,21c0.2,0.1.6,0.11,0.62,0.17l-0.3-1-1.36-.79,0.65-1.76a0.85,0.85,0,0,0-.08-0.79,6.22,6.22,0,0,1-1.12-1.38,0.63,0.63,0,0,0-.23-0.23A0.61,0.61,0,0,0,6,15.23l-1.63.24L3.85,13.9l1.47-.76a0.62,0.62,0,0,0,.34-0.59,6.15,6.15,0,0,1,.14-1.73,0.73,0.73,0,0,0-.31-0.68l-1.41-1L4.84,7.64,6.51,8.19A0.69,0.69,0,0,0,7.21,8,6.2,6.2,0,0,1,8.56,6.93a0.63,0.63,0,0,0,.3-0.61L8.63,4.68l1.57-.5L11,5.66a0.61,0.61,0,0,0,.27.27,0.64,0.64,0,0,0,.32.07,6.11,6.11,0,0,1,1.73.14A0.75,0.75,0,0,0,14,5.8L15,4.46Z" transform="translate(-2.61 -2.95)"/><path class="cls-2" d="M32,31.17l-0.48,1.08c0-.07.46,0,0.62,0l1.57-.58a1.22,1.22,0,0,0,.79-1.38L34.22,29l0.12-.11A7.59,7.59,0,0,0,35,28.27l0.11-.12,1.22,0.3a1.24,1.24,0,0,0,1.44-.71l0.65-1.5A1.25,1.25,0,0,0,38,24.7L36.92,24V23.85a7.41,7.41,0,0,0,0-1l0-.15L38,22.1a1.2,1.2,0,0,0,.47-1.51l-0.6-1.52a1.2,1.2,0,0,0-1.37-.78l-1.18.24-0.11-.12a7.53,7.53,0,0,0-.67-0.68l-0.12-.11,0.3-1.22A1.24,1.24,0,0,0,34,15l-1.5-.65a1.23,1.23,0,0,0-1,0,1.22,1.22,0,0,0-.58.48l-0.69,1.06-0.16,0a8.13,8.13,0,0,0-1,0H29l-0.66-1.15a1.29,1.29,0,0,0-1.54-.58l-1.48.49c-0.21.08-.48,0.38-0.54,0.35l0.93,0.41,1.48-.51,0.9,1.64a0.85,0.85,0,0,0,.65.46,6.22,6.22,0,0,1,1.78.06,0.63,0.63,0,0,0,.33,0,0.61,0.61,0,0,0,.29-0.23L32,15.43l1.51,0.66L33.11,17.7a0.62,0.62,0,0,0,.23.64,6.15,6.15,0,0,1,1.21,1.24,0.73,0.73,0,0,0,.71.21L37,19.41l0.61,1.53-1.51.89a0.69,0.69,0,0,0-.35.63,6.2,6.2,0,0,1,0,1.74,0.63,0.63,0,0,0,.27.62l1.39,0.91-0.65,1.51-1.61-.4a0.61,0.61,0,0,0-.37,0,0.64,0.64,0,0,0-.26.2,6.11,6.11,0,0,1-1.24,1.21A0.75,0.75,0,0,0,33,29l0.3,1.7Z" transform="translate(-2.61 -2.95)"/></svg>