<?xml version="1.0" encoding="utf-8"?>
<!-- Generator: Adobe Illustrator 18.0.0, SVG Export Plug-In . SVG Version: 6.00 Build 0)  -->
<!DOCTYPE svg PUBLIC "-//W3C//DTD SVG 1.1//EN" "http://www.w3.org/Graphics/SVG/1.1/DTD/svg11.dtd">
<svg version="1.1" id="Capa_1" xmlns="http://www.w3.org/2000/svg" xmlns:xlink="http://www.w3.org/1999/xlink" x="0px" y="0px"
	fill="#fff" viewBox="0 0 380 380" enable-background="new 0 0 380 380" xml:space="preserve">
<g>
	<path d="M208.7,304.2c0-0.9,0.1-1.8,0.2-2.6h-180V98.8h268.6v65.6c2.9-2,6.4-3.2,10-3.2c1.1,0,2.1,0.1,3.2,0.3
		c3.2-4.6,8.4-7.6,14.4-7.6h1.4V20.1c0-5.3-4.3-9.6-9.6-9.6H9.6c-5.3,0-9.6,4.3-9.6,9.6v300.8c0,5.3,4.3,9.6,9.6,9.6h202.1
		c-1.9-2.9-3-6.4-3-10.2V304.2z M279.1,43.2c7.6,0,13.7,6.1,13.7,13.7c0,7.6-6.1,13.7-13.7,13.7s-13.7-6.1-13.7-13.7
		C265.4,49.3,271.5,43.2,279.1,43.2z M236.1,43.2c7.6,0,13.7,6.1,13.7,13.7c0,7.6-6.1,13.7-13.7,13.7c-7.6,0-13.7-6.1-13.7-13.7
		C222.4,49.3,228.5,43.2,236.1,43.2z"/>
	<path d="M239.7,239.2c4.2-4.2,4.2-10.9,0-15.1l-2-2c0.9-2,1.8-4,2.5-6.1h2.8c5.9,0,10.7-4.8,10.7-10.7v-20.3
		c0-5.9-4.8-10.7-10.7-10.7h-2.8c-0.7-2.1-1.6-4.1-2.5-6.1l2-2c4.2-4.2,4.2-10.9,0-15.1L225.3,137c-4.2-4.2-10.9-4.2-15.1,0l-2,2
		c-2-0.9-4-1.8-6.1-2.5v-2.8c0-5.9-4.8-10.7-10.7-10.7h-20.3c-5.9,0-10.7,4.8-10.7,10.7v2.8c-2.1,0.7-4.1,1.6-6.1,2.5l-2-2
		c-4.2-4.2-10.9-4.2-15.1,0l-14.3,14.3c-4.2,4.2-4.2,10.9,0,15.1l2,2c-0.9,2-1.8,4-2.5,6.1h-2.8c-5.9,0-10.7,4.8-10.7,10.7v20.3
		c0,5.9,4.8,10.7,10.7,10.7h2.8c0.7,2.1,1.6,4.1,2.5,6.1l-2,2c-4.2,4.2-4.2,10.9,0,15.1l14.3,14.3c4.2,4.2,10.9,4.2,15.1,0l2-2
		c2,0.9,4,1.8,6.1,2.5v2.8c0,5.9,4.8,10.7,10.7,10.7h20.3c5.9,0,10.7-4.8,10.7-10.7v-2.8c2.1-0.7,4.1-1.6,6.1-2.5l2,2
		c4.2,4.2,10.9,4.2,15.1,0L239.7,239.2z M181.4,230c-19.2,0-34.8-15.6-34.8-34.8c0-19.2,15.6-34.8,34.8-34.8s34.8,15.6,34.8,34.8
		C216.2,214.5,200.6,230,181.4,230z"/>
	<path d="M325.1,295.8h-2.2c-0.6-1.7-1.3-3.3-2-4.8l1.6-1.6c3.3-3.3,3.3-8.7,0-12L311.1,266c-1.1-1.1-2.4-1.8-3.7-2.2
		c-1.4-0.4-5.3-0.8-8.2,2.2l-1.6,1.6c-1.6-0.8-3.2-1.4-4.8-2v-2.2c0-4.7-3.8-8.5-8.5-8.5h-16.1c-4.7,0-8.5,3.8-8.5,8.5v2.2
		c-1.7,0.6-3.3,1.3-4.8,2l-1.6-1.6c-1.7-1.7-3.8-2.5-6-2.5s-4.3,0.8-6,2.5l-11.4,11.4c-3.3,3.3-3.3,8.7,0,12l1.6,1.6
		c-0.8,1.6-1.4,3.2-2,4.8h-2.2c-4.7,0-8.5,3.8-8.5,8.5v16.1c0,4.7,3.8,8.5,8.5,8.5h2.2c0.6,1.7,1.3,3.3,2,4.8l-1.6,1.6
		c-3.3,3.3-3.3,8.7,0,12l11.4,11.4c1.7,1.7,3.8,2.5,6,2.5c2.2,0,4.3-0.8,6-2.5l1.6-1.6c1.6,0.8,3.2,1.4,4.8,2v2.2
		c0,4.7,3.8,8.5,8.5,8.5h16.1c4.7,0,8.5-3.8,8.5-8.5v-2.2c1.7-0.6,3.3-1.3,4.8-2l1.6,1.6c1.7,1.7,3.8,2.5,6,2.5c2.2,0,4.3-0.8,6-2.5
		l11.4-11.4c3.3-3.3,3.3-8.7,0-12l-1.6-1.6c0.8-1.6,1.4-3.2,2-4.8h2.2c4.7,0,8.5-3.8,8.5-8.5v-16.1
		C333.6,299.5,329.8,295.8,325.1,295.8z M276.3,339.8c-15.2,0-27.6-12.4-27.6-27.6c0-15.2,12.4-27.6,27.6-27.6
		c15.2,0,27.6,12.4,27.6,27.6C303.9,327.5,291.5,339.8,276.3,339.8z"/>
	<path d="M372.9,198.7H371c-0.5-1.4-1.1-2.8-1.7-4.1l1.3-1.3c2.8-2.8,2.8-7.3,0-10.1l-9.6-9.6c-1.4-1.4-3.2-2.1-5-2.1
		s-3.6,0.7-5,2.1l-1.3,1.3c-1.3-0.6-2.7-1.2-4.1-1.7v-1.8c0-3.9-3.2-7.1-7.1-7.1H325c-3.9,0-7.1,3.2-7.1,7.1v1.8
		c-1.4,0.5-2.8,1.1-4.1,1.7l-1.3-1.3c-1.4-1.4-3.2-2.1-5-2.1c-1.8,0-3.6,0.7-5,2.1l-9.6,9.6c-2.8,2.8-2.8,7.3,0,10.1l1.3,1.3
		c-0.6,1.3-1.2,2.7-1.7,4.1h-1.8c-3.9,0-7.1,3.2-7.1,7.1v13.5c0,3.9,3.2,7.1,7.1,7.1h1.8c0.5,1.4,1.1,2.8,1.7,4.1l-1.3,1.3
		c-2.8,2.8-2.8,7.3,0,10.1l9.6,9.6c1.4,1.4,3.2,2.1,5,2.1c1.8,0,3.6-0.7,5-2.1l1.3-1.3c1.3,0.6,2.7,1.2,4.1,1.7v1.8
		c0,3.9,3.2,7.1,7.1,7.1h13.5c3.9,0,7.1-3.2,7.1-7.1v-1.8c1.4-0.5,2.8-1.1,4.1-1.7l1.3,1.3c1.4,1.4,3.2,2.1,5,2.1
		c1.8,0,3.6-0.7,5-2.1l9.6-9.6c2.8-2.8,2.8-7.3,0-10.1l-1.3-1.3c0.6-1.3,1.2-2.7,1.7-4.1h1.8c3.9,0,7.1-3.2,7.1-7.1v-13.5
		C380,201.9,376.8,198.7,372.9,198.7z M331.7,235.8c-12.8,0-23.2-10.4-23.2-23.2c0-12.8,10.4-23.2,23.2-23.2
		c12.8,0,23.2,10.4,23.2,23.2S344.6,235.8,331.7,235.8z"/>
</g>
</svg>
