<svg xmlns="http://www.w3.org/2000/svg" viewBox="1481.855 1240.073 86.782 73.577">
  <defs>
    <style>
      .cls-1 {
        fill: #737680;
      }
    </style>
  </defs>
  <path id="Union_41" data-name="Union 41" class="cls-1" d="M-5859.973-2665.951c-3.3-1.269-4.525-3.7-4.254-7.17.188-2.49-.133-5.029.076-7.52.236-2.7-.471-4.1-3.467-3.542a4.593,4.593,0,0,1-1.055-.008,5.338,5.338,0,0,0-.873-.021c-3.525.237-5.855-1.561-7.312-4.527a19.3,19.3,0,0,1,0-17.679,7.62,7.62,0,0,1,7.578-4.6c13.574.292,26.012-3.224,37.023-11.353a2.805,2.805,0,0,1,2.406-.507,3.14,3.14,0,0,1,.949,2.358q.082,23.1.029,46.18c0,.826-.369,2.171-.9,2.358a3.592,3.592,0,0,1-2.67-.611c-8.129-5.319-15.639-8.729-22.02-9.708,0,3.148-.158,6.268.051,9.342.242,3.523-1.082,5.874-4.445,7.039C-5859.229-2665.951-5859.6-2665.951-5859.973-2665.951Zm-.791-5.61c.025.639.984,1.248,1.48,1.879.479-.555,1.385-1.11,1.4-1.691.137-3.835.057-7.679.057-11.672-1.082-.055-1.881-.1-3.02-.188C-5860.844-2679.081-5860.918-2675.321-5860.764-2671.562Zm27.473-46.048c-9.529,6.3-20.061,9.313-31.414,9.979a3.153,3.153,0,0,0-2.1,1.852,32.032,32.032,0,0,0-.15,16.221c.365,1.559,1.111,2.011,2.641,2.114a66.01,66.01,0,0,1,30.6,9.981c.4.215.82.373,1.377.665v-41.048A3.786,3.786,0,0,0-5833.291-2717.609Zm-42.268,21.013c.215,5.11,2.123,8.337,5.271,8.869-.322-3.494-.846-6.781-.846-10.062,0-3.254.555-6.5.873-9.764C-5873.941-2706.6-5875.795-2702.687-5875.559-2696.6Zm61.928,19.82c8.447-13.836,8.5-27.518.029-41.547.822-.66,1.588-1.269,2.357-1.88,9.238,10.611,10.561,32.129.133,45.307C-5811.957-2675.528-5812.779-2676.137-5813.631-2676.776Zm-8.279-11.034a26.4,26.4,0,0,0-.031-19.557c-.945-2.434-.23-3.552,1.807-4.444,4.756,7.538,4.736,21.275,0,28.5C-5822.172-2684.238-5822.863-2685.349-5821.91-2687.811Z" transform="translate(7844.978 2478.125) rotate(-14)"/>
</svg>
