<?xml version="1.0" encoding="utf-8"?>
<!-- Generator: Adobe Illustrator 19.2.0, SVG Export Plug-In . SVG Version: 6.00 Build 0)  -->
<svg version="1.1" id="Layer_1" xmlns="http://www.w3.org/2000/svg" xmlns:xlink="http://www.w3.org/1999/xlink" x="0px" y="0px"
	 viewBox="0 0 40 40" style="enable-background:new 0 0 40 40;" xml:space="preserve">
<style type="text/css">
	.st0{fill:#686868;}
</style>
<g>
	<path class="st0" d="M3.7,40C3.2,40,3,39.7,3,39.3V1.1C3,0.6,3.2,0,3.7,0h29.6C33.7,0,34,0.6,34,1.1v9.5l0,0c1.6,1.7,2.4,4,2.4,6.4
		c0,2.8-1.3,5.5-3.5,7.3l-0.1,0.1l4.2,8.9L34,34.4v4.9c0,0.4-0.4,0.7-0.7,0.7H3.7z M4,38h29v-3.2l-2.3,0.7l-2.2-9.3l-0.2,0
		c-0.4,0-0.8,0.1-1.2,0.1c-0.5,0-1,0-1.5-0.1l-0.2,0l-2.1,9.3l-6.5-2.2L18,31h-8v-2h8.6l2.4-5l-0.1,0c-1.1-0.9-1.9-1.9-2.5-3.1l0,0
		H10v-1h8l0-0.5c-0.2-0.7-0.3-1.6-0.3-2.4c0-2.1,0.7-4.2,2-5.9l0.2-0.3H10V9h11v0.7l0.3-0.2c1.7-1.3,3.7-2,5.8-2
		c1.9,0,3.9,0.6,5.5,1.6L33,9.3V2H4V38z M31.6,25.3c-0.2,0.1-1.3,0.6-1.6,0.7l-0.1,0l1.8,7.8l3.6-1.3l-3.5-7.3L31.6,25.3z
		 M18.6,32.5l3.6,1.3l1.8-7.9l-0.1,0c-0.5-0.2-1-0.4-1.6-0.7l-0.1-0.1L18.6,32.5z M27.1,9C22.7,9,19,12.6,19,17s3.6,8.1,8.1,8.1
		c1.1,0,2.3-0.2,3.4-0.7c2.8-1.3,4.7-4.2,4.7-7.4C35.1,12.5,31.5,9,27.1,9z"/>
	<path class="st0" d="M27.1,20.2l-3.8,1.9l0.7-4.2l-3.1-3l4.2-0.6l1.9-3.8l1.8,3.8l4.2,0.6l-3,3.1l0.7,4.2L27.1,20.2z M25.2,19.6
		l1.9-1.1l1.9,1l-0.4-2.1l1.5-1.5L28,15.6l-1-1.9l-1,1.9L24,15.9l1.5,1.5L25.2,19.6z"/>
	<path class="st0" d="M3.7,40C3.2,40,3,39.7,3,39.3V1.1C3,0.6,3.2,0,3.7,0h29.6C33.7,0,34,0.6,34,1.1v9.5l0,0c1.6,1.7,2.4,4,2.4,6.4
		c0,2.8-1.3,5.5-3.5,7.3l-0.1,0.1l4.2,8.9L34,34.4v4.9c0,0.4-0.4,0.7-0.7,0.7H3.7z M4,38h29v-3.2l-2.3,0.7l-2.2-9.3l-0.2,0
		c-0.4,0-0.8,0.1-1.2,0.1c-0.5,0-1,0-1.5-0.1l-0.2,0l-2.1,9.3l-6.5-2.2L18,31h-8v-2h8.6l2.4-5l-0.1,0c-1.1-0.9-1.9-1.9-2.5-3.1l0,0
		H10v-1h8l0-0.5c-0.2-0.7-0.3-1.6-0.3-2.4c0-2.1,0.7-4.2,2-5.9l0.2-0.3H10V9h11v0.7l0.3-0.2c1.7-1.3,3.7-2,5.8-2
		c1.9,0,3.9,0.6,5.5,1.6L33,9.3V2H4V38z M31.6,25.3c-0.2,0.1-1.3,0.6-1.6,0.7l-0.1,0l1.8,7.8l3.6-1.3l-3.5-7.3L31.6,25.3z
		 M18.6,32.5l3.6,1.3l1.8-7.9l-0.1,0c-0.5-0.2-1-0.4-1.6-0.7l-0.1-0.1L18.6,32.5z M27.1,9C22.7,9,19,12.6,19,17s3.6,8.1,8.1,8.1
		c1.1,0,2.3-0.2,3.4-0.7c2.8-1.3,4.7-4.2,4.7-7.4C35.1,12.5,31.5,9,27.1,9z"/>
	<path class="st0" d="M27.1,20.2l-3.8,1.9l0.7-4.2l-3.1-3l4.2-0.6l1.9-3.8l1.8,3.8l4.2,0.6l-3,3.1l0.7,4.2L27.1,20.2z M25.2,19.6
		l1.9-1.1l1.9,1l-0.4-2.1l1.5-1.5L28,15.6l-1-1.9l-1,1.9L24,15.9l1.5,1.5L25.2,19.6z"/>
</g>
</svg>
