<svg id="Layer_1" data-name="Layer 1" xmlns="http://www.w3.org/2000/svg" viewBox="0 0 40 36.69"><defs><style>.cls-1{fill:#fff;}</style></defs><title>Changepassword_White-40</title><path class="cls-1" d="M34.63,7a18.34,18.34,0,0,0-26.11.16A1,1,0,1,0,9.94,8.54,16.37,16.37,0,1,1,5.29,20V19.76l1.63,1.63a1,1,0,0,0,.7.29,1,1,0,0,0,.7-0.29,1,1,0,0,0,0-1.4L5,16.67a1,1,0,0,0-1.4,0L0.29,20A1,1,0,0,0,1,21.68a1,1,0,0,0,.7-0.29l1.63-1.63V20a18.34,18.34,0,0,0,31.32,13A18.35,18.35,0,0,0,34.63,7h0Zm0,0" transform="translate(0 -1.62)"/><path class="cls-1" d="M21.66,9.3a5.82,5.82,0,0,0-5.82,5.82v2.81H14a1,1,0,0,0-1,1v9.85a1,1,0,0,0,1,1H29.29a1,1,0,0,0,1-1V18.92a1,1,0,0,0-1-1H27.48V15.12A5.84,5.84,0,0,0,21.66,9.3h0Zm-3.84,5.83a3.84,3.84,0,0,1,7.69,0v2.81H17.81V15.12ZM28.31,27.77H15V19.9H28.31v7.88Zm0,0" transform="translate(0 -1.62)"/></svg>