<?xml version="1.0" encoding="utf-8"?>
<!-- Generator: Adobe Illustrator 19.2.0, SVG Export Plug-In . SVG Version: 6.00 Build 0)  -->
<svg version="1.1" id="Layer_1" xmlns="http://www.w3.org/2000/svg" xmlns:xlink="http://www.w3.org/1999/xlink" x="0px" y="0px"
	 viewBox="0 0 40 40" style="enable-background:new 0 0 40 40;" xml:space="preserve">
<style type="text/css">
	.st0{fill:#626975;}
</style>
<g>
	<g>
		<path class="st0" d="M9.3,24.3c0.6,0.4,1.4,0.5,2.1,0.5c0.7,0,1.4-0.2,2.1-0.5c1.3-0.7,2.1-2,2.2-3.5l0.4-5.9
			c0.1-0.9-0.3-1.8-0.9-2.5c-0.6-0.7-1.5-1-2.5-1H10c-0.9,0-1.8,0.3-2.5,1c-0.6,0.7-1,1.5-0.9,2.4L7,20.8C7.1,22.3,8,23.6,9.3,24.3z
			 M14.5,20.7c-0.1,1.1-0.7,2.1-1.7,2.6c-0.5,0.3-1,0.4-1.5,0.4c-0.5,0-1.1-0.1-1.5-0.4c-1-0.5-1.6-1.5-1.7-2.6l-0.2-3.6
			c2.4-0.2,3.7-1.1,4.5-1.8c0.2,0.2,0.4,0.4,0.7,0.5c0.4,0.2,0.9,0.4,1.7,0.6L14.5,20.7z M13.7,12.6c0.2,0.1,0.4,0.3,0.6,0.4
			c0.4,0.5,0.7,1.1,0.6,1.7l0,0.5c-0.8-0.2-1.1-0.3-1.3-0.4c-0.4-0.2-0.5-0.4-0.6-0.4L13.7,12.6z M8.4,13.1c0.4-0.5,1-0.7,1.7-0.7
			c0,0,2.6,0,2.6,0L12,14.1c0,0.1-0.3,0.4-0.9,0.9c-0.6,0.4-1.6,0.9-3.3,1.1l-0.1-1.2C7.7,14.2,7.9,13.6,8.4,13.1z M5.8,26.3
			l5.2,5.2c0.1,0.1,0.2,0.2,0.4,0.2c0.1,0,0.3-0.1,0.4-0.2l0.1-0.1v-0.3c0-0.4,0.1-0.8,0.3-1.2l-0.1-0.1l-0.6,0.6l-0.5-0.5l0.9-0.9
			l2.8-2.8h1L14,27.7l0.1,0.2c0.9-0.4,1.7-0.8,2.5-1.2l0.3-0.3c0.1,0,0.1,0,0.2,0.1l0,0l0,0c0.5-0.2,0.9-0.3,1.2-0.5l0.2-0.1
			l-0.2-0.1c-0.4-0.2-1.1-0.4-1.6-0.5v-0.1l0,0c-0.2,0-0.3,0-0.4-0.1c-0.3-0.1-0.5,0-0.8,0h-1.3c-0.2,0-0.3,0.1-0.4,0.2l-2.6,2.6
			l-2.6-2.6C8.7,25.1,8.5,25,8.4,25H7.1c-0.3,0-0.6,0-1,0.1c-0.1,0-0.2,0-0.4,0l0,0v0c-1,0.2-2.4,0.9-3.4,1.8
			c-0.9,0.9-1.6,2.2-1.9,3.6L0,33c0,0.2,0,0.3,0.1,0.5c0.1,0.1,0.3,0.2,0.4,0.2h11.2v0l0.1,0c0,0-0.1-0.3-0.1-0.5v-0.4H1.2l0.3-1.8
			C1.9,28.6,3.6,26.8,5.8,26.3z M8.2,26l2.4,2.5L10.1,29l-0.9-0.9L7.1,26H8.2z M38.7,28.8c-2.7-1.4-4.6-2.2-6.4-2.5l0.1-0.1
			c0.1-0.1,0.2-0.3,0.1-0.5l-0.4-1.6c1.2-1.6,1.8-3.7,1.8-5.6V17h1.2c0.3,0,0.6-0.4,0.6-0.8c0-0.3-0.2-0.8-0.6-0.8H35v-0.1
			c0-3.6-2.5-6.7-6-7.7v0c0-0.8-0.7-1.2-1.5-1.2h-1.8c-0.8,0-1.2,0.4-1.2,1.2v0c-4,1-6,4.1-6,7.7v0.1h-0.5c-0.3,0-0.6,0.4-0.6,0.8
			c0,0.3,0.2,0.8,0.6,0.8h1.5v1.5c0,1.8,0.6,3.7,1.6,5.3c0,0,0,0,0,0l-0.5,1.8c0,0.1,0,0.3,0.1,0.4l0.1,0.1
			c-1.8,0.3-3.8,1.1-6.4,2.5c-0.9,0.4-1.4,1.3-1.4,2.3v2c0,0.3,0.2,0.6,0.6,0.6h26.3c0.3,0,0.3-0.3,0.3-0.6v-2
			C40,30.1,39.6,29.2,38.7,28.8z M30.7,9.8c0.5,0.4,1,0.8,1.3,1.3l-1.7,0.3L30.7,9.8z M22.3,9.8l0.3,1.6l-1.8-0.3
			C21.2,10.6,21.7,10.2,22.3,9.8z M19.3,15.3c0-1.1,0.3-2.2,0.8-3.1l3.1,0.7h0.1c0.1,0,0.2-0.2,0.3-0.2l0.1-0.2
			c0.2-0.1,0.2-0.3,0.2-0.5l-0.6-2.9C23.7,9,24,8.9,24.4,8.8v1.1c0,0.3,0.2,0.6,0.5,0.6c0.3,0,0.5-0.2,0.5-0.6V7.6
			c0-0.2,0-0.2,0.2-0.2h1.8c0.2,0,0.5,0,0.5,0.2v2.3c0,0.3,0.2,0.6,0.5,0.6c0.3,0,0.5-0.2,0.5-0.6v-1c0.3,0.1,0.5,0.2,0.8,0.3
			l-0.6,2.9c0,0.2,0.1,0.4,0.2,0.5c0.1,0.1,0.2,0.3,0.4,0.3h0.1l3-0.7c0.5,0.9,0.7,2,0.7,3.1v0.1H19.3V15.3z M20.3,18.5V17h12.6v1.5
			c0,1.9-0.6,3.6-1.6,4.9c0,0-0.1,0-0.1,0l-0.2,0.1l-0.1,0.1c-1.1,1.5-2.6,2.4-4.2,2.4c-0.1,0-0.1,0-0.2,0c-0.1,0-0.1,0-0.1,0
			C23.5,25.9,20.3,22.7,20.3,18.5z M27.5,30.1h-1.8l0.9-2.1L27.5,30.1z M23.7,32.6h-10v-1.5c0-0.6,0.4-1.1,0.9-1.3
			c2.8-1.5,4.9-2.3,6.7-2.5L24,31L23.7,32.6z M24,28.9l-1.9-2.6c0,0,0,0,0,0l-0.5-0.7l0.1-0.6c1.1,1.1,2.5,1.9,3.9,2.1l-1.1,2.5
			L24,28.9z M24.9,32.6l0-0.1l0.3-1.3c0,0,0,0,0,0l0-0.1h2.6l0.3,1.5H24.9z M27.3,27.2c1.5-0.2,2.8-0.9,3.9-2l0.1,0.5l-0.5,0.7
			c0,0,0,0,0,0l-1.7,2.3l-0.7,1L27.3,27.2z M39,32.6h-9.7l-0.4-1.8l0.9-1.3l1.7-2.3c1.9,0.3,4,1.1,6.7,2.5c0.5,0.3,0.8,0.8,0.8,1.4
			V32.6z"/>
	</g>
</g>
</svg>
