<?xml version="1.0" encoding="utf-8"?>
<!-- Generator: Adobe Illustrator 19.2.0, SVG Export Plug-In . SVG Version: 6.00 Build 0)  -->
<svg version="1.1" id="Layer_1" xmlns="http://www.w3.org/2000/svg" xmlns:xlink="http://www.w3.org/1999/xlink" x="0px" y="0px"
	 viewBox="0 0 40 40" style="enable-background:new 0 0 40 40;" xml:space="preserve">
<style type="text/css">
	.st0{fill:#626975;}
</style>
<g>
	<path class="st0" d="M0,25v9.8c0,0.4,0.3,0.7,0.7,0.7h9.6c0.5,0,0.8-0.4,0.8-0.8v-9.6c0-0.4-0.3-0.7-0.7-0.7H6.3v-0.2v-3.6h12.9
		h0.1v3.7h-4.2c-0.4,0-0.7,0.3-0.7,0.7v9.8c0,0.4,0.3,0.7,0.7,0.7h9.7c0.1,0,0.2,0,0.3-0.1c0.3-0.1,0.4-0.4,0.4-0.7V25
		c0-0.4-0.3-0.7-0.7-0.7h-4.2v-3.7h13.2v3.6h-4.2c-0.4,0-0.7,0.3-0.7,0.7v9.7c0,0.4,0.3,0.7,0.7,0.7v0.1h9.7c0.4,0,0.7-0.3,0.7-0.7
		V25c0-0.4-0.3-0.7-0.7-0.7h-4.1H35v-4.1c0-0.4-0.3-0.7-0.7-0.7H20.6v-3.6h4.2c0.4,0,0.7-0.3,0.7-0.7V5.2c0-0.4-0.3-0.7-0.7-0.7
		h-9.7c-0.3,0-0.6,0.3-0.6,0.7v9.6c0,0.4,0.3,0.7,0.7,0.7h4.1h0.1v3.8H5.7c-0.4,0-0.7,0.3-0.7,0.7v4.1H0.7C0.3,24.2,0.1,24.5,0,25z
		 M38.6,25.7v7.8v0.1v0.2v0.1h-8.2h-0.1v-8.2h0.2L38.6,25.7z M15.8,14.3V5.9h8.4v8.3h-8.4V14.3z M24.3,25.6v8.3h-8.4v-8.3L24.3,25.6
		z M1.5,25.6h8.3v8.3H1.5V25.6z"/>
</g>
</svg>
