<?xml version="1.0" encoding="utf-8"?>
<!-- Generator: Adobe Illustrator 18.0.0, SVG Export Plug-In . SVG Version: 6.00 Build 0)  -->
<!DOCTYPE svg PUBLIC "-//W3C//DTD SVG 1.1//EN" "http://www.w3.org/Graphics/SVG/1.1/DTD/svg11.dtd">
<svg version="1.1" id="Capa_1" xmlns="http://www.w3.org/2000/svg" xmlns:xlink="http://www.w3.org/1999/xlink" x="0px" y="0px"
	 viewBox="0 0 95.8 95.8" enable-background="new 0 0 95.8 95.8" xml:space="preserve">
<g>
	<g>
		<path fill="#FFFFFF" d="M23.7,66.1H2c-1.1,0-2,0.9-2,2v21.7c0,1.1,0.9,2,2,2h21.7c1.1,0,2-0.9,2-2V68.1
			C25.7,67,24.8,66.1,23.7,66.1z"/>
		<path fill="#FFFFFF" d="M58.4,66.1H36.7c-1.1,0-2,0.9-2,2v21.7c0,1.1,0.9,2,2,2h21.7c1.1,0,2-0.9,2-2V68.1
			C60.4,67,59.5,66.1,58.4,66.1z"/>
		<path fill="#FFFFFF" d="M93.8,66.1H72.1c-1.1,0-2,0.9-2,2v21.7c0,1.1,0.9,2,2,2h21.7c1.1,0,2-0.9,2-2V68.1
			C95.8,67,94.9,66.1,93.8,66.1z"/>
		<path fill="#FFFFFF" d="M37.1,29.7h21.7c1.1,0,2-0.9,2-2V6c0-1.1-0.9-2-2-2H37.1c-1.1,0-2,0.9-2,2v21.7
			C35.1,28.8,36,29.7,37.1,29.7z"/>
		<path fill="#FFFFFF" d="M9.5,59.2h4.1c1.1,0,2-0.9,2-2v-8.4h28.2v8.5c0,1.1,0.9,2,2,2H50c1.1,0,2-0.9,2-2v-8.5h28.2v8.4
			c0,1.1,0.9,2,2,2h4.1c1.1,0,2-0.9,2-2V42.7c0-1.1-0.9-2-2-2H52v-2.8c0-1.1-0.9-2-2-2h-4.1c-1.1,0-2,0.9-2,2v2.8H9.5
			c-1.1,0-2,0.9-2,2v14.5C7.5,58.3,8.4,59.2,9.5,59.2z"/>
	</g>
</g>
</svg>
