<?xml version="1.0" encoding="utf-8"?>
<!-- Generator: Adobe Illustrator 19.2.0, SVG Export Plug-In . SVG Version: 6.00 Build 0)  -->
<svg version="1.1" id="Layer_1" xmlns="http://www.w3.org/2000/svg" xmlns:xlink="http://www.w3.org/1999/xlink" x="0px" y="0px"
	 viewBox="0 0 40 40" style="enable-background:new 0 0 40 40;" xml:space="preserve">
<style type="text/css">
	.st0{fill:#FFFFFF;}
</style>
<g>
	<path class="st0" d="M15.7,34.2c-1,0-2,0-3.1,0c-0.8,0-1.5-0.3-1.9-0.8c-0.4-0.5-0.5-1.1-0.3-1.9c0.3-1.1,0.6-2.2,1-3.1
		c0.2-0.4,0.6-0.8,1.1-1.1c0.7-0.4,1.5-0.7,2.2-0.9c0.5-0.2,1-0.4,1.4-0.6c0.3-0.1,0.6-0.2,0.8-0.2c0.3,0,0.7,0.1,1,0.4
		c0.6,0.4,1.3,0.7,2,0.7c0.8,0,1.7-0.3,2.5-0.9c0.2-0.1,0.3-0.2,0.5-0.2c0.1,0,0.2,0,0.4,0.1c0.5,0.2,1,0.4,1.6,0.6
		c0.8,0.3,1.6,0.6,2.4,1c0.9,0.4,1.5,1.1,1.7,2.2c0.1,0.6,0.3,1.2,0.5,1.8c0.1,0.3,0.2,0.5,0.2,0.8c0.1,0.4,0,0.8-0.2,1.2
		c-0.3,0.5-0.7,0.8-1.2,0.9c-0.2,0.1-0.5,0.1-0.8,0.1c-1.3,0-2.6,0-3.9,0l-4,0L15.7,34.2z M26.4,33.6c0.5,0,0.9-0.2,1.4-0.2
		c0.4,0,0.7-0.2,0.9-0.5c0.2-0.2,0.2-0.5,0.1-0.8c-0.1-0.3-0.1-0.5-0.2-0.8c-0.2-0.6-0.3-1.2-0.5-1.7C28,28.8,27.6,28.3,27,28
		c-1.2-0.5-2.4-1-3.5-1.4c-0.1,0-0.1,0-0.2,0c-0.2,0-0.4,0.1-0.6,0.2c-0.9,0.5-1.8,0.8-2.6,0.8c-0.9,0-1.8-0.3-2.6-0.8
		c-0.1-0.1-0.3-0.2-0.5-0.2c-0.1,0-0.1,0-0.2,0c-1.4,0.6-2.7,1-3.9,1.6c-0.3,0.1-0.6,0.5-0.7,0.8c-0.3,0.9-0.6,1.8-0.8,2.7
		c-0.1,0.5-0.1,0.9,0.1,1.2c0.2,0.3,0.6,0.4,1.1,0.4c1.1,0,2.2,0,3.3,0l4,0.4l0.2,0.4h4.4L26.4,33.6z"/>
	<path class="st0" d="M20.1,24.7c-0.2,0-0.5,0-0.7-0.1c-1.4-0.5-2.5-1.5-3.2-3c-0.1-0.3-0.4-0.6-0.6-0.8c-0.5-0.4-0.8-0.9-0.8-1.5
		c0-0.6,0.2-1.2,0.7-1.7c0.2-0.2,0.2-0.6,0.2-0.9c0-1.8,0.7-3.1,2.1-4c0.7-0.5,1.5-0.7,2.6-0.7h0.1c1.1,0,2.2,0.5,2.9,1.4
		c0.9,0.9,1.3,2.2,1.2,3.4c0,0.5,0.1,0.7,0.4,1c0.3,0.3,0.5,0.7,0.5,1.2c0,0.7-0.3,1.4-0.9,1.8c-0.3,0.2-0.5,0.5-0.6,0.8
		c-0.8,1.6-1.8,2.6-3.2,3.1C20.6,24.7,20.3,24.7,20.1,24.7z M17,18.4c0,0-0.4,0-0.4,0l-0.2,0c-0.2,0-0.5,0-0.6,0.2
		c-0.1,0.1-0.1,0.3-0.1,0.4c0,0.2,0.3,0.9,0.7,1c0.3,0,0.3,0.1,0.4,0.4c0.4,1.3,1.1,2.3,2.1,2.9c0.4,0.3,0.8,0.4,1.2,0.4
		c0.4,0,0.8-0.1,1.2-0.4c1-0.7,1.7-1.7,2.1-3.1c0.1-0.3,0.1-0.3,0.3-0.3h0c0.7,0,0.8-0.6,0.8-0.9l0,0c0-0.2,0-0.3-0.1-0.4
		c-0.1-0.2-0.4-0.2-0.5-0.2c0,0,0.1,0,0.1,0c-0.1,0,0,0,0,0c0,0,0-0.6,0-0.9c0-0.2-0.2-0.3-0.2-0.5c0-0.4-0.1-0.7-0.1-1.1
		C23.4,14.2,22,13,20.1,13c-0.1,0-0.3,0-0.4,0c-1.8,0.2-2.9,1.7-2.9,3.5c0,0.5,0.2,0.9,0.2,1.4V18.4z"/>
	<path class="st0" d="M30.4,18.9c-0.3,0-0.6-0.1-0.8-0.2c-1.4-0.5-2.4-1.5-3.1-3c-0.1-0.2-0.2-0.3-0.4-0.5C26,15.1,26,15,25.9,15
		l-0.1-0.1c-0.1-0.1-0.2-0.2-0.2-0.3c-0.1-0.1-0.1-0.3-0.2-0.4c-0.1-0.2-0.2-0.3-0.2-0.5c-0.3-0.5-0.3-1.2,0.2-1.6
		c0.5-0.4,0.5-0.9,0.5-1.3c0-2.1,1.3-3.9,3.4-4.4c0.4-0.1,0.8-0.1,1.1-0.1c1.7,0,3.2,0.9,4,2.4c0.2,0.5,0.3,1,0.5,1.5
		c0,0.2,0.1,0.3,0.1,0.5c-0.2,0.8,0,1.1,0.4,1.5c0.3,0.3,0.4,0.7,0.4,1.2c0,0.7-0.4,1.3-0.9,1.7c-0.3,0.2-0.5,0.5-0.6,0.8
		c-0.7,1.5-1.7,2.5-3.1,3C30.9,18.8,30.7,18.9,30.4,18.9z M27,12.5c0,0-0.2,0-0.2,0l-0.1,0c-0.2,0-0.5,0-0.6,0.2
		c-0.1,0.1-0.1,0.2-0.1,0.4c0.1,0.3,0.3,1,0.7,1.1c0.3,0,0.3,0.1,0.4,0.5l0,0c0.4,1.2,1.1,2.2,2,2.8c0.4,0.3,0.9,0.4,1.3,0.4
		c0.4,0,0.8-0.1,1.3-0.4c1-0.7,1.6-1.7,2.1-3c0.1-0.3,0.1-0.4,0.3-0.4h0c0.2,0,0.4,0,0.5-0.1c0.2-0.2,0.3-0.5,0.3-0.8
		c0-0.6-0.5-0.5-0.7-0.5c0,0-0.1,0-0.1,0c0,0-0.1,0-0.1,0c0-0.1,0-0.2,0-0.3c0-0.2,0-0.5,0-0.7c0-0.5,0-1.1-0.1-1.6
		c-0.3-1.7-1.7-2.8-3.5-2.8c-0.1,0-0.3,0-0.4,0c-1.8,0.2-3,1.7-3,3.5c0,0.5,0.1,0.9,0.1,1.4V12.5z"/>
	<path class="st0" d="M9.8,18.9c-0.3,0-0.5-0.1-0.8-0.2c-1.4-0.5-2.4-1.5-3.1-3c-0.1-0.3-0.3-0.5-0.6-0.7c-0.5-0.4-0.8-0.9-0.9-1.5
		c0-0.6,0.2-1.2,0.6-1.7c0.2-0.2,0.2-0.5,0.3-0.7c0-0.1,0-0.2,0-0.3l0,0l0,0c0-1.2,0.4-2.4,1.2-3.3C7.5,6.6,8.6,6,9.8,6h0
		c1.3,0,2.4,0.6,3.2,1.5c0.8,0.9,1.3,2.1,1.2,3.3c0,0.5,0.1,0.9,0.5,1.2c0.5,0.4,0.5,1,0.2,1.6c-0.1,0.1-0.1,0.3-0.2,0.4
		c-0.1,0.1-0.1,0.3-0.2,0.4c-0.1,0.1-0.2,0.3-0.3,0.4c-0.1,0.1-0.1,0.2-0.2,0.3l0,0.1c-0.1,0.2-0.2,0.3-0.3,0.5
		c-0.7,1.5-1.7,2.5-3.1,3C10.4,18.8,10.1,18.9,9.8,18.9z M6.2,12.5c0,0-0.1,0-0.1,0c-0.2,0-0.4,0-0.6,0.2c-0.1,0.1-0.1,0.3-0.1,0.5
		c0,0.3,0.1,1,0.8,1.1c0.2,0,0.2,0,0.3,0.2c0.2,0.7,0.6,1.8,1.5,2.5c0.8,0.7,1.3,1,1.9,1c0.6,0,1.1-0.3,1.9-0.9
		c0.8-0.7,1.2-1.7,1.5-2.5c0-0.1,0.2-0.2,0.2-0.3c0.6-0.2,0.9-0.6,0.9-1.2c0-0.4-0.2-0.6-0.7-0.6l-0.1,0c0,0-0.3,0-0.3,0
		c0,0-0.2,0-0.2,0V12c0-0.5,0.2-1,0.2-1.5c0-1.1-0.3-2-1.2-2.6c-0.7-0.6-1.4-0.8-2.2-0.8c-0.5,0-1.1,0.1-1.6,0.4
		c-1.3,0.6-2,1.8-1.9,3.3c0,0.5,0,0.9,0,1.4C6.3,12.2,6.3,12.4,6.2,12.5C6.3,12.5,6.2,12.5,6.2,12.5z"/>
	<path class="st0" d="M34.8,28.3c-0.9,0-1.8,0-2.7,0c-0.6,0-1.2,0-1.8,0c0,0-0.1-0.2-0.1-0.2c-0.2-0.3-0.3,0-0.5-1c0,0,6.3,0,8,0
		l0.3,0.2c0.1,0,0.3,0.1,0.4,0.1c0.3,0,0.5-0.2,0.7-0.4c0.1-0.2,0.2-0.5,0.1-0.7c-0.1-0.3-0.2-0.6-0.2-0.9c-0.2-0.6-0.3-1.1-0.5-1.7
		c-0.2-0.7-0.5-1.1-1.1-1.3c-1.4-0.6-2.6-1.1-3.7-1.5c-0.1,0-0.1,0-0.2,0c-0.2,0-0.4,0.1-0.6,0.2c-0.9,0.5-1.7,0.7-2.5,0.7
		c-0.8,0-1.7-0.2-2.5-0.7c-0.2-0.1-0.5-0.2-0.7-0.2c-0.2,0-0.3,0-0.5,0.1c-0.1,0-0.2,0.1-0.3,0.1c0,0,0-0.1,0-0.1
		c0.1-0.4,0.3-0.7,0.4-1c0-0.1,0.3-0.2,0.6-0.2c0.1,0,0.3,0,0.3,0.1c0.1,0.1,0.2,0.1,0.4,0.2c0.5,0.3,1.1,0.6,1.6,0.7
		c0.2,0.1,0.5,0.1,0.7,0.1c0.8,0,1.6-0.3,2.4-0.9c0.2-0.1,0.3-0.2,0.4-0.2c0.1,0,0.2,0,0.3,0.1c0.5,0.2,1.1,0.4,1.6,0.6
		c0.8,0.3,1.6,0.6,2.4,1c1,0.4,1.6,1.2,1.8,2.3c0.1,0.6,0.3,1.3,0.5,1.9c0.1,0.2,0.1,0.4,0.2,0.6c0.1,0.4,0,1-0.3,1.4
		c-0.3,0.5-0.9,0.8-1.4,0.8C37.3,28.3,36.2,28.3,34.8,28.3z"/>
	<path class="st0" d="M5.2,28.3c-1.2,0-2.3,0-3.3,0c-0.6,0-1.1-0.3-1.4-0.7C0.1,27,0,26.4,0.2,25.7c0.2-0.7,0.4-1.5,0.6-2.2l0.1-0.4
		c0.2-0.8,0.6-1.3,1.3-1.6c0.9-0.4,1.9-0.8,2.8-1.2c0.3-0.1,0.7-0.3,1-0.4c0.1,0,0.1,0,0.2-0.1c0.1,0,0.2-0.1,0.3-0.1
		c0.1-0.1,0.2-0.1,0.3-0.1c0.1,0,0.3,0.1,0.5,0.2c0.8,0.6,1.7,0.9,2.5,0.9c0.8,0,1.7-0.3,2.6-0.9c0.2-0.1,0.3-0.2,0.5-0.2
		c0.3,0,0.5,0.2,0.6,0.5c0.1,0.2,0.2,0.5,0.3,0.8c-0.1,0-0.2,0-0.2-0.1c-0.2-0.1-0.4-0.1-0.6-0.1c-0.2,0-0.5,0.1-0.7,0.2
		c-0.8,0.5-1.6,0.7-2.4,0.7c-0.8,0-1.7-0.3-2.6-0.7c-0.2-0.1-0.4-0.2-0.6-0.2c-0.1,0-0.3,0-0.4,0.1c-0.4,0.2-0.9,0.4-1.3,0.6
		c-0.7,0.3-1.3,0.6-2,0.8c-0.6,0.3-1,0.7-1.1,1.4c-0.1,0.6-0.3,1.2-0.5,1.7c-0.1,0.3-0.1,0.5-0.2,0.8c-0.1,0.3,0,0.6,0.1,0.8
		c0.2,0.2,0.4,0.4,0.7,0.4c0.1,0,0.3,0,0.5,0c0.1,0,0.2-0.2,0.2-0.2c0.1,0,0.2-0.2,0.2-0.2h7.5c0,0,0,0.2,0,0.2
		c-0.1,0.3-0.3,0.7-0.4,0.9c0,0-0.1,0.1-0.1,0.1c-0.5,0-1.1,0-1.6,0C7.3,28.2,6.2,28.3,5.2,28.3z"/>
</g>
</svg>
