<svg version="1.1" width="60" id="Capa_1" xmlns="http://www.w3.org/2000/svg" xmlns:xlink="http://www.w3.org/1999/xlink" x="0px" y="0px" viewBox="0 0 612 792" enable-background="new 0 0 612 792" xml:space="preserve">
<path fill="#fff" d="M527.7,239.5C527.6,239.5,527.6,239.5,527.7,239.5c-17.8-47.1-63.3-80.6-116.5-80.6c-12.3,0-24,1.8-35.2,5.1  c0,0-0.1,0-0.1,0c-30.3-49-84.6-81.5-146.4-81.5c-93.8,0-170.1,75-172.1,168.3c0,0,0,0.1-0.1,0.1C23.1,270.8,0,307.9,0,350.2  c0,63.3,51.4,114.7,114.8,114.7H186l215.6,0.1h94.1c65.4,0,118.7-54,116.2-119.4C609.9,294.8,574.8,252.5,527.7,239.5z M378.4,270  l-61.2,142.8c0,0.1-0.1,0.1-0.2,0l-59-67c0-0.1-0.1,0-0.2,0l-56.5,105.5c0,0-8.3,13.7-8.3,13.7l-30-0.1l88.2-175.6  c0-0.1,0.1-0.1,0.2,0l55.9,63.5c0.1,0.1,0.1,0,0.2,0l40.8-95.2c0-0.1,0-0.1-0.1-0.1l-37-15.3c-0.1,0-0.1-0.1,0-0.2l90.5-67.3  c0.1,0,0.2,0,0.2,0.1L416,285.3c0,0.1-0.1,0.1-0.1,0.1L378.5,270C378.5,270,378.4,270,378.4,270z"/>
</svg>