<?xml version="1.0" encoding="utf-8"?>
<!-- Generator: Adobe Illustrator 19.2.0, SVG Export Plug-In . SVG Version: 6.00 Build 0)  -->
<svg version="1.1" id="Layer_1" xmlns="http://www.w3.org/2000/svg" xmlns:xlink="http://www.w3.org/1999/xlink" x="0px" y="0px"
	 viewBox="0 0 40 40" style="enable-background:new 0 0 40 40;" xml:space="preserve">
<style type="text/css">
	.st0{fill:#626975;}
</style>
<g>
	<g>
		<path class="st0" d="M13.5,20.2c-0.3-0.2-0.8-0.1-0.9,0.3l-0.2,0.4c0,0,0,0.1,0,0.1c0,0,0,0-0.1,0.1l-2.6,4.8
			c-0.2,0.3-0.1,0.7,0.3,0.9l0.8,0.4c0.3,0.2,0.7,0.1,0.9-0.3l2.4-4.3l3.1,1.7c0.3,0.2,0.8,0.1,0.9-0.3l0.2-0.3c0,0,0.1-0.1,0.1-0.1
			l2.9-5.3l0.8,0.4c0.3,0.2,0.7-0.1,0.6-0.5l-0.8-3.1c-0.1-0.2-0.3-0.4-0.6-0.3l-3.1,0.9c-0.4,0.1-0.4,0.6-0.1,0.8l1.1,0.6l-2.6,4.7
			L13.5,20.2z M25,30.1H7c-3.4,0-6.2-2.7-6.2-6.2c0-3.2,2.5-5.9,5.7-6.1l0.4-0.1v-0.4c0-3,2.4-5.4,5.3-5.4c1.1,0,2,0.3,2.9,0.9
			l0.4,0.2l0.2-0.4c1.6-2.7,4.4-4.4,7.5-4.4c4.3,0,7.9,3.2,8.6,7.4c0.1,0,0.2,0,0.4,0c0.2,0,0.3,0,0.5,0c-0.7-4.6-4.6-8.2-9.4-8.2
			c-3.2,0-6.1,1.6-7.9,4.2L15.3,12L15,11.8c-0.9-0.5-1.9-0.7-2.8-0.7c-3.2,0-5.9,2.4-6.2,5.7L6,17l-0.2,0.1c-3.3,0.6-5.8,3.6-5.8,7
			c0,3.9,3.1,7.2,7,7.2h19.1c-0.1-0.1-0.2-0.1-0.2-0.2C25.5,30.7,25.2,30.4,25,30.1z M39.2,23.7l-0.9-0.2c-0.1-0.4-0.2-0.7-0.3-1.1
			l0.6-0.7c0.3-0.4,0.4-0.9,0.1-1.3c-0.3-0.4-0.6-0.8-0.9-1.1c-0.2-0.2-0.4-0.3-0.7-0.3c0,0-0.1,0-0.1,0c-0.2,0-0.4,0.1-0.6,0.2
			l-0.8,0.5c-0.3-0.2-0.7-0.4-1-0.5l0-0.9c0-0.5-0.4-0.9-0.9-1c-0.2,0-0.5-0.1-0.7-0.1c-0.2,0-0.5,0-0.7,0c-0.5,0-0.9,0.3-1.1,0.8
			L31,18.6c-0.4,0.1-0.7,0.2-1.1,0.3l-0.7-0.6C29,18.1,28.8,18,28.5,18c0,0-0.1,0-0.1,0c-0.2,0-0.4,0.1-0.6,0.2
			c-0.4,0.3-0.8,0.6-1.1,0.9c-0.4,0.4-0.4,0.9-0.2,1.3l0.5,0.8c-0.2,0.3-0.4,0.7-0.5,1l-0.9,0c-0.5,0-0.9,0.4-1,0.9
			c-0.1,0.5-0.1,1-0.1,1.4c0,0.5,0.3,0.9,0.8,1.1c0.3,0.1,0.6,0.2,0.9,0.2c0.1,0.4,0.2,0.7,0.3,1.1l-0.6,0.7
			c-0.3,0.4-0.4,0.9-0.1,1.3c0.3,0.4,0.6,0.8,0.9,1.1c0.2,0.2,0.4,0.3,0.7,0.3c0,0,0.1,0,0.1,0c0.2,0,0.4-0.1,0.6-0.2l0.8-0.5
			c0.3,0.2,0.7,0.4,1,0.5l0,0.9c0,0.5,0.4,0.9,0.9,1c0.2,0,0.5,0,0.7,0.1c0.2,0,0.5,0,0.7,0h0c0.5,0,0.9-0.3,1.1-0.7l0.2-0.8
			c0.4-0.1,0.7-0.2,1.1-0.3l0.7,0.6c0.2,0.2,0.4,0.3,0.6,0.3c0,0,0.1,0,0.1,0c0.2,0,0.4-0.1,0.6-0.2c0.4-0.3,0.8-0.6,1.1-0.9
			c0.4-0.4,0.4-0.9,0.2-1.3c-0.1-0.2-0.3-0.6-0.5-0.8c0.2-0.3,0.4-0.7,0.5-1l0.9,0c0.5,0,0.9-0.4,1-0.9c0.1-0.5,0.1-1,0.1-1.4
			C40,24.3,39.7,23.8,39.2,23.7z M38.8,26l-1.3,0.1c-0.2,0-0.4,0.2-0.5,0.4c-0.2,0.5-0.4,1-0.7,1.4c-0.1,0.2-0.1,0.4,0,0.6l0.7,1.1
			c-0.3,0.3-0.6,0.6-0.9,0.8l-1-0.9c-0.1-0.1-0.2-0.1-0.3-0.1l-0.1,0c-0.1,0-0.2,0-0.2,0.1c-0.5,0.2-1,0.4-1.5,0.4
			c-0.2,0-0.4,0.2-0.5,0.4c0,0-0.2,0.8-0.3,1.2c-0.2,0-0.4,0-0.6,0c-0.2,0-0.4-0.1-0.6-0.1L30.8,30c0-0.2-0.2-0.4-0.4-0.5
			c-0.5-0.2-1-0.4-1.4-0.7c-0.1-0.1-0.2-0.1-0.3-0.1l-0.1,0c-0.1,0-0.2,0-0.3,0.1l-1.1,0.7c-0.3-0.3-0.6-0.6-0.8-0.9l0.9-1
			c0.1-0.2,0.2-0.4,0.1-0.6c-0.2-0.5-0.4-1-0.4-1.5c0-0.2-0.2-0.4-0.4-0.5l-1.2-0.3c0-0.4,0-0.8,0.1-1.2l1.3-0.1
			c0.2,0,0.4-0.2,0.5-0.4c0.2-0.5,0.4-1,0.7-1.4c0.1-0.2,0.1-0.4,0-0.6l-0.7-1.1c0.3-0.3,0.6-0.6,0.9-0.8l1,0.9
			c0.1,0.1,0.2,0.1,0.3,0.1l0.1,0c0.1,0,0.2,0,0.2-0.1c0.5-0.2,1-0.4,1.5-0.4c0.2,0,0.4-0.2,0.5-0.4l0.3-1.2c0.2,0,0.4,0,0.6,0
			c0.2,0,0.4,0.1,0.6,0.1l0.1,1.3c0,0.2,0.2,0.4,0.4,0.5c0.5,0.2,1,0.4,1.4,0.7c0.1,0.1,0.2,0.1,0.3,0.1l0.1,0c0.1,0,0.2,0,0.3-0.1
			L37,20c0.3,0.3,0.6,0.6,0.8,0.9l-0.9,1c-0.1,0.2-0.2,0.4-0.1,0.6c0.2,0.5,0.4,1,0.4,1.5c0,0.2,0.2,0.4,0.4,0.5l1.2,0.3
			C38.9,25.2,38.8,25.6,38.8,26z M32.5,22.1c-0.1,0-0.2,0-0.3,0c-1.4,0-2.5,1-2.6,2.4c-0.1,1.5,0.9,2.8,2.4,2.9c0.1,0,0.2,0,0.3,0
			c1.4,0,2.5-1,2.6-2.4c0.1-0.7-0.1-1.4-0.6-2C33.8,22.5,33.2,22.1,32.5,22.1z M33.7,24.9c-0.1,0.8-0.7,1.4-1.5,1.4
			c-0.1,0-0.1,0-0.2,0c-0.4,0-0.8-0.2-1-0.6s-0.4-0.7-0.3-1.1c0.1-0.8,0.7-1.4,1.5-1.4c0.1,0,0.1,0,0.2,0
			C33.2,23.3,33.8,24,33.7,24.9z M30.9,21.6c0.1,0,0.3-0.1,0.4-0.2c0.1-0.1,0.2-0.2,0.1-0.4c0-0.3-0.2-0.5-0.5-0.5l-0.1,0
			c0,0-2,0.1-2.6,2.1c0,0.1,0,0.3,0.1,0.4c0.1,0.1,0.2,0.2,0.3,0.3c0,0,0.1,0,0.1,0l0.1,0c0.2,0,0.5-0.2,0.5-0.4
			C29.7,21.7,30.9,21.6,30.9,21.6z"/>
	</g>
</g>
</svg>
