<?xml version="1.0" encoding="utf-8"?>
<!-- Generator: Adobe Illustrator 18.0.0, SVG Export Plug-In . SVG Version: 6.00 Build 0)  -->
<!DOCTYPE svg PUBLIC "-//W3C//DTD SVG 1.1//EN" "http://www.w3.org/Graphics/SVG/1.1/DTD/svg11.dtd">
<svg version="1.1" id="Capa_1" xmlns="http://www.w3.org/2000/svg" xmlns:xlink="http://www.w3.org/1999/xlink" x="0px" y="0px"
	 viewBox="0 0 380 380" enable-background="new 0 0 380 380" xml:space="preserve">
<path fill="#FFFFFF" d="M325.4,216.3C325.3,216.3,325.3,216.3,325.4,216.3c-10.9-28.8-38.6-49.2-71.1-49.2c-7.5,0-14.7,1.1-21.5,3.1
	h-0.1c-18.5-29.9-51.7-49.8-89.4-49.8c-57.3,0-103.8,45.8-105.1,102.8c0,0,0,0.1-0.1,0.1c-20.9,12.1-35,34.8-35,60.6
	c0,38.6,31.4,70,70.1,70h46.5l131.6,0.1h54.4c39.9,0,72.5-33,70.9-72.9C375.5,250.1,354.1,224.3,325.4,216.3z M234.2,234.9
	l-37.4,87.2c0,0.1-0.1,0.1-0.1,0l-36-40.9c0-0.1-0.1,0-0.1,0l-32.7,65l-3.8,7.8l-21.4-0.1l53.8-107.2c0-0.1,0.1-0.1,0.1,0l34.1,38.8
	c0.1,0.1,0.1,0,0.1,0l24.9-58.1c0-0.1,0-0.1-0.1-0.1l-22.6-9.3c-0.1,0-0.1-0.1,0-0.1l55.3-41.1c0.1,0,0.1,0,0.1,0.1l8.6,67.5
	c0,0.1-0.1,0.1-0.1,0.1L234.2,234.9L234.2,234.9L234.2,234.9z"/>
<g>
	<g>
		<g>
			<circle fill="#FFFFFF" cx="302.2" cy="99.5" r="12.6"/>
			<path fill="#FFFFFF" d="M372.6,87l-17.7-3.3c-1.1-3.6-2.5-7-4.2-10.3l10.3-14.9c1-1.4,0.7-3.5-0.4-4.6l-12.6-12.6
				c-1.2-1.2-3.2-1.4-4.6-0.4l-15,10.3c-3.3-1.8-6.8-3.2-10.6-4.3l-3.3-17.6c-0.3-1.6-1.9-3-3.6-3H293c-1.6,0-3.3,1.3-3.6,3
				L286,46.9c-3.5,1.1-6.9,2.5-10.1,4.2L261.1,41c-1.4-1-3.5-0.7-4.6,0.4l-12.6,12.6c-1.2,1.2-1.4,3.2-0.4,4.6l10.2,14.8
				c-1.7,3.2-3.1,6.6-4.2,10.1L231.8,87c-1.6,0.3-3,1.9-3,3.6v17.8c0,1.6,1.3,3.3,3,3.6l17.6,3.3c1.1,3.6,2.5,7.1,4.3,10.3l-10,14.7
				c-1,1.4-0.7,3.5,0.4,4.6l12.6,12.6c1.2,1.2,3.2,1.4,4.6,0.4l14.7-10.1c3.2,1.7,6.5,3.1,10,4.2l3.4,17.8c0.3,1.6,1.9,3,3.6,3h17.8
				c1.7,0,3.3-1.3,3.6-3l3.3-17.6c3.7-1.1,7.1-2.5,10.4-4.3l14.9,10.2c1.4,1,3.5,0.7,4.6-0.4l12.6-12.6c1.2-1.2,1.4-3.2,0.4-4.6
				l-10.1-14.8c1.8-3.3,3.2-6.8,4.3-10.4l17.6-3.3c1.6-0.3,3-1.9,3-3.6V90.6C375.6,88.9,374.3,87.3,372.6,87z M302.2,130.1
				c-16.9,0-30.6-13.7-30.6-30.6s13.7-30.6,30.6-30.6c16.9,0,30.6,13.7,30.6,30.6C332.9,116.4,319.1,130.1,302.2,130.1z"/>
		</g>
	</g>
</g>
</svg>
