<?xml version="1.0" encoding="utf-8"?>
<!-- Generator: Adobe Illustrator 19.2.0, SVG Export Plug-In . SVG Version: 6.00 Build 0)  -->
<svg version="1.1" id="Layer_1" xmlns="http://www.w3.org/2000/svg" xmlns:xlink="http://www.w3.org/1999/xlink" x="0px" y="0px"
	 viewBox="0 0 40 40" style="enable-background:new 0 0 40 40;" xml:space="preserve">
<style type="text/css">
	.st0{fill:#FFFFFF;}
</style>
<path class="st0" d="M16.7,10.6c0-0.5-0.5-0.8-0.9-0.8h-0.2c0,0-4.8,0.8-5.7,5.6c-0.2,0.5,0.3,0.9,0.8,1.1h0.2
	c0.5,0,0.8-0.3,0.9-0.8c0.6-3.6,4-4.2,4.2-4.2C16.5,11.6,16.8,11.2,16.7,10.6z"/>
<path class="st0" d="M29.4,39.7c-0.4,0-0.6,0.4-1,0.2c-0.4,0-0.6,0.1-1,0c-0.6-0.1-1.1-0.6-1.1-1.2v-1.2c-0.5-0.2-0.9-0.4-1.4-0.7
	l-1.1,0.6c-0.2,0.1-0.5,0.2-0.7,0.2H23c-0.4,0-0.6-0.1-0.9-0.4c-0.5-0.5-0.9-1-1.2-1.5c-0.4-0.6-0.4-1.2,0.1-1.7l0.9-0.9
	c-0.2-0.5-0.4-1-0.5-1.5c-0.4-0.1-0.9-0.2-1.2-0.4c-0.6-0.1-1.1-0.7-1.1-1.4c0-0.6,0.1-1.2,0.2-2c0.1-0.6,0.7-1.1,1.4-1.1l1.2-0.1
	c0.2-0.5,0.5-0.9,0.7-1.4L22,24.3c-0.4-0.6-0.2-1.2,0.2-1.7c0.5-0.5,1-0.9,1.5-1.2c0.2-0.1,0.5-0.1,0.7-0.1h0.1
	c0.4,0,0.6,0.1,0.9,0.4l0.9,0.9c0.5-0.2,1-0.4,1.5-0.5l0.4-1.2c0.1-0.6,0.7-1.1,1.4-1.1c0.4,0,0.6,0,1,0s0.6,0.1,1,0.1
	c0.6,0.2,1.1,0.7,1.1,1.5l0.1,1.2c0.5,0.2,0.9,0.5,1.4,0.7l1.1-0.6c0.2-0.1,0.5-0.2,0.7-0.2h0.1c0.4,0,0.6,0.1,0.9,0.4
	c0.5,0.5,0.9,1,1.2,1.5c0.4,0.6,0.4,1.2-0.1,1.7L37.2,27c0.2,0.5,0.4,1,0.5,1.5l1.2,0.4c0.6,0.1,1.1,0.7,1.1,1.4s-0.1,1.2-0.2,2
	C39.6,32.5,39,33,38.4,33h-1.2c-0.2,0.5-0.5,0.9-0.7,1.4c0.2,0.4,0.5,0.7,0.6,1.1c0.4,0.6,0.2,1.2-0.2,1.7c-0.5,0.5-1,0.9-1.5,1.2
	c-0.2,0.1-0.5,0.2-0.9,0.2l0,0h-0.1c-0.4,0-0.6-0.1-0.9-0.4l-0.9-0.9c-0.5,0.2-1,0.4-1.5,0.5l-0.4,0.9C30.6,39.6,30,39.7,29.4,39.7
	L29.4,39.7z M25.1,35.3c0.1,0,0.2,0.1,0.4,0.1c0.5,0.4,1.1,0.7,1.9,1c0.2,0.1,0.5,0.4,0.5,0.6l0.1,1.7c0.2,0,0.5,0.1,0.7,0.1
	s0.5,0,0.9,0c0.1-0.6,0.4-1.6,0.4-1.6c0.1-0.2,0.4-0.5,0.6-0.5c0.7-0.1,1.4-0.2,2-0.6c0.1,0,0.2-0.1,0.4-0.1l0,0
	c0.1,0,0.2,0.1,0.4,0.2l1.2,1.1c0.4-0.4,0.9-0.6,1.2-1l-1-1.5c-0.1-0.2-0.1-0.6,0-0.9c0.4-0.5,0.7-1.1,1-1.9
	c0.1-0.2,0.4-0.5,0.6-0.5l1.7-0.1c0.1-0.5,0.1-1.1,0.1-1.6l-1.6-0.4c-0.2-0.1-0.5-0.4-0.5-0.6c-0.1-0.7-0.2-1.4-0.6-2
	c-0.1-0.2-0.1-0.6,0.1-0.9l1.1-1.2c-0.4-0.4-0.6-0.9-1-1.2l-1.5,0.9c-0.1,0.1-0.2,0.1-0.4,0.1h-0.1c-0.1,0-0.2-0.1-0.4-0.1
	c-0.5-0.4-1.1-0.7-1.7-0.9c-0.2-0.1-0.5-0.4-0.5-0.6L31,21c-0.2,0-0.5,0-0.7,0s-0.6,0-0.9,0L29,22.6c-0.1,0.2-0.4,0.5-0.6,0.5
	c-0.7,0.1-1.4,0.2-2,0.6c-0.1,0-0.2,0.1-0.4,0.1h-0.1c-0.1,0-0.2-0.1-0.4-0.2l-1.2-1.1c-0.4,0.2-0.9,0.6-1.2,1L24,25
	c0.1,0.2,0.1,0.6,0,0.9c-0.4,0.5-0.7,1.1-1,1.9c-0.1,0.2-0.4,0.5-0.6,0.5l-1.7,0.1c-0.1,0.5-0.1,1.1-0.1,1.6l1.6,0.4
	c0.2,0.1,0.5,0.4,0.5,0.6c0.1,0.7,0.2,1.4,0.6,2c0.1,0.2,0.1,0.6-0.1,0.9l-1.1,1.2c0.4,0.4,0.6,0.9,1,1.2l1.5-0.9
	C24.7,35.3,24.8,35.3,25.1,35.3L25.1,35.3z"/>
<path class="st0" d="M29.5,33.5c-0.1,0-0.2,0-0.4,0c-2-0.2-3.3-2-3.2-3.8c0.2-1.9,1.7-3.2,3.5-3.2c0.1,0,0.2,0,0.4,0
	c1,0.1,1.7,0.5,2.3,1.2s0.9,1.6,0.7,2.6C32.8,32.2,31.2,33.5,29.5,33.5L29.5,33.5z M29.5,28c-1.1,0-2,0.7-2.1,1.9
	c0,0.5,0.1,1.1,0.5,1.5s0.9,0.7,1.4,0.7c0.1,0,0.1,0,0.2,0c1.1,0,2-0.7,2.1-1.9c0.1-1.1-0.7-2.1-1.9-2.2C29.6,28,29.5,28,29.5,28z"
	/>
<g>
	<path class="st0" d="M20.7,38.6c-0.2-0.2-0.4-0.4-0.5-0.6c-0.1,0-0.2,0-0.3,0c-0.6,0-1.1,0-1.7,0c-0.2,0-0.5-0.2-0.5-0.5l-0.5-3.4
		c0-0.3-0.3-0.6-0.6-0.8c-1.4-0.3-2.6-0.9-3.9-1.5c-0.2-0.2-0.3-0.2-0.5-0.2s-0.5,0-0.6,0.2l-2.8,2c-0.2,0-0.2,0.2-0.3,0.2
		c-0.2,0-0.2,0-0.3-0.2c-0.8-0.8-1.7-1.5-2.3-2.3c-0.2-0.2-0.2-0.5,0-0.6l2-2.8c0.2-0.3,0.3-0.8,0-1.1c-0.8-1.2-1.2-2.5-1.5-3.9
		c0.2-0.5-0.2-0.6-0.6-0.8c0,0-2-0.3-3.4-0.5c-0.2,0-0.3-0.2-0.5-0.5c-0.2-1.1-0.2-2.2,0-3.4c0-0.2,0.2-0.5,0.5-0.5l3.4-0.5
		c0.3,0,0.6-0.3,0.8-0.6c0.3-1.4,0.9-2.6,1.5-3.9c0.2-0.3,0.2-0.8,0-1.1c0,0-1.2-1.7-2-2.8C6,8.7,6,8.4,6.2,8.2
		C7,7.3,7.7,6.5,8.5,5.9c0.2,0,0.2-0.2,0.3-0.2s0.2,0,0.3,0.2l2.8,2c0.2,0.2,0.3,0.2,0.6,0.2c0.2,0,0.3,0,0.5-0.2
		c1.2-0.8,2.5-1.2,3.9-1.5c0.3-0.2,0.6-0.3,0.6-0.8L18,2.2c0-0.2,0.2-0.3,0.5-0.5c0.6,0,1.1-0.2,1.7-0.2s1.1,0,1.7,0
		c0.2,0,0.5,0.2,0.5,0.5l0.5,3.4c0,0.3,0.3,0.6,0.6,0.8c1.4,0.3,2.6,0.9,3.9,1.5c0.2,0.2,0.3,0.2,0.5,0.2s0.3,0,0.6-0.2l2.8-2
		c0.2,0,0.2-0.2,0.3-0.2c0.2,0,0.2,0,0.3,0.2c0.9,0.8,1.7,1.5,2.3,2.3c0.2,0.2,0.2,0.5,0,0.6l-2,2.8c-0.2,0.3-0.3,0.8,0,1.1
		c0.8,1.2,1.2,2.5,1.5,3.9c0.2,0.3,0.3,0.6,0.8,0.6c0,0,2,0.3,3.4,0.5c0.2,0,0.3,0.2,0.5,0.5c0,1.2,0,2.1-0.1,3.1
		c0.1,0.1,0.2,0.1,0.2,0.2c0.5,0.5,0.9,1,1.3,1.5c0.1-0.2,0.2-0.5,0.3-0.8c0.2-1.5,0.2-2.8,0-4c-0.2-1.1-0.9-1.9-2-2l-2.8-0.5
		c-0.3-1.1-0.8-2.3-1.4-3.2l1.7-2.2c0.6-0.9,0.6-2-0.2-2.8c-0.8-0.9-1.7-1.9-2.6-2.6c-0.5-0.3-0.9-0.5-1.4-0.5S30.5,4.4,30,4.7
		c-0.8,0.5-1.7,1.2-2.2,1.7c-1.1-0.6-2.2-1.1-3.2-1.4l-0.5-2.8c-0.2-1.1-1.1-1.9-2-2c-0.6,0-1.2-0.2-1.9-0.2S19,0,18.3,0.2
		c-1.1,0.2-1.9,0.9-2,2L15.7,5c-1.1,0.2-2.2,0.6-3.2,1.2l-2.2-1.7C9.9,4.2,9.4,4.1,8.9,4.1s-1,0.1-1.5,0.4c-0.9,1-1.9,1.7-2.6,2.7
		C4.2,8,4,9.2,4.8,10l1.5,2.3c-0.6,1.1-1.1,2.2-1.4,3.2L2.1,16c-1.1,0.2-1.9,1.1-2,2c-0.2,1.2-0.2,2.5,0,3.7c0.2,1.1,0.9,1.9,2,2
		c1.1,0.2,2.2,0.5,2.9,0.5c0.3,1.1,0.8,2.3,1.4,3.2l-1.7,2.3c-0.6,0.8-0.6,2,0.2,2.8c0.8,0.9,1.7,1.9,2.6,2.6
		c0.5,0.3,0.9,0.5,1.4,0.5s0.9-0.2,1.4-0.5c0.6-0.5,1.5-1.1,2.2-1.5c1.1,0.6,2.2,1.1,3.2,1.4l0.5,2.8c0.2,1.1,1.1,1.9,2,2
		c0.6,0,1.2,0.2,1.9,0.2s1.2,0,1.9-0.2c0.3,0,0.5-0.1,0.8-0.2C21.9,39.5,21.3,39.2,20.7,38.6z"/>
</g>
<path class="st0" d="M20.1,24.9c-0.1-0.1-0.1-0.3-0.2-0.4c-2.4-0.1-4.5-2.1-4.5-4.6s2-4.6,4.6-4.6c2.3,0,4.2,1.7,4.6,4
	c0.6,0,1.2,0.2,1.7,0.5c0,0,0-0.1,0.1-0.1c-0.1-3.3-2.9-6.1-6.3-6.1c-3.6,0-6.3,2.9-6.3,6.3c0,2.8,1.9,5.2,4.5,6
	C18.7,25.4,19.4,25,20.1,24.9z"/>
</svg>
