<svg xmlns="http://www.w3.org/2000/svg" viewBox="0 0 14.765 8.958">
  <defs>
    <style>
      .cls-1 {
        fill: #fff;
      }
    </style>
  </defs>
  <path id="Union_118" data-name="Union 118" class="cls-1" d="M10.734,8.792,10.039,8.1q-.413.115-.848.193a11.093,11.093,0,0,1-1.957.181A8.813,8.813,0,0,1,.267,5.091C-.09,4.672-.082,4.6.252,4.178A8.729,8.729,0,0,1,3.54,1.6L2.9.963a.564.564,0,1,1,.8-.8l7.829,7.829a.564.564,0,1,1-.8.8ZM1.065,4.239c-.1.114-.19.228-.312.38A8.029,8.029,0,0,0,5.808,7.644a9.178,9.178,0,0,0,3.686-.092L8.944,7a2.906,2.906,0,0,1-1.577.452A2.843,2.843,0,0,1,5,3.054l-.945-.945A8.465,8.465,0,0,0,1.065,4.239ZM5.193,4.6A2.179,2.179,0,0,0,8.45,6.508L6.258,4.317c-.02.076-.038.159-.055.249-.039.194-.111.366-.281.366a.332.332,0,0,1-.1-.017c-.144-.038-.243-.236-.289-.289A2.04,2.04,0,0,1,5.74,3.8l-.257-.257A2.157,2.157,0,0,0,5.193,4.6Zm6.613,1.969a9.391,9.391,0,0,0,2.28-2.075c.16-.2.334-.3.547-.129.228.182.122.38-.023.57a9.257,9.257,0,0,1-2.3,2.136ZM9.54,4.292A2.219,2.219,0,0,0,7.7,2.453l-.669-.669a2.588,2.588,0,0,1,.342-.023,2.833,2.833,0,0,1,2.85,2.873,2.256,2.256,0,0,1-.023.319Zm3.671-.547A16.47,16.47,0,0,0,11.3,2.392,8.25,8.25,0,0,0,6.7,1.45l-.6-.6a9,9,0,0,1,7.426,2.257c.061.053.114.106.167.16.167.16.243.342.053.524a.294.294,0,0,1-.212.1A.575.575,0,0,1,13.212,3.745Z" transform="translate(0 0)"/>
</svg>
