<?xml version="1.0" encoding="utf-8"?>
<!-- Generator: Adobe Illustrator 19.2.0, SVG Export Plug-In . SVG Version: 6.00 Build 0)  -->
<svg version="1.1" id="Layer_1" xmlns="http://www.w3.org/2000/svg" xmlns:xlink="http://www.w3.org/1999/xlink" x="0px" y="0px"
	 viewBox="0 0 40 40" style="enable-background:new 0 0 40 40;" xml:space="preserve">
<style type="text/css">
	.st0{fill:#626975;}
</style>
<g>
	<g>
		<path class="st0" d="M22.3,35.2l0.6-0.6h-0.6V35.2z M28.2,36.4v-2H27l-1.7,2H28.2z M30.5,39.1c0-0.3,0.1-0.7,0.3-0.7h-7.6
			l-0.7,0.7l-0.7-0.7h-2.4l1.7-5.2c0.1-0.2,0.1-0.4,0-0.6L20,29.5c0.5-0.3,0.8-0.6,1.1-0.8c1.2,1,3.4,2.1,3.5,2.1
			c0.6,0.2,1.1,0.4,1.5,0.6l1.3-1.3c-0.1,0-0.1-0.1-0.2-0.1c-0.3,0.3-0.6,0.4-1,0.4c-0.4,0-0.7-0.1-1-0.4l-1.6-1.7
			c-0.6-0.4-1.6-0.8-1.6-1.2v-1.8c2-1.5,4.1-4,4.7-7.1c1.6-0.3,2.6-1.9,2.6-3.3c0-1.3-1.2-2.2-2.6-2.4v-1.3c0-0.4,0.2-5.3-2.9-8.6
			c-1.7-1.8-4.1-2.7-7-2.7c-2.9,0-5.1,0.9-6.8,2.7C7,5.9,7.2,10.9,7.2,11.3v1.3c-2,0.2-2.7,1.1-2.7,2.4c0,1.4,1.1,3,2.7,3.3
			c0.6,3.1,2,5.6,4.7,7.1v1.8c-0.7,0.7-2.4,1.7-3.2,2.1c-8.2,2.7-8.3,7.6-8.3,7.8v2.1c0,0.5,0.1,0.7,0.6,0.7h29.7
			C30.6,39.8,30.5,39.5,30.5,39.1z M26.9,14.3c0.4,0.1,0.8,0.3,0.8,0.7c0,0.5-0.4,1.1-0.8,1.4C26.9,16.2,26.9,14.3,26.9,14.3z
			 M6.1,15c0-0.4,0.4-0.6,0.8-0.7c0,0,0,2,0,2.1C6.4,16.1,6.1,15.5,6.1,15z M20.1,27.2c0,0.3-0.8,0.8-1.6,1.2
			c-1.1,0.5-2.4,0.5-3.5,0c-0.8-0.4-1.1-0.9-1.7-1.2v-1.1c1.4,0.4,2.2,0.6,3.4,0.6s2.7-0.2,3.4-0.6V27.2z M11.1,3.9
			c1.4-1.5,3.4-2.2,5.8-2.2c2.4,0,4.4,0.7,5.8,2.2c2,2.1,2.4,5.1,2.5,6.5C20.5,10.1,17,7.7,17,7.7c-0.3-0.2-0.6-0.2-0.9-0.1
			c-0.3,0.1-0.5,0.4-0.5,0.7c0,0.2-0.2,0.4-0.9,0.8c-0.7,0.3-1.6,0.6-2.8,0.8c-1.3,0.2-2.6,0.4-3.4,0.4C8.7,8.9,9.1,5.9,11.1,3.9z
			 M8.7,17.4c-0.1-0.5-0.1-1.1-0.1-1.5V12c0.8-0.1,2.3-0.2,3.7-0.5c2.4-0.5,4-1.1,4.7-2c1.4,0.8,4.4,2.3,8.5,2.5v3.8
			c0,0.5-0.1,1-0.2,1.5c-0.4,3.1-2.1,5.5-4.6,6.8C19.6,24.7,18.3,25,17,25s-2.6-0.3-3.7-0.9C10.8,22.9,9.1,20.4,8.7,17.4z M1.8,38.5
			v-1.4c0-0.1,0.1-1,1-2.2c1.5-2.1,4.3-3.4,6.4-4.1c0,0,2.3-1.2,3.5-2.1c0.3,0.3,0.7,0.6,1.1,0.8l-1.1,3.2c-0.1,0.2-0.1,0.4,0,0.6
			l1.7,5.2H1.8z M16.3,38.5L14.5,33l0.9-2.8c0.5,0.2,1,0.2,1.5,0.2c0.5,0,1-0.1,1.5-0.2l0.9,2.8l-1.8,5.5H16.3z M27.9,22l-4.3,4.3
			c-0.3,0.3-0.3,0.8,0,1.1l2.1,2.1c0.1,0.1,0.3,0.2,0.5,0.2c0.2,0,0.4-0.1,0.5-0.2l0.5-0.5l1.1,1.1l-7,7l1.1,1.1l7-7l1.1,1.1
			L30,32.7c-0.3,0.3-0.3,0.8,0,1.1l2.1,2.1c0.1,0.1,0.3,0.2,0.5,0.2c0.2,0,0.4-0.1,0.5-0.2l4.3-4.3c0.1-0.1,0.2-0.3,0.2-0.5
			c0-0.2-0.1-0.4-0.2-0.5l-2.1-2.1c-0.3-0.3-0.8-0.3-1.1,0L33.8,29l-3.2-3.2l0.5-0.5c0.1-0.1,0.2-0.3,0.2-0.5s-0.1-0.4-0.2-0.5
			L28.9,22C28.6,21.7,28.2,21.7,27.9,22z M34.8,30.1l1.1,1.1l-3.2,3.2l-1.1-1.1l0.5-0.5c0,0,0,0,0,0l1.1-1.1L34.8,30.1z M32.7,30.1
			l-0.6,0.6l-0.5,0.5l-3.2-3.2l0.3-0.3l0.8-0.8L32.7,30.1z M28.9,25.2C28.9,25.2,28.9,25.2,28.9,25.2l-1.7,1.7l-1,1l-1.1-1.1
			l3.2-3.2l1.1,1.1L28.9,25.2z M38.8,38.5h-6.8c-0.4,0-0.8,0.3-0.8,0.8c0,0.4,0.3,0.8,0.8,0.8h6.8c0.4,0,0.8-0.3,0.8-0.8
			C39.5,38.8,39.2,38.5,38.8,38.5z M34.2,36.2c-0.4,0-0.8,0.3-0.8,0.8c0,0.4,0.3,0.8,0.8,0.8h2.3c0.4,0,0.8-0.3,0.8-0.8
			c0-0.4-0.3-0.8-0.8-0.8H34.2z"/>
	</g>
</g>
</svg>
