<?xml version="1.0" encoding="utf-8"?>
<!-- Generator: Adobe Illustrator 19.2.0, SVG Export Plug-In . SVG Version: 6.00 Build 0)  -->
<svg version="1.1" id="Layer_1" xmlns="http://www.w3.org/2000/svg" xmlns:xlink="http://www.w3.org/1999/xlink" x="0px" y="0px"
	 viewBox="0 0 40 40" style="enable-background:new 0 0 40 40;" xml:space="preserve">
<style type="text/css">
	.st0{fill:#626975;}
</style>
<g>
	<g>
		<path class="st0" d="M24,28.9c-0.7-0.4-2.4-1.3-3.1-2v-1.7c2.4-1.4,4-3.8,4.6-6.8c1.5-0.3,2.6-1.8,2.6-3.2c0-1.3-0.9-2.1-2.4-2.4
			v-1.3c0-0.4,0.1-5.1-2.9-8.3c-1.7-1.7-3.9-2.6-6.8-2.6c-2.8,0-5.1,0.9-6.8,2.6c-3,3.1-2.9,7.9-2.9,8.3v1.3C4.9,13,4,13.9,4,15.2
			c0,1.4,1.1,2.8,2.6,3.2c0.6,3,2.2,5.4,4.6,6.8v1.7c-0.8,0.7-2.4,1.6-3.1,2c-8,2.6-8.1,7.4-8.1,7.6v2c0,0.4,0.4,0.8,0.8,0.8h30.6
			c0.4,0,0.8-0.4,0.8-0.8v-2C32.2,36.3,32.1,31.5,24,28.9z M25.7,14.5c0.4,0.1,0.8,0.3,0.8,0.7c0,0.5-0.3,1-0.8,1.4
			C25.7,16.3,25.7,14.5,25.7,14.5z M5.6,15.2c0-0.4,0.4-0.6,0.8-0.7c0,0,0,1.9,0,2.1C6,16.2,5.6,15.7,5.6,15.2z M10.5,4.4
			c1.4-1.4,3.2-2.1,5.6-2.1c2.4,0,4.2,0.7,5.6,2.1c1.9,2,2.3,4.9,2.4,6.3c-4.5-0.3-7.9-2.6-8-2.6c-0.2-0.2-0.6-0.2-0.8-0.1
			c-0.3,0.1-0.4,0.4-0.4,0.7c0,0.1-0.2,0.4-0.9,0.7c-0.6,0.3-1.5,0.6-2.7,0.8c-1.2,0.2-2.5,0.4-3.3,0.4C8.2,9.3,8.6,6.4,10.5,4.4z
			 M8.1,17.5C8.1,16.9,8,16.4,8,16v-3.7c0.8-0.1,2.2-0.2,3.6-0.5c2.3-0.4,3.8-1.1,4.5-1.9c1.4,0.8,4.4,2.2,8.1,2.4V16
			c0,0.5,0,1-0.1,1.5c-0.4,3-2,5.3-4.3,6.5c-1.1,0.6-2.3,0.8-3.6,0.8c-1.3,0-2.5-0.3-3.6-0.8C10.1,22.8,8.5,20.4,8.1,17.5z
			 M19.3,25.9v1c-0.3,0.3-0.8,0.8-1.6,1.1c-1.1,0.5-2.2,0.5-3.3,0c-0.7-0.4-1.3-0.9-1.6-1.1v-1c1,0.4,2.1,0.5,3.2,0.5
			S18.3,26.3,19.3,25.9z M1.6,37.7v-1.2c0-0.1,0.1-1,0.9-2.2c1.5-2.1,4.2-3.3,6.2-3.9c0,0,2.2-1.1,3.3-2.1c0.3,0.2,0.6,0.5,1.1,0.8
			l-1,3c-0.1,0.2-0.1,0.3,0,0.5l1.7,5H1.6z M15.5,37.7l-1.7-5.2l0.9-2.6c0.5,0.1,1,0.2,1.5,0.2c0.5,0,1-0.1,1.5-0.2l0.9,2.6
			l-1.7,5.2H15.5z M30.6,37.7H18.4l1.7-5c0.1-0.2,0.1-0.3,0-0.5l-1-3c0.4-0.3,0.8-0.6,1.1-0.8c1.2,0.9,3.3,2.1,3.3,2.1
			c3.6,1.2,5.4,2.8,6.2,3.9c0.8,1.2,0.9,2.1,0.9,2.2V37.7z M21.3,35.7H27v-1.6h-5.6V35.7z M30.5,1.8c-2,0-4,0.7-5.7,1.9
			c0.4,0.3,0.8,0.6,1.1,1c1.3-0.9,2.9-1.4,4.5-1.4c4.5,0,8.1,3.6,8.1,8.1c0,4.5-3.6,8.1-8.1,8.1c-1.1,0-2.1-0.2-3.1-0.6
			c-0.2,0.4-0.4,0.9-0.6,1.3c1.2,0.5,2.5,0.8,3.8,0.8c5.3,0,9.5-4.3,9.5-9.5C40,6.1,35.7,1.8,30.5,1.8z M31.2,13.5
			c-0.8,0-1.2-0.3-1.4-0.6c-0.1-0.1-0.2-0.2-0.4-0.2c0,0-0.1,0-0.1,0l-0.6,0.1c-0.1,0-0.3,0.1-0.3,0.3c-0.1,0.1,0,0.3,0,0.4
			c0.4,0.6,1.1,1,1.9,1.1l0.3,0v1.5c0,0.2,0.1,0.4,0.3,0.4c0.2,0,0.3-0.2,0.3-0.4v-1.5l0.3,0c0.6-0.1,1.1-0.3,1.5-0.7
			c0.4-0.4,0.6-0.9,0.6-1.4c0-0.4-0.1-0.8-0.3-1c-0.2-0.3-0.5-0.5-0.8-0.6c-0.3-0.1-0.9-0.3-1.7-0.5c-0.5-0.1-0.7-0.2-0.8-0.3
			c-0.1-0.1-0.2-0.3-0.2-0.5c0-0.2,0.1-0.7,1-0.7c0.5,0,0.9,0.2,1.1,0.4c0.1,0.1,0.2,0.1,0.3,0.1c0,0,0.1,0,0.1,0L33,9.2
			c0.1,0,0.2-0.2,0.3-0.3c0-0.1,0-0.3-0.1-0.4c-0.3-0.4-0.8-0.6-1.4-0.7l-0.3-0.1V6.6c0-0.2-0.1-0.4-0.3-0.4c-0.2,0-0.3,0.2-0.3,0.4
			v1.2l-0.3,0c-0.7,0.1-1.2,0.4-1.5,0.7c-0.3,0.4-0.5,0.8-0.5,1.3c0,0.5,0.1,0.8,0.4,1.2c0.2,0.2,0.8,0.6,2.2,0.9
			c0.4,0.1,0.6,0.2,0.8,0.3c0.2,0.1,0.3,0.4,0.3,0.6C32.3,13,32.1,13.5,31.2,13.5z"/>
	</g>
</g>
</svg>
