<svg xml:space="preserve" fill="#fff" enable-background="new 0 0 80.1 80.1" viewBox="0 0 80.1 80.1" y="0px" x="0px" xmlns:xlink="http://www.w3.org/1999/xlink" xmlns="http://www.w3.org/2000/svg" id="Capa_1" width="64" version="1.1">
<g>
	<path d="M48.4,17.9c3.7,2.3,6.3,6.3,6.8,10.8c1.5,0.7,3.2,1.1,5,1.1c6.5,0,11.8-5.3,11.8-11.8c0-6.5-5.3-11.8-11.8-11.8   C53.7,6.3,48.5,11.5,48.4,17.9z M40.7,42c6.5,0,11.8-5.3,11.8-11.8s-5.3-11.8-11.8-11.8s-11.8,5.3-11.8,11.8S34.2,42,40.7,42z    M45.6,42.8h-10c-8.3,0-15,6.8-15,15V70l0,0.2l0.8,0.3c7.9,2.5,14.8,3.3,20.5,3.3c11.1,0,17.5-3.2,17.9-3.4l0.8-0.4h0.1V57.8   C60.7,49.5,53.9,42.8,45.6,42.8z M65.1,30.7h-9.9c-0.1,4-1.8,7.5-4.5,10.1c7.4,2.2,12.8,9,12.8,17.1v3.8c9.8-0.4,15.4-3.1,15.8-3.3   l0.8-0.4h0.1V45.7C80.1,37.4,73.4,30.7,65.1,30.7z M20,29.9c2.3,0,4.4-0.7,6.3-1.8c0.6-3.8,2.6-7,5.5-9.3c0-0.2,0-0.4,0-0.7   c0-6.5-5.3-11.8-11.8-11.8c-6.5,0-11.8,5.3-11.8,11.8C8.3,24.6,13.5,29.9,20,29.9z M30.6,40.7c-2.7-2.6-4.3-6.1-4.5-10   c-0.4,0-0.7-0.1-1.1-0.1H15c-8.3,0-15,6.7-15,15v12.2l0,0.2l0.8,0.3c6.4,2,12,2.9,16.9,3.2v-3.7C17.8,49.8,23.2,42.9,30.6,40.7z    M12.3,51.9v-1.5c-0.8-0.1-1.4-0.3-1.8-0.5c-0.5-0.2-0.9-0.6-1.2-1.2c-0.3-0.5-0.5-1.2-0.6-2l1.5-0.3c0.1,0.8,0.3,1.4,0.6,1.8   c0.4,0.5,0.9,0.8,1.5,0.9v-4.8c-0.6-0.1-1.2-0.4-1.9-0.7C10,43.3,9.6,43,9.3,42.5c-0.3-0.5-0.4-1-0.4-1.6c0-1.1,0.4-1.9,1.1-2.6   c0.5-0.4,1.3-0.7,2.3-0.8v-0.7h0.9v0.7c0.9,0.1,1.6,0.3,2.1,0.8c0.7,0.5,1.1,1.3,1.2,2.2l-1.6,0.2c-0.1-0.6-0.3-1-0.6-1.4   c-0.3-0.3-0.7-0.5-1.2-0.6v4.3c0.8,0.2,1.3,0.3,1.5,0.4c0.5,0.2,0.8,0.5,1.1,0.8c0.3,0.3,0.5,0.6,0.7,1.1c0.2,0.4,0.2,0.8,0.2,1.3   c0,1-0.3,1.9-1,2.6c-0.7,0.7-1.5,1.1-2.6,1.1v1.5H12.3z M12.3,38.7c-0.6,0.1-1,0.3-1.4,0.7c-0.3,0.4-0.5,0.8-0.5,1.3   c0,0.5,0.1,0.9,0.4,1.3s0.8,0.6,1.5,0.8V38.7z M13.2,49.1c0.6-0.1,1.1-0.3,1.4-0.8c0.4-0.4,0.6-1,0.6-1.6c0-0.5-0.1-1-0.4-1.3   c-0.3-0.3-0.8-0.6-1.6-0.9V49.1z M39.7,67.8v-1.5c-0.8-0.1-1.4-0.3-1.8-0.5c-0.5-0.2-0.9-0.6-1.2-1.2s-0.5-1.2-0.6-2l1.5-0.3   c0.1,0.8,0.3,1.4,0.6,1.8c0.4,0.5,0.9,0.8,1.5,0.9v-4.8c-0.6-0.1-1.2-0.4-1.9-0.7c-0.5-0.3-0.8-0.6-1.1-1.1s-0.4-1-0.4-1.6   c0-1.1,0.4-1.9,1.1-2.6c0.5-0.4,1.3-0.7,2.3-0.8v-0.7h0.9v0.7c0.9,0.1,1.6,0.3,2.1,0.8c0.7,0.5,1.1,1.3,1.2,2.2l-1.6,0.2   c-0.1-0.6-0.3-1-0.6-1.4c-0.3-0.3-0.7-0.5-1.2-0.6V59c0.8,0.2,1.3,0.3,1.5,0.4c0.5,0.2,0.8,0.5,1.1,0.8c0.3,0.3,0.5,0.6,0.7,1.1   s0.2,0.8,0.2,1.3c0,1-0.3,1.9-1,2.6s-1.5,1.1-2.6,1.1v1.5H39.7z M39.7,54.6c-0.6,0.1-1,0.3-1.4,0.7c-0.3,0.4-0.5,0.8-0.5,1.3   c0,0.5,0.1,0.9,0.4,1.3c0.3,0.3,0.8,0.6,1.5,0.8V54.6z M40.5,65c0.6-0.1,1.1-0.3,1.4-0.8c0.4-0.4,0.6-1,0.6-1.6   c0-0.5-0.1-1-0.4-1.3c-0.3-0.3-0.8-0.6-1.6-0.9V65z M69,53.1v-1.5c-0.8-0.1-1.4-0.3-1.8-0.5c-0.5-0.2-0.9-0.6-1.2-1.2   c-0.3-0.5-0.5-1.2-0.6-2l1.5-0.3c0.1,0.8,0.3,1.4,0.6,1.8c0.4,0.5,0.9,0.8,1.5,0.9v-4.8c-0.6-0.1-1.2-0.4-1.9-0.7   c-0.5-0.3-0.8-0.6-1.1-1.1c-0.3-0.5-0.4-1-0.4-1.6c0-1.1,0.4-1.9,1.1-2.6c0.5-0.4,1.3-0.7,2.3-0.8V38h0.9v0.7   c0.9,0.1,1.6,0.3,2.1,0.8c0.7,0.5,1.1,1.3,1.2,2.2L71.6,42c-0.1-0.6-0.3-1-0.6-1.4c-0.3-0.3-0.7-0.5-1.2-0.6v4.3   c0.8,0.2,1.3,0.3,1.5,0.4c0.5,0.2,0.8,0.5,1.1,0.8s0.5,0.6,0.7,1.1c0.2,0.4,0.2,0.8,0.2,1.3c0,1-0.3,1.9-1,2.6   c-0.7,0.7-1.5,1.1-2.6,1.1v1.5H69z M69,40c-0.6,0.1-1,0.3-1.4,0.7c-0.3,0.4-0.5,0.8-0.5,1.3c0,0.5,0.1,0.9,0.4,1.3s0.8,0.6,1.5,0.8   V40z M69.9,50.3c0.6-0.1,1.1-0.3,1.4-0.8c0.4-0.4,0.6-1,0.6-1.6c0-0.5-0.1-1-0.4-1.3c-0.3-0.3-0.8-0.6-1.6-0.9V50.3z"/>
</g>
</svg>