<?xml version="1.0" encoding="utf-8"?>
<!-- Generator: Adobe Illustrator 22.1.0, SVG Export Plug-In . SVG Version: 6.00 Build 0)  -->
<svg version="1.1" id="Capa_1" xmlns="http://www.w3.org/2000/svg" xmlns:xlink="http://www.w3.org/1999/xlink" x="0px" y="0px"
	 viewBox="0 0 512 512" style="enable-background:new 0 0 512 512;" xml:space="preserve">
<style type="text/css">
	.st0{fill:#FD5969;}
</style>
<g>
	<path class="st0" d="M315.7,219.2c-0.5-0.9-1-1.9-1.7-2.7c-1.5-1.8-3.3-1.9-4.8-0.1c-0.7,0.8-1.2,1.7-1.7,2.7
		c-21.2,37.4-42.4,74.8-63.7,112.2c-3.2,5.6-6.4,11.2-9.5,16.8c-2,3.6-0.7,5.7,3.3,5.9c0.6,0,1.3,0,1.9,0c24,0,48.1,0,72.1,0
		c23.7,0,47.5,0,71.2,0c7.6,0,8.4-1.5,4.8-8C363.6,303.7,339.7,261.5,315.7,219.2z M311.6,345.2c-5,0-9.1-3.9-9.2-8.9
		c0-5,3.9-9,9-9.1c5-0.1,9.1,3.9,9.2,8.9C320.7,341.1,316.6,345.2,311.6,345.2z M321.3,281C321.3,281,321.3,281,321.3,281
		c0,9.5,0.1,19,0,28.5c-0.1,6.9-5.6,11.3-12.1,9.7c-4.3-1-7.3-4.6-7.3-9.1c-0.1-19.4-0.1-38.8,0-58.2c0-5.3,4.3-9.4,9.5-9.4
		c5.4,0,9.6,3.8,9.8,9.4c0.2,5.4,0.1,10.7,0.1,16.1C321.3,272.4,321.3,276.7,321.3,281z"/>
	<path class="st0" d="M477.7,196.6V128h0l-59.4-34.3L384,34.3h-68.6L256,0l-59.4,34.3H128L93.7,93.7L34.3,128v68.6L0,256l34.3,59.4
		V384l59.4,34.3l34.3,59.4h68.6L256,512l59.4-34.3H384l34.3-59.4l59.4-34.3v-68.6L512,256L477.7,196.6z M203.5,341.7
		c-24.9,0.4-47.2-7-66.3-23c-57.1-48-44.4-137.9,23.7-168.3c46.6-20.8,103.2-1.6,127.4,43.3c0.5,1,1,2.6,0.5,3.4
		c-3.4,6.3-7,12.5-10.7,19.1c-14.8-42.7-60.1-65-101.8-51.6c-38.7,12.4-62.3,51.7-55.3,91.2c7.5,43.1,50.5,75.8,97.5,65.6
		c-3.7,6.5-7.2,12.9-11,19C206.8,341.4,204.8,341.7,203.5,341.7z M166.2,279c4.9-5.9,10.2-11.5,15.4-17.2c1.6-1.7,3.1-3.4,4.7-5.1
		c2.5-2.8,5.5-5.1,4.7-9.9c-0.4-2.1,1.7-5.1,3.4-7.1c1.2-1.5,1.9-2.7,1.9-4.6c-0.1-17.4,0-34.8,0-52.2c0-4.1,1.6-6.4,4.6-6.9
		c3.8-0.6,6.6,1.9,6.6,6.1c0,9,0,17.9,0,26.9c0,8.8,0,17.5,0,26.3c0,1.8,0.4,3.1,1.9,4.3c3.7,3.1,4.8,8,3.1,12.3
		c-1.7,4.3-5.8,6.9-10.6,7.2c-1.5,0.1-3.2,0.9-4.2,1.9c-7.6,8.2-15,16.5-22.7,24.7c-1.4,1.4-3.7,2.7-5.6,2.7c-1.5,0-3.9-1.9-4.3-3.3
		C164.4,283.2,165,280.4,166.2,279z M147.1,274.3c-0.3,0.3-0.6,0.5-1.3,1c-11.1-18.5-13.6-37.8-6.2-57.9c7.9-21.6,23.6-35,45.9-41.5
		c0.1,1.4,0.2,2.4,0.2,3.5c0,17.7,0,35.5-0.1,53.2c0,1.4-0.4,3.3-1.4,4.2C171.9,249.4,159.5,261.8,147.1,274.3z M398.2,369.9
		c-9.1,0.2-18.1,0-27.2,0c-19.8,0-39.7,0-59.5,0c0,0,0,0,0,0c-28.3,0-56.5,0-84.8,0c-1.9,0-3.8,0-5.7-0.4c-8-1.9-11.3-10.3-7-18.1
		c5.9-10.7,12.1-21.3,18.1-31.9c22.8-40.1,45.5-80.3,68.3-120.4c3.4-6.1,8.1-8.5,13.7-7.2c4.1,0.9,6.6,3.8,8.6,7.3
		c12.1,21.4,24.2,42.7,36.3,64.1c16.3,28.7,32.6,57.4,48.8,86c0.5,0.8,1,1.6,1.4,2.5C413.8,361.3,408.7,369.7,398.2,369.9z"/>
</g>
</svg>
