<?xml version="1.0" encoding="utf-8"?>
<!-- Generator: Adobe Illustrator 19.2.0, SVG Export Plug-In . SVG Version: 6.00 Build 0)  -->
<svg version="1.1" id="Layer_1" xmlns="http://www.w3.org/2000/svg" xmlns:xlink="http://www.w3.org/1999/xlink" x="0px" y="0px"
	 viewBox="0 0 20 20" style="enable-background:new 0 0 20 20;" xml:space="preserve">
<style type="text/css">
	.st0{fill:#484D55;}
</style>
<g>
	<g>
		<path class="st0" d="M4.8,9.2l3.6-2.1c0.9-0.5,1.2-1.6,0.7-2.5L7.1,0.9C6.5,0.1,5.4-0.2,4.6,0.3L0.9,2.4C0,2.9-0.3,4,0.2,4.9
			l2.1,3.6C2.9,9.4,4,9.7,4.8,9.2z M17.8,1.4h-4.2c-1.2,0-2.2,1-2.2,2.2v4.2c0,1.2,1,2.2,2.2,2.2h4.2C19,10,20,9,20,7.8V3.6
			C20,2.4,19,1.4,17.8,1.4z M19.3,7.8c0,0.8-0.7,1.5-1.5,1.5h-4.2c-0.8,0-1.5-0.7-1.5-1.5V3.6c0-0.8,0.7-1.5,1.5-1.5h4.2
			c0.8,0,1.5,0.7,1.5,1.5V7.8z M7.8,11.4H3.6c-1.2,0-2.2,1-2.2,2.2v4.2c0,1.2,1,2.2,2.2,2.2h4.2c1.2,0,2.2-1,2.2-2.2v-4.2
			C9.9,12.4,9,11.4,7.8,11.4z M9.2,17.8c0,0.8-0.7,1.5-1.5,1.5H3.6c-0.8,0-1.5-0.7-1.5-1.5v-4.2c0-0.8,0.7-1.5,1.5-1.5h4.2
			c0.8,0,1.5,0.7,1.5,1.5V17.8z M17.8,11.4h-4.2c-1.2,0-2.2,1-2.2,2.2v4.2c0,1.2,1,2.2,2.2,2.2h4.2c1.2,0,2.2-1,2.2-2.2v-4.2
			C20,12.4,19,11.4,17.8,11.4z M19.3,17.8c0,0.8-0.7,1.5-1.5,1.5h-4.2c-0.8,0-1.5-0.7-1.5-1.5v-4.2c0-0.8,0.7-1.5,1.5-1.5h4.2
			c0.8,0,1.5,0.7,1.5,1.5V17.8z"/>
	</g>
</g>
</svg>
