<?xml version="1.0" encoding="utf-8"?>
<!-- Generator: Adobe Illustrator 18.0.0, SVG Export Plug-In . SVG Version: 6.00 Build 0)  -->
<!DOCTYPE svg PUBLIC "-//W3C//DTD SVG 1.1//EN" "http://www.w3.org/Graphics/SVG/1.1/DTD/svg11.dtd">
<svg version="1.1" id="Layer_1" xmlns="http://www.w3.org/2000/svg" xmlns:xlink="http://www.w3.org/1999/xlink" x="0px" y="0px"
	fill="#fff" viewBox="0 0 380 380" enable-background="new 0 0 380 380" xml:space="preserve">
<path fill="#fff" d="M275.4,145.9c-58.4,0-105.9,49.3-105.9,109.9S217,365.7,275.4,365.7s105.9-49.3,105.9-109.9
	S333.7,145.9,275.4,145.9z M290,324.8v16.5c0,1.7-1.3,3.1-3,3.1h-22.8c-1.7,0-3-1.4-3-3.1v-17.1c-12.1-3-23.1-9.4-30.8-17.8
	l-4.5-4.8c-0.6-0.6-0.8-1.4-0.8-2.2c0-0.8,0.3-1.6,0.9-2.2l16.6-16.3c1.2-1.2,3.1-1.1,4.2,0.1l4.5,4.8c5.6,6.1,15.7,10.3,24.9,10.3
	c7.3,0,19.7-2,19.7-9.5c0.1-6.5-2.6-9.1-21.8-15.1c-16.4-5.1-43.8-13.8-43.8-45.9c0-17.9,11.8-32.3,30.9-37.8v-17.6
	c0-1.7,1.3-3.1,3-3.1H287c1.7,0,3,1.4,3,3.1v16c9.9,1.5,19.5,5.1,26.7,9.9l5.4,3.6c1.4,0.9,1.8,2.8,0.9,4.3L310.6,224
	c-0.9,1.4-2.7,1.9-4.1,0.9l-5.4-3.6c-5.2-3.4-14.1-5.9-21.4-5.9c-7.7,0-20.6,2.2-20.6,10.3c0,7.7,3.1,10.8,23.4,17.3
	c16.9,5.4,42.5,13.4,42.3,43.8C324.7,306.2,311.5,320.6,290,324.8z"/>
<g>
	<path fill="none" d="M35.1,40.8V306h109.6h19.6c-2.3-5.4-4.2-11.1-5.7-16.9h-27.3v-66.5h27.3c1.5-5.4,3.2-10.8,5.4-15.9h-32.7
		v-66.5h64.1v21.3c5-4.6,10.4-8.8,16-12.4v-9h16.4c14.6-6.5,30.7-10.1,47.6-10.1c5.3,0,10.4,0.4,15.5,1V40.8H35.1z M115.2,289.1
		H51.1v-66.5h64.1V289.1z M115.2,206.6H51.1v-66.5h64.1V206.6z M115.2,123.4H51.1V56.9h64.1V123.4z M195.3,123.4h-64.1V56.9h64.1
		V123.4z M211.3,123.4V56.9h64.1v66.5H211.3z"/>
	<path d="M144.6,305.9H35.1V40.8h255.8V131c11.4,1.5,22.3,4.7,32.5,9.3c0-58,0-109.1,0-115.9C323.4,7.7,306.6,7,306.6,7
		S36.5,7,19.1,7S3,24.4,3,24.4s0.2,281.1,0.2,298.2s16.5,17.1,16.5,17.1s86.9-0.1,165.1-0.2c-8.5-9.9-15.5-21.2-20.7-33.5
		L144.6,305.9L144.6,305.9z"/>
	<rect x="51.1" y="56.9" width="64.1" height="66.5"/>
	<rect x="131.2" y="56.9" width="64.1" height="66.5"/>
	<rect x="211.3" y="56.9" width="64.1" height="66.5"/>
	<rect x="51.1" y="140.1" width="64.1" height="66.5"/>
	<path d="M195.3,161.4v-21.3h-64.1v66.5h32.6C171,189.2,181.8,173.8,195.3,161.4z"/>
	<path d="M211.3,140.1v9c5.2-3.4,10.7-6.4,16.4-9H211.3z"/>
	<rect x="51.1" y="222.5" width="64.1" height="66.5"/>
	<path d="M158.5,222.5h-27.3v66.5h27.3c-2.8-10.6-4.3-21.8-4.3-33.3S155.7,233.1,158.5,222.5z"/>
</g>
</svg>
