<?xml version="1.0" encoding="utf-8"?>
<!-- Generator: Adobe Illustrator 19.2.0, SVG Export Plug-In . SVG Version: 6.00 Build 0)  -->
<svg version="1.1" id="Layer_1" xmlns="http://www.w3.org/2000/svg" xmlns:xlink="http://www.w3.org/1999/xlink" x="0px" y="0px"
	 viewBox="0 0 20 20" style="enable-background:new 0 0 20 20;" xml:space="preserve">
<style type="text/css">
	.st0{fill:#484D55;}
</style>
<g>
	<g>
		<path class="st0" d="M7.6,16.9L7.6,16.9L7.6,16.9l-3.8-5.4c-2-2.6-1.7-6.9,0.6-9.2c1.3-1.3,2.9-1.9,4.6-1.9c1.7,0,3.3,0.6,4.6,1.9
			c2,2,2.5,5.5,1.2,8.1l0.1,0.8c1.7-2.8,1.2-6.9-1-9.2c-2.7-2.7-7.2-2.7-9.9,0c-2.4,2.4-2.7,7-0.7,9.8l5.6,8l0.3-0.4l-0.9-1.3
			L7.6,16.9z M6.7,6.9c0,1.3,1.1,2.4,2.5,2.4c1.4,0,2.5-1.1,2.5-2.4s-1.1-2.4-2.5-2.4C7.8,4.4,6.7,5.5,6.7,6.9z M11.1,6.9
			c0,1.1-0.9,2-2,2c-1.1,0-2-0.9-2-2s0.9-2,2-2C10.2,4.9,11.1,5.8,11.1,6.9z M17.2,14.6c-0.3-0.1-0.5-0.3-0.6-0.5
			c-0.1-0.3-0.1-0.6,0.1-0.8l0.5-0.6l-1-1L15.5,12c-0.2,0.2-0.6,0.2-0.8,0.1c-0.3-0.1-0.5-0.4-0.5-0.7L14,10.7h-1.4l-0.2,0.9
			c-0.1,0.3-0.2,0.5-0.5,0.6c-0.3,0.1-0.6,0.1-0.8-0.1l-0.7-0.5l-1,1l0.5,0.6c0.2,0.2,0.2,0.6,0.1,0.8c-0.1,0.3-0.4,0.5-0.6,0.5
			l-0.7,0.1v1.4l0.8,0.1c0.3,0,0.5,0.2,0.7,0.5c0.1,0.3,0.1,0.6-0.1,0.8l-0.4,0.6l1,1l0.6-0.4c0.2-0.2,0.6-0.2,0.8-0.1
			c0.3,0.1,0.5,0.3,0.5,0.6l0.1,0.7H14l0.1-0.6c0-0.3,0.2-0.6,0.5-0.7c0.3-0.1,0.6-0.1,0.8,0.1l0.5,0.4l1-1l-0.4-0.6
			c-0.2-0.2-0.2-0.6-0.1-0.8c0.1-0.3,0.4-0.5,0.7-0.5l0.8-0.1v-1.4L17.2,14.6z M17.5,15.7l-0.4,0.1c-0.5,0.1-0.8,0.4-1,0.8
			c-0.2,0.4-0.1,0.9,0.1,1.3l0.2,0.3l-0.5,0.4l-0.2-0.1c-0.4-0.3-0.9-0.3-1.3-0.2c-0.4,0.2-0.7,0.6-0.8,1l0,0.2H13l-0.1-0.3
			c-0.1-0.4-0.4-0.8-0.8-1c-0.4-0.2-0.9-0.1-1.3,0.2l-0.3,0.2l-0.5-0.4l0.2-0.3c0.3-0.4,0.3-0.9,0.1-1.3c-0.2-0.4-0.6-0.7-1-0.8
			L9,15.7v-0.6L9.3,15c0.5-0.1,0.8-0.4,1-0.8c0.2-0.4,0.1-0.9-0.2-1.3L10,12.7l0.5-0.4l0.4,0.3c0.4,0.3,0.8,0.3,1.3,0.1
			c0.4-0.2,0.7-0.5,0.8-1l0.1-0.5h0.6l0.1,0.4c0.1,0.5,0.4,0.8,0.8,1c0.4,0.2,0.9,0.1,1.3-0.1l0.3-0.2l0.5,0.4L16.3,13
			c-0.3,0.4-0.3,0.8-0.2,1.3c0.2,0.4,0.5,0.7,1,0.8l0.3,0.1V15.7z M13.2,13.9c-0.8,0-1.5,0.7-1.5,1.5c0,0.8,0.7,1.5,1.5,1.5
			c0.8,0,1.5-0.7,1.5-1.5C14.7,14.5,14,13.9,13.2,13.9z"/>
	</g>
</g>
</svg>
