<?xml version="1.0" encoding="utf-8"?>
<!-- Generator: Adobe Illustrator 19.2.0, SVG Export Plug-In . SVG Version: 6.00 Build 0)  -->
<svg version="1.1" id="Layer_1" xmlns="http://www.w3.org/2000/svg" xmlns:xlink="http://www.w3.org/1999/xlink" x="0px" y="0px"
	 viewBox="0 0 40 40" style="enable-background:new 0 0 40 40;" xml:space="preserve">
<style type="text/css">
	.st0{fill:#626975;}
</style>
<g>
	<g>
		<path class="st0" d="M3.3,7.7C5.2,8.1,7,7,7.7,5.2c0.1-0.2,0.1-0.3,0.2-0.5c2.1,0,4.1,0,6.2,0c0.3,0,0.5,0.1,0.6,0.4
			c0.5,1.6,2,2.7,3.7,2.7c1.7,0,3.2-1.1,3.7-2.7c0.1-0.4,0.3-0.4,0.6-0.4c1.9,0,3.8,0,5.7,0c0.3,0,0.5,0.1,0.6,0.4
			c0.6,1.9,2.6,3.1,4.6,2.6c1.9-0.4,3.1-2.1,3-4C36.4,1.9,35,0.3,33.2,0c-1.9-0.2-3.7,0.9-4.3,2.6c-0.1,0.3-0.2,0.5-0.6,0.4
			c-1.9,0-3.8,0-5.7,0c-0.4,0-0.5-0.1-0.6-0.5C21.5,1,20,0,18.3,0c-1.7,0-3.2,1.1-3.7,2.7c-0.1,0.3-0.3,0.4-0.6,0.4
			c-1.8,0-3.7,0-5.5,0C8,3.1,7.8,3,7.6,2.5C7,0.8,5.1-0.3,3.3,0.1C1.4,0.4,0.1,2,0.1,3.9C0.1,5.8,1.5,7.4,3.3,7.7z M32.7,1.6
			c1.3,0,2.3,1.1,2.3,2.3c0,1.3-1.1,2.3-2.4,2.3c-1.3,0-2.3-1-2.3-2.3C30.3,2.6,31.4,1.5,32.7,1.6z M18.3,1.6c1.3,0,2.3,1.1,2.3,2.4
			c0,1.3-1.1,2.3-2.4,2.3C17,6.2,16,5.2,16,3.9C16,2.6,17.1,1.6,18.3,1.6z M4,1.6c1.3,0,2.3,1.1,2.3,2.4c0,1.3-1.1,2.3-2.3,2.3
			c-1.3,0-2.4-1.1-2.3-2.4C1.7,2.6,2.7,1.6,4,1.6z M18.3,34.9c-1.3,0-2.3-1.1-2.3-2.3c0-1.3,1-2.3,2.3-2.3c0.5,0,0.9,0.1,1.3,0.4
			v-0.8c0-0.3,0-0.6,0.1-0.9c-0.4-0.2-0.9-0.3-1.4-0.3c-1.7,0-3.2,1.1-3.7,2.7c-0.1,0.3-0.2,0.4-0.6,0.4c-1.9,0-3.8,0-5.7,0
			c-0.4,0-0.5-0.1-0.6-0.4c-0.7-2-2.7-3.1-4.6-2.6c-1.9,0.5-3.1,2.1-3,4.1c0.1,1.8,1.6,3.3,3.3,3.6c1.8,0.3,3.6-0.8,4.2-2.6
			c0.1-0.4,0.3-0.5,0.7-0.5c1.9,0,3.8,0,5.6,0c0.3,0,0.5,0.1,0.6,0.4c0.5,1.7,2,2.7,3.7,2.7c1.3,0,2.4-0.6,3.1-1.5
			c0.1-0.2,0.1-0.4,0.3-0.7c-0.5-0.1-0.9-0.4-1.2-0.7C20.1,34.3,19.2,34.9,18.3,34.9z M4,34.9c-1.3,0-2.3-1.1-2.3-2.3
			c0-1.3,1-2.3,2.4-2.3c1.3,0,2.3,1,2.3,2.3C6.3,33.8,5.3,34.9,4,34.9z M7.6,22.6c0,0.4,0.4,0.8,0.8,0.8c0.4,0,0.8-0.3,0.8-0.8
			c0-0.4-0.3-0.8-0.8-0.8C8,21.8,7.6,22.2,7.6,22.6z M18.3,23.4c-0.4,0-0.8,0.4-0.8,0.8c0,0.4,0.3,0.8,0.8,0.8
			c0.4,0,0.8-0.4,0.8-0.8C19.1,23.7,18.7,23.4,18.3,23.4z M9.6,24.5c0,0.4,0.4,0.8,0.8,0.8c0.4,0,0.7-0.4,0.7-0.8
			c0-0.4-0.4-0.8-0.8-0.8C9.9,23.7,9.6,24.1,9.6,24.5z M13.4,28.3c0,0.4,0.3,0.8,0.7,0.8c0.4,0,0.8-0.3,0.8-0.8
			c0-0.4-0.4-0.8-0.8-0.8C13.7,27.5,13.4,27.9,13.4,28.3z M27.7,8.1c0,0.4,0.4,0.8,0.8,0.8c0.4,0,0.8-0.4,0.8-0.8
			c0-0.4-0.3-0.8-0.8-0.8C28.1,7.3,27.7,7.6,27.7,8.1z M11.5,26.4c0,0.4,0.3,0.8,0.7,0.8c0.4,0,0.8-0.3,0.8-0.8
			c0-0.4-0.3-0.8-0.8-0.8C11.8,25.6,11.5,26,11.5,26.4z M18.3,25.9c-0.4,0-0.8,0.3-0.8,0.8c0,0.4,0.4,0.8,0.8,0.8
			c0.4,0,0.8-0.4,0.8-0.8C19.1,26.2,18.7,25.9,18.3,25.9z M25.8,9.9c0,0.4,0.3,0.8,0.8,0.8c0.4,0,0.8-0.4,0.8-0.8
			c0-0.4-0.4-0.8-0.8-0.8C26.2,9.2,25.8,9.5,25.8,9.9z M23.9,11.8c0,0.5,0.3,0.8,0.8,0.8c0.4,0,0.8-0.3,0.8-0.8
			c0-0.4-0.3-0.8-0.7-0.8C24.3,11.1,23.9,11.4,23.9,11.8z M22,13.8c0,0.4,0.3,0.8,0.8,0.8c0.4,0,0.8-0.3,0.8-0.7
			c0-0.4-0.3-0.8-0.7-0.8C22.4,13,22,13.3,22,13.8z M3.3,22.1c1.9,0.3,3.7-0.7,4.4-2.5c0.1-0.2,0.1-0.3,0.2-0.5C7.9,19,8,19,8,19
			c2.1,0,4.1,0,6.2,0c0.3,0,0.3,0.2,0.4,0.4c0.6,1.7,2,2.7,3.7,2.7c1.7,0,3.2-1,3.7-2.7c0.1-0.3,0.3-0.4,0.6-0.4c1.8,0,3.7,0,5.5,0
			c0.4,0,0.6,0.1,0.8,0.5c0.2,0,0.4-0.1,0.6-0.1h1.1c-0.2-0.3-0.3-0.7-0.3-1.1c0-1.3,1-2.4,2.3-2.4c1.3,0,2.3,1,2.3,2.3
			c0,1-0.7,1.9-1.6,2.2c0.3,0.3,0.5,0.7,0.7,1.2c0.3-0.2,0.6-0.3,1-0.3c0.7-0.5,1.2-1.3,1.4-2.2c0.4-1.7-0.4-3.4-1.9-4.3
			c-1.5-0.8-3.4-0.6-4.6,0.7c-0.5,0.5-0.8,1.2-1.2,1.8c0,0.1-0.2,0.1-0.3,0.1c-1.9,0-3.8,0-5.7,0c-0.4,0-0.5-0.1-0.7-0.5
			c-0.6-1.6-2-2.7-3.7-2.6c-1.7,0-3.1,1.1-3.7,2.7c-0.1,0.3-0.2,0.4-0.6,0.4c-1.9,0-3.8,0-5.6,0c-0.4,0-0.6-0.1-0.7-0.5
			C7,15.1,5.2,14,3.3,14.4c-1.8,0.3-3.2,2-3.2,3.8C0.1,20.1,1.5,21.7,3.3,22.1z M18.3,15.9c1.3,0,2.4,1,2.4,2.3
			c0,1.3-1.1,2.3-2.3,2.3c-1.3,0-2.3-1-2.3-2.3C16,17,17,15.9,18.3,15.9z M4,15.9c1.3,0,2.3,1.1,2.3,2.4c0,1.3-1.1,2.3-2.3,2.3
			c-1.3,0-2.4-1.1-2.3-2.4C1.7,16.9,2.7,15.9,4,15.9z M30.4,26.2c-2.4,0-4.3,1.9-4.3,4.3s1.9,4.3,4.3,4.3c2.4,0,4.3-1.9,4.3-4.3
			S32.8,26.2,30.4,26.2z M30.4,33.1c-1.4,0-2.6-1.1-2.6-2.6c0-1.4,1.1-2.6,2.6-2.6s2.6,1.1,2.6,2.6C33,31.9,31.8,33.1,30.4,33.1z
			 M38.7,28.2L37.6,28c-0.1-0.3-0.2-0.6-0.4-0.9l0.6-0.9c0.4-0.6,0.4-1.4-0.2-1.9l-1.1-1.1c-0.3-0.3-0.7-0.4-1.1-0.4
			c-0.3,0-0.6,0.1-0.9,0.3l-0.9,0.6c-0.3-0.2-0.6-0.3-0.9-0.4l-0.2-1.1c-0.1-0.7-0.7-1.2-1.5-1.2h-1.6c-0.7,0-1.3,0.5-1.5,1.2
			l-0.2,1.1c-0.3,0.1-0.6,0.2-0.9,0.4l-0.9-0.6c-0.3-0.2-0.6-0.3-0.9-0.3c-0.4,0-0.8,0.2-1.1,0.4l-1.1,1.1c-0.5,0.5-0.6,1.3-0.2,1.9
			l0.6,0.9c-0.1,0.3-0.3,0.6-0.4,0.9l-1.1,0.2c-0.7,0.1-1.2,0.7-1.2,1.5v1.6c0,0.7,0.5,1.3,1.2,1.5l1.1,0.2c0.1,0.3,0.2,0.6,0.4,0.9
			L23,34.8c-0.4,0.6-0.4,1.4,0.2,1.9l1.1,1.1c0.3,0.3,0.7,0.4,1.1,0.4c0.3,0,0.6-0.1,0.9-0.3l0.9-0.6c0.3,0.1,0.6,0.3,0.9,0.4
			l0.2,1.1c0.1,0.7,0.7,1.2,1.5,1.2h1.6c0.7,0,1.3-0.5,1.5-1.2l0.2-1.1c0.3-0.1,0.6-0.2,0.9-0.4l0.9,0.6c0.3,0.2,0.6,0.3,0.9,0.3
			c0.4,0,0.8-0.2,1.1-0.4l1.1-1.1c0.5-0.5,0.6-1.3,0.2-1.9l-0.6-0.9c0.1-0.3,0.3-0.6,0.4-0.9l1.1-0.2c0.7-0.1,1.2-0.7,1.2-1.5v-1.6
			C39.9,29,39.4,28.3,38.7,28.2z M38.2,31.1l-1.4,0.2c-0.3,0.1-0.6,0.3-0.7,0.6c-0.1,0.5-0.3,1-0.6,1.5c-0.2,0.3-0.2,0.7,0,1
			l0.8,1.2l-0.8,0.8l-1.1-0.8c-0.1-0.1-0.3-0.2-0.5-0.2c-0.2,0-0.3,0-0.4,0.1c-0.5,0.3-1,0.5-1.5,0.6c-0.3,0.1-0.6,0.4-0.6,0.7
			L31,38.3h-1.2l-0.2-1.4c-0.1-0.3-0.3-0.6-0.6-0.7c-0.5-0.1-1-0.3-1.5-0.6c-0.1-0.1-0.3-0.1-0.4-0.1c-0.2,0-0.4,0.1-0.5,0.2
			l-1.2,0.8l-0.8-0.8l0.8-1.1c0.2-0.3,0.2-0.7,0-1c-0.3-0.5-0.5-1-0.6-1.5c-0.1-0.3-0.4-0.6-0.7-0.6l-1.4-0.2v-1.2l1.4-0.2
			c0.3-0.1,0.6-0.3,0.7-0.6c0.1-0.5,0.3-1,0.6-1.5c0.2-0.3,0.2-0.7,0-0.9l-0.8-1.2l0.8-0.8l1.1,0.8c0.1,0.1,0.3,0.2,0.5,0.2
			c0.2,0,0.3,0,0.4-0.1c0.5-0.3,1-0.5,1.5-0.6c0.3-0.1,0.6-0.4,0.6-0.7l0.2-1.4H31l0.2,1.4c0.1,0.3,0.3,0.6,0.6,0.7
			c0.5,0.1,1.1,0.4,1.5,0.6c0.1,0.1,0.3,0.1,0.4,0.1c0.2,0,0.4-0.1,0.5-0.2l1.1-0.8l0.8,0.8l-0.8,1.1c-0.2,0.3-0.2,0.7,0,1
			c0.3,0.5,0.5,1,0.6,1.5c0.1,0.3,0.4,0.6,0.7,0.6l1.4,0.2V31.1z"/>
	</g>
</g>
</svg>
