<?xml version="1.0" encoding="iso-8859-1"?>
<!-- Generator: Adobe Illustrator 19.2.0, SVG Export Plug-In . SVG Version: 6.00 Build 0)  -->
<svg version="1.1" id="Layer_1" xmlns="http://www.w3.org/2000/svg" xmlns:xlink="http://www.w3.org/1999/xlink" x="0px" y="0px"
	 viewBox="0 0 40 40" style="enable-background:new 0 0 40 40;" xml:space="preserve">
<g>
	<g>
		<path style="fill:#FFFFFF;" d="M20.563,37.748h-3.346l1.718-5.185c0-0.1,0-0.199,0-0.299l-1.086-3.191l0.18-0.1
			c0.362-0.199,0.724-0.499,0.995-0.798l0.18-0.1l0.18,0.1c0.271,0.299,0.724,0.499,1.086,0.798v-1.296
			c-0.271-0.199-0.453-0.399-0.633-0.598l0,0v-1.994l0.092-0.1c2.261-1.396,3.799-3.689,4.341-6.581v-0.199h0.091
			c1.447-0.299,2.351-1.695,2.351-2.891c0-1.097-0.904-1.894-2.261-2.094H24.09v-1.496c0-0.199,0.271-4.985-2.533-7.976
			c-1.537-1.695-3.617-2.493-6.241-2.493s-4.794,0.897-6.331,2.493c-2.804,2.991-2.623,7.478-2.623,7.976v1.496H6.093
			c-1.357,0.199-2.171,0.997-2.171,2.094c0,1.196,0.904,2.592,2.351,2.891h0.18l0.091,0.199c0.542,2.891,2.261,5.284,4.522,6.581
			l0.271,0.1v1.994l-0.271,0.1c-0.904,0.798-3.075,1.994-3.166,1.994h-0.09H7.72c-7.507,2.493-7.778,7.079-7.778,7.279v2.293h20.892
			C20.745,38.745,20.654,38.545,20.563,37.748z M24.362,16.71c0-0.1,0-1.496,0-2.094v-0.299l0.271,0.1
			c0.814,0.199,0.995,0.598,0.995,0.997c0,0.598-0.362,1.196-0.904,1.496l-0.362,0.199C24.362,17.109,24.362,16.71,24.362,16.71z
			 M5.911,16.909c-0.542-0.399-0.904-0.997-0.904-1.496c0-0.299,0.18-0.798,0.995-0.997l0.271-0.1v0.299c0,0.499,0,1.894,0,2.094
			v0.499L5.911,16.909z M19.116,27.079l-0.271,0.1c-0.271,0.299-0.995,0.798-1.718,1.196c-0.542,0.299-1.176,0.399-1.718,0.399
			s-1.176-0.1-1.718-0.399c-0.724-0.399-1.266-0.897-1.537-1.196l-0.091-0.1v-1.496l0.362,0.1c0.904,0.299,2.08,0.499,3.075,0.499
			c1.086,0,2.261-0.199,3.166-0.499l0.453-0.1C19.116,25.584,19.116,27.079,19.116,27.079z M7.359,10.927
			C7.449,9.431,7.902,6.54,9.71,4.546c1.357-1.496,3.256-2.194,5.607-2.194s4.161,0.698,5.517,2.194
			c1.899,1.994,2.351,4.886,2.442,6.381v0.299h-0.271c-4.432-0.299-7.778-2.592-7.778-2.692c-0.091-0.1-0.18-0.1-0.362-0.1
			c-0.091,0-0.18,0-0.271,0.1c-0.091,0-0.18,0.199-0.18,0.399c0,0.299-0.362,0.598-0.995,0.897
			c-0.633,0.299-1.537,0.598-2.623,0.798c-1.176,0.199-2.351,0.399-3.165,0.399H7.359V10.927z M7.268,17.607
			c-0.091-0.499-0.18-1.097-0.18-1.496v-3.889h0.271c0.814-0.1,2.261-0.199,3.617-0.499c2.171-0.399,3.617-0.997,4.161-1.795
			l0.18-0.199l0.18,0.1c1.357,0.798,4.161,2.194,7.598,2.393h0.271v3.889c0,0.499-0.091,0.997-0.091,1.496
			c-0.362,2.991-2.08,5.484-4.432,6.68c-1.086,0.598-2.261,0.798-3.528,0.798s-2.533-0.299-3.617-0.798
			C9.258,23.091,7.63,20.698,7.268,17.607z M0.937,37.748v-1.296c0-0.1,0.271-1.097,1.086-2.293c1.447-2.094,4.161-3.29,6.06-3.988
			c0.18-0.1,2.171-1.196,3.166-1.994l0.18-0.1l0.18,0.1c0.271,0.299,0.633,0.598,0.995,0.798l0.18,0.1l-1.086,3.29
			c0,0.1,0,0.199,0,0.299l1.718,5.185H0.937V37.748z M14.594,37.748l-1.718-5.384l0.904-2.891l0.18,0.1
			c0.453,0.1,0.904,0.199,1.357,0.199s0.904-0.1,1.357-0.199l0.18-0.1l0.904,2.891l-1.718,5.384H14.594z"/>
	</g>
	<g>
		<path style="fill:#FFFFFF;" d="M35.99,29.119c-0.341,0-0.705-0.383-0.795-0.835c0.004-0.399,0.352-0.745,0.795-0.745
			c0.443,0,0.79,0.346,0.79,0.79C36.779,28.772,36.433,29.119,35.99,29.119z"/>
		<path style="fill:#FFFFFF;" d="M31.362,34.199c-0.443,0-0.791-0.347-0.791-0.791c0-0.444,0.347-0.79,0.791-0.79
			c0.302,0,0.691,0.216,0.793,0.827C32.151,33.852,31.805,34.199,31.362,34.199z"/>
		<path style="fill:#FFFFFF;" d="M26.78,29.119c-0.468,0-0.677-0.397-0.677-0.791c0-0.323,0.241-0.79,0.677-0.79
			c0.443,0,0.791,0.346,0.791,0.79C27.57,28.772,27.223,29.119,26.78,29.119z"/>
		<path style="fill:#FFFFFF;" d="M31.362,29.232c-0.443,0-0.791-0.346-0.791-0.79c0-0.443,0.347-0.791,0.791-0.791
			c0.341,0,0.703,0.383,0.794,0.835C32.151,28.886,31.805,29.232,31.362,29.232z"/>
		<path style="fill:#FFFFFF;" d="M35.99,34.085c-0.341,0-0.705-0.382-0.795-0.834c0.004-0.399,0.352-0.747,0.795-0.747
			c0.443,0,0.79,0.347,0.79,0.791S36.433,34.085,35.99,34.085z"/>
		<path style="fill:#FFFFFF;" d="M26.78,34.452c-0.648,0-1.157-0.508-1.157-1.157c0-0.649,0.508-1.158,1.157-1.158
			c0.649,0,1.158,0.508,1.158,1.158C27.937,33.945,27.429,34.452,26.78,34.452z"/>
		<path style="fill:#FFFFFF;" d="M35.313,24.548c0.564,0,1.016-0.452,1.016-1.016v-1.919c0-0.564-0.452-1.016-1.016-1.016
			c-0.564,0-1.016,0.452-1.016,1.016v1.919C34.409,24.096,34.861,24.548,35.313,24.548z"/>
		<polygon style="fill:#FFFFFF;" points="33.393,22.628 28.652,22.628 28.652,24.548 33.506,24.548 33.506,22.628 		"/>
		<path style="fill:#FFFFFF;" d="M27.636,21.725c0-0.564-0.452-1.016-1.016-1.016s-1.016,0.452-1.016,1.016v1.919
			c0,0.564,0.452,1.016,1.016,1.016s1.016-0.452,1.016-1.016V21.725z"/>
		<path style="fill:#FFFFFF;" d="M24.022,38.545c-0.782,0-1.468-0.686-1.468-1.468v-12.53c0-0.782,0.686-1.468,1.468-1.468h0.564
			v1.015H23.57v11.968c0,0.795,0.672,1.468,1.469,1.468h12.417c0.795,0,1.468-0.672,1.468-1.468V24.095h-1.015V23.08h0.451
			c0.756,0,1.481,0.685,1.582,1.495L39.94,37.078c0,0.782-0.686,1.468-1.468,1.468C38.472,38.545,24.022,38.545,24.022,38.545z"/>
	</g>
</g>
</svg>
