<?xml version="1.0" encoding="utf-8"?>
<!-- Generator: Adobe Illustrator 19.2.0, SVG Export Plug-In . SVG Version: 6.00 Build 0)  -->
<svg version="1.1" id="Layer_1" xmlns="http://www.w3.org/2000/svg" xmlns:xlink="http://www.w3.org/1999/xlink" x="0px" y="0px"
	 viewBox="0 0 20 20" style="enable-background:new 0 0 20 20;" xml:space="preserve">
<style type="text/css">
	.st0{fill:#484D55;}
</style>
<g>
	<g>
		<path class="st0" d="M14.5,9.5h-9C5.2,9.5,5,9.7,5,10s0.2,0.5,0.5,0.5h9c0.3,0,0.5-0.2,0.5-0.5S14.8,9.5,14.5,9.5z M10,11.3
			c-0.8,0-1.4,0.6-1.4,1.4S9.3,14,10,14c0.7,0,1.3-0.6,1.3-1.4S10.8,11.3,10,11.3z M10,13c-0.2,0-0.3-0.2-0.3-0.3
			c0-0.2,0.2-0.3,0.3-0.3c0.2,0,0.3,0.2,0.3,0.3C10.3,12.9,10.2,13,10,13z M10,8.7c0.4,0,0.7-0.1,0.9-0.4c0,0,0,0,0,0
			c0.5-0.6,0.5-1.4-0.1-1.9C10.7,6.1,10.4,6,10,6C9.6,6,9.3,6.1,9,6.3c0,0,0,0,0,0C8.5,6.9,8.5,7.8,9,8.3C9.3,8.6,9.7,8.7,10,8.7z
			 M9.7,7.1C9.8,7,9.9,7,10,7c0.1,0,0.2,0,0.2,0.1c0,0,0,0,0,0l0,0c0,0,0,0,0,0c0.1,0.1,0.1,0.3,0,0.5c-0.1,0.1-0.1,0.1-0.2,0.1
			c-0.1,0-0.2,0-0.3-0.1C9.7,7.5,9.7,7.4,9.7,7.3C9.7,7.2,9.7,7.1,9.7,7.1z M19.9,5.6c0.2-0.2,0.2-0.5,0-0.7l-4.7-4.7
			C15,0.1,14.9,0,14.8,0c-0.1,0-0.3,0.1-0.4,0.1c-0.2,0.2-0.5,0.3-0.8,0.3c-0.3,0-0.6-0.1-0.8-0.3C12.7,0.1,12.5,0,12.4,0
			c-0.1,0-0.3,0.1-0.4,0.2L0.2,12c-0.2,0.2-0.2,0.5,0,0.7c0.4,0.4,0.4,1.2,0,1.6c-0.2,0.2-0.2,0.5,0,0.7l4.7,4.7
			C5,19.9,5.1,20,5.2,20c0.1,0,0.3-0.1,0.4-0.1c0.2-0.2,0.5-0.3,0.8-0.3c0.3,0,0.6,0.1,0.8,0.3C7.3,19.9,7.5,20,7.6,20
			c0.1,0,0.3-0.1,0.4-0.2L19.8,8c0.2-0.2,0.2-0.5,0-0.7C19.4,6.8,19.4,6.1,19.9,5.6z M18.8,7.6L7.6,18.8c-0.3-0.2-0.7-0.3-1.1-0.3
			c-0.4,0-0.8,0.1-1.1,0.3l-4.1-4.1c0.4-0.7,0.4-1.6,0-2.3L12.4,1.2c0.3,0.2,0.7,0.3,1.1,0.3c0.4,0,0.8-0.1,1.1-0.3l4.1,4.1
			C18.4,6,18.4,6.9,18.8,7.6z M15.9,3.6c-0.1,0-0.3,0.1-0.4,0.2l-2.3,2.4C13.1,6.2,13,6.4,13,6.5c0,0.1,0.1,0.3,0.2,0.4
			C13.3,7,13.4,7,13.5,7c0.1,0,0.3-0.1,0.4-0.2l2.3-2.4c0.1-0.1,0.1-0.2,0.1-0.4c0-0.1-0.1-0.3-0.2-0.4C16.1,3.7,16,3.6,15.9,3.6z
			 M6.5,13c-0.1,0-0.3,0.1-0.4,0.1l-2.4,2.3c-0.1,0.1-0.2,0.2-0.2,0.4c0,0.1,0.1,0.3,0.1,0.4c0.1,0.1,0.2,0.2,0.4,0.2
			c0.1,0,0.3-0.1,0.4-0.1c0,0,2.4-2.3,2.4-2.3C7,13.8,7,13.7,7,13.5c0-0.1-0.1-0.3-0.1-0.4C6.8,13.1,6.6,13,6.5,13z"/>
	</g>
</g>
</svg>
