<?xml version="1.0" encoding="iso-8859-1"?>
<!-- Generator: Adobe Illustrator 19.2.0, SVG Export Plug-In . SVG Version: 6.00 Build 0)  -->
<svg version="1.1" id="Layer_1" xmlns="http://www.w3.org/2000/svg" xmlns:xlink="http://www.w3.org/1999/xlink" x="0px" y="0px"
	 viewBox="187 377 40 40" style="enable-background:new 187 377 40 40;" xml:space="preserve">
<g>
	<g>
		<g>
			<path style="fill:#FFFFFF;" d="M198.356,411.174c-6.998-2.664-11.568-9.487-11.348-17.015
				c0.284-9.753,8.428-17.436,18.181-17.152c5.222,0.152,9.999,2.599,13.259,6.618l-1.178,0.963
				c-2.972-3.697-7.362-5.907-12.126-6.046c-8.91-0.26-16.342,6.753-16.602,15.662c-0.199,6.837,4,13.11,10.387,15.524
				L198.356,411.174z"/>
			
				<rect x="190.084" y="393.508" transform="matrix(0.0291 -0.9996 0.9996 0.0291 -208.8137 573.5661)" style="fill:#FFFFFF;" width="1.535" height="1.535"/>
			
				<rect x="196.634" y="405.691" transform="matrix(0.5249 -0.8512 0.8512 0.5249 -252.1776 361.1305)" style="fill:#FFFFFF;" width="1.535" height="1.535"/>
			
				<rect x="211.179" y="382.132" transform="matrix(0.5249 -0.8512 0.8512 0.5249 -225.2144 362.3179)" style="fill:#FFFFFF;" width="1.535" height="1.535"/>
			
				<rect x="197.351" y="381.73" transform="matrix(0.8802 -0.4746 0.4746 0.8802 -157.7943 139.8429)" style="fill:#FFFFFF;" width="1.535" height="1.535"/>
			
				<rect x="191.722" y="400.462" transform="matrix(0.8802 -0.4746 0.4746 0.8802 -167.3585 139.4155)" style="fill:#FFFFFF;" width="1.535" height="1.535"/>
			
				<rect x="204.313" y="380.084" transform="matrix(0.0291 -0.9996 0.9996 0.0291 -181.5811 574.7565)" style="fill:#FFFFFF;" width="1.535" height="1.535"/>
			
				<rect x="192.129" y="386.641" transform="matrix(0.525 -0.8511 0.8511 0.525 -238.0973 348.1861)" style="fill:#FFFFFF;" width="1.535" height="1.535"/>
		</g>
		<path style="fill:#FFFFFF;" d="M205.521,392.086l0.217-7.455l-1.534-0.045l-0.217,7.455c-1.158,0.272-1.96,1.326-1.996,2.555
			c-0.007,0.233-0.013,0.458,0.063,0.613l-8.987,4.892l0.733,1.332l8.987-4.892c0.445,0.471,1.126,0.805,1.817,0.825
			c1.462,0.043,2.727-1.151,2.77-2.613C207.401,393.523,206.659,392.505,205.521,392.086z M204.64,395.831
			c-0.611-0.018-1.133-0.572-1.115-1.182c0.018-0.611,0.572-1.133,1.182-1.115s1.133,0.572,1.115,1.182
			C205.805,395.326,205.259,395.849,204.64,395.831z"/>
	</g>
	<g>
		<g>
			<path style="fill:#FFFFFF;" d="M214.851,403.937h0.188c1.719-0.029,3.109-0.634,4.135-1.789c2.258-2.546,1.883-6.91,1.842-7.326
				c-0.147-3.126-1.625-4.622-2.845-5.32c-0.909-0.522-1.971-0.804-3.156-0.827h-0.1c-0.651,0-1.93,0.106-3.156,0.804
				c-1.232,0.698-2.733,2.194-2.88,5.344c-0.041,0.416-0.416,4.78,1.842,7.326C211.742,403.304,213.132,403.908,214.851,403.937
				L214.851,403.937z M210.445,394.969c0-0.017,0.006-0.035,0.006-0.047c0.194-4.206,3.179-4.657,4.458-4.657h0.07
				c1.584,0.035,4.276,0.68,4.458,4.657c0,0.018,0,0.035,0.006,0.047c0.006,0.041,0.416,4.03-1.449,6.13
				c-0.739,0.833-1.724,1.243-3.021,1.255h-0.059c-1.29-0.012-2.282-0.422-3.015-1.255
				C210.041,399.01,210.44,395.004,210.445,394.969L210.445,394.969z M210.445,394.969"/>
			<path style="fill:#FFFFFF;" d="M226.998,411.175v-0.017c0-0.047-0.006-0.094-0.006-0.147c-0.035-1.161-0.111-3.877-2.657-4.745
				c-0.018-0.006-0.041-0.012-0.059-0.018c-2.645-0.675-4.845-2.2-4.868-2.217c-0.358-0.252-0.851-0.164-1.103,0.193
				c-0.252,0.358-0.164,0.851,0.193,1.103c0.1,0.07,2.434,1.695,5.356,2.446c1.366,0.487,1.519,1.947,1.56,3.285
				c0,0.053,0,0.1,0.006,0.147c0.006,0.528-0.029,1.343-0.123,1.812c-0.95,0.54-4.675,2.405-10.341,2.405
				c-5.643,0-9.391-1.871-10.347-2.411c-0.094-0.469-0.135-1.285-0.123-1.813c0-0.047,0.006-0.094,0.006-0.147
				c0.041-1.337,0.194-2.798,1.56-3.285c2.921-0.751,5.256-2.381,5.355-2.446c0.358-0.252,0.446-0.745,0.194-1.103
				c-0.252-0.358-0.745-0.446-1.103-0.194c-0.023,0.018-2.211,1.543-4.869,2.217c-0.024,0.006-0.041,0.012-0.059,0.017
				c-2.546,0.874-2.622,3.59-2.657,4.745c0,0.053,0,0.1-0.006,0.147v0.018c-0.006,0.305-0.012,1.871,0.299,2.657
				c0.059,0.153,0.164,0.282,0.305,0.369c0.176,0.117,4.394,2.804,11.45,2.804c7.056,0,11.274-2.692,11.45-2.804
				c0.135-0.088,0.246-0.217,0.305-0.369C227.01,413.046,227.004,411.48,226.998,411.175L226.998,411.175z M226.998,411.175"/>
		</g>
	</g>
</g>
</svg>
