<svg xmlns="http://www.w3.org/2000/svg" viewBox="1380.999 1246.814 66.297 66.701">
  <defs>
    <style>
      .cls-1 {
        fill: #737680;
      }
    </style>
  </defs>
  <path id="Union_40" data-name="Union 40" class="cls-1" d="M-5834.8-2656.3q-19.128-.073-38.273,0a5.739,5.739,0,0,1-5.932-5.882c.051-18.4.027-36.795.027-55.2a5.5,5.5,0,0,1,5.623-5.623h27.963a5.622,5.622,0,0,1,4.336,1.9c3.539,3.839,7.055,7.71,10.564,11.554a5.406,5.406,0,0,1,1.506,3.84c0,1.264.326,2.653-.117,3.753-.426,1.076-1.641,1.852-2.512,2.764-.3.33-.58.66-.887.984a.608.608,0,0,0-.187-.116v-6.89c0-.984,0-.96-.984-.96h-9.281a2.2,2.2,0,0,1-2.5-2.514v-9.561c0-.3.039-.629.066-1.008-.258-.018-.5-.043-.729-.043h-27c-1.527,0-2.207.68-2.207,2.151v54.891c0,1.6.656,2.231,2.275,2.231h38.135c1.59,0,2.225-.66,2.225-2.274v-11.511a1.5,1.5,0,0,1,.512-1.217,43.166,43.166,0,0,1,3.191-2.929v2.036c0,4.6-.07,9.189.02,13.8a5.65,5.65,0,0,1-5.785,5.813Zm-17.273-10.687a.951.951,0,0,1-.043-.794c.936-2.513,1.895-5.02,2.855-7.551.24-.611.426-1.216.707-1.779.258-.537.605-1.032.914-1.547,2.486,2.483,4.854,4.849,7.285,7.287a11.212,11.212,0,0,1-1.379.869c-3.047,1.192-6.123,2.341-9.189,3.515a.977.977,0,0,1-.35.116l-.232,0A.908.908,0,0,1-5852.07-2666.985Zm6.639-13.383c7.334-7.335,14.691-14.7,22.006-22.007,2.25,2.25,4.594,4.592,6.91,6.915-7.311,7.262-14.674,14.622-22.049,22.007C-5840.84-2675.751-5843.186-2678.094-5845.432-2680.368Zm23.951-24.213a5.1,5.1,0,0,1,7.213-.324,5.032,5.032,0,0,1-.182,7.453C-5816.8-2699.82-5819.115-2702.167-5821.48-2704.581Z" transform="translate(7260.001 3969.814)"/>
</svg>
