<svg id="Layer_1" data-name="Layer 1" xmlns="http://www.w3.org/2000/svg" viewBox="0 0 40 35.82"><defs><style>.cls-1{fill:#484D55;}</style></defs><title>organization setting_White-40</title><path class="cls-1" d="M23.58,31.93H9.72a0.57,0.57,0,1,0,0,1.14H24.18L24.09,33A1.71,1.71,0,0,1,23.58,31.93Zm0.64,1.19v0.52a0.57,0.57,0,0,0,1,.42h0ZM18.29,14.26a0.57,0.57,0,0,0,.57.57h2.29a0.57,0.57,0,0,0,.57-0.57V10.84a0.57,0.57,0,0,0-.57-0.57H18.86a0.57,0.57,0,0,0-.57.57v3.42Zm1.14-2.85h1.14v2.28H19.43V11.41ZM26.86,8h6.29v8.5a0.57,0.57,0,0,0,1.14,0V7.42a0.57,0.57,0,0,0-.57-0.57H26.86A0.57,0.57,0,0,0,26.86,8ZM6.29,23.93H4a0.57,0.57,0,0,0-.57.57v3.43A0.57,0.57,0,0,0,4,28.5H6.29a0.57,0.57,0,0,0,.57-0.57v-3.4a0.57,0.57,0,0,0-.54-0.6h0ZM5.71,27.38H4.57V25.1H5.71v2.28ZM6.86,10.84a0.57,0.57,0,0,0-.57-0.57H4a0.57,0.57,0,0,0-.57.57v3.42a0.57,0.57,0,0,0,.57.57H6.29a0.57,0.57,0,0,0,.57-0.57V10.84ZM5.71,13.69H4.57V11.41H5.71v2.28Zm25.14-2.85a0.57,0.57,0,0,0-.57-0.57H28a0.57,0.57,0,0,0-.57.57v3.42a0.57,0.57,0,0,0,.57.57h2.29a0.57,0.57,0,0,0,.57-0.57V10.84h0Zm-1.14,2.85H28.57V11.41h1.14v2.28Zm-17.14.57a0.57,0.57,0,0,0,.57.57h2.29A0.57,0.57,0,0,0,16,14.26h0V10.84a0.57,0.57,0,0,0-.57-0.57H13.14a0.57,0.57,0,0,0-.57.57v3.42Zm1.14-2.85h1.14v2.28H13.72V11.41h0ZM8,7.42a0.57,0.57,0,0,0-.57-0.57H0.57A0.57,0.57,0,0,0,0,7.42v25.1a1.72,1.72,0,0,0,1.71,1.71H6.29a1.71,1.71,0,1,0,0-3.42h0L6,30.83a2.28,2.28,0,0,0-4,0H1.71a1.7,1.7,0,0,0-.57.1V8H7.43A0.57,0.57,0,0,0,8,7.42H8ZM2,32a0.57,0.57,0,0,0,.87-0.35,1.14,1.14,0,0,1,2.22,0A0.57,0.57,0,0,0,6,32a0.57,0.57,0,1,1,.33,1H1.71a0.57,0.57,0,0,1-.57-0.57A0.58,0.58,0,0,1,2,32ZM13.14,8h2.29A0.57,0.57,0,0,0,16,7.42h0V4a0.57,0.57,0,0,0-.57-0.57H13.14a0.57,0.57,0,0,0-.57.57V7.42a0.57,0.57,0,0,0,.57.57h0Zm0.57-3.42h1.14V6.84H13.72V4.56h0ZM12.57,21.11a0.57,0.57,0,0,0,.57.57h2.29A0.57,0.57,0,0,0,16,21.11h0V17.68a0.57,0.57,0,0,0-.57-0.57H13.14a0.57,0.57,0,0,0-.57.57V21.1h0Zm1.14-2.85h1.14v2.28H13.72V18.25h0ZM18.85,8h2.29a0.57,0.57,0,0,0,.57-0.57V4a0.57,0.57,0,0,0-.57-0.57H18.86a0.57,0.57,0,0,0-.57.57V7.42a0.57,0.57,0,0,0,.57.57h0Zm0.57-3.42h1.14V6.84H19.43V4.56h0Zm-2.69,23a0.57,0.57,0,1,0,.81,0,0.6,0.6,0,0,0-.8,0v0Zm1.55-6.44a0.57,0.57,0,0,0,.57.57h2.29a0.57,0.57,0,0,0,.57-0.57V17.68a0.57,0.57,0,0,0-.57-0.57H18.86a0.57,0.57,0,0,0-.57.57v3.45Zm1.14-2.85h1.14v2.28H19.43V18.28ZM20,30.8a0.57,0.57,0,0,0,.57-0.57V25.1h1.71a0.57,0.57,0,0,0,0-1.14H12a0.57,0.57,0,1,0,0,1.14h1.71v5.13a0.57,0.57,0,0,0,1.14,0V25.1h4.57v5.13a0.57,0.57,0,0,0,.57.57h0ZM6.86,17.68a0.57,0.57,0,0,0-.57-0.57H4a0.57,0.57,0,0,0-.57.57V21.1a0.57,0.57,0,0,0,.57.57H6.29a0.57,0.57,0,0,0,.57-0.57V17.68ZM5.71,20.54H4.57V18.25H5.71v2.28h0Zm4,10.27a0.57,0.57,0,0,0,.57-0.57V1.14H24V21.06h0l1.1-1.13h0V0.57A0.57,0.57,0,0,0,24.53,0H9.72a0.57,0.57,0,0,0-.57.57V30.23a0.57,0.57,0,0,0,.57.57h0Zm20.61-13h0.53v-1a0.57,0.57,0,0,0-.57-0.57H28a0.57,0.57,0,0,0-.57.57V18.6a0.57,0.57,0,0,0,1.14,0V17.42h1.14v0.51a1.74,1.74,0,0,1,.62-0.15v0Zm0.79,5.12a4,4,0,1,0,4,4A4,4,0,0,0,31.11,22.93Zm0,6.41a2.39,2.39,0,1,1,2.39-2.39h0a2.39,2.39,0,0,1-2.36,2.42h0v0Zm7.73-4.51-1-.17a7.12,7.12,0,0,0-.35-0.84L38.08,23a1.38,1.38,0,0,0-.15-1.79l-1.06-1.06A1.39,1.39,0,0,0,35.08,20l-0.83.59a7.12,7.12,0,0,0-.88-0.36l-0.17-1a1.39,1.39,0,0,0-1.37-1.16h-1.5A1.39,1.39,0,0,0,29,19.28l-0.17,1a7,7,0,0,0-.84.35L27.17,20a1.39,1.39,0,0,0-1.79.15l-1.07,1.06A1.38,1.38,0,0,0,24.16,23l0.55,0.89a7,7,0,0,0-.34.84l-1,.17a1.39,1.39,0,0,0-1.16,1.37v1.5a1.39,1.39,0,0,0,1.16,1.37l1,0.17a7,7,0,0,0,.35.84l-0.55.74a1.38,1.38,0,0,0,.15,1.79l1.06,1.06a1.39,1.39,0,0,0,1.79.15l0.84-.6a7.16,7.16,0,0,0,.8.33l0.17,1a1.39,1.39,0,0,0,1.37,1.16h1.51a1.39,1.39,0,0,0,1.37-1.16l0.17-1a7.13,7.13,0,0,0,.84-0.35l0.83,0.62a1.39,1.39,0,0,0,1.79-.15l1.06-1.06a1.38,1.38,0,0,0,.16-1.79l-0.59-.83a7.11,7.11,0,0,0,.35-0.84l1-.17A1.39,1.39,0,0,0,40,27.74v-1.5a1.37,1.37,0,0,0-1.15-1.37v0ZM38.37,27.5l-1.3.22a0.81,0.81,0,0,0-.65.6,5.38,5.38,0,0,1-.59,1.41,0.82,0.82,0,0,0,0,.89l0.76,1.08-0.78.78-1.07-.76a0.81,0.81,0,0,0-.47-0.15,0.83,0.83,0,0,0-.42.11,5.39,5.39,0,0,1-1.41.58,0.8,0.8,0,0,0-.6.65l-0.22,1.3h-1.1l-0.17-1.28a0.81,0.81,0,0,0-.6-0.65,5.6,5.6,0,0,1-1.38-.57,0.83,0.83,0,0,0-.37-0.1,0.8,0.8,0,0,0-.47.15l-1.08.77-0.78-.78,0.76-1.07a0.82,0.82,0,0,0,0-.89,5.31,5.31,0,0,1-.59-1.41,0.83,0.83,0,0,0-.65-0.59l-1.31-.22v-1.1l1.29-.22a0.82,0.82,0,0,0,.66-0.6,5.35,5.35,0,0,1,.58-1.41,0.81,0.81,0,0,0,0-.88l-0.77-1.08,0.78-.78,1.07,0.76a0.82,0.82,0,0,0,.47.15,0.83,0.83,0,0,0,.42-0.12,5.33,5.33,0,0,1,1.41-.59,0.83,0.83,0,0,0,.6-0.65l0.22-1.31h1.1L31.93,21a0.82,0.82,0,0,0,.61.66,5.47,5.47,0,0,1,1.45.59,0.82,0.82,0,0,0,.89,0L36,21.51l0.78,0.78-0.86,1a0.81,0.81,0,0,0,0,.89,5.37,5.37,0,0,1,.58,1.4,0.8,0.8,0,0,0,.65.6l1.3,0.22v1.09Z" transform="translate(0 0)"/></svg>