<?xml version="1.0" encoding="utf-8"?>
<!-- Generator: Adobe Illustrator 19.2.0, SVG Export Plug-In . SVG Version: 6.00 Build 0)  -->
<svg version="1.1" id="Layer_1" xmlns="http://www.w3.org/2000/svg" xmlns:xlink="http://www.w3.org/1999/xlink" x="0px" y="0px"
	 viewBox="0 0 20 20" style="enable-background:new 0 0 20 20;" xml:space="preserve">
<style type="text/css">
	.st0{fill:#484D55;}
</style>
<g>
	<g>
		<path class="st0" d="M15,18.7H5.7c-0.2,0-0.3,0.1-0.3,0.3s0.1,0.3,0.3,0.3h9v0.3c0,0.2,0.1,0.3,0.3,0.3c0.2,0,0.3-0.1,0.3-0.3V19
			C15.3,18.8,15.2,18.7,15,18.7z M10.7,8.3c0,0.2,0.1,0.3,0.3,0.3h1.3c0.2,0,0.3-0.1,0.3-0.3v-2c0-0.2-0.1-0.3-0.3-0.3H11
			c-0.2,0-0.3,0.1-0.3,0.3V8.3z M11.3,6.7H12V8h-0.7V6.7z M19.7,4h-4c-0.2,0-0.3,0.1-0.3,0.3c0,0.2,0.1,0.3,0.3,0.3h3.7V11
			c0,0.2,0.1,0.3,0.3,0.3c0.2,0,0.3-0.1,0.3-0.3V4.3C20,4.1,19.9,4,19.7,4z M3.7,14H2.3C2.1,14,2,14.1,2,14.3v2
			c0,0.2,0.1,0.3,0.3,0.3h1.3c0.2,0,0.3-0.1,0.3-0.3v-2C4,14.1,3.9,14,3.7,14z M3.3,16H2.7v-1.3h0.7V16z M18.3,12
			c-1.6,0-1.7,4.3-1.7,4.3c0,0.8,0.6,1.5,1.3,1.6v1.7c0,0.2,0.1,0.3,0.3,0.3c0.2,0,0.3-0.1,0.3-0.3V18c0.8-0.2,1.3-0.8,1.3-1.6
			C20,16.3,20,12,18.3,12z M18.3,17.3c-0.6,0-1-0.4-1-1c0-1.7,0.4-3.7,1-3.7s1,2,1,3.7C19.3,16.9,18.9,17.3,18.3,17.3z M16.7,10.7
			h0.7V11c0,0.2,0.1,0.3,0.3,0.3c0.2,0,0.3-0.1,0.3-0.3v-0.7c0-0.2-0.1-0.3-0.3-0.3h-1.3c-0.2,0-0.3,0.1-0.3,0.3v2
			c0,0.2,0.1,0.3,0.3,0.3c0.2,0,0.3-0.1,0.3-0.3V10.7z M4,6.3C4,6.1,3.9,6,3.7,6H2.3C2.1,6,2,6.1,2,6.3v2c0,0.2,0.1,0.3,0.3,0.3h1.3
			C3.9,8.7,4,8.5,4,8.3V6.3z M3.3,8H2.7V6.7h0.7V8z M16.3,8.7h1.3c0.2,0,0.3-0.1,0.3-0.3v-2C18,6.1,17.9,6,17.7,6h-1.3
			C16.1,6,16,6.1,16,6.3v2C16,8.5,16.1,8.7,16.3,8.7z M16.7,6.7h0.7V8h-0.7V6.7z M7.3,8.3c0,0.2,0.1,0.3,0.3,0.3H9
			c0.2,0,0.3-0.1,0.3-0.3v-2C9.3,6.1,9.2,6,9,6H7.7C7.5,6,7.3,6.1,7.3,6.3V8.3z M8,6.7h0.7V8H8V6.7z M4.7,4.3C4.7,4.1,4.5,4,4.3,4
			h-4C0.1,4,0,4.1,0,4.3V19c0,0.6,0.4,1,1,1h2.7c0.6,0,1-0.4,1-1c0-0.6-0.4-1-1-1c-0.1,0-0.1,0-0.2,0c-0.2-0.4-0.7-0.7-1.2-0.7
			c-0.5,0-0.9,0.3-1.2,0.7c-0.1,0-0.1,0-0.2,0c-0.1,0-0.2,0-0.3,0.1V4.7h3.7C4.5,4.7,4.7,4.5,4.7,4.3z M1.2,18.7
			c0.1,0.1,0.2,0.1,0.3,0c0.1,0,0.2-0.1,0.2-0.2C1.8,18.2,2,18,2.3,18c0.3,0,0.6,0.2,0.6,0.5c0,0.1,0.1,0.2,0.2,0.2
			c0.1,0,0.2,0,0.3,0c0.1,0,0.1-0.1,0.2-0.1C3.9,18.7,4,18.8,4,19s-0.1,0.3-0.3,0.3H1c-0.2,0-0.3-0.1-0.3-0.3
			C0.7,18.8,1,18.6,1.2,18.7z M7.7,4.7H9c0.2,0,0.3-0.1,0.3-0.3v-2C9.3,2.1,9.2,2,9,2H7.7C7.5,2,7.3,2.1,7.3,2.3v2
			C7.3,4.5,7.5,4.7,7.7,4.7z M8,2.7h0.7V4H8V2.7z M7.3,12.3c0,0.2,0.1,0.3,0.3,0.3H9c0.2,0,0.3-0.1,0.3-0.3v-2C9.3,10.1,9.2,10,9,10
			H7.7c-0.2,0-0.3,0.1-0.3,0.3V12.3z M8,10.7h0.7V12H8V10.7z M11,4.7h1.3c0.2,0,0.3-0.1,0.3-0.3v-2c0-0.2-0.1-0.3-0.3-0.3H11
			c-0.2,0-0.3,0.1-0.3,0.3v2C10.7,4.5,10.8,4.7,11,4.7z M11.3,2.7H12V4h-0.7V2.7z M9.8,16.1c-0.1,0.1-0.1,0.1-0.1,0.2
			c0,0.1,0,0.2,0.1,0.2c0.1,0.1,0.2,0.1,0.2,0.1c0.1,0,0.2,0,0.2-0.1c0.1-0.1,0.1-0.2,0.1-0.2c0-0.1,0-0.2-0.1-0.2
			C10.1,16,9.9,16,9.8,16.1z M10.7,12.3c0,0.2,0.1,0.3,0.3,0.3h1.3c0.2,0,0.3-0.1,0.3-0.3v-2c0-0.2-0.1-0.3-0.3-0.3H11
			c-0.2,0-0.3,0.1-0.3,0.3V12.3z M11.3,10.7H12V12h-0.7V10.7z M11.7,18c0.2,0,0.3-0.1,0.3-0.3v-3h1c0.2,0,0.3-0.1,0.3-0.3
			c0-0.2-0.1-0.3-0.3-0.3H7c-0.2,0-0.3,0.1-0.3,0.3c0,0.2,0.1,0.3,0.3,0.3h1v3C8,17.9,8.1,18,8.3,18c0.2,0,0.3-0.1,0.3-0.3v-3h2.7v3
			C11.3,17.9,11.5,18,11.7,18z M4,10.3C4,10.1,3.9,10,3.7,10H2.3C2.1,10,2,10.1,2,10.3v2c0,0.2,0.1,0.3,0.3,0.3h1.3
			c0.2,0,0.3-0.1,0.3-0.3V10.3z M3.3,12H2.7v-1.3h0.7V12z M5.7,18C5.9,18,6,17.9,6,17.7v-17h8v17c0,0.2,0.1,0.3,0.3,0.3
			c0.2,0,0.3-0.1,0.3-0.3V0.3c0-0.2-0.1-0.3-0.3-0.3H5.7C5.5,0,5.3,0.1,5.3,0.3v17.3C5.3,17.9,5.5,18,5.7,18z"/>
	</g>
</g>
</svg>
