<svg version="1.1" id="Capa_1" xmlns="http://www.w3.org/2000/svg" xmlns:xlink="http://www.w3.org/1999/xlink" x="0px" y="0px"
	 width="50px" height="50px" fill="#fff" viewBox="0 0 485.213 485.212" style="enable-background:new 0 0 485.213 485.212;"
	 xml:space="preserve">
<g>
	<path d="M103.715,179.941L77.444,164.78l15.164-26.299l26.269,15.161L103.715,179.941z M179.912,103.714l-15.163-26.269
		l-26.267,15.161l15.161,26.269L179.912,103.714z M485.212,242.606c0,133.976-108.627,242.606-242.604,242.606
		c-133.978,0-242.606-108.631-242.606-242.606C0.001,108.628,108.629,0,242.607,0C376.585,0,485.212,108.628,485.212,242.606z
		 M454.89,242.606c0-117.038-95.241-212.279-212.282-212.279c-117.039,0-212.28,95.241-212.28,212.279
		c0,117.039,95.241,212.28,212.28,212.28C359.648,454.886,454.89,359.645,454.89,242.606z M242.607,60.684v181.922H60.652
		c0,100.484,81.473,181.953,181.956,181.953v0.033c100.482,0,181.955-81.474,181.955-181.956
		C424.562,142.152,343.09,60.684,242.607,60.684z"/>
</g>
</svg>