<?xml version="1.0" encoding="utf-8"?>
<!-- Generator: Adobe Illustrator 19.2.0, SVG Export Plug-In . SVG Version: 6.00 Build 0)  -->
<svg version="1.1" id="Layer_1" xmlns="http://www.w3.org/2000/svg" xmlns:xlink="http://www.w3.org/1999/xlink" x="0px" y="0px"
	 viewBox="0 0 100 100" style="enable-background:new 0 0 100 100;" xml:space="preserve">
<g>
	<path d="M64.6,49.9c-6.2-6.9-12.1-13.7-18.3-20.4c-1.9-2-3-4.1-2.7-7c0.3-3.7,0.1-7.4,0.1-11.2c0-0.4,0-0.9,0-1.4
		c-1.8,0-3.5,0-5.3,0c0-2,0-3.8,0-5.7c20.5,0,41,0,61.6,0c0,1.8,0,3.6,0,5.6c-1.7,0-3.4,0-5.2,0c0,1.1,0,2,0,2.9c0,4,0,8,0,12
		c0,1.1-0.4,1.9-1.1,2.7C87.1,35,80.5,42.4,73.9,49.8c-0.1,0.1-0.1,0.1-0.1,0.2c4.4,5,8.7,10,13.1,15c2.4,2.7,4.8,5.5,7.1,8.3
		c0.5,0.6,0.7,1.4,0.8,2.2c0.1,4.3,0,8.6,0,12.9c0,0.5,0,1,0,1.6c1.8,0,3.5,0,5.3,0c0,2,0,3.8,0,5.7c-20.5,0-40.9,0-61.5,0
		c0-1.8,0-3.7,0-5.7c1.7,0,3.4,0,5.3,0c0-0.6,0-1.1,0-1.6c0-4.4,0-8.8,0-13.2c0-0.7,0.3-1.5,0.7-1.9c6.4-7.4,12.8-14.7,19.1-22.1
		C63.9,50.8,64.3,50.4,64.6,49.9z M69.3,45.6c0.2-0.2,0.3-0.3,0.5-0.4c5.5-5.8,11-11.6,16.6-17.3c1.4-1.4,2-2.8,1.9-4.8
		c-0.2-2.5,0-5,0-7.5c-12.7,0-25.3,0-37.9,0c0,3.3,0,6.5,0,9.7c0,0.5,0.4,1.1,0.7,1.5c4.8,5.1,9.6,10.1,14.4,15.1
		C66.6,43.1,67.9,44.3,69.3,45.6z M50.3,79.1c1.3-0.2,2.5-0.2,3.6-0.5c1.1-0.3,2-1.1,3.1-1.5c4-1.5,7.7-3.6,11.1-6.1
		c0.7-0.6,1.3-0.6,2,0c3.5,2.6,7.2,4.6,11.2,6.1c0.8,0.3,1.6,0.5,2.2,1c1.4,1.2,2.9,0.8,4.5,0.8c0-2.6,0.6-5.1-1.7-7.3
		c-4.4-4.1-8.5-8.6-12.7-12.8c-1.5-1.5-3.1-2.9-4.7-4.4c-0.3,0.2-0.7,0.6-1,1C62.3,61.2,56.7,67.1,51,73c-0.3,0.3-0.6,0.7-0.6,1.1
		C50.3,75.7,50.3,77.3,50.3,79.1z"/>
	<path d="M54.3,47.2c-18.2,0-36.2,0-54.3,0c0-3.9,0-7.8,0-11.9c0.4,0,0.8-0.1,1.3-0.1c14.8,0,29.7,0,44.5,0c1.1,0,1.8,0.3,2.5,1.1
		c1.7,1.9,3.4,3.8,5.1,5.7C54.9,43.6,54.1,45.4,54.3,47.2z"/>
	<path d="M54.2,55c0.3,1.8,0.1,3.3-1.3,4.7c-1.9,1.8-3.5,3.9-5.2,5.9c-0.7,0.9-1.6,1.2-2.7,1.2c-11.6,0-23.3,0-34.9,0
		c-2.8,0-5.7,0-8.5,0c-0.5,0-1,0-1.5,0c0-4,0-7.9,0-11.8C18.1,55,36.1,55,54.2,55z"/>
	<path d="M0,86.3c0-3.9,0-7.8,0-11.8c13.4,0,26.8,0,40.2,0c0,3.9,0,7.8,0,11.8C26.8,86.3,13.5,86.3,0,86.3z"/>
	<path d="M0,15.8c13.5,0,26.8,0,40.2,0c0,3.9,0,7.8,0,11.8c-13.4,0-26.8,0-40.2,0C0,23.6,0,19.8,0,15.8z"/>
</g>
</svg>
