<?xml version="1.0" encoding="utf-8"?>
<!-- Generator: Adobe Illustrator 19.2.0, SVG Export Plug-In . SVG Version: 6.00 Build 0)  -->
<svg version="1.1" id="Layer_1" xmlns="http://www.w3.org/2000/svg" xmlns:xlink="http://www.w3.org/1999/xlink" x="0px" y="0px"
	 viewBox="0 0 20 20" style="enable-background:new 0 0 20 20;" xml:space="preserve">
<style type="text/css">
	.st0{fill:#484D55;}
</style>
<g>
	<g>
		<path class="st0" d="M19,7.6h-3.3v-4c0-0.6-0.4-1-1-1H1c-0.6,0-1,0.4-1,1v7.9c0,0.6,0.4,1,1,1h3.3v4c0,0.6,0.4,1,1,1H19
			c0.6,0,1-0.5,1-1V8.6C20,8,19.6,7.6,19,7.6z M1,11.6c-0.1,0-0.2-0.1-0.2-0.2V3.6c0-0.1,0.1-0.2,0.2-0.2h13.7
			c0.1,0,0.2,0.1,0.2,0.2v7.9c0,0.1-0.1,0.2-0.2,0.2H1z M19.2,16.4c0,0.1-0.1,0.2-0.2,0.2H5.3c-0.1,0-0.2-0.1-0.2-0.2v-0.5h14.1
			V16.4z M19.2,15.1H5.1v-1.2h14.1V15.1z M19.2,13.1H5.1v-0.7h9.6c0.6,0,1-0.4,1-1V8.4H19c0.1,0,0.2,0.1,0.2,0.2V13.1z M10.5,7.1
			c0.4,0,0.8-0.2,1.1-0.5c0.3,0.3,0.6,0.5,1.1,0.5c0.8,0,1.5-0.7,1.5-1.5s-0.7-1.5-1.5-1.5c-0.4,0-0.8,0.2-1.1,0.5
			c-0.3-0.3-0.6-0.5-1.1-0.5C9.7,4.2,9,4.8,9,5.6S9.7,7.1,10.5,7.1z M12.6,5c0.4,0,0.7,0.3,0.7,0.7S13,6.3,12.6,6.3
			C12.2,6.3,12,6,12,5.6S12.2,5,12.6,5z M10.5,5c0.4,0,0.7,0.3,0.7,0.7s-0.3,0.7-0.7,0.7c-0.4,0-0.7-0.3-0.7-0.7S10.1,5,10.5,5z
			 M4,9.3H2c-0.2,0-0.4,0.2-0.4,0.4c0,0.2,0.2,0.4,0.4,0.4H4c0.2,0,0.4-0.2,0.4-0.4C4.4,9.4,4.2,9.3,4,9.3z M7.2,9.3H5.3
			c-0.2,0-0.4,0.2-0.4,0.4c0,0.2,0.2,0.4,0.4,0.4h1.9c0.2,0,0.4-0.2,0.4-0.4C7.6,9.4,7.4,9.3,7.2,9.3z M10.5,9.3H8.5
			c-0.2,0-0.4,0.2-0.4,0.4c0,0.2,0.2,0.4,0.4,0.4h1.9c0.2,0,0.4-0.2,0.4-0.4C10.9,9.4,10.7,9.3,10.5,9.3z M13.7,9.3h-1.9
			c-0.2,0-0.4,0.2-0.4,0.4c0,0.2,0.2,0.4,0.4,0.4h1.9c0.2,0,0.4-0.2,0.4-0.4C14.1,9.4,13.9,9.3,13.7,9.3z M2.5,6.8h0.8
			c0.4,0,0.8-0.4,0.8-0.8V5.1c0-0.4-0.4-0.8-0.8-0.8H2.5c-0.4,0-0.8,0.4-0.8,0.8V6C1.7,6.4,2.1,6.8,2.5,6.8z M2.5,5.1l0.8,0l0,0.8
			c0,0,0,0,0,0L2.5,6L2.5,5.1z"/>
	</g>
</g>
</svg>
