<?xml version="1.0" encoding="utf-8"?>
<!-- Generator: Adobe Illustrator 19.2.0, SVG Export Plug-In . SVG Version: 6.00 Build 0)  -->
<svg version="1.1" id="Layer_1" xmlns="http://www.w3.org/2000/svg" xmlns:xlink="http://www.w3.org/1999/xlink" x="0px" y="0px"
	 viewBox="0 0 40 40" style="enable-background:new 0 0 40 40;" xml:space="preserve">
<style type="text/css">
	.st0{fill:#626975;}
</style>
<g>
	<g>
		<path class="st0" d="M13.6,31.4l-4,4.1h15.9l-4-4.1H13.6z M28.4,15.5c0.9,0,1.6-0.7,1.6-1.6c0-0.9-0.7-1.6-1.6-1.6
			c-0.9,0-1.6,0.7-1.6,1.6c0,0.2,0,0.4,0.1,0.6c-1.1,1-2.9,2.6-4,3.6c-0.2-0.2-0.5-0.3-0.8-0.3c-0.4,0-0.7,0.1-1,0.4
			c-1-0.9-2.7-2.3-3.9-3.4c0.1-0.2,0.1-0.3,0.1-0.5c0-0.9-0.7-1.6-1.6-1.6c-0.9,0-1.6,0.7-1.6,1.6c0,0.2,0,0.4,0.1,0.5L7,20.6
			c-0.3-0.2-0.5-0.3-0.9-0.3c-0.9,0-1.6,0.7-1.6,1.6c0,0.9,0.7,1.6,1.6,1.6c0.9,0,1.6-0.7,1.6-1.6c0-0.2,0-0.3-0.1-0.4
			c2-1.6,5.6-4.5,7.2-5.8c0.3,0.2,0.6,0.3,0.9,0.3c0.3,0,0.5-0.1,0.8-0.2c1,0.9,2.8,2.4,4.1,3.5c0,0.1-0.1,0.2-0.1,0.3
			c0,0.9,0.7,1.6,1.6,1.6c0.9,0,1.6-0.7,1.6-1.6c0-0.2,0-0.3-0.1-0.4l4.1-3.7C27.9,15.5,28.1,15.5,28.4,15.5z M22.9,29.6
			c0-1.1,0.2,0.3,0.5-1.1H2.1V5.9h31.1v11.8c0.7-0.3,0.7-0.5,1.4-0.5V6.4c0-1.2-0.7-1.9-1.9-1.9H2.2C1.1,4.5,0,5.2,0,6.4v22
			c0,1.2,1.1,1.6,2.2,1.6h20.7C22.9,29.9,22.9,29.8,22.9,29.6z M32.3,23.2c-1.9,0-3.5,1.6-3.5,3.5c0,1.9,1.6,3.5,3.5,3.5
			c1.9,0,3.5-1.6,3.5-3.5C35.8,24.8,34.2,23.2,32.3,23.2z M32.3,28.8c-1.1,0-2.1-0.9-2.1-2.1c0-1.2,0.9-2.1,2.1-2.1s2.1,0.9,2.1,2.1
			C34.3,27.8,33.4,28.8,32.3,28.8z M39,24.8l-0.9-0.1c-0.1-0.3-0.2-0.5-0.3-0.7l0.5-0.7c0.3-0.5,0.3-1.1-0.1-1.6l-0.9-0.9
			c-0.2-0.2-0.5-0.4-0.9-0.4c-0.3,0-0.5,0.1-0.7,0.2L35,21.1c-0.3-0.1-0.5-0.2-0.8-0.3l-0.1-0.9c-0.1-0.6-0.6-1-1.2-1h-1.3
			c-0.6,0-1.1,0.4-1.2,1l-0.2,0.9c-0.2,0.1-0.5,0.2-0.7,0.3l-0.7-0.5c-0.2-0.1-0.4-0.2-0.7-0.2c-0.3,0-0.6,0.1-0.9,0.4l-0.9,0.9
			c-0.4,0.4-0.5,1.1-0.1,1.6l0.5,0.7c-0.1,0.2-0.2,0.5-0.3,0.7l-0.9,0.1c-0.6,0.1-1,0.6-1,1.2v1.3c0,0.6,0.4,1.1,1,1.2l0.9,0.2
			c0.1,0.2,0.2,0.5,0.3,0.7l-0.5,0.7c-0.3,0.5-0.3,1.1,0.1,1.6l0.9,0.9c0.2,0.2,0.5,0.4,0.9,0.4c0.3,0,0.5-0.1,0.7-0.2l0.7-0.5
			c0.2,0.1,0.5,0.2,0.7,0.3l0.1,0.9c0.1,0.6,0.6,1,1.2,1h1.3c0.6,0,1.1-0.4,1.2-1l0.1-0.9c0.3-0.1,0.5-0.2,0.7-0.3l0.7,0.5
			c0.2,0.1,0.4,0.2,0.7,0.2c0.3,0,0.6-0.1,0.9-0.4l0.9-0.9c0.4-0.4,0.5-1.1,0.1-1.6l-0.5-0.7c0.1-0.2,0.2-0.5,0.3-0.7l0.9-0.1
			c0.6-0.1,1-0.6,1-1.2V26C40,25.4,39.6,24.9,39,24.8z M38.6,27.2l-1.1,0.2c-0.3,0-0.5,0.3-0.6,0.5c-0.1,0.4-0.3,0.9-0.5,1.2
			c-0.1,0.2-0.1,0.5,0,0.8l0.7,0.9l-0.7,0.7l-0.9-0.7c-0.1-0.1-0.3-0.1-0.4-0.1c-0.1,0-0.3,0-0.4,0.1c-0.4,0.2-0.8,0.4-1.2,0.5
			c-0.3,0.1-0.5,0.3-0.5,0.6L32.7,33h-1l-0.2-1.1c0-0.3-0.3-0.5-0.5-0.6c-0.4-0.1-0.8-0.3-1.2-0.5c-0.1-0.1-0.2-0.1-0.4-0.1
			c-0.2,0-0.3,0-0.4,0.1l-0.9,0.7l-0.7-0.7l0.7-0.9c0.2-0.2,0.2-0.5,0-0.8c-0.2-0.4-0.4-0.8-0.5-1.2c-0.1-0.3-0.3-0.5-0.6-0.5
			l-1.1-0.2v-1l1.1-0.2c0.3,0,0.5-0.3,0.6-0.5c0.1-0.4,0.3-0.9,0.5-1.2c0.1-0.2,0.1-0.5,0-0.8l-0.7-0.9l0.7-0.7l0.9,0.7
			c0.1,0.1,0.3,0.1,0.4,0.1c0.1,0,0.3,0,0.4-0.1c0.4-0.2,0.8-0.4,1.2-0.5c0.3-0.1,0.5-0.3,0.5-0.6l0.2-1.1h1l0.2,1.1
			c0,0.3,0.3,0.5,0.5,0.6c0.4,0.1,0.9,0.3,1.3,0.5c0.1,0.1,0.2,0.1,0.4,0.1c0.1,0,0.3,0,0.4-0.1l0.9-0.7l0.7,0.7l-0.7,0.9
			c-0.2,0.2-0.2,0.5,0,0.8c0.2,0.4,0.4,0.8,0.5,1.2c0.1,0.3,0.3,0.5,0.6,0.5l1.1,0.2V27.2z"/>
	</g>
</g>
</svg>
