<svg id="Layer_1" data-name="Layer 1" xmlns="http://www.w3.org/2000/svg" viewBox="0 0 40.03 38.44"><defs><style>.cls-1{fill:#fff;}</style></defs><title>PrivacySetting_White-40</title><path class="cls-1" d="M31.56,26.45a1.27,1.27,0,0,0-1.27,1.28V29h2.55V27.73a1.28,1.28,0,0,0-1.28-1.28h0Zm0,0" transform="translate(0.01 -0.45)"/><path class="cls-1" d="M35.09,20.39H4.9A4.93,4.93,0,0,0,0,25.31V34A4.93,4.93,0,0,0,4.9,38.9H35.09A4.93,4.93,0,0,0,40,34V25.31a4.94,4.94,0,0,0-4.92-4.92h0ZM10.68,31l1.18,1.28-2,1.53L9,32.27C8.86,32.05,8.66,31.62,8.39,31a13.11,13.11,0,0,1-.59,1.28L7,33.81l-2.1-1.53L6.12,31a9.06,9.06,0,0,1,1-.91,13.78,13.78,0,0,1-1.38-.2L4,29.59l0.81-2.4,1.58,0.71C6.59,28,7,28.23,7.66,28.62,7.52,28,7.43,27.51,7.39,27.2L7.17,25.48h2.5L9.47,27.2a9.27,9.27,0,0,1-.28,1.42l0.57-.3c0.32-.17.56-0.29,0.72-0.37l1.58-.75,0.78,2.4L11.09,30a9.64,9.64,0,0,1-1.42.13,8.76,8.76,0,0,1,1,.91h0Zm11.56,0,1.18,1.28-2,1.53-0.84-1.53C20.42,32.05,20.23,31.62,20,31a13.28,13.28,0,0,1-.6,1.28L18.51,33.8l-2.09-1.53L17.68,31a9.06,9.06,0,0,1,1-.91,13.82,13.82,0,0,1-1.38-.2l-1.76-.28,0.82-2.4L18,27.91c0.16,0.08.58,0.31,1.23,0.7C19.08,28,19,27.51,19,27.2l-0.23-1.71h2.51L21,27.2a9.69,9.69,0,0,1-.28,1.42l0.57-.3c0.31-.17.56-0.29,0.72-0.37l1.58-.75,0.78,2.4L22.66,30a9.63,9.63,0,0,1-1.42.13,9,9,0,0,1,1,.91h0Zm13,2.17a1,1,0,0,1-1,1H28.88a1,1,0,0,1-1-1V29.93a1,1,0,0,1,1-1H29V27.73a2.55,2.55,0,1,1,5.1,0V29h0.13a1,1,0,0,1,1,1v3.23Zm0,0" transform="translate(0.01 -0.45)"/><path class="cls-1" d="M26.16,17.66a4.37,4.37,0,1,1,4.37-4.37A4.37,4.37,0,0,1,26.16,17.66Zm0-6.93a2.56,2.56,0,1,0,2.56,2.56A2.56,2.56,0,0,0,26.16,10.73Z" transform="translate(0.01 -0.45)"/><path class="cls-1" d="M20.39,11.5H20.23a0.9,0.9,0,0,1-.74-1,4.71,4.71,0,0,1,3.85-3.83h0.12a0.91,0.91,0,0,1,.12,1.8,2.78,2.78,0,0,0-2.31,2.33A0.9,0.9,0,0,1,20.39,11.5Z" transform="translate(0.01 -0.45)"/><path class="cls-1" d="M14.89,16.07l1.42,0.22,0.1,0,0,0.1A10.11,10.11,0,0,0,17.09,18l0,0.09-0.24.32h2.18A0.91,0.91,0,0,0,19,17.64a8.32,8.32,0,0,1-1-2.36,0.9,0.9,0,0,0-.74-0.68l-2-.3-0.13,0V14.16a11.19,11.19,0,0,1,0-1.73V12.29L17.27,12A0.91,0.91,0,0,0,18,11.29a8.33,8.33,0,0,1,1-2.36,0.91,0.91,0,0,0,0-1L17.77,6.33l-0.08-.1,0.08-.1A11.28,11.28,0,0,1,19,4.9l0.1-.08,1.7,1.25a0.9,0.9,0,0,0,.54.18,0.91,0.91,0,0,0,.47-0.13,8.35,8.35,0,0,1,2.36-1,0.9,0.9,0,0,0,.68-0.74l0.32-2.08H25.3c0.29,0,.58,0,0.87,0s0.58,0,.86,0h0.13l0.32,2.08a0.9,0.9,0,0,0,.68.75,8.34,8.34,0,0,1,2.36,1,0.91,0.91,0,0,0,1,0l1.7-1.25,0.1,0.08a11.28,11.28,0,0,1,1.23,1.23l0.08,0.1-1.25,1.7a0.91,0.91,0,0,0,0,1,8.34,8.34,0,0,1,1,2.36,0.91,0.91,0,0,0,.74.68h0l2,0.3,0.13,0v0.13a11.21,11.21,0,0,1,0,1.73v0.13l-2.08.32a0.9,0.9,0,0,0-.75.68,8.33,8.33,0,0,1-1,2.36,0.9,0.9,0,0,0-.09.73h2.18l-0.18-.24-0.06-.08,0-.09a10.19,10.19,0,0,0,.65-1.56l0-.1,1.52-.23a1.79,1.79,0,0,0,1.51-1.6,13.12,13.12,0,0,0,0-2.38,1.78,1.78,0,0,0-1.51-1.59l-1.52-.24,0-.1a10.21,10.21,0,0,0-.65-1.56l0-.09L36.1,7.29A1.8,1.8,0,0,0,36,5.09h0a13.29,13.29,0,0,0-1.69-1.68,1.78,1.78,0,0,0-2.19-.06L31,4.2l-0.08.06-0.09,0a10.23,10.23,0,0,0-1.56-.65l-0.1,0L28.95,2A1.8,1.8,0,0,0,27.35.51c-0.39,0-.79-0.05-1.18-0.05s-0.81,0-1.2.06A1.78,1.78,0,0,0,23.38,2L23.15,3.54l-0.1,0a10.25,10.25,0,0,0-1.56.65l-0.09,0-1.24-.91A1.77,1.77,0,0,0,19.1,3,1.8,1.8,0,0,0,18,3.41,13.13,13.13,0,0,0,16.28,5.1a1.78,1.78,0,0,0-.06,2.18l0.91,1.24,0,0.09a10.13,10.13,0,0,0-.65,1.56l0,0.1-1.52.23a1.79,1.79,0,0,0-1.51,1.6,13.12,13.12,0,0,0,0,2.38A1.78,1.78,0,0,0,14.89,16.07Z" transform="translate(0.01 -0.45)"/></svg>