<?xml version="1.0" encoding="utf-8"?>
<!-- Generator: Adobe Illustrator 18.0.0, SVG Export Plug-In . SVG Version: 6.00 Build 0)  -->
<!DOCTYPE svg PUBLIC "-//W3C//DTD SVG 1.1//EN" "http://www.w3.org/Graphics/SVG/1.1/DTD/svg11.dtd">
<svg version="1.1" id="Layer_1" xmlns="http://www.w3.org/2000/svg" xmlns:xlink="http://www.w3.org/1999/xlink" x="0px" y="0px"
	 viewBox="0 0 600 600" enable-background="new 0 0 600 600" xml:space="preserve">
<g>
	<path d="M1595.2,324.4c-3.8-15.9-16.3-26.6-32.7-27.4c-8.2-0.4-16.5-0.1-25.1-0.1c0,7.1,0.2,13.9-0.1,20.7c-0.1,3.4-0.5,7-1.5,10.2
		c-3.2,10.6-14.3,17.2-25.5,15.6c-10.7-1.5-19.6-10.9-20-21.7c-0.3-7.2-0.1-14.3-0.1-21.5c0-1.1,0-2.1,0-3.4c-31.5,0-62.6,0-94.1,0
		c0,7.1,0.1,14.1-0.1,21c-0.1,3.4-0.4,7-1.4,10.3c-3.2,10.2-14.1,16.6-25.2,15.3c-10.4-1.2-19.4-10.3-20.1-20.6
		c-0.5-7.4-0.3-14.9-0.5-22.4c0-1.2,0-2.3,0-3.9c-3.6,0-6.9-0.1-10.1,0c-6.7,0.2-13.4-0.3-19.9,0.9c-15,2.6-25.6,14.1-28,29.1
		c-0.1,0.5-0.4,0.9-0.6,1.3c0,48,0,95.9,0,143.9c-10.9,34.3-24.3,65.9-39.3,89.5c-17.7-27.9-31.9-111.5-43.8-140.9
		c-15.3-38-25.8-77-26.7-118.7c-6.5,2.5-12.2,5.2-18.1,6.8c-24.5,6.9-49.1,13.2-73.5,20.2c-19.9,5.7-38.9,13.4-55,26.7
		c-14.3,11.8-26.4,25.3-28.9,44.7c-2.3,17.3-2.3,90-0.2,107.4c1,8.2,5,13.5,12.1,17.7c23.3,13.7,48.3,23.8,74.1,31.7
		c48.8,14.9,98.8,22.2,149.9,22.9c16.5,0.2,64-0.1,80.3-1.1l-0.1-0.2c0.3,0.1,0.5,0.2,0.8,0.3c80.8,0,161.7,0,242.5,0
		c2.1-0.5,4.2-0.9,6.3-1.6c13.8-4.6,22.2-14,24.8-28.4c0.1-0.6,0.4-1.1,0.6-1.7c0-73.1,0-146.1,0-219.2
		C1595.8,326.9,1595.5,325.7,1595.2,324.4z M1572.7,382.5c0,53.1,0,106.1,0,159.2c0,9.3-4.7,14-14,14c-77.1,0-154.1,0-231.2,0
		c-9.2,0-14-4.7-14-14c0-53.1,0-106.1,0-159.2c0-1.1,0-2.1,0-3.4c86.6,0,172.7,0,259.1,0C1572.7,380.3,1572.7,381.4,1572.7,382.5z"
		/>
	<path d="M1360.9,285.8c0,11.2-0.1,22.5,0,33.7c0.1,7.3,5.1,12.3,11.9,12.2c6.7-0.1,11.3-4.9,11.4-12.3c0.1-11.2,0.1-22.5,0-33.7
		c0-6.6-2.6-10-8.9-12.1c-0.3-0.1-0.5-0.3-0.8-0.5c-1.4,0-2.8,0-4.2,0C1364.5,275.4,1360.9,279.2,1360.9,285.8z"/>
	<path d="M1509.8,331.1c8,2.9,15.6-2.8,15.7-11.9c0.1-10.2-0.2-20.3,0.1-30.5c0.2-7.5-2.1-13-9.5-15.6c-1.4,0-2.8,0-4.2,0
		c-5.2,1.8-9.5,4.8-9.5,10.8c-0.2,12.4-0.2,24.9,0,37.3C1502.4,326.1,1505.3,329.4,1509.8,331.1z"/>
	<path d="M1345.8,531.8c64.9,0,129.8,0,194.7,0c6.6,0,8.4-1.7,8.4-8.3c0-37.5,0-75.1,0-112.6c0-6.6-1.7-8.2-8.4-8.2
		c-32.4,0-64.7,0-97.1,0c-32.6,0-65.1,0-97.7,0c-6.7,0-8.4,1.6-8.4,8.2c0,37.5,0,75.1,0,112.6
		C1337.5,530.1,1339.2,531.8,1345.8,531.8z M1501.8,414.4c11.9,0,23.5,0,35.6,0c0,7.5,0,14.9-0.1,22.2c0,0.5-1.1,1.3-1.7,1.4
		c-10.6,0.1-21.3,0.1-31.9,0c-0.6,0-1.8-1-1.8-1.6C1501.8,429.1,1501.8,421.8,1501.8,414.4z M1501.8,451.8c0-1.8,0.7-2.4,2.4-2.4
		c10.3,0.1,20.5,0.1,30.8,0c2.1,0,2.5,0.9,2.5,2.7c-0.1,10.2-0.1,20.3,0,30.5c0,2-0.7,2.6-2.6,2.6c-5.2-0.1-10.4,0-15.5,0
		c-5,0-10-0.1-14.9,0c-1.9,0-2.6-0.5-2.6-2.5C1501.9,472.3,1501.9,462,1501.8,451.8z M1501.8,496.7c12.1,0,23.7,0,35.6,0
		c0,6.2,0,12.2,0,18.3c0,6.2,0.8,5.3-5.4,5.4c-9.1,0-18.3-0.1-27.4,0.1c-2.2,0-2.9-0.7-2.9-2.9
		C1501.9,510.7,1501.8,503.8,1501.8,496.7z M1490.1,520.1c-11.6,0-23.2,0-35.2,0c0-4-0.1-7.8,0.1-11.7c0-0.6,0.8-1.4,1.4-1.7
		c3.9-1.9,6.7-4.8,8.7-8.7c0.4-0.7,1.4-1.4,2.2-1.4c7.5-0.1,15.1-0.1,22.9-0.1C1490.1,504.4,1490.1,512.1,1490.1,520.1z
		 M1466.5,452.6c0-2.4,0.5-3.3,3.1-3.3c6.7,0.2,13.5,0.1,20.5,0.1c0,11.9,0,23.5,0,35.4c-7.7,0-15.4,0-23.4,0c-0.1-1.1-0.2-2-0.2-3
		C1466.5,472.1,1466.6,462.4,1466.5,452.6z M1454.9,414.3c12,0,23.5,0,35.2,0c0,7.8,0,15.5,0,23.4c-0.6,0.1-1.4,0.3-2.1,0.3
		c-6.7,0-13.3,0.1-20-0.1c-1.1,0-2.6-0.9-3.1-1.9c-1.9-3.4-4.4-6.2-7.9-7.9c-1.5-0.7-2.2-1.7-2.1-3.4
		C1455,421.4,1454.9,418,1454.9,414.3z M1443.1,484.5c-15.6,0-31.1,0-46.9,0c0-11.5,0-23,0-34.7c15.7,0,31.2,0,46.9,0
		C1443.1,461.4,1443.1,472.9,1443.1,484.5z M1396.2,414.3c15.6,0,31.1,0,46.8,0c0,3.8,0,7.6,0,11.6c-15.5,0-31,0-46.8,0
		C1396.2,422,1396.2,418.2,1396.2,414.3z M1396.1,508.6c15.7,0,31.2,0,46.9,0c0,3.8,0,7.5,0,11.5c-15.6,0-31.1,0-46.9,0
		C1396.1,516.1,1396.1,512.5,1396.1,508.6z M1384.5,518.2c0,1.5-0.5,2.1-2.1,2.1c-10.4,0-20.9,0-31.3-0.1c-0.7,0-2.1-1.1-2.1-1.6
		c-0.1-7.2-0.1-14.5-0.1-22.1c8.1,0,15.7,0,23.2,0.1c0.7,0,1.8,0.8,2.1,1.5c2,3.9,4.8,6.7,8.7,8.7c0.7,0.4,1.4,1.6,1.5,2.5
		C1384.6,512.2,1384.5,515.2,1384.5,518.2z M1348.9,416.6c0-1.5,0.2-2.4,2.1-2.4c10.8,0.1,21.5,0,32.3,0.1c0.3,0,0.6,0.1,1.3,0.4
		c0,3.8,0.1,7.5-0.1,11.1c0,0.7-0.9,1.7-1.6,2.1c-3.8,1.9-6.5,4.8-8.5,8.5c-0.4,0.8-1.7,1.6-2.7,1.6c-6.8,0.1-13.5,0-20.3,0.1
		c-1.8,0-2.5-0.5-2.5-2.4C1349,429.3,1348.9,422.9,1348.9,416.6z M1349,451.8c0-0.8,1.1-2.2,1.7-2.2c7.1-0.2,14.3-0.1,21.8-0.1
		c0,12,0,23.6,0,35.6c-1.3,0-2.6,0-3.8,0c-5.8,0-11.5-0.1-17.3,0c-2,0-2.6-0.7-2.6-2.6C1349,472.3,1348.9,462,1349,451.8z"/>
	<path d="M1225.2,419.7c8.2,17.8,16.6,90.9,25.4,109.8c1.1-1.6,1.4-2.1,1.6-2.5c8.9-18.3,17.9-92,26.7-110.4c0.7-1.6,1-3.7,0.6-5.4
		c-2.7-13.2-5.8-26.3-8.5-39.5c-0.9-4.4-3.2-5.9-7.4-5.8c-7.5,0.1-15.1,0.1-22.7,0c-4.4-0.1-6.9,1.4-7.8,6.1
		c-2.6,13.8-5.7,27.5-8.4,41.2C1224.6,415.3,1224.4,417.9,1225.2,419.7z"/>
	<path d="M1240.9,355.8c7,0.8,14.2,0.7,21.3,0.2c5.5-0.4,9.5-4.1,10.9-9.3c1.7-5.9,3-12,3.7-18.1c0.7-6.1-2.6-9.6-8.8-9.9
		c-5.3-0.3-10.6-0.1-15.8-0.1c0,0,0,0.1,0,0.1c-5.8,0-11.7-0.1-17.5,0c-4.6,0.2-8.5,3.1-7.9,7.2c1.1,8.4,3.2,16.7,6.1,24.7
		C1233.6,353.1,1237.9,355.4,1240.9,355.8z"/>
	<path d="M1148.6,189.5c3.3,2.8,4.9,5.6,5.8,9.6c2,8.9,3.9,17.9,6.9,26.6c7.2,21.2,18.1,40.6,35.5,55.2
		c40.3,33.9,97.4,24.1,125.2-20.3c12.4-19.9,19.6-41.6,23.5-64.4c0.4-2.1,1.5-4.9,3.2-5.9c19.1-11.5,21.8-30.2,22.2-49.8
		c0.1-5-2-8.8-6.9-7.7c0-14.5,0.4-28.9-0.2-43.2c-0.4-8.5-1.5-17.2-3.9-25.4c-7-24.2-21.9-41.5-46.8-49.1c-3.9-1.2-8.3-1.5-11.8-3.5
		c-30.9-18.1-63.7-23.1-98.5-14.2c-24.3,6.2-44.7,18.1-57.2,40.5c-10.3,18.4-13.6,38.4-12.1,59.1c0.9,12.3,2.5,24.5,3.9,37
		c-9.6,0.7-10.9,1.7-10.6,9.7C1127.5,162,1134.5,177.6,1148.6,189.5z"/>
</g>
<g>
	<path d="M444.3,482.7c2.9-2.9,6-5.6,9.3-8v-88.4c-11.5-8.3-20.4-19.5-25.8-32.4c-19.6-10.7-38.9-21-51.2-27.6l-0.6-0.3
		c-3.3-1.8-7.3-1.4-10.3,0.9c-15.2,11.9-31.7,19.9-49.3,23.8c-3.1,0.7-5.6,2.9-6.8,5.9l-17.9,47.2l-17.9-47.2
		c-1.1-3-3.7-5.2-6.8-5.9c-17.6-3.9-34.1-11.9-49.3-23.8c-2.9-2.3-7-2.7-10.3-0.9c-28.6,15.3-97.1,52.2-116.4,65.2
		c-32.7,22-47,101.8-49.5,117.6c-0.3,1.6-0.1,3.2,0.4,4.7c1.2,3.3,31.2,80.9,249.8,80.9c61.1,0,107.5-6.1,142.6-14.9
		c-8.1-12.3-12.6-26.9-12.7-42.2C421.7,516.7,429.7,497.3,444.3,482.7z"/>
	<path d="M521.5,477.2v-96.7c7.3-2.9,14.1-7.3,19.9-13.1c11.2-11.2,17.3-26,17.3-41.8c0-21.6-11.8-41.4-30.8-51.7
		c-0.5-0.3-1.1-0.4-1.7-0.4c-0.6,0-1.2,0.2-1.8,0.5c-1.1,0.6-1.7,1.8-1.7,3.1l0.1,52.6c-2.2,0.9-8.4,2.7-23,2.7h-0.2
		c-14.5,0-20.6-1.8-22.8-2.7l-0.1-52.6c0-1.3-0.7-2.4-1.8-3.1c-0.5-0.3-1.2-0.5-1.8-0.5c-0.6,0-1.2,0.1-1.7,0.4
		c-4.9,2.7-9.4,6.1-13.3,10c-11.2,11.2-17.3,26-17.3,41.8c0,24.8,15.4,46,37.1,54.7v96.7c-7.3,2.9-14.1,7.3-19.8,13.1
		c-11.2,11.2-17.3,26-17.3,41.8c0,21.5,11.8,41.4,30.7,51.7c0.5,0.3,1.1,0.4,1.7,0.4c0.6,0,1.3-0.2,1.8-0.5c1.1-0.6,1.7-1.8,1.7-3.1
		l-0.1-52.6c2.2-0.9,8.4-2.7,23-2.7h0.3c14.5,0,20.6,1.8,22.8,2.7l0.1,52.6c0,1.3,0.7,2.4,1.8,3c0.6,0.3,1.2,0.5,1.8,0.5
		c0.6,0,1.2-0.1,1.7-0.4c4.9-2.7,9.4-6.1,13.3-10c11.2-11.2,17.3-26,17.3-41.8C558.6,507.1,543.2,485.9,521.5,477.2z"/>
	<path d="M185.4,216.5c3.6,3,5.3,6.1,6.3,10.3c2.2,9.6,4.2,19.3,7.4,28.6c7.8,22.9,19.5,43.7,38.2,59.4
		c43.4,36.4,104.9,26,134.8-21.9c13.4-21.4,21.1-44.7,25.3-69.4c0.4-2.3,1.6-5.3,3.4-6.4c20.6-12.4,23.5-32.5,23.9-53.6
		c0.1-5.4-2.2-9.5-7.4-8.2c0-15.6,0.5-31.1-0.2-46.5c-0.4-9.2-1.6-18.6-4.2-27.3c-7.6-26-23.6-44.6-50.4-52.8
		c-4.2-1.3-9-1.6-12.7-3.8c-33.3-19.5-68.6-24.9-106-15.3c-26.1,6.7-48.1,19.5-61.6,43.6c-11.1,19.8-14.6,41.3-13,63.6
		c0.9,13.2,2.7,26.4,4.2,39.9c-10.3,0.8-11.7,1.8-11.4,10.4C162.6,186.9,170.2,203.7,185.4,216.5z"/>
</g>
</svg>
