<?xml version="1.0" encoding="utf-8"?>
<!-- Generator: Adobe Illustrator 19.2.0, SVG Export Plug-In . SVG Version: 6.00 Build 0)  -->
<svg version="1.1" id="Layer_1" xmlns="http://www.w3.org/2000/svg" xmlns:xlink="http://www.w3.org/1999/xlink" x="0px" y="0px"
	 viewBox="0 0 40 40" style="enable-background:new 0 0 40 40;" xml:space="preserve">
<style type="text/css">
	.st0{fill:#FFFFFF;}
</style>
<g>
	<path class="st0" d="M37.7,32.7v-32C37.7,0.3,37.4,0,37,0H7C6.6,0,6.3,0.3,6.3,0.7V10h1.3V1.3h28.7V32h-6c-0.4,0-0.7,0.3-0.7,0.7v6
		h-22v-10H6.3v10.7C6.3,39.7,6.6,40,7,40h23.3c0.2,0,0.3-0.1,0.5-0.2l6.7-6.7c0.1-0.1,0.1-0.1,0.1-0.2v-0.1
		C37.7,32.8,37.7,32.7,37.7,32.7L37.7,32.7z M31,33.3h4.4L31,37.7V33.3z M31,33.3"/>
	<path class="st0" d="M11,25.3h6.7V24h-2V11.3c0-0.4-0.3-0.7-0.7-0.7h-4c-0.4,0-0.7,0.3-0.7,0.7v4H7c-0.4,0-0.7,0.3-0.7,0.7v2.7H3
		c-0.4,0-0.7,0.3-0.7,0.7v5.3c0,0.4,0.3,0.7,0.7,0.7H11z M11.7,12h2.7v12h-2.7V12z M7.7,16.7h2.7V24H7.7V16.7z M3.7,20h2.7v4H3.7V20
		z M3.7,20"/>
	<path class="st0" d="M33.7,16V4.7C33.7,4.3,33.4,4,33,4H19c-0.4,0-0.7,0.3-0.7,0.7V16c0,0.4,0.3,0.7,0.7,0.7h14
		C33.4,16.7,33.7,16.4,33.7,16L33.7,16z M32.3,8h-8V5.3h8V8z M23,5.3V8h-3.3V5.3H23z M19.7,9.3H23v6h-3.3V9.3z M24.3,15.3v-6h8v6
		H24.3z M24.3,15.3"/>
	<rect x="19" y="18.7" class="st0" width="14" height="1.3"/>
	<rect x="19" y="22" class="st0" width="14" height="1.3"/>
	<rect x="19" y="25.3" class="st0" width="14" height="1.3"/>
	<rect x="9.7" y="4" class="st0" width="4" height="1.3"/>
	<rect x="9.7" y="7.3" class="st0" width="6" height="1.3"/>
	<rect x="9.7" y="28.7" class="st0" width="4.7" height="1.3"/>
	<rect x="16.3" y="28.7" class="st0" width="4.7" height="1.3"/>
	<rect x="23" y="28.7" class="st0" width="4.7" height="1.3"/>
	<rect x="9.7" y="32" class="st0" width="4.7" height="1.3"/>
	<rect x="16.3" y="32" class="st0" width="4.7" height="1.3"/>
	<rect x="23" y="32" class="st0" width="4.7" height="1.3"/>
	<rect x="9.7" y="35.3" class="st0" width="4.7" height="1.3"/>
	<rect x="16.3" y="35.3" class="st0" width="4.7" height="1.3"/>
	<rect x="23" y="35.3" class="st0" width="4.7" height="1.3"/>
</g>
</svg>
