<?xml version="1.0" encoding="utf-8"?>
<!-- Generator: Adobe Illustrator 19.2.0, SVG Export Plug-In . SVG Version: 6.00 Build 0)  -->
<svg version="1.1" id="Layer_1" xmlns="http://www.w3.org/2000/svg" xmlns:xlink="http://www.w3.org/1999/xlink" x="0px" y="0px"
	 viewBox="0 0 40 40" style="enable-background:new 0 0 40 40;" xml:space="preserve">
<style type="text/css">
	.st0{fill:#FFFFFF;}
</style>
<g>
	<path class="st0" d="M3,40V6.1h4.5c-0.7,0.7-1.4,1.3-2,2c-0.3,0.4-0.6,1-0.6,1.4c0,8.7,0,17.4,0,26v0.8c0,0.1,0,0.3,0,0.4L5,38h30
		v-6.7c0-7.2,0-14.4,0-21.6C35,9,34.7,8.5,34.3,8c-0.6-0.6-1.3-1.2-1.9-1.9H37V40H3z"/>
	<path class="st0" d="M11.4,9.7c0.5-0.5,1.1-1.1,1.6-1.6c0.3-0.2,0.5-0.5,0.7-0.8C14.2,7,14.6,6.6,15,6.2c0.6-0.5,0.8-1.2,0.8-2
		c0-1.8,1.1-3.4,2.8-4C19,0.1,19.5,0,20,0c1.1,0,2.2,0.5,3,1.3s1.2,1.8,1.2,2.9c0,0.8,0.3,1.5,0.8,2c1.1,1.1,2.2,2.2,3.3,3.3
		l0.2,0.2H11.4z M20,1.3c-1.5,0-2.8,1.3-2.8,2.8c0,0.8,0.3,1.5,0.8,2S19.3,7,20,7c0.8,0,1.5-0.3,2-0.9c0.5-0.5,0.8-1.3,0.8-2
		C22.9,2.5,21.6,1.3,20,1.3L20,1.3L20,1.3z"/>
	<path class="st0" d="M12.2,23.1c0.1,0,0.1-0.1,0.2-0.1c1.7,1,1.3,0.5,3,1.5l0.6,0.3c0.2,0.1,0.4,0.2,0.6,0.4l1.7,1.2l1-1.2
		c3.3-3.9,8.4-9.3,12-12.1C27,18,21.9,25.7,19,30.8L12.2,23.1z"/>
</g>
</svg>
