<svg version="1.1" id="Capa_1" xmlns="http://www.w3.org/2000/svg" xmlns:xlink="http://www.w3.org/1999/xlink" x="0px" y="0px"
	 viewBox="0 122 579.2 508" enable-background="new 0 122 579.2 508" fill="#fff" width="50px" height="50px" xml:space="preserve">
<g>
	<path d="M452.2,432.9l2.4-1.6c0.7-0.5,1.1-1.2,1.1-2v-4.1c0-1.4-1.1-2.5-2.5-2.5h-1.4c-0.2-0.3-0.5-0.6-0.8-0.8
		c-0.7-0.5-1.6-0.5-2.3-0.2c-3.3,1.5-6.6,2.3-9.8,2.3c-5.6,0-10.8-2.3-15.2-6.9c-3.6-3.6-8.2-5.5-13.8-5.5c-7,0-13.8,2.9-17.2,4.5
		c-0.8,0.5-1.4,1.3-1.4,2.2v4.4h-1c-1.4,0-2.5,1.1-2.5,2.5v4.1c0,0.8,0.5,1.6,1.1,2l2.4,1.6l0.2,1.1c0.8,5.9,4.1,13.6,8.9,20.5
		c6.1,8.8,11.7,12.7,14.7,12.7h13.3c3,0,8.6-3.9,14.7-12.7c4.8-7,8.1-14.6,8.9-20.5L452.2,432.9z"/>
	<path d="M440,478.2c-0.8-0.5-1.7-0.5-2.4-0.1c-2,1.1-4,1.8-6,2.1c-1.2,0.2-2,1.2-2,2.4v6.2c-0.4,0.2-0.7,0.4-0.9,0.7
		c-0.5,0.5-0.7,1.2-0.6,1.9l1.4,13.2c0.1,1,0.8,1.9,1.8,2.1c0.2,0.1,0.5,0.1,0.7,0.1c0.8,0,1.5-0.4,2-1l7-9.2c0.3-0.5,0.5-1,0.5-1.5
		v-14.8C441.1,479.5,440.6,478.6,440,478.2z"/>
	<path d="M421.8,315.2c-86.9,0-157.4,70.5-157.4,157.4S334.8,630,421.8,630s157.4-70.5,157.4-157.4S508.8,315.2,421.8,315.2z
		 M503.8,580.8H339.8c-4,0-7.4-3.3-7.4-7.4c0-0.4,0.1-0.8,0.1-1.1l0,0c0,0,11.6-83.9,31.1-89.4l27.6-8.3c0.7-2,2.1-3.8,4.2-5.2
		c-2.3-2.5-4.2-5.1-5.7-7.2c-3.5-5-6.4-10.4-8.3-15.6c-1-2.2-1.8-4.4-2.5-6.6c-2.7-2.3-4.2-5.6-4.2-9.2v-8.6c0-2.5,0.8-4.9,2.2-6.9
		v-12.1c0-21.3,17.4-38.6,38.6-38.6h12.5c21.3,0,38.6,17.4,38.6,38.6v12.1c1.4,2,2.2,4.4,2.2,6.9v8.6c0,3.6-1.6,6.9-4.2,9.2
		c-0.7,2.2-1.5,4.4-2.5,6.6c-2,5.2-4.8,10.6-8.3,15.6c-1.4,2.1-3.4,4.7-5.7,7.2c2,1.4,3.6,3.2,4.2,5.2l27.6,8.3
		c19.4,5.6,31.1,87.1,31.1,90.6C511.1,577.5,507.9,580.8,503.8,580.8z"/>
	<path d="M414.2,488.9v-6.2c0-1.2-0.8-2.2-2-2.4c-2-0.4-4-1.1-6-2.1c-0.8-0.4-1.7-0.4-2.4,0.1c-0.8,0.5-1.2,1.3-1.2,2.1v14.8
		c0,0.5,0.2,1.1,0.5,1.5l7,9.2c0.5,0.6,1.2,1,2,1c0.2,0,0.5,0,0.7-0.1c1-0.3,1.7-1.1,1.8-2.1l1.4-13.2c0.1-0.7-0.2-1.4-0.6-1.9
		C414.9,489.2,414.6,489,414.2,488.9z"/>
</g>
<g>
	<path fill="none" d="M69.8,510.4c29.4,29.2,93.8,49.3,165.5,49.3c12.9,0,25.5-0.6,37.8-1.9c-4.2-7.3-7.8-14.9-10.9-22.8
		c-16.9,2.2-34.5,3.4-52.4,3.4C157.2,538.4,107.6,528.4,69.8,510.4z"/>
	<path fill="none" d="M314.7,338.7c-31.4,9.5-67.4,14.6-105,14.6c-37.9,0-74.3-5.2-105.9-14.9c29.2,29.4,93.9,49.7,165.9,49.7
		c1,0,1.9,0,2.9,0C283.4,369.1,297.7,352.3,314.7,338.7z"/>
	<path fill="none" d="M386,218.9c-5.9-15.1-22.1-29.8-46.3-41.6c-34.5-16.8-80.7-26.1-130-26.1s-95.5,9.3-130,26.1
		c-24.2,11.8-40.4,26.5-46.3,41.6c21,36.5,93.8,63.1,176.3,63.1S365.1,255.3,386,218.9z M188.6,245.4c-2.1-2.3-1.5-4.9,1.7-6.9
		l7.3-4.7c3.7-2.4,10.3-3.6,16.9-3.1c8.2,0.6,16.4-0.8,24.3-4.2c12.2-5.3,7.3-7.4,5.7-8.1c-2.3-1-4.8-1.4-8-1.1
		c-3.2,0.2-7.9,1.2-13.8,3c-23.8,6.9-41.8,10.1-53.4,9.7c-11.8-0.4-21.6-2.4-29.9-6c-9-3.9-14.1-8.8-15.2-14.4
		c-1.1-5.4,3.2-11.1,12.7-17l-13.7-6c-6.6-2.9-6.6-7.5,0-10.4c6.6-2.9,17.2-2.9,23.8,0l14,6.1c12.2-3.6,24.3-5.3,36.9-5.1
		c5.8,0.1,11.1,1.5,14,3.6c2.9,2.2,3.1,4.9,0.4,7.1l-4.2,3.5c-3.1,2.6-9.3,4.1-15.9,3.9c-6.6-0.2-13,1.1-19,3.7
		c-4.8,2.1-9.4,5.1-3.9,7.5c1.5,0.7,3.5,1,5.7,1c2.3,0,7-1,13.8-2.9c15.7-4.4,27.7-7.4,35.6-8.9c8-1.5,16.7-1.9,25.9-1.2
		c9.2,0.7,17.6,2.7,25,5.9c10.3,4.5,15.4,10,15,16.2c-0.3,5.3-4.7,10.8-13.2,16.1l19.2,8.4c6.6,2.9,6.6,7.5,0,10.4
		c-6.6,2.9-17.2,2.9-23.8,0l-18.5-8.1c-17.1,5.7-35,7.8-53,6.2C195.3,249.3,190.7,247.6,188.6,245.4z"/>
	<path fill="none" d="M67,369.3c-17.2,10.4-28.8,22.4-33.6,34.6c21,36.5,93.8,63.1,176.3,63.1c14,0,27.7-0.8,40.9-2.2
		c0.1-1.9,0.2-3.8,0.3-5.7c-46.1-2.1-89.1-12-122.6-28.3C94.8,414.5,73.6,393.1,67,369.3z"/>
	<path fill="none" d="M381.4,306c13-3.1,26.5-4.8,40.4-4.8c2,0,4,0,6,0.1c-7-5.9-15.6-11.5-25.7-16.6
		C396.7,292.2,389.8,299.3,381.4,306z"/>
	<path d="M253.8,243.7l18.5,8.1c6.6,2.9,17.2,2.9,23.8,0c6.6-2.9,6.6-7.5,0-10.4L277,233c8.4-5.3,12.8-10.8,13.2-16.1
		c0.4-6.3-4.7-11.7-15-16.2c-7.4-3.2-15.8-5.2-25-5.9c-9.2-0.7-17.9-0.3-25.9,1.2c-7.9,1.5-19.9,4.5-35.6,8.9
		c-6.8,1.9-11.5,2.9-13.8,2.9c-2.2,0-4.2-0.3-5.7-1c-5.5-2.4-0.9-5.4,3.9-7.5c6-2.6,12.4-3.8,19-3.7c6.6,0.2,12.9-1.4,15.9-3.9
		l4.2-3.5c2.7-2.2,2.5-4.9-0.4-7.1c-2.9-2.2-8.2-3.6-14-3.6c-12.6-0.2-24.7,1.5-36.9,5.1l-14-6.1c-6.6-2.9-17.2-2.9-23.8,0
		c-6.6,2.9-6.6,7.5,0,10.4l13.7,6c-9.5,5.8-13.8,11.5-12.7,17c1.1,5.6,6.2,10.4,15.2,14.4c8.3,3.6,18.1,5.6,29.9,6
		c11.6,0.4,29.6-2.9,53.4-9.7c5.9-1.7,10.6-2.7,13.8-3c3.2-0.2,5.7,0.1,8,1.1c1.6,0.7,6.4,2.8-5.7,8.1c-7.9,3.5-16.1,4.9-24.3,4.2
		c-6.5-0.5-13.1,0.7-16.9,3.1l-7.3,4.7c-3.2,2-3.8,4.6-1.7,6.9c2.1,2.3,6.7,4,12.2,4.4C218.8,251.4,236.7,249.4,253.8,243.7z"/>
	<path d="M273,557.8c-12.2,1.2-24.9,1.9-37.8,1.9c-71.7,0-136-20.1-165.5-49.3c37.8,18,87.4,28,139.9,28c17.9,0,35.5-1.2,52.4-3.4
		c-7.6-19.3-11.7-40.4-11.7-62.4c0-2.6,0.1-5.2,0.2-7.8c-13.2,1.4-26.9,2.2-40.9,2.2c-82.5,0-155.4-26.6-176.3-63.1
		c4.8-12.3,16.5-24.2,33.6-34.6c6.6,23.8,27.8,45.2,61.3,61.6c33.5,16.3,76.5,26.1,122.6,28.3c2-25.7,9.6-49.7,21.7-71
		c-0.9,0-1.9,0-2.9,0c-72,0-136.7-20.3-165.9-49.7c31.6,9.7,67.9,14.9,105.9,14.9c37.6,0,73.7-5.1,105-14.6
		c19.3-15.4,41.9-26.8,66.6-32.7c8.4-6.7,15.3-13.8,20.6-21.3c10.1,5.1,18.7,10.7,25.7,16.6c13.4,0.5,26.3,2.4,38.7,5.8
		c-9.7-17.6-27.9-33.4-53.5-46.1c1.1-4.6,1.7-9.4,1.7-14.1v-15.1c0-30.2-22.6-57.9-63.6-77.8c-38-18.5-88.2-28.7-141.4-28.7
		c-53.2,0-103.4,10.2-141.4,28.7c-41,20-63.6,47.6-63.6,77.8v15.1c0,29.8,22,57.1,61.9,77c-1.1,4.6-1.8,10.4-1.8,14.1v2.8
		C26,360.4,4.7,387.3,4.7,416.7v15.1c0,20.4,10.3,39.6,29.5,56.1c-2.6,7-4,14.1-4,21.5v15.1c0,30.2,22.6,57.9,63.6,77.8
		c38,18.5,88.2,28.7,141.4,28.7c34.4,0,67.5-4.3,96.9-12.3C307.7,603.7,287.3,582.7,273,557.8z M33.3,218.9
		c5.9-15.1,22.1-29.8,46.3-41.6c34.5-16.8,80.7-26.1,130-26.1s95.5,9.3,130,26.1c24.2,11.8,40.4,26.5,46.3,41.6
		c-21,36.5-93.8,63.1-176.3,63.1S54.3,255.3,33.3,218.9z"/>
	<path d="M381.4,306c-24.7,6-47.4,17.3-66.6,32.7c13-4,25.2-8.7,36.4-14.1C362.7,319,372.8,312.7,381.4,306z"/>
</g>
</svg>