<?xml version="1.0" encoding="utf-8"?>
<!-- Generator: Adobe Illustrator 19.2.0, SVG Export Plug-In . SVG Version: 6.00 Build 0)  -->
<svg version="1.1" id="Layer_1" xmlns="http://www.w3.org/2000/svg" xmlns:xlink="http://www.w3.org/1999/xlink" x="0px" y="0px"
	 viewBox="0 0 40 40" style="enable-background:new 0 0 40 40;" xml:space="preserve">
<style type="text/css">
	.st0{fill:#FFFFFF;}
</style>
<g>
	<path class="st0" d="M31.7,22.3c-4.6,0-8.3,3.7-8.3,8.3s3.7,8.3,8.3,8.3s8.3-3.7,8.3-8.3C40,26.1,36.3,22.3,31.7,22.3L31.7,22.3z
		 M31.7,37.5c-3.8,0-6.9-3.1-6.9-6.9s3.1-6.9,6.9-6.9s6.9,3.1,6.9,6.9S35.5,37.5,31.7,37.5L31.7,37.5z"/>
	<path class="st0" d="M35.9,29.9h-3.4v-3.4c0-0.4-0.3-0.7-0.7-0.7c-0.4,0-0.7,0.3-0.7,0.7v4.1c0,0.4,0.3,0.7,0.7,0.7h4.1
		c0.4,0,0.7-0.3,0.7-0.7S36.2,29.9,35.9,29.9L35.9,29.9z"/>
	<path class="st0" d="M22.8,35.9H1.4V11h33.1v9c0,0.4,0.3,0.7,0.7,0.7s0.7-0.3,0.7-0.7V3.4c0-0.4-0.3-0.7-0.7-0.7h-3.4v-2
		C31.7,0.3,31.4,0,31,0h-4.8c-0.4,0-0.7,0.3-0.7,0.7v2.1H10.3V0.7C10.3,0.3,10,0,9.7,0H4.8C4.4,0,4.1,0.3,4.1,0.7v2.1H0.7
		C0.3,2.8,0,3.1,0,3.4v33.2c0,0.4,0.3,0.7,0.7,0.7h22.1c0.4,0,0.7-0.3,0.7-0.7C23.4,36.2,23.1,35.9,22.8,35.9L22.8,35.9z M26.9,1.4
		h3.4v4.1h-3.4V1.4z M5.5,1.4H9v4.1H5.5V1.4z M1.4,4.1h2.8v2.1c0,0.4,0.3,0.7,0.7,0.7h4.8c0.4,0,0.7-0.3,0.7-0.7V4.1h15.2v2.1
		c0,0.4,0.3,0.7,0.7,0.7H31c0.4,0,0.7-0.3,0.7-0.7V4.1h2.8v5.5H1.4V4.1z"/>
	<rect x="6.7" y="14" class="st0" width="3.5" height="3.5"/>
	<rect x="15.6" y="14" class="st0" width="3.5" height="3.5"/>
	<rect x="6.7" y="21.1" class="st0" width="3.5" height="3.5"/>
	<rect x="15.6" y="21.1" class="st0" width="3.5" height="3.5"/>
	<rect x="6.7" y="28.2" class="st0" width="3.5" height="3.5"/>
	<rect x="15.6" y="28.2" class="st0" width="3.5" height="3.5"/>
	<rect x="24.5" y="14" class="st0" width="3.5" height="3.5"/>
</g>
</svg>
