<?xml version="1.0" encoding="utf-8"?>
<!-- Generator: Adobe Illustrator 19.2.0, SVG Export Plug-In . SVG Version: 6.00 Build 0)  -->
<svg version="1.1" id="Layer_1" xmlns="http://www.w3.org/2000/svg" xmlns:xlink="http://www.w3.org/1999/xlink" x="0px" y="0px"
	 viewBox="0 0 40 40" style="enable-background:new 0 0 40 40;" xml:space="preserve">
<style type="text/css">
	.st0{fill:#686868;}
</style>
<g>
	<path class="st0" d="M25.4,21h5.9v-7.2H6.4v19h13.1V21H25.4z M25.4,15.1H30v4.6h-4.6V15.1z M13.6,15.1h4.6v4.6h-4.6V15.1z
		 M7.7,15.1h4.6v4.6H7.7V15.1z M7.7,21h4.6v4.6H7.7V21z M12.3,31.4H7.7v-4.6h4.6V31.4z M18.2,31.4h-4.6v-4.6h4.6V31.4z M18.2,25.5
		h-4.6V21h4.6V25.5z M19.5,19.6v-4.6h4.6v4.6H19.5z M19.5,19.6"/>
	<path class="st0" d="M18.9,36H3.1V10.5h31.4v11.1c0,0.4,0.3,0.7,0.7,0.7c0.4,0,0.7-0.3,0.7-0.7V3.3c0-0.4-0.3-0.7-0.7-0.7H32v-2
		C32,0.3,31.7,0,31.3,0h-4.6c-0.4,0-0.7,0.3-0.7,0.7v2H11.7v-2C11.7,0.3,11.4,0,11,0H6.4C6,0,5.8,0.3,5.8,0.7v2H2.5
		c-0.4,0-0.7,0.3-0.7,0.7v33.4c0,0.4,0.3,0.7,0.7,0.7h16.4c0.4,0,0.7-0.3,0.7-0.7C19.5,36.3,19.2,36,18.9,36L18.9,36z M27.4,1.3h3.3
		v3.9h-3.3V1.3z M7.1,1.3h3.3v3.9H7.1V1.3z M3.1,3.9h2.6v2c0,0.4,0.3,0.7,0.7,0.7H11c0.4,0,0.7-0.3,0.7-0.7v-2h14.4v2
		c0,0.4,0.3,0.7,0.7,0.7h4.6c0.4,0,0.7-0.3,0.7-0.7v-2h2.6v5.2H3.1V3.9z M3.1,3.9"/>
	<g>
		<path class="st0" d="M29.8,35.4c-2.1,0-3.8-1.7-3.8-3.8s1.7-3.8,3.8-3.8s3.8,1.7,3.8,3.8S31.9,35.4,29.8,35.4z M29.8,29.4
			c-1.2,0-2.3,1-2.3,2.3c0,1.2,1,2.3,2.3,2.3c1.2,0,2.3-1,2.3-2.3C32.1,30.4,31,29.4,29.8,29.4z"/>
		<path class="st0" d="M29.1,40c-0.6,0-1.2-0.5-1.3-1.1L27.6,38c-0.3-0.1-0.5-0.2-0.8-0.3l-0.8,0.6c-0.2,0.2-0.5,0.2-0.8,0.2
			c-0.3,0-0.7-0.1-0.9-0.4l-1-1c-0.5-0.5-0.5-1.2-0.1-1.7l0.6-0.8c-0.1-0.3-0.2-0.5-0.3-0.8l-1-0.2c-0.6-0.1-1.1-0.7-1.1-1.3v-1.4
			c0-0.6,0.5-1.2,1.1-1.3l0.9-0.2c0.1-0.3,0.2-0.5,0.3-0.8l-0.6-0.8c-0.4-0.5-0.3-1.2,0.1-1.7l1-1c0.2-0.2,0.6-0.4,0.9-0.4
			c0.3,0,0.5,0.1,0.8,0.2l0.8,0.6c0.3-0.1,0.5-0.2,0.8-0.3l0.2-1c0.1-0.6,0.6-1.1,1.3-1.1h1.4c0.6,0,1.2,0.5,1.3,1.1l0.2,0.9
			c0.3,0.1,0.6,0.2,0.8,0.3l0.8-0.6c0.2-0.2,0.5-0.2,0.8-0.2c0.3,0,0.7,0.1,0.9,0.4l1,1c0.5,0.5,0.5,1.2,0.1,1.7l-0.6,0.8
			c0.1,0.3,0.2,0.5,0.3,0.8l0.9,0.2c0.6,0.1,1.1,0.7,1.1,1.3v1.4c0,0.6-0.5,1.2-1.1,1.3l-0.9,0.2c-0.1,0.3-0.2,0.5-0.3,0.8l0.6,0.8
			c0.4,0.5,0.3,1.2-0.1,1.7l-1,1c-0.2,0.2-0.6,0.4-0.9,0.4c-0.3,0-0.5-0.1-0.8-0.2l-0.8-0.6c-0.3,0.1-0.5,0.2-0.8,0.3l-0.2,0.9
			c-0.1,0.6-0.6,1.1-1.3,1.1H29.1z M30.3,38.5l0.2-1.2c0-0.3,0.3-0.5,0.6-0.6c0.5-0.1,0.9-0.3,1.3-0.6c0.1-0.1,0.3-0.1,0.4-0.1
			c0.2,0,0.3,0,0.4,0.1l1,0.7l0.7-0.7l-0.7-1c-0.2-0.2-0.2-0.6,0-0.8c0.2-0.4,0.4-0.9,0.6-1.3c0.1-0.3,0.3-0.5,0.6-0.6l1.2-0.2v-1
			l-1.2-0.2c-0.3,0-0.5-0.3-0.6-0.6c-0.1-0.5-0.3-0.9-0.6-1.3c-0.2-0.3-0.1-0.6,0-0.8l0.7-1l-0.7-0.7l-1,0.7
			c-0.1,0.1-0.3,0.1-0.4,0.1c-0.1,0-0.3,0-0.4-0.1c-0.4-0.3-0.9-0.4-1.4-0.6c-0.3-0.1-0.5-0.3-0.6-0.6l-0.2-1.2h-1L29.1,26
			c-0.1,0.3-0.3,0.5-0.6,0.6c-0.5,0.1-0.9,0.3-1.3,0.6c-0.1,0.1-0.3,0.1-0.4,0.1c-0.2,0-0.3,0-0.4-0.1l-1-0.7l-0.7,0.7l0.7,1
			c0.2,0.2,0.2,0.6,0,0.8c-0.2,0.4-0.4,0.9-0.5,1.3c-0.1,0.3-0.3,0.5-0.6,0.6L23,31.1v1l1.2,0.2c0.3,0.1,0.5,0.3,0.6,0.6
			c0.1,0.5,0.3,0.9,0.6,1.3c0.2,0.3,0.1,0.6,0,0.8l-0.7,1l0.7,0.7l1-0.7c0.1-0.1,0.3-0.1,0.4-0.1c0.1,0,0.3,0,0.4,0.1
			c0.4,0.2,0.9,0.4,1.3,0.5c0.3,0.1,0.5,0.3,0.6,0.6l0.2,1.2H30.3z"/>
	</g>
</g>
</svg>
