<?xml version="1.0" encoding="utf-8"?>
<!-- Generator: Adobe Illustrator 18.0.0, SVG Export Plug-In . SVG Version: 6.00 Build 0)  -->
<!DOCTYPE svg PUBLIC "-//W3C//DTD SVG 1.1//EN" "http://www.w3.org/Graphics/SVG/1.1/DTD/svg11.dtd">
<svg version="1.1" id="Capa_1" xmlns="http://www.w3.org/2000/svg" xmlns:xlink="http://www.w3.org/1999/xlink" x="0px" y="0px"
	 viewBox="0 0 380 380" enable-background="new 0 0 380 380" xml:space="preserve">
<g>
	<path fill="#FFFFFF" d="M49.2,60.9v-47c0-6.5,5.3-11.7,11.7-11.7s11.7,5.3,11.7,11.7v47c0,6.5-5.3,11.7-11.7,11.7
		S49.2,67.4,49.2,60.9z M249,72.7c6.5,0,11.7-5.3,11.7-11.7V14c0-6.5-5.3-11.7-11.7-11.7S237.3,7.5,237.3,14v47
		C237.3,67.4,242.6,72.7,249,72.7z M96.2,143.2h-47v47h47V143.2z M49.2,260.8h47v-47h-47V260.8z M119.8,190.2h47v-47h-47
		C119.8,143.2,119.8,190.2,119.8,190.2z M119.8,260.8h47v-47h-47C119.8,213.8,119.8,260.8,119.8,260.8z M25.7,281.9V119.7h258.6v47
		h23.5V75.1c0-14.3-11.4-25.9-25.5-25.9h-9.8v11.7c0,12.9-10.5,23.5-23.5,23.5s-23.5-10.6-23.5-23.5V49.2h-141v11.7
		c0,12.9-10.5,23.5-23.5,23.5S37.4,73.9,37.4,60.9V49.2h-9.7c-14.1,0-25.5,11.6-25.5,25.9v206.9c0,14.3,11.4,25.9,25.5,25.9h139.1
		v-23.5H27.7C26.6,284.3,25.7,283.2,25.7,281.9z M237.3,190.2v-47h-47v47H237.3z M284.2,268.2c8.7,0,15.9,7.1,15.9,15.9
		s-7.1,15.9-15.9,15.9s-15.9-7.1-15.9-15.9C268.3,275.4,275.4,268.2,284.2,268.2z M372.4,268.4l-22.2-4.2c-1.4-4.5-3.1-8.8-5.3-12.8
		l12.8-18.7c1.2-1.8,1-4.4-0.5-5.8L341.5,211c-1.5-1.5-4.1-1.8-5.8-0.5l-18.7,12.8c-4.2-2.3-8.6-4.1-13.2-5.4l-4.1-22.1
		c-0.4-2-2.4-3.7-4.5-3.7h-22.3c-2.2,0-4.1,1.7-4.5,3.7l-4.2,22.2c-4.4,1.4-8.7,3.1-12.7,5.3l-18.7-12.7c-1.8-1.2-4.4-1-5.8,0.5
		l-15.9,15.9c-1.5,1.5-1.8,4.1-0.5,5.8l12.7,18.7c-2.2,4-3.9,8.2-5.2,12.7l-22.2,4.1c-2,0.4-3.7,2.4-3.7,4.5v22.5
		c0,2.2,1.7,4.1,3.7,4.5l22.1,4.1c1.4,4.5,3.1,8.9,5.3,12.9l-12.5,18.5c-1.2,1.8-1,4.4,0.5,5.8l15.8,15.8c1.5,1.5,4.1,1.8,5.8,0.6
		l18.4-12.7c4,2.2,8.2,3.9,12.5,5.2l4.2,22.2c0.4,2,2.4,3.7,4.5,3.7h22.3c2.2,0,4.1-1.7,4.5-3.7l4.1-22.1c4.5-1.4,9-3.1,13.1-5.3
		l18.7,12.8c1.8,1.2,4.4,1,5.8-0.6l15.8-15.8c1.5-1.5,1.8-4.1,0.6-5.8L344.7,317c2.2-4.1,4.1-8.5,5.4-13.1l22.1-4.1
		c2-0.4,3.7-2.4,3.7-4.5V273C376.1,270.8,374.5,268.9,372.4,268.4z M284.2,322.5c-21.1,0-38.4-17.2-38.4-38.4
		c0-21.1,17.2-38.4,38.4-38.4s38.4,17.2,38.4,38.4C322.6,305.4,305.4,322.5,284.2,322.5z"/>
</g>
</svg>
