<?xml version="1.0" encoding="utf-8"?>
<!-- Generator: Adobe Illustrator 19.2.0, SVG Export Plug-In . SVG Version: 6.00 Build 0)  -->
<svg version="1.1" id="Layer_1" xmlns="http://www.w3.org/2000/svg" xmlns:xlink="http://www.w3.org/1999/xlink" x="0px" y="0px"
	 viewBox="0 0 40 40" style="enable-background:new 0 0 40 40;" xml:space="preserve">
<style type="text/css">
	.st0{fill:#FFFFFF;}
</style>
<g>
	<path class="st0" d="M19,39c-6.8,0-13.1-3.7-16.5-9.7c-2-3.5-2.9-7.7-2.4-11.7c0.5-4.2,2.4-8,5.4-11.1C9.2,2.9,14,0.9,19,0.9
		c3.2,0,6.4,0.8,9.3,2.4c7.6,4.2,10.3,12.1,9.7,18c-0.3,0-0.5-0.1-0.8-0.1c-0.5-0.8-1.2-1.3-2.1-1.4c-0.2-5.5-2.6-9.9-6.9-13
		c-2.7-1.9-5.7-2.9-9-2.9c-0.6,0-1.2,0-1.8,0.1C8.5,4.9,2.2,12.6,3,21.6C3.7,28.7,9.9,36,19.1,36c0,0,0,0,0,0c0.7,0,1.5,0,2.2-0.1
		c0.1,1.1,0.3,2,0.8,2.8C21.1,38.9,20.1,39,19,39z"/>
	<path class="st0" d="M15.5,22.1c-1.6,0-2.8,0-4,0c-0.7,0-1.3-0.5-1.4-1.2c-0.1-0.8,0.3-1.4,1-1.6c0.2-0.1,0.5-0.1,0.7-0.1
		c0.7,0,1.5,0,2.2,0l3.1,0c0.3,0,0.8-0.3,0.8-0.6V17c0-0.7-0.2-1.4-0.2-2.1c0-1.6-0.1-3.2-0.1-4.8c0-0.9,0.6-1.6,1.4-1.6
		c0.2,0,0.3,0,0.5,0.1c0.6,0.2,1.2,0.8,1.2,1.6c0,2.4,0.2,4.9,0.2,7.3v3c0,1.1-1.1,1.5-2.2,1.5h-0.4C17.4,22,16.4,22.1,15.5,22.1z"
		/>
	<path class="st0" d="M26.7,23c0,0.6,0,1.2,0,1.8c-0.1,0-0.3,0-0.4,0C25.5,25,25,25.5,25,26.3c0,0.7,0,1.4,0,2.1c0,2.4,0,4.8,0,7.2
		c0,1.3,0.5,1.8,1.8,1.8c3.2,0,6.4,0,9.7,0c1.2,0,1.7-0.5,1.7-1.7c0-2.9,0-5.8,0-8.7c0-1.4-0.3-1.8-1.7-2c0-0.6,0-1.1,0-1.7
		c1-0.3,2.5,0.4,3,1.5c0.3,0.5,0.5,1.2,0.5,1.8c0,3.1,0,6.2,0,9.3c0,1.7-0.9,2.9-2.4,3.3c-0.4,0.1-0.8,0.1-1.2,0.1
		c-3.2,0-6.4,0-9.7,0c-2.3,0-3.6-1.3-3.6-3.6c0-3,0-6.1,0-9.1c0-1.6,0.9-2.9,2.4-3.3C25.9,23.1,26.3,23.1,26.7,23z"/>
	<path class="st0" d="M29.6,25.2c0.1,0.5-0.1,0.8-0.6,1.1c-0.4,0.2-0.9,0.2-1.3-0.2c-0.3-0.3-0.6-0.7-0.4-1.1c0.3-0.7,0.2-1.3,0.2-2
		c0-0.9,0.3-1.3,0.9-1.3c0.6,0,0.9,0.5,1,1.3C29.4,23.7,29.5,24.4,29.6,25.2z"/>
	<path class="st0" d="M33.7,23.4c0-0.3,0-0.5,0-0.8c0-0.6,0.4-1,0.9-1c0.5,0,0.9,0.4,0.9,0.9c0,0.3,0,0.7,0,1c0,0.4,0.1,0.8,0.2,1.2
		c0.1,0.5,0,1-0.4,1.3c-0.4,0.3-0.9,0.3-1.4,0c-0.4-0.3-0.6-0.8-0.5-1.3C33.6,24.4,33.7,23.9,33.7,23.4
		C33.8,23.4,33.8,23.4,33.7,23.4z"/>
	<path class="st0" d="M30.5,25.2c0.1-0.9,0.1-1.9,0.2-2.8c0-0.5,0.4-0.8,0.9-0.8c0.4,0,0.8,0.3,0.9,0.8c0,0.4,0,0.7,0,1.1
		c0,0.5,0.1,0.9,0.2,1.4c0.1,0.5,0,0.9-0.3,1.2c-0.4,0.3-0.8,0.4-1.3,0.2C30.6,26.1,30.4,25.7,30.5,25.2z"/>
	<path class="st0" d="M30.4,35c0-0.6,0.5-1.2,1.2-1.2c0.6,0,1.2,0.6,1.2,1.2c0,0.6-0.6,1.2-1.2,1.2C30.9,36.2,30.4,35.7,30.4,35z"/>
	<path class="st0" d="M35.6,29.8c-0.6,0-1.2-0.5-1.2-1.2c0-0.6,0.6-1.2,1.2-1.2c0.6,0,1.2,0.6,1.2,1.2
		C36.8,29.2,36.2,29.8,35.6,29.8z"/>
	<path class="st0" d="M28.7,31.8c0,0.6-0.5,1.2-1.2,1.2c-0.6,0-1.2-0.5-1.2-1.2c0-0.6,0.5-1.2,1.2-1.2
		C28.2,30.6,28.7,31.2,28.7,31.8z"/>
	<path class="st0" d="M31.6,33c-0.6,0-1.2-0.5-1.2-1.2c0-0.7,0.5-1.2,1.2-1.2c0.6,0,1.2,0.5,1.2,1.2C32.8,32.4,32.2,33,31.6,33z"/>
	<path class="st0" d="M35.6,33.8c0.6,0,1.2,0.6,1.2,1.2c0,0.6-0.6,1.2-1.2,1.2c-0.6,0-1.2-0.6-1.2-1.2
		C34.4,34.4,34.9,33.8,35.6,33.8z"/>
	<path class="st0" d="M35.6,33c-0.6,0-1.2-0.6-1.2-1.2c0-0.6,0.6-1.2,1.2-1.2c0.6,0,1.2,0.5,1.2,1.2C36.7,32.4,36.2,33,35.6,33z"/>
	<path class="st0" d="M27.6,33.8c0.6,0,1.2,0.6,1.2,1.2c0,0.6-0.6,1.2-1.2,1.2c-0.6,0-1.2-0.6-1.2-1.2
		C26.4,34.4,26.9,33.8,27.6,33.8z"/>
</g>
</svg>
