<svg xmlns="http://www.w3.org/2000/svg" viewBox="0 0 14.765 8.958">
  <defs>
    <style>
      .cls-1 {
        fill: #fff;
      }
    </style>
  </defs>
   <g id="Group_3169" data-name="Group 3169" transform="translate(-0.087 -0.003)">
    <path id="Path_1656" data-name="Path 1656" class="cls-1" d="M.822,3.77A7.82,7.82,0,0,0,5.754,6.721a8.07,8.07,0,0,0,8.083-3.07c.156-.193.326-.289.534-.126s.119.371-.022.549a8.431,8.431,0,0,1-5.295,3.27A8.715,8.715,0,0,1,.348,4.222C0,3.814.007,3.747.333,3.332A8.955,8.955,0,0,1,13.28,2.294c.052.052.1.1.163.156.163.156.237.334.052.512s-.341.089-.519-.044A16.073,16.073,0,0,0,11.108,1.6,8.253,8.253,0,0,0,1.126,3.4C1.03,3.51.941,3.629.822,3.77Z" transform="translate(0 0)"/>
    <path id="Path_1657" data-name="Path 1657" class="cls-1" d="M62.373,18.846A2.773,2.773,0,1,1,65.161,16.1,2.738,2.738,0,0,1,62.373,18.846Zm.022-4.9a2.128,2.128,0,1,0,2.121,2.128A2.162,2.162,0,0,0,62.4,13.945Z" transform="translate(-55.1 -12.311)"/>
    <path id="Path_1658" data-name="Path 1658" class="cls-1" d="M73,28.409A1.8,1.8,0,0,1,74.706,26.6c.208,0,.378.044.393.289s-.111.319-.326.356c-.756.141-.994.378-1.127,1.1-.037.222-.133.415-.371.341C73.141,28.647,73.044,28.454,73,28.409Z" transform="translate(-67.506 -24.625)"/>
  </g>
</svg>
