<?xml version="1.0" encoding="utf-8"?>
<!-- Generator: Adobe Illustrator 18.0.0, SVG Export Plug-In . SVG Version: 6.00 Build 0)  -->
<!DOCTYPE svg PUBLIC "-//W3C//DTD SVG 1.1//EN" "http://www.w3.org/Graphics/SVG/1.1/DTD/svg11.dtd">
<svg version="1.1" id="Capa_1" xmlns="http://www.w3.org/2000/svg" xmlns:xlink="http://www.w3.org/1999/xlink" x="0px" y="0px"
	 viewBox="0 0 380 380" enable-background="new 0 0 380 380" xml:space="preserve">
<g>
	<path fill="#FFFFFF" d="M116.5,3.5C107.2,0.7,99.6,6.4,99.6,16v204c-2.1,11.5-4.3,12.6-11.7,22.4l-42.7,42.9
		c-8.9,6.3-7.7,14.3,1.3,17.9l172.7,71.3c9.1,3.6,22.6,1.7,30.2-4.3l35.7-35.4c7.7-6,23.3-30,23.3-39.6V130.1
		c0-9.7,4.6-23.9,10.2-31.7l20.6-29.3L116.5,3.5z M283.4,104.9c0,0-6,13-4.8,34.8l1.3,140.5c0,0,2.5,16.4-13,32.2l-18.3,18
		c-0.2,0.2-0.3,0.3-0.5,0.5c-1.7,1.8-22.9,14.6-44.4-0.2L84.7,279.4l25.1-25.3c0,0,13.8-11.1,17.6-54.6V37.5l166.7,51L283.4,104.9z
		 M217.1,223v13.8c0,1.7-1.3,2.9-2.9,2.9h-20.2c-1.7,0-2.9-1.3-2.9-2.9v-14.3c0-0.2,0-0.2-0.2-0.3c-10.8-2.6-20.6-8.3-27.4-15.4
		l-4-4.2c-0.5-0.5-0.8-1.1-0.6-2c0-0.6,0.3-1.4,0.8-2l14.8-14c1.1-1.1,3.1-0.9,4.2,0.2l3.7,4c5.1,5.4,14.2,9.1,22.4,9.1
		c6.6,0,17.7-1.7,17.9-8.3c0-5.7-2.5-8-19.7-13.1c-14.8-4.6-39.5-12.2-39.5-39.9c0-15.6,10.8-27.9,27.8-32.7c0.2,0,0.2-0.2,0.2-0.2
		V88.8c0-1.7,1.3-2.9,2.9-2.9h20.2c1.7,0,2.9,1.3,2.9,2.9v13.4c0,0.2,0.2,0.2,0.2,0.3c8.9,1.3,17.4,4.3,23.9,8.6l4.8,3.1
		c1.3,0.8,1.8,2.8,0.8,4l-10.9,16.9c-0.8,1.3-2.8,1.8-4,0.8l-4.8-3.1c-4.6-2.9-12.6-5.2-19.3-5.2c-7,0-18.7,1.8-18.7,8.9
		c0,6.6,2.8,9.4,21.1,15.1c15.3,4.8,38.4,11.7,38,38.2c0,16.8-12,29.3-31.1,32.8C217.1,222.8,217.1,223,217.1,223z M226.8,319.1
		l-107.9-43.2c-2.9-1.1-4.3-4.6-3.1-7.4l0,0c1.1-2.9,4.6-4.3,7.4-3.1l107.9,43.2c2.9,1.1,4.3,4.6,3.1,7.4l0,0
		C233.1,319,229.6,320.5,226.8,319.1z M247.2,294.3L139.3,251c-2.9-1.1-4.3-4.6-3.1-7.4l0,0c1.1-2.9,4.6-4.3,7.4-3.1l107.9,43.2
		c2.9,1.1,4.3,4.6,3.1,7.4l0,0C253.5,294,250.1,295.4,247.2,294.3z"/>
</g>
</svg>
