<?xml version="1.0" encoding="utf-8"?>
<!-- Generator: Adobe Illustrator 19.2.0, SVG Export Plug-In . SVG Version: 6.00 Build 0)  -->
<svg version="1.1" id="Layer_1" xmlns="http://www.w3.org/2000/svg" xmlns:xlink="http://www.w3.org/1999/xlink" x="0px" y="0px"
	 viewBox="0 0 40 40" style="enable-background:new 0 0 40 40;" xml:space="preserve">
<style type="text/css">
	.st0{fill:#FFFFFF;}
</style>
<g>
	<g>
		<path class="st0" d="M8.7,3.7C8.7,1.7,7,0,5,0C3,0,1.3,1.7,1.3,3.7c0,2,1.7,3.7,3.7,3.7C7,7.4,8.7,5.7,8.7,3.7L8.7,3.7z M3.1,3.7
			c0-1,0.8-1.8,1.8-1.8c1,0,1.8,0.8,1.8,1.8c0,1-0.8,1.8-1.8,1.8C4,5.5,3.1,4.7,3.1,3.7L3.1,3.7z M3.1,3.7"/>
		<path class="st0" d="M6.4,8H3.6C1.6,8,0,9.6,0,11.5v1.5C0,13.6,0.4,14,0.9,14c0.5,0,0.9-0.4,0.9-0.9v-1.5c0-1,0.8-1.8,1.8-1.8h2.8
			c1,0,1.8,0.8,1.8,1.8v1.5c0,0.5,0.4,0.9,0.9,0.9c0.5,0,0.9-0.4,0.9-0.9v-1.5C10,9.6,8.4,8,6.4,8L6.4,8z M6.4,8"/>
	</g>
	<g>
		<path class="st0" d="M8.7,29.7C8.7,27.7,7,26,5,26c-2,0-3.7,1.7-3.7,3.7c0,2,1.7,3.7,3.7,3.7C7,33.4,8.7,31.7,8.7,29.7L8.7,29.7z
			 M3.1,29.7c0-1,0.8-1.8,1.8-1.8c1,0,1.8,0.8,1.8,1.8c0,1-0.8,1.8-1.8,1.8C4,31.5,3.1,30.7,3.1,29.7L3.1,29.7z M3.1,29.7"/>
		<path class="st0" d="M6.4,34H3.6c-2,0-3.6,1.6-3.6,3.6v1.5C0,39.6,0.4,40,0.9,40c0.5,0,0.9-0.4,0.9-0.9v-1.5c0-1,0.8-1.8,1.8-1.8
			h2.8c1,0,1.8,0.8,1.8,1.8v1.5c0,0.5,0.4,0.9,0.9,0.9c0.5,0,0.9-0.4,0.9-0.9v-1.5C10,35.6,8.4,34,6.4,34L6.4,34z M6.4,34"/>
	</g>
	<g>
		<path class="st0" d="M38.7,3.7C38.7,1.7,37,0,35,0c-2,0-3.7,1.7-3.7,3.7c0,2,1.7,3.7,3.7,3.7C37,7.4,38.7,5.7,38.7,3.7L38.7,3.7z
			 M33.2,3.7c0-1,0.8-1.8,1.8-1.8c1,0,1.8,0.8,1.8,1.8c0,1-0.8,1.8-1.8,1.8C34,5.5,33.2,4.7,33.2,3.7L33.2,3.7z M33.2,3.7"/>
		<path class="st0" d="M36.4,8h-2.8c-2,0-3.6,1.6-3.6,3.6v1.5c0,0.5,0.4,0.9,0.9,0.9c0.5,0,0.9-0.4,0.9-0.9v-1.5
			c0-1,0.8-1.8,1.8-1.8h2.8c1,0,1.8,0.8,1.8,1.8v1.5c0,0.5,0.4,0.9,0.9,0.9c0.5,0,0.9-0.4,0.9-0.9v-1.5C40,9.6,38.4,8,36.4,8L36.4,8
			z M36.4,8"/>
	</g>
	<g>
		<path class="st0" d="M38.7,29.7c0-2-1.7-3.7-3.7-3.7c-2,0-3.7,1.7-3.7,3.7c0,2,1.7,3.7,3.7,3.7C37,33.4,38.7,31.7,38.7,29.7
			L38.7,29.7z M33.2,29.7c0-1,0.8-1.8,1.8-1.8c1,0,1.8,0.8,1.8,1.8c0,1-0.8,1.8-1.8,1.8C34,31.5,33.2,30.7,33.2,29.7L33.2,29.7z
			 M33.2,29.7"/>
		<path class="st0" d="M36.4,34h-2.8c-2,0-3.6,1.6-3.6,3.6v1.5c0,0.5,0.4,0.9,0.9,0.9c0.5,0,0.9-0.4,0.9-0.9v-1.5
			c0-1,0.8-1.8,1.8-1.8h2.8c1,0,1.8,0.8,1.8,1.8v1.5c0,0.5,0.4,0.9,0.9,0.9c0.5,0,0.9-0.4,0.9-0.9v-1.5C40,35.6,38.4,34,36.4,34
			L36.4,34z M36.4,34"/>
	</g>
	<path class="st0" d="M20,20.1c-2.9,0-5.3-2.4-5.3-5.3c0-2.9,2.4-5.3,5.3-5.3s5.3,2.4,5.3,5.3C25.3,17.7,22.9,20.1,20,20.1z
		 M20,11.5c-1.8,0-3.3,1.5-3.3,3.3s1.5,3.3,3.3,3.3c1.8,0,3.3-1.5,3.3-3.3S21.8,11.5,20,11.5z"/>
	<path class="st0" d="M26.3,30.5c-0.5,0-1-0.4-1-1v-2.4c0-1.8-1.4-3.2-3.2-3.2h-4.4c-1.8,0-3.2,1.4-3.2,3.2v2.4c0,0.5-0.4,1-1,1
		c-0.5,0-1-0.4-1-1v-2.4c0-2.8,2.3-5.2,5.2-5.2h4.4c2.8,0,5.2,2.3,5.2,5.2v2.4C27.3,30,26.9,30.5,26.3,30.5z"/>
</g>
</svg>
