<?xml version="1.0" encoding="utf-8"?>
<!-- Generator: Adobe Illustrator 19.2.0, SVG Export Plug-In . SVG Version: 6.00 Build 0)  -->
<svg version="1.1" id="Capa_1" xmlns="http://www.w3.org/2000/svg" xmlns:xlink="http://www.w3.org/1999/xlink" x="0px" y="0px"
	 viewBox="0 0 40 40" style="enable-background:new 0 0 40 40;" xml:space="preserve">
<style type="text/css">
	.st0{fill:#FFFFFF;}
</style>
<g>
	<path class="st0" d="M0.1,39.4c0-0.1,0-0.2,0-0.2c0-0.3-0.1-0.5,0.1-0.6c0.1-0.1,0.2-0.2,0.4-0.2s0.5-0.1,0.7-0.1s0.3,0,0.5,0
		c0.1,0,0.1,0,0.2,0c0.8,0,1.1-0.5,1.4-0.9C4.1,36.1,4.8,35,5.5,34c0.2-0.4,0.5-0.7,0.8-1.1l0.6-0.7L6.7,32
		c-0.1-0.1-0.3-0.3-0.5-0.4C5.1,31,4,30.4,2.9,29.7c-0.3-0.2-0.5-0.3-0.6-0.4C2,29,1.9,28.5,2.1,28.1C2,28,2.4,27.8,2.7,27.8
		c0.1,0,0.2,0,0.3,0.1c0.2,0.1,0.4,0.2,0.6,0.3l5.8,3.3c0.1,0.1,0.2,0.1,0.3,0.2l0.7,0.4c0.4,0.2,0.8,0.4,1.1,0.6
		c2,1.1,3.9,2.2,5.9,3.3c0.6,0.4,1.2,0.5,1.8,0.5c0.6,0,1.2-0.2,1.8-0.5c0.8-0.5,1.7-1,2.5-1.4c0.6-0.3,1.2-0.6,1.8-1
		c0.7-0.4,1.3-0.5,1.9-0.5c0.5,0,0.9,0.1,1.4,0.3c1.8,0.7,3.6,1.4,5.4,2.1l1.9,0.7c1.1,0.4,1.1,0.5,1.1,1.7v0.2c0,0,0.4,0.1,0.6,0.1
		c0.3,0.1,0.7,0.2,0.9,0.3s0.2,0.1,0.1,0.5c0,0.1-0.1,0.2-0.1,0.3H0.1V39.4z M4.8,37.9h11c0.3,0,0.3-0.3,0.3-0.4v-0.2L16,37.2
		c-1.5-0.8-3-1.7-4.5-2.5C10.3,34,9,33.3,7.8,32.6l-0.2-0.1l-0.2,0.2C6.8,33.4,6,35,5.3,36.1c-0.3,0.6-0.6,1.2-0.7,1.2l0.2-0.1V37.9
		z M33.7,37.9h0.2h0.2l0.1-0.3l0.1-0.3l-0.3,0c-0.2-0.1-0.3-0.1-0.4-0.1c-0.1,0-0.2,0-0.3,0l-0.8-0.3c-1.1-0.4-2.3-0.9-3.4-1.4
		c-0.5-0.2-1.1-0.3-1.6-0.3c-0.6,0-1.2,0.2-1.8,0.5c-0.4,0.2-0.8,0.4-1.2,0.6c-0.5,0.3-1.1,0.5-1.6,0.8c-0.1,0-0.1,0.1-0.2,0.1
		l-0.1,0.1v0.6L33.7,37.9L33.7,37.9z"/>
	<path class="st0" d="M6.8,28.3c-1-0.1-1.8-0.9-1.7-2c0-0.9,0.9-1.7,1.8-1.7c0.6,0,1,0.2,1.4,0.6c0.3,0.4,0.5,0.8,0.5,1.3
		c0,1-0.9,1.8-1.8,1.8L6.8,28.3z"/>
	<path class="st0" d="M19.9,30.5V20.4l-0.1-0.1c-1.5-1.1-2.5-1.6-3.8-1.6c-2.4,0-4.4,1.9-4.4,1.9c-0.1,0.2-0.3,0.2-0.5,0.2l0,0
		c-0.2,0-0.4-0.1-0.5-0.2c-1.1-1.1-2.4-1.7-3.7-1.7c-2.4,0-4.4,1.7-4.5,1.7c-0.1,0.1-0.3,0.2-0.5,0.2c-0.1,0-0.2,0-0.3-0.1
		c-0.3-0.1-0.5-0.4-0.5-0.7C1.1,9.3,9.8,0.6,20.5,0.6C31.3,0.6,40,9.3,40,20.1c0,0.3-0.2,0.6-0.5,0.7c-0.1,0.1-0.2,0.1-0.3,0.1
		c-0.2,0-0.3-0.1-0.5-0.2c-0.5-0.4-2.4-1.7-4.5-1.7c-1.4,0-2.6,0.6-3.8,1.7c-0.1,0.1-0.3,0.2-0.5,0.2s-0.4-0.1-0.6-0.2
		c-0.1-0.1-1.9-1.9-4.3-1.9c-1.2,0-2.9,0.5-3.7,1.7l-0.1,0.1v9.6c-0.1,0-0.1,0-0.2,0.1c-0.1,0-0.3,0.1-0.3,0.1
		C20.5,30.4,20.2,30.5,19.9,30.5L19.9,30.5z M30.8,17.9V18c0.2,0.4,0.4,0.5,0.6-0.1c0.8-0.4,1.7-0.6,2.9-0.6s2.4,0.3,3.6,0.9
		l0.5,0.3l0-0.5c-0.8-7.1-5.8-13-12.7-15.1l-0.3,0.5c3,2.8,5,8.2,5.4,14.4L30.8,17.9L30.8,17.9z M12.4,18.1c1-0.6,2.3-0.9,3.6-0.9
		c1.2,0,2,0.3,3.5,1l0.4,0.2V2.9L19.5,3c-4.1,1-7.2,7.3-7.8,15.4L12.4,18.1z M25.2,17.1c1.3,0,2.5,0.3,3.7,1l0.6,0.6l-0.1-0.8
		C28.8,10.4,25.6,4,21.8,3l-0.4-0.1v15.7l0.5-0.5C22.5,17.5,23.9,17.1,25.2,17.1z M15.4,2.9c-6.9,2-11.9,8-12.7,15.1l-0.1,0.6
		l0.5-0.3c1.3-0.6,2.5-0.9,3.6-0.9c1.2,0,2.2,0.2,3,0.7h0.1l0,0l0,0h0.1h0.3v-0.3c0.4-6.2,2.4-11.5,5.4-14.4l0.1-0.1
		C15.9,3.6,15.7,2.9,15.4,2.9z"/>
	<path class="st0" d="M19,35c-0.4,0-0.9-0.1-1.4-0.4c-2.4-1.4-4.8-2.8-7.2-4.1c-0.7-0.4-1-0.9-1-1.6c0-0.8,0.6-1.7,1.8-1.7
		c0.1,0,0.4,0.2,0.6,0.3c0.1,0.1,0.3,0.2,0.4,0.3c2.2,1.2,4.3,2.5,6.2,3.5c0.5,0.3,1.1,0.5,1.6,0.5s1-0.1,1.5-0.3l0.7-0.3
		c0.4-0.2,1-0.5,1.7-0.7c0.4-0.2,0.9-0.4,1.3-0.5c0.6-0.3,1.2-0.4,1.7-0.4s1,0.1,1.5,0.3c1.5,0.6,3.1,1.2,4.7,1.8
		c0.8,0.3,1.6,0.6,2.4,0.9c0.2,0.1,0.4,0.2,0.6,0.3c0.3,0.2,0.4,0.6,0.3,1c-0.1,0.3-0.4,0.6-0.7,0.6s-0.6-0.1-0.9-0.2l-1.2-0.5
		c-1.6-0.6-3.2-1.2-4.7-1.9c-0.5-0.2-1-0.3-1.5-0.3c-0.6,0-1.2,0.2-1.9,0.5c-0.6,0.3-1.1,0.6-1.7,0.9c-1.1,0.6-2.1,1.1-3.1,1.7
		C19.9,34.9,19.4,35,19,35z"/>
</g>
</svg>
