<?xml version="1.0" encoding="utf-8"?>
<!-- Generator: Adobe Illustrator 23.0.1, SVG Export Plug-In . SVG Version: 6.00 Build 0)  -->
<svg version="1.1" id="Layer_1" xmlns="http://www.w3.org/2000/svg" xmlns:xlink="http://www.w3.org/1999/xlink" x="0px" y="0px"
	 viewBox="0 0 150 150" style="enable-background:new 0 0 150 150;" xml:space="preserve">
<style type="text/css">
	.st0{fill:#7F7F7F;}
</style>
<g>
	<path class="st0" d="M122.3,127c-0.1,0-6.1,0.2-7.8-6.1c1.1-0.9,2.2-1.9,3.1-3.2c2-2.7,3.3-6.1,3.8-9.7c0.1-0.2,0.3-0.4,0.3-0.6
		c0.9-2,1.3-4.2,1.3-6.4c0-8.6-6.5-15.7-14.6-15.7c-2.1,0-4.1,0.5-6,1.4c-0.7,0.1-1.4,0.2-2,0.4c-6.7,1.9-10.6,10.1-8.5,18.1
		c0.2,0.8,0.7,2.4,1.1,2.9c0.8,5.5,3.3,10,6.8,12.7c-1.8,6.4-7.7,6.1-7.8,6.1c-5.8,0.2-10.5,5-10.5,10.8v7.1c0,2.7,2.2,4.8,4.8,4.8
		h41.5c2.7,0,4.8-2.2,4.8-4.8v-7.1C132.7,132,128.1,127.2,122.3,127z M101.6,91.4c0.5-0.1,1-0.2,1.5-0.2c0.3,0,0.6-0.1,0.9-0.3
		c1.4-0.7,2.8-1.1,4.3-1.1c5.3,0,9.7,4.5,10.1,10.3c-1.1-0.7-2.4-1.1-3.8-1.1h-10c-0.4,0-0.8-0.1-1.2-0.4c-0.3-0.2-0.5-0.5-0.7-0.9
		c-0.4-1-1.4-1.7-2.5-1.6c-1.1,0.1-2,0.8-2.3,1.9c-0.4,1.6-1.2,3.1-2.2,4.5C95.2,97.4,97.6,92.6,101.6,91.4z M97.4,107.5
		c1.6-1.5,2.8-3.2,3.8-5.1c1.1,0.7,2.3,1.1,3.6,1.1h10c1.1,0,2,0.6,2.4,1.5c0,5.8-2.5,10.8-6,13c-0.1,0.1-1.7,1.2-4,1.2
		C102.4,119.1,98.3,114.1,97.4,107.5z M113.7,128.1c-1.9,1.4-4.2,2.1-6.5,2.1c-2.4,0-4.7-0.8-6.5-2.1c1.5-1.4,2.6-3.1,3.2-5.1
		c1.1,0.3,2.2,0.5,3.3,0.5c1.1,0,2.2-0.2,3.3-0.5C111.1,125,112.2,126.7,113.7,128.1z M128.3,144.9L128.3,144.9
		c0,0.2-0.2,0.4-0.4,0.4H86.4c-0.2,0-0.4-0.2-0.4-0.4v-7.1c0-3.5,2.9-6.4,6.4-6.4c0.1,0,2.1,0,4.3-0.9c2.8,2.6,6.6,4.1,10.5,4.1
		c3.9,0,7.6-1.5,10.5-4.1c2.2,0.9,4.2,0.9,4.3,0.9c3.5,0,6.4,2.9,6.4,6.4V144.9z"/>
	<path class="st0" d="M75,0.3c-41.4,0-75,33.6-75,75c0,37.9,28.3,69.9,65.9,74.5c0.2,0,0.4,0,0.6,0c2.3,0,4.2-1.7,4.5-4
		c0.3-2.5-1.5-4.8-4-5.1c-33-4-57.9-32.1-57.9-65.4C9.1,38.9,38.7,9.3,75,9.3s65.9,29.6,65.9,65.9c0,13.8-4.2,27.1-12.3,38.3
		c-1.5,2-1,4.9,1.1,6.3c2,1.5,4.9,1,6.3-1.1c9.1-12.8,14-27.8,14-43.6C150,33.9,116.4,0.3,75,0.3z"/>
	<circle class="st0" cx="75" cy="22.4" r="4.9"/>
	<path class="st0" d="M51,33.7c2.3-1.3,3.1-4.3,1.8-6.6c-1.3-2.3-4.3-3.1-6.6-1.8c-2.3,1.3-3.1,4.3-1.8,6.6
		C45.7,34.2,48.7,35,51,33.7z"/>
	<path class="st0" d="M31.6,44.6c-2.3-1.3-5.3-0.5-6.6,1.8c-1.3,2.3-0.5,5.3,1.8,6.6c2.3,1.3,5.3,0.5,6.6-1.8
		C34.7,48.9,33.9,45.9,31.6,44.6z"/>
	<path class="st0" d="M22.1,70.4c-2.7,0-4.9,2.2-4.9,4.9s2.2,4.9,4.9,4.9c2.7,0,4.9-2.2,4.9-4.9S24.8,70.4,22.1,70.4z"/>
	<path class="st0" d="M31.6,105.9c2.3-1.3,3.1-4.3,1.8-6.6c-1.3-2.3-4.3-3.1-6.6-1.8c-2.3,1.3-3.1,4.3-1.8,6.6
		C26.3,106.5,29.3,107.2,31.6,105.9z"/>
	<path class="st0" d="M44.3,118.6c-1.3,2.3-0.5,5.3,1.8,6.6c2.3,1.3,5.3,0.5,6.6-1.8c1.3-2.3,0.5-5.3-1.8-6.6
		C48.7,115.5,45.7,116.3,44.3,118.6z"/>
	<circle class="st0" cx="75" cy="128.1" r="4.9"/>
	<path class="st0" d="M127.9,80.1c2.7,0,4.9-2.2,4.9-4.9s-2.2-4.9-4.9-4.9c-2.7,0-4.9,2.2-4.9,4.9S125.2,80.1,127.9,80.1z"/>
	<path class="st0" d="M105.7,31.9c1.3-2.3,0.5-5.3-1.8-6.6c-2.3-1.3-5.3-0.5-6.6,1.8c-1.3,2.3-0.5,5.3,1.8,6.6
		C101.3,35,104.3,34.2,105.7,31.9z"/>
	<path class="st0" d="M122.9,53.2c2.2-1.2,2.9-4,1.7-6.2c-1.2-2.2-4-2.9-6.2-1.7L75,70L46.6,54.5c-2.2-1.2-5-0.4-6.2,1.8
		c-1.2,2.2-0.4,5,1.8,6.2l32.8,18L122.9,53.2z"/>
</g>
</svg>
