<svg id="Layer_1" data-name="Layer 1" xmlns="http://www.w3.org/2000/svg" viewBox="0 0 40 38.93"><defs><style>.cls-1{fill:#626975;}</style></defs><title>wallet</title><g id="Wallet-cash"><path class="cls-1" d="M36.48,8.09H33.76L30.35,1.28A0.62,0.62,0,0,0,30,1a0.62,0.62,0,0,0-.48,0L23.37,4.07,18.43,0.65a0.63,0.63,0,0,0-.83.1L11.22,8.09H3.52A3.52,3.52,0,0,0,0,11.61V35.95a3.52,3.52,0,0,0,3.52,3.52h33A3.52,3.52,0,0,0,40,35.95V11.61A3.52,3.52,0,0,0,36.48,8.09Zm-4.12,0H18.12l11.4-5.7ZM18.18,2l3.92,2.71L15.32,8.09H12.88Zm18.3,36.22h-33a2.27,2.27,0,0,1-2.27-2.27V11.61A2.27,2.27,0,0,1,3.52,9.34h33a2.27,2.27,0,0,1,2.27,2.27v4.51H30a6.23,6.23,0,0,0-6.21,6.22v1.11A6.23,6.23,0,0,0,30,29.68h8.77v6.27A2.27,2.27,0,0,1,36.48,38.22Zm2.27-20.84V28.43H30a5,5,0,0,1-5-5V22.35a5,5,0,0,1,5-5h8.77Z" transform="translate(0 -0.54)"/><path class="cls-1" d="M27.49,22.71a2.5,2.5,0,1,0,2.5-2.5A2.5,2.5,0,0,0,27.49,22.71ZM30,21.47a1.25,1.25,0,1,1-1.25,1.25A1.25,1.25,0,0,1,30,21.47Z" transform="translate(0 -0.54)"/></g></svg>