<?xml version="1.0" encoding="utf-8"?>
<!-- Generator: Adobe Illustrator 21.1.0, SVG Export Plug-In . SVG Version: 6.00 Build 0)  -->
<svg version="1.1" id="Layer_1" xmlns="http://www.w3.org/2000/svg" xmlns:xlink="http://www.w3.org/1999/xlink" x="0px" y="0px"
	 viewBox="0 0 40 40" style="enable-background:new 0 0 40 40;" xml:space="preserve">
<style type="text/css">
	.st0{fill:#35C4FF;}
</style>
<g>
	<path class="st0" d="M0,34.1C0,25,0,15.8,0,6.6C0.2,6.4,0.3,6.2,0.5,6c1.4-1.5,2.8-2.9,4.3-4.4c0.4-0.4,0.8-0.6,1.3-0.6
		c9.5,0,19,0.1,28.5,0.1c1,0,1.2,0.2,1.2,1.2c0,5.2,0,10.3,0,15.5c0,0.4,0.1,0.7,0.4,1c3.1,2.9,4.3,6.4,3.6,10.5
		c-0.5,3.1-2.1,5.5-4.6,7.3c-2.8,2-6,2.6-9.3,1.8c-2.3-0.5-4.3-1.7-5.9-3.5c-0.3-0.3-0.5-0.4-0.9-0.4c-6,0-12,0-17.9,0
		C0.6,34.8,0.2,34.6,0,34.1z M18.4,33.1c-2-4-2.1-8,0.4-11.8c2.4-3.8,6-5.5,10.5-5.4c0-2.8,0-5.5,0-8.2c-9.2,0-18.4,0-27.6,0
		c0,8.5,0,16.9,0,25.4C7.3,33.1,12.8,33.1,18.4,33.1z M38.4,27.4c0-5.4-4.4-9.9-9.9-9.9c-5.4,0-9.9,4.4-9.9,9.9
		c0,5.4,4.4,9.9,9.9,9.9C33.9,37.3,38.4,32.8,38.4,27.4z M33,2.8c-0.9,0-1.7,0-2.5,0c-8,0-16-0.1-24.1-0.1C6.1,2.7,5.9,2.8,5.7,3
		C4.9,3.8,4.1,4.7,3.3,5.5C3.2,5.6,3,5.7,2.8,5.9c0,0,0.1,0.1,0.1,0.1C3,6,3.2,6,3.3,6c3.5,0,7,0,10.5,0C19,6,24.2,6,29.4,6
		c0.1,0,0.3,0,0.4-0.1C30.9,4.9,31.9,3.9,33,2.8z M34.1,4c-1,1-2,2-2.9,2.9C31.1,7.1,31,7.3,31,7.5c0,2.7,0,5.5,0,8.2
		c0,0.1,0,0.3,0,0.3c1.1,0.4,2.1,0.8,3.2,1.2C34.1,12.9,34.1,8.5,34.1,4z"/>
	<path class="st0" d="M26.1,30.9c0.1-0.1,0.3-0.2,0.4-0.4c2.3-2.2,4.5-4.4,6.8-6.6c0.5-0.5,1-0.6,1.4-0.2c0.4,0.4,0.3,0.9-0.2,1.4
		c-2.5,2.4-5,4.9-7.5,7.3c-0.6,0.6-1,0.6-1.6,0c-1-0.9-2-1.9-3.1-2.8c-0.2-0.2-0.5-0.5-0.4-0.8c0.1-0.2,0.3-0.5,0.5-0.6
		c0.3-0.2,0.7-0.1,0.9,0.2c0.8,0.7,1.6,1.5,2.4,2.2C25.8,30.7,25.9,30.8,26.1,30.9z"/>
</g>
</svg>
