<?xml version="1.0" encoding="utf-8"?>
<!-- Generator: Adobe Illustrator 21.1.0, SVG Export Plug-In . SVG Version: 6.00 Build 0)  -->
<svg version="1.1" id="Layer_1" xmlns="http://www.w3.org/2000/svg" xmlns:xlink="http://www.w3.org/1999/xlink" x="0px" y="0px"
	 viewBox="0 0 40 40" style="enable-background:new 0 0 40 40;" xml:space="preserve">
<style type="text/css">
	.st0{fill:#35C4FF;}
</style>
<rect x="62.7" y="-4.9" class="st0" width="27.7" height="25.6"/>
<g>
	<path class="st0" d="M37.7,40c-11.8,0-23.5,0-35.4,0c-0.4-0.2-0.8-0.3-1.2-0.6c-0.6-0.4-0.9-1-1.1-1.7C0,25.9,0,14.2,0,2.3
		c0.2-0.4,0.3-0.8,0.6-1.2C1,0.5,1.6,0.2,2.3,0c11.8,0,23.5,0,35.4,0c0.4,0.2,0.8,0.3,1.2,0.6c0.6,0.4,0.9,1,1.1,1.7
		c0,11.8,0,23.5,0,35.4c-0.2,0.4-0.3,0.8-0.6,1.2C38.9,39.5,38.3,39.8,37.7,40z M20,37.4c5.5,0,11,0,16.6,0c0.7,0,0.9-0.2,0.9-0.9
		c0-11,0-21.9,0-32.9c0-0.8-0.2-1-1-1c-11,0-21.9,0-32.8,0c-0.7,0-0.9,0.2-0.9,1c0,10.9,0,21.8,0,32.7c0,0.9,0.2,1,1.1,1
		C9.1,37.4,14.5,37.4,20,37.4z"/>
	<path class="st0" d="M20,19.3c0.2-1.8,0.6-2.4,1.8-2.4c0.6,0,1.3,0.1,1.6,0.7c0.3,0.5,0.3,1.1,0.5,1.7c0.8,0,1.6,0,2.5,0
		c0-0.7,0-1.5,0.6-2c0.4-0.3,0.8-0.4,1.3-0.4c0.6,0,1.2,0.2,1.5,0.8c0.2,0.5,0.3,1.1,0.5,1.7c0,0,0.2,0,0.3,0c1.4,0,2.8,0,4.2,0
		c0.3,0,0.7,0,0.9,0.3c0.3,0.3,0.3,0.6,0.2,1c-0.2,0.4-0.5,0.6-0.9,0.6c-0.9,0-1.8,0-2.7,0c-0.7,0-1.4,0-2.1,0c0,0.8,0,1.5-0.7,2.1
		c-0.4,0.3-0.8,0.4-1.3,0.4c-0.6,0-1.2-0.2-1.4-0.7c-0.2-0.5-0.3-1.1-0.4-1.7c-0.8,0-1.6,0-2.6,0c0,0.8,0,1.6-0.7,2.1
		c-0.4,0.3-0.9,0.3-1.4,0.3c-0.6,0-1.1-0.3-1.3-0.8c-0.2-0.5-0.2-1-0.4-1.6c-2.4,0-4.9,0-7.4,0c0,0.8,0,1.6-0.8,2.1
		c-0.5,0.3-1,0.3-1.5,0.3c-0.6-0.1-1-0.3-1.2-0.8s-0.2-1-0.3-1.6c-0.1,0-0.2,0-0.3,0c-1.1,0-2.2,0-3.3,0c-0.7,0-1.1-0.6-1-1.2
		c0.1-0.4,0.3-0.6,0.7-0.6c0.6,0,1.1,0,1.7,0c0.7,0,1.5,0,2.3,0c0-0.8,0-1.6,0.7-2.1c0.4-0.3,0.9-0.4,1.3-0.3
		c1.1,0.1,1.5,0.6,1.7,2.4C15,19.3,17.5,19.3,20,19.3z"/>
	<path class="st0" d="M17.6,11.9c0,0.8,0,1.5-0.6,2c-0.4,0.3-0.8,0.4-1.3,0.4c-0.6,0-1.2-0.2-1.5-0.7c-0.2-0.5-0.3-1.1-0.5-1.7
		c-0.8,0-1.6,0-2.5,0c0,0.8,0,1.6-0.7,2.1c-0.4,0.3-0.9,0.4-1.3,0.3c-0.3-0.1-0.7-0.2-1-0.4c-0.3-0.2-0.5-0.6-0.6-0.9
		c-0.1-0.3-0.1-0.7-0.1-1.1c-0.2,0-0.3,0-0.5,0c-0.7,0-1.4,0-2.1-0.1c-0.4,0-0.7-0.4-0.8-0.9c0-0.4,0.3-0.8,0.7-0.9
		c0.2,0,0.3,0,0.5,0c0.7,0,1.4,0,2.2,0c0-0.8,0-1.5,0.6-2.1c0.4-0.3,0.8-0.4,1.3-0.4c0.6,0,1.2,0.2,1.4,0.8c0.2,0.5,0.3,1.1,0.4,1.7
		c0.8,0,1.6,0,2.5,0c0-0.8,0-1.5,0.7-2.1c0.4-0.3,0.9-0.4,1.4-0.4c0.6,0,1.1,0.3,1.4,0.8c0.2,0.5,0.3,1,0.4,1.6c0.1,0,0.2,0,0.4,0
		c5.6,0,11.1,0,16.7,0c0.6,0,1,0.2,1.1,0.7c0.1,0.5-0.2,1-0.7,1.1c-0.2,0-0.4,0.1-0.6,0.1c-5.5,0-11.1,0-16.6,0
		C18,11.9,17.8,11.9,17.6,11.9z"/>
	<path class="st0" d="M19,29.7c0.2-1.8,0.6-2.4,1.7-2.4c0.6,0,1.2,0.1,1.6,0.6s0.3,1.1,0.4,1.8c0.9,0,1.8,0,2.7,0
		c0-0.8,0-1.6,0.7-2.1c0.4-0.3,1-0.3,1.5-0.3c0.6,0.1,1.1,0.3,1.3,0.8c0.2,0.5,0.2,1,0.3,1.6c0,0,0.2,0,0.3,0c1.8,0,3.6,0,5.5,0
		c0.7,0,1.2,0.6,1,1.2c-0.1,0.3-0.3,0.6-0.7,0.6c-0.2,0-0.4,0-0.5,0c-1.7,0-3.4,0-5.1,0c-0.2,0-0.3,0-0.5,0c0,0.8,0.1,1.6-0.7,2.1
		c-0.4,0.2-0.8,0.3-1.3,0.3c-0.6,0-1.2-0.2-1.4-0.8c-0.2-0.5-0.3-1.1-0.4-1.6c-0.7,0-1.5,0-2.4,0c-0.1,0-0.2,0.1-0.2,0.2
		c0,0.2,0,0.3,0,0.5c0,1.1-0.8,1.7-1.9,1.7c-1.1,0-1.8-0.7-1.8-1.8c0-0.2,0-0.4,0-0.7c-0.2,0-0.3,0-0.5,0c-4.3,0-8.7,0-13,0
		c-0.2,0-0.4,0-0.5,0c-0.4-0.1-0.8-0.5-0.8-0.9c0-0.4,0.3-0.8,0.8-0.9c0.2,0,0.3,0,0.5,0c4.4,0,8.7,0,13.1,0
		C18.6,29.7,18.8,29.7,19,29.7z"/>
</g>
</svg>
