<?xml version="1.0" encoding="utf-8"?>
<!-- Generator: Adobe Illustrator 21.1.0, SVG Export Plug-In . SVG Version: 6.00 Build 0)  -->
<svg version="1.1" id="Layer_1" xmlns="http://www.w3.org/2000/svg" xmlns:xlink="http://www.w3.org/1999/xlink" x="0px" y="0px"
	 viewBox="0 0 40 40" style="enable-background:new 0 0 40 40;" xml:space="preserve">
<style type="text/css">
	.st0{fill:#35C4FF;}
</style>
<rect x="62.7" y="-4.9" class="st0" width="27.7" height="25.6"/>
<g>
	<path class="st0" d="M39.6,16.3l-19-13.7c-0.4-0.3-0.9-0.3-1.2,0l-19,13.7c-0.5,0.3-0.6,1-0.2,1.4c0.3,0.5,1,0.6,1.5,0.2L20,4.6
		l18.3,13.3c0.2,0.1,0.4,0.2,0.6,0.2c0.3,0,0.6-0.1,0.8-0.4C40.1,17.3,40,16.6,39.6,16.3z M34.6,18.2c-0.6,0-1,0.5-1,1v16.3h-8.3
		v-8.9c0-2.8-2.3-5.1-5.2-5.1s-5.2,2.3-5.2,5.1v8.9H6.6V19.2c0-0.6-0.5-1-1-1c-0.6,0-1,0.5-1,1v17.4c0,0.6,0.5,1,1,1H16
		c0.5,0,1-0.4,1-0.9v-0.1v-9.9c0-1.7,1.4-3.1,3.1-3.1s3.1,1.4,3.1,3.1v9.9v0.1c0,0.5,0.5,0.9,1,0.9h10.4c0.6,0,1-0.5,1-1V19.2
		C35.6,18.7,35.1,18.2,34.6,18.2z"/>
</g>
</svg>
