<?xml version="1.0" encoding="utf-8"?>
<!-- Generator: Adobe Illustrator 21.1.0, SVG Export Plug-In . SVG Version: 6.00 Build 0)  -->
<svg version="1.1" id="Layer_1" xmlns="http://www.w3.org/2000/svg" xmlns:xlink="http://www.w3.org/1999/xlink" x="0px" y="0px"
	 viewBox="0 0 40 40" style="enable-background:new 0 0 40 40;" xml:space="preserve">
<style type="text/css">
	.st0{fill:#35C4FF;}
</style>
<rect x="62.7" y="-4.9" class="st0" width="27.7" height="25.6"/>
<g>
	<g>
		<path class="st0" d="M19.9,6.9c-0.1,0.9,0,1.8,0,2.7l0,1.2l0,3.9c0,0.8,0.4,1.2,1.2,1.2l1.9,0l2.4,0c0.9,0,1.3-0.4,1.3-1.3V6.9
			c0-0.2,0-0.3,0-0.5L25.9,1c-0.1-0.7-0.5-1-1.1-1l-2.8,0c-0.6,0-1,0.3-1.1,0.9l-0.6,3.5C20.1,5.2,20,6,19.9,6.9z M22.7,2.1H24
			l0.5,3.6h-2.5L22.7,2.1z M21.9,7.8h2.7v6.1h-2.7V7.8z M39.8,29.7c-0.7-1.3-1.8-2.1-3.2-2.2c-0.1,0-0.2,0-0.3,0
			c-1.2,0-2.2,0.4-3.3,0.9c-1.5,0.7-3,1.3-4.4,2l-2.4,1.1c-0.5,0.3-1.2,0.7-0.9,1.5c0.2,0.4,0.5,0.6,0.8,0.6c0.2,0,0.5-0.1,0.8-0.2
			c0.5-0.2,1.1-0.5,1.6-0.8c0.9-0.4,1.8-0.9,2.8-1.3c1.5-0.7,3-1.2,4.5-1.7c0.2-0.1,0.4-0.1,0.6-0.1c0.4,0,0.8,0.1,1.1,0.4l-0.4,0.2
			c-0.4,0.2-0.8,0.5-1.2,0.7l-2.8,1.5c-2.8,1.6-5.6,3.2-8.5,4.7c-0.9,0.5-1.7,0.7-2.6,0.7c-0.7,0-1.4-0.2-2.1-0.5
			c-0.1-0.1-0.3-0.1-0.5-0.2l-1.7-0.6c-2.3-0.8-4.6-1.5-6.9-2.3c-0.1,0-0.2,0-0.3,0c-0.3,0-0.6,0.1-0.8,0.2
			c-1.1,0.7-2.2,1.4-3.4,2.1l-1.2,0.8l-0.3,0.2l-2.5-5.1l0.3-0.1l2.6-1.2c1.9-0.8,3.9-1.7,5.8-2.6c1-0.4,2-0.7,2.9-0.7
			c0.8,0,1.6,0.2,2.3,0.5c1.7,0.7,3.3,1.4,4.9,2.2l2,0.9l0.1-0.2l0,0.1c-0.1,0.3-0.2,0.3-0.4,0.3c0,0,0,0,0,0
			c-1.3-0.2-2.5-0.3-3.8-0.5c-0.9-0.1-1.8-0.2-2.8-0.3c-0.5,0-0.9,0.4-0.9,0.9c0,0.5,0.2,0.9,0.7,1c0.2,0,0.3,0.1,0.6,0.1l1.5,0.2
			c1.5,0.2,3,0.4,4.6,0.5c0.3,0,0.7-0.1,1.1-0.3c0.6-0.3,1.1-0.8,1.4-1.6c0.4-0.9,0.2-1.5-0.6-1.8l-1.4-0.7c-2.1-1-4.3-2-6.5-2.9
			C16,26,15,25.8,14.1,25.8c-1.2,0-2.4,0.3-3.7,0.8c-2.1,1-4.3,1.9-6.5,2.8l-3,1.3c-0.5,0.2-0.7,0.4-0.8,0.7c-0.1,0.3,0,0.6,0.2,1.1
			l3.2,6.6C3.6,39.5,3.9,40,4.4,40c0.2,0,0.5-0.1,0.8-0.3L6,39.2c1.4-0.9,2.8-1.8,4.1-2.7c0.2-0.1,0.4-0.2,0.6-0.2
			c0.1,0,0.2,0,0.3,0.1c2.9,1,5.8,2,8.7,2.9c0.6,0.2,1.2,0.4,1.9,0.5c0.2,0,0.5,0,0.7,0c1.2,0,2.4-0.3,3.7-1.1
			c3.9-2.2,7.9-4.4,11.8-6.6l1.7-1C40,30.8,40.2,30.3,39.8,29.7z M10.7,24.1h10l14.2,0c0.9,0,1.3-0.4,1.3-1.3c0-5.3,0-10.6,0-16
			c0-0.3-0.1-0.6-0.2-0.8l-2.4-5.3C33.4,0.3,33,0,32.4,0l-5,0c-0.7,0-1.2,0.4-1.2,1c0,0.6,0.5,1,1.2,1l2.8,0c0.2,0,0.4,0,0.6,0
			c0.2,0,0.4,0,0.6,0c0.3,0,0.4,0,0.6,0.1c0.3,0.2,0.4,0.6,0.6,1.1c0.1,0.2,0.1,0.4,0.2,0.6c0.2,0.5,0.9,2,0.9,2l-5.5,0
			c-0.4,0-0.8,0.2-1,0.5c-0.2,0.2-0.2,0.6-0.1,0.9c0.2,0.5,0.5,0.7,1.1,0.7l6,0v14.3H11.5V7.8l6.1,0c0.3,0,0.6-0.1,0.8-0.3
			c0.2-0.2,0.3-0.4,0.3-0.7c0-0.6-0.4-1-1.1-1l-5.5,0l0.3-0.6c0.5-1,1-2,1.4-2.9c0,0,0.2-0.1,0.3-0.1c0.9,0,4.9,0,4.9,0
			c0.7,0,1.2-0.4,1.2-1c0-0.3-0.1-0.5-0.3-0.7C19.8,0.1,19.5,0,19.1,0l-5.6,0c-0.5,0-0.9,0.2-1.2,0.8L9.6,6.2
			C9.5,6.4,9.5,6.6,9.5,6.9l0,16C9.5,23.8,9.9,24.1,10.7,24.1z"/>
	</g>
</g>
</svg>
