<?xml version="1.0" encoding="utf-8"?>
<!-- Generator: Adobe Illustrator 21.1.0, SVG Export Plug-In . SVG Version: 6.00 Build 0)  -->
<svg version="1.1" id="Layer_1" xmlns="http://www.w3.org/2000/svg" xmlns:xlink="http://www.w3.org/1999/xlink" x="0px" y="0px"
	 viewBox="0 0 40 40" style="enable-background:new 0 0 40 40;" xml:space="preserve">
<style type="text/css">
	.st0{fill:#8e87ff;}
</style>
<rect x="62.7" y="-4.9" class="st0" width="27.7" height="25.6"/>
<g>
	<g>
		<path class="st0" d="M31.7,11.2C31.6,5,26.7,0.1,20.5,0.1c-2.7,0-5.4,1-7.4,2.8c-1.8,1.6-3,3.7-3.5,6.2H9.5C4.2,9,0,13.3,0,18.5
			S4.2,28,9.5,28h3.3c0.5,0,0.8-0.4,0.8-0.8c0-0.5-0.4-0.8-0.8-0.8H9.3c-4.3,0-7.8-3.5-7.8-7.8s3.5-7.8,7.8-7.8c0.2,0,0.5,0,0.7,0
			c0.5,0,0.9-0.3,0.9-0.7c0.3-2.2,1.4-4.3,3.1-5.9S18,2,20.3,2c5.3,0,9.5,4.2,9.5,9.5c0,0.2,0,0.7,0,0.7c0,0.2,0.1,0.5,0.3,0.7
			c0.2,0.2,0.4,0.3,0.7,0.2c0.2,0,0.5,0,0.7,0c3.7,0,6.8,3,6.8,6.8s-3,6.8-6.8,6.8h-1.8c-0.5,0-0.8,0.4-0.8,0.8
			c0,0.5,0.4,0.8,0.8,0.8h1.8c4.6,0,8.5-3.8,8.5-8.5C40,15,36.3,11.2,31.7,11.2z"/>
		<path class="st0" d="M21.2,6.6c0.5,0,0.8-0.4,0.8-0.8C22,5.3,21.6,5,21.2,5c-3.5,0-6.7,2.7-7.2,6.3c-0.1,0.5,0.3,0.9,0.7,1
			c0.5,0.1,0.9-0.3,1-0.7C16.2,8.6,18.5,6.6,21.2,6.6z"/>
	</g>
	<path class="st0" d="M20.4,39.9V37h-0.5c-1.6-0.1-3.2-1.1-4.4-2.8l1.1-0.8c0.8,1.1,1.7,2.2,3.2,2.4l0.6,0.1v-7.4L20,28.4
		c-2.5-0.7-4-2.3-4-4.4c0-2.3,2.1-3.9,4-4.2l0.4-0.1v-2.8h1.5v2.9h0.5c1.9,0.2,3.4,1.5,4.2,2.5l-1,0.9c-1.4-1.5-2.1-2-3.1-2.1
		l-0.6-0.2v6.8l0.4,0.1c1.1,0.2,4.9,1,4.9,4.7c0,2.7-2.5,4.4-4.8,4.5h-0.5v2.9H20.4z M21.9,35.8h0.5c1.9-0.1,3.3-1.5,3.3-3.3
		c0-1.9-1.7-3.1-3.3-3.3L21.9,29V35.8z M19.8,21c-1.3,0.3-2.3,1.7-2.3,3.1c0,1.3,0.9,2.5,2.3,3l0.7,0.2v-6.5L19.8,21z"/>
</g>
</svg>
