<?xml version="1.0" encoding="utf-8"?>
<!-- Generator: Adobe Illustrator 22.1.0, SVG Export Plug-In . SVG Version: 6.00 Build 0)  -->
<svg version="1.1" id="Layer_1" xmlns="http://www.w3.org/2000/svg" xmlns:xlink="http://www.w3.org/1999/xlink" x="0px" y="0px"
	 viewBox="0 0 40 40" style="enable-background:new 0 0 40 40;" xml:space="preserve">
<style type="text/css">
	.st0{fill:#8E88FF;}
</style>
<g>
	<path class="st0" d="M11.5,6.7c-1.6,0-2.8,1.4-2.8,2.9h5.7C14.3,8.1,13,6.7,11.5,6.7z"/>
	<path class="st0" d="M15.3,9.9h3.5V8.2c0-0.2-0.2-0.3-0.3-0.3H15C15.3,8.5,15.3,9.2,15.3,9.9z"/>
	<path class="st0" d="M19.5,7.3c0.6,0.6,0.4,1.8,0.4,2.7h2.2l0.5-3.4c0-0.2-0.1-0.5-0.4-0.5l-5.3-0.6L16.7,7
		C17.8,7,18.8,6.8,19.5,7.3z"/>
	<circle class="st0" cx="19.3" cy="33.3" r="2.4"/>
	<circle class="st0" cx="27.5" cy="33.3" r="2.4"/>
	<path class="st0" d="M31.6,27.9H15.2c-0.1,0-0.3-0.1-0.3-0.2L14,25.3h13.1c-1-0.5-1.9-1.1-2.7-1.9H13.2L9.1,12.6h13
		c0.3-0.7,0.6-1.3,1-1.9H8.4L6.8,6.6C6.6,5.9,6,5.4,5.2,5.2L1.1,4.3C0.6,4.2,0.1,4.5,0,5s0.2,1,0.7,1.1L4.8,7C4.9,7,5,7.1,5,7.2
		l8.1,21.1c0.3,0.9,1.2,1.4,2.1,1.4h16.4c0.5,0,0.9-0.4,0.9-0.9C32.6,28.4,32.1,27.9,31.6,27.9z"/>
	<path class="st0" d="M31.2,7.6c-4.8,0-8.8,3.9-8.8,8.8c0,4.8,3.9,8.8,8.8,8.8s8.8-3.9,8.8-8.8S36.1,7.6,31.2,7.6z M31.2,23.5
		c-3.9,0-7.1-3.2-7.1-7.1s3.2-7.1,7.1-7.1s7.1,3.2,7.1,7.1S35.1,23.5,31.2,23.5z"/>
	<path class="st0" d="M35.7,18c-0.8-1.3-1.5-2.6-2.3-3.9c-0.1-0.2-0.3-0.5-0.4-0.7c-0.3-0.5-0.6-1.1-0.9-1.6
		c-0.2-0.4-0.6-0.6-0.9-0.6c-0.4,0-0.7,0.2-0.9,0.6c0,0,0,0.1-0.1,0.1L29.6,13c-1,1.7-2,3.4-2.9,5.1c-0.1,0.1-0.1,0.2-0.2,0.4
		c-0.1,0.3-0.1,0.6,0.1,0.9s0.4,0.4,0.8,0.5c0.1,0,0.2,0,0.3,0h0.1c0.6,0,1.3,0,1.9,0h1.6h0.1c0.3,0,0.7,0,1,0c0.4,0,0.7,0,1.1,0
		c0.6,0,1.1,0,1.5,0s0.8-0.2,0.9-0.5c0.2-0.3,0.2-0.7,0-1.1C35.8,18.1,35.7,18,35.7,18z M35,18.8L35,18.8c-0.2,0-0.2,0-0.3,0
		c-0.7,0-1.4,0-2.2,0h-4.8h-0.1h-0.1c-0.2,0-0.2,0-0.2,0s0,0,0.1-0.2c0.4-0.7,0.8-1.3,1.1-2l0.4-0.6c0.4-0.8,0.9-1.5,1.3-2.3
		l0.7-1.2l0,0v-0.1c0.1-0.2,0.2-0.2,0.2-0.2s0,0,0.2,0.2c0.5,0.8,1,1.6,1.4,2.4l0.4,0.8c0.6,1,1.1,1.9,1.7,2.9
		C34.9,18.5,35,18.6,35,18.8C35,18.7,35,18.8,35,18.8z"/>
	<path class="st0" d="M31.1,13.6c-0.3,0-0.5,0.3-0.5,0.7c0,0.7,0.1,1.5,0.1,2.2c0,0.4,0.2,0.6,0.4,0.6c0.2,0,0.4-0.2,0.4-0.6
		c0.1-0.7,0.1-1.3,0.2-1.9c0-0.3,0-0.5-0.1-0.6C31.6,13.7,31.4,13.6,31.1,13.6z"/>
	<path class="st0" d="M31.2,17.4c-0.3,0-0.6,0.3-0.6,0.6c0,0.3,0.3,0.6,0.6,0.6c0.3,0,0.6-0.3,0.6-0.6
		C31.8,17.7,31.5,17.4,31.2,17.4z"/>
</g>
</svg>
