<?xml version="1.0" encoding="utf-8"?>
<!-- Generator: Adobe Illustrator 21.1.0, SVG Export Plug-In . SVG Version: 6.00 Build 0)  -->
<svg version="1.1" id="Layer_1" xmlns="http://www.w3.org/2000/svg" xmlns:xlink="http://www.w3.org/1999/xlink" x="0px" y="0px"
	 viewBox="0 0 40 40" style="enable-background:new 0 0 40 40;" xml:space="preserve">
<style type="text/css">
	.st0{fill:#35C4FF;}
</style>
<path class="st0" d="M13.5,36.6H2.7c-0.5,0-0.9-0.4-0.9-0.9v-33c0-0.5,0.4-0.9,0.9-0.9H31c0.5,0,0.9,0.4,0.9,0.9v8.5
	c0,0.5,0.4,0.9,0.9,0.9s0.9-0.4,0.9-0.9V0.9c0-0.5-0.4-0.9-0.9-0.9H0.9C0.4,0,0,0.4,0,0.9v36.5c0,0.5,0.4,0.9,0.9,0.9h12.5
	c0.5,0,0.9-0.4,0.9-0.9l0,0C14.4,37,14,36.6,13.5,36.6z M39.1,37.5c-0.4,0-0.9,0-1.3,0c-0.1,0-0.1,0-0.3,0c0-1.3,0-2.5,0-3.7
	c0-1.9-0.7-3.3-2.2-4.5c-0.7-0.6-1.4-1.2-2-1.7l-0.1-0.1c0.7-0.6,1.4-1.2,2.2-1.9c1.4-1.2,2.2-2.7,2.2-4.6c0-1.2,0-2.3,0-3.5v-0.1
	c0.4,0,0.9,0,1.3,0c0.7,0,1.2-0.4,1.2-1.2c0-0.7-0.4-1.3-1-1.3c-0.1,0-0.3,0-0.3,0c-6.6,0-13.4,0-20,0c-0.1,0-0.1,0-0.3,0
	c-0.7,0-1.2,0.4-1.2,1.2c0,0.7,0.3,1.3,1,1.3c0.3,0,0.6,0,0.9,0c0.3,0,0.4,0,0.7,0v0.3c0,1.2,0,2.3,0,3.5c0,0.3,0,0.6,0,0.9
	c0.1,1.3,0.9,2.5,1.9,3.5c0.7,0.7,1.6,1.3,2.3,2l0.1,0.1c-0.7,0.6-1.4,1.3-2.2,1.9c-1.4,1.2-2.3,2.7-2.3,4.8c0,0.9,0,1.6,0,2.5v1
	c-0.4,0-0.9,0-1.4,0s-1.2,0.4-1.2,1c-0.1,0.6,0.3,1.2,0.9,1.3c0.1,0,0.4,0,0.6,0c6.8,0,13.4,0,20.2,0h0.1c0.7,0,1.2-0.4,1.2-1.2
	C40.1,38.1,39.7,37.7,39.1,37.5z M34.9,37.3L34.9,37.3l-2.6,0.1c-0.1-1.3-0.9-2.5-1.7-3.3c-0.6-0.6-1.3-1.2-1.9-1.6c0,0-0.1,0-0.3,0
	c-1.2,0.9-2.3,1.7-3,3c-0.4,0.6-0.7,1.3-0.7,2h-2.6v-0.3c0-1.2,0-2.3,0-3.5c0-0.9,0.3-1.7,1-2.3c0.6-0.6,1.3-1.2,1.9-1.7
	c0.6-0.4,1.2-1,1.9-1.4c0.4-0.3,0.6-1,0.3-1.4L27,26.7c-0.7-0.6-1.4-1.3-2.3-1.9c-0.4-0.4-1-0.9-1.4-1.3c-0.7-0.7-1.2-1.6-1.2-2.6
	c0-1.2,0-2.2,0-3.3v-0.3h12.8v0.1c0,1.2,0,2.2,0,3.3c0,1.3-0.4,2.3-1.4,3c-1,0.9-2,1.7-3,2.6c-0.4,0.3-0.6,1-0.3,1.4
	c0,0.1,0.1,0.1,0.1,0.1c0.7,0.6,1.3,1.2,2,1.6c0.6,0.4,1.2,0.9,1.6,1.4c0.7,0.7,1.2,1.6,1,2.5C34.9,35,34.9,36.1,34.9,37.3z
	 M25.8,5.1H7.2v1.7h18.6c0.5,0,0.8-0.4,0.8-0.8l0,0C26.7,5.5,26.3,5.1,25.8,5.1z M25.8,10H13.4v1.7h12.4c0.5,0,0.8-0.4,0.8-0.8l0,0
	C26.7,10.4,26.3,10,25.8,10z M15.5,15.3h-2.1V17h2.1C15.3,16.4,15.3,15.8,15.5,15.3z M10.7,10H7.2v1.7h3.5V10z M7.2,17h3.5v-1.7H7.2
	V17z M32.5,21.1h-7.6c0,0.7,0.3,1.4,0.7,1.9c0.9,0.9,1.9,1.4,3,1.7h0.1c1.2-0.4,2.2-0.9,3-1.7C32.2,22.6,32.4,22,32.5,21.1z"/>
</svg>
