<?xml version="1.0" encoding="utf-8"?>
<!-- Generator: Adobe Illustrator 21.1.0, SVG Export Plug-In . SVG Version: 6.00 Build 0)  -->
<svg version="1.1" id="Layer_1" xmlns="http://www.w3.org/2000/svg" xmlns:xlink="http://www.w3.org/1999/xlink" x="0px" y="0px"
	 viewBox="0 0 40 40" style="enable-background:new 0 0 40 40;" xml:space="preserve">
<style type="text/css">
	.st0{fill:#35C4FF;}
</style>
<rect x="62.7" y="-4.9" class="st0" width="27.7" height="25.6"/>
<g>
	<g>
		<g>
			<path class="st0" d="M39.4,6.2c-0.7-0.3-1.5-0.5-2.3-0.6c0.5-0.3,1-0.6,1.5-0.8S39.2,4,39,3.5c-0.2-0.5-0.8-0.6-1.3-0.4
				c-0.9,0.5-1.8,1-2.6,1.5c0.2-1.2,0.1-2.4-0.3-3.5c-0.2-0.5-0.7-0.8-1.2-0.6c-0.5,0.2-0.8,0.7-0.6,1.2c0.4,1.2,0.4,2.5-0.1,3.7
				c-0.8-0.5-1.6-0.8-2.6-0.9c-1.4-0.1-2.8,0.3-3.8,1.3c-2.6,2.4-5.1,5.3-7,8.2c0.1-0.8,0-1.6-0.1-2.4c-0.3-2.1-1.1-3.9-2.3-5.2
				c-1.3-1.4-2.9-2.1-4.5-1.9c-1.1,0.2-2.1,0.7-2.9,1.6c0-0.3,0-0.6,0-0.9C10,4.5,10.4,4,11,3.6c0.4-0.3,0.6-0.9,0.3-1.3
				C11,1.9,10.4,1.7,10,2C9.8,2.1,9.5,2.3,9.3,2.5c-0.5-0.7-1.2-1.4-2-1.7l0,0C5.8,0.2,4.1,0.3,2.8,1.3C2.5,1.5,2.4,1.8,2.4,2.2
				c0.2,1.6,1.2,3,2.7,3.6C5.7,6,6.3,6.2,6.9,6.2c0.3,0,0.7,0,1-0.1c0,0.2,0,0.5,0.1,0.7C6.8,6.7,5.7,6.9,4.8,7.6
				c-1.2,0.8-1.9,2.1-2,3.8c-0.1,1.1,0.1,2.2,0.4,3.4H0.9c-0.5,0-0.9,0.4-0.9,0.9v7.7l0,0V31v7.7c0,0.5,0.4,0.9,0.9,0.9H36
				c0.5,0,0.9-0.4,0.9-0.9V31v-7.7l0,0v-7.7c0-0.5-0.4-0.9-0.9-0.9h-2.9c0.3-0.3,0.6-0.5,0.9-0.8c1-0.9,1.6-2.2,1.6-3.7
				c0-0.9-0.2-1.8-0.6-2.6c1.2-0.3,2.5-0.3,3.7,0.2c0.5,0.2,1,0,1.2-0.5C40.1,6.9,39.9,6.4,39.4,6.2z M6.1,4.2
				C5.4,3.9,4.9,3.3,4.7,2.6c0.7-0.3,1.4-0.3,2.1,0S8,3.5,8.2,4.2C7.5,4.4,6.8,4.5,6.1,4.2z M6.1,9.1c0.8-0.5,1.7-0.5,2.3-0.4
				c1.1,0.2,2.2-0.2,2.8-1.1c0.4-0.5,1-1.1,2-1.3c1-0.1,2,0.3,2.9,1.3c1,1.1,1.6,2.6,1.9,4.2c0.1,1,0.1,2-0.1,2.9H5.5
				C4.4,12.4,4.7,10.1,6.1,9.1z M35.1,16.6v6.8l0,0V31v6.8H2.1V31v-7.7l0,0v-6.7h2.7h13.7h1.3l0,0l0,0L35.1,16.6L35.1,16.6z
				 M32.8,12.6c-0.8,0.7-1.6,1.4-2.4,2l-0.9-1c-0.4-0.4-0.9-0.4-1.3-0.1c-0.4,0.3-0.4,0.9-0.1,1.2h-6.6c0.4-0.6,0.9-1.2,1.3-1.9
				l0.8,0.8c0.2,0.2,0.4,0.3,0.7,0.3c0.2,0,0.5-0.1,0.6-0.2c0.4-0.4,0.4-0.9,0.1-1.3l-1-1.1c0.7-0.9,1.5-1.7,2.3-2.5l0.8,0.9
				c0.2,0.2,0.4,0.3,0.7,0.3c0.2,0,0.5-0.1,0.6-0.2c0.4-0.4,0.4-0.9,0.1-1.3l-0.9-1c0.1-0.1,0.2-0.2,0.4-0.3
				c0.6-0.6,1.5-0.9,2.4-0.8c0.9,0.1,1.8,0.5,2.5,1.2c0.7,0.7,1,1.6,1,2.6C33.8,11.2,33.5,12,32.8,12.6z"/>
		</g>
	</g>
	<g>
		<g>
			<circle class="st0" cx="6.5" cy="19.4" r="1"/>
		</g>
	</g>
	<g>
		<g>
			<circle class="st0" cx="30.6" cy="19.4" r="1"/>
		</g>
	</g>
	<g>
		<g>
			<circle class="st0" cx="6.5" cy="27.1" r="1"/>
		</g>
	</g>
	<g>
		<g>
			<circle class="st0" cx="30.6" cy="27.1" r="1"/>
		</g>
	</g>
	<g>
		<g>
			<circle class="st0" cx="6.5" cy="34.8" r="1"/>
		</g>
	</g>
	<g>
		<g>
			<circle class="st0" cx="30.6" cy="34.8" r="1"/>
		</g>
	</g>
	<g>
		<g>
			<path class="st0" d="M32.7,22.3H4.6c-0.5,0-0.9,0.4-0.9,0.9c0,0.5,0.4,0.9,0.9,0.9h28.1c0.5,0,0.9-0.4,0.9-0.9
				C33.6,22.8,33.2,22.3,32.7,22.3z"/>
		</g>
	</g>
	<g>
		<g>
			<path class="st0" d="M32.7,30H4.6c-0.5,0-0.9,0.4-0.9,0.9c0,0.5,0.4,0.9,0.9,0.9h28.1c0.5,0,0.9-0.4,0.9-0.9
				C33.6,30.5,33.2,30,32.7,30z"/>
		</g>
	</g>
</g>
</svg>
