<?xml version="1.0" encoding="utf-8"?>
<!-- Generator: Adobe Illustrator 21.1.0, SVG Export Plug-In . SVG Version: 6.00 Build 0)  -->
<svg version="1.1" id="Layer_1" xmlns="http://www.w3.org/2000/svg" xmlns:xlink="http://www.w3.org/1999/xlink" x="0px" y="0px"
	 viewBox="0 0 40 40" style="enable-background:new 0 0 40 40;" xml:space="preserve">
<style type="text/css">
	.st0{fill:#35C4FF;}
</style>
<g>
	<g>
		<path class="st0" d="M35.5,31.8C35.1,32,35,32,34.7,32.3c-0.8,0.6-0.8,0.6-1.4-0.1c-2.1-2-4.3-2.1-6.3-0.2c-0.8,0.8-0.8,0.8,0,1.4
			c0,0,0.1,0.2,0.3,0.2c-0.2,0.2-0.4,0.3-0.5,0.4c-0.5,0.3-0.5,0.5-0.1,0.9c1.7,1.7,3.8,2.1,5.7,0.7c1.2-0.8,2.1-1.1,3.1-0.1
			c0,0,0,0,0.2,0C35,34.4,34.7,33.1,35.5,31.8z M28.3,33.1c-0.2,0-0.4-0.2-0.4-0.4s0.1-0.4,0.4-0.5c0.2,0,0.4,0.2,0.4,0.4
			C28.6,32.8,28.5,33.1,28.3,33.1z M12.3,26.3c-1.8,0-3.7,0.1-5.5,0c-1.1-0.1-1.9,0.3-2.4,1.2c-0.5,1.1-0.5,2.2,0.2,3
			s0.7,1.5,0.7,2.4v1.8c-0.1,0.5,0.1,0.8,0.7,0.8h5.5c1.4,0,1.4,0,1.4-1.4c-0.2-0.9,0.2-1.9-0.2-2.4c-0.5-0.5-1.7-0.2-2.4-0.2h-0.1
			c-0.4-0.2-0.5,0.1-0.5,0.5v2.3C9.8,34.9,9.5,35,9.1,35H6.5c-0.5,0.1-0.6-0.2-0.6-0.6V32c0-0.5-0.2-0.9-0.6-1.2
			c-0.7-0.6-0.9-1.6-0.6-2.4c0.4-0.8,0.8-1.1,1.8-1.1h2.7c1.1,0,1.7,0.6,1.8,1.6s-0.3,1.7-1.2,2.3c1.2,0,2.2,0,3.6,0.1
			c0.3,0,0.5,0,0.7-0.2c0.6-1,0.8-1.9,0.4-2.9C14,26.7,13.3,26.3,12.3,26.3z M9.7,7.3c-0.7,0.2-1.3,0.2-2,0c-1.8-0.5-3,0.4-3.4,2
			C4.1,11,5.4,13.7,7,14.4c1.1,0.4,2.1-0.5,3,0.1c0.2,0.2,0.4,0,0.6-0.1c1.7-1,2.5-2.5,2.7-4.1C13.3,7.8,12,6.6,9.7,7.3z M6.5,12.3
			c-1-0.8-1-2.9-0.1-3.8C6.8,8,7.2,8.3,7.7,8.3C6.8,9.5,6.6,10.8,6.5,12.3z M9.1,6.7c1.7-0.2,2.7-0.8,3-1.9c0.2-0.5,0-0.7-0.5-0.6
			C10.2,4.5,9.2,5,8.9,6.5c-0.3-0.6-0.5-1-0.7-1.4C8,4.3,7.5,4.1,6.6,4.4c0.5,0.7,0.9,1.3,1.3,1.7C8.3,6.6,8.7,6.7,9.1,6.7z
			 M31.3,6.5c-0.5,0-0.7,0.1-0.9,0.4c-0.7,1-1.3,2-2.1,2.7c-1.9,1.8-2.6,3.8-2.3,6.5c0.1,1.1,0.1,1.2,1.1,0.9c2.6-0.6,5-1.3,7.6-2
			c0.5-0.1,0.6-0.2,0.6-0.7v-2.1c0-0.5,0-1.1,0.1-1.7C35.3,8.4,33.3,6.5,31.3,6.5z M34.8,11v2.6c0,0.5-0.2,0.7-0.6,0.8
			c-2.4,0.5-4.5,1.1-6.8,1.8c-0.5,0.2-0.6,0.1-0.6-0.4v-1.4c0-1.8,0-1.8,2-2.5c1.8-0.5,3.6-1,5.3-1.4C34.6,10.3,34.8,10.4,34.8,11z
			 M32.2,14c0.7-0.1,1-0.4,1.1-1c0.1-0.5-0.5-1.1-1-1c-0.6,0.1-1,0.4-1,1S31.6,13.9,32.2,14z M28.1,13.3c-0.4,0-0.6,0.2-0.6,0.6
			c0,0.5,0.3,0.7,0.7,0.7c0.4,0,0.5-0.2,0.6-0.6C28.8,13.6,28.6,13.3,28.1,13.3z M30.5,14.6c0.1,0,0.2-0.2,0.3-0.3
			c0-0.2-0.1-0.3-0.3-0.3c-0.2,0-0.3,0.1-0.3,0.3S30.3,14.6,30.5,14.6z M14.7,0H4C1.9,0,0.1,1.7,0.1,3.9v10.9c0,2.1,1.7,3.9,3.9,3.9
			h10.8c2.1,0,3.9-1.7,3.9-3.9V3.9C18.6,1.7,16.8,0,14.7,0z M17,14.8c0,1.3-1,2.3-2.3,2.3H4c-1.3,0-2.3-1-2.3-2.3v-11
			c0-1.3,1-2.3,2.3-2.3h10.8c1.3,0,2.3,1,2.3,2.3v11H17z M14.7,22H4c-2.1,0-3.9,1.7-3.9,3.9V36c0,2.2,1.7,4,3.9,4h10.8
			c2.1,0,3.9-1.7,3.9-3.9V25.9C18.6,23.7,16.8,22,14.7,22z M17,36.1c0,1.3-1,2.3-2.3,2.3H4c-1.3,0-2.3-1-2.3-2.3V25.9
			c0-1.3,1-2.3,2.3-2.3h10.8c1.3,0,2.3,1,2.3,2.3v10.2H17z M36,26.8H25.3c-2.1,0-3.9,1.7-3.9,3.9V36c0,2.1,1.7,3.9,3.9,3.9H36
			c2.1,0,3.9-1.7,3.9-3.9v-5.3C39.9,28.6,38.2,26.8,36,26.8z M38.3,36.1c0,1.3-1,2.3-2.3,2.3H25.3c-1.3,0-2.3-1-2.3-2.3v-5.3
			c0-1.3,1-2.3,2.3-2.3H36c1.3,0,2.3,1,2.3,2.3V36.1z M36,0H25.3c-2.1,0-3.9,1.7-3.9,3.9v15.8c0,2.1,1.7,3.9,3.9,3.9H36
			c2.1,0,3.9-1.7,3.9-3.9V3.9C39.9,1.7,38.2,0,36,0z M38.3,19.7c0,1.3-1,2.3-2.3,2.3H25.3C24,22,23,21,23,19.7V3.9
			c0-1.3,1-2.3,2.3-2.3H36c1.3,0,2.3,1,2.3,2.3V19.7z"/>
	</g>
</g>
</svg>
