<?xml version="1.0" encoding="utf-8"?>
<!-- Generator: Adobe Illustrator 21.1.0, SVG Export Plug-In . SVG Version: 6.00 Build 0)  -->
<svg version="1.1" id="Layer_1" xmlns="http://www.w3.org/2000/svg" xmlns:xlink="http://www.w3.org/1999/xlink" x="0px" y="0px"
	 viewBox="0 0 40 40" style="enable-background:new 0 0 40 40;" xml:space="preserve">
<style type="text/css">
	.st0{fill:#8e87ff;}
</style>
<rect x="62.7" y="-4.9" class="st0" width="27.7" height="25.6"/>
<g>
	<path class="st0" d="M11.8,7.8c3.8,0,7.7,0,11.5,0c0.7,0,1-0.3,1-1c0-1.2,0-2.4,0-3.6c0-0.7-0.3-1-1-1c-0.8,0-1.6,0-2.3,0
		c-0.2,0-0.3-0.1-0.4-0.3c-0.2-0.4-0.5-0.9-0.8-1.2S19.1,0.2,18.7,0h-2c0,0,0,0.1-0.1,0.1c-0.9,0.4-1.6,1-1.9,1.9
		c0,0.1-0.2,0.2-0.3,0.2c-0.8,0-1.6,0-2.4,0c-0.7,0-1,0.3-1,1c0,1.2,0,2.4,0,3.6C10.9,7.5,11.2,7.8,11.8,7.8z M17.6,1.6
		c0.8,0,1.5,0.7,1.5,1.5s-0.7,1.5-1.5,1.5s-1.5-0.7-1.5-1.5C16.1,2.2,16.8,1.6,17.6,1.6z M31.4,21.1c-4,0-6.9,3.3-6.9,6.9
		c0,3.7,3,6.9,6.9,6.9c3.7,0,6.9-2.9,6.9-6.9S35.2,21.1,31.4,21.1z M35.9,26.8c-1.5,1.5-2.9,3.1-4,4.9c-0.1,0.2-0.2,0.4-0.3,0.5
		c-0.5,0.7-1.2,0.8-1.8,0.1c-0.8-1-1.6-2.1-2.4-3.2c-0.2-0.2-0.3-0.4-0.5-0.7c-0.3-0.5-0.3-1.1,0.2-1.4c0.4-0.3,1-0.2,1.4,0.2
		c0.6,0.8,1.2,1.6,1.8,2.4c0.1,0.1,0.2,0.2,0.3,0.3c0.5-0.7,1-1.4,1.5-2c0.8-0.9,1.6-1.8,2.5-2.7c0.6-0.6,1.5-0.3,1.7,0.5
		C36.3,26.2,36.2,26.5,35.9,26.8z M31.6,37.2c-0.2,0.3-0.4,0.6-0.6,0.8c-0.4,0.3-0.9,0.4-1.4,0.4c-5.5,0-11.1,0-16.6,0
		c-2.5,0-5,0-7.5,0c-1.3,0-2.1-0.9-2.1-2.1c0-0.7,0-1.3,0-2c0-8.4,0-16.7,0-25.1c0-1.3,0.9-2.1,2.1-2.1c0.6,0,1.2,0,1.8,0
		s1.1,0,1.7,0c0-0.5,0-1,0-1.5c0-0.1-0.2-0.2-0.3-0.2c-1.1,0-2.2,0-3.4,0C3.1,5.5,1.6,7.1,1.6,9.2c0,1.6,0,3.2,0,4.8
		c0,7.4,0,14.8,0,22.2c0,2.1,1.6,3.8,3.7,3.8c8.2,0,16.4,0,24.6,0c1.5,0,2.8-0.9,3.4-2.3c0.1-0.3,0.2-0.7,0.3-1
		c-0.6,0.1-1,0.1-1.4,0.2C31.8,36.8,31.7,37,31.6,37.2z M30.1,7c1,0.2,1.7,1,1.7,2.2c0,3,0,5.9,0,8.9v1.3c0.6,0.1,1.1,0.2,1.7,0.2
		c0-1,0-1.9,0-2.8c0-2.6,0-5.2,0-7.8c0-1.9-1.4-3.5-3.2-3.6c-1.3-0.1-2.7,0-4,0c0,0,0,0-0.1,0V7c1,0,2,0,3,0C29.5,7,29.9,6.9,30.1,7
		z M26.9,13.1c-0.1-0.2-0.4-0.3-0.6-0.3c-5.8,0-11.6,0-17.3,0c-0.1,0-0.3,0-0.3,0c-0.1,0.1-0.3,0.3-0.3,0.4c0,0.2,0.2,0.3,0.3,0.4
		c0.1,0.1,0.3,0,0.4,0c2.9,0,5.7,0,8.6,0l0,0c1.6,0,3.2,0,4.7,0c1.4,0,2.7,0,4.1,0C26.8,13.7,27.1,13.4,26.9,13.1z M26.9,19
		c0-0.3-0.2-0.4-0.5-0.4c-0.1,0-0.2,0-0.4,0h-8.5c-2.9,0-5.7,0-8.6,0c-0.1,0-0.3,0-0.3,0c-0.1,0.1-0.4,0.3-0.4,0.4s0.2,0.3,0.4,0.4
		c0.1,0.1,0.2,0,0.3,0c4.6,0,9.2,0,13.8,0c1.2,0,2.4,0,3.6,0C26.6,19.4,26.9,19.3,26.9,19z M22.9,24.3c-4.6,0-9.3,0-13.9,0
		c-0.6,0-0.8,0.1-0.8,0.5c0,0.3,0.2,0.4,0.8,0.4c2.7,0,5.5,0,8.2,0c1.8,0,3.6,0,5.5,0c0.1,0,0.3-0.1,0.4-0.2
		c0.1-0.2,0.2-0.4,0.3-0.7C23.3,24.3,22.8,24.3,22.9,24.3z M22.4,30.4c-2.4,0-4.8,0-7.2,0c-2.1,0-4.2,0-6.3,0
		c-0.4,0-0.6,0.2-0.6,0.5c0,0.4,0.3,0.4,0.6,0.4c0.1,0,0.1,0,0.2,0c3.8,0,7.7,0,11.5,0h2.7c-0.1-0.2-0.1-0.3-0.1-0.4
		C23.1,30.5,22.8,30.4,22.4,30.4z"/>
</g>
</svg>
