<?xml version="1.0" encoding="utf-8"?>
<!-- Generator: Adobe Illustrator 21.1.0, SVG Export Plug-In . SVG Version: 6.00 Build 0)  -->
<svg version="1.1" id="Layer_1" xmlns="http://www.w3.org/2000/svg" xmlns:xlink="http://www.w3.org/1999/xlink" x="0px" y="0px"
	 viewBox="0 0 40 40" style="enable-background:new 0 0 40 40;" xml:space="preserve">
<style type="text/css">
	.st0{fill:#8e87ff;}
</style>
<rect x="62.7" y="-4.9" class="st0" width="27.7" height="25.6"/>
<g>
	<g>
		<path class="st0" d="M18.1,39.9L18.1,39.9L18.1,39.9c-4.9,0-9.4-1.9-12.8-5.3C1.9,31.2,0,26.6,0,21.8C0,16.9,1.9,12.4,5.3,9
			c3.4-3.4,8-5.3,12.8-5.3l0,0H19v17.3h17.3v0.8c0,4.9-1.9,9.4-5.3,12.8C27.5,38.1,23,39.9,18.1,39.9z M18.1,38.2L18.1,38.2
			c4.4,0,8.5-1.7,11.6-4.8c2.9-2.9,4.6-6.7,4.8-10.8H17.3V5.4c-4.1,0.2-7.9,1.9-10.8,4.8c-3.1,3.1-4.8,7.2-4.8,11.6
			s1.7,8.5,4.8,11.6S13.7,38.2,18.1,38.2L18.1,38.2z"/>
	</g>
	<g>
		<path class="st0" d="M40,19.1H21v-19h0.8l0,0c4.8,0,9.4,1.9,12.8,5.3s5.3,8,5.3,12.8C40,18.2,40,19.1,40,19.1z M22.7,17.4h15.6
			c-0.2-4.1-1.9-7.9-4.8-10.8C30.6,3.6,26.8,2,22.7,1.8V17.4z"/>
	</g>
</g>
</svg>
