<?xml version="1.0" encoding="utf-8"?>
<!-- Generator: Adobe Illustrator 21.1.0, SVG Export Plug-In . SVG Version: 6.00 Build 0)  -->
<svg version="1.1" id="Layer_1" xmlns="http://www.w3.org/2000/svg" xmlns:xlink="http://www.w3.org/1999/xlink" x="0px" y="0px"
	 viewBox="0 0 40 40" style="enable-background:new 0 0 40 40;" xml:space="preserve">
<style type="text/css">
	.st0{fill:#35C4FF;}
</style>
<g>
	<g>
		<polygon class="st0" points="26.7,27.3 26.9,19.7 23.7,24.7 22.4,24.6 22.7,25.6 24.3,25.7 26,23.1 25.6,30.5 29.7,25.5 
			30.1,25.6 30.6,24.9 28.9,24.5 		"/>
		<path class="st0" d="M31.9,31c1.3-1.2,2.1-2.9,2.4-4.8c0.5-4.4-2.6-8.3-7-8.8c-4.4-0.5-8.3,2.6-8.8,7c-0.5,4.4,2.6,8.3,7,8.8
			c1.5,0.2,3-0.1,4.4-0.7l2.4,3.8c0.1,0.2,0.3,0.2,0.5,0.1l1.7-1c0.2-0.1,0.2-0.3,0.1-0.5L31.9,31z M25.6,31.7
			c-3.5-0.4-6-3.6-5.6-7.1c0.4-3.5,3.6-6,7.1-5.6c3.5,0.4,6,3.6,5.6,7.1C32.3,29.5,29.1,32.1,25.6,31.7z"/>
	</g>
	<path class="st0" d="M35.2,16.8l4.6-1.8c0.2-0.1,0.3-0.3,0.1-0.5L39.3,14c-0.2-0.2-0.3-0.3-0.5-0.5c-0.5-0.6-1.1-1.1-1.6-1.7
		c-0.7-0.7-1.4-1.5-2.1-2.2c-0.2-0.2-0.4-0.4-0.7-0.5C30.9,7.8,27.3,6.4,23.8,5l-3.3-1.3c0,0-0.1,0-0.1,0l-0.3-0.2h-0.3l-1.5,0.6
		c-1,0.4-1.9,0.8-2.9,1.1L12,6.6C9.8,7.4,7.6,8.3,5.5,9.1C5.2,9.3,4.8,9.5,4.6,9.7c-0.9,0.9-1.8,1.9-2.7,2.8c0,0-1.6,1.7-1.7,1.7
		l0,0C-0.1,14.5,0,15,0.3,15.1l0.2,0.1c0.1,0.1,0.2,0.1,0.3,0.1l3,1.1c3.7,1.4,7.3,2.8,10.9,4.3c0.4,0.2,0.8,0.1,1.1-0.3
		c1.1-1.2,2.2-2.3,3.3-3.5l0.8-0.8l0.2,0.2L19.4,17c-0.1,0.1-0.2,0.1-0.2,0.2l-0.8,0.9c-1,1-2,2.1-2.9,3.1c0,0-0.1,0.1-0.1,0
		C12.6,20.2,9.8,19.1,7,18l-1.2-0.4c-0.1,0-0.2-0.1-0.3-0.1l-0.4-0.1c-0.2-0.1-0.4,0.1-0.4,0.3l0,5.8c0,1.9,0,3.7,0,5.6
		c0,0.5,0.2,0.9,0.7,1.1c4.2,1.6,8.3,3.2,12.5,4.8l1.3,0.5c0.1,0,0.2,0.1,0.3,0.1l0.2,0.1h0.3l1.3-0.5c0.1-0.1,0.3-0.1,0.4-0.2
		c0.2-0.1,0.3-0.4,0-0.5c-0.1-0.1-0.2-0.1-0.3-0.2c-0.2,0-0.4,0-0.6-0.1l-1,0.4c-0.1,0-0.2-0.1-0.3-0.1l-1.4-0.5
		c-4.2-1.6-8.3-3.2-12.5-4.8c0,0,0,0,0,0c0,0,0,0,0-0.1c0-1.9,0-3.7,0-5.6l0-4.4c0-0.2,0.2-0.4,0.4-0.3L6.7,19
		c2.8,1.1,5.6,2.2,8.4,3.3c0.4,0.2,0.8,0.1,1.1-0.3c0.9-1,1.8-1.9,2.7-2.9c0.4-0.5,0.9-1,1.4-1.4c0.1-0.1,0.1-0.1,0.1-0.2l0-0.7
		l0.4,0.4c0,0,0,0.1,0.1,0.1c0.1-0.1,0.2-0.1,0.3-0.2c0-0.4,0.1-0.5,0.1-0.9L21.1,16c-0.1-0.2-0.1-0.4,0.1-0.5
		c3.6-1.4,7.2-2.8,10.9-4.2c0.1,0,0.2-0.1,0.3-0.1l0.6-0.3c0.2-0.1,0.2-0.4,0-0.5l-0.6-0.3c-0.1,0-0.1,0-0.1-0.1l-1.7-0.7
		c-3.4-1.3-6.9-2.7-10.3-4c-0.4-0.1-0.8,0-0.9,0C18,6,16.6,6.5,15.2,7.1l-7.8,3c-0.4,0.2-0.5,0.7-0.1,1l0,0c0,0,0.1,0.1,0.2,0.1
		c3.7,1.4,7.4,2.9,11.1,4.3c0.2,0.1,0.3,0.3,0.1,0.5l-0.3,0.3c-1.1,1.2-2.2,2.3-3.3,3.5c0,0,0,0,0,0c0,0,0,0-0.1,0
		c-3.6-1.4-7.3-2.8-11-4.3l-2.2-0.9c-0.2-0.1-0.3-0.3-0.1-0.5l0.9-0.9c0.9-0.9,1.8-1.9,2.6-2.8c0.2-0.2,0.3-0.3,0.5-0.4
		c2.2-0.8,4.3-1.7,6.5-2.5l3.5-1.3c1-0.4,1.9-0.8,2.9-1.1l1.2-0.5c0.1,0,0.2,0.1,0.3,0.1L23.4,6C27,7.4,30.5,8.8,34,10.1
		c0.2,0.1,0.3,0.2,0.5,0.3c0.7,0.7,1.4,1.4,2.1,2.2c0.5,0.6,1.1,1.1,1.6,1.7c0.1,0.1,0.1,0.1,0.2,0.2l-4.1,1.6
		c-0.1,0-0.2,0.2-0.2,0.3l0,2.2c0,0.1,0,0.1,0.1,0.2c0.3,0.4,0.6,0.8,0.9,1.2c0-0.1,0-0.2,0-0.4v-2.5C35.1,17,35.1,16.9,35.2,16.8z
		 M9.6,10.9c-0.3-0.1-0.3-0.5,0-0.6l5.9-2.3c1.4-0.5,2.8-1.1,4.2-1.6c0.1,0,0.2,0,0.2,0c3.4,1.3,6.9,2.7,10.3,4l0.6,0.2
		c-3.6,1.4-7.3,2.8-10.9,4.2l-0.2,0C16.4,13.5,13,12.2,9.6,10.9z"/>
</g>
</svg>
