<?xml version="1.0" encoding="utf-8"?>
<!-- Generator: Adobe Illustrator 21.1.0, SVG Export Plug-In . SVG Version: 6.00 Build 0)  -->
<svg version="1.1" id="Layer_1" xmlns="http://www.w3.org/2000/svg" xmlns:xlink="http://www.w3.org/1999/xlink" x="0px" y="0px"
	 viewBox="0 0 40 40" style="enable-background:new 0 0 40 40;" xml:space="preserve">
<style type="text/css">
	.st0{fill:#35C4FF;}
</style>
<g>
	<path class="st0" d="M39.9,18.7c-0.3-3.5-1.5-6.7-3.7-9.4c-2.1-2.7-4.9-4.6-8.1-5.7c-1-0.4-2.1-0.6-3.2-0.7
		c-0.4-0.1-0.9-0.1-1.3-0.1c-0.1,0-0.1,0-0.2,0c-0.5,0-1,0-1.5,0c-0.1,0-0.1,0-0.2,0c-0.5,0-1,0.1-1.4,0.1c-1.3,0.2-2.5,0.5-3.7,0.9
		c-2.1,0.8-4,2-5.7,3.5c-1.7,1.6-3.1,3.4-4,5.6c-0.8,1.7-1.3,3.5-1.5,5.4c0,0.1,0,0.3,0,0.4c-1.8,0-3.6,0-5.4,0
		c2.2,2.7,4.4,5.3,6.7,8c2.2-2.7,4.4-5.3,6.7-8c-1.8,0-3.5,0-5.3,0C8.4,14,11.5,8.4,17.8,6.2C24,4,31,6.2,34.7,11.6
		c3.8,5.4,3.5,12.7-0.7,17.8c-2.2,2.6-4.9,4.3-8.3,5c-4.3,0.9-8.2,0-11.7-2.5c-0.5,0.7-1,1.4-1.6,2.1c0,0,0,0,0,0
		c0.7,0.5,1.5,1,2.3,1.4c2.3,1.2,4.7,1.8,7.3,1.9c1.4,0.1,2.8-0.1,4.2-0.3c1.6-0.3,3.1-0.9,4.6-1.6c2.2-1.2,4.1-2.7,5.6-4.7
		c2.2-2.8,3.4-5.9,3.6-9.4c0-0.2,0-0.4,0-0.6c0-0.5,0-1,0-1.5C40,19.1,40,18.9,39.9,18.7z"/>
	<path class="st0" d="M35,23.1c-0.1-0.2-0.2-0.4-0.4-0.5c-0.2-0.1-0.4-0.1-0.6,0l-9.6,3.2c-0.1-0.1-0.2-0.3-0.3-0.4l8-2.7
		c0.2-0.1,0.4-0.2,0.5-0.4c0.1-0.2,0.1-0.4,0-0.6l-3.1-9.3c-0.1-0.2-0.2-0.4-0.4-0.5c-0.2-0.1-0.4-0.1-0.6,0l-9.4,3.1
		c-0.1,0-0.2,0.1-0.3,0.1l-0.7-2.1c-0.1-0.2-0.2-0.4-0.4-0.5l-3.9-2c-0.4-0.2-0.9,0-1.1,0.4c-0.2,0.4,0,0.9,0.3,1.1l3.6,1.8
		l3.7,11.2c-0.2,0.1-0.3,0.2-0.4,0.4c-0.5,0.5-0.8,1.3-0.7,2c0.1,1.5,1.3,2.7,2.8,2.7l0.1,0c1.5-0.1,2.7-1.4,2.7-2.9l9.6-3.2
		C34.9,24,35.1,23.5,35,23.1z M25.3,17.9c0.2-0.1,0.4-0.2,0.5-0.4c0.1-0.2,0.1-0.4,0-0.6l-0.7-2.1l3.2-1.1l2.6,7.8L23,24.1l-2.6-7.8
		l3.2-1.1l0.7,2.1c0.1,0.3,0.4,0.5,0.7,0.5C25.1,17.9,25.2,17.9,25.3,17.9z M21.2,26.6c0.2-0.2,0.5-0.4,0.8-0.4h0.1
		c0.7,0,1.2,0.5,1.2,1.2c0,0.7-0.5,1.2-1.2,1.3c-0.7,0-1.2-0.5-1.3-1.2C20.9,27.1,21,26.8,21.2,26.6z"/>
</g>
</svg>
