<?xml version="1.0" encoding="utf-8"?>
<!-- Generator: Adobe Illustrator 21.1.0, SVG Export Plug-In . SVG Version: 6.00 Build 0)  -->
<svg version="1.1" id="Layer_1" xmlns="http://www.w3.org/2000/svg" xmlns:xlink="http://www.w3.org/1999/xlink" x="0px" y="0px"
	 viewBox="0 0 40 40" style="enable-background:new 0 0 40 40;" xml:space="preserve">
<style type="text/css">
	.st0{fill:#35C4FF;}
</style>
<rect x="62.7" y="-4.9" class="st0" width="27.7" height="25.6"/>
<g>
	<path class="st0" d="M39.3,29h-0.7c-0.4-9.8-8.3-17.6-17.9-17.9v-0.7h0.4c1,0,1.8-0.8,1.8-1.8s-0.8-1.8-1.8-1.8h-2.1
		c-1,0-1.8,0.8-1.8,1.8s0.8,1.8,1.8,1.8h0.4V11C9.6,11.4,1.7,19.3,1.4,29H0.7C0.3,29,0,29.3,0,29.7c0,0.4,0.3,0.7,0.7,0.7h0.9l0.3,1
		c0.3,1.1,1.4,1.9,2.5,1.9h31.4c1.1,0,2.2-0.8,2.5-1.9l0.3-1h0.9c0.1,0.1,0.4-0.3,0.4-0.7S39.7,29,39.3,29z M18.4,8.5
		c0-0.2,0.2-0.4,0.4-0.4H21c0.2,0,0.4,0.2,0.4,0.4c0,0.2-0.2,0.4-0.4,0.4h-2.1C18.5,8.8,18.4,8.7,18.4,8.5z M36.7,31
		c-0.1,0.4-0.7,0.9-1.1,0.9H4.1c-0.5,0-1-0.4-1.1-0.9l0,0l-0.2-0.6h28.5c0.4,0,0.7-0.3,0.7-0.7c0-0.4-0.3-0.7-0.7-0.7H2.5
		c0.4-9.2,8-16.5,17.2-16.5S36.7,19.8,37,29h-2.8c-0.4,0-0.7,0.3-0.7,0.7c0,0.4,0.3,0.7,0.7,0.7h2.6L36.7,31L36.7,31z"/>
	<path class="st0" d="M28.4,16.4c-0.3-0.2-0.8-0.1-1,0.2c-0.2,0.3-0.1,0.8,0.2,1c1.4,0.9,2.6,2,3.5,3.3c0.1,0.2,0.4,0.3,0.6,0.3
		s0.3,0,0.4-0.2c0.3-0.2,0.4-0.7,0.1-1C31.2,18.6,29.9,17.4,28.4,16.4z"/>
	<path class="st0" d="M25.9,15.1c-0.6-0.2-1.2-0.4-1.8-0.6c-0.4-0.1-0.8,0.1-0.9,0.5c-0.1,0.4,0.1,0.8,0.5,0.9
		c0.5,0.2,1.1,0.3,1.6,0.6c0.1,0,0.2,0.1,0.3,0.1c0.3,0,0.5-0.2,0.7-0.4C26.4,15.7,26.3,15.3,25.9,15.1z"/>
</g>
</svg>
