<?xml version="1.0" encoding="utf-8"?>
<!-- Generator: Adobe Illustrator 21.1.0, SVG Export Plug-In . SVG Version: 6.00 Build 0)  -->
<svg version="1.1" id="Layer_1" xmlns="http://www.w3.org/2000/svg" xmlns:xlink="http://www.w3.org/1999/xlink" x="0px" y="0px"
	 viewBox="0 0 40 40" style="enable-background:new 0 0 40 40;" xml:space="preserve">
<style type="text/css">
	.st0{fill:#35C4FF;}
</style>
<rect x="62.7" y="-4.9" class="st0" width="27.7" height="25.6"/>
<g>
	<g>
		<g>
			<path class="st0" d="M37.1,3.5h-15c-0.9,0-1.7,0.4-2.2,1c-0.5-0.6-1.3-1-2.2-1H2.9C1.3,3.5,0,4.8,0,6.4v27.1
				c0,1.6,1.3,2.9,2.9,2.9h14.9c0.9,0,1.7-0.4,2.2-1c0.5,0.6,1.3,1,2.2,1h15c1.6,0,2.9-1.3,2.9-2.9V6.4C40,4.8,38.7,3.5,37.1,3.5z
				 M19.3,33.6c0,0.8-0.6,1.4-1.4,1.4H3c-0.8,0-1.4-0.6-1.4-1.4V6.4C1.6,5.6,2.2,5,3,5h14.9c0.8,0,1.4,0.6,1.4,1.4V33.6z M38.6,33.6
				c0,0.8-0.6,1.4-1.4,1.4h-15c-0.8,0-1.4-0.6-1.4-1.4V6.4c0-0.8,0.6-1.4,1.4-1.4h15c0.8,0,1.4,0.6,1.4,1.4
				C38.6,6.4,38.6,33.6,38.6,33.6z"/>
			<rect x="24.2" y="10.7" class="st0" width="10.7" height="1.4"/>
			<rect x="24.2" y="13.6" class="st0" width="10.7" height="1.4"/>
			<rect x="24.2" y="19.3" class="st0" width="10.7" height="1.4"/>
			<rect x="24.2" y="22.1" class="st0" width="10.7" height="1.4"/>
			<rect x="24.2" y="25" class="st0" width="10.7" height="1.4"/>
			<path class="st0" d="M15,9.3H5c-0.2,0-0.5,0.1-0.6,0.3s-0.1,0.5,0,0.7l4.9,9.9v7H6.4v1.4h7.2v-1.4h-2.9v-7l4.9-9.9
				c0.1-0.2,0.1-0.5,0-0.7C15.4,9.4,15.2,9.3,15,9.3z M10,18.4l-3.9-7.7h7.7L10,18.4z"/>
		</g>
	</g>
</g>
</svg>
