<?xml version="1.0" encoding="utf-8"?>
<!-- Generator: Adobe Illustrator 21.1.0, SVG Export Plug-In . SVG Version: 6.00 Build 0)  -->
<svg version="1.1" id="Layer_1" xmlns="http://www.w3.org/2000/svg" xmlns:xlink="http://www.w3.org/1999/xlink" x="0px" y="0px"
	 viewBox="0 0 40 40" style="enable-background:new 0 0 40 40;" xml:space="preserve">
<style type="text/css">
	.st0{fill:#8e87ff;}
</style>
<g>
	<g>
		<path class="st0" d="M0,26.2c0.8-1.5,2.1-2,3.8-2c8.5,0.1,17,0,25.5,0c0.4,0,0.8,0,1.2,0c0-0.7,0-1.4,0-2.1
			c-0.2,0-0.5-0.1-0.7-0.1c-2-0.1-3.1-1.1-3.1-3.1c0-1,0-2,0-3c0-1.7,1.2-2.9,2.8-2.9c2.5,0,5.1,0,7.6,0c1.7,0,2.8,1.2,2.9,2.8
			c0,1,0,1.9,0,2.9c0,2.2-1,3.2-3.2,3.3c-0.2,0-0.4,0-0.6,0c0,0.7,0,1.3,0,2.1c0.2,0,0.4,0,0.6,0c1.7,0.1,2.7,1.2,2.8,3
			c0,2.5,0,4.9,0,7.4c0,1.8-1.2,3-3,3c-11.2,0-22.4,0-33.6,0c-1.4,0-2.3-0.8-2.9-1.9C0,32.5,0,29.4,0,26.2z M19.8,25.6
			c-5.5,0-11,0-16.5,0c-1.4,0-1.9,0.5-1.9,1.9c0,2.3,0,4.7,0,7c0,1.3,0.5,1.8,1.8,1.8c11.1,0,22.2,0,33.3,0c1.3,0,1.8-0.5,1.8-1.8
			c0-2.3,0-4.6,0-6.9c0-1.6-0.5-2-2.1-2C30.7,25.6,25.3,25.6,19.8,25.6z M33.4,14.4c-1.2,0-2.4,0-3.6,0S28,14.9,28,16.1c0,1,0,2,0,3
			c0,1.1,0.6,1.7,1.6,1.7c2.5,0,4.9,0,7.4,0c1.1,0,1.7-0.6,1.7-1.7c0-1,0-1.9,0-2.9c0-1.3-0.6-1.8-1.9-1.8
			C35.7,14.4,34.5,14.4,33.4,14.4z M34.8,24.2c0-0.7,0-1.4,0-2c-1,0-1.9,0-2.9,0c0,0.7,0,1.4,0,2C32.9,24.2,33.8,24.2,34.8,24.2z"/>
		<path class="st0" d="M14,23.4c-2.5,0-4.9,0-7.4,0c-2,0-3.1-1.1-3.1-3.1c0-4.9,0-9.9,0-14.8c0-2,1.1-3.1,3.1-3.1
			c4.9,0,9.9,0,14.8,0c2,0,3.1,1.1,3.1,3.1c0,4.9,0,9.9,0,14.8c0,2-1.1,3.1-3.1,3.1C18.9,23.4,16.4,23.4,14,23.4z M23.2,13
			c0-2.5,0-4.9,0-7.4c0-1.4-0.5-1.9-1.9-1.9c-4.9,0-9.7,0-14.6,0c-1.4,0-1.9,0.5-1.9,1.9c0,4.9,0,9.7,0,14.6c0,1.4,0.5,1.9,1.9,1.9
			c4.9,0,9.7,0,14.6,0c1.4,0,1.9-0.5,1.9-1.9C23.2,17.8,23.2,15.4,23.2,13z"/>
		<path class="st0" d="M4.3,33.7c0-0.6,0-1.1,0-1.6c10.5,0,20.9,0,31.3,0c0,0.5,0,1,0,1.6C25.2,33.7,14.8,33.7,4.3,33.7z"/>
		<path class="st0" d="M29.4,16.2c2.5,0,4.9,0,7.4,0C37,16.8,37,17,36.3,17c-2.1,0-4.3,0-6.4,0c-0.2,0-0.5-0.3-0.7-0.5
			C29.2,16.4,29.3,16.3,29.4,16.2z"/>
		<path class="st0" d="M29.4,18.3c1.6,0,3.2,0,4.9,0c0.2,0.5,0.2,0.9-0.5,0.8c-1.3,0-2.6,0-3.9,0c-0.3,0-0.5-0.3-0.8-0.5
			C29.2,18.5,29.3,18.4,29.4,18.3z"/>
		<circle class="st0" cx="5.9" cy="28.9" r="1.5"/>
	</g>
	<g>
		<path class="st0" d="M13.9,10.2c0.2,0,0.2,0,0.3-0.2c0,0,0.2-0.2,0.2-0.3c0-0.2,0-0.2-0.2-0.3c0,0-0.2-0.2-0.3-0.2
			c-0.2,0-0.2,0-0.3,0.2c0,0-0.2,0.2-0.2,0.3c0,0.2,0,0.2,0.2,0.3C13.7,10.2,13.7,10.2,13.9,10.2z"/>
		<path class="st0" d="M21.2,12.2c0-0.5-0.3-1-0.8-1.2c0.2-0.2,0.2-0.3,0-0.5c-1.5-2-3.9-3.2-6.4-3.2S9,8.5,7.5,10.5
			c-0.2,0.2-0.2,0.3,0,0.5c-0.5,0.2-0.8,0.7-0.8,1.2c0,0.3,0.2,0.7,0.3,0.8c-0.2,0.2-0.3,0.5-0.3,0.8c0,0.5,0.3,1,0.7,1.2v0.8
			c0,1,0.8,1.7,1.7,1.7h9.6c1,0,1.7-0.8,1.7-1.7v-0.8c0.5-0.2,0.7-0.7,0.7-1.2c0-0.3-0.2-0.7-0.3-0.8C21,12.7,21.2,12.5,21.2,12.2z
			 M20.2,13.9c0,0.2-0.2,0.3-0.5,0.3h-5.9l0.7-0.7h5.2C20,13.5,20.2,13.7,20.2,13.9z M11.5,15.1l-1.7-1.7h3.2L11.5,15.1z M8.2,14.2
			c-0.3,0-0.5-0.2-0.5-0.3c0-0.2,0.2-0.3,0.5-0.3h0.5l0.7,0.7H8.2z M8.2,12.5c-0.3,0-0.5-0.2-0.5-0.3s0.2-0.3,0.5-0.3h11.7
			c0.3,0,0.5,0.2,0.5,0.3s-0.2,0.3-0.5,0.3H8.2z M13.9,8.1c2.2,0,4.2,1,5.6,2.7h-11C9.7,9.2,11.7,8.1,13.9,8.1z M18.8,16.6H9
			c-0.3,0-0.7-0.3-0.7-0.7v-0.7h1.9l1,1c0.2,0.2,0.2,0.2,0.3,0.2c0.2,0,0.2,0,0.3-0.2l1-1h6.6v0.7C19.5,16.3,19.1,16.6,18.8,16.6z"
			/>
		<path class="st0" d="M12.9,9c0.2,0,0.2,0,0.3-0.2c0,0,0.2-0.2,0.2-0.3c0-0.2,0-0.2-0.2-0.3c0,0-0.2-0.2-0.3-0.2
			c-0.2,0-0.2,0-0.3,0.2c0,0-0.2,0.2-0.2,0.3s0,0.2,0.2,0.3C12.7,9,12.7,9,12.9,9z"/>
		<path class="st0" d="M14.9,9c0.2,0,0.2,0,0.3-0.2c0,0,0.2-0.2,0.2-0.3c0-0.2,0-0.2-0.2-0.3c0,0-0.2-0.2-0.3-0.2
			c-0.2,0-0.2,0-0.3,0.2c0,0-0.2,0.2-0.2,0.3s0,0.2,0.2,0.3C14.7,9,14.9,9,14.9,9z"/>
		<path class="st0" d="M10.7,10.2c0.2,0,0.2,0,0.3-0.2c0,0,0.2-0.2,0.2-0.3c0-0.2,0-0.2-0.2-0.3c0,0-0.2-0.2-0.3-0.2
			c-0.2,0-0.2,0-0.3,0.2c0,0-0.2,0.2-0.2,0.3c0,0.2,0,0.2,0.2,0.3C10.5,10.2,10.5,10.2,10.7,10.2z"/>
		<path class="st0" d="M17.1,10.2c0.2,0,0.2,0,0.3-0.2c0,0,0.2-0.2,0.2-0.3c0-0.2,0-0.2-0.2-0.3c0,0-0.2-0.2-0.3-0.2
			c-0.2,0-0.2,0-0.3,0.2c0,0-0.2,0.2-0.2,0.3c0,0.2,0,0.2,0.2,0.3C16.9,10.2,16.9,10.2,17.1,10.2z"/>
	</g>
</g>
</svg>
