<?xml version="1.0" encoding="utf-8"?>
<!-- Generator: Adobe Illustrator 21.1.0, SVG Export Plug-In . SVG Version: 6.00 Build 0)  -->
<svg version="1.1" id="Layer_1" xmlns="http://www.w3.org/2000/svg" xmlns:xlink="http://www.w3.org/1999/xlink" x="0px" y="0px"
	 viewBox="0 0 40 40" style="enable-background:new 0 0 40 40;" xml:space="preserve">
<style type="text/css">
	.st0{fill:#35C4FF;}
</style>
<rect x="62.7" y="-4.9" class="st0" width="27.7" height="25.6"/>
<g>
	<g>
		<path class="st0" d="M35.6,2.3c0.2,0.1,0.3,0.3,0.3,0.4c0,1.1,0,2.2,0,3.3c0,0.1,0,0.1,0,0.3c0.1,0,0.1,0,0.3,0c1.1,0,2.2,0,3.3,0
			c0.3,0,0.4,0.1,0.4,0.4c0,0.6,0,1.2,0,1.7c0,0.3-0.1,0.4-0.4,0.4c-1.1,0-2.2,0-3.3,0c-0.1,0-0.1,0-0.2,0c0,0.1,0,0.1,0,0.3
			c0,1.1,0,2.2,0,3.3c0,0.4-0.1,0.4-0.4,0.4c-0.6,0-1.2,0-1.7,0c-0.3,0-0.4-0.1-0.4-0.4c0-1.1,0-2.2,0-3.3c0-0.1,0-0.1,0-0.3
			c-0.1,0-0.1,0-0.3,0c-1.1,0-2.2,0-3.3,0c-0.3,0-0.4-0.1-0.4-0.4c0-0.6,0-1.2,0-1.7c0-0.3,0.1-0.4,0.4-0.4c1.1,0,2.2,0,3.3,0
			c0.1,0,0.1,0,0.2,0c0-0.1,0-0.2,0-0.3c0-1.1,0-2.2,0-3.3c0-0.2,0.1-0.3,0.3-0.4C34.2,2.3,34.9,2.3,35.6,2.3z"/>
	</g>
	<path class="st0" d="M40,22.5c0-0.2-0.2-0.5-0.3-0.5l-9.3-5.1l0,0v-5c0-0.2,0-0.3-0.1-0.4c-0.1-0.1-0.1-0.2-0.3-0.3l-9.3-5.1
		c-0.1,0-0.2-0.1-0.3-0.1c-0.1,0-0.2,0-0.3,0.1l-10,5L10,11.2c-0.2,0.1-0.3,0.3-0.3,0.5v4.7l-9,4.5c-0.1,0-0.2,0-0.4,0.1
		S0,21.3,0,21.6v9.8c0,0.3,0.2,0.5,0.4,0.6l9.9,4.8c0,0,0,0,0.1,0l0,0l0,0c0,0,0,0,0.1,0l0,0c0,0,0,0,0.1,0l0,0c0,0,0,0,0.1,0
		s0.2,0,0.3-0.1l0,0l8.6-4c0,0,0.1,0.1,0.2,0.1l10,4.9l0,0l0,0h0.1c0.1,0,0.1,0,0.2,0s0.2,0,0.3-0.1c0.1,0,0.2-0.1,0.2-0.2l9-4.2
		c0.2-0.2,0.4-0.4,0.4-0.6v-9.8C40,22.7,40,22.6,40,22.5z M11,21.1v-8.4l8.7,4.3v8.3C19.7,25.3,11,21.1,11,21.1z M21,17l8.1-4.1v8.7
		L21,25.4V17z M38,22.5l-7.9,4.1l-4.2-2.1l4.1-1.9c0.2-0.2,0.4-0.4,0.4-0.6v-3.7L38,22.5z M20.4,7.4l8,4.4l-8,4.1l-8.5-4.2L20.4,7.4
		z M10.1,22l4,1.9l-3.4,1.8l-8.4-4.2l7.5-3.8v3.7C9.7,21.7,9.9,21.9,10.1,22z M1.4,22.6l8.7,4.4v8.1l-8.7-4.2
		C1.4,30.9,1.4,22.6,1.4,22.6z M11.3,27l4.3-2.2l3.7,1.8v4.8l-8,3.7C11.3,35,11.3,27,11.3,27z M20.7,31.8L20.7,31.8V27l3.7-1.7
		l4.9,2.5V36L20.7,31.8z M30.7,36v-8.2l8.1-4.2v8.7L30.7,36z"/>
</g>
</svg>
