<?xml version="1.0" encoding="utf-8"?>
<!-- Generator: Adobe Illustrator 21.1.0, SVG Export Plug-In . SVG Version: 6.00 Build 0)  -->
<svg version="1.1" id="Layer_1" xmlns="http://www.w3.org/2000/svg" xmlns:xlink="http://www.w3.org/1999/xlink" x="0px" y="0px"
	 viewBox="0 0 40 40" style="enable-background:new 0 0 40 40;" xml:space="preserve">
<style type="text/css">
	.st0{fill:#35C4FF;}
</style>
<rect x="62.7" y="-4.9" class="st0" width="27.7" height="25.6"/>
<g>
	<path class="st0" d="M20.5,17.3c0.3,0.3,0.6,0.4,1,0.4c0.4,0,0.7-0.1,1-0.4l8.6-8.6c0.5-0.5,0.5-1.4,0-2c-0.5-0.5-1.4-0.5-2,0
		l-7.6,7.6l-3.1-3.1c-0.5-0.5-1.4-0.5-2,0c-0.5,0.5-0.5,1.4,0,2C16.4,13.2,20.5,17.3,20.5,17.3z"/>
	<path class="st0" d="M11.2,25h24c2.6,0,4.8-2.1,4.8-4.8v-7.9c0-0.6-0.5-1.1-1.1-1.1s-1.1,0.5-1.1,1.1v7.9c0,1.5-1.2,2.6-2.6,2.6
		h-24c-1.5,0-2.6-1.2-2.6-2.6V3.7V3.6l0,0V3.5c0,0,0,0,0-0.1l0,0c0,0,0,0,0-0.1l0,0c0,0,0,0,0-0.1l0,0V3.1l0,0l0,0l0,0l0,0
		c0,0,0,0,0-0.1l0,0c0,0,0,0-0.1,0l0,0c0,0,0,0-0.1,0c0,0,0,0-0.1,0l0,0L8.2,2.9L1.5,0.1C1-0.1,0.3,0.1,0.1,0.7
		c-0.2,0.5,0,1.2,0.6,1.4l5.9,2.5v23.3c0,2.5,1.9,4.6,4.4,4.8c-0.5,0.7-0.8,1.6-0.8,2.6c0,2.6,2.1,4.7,4.7,4.7s4.7-2.1,4.7-4.7
		c0-1-0.3-1.8-0.8-2.6h11.3c-0.5,0.7-0.8,1.6-0.8,2.6c0,2.6,2.1,4.7,4.7,4.7s4.7-2.1,4.7-4.7s-2.1-4.7-4.7-4.7H11.4
		c-1.5,0-2.6-1.2-2.6-2.6v-3.5C9.4,24.7,10.3,25,11.2,25C11.2,25,11.2,25,11.2,25z M17.4,35.1c0,1.4-1.2,2.6-2.6,2.6
		s-2.6-1.2-2.6-2.6s1.2-2.6,2.6-2.6S17.4,33.7,17.4,35.1L17.4,35.1z M36.6,35.1c0,1.4-1.2,2.6-2.6,2.6s-2.6-1.2-2.6-2.6
		s1.2-2.6,2.6-2.6C35.4,32.5,36.6,33.7,36.6,35.1L36.6,35.1z"/>
</g>
</svg>
