<?xml version="1.0" encoding="utf-8"?>
<!-- Generator: Adobe Illustrator 21.1.0, SVG Export Plug-In . SVG Version: 6.00 Build 0)  -->
<svg version="1.1" id="Layer_1" xmlns="http://www.w3.org/2000/svg" xmlns:xlink="http://www.w3.org/1999/xlink" x="0px" y="0px"
	 viewBox="0 0 40 40" style="enable-background:new 0 0 40 40;" xml:space="preserve">
<style type="text/css">
	.st0{fill:#8e87ff;}
</style>
<g>
	<path class="st0" d="M21.7,12.5c0,0.5,0,2.1,0,2.6s0,1,0,1.4c1.4-0.9,2.9-1.6,4.6-2.1c0-0.3,0-1.6,0-2c0-1-0.6-1.6-1.6-1.7
		c-0.5,0-1.1,0-1.6,0C22.4,10.8,21.7,11.5,21.7,12.5z"/>
	<path class="st0" d="M16.2,6.8c-0.4-0.1-0.7,0.2-0.9,0.5c0,0.1,0,0.3,0,0.5c0,3.6,0,7.3,0,10.8c0,0.1,0,0.2,0,0.3l1.6,0.1
		c0-0.1,0-0.2,0-0.3c0-2.7,0-5.4,0-8.1c0-1,0-2,0-3C16.9,7.2,16.6,6.9,16.2,6.8z"/>
	<path class="st0" d="M24.8,7.4c0-0.4-0.4-0.7-0.8-0.8c-0.4,0-0.8,0.3-0.8,0.7c0,0.6,0,1.1,0,1.7h1.6C24.8,8.6,24.8,8,24.8,7.4z"/>
	<path class="st0" d="M15.5,20.7c-0.8,0-1.5,0.7-1.5,1.6c0,1.1,0,2.2,0,3.4c0,0.5,0.2,1,0.6,1.3c0.3-2.3,1-4.4,2.2-6.3
		C16.4,20.7,16,20.7,15.5,20.7z"/>
	<path class="st0" d="M7.6,23.4c0,1.2,0,2.3,0,3.5c0,1.1,0,2.2,0,3.3c0,0.7,0.5,1.1,1.1,0.9c0.4-0.2,0.5-0.5,0.5-0.9
		c0-2.3,0-4.6,0-6.9c0-0.1,0-0.2,0-0.3H7.6C7.6,23.2,7.6,23.3,7.6,23.4z"/>
	<path class="st0" d="M15.1,33.4c-3.9,0-7.9,0-11.6,0c-0.9,0-1.3-0.4-1.3-1.3V5.3c0-0.1,0-0.1,0-0.2c0-0.7,0.4-1.2,1.1-1.2
		c3.4,0,6.9,0,10.2,0c5.2,0,10.3,0,15.6,0c0.9,0,1.2,0.4,1.2,1.3v8.7c0.1,0,0.2,0,0.3,0c0.7,0,1.3,0.1,1.9,0.1V4.5
		c0-0.1-0.1-0.1-0.1-0.2C32.1,3,31.3,2.2,30,1.9c-0.1,0-0.1,0-0.2,0H2.6C2.4,1.9,2.2,2,2.1,2C1,2.5,0.3,3.2,0.1,4.4L0,4.5v28.2
		c0,0.2,0.1,0.4,0.2,0.5c0.4,1.1,1.1,1.8,2.2,2.1c0.1,0,0.1,0,0.2,0h13.2C15.6,34.7,15.3,34.1,15.1,33.4z"/>
	<path class="st0" d="M9.2,12.7c0-1.7,0-3.3,0-5c0-0.2,0-0.4-0.1-0.5C9,6.8,8.7,6.6,8.4,6.6C8,6.6,7.7,6.8,7.6,7.2
		c0,0.1,0,0.3,0,0.4c0,1.7,0,3.4,0,5.1c0,0.1,0,0.2,0,0.4h1.6V12.7z"/>
	<path class="st0" d="M10.6,19.7c0-0.5,0-1.1,0-1.6s0-1.1,0-1.6c0-0.9-0.7-1.6-1.6-1.6c-0.5,0-1,0-1.5,0c-1,0-1.6,0.7-1.6,1.7
		c0,1.1,0,2.1,0,3.2c0,1,0.6,1.6,1.5,1.7c0.5,0,1.1,0,1.6,0C10,21.3,10.6,20.6,10.6,19.7z"/>
</g>
<g>
	<g>
		<path class="st0" d="M38.8,25.7l-1.6-0.3c-0.2-0.5-0.4-1.1-0.7-1.6l1-1.3c0.4-0.6,0.3-1.4-0.2-1.8l-1.4-1.4
			c-0.3-0.3-0.6-0.4-1-0.4c-0.3,0-0.6,0.1-0.8,0.3l-1.3,1c-0.5-0.3-1.1-0.5-1.6-0.7l-0.4-1.8c-0.1-0.7-0.7-1.2-1.4-1.2h-2
			c-0.7,0-1.3,0.5-1.4,1.2l-0.3,1.6c-0.5,0.2-1.1,0.4-1.6,0.7l-1.3-1c-0.2-0.2-0.5-0.3-0.8-0.3c-0.4,0-0.7,0.2-1,0.4l-1.4,1.4
			c-0.5,0.5-0.6,1.3-0.2,1.8l1,1.4c-0.3,0.5-0.5,1-0.6,1.6l-1.8,0.4c-0.7,0.1-1.2,0.7-1.2,1.4v2c0,0.7,0.5,1.3,1.2,1.4l1.6,0.3
			c0.2,0.5,0.4,1.1,0.7,1.6l-1,1.3c-0.4,0.6-0.3,1.4,0.2,1.8l1.4,1.4c0.3,0.3,0.6,0.4,1,0.4c0.3,0,0.6-0.1,0.8-0.3l1.4-1
			c0.5,0.3,1,0.5,1.5,0.6l0.3,1.6c0.1,0.7,0.7,1.2,1.4,1.2h2c0.7,0,1.3-0.5,1.4-1.2l0.3-1.6c0.5-0.2,1.1-0.4,1.6-0.7l1.3,1
			c0.2,0.2,0.5,0.3,0.8,0.3l0,0c0.4,0,0.7-0.2,1-0.4l1.4-1.4c0.5-0.5,0.6-1.3,0.2-1.8l-1-1.3c0.3-0.5,0.5-1,0.7-1.6l1.6-0.3
			c0.7-0.1,1.2-0.7,1.2-1.4v-2C40,26.4,39.5,25.8,38.8,25.7z M38.7,29.2c0,0.1,0,0.1-0.1,0.1l-2,0.3c-0.3,0-0.5,0.2-0.5,0.5
			c-0.2,0.7-0.5,1.4-0.8,2c-0.1,0.2-0.1,0.5,0,0.7l1.2,1.7c0,0,0,0.1,0,0.2l-1.5,1.5h-0.1h-0.1l-1.7-1.2c-0.2-0.2-0.5-0.2-0.7,0
			c-0.6,0.4-1.3,0.7-2,0.8c-0.3,0.1-0.4,0.3-0.5,0.5l-0.3,2c0,0.1-0.1,0.1-0.1,0.1h-2c-0.1,0-0.1,0-0.1-0.1l-0.3-2
			c0-0.3-0.2-0.5-0.5-0.5c-0.7-0.2-1.4-0.5-2-0.8C24.1,35,24,35,23.9,35c-0.1,0-0.3,0-0.4,0.1l-1.9,1.3c0,0,0,0-0.1,0h-0.1l-1.4-1.5
			c0,0,0-0.1,0-0.2l1.2-1.7c0.2-0.2,0.2-0.5,0-0.7c-0.4-0.6-0.7-1.3-0.9-2c-0.1-0.2-0.3-0.4-0.5-0.5l-2.2-0.3
			c-0.1,0-0.1-0.1-0.1-0.1v-2c0-0.1,0-0.1,0.1-0.1l2-0.3c0.3,0,0.5-0.2,0.5-0.5c0.2-0.7,0.5-1.4,0.8-2c0.1-0.2,0.1-0.5,0-0.7
			l-1.1-1.9c0,0,0-0.1,0-0.2l1.4-1.4h0.1h0.1l1.7,1.2c0.2,0.2,0.5,0.2,0.7,0c0.6-0.4,1.3-0.7,2-0.9c0.2-0.1,0.4-0.3,0.5-0.5l0.3-2.2
			c0-0.1,0.1-0.1,0.1-0.1h2c0.1,0,0.1,0,0.1,0.1l0.3,2c0,0.3,0.2,0.5,0.5,0.5c0.7,0.2,1.4,0.5,2.2,0.9c0.2,0.1,0.5,0.1,0.7,0
			l1.7-1.2c0,0,0,0,0.1,0h0.1l1.4,1.4c0,0,0,0.1,0,0.2l-1.2,1.7c-0.2,0.2-0.2,0.5,0,0.7c0.4,0.6,0.7,1.3,0.8,2
			c0.1,0.3,0.3,0.4,0.5,0.5l2,0.3c0.1,0,0.1,0.1,0.1,0.1L38.7,29.2L38.7,29.2z"/>
		<path class="st0" d="M28.1,23c-2.9,0-5.1,2.3-5.1,5.1s2.3,5.1,5.1,5.1s5.1-2.3,5.1-5.1S31,23,28.1,23z M28.1,31.9
			c-2,0-3.8-1.7-3.8-3.8s1.7-3.8,3.8-3.8s3.8,1.7,3.8,3.8S30.2,31.9,28.1,31.9z"/>
	</g>
</g>
</svg>
