<?xml version="1.0" encoding="utf-8"?>
<!-- Generator: Adobe Illustrator 21.1.0, SVG Export Plug-In . SVG Version: 6.00 Build 0)  -->
<svg version="1.1" id="Layer_1" xmlns="http://www.w3.org/2000/svg" xmlns:xlink="http://www.w3.org/1999/xlink" x="0px" y="0px"
	 viewBox="0 0 40 40" style="enable-background:new 0 0 40 40;" xml:space="preserve">
<style type="text/css">
	.st0{fill:#35C4FF;}
</style>
<rect x="62.7" y="-4.9" class="st0" width="27.7" height="25.6"/>
<g id="ddQatC.tif">
	<g>
		<path class="st0" d="M0,17.7c0-0.1,0.1-0.2,0.1-0.3c0.3-1.4,1.3-2.3,2.7-2.3c1.3,0,1.5,0.1,2.9,0.2c1,0.1,1.9,0.2,2.9,0.2
			c0-0.2,0-0.4,0-0.5c0-1.4,0-4.8,0-6.1c0-2.6,1.8-4.5,4.4-4.5c6.4,0,9.5,0,16,0c2.2,0,4.4,0,6.5,0c2.7,0,4.5,1.8,4.5,4.4
			c0,6.2,0,16.4,0,22.6c0,2.1-1.3,3.7-3.2,4.2c-0.3,0.1-0.7,0.1-1,0.1c-8.7,0-14,0-22.6,0c-1.6,0-2.9-0.6-3.9-2
			c-0.4-0.7-0.7-1.4-0.7-2.2c0-1.6,0-5.1,0-6.7c0-0.1,0-0.2,0-0.4c-0.5,0-0.9,0.1-1.4,0.1c-1.6,0.1-2.1,0.3-3.8,0.4
			c-0.4,0-0.8,0-1.1-0.1c-1.2-0.2-1.9-1-2.2-2.2c0-0.1-0.1-0.2-0.1-0.3C0,20.9,0,19.3,0,17.7z M10.3,22.6c0,0.2,0,0.3,0,0.5
			c0,2.1,0,6.3,0,8.4c0,1.2,0.7,2.1,1.8,2.4C12.4,34,12.7,34,13,34c5.7,0,8.1,0,13.9,0c3,0,5.9,0,8.9,0c1.2,0,2.1-0.7,2.3-1.8
			c0.1-0.3,0.1-0.7,0.1-1c0-5.3,0-12.7,0-18c0-1,0-4-0.1-5C38,7,37,6.1,35.8,6.1c-0.7,0-1.5,0-2.2,0c-8,0-12.6,0-20.6,0
			c-1.7,0-2.7,1-2.7,2.7c0,2,0,6.1,0,8.1c0,0.2,0,0.3,0,0.5c-1.7-0.2-3.4-0.3-5.1-0.5c-1.1-0.1-1-0.2-2.1-0.2
			c-0.9,0-1.3,0.4-1.4,1.3c0,0.2,0,0.5,0,0.7c0,1.1,0,2.3,0,3.4c0,0.6,0.3,0.9,0.9,1c0.4,0.1,0.8,0,1.2,0
			C6.4,23.1,7.8,22.8,10.3,22.6z"/>
		<path class="st0" d="M23.8,30.5c-2.1,0-3.8-1.7-3.8-3.7c0-2.1,1.7-3.8,3.7-3.8c2.1,0,3.7,1.7,3.7,3.7
			C27.5,28.8,25.9,30.5,23.8,30.5z"/>
		<path class="st0" d="M23.8,9.2c2.1,0,3.7,1.7,3.7,3.8c0,2-1.7,3.7-3.7,3.7c-2.1,0-3.8-1.7-3.7-3.8C20.1,10.8,21.7,9.1,23.8,9.2z"
			/>
		<path class="st0" d="M32.7,18.8c-2.2,0-4-1.7-4.1-3.9c0-2.3,1.7-4.1,4-4.2c2.2,0,4.1,1.8,4.1,3.9C36.8,17,35.1,18.8,32.7,18.8z
			 M32.7,17.5c1.5,0,2.8-1.2,2.7-2.8c0-1.5-1.2-2.7-2.7-2.7c-1.5,0-2.8,1.2-2.8,2.7C30,16.3,31.2,17.5,32.7,17.5z"/>
		<path class="st0" d="M16.4,30.3c-1.1,0.5-3-0.3-3.8-1.5c-1-1.5-0.8-3.6,0.6-4.8c1.3-1.2,3.3-1.3,4.7-0.3c-1.2,0.7-2,1.6-2.3,3
			C15.3,28,15.6,29.2,16.4,30.3z"/>
		<path class="st0" d="M17.9,9.9c-2.2,1.2-3.3,4-1.5,6.6c-1.5,0.4-3.3-0.5-4-2c-0.8-1.6-0.3-3.5,1.1-4.6C14.7,8.9,16.8,8.9,17.9,9.9
			z"/>
		<path class="st0" d="M20.3,10.1c-0.8,1.1-1.2,2.4-0.9,3.7c0.3,1.4,1.1,2.4,2.4,3c-0.7,0.8-2.7,0.9-3.9,0.1
			c-1.5-0.9-2.2-2.9-1.5-4.5C17,10.8,18.7,9.8,20.3,10.1z"/>
		<path class="st0" d="M20.3,24c-1.7,2.4-1,5.4,1.5,6.8c-1,0.9-2.9,0.8-4.2-0.1c-1.4-1-1.9-3-1.2-4.6C17.1,24.6,18.8,23.6,20.3,24z"
			/>
		<path class="st0" d="M30.9,28.1c0,0.5-0.5,1-1,1s-1-0.5-1-1s0.4-1,1-1C30.5,27.2,30.9,27.6,30.9,28.1z"/>
		<path class="st0" d="M32.9,22.6c0-0.6,0.4-1,1-1c0.5,0,1,0.4,1,1c0,0.5-0.4,1-0.9,1C33.4,23.6,32.9,23.2,32.9,22.6z"/>
		<path class="st0" d="M33.4,25.4c0,0.6-0.4,1-1,1c-0.5,0-1-0.5-1-1s0.4-1,1-1C32.9,24.4,33.4,24.8,33.4,25.4z"/>
		<path class="st0" d="M30.5,25.5c0,0.4-0.4,0.8-0.8,0.8s-0.8-0.3-0.8-0.8s0.3-0.8,0.8-0.8S30.5,25,30.5,25.5z"/>
		<path class="st0" d="M36.4,24.6c0,0.4-0.3,0.8-0.8,0.8c-0.4,0-0.8-0.3-0.8-0.8s0.3-0.8,0.8-0.8S36.4,24.1,36.4,24.6z"/>
		<path class="st0" d="M32.1,27.8c0-0.5,0.3-0.8,0.8-0.8s0.8,0.4,0.8,0.8c0,0.5-0.4,0.8-0.8,0.8C32.5,28.6,32.1,28.2,32.1,27.8z"/>
		<path class="st0" d="M36.3,27c0,0.5-0.4,0.8-0.9,0.8c-0.4,0-0.8-0.4-0.8-0.8s0.4-0.8,0.8-0.8C35.9,26.2,36.3,26.6,36.3,27z"/>
	</g>
</g>
</svg>
