<?xml version="1.0" encoding="utf-8"?>
<!-- Generator: Adobe Illustrator 21.1.0, SVG Export Plug-In . SVG Version: 6.00 Build 0)  -->
<svg version="1.1" id="Layer_1" xmlns="http://www.w3.org/2000/svg" xmlns:xlink="http://www.w3.org/1999/xlink" x="0px" y="0px"
	 viewBox="0 0 40 40" style="enable-background:new 0 0 40 40;" xml:space="preserve">
<style type="text/css">
	.st0{fill:#35C4FF;}
</style>
<g>
	<path class="st0" d="M31.2,0H6.3C5.4,0,4.7,0.7,4.7,1.6v33.8c0,0.9,0.7,1.6,1.6,1.6h3.5c0,0.1,0,0.1,0,0.2v1.7
		c0,0.6,0.5,1.1,1.1,1.1h1.3c0.6,0,1.1-0.5,1.1-1.1v-1.7c0-0.1,0-0.1,0-0.2h17.9c2.3,0,4.2-1.9,4.2-4.2V4.2C35.3,1.9,33.5,0,31.2,0z
		 M8.9,35.1H6.6V1.9h2.3V35.1z M33.4,32.8c0,1.2-1,2.2-2.2,2.2H10.8V1.9h20.4c1.2,0,2.2,1,2.2,2.2V32.8z"/>
	<path class="st0" d="M18.1,16.6c0.6-1,0.2-2.5-0.9-3.7c-1.3-1.3-3.1-1.6-4.1-0.6s-0.7,2.8,0.6,4.1c1.1,1.1,2.7,1.5,3.7,0.9l8.4,8.4
		c0.2,0.2,0.5,0.2,0.7,0c0.2-0.2,0.2-0.5,0-0.7L18.1,16.6z"/>
	<path class="st0" d="M17,25c-0.2,0.2-0.2,0.5,0,0.7c0.2,0.2,0.5,0.2,0.7,0l3.3-3.3l-0.8-0.7L17,25z"/>
	<path class="st0" d="M31.3,14.2l-1.9,1.9l-0.6-0.6l1.9-1.9c0.1-0.1,0.1-0.3,0-0.4c-0.1-0.1-0.3-0.1-0.4,0l-1.9,1.9l-0.6-0.6
		l1.9-1.9c0.1-0.1,0.1-0.3,0-0.4c-0.1-0.1-0.3-0.1-0.4,0L27.3,14l-0.6-0.6l1.9-1.9c0.1-0.1,0.1-0.3,0-0.4s-0.3-0.1-0.4,0L26.3,13
		l-0.5,0.5l-0.6,0.6c-0.9,0.9-1,2.2-0.3,3.1l-2.5,2.5l0.7,0.7l2.5-2.5c1,0.6,2.3,0.5,3.2-0.3l0.6-0.6l0.5-0.5l1.9-1.9
		c0.1-0.1,0.1-0.3,0-0.4C31.6,14.1,31.4,14.1,31.3,14.2z"/>
</g>
</svg>
