<?xml version="1.0" encoding="utf-8"?>
<!-- Generator: Adobe Illustrator 21.1.0, SVG Export Plug-In . SVG Version: 6.00 Build 0)  -->
<svg version="1.1" id="Layer_1" xmlns="http://www.w3.org/2000/svg" xmlns:xlink="http://www.w3.org/1999/xlink" x="0px" y="0px"
	 viewBox="0 0 40 40" style="enable-background:new 0 0 40 40;" xml:space="preserve">
<style type="text/css">
	.st0{fill:#35C4FF;}
</style>
<rect x="62.7" y="-4.9" class="st0" width="27.7" height="25.6"/>
<g>
	<path class="st0" d="M12,4.4H8.3V8H12V4.4z M8.3,12h18.1v-1.4H8.3C8.3,10.6,8.3,12,8.3,12z M15.4,8h11V4.4h-11V8z M8.3,15.7h18.1
		v-1.4H8.3C8.3,14.3,8.3,15.7,8.3,15.7z M8.3,19.4h18.1V18H8.3C8.3,18,8.3,19.4,8.3,19.4z M32.3,34V2.1C32.3,1,31.4,0,30.2,0H4
		C2.9,0,1.9,0.9,1.9,2.1V34c0,1.1,0.9,2.1,2.1,2.1h26.2C31.4,36.1,32.3,35.1,32.3,34z M29,34.3H5.3c-0.8,0-1.5-0.7-1.5-1.5V3.2
		c0-0.8,0.7-1.5,1.5-1.5H29c0.8,0,1.5,0.7,1.5,1.5v29.6C30.5,33.6,29.8,34.3,29,34.3z M38.1,4h-2.9l0,0v1.8l0,0h1v30.5
		c0,1.1-0.9,1.9-1.9,1.9H9.5v-0.8l0,0H7.7V40h28.4c1.1,0,1.9-0.9,1.9-1.9C38,38.1,38.1,4,38.1,4z M23.3,24.1c-0.3,0-0.6,0.1-0.8,0.2
		l-0.2,0.1l-1.9-1.1v-0.2c0-0.8-0.7-1.4-1.5-1.4s-1.5,0.7-1.5,1.5c0,0.2,0,0.4,0.1,0.6l0.1,0.1l-2.4,3.6h-0.2c-0.1,0-0.2,0-0.2,0
		c-0.2,0-0.5,0.1-0.7,0.2l-0.2,0.1l-1.5-1.3v-0.2c0-0.1,0-0.2,0-0.3c0-0.8-0.7-1.5-1.5-1.5c-0.8,0-1.5,0.7-1.5,1.5s0.7,1.5,1.5,1.5
		c0.2,0,0.3,0,0.5-0.1l0.2-0.1l1.7,1.4v0.1c0,0,0,0,0,0.1c0,0.8,0.7,1.5,1.5,1.5c0.8,0,1.5-0.7,1.5-1.5c0-0.2,0-0.4-0.1-0.5L16,28.3
		l2.5-3.7h0.2h0.1c0.3,0,0.6-0.1,0.8-0.2l0.2-0.1l1.9,1.1v0.2c0,0.8,0.7,1.4,1.5,1.4s1.5-0.7,1.5-1.5C24.8,24.8,24.2,24.1,23.3,24.1
		z"/>
</g>
</svg>
