<?xml version="1.0" encoding="utf-8"?>
<!-- Generator: Adobe Illustrator 21.1.0, SVG Export Plug-In . SVG Version: 6.00 Build 0)  -->
<svg version="1.1" id="Layer_1" xmlns="http://www.w3.org/2000/svg" xmlns:xlink="http://www.w3.org/1999/xlink" x="0px" y="0px"
	 viewBox="0 0 40 40" style="enable-background:new 0 0 40 40;" xml:space="preserve">
<style type="text/css">
	.st0{fill:#35C4FF;}
</style>
<g>
	<g>
		<g>
			<g>
				<path class="st0" d="M23.5,12.9c-0.4,0-0.8,0.1-1.1,0.3c-0.7-0.5-1.6-0.8-2.5-0.8c-1,0-1.8,0.3-2.5,0.8
					c-0.4-0.1-0.7-0.3-1.1-0.3c-2.5,0-4.4,1.9-4.4,4.4c0,1.8,1.1,3.4,2.6,4v6.5h10.9v-6.5c1.6-0.7,2.6-2.2,2.6-4
					C27.9,14.8,26,12.9,23.5,12.9z M24.1,26.6L24.1,26.6c0-0.3-0.3-0.7-0.7-0.7c-0.3,0-0.7,0.3-0.7,0.7H22c0-0.3-0.3-0.7-0.7-0.7
					c-0.4,0-0.7,0.3-0.7,0.7H20c0-0.3-0.3-0.7-0.7-0.7c-0.3,0-0.7,0.3-0.7,0.7h-0.7c0-0.3-0.3-0.7-0.7-0.7c-0.3,0-0.7,0.3-0.7,0.7
					h-0.7c0-0.3-0.3-0.7-0.7-0.7s-0.7,0.3-0.7,0.7v-0.7h0.7H17h1.8h1.8h1.8H23L24.1,26.6L24.1,26.6z M26.2,19.1
					c-0.3,0.5-0.8,1-1.4,1.1l-0.7,0.3v1v3.4h-8.5v-3.4v-0.8l-0.7-0.3c-1.1-0.5-1.9-1.6-1.9-3c0-1.8,1.4-3.2,3.2-3.2
					c0.1,0,0.1,0,0.3,0c-0.4,0.7-0.7,1.4-0.7,2.2v0.1c0,0.3,0.3,0.7,0.7,0.7c0.4,0,0.7-0.3,0.7-0.7l0,0c0-1.6,1.4-3,3-3s3,1.2,3,2.9
					c0,0,0,0,0,0.1c0,0.3,0.3,0.7,0.7,0.7c0.3,0,0.7-0.3,0.7-0.7l0,0c0-0.8-0.3-1.6-0.7-2.3c0.1,0,0.1,0,0.3,0
					c1.8,0,3.2,1.4,3.2,3.2C26.7,18,26.4,18.5,26.2,19.1z"/>
			</g>
		</g>
		<g>
			<g>
				<path class="st0" d="M19.8,18c-0.3,0-0.7,0.3-0.7,0.7l0,0v3l0,0c0,0.3,0.3,0.7,0.7,0.7c0.3,0,0.7-0.3,0.7-0.7l0,0v-3l0,0
					C20.5,18.2,20.1,18,19.8,18z"/>
			</g>
		</g>
		<g>
			<g>
				<path class="st0" d="M19.8,18c-0.3,0-0.7,0.3-0.7,0.7l0,0v3l0,0c0,0.3,0.3,0.7,0.7,0.7c0.3,0,0.7-0.3,0.7-0.7l0,0v-3l0,0
					C20.5,18.2,20.1,18,19.8,18z"/>
			</g>
		</g>
		<g>
			<g>
				<path class="st0" d="M19.8,18c-0.3,0-0.7,0.3-0.7,0.7l0,0v3l0,0c0,0.3,0.3,0.7,0.7,0.7c0.3,0,0.7-0.3,0.7-0.7l0,0v-3l0,0
					C20.5,18.2,20.1,18,19.8,18z"/>
			</g>
		</g>
	</g>
	<g>
		<path class="st0" d="M20,40c-4.5,0-8.8-1.5-12.5-4.4c-0.1-0.1-0.3-0.1-0.4-0.3c-0.1,0-0.3-0.1-0.4-0.3l-1.1-0.7v4.1
			c0,1.4-0.8,1.4-1.1,1.4c-0.3,0-1.4-0.1-1.4-1.4c-0.1-1.8,0-3.6,0-5.4c0-0.8,0-1.8,0-2.6c0-1,0.4-1.4,1.4-1.4h7.8
			c1,0,1.4,0.4,1.4,1.2c0,0.3,0,1.2-1.5,1.2c-1.1,0-2.2,0-3.3,0.1l0,0c0,0-0.7,0.1-0.7,1v0.3l0.3,0.1c2.5,2.3,5.4,3.7,8.7,4.1
			c1,0.1,1.9,0.3,2.9,0.3c4.8,0,9.2-1.8,12.5-5.2c3.4-3.4,5.1-8.2,4.9-13.5v-0.7c0-0.8,0.5-1.4,1.2-1.4s1.1,0.4,1.2,1.2
			c0.4,4-0.3,7.6-2.1,11C34,36,27.5,40,20,40z"/>
		<path class="st0" d="M1.6,23.2c-0.8,0-1.2-0.4-1.4-1.4c-0.4-5.6,1-10.3,4.4-14.4c4-4.7,9.6-7.4,15.5-7.4c2.7,0,5.4,0.5,7.9,1.6
			c1.5,0.6,6.3,4.2,6.3,4.2l0.1-1.2v-3c0-0.4,0.3-1.4,1.2-1.4c0.7,0,1.2,0.5,1.2,1.4v8.1c0,0.8-0.4,1.2-1.2,1.2h-8.2
			c-0.7,0-1.2-0.5-1.2-1.2c0-0.5,0.5-1.2,1.2-1.2c0.4,0,0.8,0,1.2,0s0.8,0,1.2,0c0.5,0,1.1,0,1.6,0h1.8l-1.2-1.2
			c-2.3-2.2-4.7-3.4-7.3-4c-1.5-0.4-3-0.5-4.5-0.5c-4.7,0-9.3,1.9-12.6,5.4s-4.9,8-4.7,12.8v1.1C2.5,22.5,2.2,23.2,1.6,23.2z"/>
	</g>
</g>
</svg>
