<?xml version="1.0" encoding="utf-8"?>
<!-- Generator: Adobe Illustrator 21.1.0, SVG Export Plug-In . SVG Version: 6.00 Build 0)  -->
<svg version="1.1" id="Layer_1" xmlns="http://www.w3.org/2000/svg" xmlns:xlink="http://www.w3.org/1999/xlink" x="0px" y="0px"
	 viewBox="0 0 40 40" style="enable-background:new 0 0 40 40;" xml:space="preserve">
<style type="text/css">
	.st0{fill:#35C4FF;}
</style>
<rect x="62.7" y="-4.9" class="st0" width="27.7" height="25.6"/>
<g>
	<g>
		<path class="st0" d="M22.4,25.6c-0.1,0-0.2-0.1-0.2-0.2c0-0.7-0.1-1.4-0.1-2.1v-0.7c0.1,0,0.2,0,0.2,0.1c0.3,0.1,0.5,0.2,0.8,0.3
			c0.1,0.1,0.3,0.1,0.4,0c0.3-0.2,0.5-0.6,0.4-1c-0.1-0.3-0.3-0.5-0.5-0.7C23,21,22.5,20.8,22,20.7c-0.1,0-0.1-0.1-0.2-0.2
			c0-0.3,0-0.5-0.1-0.8c0-0.4-0.3-0.6-0.7-0.6c-0.4,0-0.6,0.3-0.6,0.7v0.7h-1.1c0-0.2,0-0.5-0.1-0.7c0-0.3-0.3-0.6-0.7-0.5
			c-0.4,0-0.6,0.3-0.6,0.6c0,0.2,0,0.5,0.1,0.7c0,0.1,0,0.2-0.2,0.3c-0.5,0.2-1,0.5-1.4,0.9c-0.6,0.8-0.8,1.7-0.7,2.7
			c0.2,1.1,0.8,1.8,1.9,2.1c0.2,0,0.4,0.1,0.7,0.1c0.1,1.2,0.1,2.5,0.2,3.7c-0.2-0.1-0.4-0.2-0.5-0.3c-0.3-0.2-0.6-0.4-1-0.5
			c-0.2-0.1-0.4-0.1-0.6-0.1c-0.5,0.1-0.8,0.6-0.8,1.1c0,0.4,0.2,0.7,0.5,1c0.4,0.3,0.9,0.5,1.4,0.7c0.3,0.1,0.7,0.2,1,0.3v1.2
			c0,0.3,0.2,0.5,0.4,0.6c0.5,0.1,1-0.1,0.9-0.7v-0.8h1v0.7c0,0.4,0.3,0.6,0.6,0.6c0.4,0,0.7-0.3,0.7-0.7v-0.8c0-0.1,0-0.2,0.2-0.2
			c0.5-0.2,1.1-0.4,1.5-0.8c0.8-0.8,1.1-1.8,0.9-3C24.8,27.3,24,26.1,22.4,25.6z M18.1,24.8c-0.3-0.4-0.3-0.9-0.1-1.4
			c0.1-0.2,0.2-0.4,0.4-0.6c0,0.8,0.1,1.5,0.1,2.3C18.4,25.1,18.2,25,18.1,24.8z M19.8,22.3h1c0.1,1,0.1,1.9,0.2,2.9
			c-0.4,0.1-0.7,0.1-1,0C19.9,24.2,19.9,23.3,19.8,22.3z M21.2,30.9c-0.3,0.1-0.6,0.1-1,0.1c-0.1-1.4-0.1-2.7-0.2-4.1
			c0.3,0,0.6,0.1,0.8,0.1c0.2,0,0.2,0.1,0.2,0.2c0,1.2,0.1,2.4,0.2,3.6V30.9z M23.2,29.8c-0.1,0.4-0.3,0.6-0.7,0.8
			c0-1-0.1-2-0.1-3.1c0.4,0.3,0.7,0.6,0.8,1.1C23.3,29,23.3,29.4,23.2,29.8z M35.3,28.1c-0.3-1.8-0.9-3.4-1.8-4.9
			c-1.1-1.8-2.5-3.6-4.4-5.4c-0.7-0.6-1.4-1.2-2.1-1.8l-0.1-0.1c-0.3-0.3-0.7-0.6-1.1-0.9l-0.3-0.2c0.3-1.1,0.1-1.8-0.7-2.7
			c0.1,0,0.1-0.1,0.2-0.1c0.5-0.3,1-0.5,1.5-0.8l1.2-0.6c0.7-0.4,1.4-0.8,2.1-1.4c1-1.1,1.1-2.5,0.2-3.7c-0.3-0.5-0.8-0.8-1.3-1.1
			c-0.2-0.1-0.5-0.2-0.8-0.3h-0.1c0.1-0.5,0.1-1,0-1.5c-0.2-1-0.9-1.7-1.9-2.1C25.3,0.2,24.7,0,24.1,0c-0.4,0-0.9,0.1-1.3,0.2
			c-0.9,0.3-1.6,0.8-2.2,1.2l-1.8,1.4l-0.1,0.1c-0.1,0-0.2,0.1-0.4,0.1c-0.2,0-0.3,0.1-0.5,0.1c-0.7,0.2-1.5,0.4-2.2,0.9
			c-0.6,0.4-0.9,0.9-1.1,1.5c0,0.1,0,0.2-0.1,0.3c-0.2,0-0.4,0.1-0.6,0.1c-1.3,0.4-2,1.5-1.7,2.8c0.2,0.7,0.7,1.2,1.1,1.5
			c0.6,0.4,1.4,0.7,2.1,0.9l0.6,0.2v0.4c-0.5,0.2-0.8,0.5-1,0.8c-0.3,0.4-0.5,0.9-0.3,1.4c0.1,0.2,0.1,0.5,0.3,0.7l-0.2,0.1
			c-0.4,0.2-0.7,0.4-1.1,0.7c-1.6,1.1-3.1,2.5-4.6,4.3c-1.6,1.9-2.8,3.8-3.6,5.8c-1,2.2-1.2,4.4-0.9,6.5c0.4,2.5,1.6,4.5,3.5,5.9
			c1.3,1,2.9,1.6,4.7,1.7h0.7c1,0,2-0.1,3.2-0.4c1.2,0.3,2.1,0.5,3.1,0.6c0.8,0.1,1.5,0.1,2.2,0.1c0.5,0,1,0,1.6-0.1
			c1.4-0.1,2.7-0.5,4-1h0.2c0.7,0,1.3-0.1,1.9-0.2c1.8-0.4,3.2-1.2,4.2-2.6c0.9-1.3,1.5-2.8,1.6-4.6C35.6,30.4,35.5,29.3,35.3,28.1z
			 M27.2,5.7c0.1-0.1,0.1-0.2,0.2-0.4c0.5,0.1,0.9,0.3,1.3,0.6c0.3,0.3,0.5,0.6,0.5,0.9c0,0.4-0.1,0.6-0.3,0.8
			c-0.2,0.3-0.5,0.6-0.9,0.8c-0.5,0.3-1,0.5-1.5,0.8c0,0-2,1.1-2.1,1.1v-0.1c0.1-0.2,0.1-0.5,0.2-0.6c0.3-0.5,0.7-1,1-1.5
			c0.3-0.5,0.7-1,1-1.5C26.9,6.3,27,6,27.2,5.7z M16.7,5.4c0.4-0.3,0.9-0.5,1.5-0.7c0.2-0.1,0.4-0.1,0.7-0.2c0.2,0,0.3-0.1,0.5-0.1
			c0.1,0,0.3-0.1,0.4-0.2C20,4,20.3,3.8,20.5,3.6c0.3-0.3,0.7-0.6,1-0.8c0.5-0.4,0.9-0.6,1.2-0.9c0.5-0.3,1-0.5,1.6-0.5
			c0.3,0,0.6,0,0.9,0.1c0.1,0,0.3,0.1,0.4,0.1c0.9,0.4,1.2,1,0.9,2c-0.1,0.3-0.2,0.6-0.4,0.9c-0.6,1.2-1.3,2.4-2,3.5l-0.6,1
			c-0.2,0.3-0.3,0.5-0.5,0.8c-0.3,0.5-0.6,0.7-1,0.8c-0.1,0-0.1,0-0.2,0h-0.1c-0.6-0.1-1-0.4-1.2-1.1C20.3,8.8,20.1,8,20,7.3
			l-0.2-0.9l-0.6,0.1c-0.1,0.9,0,1.8,0.1,2.8v0.4c0,0.1,0,0.1-0.2,0.1H18c0,0-0.1-0.1-0.1-0.2l-0.2-0.3c-0.4-0.7-0.8-1.3-1.1-2.1
			c-0.1-0.3-0.3-0.7-0.3-1.1C16.2,5.9,16.4,5.6,16.7,5.4z M18.4,11c0,0-0.1,0-0.1,0C18.3,11,18.4,11,18.4,11z M18,11.1
			c-0.2,0.1-0.4,0.1-0.7,0.2c0,0,0.1-0.1,0.2-0.1C17.7,11.2,17.8,11.1,18,11.1z M16.3,13.2c0.4-0.2,0.8-0.4,1.3-0.5
			c1-0.3,1.9-0.4,2.9-0.4c0.8,0,1.6,0.1,2.4,0.3c0.5,0.2,0.9,0.4,1.2,0.6c0.2,0.1,0.3,0.4,0.3,0.6c-1.1-0.6-2.3-1-3.6-1h-0.4
			c-1.4,0.1-2.8,0.4-4.3,1.1C16,13.8,16,13.7,16,13.5C16,13.4,16.2,13.2,16.3,13.2z M32.6,35.3c-0.7,1-1.7,1.6-3,1.8
			c-0.1,0-0.2,0-0.2,0c1.5-1.5,2.4-3.3,2.9-5.3l-0.6-0.2l-0.1,0.2c-0.1,0.2-0.1,0.3-0.2,0.5C30,35,27.8,36.9,25,37.8
			c-1.1,0.4-2.3,0.6-3.6,0.6h-0.8c-2.8-0.2-5.4-1.2-7.7-3l-0.2,0.2l0.1-0.3l-0.4,0.4c0.3,0.5,0.7,1.1,1.2,1.5
			c0.3,0.3,0.6,0.5,0.9,0.7c-0.1,0-0.1,0-0.2,0h-0.9c-0.9,0-1.7-0.1-2.4-0.4c-2.5-0.8-4.1-2.6-4.7-5.2c-0.5-1.9-0.3-3.7,0.5-5.8
			c0.7-1.7,1.7-3.4,3.1-5.2c1.5-2,3.1-3.6,4.9-4.8c1.1-0.8,2.1-1.3,3.1-1.6c0.1,0,0.3-0.1,0.5-0.1c0,0.1-0.1,0.2-0.1,0.2
			c-0.4,0.5-0.9,1.1-1.3,1.6l-0.5,0.7l-0.1,0.2l0.3,0.4l0.6-0.4c0.3-0.2,0.5-0.4,0.8-0.6c0.6-0.5,1.2-1.1,1.8-1.8
			c0.2-0.3,0.6-0.4,0.9-0.4c0.1,0,0.2,0,0.3,0.1c0.2,0.1,0.4,0.2,0.5,0.4c0.8,1.7,2.1,2.9,3.2,3.8l0.1,0.1l0.4-0.4l-0.6-0.7
			c-0.6-0.8-1.1-1.7-1.6-2.6c-0.1-0.2-0.1-0.3-0.2-0.5c0.5,0.1,0.9,0.4,1.3,0.7c1.5,1.1,2.8,2.2,3.9,3.3c1.8,1.7,3.2,3.4,4.2,5.2
			c0.8,1.3,1.3,2.7,1.5,4.3c0.2,1.2,0.2,2.1,0.2,3.1C33.8,33.1,33.4,34.3,32.6,35.3z"/>
	</g>
</g>
</svg>
