<?xml version="1.0" encoding="utf-8"?>
<!-- Generator: Adobe Illustrator 21.1.0, SVG Export Plug-In . SVG Version: 6.00 Build 0)  -->
<svg version="1.1" id="Layer_1" xmlns="http://www.w3.org/2000/svg" xmlns:xlink="http://www.w3.org/1999/xlink" x="0px" y="0px"
	 viewBox="0 0 40 40" style="enable-background:new 0 0 40 40;" xml:space="preserve">
<style type="text/css">
	.st0{fill:#35C4FF;}
</style>
<rect x="62.7" y="-4.9" class="st0" width="27.7" height="25.6"/>
<g id="XMLID_1_">
	<path id="XMLID_98_" class="st0" d="M23.3,29.9c-0.3-0.6-0.6-1.1-0.9-1.7c-0.5-1-0.9-2-1.3-2.9C21,25,20.9,25,20.6,25
		c-6.4,0-12.8,0-19.3,0c-0.1,0-0.2,0-0.3,0c-0.7,0-1-0.3-1-1c0-1.1,0-2.3,0-3.4c0-1.5,0-3.1,0-4.6c0-0.8,0.3-1,1-1c7,0,14,0,21.1,0
		c0.3,0,0.4-0.1,0.6-0.3c2.8-2.9,6.2-3.9,10.1-2.8c3.9,1.1,6.2,3.8,7.1,7.8c0.4,1.9,0,3.6-0.7,5.3c-1.1,2.8-2.5,5.5-4.1,8.1
		c-1.3,2.1-2.7,4.1-4,6.1c-0.4,0.6-0.8,0.8-1.5,0.8c-9.4,0-18.8,0-28.2,0c-0.1,0-0.3,0-0.4,0c-0.6,0-0.9-0.3-0.9-1
		c0-1.5,0-3.1,0-4.6c0-1.1,0-2.2,0-3.3c0-0.9,0.2-1.1,1.1-1.1c7.2,0,14.4,0,21.5,0C22.9,29.9,23.1,29.9,23.3,29.9z M30.1,37.6
		c0.2-0.2,0.2-0.3,0.3-0.4c1-1.5,2-2.9,2.9-4.4c1.7-2.7,3.2-5.4,4.4-8.3c0.5-1.4,0.9-2.8,0.6-4.3c-0.7-4.5-5.2-7.7-9.7-6.8
		c-4.7,0.9-8.1,6-6.1,10.9c1.1,2.8,2.5,5.4,4.1,7.9C27.7,33.9,28.9,35.8,30.1,37.6z M28.4,38.2c-1.3-2.2-2.7-4.3-4-6.4
		c-0.1-0.1-0.3-0.2-0.5-0.2c-7.2,0-14.5,0-21.7,0c-0.1,0-0.3,0-0.4,0c0,2.2,0,4.4,0,6.6C10.7,38.2,19.6,38.2,28.4,38.2z M1.8,16.7
		c0,2.2,0,4.4,0,6.6c6.2,0,12.4,0,18.6,0c-0.3-1.1-0.4-2.3-0.1-3.4c0.2-1.1,0.6-2.2,0.9-3.2C14.8,16.7,8.4,16.7,1.8,16.7z"/>
	<path id="XMLID_95_" class="st0" d="M15.4,10c-4.7,0-9.5,0-14.2,0c-0.9,0-1.1-0.2-1.1-1.2c0-2.6,0-5.2,0-7.7C0.1,0.2,0.4,0,1.2,0
		c9.5,0,18.9,0,28.4,0c0.9,0,1.1,0.2,1.1,1.1c0,2.6,0,5.2,0,7.8c0,0.9-0.2,1.1-1.1,1.1C24.9,10,20.2,10,15.4,10z M29,8.2
		c0-2.2,0-4.4,0-6.6c-9.1,0-18.1,0-27.2,0c0,2.2,0,4.4,0,6.6C10.9,8.2,19.9,8.2,29,8.2z"/>
	<path id="XMLID_79_" class="st0" d="M24.8,21.5c0-3,2.3-5.4,5.3-5.4s5.4,2.4,5.4,5.3c0,3-2.3,5.4-5.4,5.4
		C27.2,26.8,24.8,24.4,24.8,21.5z M30.1,25.1c2,0,3.7-1.6,3.7-3.6s-1.6-3.7-3.7-3.7c-2,0-3.6,1.6-3.7,3.6
		C26.5,23.6,28.1,25.1,30.1,25.1z"/>
	<path id="XMLID_78_" class="st0" d="M8.1,35.8c-0.8,0-1.7,0-2.5,0c-0.6,0-0.9-0.3-0.9-0.8s0.3-0.8,0.9-0.8c1.7,0,3.4,0,5.1,0
		c0.6,0,0.9,0.3,0.9,0.8s-0.3,0.8-0.9,0.9C9.8,35.8,8.9,35.8,8.1,35.8z"/>
	<path id="XMLID_77_" class="st0" d="M8.1,20.9c-0.8,0-1.7,0-2.5,0c-0.6,0-1-0.4-0.9-0.9c0-0.4,0.3-0.8,0.8-0.8c1.8,0,3.6,0,5.3,0
		c0.5,0,0.8,0.4,0.8,0.9s-0.3,0.8-0.8,0.8C9.9,20.9,9,20.8,8.1,20.9C8.1,20.8,8.1,20.8,8.1,20.9z"/>
	<path id="XMLID_76_" class="st0" d="M8.1,5.9c-0.9,0-1.7,0-2.6,0c-0.6,0-0.9-0.3-0.9-0.8s0.3-0.9,0.8-0.9c1.8,0,3.6,0,5.4,0
		c0.5,0,0.8,0.3,0.8,0.9c0,0.5-0.3,0.8-0.8,0.8C9.9,5.9,9,5.9,8.1,5.9z"/>
	<path id="XMLID_75_" class="st0" d="M25.3,5c0,0.7-0.6,1.3-1.3,1.3c-0.7,0-1.3-0.6-1.3-1.3s0.6-1.3,1.3-1.3
		C24.7,3.7,25.3,4.2,25.3,5z"/>
</g>
</svg>
