<?xml version="1.0" encoding="utf-8"?>
<!-- Generator: Adobe Illustrator 21.1.0, SVG Export Plug-In . SVG Version: 6.00 Build 0)  -->
<svg version="1.1" id="Layer_1" xmlns="http://www.w3.org/2000/svg" xmlns:xlink="http://www.w3.org/1999/xlink" x="0px" y="0px"
	 viewBox="0 0 40 40" style="enable-background:new 0 0 40 40;" xml:space="preserve">
<style type="text/css">
	.st0{fill:#35C4FF;}
</style>
<rect x="62.7" y="-4.9" class="st0" width="27.7" height="25.6"/>
<path class="st0" d="M32.7,26.3c-1,0-1.9,0.4-2.6,1.1C29.4,28.1,29,29,29,30s0.4,1.9,1.1,2.6c0.7,0.7,1.6,1.1,2.6,1.1
	c2,0,3.6-1.6,3.6-3.7S34.7,26.3,32.7,26.3z M32.7,32c-1.1,0-2.1-0.9-2.1-2s0.9-2,2.1-2c1.1,0,2,0.9,2,2S33.8,32,32.7,32z M33.6,14.1
	c-0.1-0.1-0.3-0.2-0.5-0.2h-4.2c-0.4,0-0.8,0.4-0.8,0.8v6.7c0,0.4,0.4,0.8,0.8,0.8h6.6c0.4,0,0.8-0.4,0.8-0.8v-4.5
	c0-0.2-0.1-0.4-0.3-0.6L33.6,14.1z M34.7,20.6h-5v-5.1h3l2,1.8V20.6z M12.8,26.3c-1,0-1.9,0.4-2.6,1.1S9.1,29,9.1,30
	s0.4,1.9,1.1,2.6c0.7,0.7,1.6,1.1,2.6,1.1c2,0,3.6-1.6,3.6-3.7S14.8,26.3,12.8,26.3z M12.8,32c-1.1,0-2.1-0.9-2.1-2s0.9-2,2.1-2
	c1.1,0,2,0.9,2,2S13.9,32,12.8,32z M7.4,27.3H5.8v-2.2c0-0.4-0.4-0.8-0.8-0.8c-0.4,0-0.8,0.4-0.8,0.8v3c0,0.4,0.4,0.8,0.8,0.8h2.5
	c0.4,0,0.8-0.4,0.8-0.8S7.8,27.3,7.4,27.3z M11.5,22.9c0-0.4-0.4-0.8-0.8-0.8H0.8c-0.4,0-0.8,0.4-0.8,0.8c0,0.4,0.4,0.8,0.8,0.8h9.9
	C11.1,23.6,11.5,23.3,11.5,22.9z M2.5,19.9l9.9,0.1c0.4,0,0.8-0.4,0.8-0.8c0-0.5-0.4-0.8-0.8-0.8l-9.9-0.1l0,0
	c-0.4,0-0.8,0.4-0.8,0.8C1.7,19.6,2,19.9,2.5,19.9z M4.1,16.2H14c0.4,0,0.8-0.4,0.8-0.8c0-0.4-0.4-0.8-0.8-0.8H4.1
	c-0.4,0-0.8,0.4-0.8,0.8C3.3,15.9,3.7,16.2,4.1,16.2z M39.7,15.1L39.7,15.1l-5.8-4.8c-0.1-0.1-0.3-0.2-0.5-0.2h-6.9V7.1
	c0-0.4-0.4-0.8-0.8-0.8H5c-0.4,0-0.8,0.4-0.8,0.8v6c0,0.4,0.4,0.8,0.8,0.8c0.4,0,0.8-0.4,0.8-0.8V8h19.1v19.3h-6.7
	c-0.4,0-0.8,0.4-0.8,0.8s0.4,0.8,0.8,0.8h9.9c0.4,0,0.8-0.4,0.8-0.8s-0.4-0.8-0.8-0.8h-1.6V11.7h6.6l5.3,4.4l-0.1,11.2h-0.8
	c-0.4,0-0.8,0.4-0.8,0.8s0.4,0.8,0.8,0.8h1.7c0.4,0,0.8-0.4,0.8-0.8V15.8C40,15.5,39.9,15.3,39.7,15.1z"/>
</svg>
