<?xml version="1.0" encoding="utf-8"?>
<!-- Generator: Adobe Illustrator 21.1.0, SVG Export Plug-In . SVG Version: 6.00 Build 0)  -->
<svg version="1.1" id="Layer_1" xmlns="http://www.w3.org/2000/svg" xmlns:xlink="http://www.w3.org/1999/xlink" x="0px" y="0px"
	 viewBox="0 0 40 40" style="enable-background:new 0 0 40 40;" xml:space="preserve">
<style type="text/css">
	.st0{fill:#35C4FF;}
</style>
<g>
	<path class="st0" d="M40,28.2c0,0.5,0,1,0,1.5c0,0.3-0.1,0.5-0.1,0.8c-0.3,2.2-1.3,4.1-2.9,5.6c-2.3,2.2-5.1,3.2-8.3,2.8
		c-2.3-0.3-4.3-1.2-5.9-2.9c-2.1-2.2-3.1-4.9-2.9-7.9c0.2-2.5,1.2-4.7,3.1-6.4c3.2-3.1,8-3.7,11.9-1.5c2.8,1.6,4.4,3.9,5,7
		C39.9,27.5,39.9,27.9,40,28.2z M38,29c0-4.5-3.7-8.1-8.2-8.1c-4.4,0.1-8,3.7-8,8.2c0.1,4.4,3.7,8,8.2,8C34.5,37,38,33.4,38,29z"/>
	<g>
		<path class="st0" d="M30.4,26.7c0.8,0,1.2,0.4,1.1,1.2c0,0.3-0.1,0.5-0.2,0.7c-0.4,1.2-0.9,2.4-1.3,3.6c-0.1,0.1-0.1,0.3-0.1,0.5
			c0,0.1,0,0.2,0.1,0.3c0.1,0,0.2,0,0.3,0c0.2-0.2,0.4-0.4,0.6-0.5c0.2-0.2,0.4-0.4,0.6-0.6c0.1-0.1,0.2-0.1,0.2-0.1
			c0.1,0.1,0.1,0.2,0.1,0.3c0,0.1,0,0.2-0.1,0.2c-0.7,1-1.7,1.8-2.9,2.1c-0.3,0.1-0.6,0.1-0.8,0c-0.4-0.1-0.7-0.3-0.6-0.7
			c0-0.4,0.1-0.8,0.2-1.2c0.4-1.2,0.9-2.3,1.3-3.5c0.1-0.2,0.2-0.4,0.2-0.7c0-0.1,0-0.3,0-0.3c0-0.1-0.2,0-0.3,0
			c-0.2,0.1-0.4,0.3-0.6,0.5c-0.2,0.2-0.4,0.5-0.6,0.7c-0.1,0.1-0.2,0.2-0.3,0.1c-0.1-0.1-0.1-0.2,0-0.3c0.8-1.1,1.7-1.9,3-2.1
			C30.3,26.7,30.3,26.7,30.4,26.7z"/>
		<path class="st0" d="M32.4,24.9c0,0.9-1,1.6-1.8,1.2c-0.5-0.2-0.7-0.8-0.5-1.4c0.2-0.7,0.9-1.1,1.6-0.9
			C32.1,23.9,32.4,24.3,32.4,24.9z"/>
	</g>
</g>
<path class="st0" d="M23,22c-1.9-0.9-3.9-1.3-6.1-1.4c0.5-0.1,1-0.1,1.5-0.2c3.7-0.8,6.7-3.8,7.5-7.4C26.8,8.4,24.7,4,20.7,2
	c-1.2-0.6-2.4-0.9-3.7-1c0,0-0.1,0-0.1,0c-0.4,0-0.7,0-1.1,0c-0.3,0-0.7,0.1-1,0.1C11.2,1.7,8.7,3.7,7.3,7
	c-1.9,4.6-0.1,9.8,4.2,12.3c1.3,0.7,2.6,1.1,4.1,1.2c0,0,0,0,0.1,0c-0.2,0-0.5,0-0.7,0.1C10.4,21,6.7,23,3.7,26.5
	c-1.9,2.2-3,4.8-3.5,7.7C0.1,34.8,0.1,35.4,0,36c0,0.1,0,0.1,0,0.2c0,0.2,0,0.5,0,0.7c1.1,0,2.2,0,3.3,0c0-0.3,0-0.5,0-0.8
	c0.3-4.7,3-8.8,7.2-10.9c2-1,4.1-1.4,6.3-1.3c1.4,0,2.8,0.4,4.1,0.9C21.5,23.7,22.2,22.8,23,22z M16.3,17.7c-3.8,0-6.9-3.1-6.9-6.9
	c0-3.8,3.1-6.9,6.9-6.9c3.8,0,6.9,3.1,6.9,6.9C23.2,14.6,20.2,17.7,16.3,17.7z"/>
</svg>
