<?xml version="1.0" encoding="utf-8"?>
<!-- Generator: Adobe Illustrator 21.1.0, SVG Export Plug-In . SVG Version: 6.00 Build 0)  -->
<svg version="1.1" id="Layer_1" xmlns="http://www.w3.org/2000/svg" xmlns:xlink="http://www.w3.org/1999/xlink" x="0px" y="0px"
	 viewBox="0 0 40 40" style="enable-background:new 0 0 40 40;" xml:space="preserve">
<style type="text/css">
	.st0{fill:#35C4FF;}
</style>
<rect x="62.7" y="-4.9" class="st0" width="27.7" height="25.6"/>
<g>
	<g>
		<path class="st0" d="M39.7,15.2l-5.8-4.8c-0.2-0.2-0.4-0.2-0.5-0.2h-6.8v-3c0-0.5-0.4-0.9-0.8-0.9H4.9C4.5,6.4,4,6.9,4,7.3v5.9
			c0,0.5,0.5,0.8,0.9,0.8c0.4,0,0.9-0.3,0.9-0.8V8h19v19.1h-6.7c-0.5,0-0.8,0.5-0.8,0.9c0,0.4,0.4,0.9,0.8,0.9h9.9
			c0.5,0,0.8-0.5,0.8-0.9c0-0.4-0.4-0.9-0.8-0.9h-1.6V11.9H33l5.3,4.3l-0.1,11h-0.8c-0.5,0-0.8,0.5-0.8,0.9c0,0.4,0.4,0.9,0.8,0.9
			h1.7c0.5,0,0.8-0.4,0.8-0.9L40,15.8C40,15.6,39.9,15.3,39.7,15.2z M4.2,16.2H14c0.5,0,0.8-0.3,0.8-0.8s-0.4-0.8-0.8-0.8H4.2
			c-0.5,0-0.8,0.3-0.8,0.8S3.7,16.2,4.2,16.2z M2.5,20l9.9,0.1c0.5,0,0.8-0.4,0.8-0.8c0-0.2-0.1-0.4-0.2-0.6
			c-0.2-0.2-0.4-0.2-0.6-0.2l-9.9-0.1c-0.5,0-0.8,0.4-0.8,0.8c0,0.2,0.1,0.4,0.2,0.6C2.1,19.9,2.3,20,2.5,20z M11.5,22.8
			c0-0.5-0.4-0.8-0.8-0.8H0.8C0.4,22,0,22.4,0,22.8c0,0.5,0.4,0.8,0.8,0.8h9.9C11.2,23.6,11.5,23.3,11.5,22.8z M7.4,27.1H5.9v-2
			c0-0.5-0.5-0.8-0.9-0.8c-0.4,0-0.9,0.3-0.9,0.8v3C4,28.5,4.5,29,4.9,29h2.4c0.5,0,0.8-0.5,0.8-0.9C8.2,27.6,7.9,27.1,7.4,27.1z
			 M12.8,26.2c-1,0-1.9,0.4-2.6,1.1c-0.7,0.7-1.1,1.6-1.1,2.6c0,1,0.4,1.9,1.1,2.6c0.7,0.7,1.6,1.1,2.6,1.1c2,0,3.7-1.6,3.7-3.7
			C16.5,27.9,14.8,26.2,12.8,26.2z M12.8,31.9c-1.1,0-2-0.9-2-2c0-1.1,0.9-2,2-2c1.1,0,2,0.9,2,2C14.8,31,13.9,31.9,12.8,31.9z
			 M36.3,21.4V17c0-0.1,0-0.4-0.2-0.6l-2.4-2.2c-0.2-0.2-0.4-0.3-0.6-0.3h-4.2c-0.5,0-0.9,0.5-0.9,0.9v6.6c0,0.5,0.5,0.9,0.9,0.9
			h6.6C36,22.3,36.3,21.9,36.3,21.4z M34.7,20.5h-4.8v-4.8h2.9l1.9,1.6V20.5z M32.7,26.2c-1,0-1.9,0.4-2.6,1.1
			C29.4,28,29,28.9,29,29.9c0,1,0.4,1.9,1.1,2.6c0.7,0.7,1.6,1.1,2.6,1.1c2,0,3.7-1.6,3.7-3.7C36.3,27.9,34.7,26.2,32.7,26.2z
			 M32.7,31.9c-1.1,0-2-0.9-2-2c0-1.1,0.9-2,2-2c1.1,0,2,0.9,2,2C34.7,31,33.8,31.9,32.7,31.9z"/>
	</g>
</g>
</svg>
