<?xml version="1.0" encoding="utf-8"?>
<!-- Generator: Adobe Illustrator 21.1.0, SVG Export Plug-In . SVG Version: 6.00 Build 0)  -->
<svg version="1.1" id="Layer_1" xmlns="http://www.w3.org/2000/svg" xmlns:xlink="http://www.w3.org/1999/xlink" x="0px" y="0px"
	 viewBox="0 0 40 40" style="enable-background:new 0 0 40 40;" xml:space="preserve">
<style type="text/css">
	.st0{fill:#35C4FF;}
</style>
<rect x="62.7" y="-4.9" class="st0" width="27.7" height="25.6"/>
<g>
	<g>
		<path class="st0" d="M18.1,28.3c-4.9,0-9.8,0-14.7,0c-0.5,0-0.7-0.2-0.7-0.7c0-6.7,0-13.4,0-20.1c0-0.6,0.2-0.8,0.7-0.8
			c3.1,0,6.2,0,9.4,0c0.8,0,0.8,0,0.8,0.8c0,0.9,0,1.8,0,2.8c2.9,0,5.7,0,8.5,0c0.3,0,0.4-0.2,0.4-0.5c0-0.8,0-1.6,0-2.4
			c0-0.6,0.1-0.7,0.7-0.7c3.2,0,6.3,0,9.5,0c0.6,0,0.7,0.2,0.7,0.8c0,2.3,0,4.6,0,7c0,0.2,0.1,0.5,0.2,0.6c0.8,0.6,1.6,1.2,2.5,1.9
			v-0.6c0-3.9,0-7.7,0-11.6c0-0.9,0-0.9-0.9-0.9C23.8,4,12.3,4,0.7,4C0.2,4,0,4.1,0,4.7c0,8.6,0,17.1,0,25.7c0,0.6,0.1,0.8,0.8,0.8
			c6.3,0,12.5,0,18.8,0h0.7c-0.4-0.8-0.9-1.5-1.2-2.2C18.8,28.4,18.6,28.3,18.1,28.3z M35.8,28.8c-0.3-0.3-0.4-0.5-0.2-0.9
			c0.8-1.5,1-3.1,0.7-4.8c-0.7-4.5-4.9-7.3-9-6.7c-4.4,0.7-7.6,5.3-6.5,9.7c1.3,5.1,6.6,7.6,11.2,5.3c0.4-0.2,0.6-0.1,0.8,0.2
			c0.5,0.5,1,1,1.4,1.5c0.9,1,1.9,1.9,2.8,2.9c1-1,1.9-1.9,2.9-2.9C38.6,31.7,37.2,30.2,35.8,28.8z M28.5,29.1
			c-2.6,0-4.7-2.2-4.7-4.8c0-2.6,2.2-4.7,4.7-4.7c2.6,0,4.7,2.2,4.7,4.7C33.2,27,31.1,29.1,28.5,29.1z M6.6,23.3
			C5.7,23.3,5,24,5,24.9c0,0.9,0.7,1.6,1.6,1.6c0.9,0,1.6-0.7,1.6-1.6C8.2,24,7.5,23.3,6.6,23.3z M11.7,23.3c-0.9,0-1.6,0.8-1.6,1.6
			c0,0.9,0.8,1.6,1.7,1.6c0.9,0,1.6-0.7,1.6-1.6C13.3,24,12.6,23.3,11.7,23.3z"/>
	</g>
</g>
</svg>
