<?xml version="1.0" encoding="utf-8"?>
<!-- Generator: Adobe Illustrator 21.1.0, SVG Export Plug-In . SVG Version: 6.00 Build 0)  -->
<svg version="1.1" id="Layer_1" xmlns="http://www.w3.org/2000/svg" xmlns:xlink="http://www.w3.org/1999/xlink" x="0px" y="0px"
	 viewBox="0 0 40 40" style="enable-background:new 0 0 40 40;" xml:space="preserve">
<style type="text/css">
	.st0{fill:#8e87ff;}
</style>
<rect x="62.7" y="-4.9" class="st0" width="27.7" height="25.6"/>
<g>
	<g>
		<path class="st0" d="M11.9,10C11.5,9.3,11,8.6,10,8.6c-0.2,0-0.4,0-0.6,0.1c-0.1,0-0.2,0-0.3,0c-0.1,0-0.2,0-0.3,0
			c-0.1,0-0.3,0-0.4,0c0,0-0.1,0-0.1,0C7.8,8.7,7.6,9,7.4,9.2c-2,3.4-4.4,7.3-6.9,11.4c-0.5,0.7-0.6,1.5-0.5,2.3c0,0.1,0,0.2,0,0.3
			c0,0.2,0.1,0.5,0.1,0.7C1,28.1,5,31.3,9.4,31.3c0.1,0,0.2,0,0.3,0c4.1-0.2,7.8-3.1,8.8-6.9c0.5-1.7,0.3-3.1-0.6-4.5
			C15.7,16.6,13.7,13.2,11.9,10z M2.9,20.6c2-3.2,3.9-6.5,5.9-9.7c0.1-0.2,0.4-0.3,0.6-0.3c0.3,0,0.5,0.1,0.6,0.3
			c2,3.2,3.9,6.5,5.9,9.7L2.9,20.6L2.9,20.6z M13.7,28c-1.4,0.9-2.8,1.4-4.3,1.4c-1.2,0-2.4-0.3-3.7-1c-2.3-1.2-3.5-3.1-3.8-5.9
			h14.7C16.6,25,15.6,26.8,13.7,28z M39.2,25.5c-2.1-3.4-4.2-6.8-6.1-10c-0.4-0.7-0.9-1.4-1.7-1.4c-0.2,0-0.4,0-0.6,0.1
			c-0.2,0-0.3,0-0.4,0c-0.1,0-0.3,0-0.4,0c-0.2,0-0.4,0-0.5,0c-0.2,0-0.5,0.2-0.7,0.4c-1.7,2.7-3.3,5.5-5,8.2
			c-0.7,1.2-1.4,2.3-2.1,3.5c-0.4,0.6-0.5,1.3-0.4,2c0,0.1,0,0.2,0,0.3c0,0.2,0.1,0.5,0.1,0.8c0.4,2,1.5,3.9,3.2,5.3
			c1.7,1.4,3.8,2.2,5.9,2.2c0.1,0,0.3,0,0.4,0c2.1-0.1,4.1-0.8,5.7-2.1c1.6-1.3,2.7-3,3.2-5C40.2,28,40,26.7,39.2,25.5z M24.1,26
			c2-3.2,3.9-6.5,5.9-9.7c0.1-0.2,0.4-0.3,0.6-0.3c0.3,0,0.5,0.1,0.6,0.3c2,3.2,3.9,6.5,5.9,9.7c0,0,0,0,0,0L24.1,26
			C24.1,26.1,24.1,26.1,24.1,26z M35.2,33.2c-1.4,1-2.9,1.6-4.5,1.6h0c-1.2,0-2.4-0.3-3.6-0.9c-2.3-1.1-3.6-3.1-3.8-5.9H38
			C37.9,30.3,36.9,32,35.2,33.2z M24.9,10.9l9.1,2.4l0.5-1.9l-9-2.4c0-0.1,0-0.2,0-0.3c0-0.4,0-0.7-0.1-1.1
			c-0.5-2.2-2.3-3.9-4.6-4.3c-0.3,0-0.5-0.1-0.8-0.1c-2,0-3.8,1.1-4.8,2.8c-0.1,0.2-0.1,0.2-0.2,0.2c0,0-0.1,0-0.2,0
			c-1.5-0.4-3.1-0.8-4.6-1.2C9.8,4.9,9.3,4.7,8.9,4.6C8.3,4.5,7.7,4.3,7.1,4.1L6,3.9L5.5,5.7l9.1,2.4c-0.2,2.8,1.8,4.8,3.8,5.5
			c0.6,0.2,1.1,0.3,1.7,0.3c0.5,0,1-0.1,1.5-0.2C23,13.2,24.1,12.3,24.9,10.9z M20,12c-1,0-1.9-0.3-2.5-1c-0.6-0.6-1-1.5-1-2.4
			c0-1.9,1.5-3.4,3.5-3.4L20,5v0.3c2,0,3.5,1.4,3.5,3.4C23.5,10.5,22,12,20,12L20,12z"/>
	</g>
</g>
</svg>
