<svg xmlns="http://www.w3.org/2000/svg" viewBox="2100.056 1432 98.21 90.38">
  <defs>
    <style>
      .cls-1 {
        fill: #ffcf19;
      }
    </style>
  </defs>
  <path id="Union_40" data-name="Union 40" class="cls-1" d="M-1457.924-1078.81v-.491l-3.929,3.929a2.23,2.23,0,0,1-1.719.737,1.348,1.348,0,0,1-1.474-.982,2.209,2.209,0,0,1-.245-3.439l8.1-8.1a2.373,2.373,0,0,1,3.438,0l8.1,8.35a2.373,2.373,0,0,1,0,3.438,2.228,2.228,0,0,1-1.719.737,2.229,2.229,0,0,1-1.719-.737l-3.929-3.929v.491a39.743,39.743,0,0,0,12.034,28.49c15.719,15.472,41.26,14.981,56.733-.737s14.981-41.26-.737-56.732a40.029,40.029,0,0,0-56.733.736.528.528,0,0,1-.491.491,2.641,2.641,0,0,1-3.439-.491,2.678,2.678,0,0,1,.491-3.438c.246,0,.246-.246.491-.246a44.766,44.766,0,0,1,63.609,0,45.062,45.062,0,0,1,0,63.855,44.359,44.359,0,0,1-31.927,13.262A45.177,45.177,0,0,1-1457.924-1078.81Zm26.279,24.069a2.321,2.321,0,0,1-2.456-2.456v-24.314a2.321,2.321,0,0,1,2.456-2.456h4.421v-6.876a14.255,14.255,0,0,1,14.244-14.245,14.629,14.629,0,0,1,14.49,14.245v6.876h4.421a2.32,2.32,0,0,1,2.456,2.456v24.314a2.32,2.32,0,0,1-2.456,2.456Zm2.456-5.158h32.664v-19.4h-32.664Zm6.876-30.945-.245,6.876h18.911v-6.876a9.329,9.329,0,0,0-9.333-9.333A9.329,9.329,0,0,0-1422.312-1090.844Z" transform="translate(3566.056 2556)"/>
</svg>
