<svg xmlns="http://www.w3.org/2000/svg" viewBox="1575 1425 129.12 103.559">
  <defs>
    <style>
      .cls-1 {
        fill: #59c8fa;
      }
    </style>
  </defs>
  <path id="Union_38" data-name="Union 38" class="cls-1" d="M-1427.288-1020.769a5.238,5.238,0,0,1-4.274-4.274l-.986-5.917a31.24,31.24,0,0,1-6.9-2.959c-1.315.986-3.288,2.3-4.6,3.288a5.3,5.3,0,0,1-2.958.986,5.3,5.3,0,0,1-2.959-.986,44.789,44.789,0,0,1-5.589-5.589,4.516,4.516,0,0,1-.328-5.917l3.616-4.931a25.784,25.784,0,0,1-2.959-6.9,59.709,59.709,0,0,1-6.246-.986,4.889,4.889,0,0,1-4.274-4.274,31.71,31.71,0,0,1,0-7.89,5.239,5.239,0,0,1,4.274-4.274l5.918-.986a31.182,31.182,0,0,1,2.959-6.9l-3.288-4.931c-1.644-1.643-1.315-4.274,0-5.917,1.643-1.973,3.616-3.616,5.589-5.589a6.34,6.34,0,0,1,3.288-.986,5.3,5.3,0,0,1,2.958.986l4.6,3.616a19.887,19.887,0,0,1,6.9-2.63l.986-5.917a4.888,4.888,0,0,1,4.274-4.274,16.016,16.016,0,0,1,3.945-.328c1.316,0,2.631.328,3.946.328a5.239,5.239,0,0,1,4.274,4.274l.986,5.917a31.227,31.227,0,0,1,6.9,2.958,28.058,28.058,0,0,1,4.6-3.616,5.3,5.3,0,0,1,2.958-.986,5.307,5.307,0,0,1,2.959.986,44.905,44.905,0,0,1,5.589,5.589,4.5,4.5,0,0,1,.328,5.917l-3.616,4.6a25.75,25.75,0,0,1,2.958,6.9l5.918.986a4.888,4.888,0,0,1,4.273,4.274,36.966,36.966,0,0,1,0,8.548,5.237,5.237,0,0,1-4.273,4.273l-5.918.986a31.193,31.193,0,0,1-2.958,6.9,28.091,28.091,0,0,1,3.616,4.6,4.5,4.5,0,0,1,0,5.918,44.914,44.914,0,0,1-5.589,5.589,6.347,6.347,0,0,1-3.288.986,5.3,5.3,0,0,1-2.958-.986l-4.6-3.617a31.272,31.272,0,0,1-6.9,2.959l-.986,5.917a4.889,4.889,0,0,1-4.274,4.274,16.018,16.018,0,0,1-3.946.328C-1424.659-1020.441-1425.974-1020.769-1427.288-1020.769Zm-11.506-16.767a35.8,35.8,0,0,0,8.219,3.288,2.183,2.183,0,0,1,1.315,1.643l.986,7.233a1.051,1.051,0,0,0,.986.986h3.616c1.315,0,2.3-.329,3.616-.329q.987-.493.986-.985c.328-2.959.986-7.233.986-7.233,0-.986.658-1.315,1.315-1.643a25.372,25.372,0,0,0,8.219-3.288,1.21,1.21,0,0,1,.986-.328c.658,0,.986,0,1.315.328l5.918,4.274c.328.328.328.328.657.328s.329-.328.658-.328c1.643-1.316,3.288-3.288,4.931-4.932a1,1,0,0,0,0-1.315l-4.274-5.917a2.81,2.81,0,0,1,0-2.3,35.786,35.786,0,0,0,3.288-8.219,2.184,2.184,0,0,1,1.644-1.315l7.232-.986a1.05,1.05,0,0,0,.986-.986,53.38,53.38,0,0,0,.328-7.562q-.493-.985-.986-.986c-2.958-.328-7.232-.986-7.232-.986-.986,0-1.315-.657-1.643-1.315a25.378,25.378,0,0,0-3.288-8.219c-.658-.657-.329-1.643,0-2.3l4.273-5.918a1,1,0,0,0,0-1.315,34.846,34.846,0,0,0-4.931-4.932c-.328-.328-.328-.328-.657-.328s-.329.328-.658.328l-5.917,4.274a2.488,2.488,0,0,1-1.315.328,1.208,1.208,0,0,1-.986-.328,35.831,35.831,0,0,0-8.22-3.288,2.185,2.185,0,0,1-1.315-1.643l-.986-7.233a1.05,1.05,0,0,0-.986-.986h-3.617c-1.315,0-2.3.329-3.616.329q-.985.493-.986.986l-.986,7.232c0,.986-.657,1.315-1.315,1.643a25.384,25.384,0,0,0-8.219,3.288,1.206,1.206,0,0,1-.986.329c-.657,0-.986,0-1.315-.329l-5.917-4.273c-.329-.329-.329-.329-.658-.329s-.328.329-.657.329a34.853,34.853,0,0,0-4.932,4.931,1,1,0,0,0,0,1.315c1.644,2.3,4.274,5.918,4.274,5.918a2.81,2.81,0,0,1,0,2.3,35.825,35.825,0,0,0-3.288,8.22,2.185,2.185,0,0,1-1.643,1.315l-7.233.986a1.049,1.049,0,0,0-.986.985,26.57,26.57,0,0,0,0,7.233q.493.985.986.986c2.959.328,7.233.986,7.233.986.986.328,1.643.657,1.315,1.643a25.336,25.336,0,0,0,3.288,8.219c.657.658.328,1.644,0,2.3l-4.274,5.917a1,1,0,0,0,0,1.316c1.315,1.643,3.288,3.287,4.931,4.931.329.328.329.328.658.328s.328-.328.658-.328l5.918-4.274a1.977,1.977,0,0,1,1.315-.328A1.21,1.21,0,0,1-1438.795-1037.536Zm1.972-25.643a13.54,13.54,0,0,1,13.479-13.479,13.539,13.539,0,0,1,13.479,13.479,13.759,13.759,0,0,1-13.479,13.478A13.759,13.759,0,0,1-1436.823-1063.179Zm3.617,0a9.89,9.89,0,0,0,9.862,9.862,9.89,9.89,0,0,0,9.863-9.862,9.891,9.891,0,0,0-9.863-9.863A9.89,9.89,0,0,0-1433.206-1063.179Zm62.793-6.575a3.5,3.5,0,0,1-2.959-3.288v-3.288a19.652,19.652,0,0,1-3.616-1.973l-2.958,1.644a4.68,4.68,0,0,1-1.973.657h-.329a2.982,2.982,0,0,1-2.3-.986,34.666,34.666,0,0,1-3.288-3.945c-.986-1.643-.986-3.288.328-4.6l2.3-2.3a18.5,18.5,0,0,1-1.315-3.946c-.986-.328-2.3-.657-3.288-.985a3.853,3.853,0,0,1-2.959-3.617,32.817,32.817,0,0,1,.658-5.26,3.852,3.852,0,0,1,3.616-2.959l3.288-.329c.658-1.315,1.315-2.3,1.973-3.616l-1.644-2.959a3.536,3.536,0,0,1,.658-4.6,34.851,34.851,0,0,1,3.945-3.288,4.173,4.173,0,0,1,1.973-.328h.328a2.982,2.982,0,0,1,2.3.986l2.3,2.3a18.505,18.505,0,0,1,3.946-1.315l.986-3.288a3.851,3.851,0,0,1,3.616-2.959h2.63c.986,0,1.643.328,2.63.328a4.247,4.247,0,0,1,2.959,3.946l.328,3.288c1.315.657,2.3,1.315,3.616,1.973l2.959-1.644a4.678,4.678,0,0,1,1.973-.658h.328a2.987,2.987,0,0,1,2.3.986,34.93,34.93,0,0,1,3.288,3.946c.986,1.643.986,3.288-.328,4.6l-2.3,2.3a18.547,18.547,0,0,1,1.315,3.945l3.288.986a3.853,3.853,0,0,1,2.958,3.616,32.807,32.807,0,0,1-.657,5.26,3.853,3.853,0,0,1-3.616,2.959h-3.288c-.658,1.315-1.315,2.3-1.973,3.616a13.311,13.311,0,0,1,1.643,2.958,3.535,3.535,0,0,1-.657,4.6,34.675,34.675,0,0,1-3.946,3.288,4.742,4.742,0,0,1-2.3.658H-1352a2.984,2.984,0,0,1-2.3-.986l-2.3-2.3a18.483,18.483,0,0,1-3.946,1.315l-.985,2.3c-.329,1.973-1.973,2.3-3.616,2.3-.986,0-1.644.986-2.631.658-.658,0-1.169.146-1.729.146A2.78,2.78,0,0,1-1370.413-1069.754Zm-5.26-12.164a17.431,17.431,0,0,0,4.932,2.631,2.184,2.184,0,0,1,1.315,1.643l.328,4.6c.658,0,1.315.328,1.973.328h2.3c.328-1.643.986-4.274.986-4.274a2.185,2.185,0,0,1,1.643-1.315,14.079,14.079,0,0,0,5.26-1.643c.328,0,.657-.328.986-.328h.328c.328,0,.657.328.986.657l3.288,2.959c.986-.986,2.3-1.644,3.288-2.63l-2.631-3.946a2.81,2.81,0,0,1,0-2.3,17.441,17.441,0,0,0,2.631-4.931,2.183,2.183,0,0,1,1.643-1.316l4.6-.328a18.758,18.758,0,0,0,.328-4.274l-4.273-.986a2.183,2.183,0,0,1-1.316-1.643,14.078,14.078,0,0,0-1.643-5.26,2.027,2.027,0,0,1,.328-2.3l2.959-3.287c-.986-.986-1.644-2.3-2.63-3.288l-3.946,2.3a1.208,1.208,0,0,1-.986.328h-.328c-.328,0-.658-.328-.986-.328a12.142,12.142,0,0,0-4.6-2.3,2.184,2.184,0,0,1-1.315-1.644l-.329-4.931h-4.273l-.986,4.274a2.185,2.185,0,0,1-1.644,1.315,14.079,14.079,0,0,0-5.26,1.643c-.328,0-.658.329-.986.329h-.328c-.329,0-.658-.329-.986-.658l-3.288-2.959a23.059,23.059,0,0,0-3.288,2.631l2.3,3.945a2.81,2.81,0,0,1,0,2.3,17.409,17.409,0,0,0-2.63,4.932,2.186,2.186,0,0,1-1.644,1.315l-4.6.328a18.759,18.759,0,0,0-.328,4.274l4.274.986a2.185,2.185,0,0,1,1.315,1.643,14.081,14.081,0,0,0,1.643,5.26,2.023,2.023,0,0,1-.328,2.3l-2.958,3.288c.985.985,1.643,2.3,2.63,3.288l3.945-2.3c.329-.657.658-.657,1.315-.657C-1376.33-1082.247-1376-1081.919-1375.673-1081.919Zm-67.724,11.506c-.986-.328-1.973-1.315-1.644-2.3,1.973-10.192,12.164-11.835,12.164-11.835h.328a1.841,1.841,0,0,1,1.973,1.643c.328,1.316-.328,2.3-1.643,1.973a10.933,10.933,0,0,0-8.877,8.877,2.083,2.083,0,0,1-1.973,1.643Zm77.587-16.438a9.708,9.708,0,0,1-8.548-10.192,9.529,9.529,0,0,1,9.206-8.548h.985a9.041,9.041,0,0,1,6.247,3.288,8.665,8.665,0,0,1,1.973,6.9,8.769,8.769,0,0,1-8.877,8.548Zm-4.6-9.863a5.74,5.74,0,0,0,1.315,3.946,5.712,5.712,0,0,0,3.616,1.972h.658a5.42,5.42,0,0,0,5.589-4.931,5.488,5.488,0,0,0-4.932-5.917h-.657A5.42,5.42,0,0,0-1370.413-1096.713Zm-6.9-4.6a1.761,1.761,0,0,1-1.315-.986,2.459,2.459,0,0,1-.329-1.643,9.57,9.57,0,0,1,9.205-7.233h.329a1.841,1.841,0,0,1,1.643,1.973,1.707,1.707,0,0,1-.657,1.315,2.49,2.49,0,0,1-1.316.658,6.326,6.326,0,0,0-5.588,4.6c.328.657-.329,1.315-1.644,1.315Z" transform="translate(3041 2549)"/>
</svg>
