<svg xmlns="http://www.w3.org/2000/svg" viewBox="2608 1438.3 101.645 69.7">
  <defs>
    <style>
      .cls-1 {
        fill: #00c1a1;
      }
    </style>
  </defs>
  <path id="Path_386" data-name="Path 386" class="cls-1" d="M101.645,62.336a.852.852,0,0,0-.509-.241H.616c-.241,0-.241,0-.509.241a.362.362,0,0,0,0,.509S1.633,69.7,13.308,69.7H88.2c11.675,0,13.2-6.855,13.2-6.855C101.645,62.6,101.645,62.6,101.645,62.336Zm-43.137,4.07H43.271V62.845H58.507v3.561ZM11.032,55.99H90.747a2.015,2.015,0,0,0,2.035-2.035V2.035A2.015,2.015,0,0,0,90.747,0H11.032A2.015,2.015,0,0,0,9,2.035v51.92A2.167,2.167,0,0,0,11.032,55.99Zm5.329-48.6h69.3V48.653h-69.3Z" transform="translate(2608 1438.3)"/>
</svg>
