<svg xmlns="http://www.w3.org/2000/svg" viewBox="1848 1434 91.436 87.335">
  <defs>
    <style>
      .cls-1 {
        fill: #ff746c;
      }
    </style>
  </defs>
  <path id="Union_39" data-name="Union 39" class="cls-1" d="M-1439.278-1047.468c-.358-1.125-1.023-1.074-1.893-1.074h-20.463c-4.041,0-5.422-2.354-3.53-6.088,1.842-3.632,3.786-7.265,5.576-10.9a6.23,6.23,0,0,0,.665-2.711c.051-5.423.051-10.795,0-16.217a32.573,32.573,0,0,1,23.942-31.411c1.279-.358,2-.665,2.251-2.3a6.8,6.8,0,0,1,7.008-5.832,7.236,7.236,0,0,1,7.06,5.883,2.369,2.369,0,0,0,2.149,2.251,33.767,33.767,0,0,1,3.274,1.023c-2.354,1.534-4.451,2.966-6.6,4.3-.358.257-1.023.1-1.534,0-8.441-1.228-16.064.768-22.459,6.447a24.5,24.5,0,0,0-8.7,18.775c-.051,5.934,0,11.868-.051,17.8a9.371,9.371,0,0,1-.818,3.53c-1.381,2.967-2.967,5.883-4.6,9h64.919c-.256-.665-.562-1.33-.921-2.3,2.4,1.279,4.4.46,6.446-.87,1.075,2.353,2.763,4.246,2.456,7.009-.205,1.944-.716,2.609-2.763,2.609h-23.43c-1.637,7.264-6.855,11.664-13.813,11.868q-.254.008-.506.008C-1432.221-1036.665-1437.282-1040.582-1439.278-1047.468Zm33.969-11.817c-.153-1.176-.409-2.251-.46-3.377s-.615-1.586-1.637-1.944c-1.382-.511-2.3-.357-3.121.922a20.617,20.617,0,0,1-1.79,2.1c-1.893-1.176-3.684-2.251-5.576-3.376.358-2.456,3.274-5.065-.818-7.214-1.177.409-2.66.972-4.246,1.534-1.075-1.893-2.149-3.734-3.274-5.729,1.125-.921,2.148-1.893,3.274-2.66,1.381-.972.307-2.047.2-3.069,0-.358-.818-.87-1.33-.973-3.479-.664-3.479-.614-3.479-4.194,0-3.889-.562-2.814,3.172-3.581,1.791-.358,2.865-1.33,2.813-3.019,0-.358-.409-.819-.716-1.126-.87-.767-1.791-1.483-2.712-2.251,1.023-2.046,2-3.99,3.019-6.139a23,23,0,0,1,3.427,1.433c1.637.921,2.4-.41,3.223-1.228.358-.358.256-1.33.1-2a18.611,18.611,0,0,0-1.126-3.019c1.944-1.074,3.786-2.148,5.781-3.274a21.042,21.042,0,0,1,2.4,2.967c.972,1.637,2.251.512,3.325.358.46-.1.921-1.023,1.125-1.688a21.907,21.907,0,0,0,.461-2.916h6.65c.154,1.177.358,2.354.512,3.581a2.077,2.077,0,0,0,1.381,1.74c1.791.818,2.866.358,3.786-1.177a11.769,11.769,0,0,1,1.381-1.637c1.688,1.023,3.377,2,5.014,3.07a1.306,1.306,0,0,1,.307,1.176c-.256.972-.819,1.842-1.023,2.814a3.24,3.24,0,0,0,.358,1.944c.768,1.381,1.841,1.841,3.326.869a15.12,15.12,0,0,1,2.506-.972c1.075,1.893,2.2,3.785,3.326,5.781-.87.665-1.586,1.382-2.4,1.893a2.648,2.648,0,0,0-1.33,3.377,1.735,1.735,0,0,0,1.637,1.483c1.075.154,2.1.307,3.274.512v6.6c-1.176.307-2.455.768-3.734.972-1.688.255-1.381,1.74-1.74,2.712-.154.409.409,1.176.869,1.637a28.581,28.581,0,0,0,2.507,2.047c-1.075,1.893-2.149,3.785-3.274,5.781a35.642,35.642,0,0,1-3.735-1.433c-1.586-.819-2.148.614-2.916,1.279a1.962,1.962,0,0,0-.2,1.791c1.125,3.273,1.176,3.223-1.893,4.91-.819.461-1.637.921-2.609,1.433-1.74-1.483-2.66-4.809-5.935-3.274a1.321,1.321,0,0,0-.768,1.023c-.2,1.075-.409,2.3-.664,3.53Zm-10.487-26.858a14.989,14.989,0,0,0,14.784,15.091,14.9,14.9,0,0,0,14.784-14.477c.051-8.645-6.394-15.552-14.631-15.654h-.184A14.948,14.948,0,0,0-1415.8-1086.143Z" transform="translate(3314 2558)"/>
</svg>
