<svg xmlns="http://www.w3.org/2000/svg" viewBox="2356.885 1434 90.65 87.024">
  <defs>
    <style>
      .cls-1 {
        fill: #9b59b6;
      }
    </style>
  </defs>
  <path id="Union_41" data-name="Union 41" class="cls-1" d="M-1454.9-1036.976a11.123,11.123,0,0,1-11.1-11.1V-1067.8a11.123,11.123,0,0,1,11.1-11.1h68.441a11.123,11.123,0,0,1,11.105,11.1v19.717a11.123,11.123,0,0,1-11.105,11.1Zm51.9-20.17v7.252a2.141,2.141,0,0,0,2.267,2.266h12.238a2.14,2.14,0,0,0,2.266-2.266v-7.252a2.141,2.141,0,0,0-2.266-2.267h-.227v-2.946a5.806,5.806,0,0,0-5.893-5.665,5.805,5.805,0,0,0-5.665,5.892v2.719h-.453A2.142,2.142,0,0,0-1403-1057.146Zm-53.936-.907,3.852.907a15.317,15.317,0,0,0,3.173.453,20.337,20.337,0,0,0-2.266,2.04l-2.72,2.946,4.76,3.4,1.813-3.626c.453-.907.906-1.813,1.36-2.946.679,1.586,1.133,2.492,1.36,2.946l2.04,3.4,4.532-3.4-2.719-2.946a10.682,10.682,0,0,1-2.267-2.267,14.949,14.949,0,0,0,3.173-.227l4.08-.906-1.813-5.439-3.626,1.813c-.227.227-.907.453-1.586.906l-1.36.68a13.122,13.122,0,0,0,.679-3.173l.453-3.853h-5.666l.453,3.853a24.046,24.046,0,0,1,.68,3.173c-1.586-.907-2.493-1.36-2.947-1.586l-3.625-1.586Zm37.619,6.12,1.813,3.4,4.532-3.4-2.719-2.946a10.23,10.23,0,0,1-2.04-2.267,14.945,14.945,0,0,0,3.173-.227l3.853-.906-1.813-5.439-3.626,1.813c-.227.227-.906.453-1.586.906l-1.359.68c.227-.907.453-2.04.68-3.173l.679-3.853h-5.665l.226,3.853a26.019,26.019,0,0,0,.453,3.173,23.408,23.408,0,0,0-2.719-1.586l-3.626-1.586-1.813,5.438,4.08.68a15.283,15.283,0,0,0,3.173.453,20.337,20.337,0,0,0-2.267,2.04l-2.946,2.946,4.759,3.4,2.04-3.4c.453-.907.906-2.04,1.36-2.946A8.984,8.984,0,0,0-1419.316-1051.933Zm21.983-7.252v-2.946a3,3,0,0,1,2.946-2.946,3.166,3.166,0,0,1,2.946,2.946v2.946Zm-30.368-24.022.454-.907v-.227a17.514,17.514,0,0,1-1.587-3.626v-.226h-.227l-3.173-.454a3.664,3.664,0,0,1-3.173-3.626,21.825,21.825,0,0,1,0-5.439,4.093,4.093,0,0,1,3.4-3.626l3.173-.226v-.227a10.029,10.029,0,0,1,1.36-3.626v-.227l-2.04-2.719a4.438,4.438,0,0,1,.227-4.986,30.982,30.982,0,0,1,3.853-3.853,4.752,4.752,0,0,1,2.492-.906,4.569,4.569,0,0,1,2.493.679l2.719,2.04h.227a25.193,25.193,0,0,1,3.626-1.586h.454l.453-3.4a4.092,4.092,0,0,1,3.626-3.4,11.028,11.028,0,0,1,2.72-.227,10.91,10.91,0,0,0,2.719,0,4.093,4.093,0,0,1,3.626,3.4l.227,3.626h.227a17.534,17.534,0,0,1,3.625,1.586h.227l.227-.227,2.493-1.813a4.438,4.438,0,0,1,4.986.227,18.3,18.3,0,0,1,3.625,3.626,4.074,4.074,0,0,1,.227,4.986l-1.813,2.946a25.081,25.081,0,0,1,1.586,3.626v.227l3.4.453a4.093,4.093,0,0,1,3.4,3.626,21.837,21.837,0,0,1,0,5.439,4.093,4.093,0,0,1-3.4,3.626l-3.4.454v.226a17.468,17.468,0,0,1-1.586,3.626v.227l.227.227.453.453h-4.986a1.988,1.988,0,0,1,.227-1.586,18.561,18.561,0,0,0,2.267-5.439,2.195,2.195,0,0,1,1.812-1.586l4.76-.68v-3.852h-.227l-4.533-.68a2.24,2.24,0,0,1-1.586-1.586,14.574,14.574,0,0,0-2.266-5.439,2.056,2.056,0,0,1,0-2.265l2.719-3.853-.227-.227a30.767,30.767,0,0,0-2.719-2.719l-.227-.227-3.853,2.719a2.057,2.057,0,0,1-2.266,0,18.528,18.528,0,0,0-5.439-2.266,2.2,2.2,0,0,1-1.586-1.813l-.68-4.759h-4.532l-.68,4.759a2.237,2.237,0,0,1-1.586,1.586,14.568,14.568,0,0,0-5.438,2.266,2.044,2.044,0,0,1-1.134.227c-.453,0-.679-.227-1.133-.453l-3.853-2.72-.227.227a30.986,30.986,0,0,0-2.719,2.719l-.227.227.227.227,2.719,3.626a2.058,2.058,0,0,1,0,2.267,18.54,18.54,0,0,0-2.266,5.438c0,.907-.68,1.361-1.586,1.586l-4.759.68v4.305h.226l4.533.68a2.241,2.241,0,0,1,1.586,1.586,14.589,14.589,0,0,0,2.266,5.439,2.482,2.482,0,0,1,0,1.813Zm11.105-11.785a10.06,10.06,0,0,1,9.971-9.971,10.06,10.06,0,0,1,9.971,9.971,10.213,10.213,0,0,1-9.971,9.972A10.06,10.06,0,0,1-1416.6-1094.992Zm4.079.227a5.716,5.716,0,0,0,5.893,5.892,5.715,5.715,0,0,0,5.892-5.892,6,6,0,0,0-5.892-5.893A5.852,5.852,0,0,0-1412.517-1094.765Zm-7.7-4.306a1.867,1.867,0,0,1-1.586-2.266,10.336,10.336,0,0,1,8.838-8.612h.227a1.918,1.918,0,0,1,1.813,2.266,1.751,1.751,0,0,1-1.586,1.813,6.254,6.254,0,0,0-5.213,5.212,1.94,1.94,0,0,1-2.04,1.586Z" transform="translate(3822.885 2558)"/>
</svg>
