<?xml version="1.0" encoding="utf-8"?>
<!-- Generator: Adobe Illustrator 23.0.1, SVG Export Plug-In . SVG Version: 6.00 Build 0)  -->
<svg version="1.1" id="Capa_1" xmlns="http://www.w3.org/2000/svg" xmlns:xlink="http://www.w3.org/1999/xlink" x="0px" y="0px"
	 viewBox="0 0 40 40" style="enable-background:new 0 0 40 40;" xml:space="preserve">
<style type="text/css">
	.st0{fill:#3A3A3A;}
</style>
<g>
	<path class="st0" d="M31.8,21.2c-0.9-0.2-1.7-0.3-2.6-0.3c-2.7,0-5.1,1.2-7.1,3.6c-0.3,0.3-0.5,0.4-0.9,0.4c-1.4,0-2.9,0-4.3,0
		l-2.9,0v0h-0.4c-0.8,0-1.5,0-2.3,0c-0.8,0-1.5,0-2.3,0c-1.1,0-2,0-2.8,0c-1.8,0.1-3.5,1-4.4,2.6c-1,1.6-1.1,3.5-0.3,5.2
		c1,2.2,2.8,3.3,5.3,3.3c2,0,3.9,0,5.9,0c2.9,0,5.7,0,8.6,0c0.4,0,0.7,0.1,1,0.5c2,2.3,4.4,3.5,7.3,3.5c0.4,0,0.8,0,1.3-0.1
		c2.6-0.3,4.9-1.7,6.5-3.8c1.6-2.1,2.2-4.7,1.7-7.3C38.1,24.9,35.7,22.2,31.8,21.2z M17.9,34.5c-1,0-2,0-3.1,0c-1,0-2.1,0-3.1,0
		c-1.9,0-3.4,0-4.9,0c-1.4,0-2.5-0.5-3.3-1.4c-1-1.3-1.3-2.7-0.6-4.1c0.7-1.5,1.9-2.3,3.5-2.3c0.8,0,1.6,0,2.4,0c0.3,0,3.3,0,3.6,0
		l8.3,0l-0.2,0.5c-0.8,2.3-0.8,4.5,0,6.8l0.2,0.5H17.9z M29.5,38.4L29.5,38.4c-2.2,0-4.1-0.8-5.6-2.3c-1.5-1.5-2.3-3.5-2.3-5.6
		c0-4.3,3.6-7.7,7.9-7.7h0c2.1,0,4.1,0.8,5.6,2.4c1.5,1.5,2.3,3.5,2.3,5.6C37.4,34.9,33.8,38.4,29.5,38.4z"/>
	<path class="st0" d="M8.2,18.8c0.9,0.2,1.7,0.3,2.6,0.3c2.7,0,5.1-1.2,7.1-3.6c0.3-0.3,0.5-0.4,0.9-0.4c1.4,0,2.8,0,4.2,0l5.6,0
		c0.5,0,1,0,1.5,0l1.9,0c0.5,0,1.2,0,1.9,0c1.6-0.1,3.1-0.8,4.1-2.1c1-1.3,1.4-3,1-4.5C38.3,5.7,36.1,4,33.4,4c-2,0-4.1,0-6.1,0
		c-2.8,0-5.6,0-8.4,0c-0.5,0-0.8-0.1-1.1-0.5c-2-2.3-4.4-3.5-7.2-3.5c-0.4,0-0.9,0-1.3,0.1C6.6,0.4,4.3,1.8,2.8,3.9
		C1.2,6,0.7,8.6,1.1,11.2C1.9,15.2,4.3,17.8,8.2,18.8z M19.9,5.5c0.1,0,0.2,0,0.3,0c1.1,0,2.2,0,3.3,0c1.2,0,2.3,0,3.5,0
		c2.5,0,4.4,0,6.2,0c1.2,0,2.1,0.4,2.9,1c0.7,0.6,1.1,1.4,1.3,2.2c0.2,1.1-0.1,2.3-0.8,3.2c-0.7,0.9-1.8,1.4-3,1.4c-0.7,0-1.3,0-2,0
		l-3.1,0h-9.3l0.2-0.5c0.8-2.3,0.8-4.5,0-6.8l-0.2-0.5L19.9,5.5z M10.4,1.7L10.4,1.7c4.4,0,7.9,3.6,7.9,7.9c0,4.4-3.6,7.9-7.9,7.9h0
		c-4.2,0-7.8-3.7-7.7-8C2.6,5.1,6.1,1.7,10.4,1.7z"/>
</g>
</svg>
