<?xml version="1.0" encoding="utf-8"?>
<!-- Generator: Adobe Illustrator 23.0.1, SVG Export Plug-In . SVG Version: 6.00 Build 0)  -->
<svg version="1.1" id="Capa_1" xmlns="http://www.w3.org/2000/svg" xmlns:xlink="http://www.w3.org/1999/xlink" x="0px" y="0px"
	 viewBox="0 0 40 40" style="enable-background:new 0 0 40 40;" xml:space="preserve">
<style type="text/css">
	.st0{fill:#3A3A3A;}
</style>
<g>
	<path class="st0" d="M35.8,0c-2.3,0-4.1,1.8-4.1,4.1c0,2,1.5,3.7,3.4,4.1v1.3l-7.9,0c-0.2,0-0.4,0.1-0.5,0.2
		c-0.1,0.1-0.2,0.3-0.2,0.5v2.1h-5.8V8.2c2-0.3,3.4-2.1,3.4-4.1C24.1,1.8,22.3,0,20,0s-4.1,1.8-4.1,4.1c0,2,1.5,3.7,3.4,4.1v4.1
		h-5.9v-2.1c0-0.2-0.1-0.4-0.2-0.5c-0.1-0.1-0.3-0.2-0.5-0.2l-7.9,0V8.2c2-0.3,3.4-2.1,3.4-4.1C8.3,1.8,6.5,0,4.2,0S0.1,1.8,0.1,4.1
		c0,2,1.5,3.7,3.4,4.1v1.9c0,0.2,0.1,0.4,0.2,0.5c0.1,0.1,0.3,0.2,0.5,0.2l7.9,0v1.5H8.7c-0.4,0-0.7,0.3-0.7,0.7v4.1
		c0,0.3,0.1,0.5,0.4,0.6l9,5.1l-0.1,4.4c0,0.3,0.1,0.5,0.4,0.6c0.1,0.1,0.2,0.1,0.3,0.1c0.1,0,0.3,0,0.4-0.1l3.9-2.8
		c0.2-0.1,0.3-0.3,0.3-0.6l0-1.5l8.8-5.3c0.2-0.1,0.3-0.4,0.3-0.6v-4.1c0-0.4-0.3-0.7-0.7-0.7h-3.2v-1.5l7.9,0
		c0.2,0,0.4-0.1,0.5-0.2c0.1-0.1,0.2-0.3,0.2-0.5V8.2c2-0.3,3.4-2.1,3.4-4.1C39.9,1.8,38.1,0,35.8,0z M6.9,4.1
		c0,1.5-1.2,2.8-2.8,2.8S1.4,5.6,1.4,4.1s1.2-2.8,2.8-2.8S6.9,2.6,6.9,4.1z M17.3,4.1c0-1.5,1.2-2.8,2.8-2.8c1.5,0,2.8,1.2,2.8,2.8
		S21.5,6.9,20,6.9C18.5,6.9,17.3,5.6,17.3,4.1z M21.3,22.6l0,1.5l-2.6,1.8l0.1-3.5c0-0.3-0.1-0.5-0.4-0.6l-9-5.1v-3.1h21.1v3.1
		L21.6,22C21.4,22.1,21.3,22.3,21.3,22.6z M38.6,4.1c0,1.5-1.2,2.8-2.8,2.8c-1.5,0-2.8-1.2-2.8-2.8s1.2-2.8,2.8-2.8
		C37.3,1.4,38.6,2.6,38.6,4.1z"/>
	<path class="st0" d="M19.4,28.4c-3.2,0-5.8,2.6-5.8,5.8c0,3,2.2,5.4,5.1,5.8v0h1.2l0.1,0v0c2.9-0.3,5.1-2.8,5.1-5.8
		C25.2,31,22.6,28.4,19.4,28.4z M17.7,35.3c-0.2,0-0.3,0.1-0.5,0.2c-0.1,0.1-0.2,0.3-0.2,0.5c0,0.2,0.1,0.4,0.3,0.6
		c0.4,0.3,0.8,0.4,1.3,0.5v1.5c-2.2-0.3-3.8-2.2-3.8-4.4s1.6-4.1,3.8-4.4v1.5c-0.3,0.1-0.6,0.2-0.9,0.4c-0.4,0.3-0.6,0.8-0.6,1.3
		c0,0.5,0.2,0.9,0.5,1.2c0.3,0.3,0.8,0.5,1.5,0.6c0.4,0.1,0.8,0.2,0.9,0.3c0.1,0.1,0.2,0.2,0.2,0.3c0,0.2-0.1,0.3-0.2,0.4
		c-0.2,0.1-0.4,0.1-0.7,0.1c-0.5,0-0.9-0.1-1.3-0.4C18.1,35.4,17.9,35.3,17.7,35.3z M20,38.6v-1.5c0.4-0.1,0.7-0.2,1-0.5
		c0.4-0.4,0.6-0.8,0.6-1.3c0-0.5-0.2-0.9-0.5-1.2c-0.3-0.3-0.8-0.5-1.6-0.6c-0.4-0.1-0.7-0.2-0.8-0.2c-0.1-0.1-0.2-0.2-0.2-0.3
		c0-0.1,0.1-0.3,0.2-0.3c0.1-0.1,0.4-0.1,0.7-0.1c0.3,0,0.6,0.1,0.9,0.2c0.2,0.1,0.3,0.1,0.4,0.1c0.2,0,0.3-0.1,0.5-0.2
		c0.1-0.1,0.2-0.3,0.2-0.5c0-0.2-0.1-0.4-0.2-0.5c-0.3-0.2-0.6-0.4-1.1-0.4v-1.5c2.2,0.3,3.8,2.2,3.8,4.4S22.2,38.3,20,38.6z"/>
</g>
</svg>
