<?xml version="1.0" encoding="utf-8"?>
<!-- Generator: Adobe Illustrator 23.0.1, SVG Export Plug-In . SVG Version: 6.00 Build 0)  -->
<svg version="1.1" id="Capa_1" xmlns="http://www.w3.org/2000/svg" xmlns:xlink="http://www.w3.org/1999/xlink" x="0px" y="0px"
	 viewBox="0 0 40 40" style="enable-background:new 0 0 40 40;" xml:space="preserve">
<style type="text/css">
	.st0{fill:#3A3A3A;}
</style>
<g>
	<path class="st0" d="M32.8,32c-0.1,0-0.3,0-0.4,0.1c-0.1,0.1-0.2,0.2-0.4,0.2L32,32.4c-3,2.2-6.5,3.3-10.2,3.4c-0.2,0-0.3,0-0.5,0
		c-3.4,0-6.5-0.9-9.4-2.6c-4.4-2.7-7.3-6.5-8.5-11.5c-0.3-1.3-0.5-2.7-0.5-4.2c0-0.3-0.1-0.7-0.5-0.8c-0.1-0.1-0.2-0.1-0.3-0.1
		c-0.2,0-0.4,0.1-0.5,0.2c-0.2,0.2-0.3,0.4-0.3,0.7c0,1.8,0.3,3.5,0.7,5.1c2.1,7.7,8.6,13.4,16.5,14.5c0.5,0.1,0.9,0.1,1.4,0.2
		c0.2,0,0.4,0,0.6,0.1l0,0.4c0,0.4,0,0.8,0,1.2c0,0.5,0.1,0.8,0.5,1l0,0h0.5l0,0c0.4-0.2,0.5-0.6,0.5-1c0-0.2,0-0.4,0-0.6
		c0-0.2,0-0.5,0-0.7c0-0.1,0-0.2,0-0.3c0,0,0.1-0.1,0.3-0.1c3.9-0.2,7.5-1.5,10.7-3.8c0.1-0.1,0.1-0.1,0.2-0.2
		c0.3-0.3,0.3-0.7,0.1-1C33.3,32.1,33,32,32.8,32z"/>
	<path class="st0" d="M38.6,15.7c0-0.2,0-0.5,0-0.7c0-0.4-0.3-0.7-0.8-0.7l-0.1,0c-0.4,0-0.7,0.4-0.7,0.8c0,0.1,0,0.2,0,0.3
		c0.2,1.4,0.2,2.9-0.1,4.5c-1.2,7.5-7.6,13.1-15.2,13.2c0,0-0.1,0-0.2,0c-1.1-0.7-2.2-1.5-3.1-2.6c-0.7-0.9-0.8-1.9-0.4-2.9
		c0.3-0.6,0.5-1.3,0.6-1.9c0.4-1.8,0.1-3.1-0.9-4.2c-0.4-0.4-0.9-0.7-1.3-1c-0.3-0.2-0.3-0.4-0.2-0.6c0-0.1,0.1-0.2,0.1-0.3
		c0.1-0.3,0.3-0.7,0.5-0.9c0.9-0.9,1.3-2.1,1.2-3.7c-0.1-0.9-0.5-1.7-1.3-2.1c-0.5-0.3-1.1-0.5-1.7-0.5c-0.5,0-1,0.1-1.6,0.4
		c-0.9,0.4-1.2,1.1-1,2.1c0.1,0.3,0.1,0.9,0,1.3c-0.4,1.4-1.2,2.5-2.8,3.6c-0.1,0.1-0.2,0.1-0.2,0.1c-0.1,0-0.2-0.1-0.3-0.3
		c-0.5-1.2-0.4-2.1,0.2-2.9c0.2-0.3,0.3-0.6,0.2-0.8c0-0.3-0.2-0.5-0.5-0.7C9,15.2,8.6,15,8.3,14.9c-0.7-0.2-1.6-0.3-2.5-0.3
		c-0.3,0-0.6,0-0.9,0c-0.5,0-0.7,0.3-0.8,0.8c-0.2,1.6-0.2,3.2,0.1,4.8c1.2,6.1,4.6,10.4,10.1,13c0.7,0.3,1.5,0.6,2.2,0.8l0.5,0.2
		c0.1,0,0.2,0,0.3,0c0.4,0,0.6-0.2,0.7-0.6c0.1-0.4-0.1-0.8-0.6-1c-0.1,0-0.1,0-0.2,0l-0.1,0c-2.6-0.7-4.9-2-6.8-3.8
		c-3.1-3-4.8-6.6-5-11c0-0.4,0-0.8,0-1.2c0-0.2,0-0.3,0-0.5l2.3,0.2c-0.8,1.8-0.4,3.3-0.1,3.8c0.4,0.9,1,1.4,1.8,1.4
		c0.4,0,0.9-0.2,1.3-0.5c1.1-0.8,2-1.8,2.7-2.9c0.7-1.3,0.9-2.5,0.6-3.7c0-0.2,0-0.2,0.2-0.3c0.3-0.1,0.5-0.2,0.8-0.2
		c0.2,0,0.5,0,0.7,0.1c0.5,0.2,0.7,0.5,0.7,1c0,0.8-0.1,1.8-0.9,2.4c-0.1,0.1-0.1,0.2-0.2,0.2l0,0c-0.5,0.7-0.7,1.4-0.8,2.1
		c0,0.9,0.6,1.4,1.2,1.8c1.1,0.7,1.5,1.6,1.4,2.8c-0.1,0.7-0.4,1.5-0.7,2.4c-0.5,1.4-0.4,2.7,0.4,4c0.8,1.3,2,2.2,3,2.9
		c0.7,0.5,1.3,0.8,2,0.8c0.2,0,0.4,0,0.6-0.1c0.2,0,0.3,0,0.5-0.1c0.1,0,0.3,0,0.4,0c5.3-0.7,9.5-3.3,12.5-7.8
		c1.7-2.6,2.6-5.5,2.8-8.6C38.7,17.4,38.6,16.5,38.6,15.7z"/>
	<path class="st0" d="M5.1,13.4c0.1,0.1,0.3,0.1,0.4,0.1c0.2,0,0.4-0.1,0.6-0.3c0.1-0.1,0.2-0.3,0.2-0.5C8.4,6,14.4,1.6,21.4,1.6
		c0.2,0,0.3,0,0.5,0c0.6,0,1.2,0.1,1.9,0.2c0.3,0,0.5,0.1,0.8,0.1c0,0.9,0.4,1.6,0.8,2.2c0,0,0.1,0.1,0.1,0.2
		c-0.1,0.9-0.2,1.6-0.3,2.4c0,0-0.2,0.2-0.3,0.2c-1.2,0.2-2.2,0.8-3,1.8c-0.7,0.9-0.8,1.8-0.2,2.9c0.2,0.3,0.4,0.6,0.5,1
		c0.2,0.4,0.4,0.8,0.7,1.2c0.2,0.4,0.5,0.8,0.8,1.2c0.3,0.4,0.7,0.6,1.1,0.6c0.4,0,0.7-0.1,1-0.4c0.3-0.3,0.6-0.6,0.8-1
		c0.5-0.8,0.9-1.6,1.3-2.4c0.1-0.1,0.1-0.2,0.2-0.2c0.1,0,0.1,0,0.2,0.1c0.3,0.3,0.5,0.6,0.7,0.9c0.2,0.3,0.3,0.6,0.5,0.9
		c0.1,0.1,0.1,0.3,0.2,0.4c0.4,0.9,1.2,1.3,2.2,1.3c1.8,0,3.6-0.3,5.5-1c0.7-0.2,0.8-0.6,0.6-1.2c-1.2-4.2-3.7-7.5-7.4-9.8
		C30,2.3,29.3,2,28.6,1.6c-0.2-0.1-0.4-0.2-0.6-0.3c-0.1-0.1-0.3-0.1-0.4-0.1c-0.3,0-0.6,0.2-0.7,0.4c-0.2,0.4,0,0.8,0.5,1.1
		c0.1,0,0.1,0.1,0.2,0.1C30.1,4,32.3,5.7,34,8c1,1.4,1.8,2.9,2.3,4.6c-1.6,0.5-3.1,0.8-4.5,0.8c-0.4,0-0.6-0.1-0.8-0.5l0-0.1
		c-0.2-0.4-0.4-0.9-0.6-1.3c-0.4-0.7-0.9-1.5-2.1-1.7c-0.1,0-0.2,0-0.4,0c-0.4,0-0.8,0.2-1,0.5c-0.3,0.3-0.5,0.7-0.7,1.1
		c-0.2,0.3-0.3,0.6-0.5,0.8c-0.2,0.4-0.5,0.9-0.8,1.3c-0.2,0.3-0.2,0.3-0.3,0.3c0,0-0.1,0-0.3-0.3c-0.5-0.8-0.9-1.6-1.4-2.4
		l-0.3-0.5c-0.1-0.2-0.1-0.5,0.1-0.7c0.6-0.8,1.3-1.2,2.2-1.3c0.7-0.1,1.2-0.4,1.4-1c0.2-0.5,0.3-1,0.4-1.6c0.2-1,0.3-2.1-0.5-3.1
		c-0.2-0.3-0.3-0.7-0.2-1.1c0.1-0.6-0.1-0.9-0.7-1C24,0.2,22.7,0,21.4,0c-0.6,0-1.2,0-1.9,0.1C13,1,8.2,4.5,5.4,10.5
		C5.2,11,5,11.5,4.8,12l-0.1,0.4C4.6,12.8,4.7,13.2,5.1,13.4z"/>
	<path class="st0" d="M24.1,21.8c0.1,0.1,0.3,0.2,0.5,0.3c0.1,0,0.2,0.1,0.2,0.1c0.2,0.1,0.4,0.3,0.7,0.4c0.5,0.3,1.1,0.6,1.5,0.9
		c0.5,0.4,1.1,0.6,2,0.6h0c0.9,0,2-0.4,2.7-1.8c0.2-0.4,0.5-0.8,0.8-1.2l0.1-0.2c0.1-0.1,0.2-0.3,0.4-0.4c0.1-0.1,0.2-0.2,0.3-0.3
		c0.4-0.4,0.5-0.9,0.5-1.3c0-0.4-0.3-0.8-0.7-1.2c-0.3-0.2-0.6-0.4-0.9-0.5c-0.3-0.1-0.5-0.1-0.8-0.1c-0.5,0-0.9,0.1-1.3,0.2
		l-0.3,0.1c-1.1,0.2-2.4,0.6-3.2,1.9c-0.1,0.1-0.1,0.2-0.3,0.2c-0.1,0-0.1,0-0.2,0c-0.3-0.1-0.5-0.2-0.8-0.2c-0.4,0-0.8,0.2-1.2,0.5
		c-0.3,0.3-0.5,0.7-0.5,1.1C23.5,21.2,23.7,21.6,24.1,21.8z M28,20l0.2-0.2c0.3-0.3,0.5-0.4,0.8-0.5c0.3,0,0.6-0.1,0.9-0.2
		c0.3-0.1,0.6-0.2,0.8-0.2c0.1,0,0.3,0,0.5,0c0.3,0,0.6,0,0.8,0.1c0.2,0.1,0.2,0.1,0.2,0.1c0,0,0,0.1-0.2,0.3
		c-0.1,0.1-0.2,0.2-0.3,0.3c-0.2,0.2-0.4,0.4-0.6,0.6c-0.3,0.4-0.6,0.9-0.9,1.4c-0.3,0.6-0.8,1-1.5,1c-0.3,0-0.7-0.1-1-0.3
		c-0.5-0.4-1-0.7-1.6-1c-0.2-0.1-0.4-0.2-0.5-0.3c0.2,0.1,0.3,0.1,0.5,0.1c0.4,0,0.8-0.2,1.1-0.5C27.6,20.4,27.8,20.2,28,20z"/>
	<path class="st0" d="M22.9,27.4c-0.3-0.4-0.6-0.6-1-0.6c-0.2,0-0.5,0.1-0.8,0.2c-0.6,0.3-1.1,0.9-1.4,1.5c-0.3,0.5-0.3,1.1-0.1,1.5
		c0.2,0.4,0.6,0.8,1.1,1c0.2,0.1,0.4,0.1,0.6,0.1c0.1,0,0.2,0,0.2,0l0.1,0l0,0l0.1,0c0.8,0,1.4-0.4,1.7-0.9c0.3-0.5,0.3-1.2,0.1-1.9
		C23.3,28.1,23.1,27.8,22.9,27.4z M21,29.5c0,0,0-0.1,0.2-0.4c0.1-0.2,0.3-0.3,0.4-0.5c0,0,0.1-0.1,0.1-0.1c0,0,0,0.1,0.1,0.1
		c0.1,0.1,0.2,0.2,0.2,0.3c0,0.1,0.2,0.5,0.1,0.5c-0.1,0.1-0.4,0.2-0.6,0.2c0,0,0,0,0,0C21.1,29.6,21,29.6,21,29.5z"/>
</g>
</svg>
