<?xml version="1.0" encoding="utf-8"?>
<!-- Generator: Adobe Illustrator 23.0.1, SVG Export Plug-In . SVG Version: 6.00 Build 0)  -->
<svg version="1.1" id="Capa_1" xmlns="http://www.w3.org/2000/svg" xmlns:xlink="http://www.w3.org/1999/xlink" x="0px" y="0px"
	 viewBox="0 0 40 40" style="enable-background:new 0 0 40 40;" xml:space="preserve">
<style type="text/css">
	.st0{fill:#3A3A3A;}
</style>
<g>
	<path class="st0" d="M34.2,25.3c0-1.3-1.2-2.4-2.4-2.4c-0.3,0-0.7,0.1-1.1,0.2c-0.5-1.2-1.3-1.9-2.7-1.9c0-0.2,0-0.4,0-0.5
		c0-5.7,0-11.3,0-17c0-2-1.6-3.6-3.6-3.6c-4.9,0-9.8,0-14.8,0C7.3,0,5.8,1.5,5.8,3.8c0,10.2,0,20.4,0,30.7c0,2,1.6,3.6,3.6,3.6
		c1.4,0,2.7,0,4.1,0c1.1,0,2.2,0,3.3,0c0.5,0,0.8-0.3,0.8-0.7c0-0.4-0.3-0.7-0.8-0.7c-0.1,0-0.1,0-0.2,0c-2.4,0-4.9,0-7.3,0
		c-1.1,0-1.9-0.6-2-1.6c-0.1-0.8,0-1.7,0-2.5c0.2,0,0.4,0,0.7,0c1.8,0,3.6,0,5.4,0c0.5,0,0.8-0.3,0.8-0.7c0-0.4-0.3-0.7-0.8-0.7
		c-0.7,0-1.4,0-2.2,0c-1.3,0-2.6,0-3.9,0c0-8.5,0-17,0-25.5c6.4,0,12.9,0,19.3,0c0,5.2,0,10.4,0,15.6c-0.8-0.7-1.7-1-2.7-0.6
		c0-0.2,0-0.3,0-0.5c0-1.6,0-3.3,0-4.9c0-1.4-1.4-2.6-2.8-2.4c-1.1,0.2-2,1.3-2,2.4c0,3.6,0,7.1,0,10.7c0,0.1,0,0.3,0,0.4
		c-0.9-1.1-1.6-2.1-2.4-3.2c-0.6-0.9-1.8-1.3-2.8-1.1c-1.4,0.4-2.1,2.1-1.5,3.5c0.8,1.6,1.5,3.2,2.3,4.8c1.2,2.3,2.4,4.5,4,6.5
		c0.8,1,1.7,1.7,2.9,2.2c2.1,0.8,4.2,1,6.4,0.7c1.5-0.2,2.9-0.7,4-1.7c1.5-1.3,2.2-3,2.3-4.9C34.2,30.6,34.2,27.9,34.2,25.3z
		 M7.2,4.1c0-0.3,0-0.6,0-0.8c0.1-1.2,0.9-1.9,2.1-1.9c3.6,0,7.1,0,10.7,0c1.4,0,2.8,0,4.2,0c1.6,0,2.3,0.7,2.3,2.4
		c0,0.1,0,0.2,0,0.4C20.1,4.1,13.7,4.1,7.2,4.1z M32.8,31.9c0,0.8,0,1.5-0.1,2.3c-0.4,2.3-1.9,3.6-4,4.2c-2.2,0.6-4.4,0.4-6.5-0.4
		c-1.2-0.5-2.1-1.4-2.9-2.5c-1.7-2.4-3.1-5-4.3-7.7c-0.5-1-0.9-1.9-1.3-2.9c-0.3-0.6-0.1-1,0.4-1.4c0.6-0.3,1-0.2,1.4,0.3
		c1.2,1.7,2.4,3.3,3.6,5c0,0.1,0.1,0.1,0.1,0.2c0.2,0.3,0.5,0.4,0.9,0.3c0.3-0.1,0.5-0.4,0.5-0.7c0-1.7,0-3.3,0-5c0-0.6,0-1.2,0-1.7
		c0-2.2,0-4.4,0-6.6c0-0.8,0.4-1.2,1.3-1c0.5,0.1,0.8,0.4,0.8,1.1c0,2.1,0,4.2,0,6.3c0,1.2,0,2.4,0,3.6c0,0.5,0.3,0.8,0.7,0.8
		c0.4,0,0.7-0.3,0.7-0.8c0-0.8,0-1.6,0-2.3c0-0.7,0.3-1,0.9-1c0.7,0,1.1,0.4,1.1,1c0,1,0,2,0,3c0,0.5,0.3,0.8,0.7,0.8
		c0.4,0,0.7-0.3,0.7-0.8c0-0.8,0-1.6,0-2.3c0-0.7,0.3-1,0.9-1c0.7,0,1.1,0.4,1.1,1c0,1,0,2,0,3.1c0,0.4,0.3,0.8,0.7,0.8
		c0.4,0,0.7-0.3,0.7-0.8c0-0.4,0-0.9,0-1.3c0-0.7,0.3-1.1,1-1.1c0.7,0,1.1,0.4,1.1,1.1C32.8,27.5,32.8,29.7,32.8,31.9z"/>
	<path class="st0" d="M16.2,9.1c0-0.8-0.6-1.5-1.5-1.5c-1.1,0-2.2,0-3.2,0c-0.8,0-1.5,0.6-1.5,1.5c0,1.1,0,2.2,0,3.3
		c0,0.8,0.7,1.5,1.5,1.5c1.1,0,2.2,0,3.2,0c0.8,0,1.5-0.7,1.5-1.5c0-0.5,0-1.1,0-1.6C16.2,10.2,16.2,9.6,16.2,9.1z M14.8,12.4
		c-1.1,0-2.3,0-3.4,0c0-1.1,0-2.3,0-3.4c1.1,0,2.2,0,3.4,0C14.8,10.1,14.8,11.3,14.8,12.4z"/>
	<path class="st0" d="M10,20c0,0.8,0.7,1.5,1.5,1.5c0.5,0,1.1,0,1.6,0c0.5,0,1.1,0,1.6,0c0.8,0,1.5-0.7,1.5-1.5c0-1.1,0-2.2,0-3.3
		c0-0.8-0.7-1.5-1.5-1.5c-1.1,0-2.2,0-3.3,0c-0.8,0-1.5,0.6-1.5,1.5C10,17.8,10,18.9,10,20z M11.4,16.6c1.1,0,2.2,0,3.4,0
		c0,1.1,0,2.3,0,3.4c-1.1,0-2.2,0-3.4,0C11.4,18.9,11.4,17.8,11.4,16.6z"/>
	<path class="st0" d="M22.4,11.6c0,0.5,0.3,0.8,0.7,0.8c0.4,0,0.7-0.3,0.7-0.8c0-0.9,0-1.7,0-2.6c0-0.7-0.7-1.4-1.4-1.4
		c-1.1,0-2.3,0-3.4,0c-0.7,0-1.4,0.7-1.4,1.4c0,1.1,0,2.3,0,3.4c0,0.4,0.3,0.7,0.7,0.7c0.4,0,0.7-0.3,0.7-0.7c0-1,0-2,0-3
		c0-0.1,0-0.3,0-0.4c1.2,0,2.3,0,3.4,0C22.4,9.9,22.4,10.8,22.4,11.6z"/>
	<path class="st0" d="M14.8,2.1c-0.4,0-0.7,0.3-0.7,0.7c0,0.4,0.3,0.7,0.7,0.7c0.4,0,0.7-0.3,0.7-0.7C15.5,2.4,15.2,2.1,14.8,2.1z"
		/>
	<path class="st0" d="M16.9,2.1c-0.4,0-0.7,0.3-0.7,0.7c0,0.4,0.3,0.7,0.7,0.7c0.4,0,0.7-0.3,0.7-0.7C17.6,2.4,17.2,2.1,16.9,2.1z"
		/>
	<path class="st0" d="M18.9,2.1c-0.4,0-0.7,0.3-0.7,0.7c0,0.4,0.3,0.7,0.7,0.7c0.4,0,0.7-0.3,0.7-0.7C19.7,2.4,19.3,2.1,18.9,2.1z"
		/>
</g>
</svg>
