<?xml version="1.0" encoding="utf-8"?>
<!-- Generator: Adobe Illustrator 23.0.1, SVG Export Plug-In . SVG Version: 6.00 Build 0)  -->
<svg version="1.1" id="Capa_1" xmlns="http://www.w3.org/2000/svg" xmlns:xlink="http://www.w3.org/1999/xlink" x="0px" y="0px"
	 viewBox="0 0 40 40" style="enable-background:new 0 0 40 40;" xml:space="preserve">
<style type="text/css">
	.st0{fill:#3A3A3A;}
</style>
<g>
	<path class="st0" d="M40,1c0-0.7-0.3-1-1-1C26.4,0,13.8,0,1.2,0C0.2,0,0,0.2,0,1.2c0,12.6,0,25.2,0,37.7C0,39.7,0.3,40,1.1,40
		c12.6,0,25.2,0,37.9,0c0.8,0,1.1-0.3,1.1-1.1c0-6.3,0-12.6,0-19C40,13.7,40,7.4,40,1z M38.2,38.2c-12.2,0-24.3,0-36.5,0
		c0-12.2,0-24.3,0-36.5c12.2,0,24.3,0,36.5,0C38.2,13.9,38.2,26.1,38.2,38.2z"/>
	<path class="st0" d="M20,33c7.2,0,13.1-5.9,13-13.1c0-7.2-5.9-13-13.1-13C12.8,7,6.9,12.8,7,20C7,27.2,12.8,33,20,33z M20,8.7
		c6.2,0,11.3,5.1,11.3,11.3c0,6.2-5.1,11.3-11.3,11.3c-6.2,0-11.3-5.1-11.3-11.3C8.7,13.8,13.8,8.7,20,8.7z"/>
	<path class="st0" d="M15.1,19.8c0.4,0.2,0.7,0.1,1-0.2c0.9-0.8,1.8-1.7,2.7-2.5c0.1-0.1,0.2-0.2,0.3-0.3c0,1.6,0,3.1,0,4.5
		c0,1.5,0,3.1,0,4.6c0,0.6,0.4,1,0.9,1c0.5,0,0.8-0.4,0.8-1c0-1.4,0-2.7,0-4.1c0-1.6,0-3.2,0-4.8c0,0,0.1,0,0.1-0.1
		c0.1,0.1,0.2,0.3,0.3,0.4c0.8,0.8,1.5,1.6,2.3,2.4c0.4,0.4,0.9,0.4,1.3,0c0.3-0.3,0.3-0.9,0-1.2c-1.4-1.4-2.8-2.9-4.2-4.3
		c-0.4-0.4-0.9-0.4-1.3,0c-1.5,1.4-3,2.8-4.4,4.2c-0.1,0.1-0.3,0.4-0.3,0.6C14.5,19.3,14.7,19.6,15.1,19.8z"/>
</g>
</svg>
