<?xml version="1.0" encoding="utf-8"?>
<!-- Generator: Adobe Illustrator 23.0.1, SVG Export Plug-In . SVG Version: 6.00 Build 0)  -->
<svg version="1.1" id="Layer_1" xmlns="http://www.w3.org/2000/svg" xmlns:xlink="http://www.w3.org/1999/xlink" x="0px" y="0px"
	 viewBox="0 0 40 40" style="enable-background:new 0 0 40 40;" xml:space="preserve">
<style type="text/css">
	.st0{fill:#3A3A3A;}
</style>
<g>
	<path class="st0" d="M23.5,13.1c-6.8,0-13.5,0-20.2,0c0,2.5,0,4.9,0,7.4c6.8,0,13.5,0,20.2,0C23.5,18,23.5,15.6,23.5,13.1z
		 M21.8,18.8c-5.6,0-11.2,0-16.8,0c0-1.3,0-2.7,0-4c5.6,0,11.2,0,16.8,0C21.8,16.2,21.8,17.5,21.8,18.8z"/>
	<path class="st0" d="M7,23.2c-0.7,0-1.5,0-2.2,0c0,0.6,0,1.1,0,1.7c0.7,0,1.5,0,2.2,0C7,24.3,7,23.7,7,23.2z"/>
	<path class="st0" d="M14.5,23.2c-0.7,0-1.5,0-2.2,0c0,0.6,0,1.1,0,1.7c0.8,0,1.5,0,2.2,0C14.5,24.3,14.5,23.7,14.5,23.2z"/>
	<path class="st0" d="M7,28.5c-0.7,0-1.5,0-2.2,0c0,0.6,0,1.1,0,1.6c0.8,0,1.5,0,2.2,0C7,29.6,7,29.1,7,28.5z"/>
	<path class="st0" d="M14.5,28.5c-0.7,0-1.4,0-2.2,0c0,0.6,0,1.1,0,1.7c0.7,0,1.4,0,2.2,0C14.5,29.6,14.5,29.1,14.5,28.5z"/>
	<path class="st0" d="M7,34c-0.7,0-1.5,0-2.2,0c0,0.6,0,1.1,0,1.6c0.7,0,1.5,0,2.2,0C7,35.1,7,34.5,7,34z"/>
	<path class="st0" d="M14.5,34c-0.7,0-1.4,0-2.2,0c0,0.6,0,1.1,0,1.7c0.7,0,1.4,0,2.2,0C14.5,35,14.5,34.5,14.5,34z"/>
	<path class="st0" d="M9,4.6c2.8,0,5.6,0,8.5,0c0-0.6,0-1.1,0-1.6C14.6,3,11.8,3,9,3C9,3.6,9,4.1,9,4.6z"/>
	<path class="st0" d="M9,7.8c2.8,0,5.6,0,8.5,0c0-0.6,0-1.1,0-1.7c-2.8,0-5.6,0-8.5,0C9,6.7,9,7.2,9,7.8z"/>
	<path class="st0" d="M24.7,39.6c-1.1,0-2.2-0.4-2.9-1.2c-6.4,0-12.8,0-19.3,0c-0.6,0-0.8-0.2-0.8-0.8c0-8.5,0-17.1,0-25.6
		c0-0.6,0.1-1,1-1c4.6,0,9.1,0,13.7,0c2.6,0,5.2,0,7.8,0c0.7,0,0.8,0.1,0.8,0.8c0,3.1,0,6.3,0,9.4c0.2,0,0.4,0,0.6,0.1
		c0.2-0.7,0.6-1.3,1.1-1.8c0-2.6,0-5.2,0-7.9c0-1.4-0.9-2.4-2.4-2.4c-0.8,0-1.6,0-2.5,0c-0.4,0-0.4-0.1-0.4-0.4c0-2.8,0-5.6,0-8.3
		c0-0.2,0-0.3,0-0.5C16,0,10.7,0,5.3,0c0,3.1,0,6.1,0,9.3c-1,0-2,0-2.9,0c-1.4,0-2.3,1-2.3,2.4c0,8.7,0,17.3,0,26C0,39,1,40,2.4,40
		c0.8,0,1.6,0,2.5,0c6.5,0,12.9,0,19.4,0c0.6,0,1.1-0.1,1.5-0.4c0-0.1,0-0.1,0-0.2C25.3,39.5,25,39.6,24.7,39.6z M7,1.7
		c4.2,0,8.5,0,12.7,0c0,2.5,0,5,0,7.5c-4.2,0-8.5,0-12.7,0C7,6.7,7,4.2,7,1.7z"/>
	<path class="st0" d="M39.2,31.9l-1.1-0.6l0,0c0-0.3,0-0.6,0-0.9c0-0.3,0-0.6,0-0.9l0,0l1.1-0.6c0.7-0.4,1-1.2,0.7-1.9
		c-0.5-1.1-1-2.1-1.6-2.7c-0.3-0.3-0.7-0.5-1.2-0.5c-0.3,0-0.6,0.1-0.8,0.2l-1.1,0.6l0,0c-0.5-0.3-1-0.6-1.5-0.9l0,0v-1.2
		c0-0.8-0.6-1.4-1.3-1.5c-0.6-0.1-1.2-0.1-1.7-0.1c-0.5,0-1,0-1.5,0.1c-0.7,0.1-1.2,0.8-1.2,1.5v1.2l0,0c-0.5,0.2-1,0.5-1.5,0.9l0,0
		L25.5,24c-0.2-0.1-0.5-0.2-0.8-0.2c-0.5,0-0.9,0.2-1.2,0.6c-0.8,1-1.3,1.9-1.6,2.7c-0.2,0.7,0.1,1.5,0.7,1.8l1.1,0.6l0,0
		c0,0.3,0,0.6,0,0.8c0,0.3,0,0.6,0,0.8l0,0l-1.1,0.6c-0.7,0.4-1,1.2-0.7,1.9c0.4,1,0.9,1.9,1.6,2.7c0.3,0.3,0.7,0.5,1.2,0.5
		c0.3,0,0.6-0.1,0.8-0.2l1.1-0.6l0,0c0.5,0.3,1,0.6,1.5,0.9l0,0v1.2c0,0.8,0.5,1.4,1.3,1.5c0.5,0.1,1,0.1,1.6,0.1
		c0.5,0,1.1,0,1.6-0.1c0.7-0.1,1.3-0.8,1.3-1.5v-1.2l0,0c0.5-0.2,1-0.5,1.5-0.9l0,0l1.1,0.6c0.2,0.1,0.5,0.2,0.8,0.2
		c0.5,0,0.9-0.2,1.2-0.5c0.7-0.8,1.2-1.7,1.6-2.7C40.2,33.1,39.9,32.3,39.2,31.9z M38.4,33.3c-0.3,0.8-0.7,1.5-1.2,2.1l0,0l-2-1.2
		l-0.4,0.4c-0.6,0.5-1.2,0.9-2,1.1L32.2,36v2.3l-0.1,0c-0.4,0.1-0.8,0.1-1.2,0.1c-0.4,0-0.8,0-1.2-0.1l-0.1,0V36l-0.5-0.2
		c-0.7-0.2-1.4-0.6-2-1.1l-0.4-0.4l-2,1.2l0,0c-0.5-0.6-0.9-1.3-1.2-2.1l0-0.1l2-1.2l-0.1-0.6c-0.1-0.4-0.1-0.8-0.1-1.1
		c0-0.4,0-0.8,0.1-1.1l0.1-0.6l-2-1.2l0-0.1c0.2-0.6,0.6-1.3,1.2-2.1l0,0l2,1.2l0.4-0.4c0.6-0.5,1.3-0.9,2-1.1l0.5-0.2v-2.3l0.1,0
		c0.3-0.1,0.7-0.1,1.1-0.1c0.4,0,0.9,0,1.3,0.1l0.1,0v2.3l0.5,0.2c0.7,0.2,1.4,0.6,2,1.1l0.4,0.4l2-1.2l0,0c0.4,0.5,0.8,1.2,1.2,2.1
		l0,0.1l-2,1.2l0.1,0.6c0.1,0.4,0.1,0.8,0.1,1.2c0,0.4,0,0.8-0.1,1.2l-0.1,0.6L38.4,33.3L38.4,33.3z"/>
	<path class="st0" d="M30.9,26.6c-2.1,0-3.8,1.7-3.8,3.8c0,2.1,1.7,3.8,3.8,3.8c2.1,0,3.8-1.7,3.8-3.8C34.7,28.3,33,26.6,30.9,26.6z
		 M30.9,32.6c-1.2,0-2.2-1-2.2-2.2c0-1.2,1-2.2,2.2-2.2c1.2,0,2.2,1,2.2,2.2C33.1,31.6,32.1,32.6,30.9,32.6z"/>
</g>
</svg>
