<?xml version="1.0" encoding="utf-8"?>
<!-- Generator: Adobe Illustrator 23.0.1, SVG Export Plug-In . SVG Version: 6.00 Build 0)  -->
<svg version="1.1" id="Layer_1" xmlns="http://www.w3.org/2000/svg" xmlns:xlink="http://www.w3.org/1999/xlink" x="0px" y="0px"
	 viewBox="0 0 40 40" style="enable-background:new 0 0 40 40;" xml:space="preserve">
<style type="text/css">
	.st0{fill:#3A3A3A;}
</style>
<g>
	<path class="st0" d="M38.6,22.3L36,19.8V0.8C36,0.4,35.7,0,35.2,0H11.4c-0.5,0-0.8,0.4-0.8,0.8v15H0.8c-0.5,0-0.8,0.4-0.8,0.8V26
		c0,3.4,2.7,6.1,6.1,6.1H27c-0.2,1.8,0.2,3.5,1.2,5l0.2,0.4V40h1.7v-3.1l-0.5-0.8c-0.8-1.2-1.1-2.7-0.9-4.1h3.2
		c0.1,1,0.5,1.9,1.1,2.6l0.3,0.4c0.2,0.2,0.4,0.3,0.6,0.3c0.2,0,0.4-0.1,0.5-0.2c0.4-0.3,0.4-0.8,0.1-1.2l-0.3-0.4
		c-1.1-1.3-1-3.3,0.2-4.5c0.3-0.3,0.3-0.8,0-1.2l-3.3-3.3c-0.2-0.2-0.2-0.5-0.1-0.7c0.1-0.1,0.2-0.2,0.4-0.2c0.1,0,0.3,0.1,0.3,0.1
		l4.1,4.1c0.2,0.2,0.4,0.2,0.6,0.2c0.2,0,0.4-0.1,0.6-0.2c0.3-0.3,0.3-0.8,0-1.2L36,25.8v-3.7l1.4,1.4c0.6,0.6,0.9,1.4,0.9,2.2V40
		H40V25.7C40,24.5,39.5,23.2,38.6,22.3z M30,25.9l2.8,2.8c-0.4,0.5-0.6,1.1-0.8,1.8H10.3c1.2-1.2,1.9-2.8,1.9-4.5V1.7h22.1v22.5
		L33,22.8c-0.4-0.4-0.9-0.6-1.5-0.6c-0.6,0-1.1,0.2-1.6,0.7C29.1,23.7,29.2,25.1,30,25.9z M1.7,17.5h8.9v8.4c0,2.5-2,4.5-4.5,4.5
		c-2.5,0-4.5-2-4.5-4.5V17.5z"/>
	<path class="st0" d="M31.2,10.9c0.5,0,0.8-0.4,0.8-0.8V4.8c0-0.5-0.4-0.8-0.8-0.8H15.4c-0.5,0-0.8,0.4-0.8,0.8v5.3
		c0,0.5,0.4,0.8,0.8,0.8H31.2z M30.4,5.6v3.6H16.2V5.6H30.4z"/>
	<rect x="15.2" y="13.2" class="st0" width="9.6" height="1.7"/>
	<rect x="29.1" y="13.2" class="st0" width="3" height="1.7"/>
	<rect x="15.2" y="16.3" class="st0" width="9.6" height="1.7"/>
	<rect x="29.1" y="15.9" class="st0" width="3" height="1.7"/>
	<rect x="29.1" y="18.5" class="st0" width="3" height="1.7"/>
	<rect x="15.2" y="19.3" class="st0" width="8.3" height="1.7"/>
	<rect x="15.2" y="22.4" class="st0" width="9.6" height="1.7"/>
	<rect x="15.2" y="25.5" class="st0" width="12.9" height="1.7"/>
</g>
</svg>
