<?xml version="1.0" encoding="utf-8"?>
<!-- Generator: Adobe Illustrator 18.0.0, SVG Export Plug-In . SVG Version: 6.00 Build 0)  -->
<!DOCTYPE svg PUBLIC "-//W3C//DTD SVG 1.1//EN" "http://www.w3.org/Graphics/SVG/1.1/DTD/svg11.dtd">
<svg height="30px" width="30px" version="1.1" id="Layer_1" xmlns="http://www.w3.org/2000/svg" xmlns:xlink="http://www.w3.org/1999/xlink" x="0px" y="0px"
	 viewBox="-54 -54 620 620" enable-background="new -54 -54 620 620" xml:space="preserve">
<g>
	<path fill="#0CA3D1" d="M256.3,349.6c51.5,0,93.4-41.9,93.4-93.4c0-52-41.9-93.9-93.4-93.9c-52,0-93.9,41.9-93.9,93.9
		C162.4,307.7,204.3,349.6,256.3,349.6L256.3,349.6z"/>
	<path fill="#E1584B" d="M128.9,223.4c14.9-56.8,65.8-98.7,127.3-98.7h269C477,25.5,374.6-43.5,256.3-43.5
		c-89.1,0-168.7,38.7-223.4,99.7L128.9,223.4z"/>
	<path fill="#36B39B" d="M141.1,319.4L8,88.1c-32.4,48.3-51.5,105.6-51.5,168.2c0,144.3,102.4,264.7,238.2,292.8l96.6-166.6
		c-11.1,3.2-23.3,4.8-35,4.8c-48.8,0-91.3-26.5-113.5-65.8C142.2,321,141.7,320.5,141.1,319.4L141.1,319.4z"/>
	<path fill="#F3AB4B" d="M368.7,322.6L235,555c6.9,0.5,13.8,0.5,21.2,0.5c165,0,299.2-134.2,299.2-299.2c0-32.9-5.3-64.2-14.9-93.9
		H348c23.9,23.9,39.3,56.8,39.3,93.9C387.3,280.1,380.4,303.5,368.7,322.6L368.7,322.6z"/>
</g>
</svg>
