<?xml version="1.0" encoding="utf-8"?>
<!-- Generator: Adobe Illustrator 18.0.0, SVG Export Plug-In . SVG Version: 6.00 Build 0)  -->
<!DOCTYPE svg PUBLIC "-//W3C//DTD SVG 1.1//EN" "http://www.w3.org/Graphics/SVG/1.1/DTD/svg11.dtd">
<svg height="30px" width="30px" version="1.1" id="Capa_1" xmlns="http://www.w3.org/2000/svg" xmlns:xlink="http://www.w3.org/1999/xlink" x="0px" y="0px"
	 viewBox="0 86 612 620" enable-background="new 0 86 612 620" xml:space="preserve">
<g>
	<path fill="#188FD1" d="M235.8,244.4c-21.6,27.4-34.2,58.2-38.7,92.9c70.9,0,141.4,0,212.2,0c0-8.5,0.9-17.1-0.3-25.4
		c-1.6-11-3.6-22.1-7.4-32.5c-13.6-38.4-41.7-59.7-81.4-66.3c-58-9.4-111.6,5.2-163.1,30.2c-52.4,25.4-94.9,62.4-128.3,110
		c-1.7,2.5-3.5,4.7-5.2,7c-0.6-0.1-1.2-0.4-1.8-0.5c2.2-11.9,3.9-23.9,6.6-35.7c15.1-67.4,47.9-124.4,101.9-168.4
		c39.6-32.2,85.3-50,135.7-57c70.7-9.7,135.9,4.7,195.1,44.5c58.8,39.5,93.2,95.7,108.3,163.7c4.8,21.7,5.8,44.5,7.2,67.1
		c1.3,20.5,0.8,40.9,1,61.4c0,3,0,6,0,9.6c-126.2,0-251.8,0-377.7,0c-0.9,16.4,1.8,31.6,7.8,46c15.9,37.9,45.6,61,84.3,71.1
		c68.7,18.1,135.8,10.7,200.5-18.5c9.1-4.1,17.9-9.1,26.7-13.6c1.9-1,4-2.1,7.4-3.8c0,4,0,6.6,0,9.3c0,36.2-0.1,72.6,0.1,108.9
		c0,6.7-2.2,10.6-8.3,13.5c-43.1,20.7-88.5,33.1-136.2,37.1c-42.1,3.6-83.7,3.2-124.1-10.1C174.7,657.5,118.4,603.1,98,516.5
		c-26.7-112.4,24.1-222.3,134.7-270.8C233.8,245.2,234.8,244.8,235.8,244.4z"/>
</g>
</svg>
