<?xml version="1.0" encoding="utf-8"?>
<!-- Generator: Adobe Illustrator 18.0.0, SVG Export Plug-In . SVG Version: 6.00 Build 0)  -->
<!DOCTYPE svg PUBLIC "-//W3C//DTD SVG 1.1//EN" "http://www.w3.org/Graphics/SVG/1.1/DTD/svg11.dtd">
<svg height="30px" width="30px" version="1.1" id="Layer_1" xmlns="http://www.w3.org/2000/svg" xmlns:xlink="http://www.w3.org/1999/xlink" x="0px" y="0px"
	 viewBox="0 0 512 512" enable-background="new 0 0 512 512" xml:space="preserve">
<g>
	<path fill="#0CA3D1" d="M256.2,508C394.6,508,508,394.6,508,256.2C508,117.4,394.6,4,256.2,4C117.4,4,4,117.4,4,256.2
		C4,394.6,117.4,508,256.2,508L256.2,508z"/>
	<path fill="#E17842" d="M235.7,298.2c-33.9,19.2-80.8-20.1-80.8-34.4c0.4-11.6,4.9-18.7,13.8-20.1c8.5,0,24.6,2.2,37.5,6.2
		c2.2-13.4-0.4-29.5-9.4-40.6c0-2.7,29-22.8,33.5-25.4c4.5-2.2,6.3-5.8,7.1-10.3c3.6-3.6,4.5-10.3-0.9-10.3
		c-2.7,0.4-21-0.4-27.2-1.3c-8.5-2.7-27.2-21.4-32.6-29c4.9-26.3,14.7-39.3,37.5-54.5c-24.6,2.2-56.3,12-76.3,31.3
		c-13.8-4.9-40.2,1.3-51.3,6.2c-17.9-8-23.7-37.9-26.3-55.8c-18.8,17-31.7,40.2-31.3,86.6c-16.1,33-25,70.1-25,109.4
		C4,395.1,116.9,508,256.2,508C395.1,508,508,395.1,508,256.2c0-60.3-21-115.6-56.3-158.9c9.8,17.4,15.6,34.4,15.6,45.1
		c-20.1-64.3-105.8-91.1-154-88.4c19.6,3.6,48.7,11.2,57.6,30.8c-11.1-3.1-26.3-1.3-33.9,3.1c58.9,17.4,104.9,60.3,100.9,98.2
		c-4.9-8-12.9-14.3-21.9-15.6c10.7,41.5,12.1,75.4,3.1,102.7c-4.9-17.9-12-29.5-17-32.6c8,52.7-1.3,97.3-26.3,124.5
		c4.5-16.1,5.8-29.9,4.5-40.6c-29.5,44.2-61.6,67-99.5,68.3c-37.5-0.4-67.9-13.4-94.6-40.2c23.7,2.2,48.7,1.8,67-11.1l30.8-21.9
		c2.7-1.3,9.8-1.3,12.5,0c8-0.9,9.8-6.7,6.2-12c-3.6-5.4-8-9.8-15.6-13.8C270.9,285.2,253.5,287,235.7,298.2L235.7,298.2z"/>
</g>
</svg>
