<?xml version="1.0" encoding="utf-8"?>
<!-- Generator: Adobe Illustrator 18.0.0, SVG Export Plug-In . SVG Version: 6.00 Build 0)  -->
<!DOCTYPE svg PUBLIC "-//W3C//DTD SVG 1.1//EN" "http://www.w3.org/Graphics/SVG/1.1/DTD/svg11.dtd">
<svg height="30px" width="30px" version="1.1" id="Layer_1" xmlns="http://www.w3.org/2000/svg" xmlns:xlink="http://www.w3.org/1999/xlink" x="0px" y="0px"
	 viewBox="0 90 612 612" enable-background="new 0 90 612 612" xml:space="preserve">
<g>
	<g>
		<path fill="#4F9EFF" d="M600.8,391.9l0-2.2c-0.4-26.7-4.4-53.2-11.9-78.5c-2.6-9.1-5.8-18.2-9.4-27.1c-7.2-17.8-16.1-34.9-26.5-51
			c-4.7-7.2-9.7-14.3-15.1-21.1c-14.6-18.6-31.4-35.5-49.9-50.2c-6.8-5.3-13.2-10-19.7-14.3C419.6,115.1,363,97.9,304.5,97.9
			c-51.6,0-102.5,13.6-147.3,39.4c-7.2,4.1-14.2,8.5-20.8,13.1c-19.1,13.2-36.6,28.6-52,45.7c-6.1,6.7-11.8,13.7-17.1,20.7
			c-14.9,19.9-27.3,41.6-36.8,64.7c-3.6,8.8-6.9,17.9-9.7,27.2C13.2,333.8,9,360.1,8.3,386.9l-0.1,2.7c0,1.6-0.1,3.2-0.1,4.8
			c0,8.6,0.4,17.3,1.3,26.9c2.9,32.4,11.1,63.8,24.4,93.5c6.8,15.1,14.7,29.6,23.7,43.1c53.4,80.4,142.6,130,238.8,132.6l2.8,0.1
			l0,0.5l4.4-0.4l0.7,0c0,0,0,0,0,0c94.1,0,183.4-45.3,239.2-121.2c9.4-12.8,17.9-26.5,25.1-40.8c16.8-33,27.2-68.2,30.9-104.8
			c1-9.8,1.5-19.8,1.5-29.5C600.9,393.5,600.8,392.7,600.8,391.9z M577.4,446.5c-1.6,8.6-3.7,17-6.1,25.4l-19.5,10.7v12.9l7.3,9.9
			c-1.3,2.9-2.6,5.9-4,8.8l-11.4,0.3l-0.7-9.2l2.7,1.2l6.5-0.7l-0.7-8.5l-18.1,0.2l-5-6.7l0.3-3.5l-4.9-4.5c0.7-2.3,1.5-4.7,2.1-7
			l15.8,15.4l1.7-5.5l-12.4-17.9c16.1-8.3,29.7-16.3,41.4-24.4l6.2-4.3L577.4,446.5z M293,596.7l0.2,3.3l-3.4-0.1
			c-9.1-0.3-18.2-0.9-27.3-1.7l6.7-12.1l9.2-2.1v-11l6.1-7.4l6.5-9.1C291.7,569.8,292.3,583.3,293,596.7z M136.5,262.6l-2.2-1.6
			l1.3-2.4c11.3-20.5,24.9-41.1,40.4-61.1l1.8-2.3l2.4,1.8c9.1,6.7,19.4,12.8,30.6,18.1l2.6,1.2l-1,2.7c-0.7,1.8-1.2,3.5-1.8,5.2
			l-2,0l-19,9.9l-7.2,12.9l-12.5,5l-5.3,5.9l1.2,6.8l6.4,0.9l3.9,10l11.2-4.6l1.9,13.3h-3.4l-9.2-1.4l-4.4,0.7
			c-10.3-4.9-19.9-10.5-29-16.4l-0.6-2.9l-2.8,0.6C138.8,264.1,137.6,263.4,136.5,262.6z M351.8,401c-6.8-3.3-33.2-16-33.2-16.6
			c0-0.7,0.2-14.3,0.2-14.3h7.7l1.1,9.9l16.1,9.4l18.5,0.9l30,5C379,397.8,365.5,399.6,351.8,401z M147.3,465.9h11.6l6.3,6.4
			l14.1,1.5c0.4,2.6,0.7,5.2,1.1,7.8l0.7,4.6l-4.6-1.2c-14.8-3.9-29.2-8.5-43.1-13.6h8L147.3,465.9z M243.9,372.2l-13.2-10
			l-13.9,1.4v8.6h-4.4l-4.7-3.5l-12.7-3.3c0.6-6.1,1.4-12.3,2.3-18.5l2.6,0.6l6.9-2.9l-0.1-8.5l3.1-1.6l-2.5-2.7l-6.8-3.9
			c0.6-3.1,1.1-6.2,1.7-9.3l0.7-3.3l0.7,0.2l1.3,1.3l10.2,8.9l0.4,10.8L226,348l3.9-15.6l7.3-4.1l1.3,12.8l7.1,7.9l21.5-0.4l6.4,4.9
			V365l-7.8,7.2L243.9,372.2L243.9,372.2z M202.4,337.8l-2.6,3.5l-1.8-0.1c0.3-1.9,0.6-3.8,0.9-5.8L202.4,337.8z M433.4,481.2
			c1.1-6.9,2-13.8,2.8-20.7l1.5,0.3l6.6-9.8l3.6-27.8l6.8-15l11.1-4.2l19.5,1.9l24.4,22.1v30.5c-22.4,10.5-46.8,19.2-72.5,26
			l-4.6,1.2L433.4,481.2z M449.6,216.2l-15.3-9.3c1.9-1.1,3.9-2.1,5.8-3.3l2.4-1.5l1.7,2.3c2.9,3.9,5.7,7.9,8.5,11.8L449.6,216.2
			L449.6,216.2z M362.2,233l0,2.8l-9.1,2.8l-0.5-4C355.9,234.1,359.1,233.6,362.2,233z M285.3,403.1c-2.2-0.1-4.4-0.3-6.6-0.5
			l-8.6-16.4l2.2-2.6l15.9,19.6L285.3,403.1z M284.8,237.8l-0.8-2.3c1.5,0.2,3,0.4,4.6,0.6L284.8,237.8z M274.7,239.8l-9.1,7.2
			l-22.1-0.7l-1-4.9l23.1-1.1l4.8-4.1l-9.5-4.5c5.2,1.1,10.4,2,15.7,2.8L274.7,239.8z M230.7,223.4l0.1-0.2l0.6,0.2L230.7,223.4z
			 M119,293h3.9l11.2-8.1l0.2-2.2c1.8,1.2,3.6,2.4,5.4,3.5l-4,0.8l-0.9,9.6h7.9l10.5-1l0.9-1.1c1.3,0.7,2.7,1.3,4,2l-1.4,2
			l-14.1,2.3l-2,12.2l5.9,1.4l-1.7,7.9l-14-2.9l-12.8,2.9l-2.7,7.3l2.2,15.2l7.6,3.6l12.6-0.1l8.5-0.8l2.6-6.9l13.3-17.6l8.8,1.8
			l8.6-7.9l1.6,6.2l1.3,0.9c-1.4,7.7-2.9,15.3-3.9,22.9l-25.6,2l-9.5,5.2h-12.1l-6-0.6l-9.9,5.6c-4.3-2.3-8.6-4.6-12.8-7l-1.9-1.1
			l0.4-2.2C105,330.5,111.1,311.8,119,293z M125.9,277.5l0.1-0.2l0.2,0.1L125.9,277.5z M101.8,372.4c2.9,1.6,5.9,3,8.8,4.6v0.7
			l-14.3,10.5c0.2-4.2,0.5-8.5,1-13.4l0.5-4.6L101.8,372.4z M116,484.2c21.2,8.6,43.7,15.7,67,21.3l1.9,0.5l0.4,1.9
			c2.4,11.4,5.3,22.8,8.6,34.3l-4.7,9.1l0.7,9.2l7.9,8v20.2c-13.1-2.7-26-5.8-38.4-9.3l-1.1-0.3l-0.7-0.9
			c-20-29.8-35.4-60.1-45.8-90.1l-2.2-6.4L116,484.2z M307.7,498.3c0-2-0.1-4-0.1-6.1l7-6.8l28-40.7l-5.4-2.5l-29.1,6.2l-1.2-0.6
			c0-3.9,0-7.8-0.1-11.6l3.4,3.5l14.2-1l26.1-19.2c20.8-2,41.3-5.3,61.2-10v2.6l-1.2,12.7l9,15.1c-1.2,16-3.2,32.1-6.2,48.3l-0.3,2
			l-2,0.4c-32.4,6.7-66,10.2-100.1,10.5l-3,0L307.7,498.3z M428.6,507.2l0.4-1.9l1.9-0.5c23.8-5.8,46.9-13.3,68.7-22.3l6.3-2.6
			l-2.2,6.4c-10.7,31.6-27.1,63.5-48.6,95l-0.7,1l-1.1,0.3c-13.9,3.7-29,6.9-45,9.7l-5.3,0.9l1.9-5
			C415,561.1,422.9,533.8,428.6,507.2z M564.2,334.2h8.6l3.5,2.7c2.3,11.2,4,22.4,5,33.7L564,352.2l-0.3-17.5
			C563.8,334.5,564,334.4,564.2,334.2z M472.7,176.9l1.9-2.1l2.2,1.8c15.6,12.3,29.6,26.3,42.1,41.4l-9,9.3l-4.5-0.3l-14.2-10.7
			h-15.8c-5.1-7.7-10.4-15.3-16-22.8l-1.7-2.3l2.2-1.9C464.7,185.1,469,181,472.7,176.9z M426.8,144.9c11.1,5.5,21,11.1,30.3,17.2
			l3.1,2l-2.5,2.7c-2.3,2.5-5,4.8-7.6,7.1l-3.4,2.9l-2-2.5c-6.9-8.4-14.1-16.7-21.4-24.6l-11.2-12.1L426.8,144.9z M361.1,122.3
			c3,0.7,6,1.3,9,2l1.3,0.7c6.7,5.8,30.7,27.4,57.7,60.2l2.2,2.8l-3,1.8c-9.3,5.7-19.3,10.5-29.7,14.5l-2.8,1.1l-1.1-2.8
			c-13.6-32.8-27.6-59.3-36.9-75.7l-3.4-5.9L361.1,122.3z M312.1,215.8c1.8-42.4,3.6-75.6,4.8-96l0.2-3l3.1,0.2
			c3.1,0.2,6.3,0.4,9.4,0.7l1.5,0.1l0.8,1.3c7.4,12,26.4,44.6,44.8,88.5l1.4,3.3l-3.4,0.9c-9.5,2.4-19.2,4.2-29,5.4l-7.9-2l-0.7,2.8
			c-7.2,0.7-14.4,1.1-21.6,1.1h-3.2L312.1,215.8z M283,117.2l1.6-0.1c2.8-0.2,5.5-0.3,8.3-0.4l5.7-0.2l-0.2,3.4
			c-1.2,20.2-2.9,53-4.7,94.9l-0.1,3.2l-3.2-0.3c-16.8-1.7-33.4-5.2-49.4-10.5l-3.2-1l1.3-3.1c18-42.1,36.2-73.2,43.2-84.6
			L283,117.2z M241.7,123.9l4.7-1.3c2.3-0.5,4.6-0.9,6.9-1.4l6.5-1.3l-3.3,5.8c-8.7,15.3-21.8,39.9-34.9,70.5l-1.3,2.9l-2.9-1.4
			c-10.2-4.9-18.6-9.7-25.6-14.8l-2.7-1.9l2.2-2.5c24.1-28.4,44.9-47.3,51.7-53.2L241.7,123.9z M166.3,153.3c8-4.6,16.7-9,26.6-13.3
			l14-6.1l-10.5,11.1c-6.4,6.7-12.7,13.8-19,21.1l-2.2,2.6l-3.9-4.1c-2.1-2.2-4.2-4.4-5.9-6.7l-2.1-2.8L166.3,153.3z M92.3,215
			c15.6-18.4,33.5-34.7,53.2-48.5l2.4-1.7l1.8,2.4c3.4,4.5,7.4,9.1,11.9,13.7l1.9,1.9l-1.7,2.1c-15.5,19.8-29.1,40.2-40.6,60.7
			l-1.9,3.4l-2.9-2.6c-9.6-8.9-17.8-18.2-24.4-27.7l-1.3-1.9L92.3,215z M42.4,301.8c8.3-23.5,19.8-45.8,34.2-66.4l2.4-3.4l2.5,3.3
			c7.6,10,16.8,19.7,27.4,28.8l1.8,1.6l-1,2.1c-11,22.9-19.3,45.8-24.7,68.1l-1.1,4.5l-3.7-2.7c-14.2-10.2-26.7-21.2-37.3-32.8
			l-1.3-1.4L42.4,301.8z M27.1,411.6l-0.1-1.3c-0.3-5.3-0.5-10.6-0.5-16c0-22,2.7-44.2,7.9-65.8l1.3-5.2l3.9,3.7
			c11.5,11.1,24.7,21.7,39.4,31.5l1.6,1.1l-0.3,1.9c-1.6,11.5-2.5,22-2.6,32.4c-0.3,15.6,1,31.9,3.6,48.4l1,6.3l-5.5-3.1
			c-18-10.1-34.4-21.2-48.6-33L27.1,411.6z M71.1,544.3l-0.7-0.4l-0.4-0.7c-19.4-30.4-32.5-63.8-38.9-99.2l-1.3-7.4l6.1,4.4
			c15.2,10.8,32.1,20.8,50.3,29.9l1.3,0.6l0.4,1.3c8,30,20.9,60.2,38.1,90l4.3,7.4l-8.1-3C104.2,560.4,87,552.7,71.1,544.3z
			 M172.9,638.9c-26.1-14.1-49.5-32-69.8-53.4l-9.7-10.2l13.1,5.3c11.5,4.6,24.1,9.1,38.7,13.6l1,0.3l0.6,0.8
			c9.3,13.3,19.4,26.4,30,38.8l10.6,12.5L172.9,638.9z M237.7,664c-2.9-0.7-5.7-1.5-8.5-2.3l-1.2-0.7c-2.3-2.1-23-21-47.3-51.6
			l-5.4-6.9l8.5,1.9c7.8,1.8,16,3.4,24.4,4.9v13.8h15.3c5.6,12.6,11.5,24.9,17.7,36.3l3.3,6.1L237.7,664z M294.2,672
			c-8.1-0.3-16.3-1-24.5-2l-1.5-0.2l-0.8-1.3c-3.8-6.3-13.8-23.6-25.3-48.6l4.5-4.7c14.9,1.7,29.9,2.8,44.7,3.3l2.8,0.1l0.2,2.8
			c1.1,19.1,2.1,35.1,3,47.3l0.2,3.4L294.2,672z M311.5,597.5c0-0.8-0.1-1.6-0.1-2.3l3.6-5.9l13.8-20.5l6.6-32.2h-8.4l-8.1,16.6
			l-9.4-1.3c-0.4-9.7-0.8-19.5-1.1-29.1l-0.1-3.1l3.1,0c31-0.3,62.3-3.4,92.9-9.1l4.7-0.9l-1.1,4.6c-6.3,26.8-14.9,53.7-25.5,80.2
			l-0.7,1.7l-1.8,0.2c-22,2.6-43.9,4-65.3,4.1h-2.9L311.5,597.5z M346.1,668.8l-1.4,0.2c-8.3,1.2-16.9,2.1-25.6,2.5l-3,0.2l-0.2-3
			c-0.8-11.8-1.9-27.7-3-46.5l-0.2-3.3l3.2,0c17.2-0.1,34.8-1,52.2-2.7l5.3-0.5l-2.2,4.9c-10.6,23.2-19.8,39.4-24.4,47L346.1,668.8z
			 M390.1,658.2l-1.2,0.7c-3.6,1.2-7.3,2.2-11,3.2l-7.7,2.1l3.4-6.3c7.3-13.7,14.3-28.3,20.8-43.4l0.7-1.6l1.7-0.3
			c12.6-1.8,23-3.6,32.6-5.7l8.4-1.7l-5.4,6.7C413.1,635.9,396.4,652.3,390.1,658.2z M497.2,594.4c-14.3,13.8-30.8,26.4-49.1,37.5
			l-15.4,9.3l11.4-13.9c7.6-9.2,15-18.9,21.9-28.6l0.6-0.9l1.1-0.3c10-2.9,18.7-5.6,26.4-8.3l13.2-4.5L497.2,594.4z M531.7,554.2
			l-0.5,0.7l-0.7,0.3c-11.9,5.4-25,10.7-40.1,15.9l-7.9,2.8l4.3-7.2c13.9-23.5,25.1-47.2,33.3-70.9l13.1,16.3l4.8,1.6v2.3h-6.3
			l1.6,5.1l18.2,0.8C545.5,532.9,539,543.7,531.7,554.2z M581.7,412.9l-0.1,1.3l-1.1,0.8c-9.3,7.5-19.6,14.5-30.4,21.3v-0.1
			l-14.4-11.8c0.7-6.8,1.1-13.6,1.2-20.2l0.5-0.7l8.5,2.8l-0.7,5.9l4.9,7.6l4.3-3.1l-2.4-9l23.8-8.7l6.5-5.6c0,0.3,0,0.6,0,0.8
			C582.4,399.9,582.2,405.8,581.7,412.9z"/>
		<polygon fill="#4F9EFF" points="452.8,465.9 453.9,455.1 445.6,453.5 439.7,462 442.5,469.8 		"/>
	</g>
</g>
</svg>
