<?xml version="1.0" encoding="utf-8"?>
<!-- Generator: Adobe Illustrator 18.0.0, SVG Export Plug-In . SVG Version: 6.00 Build 0)  -->
<!DOCTYPE svg PUBLIC "-//W3C//DTD SVG 1.1//EN" "http://www.w3.org/Graphics/SVG/1.1/DTD/svg11.dtd">
<svg height="30px" width="30px" version="1.1" id="Layer_1" xmlns="http://www.w3.org/2000/svg" xmlns:xlink="http://www.w3.org/1999/xlink" x="0px" y="0px"
	 viewBox="-4 86 620 620" enable-background="new -4 86 620 620" xml:space="preserve">
<path fill="#26A6D1" d="M457.9,452.3h151.8c1.4-10.9,2.7-22,2.2-33.2c-6.1-116.4-78.3-218.6-182.2-253.5l8,1.6
	c0,0,189.5-82.4,125.5,102.9l7.8,12.8c0,0,58.3-142.5-31.9-166.1c-73.9-19.2-183,34.3-183,34.3l4.1,0.8c-6.8-0.5-13.6-0.8-20.6-0.8
	C204.5,151,92.4,242.5,71,367.5c15.3-17.1,70.2-80.4,131.8-120c0,0-105.2,90-135.7,163.9c0,0-39,66.2-51.8,115.7
	c-7.8,30-27.6,137.6,51.8,150c82.7,12.9,148-29.3,148-29.3l-1.6-0.8c37.7,19.2,80.6,30.2,126,30.2c120.5,0,222.6-80.4,258.5-186.2
	H442.2c-21.3,41.8-58.8,65.1-103.3,65.1c-59,0-102.3-34.8-113.6-103.8H457.9z M196.7,637.7c0,0-45.8,22.4-84.4,23.3
	c-118-1.1-29.5-160.8-29.5-160.8v-0.1c20.9,57.6,61.7,106.1,114.3,137.8L196.7,637.7z M339.6,274.3c68.4,0,100.3,46.3,108.1,103
	h-221C238.6,321.1,277.6,274.3,339.6,274.3z"/>
</svg>
