<?xml version="1.0" encoding="utf-8"?>
<!-- Generator: Adobe Illustrator 18.0.0, SVG Export Plug-In . SVG Version: 6.00 Build 0)  -->
<!DOCTYPE svg PUBLIC "-//W3C//DTD SVG 1.1//EN" "http://www.w3.org/Graphics/SVG/1.1/DTD/svg11.dtd">
<svg height="30px" width="30px" version="1.1" id="Capa_1" xmlns="http://www.w3.org/2000/svg" xmlns:xlink="http://www.w3.org/1999/xlink" x="0px" y="0px"
	 viewBox="0 0 512 512" enable-background="new 0 0 512 512" xml:space="preserve">
<g>
	<path fill="#414141" d="M408.5,0H103.4C84.2,0,68.7,15.6,68.7,34.8v442.5c0,19.2,15.5,34.8,34.7,34.8h305.1
		c19.2,0,34.7-15.6,34.7-34.8V34.8C443.3,15.6,427.7,0,408.5,0z M256,499c-11.4,0-20.6-9.2-20.6-20.6c0-11.4,9.2-20.7,20.6-20.7
		c11.4,0,20.6,9.2,20.6,20.7C276.6,489.7,267.4,499,256,499z M408.1,439.6H103.9V41.8h304.3V439.6z"/>
</g>
<g>
	<g>
		<path fill="#4F9EFF" d="M368.3,237.9V237c-0.1-10.5-1.6-20.9-4.4-31c-1-3.5-2.2-7.2-3.6-10.6c-2.7-7.1-6.1-13.7-10.1-20.2
			c-1.8-2.8-3.7-5.7-5.8-8.3c-5.5-7.4-11.9-14-19-19.9c-2.5-2.2-5-4-7.4-5.7c-18.5-12.8-40-19.6-62.1-19.6
			c-19.6,0-38.8,5.4-55.8,15.6c-2.7,1.7-5.3,3.4-7.9,5.2c-7.3,5.2-13.9,11.2-19.7,18c-2.4,2.6-4.4,5.4-6.5,8.2
			c-5.6,7.9-10.4,16.5-13.9,25.6c-1.3,3.4-2.7,7.1-3.7,10.8c-2.8,9.9-4.4,20.3-4.7,30.8v1.1c0,0.6,0,1.2,0,1.8
			c0,3.4,0.1,6.8,0.4,10.6c1,12.8,4.1,25.1,9.2,36.8c2.5,6,5.6,11.7,9,16.9c20.3,31.7,54.1,51.3,90.5,52.2h1v0.2l1.6-0.2h0.3l0,0
			c35.7,0,69.5-17.9,90.7-47.7c3.6-5.1,6.8-10.5,9.5-16c6.4-12.9,10.4-27,11.7-41.3c0.4-3.9,0.6-7.9,0.6-11.7
			C368.3,238.7,368.3,238.3,368.3,237.9z M359.4,259.5c-0.6,3.4-1.5,6.8-2.4,10l-7.4,4.3v5.1l2.8,3.9c-0.4,1.2-1,2.3-1.5,3.5
			l-4.3,0.2l-0.3-3.7l1,0.5l2.5-0.3l-0.3-3.4l-6.8,0.2l-1.9-2.6l0.1-1.4l-1.8-1.7c0.3-0.9,0.6-1.8,0.7-2.8l5.9,6l0.6-2.2l-4.7-7.1
			c6.1-3.2,11.3-6.5,15.7-9.5l2.4-1.7L359.4,259.5z M251.6,318.8v1.4h-1.3c-3.4-0.2-7-0.3-10.4-0.6l2.5-4.8l3.6-0.8v-4.3l2.4-2.9
			l2.5-3.5C251.2,308.2,251.3,313.4,251.6,318.8z M192.2,187l-0.9-0.6l0.4-0.9c4.3-8,9.5-16.2,15.3-24.2l0.7-0.9l0.9,0.8
			c3.4,2.6,7.4,5.1,11.6,7.1l1,0.5l-0.4,1.1c-0.3,0.6-0.4,1.4-0.7,2h-0.7l-7.3,3.9l-2.7,5.1l-4.7,2l-2.1,2.3l0.4,2.6l2.5,0.3l1.5,4
			l4.3-1.8l0.7,5.2h-1.3l-3.6-0.5l-1.6,0.3c-3.9-2-7.6-4.2-11-6.5l-0.1-1.1l-1,0.2C193.1,187.6,192.7,187.3,192.2,187z M274,241.6
			c-2.5-1.2-12.6-6.3-12.6-6.6c0-0.3,0.1-5.7,0.1-5.7h3l0.4,3.9l6.1,3.7l7,0.3l11.4,2C284.2,240.3,279.2,241,274,241.6z
			 M196.4,267.2h4.4l2.4,2.6l5.3,0.6c0.1,1.1,0.3,2,0.4,3.1l0.3,1.8l-1.8-0.5c-5.6-1.5-11.1-3.4-16.3-5.4h3L196.4,267.2z
			 M232.9,230.2l-5-4l-5.3,0.6v3.4h-1.6l-1.8-1.4l-4.9-1.2c0.3-2.5,0.6-4.8,0.9-7.2l1,0.3l2.7-1.2v-3.4l1.2-0.6l-1-1.1l-2.5-1.5
			c0.1-1.2,0.4-2.5,0.6-3.7l0.3-1.4l0.3,0.2l0.4,0.5l3.9,3.5l0.1,4.3l4,4.5l1.5-6.2l2.8-1.5l0.4,5.1l2.7,3.1l8.1-0.2l2.4,1.8v4.5
			l-3,2.9L232.9,230.2L232.9,230.2z M217.2,216.7l-1,1.4h-0.6c0.1-0.8,0.1-1.5,0.3-2.3L217.2,216.7z M304.8,273.2
			c0.4-2.8,0.7-5.4,1-8.2l0.6,0.2l2.5-3.9l1.3-10.9l2.5-5.9l4.1-1.7l7.4,0.8l9.2,8.6v12c-8.4,4.2-17.8,7.5-27.4,10.3l-1.8,0.5
			L304.8,273.2z M311,168.8l-5.8-3.7c0.7-0.5,1.5-0.8,2.2-1.2l0.9-0.6l0.6,0.9c1,1.5,2.2,3.1,3.3,4.6L311,168.8L311,168.8z
			 M277.8,175.4v1.1l-3.4,1.1l-0.1-1.5C275.5,175.7,276.6,175.6,277.8,175.4z M248.6,242.4c-0.9,0-1.6-0.2-2.5-0.2l-3.3-6.5l0.9-1.1
			l6.1,7.7L248.6,242.4z M248.5,177.3l-0.3-0.9c0.6,0.2,1.2,0.2,1.8,0.2L248.5,177.3z M244.6,178l-3.4,2.8l-8.4-0.3l-0.4-2l8.7-0.5
			l1.8-1.7l-3.6-1.7c1.9,0.5,4,0.8,5.9,1.1L244.6,178z M228.1,171.6L228.1,171.6h0.3H228.1z M185.7,199h1.5l4.3-3.2l0.1-0.9
			c0.7,0.5,1.3,0.9,2.1,1.4l-1.5,0.3l-0.3,3.7h3l4-0.5l0.3-0.5c0.4,0.3,1,0.5,1.5,0.8l-0.6,0.8l-5.3,0.9l-0.7,4.8l2.2,0.6l-0.6,3.1
			l-5.3-1.1l-4.9,1.1l-1,2.9l0.9,6l2.8,1.4h4.7l3.3-0.3l1-2.8l5-6.9l3.3,0.8l3.3-3.1l0.6,2.5l0.4,0.3c-0.6,3.1-1,6-1.5,9.1l-9.6,0.8
			l-3.6,2h-4.6l-2.2-0.3l-3.7,2.2c-1.6-0.9-3.3-1.8-4.9-2.8l-0.7-0.5l0.1-0.9C180.4,213.8,182.6,206.4,185.7,199z M188.2,192.8
			L188.2,192.8L188.2,192.8L188.2,192.8z M179.2,230.2c1,0.6,2.2,1.2,3.4,1.8v0.3l-5.5,4.2c0.1-1.7,0.1-3.4,0.4-5.2l0.1-1.8
			L179.2,230.2z M184.5,274.5c8,3.4,16.6,6.2,25.3,8.3l0.7,0.2l0.1,0.8c0.9,4.5,2.1,8.9,3.3,13.6l-1.8,3.5l0.3,3.7l3,3.2v8
			c-4.9-1.1-9.9-2.3-14.5-3.7l-0.4-0.2l-0.3-0.3c-7.6-11.7-13.5-23.7-17.3-35.6l-0.9-2.5L184.5,274.5z M257.2,280c0-0.8,0-1.5,0-2.5
			l2.7-2.6l10.7-16l-2.1-1.1l-11,2.5l-0.4-0.3c0-1.5,0-3.1,0-4.6l1.3,1.4l5.3-0.3l9.9-7.5c7.9-0.8,15.7-2,23.3-4v1.1l-0.4,4.9l3.4,6
			c-0.4,6.3-1.2,12.6-2.4,19.1l-0.1,0.8l-0.7,0.2c-12.3,2.6-25,4-37.9,4.2h-1.2L257.2,280z M303,283.4l0.1-0.8l0.7-0.2
			c9-2.3,17.8-5.2,26.1-8.8l2.4-1.1l-0.9,2.5c-4,12.5-10.2,25.1-18.4,37.4l-0.3,0.3l-0.4,0.2c-5.3,1.4-11,2.8-17,3.9l-1.9,0.3l0.7-2
			C297.8,304.6,300.9,294,303,283.4z M354.4,215.3h3.3l1.3,1.1c0.9,4.5,1.5,8.8,1.9,13.2l-6.5-7.2l-0.1-6.9
			C354.3,215.3,354.4,215.3,354.4,215.3z M319.7,153.2l0.7-0.8l0.9,0.8c5.9,4.9,11.3,10.3,16,16.3l-3.4,3.7l-1.8-0.2l-5.3-4.2h-5.9
			c-1.9-3.1-4-6-6.1-8.9l-0.6-0.9l0.9-0.8C316.8,156.5,318.4,154.8,319.7,153.2z M302.3,140.6c4.1,2.2,8,4.3,11.4,6.8l1.2,0.8
			l-0.9,1.1c-0.9,0.9-1.9,1.8-3,2.8l-1.3,1.2l-0.7-0.9c-2.7-3.4-5.3-6.6-8.1-9.7l-4.3-4.8L302.3,140.6z M277.5,131.7
			c1.2,0.3,2.2,0.5,3.4,0.8l0.4,0.3c2.5,2.3,11.7,10.8,21.9,23.7l0.9,1.1l-1.2,0.8c-3.6,2.2-7.3,4.2-11.3,5.7l-1,0.5l-0.4-1.1
			c-5.2-12.9-10.5-23.4-13.9-29.9l-1.3-2.3L277.5,131.7z M258.9,168.6c0.7-16.6,1.3-29.7,1.8-37.9v-1.2h1.2c1.2,0.2,2.4,0.2,3.6,0.3
			h0.6l0.3,0.5c2.8,4.8,9.9,17.6,17,34.8l0.4,1.2l-1.3,0.3c-3.6,0.9-7.3,1.7-11,2.2l-3-0.8l-0.3,1.1c-2.7,0.3-5.5,0.5-8.1,0.5h-1.2
			V168.6z M247.9,129.7h0.6c1-0.2,2.1-0.2,3.1-0.2h2.2l-0.1,1.4c-0.4,8-1,20.9-1.8,37.4v1.2l-1.2-0.2c-6.4-0.6-12.7-2-18.8-4.2
			l-1.2-0.5l0.4-1.2c6.8-16.6,13.8-28.8,16.4-33.4L247.9,129.7z M232.2,132.3l1.8-0.5c0.9-0.2,1.8-0.3,2.7-0.5l2.5-0.5l-1.2,2.3
			c-3.3,6-8.3,15.7-13.2,27.9l-0.4,1.1l-1-0.5c-3.9-2-7.1-3.9-9.8-5.9l-1-0.8l0.9-1.1c9.2-11.2,17-18.6,19.6-20.9L232.2,132.3z
			 M203.6,144c3.1-1.8,6.4-3.5,10.1-5.2l5.3-2.5l-4,4.3c-2.4,2.6-4.9,5.4-7.3,8.3l-0.9,1.1l-1.5-1.7c-0.7-0.9-1.6-1.7-2.2-2.6
			l-0.7-1.1L203.6,144z M175.5,168.3c5.9-7.2,12.7-13.7,20.1-19.1l0.9-0.6l0.7,0.9c1.3,1.8,2.8,3.5,4.4,5.4l0.7,0.8l-0.6,0.8
			c-5.9,7.9-11.1,15.9-15.4,23.9l-0.7,1.4l-1-1.1c-3.7-3.5-6.8-7.2-9.2-10.9L175,169L175.5,168.3z M156.7,202.5
			c3.1-9.2,7.6-18,13-26.2l0.9-1.4l1,1.4c2.8,4,6.4,7.7,10.4,11.4l0.7,0.6l-0.4,0.8c-4.1,9.1-7.3,18-9.3,26.8l-0.4,1.7l-1.5-1.1
			c-5.3-4-10.1-8.3-14.1-12.9l-0.4-0.5L156.7,202.5z M150.7,245.8v-0.5c-0.1-2.2-0.1-4.2-0.1-6.3c0-8.6,1-17.4,3-26l0.4-2l1.5,1.5
			c4.3,4.3,9.3,8.6,15,12.5l0.6,0.5l-0.1,0.8c-0.6,4.5-0.9,8.6-1,12.8c-0.1,6.2,0.3,12.6,1.3,19.1l0.4,2.5l-2.1-1.2
			c-6.8-4-13-8.3-18.4-12.9L150.7,245.8z M167.5,298l-0.3-0.2l-0.1-0.3c-7.4-12-12.3-25.1-14.8-39.1l-0.4-2.9l2.4,1.7
			c5.8,4.3,12.1,8.2,19.1,11.7l0.4,0.3l0.1,0.5c3.1,11.9,7.9,23.7,14.5,35.4l1.6,2.9l-3.1-1.2C180.1,304.5,173.5,301.4,167.5,298z
			 M206.1,335.4c-9.9-5.5-18.8-12.6-26.5-21.1l-3.7-4l5,2.2c4.3,1.8,9.2,3.5,14.7,5.4l0.4,0.2l0.3,0.3c3.6,5.2,7.4,10.5,11.4,15.2
			l4,4.9L206.1,335.4z M230.6,345.3c-1-0.3-2.2-0.6-3.3-0.9l-0.4-0.3c-0.9-0.8-8.7-8.3-17.9-20.3l-2.1-2.8l3.3,0.8
			c3,0.8,6.1,1.4,9.3,2v5.4h5.8c2.1,4.9,4.3,9.9,6.7,14.3l1.2,2.5L230.6,345.3z M252.1,348.4c-3.1-0.2-6.2-0.3-9.3-0.8h-0.6
			l-0.3-0.5c-1.5-2.5-5.2-9.2-9.6-19.1l1.8-1.8c5.6,0.6,11.3,1.1,16.9,1.2h1v1.1c0.4,7.5,0.7,13.9,1.2,18.6l0.1,1.4L252.1,348.4z
			 M258.6,319.1c0-0.3,0-0.6,0-0.9l1.3-2.3l5.2-8.2l2.5-12.6h-3.3l-3.1,6.5l-3.6-0.5c-0.1-3.9-0.3-7.7-0.4-11.4v-1.2h1.2
			c11.7-0.2,23.6-1.4,35.3-3.5l1.8-0.3l-0.4,1.8c-2.4,10.5-5.6,21.3-9.6,31.6l-0.3,0.6l-0.7,0.2c-8.3,1.1-16.6,1.5-24.7,1.7h-1
			L258.6,319.1z M271.8,347.1l-0.6,0.2c-3.1,0.5-6.4,0.8-9.6,0.9h-1.2l-0.1-1.2c-0.3-4.6-0.7-10.9-1.2-18.3l-0.1-1.2h1.2
			c6.5,0,13.2-0.5,19.8-1.1l2.1-0.2l-0.9,1.8c-4,9.1-7.6,15.6-9.2,18.5L271.8,347.1z M288.5,343l-0.4,0.3c-1.3,0.5-2.8,0.9-4.1,1.2
			l-3,0.8l1.3-2.5c2.8-5.4,5.5-11.1,7.9-17.1l0.3-0.6l0.6-0.2c4.7-0.8,8.7-1.4,12.3-2.2l3.1-0.6l-2.1,2.6
			C297.1,334.2,290.9,340.7,288.5,343z M329.1,317.9c-5.5,5.4-11.7,10.3-18.7,14.8l-5.8,3.7l4.3-5.5c2.8-3.7,5.6-7.4,8.3-11.2
			l0.3-0.3l0.4-0.2c3.9-1.1,7.1-2.2,10.1-3.2l5-1.8L329.1,317.9z M342.1,302l-0.1,0.2l-0.3,0.2c-4.4,2.2-9.5,4.2-15.3,6.3l-3,1.1
			l1.6-2.9c5.3-9.2,9.5-18.6,12.6-28l4.9,6.5l1.8,0.6v0.9H342l0.6,2l7,0.3C347.3,293.5,344.9,297.9,342.1,302z M361.1,246.3v0.5
			l-0.4,0.3c-3.6,2.9-7.4,5.7-11.6,8.3l0,0l-5.5-4.6c0.3-2.6,0.4-5.4,0.4-8l0.1-0.3l3.3,1.1l-0.3,2.3l1.8,2.9l1.6-1.2l-0.9-3.5
			l9-3.4l2.5-2.2c0,0.2,0,0.2,0,0.3C361.4,241.2,361.2,243.5,361.1,246.3z"/>
		<polygon fill="#4F9EFF" points="312.2,267.2 312.6,262.9 309.5,262.3 307.2,265.7 308.3,268.8 		"/>
	</g>
</g>
</svg>
