<?xml version="1.0" encoding="utf-8"?>
<!-- Generator: Adobe Illustrator 18.0.0, SVG Export Plug-In . SVG Version: 6.00 Build 0)  -->
<!DOCTYPE svg PUBLIC "-//W3C//DTD SVG 1.1//EN" "http://www.w3.org/Graphics/SVG/1.1/DTD/svg11.dtd">
<svg height="30px" width="30px" version="1.1" id="Capa_1" xmlns="http://www.w3.org/2000/svg" xmlns:xlink="http://www.w3.org/1999/xlink" x="0px" y="0px"
	 viewBox="0 0 512 512" enable-background="new 0 0 512 512" xml:space="preserve">
<g>
	<path fill="#414141" d="M408.5,0H103.4C84.2,0,68.7,15.6,68.7,34.8v442.5c0,19.2,15.5,34.8,34.7,34.8h305.1
		c19.2,0,34.7-15.6,34.7-34.8V34.8C443.3,15.6,427.7,0,408.5,0z M256,499c-11.4,0-20.6-9.2-20.6-20.6c0-11.4,9.2-20.7,20.6-20.7
		c11.4,0,20.6,9.2,20.6,20.7C276.6,489.7,267.4,499,256,499z M408.1,439.6H103.9V41.8h304.3V439.6z"/>
</g>
<g>
	<path fill="#0CA3D1" d="M256.1,356.9c62.7,0,114.2-52.7,114.2-117.2c0-64.6-51.4-117.4-114.2-117.4c-63,0-114.4,52.7-114.4,117.4
		C141.8,304.2,193.1,356.9,256.1,356.9L256.1,356.9z"/>
	<path fill="#E17842" d="M246.8,259.2c-15.4,9-36.6-9.4-36.6-15.9c0.1-5.4,2.3-8.7,6.2-9.4c3.8,0,11.2,1,16.9,2.9
		c1-6.2-0.1-13.8-4.2-18.8c0-1.3,13.1-10.6,15.2-11.9c2-1,2.8-2.8,3.2-4.8c1.6-1.6,2-4.8-0.4-4.8c-1.3,0.1-9.5-0.1-12.3-0.6
		c-3.8-1.3-12.3-10-14.8-13.5c2.3-12.3,6.6-18.3,16.9-25.4c-11.2,1-25.6,5.7-34.6,14.5c-6.2-2.3-18.2,0.6-23.3,2.9
		c-8-3.8-10.7-17.7-12-25.9c-8.5,7.8-14.4,18.7-14.1,40.3c-7.3,15.4-11.3,32.6-11.3,50.9c0,64.6,51.3,117.2,114.4,117.2
		c63,0,114.2-52.6,114.2-117.2c0-28.1-9.5-53.8-25.6-73.9c4.5,8.1,7.1,15.9,7.1,21c-9.2-29.9-48-42.3-69.9-41.2
		c8.9,1.6,22,5.2,26.1,14.3c-5.1-1.4-12-0.6-15.4,1.4c26.7,8.1,47.6,28.1,45.7,45.6c-2.3-3.8-5.9-6.7-9.9-7.2
		c4.8,19.3,5.5,35.1,1.4,47.8c-2.3-8.3-5.5-13.8-7.6-15.2c3.7,24.5-0.6,45.4-12,58c2-7.5,2.7-13.9,2-18.8
		c-13.4,20.6-28,31.2-45.2,31.7c-16.9-0.1-30.8-6.2-42.9-18.7c10.7,1,22,0.9,30.4-5.2l14-10.1c1.3-0.6,4.5-0.6,5.6,0
		c3.7-0.4,4.5-3,2.8-5.7c-1.6-2.5-3.7-4.6-7.1-6.4C262.8,253.3,254.8,254,246.8,259.2L246.8,259.2z"/>
</g>
</svg>
