<?xml version="1.0" encoding="utf-8"?>
<!-- Generator: Adobe Illustrator 18.0.0, SVG Export Plug-In . SVG Version: 6.00 Build 0)  -->
<!DOCTYPE svg PUBLIC "-//W3C//DTD SVG 1.1//EN" "http://www.w3.org/Graphics/SVG/1.1/DTD/svg11.dtd">
<svg height="30px" width="30px" version="1.1" id="Capa_1" xmlns="http://www.w3.org/2000/svg" xmlns:xlink="http://www.w3.org/1999/xlink" x="0px" y="0px"
	 viewBox="0 0 512 512" enable-background="new 0 0 512 512" xml:space="preserve">
<g>
	<path fill="#414141" d="M408.5,0H103.4C84.2,0,68.7,15.6,68.7,34.8v442.5c0,19.2,15.5,34.8,34.7,34.8h305.1
		c19.2,0,34.7-15.6,34.7-34.8V34.8C443.3,15.6,427.7,0,408.5,0z M256,499c-11.4,0-20.6-9.2-20.6-20.6c0-11.4,9.2-20.7,20.6-20.7
		c11.4,0,20.6,9.2,20.6,20.7C276.6,489.7,267.4,499,256,499z M408.1,439.6H103.9V41.8h304.3V439.6z"/>
</g>
<g>
	<path fill="#EA3939" d="M338.6,150c21.9,23.1,32.8,53.4,32.8,90.8c0,34.3-10.9,64-32.8,89.3c-21.9,25.3-49.5,38-83.1,38
		c-33.3,0-60.7-12.7-82.4-38c-21.6-25.3-32.5-55.2-32.5-89.3c0-37.6,10.8-67.8,32.1-90.8c21.4-23,49-34.6,82.8-34.6
		C289,115.4,316.7,126.9,338.6,150z M296.7,202.8c-1-10.1-2.9-20.1-5.8-29.8c-2.9-9.7-7.3-17.1-13.2-22.5c-6-5.2-13.4-7.9-22.2-7.9
		c-9,0-16.3,2.5-22.1,7.6c-5.8,5.1-10,12.5-12.6,22.5c-2.8,9.8-4.5,19.7-5.5,29.7c-1,9.8-1.5,21.9-1.5,36.1c0,8.9,0.1,16.4,0.4,22.5
		c0.3,6.1,0.9,13.6,1.7,22.2c0.7,8.6,2,16.1,3.8,21.9c1.7,6,4.1,11.8,7.1,17.6s7,10.1,11.8,13.1c4.8,3,10.3,4.5,16.7,4.5
		c6.4,0,12.1-1.5,17-4.5c4.9-3,9-7.3,11.9-13.1c3.1-5.8,5.5-11.6,7.4-17.4c1.9-5.8,3.3-13.3,4.4-21.9c1-8.6,1.5-16.3,1.7-22.5
		c0.1-6.3,0.3-13.7,0.3-22.2C298.1,224.8,297.7,212.9,296.7,202.8z"/>
</g>
</svg>
