<?xml version="1.0" encoding="utf-8"?>
<!-- Generator: Adobe Illustrator 18.0.0, SVG Export Plug-In . SVG Version: 6.00 Build 0)  -->
<!DOCTYPE svg PUBLIC "-//W3C//DTD SVG 1.1//EN" "http://www.w3.org/Graphics/SVG/1.1/DTD/svg11.dtd">
<svg height="30px" width="30px" version="1.1" id="Capa_1" xmlns="http://www.w3.org/2000/svg" xmlns:xlink="http://www.w3.org/1999/xlink" x="0px" y="0px"
	 viewBox="0 0 512 512" enable-background="new 0 0 512 512" xml:space="preserve">
<g>
	<path fill="#414141" d="M408.5,0H103.4C84.2,0,68.7,15.6,68.7,34.8v442.5c0,19.2,15.5,34.8,34.7,34.8h305.1
		c19.2,0,34.7-15.6,34.7-34.8V34.8C443.3,15.6,427.7,0,408.5,0z M256,499c-11.4,0-20.6-9.2-20.6-20.6c0-11.4,9.2-20.7,20.6-20.7
		c11.4,0,20.6,9.2,20.6,20.7C276.6,489.7,267.4,499,256,499z M408.1,439.6H103.9V41.8h304.3V439.6z"/>
</g>
<path fill="#26A6D1" d="M310.4,256.8h56.1c0.5-4,1-8.1,0.8-12.3c-2.3-43-28.9-80.7-67.3-93.6l3,0.6c0,0,70-30.4,46.3,38l2.9,4.7
	c0,0,21.5-52.6-11.8-61.4c-27.3-7.1-67.6,12.7-67.6,12.7l1.5,0.3c-2.5-0.2-5-0.3-7.6-0.3c-49.9,0-91.3,33.8-99.2,79.9
	c5.7-6.3,25.9-29.7,48.7-44.3c0,0-38.8,33.2-50.1,60.5c0,0-14.4,24.5-19.1,42.7c-2.9,11.1-10.2,50.8,19.1,55.4
	c30.5,4.8,54.6-10.8,54.6-10.8l-0.6-0.3c13.9,7.1,29.8,11.2,46.5,11.2c44.5,0,82.2-29.7,95.5-68.8h-57.6
	c-7.9,15.4-21.7,24.1-38.1,24.1c-21.8,0-37.8-12.8-41.9-38.3H310.4z M214,325.3c0,0-16.9,8.3-31.2,8.6
	c-43.6-0.4-10.9-59.4-10.9-59.4v0c7.7,21.3,22.8,39.2,42.2,50.9L214,325.3z M266.7,191.1c25.2,0,37,17.1,39.9,38.1H225
	C229.4,208.3,243.9,191.1,266.7,191.1z"/>
</svg>
