<?xml version="1.0" encoding="utf-8"?>
<!-- Generator: Adobe Illustrator 18.0.0, SVG Export Plug-In . SVG Version: 6.00 Build 0)  -->
<!DOCTYPE svg PUBLIC "-//W3C//DTD SVG 1.1//EN" "http://www.w3.org/Graphics/SVG/1.1/DTD/svg11.dtd">
<svg height="30px" width="30px" version="1.1" id="Capa_1" xmlns="http://www.w3.org/2000/svg" xmlns:xlink="http://www.w3.org/1999/xlink" x="0px" y="0px"
	 viewBox="0 0 512 512" enable-background="new 0 0 512 512" xml:space="preserve">
<g>
	<path fill="#414141" d="M408.5,0H103.4C84.2,0,68.7,15.6,68.7,34.8v442.5c0,19.2,15.5,34.8,34.7,34.8h305.1
		c19.2,0,34.7-15.6,34.7-34.8V34.8C443.3,15.6,427.7,0,408.5,0z M256,499c-11.4,0-20.6-9.2-20.6-20.6c0-11.4,9.2-20.7,20.6-20.7
		c11.4,0,20.6,9.2,20.6,20.7C276.6,489.7,267.4,499,256,499z M408.1,439.6H103.9V41.8h304.3V439.6z"/>
</g>
<g>
	<path fill="#E6E6E6" d="M336.6,162.1c-22.5-23.1-49.4-34.5-80.9-34.5c-5.7,0-11.2,0.5-16.7,1.5c-0.3-0.3-0.5-0.7-0.5-0.9
		c3.4-2.6,4.8-5.6,3.8-8.8c-0.9-4.9-4.6-7.3-11-7.3c-1.3,0-2.5,0.1-3.8,0.5c-3.6,0.7-6.3,2.2-8.3,4.6c-2.1,2.4-2.8,5-2.1,7.6
		c0.7,3.7,3,5.8,7.1,6.9v0.5c-24.2,7.2-44,21.2-59.6,42.1s-23.4,44.5-23.4,71c0,32.3,11.2,60,33.6,83c22.3,23.1,49.4,34.5,80.9,34.5
		s58.4-11.5,80.9-34.5c22.5-23.1,33.6-50.7,33.6-83S358.9,185.1,336.6,162.1z M317.3,308.3c-10.4,10.7-22.9,18.3-37.3,22.5l-10-17.1
		l-2.9,19.5c-3.8,0.7-7.7,0.9-11.5,0.9c-23.8,0-44.4-8.7-61.6-25.9c-10.4-10.7-17.8-23.5-21.9-38.3l16.7-10.3l-19-3
		c-0.7-3.9-0.9-7.9-0.9-11.8c0-24.4,8.5-45.6,25.2-63.2c10.4-10.7,22.9-18.3,37.3-22.5l10,17.1l2.9-19.5c3.8-0.7,7.7-0.9,11.5-0.9
		c23.8,0,44.4,8.7,61.6,25.9c10.4,10.7,17.8,23.5,21.9,38.3l-16.7,10.3l19,3c0.7,3.9,0.9,7.9,0.9,11.8
		C342.6,269.6,334.1,290.6,317.3,308.3z"/>
	<path d="M236.7,232.3c-3.6,5.6-4.6,11.4-3.3,17.6c0.3,1.4,0.8,2.7,1.5,4.3l12.8-17.6l17.2-13.2c-1.9-0.9-4-1.6-6.2-1.9
		c-0.9,0-1.9,0-2.9,0c-1.6,0-3.2,0.1-4.8,0.5C244.9,223.3,240.1,226.9,236.7,232.3z"/>
	<path d="M276.7,254.4c1.9-4.6,2.4-9.4,1.5-14.2c-0.3-1.4-0.8-2.7-1.5-4.3l-12.8,17.6l-17.2,13.2c1.9,0.9,4,1.6,6.2,1.9
		c0.9,0,1.9,0,2.9,0c1.6,0,3.2-0.1,4.8-0.5c2.5-0.7,4.9-1.6,7.1-3C271.8,262.5,274.7,259,276.7,254.4z"/>
	<path fill="#188FD1" d="M358.3,230.9l-22.9-3.5l20-12.3c-4.9-17.5-13.7-32.8-26.2-45.6c-20.5-20.6-45.1-31.1-73.5-31.1
		c-4.6,0-9.1,0.4-13.7,1.2l-3.4,23.5l-12-20.5c-17.1,5-32,14.1-44.4,26.9c-20.1,21-30.3,46.3-30.3,75.4c0,4.7,0.4,9.4,1.2,14.1
		l22.9,3.5l-20,12.3c4.9,17.5,13.7,32.8,26.2,45.6c20.5,20.6,45.1,31.1,73.5,31.1c4.6,0,9.1-0.4,13.7-1.2l3.4-23.5l12,20.5
		c17.1-5,32-14.1,44.4-26.9c20.1-21,30.3-46.3,30.3-75.4C359.5,240.3,359.1,235.5,358.3,230.9z"/>
	<path opacity="0.2" enable-background="new    " d="M291.5,258.5l-16.8-13.7c0-0.3,0-0.4-0.1-0.7l29.5-22.3l-35.4,8.8
		c-0.1-0.1-0.3-0.3-0.5-0.4l0.5-22.1l-13.4,17.2c-0.3,0-0.4,0-0.7,0.1l-21.5-30.1l8.6,36.4c-0.1,0.1-0.3,0.3-0.4,0.5l-21.5-0.5
		l16.8,13.7c0,0.3,0,0.4,0.1,0.7l-29.5,22.3l35.4-8.8c0.1,0.1,0.3,0.3,0.5,0.4l-0.5,22.1l13.4-17.2c0.3,0,0.4,0,0.7-0.1l21.7,30.3
		l-8.6-36.4c0.1-0.1,0.3-0.3,0.4-0.5L291.5,258.5z M255.7,260.8c-8.5,0-15.3-7.1-15.3-15.6c0-8.5,6.9-15.6,15.3-15.6
		c8.5,0,15.2,7.1,15.2,15.6C270.9,253.7,264.2,260.8,255.7,260.8z"/>
	<polygon fill="#EA3939" points="263.4,252.9 315.1,184.1 248,237.3 	"/>
	<polygon fill="#FFFFFF" points="248,237.3 196.3,306 263.4,252.9 	"/>
</g>
</svg>
