<?xml version="1.0" encoding="utf-8"?>
<!-- Generator: Adobe Illustrator 18.0.0, SVG Export Plug-In . SVG Version: 6.00 Build 0)  -->
<!DOCTYPE svg PUBLIC "-//W3C//DTD SVG 1.1//EN" "http://www.w3.org/Graphics/SVG/1.1/DTD/svg11.dtd">
<svg height="30px" width="30px" version="1.1" id="Capa_1" xmlns="http://www.w3.org/2000/svg" xmlns:xlink="http://www.w3.org/1999/xlink" x="0px" y="0px"
	 viewBox="0 0 512 512" enable-background="new 0 0 512 512" xml:space="preserve">
<g>
	<path fill="#414141" d="M408.5,0H103.4C84.2,0,68.7,15.6,68.7,34.8v442.5c0,19.2,15.5,34.8,34.7,34.8h305.1
		c19.2,0,34.7-15.6,34.7-34.8V34.8C443.3,15.6,427.7,0,408.5,0z M256,499c-11.4,0-20.6-9.2-20.6-20.6c0-11.4,9.2-20.7,20.6-20.7
		c11.4,0,20.6,9.2,20.6,20.7C276.6,489.7,267.4,499,256,499z M408.1,439.6H103.9V41.8h304.3V439.6z"/>
</g>
<g>
	<path fill="#0CA3D1" d="M257.2,277.2c19.7,0,35.7-16.4,35.7-36.6c0-20.3-16-36.8-35.7-36.8c-19.8,0-35.8,16.4-35.8,36.8
		C221.3,260.8,237.3,277.2,257.2,277.2L257.2,277.2z"/>
	<path fill="#E1584B" d="M208.6,227.8c5.7-22.2,25.1-38.7,48.6-38.7h102.7c-18.4-38.8-57.5-65.8-102.7-65.8
		c-34,0-64.4,15.1-85.2,39.1L208.6,227.8z"/>
	<path fill="#36B39B" d="M213.1,265.4l-50.8-90.5c-12.3,18.9-19.7,41.3-19.7,65.8c0,56.5,39.1,103.6,90.9,114.7l36.8-65.3
		c-4.2,1.3-8.9,1.9-13.3,1.9c-18.7,0-34.8-10.3-43.3-25.7C213.5,266,213.4,265.8,213.1,265.4L213.1,265.4z"/>
	<path fill="#F3AB4B" d="M300.1,266.6l-51,91c2.7,0.1,5.2,0.1,8.1,0.1c63,0,114.1-52.6,114.1-117.1c0-12.9-2-25.1-5.7-36.8h-73.5
		c9.1,9.3,15,22.2,15,36.8C307.1,250,304.4,259.2,300.1,266.6L300.1,266.6z"/>
</g>
</svg>
