<?xml version="1.0" encoding="utf-8"?>
<!-- Generator: Adobe Illustrator 18.0.0, SVG Export Plug-In . SVG Version: 6.00 Build 0)  -->
<!DOCTYPE svg PUBLIC "-//W3C//DTD SVG 1.1//EN" "http://www.w3.org/Graphics/SVG/1.1/DTD/svg11.dtd">
<svg height="30px" width="30px" version="1.1" id="Capa_1" xmlns="http://www.w3.org/2000/svg" xmlns:xlink="http://www.w3.org/1999/xlink" x="0px" y="0px"
	 viewBox="0 0 512 512" enable-background="new 0 0 512 512" xml:space="preserve">
<g>
	<path fill="#414141" d="M408.5,0H103.4C84.2,0,68.7,15.6,68.7,34.8v442.5c0,19.2,15.5,34.8,34.7,34.8h305.1
		c19.2,0,34.7-15.6,34.7-34.8V34.8C443.3,15.6,427.7,0,408.5,0z M256,499c-11.4,0-20.6-9.2-20.6-20.6c0-11.4,9.2-20.7,20.6-20.7
		c11.4,0,20.6,9.2,20.6,20.7C276.6,489.7,267.4,499,256,499z M408.1,439.6H103.9V41.8h304.3V439.6z"/>
</g>
<g>
	<path fill="#188FD1" d="M228.9,176.9c-8.7,11.4-13.8,24.2-15.6,38.5c28.7,0,57.2,0,85.8,0c0-3.5,0.4-7.1-0.1-10.5
		c-0.7-4.5-1.4-9.2-3-13.6c-5.5-15.9-16.9-24.8-32.9-27.5c-23.4-3.9-45.2,2.2-65.9,12.5c-21.2,10.5-38.3,25.9-51.8,45.6
		c-0.7,1-1.4,1.9-2.1,2.9c-0.3,0-0.4-0.1-0.7-0.1c0.9-5,1.6-9.9,2.7-14.9c6.1-28,19.3-51.6,41.2-69.8c16-13.4,34.5-20.7,54.8-23.6
		c28.5-4.1,55,1.9,78.8,18.5c23.7,16.3,37.6,39.6,43.7,67.9c2,9,2.4,18.5,2.8,27.8c0.6,8.5,0.3,16.9,0.4,25.5c0,1.3,0,2.5,0,3.9
		c-51,0-101.8,0-152.7,0c-0.4,6.9,0.7,13.1,3.1,19.1c6.4,15.7,18.5,25.4,34.1,29.4c27.8,7.6,55,4.4,81.1-7.7
		c3.7-1.7,7.2-3.8,10.8-5.7c0.7-0.4,1.6-0.9,3-1.6c0,1.6,0,2.8,0,3.8c0,15,0,30.2,0,45.2c0,2.8-0.9,4.4-3.4,5.5
		c-17.5,8.6-35.8,13.7-55.1,15.5c-17,1.5-33.8,1.3-50.1-4.2c-33.7-11.4-56.5-34-64.8-69.8c-10.8-46.6,9.8-92.3,54.5-112.4
		C228,177.2,228.5,177,228.9,176.9z"/>
</g>
</svg>
