<?xml version="1.0" encoding="utf-8"?>
<!-- Generator: Adobe Illustrator 18.0.0, SVG Export Plug-In . SVG Version: 6.00 Build 0)  -->
<!DOCTYPE svg PUBLIC "-//W3C//DTD SVG 1.1//EN" "http://www.w3.org/Graphics/SVG/1.1/DTD/svg11.dtd">
<svg height="30px" width="30px" version="1.1" id="Capa_1" xmlns="http://www.w3.org/2000/svg" xmlns:xlink="http://www.w3.org/1999/xlink" x="0px" y="0px"
	 viewBox="0 0 512 512" enable-background="new 0 0 512 512" xml:space="preserve">
<g>
	<path fill="#414141" d="M408.5,0H103.4C84.2,0,68.7,15.6,68.7,34.8v442.5c0,19.2,15.5,34.8,34.7,34.8h305.1
		c19.2,0,34.7-15.6,34.7-34.8V34.8C443.3,15.6,427.7,0,408.5,0z M256,499c-11.4,0-20.6-9.2-20.6-20.6c0-11.4,9.2-20.7,20.6-20.7
		c11.4,0,20.6,9.2,20.6,20.7C276.6,489.7,267.4,499,256,499z M408.1,439.6H103.9V41.8h304.3V439.6z"/>
</g>
<path fill="#1EA8E0" d="M312,89.3c-14.4,0.6-31.9,9.4-42.2,21.4c-9.3,10.6-17.5,27.4-15.2,43.6c16.1,1.2,32.5-8.1,42.5-19.9
	C307.1,122.5,313.9,105.9,312,89.3z"/>
<path fill="#1EA8E0" d="M213.6,371.3c18.3-0.8,25.1-11.6,47-11.6c22,0,28.2,11.6,47.3,11.2c19.5-0.3,31.9-17.5,43.9-34.7
	c13.8-19.9,19.5-39.1,20-40.1c-0.5-0.2-38.1-14.4-38.5-57c-0.3-35.7,29.7-52.7,30.9-53.6c-16.9-24.2-43.2-27.5-52.4-28
	c-22.3-2.3-43.6,12.9-54.9,12.9c-11.3,0-28.8-12.6-47.3-12.3c-24.3,0.3-46.9,14-59.4,35.4c-25.2,43.2-6.5,107,18.3,141.9
	C180.4,352.7,194.8,371.9,213.6,371.3z"/>
</svg>
