<?xml version="1.0" encoding="utf-8"?>
<!-- Generator: Adobe Illustrator 18.0.0, SVG Export Plug-In . SVG Version: 6.00 Build 0)  -->
<!DOCTYPE svg PUBLIC "-//W3C//DTD SVG 1.1//EN" "http://www.w3.org/Graphics/SVG/1.1/DTD/svg11.dtd">
<svg height="30px" width="30px" version="1.1" id="Layer_1" xmlns="http://www.w3.org/2000/svg" xmlns:xlink="http://www.w3.org/1999/xlink" x="0px" y="0px"
	 viewBox="-294 -294 620 620" enable-background="new -294 -294 620 620" xml:space="preserve">
<g>
	<path fill="#EA3939" d="M216.6-201.2c53.1,54.5,79.7,126.1,79.7,214.9c0,81-26.6,151.4-79.7,211.4C163.5,285,96.3,315,14.8,315
		c-80.7,0-147.4-30-200.1-89.9c-52.7-60-79.1-130.4-79.1-211.4c0-88.8,26-160.4,77.9-214.9c51.9-54.5,119-81.8,201.2-81.8
		C96.3-283,163.5-255.7,216.6-201.2z M114.9-76.3c-2.3-24.1-7-47.7-14-70.7c-7-23-17.6-40.7-32-53.1c-14.4-12.4-32.4-18.7-54.1-18.7
		s-39.5,6-53.5,18.1c-14,12.1-24.2,29.8-30.8,53.1s-11,46.7-13.4,70.1c-2.3,23.4-3.5,51.8-3.5,85.3c0,21,0.4,38.7,1.2,53.1
		c0.7,14.4,2.1,31.9,4.1,52.5c1.9,20.6,5,38,9.3,52c4.3,14,10.1,27.8,17.5,41.5c7.4,13.6,16.9,23.9,28.5,30.9s25.2,10.5,40.7,10.5
		c15.5,0,29.2-3.5,41.3-10.5c12-7,21.7-17.3,29.1-30.9c7.4-13.6,13.4-27.4,18-41.4s8.1-31.3,10.5-52c2.3-20.6,3.7-38.3,4.1-53.1
		c0.4-14.8,0.6-32.3,0.6-52.5C118.4-24.1,117.2-52.1,114.9-76.3z"/>
</g>
</svg>
