<?xml version="1.0" encoding="utf-8"?>
<!-- Generator: Adobe Illustrator 18.0.0, SVG Export Plug-In . SVG Version: 6.00 Build 0)  -->
<!DOCTYPE svg PUBLIC "-//W3C//DTD SVG 1.1//EN" "http://www.w3.org/Graphics/SVG/1.1/DTD/svg11.dtd">
<svg height="30px" width="30px" version="1.1" id="Layer_1" xmlns="http://www.w3.org/2000/svg" xmlns:xlink="http://www.w3.org/1999/xlink" x="0px" y="0px"
	 viewBox="-294 -294 620 620" enable-background="new -294 -294 620 620" xml:space="preserve">
<g>
	<path fill="#E6E6E6" d="M213.3-162.7C158.6-217.4,92.8-244.8,16-244.8c-14,0-27.5,1.2-40.8,3.5c-0.8-0.8-1.2-1.5-1.2-2.3
		c8.5-6.2,11.6-13.2,9.3-21c-2.3-11.7-11.2-17.5-26.8-17.5c-3.1,0-6.2,0.4-9.3,1.2c-8.5,1.6-15.3,5.2-20.4,11.1
		c-5,5.8-6.8,11.8-5.2,18c1.5,8.5,7.4,14,17.5,16.3v1.2c-59,17.1-107.5,50.5-145.5,100.1c-38,49.7-57,105.9-57,168.8
		c0,76.8,27.4,142.6,82.1,197.3S-60.8,314,16,314s142.6-27.4,197.3-82.1s82.1-120.5,82.1-197.3S268-108,213.3-162.7z M166.2,184.8
		c-25.6,25.6-55.9,43.5-90.8,53.5l-24.4-40.8l-7,46.6c-9.3,1.6-18.6,2.3-27.9,2.3c-58.2,0-108.2-20.6-150.2-61.7
		c-25.6-25.6-43.5-55.9-53.5-90.8l40.8-24.4l-46.6-7c-1.6-9.3-2.3-18.6-2.3-27.9c0-58.2,20.6-108.2,61.7-150.2
		c25.6-25.6,55.9-43.5,90.8-53.5l24.4,40.8l7-46.6c9.3-1.5,18.6-2.3,27.9-2.3c58.2,0,108.2,20.6,150.2,61.7
		c25.6,25.6,43.5,55.9,53.5,90.8L178.9-0.3l46.6,7c1.5,9.3,2.3,18.6,2.3,27.9C227.9,92.8,207.3,142.9,166.2,184.8z"/>
	<path d="M-30.6,4.4c-8.5,13.2-11.2,27.2-8.2,41.9c0.8,3.1,1.9,6.6,3.5,10.5l31.4-41.9l41.9-31.4c-4.7-2.3-9.7-3.9-15.1-4.7
		c-2.3,0-4.7,0-7,0c-3.9,0-7.8,0.4-11.6,1.2C-10.4-17-22-8.8-30.6,4.4z"/>
	<path d="M67.2,56.8C71.9,45.9,73,34.6,70.7,23c-0.8-3.1-1.9-6.6-3.5-10.5L35.8,54.4L-6.1,85.9c4.7,2.3,9.7,3.9,15.1,4.7
		c2.3,0,4.7,0,7,0c3.9,0,7.7-0.4,11.6-1.2c6.2-1.5,12-3.9,17.5-7C55.2,76.1,62.6,67.6,67.2,56.8z"/>
	<path fill="#188FD1" d="M271.5,0.3l-56.8-8.5l49.7-29.8c-12.3-42.6-34.1-79.5-65.3-110.7C148-198.9,87-224,16-224
		c-11.4,0-22.7,1-34.1,2.8l-8.5,56.8l-29.8-49.7c-42.6,12.3-79.5,34.1-110.7,65.3c-50.2,51.1-75.2,112.2-75.2,183.1
		c0,11.4,0.9,22.7,2.8,34.1l56.8,8.5l-49.7,29.8c12.3,42.6,34.1,79.5,65.3,110.7C-116,267.6-55,292.6,16,292.6
		c11.4,0,22.7-0.9,34.1-2.8l8.5-56.8l29.8,49.7c42.6-12.3,79.5-34.1,110.7-65.3c50.1-51.1,75.2-112.2,75.2-183.1
		C274.4,23,273.4,11.6,271.5,0.3z"/>
	<path opacity="0.2" enable-background="new    " d="M103.5,66.5l-41-32.6c0-0.5-0.1-1.1-0.2-1.6l71.8-52.8L47.6,0.6
		c-0.4-0.4-0.8-0.6-1.2-1l1.4-52.5l-32.6,41c-0.5,0-1.1,0.1-1.6,0.2l-52.8-71.8L-18,3c-0.4,0.4-0.7,0.8-1,1.2l-52.5-1.4l41,32.6
		c0,0.5,0.1,1.1,0.2,1.6l-71.8,52.8l86.6-21.1c0.4,0.4,0.8,0.7,1.2,1l-1.4,52.5l32.5-41c0.5,0,1.1-0.1,1.6-0.2l52.8,71.8L50,66.2
		c0.4-0.4,0.6-0.8,1-1.2L103.5,66.5z M16,71.9c-20.6,0-37.3-16.7-37.3-37.3S-4.6-2.6,16-2.6s37.3,16.7,37.3,37.3S36.6,71.9,16,71.9z
		"/>
	<polygon fill="#EA3939" points="34.6,53.3 160.8,-110.2 -2.6,16 	"/>
	<polygon fill="#FFFFFF" points="-2.6,16 -128.9,179.5 34.6,53.3 	"/>
</g>
</svg>
