<?xml version="1.0" encoding="utf-8"?>
<!-- Generator: Adobe Illustrator 18.0.0, SVG Export Plug-In . SVG Version: 6.00 Build 0)  -->
<!DOCTYPE svg PUBLIC "-//W3C//DTD SVG 1.1//EN" "http://www.w3.org/Graphics/SVG/1.1/DTD/svg11.dtd">
<svg height="30px" width="30px" version="1.1" id="Capa_1" xmlns="http://www.w3.org/2000/svg" xmlns:xlink="http://www.w3.org/1999/xlink" x="0px" y="0px"
	 viewBox="-4 86 620 620" enable-background="new -4 86 620 620" xml:space="preserve">
<g>
	<g id="c61_iphone">
		<path fill="#414141" d="M429,86.9H174.9c-24.3,0-43.9,20.3-43.9,45.2v529.7c0,24.9,19.6,45.1,43.9,45.1H429
			c24.3,0,43.9-20.3,43.9-45.1V132.1C473.1,107.2,453.4,86.9,429,86.9z M239.2,114.4h125.5c3.2,0,5.7,4.9,5.7,10.9
			c0,6-2.6,10.9-5.7,10.9H239.2c-3.2,0-5.7-4.9-5.7-10.9C233.6,119.3,236.1,114.4,239.2,114.4z M302,662.4
			c-15.5,0-28.1-12.9-28.1-28.9c0-15.9,12.6-28.8,28.1-28.8s28,12.9,28,28.8C330,649.5,317.4,662.4,302,662.4z M440.1,563.6H163.9
			V163.1h276.2V563.6z"/>
	</g>
	<g id="Capa_1_47_">
	</g>
</g>
<g>
	<path fill="#E6E6E6" d="M382.6,282.1c-22.5-23.1-49.4-34.5-80.9-34.5c-5.7,0-11.2,0.5-16.7,1.5c-0.3-0.3-0.5-0.7-0.5-0.9
		c3.4-2.6,4.8-5.6,3.8-8.8c-0.9-4.9-4.6-7.3-11-7.3c-1.3,0-2.5,0.1-3.8,0.5c-3.6,0.7-6.3,2.2-8.3,4.6c-2.1,2.4-2.8,5-2.1,7.6
		c0.7,3.7,3,5.8,7.1,6.9v0.5c-24.2,7.2-44,21.2-59.6,42.1c-15.6,20.9-23.4,44.5-23.4,71c0,32.3,11.2,60,33.6,83
		c22.3,23.1,49.4,34.5,80.9,34.5s58.4-11.5,80.9-34.5c22.5-23.1,33.6-50.7,33.6-83S404.9,305.1,382.6,282.1z M363.3,428.3
		c-10.4,10.7-22.9,18.3-37.3,22.5l-10-17.1l-2.9,19.5c-3.8,0.7-7.7,0.9-11.5,0.9c-23.8,0-44.4-8.7-61.6-25.9
		c-10.4-10.7-17.8-23.5-21.9-38.3l16.7-10.3l-19-3c-0.7-3.9-0.9-7.9-0.9-11.8c0-24.4,8.5-45.6,25.2-63.2
		c10.4-10.7,22.9-18.3,37.3-22.5l10,17.1l2.9-19.5c3.8-0.7,7.7-0.9,11.5-0.9c23.8,0,44.4,8.7,61.6,25.9
		c10.4,10.7,17.8,23.5,21.9,38.3l-16.7,10.3l19,3c0.7,3.9,0.9,7.9,0.9,11.8C388.6,389.6,380.1,410.6,363.3,428.3z"/>
	<path d="M282.7,352.3c-3.6,5.6-4.6,11.4-3.3,17.6c0.3,1.4,0.8,2.7,1.5,4.3l12.8-17.6l17.2-13.2c-1.9-0.9-4-1.6-6.2-1.9
		c-0.9,0-1.9,0-2.9,0c-1.6,0-3.2,0.1-4.8,0.5C290.9,343.3,286.1,346.9,282.7,352.3z"/>
	<path d="M322.7,374.4c1.9-4.6,2.4-9.4,1.5-14.2c-0.3-1.4-0.8-2.7-1.5-4.3l-12.8,17.6l-17.2,13.2c1.9,0.9,4,1.6,6.2,1.9
		c0.9,0,1.9,0,2.9,0c1.6,0,3.2-0.1,4.8-0.5c2.5-0.7,4.9-1.6,7.1-3C317.8,382.5,320.7,379,322.7,374.4z"/>
	<path fill="#188FD1" d="M404.3,350.9l-22.9-3.5l20-12.3c-4.9-17.5-13.7-32.8-26.2-45.6c-20.5-20.6-45.1-31.1-73.5-31.1
		c-4.6,0-9.1,0.4-13.7,1.2l-3.4,23.5l-12-20.5c-17.1,5-32,14.1-44.4,26.9c-20.1,21-30.3,46.3-30.3,75.4c0,4.7,0.4,9.4,1.2,14.1
		l22.9,3.5l-20,12.3c4.9,17.5,13.7,32.8,26.2,45.6c20.5,20.6,45.1,31.1,73.5,31.1c4.6,0,9.1-0.4,13.7-1.2l3.4-23.5l12,20.5
		c17.1-5,32-14.1,44.4-26.9c20.1-21,30.3-46.3,30.3-75.4C405.5,360.3,405.1,355.5,404.3,350.9z"/>
	<path opacity="0.2" enable-background="new    " d="M337.5,378.5l-16.8-13.7c0-0.3,0-0.4-0.1-0.7l29.5-22.3l-35.4,8.8
		c-0.1-0.1-0.3-0.3-0.5-0.4l0.5-22.1l-13.4,17.2c-0.3,0-0.4,0-0.7,0.1l-21.5-30.1l8.6,36.4c-0.1,0.1-0.3,0.3-0.4,0.5l-21.5-0.5
		l16.8,13.7c0,0.3,0,0.4,0.1,0.7l-29.5,22.3l35.4-8.8c0.1,0.1,0.3,0.3,0.5,0.4l-0.5,22.1l13.4-17.2c0.3,0,0.4,0,0.7-0.1l21.7,30.3
		l-8.6-36.4c0.1-0.1,0.3-0.3,0.4-0.5L337.5,378.5z M301.7,380.8c-8.5,0-15.3-7.1-15.3-15.6s6.9-15.6,15.3-15.6s15.2,7.1,15.2,15.6
		S310.2,380.8,301.7,380.8z"/>
	<polygon fill="#EA3939" points="309.4,372.9 361.1,304.1 294,357.3 	"/>
	<polygon fill="#FFFFFF" points="294,357.3 242.3,426 309.4,372.9 	"/>
</g>
</svg>
