<?xml version="1.0" encoding="utf-8"?>
<!-- Generator: Adobe Illustrator 18.0.0, SVG Export Plug-In . SVG Version: 6.00 Build 0)  -->
<!DOCTYPE svg PUBLIC "-//W3C//DTD SVG 1.1//EN" "http://www.w3.org/Graphics/SVG/1.1/DTD/svg11.dtd">
<svg height="30px" width="30px" version="1.1" id="Capa_1" xmlns="http://www.w3.org/2000/svg" xmlns:xlink="http://www.w3.org/1999/xlink" x="0px" y="0px"
	 viewBox="-4 86 620 620" enable-background="new -4 86 620 620" xml:space="preserve">
<g>
	<g id="c61_iphone">
		<path fill="#414141" d="M429,85.9H174.9c-24.3,0-43.9,20.3-43.9,45.2v529.7c0,24.9,19.6,45.1,43.9,45.1H429
			c24.3,0,43.9-20.3,43.9-45.1V131.1C473.1,106.2,453.4,85.9,429,85.9z M239.2,113.4h125.5c3.2,0,5.7,4.9,5.7,10.9
			c0,6-2.6,10.9-5.7,10.9H239.2c-3.2,0-5.7-4.9-5.7-10.9C233.6,118.3,236.1,113.4,239.2,113.4z M302,661.4
			c-15.5,0-28.1-12.9-28.1-28.9c0-15.9,12.6-28.8,28.1-28.8s28,12.9,28,28.8C330,648.5,317.4,661.4,302,661.4z M440.1,562.6H163.9
			V162.1h276.2V562.6z"/>
	</g>
	<g id="Capa_1_47_">
	</g>
</g>
<path fill="#1EA8E0" d="M356.6,216.3c-13.8,0.6-30.5,9.4-40.4,21.4c-8.9,10.6-16.7,27.4-14.5,43.6c15.4,1.2,31.1-8.1,40.7-19.9
	C351.9,249.5,358.4,232.9,356.6,216.3z"/>
<path fill="#1EA8E0" d="M262.4,498.3c17.5-0.8,24-11.6,45-11.6c21,0,27,11.6,45.3,11.2c18.7-0.3,30.5-17.5,42.1-34.7
	c13.2-19.9,18.7-39.1,19.1-40.1c-0.4-0.2-36.4-14.4-36.9-57c-0.3-35.7,28.4-52.7,29.6-53.6c-16.1-24.2-41.3-27.5-50.2-28
	c-21.3-2.3-41.8,12.9-52.6,12.9c-10.8,0-27.5-12.6-45.3-12.3c-23.2,0.3-44.9,14-56.9,35.4c-24.1,43.2-6.2,107,17.5,141.9
	C230.6,479.7,244.4,498.9,262.4,498.3z"/>
</svg>
