<?xml version="1.0" encoding="utf-8"?>
<!-- Generator: Adobe Illustrator 18.0.0, SVG Export Plug-In . SVG Version: 6.00 Build 0)  -->
<!DOCTYPE svg PUBLIC "-//W3C//DTD SVG 1.1//EN" "http://www.w3.org/Graphics/SVG/1.1/DTD/svg11.dtd">
<svg height="30px" width="30px" version="1.1" id="Capa_1" xmlns="http://www.w3.org/2000/svg" xmlns:xlink="http://www.w3.org/1999/xlink" x="0px" y="0px"
	 viewBox="0 86 612 620" enable-background="new 0 86 612 620" xml:space="preserve">
<g>
	<g id="c61_iphone">
		<path fill="#414141" d="M423.4,86.8H172.6c-24,0-43.3,20.2-43.3,45.2v529.8c0,24.9,19.3,45.1,43.3,45.1h250.8
			c24,0,43.3-20.2,43.3-45.1V132C466.9,107.1,447.5,86.8,423.4,86.8z M236.1,114.3h123.9c3.2,0,5.6,4.8,5.6,11c0,6-2.6,11-5.6,11
			H236.1c-3.2,0-5.6-4.8-5.6-11C230.5,119.2,233,114.3,236.1,114.3z M298.1,662.3c-15.3,0-27.7-12.8-27.7-28.8
			c0-15.9,12.4-28.7,27.7-28.7c15.3,0,27.6,12.8,27.6,28.7S313.3,662.3,298.1,662.3z M434.4,563.5H161.7V163h272.6V563.5z"/>
	</g>
	<g id="Capa_1_47_">
	</g>
</g>
<g>
	<g>
		<path fill="#4F9EFF" d="M410.3,357.9V357c-0.1-10.5-1.6-20.9-4.4-31c-1-3.5-2.2-7.2-3.6-10.6c-2.7-7.1-6.1-13.7-10.1-20.2
			c-1.8-2.8-3.7-5.7-5.8-8.3c-5.5-7.4-11.9-14-19-19.9c-2.5-2.2-5-4-7.4-5.7c-18.5-12.8-40-19.6-62.1-19.6
			c-19.6,0-38.8,5.4-55.8,15.6c-2.7,1.7-5.3,3.4-7.9,5.2c-7.3,5.2-13.9,11.2-19.7,18c-2.4,2.6-4.4,5.4-6.5,8.2
			c-5.6,7.9-10.4,16.5-13.9,25.6c-1.3,3.4-2.7,7.1-3.7,10.8c-2.8,9.9-4.4,20.3-4.7,30.8v1.1c0,0.6,0,1.2,0,1.8
			c0,3.4,0.1,6.8,0.4,10.6c1,12.8,4.1,25.1,9.2,36.8c2.5,6,5.6,11.7,9,16.9c20.3,31.7,54.1,51.3,90.5,52.2h1v0.2l1.6-0.2h0.3l0,0
			c35.7,0,69.5-17.9,90.7-47.7c3.6-5.1,6.8-10.5,9.5-16c6.4-12.9,10.4-27,11.7-41.3c0.4-3.9,0.6-7.9,0.6-11.7
			C410.3,358.7,410.3,358.3,410.3,357.9z M401.4,379.5c-0.6,3.4-1.5,6.8-2.4,10l-7.4,4.3v5.1l2.8,3.9c-0.4,1.2-1,2.3-1.5,3.5
			l-4.3,0.2l-0.3-3.7l1,0.5l2.5-0.3l-0.3-3.4l-6.8,0.2l-1.9-2.6l0.1-1.4l-1.8-1.7c0.3-0.9,0.6-1.8,0.7-2.8l5.9,6l0.6-2.2l-4.7-7.1
			c6.1-3.2,11.3-6.5,15.7-9.5l2.4-1.7L401.4,379.5z M293.6,438.8v1.4h-1.3c-3.4-0.2-7-0.3-10.4-0.6l2.5-4.8l3.6-0.8v-4.3l2.4-2.9
			l2.5-3.5C293.2,428.2,293.3,433.4,293.6,438.8z M234.2,307l-0.9-0.6l0.4-0.9c4.3-8,9.5-16.2,15.3-24.2l0.7-0.9l0.9,0.8
			c3.4,2.6,7.4,5.1,11.6,7.1l1,0.5l-0.4,1.1c-0.3,0.6-0.4,1.4-0.7,2h-0.7l-7.3,3.9l-2.7,5.1l-4.7,2l-2.1,2.3l0.4,2.6l2.5,0.3l1.5,4
			l4.3-1.8l0.7,5.2h-1.3l-3.6-0.5l-1.6,0.3c-3.9-2-7.6-4.2-11-6.5l-0.1-1.1l-1,0.2C235.1,307.6,234.7,307.3,234.2,307z M316,361.6
			c-2.5-1.2-12.6-6.3-12.6-6.6c0-0.3,0.1-5.7,0.1-5.7h3l0.4,3.9l6.1,3.7l7,0.3l11.4,2C326.2,360.3,321.2,361,316,361.6z
			 M238.4,387.2h4.4l2.4,2.6l5.3,0.6c0.1,1.1,0.3,2,0.4,3.1l0.3,1.8l-1.8-0.5c-5.6-1.5-11.1-3.4-16.3-5.4h3L238.4,387.2z
			 M274.9,350.2l-5-4l-5.3,0.6v3.4h-1.6l-1.8-1.4l-4.9-1.2c0.3-2.5,0.6-4.8,0.9-7.2l1,0.3l2.7-1.2v-3.4l1.2-0.6l-1-1.1l-2.5-1.5
			c0.1-1.2,0.4-2.5,0.6-3.7l0.3-1.4l0.3,0.2l0.4,0.5l3.9,3.5l0.1,4.3l4,4.5l1.5-6.2l2.8-1.5l0.4,5.1l2.7,3.1l8.1-0.2l2.4,1.8v4.5
			l-3,2.9L274.9,350.2L274.9,350.2z M259.2,336.7l-1,1.4h-0.6c0.1-0.8,0.1-1.5,0.3-2.3L259.2,336.7z M346.8,393.2
			c0.4-2.8,0.7-5.4,1-8.2l0.6,0.2l2.5-3.9l1.3-10.9l2.5-5.9l4.1-1.7l7.4,0.8l9.2,8.6v12c-8.4,4.2-17.8,7.5-27.4,10.3l-1.8,0.5
			L346.8,393.2z M353,288.8l-5.8-3.7c0.7-0.5,1.5-0.8,2.2-1.2l0.9-0.6l0.6,0.9c1,1.5,2.2,3.1,3.3,4.6L353,288.8L353,288.8z
			 M319.8,295.4v1.1l-3.4,1.1l-0.1-1.5C317.5,295.7,318.6,295.6,319.8,295.4z M290.6,362.4c-0.9,0-1.6-0.2-2.5-0.2l-3.3-6.5l0.9-1.1
			l6.1,7.7L290.6,362.4z M290.5,297.3l-0.3-0.9c0.6,0.2,1.2,0.2,1.8,0.2L290.5,297.3z M286.6,298l-3.4,2.8l-8.4-0.3l-0.4-2l8.7-0.5
			l1.8-1.7l-3.6-1.7c1.9,0.5,4,0.8,5.9,1.1L286.6,298z M270.1,291.6L270.1,291.6h0.3H270.1z M227.7,319h1.5l4.3-3.2l0.1-0.9
			c0.7,0.5,1.3,0.9,2.1,1.4l-1.5,0.3l-0.3,3.7h3l4-0.5l0.3-0.5c0.4,0.3,1,0.5,1.5,0.8l-0.6,0.8l-5.3,0.9l-0.7,4.8l2.2,0.6l-0.6,3.1
			l-5.3-1.1l-4.9,1.1l-1,2.9l0.9,6l2.8,1.4h4.7l3.3-0.3l1-2.8l5-6.9l3.3,0.8l3.3-3.1l0.6,2.5l0.4,0.3c-0.6,3.1-1,6-1.5,9.1l-9.6,0.8
			l-3.6,2h-4.6l-2.2-0.3l-3.7,2.2c-1.6-0.9-3.3-1.8-4.9-2.8l-0.7-0.5l0.1-0.9C222.4,333.8,224.6,326.4,227.7,319z M230.2,312.8
			L230.2,312.8L230.2,312.8L230.2,312.8z M221.2,350.2c1,0.6,2.2,1.2,3.4,1.8v0.3l-5.5,4.2c0.1-1.7,0.1-3.4,0.4-5.2l0.1-1.8
			L221.2,350.2z M226.5,394.5c8,3.4,16.6,6.2,25.3,8.3l0.7,0.2l0.1,0.8c0.9,4.5,2.1,8.9,3.3,13.6l-1.8,3.5l0.3,3.7l3,3.2v8
			c-4.9-1.1-9.9-2.3-14.5-3.7l-0.4-0.2l-0.3-0.3c-7.6-11.7-13.5-23.7-17.3-35.6l-0.9-2.5L226.5,394.5z M299.2,400c0-0.8,0-1.5,0-2.5
			l2.7-2.6l10.7-16l-2.1-1.1l-11,2.5l-0.4-0.3c0-1.5,0-3.1,0-4.6l1.3,1.4l5.3-0.3l9.9-7.5c7.9-0.8,15.7-2,23.3-4v1.1l-0.4,4.9l3.4,6
			c-0.4,6.3-1.2,12.6-2.4,19.1l-0.1,0.8l-0.7,0.2c-12.3,2.6-25,4-37.9,4.2h-1.2L299.2,400z M345,403.4l0.1-0.8l0.7-0.2
			c9-2.3,17.8-5.2,26.1-8.8l2.4-1.1l-0.9,2.5c-4,12.5-10.2,25.1-18.4,37.4l-0.3,0.3l-0.4,0.2c-5.3,1.4-11,2.8-17,3.9l-1.9,0.3l0.7-2
			C339.8,424.6,342.9,414,345,403.4z M396.4,335.3h3.3l1.3,1.1c0.9,4.5,1.5,8.8,1.9,13.2l-6.5-7.2l-0.1-6.9
			C396.3,335.3,396.4,335.3,396.4,335.3z M361.7,273.2l0.7-0.8l0.9,0.8c5.9,4.9,11.3,10.3,16,16.3l-3.4,3.7l-1.8-0.2l-5.3-4.2h-5.9
			c-1.9-3.1-4-6-6.1-8.9l-0.6-0.9l0.9-0.8C358.8,276.5,360.4,274.8,361.7,273.2z M344.3,260.6c4.1,2.2,8,4.3,11.4,6.8l1.2,0.8
			l-0.9,1.1c-0.9,0.9-1.9,1.8-3,2.8l-1.3,1.2l-0.7-0.9c-2.7-3.4-5.3-6.6-8.1-9.7l-4.3-4.8L344.3,260.6z M319.5,251.7
			c1.2,0.3,2.2,0.5,3.4,0.8l0.4,0.3c2.5,2.3,11.7,10.8,21.9,23.7l0.9,1.1l-1.2,0.8c-3.6,2.2-7.3,4.2-11.3,5.7l-1,0.5l-0.4-1.1
			c-5.2-12.9-10.5-23.4-13.9-29.9l-1.3-2.3L319.5,251.7z M300.9,288.6c0.7-16.6,1.3-29.7,1.8-37.9v-1.2h1.2c1.2,0.2,2.4,0.2,3.6,0.3
			h0.6l0.3,0.5c2.8,4.8,9.9,17.6,17,34.8l0.4,1.2l-1.3,0.3c-3.6,0.9-7.3,1.7-11,2.2l-3-0.8l-0.3,1.1c-2.7,0.3-5.5,0.5-8.1,0.5h-1.2
			V288.6z M289.9,249.7h0.6c1-0.2,2.1-0.2,3.1-0.2h2.2l-0.1,1.4c-0.4,8-1,20.9-1.8,37.4v1.2l-1.2-0.2c-6.4-0.6-12.7-2-18.8-4.2
			l-1.2-0.5l0.4-1.2c6.8-16.6,13.8-28.8,16.4-33.4L289.9,249.7z M274.2,252.3l1.8-0.5c0.9-0.2,1.8-0.3,2.7-0.5l2.5-0.5l-1.2,2.3
			c-3.3,6-8.3,15.7-13.2,27.9l-0.4,1.1l-1-0.5c-3.9-2-7.1-3.9-9.8-5.9l-1-0.8l0.9-1.1c9.2-11.2,17-18.6,19.6-20.9L274.2,252.3z
			 M245.6,264c3.1-1.8,6.4-3.5,10.1-5.2l5.3-2.5l-4,4.3c-2.4,2.6-4.9,5.4-7.3,8.3l-0.9,1.1l-1.5-1.7c-0.7-0.9-1.6-1.7-2.2-2.6
			l-0.7-1.1L245.6,264z M217.5,288.3c5.9-7.2,12.7-13.7,20.1-19.1l0.9-0.6l0.7,0.9c1.3,1.8,2.8,3.5,4.4,5.4l0.7,0.8l-0.6,0.8
			c-5.9,7.9-11.1,15.9-15.4,23.9l-0.7,1.4l-1-1.1c-3.7-3.5-6.8-7.2-9.2-10.9L217,289L217.5,288.3z M198.7,322.5
			c3.1-9.2,7.6-18,13-26.2l0.9-1.4l1,1.4c2.8,4,6.4,7.7,10.4,11.4l0.7,0.6l-0.4,0.8c-4.1,9.1-7.3,18-9.3,26.8l-0.4,1.7l-1.5-1.1
			c-5.3-4-10.1-8.3-14.1-12.9l-0.4-0.5L198.7,322.5z M192.7,365.8v-0.5c-0.1-2.2-0.1-4.2-0.1-6.3c0-8.6,1-17.4,3-26l0.4-2l1.5,1.5
			c4.3,4.3,9.3,8.6,15,12.5l0.6,0.5l-0.1,0.8c-0.6,4.5-0.9,8.6-1,12.8c-0.1,6.2,0.3,12.6,1.3,19.1l0.4,2.5l-2.1-1.2
			c-6.8-4-13-8.3-18.4-12.9L192.7,365.8z M209.5,418l-0.3-0.2l-0.1-0.3c-7.4-12-12.3-25.1-14.8-39.1l-0.4-2.9l2.4,1.7
			c5.8,4.3,12.1,8.2,19.1,11.7l0.4,0.3l0.1,0.5c3.1,11.9,7.9,23.7,14.5,35.4l1.6,2.9l-3.1-1.2C222.1,424.5,215.5,421.4,209.5,418z
			 M248.1,455.4c-9.9-5.5-18.8-12.6-26.5-21.1l-3.7-4l5,2.2c4.3,1.8,9.2,3.5,14.7,5.4l0.4,0.2l0.3,0.3c3.6,5.2,7.4,10.5,11.4,15.2
			l4,4.9L248.1,455.4z M272.6,465.3c-1-0.3-2.2-0.6-3.3-0.9l-0.4-0.3c-0.9-0.8-8.7-8.3-17.9-20.3l-2.1-2.8l3.3,0.8
			c3,0.8,6.1,1.4,9.3,2v5.4h5.8c2.1,4.9,4.3,9.9,6.7,14.3l1.2,2.5L272.6,465.3z M294.1,468.4c-3.1-0.2-6.2-0.3-9.3-0.8h-0.6
			l-0.3-0.5c-1.5-2.5-5.2-9.2-9.6-19.1l1.8-1.8c5.6,0.6,11.3,1.1,16.9,1.2h1v1.1c0.4,7.5,0.7,13.9,1.2,18.6l0.1,1.4L294.1,468.4z
			 M300.6,439.1c0-0.3,0-0.6,0-0.9l1.3-2.3l5.2-8.2l2.5-12.6h-3.3l-3.1,6.5l-3.6-0.5c-0.1-3.9-0.3-7.7-0.4-11.4v-1.2h1.2
			c11.7-0.2,23.6-1.4,35.3-3.5l1.8-0.3l-0.4,1.8c-2.4,10.5-5.6,21.3-9.6,31.6l-0.3,0.6l-0.7,0.2c-8.3,1.1-16.6,1.5-24.7,1.7h-1
			L300.6,439.1z M313.8,467.1l-0.6,0.2c-3.1,0.5-6.4,0.8-9.6,0.9h-1.2l-0.1-1.2c-0.3-4.6-0.7-10.9-1.2-18.3l-0.1-1.2h1.2
			c6.5,0,13.2-0.5,19.8-1.1l2.1-0.2l-0.9,1.8c-4,9.1-7.6,15.6-9.2,18.5L313.8,467.1z M330.5,463l-0.4,0.3c-1.3,0.5-2.8,0.9-4.1,1.2
			l-3,0.8l1.3-2.5c2.8-5.4,5.5-11.1,7.9-17.1l0.3-0.6l0.6-0.2c4.7-0.8,8.7-1.4,12.3-2.2l3.1-0.6l-2.1,2.6
			C339.1,454.2,332.9,460.7,330.5,463z M371.1,437.9c-5.5,5.4-11.7,10.3-18.7,14.8l-5.8,3.7l4.3-5.5c2.8-3.7,5.6-7.4,8.3-11.2
			l0.3-0.3l0.4-0.2c3.9-1.1,7.1-2.2,10.1-3.2l5-1.8L371.1,437.9z M384.1,422l-0.1,0.2l-0.3,0.2c-4.4,2.2-9.5,4.2-15.3,6.3l-3,1.1
			l1.6-2.9c5.3-9.2,9.5-18.6,12.6-28l4.9,6.5l1.8,0.6v0.9H384l0.6,2l7,0.3C389.3,413.5,386.9,417.9,384.1,422z M403.1,366.3v0.5
			l-0.4,0.3c-3.6,2.9-7.4,5.7-11.6,8.3l0,0l-5.5-4.6c0.3-2.6,0.4-5.4,0.4-8l0.1-0.3l3.3,1.1l-0.3,2.3l1.8,2.9l1.6-1.2l-0.9-3.5
			l9-3.4l2.5-2.2c0,0.2,0,0.2,0,0.3C403.4,361.2,403.2,363.5,403.1,366.3z"/>
		<polygon fill="#4F9EFF" points="354.2,387.2 354.6,382.9 351.5,382.3 349.2,385.7 350.3,388.8 		"/>
	</g>
</g>
</svg>
