<?xml version="1.0" encoding="utf-8"?>
<!-- Generator: Adobe Illustrator 18.0.0, SVG Export Plug-In . SVG Version: 6.00 Build 0)  -->
<!DOCTYPE svg PUBLIC "-//W3C//DTD SVG 1.1//EN" "http://www.w3.org/Graphics/SVG/1.1/DTD/svg11.dtd">
<svg height="30px" width="30px" version="1.1" id="Capa_1" xmlns="http://www.w3.org/2000/svg" xmlns:xlink="http://www.w3.org/1999/xlink" x="0px" y="0px"
	 viewBox="-4 86 620 620" enable-background="new -4 86 620 620" xml:space="preserve">
<g>
	<g>
		<g id="c61_iphone">
			<path fill="#414141" d="M436.4,86H175.6c-24.9,0-45.1,20.2-45.1,45.2v529.8c0,24.9,20.1,45.1,45.1,45.1h260.8
				c24.9,0,45.1-20.2,45.1-45.1V131.2C481.7,106.2,461.4,86,436.4,86z M241.6,113.4h128.8c3.3,0,5.9,4.8,5.9,11c0,6-2.7,11-5.9,11
				H241.6c-3.3,0-5.9-4.8-5.9-11C235.9,118.3,238.4,113.4,241.6,113.4z M306.1,661.5c-15.9,0-28.8-12.8-28.8-28.8
				c0-15.9,12.9-28.7,28.8-28.7s28.7,12.8,28.7,28.7S321.9,661.5,306.1,661.5z M447.8,562.6H164.3V162.2h283.5V562.6z"/>
		</g>
		<g id="Capa_1_47_">
		</g>
	</g>
	<g>
		<g id="android">
			<path fill="#30BF44" d="M236.3,429c0,7,4.6,11.6,11.6,11.6h11.6v40.7c0,9.1,8.1,17.5,17.5,17.5c9.1,0,17.5-8.1,17.5-17.5v-40.7
				h23.1v40.7c0,9.1,8.1,17.5,17.5,17.5c9.1,0,17.5-8.1,17.5-17.5v-40.7h11.6c7,0,11.6-4.6,11.6-11.6V313H236.8L236.3,429L236.3,429
				z M207.2,312.8c-9.1,0-17.5,8.1-17.5,17.5v81.2c0,9.1,8.1,17.5,17.5,17.5c9.1,0,17.5-8.1,17.5-17.5v-81.2
				C224.9,320.9,216.7,312.8,207.2,312.8z M404.9,312.8c-9.1,0-17.5,8.1-17.5,17.5v81.2c0,9.1,8.1,17.5,17.5,17.5
				c9.1,0,17.5-8.1,17.5-17.5v-81.2C422.1,320.9,414,312.8,404.9,312.8z M346.8,245.6l15.2-15.2c2.5-2.5,2.5-5.9,0-8.1
				c-2.5-2.3-5.9-2.5-8.1,0l-17.5,17.5c-8.1-5.9-18.4-8.1-30.1-8.1s-22,2.5-31.3,7l-16.3-17.5c-2.5-1.1-7-1.1-9.1,0
				c-1.1,2.5-1.1,7,0,9.1l15.2,15.2c-16.3,12.7-27.9,32.5-27.9,55.6h139.1C375.8,278.1,364.2,257.2,346.8,245.6z M282.8,278.1h-11.6
				v-11.6h11.6V278.1z M340.9,278.1h-11.6v-11.6h11.6V278.1z"/>
		</g>
	</g>
</g>
</svg>
