<?xml version="1.0" encoding="utf-8"?>
<!-- Generator: Adobe Illustrator 18.0.0, SVG Export Plug-In . SVG Version: 6.00 Build 0)  -->
<!DOCTYPE svg PUBLIC "-//W3C//DTD SVG 1.1//EN" "http://www.w3.org/Graphics/SVG/1.1/DTD/svg11.dtd">
<svg height="30px" width="30px" version="1.1" id="Capa_1" xmlns="http://www.w3.org/2000/svg" xmlns:xlink="http://www.w3.org/1999/xlink" x="0px" y="0px"
	 viewBox="-4 86 620 620" enable-background="new -4 86 620 620" xml:space="preserve">
<g>
	<g id="c61_iphone">
		<path fill="#414141" d="M429,86.9H174.9c-24.3,0-43.9,20.3-43.9,45.2v529.7c0,24.9,19.6,45.1,43.9,45.1H429
			c24.3,0,43.9-20.3,43.9-45.1V132.1C473.1,107.2,453.4,86.9,429,86.9z M239.2,114.4h125.5c3.2,0,5.7,4.9,5.7,10.9
			c0,6-2.6,10.9-5.7,10.9H239.2c-3.2,0-5.7-4.9-5.7-10.9C233.6,119.3,236.1,114.4,239.2,114.4z M302,662.4
			c-15.5,0-28.1-12.9-28.1-28.9c0-15.9,12.6-28.8,28.1-28.8s28,12.9,28,28.8C330,649.5,317.4,662.4,302,662.4z M440.1,563.6H163.9
			V163.1h276.2V563.6z"/>
	</g>
	<g id="Capa_1_47_">
	</g>
</g>
<g>
	<path fill="#0CA3D1" d="M303.2,401.2c19.7,0,35.7-16.4,35.7-36.6c0-20.3-16-36.8-35.7-36.8c-19.8,0-35.8,16.4-35.8,36.8
		C267.3,384.8,283.3,401.2,303.2,401.2L303.2,401.2z"/>
	<path fill="#E1584B" d="M254.6,351.8c5.7-22.2,25.1-38.7,48.6-38.7h102.7c-18.4-38.8-57.5-65.8-102.7-65.8
		c-34,0-64.4,15.1-85.2,39.1L254.6,351.8z"/>
	<path fill="#36B39B" d="M259.1,389.4l-50.8-90.5c-12.3,18.9-19.7,41.3-19.7,65.8c0,56.5,39.1,103.6,90.9,114.7l36.8-65.3
		c-4.2,1.3-8.9,1.9-13.3,1.9c-18.7,0-34.8-10.3-43.3-25.7C259.5,390,259.4,389.8,259.1,389.4L259.1,389.4z"/>
	<path fill="#F3AB4B" d="M346.1,390.6l-51,91c2.7,0.1,5.2,0.1,8.1,0.1c63,0,114.1-52.6,114.1-117.1c0-12.9-2-25.1-5.7-36.8h-73.5
		c9.1,9.3,15,22.2,15,36.8C353.1,374,350.4,383.2,346.1,390.6L346.1,390.6z"/>
</g>
</svg>
