<?xml version="1.0" encoding="utf-8"?>
<!-- Generator: Adobe Illustrator 18.0.0, SVG Export Plug-In . SVG Version: 6.00 Build 0)  -->
<!DOCTYPE svg PUBLIC "-//W3C//DTD SVG 1.1//EN" "http://www.w3.org/Graphics/SVG/1.1/DTD/svg11.dtd">
<svg height="30px" width="30px" version="1.1" id="Capa_1" xmlns="http://www.w3.org/2000/svg" xmlns:xlink="http://www.w3.org/1999/xlink" x="0px" y="0px"
	 viewBox="-4 86 620 620" enable-background="new -4 86 620 620" xml:space="preserve">
<g>
	<g id="c61_iphone">
		<path fill="#414141" d="M429,87.9H174.9c-24.3,0-43.9,20.3-43.9,45.2v529.7c0,24.9,19.6,45.1,43.9,45.1H429
			c24.3,0,43.9-20.3,43.9-45.1V133.1C473.1,108.2,453.4,87.9,429,87.9z M239.2,115.4h125.5c3.2,0,5.7,4.9,5.7,10.9
			c0,6-2.6,10.9-5.7,10.9H239.2c-3.2,0-5.7-4.9-5.7-10.9C233.6,120.3,236.1,115.4,239.2,115.4z M302,663.4
			c-15.5,0-28.1-12.9-28.1-28.9c0-15.9,12.6-28.8,28.1-28.8s28,12.9,28,28.8C330,650.5,317.4,663.4,302,663.4z M440.1,564.6H163.9
			V164.1h276.2V564.6z"/>
	</g>
	<g id="Capa_1_47_">
	</g>
</g>
<g>
	<path fill="#EA3939" d="M384.6,271c21.9,23.1,32.8,53.4,32.8,90.8c0,34.3-10.9,64-32.8,89.3c-21.9,25.3-49.5,38-83.1,38
		c-33.3,0-60.7-12.7-82.4-38c-21.6-25.3-32.5-55.2-32.5-89.3c0-37.6,10.8-67.8,32.1-90.8c21.4-23,49-34.6,82.8-34.6
		C335,236.4,362.7,247.9,384.6,271z M342.7,323.8c-1-10.1-2.9-20.1-5.8-29.8c-2.9-9.7-7.3-17.1-13.2-22.5c-6-5.2-13.4-7.9-22.2-7.9
		c-9,0-16.3,2.5-22.1,7.6s-10,12.5-12.6,22.5c-2.8,9.8-4.5,19.7-5.5,29.7c-1,9.8-1.5,21.9-1.5,36.1c0,8.9,0.1,16.4,0.4,22.5
		c0.3,6.1,0.9,13.6,1.7,22.2c0.7,8.6,2,16.1,3.8,21.9c1.7,6,4.1,11.8,7.1,17.6c3.1,5.8,7,10.1,11.8,13.1c4.8,3,10.3,4.5,16.7,4.5
		s12.1-1.5,17-4.5c4.9-3,9-7.3,11.9-13.1c3.1-5.8,5.5-11.6,7.4-17.4c1.9-5.8,3.3-13.3,4.4-21.9c1-8.6,1.5-16.3,1.7-22.5
		c0.1-6.3,0.3-13.7,0.3-22.2C344.1,345.8,343.7,333.9,342.7,323.8z"/>
</g>
</svg>
