<?xml version="1.0" encoding="utf-8"?>
<!-- Generator: Adobe Illustrator 18.0.0, SVG Export Plug-In . SVG Version: 6.00 Build 0)  -->
<!DOCTYPE svg PUBLIC "-//W3C//DTD SVG 1.1//EN" "http://www.w3.org/Graphics/SVG/1.1/DTD/svg11.dtd">
<svg height="30px" width="30px" version="1.1" id="Capa_1" xmlns="http://www.w3.org/2000/svg" xmlns:xlink="http://www.w3.org/1999/xlink" x="0px" y="0px"
	 viewBox="-4 86 620 620" enable-background="new -4 86 620 620" xml:space="preserve">
<g>
	<g>
		<g id="c61_iphone">
			<path fill="#414141" d="M430.7,86H173.3c-24.6,0-44.5,20.2-44.5,45.2v529.7c0,24.9,19.8,45.1,44.5,45.1h257.4
				c24.6,0,44.5-20.2,44.5-45.1V131.2C475.4,106.2,455.4,86,430.7,86z M238.4,113.4h127.1c3.3,0,5.8,4.8,5.8,11c0,6-2.7,11-5.8,11
				H238.4c-3.3,0-5.8-4.8-5.8-11C232.8,118.3,235.3,113.4,238.4,113.4z M302.1,661.4c-15.7,0-28.4-12.8-28.4-28.8
				c0-15.9,12.7-28.7,28.4-28.7s28.3,12.8,28.3,28.7S317.7,661.4,302.1,661.4z M442,562.5H162.1V162.2H442V562.5z"/>
		</g>
		<g id="Capa_1_47_">
		</g>
	</g>
</g>
<path fill="#26A6D1" d="M352.3,375.6h52.8c0.5-3.8,1-7.7,0.7-11.6c-2.1-40.5-27.3-76.1-63.4-88.3l2.8,0.5c0,0,66-28.7,43.7,35.8
	l2.7,4.5c0,0,20.3-49.6-11.1-57.8c-25.7-6.7-63.7,11.9-63.7,11.9l1.4,0.3c-2.4-0.2-4.7-0.3-7.2-0.3c-47,0-86.1,31.9-93.5,75.4
	c5.3-6,24.4-28,45.9-41.8c0,0-36.6,31.3-47.2,57.1c0,0-13.6,23.1-18,40.3c-2.7,10.4-9.6,47.9,18,52.2c28.8,4.5,51.5-10.2,51.5-10.2
	l-0.5-0.3c13.1,6.7,28,10.5,43.9,10.5c41.9,0,77.5-28,90-64.8h-54.3c-7.4,14.6-20.5,22.7-36,22.7c-20.6,0-35.6-12.1-39.5-36.1H352.3
	z M261.4,440.1c0,0-15.9,7.8-29.4,8.1c-41.1-0.4-10.3-56-10.3-56v0c7.3,20.1,21.5,37,39.8,48L261.4,440.1z M311.1,313.6
	c23.8,0,34.9,16.1,37.6,35.9h-76.9C275.9,329.9,289.5,313.6,311.1,313.6z"/>
</svg>
