<?xml version="1.0" encoding="utf-8"?>
<!-- Generator: Adobe Illustrator 18.0.0, SVG Export Plug-In . SVG Version: 6.00 Build 0)  -->
<!DOCTYPE svg PUBLIC "-//W3C//DTD SVG 1.1//EN" "http://www.w3.org/Graphics/SVG/1.1/DTD/svg11.dtd">
<svg height="30px" width="30px" version="1.1" id="Capa_1" xmlns="http://www.w3.org/2000/svg" xmlns:xlink="http://www.w3.org/1999/xlink" x="0px" y="0px"
	 viewBox="-4 167.9 620 620" enable-background="new -4 167.9 620 620" xml:space="preserve">
<g>
	<g id="c61_iphone">
		<path fill="#414141" d="M429,169H174.9c-24.3,0-43.9,20.3-43.9,45.2v529.7c0,24.9,19.6,45.1,43.9,45.1H429
			c24.3,0,43.9-20.3,43.9-45.1V214.2C473.1,189.3,453.4,169,429,169z M239.2,196.5h125.5c3.2,0,5.7,4.9,5.7,10.9
			c0,6-2.6,10.9-5.7,10.9H239.2c-3.2,0-5.7-4.9-5.7-10.9C233.6,201.3,236.1,196.5,239.2,196.5z M302,744.4
			c-15.5,0-28.1-12.9-28.1-28.9c0-15.9,12.6-28.8,28.1-28.8s28,12.9,28,28.8C330,731.6,317.4,744.4,302,744.4z M440.1,645.7H163.9
			V245.2h276.2V645.7z"/>
	</g>
	<g id="Capa_1_47_">
	</g>
</g>
<g>
	<path fill="#1EA8E0" d="M187.6,438.7l-0.1-76.3l91.5-12.8v89.1L187.6,438.7L187.6,438.7z M294.3,347.3l122-18.2v109.7h-122V347.3z
		 M416.5,454.4v109.7l-122-17.6v-92H416.5z M279.2,544.4l-91.5-12.8v-77.2h91.5V544.4z"/>
</g>
</svg>
