<?xml version="1.0" encoding="utf-8"?>
<!-- Generator: Adobe Illustrator 18.0.0, SVG Export Plug-In . SVG Version: 6.00 Build 0)  -->
<!DOCTYPE svg PUBLIC "-//W3C//DTD SVG 1.1//EN" "http://www.w3.org/Graphics/SVG/1.1/DTD/svg11.dtd">
<svg height="30px" width="30px" version="1.1" id="Capa_1" xmlns="http://www.w3.org/2000/svg" xmlns:xlink="http://www.w3.org/1999/xlink" x="0px" y="0px"
	 viewBox="-4 86 620 620" enable-background="new -4 86 620 620" xml:space="preserve">
<g>
	<g>
		<path fill="#404040" d="M471,86H129.1c-15.7,0-28.5,12.9-28.5,28.7v562.5c0,15.8,12.7,28.7,28.5,28.7h342
			c15.7,0,28.5-12.9,28.5-28.7V114.7C499.6,98.9,486.7,86,471,86z M246.9,125.3h106v7.7h-106V125.3L246.9,125.3z M297.8,675.7
			c-8.7,0-15.9-7.4-15.9-16.6c0-9.1,7.1-16.5,15.9-16.5s15.9,7.4,15.9,16.5C313.5,668.3,306.4,675.7,297.8,675.7z M480.2,613.4
			H119.7v-442h360.5V613.4z"/>
	</g>
</g>
<g>
	<path fill="#EA3939" d="M392.2,288.1c25,26.3,37.4,60.8,37.4,103.5c0,39.1-12.4,72.9-37.4,101.8c-25,28.9-56.5,43.3-94.7,43.3
		c-37.9,0-69.2-14.4-93.9-43.3c-24.7-28.9-37.1-62.9-37.1-101.8c0-42.8,12.3-77.3,36.6-103.5c24.3-26.2,55.8-39.4,94.4-39.4
		C335.6,248.7,367.2,261.8,392.2,288.1z M344.3,348.3c-1.2-11.6-3.3-22.9-6.6-34c-3.3-11-8.3-19.5-15.1-25.7c-6.8-5.9-15.2-9-25.3-9
		c-10.3,0-18.5,2.9-25.2,8.7c-6.6,5.8-11.4,14.3-14.4,25.7c-3.1,11.2-5.1,22.4-6.3,33.8c-1.2,11.2-1.7,25-1.7,41.1
		c0,10.2,0.2,18.7,0.5,25.7c0.3,7,1,15.5,2,25.3c0.8,9.9,2.3,18.4,4.3,25c2,6.8,4.6,13.4,8.1,20.1c3.5,6.6,7.9,11.6,13.4,15
		c5.5,3.4,11.8,5.1,19,5.1s13.7-1.7,19.4-5.1c5.6-3.4,10.3-8.3,13.6-15c3.5-6.6,6.3-13.3,8.4-19.9c2.2-6.6,3.8-15.1,5-25
		c1.2-9.9,1.7-18.5,2-25.7c0.2-7.1,0.3-15.6,0.3-25.3C346,373.5,345.5,359.9,344.3,348.3z"/>
</g>
</svg>
