<?xml version="1.0" encoding="utf-8"?>
<!-- Generator: Adobe Illustrator 18.0.0, SVG Export Plug-In . SVG Version: 6.00 Build 0)  -->
<!DOCTYPE svg PUBLIC "-//W3C//DTD SVG 1.1//EN" "http://www.w3.org/Graphics/SVG/1.1/DTD/svg11.dtd">
<svg height="30px" width="30px" version="1.1" id="Capa_1" xmlns="http://www.w3.org/2000/svg" xmlns:xlink="http://www.w3.org/1999/xlink" x="0px" y="0px"
	 viewBox="-4 86 620 620" enable-background="new -4 86 620 620" xml:space="preserve">
<g>
	<g>
		<path fill="#404040" d="M477.2,87.1H130.8c-15.9,0-28.9,12.9-28.9,28.7v562.5c0,15.8,12.9,28.7,28.9,28.7h346.5
			c15.9,0,28.9-12.9,28.9-28.7V115.8C506.2,100,493.1,87.1,477.2,87.1z M250.2,126.5h107.4v7.8H250.2V126.5L250.2,126.5z
			 M301.7,676.8c-8.8,0-16.1-7.4-16.1-16.6c0-9.1,7.2-16.5,16.1-16.5c8.9,0,16.1,7.4,16.1,16.5C317.7,669.4,310.5,676.8,301.7,676.8
			z M486.5,614.5H121.3V172.5h365.2V614.5z"/>
	</g>
</g>
<g>
	<g>
		<path fill="#4F9EFF" d="M441.2,396v-1.1c-0.2-12.4-2-24.6-5.5-36.4c-1.3-4.3-2.7-8.4-4.4-12.6c-3.3-8.2-7.5-16.2-12.3-23.6
			c-2.1-3.3-4.5-6.6-7-9.8c-6.8-8.6-14.5-16.5-23.1-23.2c-3.1-2.5-6.1-4.6-9.1-6.7c-22.6-15-48.8-22.9-75.9-22.9
			c-23.9,0-47.5,6.3-68.2,18.2c-3.3,1.9-6.6,4-9.7,6.1c-8.8,6.1-16.9,13.3-24.1,21.2c-2.8,3.1-5.4,6.4-7.9,9.6
			c-6.9,9.2-12.7,19.3-17,29.9c-1.6,4.1-3.2,8.3-4.5,12.6c-3.5,11.6-5.4,23.8-5.8,36.2v1.3c0,0.8-0.1,1.5-0.1,2.2
			c0,4,0.2,8,0.6,12.5c1.4,15,5.1,29.6,11.3,43.4c3.1,7,6.8,13.7,10.9,19.9c24.8,37.3,66.1,60.2,110.6,61.5h1.3v0.3l2-0.2h0.3l0,0
			c43.6,0,85-21,110.8-56.1c4.4-5.9,8.2-12.3,11.6-18.9c7.8-15.3,12.6-31.7,14.3-48.6c0.5-4.5,0.7-9.2,0.7-13.6
			C441.2,396.7,441.2,396.3,441.2,396z M430.4,421.2c-0.8,4-1.7,7.9-2.8,11.7l-9,4.9v6l3.4,4.5c-0.6,1.4-1.3,2.7-1.8,4.1l-5.3,0.1
			l-0.3-4.3l1.3,0.6l3-0.3l-0.3-4l-8.4,0.1l-2.3-3.1l0.1-1.6l-2.2-2c0.3-1.1,0.7-2.1,1-3.2l7.4,7.2l0.8-2.5l-5.7-8.3
			c7.5-3.9,13.7-7.6,19.2-11.3l2.9-2L430.4,421.2z M298.7,490.8l0.1,1.5l-1.5-0.1c-4.3-0.2-8.4-0.4-12.6-0.8l3.1-5.6l4.3-1v-5.1
			l2.8-3.4l3-4.2C298.1,478.3,298.4,484.5,298.7,490.8z M226.2,336l-1.1-0.8l0.6-1.1c5.2-9.5,11.5-19.1,18.7-28.4l0.9-1.1l1.2,0.9
			c4.3,3.1,9,5.9,14.2,8.4l1.2,0.6l-0.5,1.3c-0.3,0.8-0.6,1.6-0.9,2.4h-0.9l-8.8,4.5l-3.3,6l-5.8,2.3l-2.4,2.7l0.6,3.1l3,0.4
			l1.8,4.6l5.1-2.1l0.9,6.2h-1.5l-4.3-0.7l-2,0.4c-4.7-2.3-9.2-4.8-13.5-7.6l-0.3-1.4l-1.4,0.3C227.2,336.7,226.6,336.4,226.2,336z
			 M326,400.1c-3.2-1.5-15.4-7.5-15.4-7.7c0-0.4,0.1-6.7,0.1-6.7h3.6l0.5,4.5l7.5,4.4l8.5,0.4l13.9,2.3
			C338.5,398.7,332.2,399.5,326,400.1z M231.2,430.2h5.3l2.9,3l6.6,0.7c0.2,1.2,0.3,2.4,0.5,3.6l0.4,2.1l-2.1-0.6
			c-6.9-1.7-13.6-4-19.9-6.3h3.7L231.2,430.2z M275.9,386.8l-6.1-4.6l-6.4,0.7v4h-2l-2.2-1.6l-5.9-1.5c0.3-2.8,0.7-5.7,1.1-8.6
			l1.2,0.3l3.2-1.4l-0.1-3.9l1.5-0.7l-1.2-1.3l-3.2-1.8c0.3-1.5,0.5-2.9,0.8-4.4l0.3-1.5l0.3,0.1l0.6,0.6l4.7,4.2l0.2,5l4.8,5.2
			l1.8-7.3l3.4-1.8l0.6,5.9l3.3,3.7l10-0.2l2.9,2.2v5.3l-3.6,3.4L275.9,386.8L275.9,386.8z M256.6,370.9l-1.2,1.6h-0.8
			c0.1-0.9,0.3-1.7,0.4-2.7L256.6,370.9z M363.7,437.3c0.5-3.2,1-6.4,1.3-9.6l0.7,0.2l3.1-4.5l1.6-12.9l3.2-7l5.1-1.9l9,0.9
			l11.3,10.3v14.1c-10.4,4.8-21.7,8.9-33.6,12l-2.1,0.6L363.7,437.3z M371.2,314.5l-7.1-4.3c0.9-0.5,1.8-1,2.7-1.5l1.1-0.7l0.8,1.1
			c1.4,1.8,2.6,3.7,4,5.4H371.2L371.2,314.5z M330.7,322.3v1.4l-4.3,1.3l-0.2-1.8C327.8,322.9,329.2,322.6,330.7,322.3z
			 M295.1,401.1c-1.1,0-2-0.2-3.1-0.2l-4-7.6l1-1.2l7.4,9.1L295.1,401.1z M294.9,324.5l-0.4-1.1c0.7,0.1,1.4,0.2,2.1,0.3
			L294.9,324.5z M290.2,325.5l-4.2,3.3l-10.3-0.3l-0.5-2.3l10.6-0.5l2.2-1.9l-4.4-2c2.4,0.5,4.8,1,7.3,1.3L290.2,325.5z
			 M269.8,317.9L269.8,317.9h0.3H269.8z M218,350.2h1.8l5.1-3.8l0.1-1c0.9,0.6,1.6,1.1,2.5,1.6l-1.8,0.4l-0.4,4.5h3.7l4.8-0.5
			l0.4-0.5c0.6,0.3,1.3,0.6,1.8,1l-0.7,1l-6.5,1.1l-1,5.7l2.7,0.7l-0.8,3.7l-6.5-1.4l-5.9,1.4l-1.3,3.4l1.1,7.1l3.5,1.6h5.8l4-0.4
			l1.3-3.2l6.2-8.1l4.1,0.9l4-3.7l0.8,2.9l0.6,0.4c-0.7,3.6-1.4,7.1-1.8,10.6l-11.8,1l-4.4,2.4h-5.6l-2.8-0.3l-4.6,2.6
			c-2-1.1-4-2.1-5.9-3.3l-0.9-0.5l0.2-1C211.6,367.5,214.3,358.8,218,350.2z M221.2,342.9L221.2,342.9L221.2,342.9L221.2,342.9z
			 M210.1,386.9c1.4,0.8,2.7,1.5,4.1,2.1v0.3l-6.7,4.8c0.1-1.9,0.2-3.9,0.5-6.2l0.2-2.1L210.1,386.9z M216.7,438.7
			c9.8,4,20.2,7.3,31.1,9.9l0.9,0.2l0.2,0.9c1.2,5.2,2.5,10.6,4,15.9l-2.1,4.3l0.3,4.3l3.7,3.7v9.4c-6-1.3-12-2.7-17.8-4.4l-0.5-0.1
			l-0.3-0.4c-9.3-13.8-16.5-27.9-21.2-41.7l-1.1-3L216.7,438.7z M305.4,445.2c0-1,0-1.8,0-2.8l3.3-3.2l13-18.9l-2.5-1.2l-13.5,2.9
			l-0.6-0.3c0-1.8,0-3.6,0-5.3l1.5,1.6l6.6-0.5l12-8.9c9.7-0.9,19.1-2.4,28.4-4.6v1.2l-0.6,5.9l4.2,7c-0.6,7.4-1.5,14.9-2.9,22.4
			l-0.2,1l-1,0.2c-15,3.1-30.6,4.7-46.4,4.8h-1.4L305.4,445.2z M361.5,449.3l0.2-0.9l0.9-0.2c11-2.7,21.7-6.2,31.8-10.4l2.9-1.2
			l-1.1,3c-4.9,14.6-12.6,29.4-22.5,43.9l-0.3,0.5l-0.5,0.1c-6.4,1.7-13.5,3.2-20.9,4.5l-2.4,0.4l0.9-2.3
			C355.2,474.3,358.9,461.7,361.5,449.3z M424.3,369.2h4l1.6,1.3c1.1,5.1,1.8,10.4,2.3,15.6l-8-8.5l-0.1-8.1
			C424.1,369.3,424.2,369.2,424.3,369.2z M381.9,296.3l0.9-1l1.1,0.9c7.2,5.7,13.7,12.2,19.6,19.2l-4.2,4.3l-2.1-0.2l-6.6-4.9h-7.4
			c-2.3-3.6-4.8-7.1-7.5-10.6l-0.8-1.1l1-0.9C378.2,300.1,380.2,298.2,381.9,296.3z M360.6,281.5c5.1,2.5,9.8,5.1,14,7.9l1.5,1
			l-1.2,1.3c-1.1,1.2-2.3,2.2-3.6,3.3l-1.5,1.4l-1-1.2c-3.2-3.9-6.5-7.7-9.9-11.4l-5.2-5.6L360.6,281.5z M330.2,271.1
			c1.4,0.3,2.8,0.6,4.2,1l0.6,0.3c3.1,2.7,14.2,12.7,26.7,27.9l1.1,1.3l-1.4,0.9c-4.4,2.6-8.9,4.8-13.7,6.7l-1.3,0.5l-0.5-1.3
			c-6.3-15.2-12.8-27.5-17.1-35l-1.5-2.7L330.2,271.1z M307.6,314.3c0.9-19.7,1.6-35,2.2-44.4l0.1-1.5l1.5,0.1
			c1.5,0.1,2.9,0.2,4.4,0.3l0.7,0.1l0.4,0.6c3.4,5.5,12.2,20.6,20.7,40.9l0.6,1.5l-1.5,0.4c-4.5,1.1-8.9,1.9-13.5,2.5l-3.7-0.9
			l-0.4,1.3c-3.3,0.3-6.7,0.5-10.1,0.5h-1.5L307.6,314.3z M294,268.7h0.8c1.3-0.1,2.5-0.1,3.9-0.2l2.6-0.1l-0.1,1.5
			c-0.6,9.4-1.4,24.6-2.2,43.9l-0.1,1.5l-1.5-0.1c-7.7-0.8-15.5-2.4-22.9-4.8l-1.5-0.5l0.6-1.5c8.3-19.5,16.7-33.9,20-39.2
			L294,268.7z M274.9,271.8l2.1-0.6c1.1-0.2,2.1-0.4,3.2-0.7l3-0.6l-1.5,2.7c-4.1,7.1-10.1,18.5-16.2,32.7l-0.6,1.4l-1.4-0.7
			c-4.7-2.2-8.6-4.5-11.9-6.9l-1.3-0.9l1-1.2c11.1-13.2,20.8-21.9,23.9-24.6L274.9,271.8z M240,285.4c3.7-2.1,7.7-4.2,12.3-6.2
			l6.5-2.8l-4.8,5.1c-3,3.1-5.9,6.4-8.8,9.8l-1.1,1.3l-1.8-1.9c-1-1-1.9-2-2.7-3.1l-1-1.3L240,285.4z M205.7,314
			c7.2-8.5,15.5-16.1,24.7-22.5l1.2-0.8l0.9,1.1c1.5,2.1,3.4,4.3,5.5,6.4l0.9,0.9l-0.8,1c-7.2,9.2-13.5,18.6-18.8,28.2l-0.9,1.5
			l-1.4-1.3c-4.5-4.2-8.2-8.4-11.3-12.9l-0.6-0.9L205.7,314z M182.6,354.1c3.9-10.9,9.2-21.2,15.9-30.8l1.2-1.5l1.2,1.5
			c3.5,4.6,7.7,9.1,12.7,13.4l0.9,0.7l-0.5,1c-5.1,10.6-9,21.2-11.4,31.6l-0.5,2l-1.7-1.3c-6.6-4.7-12.4-9.9-17.2-15.2l-0.6-0.7
			L182.6,354.1z M175.5,405.1v-0.6c-0.1-2.4-0.2-4.9-0.2-7.4c0-10.2,1.3-20.4,3.7-30.5l0.6-2.4l1.7,1.7c5.3,5.1,11.4,10.1,18.2,14.6
			l0.8,0.5l-0.1,0.9c-0.8,5.3-1.2,10.2-1.3,15c-0.1,7.3,0.5,14.8,1.6,22.5l0.5,2.9l-2.6-1.5c-8.3-4.6-16-9.9-22.6-15.3L175.5,405.1z
			 M195.9,466.5l-0.3-0.2l-0.2-0.3c-9-14.1-15-29.5-18-46l-0.6-3.5l2.8,2c7.1,5,14.9,9.7,23.3,13.8l0.6,0.3l0.2,0.6
			c3.7,13.8,9.7,27.9,17.6,41.7l2,3.5l-3.8-1.4C211.1,474,203.2,470.4,195.9,466.5z M243,510.4c-12.1-6.5-22.9-14.8-32.3-24.7
			l-4.5-4.7l6.1,2.4c5.3,2.1,11.2,4.3,17.9,6.3l0.5,0.1l0.3,0.4c4.3,6.2,9,12.2,13.8,18l4.9,5.8L243,510.4z M273,522
			c-1.4-0.3-2.6-0.7-4-1.1l-0.6-0.3c-1.1-1-10.6-9.7-21.9-23.9l-2.5-3.2l4,0.9c3.6,0.9,7.4,1.5,11.3,2.2v6.4h7.1
			c2.6,5.8,5.3,11.5,8.2,16.8l1.5,2.8L273,522z M299.2,525.7c-3.8-0.1-7.6-0.5-11.3-1l-0.7-0.1l-0.4-0.6
			c-1.7-2.9-6.4-10.9-11.7-22.6l2.1-2.2c6.9,0.8,13.8,1.3,20.7,1.5l1.3,0.1l0.1,1.3c0.5,8.8,1,16.3,1.4,21.9l0.1,1.5L299.2,525.7z
			 M307.3,491.2c0-0.4,0-0.7-0.1-1.1l1.6-2.7l6.4-9.5l3.1-14.9h-3.9l-3.8,7.6l-4.4-0.6c-0.2-4.5-0.4-9-0.5-13.5v-1.5h1.5
			c14.3-0.1,28.8-1.5,43.1-4.3l2.1-0.4l-0.5,2.1c-2.9,12.4-6.9,24.9-11.8,37.2l-0.3,0.8l-0.9,0.1c-10.2,1.3-20.3,1.8-30.3,1.9h-1.4
			L307.3,491.2z M323.2,524.2l-0.7,0.1c-3.9,0.6-7.8,1-11.8,1.2l-1.4,0.1l-0.1-1.4c-0.4-5.5-0.9-12.8-1.4-21.6l-0.1-1.5h1.5
			c7.9-0.1,16.1-0.5,24.2-1.3l2.5-0.2l-1.1,2.2c-4.9,10.7-9.2,18.3-11.3,21.8L323.2,524.2z M343.7,519.3l-0.6,0.3
			c-1.6,0.6-3.4,1-5.1,1.5l-3.6,1l1.5-2.9c3.4-6.3,6.7-13.2,9.7-20.1l0.3-0.7l0.8-0.1c5.8-0.9,10.6-1.6,15.1-2.6l3.9-0.8l-2.5,3.1
			C354.3,508.9,346.6,516.6,343.7,519.3z M393.2,489.8c-6.6,6.4-14.2,12.2-22.7,17.4l-7.2,4.4l5.3-6.5c3.5-4.3,7-8.7,10.2-13.3
			l0.3-0.4l0.5-0.1c4.6-1.4,8.6-2.6,12.3-3.9l6.1-2.1L393.2,489.8z M409.2,471.1l-0.2,0.3l-0.4,0.2c-5.5,2.5-11.5,4.9-18.6,7.4
			l-3.7,1.3l2-3.4c6.5-10.8,11.6-21.9,15.4-32.8l6.1,7.6l2.2,0.8v1.1h-2.9l0.8,2.3l8.4,0.4C415.6,461.2,412.6,466.2,409.2,471.1z
			 M432.4,405.6v0.6l-0.5,0.4c-4.4,3.5-9.1,6.7-14.1,9.9l0,0l-6.7-5.4c0.3-3.2,0.5-6.3,0.6-9.4l0.3-0.3l4,1.3l-0.3,2.7l2.2,3.5
			l2-1.5l-1.1-4.2l11-4.1l3-2.6c0,0.1,0,0.3,0,0.4C432.7,399.6,432.6,402.3,432.4,405.6z"/>
		<polygon fill="#4F9EFF" points="372.7,430.2 373.2,425.2 369.3,424.4 366.6,428.4 367.9,432.1 		"/>
	</g>
</g>
</svg>
