<?xml version="1.0" encoding="utf-8"?>
<!-- Generator: Adobe Illustrator 18.0.0, SVG Export Plug-In . SVG Version: 6.00 Build 0)  -->
<!DOCTYPE svg PUBLIC "-//W3C//DTD SVG 1.1//EN" "http://www.w3.org/Graphics/SVG/1.1/DTD/svg11.dtd">
<svg height="30px" width="30px" version="1.1" id="Capa_1" xmlns="http://www.w3.org/2000/svg" xmlns:xlink="http://www.w3.org/1999/xlink" x="0px" y="0px"
	 viewBox="-4 86 620 620" enable-background="new -4 86 620 620" xml:space="preserve">
<g>
	<g>
		<path fill="#404040" d="M471,101H129.1c-15.7,0-28.5,12.3-28.5,27.5v539c0,15.1,12.7,27.5,28.5,27.5h342
			c15.7,0,28.5-12.3,28.5-27.5v-539C499.6,113.3,486.7,101,471,101z M246.9,138.7h106v7.4h-106V138.7L246.9,138.7z M297.8,666
			c-8.7,0-15.9-7.1-15.9-15.9c0-8.7,7.1-15.8,15.9-15.8s15.9,7.1,15.9,15.8C313.5,658.9,306.4,666,297.8,666z M480.2,606.3H119.7
			V182.8h360.5V606.3z"/>
	</g>
</g>
<g>
	<path fill="#0CA3D1" d="M297.1,529.3c73.1,0,133.1-61.5,133.1-136.6c0-75.3-59.9-136.8-133.1-136.8c-73.4,0-133.3,61.5-133.3,136.8
		C163.8,467.8,223.7,529.3,297.1,529.3L297.1,529.3z"/>
	<path fill="#E17842" d="M286.3,415.5c-17.9,10.5-42.6-11-42.6-18.6c0.2-6.2,2.6-10.1,7.2-11c4.4,0,13,1.2,19.7,3.4
		c1.2-7.3-0.2-16-4.9-22c0-1.5,15.3-12.3,17.8-13.8c2.3-1.2,3.3-3.2,3.8-5.6c1.8-1.9,2.3-5.6-0.5-5.6c-1.5,0.2-11-0.2-14.3-0.7
		c-4.4-1.5-14.3-11.7-17.3-15.7c2.6-14.4,7.7-21.3,19.7-29.6c-13,1.2-29.8,6.6-40.3,16.9c-7.2-2.7-21.2,0.7-27.2,3.4
		c-9.4-4.4-12.5-20.6-14-30.2c-9.9,9.1-16.8,21.8-16.5,47c-8.6,17.9-13.2,38-13.2,59.3c0,75.3,59.7,136.6,133.3,136.6
		c73.4,0,133.1-61.3,133.1-136.6c0-32.8-11-62.7-29.8-86.1c5.3,9.5,8.2,18.6,8.2,24.5c-10.7-34.8-56-49.3-81.5-48
		c10.4,1.9,25.7,6.1,30.4,16.7c-5.9-1.7-14-0.7-17.9,1.7c31.1,9.5,55.5,32.8,53.3,53.2c-2.6-4.4-6.9-7.8-11.5-8.4
		c5.6,22.5,6.4,40.9,1.6,55.7c-2.6-9.6-6.4-16-8.9-17.7c4.3,28.5-0.7,52.9-14,67.6c2.3-8.8,3.1-16.2,2.3-22
		c-15.6,24-32.6,36.3-52.7,37c-19.7-0.2-35.9-7.3-50-21.8c12.5,1.2,25.7,1,35.4-6.1l16.3-11.8c1.5-0.7,5.3-0.7,6.6,0
		c4.3-0.5,5.3-3.5,3.3-6.6c-1.8-2.9-4.3-5.4-8.2-7.4C304.9,408.6,295.7,409.4,286.3,415.5L286.3,415.5z"/>
</g>
</svg>
