<?xml version="1.0" encoding="utf-8"?>
<!-- Generator: Adobe Illustrator 18.0.0, SVG Export Plug-In . SVG Version: 6.00 Build 0)  -->
<!DOCTYPE svg PUBLIC "-//W3C//DTD SVG 1.1//EN" "http://www.w3.org/Graphics/SVG/1.1/DTD/svg11.dtd">
<svg height="30px" width="30px" version="1.1" id="Capa_1" xmlns="http://www.w3.org/2000/svg" xmlns:xlink="http://www.w3.org/1999/xlink" x="0px" y="0px"
	 viewBox="-4 86 620 620" enable-background="new -4 86 620 620" xml:space="preserve">
<g>
	<g>
		<path fill="#404040" d="M471,86H129.1c-15.7,0-28.5,12.9-28.5,28.7v562.5c0,15.8,12.7,28.7,28.5,28.7h342
			c15.7,0,28.5-12.9,28.5-28.7V114.7C499.6,98.9,486.7,86,471,86z M246.9,125.3h106v7.7h-106V125.3L246.9,125.3z M297.8,675.7
			c-8.7,0-15.9-7.4-15.9-16.6c0-9.1,7.1-16.5,15.9-16.5s15.9,7.4,15.9,16.5C313.5,668.3,306.4,675.7,297.8,675.7z M480.2,613.4
			H119.7v-442h360.5V613.4z"/>
	</g>
</g>
<path fill="#26A6D1" d="M361.8,407.4h65.7c0.6-4.7,1.2-9.5,0.9-14.4c-2.6-50.4-33.9-94.6-78.8-109.7l3.5,0.7c0,0,82-35.6,54.3,44.5
	l3.4,5.5c0,0,25.2-61.6-13.8-71.9c-32-8.3-79.2,14.8-79.2,14.8l1.8,0.4c-2.9-0.2-5.9-0.4-8.9-0.4c-58.4,0-106.9,39.6-116.2,93.6
	c6.6-7.4,30.4-34.8,57-51.9c0,0-45.5,38.9-58.7,70.9c0,0-16.9,28.6-22.4,50.1c-3.4,13-11.9,59.5,22.4,64.9c35.8,5.6,64-12.7,64-12.7
	l-0.7-0.4c16.3,8.3,34.9,13.1,54.5,13.1c52.1,0,96.3-34.8,111.8-80.6H355c-9.2,18.1-25.4,28.2-44.7,28.2c-25.5,0-44.3-15-49.1-44.9
	H361.8z M248.8,487.6c0,0-19.8,9.7-36.5,10.1c-51-0.5-12.8-69.5-12.8-69.5V428c9,24.9,26.7,45.9,49.4,59.6L248.8,487.6z
	 M310.6,330.4c29.6,0,43.4,20,46.7,44.6h-95.6C266.9,350.6,283.8,330.4,310.6,330.4z"/>
</svg>
