<?xml version="1.0" encoding="utf-8"?>
<!-- Generator: Adobe Illustrator 18.0.0, SVG Export Plug-In . SVG Version: 6.00 Build 0)  -->
<!DOCTYPE svg PUBLIC "-//W3C//DTD SVG 1.1//EN" "http://www.w3.org/Graphics/SVG/1.1/DTD/svg11.dtd">
<svg height="30px" width="30px" version="1.1" id="Capa_1" xmlns="http://www.w3.org/2000/svg" xmlns:xlink="http://www.w3.org/1999/xlink" x="0px" y="0px"
	 viewBox="-4 86 620 620" enable-background="new -4 86 620 620" xml:space="preserve">
<g>
	<g>
		<path fill="#404040" d="M471,87H129.1c-15.7,0-28.5,12.9-28.5,28.7v562.5c0,15.8,12.7,28.7,28.5,28.7h342
			c15.7,0,28.5-12.9,28.5-28.7V115.7C499.6,99.9,486.7,87,471,87z M246.9,126.3h106v7.7h-106V126.3L246.9,126.3z M297.8,676.7
			c-8.7,0-15.9-7.4-15.9-16.6c0-9.1,7.1-16.5,15.9-16.5s15.9,7.4,15.9,16.5C313.5,669.3,306.4,676.7,297.8,676.7z M480.2,614.4
			H119.7v-442h360.5V614.4z"/>
	</g>
</g>
<g>
	<path fill="#188FD1" d="M266.6,321c-10.4,13.7-16.6,29.1-18.8,46.4c34.6,0,68.9,0,103.3,0c0-4.2,0.5-8.6-0.2-12.6
		c-0.9-5.4-1.7-11.1-3.6-16.3c-6.7-19.1-20.4-29.8-39.7-33.2c-28.2-4.7-54.4,2.6-79.4,15.1c-25.5,12.6-46.2,31.3-62.4,55
		c-0.9,1.2-1.7,2.3-2.6,3.5c-0.3,0-0.5-0.2-0.9-0.2c1-6,1.9-11.9,3.3-17.9c7.4-33.7,23.3-62.2,49.6-84.1
		c19.3-16.2,41.6-24.9,66-28.4c34.4-4.9,66.2,2.3,94.9,22.3c28.6,19.7,45.3,47.8,52.7,81.8c2.4,10.9,2.9,22.3,3.4,33.5
		c0.7,10.2,0.3,20.4,0.5,30.7c0,1.6,0,3,0,4.7c-61.4,0-122.7,0-183.9,0c-0.5,8.3,0.9,15.8,3.8,23c7.7,19,22.2,30.6,41.1,35.5
		c33.5,9.1,66.2,5.3,97.7-9.3c4.4-2.1,8.7-4.6,13-6.8c0.9-0.5,1.9-1.1,3.6-1.9c0,1.9,0,3.3,0,4.6c0,18.1,0,36.3,0,54.4
		c0,3.3-1,5.3-4.1,6.7c-21,10.4-43.1,16.5-66.4,18.6c-20.5,1.8-40.7,1.6-60.4-5.1c-40.5-13.7-68.1-40.9-78-84.1
		c-13-56.2,11.8-111.1,65.7-135.4C265.6,321.4,266.1,321.2,266.6,321z"/>
</g>
</svg>
