<?xml version="1.0" encoding="utf-8"?>
<!-- Generator: Adobe Illustrator 18.0.0, SVG Export Plug-In . SVG Version: 6.00 Build 0)  -->
<!DOCTYPE svg PUBLIC "-//W3C//DTD SVG 1.1//EN" "http://www.w3.org/Graphics/SVG/1.1/DTD/svg11.dtd">
<svg height="30px" width="30px" version="1.1" id="Capa_1" xmlns="http://www.w3.org/2000/svg" xmlns:xlink="http://www.w3.org/1999/xlink" x="0px" y="0px"
	 viewBox="-4 86 620 620" enable-background="new -4 86 620 620" xml:space="preserve">
<g>
	<g>
		<path fill="#404040" d="M471,88H129.1c-15.7,0-28.5,12.9-28.5,28.7v562.5c0,15.8,12.7,28.7,28.5,28.7h342
			c15.7,0,28.5-12.9,28.5-28.7V116.7C499.6,100.9,486.7,88,471,88z M246.9,127.3h106v7.7h-106V127.3L246.9,127.3z M297.8,677.7
			c-8.7,0-15.9-7.4-15.9-16.6c0-9.1,7.1-16.5,15.9-16.5s15.9,7.4,15.9,16.5C313.5,670.3,306.4,677.7,297.8,677.7z M480.2,615.4
			H119.7v-442h360.5V615.4z"/>
	</g>
</g>
<g>
	<path fill="#0CA3D1" d="M301.2,440.5c23.6,0,42.8-19.7,42.8-43.9c0-24.4-19.2-44.1-42.8-44.1c-23.8,0-43,19.7-43,44.1
		C258.2,420.8,277.4,440.5,301.2,440.5L301.2,440.5z"/>
	<path fill="#E1584B" d="M242.9,381.2c6.8-26.7,30.1-46.4,58.3-46.4h123.2c-22.1-46.6-69-79-123.2-79c-40.8,0-77.3,18.1-102.3,46.9
		L242.9,381.2z"/>
	<path fill="#36B39B" d="M248.4,426.4l-61-108.6c-14.8,22.7-23.6,49.5-23.6,79c0,67.8,46.9,124.3,109.1,137.6L317,456
		c-5.1,1.6-10.7,2.3-16,2.3c-22.4,0-41.8-12.4-52-30.9C248.9,427.1,248.7,426.9,248.4,426.4L248.4,426.4z"/>
	<path fill="#F3AB4B" d="M352.7,427.8l-61.2,109.1c3.2,0.2,6.3,0.2,9.7,0.2c75.6,0,136.9-63.1,136.9-140.5c0-15.5-2.4-30.2-6.8-44.1
		h-88.2c10.9,11.2,18,26.7,18,44.1C361.2,407.9,357.9,418.9,352.7,427.8L352.7,427.8z"/>
</g>
</svg>
