<?xml version="1.0" encoding="utf-8"?>
<!-- Generator: Adobe Illustrator 18.0.0, SVG Export Plug-In . SVG Version: 6.00 Build 0)  -->
<!DOCTYPE svg PUBLIC "-//W3C//DTD SVG 1.1//EN" "http://www.w3.org/Graphics/SVG/1.1/DTD/svg11.dtd">
<svg height="30px" width="30px" version="1.1" id="Capa_1" xmlns="http://www.w3.org/2000/svg" xmlns:xlink="http://www.w3.org/1999/xlink" x="0px" y="0px"
	 viewBox="-4 86 620 620" enable-background="new -4 86 620 620" xml:space="preserve">
<g>
	<g>
		<path fill="#404040" d="M471,86H129.1c-15.7,0-28.5,12.9-28.5,28.7v562.5c0,15.8,12.7,28.7,28.5,28.7h342
			c15.7,0,28.5-12.9,28.5-28.7V114.7C499.6,98.9,486.7,86,471,86z M246.9,125.3h106v7.7h-106V125.3L246.9,125.3z M297.8,675.7
			c-8.7,0-15.9-7.4-15.9-16.6c0-9.1,7.1-16.5,15.9-16.5s15.9,7.4,15.9,16.5C313.5,668.3,306.4,675.7,297.8,675.7z M480.2,613.4
			H119.7v-442h360.5V613.4z"/>
	</g>
</g>
<g>
	<g>
		<polygon fill="#4F9EFF" points="386.6,439.6 387.2,433 382.3,431.9 378.9,437.1 380.6,441.9 		"/>
	</g>
</g>
<g>
	<g id="android">
		<path fill="#30BF44" d="M213.3,478c0,8.7,5.8,14.5,14.5,14.5h14.5v50.7c0,11.4,10,21.8,21.8,21.8c11.4,0,21.8-10,21.8-21.8v-50.7
			h28.7v50.7c0,11.4,10,21.8,21.8,21.8c11.4,0,21.8-10,21.8-21.8v-50.7h14.5c8.7,0,14.5-5.8,14.5-14.5V333.5H213.8L213.3,478
			L213.3,478z M177,333.3c-11.4,0-21.8,10-21.8,21.8v101.1c0,11.4,10,21.8,21.8,21.8c11.4,0,21.8-10,21.8-21.8V355.1
			C199,343.4,188.8,333.3,177,333.3z M423.1,333.3c-11.4,0-21.8,10-21.8,21.8v101.1c0,11.4,10,21.8,21.8,21.8
			c11.4,0,21.8-10,21.8-21.8V355.1C444.5,343.4,434.5,333.3,423.1,333.3z M350.8,249.6l18.9-18.9c3.1-3.1,3.1-7.3,0-10
			c-3.1-2.9-7.3-3.1-10,0l-21.8,21.8c-10-7.3-23-10-37.4-10s-27.4,3.1-39,8.7l-20.3-21.8c-3.1-1.4-8.7-1.4-11.4,0
			c-1.4,3.1-1.4,8.7,0,11.4l18.9,18.9c-20.3,15.8-34.7,40.5-34.7,69.2h173.2C386.8,290.1,372.4,264.1,350.8,249.6z M271.1,290.1
			h-14.5v-14.5h14.5V290.1z M343.4,290.1H329v-14.5h14.5V290.1z"/>
	</g>
</g>
</svg>
