<?xml version="1.0" encoding="utf-8"?>
<!-- Generator: Adobe Illustrator 18.0.0, SVG Export Plug-In . SVG Version: 6.00 Build 0)  -->
<!DOCTYPE svg PUBLIC "-//W3C//DTD SVG 1.1//EN" "http://www.w3.org/Graphics/SVG/1.1/DTD/svg11.dtd">
<svg height="30px" width="30px" height="30px" width="30px"  version="1.1" id="Capa_1" xmlns="http://www.w3.org/2000/svg" xmlns:xlink="http://www.w3.org/1999/xlink" x="0px" y="0px"
	 viewBox="-4 86 620 620" enable-background="new -4 86 620 620" xml:space="preserve">
<g>
	<g>
		<path fill="#404040" d="M471,87H129.1c-15.7,0-28.5,12.9-28.5,28.7v562.5c0,15.8,12.7,28.7,28.5,28.7h342
			c15.7,0,28.5-12.9,28.5-28.7V115.7C499.6,99.9,486.7,87,471,87z M246.9,126.3h106v7.7h-106V126.3L246.9,126.3z M297.8,676.7
			c-8.7,0-15.9-7.4-15.9-16.6c0-9.1,7.1-16.5,15.9-16.5s15.9,7.4,15.9,16.5C313.5,669.3,306.4,676.7,297.8,676.7z M480.2,614.4
			H119.7v-442h360.5V614.4z"/>
	</g>
</g>
<g>
	<path fill="#E6E6E6" d="M396.1,296.7c-27.1-27.8-59.5-41.5-97.4-41.5c-6.8,0-13.5,0.7-20.1,1.8c-0.3-0.3-0.6-0.8-0.6-1.1
		c4.1-3.1,5.7-6.7,4.6-10.6c-1.1-5.9-5.6-8.8-13.2-8.8c-1.6,0-3,0.2-4.6,0.7c-4.3,0.8-7.6,2.6-10,5.6c-2.5,2.9-3.3,6-2.5,9.2
		c0.8,4.4,3.7,7,8.6,8.3v0.7c-29.1,8.7-53,25.5-71.8,50.7c-18.8,25.2-28.2,53.6-28.2,85.5c0,38.9,13.5,72.2,40.4,100
		c26.9,27.8,59.5,41.5,97.4,41.5s70.4-13.9,97.4-41.5c27.1-27.8,40.4-61.1,40.4-100S423.1,324.4,396.1,296.7z M372.9,472.7
		c-12.6,12.9-27.5,22.1-44.9,27.1l-12.1-20.6l-3.5,23.5c-4.6,0.8-9.2,1.1-13.9,1.1c-28.7,0-53.5-10.5-74.2-31.2
		c-12.6-12.9-21.5-28.3-26.4-46.1l20.1-12.4l-22.9-3.6c-0.8-4.7-1.1-9.5-1.1-14.2c0-29.4,10.2-54.9,30.4-76.2
		c12.6-12.9,27.5-22.1,44.9-27.1l12.1,20.6l3.5-23.5c4.6-0.8,9.2-1.1,13.9-1.1c28.7,0,53.5,10.5,74.2,31.2
		c12.6,12.9,21.5,28.3,26.4,46.1l-20.1,12.4l22.9,3.6c0.8,4.7,1.1,9.5,1.1,14.2C403.3,426.2,393.1,451.5,372.9,472.7z"/>
	<path d="M275.8,381.2c-4.3,6.7-5.6,13.7-4,21.2c0.3,1.6,1,3.3,1.8,5.2l15.4-21.2l20.7-15.9c-2.2-1.1-4.8-2-7.5-2.3
		c-1.1,0-2.2,0-3.5,0c-1.9,0-3.8,0.2-5.7,0.7C285.6,370.4,279.9,374.7,275.8,381.2z"/>
	<path d="M324,407.9c2.2-5.6,2.9-11.3,1.8-17.2c-0.3-1.6-1-3.3-1.8-5.2l-15.4,21.2l-20.7,15.9c2.2,1.1,4.8,2,7.5,2.3
		c1.1,0,2.2,0,3.5,0c1.9,0,3.8-0.2,5.7-0.7c3-0.8,5.9-2,8.6-3.6C318.1,417.7,321.6,413.4,324,407.9z"/>
	<path fill="#188FD1" d="M422.3,379.6l-27.5-4.2l24-14.9c-5.9-21.1-16.6-39.5-31.5-54.9c-24.7-24.8-54.3-37.4-88.5-37.4
		c-5.6,0-11,0.5-16.6,1.5l-4.1,28.3l-14.5-24.7c-20.5,6-38.5,17-53.5,32.4c-24.2,25.3-36.5,55.7-36.5,90.9c0,5.7,0.5,11.3,1.4,17
		l27.5,4.2l-24,14.9c5.9,21.1,16.6,39.5,31.5,54.9c24.7,24.8,54.3,37.4,88.5,37.4c5.6,0,11-0.5,16.6-1.5l4.1-28.3l14.5,24.7
		c20.5-6,38.5-17,53.5-32.4c24.2-25.3,36.5-55.7,36.5-90.9C423.7,390.9,423.2,385.2,422.3,379.6z"/>
	<path opacity="0.2" enable-background="new    " d="M341.9,412.8l-20.2-16.5c0-0.3,0-0.5-0.2-0.8l35.5-26.8l-42.7,10.6
		c-0.2-0.2-0.3-0.3-0.6-0.5l0.6-26.6l-16.1,20.8c-0.3,0-0.5,0-0.8,0.2l-26-36.3l10.3,43.8c-0.2,0.2-0.3,0.3-0.5,0.7l-26-0.7
		l20.2,16.5c0,0.3,0,0.5,0.2,0.8l-35.5,26.8l42.7-10.6c0.2,0.2,0.3,0.3,0.6,0.5l-0.6,26.6l16.1-20.8c0.3,0,0.5,0,0.8-0.2l26.1,36.4
		l-10.3-43.8c0.2-0.2,0.3-0.3,0.5-0.7L341.9,412.8z M298.7,415.5c-10.2,0-18.5-8.5-18.5-18.8s8.3-18.8,18.5-18.8
		c10.2,0,18.3,8.5,18.3,18.8S308.9,415.5,298.7,415.5z"/>
	<polygon fill="#EA3939" points="307.9,406.1 370.2,323.2 289.5,387.3 	"/>
	<polygon fill="#FFFFFF" points="289.5,387.3 227.2,470 307.9,406.1 	"/>
</g>
</svg>
