<?xml version="1.0" encoding="iso-8859-1"?>
<!-- Generator: Adobe Illustrator 19.0.0, SVG Export Plug-In . SVG Version: 6.00 Build 0)  -->
<svg xmlns="http://www.w3.org/2000/svg" xmlns:xlink="http://www.w3.org/1999/xlink" version="1.1" id="Layer_1" x="0px" y="0px" viewBox="0 0 455 455" style="enable-background:new 0 0 455 455;" xml:space="preserve" width="512px" height="512px">
<g>
	<path d="M231.035,208.362c0-46.827,32.692-86.16,76.45-96.38C285.346,51.133,227.002,7.672,158.5,7.672   C70.963,7.672,0,78.635,0,166.172s70.963,158.5,158.5,158.5c41.171,0,78.665-15.708,106.845-41.444   C244.344,265.067,231.035,238.24,231.035,208.362z M173.5,181.172H50v-30h93.5v-93.5h30V181.172z" fill="#69a8f5"/>
	<path d="M345,323.227v84.101h-30v-84.101c-61.962,7.412-110,60.143-110,124.101h250C455,383.369,406.962,330.638,345,323.227z" fill="#69a8f5"/>
	<circle cx="330" cy="208.362" r="68.966" fill="#69a8f5"/>
</g>
<g>
</g>
<g>
</g>
<g>
</g>
<g>
</g>
<g>
</g>
<g>
</g>
<g>
</g>
<g>
</g>
<g>
</g>
<g>
</g>
<g>
</g>
<g>
</g>
<g>
</g>
<g>
</g>
<g>
</g>
</svg>
