<?xml version="1.0" encoding="utf-8"?>
<!-- Generator: Adobe Illustrator 23.1.0, SVG Export Plug-In . SVG Version: 6.00 Build 0)  -->
<svg version="1.1" id="Layer_1" xmlns="http://www.w3.org/2000/svg" xmlns:xlink="http://www.w3.org/1999/xlink" x="0px" y="0px"
	 viewBox="0 0 120 120" style="enable-background:new 0 0 120 120;" xml:space="preserve">
<style type="text/css">
	.st0{fill:#FFFFFF;}
</style>
<g>
	<g>
		<path class="st0" d="M25.6,93.9c0,3.6,0,7.2,0,10.8c0,1.5-0.6,2.1-2.1,2.1c-2.9,0-5.8,0-8.7,0c-1.4,0-2-0.6-2-2.1
			c0-7.3,0-14.6,0-21.9c0-1.4,0.7-2,2-2c3,0,5.9,0,8.9,0c1.3,0,2,0.7,2,2C25.7,86.6,25.6,90.3,25.6,93.9
			C25.6,93.9,25.6,93.9,25.6,93.9z M22,103.2c0-6.3,0-12.5,0-18.7c-1.9,0-3.7,0-5.6,0c0,6.2,0,12.4,0,18.7
			C18.3,103.2,20.1,103.2,22,103.2z"/>
		<path class="st0" d="M30.3,95.7c0-3,0-6,0-9c0-1.6,0.6-2.1,2.1-2.2c2.5,0,4.9,0,7.4,0c1.5,0,2.1,0.7,2.1,2.2c0,6,0,12.1,0,18.1
			c0,1.5-0.6,2.1-2.1,2.1c-2.4,0-4.9,0-7.3,0c-1.6,0-2.2-0.6-2.2-2.2C30.3,101.7,30.3,98.7,30.3,95.7C30.3,95.7,30.3,95.7,30.3,95.7
			z M38.3,103.2c0-5,0-10,0-15.1c-1.5,0-2.9,0-4.4,0c0,5.1,0,10.1,0,15.1C35.4,103.2,36.8,103.2,38.3,103.2z"/>
		<path class="st0" d="M47.6,97.2c0-2.5,0-5,0-7.5c0-1.5,0.6-2.1,2.1-2.1c2.6,0,5.1,0,7.7,0c1.3,0,2,0.7,2,2c0,5.1,0,10.2,0,15.3
			c0,1.3-0.6,2-2,2c-2.6,0-5.3,0-7.9,0c-1.3,0-2-0.7-2-2C47.6,102.3,47.6,99.8,47.6,97.2z M55.8,91.2c-1.6,0-3,0-4.5,0c0,4,0,8,0,12
			c1.5,0,3,0,4.5,0C55.8,99.2,55.8,95.2,55.8,91.2z"/>
	</g>
	<path class="st0" d="M67.7,19.7c0-0.5-0.1-1,0-1.4c0.6-1.7,2.1-0.8,3.2-1c0.8-0.1,1.3,0.4,1.4,1.2c0.1,0.9-0.1,2.1,0.4,2.6
		c0.5,0.6,1.7,0.5,2.6,0.7c0.9,0.2,1.8,0.5,2.7,0.7c0.8,0.3,1.2,0.8,0.9,1.7c-0.2,0.9-0.4,1.7-0.7,2.6c-0.3,1.1-0.8,1.2-2,1
		c-1.8-0.4-3.7-0.8-5.6-1c-0.8-0.1-1.6,0.1-2.4,0.5c-1.8,0.8-2.1,2.9-0.5,4c1.3,0.9,2.7,1.4,4.1,2.1c1.5,0.7,3.1,1.3,4.6,2.1
		c5.8,3.2,5.2,11.7-0.2,14.6c-0.9,0.5-1.9,0.9-2.9,1.2c-0.8,0.2-1.1,0.7-1.1,1.5c0,0.7,0,1.5,0,2.2c-0.1,1.3-0.5,1.5-3.2,1.5
		c-1.4,0-1.9-0.4-2-1.6c-0.1-2.9-0.1-2.8-2.9-3.4c-1.3-0.3-2.6-0.7-3.9-1.1c-0.9-0.3-1.1-0.9-0.9-1.7c0.2-0.9,0.4-1.8,0.7-2.7
		c0.3-1.1,0.9-1.4,2-1c2.5,1,5,1.6,7.8,1.2c0.5-0.1,1-0.2,1.5-0.4c2.2-0.9,2.6-3.3,0.7-4.7c-1.2-0.8-2.6-1.3-3.9-1.9
		c-1.5-0.7-3.2-1.3-4.7-2.1c-5.5-3.3-5.3-10.6,0.3-13.8c0.6-0.3,1.3-0.6,1.9-0.9C67.7,21.7,67.7,21.7,67.7,19.7z"/>
	<g>
		<path class="st0" d="M41.9,62.2c-9.8,0-19.4,0-29.1,0c0-1.8,0-3.6,0-5.5c9.7,0,19.3,0,29.1,0C41.9,58.4,41.9,60.3,41.9,62.2z"/>
		<path class="st0" d="M12.8,73.2c0-1.8,0-3.6,0-5.5c7,0,14,0,21.1,0c0,1.8,0,3.6,0,5.5C26.9,73.2,19.9,73.2,12.8,73.2z"/>
		<path class="st0" d="M47.1,51c-11.5,0-22.8,0-34.3,0c0-1.8,0-3.6,0-5.5c11.4,0,22.8,0,34.3,0C47.1,47.3,47.1,49.1,47.1,51z"/>
	</g>
	<g id="aAI0g1_1_">
		<g>
			<path class="st0" d="M85.9,73.8c0,1.6,0,3.2,0,4.8c-0.2,0-0.4,0-0.6,0c-2.1,0-4.3,0-6.4,0c-1.7,0-2.7,1-2.7,2.7
				c0,1.5,0,2.9,0,4.4c0,0,0,0.1,0.1,0.1c12.9,0,25.8,0,38.8,0c0-0.1,0.1-0.3,0.1-0.4c0-1.4,0-2.9,0-4.3c0-1.6-1-2.5-2.6-2.6
				c-2.1,0-4.3,0-6.4,0c-0.2,0-0.4,0-0.7,0c0-1.6,0-3.2,0-4.9c0.2,0,0.4,0,0.6,0c2.1,0,4.3,0,6.4,0c4.3,0,7.5,3.1,7.5,7.5
				c0,7.7,0,15.5,0,23.2c0,2.7,0,5.4,0,8.2c0,3.7-2.5,6.6-6.2,7.3c-0.4,0.1-0.9,0.1-1.3,0.1c-11.2,0-22.4,0-33.6,0
				c-3.9,0-7-2.7-7.5-6.2c-0.1-0.6-0.1-1.3-0.1-1.9c0-10.2,0-20.5,0-30.7c0-3.6,2.2-6.5,5.7-7.3c0.5-0.1,0.9-0.2,1.4-0.2
				C80.9,73.7,83.4,73.8,85.9,73.8z M76.2,90.8c0,0.3,0,0.4,0,0.6c0,7,0,14,0,21c0,1.7,1,2.7,2.7,2.7c11.2,0,22.3,0,33.5,0
				c1.8,0,2.8-1,2.8-2.8c0-6.9,0-13.9,0-20.8c0-0.7,0-0.7-0.7-0.7c-12.5,0-25,0-37.5,0C76.7,90.8,76.5,90.8,76.2,90.8z"/>
			<path class="st0" d="M88.4,71.3c1.6,0,3.2,0,4.8,0c0,3.2,0,6.4,0,9.7c-1.6,0-3.2,0-4.8,0C88.4,77.8,88.4,74.6,88.4,71.3z"/>
			<path class="st0" d="M98.1,81c0-3.2,0-6.4,0-9.6c1.6,0,3.2,0,4.8,0c0,3.2,0,6.4,0,9.6C101.4,81,99.8,81,98.1,81z"/>
			<path class="st0" d="M94,112.7c-2.8-2.8-5.6-5.6-8.4-8.4c1.1-1.1,2.2-2.2,3.3-3.3c1.6,1.6,3.3,3.3,5,5.1
				c4.1-4.1,8.1-8.1,12.1-12.1c1.2,1.2,2.3,2.3,3.4,3.4C104.3,102.5,99.2,107.6,94,112.7z"/>
		</g>
	</g>
	<path class="st0" d="M3.3,120c-2.2,0-3.2-1-3.2-3.2c0-7,0-14,0-21c0-19.6,0-39.8,0-59.7c0-1.3,0.4-2.3,1.4-3.3
		C7.1,27.2,13,21.4,18.6,15.7c4.7-4.7,9.5-9.5,14.3-14.3c0.4-0.4,0.8-0.7,1.3-1c0.2-0.1,0.4-0.3,0.6-0.4h62.3
		c1.4,0.6,2.1,1.7,2.1,3.5c0,22.7,0,45.4,0,62.8h-5.5V5.6H38.2l0,9.3c0,6.6,0,13.5,0,20.2c0,2-1.1,3.1-3.1,3.1c-1.3,0-2.7,0-4,0
		c-1,0-1.9,0-2.9,0c-1,0-1.9,0-2.9,0H5.6v76.3h0.3c9.8,0,22.5,0,34.7,0.1c12.2,0,24.7,0.1,34.5,0.1l4.1,5.4
		C58.6,120,23.5,120,3.3,120z M9.8,32.6h22.8V9.8L9.8,32.6z"/>
</g>
</svg>
