<svg id="Group_1546" data-name="Group 1546" xmlns="http://www.w3.org/2000/svg" viewBox="0 0 150 150.886">
  <defs>
    <style>
      .cls-1 {
        fill: #686868;
      }
    </style>
  </defs>
  <path id="Path_2064" data-name="Path 2064" class="cls-1" d="M149.21,63.708c-8.383-7.824-16.765-16.765-26.265-26.265a3.076,3.076,0,0,0-2.794-1.118H87.179V30.736a7.943,7.943,0,0,0-1.118-3.353C77.678,19.559,69.3,10.618,59.8,1.118,58.119.559,57.56,0,56.443,0H12.294C5.03,0,0,5.03,0,12.294v92.767c1.118,5.03,3.912,7.824,9.5,9.5H63.149v26.824c1.118,5.03,3.912,7.824,9.5,9.5h67.619c5.588-1.676,8.383-4.471,9.5-8.941V66.5C150.327,65.384,149.769,64.825,149.21,63.708ZM43.589,109.532H12.853a6.831,6.831,0,0,1-5.03-1.677c-2.235-2.794-2.235-6.147-2.235-8.941v-85.5c0-5.588,2.235-7.824,7.824-7.824H53.09c1.118,0,2.235,0,2.794.559s.559,1.677.559,2.794V22.912c0,4.471,2.794,7.824,7.824,7.824H77.678a3.36,3.36,0,0,1,2.235.559,3.36,3.36,0,0,1,.559,2.235v68.178c0,5.588-2.235,7.265-7.265,7.265C63.708,109.532,53.648,109.532,43.589,109.532ZM137.474,145.3H76a6.831,6.831,0,0,1-5.03-1.676c-2.235-2.235-2.235-6.147-2.235-8.383V115.121H77.12c5.588-1.677,8.383-4.471,9.5-8.941V42.472h29.618a5.038,5.038,0,0,1,2.794.559c.559.559.559,1.677.559,2.794V59.8c0,4.471,2.794,7.824,7.824,7.824h13.412a3.36,3.36,0,0,1,2.235.559,3.36,3.36,0,0,1,.559,2.235v68.178C144.739,143.621,142.5,145.3,137.474,145.3Z"/>
  <path id="Path_2065" data-name="Path 2065" class="cls-1" d="M28.489,18H3.9V28.059H28.489v9.5L43.577,23.03,28.489,8.5Z" transform="translate(17.895 39.001)"/>
  <path id="Path_2066" data-name="Path 2066" class="cls-1" d="M31.43,14.9,16.9,29.43,31.43,43.96v-9.5H56.577V24.4H31.43Z" transform="translate(77.544 68.367)"/>
</svg>
