<?xml version="1.0" encoding="utf-8"?>
<!-- Generator: Adobe Illustrator 23.1.0, SVG Export Plug-In . SVG Version: 6.00 Build 0)  -->
<svg version="1.1" id="Layer_1" xmlns="http://www.w3.org/2000/svg" xmlns:xlink="http://www.w3.org/1999/xlink" x="0px" y="0px"
	 viewBox="0 0 120 120" style="enable-background:new 0 0 120 120;" xml:space="preserve">
<style type="text/css">
	.st0{fill:#35C4FF;}
</style>
<g>
	<g>
		<path class="st0" d="M68,33.4H45.5c-1.2,0-2.1-1.2-2.1-2.7c0-1.5,0.9-2.7,2.1-2.7H68c1.2,0,2.1,1.2,2.1,2.7
			C70.1,32.2,69.1,33.4,68,33.4z"/>
	</g>
	<g>
		<path class="st0" d="M83.7,45.9h-38c-1.3,0-2.3-1.2-2.3-2.7c0-1.5,1-2.7,2.3-2.7h38c1.3,0,2.3,1.2,2.3,2.7
			C86,44.7,84.9,45.9,83.7,45.9z"/>
	</g>
	<g id="X0EZoQ_1_">
		<g>
			<path class="st0" d="M31.6,52.5c0.8,0.3,1.3,0.8,1.7,1.6c2.7,5,5.3,9.9,8,14.8c0.2,0.5,0.5,0.6,1,0.6c6,0,12,0,17.9,0
				c0.4,0,0.8,0,1.1,0.1c0.8,0.2,1.2,0.8,1.3,1.6c0.1,0.8-0.2,1.5-0.9,1.9c-0.4,0.2-0.5,0.5-0.5,0.9c-0.3,3.4-0.5,6.7-0.8,10.1
				c-0.3,3.7-0.5,7.4-0.8,11.2c-0.2,2.6-0.4,5.1-0.6,7.7c-0.2,2.5-0.4,4.9-0.6,7.4c-0.1,1.3-0.8,2-2.1,2c-4.6,0-9.1,0-13.7,0
				c-0.2,0-0.3,0-0.5,0c-0.2,0.5-0.4,1.1-0.7,1.6c-1.7,3.4-4.4,5.5-8.3,6c-0.1,0-0.2,0.1-0.2,0.1c-7.4,0-14.9,0-22.3,0
				c-1-0.3-2-0.4-3-0.8c-3.2-1.4-5.3-3.8-6.2-7.3c-0.1-0.2-0.2-0.5-0.4-0.6c-0.9-0.4-1.2-1.1-1.2-2c0-2.7,0-5.4,0-8.2
				c0-0.9,0.3-1.6,1.2-2c0.2-0.1,0.3-0.4,0.4-0.6c0.6-2.8,2.1-5.2,4.3-7c2.5-2,5.3-2.7,8.4-2.7c6.4,0.1,12.7-0.2,19.1,0.2
				c0,0,0-0.1,0-0.1c-0.2-2.5-0.4-5.1-0.6-7.6c-0.2-2.5-0.4-5-0.6-7.5c0-0.2-0.1-0.5-0.3-0.6c-0.9-0.7-1.2-1.4-1-2.3
				c0.3-0.9,0.9-1.4,2.1-1.4c1.3,0,2.6,0,4,0C37,69.3,37,69.2,36.9,69c-2.2-4.1-4.4-8.2-6.7-12.3c-0.1-0.2-0.4-0.3-0.7-0.4
				c-1.4,0-2.8,0-4.2,0c-1,0-1.7-0.5-2-1.3c-0.4-1.2,0.1-2,1.4-2.6C27.1,52.5,29.4,52.5,31.6,52.5z M57.3,74.8c-7,0-14,0-21.1,0
				c0.1,1.3,0.2,2.7,0.3,4c0.2,2.1,0.3,4.3,0.5,6.4c0.1,1.8,0.3,3.6,0.4,5.4c0,0.2,0.2,0.5,0.4,0.6c2.4,1.9,3.9,4.3,4.5,7.3
				c0,0.2,0.2,0.4,0.3,0.5c0.9,0.5,1.2,1.2,1.2,2.2c0,2.2,0,4.4,0,6.7c0,0.1,0,0.2,0,0.4c3.6,0,7.2,0,10.8,0
				C55.6,97.1,56.5,86,57.3,74.8z M34.2,93.6c-1.5-0.8-3.2-0.9-4.9-0.9c-5.2,0-10.5,0-15.7,0c-3.9,0-7.1,2.5-8,6.2
				c10.9,0,21.9,0,32.8,0C37.7,96.5,36.3,94.7,34.2,93.6z M4,102.9c0,1.5,0,3,0,4.6c12,0,23.9,0,35.9,0c0-1.5,0-3,0-4.6
				C27.9,102.9,16,102.9,4,102.9z M11.4,116c7,0,14.1,0,21.1,0c2.6,0,5.2-2.2,5.7-4.6c-10.9,0-21.8,0-32.7,0
				C6.3,114,8.8,116,11.4,116z"/>
		</g>
	</g>
	<g>
		<path class="st0" d="M36,12c0-1.8,0-3.6,0-5.5V5.4l35.3,0c5.1,0,10.2,0,15.3,0c3.2,0,6.6,1.9,6.6,5.2c0,2.9,0,47.3,0,50.4h5.4
			c0-3.2,0-42.4,0-50.8c0-1.1-0.2-2.2-0.6-3.3c-2.2-6.4-9.6-6.8-9.9-6.9l-0.1,0H32.8c-0.2,0.2-0.4,0.3-0.6,0.5
			c-0.6,0.5-1.3,1-1.8,1.5c-4.7,4.7-9.6,9.5-14.2,14.2C11.5,20.8,6.3,26,1.3,31c-0.9,0.9-1.2,1.7-1.2,2.9c0,9.5,0,57.5,0,67.1
			c0.5,0,4,0.1,5.4,0.2l0-65.2l1.1,0c0.1,0,0.3,0,0.4,0c0.3,0,0.6,0,0.9,0l3.4,0c2.3,0,4.6,0,6.8,0c2.4,0,4.7,0,7.1,0h0
			c3.2,0,5.9-1,7.8-2.9c1.9-1.9,3-4.6,3-7.8c0-4.3,0-8.4,0-12.8L36,12z M30.6,26.3c0,2.3-1.9,4.2-4.3,4.2c-1.8,0-3.7,0-6.1,0
			c-1.2,0-2.5,0-3.7,0l-0.3,0c-1.3,0-2.6,0-3.9,0H9.7L30.6,9.7v2.7c0,1.3,0,2.6,0,3.8l0,0C30.6,19.5,30.6,22.9,30.6,26.3z"/>
		<path class="st0" d="M83.9,114.6c-5.4,0-45.7,0-45.7,0l-6.7,5.4c5.9,0,50.7,0,62.5,0L83.9,114.6z"/>
	</g>
	<g>
		<path class="st0" d="M93.3,120c-4.8,0-9.5-1.3-13.6-3.7c-5-2.9-8.7-7.2-11.1-12.6c-1.5-3.4-2.2-6.8-2.1-10.5l0-0.5h26.3V66.5
			l0.5,0c0.2,0,0.5,0,0.7,0c8,0,18.4,4.7,23.4,15.2c5.1,10.7,2.6,23.2-6.1,31.3C106.3,117.5,99.9,120,93.3,120
			C93.3,120,93.3,120,93.3,120z M71,97c0.6,4.4,2.8,8.8,6.2,12.2c2.8,2.8,7.7,6.2,15,6.5c0.3,0,0.7,0,1,0c6.3,0,12.1-2.5,16.4-7
			c4.3-4.5,6.4-10.4,6.1-16.8c-0.4-7.3-3.8-12.1-6.7-14.9c-3.4-3.3-7.8-5.5-12.1-6.1V97H71z"/>
		<path class="st0" d="M66.5,90.4l0-0.5c-0.2-6,2.1-11.9,6.5-16.4c4.3-4.5,10.2-7,16-7c0.3,0,0.5,0,0.8,0l0.5,0v23.9H66.5z
			 M86.1,86.1v-15c-7.3,1.3-13.8,7.7-15,15H86.1z"/>
	</g>
</g>
</svg>
