<?xml version="1.0" encoding="utf-8"?>
<!-- Generator: Adobe Illustrator 22.1.0, SVG Export Plug-In . SVG Version: 6.00 Build 0)  -->
<svg version="1.1" id="Layer_1" xmlns="http://www.w3.org/2000/svg" xmlns:xlink="http://www.w3.org/1999/xlink" x="0px" y="0px"
	 viewBox="0 0 696.6 100" style="enable-background:new 0 0 696.6 100;" xml:space="preserve">
<style type="text/css">
	.st0{fill:#4FC0EE;}
	.st1{fill:#868686;}
</style>
<g>
	<g>
		<path class="st0" d="M64.3,22.9L22.1,64.3h35.1l-2.4,11.8H0l1.9-9.4l42.3-41.5H11.1l2.4-11.8h52.7L64.3,22.9z"/>
		<path class="st0" d="M76.8,13.4h14.6L78.9,76.2H64.2L76.8,13.4z"/>
		<path class="st0" d="M156.1,33c0,15.9-11.7,25.9-30.5,25.9h-14l-3.4,17.3H93.6l12.5-62.7h25.4C147.2,13.4,156.1,20.7,156.1,33z
			 M141.4,34.2c0-6.1-4.3-9-11.6-9h-11.4L114,47h12.3C135.8,47,141.4,42.6,141.4,34.2z"/>
		<path class="st1" d="M215.9,34.9c0,13.4-9.7,21.4-25.6,21.4h-16.8v19.8h-6.6V13.4h23.5C206.3,13.4,215.9,21.5,215.9,34.9z
			 M209.3,34.9c0-10-6.6-15.8-19.2-15.8h-16.7v31.4h16.7C202.7,50.5,209.3,44.8,209.3,34.9z"/>
		<path class="st1" d="M223.9,52.6c0-14,10.2-23.9,24-23.9c13.8,0,23.9,9.9,23.9,23.9c0,14-10.1,24-23.9,24
			C234.1,76.6,223.9,66.6,223.9,52.6z M265.4,52.6c0-11-7.4-18.4-17.5-18.4s-17.6,7.3-17.6,18.4c0,11,7.5,18.4,17.6,18.4
			S265.4,63.6,265.4,52.6z"/>
		<path class="st1" d="M278.3,70.8l2.9-5c3.8,3,10.1,5.3,16.8,5.3c9,0,12.6-3,12.6-7.7c0-12.3-30.6-2.6-30.6-21.2
			c0-7.7,6.6-13.4,18.6-13.4c6.1,0,12.7,1.7,16.7,4.4l-2.8,5.1c-4.1-2.9-9-4-13.9-4c-8.5,0-12.3,3.3-12.3,7.8
			c0,12.7,30.6,3.1,30.6,21.2c0,8.2-7.2,13.4-19.4,13.4C289.7,76.6,282.2,74.1,278.3,70.8z"/>
		<path class="st1" d="M396.3,76.2L382,56c-1.6,0.2-3.2,0.3-5,0.3h-16.8v19.9h-6.6V13.4H377c15.9,0,25.6,8.1,25.6,21.5
			c0,9.9-5.2,16.8-14.3,19.7l15.3,21.5H396.3z M396,34.9c0-10-6.6-15.8-19.2-15.8h-16.7v31.4h16.7C389.3,50.6,396,44.8,396,34.9z"/>
		<path class="st1" d="M458,54.6h-39.4c0.7,9.9,8.2,16.4,18.5,16.4c5.7,0,10.8-2.1,14.4-6.2l3.6,4.1c-4.2,5-10.8,7.7-18.2,7.7
			c-14.7,0-24.7-10-24.7-24c0-14,9.8-23.9,23-23.9s22.8,9.8,22.8,23.9C458.1,53.1,458,53.9,458,54.6z M418.5,49.8H452
			c-0.8-9.2-7.5-15.7-16.8-15.7C426.1,34.1,419.4,40.6,418.5,49.8z"/>
		<path class="st1" d="M518.8,52.6c0,14.3-10,24-23.5,24c-7.5,0-14-3.2-17.9-9.3v26.3h-6.4V29h6.1v9.3c3.9-6.3,10.4-9.7,18.2-9.7
			C508.8,28.7,518.8,38.4,518.8,52.6z M512.5,52.6c0-10.9-7.6-18.4-17.6-18.4c-10,0-17.6,7.4-17.6,18.4c0,11,7.5,18.4,17.6,18.4
			C504.8,71,512.5,63.6,512.5,52.6z"/>
		<path class="st0" d="M527.1,52.6c0-14,10.2-23.9,24-23.9c13.8,0,23.9,9.9,23.9,23.9c0,14-10.1,24-23.9,24
			C537.3,76.6,527.1,66.6,527.1,52.6z M568.5,52.6c0-11-7.4-18.4-17.5-18.4s-17.6,7.3-17.6,18.4c0,11,7.5,18.4,17.6,18.4
			S568.5,63.6,568.5,52.6z"/>
		<path class="st1" d="M611.7,28.7v6.2c-0.5,0-1.1-0.1-1.5-0.1c-9.9,0-15.9,6.3-15.9,17.4v24H588V29h6.1v9.2
			C597,32,603,28.7,611.7,28.7z"/>
		<path class="st1" d="M650.1,73.3c-2.5,2.2-6.3,3.3-9.9,3.3c-8.9,0-13.8-5-13.8-13.7V34.4h-8.4V29h8.4V18.7h6.4V29H647v5.4h-14.3
			v28.1c0,5.6,2.9,8.6,8.2,8.6c2.6,0,5.2-0.8,7-2.4L650.1,73.3z"/>
		<path class="st1" d="M655.1,70.8l2.9-5c3.8,3,10.1,5.3,16.8,5.3c9,0,12.6-3,12.6-7.7c0-12.3-30.6-2.6-30.6-21.2
			c0-7.7,6.6-13.4,18.6-13.4c6.1,0,12.7,1.7,16.7,4.4l-2.8,5.1c-4.1-2.9-9-4-13.9-4c-8.5,0-12.3,3.3-12.3,7.8
			c0,12.7,30.6,3.1,30.6,21.2c0,8.2-7.2,13.4-19.4,13.4C666.5,76.6,659,74.1,655.1,70.8z"/>
	</g>
	<g>
		<g>
			<path class="st0" d="M569.9,41.8c-5.9-10.6-19.3-14.4-29.9-8.4s-14.4,19.3-8.4,29.9c0.1,0.1,0.2,0.2,0.3,0.3
				c0.6,0.6,1.6,0.6,2.2,0l10.2-10.2l3.6,4.8c0,0.1,0.1,0.1,0.1,0.2c0.6,0.6,1.6,0.6,2.2,0l9.9-9.9v5.6h3.1v-9.4h0
				c0-0.9-0.7-1.6-1.6-1.6h-9.4v3.1h5.6l-8.6,8.6l-3.6-4.8c-0.3-0.4-0.7-0.6-1.1-0.6c-0.5,0-0.9,0.1-1.2,0.5l-10,10
				c-2.7-6.4-1.6-13.8,2.8-19.2c6.6-8,18.4-9.2,26.4-2.6c8,6.6,9.2,18.4,2.6,26.4c-0.6,0.7-1.3,1.4-1.9,2v-9.3h-3.1v11.6
				c-1,0.6-2.1,1.1-3.1,1.5v-9.9h-3.1v10.7c-1,0.2-2.1,0.3-3.1,0.3v-6.3h-3.1v6c-1.1-0.2-2.1-0.4-3.1-0.8v-8.3h-3.1v6.9
				c-0.9-0.5-1.7-1.1-2.5-1.8l-2,2.4c3.9,3.2,8.9,5,13.9,5c3.8,0,7.4-1,10.7-2.8C572.1,65.8,575.8,52.4,569.9,41.8z"/>
		</g>
	</g>
</g>
</svg>
