<?xml version="1.0" encoding="utf-8"?>
<!-- Generator: Adobe Illustrator 22.1.0, SVG Export Plug-In . SVG Version: 6.00 Build 0)  -->
<svg version="1.1" id="Layer_1" xmlns="http://www.w3.org/2000/svg" xmlns:xlink="http://www.w3.org/1999/xlink" x="0px" y="0px"
	 viewBox="0 0 150 150" style="enable-background:new 0 0 150 150;" xml:space="preserve">
<style type="text/css">
	.st0{fill:#4FC0EE;}
	.st1{fill:#FFFFFF;}
</style>
<path id="XMLID_1_" class="st0" d="M135,150H15c-8.3,0-15-6.7-15-15V15C0,6.7,6.7,0,15,0h120c8.3,0,15,6.7,15,15v120
	C150,143.3,143.3,150,135,150z"/>
<path class="st1" d="M75.1,21C44,21,21,43.4,21,74.9S44,129,75.1,129S129,106.4,129,74.9S106.2,21,75.1,21z M95.6,85.3v25.6
	c-2.2,1.3-4.6,2.4-7.1,3.2V92.4h-7.1v23.4c-2.1,0.3-4.2,0.5-6.4,0.5c-0.2,0-0.5,0-0.7,0V103h-7.1v12.6c-2.5-0.4-4.8-1.1-7.1-2V95.9
	H53V110c-5.3-3.4-9.7-8.2-12.8-14.1l19.4-19.4l8.4,11c0.1,0.1,0.2,0.3,0.3,0.4c1.4,1.4,3.6,1.4,5,0l22.2-22.2v12.7h7.1V57.1l0,0
	c0-2-1.6-3.5-3.5-3.5H77.9v7.1h12.7L71.2,80L63,69.1c-0.6-0.8-1.6-1.3-2.6-1.4s-2,0.3-2.7,1L37.5,88.9c-1.3-4.3-2-9-2-14
	c0-24.8,17-41.4,39.6-41.4s39.4,16.6,39.4,41.4c0,12.8-4.4,23.3-11.8,30.6V85.3H95.6z"/>
</svg>
