<?xml version="1.0" encoding="utf-8"?>
<!-- Generator: Adobe Illustrator 23.1.0, SVG Export Plug-In . SVG Version: 6.00 Build 0)  -->
<svg version="1.1" id="Layer_1" xmlns="http://www.w3.org/2000/svg" xmlns:xlink="http://www.w3.org/1999/xlink" x="0px" y="0px"
	 viewBox="0 0 120 120" style="enable-background:new 0 0 120 120;" xml:space="preserve">
<style type="text/css">
	.st0{fill:#FFFFFF;}
</style>
<g id="_x32_I807L_1_">
	<g>
		<path class="st0" d="M15.1,60c0-17,0-34,0-51.1c0-5.5,3.4-8.9,9-8.9c18.1,0,36.3,0,54.4,0c0.8,0,1.4,0.2,2,0.8
			c7.9,7.9,15.8,15.8,23.7,23.7c0.6,0.6,0.8,1.2,0.8,2c0,28.3,0,56.5,0,84.8c0,5.2-3.5,8.7-8.7,8.7c-24.2,0-48.3,0-72.5,0
			c-5.4,0-8.7-3.4-8.7-8.8C15.1,94.2,15.1,77.1,15.1,60z M76,5.2c-0.6,0-1,0-1.4,0c-16.9,0-33.8,0-50.7,0c-2.7,0-3.8,1.1-3.8,3.8
			c0,34.1,0,68.3,0,102.4c0,2.7,1.1,3.8,3.7,3.8c24.1,0,48.2,0,72.4,0c2.7,0,3.7-1.1,3.7-3.8c0-27,0-53.9,0-80.9
			c0-0.4,0-0.8-0.1-1.3c-0.6,0-1,0-1.4,0c-4.7,0-9.3,0-14,0c-4.9,0-8.5-3.6-8.5-8.5c0-4.7,0-9.3,0-14C76,6.2,76,5.7,76,5.2z
			 M95.8,23.8c-5-5-9.9-9.9-14.8-14.8c0,0-0.1,0.2-0.1,0.3c0,3.8,0,7.6,0,11.5c0,1.9,1.3,3,3.3,3.1c2.1,0,4.1,0,6.2,0
			C92.2,23.8,94,23.8,95.8,23.8z"/>
		<path class="st0" d="M25.4,49.7c-0.3-4.1,0.3-7.9,2.3-11.4c2-3.5,4.9-6,8.4-7.9c-3.7-6-3.4-11.5,1-15.2c3.9-3.3,10-3.2,13.8,0.2
			c3.5,3.1,5.2,9.6,0.8,14.9c7.7,4.1,11.2,10.5,10.8,19.3C50.1,49.7,37.8,49.7,25.4,49.7z M30.8,44.6c8.8,0,17.6,0,26.3,0
			c-0.8-6.1-6.7-10.9-13.3-10.9C37.5,33.7,31.5,38.8,30.8,44.6z M49.3,23c0-2.9-2.4-5.3-5.3-5.4c-3,0-5.4,2.4-5.4,5.3
			c0,2.8,2.6,5.4,5.4,5.4C46.7,28.4,49.2,25.8,49.3,23z"/>
		<path class="st0" d="M94.6,107.4c-6.6,0-13.1,0-19.7,0c0-13.9,0-27.8,0-41.7c6.6,0,13.1,0,19.7,0C94.6,79.6,94.6,93.5,94.6,107.4z
			 M89.5,102.3c0-10.6,0-21,0-31.5c-3.3,0-6.4,0-9.6,0c0,10.5,0,21,0,31.5C83.1,102.3,86.3,102.3,89.5,102.3z"/>
		<path class="st0" d="M25.4,72.3c6.7,0,13.2,0,19.8,0c0,11.7,0,23.4,0,35.1c-6.6,0-13.2,0-19.8,0C25.4,95.7,25.4,84,25.4,72.3z
			 M30.5,77.4c0,8.3,0,16.6,0,24.8c3.3,0,6.4,0,9.5,0c0-8.3,0-16.6,0-24.8C36.8,77.4,33.7,77.4,30.5,77.4z"/>
		<path class="st0" d="M69.9,107.4c-6.6,0-13.1,0-19.8,0c0-8.3,0-16.5,0-24.8c6.6,0,13.1,0,19.8,0C69.9,90.8,69.9,99,69.9,107.4z
			 M64.7,102c0-5,0-9.8,0-14.7c-3.2,0-6.3,0-9.5,0c0,4.9,0,9.8,0,14.7C58.4,102,61.5,102,64.7,102z"/>
		<path class="st0" d="M92.1,55.3c0,1.6,0,3.2,0,4.9c-21.4,0-42.7,0-64.1,0c0-1.6,0-3.2,0-4.9C49.3,55.3,70.6,55.3,92.1,55.3z"/>
	</g>
</g>
</svg>
