<?xml version="1.0" encoding="utf-8"?>
<!-- Generator: Adobe Illustrator 23.1.0, SVG Export Plug-In . SVG Version: 6.00 Build 0)  -->
<svg version="1.1" id="Layer_1" xmlns="http://www.w3.org/2000/svg" xmlns:xlink="http://www.w3.org/1999/xlink" x="0px" y="0px"
	 viewBox="0 0 120 120" style="enable-background:new 0 0 120 120;" xml:space="preserve">
<style type="text/css">
	.st0{fill:#35C4FF;}
</style>
<g>
	<path class="st0" d="M93.9,94.2h-5.5c0,2.8,0,5.6,0,8.4c0,2.2,0,4.5,0,6.7c0,0.4-0.1,0.9-0.2,1.3c-0.6,2.7-2.2,4.1-5.2,4.2
		c-1.3,0.1-2.6,0-3.9,0c-2.4,0-4.7-0.1-7.1-0.1c-18.8,0-37.6,0-56.4,0c-2.1,0-4.2,0-6.2-0.3c-2.8-0.4-4.2-2-4.3-4.8
		c-0.1-2.5,0-5,0-7.5c0-1,0.1-2,0.1-3.1c0-26.2,0-52.4,0-78.6c0-2.8-0.1-5.5-0.1-8.3c0-1.1,0.2-2.2,0.5-3.2C6.4,6.5,8,5.4,10.9,5.3
		c2.6-0.1,5.1,0,7.7,0c1.1,0,2.3,0.1,3.4,0.1c11.5,0,23,0,34.5,0c0.2,0,0.5,0,0.8,0c0,0.3,0,0.5,0,0.8c0,6.6-0.1,13.1-0.1,19.7
		c0,1.9,0.1,4,0.6,5.8c1.1,4.3,4.2,6.8,8.6,7.6c3,0.5,5.9,0.3,8.9,0.2c3.9-0.2,7.8-0.6,11.7-0.3c0.5,0,1,0.1,1.5,0.1
		c0,0.3,0,0.6,0,0.9c0,5.8,0,11.5,0,17.3h5.3c0-5.7,0-11.4,0-17.1c0-1.3-0.2-2.5-0.3-3.8c-0.2-1.4-1-2.4-1.9-3.4
		c-8.8-9.4-17.6-18.9-26.3-28.3c-1.2-1.2-2.3-2.5-3.4-3.8c-0.6-0.7-1.4-1-2.3-1c-1.9,0-3.8,0.1-5.6,0.1c-11.2,0-22.4,0-33.5,0
		c-1.6,0-3.2-0.2-4.8-0.2c-1.5,0-3,0-4.5,0c-1,0.2-2,0.2-3,0.5C3.8,1.5,0.6,5,0,9.3c0,0.3,0,0.5,0,0.8c0,33.2,0,66.4,0,99.7
		c0,3.9,1.9,7,5.4,8.9c1.7,0.9,3.5,1.4,5.5,1.4c24.1,0,48.2,0,72.3,0c5.2,0,9.7-3.8,10.4-9c0.3-2.6,0.4-5.3,0.4-8
		C94,100.1,93.9,97.1,93.9,94.2z M62.5,14.1c0-1.4,0-2.7,0-4.2C70,17.9,77.7,25.7,85,34c-3.4-0.4-6.6-0.1-9.8,0.1
		c-2.8,0.1-5.6,0.3-8.4-0.3c-2.6-0.6-4.1-2.1-4.3-4.4c-0.1-1.7-0.2-3.4-0.2-5.1C62.3,20.9,62.4,17.5,62.5,14.1z"/>
	<g>
		<path class="st0" d="M25.1,92.9c0,3.6,0,7.2,0,10.8c0,1.5-0.6,2.1-2.1,2.1c-2.9,0-5.8,0-8.7,0c-1.4,0-2-0.6-2-2.1
			c0-7.3,0-14.6,0-21.9c0-1.4,0.7-2,2-2c3,0,5.9,0,8.9,0c1.3,0,2,0.7,2,2C25.1,85.6,25.1,89.3,25.1,92.9
			C25.1,92.9,25.1,92.9,25.1,92.9z M21.5,102.2c0-6.3,0-12.5,0-18.7c-1.9,0-3.7,0-5.6,0c0,6.2,0,12.4,0,18.7
			C17.8,102.2,19.6,102.2,21.5,102.2z"/>
		<path class="st0" d="M29.8,94.7c0-3,0-6,0-9c0-1.6,0.6-2.1,2.1-2.2c2.5,0,4.9,0,7.4,0c1.5,0,2.1,0.7,2.1,2.2c0,6,0,12.1,0,18.1
			c0,1.5-0.6,2.1-2.1,2.1c-2.4,0-4.9,0-7.3,0c-1.6,0-2.2-0.6-2.2-2.2C29.8,100.7,29.8,97.7,29.8,94.7C29.8,94.7,29.8,94.7,29.8,94.7
			z M37.8,102.2c0-5,0-10,0-15.1c-1.5,0-2.9,0-4.4,0c0,5.1,0,10.1,0,15.1C34.9,102.2,36.2,102.2,37.8,102.2z"/>
		<path class="st0" d="M47.1,96.2c0-2.5,0-5,0-7.5c0-1.5,0.6-2.1,2.1-2.1c2.6,0,5.1,0,7.7,0c1.3,0,2,0.7,2,2c0,5.1,0,10.2,0,15.3
			c0,1.3-0.6,2-2,2c-2.6,0-5.3,0-7.9,0c-1.3,0-2-0.7-2-2C47.1,101.3,47.1,98.7,47.1,96.2z M55.3,90.2c-1.6,0-3,0-4.5,0c0,4,0,8,0,12
			c1.5,0,3,0,4.5,0C55.3,98.2,55.3,94.2,55.3,90.2z"/>
	</g>
	<g>
		<path class="st0" d="M31.4,17.4c-6.7,0-13.5,0-20.2,0c-0.9,0-1.6-0.1-2-1C8.7,15,9.5,13.8,11,13.8c2,0,4.1,0,6.1,0
			c11.4,0,22.8,0,34.3,0c0.4,0,0.8,0,1.2,0.1c0.8,0.2,1.3,1,1.2,1.8c0,0.9-0.5,1.5-1.4,1.6c-0.3,0.1-0.7,0.1-1,0.1
			C44.7,17.4,38.1,17.4,31.4,17.4C31.4,17.4,31.4,17.4,31.4,17.4z"/>
		<path class="st0" d="M31.4,27.2c-6.8,0-13.5,0-20.3,0c-0.8,0-1.6-0.1-1.9-1c-0.6-1.3,0.3-2.6,1.8-2.6c3.5,0,6.9,0,10.4,0
			c10.1,0,20.2,0,30.2,0c0.1,0,0.2,0,0.3,0c1.1,0.1,1.8,0.8,1.8,1.8c0,1-0.7,1.7-1.8,1.7c-3.5,0-7,0-10.5,0
			C38.1,27.2,34.8,27.2,31.4,27.2C31.4,27.2,31.4,27.2,31.4,27.2z"/>
		<path class="st0" d="M24.9,36.9c-4.7,0-9.4,0-14.1,0c-1.4,0-2.2-1-1.9-2.2c0.2-0.9,0.8-1.3,1.9-1.3c1.8,0,3.7,0,5.5,0
			c7.5,0,15,0,22.5,0c1.3,0,2,0.6,2.1,1.7c0.1,1.1-0.7,1.9-1.9,1.9c-3.5,0-6.9,0-10.4,0C27.4,36.9,26.1,36.9,24.9,36.9
			C24.9,36.9,24.9,36.9,24.9,36.9z"/>
	</g>
	<path class="st0" d="M16.2,74.7c-0.1,0-0.2,0-0.2,0c-0.8-0.1-1.4-0.5-1.7-1c-0.3-0.6-0.2-1.4,0.3-2.2c1.4-2.2,2.9-4.5,4.3-6.6
		c0.5-0.8,1-1.6,1.5-2.4l0.9-1.4c1.2-1.9,2.5-3.8,3.7-5.7c0.6-0.9,1.2-1.3,1.9-1.3c0.5,0,1.1,0.2,1.7,0.7c1.4,1.1,2.9,2.2,4.3,3.3
		c1.3,1,2.6,2,3.9,3c0.2,0.2,0.5,0.3,0.7,0.5c0.1,0.1,0.3,0.2,0.4,0.3l0.5,0.3l14.6-16.3c0,0-4.5,0-4.9,0c-1.5,0-2.2-0.7-2.2-2
		c0-1.3,0.7-1.9,2.2-1.9c1.5,0,7.4,0,8.8,0c1.7,0,2.3,0.6,2.3,2.2c0,3.4,0,6.2,0,8.9c0,1.4-0.7,2.1-1.9,2.1l-0.1,0
		c-0.7,0-1.7-0.3-1.8-1.6c-0.1-0.5,0-5.9,0-5.9s-10.7,13-14.8,17.6c-0.9,1-1.6,1.5-2.1,1.5c-0.5,0-1.2-0.3-2.2-1.1
		c-1.9-1.5-3.8-2.9-5.7-4.4l-3.1-2.4l-0.4,0.6c-0.1,0.1-0.2,0.3-0.3,0.4c-0.2,0.3-0.3,0.5-0.5,0.8l-1.5,2.4
		c-2.2,3.5-4.6,7.1-6.9,10.7C17.4,74.4,16.9,74.7,16.2,74.7z"/>
	<g id="qAIrWC_1_">
		<g>
			<path class="st0" d="M101.1,91.5c-4.8,3.2-10,4.2-15.5,2.9c-4.5-1.1-8.2-3.5-10.9-7.2c-5.5-7.5-4.9-17.6,1.3-24.4
				c6.5-7,16.8-8.3,24.8-3.1c2.9,1.9,5.1,4.4,6.6,7.6c1.5,3.1,2.2,6.4,1.9,9.9c-0.3,3.5-1.4,6.6-3.4,9.5c1.2,0.2,2,1,2.8,1.8
				c3.3,3.4,6.7,6.7,10.1,10.1c1.4,1.4,1.7,3.3,0.8,5c-1.1,2-4.1,2.7-5.9,1.2c-1-0.8-1.9-1.8-2.8-2.7c-2.7-2.7-5.5-5.5-8.2-8.2
				C101.8,93.3,101.3,92.5,101.1,91.5z M104.5,75.8c0-7.9-6.4-14.3-14.3-14.3c-7.9,0-14.3,6.4-14.3,14.3c0,7.9,6.4,14.4,14.3,14.3
				C98.1,90.1,104.4,83.7,104.5,75.8z"/>
		</g>
	</g>
</g>
</svg>
