<?xml version="1.0" encoding="utf-8"?>
<!-- Generator: Adobe Illustrator 24.0.0, SVG Export Plug-In . SVG Version: 6.00 Build 0)  -->
<svg version="1.1" id="Layer_1" xmlns="http://www.w3.org/2000/svg" xmlns:xlink="http://www.w3.org/1999/xlink" x="0px" y="0px"
	 viewBox="0 0 500 500" style="enable-background:new 0 0 500 500;" xml:space="preserve">
<style type="text/css">
	.st0{fill:#35C4FF;}
</style>
<g>
	<path class="st0" d="M0,400.3C0,289.4,0,178.4,0,67.5c0.3-0.7,0.6-1.5,0.8-2.2c4-21.5,23.4-37.1,46.1-35.9c3.8,0.2,7.7,0,11.7,0
		c0-5.2,0-9.8,0-14.3c0.1-8.9,6.1-14.9,15.1-14.9c19.2-0.1,38.4-0.1,57.6,0c9.2,0,15.1,6.1,15.1,15.4c0,4.5,0,9,0,13.5
		c49.7,0,98.9,0,148.4,0c0-4.9-0.1-9.4,0-13.9C295,6.2,301,0.2,310,0.2c19.2-0.1,38.4-0.1,57.6,0c9.2,0,15,6.1,15.1,15.4
		c0,4.5,0,9,0,13.8c4.4,0,8.1,0.1,11.8,0c26.7-1.2,47.3,20.2,47,47.2c-0.7,57.7-0.1,115.4-0.4,173.2c0,5.9,2,9.2,6.4,12.7
		c42.1,33.6,60.1,77.4,49.6,130.1c-10.7,53.9-44.5,88.6-97.8,103.3c-6.4,1.8-13,2.7-19.5,3.9c-8.1,0-16.3,0-24.4,0
		c-2.2-0.4-4.3-0.9-6.5-1.3c-49.4-9-83.9-36.6-103.3-82.9c-1.5-3.5-3-4.8-6.9-4.8c-73.3,0.1-146.6,0-219.9,0.2
		C9.8,411.2,3.6,408.4,0,400.3z M29.5,381.5c69.4,0,138.3,0,207.3,0c-3.4-47.7,12.2-87.5,49.5-117.3c37.4-29.9,79.9-35.8,125.6-21.8
		c0-31.8,0-63.2,0-94.7c-127.5,0-254.8,0-382.3,0C29.5,225.7,29.5,303.4,29.5,381.5z M265.6,367.8c1.3,58,46.4,103,102.9,102.6
		c58.4-0.4,102.3-47.1,101.9-103.9c-0.3-57.5-46.5-102-102.9-101.7C310.8,265.1,264.7,312.2,265.6,367.8z M411.9,118.1
		c0-15.6,0.3-30.9-0.1-46.1c-0.2-7.7-6.5-12.9-14.3-13.3c-4.1-0.2-8.1,0.2-12.2-0.1c-3.6-0.3-5.2,0.9-6.9,4.3
		c-8,16.1-21.2,24.8-39.3,25c-18.3,0.2-31.6-8.8-39.8-24.9c-1.7-3.3-3.3-4.3-6.9-4.3c-47.7,0.1-95.3,0.1-143,0
		c-3.9,0-5.8,1.1-7.6,4.7c-7.1,14.5-19.1,23-35.1,24.4c-17,1.5-31.7-4.5-40.2-19.5c-4.8-8.4-10.1-10.9-18.6-9.6c-0.5,0.1-1,0-1.5,0
		c-11.3,0.1-17.1,5.8-17.1,17.2c0,12.7,0,25.4,0,38.1c0,1.4,0.2,2.8,0.3,4.2C157.1,118.1,284.2,118.1,411.9,118.1z M88,29.5
		c0,5.6-0.4,10.8,0.1,15.9c0.7,7.4,6.8,12.9,13.9,13.2c6.9,0.4,13.7-4.9,14.7-12.3c0.7-5.5,0.1-11.2,0.1-16.9
		C107.1,29.5,97.9,29.5,88,29.5z M324.2,29.6c0,5.3-0.3,10.4,0.1,15.3c0.7,7.9,7.1,13.7,14.6,13.7c7.3,0,13.6-5.7,14.4-13.3
		c0.5-5.1,0.1-10.3,0.1-15.7C343.6,29.6,334.2,29.6,324.2,29.6z"/>
	<path class="st0" d="M220.5,206.1c-9.7,0-19.5,0-29.2,0c-9.1,0-15.5-6.1-15.5-14.5c0-8.5,6.3-14.7,15.3-14.7c19.6-0.1,39.3-0.1,58.9,0
		c9.1,0,15.5,6.1,15.5,14.5c0,8.5-6.3,14.6-15.3,14.7C240.3,206.1,230.4,206.1,220.5,206.1z"/>
	<path class="st0" d="M220.3,264.6c-9.7,0-19.5,0-29.2,0c-9-0.1-15.3-6.2-15.3-14.7c0-8.5,6.3-14.5,15.5-14.5c19.7,0,39.3,0,59,0
		c9.1,0,15.3,6.1,15.3,14.7c0,8.5-6.4,14.5-15.5,14.5C240.1,264.7,230.2,264.6,220.3,264.6z"/>
	<path class="st0" d="M102.5,176.8c9.6,0,19.2-0.1,28.7,0c8.8,0.1,15,6,15.1,14.4c0.1,8.5-6.2,14.8-15.2,14.8c-19.2,0.1-38.3,0.1-57.5,0
		c-8.9,0-15.2-6.3-15.1-14.9c0.1-8.3,6.4-14.3,15.2-14.3C83.4,176.8,93,176.8,102.5,176.8z"/>
	<path class="st0" d="M339.1,176.8c9.4,0,18.8,0,28.3,0c9,0.1,15.4,6.2,15.3,14.7c0,8.5-6.3,14.5-15.5,14.5c-19,0-38,0.1-57,0
		c-9.1,0-15.3-6.1-15.3-14.7c0-8.5,6.4-14.5,15.5-14.5C319.9,176.8,329.5,176.8,339.1,176.8z"/>
	<path class="st0" d="M102,264.6c-9.4,0-18.8,0.1-28.3,0c-9-0.1-15.2-6.2-15.1-14.8c0.1-8.3,6.4-14.3,15.2-14.4c19.2-0.1,38.3-0.1,57.5,0
		c8.9,0,15.3,6.3,15.2,14.9c-0.1,8.3-6.4,14.3-15.2,14.3C121.5,264.7,111.7,264.6,102,264.6z"/>
	<path class="st0" d="M102.1,323.2c-9.4,0-18.8,0.1-28.2,0c-9-0.1-15.3-6.3-15.2-14.8c0.1-8.3,6.4-14.4,15.1-14.4c19.2-0.1,38.3-0.1,57.5,0
		c9,0,15.3,6.3,15.2,14.8c-0.1,8.4-6.4,14.4-15.6,14.4C121.3,323.2,111.7,323.2,102.1,323.2z"/>
	<path class="st0" d="M382.7,352.5c15,0,29.4-0.1,43.8,0c10.9,0.1,18,10.7,13.6,20.4c-2.5,5.5-6.9,8.7-13,8.7c-19.8,0.1-39.6,0.1-59.5,0
		c-8-0.1-14.1-6.3-14.2-14.3c-0.1-19.7-0.1-39.3,0-59c0-8.3,6.5-14.4,14.6-14.4c8.2,0,14.5,6.1,14.6,14.4
		C382.8,322.8,382.7,337.3,382.7,352.5z"/>
</g>
</svg>
