<?xml version="1.0" encoding="utf-8"?>
<!-- Generator: Adobe Illustrator 23.1.0, SVG Export Plug-In . SVG Version: 6.00 Build 0)  -->
<svg version="1.1" id="Layer_1" xmlns="http://www.w3.org/2000/svg" xmlns:xlink="http://www.w3.org/1999/xlink" x="0px" y="0px"
	 viewBox="0 0 120 120" style="enable-background:new 0 0 120 120;" xml:space="preserve">
<style type="text/css">
	.st0{fill:#35C4FF;}
</style>
<g>
	<g>
		<path class="st0" d="M25.6,93.9c0,3.6,0,7.2,0,10.8c0,1.5-0.6,2.1-2.1,2.1c-2.9,0-5.8,0-8.7,0c-1.4,0-2-0.6-2-2.1
			c0-7.3,0-14.6,0-21.9c0-1.4,0.7-2,2-2c3,0,5.9,0,8.9,0c1.3,0,2,0.7,2,2C25.7,86.6,25.6,90.3,25.6,93.9
			C25.6,93.9,25.6,93.9,25.6,93.9z M22,103.2c0-6.3,0-12.5,0-18.7c-1.9,0-3.7,0-5.6,0c0,6.2,0,12.4,0,18.7
			C18.3,103.2,20.1,103.2,22,103.2z"/>
		<path class="st0" d="M30.3,95.7c0-3,0-6,0-9c0-1.6,0.6-2.1,2.1-2.2c2.5,0,4.9,0,7.4,0c1.5,0,2.1,0.7,2.1,2.2c0,6,0,12.1,0,18.1
			c0,1.5-0.6,2.1-2.1,2.1c-2.4,0-4.9,0-7.3,0c-1.6,0-2.2-0.6-2.2-2.2C30.3,101.7,30.3,98.7,30.3,95.7C30.3,95.7,30.3,95.7,30.3,95.7
			z M38.3,103.2c0-5,0-10,0-15.1c-1.5,0-2.9,0-4.4,0c0,5.1,0,10.1,0,15.1C35.4,103.2,36.8,103.2,38.3,103.2z"/>
		<path class="st0" d="M47.6,97.2c0-2.5,0-5,0-7.5c0-1.5,0.6-2.1,2.1-2.1c2.6,0,5.1,0,7.7,0c1.3,0,2,0.7,2,2c0,5.1,0,10.2,0,15.3
			c0,1.3-0.6,2-2,2c-2.6,0-5.3,0-7.9,0c-1.3,0-2-0.7-2-2C47.6,102.3,47.6,99.8,47.6,97.2z M55.8,91.2c-1.6,0-3,0-4.5,0c0,4,0,8,0,12
			c1.5,0,3,0,4.5,0C55.8,99.2,55.8,95.2,55.8,91.2z"/>
	</g>
	<path class="st0" d="M67.7,19.7c0-0.5-0.1-1,0-1.4c0.6-1.7,2.1-0.8,3.2-1c0.8-0.1,1.3,0.4,1.4,1.2c0.1,0.9-0.1,2.1,0.4,2.6
		c0.5,0.6,1.7,0.5,2.6,0.7c0.9,0.2,1.8,0.5,2.7,0.7c0.8,0.3,1.2,0.8,0.9,1.7c-0.2,0.9-0.4,1.7-0.7,2.6c-0.3,1.1-0.8,1.2-2,1
		c-1.8-0.4-3.7-0.8-5.6-1c-0.8-0.1-1.6,0.1-2.4,0.5c-1.8,0.8-2.1,2.9-0.5,4c1.3,0.9,2.7,1.4,4.1,2.1c1.5,0.7,3.1,1.3,4.6,2.1
		c5.8,3.2,5.2,11.7-0.2,14.6c-0.9,0.5-1.9,0.9-2.9,1.2c-0.8,0.2-1.1,0.7-1.1,1.5c0,0.7,0,1.5,0,2.2c-0.1,1.3-0.5,1.5-3.2,1.5
		c-1.4,0-1.9-0.4-2-1.6c-0.1-2.9-0.1-2.8-2.9-3.4c-1.3-0.3-2.6-0.7-3.9-1.1c-0.9-0.3-1.1-0.9-0.9-1.7c0.2-0.9,0.4-1.8,0.7-2.7
		c0.3-1.1,0.9-1.4,2-1c2.5,1,5,1.6,7.8,1.2c0.5-0.1,1-0.2,1.5-0.4c2.2-0.9,2.6-3.3,0.7-4.7c-1.2-0.8-2.6-1.3-3.9-1.9
		c-1.5-0.7-3.2-1.3-4.7-2.1c-5.5-3.3-5.3-10.6,0.3-13.8c0.6-0.3,1.3-0.6,1.9-0.9C67.7,21.7,67.7,21.7,67.7,19.7z"/>
	<path class="st0" d="M104.4,120l-28.8,0c-2.5,0-4.4-1.9-4.4-4.4c0-6.9,0-13.8,0-20.7c0-1.3,0-2.6,0-3.9c0-1.3,0-2.5,0-3.8
		c0-0.9,0-1.8,0-2.8c0-1.2,0-2.5,0-3.7c0-2.4,2-4.3,4.4-4.3h0c0.9,0,1.9,0,2.8,0l2.4,0c0-0.3,0-0.6,0-0.9c0-1.2,1-2.1,2.1-2.1h0
		c1.2,0,2.1,0.9,2.2,2.1c0,0.3,0,0.6,0,0.9H106c0,0,0-0.1,0-0.1c0-0.2,0-0.5,0-0.7c0-1.2,0.9-2.1,2.1-2.2l0,0c1.2,0,2.1,0.9,2.2,2.1
		c0,0.3,0,0.6,0,0.8c0,0,0,0,0,0c0.4,0,0.9,0,1.3,0c0.6,0,1.1,0,1.7,0c0.8,0,1.5,0,2.1,0l0.1,0c2.5,0,4.4,2,4.4,4.4c0,2.7,0,5.3,0,8
		c0,2,0,4,0,5.9c0,2.9,0,5.8,0,8.6c0,3.2,0,6.4,0,9.6c0,0.2,0,0.5,0,0.7c0,0.8,0,1.5,0,2.3c-0.2,2.3-2,4-4.4,4c-1.5,0-3,0-4.5,0
		L104.4,120z M75.5,112.6c0,0.3,0,0.6,0,0.9c0,0.7,0,1.4,0,2.1c0,0,0.1,0.1,0.1,0.1c0.5,0,1.1,0,1.9,0c0.3,0,0.7,0,1,0
		c0.3,0,0.7,0,1,0l34.4,0c0.6,0,1.1,0,1.7,0l0,0c0,0,0.1,0,0.1,0c0,0,0-0.1,0-0.3c0-3.5,0-7.1,0-10.6V89.6H75.5V112.6z M75.7,80.7
		c-0.2,0-0.2,0-0.2,0.2c0,0.6,0,1.2,0,1.8c0,0.9,0,1.7,0,2.6c1,0,2.1,0,3.1,0l3.3,0c0,0,28.5,0,33.8,0l0-0.6c0-1.3,0-2.6,0-3.9
		c0-0.1-0.1-0.1-0.1-0.1l-5.2,0c0,0.3,0,0.5,0,0.8c0,1-0.7,1.9-1.6,2.1c-0.2,0-0.4,0.1-0.6,0.1c-1.2,0-2.1-0.9-2.1-2.2
		c0-0.3,0-0.5,0-0.8H85.1c0,0.3,0,0.6,0,0.9c0,1.1-1,2-2.2,2c-0.3,0-0.6-0.1-0.9-0.2c-0.8-0.4-1.2-1.1-1.3-2c0-0.3,0-0.5,0-0.8
		L75.7,80.7V80V80.7z"/>
	<g>
		<path class="st0" d="M100.4,108.4c0.8,0,1.7,0,2.5,0c0.5,0,0.8,0.3,0.8,0.8c0,1.2,0,2.4,0,3.6c0,0.5-0.3,0.8-0.8,0.8
			c-1.7,0-3.3,0-5,0c-0.5,0-0.8-0.3-0.8-0.8c0-1.2,0-2.4,0-3.6c0-0.5,0.3-0.8,0.8-0.8C98.7,108.4,99.6,108.4,100.4,108.4z"/>
		<path class="st0" d="M90.8,108.4c0.8,0,1.7,0,2.5,0c0.5,0,0.8,0.3,0.8,0.8c0,1.2,0,2.4,0,3.7c0,0.4-0.3,0.8-0.7,0.8
			c-1.7,0-3.5,0-5.2,0c-0.4,0-0.7-0.3-0.7-0.8c0-1.2,0-2.5,0-3.7c0-0.4,0.3-0.7,0.8-0.7C89.1,108.4,89.9,108.4,90.8,108.4z"/>
		<path class="st0" d="M90.8,100.2c0.8,0,1.7,0,2.5,0c0.5,0,0.8,0.3,0.8,0.8c0,1.2,0,2.4,0,3.6c0,0.5-0.3,0.8-0.8,0.8
			c-1.7,0-3.4,0-5.2,0c-0.5,0-0.7-0.3-0.7-0.8c0-1.2,0-2.4,0-3.6c0-0.5,0.3-0.8,0.8-0.8C89.1,100.2,89.9,100.2,90.8,100.2z"/>
		<path class="st0" d="M81.1,108.4c0.8,0,1.7,0,2.5,0c0.5,0,0.8,0.3,0.8,0.8c0,1.2,0,2.4,0,3.6c0,0.5-0.3,0.8-0.8,0.8
			c-1.7,0-3.3,0-5,0c-0.6,0-0.9-0.3-0.9-0.9c0-1.2,0-2.3,0-3.5c0-0.5,0.3-0.8,0.8-0.8C79.4,108.4,80.3,108.4,81.1,108.4z"/>
		<path class="st0" d="M81.1,100.2c0.8,0,1.7,0,2.5,0c0.5,0,0.8,0.3,0.8,0.8c0,1.2,0,2.4,0,3.6c0,0.5-0.3,0.8-0.8,0.8
			c-1.6,0-3.3,0-4.9,0c-0.6,0-1-0.3-1-1c0-1.1,0-2.2,0-3.4c0-0.6,0.3-0.9,0.9-0.9C79.5,100.2,80.3,100.2,81.1,100.2z"/>
		<path class="st0" d="M110,100.2c0.8,0,1.7,0,2.5,0c0.5,0,0.8,0.3,0.8,0.8c0,1.2,0,2.5,0,3.7c0,0.4-0.3,0.7-0.7,0.7
			c0,0-0.1,0-0.1,0c-1.7,0-3.4,0-5.1,0c-0.5,0-0.8-0.3-0.8-0.8c0-1.2,0-2.4,0-3.6c0-0.5,0.3-0.8,0.9-0.8
			C108.4,100.2,109.2,100.2,110,100.2z"/>
		<path class="st0" d="M100.4,100.2c0.8,0,1.7,0,2.5,0c0.5,0,0.8,0.3,0.8,0.8c0,1.2,0,2.4,0,3.6c0,0.5-0.3,0.8-0.8,0.8
			c-1.7,0-3.3,0-5,0c-0.5,0-0.9-0.3-0.9-0.9c0-1.2,0-2.3,0-3.5c0-0.5,0.3-0.8,0.8-0.8C98.7,100.2,99.6,100.2,100.4,100.2z"/>
		<path class="st0" d="M100.4,97.2c-0.8,0-1.7,0-2.5,0c-0.6,0-0.8-0.3-0.8-0.9c0-1.2,0-2.4,0-3.5c0-0.5,0.3-0.8,0.8-0.8
			c1.7,0,3.4,0,5.1,0c0.4,0,0.8,0.3,0.8,0.7c0,1.2,0,2.5,0,3.7c0,0.5-0.3,0.8-0.8,0.8C102.1,97.2,101.2,97.2,100.4,97.2z"/>
		<path class="st0" d="M110.1,92c0.8,0,1.7,0,2.5,0c0.5,0,0.8,0.3,0.8,0.8c0,1.2,0,2.4,0,3.6c0,0.5-0.3,0.8-0.8,0.8
			c-1.7,0-3.4,0-5.1,0c-0.5,0-0.8-0.3-0.8-0.8c0-1.2,0-2.4,0-3.6c0-0.5,0.3-0.8,0.8-0.8C108.4,92,109.2,92,110.1,92
			C110.1,92,110.1,92,110.1,92z"/>
		<path class="st0" d="M90.8,97.2c-0.8,0-1.7,0-2.5,0c-0.6,0-0.8-0.3-0.8-0.8c0-1.2,0-2.4,0-3.6c0-0.5,0.3-0.8,0.8-0.8
			c1.7,0,3.4,0,5,0c0.5,0,0.8,0.3,0.8,0.8c0,1.2,0,2.4,0,3.6c0,0.5-0.3,0.8-0.8,0.8C92.4,97.2,91.6,97.2,90.8,97.2z"/>
	</g>
	<path class="st0" d="M2.9,120c-2,0-2.9-0.9-2.9-2.8c0-5.9,0-21.1,0-21.1c0-19.6,0-39.9,0-60c0-1.3,0.4-2.1,1.3-3
		c5.8-5.8,11.7-11.6,17.3-17.3C23.3,11,28.2,6.2,33,1.3c0.4-0.4,0.8-0.7,1.3-1c0.2-0.1,0.3-0.2,0.5-0.4h62.5
		c1.3,0.6,1.8,1.5,1.8,3.2c0,20.6,0,52.8,0,76.2h-4.9V4.9H37.8l0,9.7c0,6.3,0,13.4,0,20.4c0,1.8-0.9,2.7-2.8,2.7c-1.3,0-2.7,0-4,0
		c-1,0-1.9,0-2.9,0l-0.4,0c-0.8,0-1.7,0-2.5,0H4.9v77.4h0.7c10,0,23.2,0,34.9,0.1l7.6,0c8.6,0,16,0,23.6,0l6.5,4.8
		C57.5,120,23,120,2.9,120z M8.7,32.8h24.1V8.7L8.7,32.8z"/>
	<g>
		<path class="st0" d="M41.9,61.7c-9.8,0-19.4,0-29.1,0c0-1.8,0-3.6,0-5.5c9.7,0,19.3,0,29.1,0C41.9,57.9,41.9,59.8,41.9,61.7z"/>
		<path class="st0" d="M12.8,72.7c0-1.8,0-3.6,0-5.5c7,0,14,0,21.1,0c0,1.8,0,3.6,0,5.5C26.9,72.7,19.9,72.7,12.8,72.7z"/>
		<path class="st0" d="M47.1,50.5c-11.5,0-22.8,0-34.3,0c0-1.8,0-3.6,0-5.5c11.4,0,22.8,0,34.3,0C47.1,46.8,47.1,48.6,47.1,50.5z"/>
	</g>
</g>
</svg>
