<?xml version="1.0" encoding="utf-8"?>
<!-- Generator: Adobe Illustrator 19.2.0, SVG Export Plug-In . SVG Version: 6.00 Build 0)  -->
<svg version="1.1" id="Layer_1" xmlns="http://www.w3.org/2000/svg" xmlns:xlink="http://www.w3.org/1999/xlink" x="0px" y="0px"
	 viewBox="0 0 512 512" style="enable-background:new 0 0 512 512;" xml:space="preserve">
<style type="text/css">
	.st0{fill:#FFFFFF;}
</style>
<g>
	<path class="st0" d="M341.6,237.4c-4.7,0-8.5,3.8-8.5,8.5v220.4c0,14-11.4,25.4-25.4,25.4H44.8c-14,0-25.4-11.4-25.4-25.4V101.7
		c0-11.6,7.8-21.7,19.1-24.6c4.5-1.2,7.3-5.8,6.1-10.3s-5.8-7.2-10.3-6.1c-18.8,4.8-31.9,21.7-31.9,41v364.6
		c0,23.4,19,42.4,42.4,42.4h262.8c23.4,0,42.4-19,42.4-42.4V245.9C350,241.2,346.3,237.4,341.6,237.4z"/>
	<path class="st0" d="M314,77.1c11.2,2.9,19.1,13,19.1,24.6v8.5c0,4.7,3.8,8.5,8.5,8.5s8.5-3.8,8.5-8.5v-8.5
		c0-19.3-13.1-36.2-31.8-41c-4.5-1.2-9.2,1.5-10.3,6.1C306.8,71.3,309.5,75.9,314,77.1z"/>
	<path class="st0" d="M61.8,118.7h228.9c4.7,0,8.5-3.8,8.5-8.5V84.8c0-14-11.4-25.4-25.4-25.4h-10.6l-11.7-40.9
		C248.4,7.6,238.3,0,227,0H125.5c-11.3,0-21.4,7.6-24.5,18.4L89.3,59.3H78.7c-14,0-25.4,11.4-25.4,25.4v25.4
		C53.3,114.9,57.1,118.7,61.8,118.7z M70.3,84.8c0-4.7,3.8-8.5,8.5-8.5h17c3.8,0,7.1-2.5,8.2-6.2L117.4,23c1-3.6,4.4-6.1,8.1-6.1
		H227c3.8,0,7.1,2.5,8.1,6.1l13.4,47.1c1,3.6,4.4,6.1,8.2,6.1h17c4.7,0,8.5,3.8,8.5,8.5v17h-212L70.3,84.8L70.3,84.8z"/>
	<path class="st0" d="M177.4,29.2c-14.3,0-26,11.7-26,26s11.7,26,26,26s26-11.7,26-26S191.7,29.2,177.4,29.2z M177.4,64.3
		c-5,0-9-4.1-9-9s4.1-9,9-9s9,4.1,9,9S182.4,64.3,177.4,64.3z"/>
	<path class="st0" d="M256.8,212c0-4.7-3.8-8.5-8.5-8.5h-50.9c-4.7,0-8.5,3.8-8.5,8.5s3.8,8.5,8.5,8.5h50.9
		C253,220.4,256.8,216.6,256.8,212z"/>
	<path class="st0" d="M70.3,279.8h50.9c4.7,0,8.5-3.8,8.5-8.5s-3.8-8.5-8.5-8.5H70.3c-4.7,0-8.5,3.8-8.5,8.5S65.6,279.8,70.3,279.8z
		"/>
	<path class="st0" d="M299.2,152.6c0-4.7-3.8-8.5-8.5-8.5h-93.3c-4.7,0-8.5,3.8-8.5,8.5s3.8,8.5,8.5,8.5h93.3
		C295.4,161.1,299.2,157.3,299.2,152.6z"/>
	<path class="st0" d="M163.5,271.3c0,4.7,3.8,8.5,8.5,8.5h59.3c4.7,0,8.5-3.8,8.5-8.5s-3.8-8.5-8.5-8.5H172
		C167.3,262.8,163.5,266.6,163.5,271.3z"/>
	<path class="st0" d="M290.7,322.2H70.3c-4.7,0-8.5,3.8-8.5,8.5s3.8,8.5,8.5,8.5h220.4c4.7,0,8.5-3.8,8.5-8.5
		S295.4,322.2,290.7,322.2z"/>
	<path class="st0" d="M70.3,398.5h50.9c4.7,0,8.5-3.8,8.5-8.5s-3.8-8.5-8.5-8.5H70.3c-4.7,0-8.5,3.8-8.5,8.5
		C61.8,394.7,65.6,398.5,70.3,398.5z"/>
	<path class="st0" d="M290.7,381.5H172c-4.7,0-8.5,3.8-8.5,8.5s3.8,8.5,8.5,8.5h118.7c4.7,0,8.5-3.8,8.5-8.5
		S295.4,381.5,290.7,381.5z"/>
	<path class="st0" d="M70.3,457.8h220.4c4.7,0,8.5-3.8,8.5-8.5s-3.8-8.5-8.5-8.5H70.3c-4.7,0-8.5,3.8-8.5,8.5
		C61.8,454,65.6,457.8,70.3,457.8z"/>
	<path class="st0" d="M146.6,144.1H87.2c-14,0-25.4,11.4-25.4,25.4V195c0,14,11.4,25.4,25.4,25.4h59.3c14,0,25.4-11.4,25.4-25.4
		v-25.4C172,155.5,160.6,144.1,146.6,144.1z M155,195c0,4.7-3.8,8.5-8.5,8.5H87.2c-4.7,0-8.5-3.8-8.5-8.5v-25.4
		c0-4.7,3.8-8.5,8.5-8.5h59.3c4.7,0,8.5,3.8,8.5,8.5V195z"/>
	<path class="st0" d="M382.1,278.7c0,35.1,28.6,63.7,63.7,63.7s63.7-28.6,63.7-63.7S481,215,445.8,215S382.1,243.6,382.1,278.7z
		 M492.6,278.7c0,25.8-21,46.8-46.8,46.8s-46.8-21-46.8-46.8s21-46.8,46.8-46.8S492.6,252.9,492.6,278.7z"/>
	<path class="st0" d="M432.1,273.6c-3.4-3.2-8.8-3-12,0.5c-3.2,3.4-3,8.8,0.5,12l19.5,18c1.6,1.5,3.6,2.3,5.8,2.3
		c0.4,0,0.8,0,1.2-0.1c2.5-0.4,4.8-1.8,6.1-4l21.2-35c2.4-4,1.2-9.2-2.8-11.6s-9.2-1.2-11.6,2.8l-16,26L432.1,273.6z"/>
	<path class="st0" d="M445.8,384.6c-35.1,0-63.7,28.6-63.7,63.7s28.6,63.7,63.7,63.7s63.7-28.6,63.7-63.7S481,384.6,445.8,384.6z
		 M445.8,495c-25.8,0-46.8-21-46.8-46.8s21-46.8,46.8-46.8s46.8,21,46.8,46.8S471.6,495,445.8,495z"/>
	<path class="st0" d="M471.5,425.1c-4-2.4-9.2-1.2-11.6,2.8L444,454.1l-11.8-11c-3.4-3.2-8.8-3-12,0.5c-3.2,3.4-3,8.8,0.5,12
		l19.5,18c1.6,1.5,3.6,2.3,5.8,2.3c0.4,0,0.8,0,1.2-0.1c2.5-0.4,4.8-1.8,6.1-4l21.2-35C476.8,432.8,475.5,427.6,471.5,425.1z"/>
	<path class="st0" d="M453.9,131.3l-53.9,54c-3.3,3.3-3.3,8.7,0,12c1.7,1.7,3.8,2.5,6,2.5s4.3-0.8,6-2.5l59.9-59.9
		c3.3-3.3,3.3-8.7,0-12l-18-18c4.8-4.8,7.5-11.2,7.5-18s-2.6-13.2-7.5-18c-9.9-9.9-26-9.9-36,0l-8.7,8.7L346,143.3l-71.9,71.9
		c-4.8,4.8-7.5,11.2-7.5,18c0,3.8,0.9,7.5,2.5,10.9L256,257.2c-3.3,3.3-3.3,8.7,0,12c1.7,1.7,3.8,2.5,6,2.5s4.3-0.8,6-2.5l13.1-13.1
		c3.4,1.6,7.1,2.5,10.9,2.5c6.5,0,13-2.5,18-7.4l71.9-71.9l59.9-59.9L453.9,131.3z M429.9,83.4c3.3-3.3,8.7-3.3,12,0
		c1.6,1.6,2.5,3.7,2.5,6s-0.9,4.4-2.5,6l-2.7,2.7l-6-6l-6-6L429.9,83.4z M298.1,239.2c-3.3,3.3-8.7,3.3-12,0c-1.6-1.6-2.5-3.7-2.5-6
		s0.9-4.4,2.5-6l0,0l65.9-65.9l12,12L298.1,239.2z M376,161.3l-12-12L415.3,98l6,6l6,6L376,161.3z"/>
</g>
</svg>
