<?xml version="1.0" encoding="utf-8"?>
<!-- Generator: Adobe Illustrator 19.2.0, SVG Export Plug-In . SVG Version: 6.00 Build 0)  -->
<svg version="1.1" id="Layer_1" xmlns="http://www.w3.org/2000/svg" xmlns:xlink="http://www.w3.org/1999/xlink" x="0px" y="0px"
	 viewBox="0 0 40 40" style="enable-background:new 0 0 40 40;" xml:space="preserve">
<style type="text/css">
	.st0{fill:#686868;}
</style>
<g>
	<path class="st0" d="M0.4,21.1L0.4,21.1c0.5-0.5,1.3-0.5,1.8,0l7.7,7.7c0.5,0.5,0.5,1.3,0,1.8l0,0c-0.5,0.5-1.3,0.5-1.8,0l-7.7-7.7
		C-0.1,22.4-0.1,21.6,0.4,21.1z M10.8,21.1L10.8,21.1c0.5-0.5,1.3-0.5,1.8,0l5.9,5.9c0.5,0.5,1.3,0.5,1.8,0L37.8,9.4
		c0.5-0.5,1.3-0.5,1.8,0l0.1,0.1c0.5,0.5,0.5,1.3,0,1.8L20.3,30.6c-0.5,0.5-1.3,0.5-1.8,0l-7.7-7.7C10.3,22.4,10.3,21.6,10.8,21.1z
		 M18.5,18.4l9-9c0.5-0.5,1.3-0.5,1.8,0l0,0c0.5,0.5,0.5,1.3,0,1.8l-9,9c-0.5,0.5-1.3,0.5-1.8,0l0,0C18,19.7,18,18.9,18.5,18.4z"/>
</g>
</svg>
