<?xml version="1.0" standalone="no"?>
<!DOCTYPE svg PUBLIC "-//W3C//DTD SVG 20010904//EN"
 "http://www.w3.org/TR/2001/REC-SVG-20010904/DTD/svg10.dtd">
<svg version="1.0" xmlns="http://www.w3.org/2000/svg"
 width="512.000000pt" height="512.000000pt" viewBox="0 0 512.000000 512.000000"
 preserveAspectRatio="xMidYMid meet">
<metadata>
Created by potrace 1.13, written by Peter Selinger 2001-2015
</metadata>
<g transform="translate(0.000000,512.000000) scale(0.100000,-0.100000)"
fill="#fff" stroke="none">
<path d="M0 2560 l0 -2560 105 0 105 0 0 2355 0 2355 345 0 345 0 0 205 0 205
-450 0 -450 0 0 -2560z"/>
<path d="M1400 4705 l0 -415 25 0 25 0 2 208 3 207 1108 3 1107 2 0 205 0 205
-1135 0 -1135 0 0 -415z"/>
<path d="M4170 4705 l0 -415 25 0 25 0 2 208 3 207 343 3 342 2 0 -2355 0
-2355 105 0 105 0 0 2560 0 2560 -475 0 -475 0 0 -415z"/>
<path d="M690 1995 l0 -1465 1870 0 1870 0 0 1465 0 1465 -1870 0 -1870 0 0
-1465z m1180 840 l0 -345 -345 0 -345 0 0 345 0 345 345 0 345 0 0 -345z
m1040 0 l0 -345 -350 0 -350 0 0 345 0 345 350 0 350 0 0 -345z m1030 0 l0
-345 -345 0 -345 0 0 345 0 345 345 0 345 0 0 -345z m-2070 -970 l0 -345 -345
0 -345 0 0 345 0 345 345 0 345 0 0 -345z m1038 3 l-3 -343 -345 0 -345 0 -3
343 -2 342 350 0 350 0 -2 -342z m1032 -3 l0 -345 -345 0 -345 0 0 345 0 345
345 0 345 0 0 -345z"/>
</g>
</svg>
