<?xml version="1.0" encoding="utf-8"?>
<!-- Generator: Adobe Illustrator 19.2.0, SVG Export Plug-In . SVG Version: 6.00 Build 0)  -->
<svg version="1.1" id="Layer_1" xmlns="http://www.w3.org/2000/svg" xmlns:xlink="http://www.w3.org/1999/xlink" x="0px" y="0px"
	 viewBox="0 0 512 512" style="enable-background:new 0 0 512 512;" xml:space="preserve">
<style type="text/css">
	.st0{fill:#FFFFFF;}
</style>
<g>
	<polygon class="st0" points="512,512 243.2,512 243.2,496 496,496 496,16 221.6,16 221.6,0 512,0 	"/>
	<path class="st0" d="M178.4,124.8H65.6c-36,0-65.6,29.6-65.6,65.6v162.4h36V512h171.2V352.8h36V190.4
		C244,154.4,214.4,124.8,178.4,124.8z M228,336.8h-36V496h-61.6V377.6h-16V496H52V336.8h-36V190.4c0-27.2,22.4-49.6,49.6-49.6h112.8
		c27.2,0,49.6,22.4,49.6,49.6L228,336.8L228,336.8z"/>
	<g>
		<path class="st0" d="M121.6,110.4c-30.4,0-55.2-24.8-55.2-55.2S91.1,0,121.6,0s55.2,24.8,55.2,55.2
			C176.8,85.6,152,110.4,121.6,110.4z M121.6,16C100,16,82.3,33.5,82.3,55.2s17.6,39.2,39.2,39.2s39.2-17.6,39.2-39.2
			C160.8,33.6,143.2,16,121.6,16z"/>
		<rect x="66.4" y="204.8" class="st0" width="16" height="16"/>
		<rect x="113.6" y="204.8" class="st0" width="16" height="16"/>
		<rect x="161.6" y="204.8" class="st0" width="16" height="16"/>
		<polygon class="st0" points="420.8,107.2 393.6,79.2 404.8,68 420.8,84 460.8,44.8 472,56 		"/>
		<polygon class="st0" points="420.8,198.4 393.6,170.4 404.8,159.2 420.8,176 460.8,136 472,147.2 		"/>
		<polygon class="st0" points="420.8,381.6 393.6,353.6 404.8,342.4 420.8,359.2 460.8,319.2 472,330.4 		"/>
		<polygon class="st0" points="420.8,472.8 393.6,445.6 404.8,434.4 420.8,450.4 460.8,410.4 472,421.6 		"/>
		<polygon class="st0" points="420.8,290.4 393.6,262.4 404.8,251.2 420.8,267.2 460.8,227.2 472,239.2 		"/>
		<rect x="275.2" y="72.8" class="st0" width="73.6" height="16"/>
		<rect x="275.2" y="164" class="st0" width="73.6" height="16"/>
		<rect x="275.2" y="255.2" class="st0" width="73.6" height="16"/>
		<rect x="275.2" y="347.2" class="st0" width="73.6" height="16"/>
		<rect x="275.2" y="438.4" class="st0" width="73.6" height="16"/>
	</g>
</g>
</svg>
