<?xml version="1.0" encoding="utf-8"?>
<!-- Generator: Adobe Illustrator 19.2.0, SVG Export Plug-In . SVG Version: 6.00 Build 0)  -->
<svg version="1.1" id="Layer_1" xmlns="http://www.w3.org/2000/svg" xmlns:xlink="http://www.w3.org/1999/xlink" x="0px" y="0px"
	 viewBox="0 0 512 512" style="enable-background:new 0 0 512 512;" xml:space="preserve">
<style type="text/css">
	.st0{fill:#FFFFFF;}
</style>
<g>
	<path class="st0" d="M442.8,346.3L392.3,419l-35.7-29.2c-3.8-3.2-9.5-2.6-12.7,1.2c-3.2,3.8-2.6,9.6,1.2,12.7l43.3,35.5
		c1.6,1.3,3.6,2,5.7,2c0.4,0,0.8,0,1.2-0.1c2.5-0.4,4.8-1.7,6.2-3.8l56.1-80.6c2.9-4.1,1.9-9.7-2.2-12.6
		C451.3,341.2,445.7,342.2,442.8,346.3L442.8,346.3z M442.8,346.3"/>
	<path class="st0" d="M486.4,321.1V108.5c0-60.7-49.3-110-110-110H108.5c-60.7,0-110,49.4-110,110v267.9c0,60.7,49.4,110,110,110
		h212.5c20.4,16.9,46.5,27.1,75,27.1c64.8,0,117.5-52.7,117.5-117.5C513.5,367.6,503.3,341.4,486.4,321.1L486.4,321.1z M108.5,468.3
		c-50.7,0-91.9-41.3-91.9-91.9V108.5c0-50.7,41.2-91.9,91.9-91.9h267.9c50.7,0,91.9,41.2,91.9,91.9v195.1c-0.7-0.5-1.4-1-2.1-1.5
		c-1.9-1.5-3.8-2.9-5.8-4.2c-0.2-0.1-0.4-0.2-0.6-0.4c-4.7-3-9.5-5.7-14.6-8c-0.7-0.3-1.4-0.7-2.1-1c-2-0.8-4-1.6-6-2.4
		c-1.3-0.5-2.6-1-3.9-1.4c-1.9-0.6-3.7-1.2-5.7-1.7c-1.6-0.4-3.2-0.9-4.8-1.2c-1.7-0.4-3.4-0.8-5.2-1.2c-2.1-0.4-4.2-0.7-6.3-0.9
		c-1.4-0.2-2.8-0.4-4.2-0.6c-3.6-0.3-7.3-0.5-10.9-0.5c-55.4,0-101.9,38.6-114.2,90.3h-39.4c-5,0-9,4-9,9c0,5,4.1,9,9,9H279
		c-0.2,3-0.4,6-0.4,9c0,3.7,0.2,7.3,0.5,10.9c0.1,1.4,0.4,2.8,0.6,4.2c0.3,2.1,0.5,4.2,0.9,6.2c0.4,1.8,0.7,3.5,1.2,5.3
		c0.4,1.6,0.8,3.2,1.2,4.8c0.5,1.9,1.1,3.9,1.7,5.7c0.4,1.3,0.9,2.6,1.4,3.8c0.8,2.1,1.5,4.1,2.4,6.2c0.3,0.6,0.6,1.2,0.9,1.8
		c2.4,5.3,5.2,10.3,8.3,15.1c0.1,0.1,0.1,0.3,0.2,0.4c1.3,2,2.7,3.9,4.2,5.8c0.5,0.7,1,1.4,1.5,2.1H108.5z M396,495.4
		c-25.5,0-48.7-9.7-66.3-25.6c-2.2-1.9-4.3-4-6.3-6.1c-0.4-0.4-0.8-0.9-1.3-1.4c-1.9-2.1-3.7-4.3-5.4-6.5c-0.4-0.5-0.8-1-1.2-1.5
		c-1.6-2.3-3.2-4.7-4.7-7.1c-0.3-0.5-0.6-1-0.9-1.5c-1.5-2.6-2.9-5.2-4.1-7.8c-0.2-0.4-0.4-0.8-0.6-1.3c-1.2-2.8-2.3-5.6-3.3-8.5
		c-0.1-0.3-0.3-0.7-0.4-1.1c-1-3-1.8-6-2.5-9c-0.1-0.4-0.2-0.7-0.3-1.1c-0.7-3-1.1-6-1.5-9.1c0-0.4-0.1-0.8-0.2-1.3
		c-0.4-3.4-0.6-6.9-0.6-10.5c0-54.8,44.6-99.4,99.4-99.4c3.5,0,7,0.2,10.5,0.6c0.4,0,0.8,0.1,1.2,0.2c3.1,0.3,6.1,0.8,9.1,1.5
		c0.3,0.1,0.7,0.2,1,0.3c3.1,0.7,6.1,1.5,9,2.5c0.4,0.1,0.7,0.3,1,0.4c2.9,1,5.8,2.1,8.6,3.4c0.4,0.2,0.8,0.4,1.2,0.6
		c2.7,1.3,5.3,2.6,7.9,4.1c0.5,0.3,0.9,0.6,1.4,0.9c2.4,1.5,4.8,3,7.2,4.8c0.5,0.4,1,0.7,1.5,1.1c2.3,1.7,4.5,3.6,6.6,5.5
		c0.4,0.4,0.9,0.8,1.4,1.2c2.1,2,4.2,4.1,6.2,6.4c15.8,17.6,25.5,40.8,25.5,66.2C495.4,450.8,450.8,495.4,396,495.4L396,495.4z
		 M396,495.4"/>
	<path class="st0" d="M242.5,125h162.6c5,0,9-4,9-9c0-5-4.1-9-9-9H242.5c-5,0-9,4-9,9C233.4,121,237.5,125,242.5,125L242.5,125z
		 M242.5,125"/>
	<path class="st0" d="M242.5,251.4h162.6c5,0,9-4,9-9c0-5-4.1-9-9-9H242.5c-5,0-9,4-9,9C233.4,247.4,237.5,251.4,242.5,251.4
		L242.5,251.4z M242.5,251.4"/>
	<path class="st0" d="M171.7,64.9l-56.5,65.9l-34.5-25.9c-4-3-9.7-2.2-12.7,1.8c-3,4-2.2,9.6,1.8,12.6l41.3,31
		c1.6,1.2,3.5,1.8,5.4,1.8c2.6,0,5.1-1.1,6.9-3.1l61.9-72.3c3.2-3.7,2.8-9.5-1-12.7C180.7,60.7,175,61.1,171.7,64.9L171.7,64.9z
		 M171.7,64.9"/>
	<path class="st0" d="M171.7,191.4l-56.5,65.9l-34.5-25.9c-4-3-9.7-2.2-12.7,1.8c-3,4-2.2,9.7,1.8,12.6l41.3,31
		c1.6,1.2,3.5,1.8,5.4,1.8c2.6,0,5.1-1.1,6.9-3.2l61.9-72.3c3.2-3.8,2.8-9.5-1-12.7C180.7,187.2,175,187.6,171.7,191.4L171.7,191.4z
		 M171.7,191.4"/>
	<path class="st0" d="M171.7,326.9l-56.5,65.9l-34.5-25.9c-4-3-9.7-2.2-12.7,1.8c-3,4-2.2,9.7,1.8,12.6l41.3,31
		c1.6,1.2,3.5,1.8,5.4,1.8c2.6,0,5.1-1.1,6.9-3.2l61.9-72.3c3.2-3.8,2.8-9.5-1-12.7C180.7,322.7,175,323.1,171.7,326.9L171.7,326.9z
		 M171.7,326.9"/>
</g>
</svg>
