<?xml version="1.0" encoding="utf-8"?>
<!-- Generator: Adobe Illustrator 22.1.0, SVG Export Plug-In . SVG Version: 6.00 Build 0)  -->
<svg version="1.1" id="Layer_1" xmlns="http://www.w3.org/2000/svg" xmlns:xlink="http://www.w3.org/1999/xlink" x="0px" y="0px"
	 viewBox="0 0 293.4 240.5" style="enable-background:new 0 0 293.4 240.5;" xml:space="preserve">
<style type="text/css">
	.st0{fill:#4CB4B8;}
</style>
<g>
	<path class="st0" d="M278.2,210.1c8.4,0,15.2,6.8,15.2,15.2s-6.8,15.2-15.2,15.2c-8.4,0-15.2-6.8-15.2-15.2
		S269.8,210.1,278.2,210.1z"/>
	<g>
		<path class="st0" d="M196.3,96.3h-64.7v15.6h64.9V171h-9.6v0.1H43.2v69.4h158.9c33.6,0,60.9-27.3,60.9-60.9V85.3h-66.7L196.3,96.3
			L196.3,96.3z M225.3,190c8.4,0,15.2,6.8,15.2,15.2s-6.8,15.2-15.2,15.2s-15.2-6.8-15.2-15.2C210,196.8,216.8,190,225.3,190z"/>
		<path class="st0" d="M202.1,4.9H43.2v155.3h67v-11h64.4v-15.3h-64.9V74.4h10.2v-0.1H263v-8.5C263,32.2,235.7,4.9,202.1,4.9z
			 M84,45.7H53.6V15.3H84V45.7z"/>
	</g>
	<rect x="0" y="0" class="st0" width="30.4" height="30.4"/>
</g>
</svg>
