<?xml version="1.0" encoding="utf-8"?>
<!-- Generator: Adobe Illustrator 23.0.1, SVG Export Plug-In . SVG Version: 6.00 Build 0)  -->
<svg version="1.1" id="Capa_1" xmlns="http://www.w3.org/2000/svg" xmlns:xlink="http://www.w3.org/1999/xlink" x="0px" y="0px"
	 viewBox="0 0 40 40" style="enable-background:new 0 0 40 40;" xml:space="preserve">
<style type="text/css">
	.st0{fill:#3A3A3A;}
</style>
<g>
	<path class="st0" d="M39.9,18.6c0-0.3-0.1-0.7-0.3-1c-0.4-0.7-1.3-1.1-2.2-0.9c-0.8,0.2-1.5,1-1.5,1.9c0,1.9,0,3.8,0,5.7
		c0,0.2,0,0.4-0.1,0.5c-0.2,0.3-0.4,0.5-0.7,0.7c0-0.1-0.1-0.1-0.1-0.1c-0.7-1.5-2.6-1.8-3.7-0.3c-0.8,1.1-1.6,2.1-2.5,3.1
		c-0.9,1-1.3,2.1-1.2,3.5c0.1,0.9,0,1.8,0,2.7c-0.2,0-0.4,0-0.6,0c-0.4,0-0.7,0.3-0.7,0.7c0,1.3,0,2.7,0,4c0,0.4,0.3,0.7,0.7,0.7
		c3.1,0,6.1,0,9.2,0c0.5,0,0.7-0.3,0.7-0.7c0-1.3,0-2.7,0-4c0-0.5-0.3-0.7-0.8-0.7c-0.3,0-0.5,0-0.8,0c-0.1-0.8-0.1-1.5,0.5-2.2
		c1.2-1.6,2.4-3.2,3.5-4.8c0.2-0.3,0.4-0.8,0.4-1.1C39.9,23.8,39.9,21.2,39.9,18.6z M35.8,35.7c0,1,0,2,0,3c-2.7,0-5.4,0-8.1,0
		c0-1,0-2,0-3C30.4,35.7,33.1,35.7,35.8,35.7z M38.3,27.1c-1.1,1.5-2.1,3-3.2,4.4c-0.5,0.7-0.8,1.5-0.8,2.3c0,0.2,0,0.4,0,0.6
		c-1.8,0-3.5,0-5.3,0c0-0.9,0-1.7,0-2.6c0-1.9-0.2-1.4,1-2.8c0.8-1,1.6-2.1,2.4-3.1c0.4-0.5,0.8-0.6,1.2-0.3c0.5,0.3,0.6,1,0.3,1.5
		c-0.2,0.3-0.4,0.5-0.6,0.8c-0.3,0.3-0.3,0.7,0,0.9c0.3,0.2,0.6,0.2,0.9-0.1c0.9-1.1,1.9-2.1,2.8-3.2c0.1-0.2,0.2-0.4,0.2-0.6
		c0-2,0-4,0-5.9c0-0.2,0-0.4,0.1-0.5c0.1-0.3,0.4-0.5,0.7-0.5c0.4,0,0.6,0.2,0.7,0.5c0.1,0.2,0.1,0.3,0.1,0.5c0,2.3,0,4.7,0,7
		C38.7,26.4,38.6,26.8,38.3,27.1z"/>
	<path class="st0" d="M12.8,34.5c-0.2,0-0.4,0-0.6,0c0-1.2,0-2.4,0-3.6c0-0.6-0.2-1.2-0.6-1.7c-1.1-1.4-2.2-2.8-3.3-4.2
		c-0.9-1.1-2.4-1-3.2,0.2c-0.1,0.1-0.2,0.3-0.3,0.4c-0.6-0.5-0.8-1-0.8-1.7c0.1-1.7,0-3.4,0-5.1c0-0.3,0-0.5-0.1-0.8
		c-0.3-0.9-1.3-1.4-2.2-1.3c-1,0.2-1.7,1-1.7,2c0,2.5,0,5,0,7.5c0,0.4,0.2,0.8,0.4,1.2C1.6,29,2.8,30.6,4,32.2
		c0.6,0.7,0.6,1.5,0.5,2.3c-0.3,0-0.5,0-0.8,0c-0.6,0-0.8,0.3-0.8,0.8c0,1.2,0,2.5,0,3.7c0,0.7,0.2,0.9,0.9,0.9c1,0,2,0,3,0
		c2,0,3.9,0,5.9,0c0.5,0,0.8-0.2,0.8-0.7c0-1.4,0-2.8,0-4.1C13.5,34.8,13.2,34.5,12.8,34.5z M1.5,26.9c-0.1-0.2-0.2-0.5-0.2-0.7
		c0-2.4,0-4.9,0-7.3c0-0.3,0.1-0.6,0.3-0.8c0.5-0.3,1.2,0,1.2,0.6c0,0.4,0,0.9,0,1.3c0,1.6,0,3.2,0,4.8c0,0.2,0.1,0.5,0.3,0.7
		c0.9,1,1.8,2.1,2.7,3.1c0.3,0.4,0.8,0.4,1,0.1c0.2-0.2,0.2-0.5,0-0.7c-0.2-0.2-0.4-0.5-0.6-0.7c-0.3-0.4-0.3-0.9,0-1.3
		c0.3-0.5,0.9-0.5,1.3-0.1c1.1,1.4,2.2,2.8,3.3,4.2c0.2,0.2,0.3,0.6,0.3,0.8c0,1.2,0,2.4,0,3.5c0,0.1,0,0.1,0,0.2
		c-1.8,0-3.5,0-5.3,0c0-0.3,0-0.6,0-0.8c0-0.7-0.2-1.3-0.6-1.9C3.8,30.1,2.7,28.5,1.5,26.9z M12.3,38.7c-2.7,0-5.4,0-8.1,0
		c0-1,0-2,0-3c2.7,0,5.4,0,8.1,0C12.3,36.7,12.3,37.7,12.3,38.7z"/>
	<path class="st0" d="M11.5,27.2c0,0.8,0.2,0.9,0.9,0.9c5.1,0,10.2,0,15.2,0c0.7,0,0.8-0.2,0.8-0.8c0-3,0-6.1,0-9.1c0-3,0-6,0-9
		c0-0.4-0.1-0.8-0.4-1.1c-2.3-2.4-4.6-4.9-6.9-7.4c-0.7-0.8-1.7-0.8-2.4,0c-2.3,2.4-4.5,4.8-6.8,7.1c-0.4,0.4-0.6,0.8-0.6,1.4
		C11.5,15.1,11.5,21.1,11.5,27.2z M13,8.4c2.2-2.3,4.3-4.6,6.5-6.8c0.4-0.4,0.5-0.4,0.9,0c2.2,2.3,4.4,4.7,6.6,7.1
		c0.1,0.1,0.2,0.4,0.2,0.6c0,5.8,0,11.6,0,17.4c0,0.1,0,0.2,0,0.3c-4.9,0-9.7,0-14.6,0c0-0.1,0-0.3,0-0.4c0-5.7,0-11.5,0-17.2
		C12.7,8.9,12.8,8.6,13,8.4z"/>
	<path class="st0" d="M20,9.5c1.5,0,2.7-1.2,2.7-2.7c0-1.5-1.2-2.7-2.7-2.7c-1.5,0-2.7,1.2-2.8,2.7C17.3,8.3,18.5,9.6,20,9.5z
		 M20,5.3c0.9,0,1.5,0.7,1.5,1.5c0,0.8-0.7,1.5-1.5,1.5c-0.9,0-1.5-0.7-1.5-1.5C18.5,6,19.2,5.3,20,5.3z"/>
	<path class="st0" d="M13.4,18.9l1.5,0.7L14,21c-0.1,0.2-0.2,0.5,0,0.7c0.1,0.2,0.4,0.4,0.6,0.3l1.7-0.1l-0.1,1.7
		c0,0.3,0.1,0.5,0.3,0.6c0.2,0.1,0.5,0.1,0.7,0l1.4-1l0.7,1.5c0.1,0.2,0.3,0.4,0.6,0.4c0.3,0,0.5-0.1,0.6-0.4l0.7-1.5l1.4,1
		c0.2,0.1,0.5,0.2,0.7,0c0.2-0.1,0.4-0.4,0.3-0.6l-0.1-1.7l1.7,0.1c0.3,0,0.5-0.1,0.6-0.3c0.1-0.2,0.1-0.5,0-0.7l-1-1.4l1.5-0.7
		c0.2-0.1,0.4-0.3,0.4-0.6c0-0.3-0.1-0.5-0.4-0.6L25,16.9l1-1.4c0.1-0.2,0.2-0.5,0-0.7c-0.1-0.2-0.4-0.4-0.6-0.3l-1.7,0.1l0.1-1.7
		c0-0.3-0.1-0.5-0.3-0.6c-0.2-0.1-0.5-0.1-0.7,0l-1.4,1l-0.7-1.5l0,0c-0.1-0.2-0.3-0.4-0.6-0.4s-0.5,0.1-0.6,0.4l-0.7,1.5l-1.4-1
		c-0.2-0.1-0.5-0.2-0.7,0c-0.2,0.1-0.4,0.4-0.3,0.6l0.1,1.7l-1.7-0.1c-0.3,0-0.5,0.1-0.6,0.3s-0.1,0.5,0,0.7l1,1.4l-1.5,0.7
		C13.2,17.8,13,18,13,18.3C13,18.5,13.2,18.8,13.4,18.9z M15.9,17.7c0.2-0.1,0.3-0.2,0.4-0.4c0.1-0.2,0-0.4-0.1-0.6l-0.7-1.1
		l1.3,0.1c0.2,0,0.4-0.1,0.5-0.2c0.1-0.1,0.2-0.3,0.2-0.5l-0.1-1.3l1.1,0.7c0.2,0.1,0.4,0.1,0.6,0.1c0.2-0.1,0.3-0.2,0.4-0.4
		l0.6-1.2l0.6,1.2c0.1,0.2,0.2,0.3,0.4,0.4c0.2,0.1,0.4,0,0.6-0.1l1.1-0.7L22.5,15c0,0.2,0.1,0.4,0.2,0.5c0.1,0.1,0.3,0.2,0.5,0.2
		l1.3-0.1l-0.7,1.1c-0.1,0.2-0.1,0.4-0.1,0.6c0.1,0.2,0.2,0.3,0.4,0.4l1.2,0.6L24,18.8c-0.2,0.1-0.3,0.2-0.4,0.4
		c-0.1,0.2,0,0.4,0.1,0.6l0.7,1.1l-1.3-0.1c-0.2,0-0.4,0.1-0.5,0.2c-0.1,0.1-0.2,0.3-0.2,0.5l0.1,1.3l-1.1-0.7
		C21.3,22,21.1,21.9,21,22c-0.2,0.1-0.3,0.2-0.4,0.4L20,23.5l-0.6-1.2C19.3,22.2,19.2,22,19,22c-0.1,0-0.1,0-0.2,0
		c-0.1,0-0.3,0-0.4,0.1l-1.1,0.7l0.1-1.3c0-0.2-0.1-0.4-0.2-0.5c-0.1-0.1-0.3-0.2-0.5-0.2l-1.3,0.1l0.7-1.1c0.1-0.2,0.1-0.4,0.1-0.6
		c-0.1-0.2-0.2-0.3-0.4-0.4l-1.2-0.6L15.9,17.7z"/>
	<path class="st0" d="M20.9,18.4c-0.2,0.2-0.4,0.5-0.4,0.8c0,0.1,0,0.3,0,0.4c0,0.3,0.1,0.6,0.4,0.8c0.2,0.2,0.5,0.3,0.9,0.3
		c0.3,0,0.6-0.1,0.9-0.3c0.2-0.2,0.4-0.5,0.4-0.8c0-0.1,0-0.3,0-0.4c0-0.3-0.2-0.6-0.4-0.8c-0.2-0.2-0.5-0.3-0.9-0.3
		C21.4,18.1,21.1,18.2,20.9,18.4z M22.2,19.3c0,0.1,0,0.2,0,0.4c0,0.1-0.1,0.2-0.1,0.3c-0.1,0.1-0.2,0.1-0.3,0.1
		c-0.1,0-0.2,0-0.3-0.1c-0.1-0.1-0.1-0.2-0.1-0.3c0-0.1,0-0.3,0-0.4c0-0.1,0.1-0.2,0.1-0.3c0.1-0.1,0.2-0.1,0.3-0.1
		c0.1,0,0.2,0,0.3,0.1C22.1,19,22.2,19.1,22.2,19.3z"/>
	<path class="st0" d="M17.4,17.8c0.2,0.2,0.5,0.3,0.9,0.3c0.3,0,0.6-0.1,0.9-0.3c0.2-0.2,0.4-0.5,0.4-0.8c0-0.1,0-0.3,0-0.4
		c0-0.3-0.2-0.6-0.4-0.8c-0.2-0.2-0.5-0.3-0.9-0.3c-0.3,0-0.6,0.1-0.9,0.4c-0.2,0.2-0.4,0.5-0.4,0.8c0,0.1,0,0.3,0,0.4
		C17,17.3,17.1,17.6,17.4,17.8z M17.8,16.6c0-0.1,0.1-0.2,0.1-0.3c0.1-0.1,0.2-0.1,0.3-0.1c0.1,0,0.2,0,0.3,0.1
		c0.1,0.1,0.1,0.2,0.1,0.3c0,0.1,0,0.2,0,0.4c0,0.1-0.1,0.2-0.1,0.3c-0.1,0.1-0.2,0.1-0.3,0.1c-0.1,0-0.2,0-0.3-0.1
		c-0.1-0.1-0.1-0.2-0.1-0.3C17.8,16.8,17.8,16.7,17.8,16.6z"/>
	<path class="st0" d="M18.2,19.7c0,0.1,0.1,0.3,0.2,0.3c0.1,0.1,0.2,0.1,0.4,0.1c0.1,0,0.2-0.1,0.3-0.2l2.7-3.1
		c0.1-0.1,0.1-0.2,0.1-0.3c0-0.1-0.1-0.3-0.2-0.3C21.6,16,21.5,16,21.3,16c-0.1,0-0.3,0.1-0.3,0.2l-2.7,3.1
		C18.2,19.4,18.1,19.5,18.2,19.7z"/>
</g>
</svg>
