<?xml version="1.0" encoding="utf-8"?>
<!-- Generator: Adobe Illustrator 23.0.1, SVG Export Plug-In . SVG Version: 6.00 Build 0)  -->
<svg version="1.1" id="Capa_1" xmlns="http://www.w3.org/2000/svg" xmlns:xlink="http://www.w3.org/1999/xlink" x="0px" y="0px"
	 viewBox="0 0 40 40" style="enable-background:new 0 0 40 40;" xml:space="preserve">
<style type="text/css">
	.st0{fill:#3A3A3A;}
</style>
<g>
	<path class="st0" d="M28.9,5.2c-0.1-0.1-0.3-0.3-0.5-0.4h-0.2l-1.3,0.8c-1.1,0.7-2.3,1.4-3.4,2c-0.2,0.1-0.3,0.3-0.4,0.5
		c0,0.2,0.1,0.4,0.2,0.5c0,0,0.1,0.1,0.1,0.1c0.1,0.1,0.3,0.2,0.3,0.4c0,0.2-0.1,0.3-0.3,0.4c0,0-0.1,0.1-0.1,0.1
		c-0.4,0.4-0.8,0.8-1.1,1.1c-0.6,0.6-1.3,1.3-1.9,1.9c-0.1,0.1-0.1,0.1-0.2,0.1c-0.1,0-0.2-0.1-0.2-0.1c-0.3-0.3-0.6-0.6-1-1
		c-0.2-0.1-0.2-0.3-0.1-0.5c0.3-1.3,0.1-2.7-0.7-3.9c-0.7-1.2-1.9-2-3.2-2.3c-0.2,0-0.3-0.1-0.5-0.1c-0.1,0-0.1,0-0.2,0h-0.9
		c-0.1,0-0.3,0.1-0.4,0.1c-0.2,0-0.4,0.1-0.6,0.1c-0.3,0.1-0.6,0.2-0.9,0.4c-0.2,0.1-0.3,0.3-0.4,0.4c0,0.2,0,0.4,0.2,0.5
		c0.6,0.7,1.3,1.3,1.9,1.9l0.4,0.4c0.1,0.1,0.3,0.3,0.3,0.6c0,0.3-0.1,0.6-0.4,0.7c-0.1,0.1-0.3,0.1-0.4,0.1c-0.2,0-0.3,0-0.4-0.1
		c-0.1-0.1-0.1-0.1-0.2-0.2l0,0c-0.3-0.3-0.7-0.7-1-1c-0.4-0.4-0.8-0.8-1.2-1.2C9.9,7.3,9.7,7.2,9.6,7.2C9.3,7.2,9.1,7.4,9,7.6
		C8.8,8.2,8.6,8.8,8.5,9.4c0,0,0,0.1,0,0.1c0,0,0,0,0,0v0.9c0,0.1,0,0.1,0,0.2c0.1,0.4,0.1,0.8,0.3,1.2c0.7,2,2.7,3.4,4.8,3.4
		c0.1,0,0.3,0,0.4,0l0,0c0.2,0,0.5,0,0.7-0.1c0.1,0,0.1,0,0.2,0c0.1,0,0.2,0.1,0.4,0.2l0,0c0.3,0.3,0.3,0.4,0,0.7
		c-0.5,0.5-1,1-1.6,1.6c-1.3,1.3-2.7,2.7-4.1,4.1c-0.6,0.6-1,1.3-1.1,2c0,0,0,0.1,0,0.1v0.7c0,0.1,0,0.2,0.1,0.2
		c0.1,0.3,0.1,0.5,0.2,0.7c0.5,1.1,1.3,1.7,2.5,1.8c0,0,0.1,0,0.1,0c0,0,0,0,0,0H12c0.1,0,0.2,0,0.3-0.1c0.2-0.1,0.4-0.1,0.6-0.2
		c0.4-0.2,0.8-0.4,1.1-0.8c0.6-0.6,1.3-1.3,1.9-1.9c1.3-1.3,2.6-2.6,3.9-3.9c0.1-0.1,0.2-0.2,0.3-0.2c0.1,0,0.2,0.1,0.3,0.2
		c0.2,0.2,0.3,0.4,0.2,0.6c-0.3,1.4,0,2.8,0.8,3.9c0.8,1.2,2,1.9,3.4,2.2c0,0,0.1,0,0.1,0c0.1,0,0.2,0,0.3,0.1H26
		c0.1,0,0.3-0.1,0.4-0.1c0.2,0,0.5-0.1,0.7-0.1c0.3-0.1,0.6-0.2,0.9-0.4c0.2-0.1,0.3-0.3,0.4-0.4c0-0.2,0-0.4-0.2-0.5
		c-0.7-0.7-1.4-1.4-2.1-2.1l-0.2-0.2c-0.1-0.1-0.3-0.3-0.3-0.6c0-0.3,0.1-0.5,0.4-0.7c0.1-0.1,0.3-0.1,0.4-0.1c0.1,0,0.3,0,0.4,0.1
		c0.1,0.1,0.2,0.1,0.2,0.2l0,0c0.4,0.4,0.8,0.8,1.2,1.2c0.4,0.4,0.7,0.7,1.1,1.1c0.2,0.2,0.3,0.3,0.5,0.3c0.3,0,0.4-0.2,0.5-0.4
		c0.3-0.5,0.4-1.1,0.5-1.7c0,0,0-0.1,0-0.1c0,0,0,0,0,0v-0.9c0-0.1,0-0.1,0-0.2c-0.1-0.4-0.1-0.8-0.3-1.1c-0.3-1-1-1.8-1.9-2.4
		c-0.9-0.6-1.9-1-2.9-1c-0.1,0-0.2,0-0.4,0c-0.3,0-0.6,0.1-0.9,0.1c0,0-0.1,0-0.1,0c-0.1,0-0.2,0-0.3-0.1c-0.4-0.4-0.8-0.8-1.1-1.1
		c0,0-0.1-0.1-0.1-0.2c0-0.1,0.1-0.2,0.1-0.2c1.1-1.1,2.3-2.2,3.4-3.4c0,0,0.1-0.1,0.2-0.1c0.1,0,0.2,0.1,0.2,0.1
		c0.1,0.1,0.1,0.1,0.2,0.2c0,0,0.1,0.1,0.1,0.1c0.2,0.1,0.3,0.2,0.5,0.2c0.2,0,0.4-0.1,0.5-0.3c0.8-1.4,1.6-2.7,2.4-3.9
		c0.1-0.2,0.2-0.4,0.3-0.6c0-0.1,0.1-0.2,0.1-0.2V7.1c-0.1-0.2-0.2-0.3-0.4-0.5C29.9,6.1,29.4,5.6,28.9,5.2z M19.1,19.4
		c-0.9,0.9-1.8,1.8-2.7,2.7c-1.1,1.1-2.1,2.1-3.2,3.2c-0.4,0.4-1,0.7-1.5,0.7c-0.5,0-1-0.2-1.4-0.5c-0.6-0.5-0.7-1.1-0.7-1.5
		c0,0,0,0,0,0c0-0.6,0.2-1.1,0.7-1.6l0.6-0.6c1.8-1.8,3.6-3.6,5.3-5.3c0.1-0.1,0.1-0.1,0.2-0.1c0.1,0,0.2,0.1,0.2,0.1
		c0.9,0.9,1.7,1.7,2.5,2.5c0.1,0.1,0.1,0.1,0.1,0.2C19.2,19.3,19.2,19.3,19.1,19.4z M23.5,17.8c0.2,0.2,0.4,0.3,0.6,0.3
		c0.1,0,0.2,0,0.3,0c0.4-0.1,0.8-0.2,1.2-0.2c0.8,0,1.6,0.3,2.3,0.7c1.3,0.9,2.1,2.9,1.5,4.3c0,0,0,0.1-0.1,0.1c0,0,0,0,0,0
		c0,0,0,0,0,0c-0.1,0-0.2-0.1-0.2-0.2c0,0,0,0-0.1-0.1c-0.2-0.2-0.4-0.4-0.6-0.6c-0.3-0.4-0.7-0.7-1.1-1.1c-0.3-0.3-0.7-0.4-1.1-0.4
		c-0.4,0-0.9,0.2-1.2,0.4c-0.7,0.5-0.9,1.5-0.5,2.2c0.1,0.2,0.3,0.4,0.5,0.6c0.3,0.3,0.6,0.6,0.9,0.9c0.2,0.2,0.4,0.4,0.7,0.7
		c0,0,0,0,0,0.1c0,0,0,0,0,0c0,0,0,0.1,0,0.1c0,0,0,0.1-0.1,0.1c-0.4,0.1-0.7,0.1-1,0.1c-0.2,0-0.5,0-0.7-0.1
		c-1.7-0.3-2.8-1.4-3.2-3c-0.2-0.7-0.2-1.4,0.1-2.1c0.1-0.4,0.1-0.6-0.2-0.9c-1.8-1.8-3.7-3.7-5.8-5.8c-0.2-0.2-0.4-0.3-0.6-0.3
		c-0.1,0-0.2,0-0.3,0C14.4,13.9,14,14,13.6,14c-0.8,0-1.6-0.2-2.3-0.7c-1.3-0.9-2-2.8-1.6-4.3c0,0,0.1-0.1,0.1-0.1c0,0,0,0,0,0
		C9.9,8.9,10,8.9,10,9c0,0,0,0,0,0c0.2,0.2,0.4,0.4,0.6,0.6c0.4,0.4,0.7,0.8,1.2,1.1c0.3,0.2,0.7,0.4,1.1,0.4c0.4,0,0.8-0.1,1.2-0.4
		c0.7-0.6,0.9-1.5,0.5-2.3c-0.1-0.2-0.2-0.4-0.4-0.6c-0.3-0.3-0.5-0.5-0.8-0.8c-0.2-0.2-0.5-0.5-0.7-0.7c0,0,0,0,0,0
		c-0.1,0-0.1-0.1-0.1-0.2c0,0,0-0.1,0-0.1c0,0,0,0,0.1-0.1c0.4-0.1,0.7-0.1,1.1-0.1c0.4,0,0.7,0.1,1.1,0.2c1.5,0.5,2.4,1.4,2.8,2.9
		c0.2,0.7,0.2,1.4-0.1,2.1c-0.1,0.4,0,0.6,0.2,0.9C19.6,13.9,21.5,15.8,23.5,17.8z M25.6,11C25.6,11,25.6,11,25.6,11
		c0,0.1-0.1,0.1-0.1,0.1L24.6,12c-0.8,0.8-1.7,1.7-2.5,2.5c0,0-0.1,0.1-0.2,0.1c-0.1,0-0.1-0.1-0.2-0.1c-0.3-0.3-0.5-0.5-0.7-0.7
		c0,0-0.1-0.1-0.1-0.2c0-0.1,0-0.1,0.1-0.2c1-0.9,1.9-1.9,2.9-2.9l0.5-0.5l0,0c0,0,0.1-0.1,0.2-0.1c0.1,0,0.1,0,0.2,0.1
		c0.2,0.2,0.4,0.4,0.5,0.5c0.1,0.1,0.2,0.2,0.2,0.2c0,0,0,0,0,0.1c0,0,0,0,0,0C25.6,10.9,25.6,11,25.6,11z M29.4,7.5
		c-0.5,0.9-1.1,1.8-1.6,2.6l-0.4,0.7c0,0-0.1,0.1-0.1,0.1c0,0,0,0,0,0c0,0-0.1,0-0.1,0l-2.5-2.5c0,0,0-0.1,0-0.1c0,0,0-0.1,0.1-0.1
		l0.7-0.4L26,7.3c0.6-0.4,1.3-0.8,2-1.2c0.1,0,0.1-0.1,0.2-0.1c0.1,0,0.2,0.1,0.2,0.1C28.7,6.5,29,6.8,29.3,7l0.1,0.1
		C29.4,7.2,29.5,7.3,29.4,7.5z"/>
	<path class="st0" d="M16.5,18.7L16.5,18.7c-0.2,0-0.3,0.1-0.5,0.2c-0.7,0.7-1.5,1.5-2.2,2.2c-0.5,0.5-1.1,1.1-1.6,1.6
		c-0.1,0.1-0.1,0.1-0.1,0.2c-0.1,0.2-0.1,0.4,0,0.5c0.1,0.2,0.3,0.3,0.5,0.3l0,0c0.2,0,0.3-0.1,0.4-0.2c0.7-0.7,1.5-1.5,2.2-2.2
		c0.6-0.6,1.1-1.1,1.7-1.7c0.1-0.1,0.1-0.1,0.1-0.1c0.1-0.2,0.1-0.4,0-0.6C16.8,18.7,16.7,18.7,16.5,18.7z"/>
	<path class="st0" d="M39.1,4.6c0-2.7-1.9-4.5-4.5-4.5C29.8,0,24.9,0,20,0c-4.8,0-9.7,0-14.6,0C2.8,0,0.9,1.9,0.9,4.5
		c0,7.4,0,15.1,0,23.5c0,1.3,0.4,2.5,1.3,3.3c0.8,0.8,2,1.3,3.3,1.3c0.4,0,0.8,0,1.3,0c0.3,0,0.7,0,1,0h0c0.4,0,0.7,0,1.1,0H9l0,0.2
		c0.1,2.2,0.1,4.4-2.2,5.9c-0.3,0.1-0.4,0.5-0.4,0.7C6.6,39.8,7.2,40,7.7,40c0.4,0,0.9-0.1,1.2-0.1c3.4-0.7,5.8-2.7,7.4-6.3
		c0.3-0.7,0.7-1,1.5-1l0,0c2.9,0,6,0,9.3,0c2.4,0,4.8,0,7.5,0c2.7,0,4.5-1.9,4.5-4.5C39.1,20.2,39.1,12.3,39.1,4.6z M37.7,27.9
		c0,1.1-0.3,2-0.9,2.6c-0.6,0.6-1.5,0.9-2.6,0.9c-0.9,0-1.9,0-2.8,0l-0.1,0c-1.9,0-3.8,0-5.6,0c-3.4,0-6.1,0-8.6,0l0,0
		c-0.9,0-1.3,0.3-1.6,1.1c-0.5,1.5-1.2,2.7-2,3.6c-1,1.1-2.2,1.8-3.7,2.3l-0.5,0.2L9.4,38c1.1-1.8,1.2-3.7,1.2-5.6l0-0.3
		c0-0.3-0.1-0.5-0.2-0.7c-0.1-0.1-0.4-0.2-0.7-0.2l0,0c-0.6,0-1.3,0-2,0c-0.7,0-1.3,0-2,0c-1.1,0-1.9-0.3-2.5-0.9
		c-0.6-0.6-0.9-1.4-0.9-2.5c0-8,0-15.8,0-23.2c0-1.1,0.3-1.9,0.9-2.5c0.6-0.6,1.4-0.9,2.5-0.9c4.6,0,9.4,0,14.3,0
		c4.6,0,9.3,0,14.3,0c1.1,0,2,0.3,2.5,0.9c0.6,0.6,0.9,1.4,0.9,2.5C37.7,12,37.7,19.6,37.7,27.9z"/>
</g>
</svg>
