<?xml version="1.0" encoding="utf-8"?>
<!-- Generator: Adobe Illustrator 23.0.1, SVG Export Plug-In . SVG Version: 6.00 Build 0)  -->
<svg version="1.1" id="Capa_1" xmlns="http://www.w3.org/2000/svg" xmlns:xlink="http://www.w3.org/1999/xlink" x="0px" y="0px"
	 viewBox="0 0 40 40" style="enable-background:new 0 0 40 40;" xml:space="preserve">
<style type="text/css">
	.st0{fill:#3A3A3A;}
</style>
<g>
	<path class="st0" d="M39.7,25.5c-0.5-0.8-2-1.8-4.7-0.5c0-0.5-0.2-0.8-0.4-1c-0.9-1-2.7-0.8-4.1,0c0-0.3-0.1-0.6-0.3-0.9
		c-1.1-1.4-3.8-0.3-5.9,1.1l-4.4,2.6c-0.5-0.1-1-0.3-1.5-0.5c-0.7-0.3-1.6-1-2.1-1.5l-0.1-0.1c-0.6-0.6-1.1-1.1-2-1.5
		c-0.3-0.2-3-1.4-6.6,0.1l-7.2,3.3c-0.3,0.1-0.4,0.5-0.3,0.8c0.1,0.3,0.5,0.4,0.8,0.3l7.2-3.3c1.4-0.6,2.7-0.7,4-0.6
		c1,0.1,1.6,0.4,1.6,0.4l0,0c0.7,0.3,1,0.7,1.6,1.2l0.1,0.1c0.6,0.6,1.6,1.4,2.5,1.8c1.8,0.8,3.5,0.9,5.2,1c0.8,0,1.6,0.2,2.2,0.5
		c1.4,0.6,1.9,1.2,1.9,1.6c-0.1,0.3-0.7,0.8-2,0.9c-3.8,0.4-7.2,0.2-11-0.8c-0.3-0.1-0.7,0.1-0.7,0.5c-0.1,0.3,0.1,0.7,0.5,0.7
		c2.7,0.7,5.2,1,7.9,1c1.2,0,2.3-0.1,3.5-0.2c1.8-0.2,3-0.9,3.1-1.9l5.4-3.5c0,0,0,0,0,0l1.7-1.1c1.9-1,2.9-0.4,3.1,0
		c0.5,0.9-0.4,1.9-0.9,2.2l-0.4,0.2c-1.1,0.7-4.1,2.7-4.9,3.2c-3.9,2.7-7.2,4.7-10.2,6.5c-0.9,0.5-2.2,0.6-3.1,0.1l-8.7-4.6
		c-0.9-0.5-2-0.4-2.8,0.2l-3.3,2.3c-0.3,0.2-0.4,0.6-0.2,0.9c0.2,0.3,0.6,0.4,0.9,0.2L8.3,35c0.5-0.3,1-0.3,1.5-0.1l8.7,4.6
		c0.6,0.3,1.3,0.5,2,0.5c0.8,0,1.6-0.2,2.3-0.6c3.1-1.8,6.3-3.8,10.3-6.5c0.8-0.5,3.9-2.5,4.9-3.2l0.4-0.2
		C39.5,28.8,40.6,27.1,39.7,25.5z M23.1,27.3c-0.5,0-0.9,0-1.3-0.1l3.1-1.9l0,0c2.7-1.7,4.1-1.6,4.3-1.3c0.1,0.2,0,0.8-0.8,1.6
		l-3,2.2C24.7,27.5,23.9,27.3,23.1,27.3z M33.1,26.3l-5,3.2c-0.3-0.4-0.7-0.8-1.4-1.2l4.1-2.9c1.4-1,2.6-0.9,2.9-0.5
		C33.9,25.1,33.6,25.7,33.1,26.3z"/>
	<path class="st0" d="M9.8,13l1.9,0.2c0.2,0.8,0.5,1.5,0.9,2.2l-1.2,1.5c-0.3,0.4-0.3,0.9,0.1,1.2l1.5,1.5c0.3,0.3,0.9,0.4,1.2,0.1
		l1.5-1.2c0.7,0.4,1.4,0.7,2.2,0.9l0.2,1.9c0,0.5,0.4,0.8,0.9,0.8h1h0h1c0.5,0,0.9-0.4,0.9-0.8l0.2-1.9c0.8-0.2,1.5-0.5,2.2-0.9
		l1.5,1.2c0.4,0.3,0.9,0.3,1.2-0.1l1.5-1.5c0.3-0.3,0.4-0.9,0.1-1.2l-1.2-1.5c0.4-0.7,0.7-1.4,0.9-2.2l1.9-0.2
		c0.5,0,0.8-0.4,0.8-0.9V10c0-0.5-0.4-0.9-0.8-0.9l-1.8-0.2c-0.2-0.8-0.5-1.6-0.9-2.3l1.2-1.4c0.3-0.4,0.3-0.9-0.1-1.2L27,2.5
		c-0.3-0.3-0.9-0.4-1.2-0.1l-1.4,1.1c-0.7-0.5-1.5-0.8-2.4-1L22,0.8c0-0.5-0.4-0.8-0.9-0.8h-1h0h-1c-0.5,0-0.9,0.4-0.9,0.8l-0.2,1.7
		c-0.8,0.2-1.6,0.6-2.4,1l-1.4-1.1c-0.4-0.3-0.9-0.3-1.2,0.1L11.4,4c-0.3,0.3-0.4,0.9-0.1,1.2l1.2,1.4c-0.4,0.7-0.7,1.5-0.9,2.3
		L9.8,9.1C9.3,9.1,9,9.5,9,10v2.2C9,12.6,9.3,13,9.8,13z M10,10.2l2-0.2h0.5l0.1-0.4c0.2-0.9,0.5-1.8,1.1-2.7l0.2-0.4l-0.3-0.3
		l-1.3-1.5l1.3-1.3l1.8,1.5l0.3-0.2c0.8-0.6,1.7-0.9,2.7-1.2l0.4-0.1l0.2-2.3H20h0h0.9l0.2,2.3l0.4,0.1c1,0.2,1.9,0.6,2.7,1.2
		l0.3,0.2l1.8-1.5l1.3,1.3l-1.3,1.5l-0.3,0.3l0.2,0.4c0.5,0.8,0.9,1.7,1.1,2.7l0.1,0.4H28l2,0.2V12l-2,0.2h-0.5l-0.1,0.4
		c-0.2,0.9-0.6,1.8-1.1,2.6l-0.2,0.4l0.4,0.4l1.3,1.5l-1.3,1.3l-1.5-1.3l-0.4-0.4l-0.4,0.2c-0.8,0.5-1.7,0.9-2.6,1.1l-0.4,0.1v0.5
		l-0.2,2H20h0h-0.9l-0.2-2v-0.5l-0.4-0.1c-0.9-0.2-1.8-0.6-2.6-1.1l-0.4-0.2l-0.4,0.4l-1.5,1.3l-1.3-1.3l1.3-1.5l0.4-0.4l-0.2-0.4
		c-0.5-0.8-0.9-1.7-1.1-2.6l-0.1-0.4H12L10,12V10.2z"/>
	<path class="st0" d="M20,14.8c2,0,3.7-1.7,3.7-3.7S22,7.4,20,7.4c-2,0-3.7,1.7-3.7,3.7S18,14.8,20,14.8z M20,8.5
		c1.4,0,2.5,1.1,2.5,2.5s-1.1,2.5-2.5,2.5c-1.4,0-2.5-1.1-2.5-2.5S18.6,8.5,20,8.5z"/>
</g>
</svg>
