<?xml version="1.0" encoding="utf-8"?>
<!-- Generator: Adobe Illustrator 23.0.6, SVG Export Plug-In . SVG Version: 6.00 Build 0)  -->
<svg version="1.1" id="Layer_1" xmlns="http://www.w3.org/2000/svg" xmlns:xlink="http://www.w3.org/1999/xlink" x="0px" y="0px"
	 viewBox="0 0 150 150" style="enable-background:new 0 0 150 150;" xml:space="preserve">
<style type="text/css">
	.st0{fill:#636363;}
</style>
<g id="ZlwKQG_1_">
	
		<image style="overflow:visible;" width="225" height="225" id="ZlwKQG" xlink:href="9282BBE3171FC12C.jpg"  transform="matrix(1 0 0 1 265 7)">
	</image>
</g>
<g>
	<path class="st0" d="M129.1,48.4c0-3.4-2.8-6.2-6.2-6.2H26.2c-3.4,0-6.2,2.8-6.2,6.2v66.6h109.2V48.4z M38.2,54.2
		c0-1,0.8-1.8,1.8-1.8h69.2c1,0,1.8,0.8,1.8,1.8v21.2c0,1-0.8,1.8-1.8,1.8H40c-1,0-1.8-0.8-1.8-1.8V54.2z M40.8,107.8
		c0,0.8-0.6,1.4-1.4,1.4h-6.1c-0.8,0-1.4-0.6-1.4-1.4v-6.9c0-0.8,0.6-1.4,1.4-1.4h6.1c0.8,0,1.4,0.6,1.4,1.4V107.8z M40.8,90.9
		c0,0.8-0.6,1.4-1.4,1.4h-6.1c-0.8,0-1.4-0.6-1.4-1.4V84c0-0.8,0.6-1.4,1.4-1.4h6.1c0.8,0,1.4,0.6,1.4,1.4V90.9z M58.6,107.8
		c0,0.8-0.6,1.4-1.4,1.4h-6.1c-0.8,0-1.4-0.6-1.4-1.4v-6.9c0-0.8,0.6-1.4,1.4-1.4h6.1c0.8,0,1.4,0.6,1.4,1.4V107.8z M58.6,90.9
		c0,0.8-0.6,1.4-1.4,1.4h-6.1c-0.8,0-1.4-0.6-1.4-1.4V84c0-0.8,0.6-1.4,1.4-1.4h6.1c0.8,0,1.4,0.6,1.4,1.4V90.9z M77.2,107.8
		c0,0.8-0.6,1.4-1.4,1.4h-6.1c-0.8,0-1.4-0.6-1.4-1.4v-6.9c0-0.8,0.6-1.4,1.4-1.4h6.1c0.8,0,1.4,0.6,1.4,1.4V107.8z M77.2,90.9
		c0,0.8-0.6,1.4-1.4,1.4h-6.1c-0.8,0-1.4-0.6-1.4-1.4V84c0-0.8,0.6-1.4,1.4-1.4h6.1c0.8,0,1.4,0.6,1.4,1.4V90.9z M95.9,107.8
		c0,0.8-0.6,1.4-1.4,1.4h-6.1c-0.8,0-1.4-0.6-1.4-1.4v-6.9c0-0.8,0.6-1.4,1.4-1.4h6.1c0.8,0,1.4,0.6,1.4,1.4V107.8z M95.9,90.9
		c0,0.8-0.6,1.4-1.4,1.4h-6.1c-0.8,0-1.4-0.6-1.4-1.4V84c0-0.8,0.6-1.4,1.4-1.4h6.1c0.8,0,1.4,0.6,1.4,1.4V90.9z M113.6,107.8
		c0,0.8-0.6,1.4-1.4,1.4h-6.1c-0.8,0-1.4-0.6-1.4-1.4v-6.9c0-0.8,0.6-1.4,1.4-1.4h6.1c0.8,0,1.4,0.6,1.4,1.4V107.8z M113.6,90.9
		c0,0.8-0.6,1.4-1.4,1.4h-6.1c-0.8,0-1.4-0.6-1.4-1.4V84c0-0.8,0.6-1.4,1.4-1.4h6.1c0.8,0,1.4,0.6,1.4,1.4V90.9z"/>
	<path class="st0" d="M128.2,117.6H21.8c-4.2,0-7.6,3.4-7.6,7.6v17.2c0,4.2,3.4,7.6,7.6,7.6h106.4c4.2,0,7.6-3.4,7.6-7.6v-17.2
		C135.8,121,132.4,117.6,128.2,117.6z M75,139.8c-2.9,0-5.3-2.4-5.3-5.3c0-2.9,2.4-5.3,5.3-5.3s5.3,2.4,5.3,5.3
		C80.3,137.4,77.9,139.8,75,139.8z"/>
	<rect x="48.4" y="27.1" class="st0" width="12.4" height="13.8"/>
	<path class="st0" d="M85.2,0H23.1v25.7h62.1V0z M80.8,21.3H27.5V4.4h53.3V21.3z"/>
</g>
</svg>
