<svg id="modify_punches" data-name="modify punches" xmlns="http://www.w3.org/2000/svg" width="23.5" height="23.531" viewBox="0 0 23.5 23.531">
  <g id="Group_1449" data-name="Group 1449" transform="translate(12.079 11.687)">
    <path id="Path_4067" data-name="Path 4067" d="M87.91,79.018l-.846-.094a2.916,2.916,0,0,0-.157-.392l.548-.689a.754.754,0,0,0-.11-.987l-.987-1.018a.72.72,0,0,0-.987-.11l-.658.548a3.583,3.583,0,0,0-.36-.157l-.078-.893a.729.729,0,0,0-.768-.627H82.113a.729.729,0,0,0-.768.627l-.078.893a2.5,2.5,0,0,0-.36.157l-.658-.548a.719.719,0,0,0-.987.11l-.987,1.018a.754.754,0,0,0-.11.987l.548.689a4.078,4.078,0,0,0-.157.392l-.846.094a.723.723,0,0,0-.611.783v1.441a.735.735,0,0,0,.611.783l.846.094a2.915,2.915,0,0,0,.157.392l-.548.689a.754.754,0,0,0,.11.987l.987,1.018a.721.721,0,0,0,.987.11l.658-.548a3.585,3.585,0,0,0,.36.157l.078.893a.729.729,0,0,0,.768.627h1.394a.729.729,0,0,0,.768-.627l.078-.893a2.5,2.5,0,0,0,.36-.157l.658.564a.719.719,0,0,0,.987-.11l.987-1.018a.754.754,0,0,0,.11-.987l-.548-.689a4.081,4.081,0,0,0,.157-.392l.846-.094a.723.723,0,0,0,.611-.783V79.817A.741.741,0,0,0,87.91,79.018Zm-.345,2.068-1.253.125-.094.313a3.575,3.575,0,0,1-.329.8l-.157.282.8,1-.768.8-.971-.815-.3.172a3.658,3.658,0,0,1-.768.329l-.313.094-.125,1.285H82.207l-.125-1.285-.313-.094A3.338,3.338,0,0,1,81,83.765l-.3-.172-.971.815-.768-.8.8-1-.157-.282a3.575,3.575,0,0,1-.329-.8l-.094-.313-1.253-.125V79.942l1.253-.125.094-.313a3.575,3.575,0,0,1,.329-.8l.157-.282-.8-1,.768-.8.971.815.3-.172a3.338,3.338,0,0,1,.768-.329l.313-.094.125-1.285h1.081l.125,1.285.313.094a3.338,3.338,0,0,1,.768.329l.3.172.971-.815.768.8-.8,1,.157.282a3.575,3.575,0,0,1,.329.8l.094.313,1.253.125Z" transform="translate(-77.1 -74.6)" fill="#37c5ff"/>
    <path id="Path_4068" data-name="Path 4068" d="M98.542,94.5a2.805,2.805,0,1,0,2.742,2.8A2.779,2.779,0,0,0,98.542,94.5Zm0,4.637a1.834,1.834,0,1,1,1.786-1.833A1.816,1.816,0,0,1,98.542,99.137Z" transform="translate(-92.87 -91.382)" fill="#37c5ff"/>
  </g>
  <path id="Path_4069" data-name="Path 4069" d="M10.089,19.74a9.283,9.283,0,0,1-9.134-9.4A9.27,9.27,0,0,1,10.089.956a9.28,9.28,0,0,1,9.134,9.384.486.486,0,0,0,.971,0A10.229,10.229,0,0,0,10.1,0,10.242,10.242,0,0,0,0,10.34,10.229,10.229,0,0,0,10.089,20.68a.488.488,0,0,0,.486-.486A.462.462,0,0,0,10.089,19.74Z" fill="#37c5ff"/>
  <g id="Group_1450" data-name="Group 1450" transform="translate(4.412 3.368)">
    <path id="Path_4070" data-name="Path 4070" d="M28.56,25.26a.457.457,0,0,0,.141-.031.608.608,0,0,0,.172-.094h.016a3.014,3.014,0,0,0,.689-.721l.063-.078a6.232,6.232,0,0,1,1.833-1.692,2.768,2.768,0,0,1,1.379-.376,2.72,2.72,0,0,1,1.927.815,4.31,4.31,0,0,1,1.034,1.77l.188.611c.063.2.125.423.188.627a1.571,1.571,0,0,0,.251.439.335.335,0,0,0,.266.125.356.356,0,0,0,.251-.094.37.37,0,0,0,.094-.454c-.031-.078-.063-.141-.094-.219-.078-.188-.157-.392-.219-.6a6.378,6.378,0,0,0-1.081-2.35,3.5,3.5,0,0,0-2.71-1.441,3.857,3.857,0,0,0-2.115.6,6.521,6.521,0,0,0-1.614,1.488,3.441,3.441,0,0,0-.219.282,2.567,2.567,0,0,1-.674.689.346.346,0,0,0-.157.2.5.5,0,0,0,.047.3A.433.433,0,0,0,28.56,25.26Z" transform="translate(-28.162 -21.5)" fill="#37c5ff"/>
    <path id="Path_4071" data-name="Path 4071" d="M40.221,44.506l-.188-.094-.094-.047a1.043,1.043,0,0,1-.627-.752,3.884,3.884,0,0,0-.611-1.5,1.875,1.875,0,0,0-1.488-.909,2.276,2.276,0,0,0-.971.235,8.441,8.441,0,0,0-1.9,1.363,4.861,4.861,0,0,1-1.6.971c-.031.016-.063.016-.078.031a1.281,1.281,0,0,0-.3.141.468.468,0,0,0-.172.36.474.474,0,0,0,.235.313.3.3,0,0,0,.125.031.392.392,0,0,0,.2-.047,6.235,6.235,0,0,0,2.209-1.316,7.346,7.346,0,0,1,1.5-1.1A1.353,1.353,0,0,1,37.119,42a.345.345,0,0,1,.125.016,1.217,1.217,0,0,1,.83.611,3.87,3.87,0,0,1,.47,1.238,1.958,1.958,0,0,0,1.347,1.347.457.457,0,0,0,.141.031.37.37,0,0,0,.329-.235A.335.335,0,0,0,40.221,44.506Z" transform="translate(-31.567 -38.114)" fill="#37c5ff"/>
    <path id="Path_4072" data-name="Path 4072" d="M42.016,56.538c-.047-.016-.078-.031-.125-.047a.223.223,0,0,0-.094-.031,2.276,2.276,0,0,1-1.206-1.144,2.97,2.97,0,0,0-.3-.548A1.548,1.548,0,0,0,39.008,54h-.016a1.934,1.934,0,0,0-.83.219,3.793,3.793,0,0,0-.877.689c-.078.063-.141.141-.219.2l-.125.141a10.132,10.132,0,0,1-.893.736,4.594,4.594,0,0,1-.674.36,1.95,1.95,0,0,0-.313.157.4.4,0,0,0-.219.517.36.36,0,0,0,.345.219.417.417,0,0,0,.188-.047l.282-.141a5.556,5.556,0,0,0,.846-.47c.3-.219.58-.486.862-.736.141-.125.282-.266.439-.392l.094-.078a5.274,5.274,0,0,1,.58-.454,1.061,1.061,0,0,1,.517-.172.841.841,0,0,1,.674.439,2.364,2.364,0,0,1,.235.439c.031.047.047.094.078.141a3.047,3.047,0,0,0,1.739,1.457.557.557,0,0,0,.157.031.347.347,0,0,0,.329-.235A.338.338,0,0,0,42.016,56.538Z" transform="translate(-33.769 -48.908)" fill="#37c5ff"/>
    <path id="Path_4073" data-name="Path 4073" d="M43.415,68.892c-.016,0-.016-.016-.031-.016a.015.015,0,0,1-.016-.016c-.094-.047-.172-.11-.266-.157-.188-.11-.392-.219-.564-.345-.235-.157-.47-.345-.689-.517l-.423-.329a1.323,1.323,0,0,0-.783-.313h-.031a.058.058,0,0,0-.047.016,1.456,1.456,0,0,0-.2.063c-.235.11-.423.219-.6.313-.345.219-.689.454-1.018.674A11.474,11.474,0,0,1,37.07,69.3a.4.4,0,0,0-.188.2.393.393,0,0,0,.016.3.38.38,0,0,0,.329.219.458.458,0,0,0,.141-.031,2.454,2.454,0,0,0,.407-.188c.392-.251.783-.5,1.159-.752l.141-.094c.423-.282.909-.6,1.379-.909a.457.457,0,0,1,.235-.094.388.388,0,0,1,.251.11c.329.266.689.564,1.081.83.313.219.658.407.987.6l.063.031a.417.417,0,0,0,.188.047.343.343,0,0,0,.313-.2A.349.349,0,0,0,43.415,68.892Z" transform="translate(-35.498 -60.04)" fill="#37c5ff"/>
    <path id="Path_4074" data-name="Path 4074" d="M30.168,32.482a6.117,6.117,0,0,0,.971-.58,8.438,8.438,0,0,0,.924-.909c.078-.078.157-.172.235-.251a3.394,3.394,0,0,1,1.974-1.191.423.423,0,0,0,.266-.157.363.363,0,0,0,.063-.282.372.372,0,0,0-.376-.313h-.063a3.475,3.475,0,0,0-1.394.533,5.639,5.639,0,0,0-1.316,1.238,4.618,4.618,0,0,1-1.473,1.191,1.741,1.741,0,0,1-.251.11c-.094.047-.188.094-.3.141a.353.353,0,0,0-.2.423.376.376,0,0,0,.392.3h.047a.3.3,0,0,0,.141-.047C29.9,32.623,30.042,32.56,30.168,32.482Z" transform="translate(-29.049 -27.656)" fill="#37c5ff"/>
    <path id="Path_4075" data-name="Path 4075" d="M46.68,80.491c-.251-.125-.47-.251-.674-.36-.125-.078-.251-.141-.376-.219l-.658-.376a4.077,4.077,0,0,0-.392-.157.763.763,0,0,1-.172-.063l-.047-.016-.047.016-.141.047a1,1,0,0,0-.3.125c-.674.439-1.379.924-2.225,1.5a.389.389,0,0,0-.172.251.411.411,0,0,0,.078.3.344.344,0,0,0,.3.141.466.466,0,0,0,.235-.078,1.2,1.2,0,0,0,.172-.125c.047-.031.078-.063.125-.094.423-.282.846-.58,1.269-.862l.533-.36a.261.261,0,0,1,.172-.063.408.408,0,0,1,.172.047c.407.235.83.486,1.316.768a4.979,4.979,0,0,0,.5.251.553.553,0,0,0,.219.047.36.36,0,0,0,.345-.219A.393.393,0,0,0,46.68,80.491Z" transform="translate(-39.389 -70.245)" fill="#37c5ff"/>
    <path id="Path_4076" data-name="Path 4076" d="M51.579,90.915l-.078-.063-.611-.423a1.6,1.6,0,0,0-.909-.329H49.95a.058.058,0,0,0-.047.016,1.606,1.606,0,0,0-.219.063,3.941,3.941,0,0,0-1.253.987.453.453,0,0,0-.031.423.431.431,0,0,0,.345.188h0a.505.505,0,0,0,.3-.157l.282-.235c.141-.125.282-.235.423-.345s.219-.157.3-.157a.591.591,0,0,1,.3.125c.157.11.329.219.486.329.11.078.2.141.313.219a.46.46,0,0,0,.266.094.381.381,0,0,0,.313-.172A.405.405,0,0,0,51.579,90.915Z" transform="translate(-45.197 -79.353)" fill="#37c5ff"/>
  </g>
</svg>
