<?xml version="1.0" encoding="utf-8"?>
<!-- Generator: Adobe Illustrator 23.0.4, SVG Export Plug-In . SVG Version: 6.00 Build 0)  -->
<svg version="1.1" id="Layer_1" xmlns="http://www.w3.org/2000/svg" xmlns:xlink="http://www.w3.org/1999/xlink" x="0px" y="0px"
	 viewBox="0 0 512 70.6" style="enable-background:new 0 0 512 70.6;" xml:space="preserve">
<style type="text/css">
	.st0{fill:#58585A;}
	.st1{fill:#18B0C5;}
</style>
<g>
	<g>
		<polygon class="st0" points="116.8,9.7 131.7,9.7 131.7,53.6 135,53.6 135,9.7 149.9,9.7 149.9,6.8 116.8,6.8 		"/>
		<path class="st0" d="M160.1,5.7c-1.6,0-2.8,1.1-2.8,2.8c0,1.6,1.3,2.8,2.8,2.8c1.6,0,2.8-1.1,2.8-2.8
			C162.9,6.8,161.6,5.7,160.1,5.7z"/>
		<rect x="158.4" y="19.5" class="st0" width="3.1" height="34"/>
		<path class="st0" d="M209.5,18.7c-3.9,0-7.7,2.7-11.6,6.9c-1.2-4.2-4-6.9-9.4-6.9c-3.8,0-7.7,2.6-10.7,6.1h-0.2l-0.3-5.2h-2.7v34
			h3.1V27.9c3.8-4.3,7.2-6.4,10.2-6.4c5.2,0,7.7,3.4,7.7,10.6v21.4h3.1V27.9c3.8-4.3,7-6.4,10.2-6.4c5.2,0,7.6,3.4,7.6,10.6v21.4
			h3.2V31.7C219.7,22.9,216.3,18.7,209.5,18.7z"/>
		<polygon class="st0" points="292.1,19.5 288.5,19.5 271.7,40.2 271.5,40.2 271.5,2.6 268.4,2.6 268.4,53.6 271.5,53.6 271.5,44.3 
			279.2,35.3 290.5,53.6 293.9,53.6 281,33 		"/>
		<path class="st0" d="M312.4,18.7c-7.6,0-14.8,6.8-14.8,17.9s7,17.8,15.7,17.8c5,0,8-1.7,10.7-3.3l-1.3-2.4c-2.6,1.8-5.5,3-9.1,3
			c-7.7,0-12.7-6.2-12.8-14.7h24.5c0.1-0.9,0.1-1.7,0.1-2.6C325.5,24.4,320.5,18.7,312.4,18.7z M300.8,34.6
			c0.7-8.2,5.9-13.2,11.7-13.2c6.1,0,10,4.5,10,13.2H300.8z"/>
		<path class="st0" d="M346.7,18.7c-7.6,0-14.8,6.8-14.8,17.9s7,17.8,15.7,17.8c5,0,8-1.7,10.7-3.3l-1.3-2.4c-2.6,1.8-5.5,3-9.1,3
			c-7.7,0-12.7-6.2-12.8-14.7h24.5c0.1-0.9,0.1-1.7,0.1-2.6C359.7,24.4,354.8,18.7,346.7,18.7z M335.1,34.6
			c0.7-8.2,5.9-13.2,11.7-13.2c6.1,0,10,4.5,10,13.2H335.1z"/>
		<path class="st0" d="M383.7,18.7c-4.2,0-8.2,2.5-11.6,5.1h-0.2l-0.3-4.3h-2.7v49.4h3.1V56.5v-6.3c3.5,2.6,7,4.2,10.2,4.2
			c8,0,15-6.8,15-18.4C397.3,25.5,392.8,18.7,383.7,18.7z M382.1,51.7c-2.6,0-6.2-1.2-10.1-4.4V27.1c4.1-3.6,7.7-5.6,11.1-5.6
			c7.8,0,10.8,6.2,10.8,14.6C394,45.3,389,51.7,382.1,51.7z"/>
		<path class="st0" d="M409.1,5.7c-1.6,0-2.8,1.1-2.8,2.8c0,1.6,1.3,2.8,2.8,2.8c1.6,0,2.8-1.1,2.8-2.8C412,6.8,410.7,5.7,409.1,5.7
			z"/>
		<rect x="407.5" y="19.5" class="st0" width="3.1" height="34"/>
		<path class="st0" d="M438.6,18.7c-4.7,0-8.2,2.6-11.7,6.1h-0.2l-0.3-5.2h-2.7v34h3.1V27.9c4.2-4.3,7.1-6.4,11.1-6.4
			c5.5,0,7.8,3.4,7.8,10.6v21.4h3.1V31.7C448.9,22.9,445.6,18.7,438.6,18.7z"/>
		<path class="st0" d="M477.5,50.7h-7.3c-5.1,0-6.5-2-6.5-4.5c0-2.3,1.3-3.7,2.8-4.9c1.6,0.9,3.8,1.4,5.7,1.4c6.7,0,11.8-5,11.8-12
			c0-3.6-1.6-6.7-3.8-8.6h7.9v-2.6h-11.6c-1.1-0.4-2.6-0.8-4.5-0.8c-6.7,0-12,5-12,12c0,4.1,2.1,7.5,4.3,9.4v0.3
			c-1.5,1.1-3.7,3.2-3.7,6.2c0,2.6,1.3,4.5,3,5.5v0.3c-3.1,2.3-5,5.2-5,8.2c0,5.7,5.4,9.4,14,9.4c9.8,0,16.1-5.6,16.1-11.5
			C488.7,53.1,485.1,50.7,477.5,50.7z M463.2,30.7c0-5.8,4-9.4,8.9-9.4c4.8,0,8.8,3.7,8.8,9.4s-4.1,9.6-8.8,9.6
			C467.3,40.2,463.2,36.4,463.2,30.7z M472.9,67.4c-7.2,0-11.3-2.9-11.3-7.2c0-2.4,1.3-5,4.5-7.2c1.8,0.4,3.5,0.6,4.3,0.6h7.3
			c5.1,0,7.9,1.4,7.9,5.2C485.5,63.1,480.6,67.4,472.9,67.4z"/>
		<path class="st0" d="M505.9,20.5c0-3-2.2-3.8-4.5-3.8h-4.1v12.2h1.9v-4.5h2.8l2.3,4.5h2.2l-2.9-5.1
			C504.9,23.4,505.9,22,505.9,20.5z M500.8,22.8h-1.7v-4.4h1.9c2.1,0,2.8,0.9,2.8,2.2C503.8,22.1,502.6,22.8,500.8,22.8z"/>
		<path class="st0" d="M501.2,11.5c-5.8,0-10.7,4.6-10.7,11.5s4.9,11.4,10.7,11.4c5.9,0,10.8-4.5,10.8-11.4S507.2,11.5,501.2,11.5z
			 M501.2,32.7c-5,0-8.9-4.1-8.9-9.7c0-5.7,4-9.9,8.9-9.9c5,0,8.9,4.2,8.9,9.9C510.2,28.6,506.2,32.7,501.2,32.7z"/>
	</g>
	<path class="st1" d="M259.2,28.4c-1.8-3.4-4.3-5.9-7.6-7.7c-1.8-1-3.8-1.5-5.9-1.8c-2.7-0.4-5.4-0.1-7.9,0.8s-4.6,2.3-6.5,4.1
		c-2.6,2.6-4.4,5.6-5.1,9.3c-0.3,1.7-0.2,3.4-0.1,5c0.1,1.5,0.5,2.9,1,4.3c0.9,2.1,2.1,4,3.7,5.6c3.2,3.3,7,5.2,11.6,5.5
		c3.6,0.2,6.9-0.5,10-2.5c3.2-2,5.7-4.7,7.2-8.2c0.2-0.4,0.1-0.5-0.3-0.5c-1.2,0-2.3,0-3.5,0c-0.3,0-0.5,0.1-0.6,0.4
		c-0.4,0.7-0.8,1.4-1.3,2c-1.9,2.3-4.3,4-7.2,4.6c-0.4,0.1-0.9,0.2-1.4,0.2v-2c0-0.9-0.8-1.7-1.7-1.7s-1.7,0.8-1.7,1.7v2
		c-1.2-0.1-2.4-0.4-3.6-1c-3.2-1.4-5.5-3.7-6.9-6.9c-0.5-1.1-0.8-2.2-0.9-3.3h2c0.9,0,1.7-0.8,1.7-1.7s-0.8-1.7-1.7-1.7h-2.1
		c0.2-2.6,1-5,2.6-7.1c2.2-2.9,5.1-4.7,8.8-5.1c0.1,0,0.1,0,0.2,0V25c0,0.9,0.8,1.7,1.7,1.7s1.7-0.8,1.7-1.7v-2.3
		c1,0.1,2.1,0.3,3.1,0.7c2.4,0.9,4.3,2.4,5.8,4.5c1.2,1.6,2.1,3.4,2.4,5.4c0.1,0.6-0.2,0.6-0.6,0.6c-3.2,0-6.4,0-9.6,0
		c-0.5,0-0.7-0.1-0.7-0.7c0-1.4,0-1.6,0-3c0-0.5-0.1-0.7-0.7-0.7c-1,0-2,0-2.9,0c-0.6,0-0.7,0.2-0.7,0.7c0,2.9,0,4.5,0,7.3
		c0,0.5,0.2,0.7,0.7,0.7c3,0,6.1,0,9.1,0c2.9,0,5.7,0,8.6,0c1.2,0,1.3-0.1,1.4-1.3c0-0.1,0-0.2,0-0.3
		C261.1,33.8,260.5,31,259.2,28.4z"/>
	<g>
		<g>
			<path class="st1" d="M1.4,46.8L24.8,17h-17l1.8-9.5h30.6l-1.4,6.8L15.7,44.1h18.7l-2,9.5H0L1.4,46.8z"/>
			<path class="st1" d="M49.1,7.5h11.3l-9.2,46.1H39.8L49.1,7.5z"/>
			<path class="st1" d="M71,7.5h15.2c9.1,0,16.3,3.4,16.3,12.6c0,13.5-10.1,18.4-21.7,18.4h-4.7l-3,15H61.8L71,7.5z M82.2,29.6
				c5.8,0,9.1-2.7,9.1-7.8c0-3.7-2.5-5.4-6.7-5.4h-4.1L78,29.6H82.2z"/>
		</g>
	</g>
</g>
</svg>
