<?xml version="1.0" encoding="utf-8"?>
<!-- Generator: Adobe Illustrator 23.0.4, SVG Export Plug-In . SVG Version: 6.00 Build 0)  -->
<svg version="1.1" id="Layer_1" xmlns="http://www.w3.org/2000/svg" xmlns:xlink="http://www.w3.org/1999/xlink" x="0px" y="0px"
	 viewBox="0 0 512 512" style="enable-background:new 0 0 512 512;" xml:space="preserve">
<style type="text/css">
	.st0{fill:#FFFFFF;}
</style>
<g>
	<g>
		<path class="st0" d="M511.4,160.2c-1.9-5.7-5.6-11-9.2-15.8c-6.6-9-15.7-15-26.5-16.7c-4.7-0.7-9.3-1.2-14.1-1.4v-25.1
			c0-43.1-35.1-77.9-78.4-77.9h-258c-43.4,0-78.4,34.8-78.4,77.9v256.1c0,43.1,35.1,77.9,78.4,77.9H181l-37.6,30h-35
			c-6.6,0-11.8,5.4-11.8,11.7s5.2,11.7,11.8,11.7H391c6.4,0,11.8-5.4,11.8-11.7s-5.2-11.7-11.8-11.7h-33.3l-37.6-30h63
			c43.4,0,78.4-34.8,78.4-77.9v-38.1c0.7,0,1.4,0,2.1-0.2c7.3-0.7,14.6-1,21.7-4.6c8.7-4.6,15.8-11,20.9-19.3
			c3.1-4.8,4.9-10.7,5.2-16.2C512,261.8,512.4,163.7,511.4,160.2z M374.3,388.3H146.8c-33.5,0-64.7-22.3-64.7-50.5V104.5
			c0-28.3,31-45.7,64.7-45.7h227.6c33.5,0,51.5,17.5,51.5,45.7v233.4l0,0C426,366.2,407.8,388.3,374.3,388.3z M485.1,298.5
			c0,6.2-5,11.2-11.3,11.2V135.7c6.2,0,11.3,5,11.3,11.2V298.5z"/>
		<path class="st0" d="M299.7,136.9c-10.6-5.7-21.9-8.8-33.7-10.5c-15.8-2.1-30.8-0.4-45.5,4.6c-14.2,4.8-26.4,12.9-37.2,23.3
			c-15.1,14.8-25.2,32.3-29,53.1c-1.7,9.5-1.2,19.3-0.7,28.8c0.4,8.5,2.7,16.7,5.9,24.4c4.9,11.9,12.2,22.5,21.1,32.1
			c18.2,19,40.1,29.6,66.5,31.2c20.5,1.2,39.9-3.1,57.3-14c18.4-11.7,32.7-27.1,41.5-47.1c1-2.5,0.7-2.9-1.9-2.9
			c-6.8,0-13.4,0-20.1,0c-1.9,0-2.9,0.7-3.7,2.3c-2.1,4.2-4.7,7.9-7.6,11.4c-10.8,13.3-24.4,22.7-41.3,26c-2.5,0.5-5,0.8-7.5,1.2
			v-11.4c0-5.4-4.5-9.6-9.7-9.6c-5.4,0-9.7,4.5-9.7,9.6v11.7c-7.1-0.7-14.2-2.5-21.1-5.5c-18.4-8.1-31.2-21.2-39.5-39.1
			c-2.7-6.2-4.5-12.5-5.4-19h11.8c5.4,0,9.7-4.5,9.7-9.6s-4.5-9.6-9.7-9.6h-12.4c1-15,6-28.4,15.3-40.5
			c12.8-16.4,29.5-26.5,50.3-28.8c0.4,0,0.8,0,1.2-0.2v13.1c0,5.4,4.5,9.6,9.7,9.6c5.4,0,9.7-4.5,9.7-9.6v-13.1
			c5.9,0.7,11.6,1.9,17.2,4.2c13.4,5.4,24.6,13.8,33.3,25.4c7,9.3,12,19.5,13.7,30.8c0.7,3.5-0.8,3.3-3.1,3.3c-18.4,0-36.8-0.2-55,0
			c-2.7,0-3.8-0.7-3.8-3.8c0.2-8.1,0-9,0.2-17.1c0.2-2.9-0.7-4.2-3.8-4c-5.6,0.2-11.1,0.4-16.8,0c-3.1-0.2-4.2,0.8-4.2,4
			c0.2,16.4,0.2,25.4,0,41.7c0,3.1,0.8,3.8,3.8,3.8c17.4,0,34.9,0,52.3,0c16.5,0,32.8,0,49.2-0.5c7,0,7.3-0.4,7.8-7.3
			c0-0.7,0-1,0-1.7c-0.2-16.7-3.3-32.4-11.1-47.3C333.1,161.7,318.5,147.2,299.7,136.9z"/>
	</g>
</g>
</svg>
