<?xml version="1.0" encoding="utf-8"?>
<!-- Generator: Adobe Illustrator 23.0.4, SVG Export Plug-In . SVG Version: 6.00 Build 0)  -->
<svg version="1.1" id="Layer_1" xmlns="http://www.w3.org/2000/svg" xmlns:xlink="http://www.w3.org/1999/xlink" x="0px" y="0px"
	 viewBox="0 0 512 512" style="enable-background:new 0 0 512 512;" xml:space="preserve">
<style type="text/css">
	.st0{fill:#21A8BD;}
	.st1{fill:#FFFFFF;}
</style>
<path id="XMLID_2_" class="st0" d="M460.8,512H51.2C22.9,512,0,489.1,0,460.8V51.2C0,22.9,22.9,0,51.2,0h409.6
	C489.1,0,512,22.9,512,51.2v409.6C512,489.1,489.1,512,460.8,512z"/>
<g>
	<path class="st1" d="M389.7,200.4c-1.1-3.3-3.2-6.4-5.3-9.2c-3.8-5.2-9-8.7-15.3-9.7c-2.7-0.4-5.4-0.7-8.1-0.8v-14.5
		c0-25-20.2-45.2-45.2-45.2H167.2c-25,0-45.2,20.2-45.2,45.2v148.6c0,25,20.2,45.2,45.2,45.2h32.2l-21.7,17.4h-20.1
		c-3.8,0-6.8,3.1-6.8,6.8s3,6.8,6.8,6.8h162.8c3.7,0,6.8-3.1,6.8-6.8s-3-6.8-6.8-6.8h-19.2L279.5,360h36.3c25,0,45.2-20.2,45.2-45.2
		v-22.1c0.4,0,0.8,0,1.2-0.1c4.2-0.4,8.4-0.6,12.5-2.7c5-2.7,9.1-6.4,12-11.2c1.8-2.8,2.8-6.2,3-9.4
		C390.1,259.4,390.3,202.5,389.7,200.4z M310.8,332.8H179.7c-19.3,0-37.3-12.9-37.3-29.3V168.1c0-16.4,17.9-26.5,37.3-26.5h131.1
		c19.3,0,29.7,10.1,29.7,26.5v135.4h0C340.5,319.9,330.1,332.8,310.8,332.8z M374.6,280.7c0,3.6-2.9,6.5-6.5,6.5V186.2
		c3.6,0,6.5,2.9,6.5,6.5V280.7z"/>
	<path class="st1" d="M267.8,186.9c-6.1-3.3-12.6-5.1-19.4-6.1c-9.1-1.2-17.7-0.2-26.2,2.7c-8.2,2.8-15.2,7.5-21.4,13.5
		c-8.7,8.6-14.5,18.7-16.7,30.8c-1,5.5-0.7,11.2-0.4,16.7c0.2,4.9,1.6,9.7,3.4,14.2c2.8,6.9,7,13.1,12.2,18.6
		c10.5,11,23.1,17.2,38.3,18.1c11.8,0.7,23-1.8,33-8.1c10.6-6.8,18.8-15.7,23.9-27.3c0.6-1.4,0.4-1.7-1.1-1.7c-3.9,0-7.7,0-11.6,0
		c-1.1,0-1.7,0.4-2.1,1.3c-1.2,2.4-2.7,4.6-4.4,6.6c-6.2,7.7-14.1,13.2-23.8,15.1c-1.4,0.3-2.9,0.5-4.3,0.7v-6.6
		c0-3.1-2.6-5.6-5.6-5.6c-3.1,0-5.6,2.6-5.6,5.6v6.8c-4.1-0.4-8.2-1.4-12.2-3.2c-10.6-4.7-18-12.3-22.8-22.7
		c-1.6-3.6-2.6-7.2-3.1-11h6.8c3.1,0,5.6-2.6,5.6-5.6s-2.6-5.6-5.6-5.6h-7.1c0.6-8.7,3.5-16.5,8.8-23.5c7.4-9.5,17-15.4,29-16.7
		c0.2,0,0.5,0,0.7-0.1v7.6c0,3.1,2.6,5.6,5.6,5.6c3.1,0,5.6-2.6,5.6-5.6v-7.6c3.4,0.4,6.7,1.1,9.9,2.4c7.7,3.1,14.2,8,19.2,14.7
		c4,5.4,6.9,11.3,7.9,17.9c0.4,2-0.5,1.9-1.8,1.9c-10.6,0-21.2-0.1-31.7,0c-1.6,0-2.2-0.4-2.2-2.2c0.1-4.7,0-5.2,0.1-9.9
		c0.1-1.7-0.4-2.4-2.2-2.3c-3.2,0.1-6.4,0.2-9.7,0c-1.8-0.1-2.4,0.5-2.4,2.3c0.1,9.5,0.1,14.7,0,24.2c0,1.8,0.5,2.2,2.2,2.2
		c10,0,20.1,0,30.1,0c9.5,0,18.9,0,28.3-0.3c4,0,4.2-0.2,4.5-4.2c0-0.4,0-0.6,0-1c-0.1-9.7-1.9-18.8-6.4-27.4
		C287,201.3,278.6,192.9,267.8,186.9z"/>
</g>
</svg>
