<?xml version="1.0" encoding="utf-8"?>
<!-- Generator: Adobe Illustrator 19.2.0, SVG Export Plug-In . SVG Version: 6.00 Build 0)  -->
<svg version="1.1" id="Layer_1" xmlns="http://www.w3.org/2000/svg" xmlns:xlink="http://www.w3.org/1999/xlink" x="0px" y="0px"
	 viewBox="0 0 40 40" style="enable-background:new 0 0 40 40;" xml:space="preserve">
<style type="text/css">
	.st0{fill:#FFFFFF;}
</style>
<g>
	<g>
		<path class="st0" d="M37.6,28.7c-0.3-0.3-0.6-0.7-1-1c-0.3-0.3-0.7-0.5-1-0.5c-0.3,0-0.7,0.2-1,0.5l-0.2,0.2
			c-0.4,0.4-0.9,0.9-1.3,1.3c-0.1,0.1-0.3,0.3-0.6,0.3c-0.2,0-0.4-0.1-0.5-0.2c-0.9-0.6-1.9-0.9-3.1-0.9c-0.1,0-0.1,0-0.2,0
			c-3.1,0.1-5.6,2.6-5.6,5.7c0,0.1,0,0.3,0,0.4c0,0.3,0.1,0.6,0.1,0.8c0.6,2.7,2.9,4.6,5.6,4.6c0.2,0,0.4,0,0.6,0
			c3.1-0.3,5.3-2.8,5.3-5.9c0-0.3,0.1-0.6,0.3-0.8c0.5-0.5,1-1,1.5-1.5c0.4-0.4,0.7-0.7,1.1-1.1C38.2,30.1,38.2,29.4,37.6,28.7z
			 M36.7,30.5c0,0-1.5,1.5-1.5,1.5c-1.4,1.4-2.7,2.7-4.1,4.1c-0.2,0.2-0.5,0.5-0.9,0.5c-0.4,0-0.7-0.3-0.9-0.5
			c-0.8-0.8-1.6-1.6-2.4-2.4c-0.6-0.6-0.6-1.1,0-1.7l0,0c0.1-0.1,0.2-0.2,0.3-0.3c0.3-0.2,0.5-0.4,0.8-0.4c0.3,0,0.5,0.1,0.8,0.4
			c0.4,0.4,0.7,0.8,1.1,1.2c0.1,0.1,0.2,0.2,0.2,0.2c0,0,0-0.1,0.1-0.1c1.3-1.3,2.6-2.7,3.9-3.9l0.4-0.4c0.3-0.3,0.6-0.5,0.9-0.5
			c0.4,0,0.7,0.3,1,0.5l0.1,0.1c0,0,0.1,0.1,0.1,0.1C37.3,29.3,37.3,29.9,36.7,30.5z M16.5,26.5c0-0.2-0.1-0.3-0.2-0.4
			c-0.1-0.1-0.4-0.2-0.6-0.2c-0.5,0-1,0-1.6,0l-4.4,0c-0.5,0-1,0-1.5,0c-0.5,0-0.8,0.2-0.8,0.6c0,0.2,0.1,0.3,0.2,0.4
			c0.1,0.1,0.4,0.2,0.6,0.2c1.3,0,2.5,0,3.8,0c1.3,0,2.5,0,3.8,0C16.2,27.2,16.5,26.9,16.5,26.5z M19.7,8.5
			c-0.4-2.2-2.6-4.4-4.7-4.7l-0.6-0.1L14,5.5l-0.6-0.1c-0.5-0.1-1-0.2-1.6-0.2c-2.5,0-4.8,1.4-5.8,3.6c-1.4,2.8-0.6,6.1,1.8,8
			c1.1,0.9,2.6,1.4,4,1.4c1.5,0,3-0.5,4.2-1.5c2.1-1.8,2.7-4.8,2-6.6l-0.2-0.5l2-0.4L19.7,8.5z M15.3,15.7c-0.9,0.8-2.1,1.2-3.4,1.2
			c-1.2,0-2.3-0.4-3.3-1.1c-1.9-1.5-2.6-4.2-1.5-6.5C8,7.5,9.9,6.4,11.9,6.4c0.1,0,0.2,0,0.3,0l0.4,0l-1.3,5.9l5.9-1.3l0,0.4
			C17.2,12.6,16.8,14.4,15.3,15.7z M14.4,9.1l0.9-3.9l0.4,0.2c1,0.5,2,1.4,2.4,2.4l0.2,0.4L14.4,9.1z M14.3,29.6c-0.9,0-1.8,0-2.8,0
			c-1.3,0-2.4,0-3.4,0c-0.2,0-0.4,0.1-0.6,0.3c-0.2,0.2-0.1,0.5-0.1,0.6c0.1,0.3,0.4,0.4,0.7,0.4c0.5,0,0.9,0,1.4,0l1.5,0v0
			c0,0,2,0,2.3,0c0.4,0,0.9,0,1.3,0c0.4,0,0.7-0.3,0.8-0.6c0-0.2-0.1-0.3-0.2-0.4c-0.1-0.1-0.3-0.2-0.6-0.2L14.3,29.6z M8,23.4
			c0.1,0,0.2,0,0.4,0c0.1,0,0.2,0,0.3,0c0.1,0,0.2,0,0.3,0h0c0.1,0,0.2,0,0.3,0c0.1,0,0.2,0,0.3,0c0.1,0,0.2,0,0.4,0
			c0.4,0,0.7-0.3,0.6-0.6c0-0.4-0.3-0.6-0.6-0.6c-0.3,0-0.7,0-1,0c-0.4,0-0.7,0-1,0c-0.3,0-0.6,0.3-0.6,0.6
			C7.4,23.1,7.7,23.4,8,23.4z M21.1,38.1C21.1,38.1,21,38.1,21.1,38.1l-0.4,0c-1.7,0-3.5,0-5.2,0c-1.7,0-3.4,0-5.2,0H3.5V1.3h19.9
			v6.1C23.4,7.9,23.5,8,24,8l4.4,0c0.1,0,0.1,0,0.2,0c0,0,0,0,0.1,0l0.6,0.1v17.4l1.5,0.3c0-2.4,0.2-14,0.2-18.4
			c0-0.2-0.1-0.4-0.2-0.6c-1-1-5.9-6.1-6.7-6.9H3.2C2.8,0,2.6,0.1,2.4,0.3C1.9,0.7,2,1.7,2,2.4v0.1C2,6.8,2,11.2,2,15.5
			c0,4.5,0.1,9.2,0.1,13.8v8.2c0,1.3,0.6,2,1.8,2l8.3,0l9.8,0c-0.3-0.5-0.6-0.9-0.8-1.3C21.1,38.2,21.1,38.1,21.1,38.1z"/>
	</g>
</g>
</svg>
