<?xml version="1.0" encoding="utf-8"?>
<!-- Generator: Adobe Illustrator 19.2.0, SVG Export Plug-In . SVG Version: 6.00 Build 0)  -->
<svg version="1.1" id="Layer_1" xmlns="http://www.w3.org/2000/svg" xmlns:xlink="http://www.w3.org/1999/xlink" x="0px" y="0px"
	 viewBox="0 0 40 40" style="enable-background:new 0 0 40 40;" xml:space="preserve">
<style type="text/css">
	.st0{fill:#FFFFFF;}
</style>
<g>
	<g>
		<g>
			<path class="st0" d="M15.7,26.9c0-0.2-0.1-0.3-0.2-0.4c-0.1-0.1-0.4-0.2-0.6-0.2c-0.5,0-1,0-1.6,0l-4.4,0c-0.5,0-1,0-1.6,0
				c-0.5,0-0.8,0.3-0.8,0.6c0,0.2,0.1,0.3,0.2,0.4c0.1,0.1,0.4,0.2,0.6,0.2c1.3,0,2.5,0,3.8,0c1.3,0,2.5,0,3.8,0
				C15.4,27.5,15.7,27.3,15.7,26.9z M19,8.6c-0.4-2.3-2.6-4.4-4.8-4.8l-0.6-0.1l-0.4,1.8l-0.6-0.1c-0.5-0.1-1-0.2-1.6-0.2
				c-2.5,0-4.8,1.4-5.9,3.6C3.8,11.7,4.6,15.1,7,17c1.2,0.9,2.6,1.4,4.1,1.4c1.6,0,3.1-0.6,4.2-1.5c2.2-1.9,2.7-4.8,2-6.7l-0.2-0.5
				l2-0.5L19,8.6z M14.5,15.9c-0.9,0.8-2.2,1.3-3.4,1.3c-1.2,0-2.4-0.4-3.3-1.1c-2-1.5-2.6-4.3-1.5-6.6C7.2,7.6,9,6.5,11.1,6.5
				c0.1,0,0.2,0,0.3,0l0.4,0l-1.3,5.9l5.9-1.4l0,0.4C16.5,12.7,16,14.6,14.5,15.9z M13.7,9.2l0.9-4L15,5.4c1,0.5,2,1.4,2.5,2.5
				l0.2,0.4L13.7,9.2z M13.5,30c-0.9,0-1.9,0-2.8,0c-1.3,0-2.4,0-3.5,0c-0.2,0-0.4,0.1-0.6,0.3c-0.2,0.2-0.1,0.5-0.1,0.6
				c0.1,0.3,0.4,0.4,0.7,0.4c0.5,0,0.9,0,1.4,0l1.5,0v0c0,0,2,0,2.3,0c0.4,0,0.9,0,1.3,0c0.4,0,0.8-0.3,0.8-0.7
				c0-0.2-0.1-0.3-0.2-0.4C14.2,30.1,14,30,13.8,30L13.5,30z M7.2,23.7c0.1,0,0.2,0,0.4,0c0.1,0,0.2,0,0.3,0c0.1,0,0.2,0,0.3,0h0
				c0.1,0,0.2,0,0.3,0c0.1,0,0.2,0,0.3,0c0.1,0,0.3,0,0.4,0c0.4,0,0.7-0.3,0.7-0.7c0-0.4-0.3-0.6-0.6-0.6c-0.4,0-0.7,0-1,0
				c-0.4,0-0.7,0-1.1,0c-0.3,0-0.6,0.3-0.6,0.6C6.5,23.4,6.8,23.7,7.2,23.7z M30.2,7c-1.1-1.1-6-6.1-6.7-7H2.3
				C1.9,0,1.7,0.1,1.5,0.3C1,0.8,1,1.7,1,2.4v0.1c0,4.4,0,8.9,0.1,13.2c0,4.6,0.1,9.3,0.1,14V38c0,1.4,0.6,2,1.8,2l6.7,0l5.9,0
				c-0.1-0.6,0-1.4,0-1.4l-0.4,0c-1.7,0-0.5,0-2.2,0c-1.7,0-1.7,0-3.5,0H2.6V1.3h20.1v6.2c0,0.5,0.1,0.6,0.6,0.6l4.5,0
				c0.1,0,0.1,0,0.2,0c0,0,0,0,0.1,0l0.6,0.1v16.7l1.5,0.3c0-2.4,0.2-13.2,0.2-17.6C30.4,7.3,30.4,7.1,30.2,7z"/>
		</g>
	</g>
	<g>
		<path class="st0" d="M38.3,27H18.2c-0.4,0-0.7,0.3-0.7,0.7v11.4c0,0.4,0.3,0.7,0.7,0.7h20.1c0.4,0,0.7-0.3,0.7-0.7V27.7
			C39,27.3,38.7,27,38.3,27L38.3,27z M37.6,38.4H18.9V28.3h18.7V38.4z M37.6,38.4"/>
		<path class="st0" d="M22.1,34h1.7c0.4,0,0.7-0.3,0.7-0.7c0-0.4-0.3-0.7-0.7-0.7h-1.7c-0.4,0-0.7,0.3-0.7,0.7
			C21.4,33.7,21.7,34,22.1,34L22.1,34z M22.1,34"/>
		<path class="st0" d="M32.7,34h1.7c0.4,0,0.7-0.3,0.7-0.7c0-0.4-0.3-0.7-0.7-0.7h-1.7c-0.4,0-0.7,0.3-0.7,0.7
			C32.1,33.7,32.4,34,32.7,34L32.7,34z M32.7,34"/>
		<path class="st0" d="M27.7,34.1h1.1c0.3,0,0.5,0.2,0.5,0.5S29.1,35,28.8,35h-1.9c-0.4,0-0.7,0.3-0.7,0.7c0,0.4,0.3,0.7,0.7,0.7
			h0.7v0.4c0,0.4,0.3,0.7,0.7,0.7c0.4,0,0.7-0.3,0.7-0.7v-0.5c0.9-0.1,1.7-0.9,1.7-1.8c0-1-0.8-1.8-1.8-1.8h-1.1
			c-0.3,0-0.5-0.2-0.5-0.5c0-0.3,0.2-0.5,0.5-0.5h1.9c0.4,0,0.7-0.3,0.7-0.7c0-0.4-0.3-0.7-0.7-0.7H29v-0.4c0-0.4-0.3-0.7-0.7-0.7
			c-0.4,0-0.7,0.3-0.7,0.7v0.4c-0.9,0.1-1.7,0.9-1.7,1.8C25.9,33.2,26.7,34.1,27.7,34.1L27.7,34.1z M27.7,34.1"/>
	</g>
</g>
</svg>
