<?xml version="1.0" encoding="utf-8"?>
<!-- Generator: Adobe Illustrator 19.2.0, SVG Export Plug-In . SVG Version: 6.00 Build 0)  -->
<svg version="1.1" id="Layer_1" xmlns="http://www.w3.org/2000/svg" xmlns:xlink="http://www.w3.org/1999/xlink" x="0px" y="0px"
	 viewBox="0 0 40 40" style="enable-background:new 0 0 40 40;" xml:space="preserve">
<style type="text/css">
	.st0{fill:#FFFFFF;}
</style>
<g>
	<g>
		<g>
			<path class="st0" d="M13.5,26.3c0-0.2-0.1-0.3-0.2-0.4c-0.1-0.1-0.3-0.2-0.6-0.2c-0.5,0-1,0-1.4,0l-4.1,0c-0.5,0-0.9,0-1.4,0
				c-0.4,0-0.7,0.2-0.7,0.6c0,0.2,0,0.3,0.2,0.4c0.1,0.1,0.3,0.2,0.6,0.2c1.2,0,2.3,0,3.5,0c1.2,0,2.3,0,3.5,0
				C13.2,26.9,13.5,26.7,13.5,26.3z M11.5,29.2c-0.9,0-1.7,0-2.6,0c-1.2,0-2.2,0-3.2,0c-0.2,0-0.4,0.1-0.6,0.3C5,29.6,5,29.9,5.1,30
				c0.1,0.3,0.3,0.4,0.6,0.4c0.4,0,0.8,0,1.3,0l1.4,0v0c0,0,1.8,0,2.1,0c0.4,0,0.8,0,1.2,0c0.4,0,0.7-0.2,0.7-0.6
				c0-0.2-0.1-0.3-0.2-0.4c-0.1-0.1-0.3-0.2-0.5-0.2L11.5,29.2z M5.6,23.4c0.1,0,0.2,0,0.4,0c0.1,0,0.2,0,0.3,0c0.1,0,0.2,0,0.3,0h0
				c0.1,0,0.2,0,0.3,0c0.1,0,0.2,0,0.3,0c0.1,0,0.2,0,0.3,0c0.3,0,0.6-0.3,0.6-0.6c0-0.3-0.2-0.6-0.6-0.6c-0.3,0-0.6,0-0.9,0
				c-0.3,0-0.7,0-1,0c-0.3,0-0.6,0.3-0.6,0.6C5,23.1,5.3,23.4,5.6,23.4z M26.7,8.1c-1-1-5.5-5.6-6.2-6.4H1.1c-0.3,0-0.5,0.1-0.7,0.3
				C0,2.4,0,3.3,0,3.9v0.1c0,4,0,8.2,0.1,12.1c0,4.2,0.1,8.5,0.1,12.8v7.6c0,1.3,0.5,1.8,1.7,1.8l6.1,0l5.4,0c-0.1-0.6,0-1.3,0-1.3
				l-0.4,0c-1.6,0-0.4,0-2,0c-1.6,0-1.6,0-3.2,0H1.5v-34h18.4v5.6c0,0.5,0.1,0.6,0.6,0.6l4.1,0c0.1,0,0.1,0,0.2,0c0,0,0,0,0.1,0
				l0.6,0.1v9.6l1.4,0.2c0-2.2,0.2-6.4,0.2-10.5C26.9,8.4,26.9,8.2,26.7,8.1z M11.3,15.6h1l0.3,0.7h0.8l-1.2-3.3h-0.7l-1.2,3.3H11
				L11.3,15.6z M11.8,13.9l0.4,1.2h-0.8L11.8,13.9z M14.1,6.7h-1v0.8H9.8V6.7h-1v0.8H4.5v11.8h13.9V7.5h-4.3V6.7z M17.4,18.3H5.5
				v-7.2h11.9V18.3z M17.4,8.5v1.6H5.5V8.5h3.3v0.8h1V8.5h3.3v0.7h1V8.5H17.4z M14.2,16.3h0.7v-1.1l1.2-2.1h-0.8l-0.7,1.5l-0.7-1.5
				H13l1.1,2.1V16.3z M9.1,16.2c0.2-0.1,0.4-0.2,0.5-0.3s0.3-0.3,0.3-0.5c0.1-0.2,0.1-0.4,0.1-0.7c0-0.2,0-0.4-0.1-0.6
				s-0.2-0.4-0.3-0.5c-0.1-0.1-0.3-0.3-0.5-0.3c-0.2-0.1-0.4-0.1-0.7-0.1H7.3v3.3h1.2C8.7,16.3,8.9,16.3,9.1,16.2z M8,13.7h0.5
				c0.1,0,0.3,0,0.4,0.1c0.1,0,0.2,0.1,0.3,0.2c0.1,0.1,0.1,0.2,0.2,0.3c0,0.1,0.1,0.2,0.1,0.4c0,0.1,0,0.3-0.1,0.4
				c0,0.1-0.1,0.2-0.2,0.3c-0.1,0.1-0.2,0.2-0.3,0.2c-0.1,0-0.2,0.1-0.4,0.1H8V13.7z"/>
		</g>
	</g>
	<g>
		<path class="st0" d="M34,26.5H15.6c-0.3,0-0.6,0.3-0.6,0.6v10.5c0,0.3,0.3,0.6,0.6,0.6H34c0.3,0,0.6-0.3,0.6-0.6V27.2
			C34.6,26.8,34.4,26.5,34,26.5L34,26.5z M33.4,37H16.3v-9.2h17.1V37z M33.4,37"/>
		<path class="st0" d="M19.2,33h1.5c0.3,0,0.6-0.3,0.6-0.6c0-0.3-0.3-0.6-0.6-0.6h-1.5c-0.3,0-0.6,0.3-0.6,0.6
			C18.6,32.7,18.9,33,19.2,33L19.2,33z M19.2,33"/>
		<path class="st0" d="M36.7,23.7H18.3c-0.3,0-0.6,0.3-0.6,0.6c0,0.3,0.3,0.6,0.6,0.6h17.8v9.9c0,0.3,0.3,0.6,0.6,0.6
			c0.3,0,0.6-0.3,0.6-0.6V24.4C37.3,24,37,23.7,36.7,23.7L36.7,23.7z M36.7,23.7"/>
		<path class="st0" d="M39.4,21H21c-0.3,0-0.6,0.3-0.6,0.6c0,0.3,0.3,0.6,0.6,0.6h17.8v9.9c0,0.3,0.3,0.6,0.6,0.6
			c0.3,0,0.6-0.3,0.6-0.6V21.6C40,21.2,39.7,21,39.4,21L39.4,21z M39.4,21"/>
		<path class="st0" d="M28.9,33h1.5c0.3,0,0.6-0.3,0.6-0.6c0-0.3-0.3-0.6-0.6-0.6h-1.5c-0.3,0-0.6,0.3-0.6,0.6
			C28.3,32.7,28.6,33,28.9,33L28.9,33z M28.9,33"/>
		<path class="st0" d="M24.3,33h1c0.2,0,0.4,0.2,0.4,0.4s-0.2,0.4-0.4,0.4h-1.7c-0.3,0-0.6,0.3-0.6,0.6c0,0.3,0.3,0.6,0.6,0.6h0.6
			v0.4c0,0.3,0.3,0.6,0.6,0.6c0.3,0,0.6-0.3,0.6-0.6v-0.4c0.9-0.1,1.6-0.8,1.6-1.7c0-0.9-0.8-1.7-1.7-1.7h-1c-0.2,0-0.4-0.2-0.4-0.4
			c0-0.2,0.2-0.4,0.4-0.4h1.7c0.3,0,0.6-0.3,0.6-0.6c0-0.3-0.3-0.6-0.6-0.6h-0.6v-0.4c0-0.3-0.3-0.6-0.6-0.6c-0.3,0-0.6,0.3-0.6,0.6
			v0.4c-0.9,0.1-1.6,0.8-1.6,1.7C22.7,32.3,23.4,33,24.3,33L24.3,33z M24.3,33"/>
	</g>
</g>
</svg>
