<?xml version="1.0" encoding="utf-8"?>
<!-- Generator: Adobe Illustrator 19.2.0, SVG Export Plug-In . SVG Version: 6.00 Build 0)  -->
<svg version="1.1" id="Layer_1" xmlns="http://www.w3.org/2000/svg" xmlns:xlink="http://www.w3.org/1999/xlink" x="0px" y="0px"
	 viewBox="0 0 40 40" style="enable-background:new 0 0 40 40;" xml:space="preserve">
<style type="text/css">
	.st0{fill:#FFFFFF;}
</style>
<g>
	<path class="st0" d="M8.3,25.2h6.4V24h-1.9V11.8c0-0.4-0.3-0.6-0.6-0.6H8.3c-0.4,0-0.6,0.3-0.6,0.6v3.8H4.5c-0.4,0-0.6,0.3-0.6,0.6
		v2.6H0.6c-0.4,0-0.6,0.3-0.6,0.6v5.1c0,0.4,0.3,0.6,0.6,0.6H8.3z M8.9,12.5h2.6V24H8.9V12.5z M5.1,16.9h2.6v7H5.1V16.9z M1.3,20.1
		h2.6V24H1.3V20.1z M1.3,20.1"/>
	<path class="st0" d="M30,16.3V5.4c0-0.4-0.3-0.6-0.6-0.6H16c-0.4,0-0.6,0.3-0.6,0.6v10.8c0,0.4,0.3,0.6,0.6,0.6h13.4
		C29.7,16.9,30,16.7,30,16.3L30,16.3z M28.7,8.6h-7.7V6.1h7.7V8.6z M19.8,6.1v2.6h-3.2V6.1H19.8z M16.6,9.9h3.2v5.7h-3.2V9.9z
		 M21.1,15.7V9.9h7.7v5.7H21.1z M21.1,15.7"/>
	<rect x="16" y="18.8" class="st0" width="13.4" height="1.3"/>
	<rect x="16" y="22" class="st0" width="13.4" height="1.3"/>
	<rect x="16" y="25.2" class="st0" width="13.4" height="1.3"/>
	<rect x="7" y="4.8" class="st0" width="3.8" height="1.3"/>
	<rect x="7" y="8" class="st0" width="5.7" height="1.3"/>
	<rect x="7" y="28.4" class="st0" width="4.5" height="1.3"/>
	<rect x="13.4" y="28.4" class="st0" width="4.5" height="1.3"/>
	<rect x="19.8" y="28.4" class="st0" width="4.5" height="1.3"/>
	<rect x="7" y="31.6" class="st0" width="4.5" height="1.3"/>
	<rect x="13.4" y="31.6" class="st0" width="4.5" height="1.3"/>
	<rect x="19.8" y="31.6" class="st0" width="4.5" height="1.3"/>
	<rect x="7" y="34.8" class="st0" width="4.5" height="1.3"/>
	<rect x="13.4" y="34.8" class="st0" width="4.5" height="1.3"/>
	<rect x="19.8" y="34.8" class="st0" width="4.5" height="1.3"/>
	<g>
		<path class="st0" d="M5,2h28v22.9c0-0.1,0.7-0.1,1.1-0.1c0,0-0.1,0-0.1,0V1.6C34,1.2,33.6,1,33.2,1H4.5C4.1,1,4,1.2,4,1.6V10h1V2z
			"/>
		<path class="st0" d="M26,37.8V38H5V28H4v10.6C4,39,4.1,39,4.5,39h22.3c0.1,0,0.1,0.1,0.2,0C26.7,38.6,27,38.3,26,37.8z"/>
	</g>
	<path class="st0" d="M32.2,37.5c-2.3,0-4.3-1.6-4.7-3.9c0-0.2-0.1-0.5-0.1-0.7c0-0.1,0-0.2,0-0.3c0-2.7,2.1-4.8,4.8-4.9
		c0,0,0.1,0,0.1,0c1,0,1.8,0.3,2.6,0.8c0.1,0.1,0.2,0.1,0.4,0.1c0.2,0,0.4-0.1,0.5-0.2c0.4-0.4,0.7-0.8,1.1-1.1L37,27
		c0.3-0.3,0.6-0.4,0.9-0.4c0.3,0,0.6,0.1,0.9,0.4c0.3,0.3,0.6,0.6,0.9,0.9c0.5,0.6,0.5,1.2,0,1.7c-0.3,0.3-0.6,0.6-0.9,0.9
		c-0.4,0.4-0.9,0.9-1.3,1.3c-0.2,0.2-0.3,0.4-0.3,0.7c0,2.6-1.9,4.7-4.5,5C32.5,37.5,32.3,37.5,32.2,37.5z M31.5,30
		c-0.2,0-0.5,0.1-0.7,0.3c-0.1,0.1-0.2,0.2-0.3,0.3l0,0c-0.5,0.5-0.5,1,0,1.5c0.7,0.7,1.4,1.4,2,2.1c0.2,0.2,0.5,0.4,0.8,0.4
		c0.3,0,0.6-0.2,0.8-0.4c1.2-1.2,2.3-2.3,3.5-3.5c0,0,1.3-1.3,1.3-1.3c0.5-0.5,0.5-1,0-1.4c0,0-0.1-0.1-0.1-0.1l0,0
		c-0.2-0.2-0.5-0.5-0.8-0.5c-0.3,0-0.6,0.2-0.8,0.4l-0.4,0.4c-1.1,1.1-2.2,2.2-3.3,3.3c0,0,0,0-0.1,0.1c-0.1-0.1-0.1-0.1-0.2-0.2
		c-0.3-0.3-0.7-0.7-1-1C31.9,30.1,31.7,30,31.5,30z"/>
</g>
</svg>
