<?xml version="1.0" encoding="utf-8"?>
<!-- Generator: Adobe Illustrator 19.2.0, SVG Export Plug-In . SVG Version: 6.00 Build 0)  -->
<svg version="1.1" id="Layer_1" xmlns="http://www.w3.org/2000/svg" xmlns:xlink="http://www.w3.org/1999/xlink" x="0px" y="0px"
	 viewBox="0 0 40 40" style="enable-background:new 0 0 40 40;" xml:space="preserve">
<style type="text/css">
	.st0{fill:#FFFFFF;}
</style>
<g>
	<g>
		<g>
			<path class="st0" d="M13.5,26.3c0-0.2-0.1-0.3-0.2-0.4c-0.1-0.1-0.3-0.2-0.6-0.2c-0.5,0-1,0-1.4,0l-4.1,0c-0.5,0-0.9,0-1.4,0
				c-0.4,0-0.7,0.2-0.7,0.6c0,0.2,0,0.3,0.2,0.4c0.1,0.1,0.3,0.2,0.6,0.2c1.2,0,2.3,0,3.5,0c1.2,0,2.3,0,3.5,0
				C13.2,26.9,13.5,26.7,13.5,26.3z M16.5,9.6c-0.4-2.1-2.4-4.1-4.4-4.4l-0.5-0.1l-0.4,1.7l-0.5-0.1c-0.5-0.1-1-0.2-1.4-0.2
				c-2.3,0-4.4,1.3-5.4,3.3c-1.3,2.6-0.5,5.7,1.7,7.4c1.1,0.8,2.4,1.3,3.7,1.3c1.4,0,2.8-0.5,3.9-1.4c2-1.7,2.5-4.4,1.8-6.1
				l-0.2-0.4l1.8-0.4L16.5,9.6z M12.4,16.2c-0.9,0.7-2,1.1-3.1,1.1c-1.1,0-2.2-0.4-3-1c-1.8-1.4-2.4-3.9-1.4-6
				c0.8-1.6,2.5-2.7,4.4-2.7c0.1,0,0.2,0,0.3,0l0.4,0l-1.2,5.4l5.4-1.2l0,0.4C14.1,13.3,13.7,15,12.4,16.2z M11.6,10.1l0.8-3.7
				l0.4,0.2c0.9,0.5,1.8,1.3,2.3,2.3l0.2,0.4L11.6,10.1z M11.5,29.2c-0.9,0-1.7,0-2.6,0c-1.2,0-2.2,0-3.2,0c-0.2,0-0.4,0.1-0.6,0.3
				C5,29.6,5,29.9,5.1,30c0.1,0.3,0.3,0.4,0.6,0.4c0.4,0,0.8,0,1.3,0l1.4,0v0c0,0,1.8,0,2.1,0c0.4,0,0.8,0,1.2,0
				c0.4,0,0.7-0.2,0.7-0.6c0-0.2-0.1-0.3-0.2-0.4c-0.1-0.1-0.3-0.2-0.5-0.2L11.5,29.2z M5.6,23.4c0.1,0,0.2,0,0.4,0
				c0.1,0,0.2,0,0.3,0c0.1,0,0.2,0,0.3,0h0c0.1,0,0.2,0,0.3,0c0.1,0,0.2,0,0.3,0c0.1,0,0.2,0,0.3,0c0.3,0,0.6-0.3,0.6-0.6
				c0-0.3-0.2-0.6-0.6-0.6c-0.3,0-0.6,0-0.9,0c-0.3,0-0.7,0-1,0c-0.3,0-0.6,0.3-0.6,0.6C5,23.1,5.3,23.4,5.6,23.4z M26.7,8.1
				c-1-1-5.5-5.6-6.2-6.4H1.1c-0.3,0-0.5,0.1-0.7,0.3C0,2.4,0,3.3,0,3.9v0.1c0,4,0,8.2,0.1,12.1c0,4.2,0.1,8.5,0.1,12.8v7.6
				c0,1.3,0.5,1.8,1.7,1.8l6.1,0l5.4,0c-0.1-0.6,0-1.3,0-1.3l-0.4,0c-1.6,0-0.4,0-2,0c-1.6,0-1.6,0-3.2,0H1.5v-34h18.4v5.6
				c0,0.5,0.1,0.6,0.6,0.6l4.1,0c0.1,0,0.1,0,0.2,0c0,0,0,0,0.1,0l0.6,0.1v9.6l1.4,0.2c0-2.2,0.2-6.4,0.2-10.5
				C26.9,8.4,26.9,8.2,26.7,8.1z"/>
		</g>
	</g>
	<g>
		<path class="st0" d="M34,26.5H15.6c-0.3,0-0.6,0.3-0.6,0.6v10.5c0,0.3,0.3,0.6,0.6,0.6H34c0.3,0,0.6-0.3,0.6-0.6V27.2
			C34.6,26.8,34.4,26.5,34,26.5L34,26.5z M33.4,37H16.3v-9.2h17.1V37z M33.4,37"/>
		<path class="st0" d="M19.2,33h1.5c0.3,0,0.6-0.3,0.6-0.6c0-0.3-0.3-0.6-0.6-0.6h-1.5c-0.3,0-0.6,0.3-0.6,0.6
			C18.6,32.7,18.9,33,19.2,33L19.2,33z M19.2,33"/>
		<path class="st0" d="M36.7,23.7H18.3c-0.3,0-0.6,0.3-0.6,0.6c0,0.3,0.3,0.6,0.6,0.6h17.8v9.9c0,0.3,0.3,0.6,0.6,0.6
			c0.3,0,0.6-0.3,0.6-0.6V24.4C37.3,24,37,23.7,36.7,23.7L36.7,23.7z M36.7,23.7"/>
		<path class="st0" d="M39.4,21H21c-0.3,0-0.6,0.3-0.6,0.6c0,0.3,0.3,0.6,0.6,0.6h17.8v9.9c0,0.3,0.3,0.6,0.6,0.6
			c0.3,0,0.6-0.3,0.6-0.6V21.6C40,21.2,39.7,21,39.4,21L39.4,21z M39.4,21"/>
		<path class="st0" d="M28.9,33h1.5c0.3,0,0.6-0.3,0.6-0.6c0-0.3-0.3-0.6-0.6-0.6h-1.5c-0.3,0-0.6,0.3-0.6,0.6
			C28.3,32.7,28.6,33,28.9,33L28.9,33z M28.9,33"/>
		<path class="st0" d="M24.3,33h1c0.2,0,0.4,0.2,0.4,0.4s-0.2,0.4-0.4,0.4h-1.7c-0.3,0-0.6,0.3-0.6,0.6c0,0.3,0.3,0.6,0.6,0.6h0.6
			v0.4c0,0.3,0.3,0.6,0.6,0.6c0.3,0,0.6-0.3,0.6-0.6v-0.4c0.9-0.1,1.6-0.8,1.6-1.7c0-0.9-0.8-1.7-1.7-1.7h-1c-0.2,0-0.4-0.2-0.4-0.4
			c0-0.2,0.2-0.4,0.4-0.4h1.7c0.3,0,0.6-0.3,0.6-0.6c0-0.3-0.3-0.6-0.6-0.6h-0.6v-0.4c0-0.3-0.3-0.6-0.6-0.6c-0.3,0-0.6,0.3-0.6,0.6
			v0.4c-0.9,0.1-1.6,0.8-1.6,1.7C22.7,32.3,23.4,33,24.3,33L24.3,33z M24.3,33"/>
	</g>
</g>
</svg>
