<?xml version="1.0" encoding="utf-8"?>
<!-- Generator: Adobe Illustrator 21.1.0, SVG Export Plug-In . SVG Version: 6.00 Build 0)  -->
<svg version="1.1" id="Layer_1" xmlns="http://www.w3.org/2000/svg" xmlns:xlink="http://www.w3.org/1999/xlink" x="0px" y="0px"
	 viewBox="0 0 40 40" style="enable-background:new 0 0 40 40;" xml:space="preserve">
<style type="text/css">
	.st0{fill:#35C4FF;}
</style>
<g>
	<g>
		<path class="st0" d="M23.7,29.4h-18V5h28.2v4.9c1.2,0,2.4,0,3.6,0c0-1,0-2,0-3c0-1.1-0.4-2-1.2-2.7c-0.5-0.3-0.9-0.5-1.4-0.5
			c-6.3,0-6.6,0-12.9,0c-6.5,0-13,0-19.4,0c-0.2,0-0.4,0-0.6,0.1c-2,0.5-2,2.4-2,4c-0.1,3.3,0,6.6,0,10c0,2.3,0,4.6,0,6.9
			c0,1.9-0.6,4.6,1.3,5.7c1.1,0.7,2.6,0.5,3.8,0.5c1.6,0,3.1,0,4.7,0c3.2,0,6.3,0,9.5,0c-0.6,0-1.1,0-1.7,0c2,0,4.1,0,6.1,0
			C23.7,30.5,23.7,29.5,23.7,29.4z M4.7,19.2c-0.2,0.1-0.5,0.1-0.8,0.1c-0.5,0-1,0-1.5,0c-0.2,0-0.4,0-0.6,0c-0.1,0-0.2-0.1-0.2-0.1
			L1.4,19c-0.1-0.2-0.1-0.5-0.1-0.8c0-0.5,0-1,0-1.4c0-0.2,0-0.5,0.1-0.7c0.1-0.2,0.2-0.3,0.4-0.4c0.2-0.1,0.5-0.1,0.8-0.1
			c0.4,0,0.9,0,1.3,0s0.7,0,1,0.3C5,16,5,16.4,5,16.8s0,1.3,0,1.8C5,18.7,5,19,4.7,19.2z M39.9,14.3c-0.2-0.8-0.6-1.5-1.3-1.9
			C37.9,12,37.1,12,36.3,12c-2.2,0-4.4,0-6.6,0c-1.1,0-2.2,0.1-3,0.8c-0.8,0.8-0.9,2.1-0.9,3.3c0,2,0,3.9,0,5.9s0,3.9,0,5.9
			s0,3.9,0,5.9c0,0.7,0.2,1.4,0.4,1.7c0.3,0.5,0.9,0.9,1.5,1c0.5,0.2,1,0.2,1.6,0.2c2.4,0,4.8,0,7.2,0c0.7,0,1.4,0,2-0.3
			c0.7-0.4,1.2-1.2,1.4-2C40,33.4,40,15.2,39.9,14.3z M32,12.9c0.4,0,1.8,0,2.1,0c0.2,0,0.4,0.1,0.6,0.2c0.2,0.2,0.3,0.4,0.3,0.7
			c0,0.4-0.3,0.8-0.8,0.8c0,0-2,0-2.1,0c-0.5,0-0.9-0.3-1-0.9C31.1,13.3,31.4,12.9,32,12.9z M38.6,30.8H27.4V15.5h11.1L38.6,30.8
			L38.6,30.8z M2.9,17.3c0,0.1,0,0.3,0,0.4c0.1,0,0.2,0,0.3,0s0.1,0,0.2,0c0-0.1,0-0.3,0-0.4c-0.1,0-0.2,0-0.2,0
			C3.1,17.3,3,17.3,2.9,17.3z M34.9,34.2c0,0.3-0.1,0.6-0.3,0.8s-0.6,0.2-0.9,0.2c-0.3,0-0.7,0-1,0s-0.7,0-1-0.1
			c-0.1,0-0.2-0.1-0.3-0.2c-0.1-0.1-0.1-0.1-0.1-0.2c-0.1-0.3-0.1-0.7-0.1-1.1c0-0.3,0-1.3,0-1.4c0-0.1,0-0.3,0-0.4
			c0.1-0.1,0.2-0.2,0.4-0.3c0.1,0,0.3,0,0.5,0c0.6,0,1.1,0,1.7,0c0.3,0,0.6,0,0.9,0.2c0.1,0.1,0.2,0.3,0.2,0.5
			C34.9,32.4,34.9,34.1,34.9,34.2z M32.8,33.4h0.3V33h-0.3V33.4z M8.4,20.9c0.1,0.3,0.4,0.5,0.7,0.5c0.6,0,1.1-0.9,1.4-1.3
			c1.4-2.1,2.5-4.2,3.8-6.3c1-1.6,1.9-3.2,2.9-4.8c0.2-0.3,0.4-0.7,0.4-1.1S17.4,7.1,17,7c-0.5-0.1-0.9,0.4-1.2,0.8
			c-1.4,2.3-5.2,9-5.9,10c-0.3,0.5-0.6,1-0.9,1.5c-0.3,0.4-0.7,1-0.7,1.5C8.4,20.8,8.4,20.8,8.4,20.9z M9.9,14.7
			c0.3-0.5,3.1-5.2,3.6-6.1c0.2-0.3,0.7-0.9,0.4-1.4c-0.2-0.5-1.1-0.5-1.4-0.1c-0.3,0.3-3.5,5.6-3.9,6.2c-0.2,0.3-0.4,0.6-0.4,0.9
			c0,0.4,0.2,0.6,0.5,0.8C9.2,15.3,9.7,15.1,9.9,14.7z"/>
	</g>
</g>
</svg>
