<?xml version="1.0" encoding="utf-8"?>
<!-- Generator: Adobe Illustrator 21.1.0, SVG Export Plug-In . SVG Version: 6.00 Build 0)  -->
<svg version="1.1" id="Layer_1" xmlns="http://www.w3.org/2000/svg" xmlns:xlink="http://www.w3.org/1999/xlink" x="0px" y="0px"
	 viewBox="0 0 40 40" style="enable-background:new 0 0 40 40;" xml:space="preserve">
<style type="text/css">
	.st0{fill:#FFFFFF;}
</style>
<g>
	<g>
		<path class="st0" d="M38.1,10.5c-0.3-0.4-0.8-0.5-1.2-0.2c-0.4,0.3-0.5,0.8-0.2,1.2c1,1.5,1.6,3.3,1.6,5.1c0,1.8-0.5,3.6-1.6,5.1
			c-0.3,0.4-0.2,0.9,0.2,1.2c0.1,0.1,0.3,0.2,0.5,0.2c0.3,0,0.5-0.1,0.7-0.4c1.2-1.8,1.9-3.9,1.9-6.1C40,14.4,39.3,12.3,38.1,10.5z
			 M30.2,11V6.9c0-0.9-0.5-1.8-1.3-2.2c-0.8-0.5-1.7-0.4-2.5,0c-4.1,2.6-8.8,3.9-13.6,3.9H6.6c-1.5,0-2.7,1.2-2.9,2.7H2.4
			c-1.3,0-2.4,1.1-2.4,2.4v5.6c0,1.3,1.1,2.4,2.4,2.4h1.4C3.8,23,4.5,24,5.5,24.4l3.6,10.2c0.2,0.7,0.9,1.1,1.5,1.1h4.7
			c0.5,0,1-0.3,1.3-0.7c0.3-0.5,0.4-1,0.2-1.5l-3.1-8.8c4.5,0.2,8.8,1.5,12.6,3.9c0.4,0.3,0.9,0.4,1.3,0.4c0.4,0,0.8-0.1,1.2-0.3
			c0.8-0.5,1.3-1.3,1.3-2.2v-4.1c2.7-0.3,4.9-2.7,4.9-5.6C35.1,13.7,32.9,11.3,30.2,11z M3.7,20.1H2.4c-0.4,0-0.7-0.3-0.7-0.7v-5.6
			c0-0.4,0.3-0.7,0.7-0.7h1.3V20.1z M15.3,33.9h-4.6l-3.3-9.3H12L15.3,33.9z M28.5,26.3c0,0.4-0.3,0.6-0.4,0.7
			c-0.1,0.1-0.4,0.2-0.8,0c-4.4-2.7-9.4-4.2-14.5-4.2H6.6c-0.7,0-1.2-0.5-1.2-1.2v-10c0-0.7,0.5-1.2,1.2-1.2h5.1v9.1
			c0,0.5,0.4,0.9,0.8,0.9c0.5,0,0.8-0.4,0.8-0.9v-9.1c4.9-0.1,9.7-1.5,13.9-4.2c0.4-0.2,0.7-0.1,0.8,0c0.1,0.1,0.4,0.3,0.4,0.7V26.3
			z M30.2,20.4v-7.6c1.8,0.3,3.2,1.9,3.2,3.8S32,20.2,30.2,20.4z"/>
	</g>
</g>
</svg>
