<?xml version="1.0" encoding="utf-8"?>
<!-- Generator: Adobe Illustrator 21.1.0, SVG Export Plug-In . SVG Version: 6.00 Build 0)  -->
<svg version="1.1" id="Layer_1" xmlns="http://www.w3.org/2000/svg" xmlns:xlink="http://www.w3.org/1999/xlink" x="0px" y="0px"
	 viewBox="0 0 40 40" style="enable-background:new 0 0 40 40;" xml:space="preserve">
<style type="text/css">
	.st0{fill-rule:evenodd;clip-rule:evenodd;fill:#A1A3A7;}
</style>
<g>
	<g>
		<path class="st0" d="M34.1,5.9C30.4,2.2,25.4,0.1,20,0.1c-5.4,0-10.4,2.1-14.1,5.8C2.1,9.7,0,14.7,0,20c0,5.3,2.1,10.3,5.9,14.1
			c3.8,3.8,8.8,5.8,14.1,5.8c0,0,0,0,0,0c5.4,0,10.4-2.1,14.1-5.8C42,26.3,42,13.7,34.1,5.9z M7.3,7.3c3.4-3.4,7.9-5.2,12.7-5.2
			c4.4,0,8.5,1.5,11.7,4.3L6.4,31.7C3.6,28.5,2,24.4,2,20C2,15.2,3.9,10.7,7.3,7.3z M32.7,32.7c-3.4,3.4-7.9,5.2-12.7,5.2
			c-4.5,0-8.8-1.7-12.1-4.7L33.2,7.9C39.7,14.9,39.6,25.9,32.7,32.7z"/>
	</g>
</g>
</svg>
