<?xml version="1.0" encoding="utf-8"?>
<!-- Generator: Adobe Illustrator 21.1.0, SVG Export Plug-In . SVG Version: 6.00 Build 0)  -->
<svg version="1.1" id="Layer_1" xmlns="http://www.w3.org/2000/svg" xmlns:xlink="http://www.w3.org/1999/xlink" x="0px" y="0px"
	 viewBox="0 0 40 40" style="enable-background:new 0 0 40 40;" xml:space="preserve">
<style type="text/css">
	.st0{fill:#F15E6E;}
</style>
<g>
	<path class="st0" d="M34.1,5.9C30.4,2.1,25.4,0,20,0C14.6,0,9.6,2.1,5.9,5.9C2.1,9.6,0,14.7,0,20c0,5.3,2.1,10.4,5.9,14.1
		C9.6,37.9,14.6,40,20,40c0,0,0,0,0,0c5.4,0,10.4-2.1,14.1-5.8C42,26.3,42,13.7,34.1,5.9z M32.7,32.7C29.3,36.1,24.8,38,20,38
		c-4.8,0-9.3-1.9-12.7-5.3C3.9,29.3,2,24.8,2,20c0-4.8,1.9-9.3,5.3-12.7C10.7,3.9,15.2,2,20,2c4.8,0,9.3,1.9,12.7,5.3
		C39.8,14.3,39.8,25.7,32.7,32.7z"/>
	<path class="st0" d="M20,23.5L20,23.5c-0.5,0-0.8,0.4-0.8,0.9v0c0,0.5,0.4,0.9,0.8,0.9c0,0,0,0,0,0c0.5,0,0.8-0.4,0.8-0.9
		C20.8,23.9,20.5,23.5,20,23.5z"/>
	<path class="st0" d="M19.4,22.3c0,0.3,0.3,0.5,0.6,0.5c0.3,0,0.6-0.1,0.6-0.5c0-1.3,0.2-3.2,0.2-4.6c0-0.4-0.4-0.7-0.8-0.7
		c-0.4,0-0.8,0.2-0.8,0.7C19.2,19,19.4,20.9,19.4,22.3L19.4,22.3z"/>
	<path class="st0" d="M21.4,12.9c-0.3-0.5-0.8-0.8-1.4-0.8c-0.6,0-1.1,0.3-1.4,0.8l-7.4,12.6c-0.3,0.5-0.3,1.2,0,1.7
		c0.3,0.5,0.8,0.8,1.4,0.8h14.8c0.6,0,1.1-0.3,1.4-0.8c0.3-0.5,0.3-1.2,0-1.7L21.4,12.9z M27.8,26.5c-0.1,0.1-0.2,0.2-0.4,0.2
		c0,0,0,0,0,0H12.6c-0.2,0-0.3-0.1-0.4-0.2c-0.1-0.1-0.1-0.3,0-0.5l7.4-12.6c0.1-0.1,0.2-0.2,0.4-0.2c0,0,0,0,0,0c0,0,0,0,0,0
		c0.2,0,0.3,0.1,0.4,0.2L27.8,26C27.9,26.2,27.9,26.4,27.8,26.5z"/>
</g>
</svg>
