<?xml version="1.0" encoding="utf-8"?>
<!-- Generator: Adobe Illustrator 21.1.0, SVG Export Plug-In . SVG Version: 6.00 Build 0)  -->
<svg version="1.1" id="Layer_1" xmlns="http://www.w3.org/2000/svg" xmlns:xlink="http://www.w3.org/1999/xlink" x="0px" y="0px"
	 viewBox="0 0 40 40" style="enable-background:new 0 0 40 40;" xml:space="preserve">
<style type="text/css">
	.st0{fill:#A1A3A7;}
</style>
<path class="st0" d="M20,40c-5.4,0-10.4-2.1-14.1-5.8C2.1,30.4,0,25.3,0,20C0,14.7,2.1,9.6,5.9,5.9C9.6,2.1,14.6,0,20,0
	c5.4,0,10.4,2.1,14.2,5.8c7.8,7.8,7.8,20.5,0,28.2C30.4,37.9,25.4,40,20,40C20,40,20,40,20,40z M20,2c-4.8,0-9.3,1.9-12.7,5.3
	C3.9,10.7,2,15.2,2,20c0,4.8,1.9,9.3,5.3,12.7C10.7,36.1,15.2,38,20,38c4.8,0,9.3-1.9,12.7-5.3c7-7,7-18.4,0-25.4
	C29.3,3.9,24.8,2,20,2z"/>
</svg>
