<?xml version="1.0" encoding="utf-8"?>
<!-- Generator: Adobe Illustrator 21.1.0, SVG Export Plug-In . SVG Version: 6.00 Build 0)  -->
<svg version="1.1" id="Layer_1" xmlns="http://www.w3.org/2000/svg" xmlns:xlink="http://www.w3.org/1999/xlink" x="0px" y="0px"
	 viewBox="0 0 40 40" style="enable-background:new 0 0 40 40;" xml:space="preserve">
<style type="text/css">
	.st0{fill-rule:evenodd;clip-rule:evenodd;fill:#FDB627;}
</style>
<g>
	<g>
		<path class="st0" d="M14.8,16.6c1.2,0,2.1-0.9,2.1-2.1c0-1.2-0.9-2.1-2.1-2.1c-1.2,0-2.1,0.9-2.1,2.1
			C12.7,15.7,13.6,16.6,14.8,16.6z M25.6,16.6c1.2,0,2.1-0.9,2.1-2.1c0-1.2-0.9-2.1-2.1-2.1c-1.2,0-2.1,0.9-2.1,2.1
			C23.5,15.7,24.4,16.6,25.6,16.6z M34.1,5.9C30.4,2.1,25.4,0,20,0C14.6,0,9.6,2.1,5.9,5.9C2.1,9.6,0,14.7,0,20
			c0,5.3,2.1,10.4,5.9,14.1C9.6,37.9,14.6,40,20,40c0,0,0,0,0,0c5.4,0,10.4-2.1,14.1-5.8C42,26.3,42,13.7,34.1,5.9z M32.7,32.7
			C29.3,36.1,24.8,38,20,38c-4.8,0-9.3-1.9-12.7-5.3C3.9,29.3,2,24.8,2,20c0-4.8,1.9-9.3,5.3-12.7C10.7,3.9,15.2,2,20,2
			c4.8,0,9.3,1.9,12.7,5.3C39.8,14.3,39.8,25.7,32.7,32.7z M27.7,26.6H13c-0.5,0-1,0.4-1,1v0c0,0.5,0.4,1,1,1h14.7c0.5,0,1-0.4,1-1
			v0C28.7,27.1,28.2,26.6,27.7,26.6z"/>
	</g>
</g>
</svg>
