<?xml version="1.0" encoding="UTF-8"?><svg version="1.1" viewBox="0 0 40 40" xmlns="http://www.w3.org/2000/svg" xmlns:xlink="http://www.w3.org/1999/xlink"><!--Generated by IJSVG (https://github.com/curthard89/IJSVG)--><g fill="#5BD1F5"><path d="M12.8,40c-0.8,-0.1 -1.6,-0.2 -2.5,-0.4c-4.9,-1.1 -8.7,-4.9 -9.7,-9.9c-0.6,-2.8 -0.2,-5.7 1.2,-8.1c3.7,-7 7.4,-14 11,-21c0.2,-0.4 0.5,-0.6 0.9,-0.6c0.4,0 0.7,0.2 0.8,0.6c3.7,7 7.4,14 11.1,21.1c3.2,6.1 0.8,13.6 -5.3,16.7c-1.7,0.9 -3.5,1.4 -5.4,1.6c-0.1,0 -0.2,0 -0.3,0.1c-0.6,-0.1 -1.2,-0.1 -1.8,-0.1Zm0.7,-37.1c-3.4,6.5 -6.8,13 -10.2,19.5c-0.7,1.2 -1.1,2.5 -1.2,3.9c-0.4,3.9 1.4,7.7 4.7,9.9c2.7,1.9 6,2.6 9.3,1.9c6,-0.9 10.1,-6.4 9.2,-12.4c-0.2,-1.3 -0.6,-2.5 -1.2,-3.6c-3.5,-6.3 -6.8,-12.7 -10.1,-19.1c-0.1,-0.1 -0.1,-0.3 -0.2,-0.4c-0.2,0.1 -0.2,0.2 -0.3,0.3Zm-6.1,31.9c-0.4,-0.3 -0.4,-0.9 -0.1,-1.2l0.1,-0.1c1.9,-2.4 3.7,-4.8 5.6,-7.2c1.9,-2.4 3.8,-4.9 5.7,-7.3c0.1,-0.2 0.3,-0.3 0.4,-0.5c0.2,-0.2 0.6,-0.3 0.9,-0.1c0.2,0.2 0.4,0.4 0.5,0.7c-0.1,0.2 -0.2,0.5 -0.4,0.7c-3.8,4.9 -7.7,9.9 -11.5,14.8c-0.2,0.2 -0.4,0.4 -0.7,0.4c-0.2,7.10543e-15 -0.4,-0.1 -0.5,-0.2Zm6.3,-3.1c0,-1.8 1.5,-3.3 3.3,-3.3c1.8,0 3.3,1.5 3.3,3.3v0c0,1.8 -1.5,3.3 -3.3,3.3v0c-1.8,0 -3.3,-1.5 -3.3,-3.3v0Zm1.7,-0.1c0,0.9 0.7,1.7 1.7,1.7c0.9,0 1.7,-0.7 1.7,-1.7c0,-0.9 -0.7,-1.7 -1.7,-1.7v0c-1,0.1 -1.7,0.8 -1.7,1.7v0Zm-8.3,-10c0,-1.8 1.5,-3.3 3.3,-3.3c1.8,0 3.3,1.5 3.3,3.3c0,1.8 -1.5,3.3 -3.3,3.3c-1.9,0.1 -3.3,-1.4 -3.3,-3.3v0Zm1.6,0c0,0.9 0.7,1.6 1.6,1.7v0c0.9,0 1.7,-0.7 1.7,-1.6v0c0,-0.9 -0.7,-1.7 -1.6,-1.7v0c-0.9,0 -1.7,0.7 -1.7,1.6v0Z" transform="translate(6.3, 0)"></path></g></svg>