<?xml version="1.0" encoding="UTF-8"?><svg version="1.1" viewBox="0 0 40 40" xmlns="http://www.w3.org/2000/svg" xmlns:xlink="http://www.w3.org/1999/xlink"><!--Generated by IJSVG (https://github.com/curthard89/IJSVG)--><g transform="translate(13037.6, -6)"><g fill="#5BD1F5"><path d="M8.8,27.9c-0.6,-0.1 -1.1,-0.2 -1.7,-0.3c-3.6,-1 -5.9,-3.2 -6.7,-6.9c-0.4,-1.9 -0.1,-3.9 0.8,-5.7c2.6,-4.9 5.1,-9.7 7.7,-14.6c0.1,-0.2 0.3,-0.4 0.6,-0.4c0.3,0 0.5,0.2 0.6,0.4c2.6,4.9 5.2,9.8 7.7,14.7c2.2,4.2 0.6,9.4 -3.7,11.6v0c-1.2,0.6 -2.4,1 -3.8,1.1c-0.1,0 -0.1,0 -0.2,0c-0.5,0.1 -0.9,0.1 -1.3,0.1Zm0.5,-25.9c-2.4,4.5 -4.8,9 -7.1,13.6c-0.5,0.8 -0.7,1.8 -0.8,2.7c-0.3,2.7 1,5.4 3.3,6.9c1.9,1.3 4.2,1.8 6.4,1.3c4.2,-0.6 7,-4.5 6.4,-8.6c-0.1,-0.9 -0.4,-1.7 -0.8,-2.5c-2.4,-4.4 -4.7,-8.9 -7,-13.3c0,-0.1 -0.1,-0.2 -0.2,-0.3c-0.1,0.1 -0.2,0.2 -0.2,0.2Zm-4.3,22.3c-0.3,-0.2 -0.3,-0.6 -0.1,-0.9c0,0 0,0 0.1,-0.1c1.3,-1.7 2.6,-3.3 3.9,-5c1.3,-1.7 2.6,-3.4 4,-5.1c0.1,-0.1 0.2,-0.2 0.3,-0.3c0.2,-0.2 0.4,-0.2 0.6,0c0.1,0.1 0.3,0.3 0.4,0.5c-0.1,0.2 -0.2,0.3 -0.2,0.5c-2.7,3.4 -5.3,6.9 -8,10.3c-0.1,0.2 -0.3,0.3 -0.5,0.3c-0.3,-0.1 -0.4,-0.2 -0.5,-0.2Zm4.4,-2.2c0,-1.3 1,-2.3 2.3,-2.3c1.3,0 2.3,1 2.3,2.3c0,1.3 -1,2.3 -2.3,2.3v0c-1.2,0 -2.2,-1.1 -2.3,-2.3v0Zm1.2,-0.1c0,0.6 0.5,1.2 1.2,1.2c0.6,0 1.2,-0.5 1.2,-1.2c0,-0.6 -0.5,-1.2 -1.2,-1.2v0c-0.7,0.1 -1.2,0.6 -1.2,1.2v0Zm-5.8,-6.9c0,-1.3 1,-2.3 2.3,-2.3c1.3,0 2.3,1 2.3,2.3c0,1.3 -1,2.3 -2.3,2.3c-1.3,0 -2.3,-1 -2.3,-2.3v0Zm1.2,0c0,0.6 0.5,1.1 1.1,1.2v0c0.6,0 1.2,-0.5 1.2,-1.1c0,-0.6 -0.5,-1.2 -1.1,-1.2v0c-0.7,-0.1 -1.2,0.4 -1.2,1.1v0Z" transform="translate(-13037.7, 17.9)"></path><path d="M0,13v-0.7l2.7,-3.8v0h-2.4v-1.1h4v0.7l-2.6,3.8v0h2.6v1h-4.3v0.1Zm17.7,-0.8v-1.5l5.8,-8.3v-0.1h-5.2v-2.3h8.8v1.6l-5.7,8.2v0.1h5.7v2.3h-9.4Zm-9.7,-0.9v-0.9l3.6,-5.2v0h-3.3v-1.5h5.5v1l-3.5,5.1v0h3.6v1.4l-5.9,0.1Z" transform="translate(-13024.7, 6.2)"></path></g></g></svg>