<?xml version="1.0" encoding="utf-8"?>
<!-- Generator: Adobe Illustrator 22.0.1, SVG Export Plug-In . SVG Version: 6.00 Build 0)  -->
<svg version="1.1" id="Layer_1" xmlns="http://www.w3.org/2000/svg" xmlns:xlink="http://www.w3.org/1999/xlink" x="0px" y="0px"
	 viewBox="0 0 113.4 113.4" style="enable-background:new 0 0 113.4 113.4;" xml:space="preserve">
<style type="text/css">
	.st0{fill:#828282;}
</style>
<g>
	<path class="st0" d="M56.7,0C25.4,0,0,25.4,0,56.7s25.4,56.7,56.7,56.7s56.7-25.4,56.7-56.7S88,0,56.7,0L56.7,0z M56.7,103.1
		c-25.6,0-46.4-20.8-46.4-46.4s20.8-46.4,46.4-46.4s46.4,20.8,46.4,46.4S82.3,103.1,56.7,103.1L56.7,103.1z M56.7,103.1"/>
	<path class="st0" d="M56.7,24.1c-3.8,0-6.9,3.1-6.9,6.9c0,3.8,3.1,6.9,6.9,6.9c3.8,0,6.9-3.1,6.9-6.9
		C63.6,27.1,60.5,24.1,56.7,24.1L56.7,24.1z M56.7,24.1"/>
	<path class="st0" d="M56.7,48.1c-2.8,0-5.2,2.3-5.2,5.2v30.9c0,2.8,2.3,5.2,5.2,5.2c2.8,0,5.2-2.3,5.2-5.2V53.3
		C61.8,50.4,59.5,48.1,56.7,48.1L56.7,48.1z M56.7,48.1"/>
</g>
</svg>
