<?xml version="1.0" encoding="UTF-8"?><svg version="1.1" viewBox="0 0 40 40" xmlns="http://www.w3.org/2000/svg" xmlns:xlink="http://www.w3.org/1999/xlink"><!--Generated by IJSVG (https://github.com/curthard89/IJSVG)--><g transform="translate(12994.1, -6)"><g fill="#FDAB6E"><path d="M10.3,21.2v-3c0,-0.3 0.3,-0.6 0.6,-0.6c0.3,0 0.6,0.3 0.6,0.6v0v3c0,0.3 -0.3,0.6 -0.6,0.6c-0.3,0 -0.6,-0.3 -0.6,-0.6Zm7.5,-2.6l-2.1,-2.1c-0.2,-0.2 -0.2,-0.6 0,-0.8c0.2,-0.2 0.6,-0.2 0.8,0l2.1,2.1c0.2,0.2 0.2,0.6 0,0.8c-0.1,0.1 -0.3,0.2 -0.4,0.2c-0.2,0 -0.3,-0.1 -0.4,-0.2Zm-14.6,0c-0.2,-0.2 -0.2,-0.6 0,-0.8l2.1,-2.1c0.2,-0.2 0.6,-0.2 0.8,0v0c0.2,0.2 0.2,0.6 0,0.8l-2.1,2.1c-0.1,0.1 -0.3,0.2 -0.4,0.2c-0.2,0 -0.3,-0.1 -0.4,-0.2Zm2.1,-7.7c0,-3.1 2.5,-5.6 5.6,-5.6c3.1,0 5.6,2.5 5.6,5.6c0,3.1 -2.5,5.6 -5.6,5.6c-3.1,0 -5.6,-2.5 -5.6,-5.6v0Zm1.2,0c0,2.4 2,4.4 4.4,4.4c2.4,0 4.4,-2 4.4,-4.4c0,-2.4 -2,-4.4 -4.4,-4.4c-2.5,-3.55271e-15 -4.4,2 -4.4,4.4v0Zm11.7,0.6c-0.3,0 -0.6,-0.3 -0.6,-0.6c0,-0.3 0.3,-0.6 0.6,-0.6h3c0.3,0 0.6,0.3 0.6,0.6c0,0.3 -0.3,0.6 -0.6,0.6h-3Zm-17.6,0c-0.3,0 -0.6,-0.3 -0.6,-0.6c0,-0.3 0.3,-0.6 0.6,-0.6h3c0.3,0 0.6,0.3 0.6,0.6c0,0.3 -0.3,0.6 -0.6,0.6h-3Zm15,-5.3c-0.2,-0.2 -0.2,-0.6 0,-0.8l2.1,-2.1c0.2,-0.2 0.6,-0.2 0.8,0c0.2,0.2 0.2,0.6 0,0.8l-2.1,2.1c-0.1,0.1 -0.3,0.2 -0.4,0.2c-0.1,3.55271e-15 -0.3,-0.1 -0.4,-0.2v0Zm-10.3,0l-2.1,-2.1c-0.2,-0.2 -0.2,-0.6 0,-0.8c0.2,-0.2 0.6,-0.2 0.8,0l2.1,2.1c0.2,0.2 0.2,0.6 0,0.8c-0.1,0.1 -0.3,0.2 -0.4,0.2c-0.1,3.55271e-15 -0.3,-0.1 -0.4,-0.2v0Zm5,-2.6v-3c0,-0.3 0.3,-0.6 0.6,-0.6c0.3,0 0.6,0.3 0.6,0.6v3c0,0.3 -0.3,0.6 -0.6,0.6c-0.3,0 -0.6,-0.2 -0.6,-0.6v0v0Z" transform="translate(-12994.1, 19.7)"></path><path d="M0,10.2v-0.5l2.1,-3v0h-1.9v-0.8h3.2v0.6l-2,3v0h2.1v0.8h-3.5l-1.81899e-12,-0.1v0Zm13.8,-0.6v-1.2l4.5,-6.5v-0.1h-4.1v-1.8h6.9v1.2l-4.4,6.4v0.1h4.5v1.9h-7.4Zm-7.5,-0.7v-0.7l2.8,-4.1v0h-2.6v-1.1h4.3v0.8l-2.8,4v0h2.8v1.1l-4.5,-3.55271e-15Z" transform="translate(-12975.3, 10.4)"></path></g></g></svg>