<?xml version="1.0" encoding="UTF-8"?><svg version="1.1" viewBox="0 0 40 40" xmlns="http://www.w3.org/2000/svg" xmlns:xlink="http://www.w3.org/1999/xlink"><!--Generated by IJSVG (https://github.com/curthard89/IJSVG)--><path fill="#FDAB6E" d="M18.9,38.9v-5.6c0,-0.6 0.5,-1.1 1.1,-1.1c0.6,0 1.1,0.5 1.1,1.1v0v5.6c0,0.6 -0.5,1.1 -1.1,1.1c-0.6,0 -1.1,-0.5 -1.1,-1.1Zm13.7,-4.8l-3.9,-3.9c-0.4,-0.4 -0.4,-1.1 0,-1.5c0.4,-0.4 1.1,-0.4 1.5,0l3.9,3.9c0.4,0.4 0.4,1.1 0,1.5c-0.2,0.2 -0.5,0.3 -0.8,0.3c-0.2,0.1 -0.5,-0.1 -0.7,-0.3v0Zm-26.7,0c-0.4,-0.4 -0.4,-1.1 1.77636e-15,-1.5l3.9,-3.9c0.4,-0.4 1.1,-0.4 1.5,0v0c0.4,0.4 0.4,1.1 0,1.5l-3.9,3.9c-0.2,0.2 -0.5,0.3 -0.8,0.3c-0.3,0 -0.5,-0.1 -0.7,-0.3v0Zm3.8,-14.1c0,-5.7 4.6,-10.3 10.3,-10.3c5.7,0 10.3,4.6 10.3,10.3c0,5.7 -4.6,10.3 -10.3,10.3c-5.7,0 -10.2,-4.6 -10.3,-10.3v0Zm2.2,0c0,4.5 3.6,8.1 8.1,8.1c4.5,0 8.1,-3.6 8.1,-8.1c0,-4.5 -3.6,-8.1 -8.1,-8.1c-4.5,0 -8.1,3.6 -8.1,8.1v0Zm21.5,1.1c-0.6,0 -1.1,-0.5 -1.1,-1.1c0,-0.6 0.5,-1.1 1.1,-1.1h5.6c0.6,0 1.1,0.5 1.1,1.1c0,0.6 -0.5,1.1 -1.1,1.1h-5.6Zm-32.3,0c-0.6,0 -1.1,-0.5 -1.1,-1.1c0,-0.6 0.5,-1.1 1.1,-1.1h5.6c0.6,0 1.1,0.5 1.1,1.1c0,0.6 -0.5,1.1 -1.1,1.1h-5.6Zm27.6,-9.8c-0.4,-0.4 -0.4,-1.1 0,-1.5l3.9,-3.9c0.4,-0.4 1.1,-0.4 1.5,0c0.4,0.4 0.4,1.1 0,1.5l-3.9,3.9c-0.2,0.2 -0.5,0.3 -0.8,0.3c-0.2,-1.77636e-15 -0.5,-0.1 -0.7,-0.3v0Zm-18.9,0l-3.9,-3.9c-0.4,-0.4 -0.4,-1.1 0,-1.5c0.4,-0.4 1.1,-0.4 1.5,0l3.9,3.9c0.4,0.4 0.4,1.1 0,1.5c-0.2,0.2 -0.5,0.3 -0.8,0.3c-0.2,-1.77636e-15 -0.5,-0.1 -0.7,-0.3v0Zm9.1,-4.7v-5.5c0,-0.6 0.5,-1.1 1.1,-1.1c0.6,0 1.1,0.5 1.1,1.1v5.6c0,0.6 -0.5,1.1 -1.1,1.1c-0.6,-0.1 -1.1,-0.6 -1.1,-1.2v0Z"></path></svg>