<?xml version="1.0" encoding="UTF-8"?><svg version="1.1" viewBox="0 0 40 40" xmlns="http://www.w3.org/2000/svg" xmlns:xlink="http://www.w3.org/1999/xlink"><!--Generated by IJSVG (https://github.com/curthard89/IJSVG)--><g transform="translate(13080.5, -6)"><g fill="#CB86C9"><path d="M2.9,24.5v-0.8h2.2v-0.9c0,-0.5 0.4,-0.9 0.9,-0.9h1.9v-3.6c-4.5,-0.7 -7.9,-4.6 -7.8,-9.1c0,-5.1 4.1,-9.2 9.2,-9.2c5.1,0 9.2,4.1 9.2,9.2c0,4.6 -3.3,8.4 -7.8,9.1v3.7h1.9c0.5,0 0.9,0.4 0.9,0.9v0.9h2.2v0.8h-12.8l-3.63798e-12,-0.1v0Zm2.9,-1.7v0.9h6.8v-0.9c0,-0.1 -0.1,-0.1 -0.1,-0.1v0h-6.6c-0.1,0 -0.1,0 -0.1,0.1v0v0Zm-5.1,-13.7c0,4.3 3.2,7.9 7.5,8.4h0.3v4.3h1.3v-4.3h0.3c4.3,-0.5 7.5,-4.1 7.5,-8.4c0,-4.7 -3.8,-8.5 -8.5,-8.5c-4.6,0.1 -8.4,3.9 -8.4,8.5v0Zm1.3,0c0,-4 3.2,-7.2 7.2,-7.2c4,0 7.2,3.2 7.2,7.2c0,4 -3.2,7.2 -7.2,7.2c-4,0.1 -7.2,-3.2 -7.2,-7.2v0Zm7.2,6.5c3.4,0 6.2,-2.7 6.4,-6.1h-1.6v-0.8h1.6c-0.1,-1.3 -0.6,-2.6 -1.4,-3.6l-1,1l-0.5,-0.5l1,-1c-1.1,-1.1 -2.6,-1.8 -4.2,-1.9v1.6h-0.3l1.9,7l-0.6,2h-2.6l-0.6,-2l1.9,-7h-0.3v-1.6c-1.6,0.1 -3.1,0.8 -4.2,1.9l1,1l-0.5,0.5l-1,-1c-0.8,1 -1.3,2.3 -1.4,3.6h1.6v0.8h-1.6c0.1,3.4 3,6.1 6.4,6.1v0Zm-1.1,-4.3l0.4,1.3h1.5l0.4,-1.3l-1.1,-4.2l-1.2,4.2Z" transform="translate(-13080.4, 18.7)"></path><path d="M0,11.5v-0.6l2.3,-3.4v0h-2.1v-0.9h3.6v0.6l-2.3,3.3v0h2.3v0.9h-3.8v0.1Zm15.6,-0.7v-1.3l5.1,-7.4v-0.1h-4.6v-2h7.8v1.4l-5,7.3v0.1h5.1v2h-8.4Zm-8.5,-0.8v-0.8l3.2,-4.6v0h-2.9v-1.2h4.9v0.8l-3.1,4.5v0h3.2v1.2l-5.3,0.1Z" transform="translate(-13064.4, 8.8)"></path></g></g></svg>