<?xml version="1.0" encoding="UTF-8"?><svg version="1.1" viewBox="0 0 40 40" xmlns="http://www.w3.org/2000/svg" xmlns:xlink="http://www.w3.org/1999/xlink"><!--Generated by IJSVG (https://github.com/curthard89/IJSVG)--><g transform="translate(15091, 1480)"><g fill="#CB86C9"><path d="M11.7,0c-6.5,0 -11.7,5.3 -11.7,11.7c0,6.4 5.3,11.7 11.7,11.7c6.4,0 11.7,-5.3 11.7,-11.7c0,-6.4 -5.2,-11.7 -11.7,-11.7Zm1.8,15.2l-0.6,2.1h-2.4l-0.6,-2.1l1.8,-6.9l1.8,6.9Zm-1.8,7.1c-5.6,0 -10.2,-4.3 -10.5,-9.9h2.7v-1.2h-2.7c0.1,-2.2 0.9,-4.2 2.3,-5.9l1.6,1.6l0.9,-0.9l-1.6,-1.7c1.8,-1.8 4.2,-2.9 6.8,-3v2.7h0.5l-3,11.3l1,3.3h4.2l1,-3.3l-3,-11.3h0.5v-2.7c2.6,0.2 5,1.2 6.8,3l-1.7,1.7l0.9,0.9l1.6,-1.6c1.4,1.7 2.1,3.8 2.3,5.9h-2.7v1.2h2.7c-0.4,5.5 -5,9.9 -10.6,9.9Z" transform="translate(-15082.7, -1476.7)"></path><path d="M30.1,15.1c0,-8.3 -6.7,-15.1 -15,-15.1c-8.3,0 -15.1,6.7 -15.1,15c0,7.4 5.4,13.8 12.8,14.9v5.9h-3.1c-0.8,0 -1.4,0.6 -1.4,1.4v1.4h-3.5v1.2h20.6v-1.2h-3.5v-1.4c0,-0.8 -0.6,-1.4 -1.4,-1.4h-3.1v-5.9c7.3,-1.1 12.7,-7.4 12.7,-14.8Zm-9.6,22c0.1,0 0.2,0.1 0.2,0.2v0v1.4h-11.1v-1.4c0,-0.1 0.1,-0.2 0.2,-0.2v0h10.7Zm-3.8,-8.3l-0.5,0.1v7h-2.1v-7l-0.5,-0.1c-7.6,-0.9 -13,-7.7 -12.1,-15.3c0.9,-7.6 7.7,-13 15.3,-12.1c7.6,0.9 13,7.7 12.1,15.3c-0.8,6.3 -5.8,11.3 -12.2,12.1v0Z" transform="translate(-15086.1, -1480)"></path></g></g></svg>