<?xml version="1.0" encoding="utf-8"?>
<!-- Generator: Adobe Illustrator 21.1.0, SVG Export Plug-In . SVG Version: 6.00 Build 0)  -->
<svg version="1.1" id="Layer_1" xmlns="http://www.w3.org/2000/svg" xmlns:xlink="http://www.w3.org/1999/xlink" x="0px" y="0px"
	 viewBox="0 0 40 40" style="enable-background:new 0 0 40 40;" xml:space="preserve">
<style type="text/css">
	.st0{fill:#F15B6A;}
</style>
<g>
	<g>
		<path class="st0" d="M38,15.8l-2.8-0.5c-0.3-0.9-0.7-1.9-1.1-2.7l1.7-2.3c0.7-1,0.6-2.3-0.3-3.2l-2.5-2.5
			c-0.5-0.5-1.1-0.7-1.7-0.7c-0.5,0-1,0.2-1.4,0.5L27.4,6c-0.9-0.5-1.8-0.9-2.8-1.2l-0.5-2.8C23.9,0.9,22.9,0,21.7,0h-3.5
			c-1.2,0-2.2,0.9-2.4,2.1l-0.5,2.8c-0.9,0.3-1.8,0.7-2.7,1.1l-2.3-1.7C9.8,4.1,9.3,3.9,8.8,3.9C8.1,3.9,7.5,4.2,7,4.7L4.5,7.2
			c-0.9,0.9-1,2.2-0.3,3.2l1.7,2.3c-0.5,0.9-0.8,1.8-1.1,2.7l-2.8,0.5C0.9,16.1,0,17.1,0,18.3v3.5c0,1.2,0.9,2.2,2.1,2.4l2.8,0.5
			c0.3,0.9,0.7,1.8,1.1,2.7l-1.6,2.3c-0.7,1-0.6,2.3,0.3,3.2l2.5,2.5c0.5,0.5,1.1,0.7,1.7,0.7c0.5,0,1-0.2,1.4-0.5l2.3-1.7
			c0.8,0.4,1.7,0.8,2.6,1.1l0.5,2.8C16,39.1,17,40,18.2,40h3.5c1.2,0,2.2-0.9,2.4-2.1l0.5-2.8c0.9-0.3,1.9-0.7,2.7-1.1l2.3,1.7
			c0.4,0.3,0.9,0.5,1.4,0.5c0.7,0,1.3-0.3,1.7-0.7l2.5-2.5c0.9-0.9,1-2.2,0.3-3.2L34,27.4c0.5-0.9,0.8-1.8,1.1-2.7l2.8-0.5
			C39.1,24,40,23,40,21.8v-3.5C40,17,39.1,16,38,15.8z M37.8,21.8L37.8,21.8c0,0.1-0.1,0.2-0.2,0.2l-3.5,0.6
			c-0.4,0.1-0.8,0.4-0.9,0.8c-0.3,1.2-0.8,2.4-1.5,3.5c-0.2,0.4-0.2,0.9,0.1,1.2l2.1,2.9c0.1,0.1,0.1,0.2,0,0.3l-2.5,2.5
			c-0.1,0.1-0.1,0.1-0.2,0.1c-0.1,0-0.1,0-0.1,0l-2.9-2.1c-0.4-0.3-0.8-0.3-1.2,0c-1.1,0.7-2.3,1.1-3.5,1.5
			c-0.4,0.1-0.8,0.5-0.8,0.9L22,37.6c0,0.1-0.1,0.2-0.2,0.2h-3.5c-0.1,0-0.2-0.1-0.2-0.2l-0.6-3.5c-0.1-0.4-0.4-0.8-0.8-0.9
			c-1.2-0.3-2.3-0.8-3.4-1.4c-0.2-0.1-0.4-0.2-0.6-0.2c-0.2,0-0.5,0.1-0.7,0.2L9,33.9c0,0-0.1,0-0.1,0c0,0-0.1,0-0.2-0.1l-2.5-2.5
			c-0.1-0.1-0.1-0.2,0-0.3l2.1-2.9c0.3-0.4,0.3-0.9,0.1-1.2c-0.7-1.1-1.2-2.3-1.5-3.5c-0.1-0.4-0.5-0.8-0.9-0.8l-3.5-0.6
			c-0.1,0-0.2-0.1-0.2-0.2v-3.5c0-0.1,0.1-0.2,0.2-0.2l3.5-0.6c0.4-0.1,0.8-0.4,0.9-0.8c0.3-1.2,0.8-2.4,1.4-3.5
			c0.2-0.4,0.2-0.9-0.1-1.2L6.1,9c-0.1-0.1-0.1-0.2,0-0.3l2.5-2.5c0.1-0.1,0.1-0.1,0.2-0.1c0.1,0,0.1,0,0.1,0l2.9,2.1
			c0.4,0.3,0.9,0.3,1.2,0.1c1.1-0.7,2.3-1.2,3.5-1.5C17,6.8,17.3,6.4,17.4,6L18,2.4c0-0.1,0.1-0.2,0.2-0.2h3.5
			c0.1,0,0.2,0.1,0.2,0.2l0.6,3.5c0.1,0.4,0.4,0.8,0.8,0.9c1.3,0.3,2.5,0.8,3.6,1.5c0.4,0.2,0.9,0.2,1.2-0.1L31,6.2c0,0,0.1,0,0.1,0
			c0,0,0.1,0,0.2,0.1l2.5,2.5c0.1,0.1,0.1,0.2,0,0.3l-2.1,2.9c-0.3,0.4-0.3,0.8-0.1,1.2c0.7,1.1,1.1,2.3,1.5,3.5
			c0.1,0.4,0.5,0.8,0.9,0.8l3.5,0.6c0.1,0,0.2,0.1,0.2,0.2V21.8z M20,11.4c-4.8,0-8.6,3.9-8.6,8.6c0,4.8,3.9,8.6,8.6,8.6
			c4.8,0,8.6-3.9,8.6-8.6C28.6,15.2,24.8,11.4,20,11.4z M20,26.4c-3.5,0-6.4-2.9-6.4-6.4c0-3.5,2.9-6.4,6.4-6.4
			c3.5,0,6.4,2.9,6.4,6.4C26.4,23.5,23.5,26.4,20,26.4z"/>
	</g>
</g>
</svg>
