<?xml version="1.0" encoding="utf-8"?>
<!-- Generator: Adobe Illustrator 21.1.0, SVG Export Plug-In . SVG Version: 6.00 Build 0)  -->
<svg version="1.1" id="Layer_1" xmlns="http://www.w3.org/2000/svg" xmlns:xlink="http://www.w3.org/1999/xlink" x="0px" y="0px"
	 viewBox="0 0 40 40" style="enable-background:new 0 0 40 40;" xml:space="preserve">
<style type="text/css">
	.st0{fill:#5BBE87;}
</style>
<path class="st0" d="M20,39.9c-5.4,0-10.4-2.1-14.1-5.8C2.1,30.3,0,25.3,0,20C0,14.7,2.1,9.7,5.9,5.9C9.6,2.2,14.6,0.1,20,0.1
	c5.4,0,10.4,2.1,14.2,5.8c7.8,7.8,7.8,20.4,0,28.2C30.4,37.8,25.4,39.9,20,39.9C20,39.9,20,39.9,20,39.9z M20,2.1
	c-4.8,0-9.3,1.9-12.7,5.2C3.9,10.7,2,15.2,2,20c0,4.8,1.9,9.3,5.3,12.7c3.4,3.4,7.9,5.2,12.7,5.2c4.8,0,9.3-1.9,12.7-5.2
	c7-7,7-18.4,0-25.4C29.3,3.9,24.8,2.1,20,2.1z M20,29.5c-3.8,0-7.2-2.1-8.6-5.4c-0.1-0.2-0.1-0.5,0-0.7c0.1-0.2,0.3-0.4,0.5-0.5
	c0.1,0,0.2-0.1,0.3-0.1c0.4,0,0.7,0.2,0.8,0.5c1.1,2.6,3.8,4.4,7,4.4c3,0,5.8-1.7,6.9-4.4c0.1-0.3,0.5-0.5,0.8-0.5
	c0.1,0,0.2,0,0.3,0.1c0.4,0.2,0.6,0.7,0.5,1.1C27.1,27.4,23.8,29.5,20,29.5z M25.6,16.6c-1.2,0-2.1-0.9-2.1-2.1
	c0-1.2,0.9-2.1,2.1-2.1c1.2,0,2.1,0.9,2.1,2.1C27.7,15.7,26.7,16.6,25.6,16.6z M14.8,16.6c-1.2,0-2.1-0.9-2.1-2.1
	c0-1.2,0.9-2.1,2.1-2.1c1.2,0,2.1,0.9,2.1,2.1C16.9,15.7,16,16.6,14.8,16.6z"/>
</svg>
