<?xml version="1.0" encoding="UTF-8"?><svg version="1.1" viewBox="0 0 40 40" xmlns="http://www.w3.org/2000/svg" xmlns:xlink="http://www.w3.org/1999/xlink"><!--Generated by IJSVG (https://github.com/curthard89/IJSVG)--><g transform="translate(15091, 1480)"><g fill="#FC7C89"><path d="M22.8,5.1v1.7h-6.6v-1.7h6.6Zm-2.8,3.7h-3.8v1.7h3.8v-1.7Zm-3.8,5.4h6.6v-1.7h-6.6v1.7Zm3.8,2h-3.8v1.7h3.8v-1.7Zm-3.8,5.5h6.6v-1.7h-6.6v1.7Zm1,9.7c0,4.8 -3.9,8.6 -8.6,8.6c-4.8,0 -8.6,-3.9 -8.6,-8.6c0,-3.1 1.6,-5.9 4.3,-7.4v-19.6c0,-2.4 2,-4.4 4.4,-4.4c2.4,0 4.4,2 4.4,4.4v19.6c2.5,1.5 4.1,4.3 4.1,7.4Zm-1.7,0c0,-2.6 -1.5,-5 -3.8,-6.2l-0.5,-0.2v-20.6c0,-1.5 -1.2,-2.7 -2.7,-2.7c-1.5,0 -2.7,1.2 -2.7,2.7v20.6l-0.5,0.2c-3.4,1.7 -4.8,5.9 -3,9.3c1.7,3.4 5.9,4.8 9.3,3c2.5,-1.1 3.9,-3.5 3.9,-6.1v0Zm-1.4,0c0,3 -2.5,5.5 -5.5,5.5c-3,0 -5.5,-2.5 -5.5,-5.5c0,-2.5 1.7,-4.7 4.1,-5.3l0.3,-0.1v-10.5h2.2v10.5l0.3,0.1c2.4,0.6 4.1,2.8 4.1,5.3v0Zm-5.2,-3.7c-0.1,-0.6 -0.7,-1 -1.3,-0.8c-2.1,0.5 -3.6,2.3 -3.5,4.4c0,0.6 0.5,1.1 1.1,1.1c0.6,0 1.1,-0.5 1.1,-1.1c0,-1.1 0.8,-2 1.8,-2.3c0.5,-0.1 0.9,-0.7 0.8,-1.3Z" transform="translate(-15082.4, -1480)"></path></g></g></svg>