<?xml version="1.0" encoding="UTF-8"?><svg version="1.1" viewBox="0 0 40 40" xmlns="http://www.w3.org/2000/svg" xmlns:xlink="http://www.w3.org/1999/xlink"><!--Generated by IJSVG (https://github.com/curthard89/IJSVG)--><g transform="translate(13101.4, -6)"><g fill="#FC7C89"><path d="M16.4,3.6v1.2h-4.7v-1.2h4.7Zm-2,2.7h-2.7v1.2h2.7v-1.2Zm-2.7,3.9h4.7v-1.2h-4.7v1.2Zm2.7,1.4h-2.7v1.2h2.7v-1.2Zm-2.7,3.9h4.7v-1.2h-4.7v1.2Zm0.7,6.9c0,3.4 -2.8,6.2 -6.2,6.2c-3.4,0 -6.2,-2.8 -6.2,-6.2c0,-2.2 1.2,-4.2 3,-5.3v-14c0,-1.7 1.4,-3.1 3.1,-3.1c1.7,0 3.1,1.4 3.1,3.1v14c2.1,1.1 3.2,3.1 3.2,5.3v0Zm-1.2,0c0,-1.9 -1,-3.6 -2.7,-4.4l-0.3,-0.2v-14.7c0,-1.1 -0.9,-1.9 -1.9,-1.9c-1,0 -1.9,0.8 -1.9,1.9v14.8l-0.3,0.2c-2.4,1.2 -3.4,4.2 -2.2,6.7c1.2,2.4 4.2,3.4 6.7,2.2c1.6,-1 2.6,-2.7 2.6,-4.6v0Zm-1,0c0,2.2 -1.8,3.9 -3.9,3.9c-2.2,0 -3.9,-1.8 -3.9,-3.9c0,-1.8 1.2,-3.3 2.9,-3.8l0.2,-0.1v-7.5h1.6v7.6l0.2,0.1c1.7,0.4 2.9,1.9 2.9,3.7v0Zm-3.8,-2.6c-0.1,-0.4 -0.5,-0.7 -0.9,-0.6c-1.5,0.3 -2.5,1.7 -2.5,3.2c0,0.4 0.4,0.8 0.8,0.8c0.4,0 0.8,-0.4 0.8,-0.8c0,-0.8 0.5,-1.5 1.3,-1.6c0.4,-0.2 0.6,-0.6 0.5,-1Z" transform="translate(-13101.5, 17.4)"></path><path d="M0,13.3v-0.7l2.7,-3.9v0h-2.5v-1.1h4.2v0.8l-2.7,3.9v0h2.7v1.1h-4.4v-0.1Zm18.2,-0.8v-1.5l5.9,-8.6v-0.1h-5.4v-2.3h9.1v1.6l-5.8,8.5v0.1h5.9v2.3h-9.7Zm-9.9,-0.9v-1l3.7,-5.3v0h-3.4v-1.5h5.7v1l-3.6,5.3v0h3.7v1.5h-6.1Z" transform="translate(-13089.4, 6)"></path></g></g></svg>