<?xml version="1.0" encoding="utf-8"?>
<!-- Generator: Adobe Illustrator 23.0.1, SVG Export Plug-In . SVG Version: 6.00 Build 0)  -->
<svg version="1.1" id="Layer_1" xmlns="http://www.w3.org/2000/svg" xmlns:xlink="http://www.w3.org/1999/xlink" x="0px" y="0px"
	 viewBox="0 0 40 40" style="enable-background:new 0 0 40 40;" xml:space="preserve">
<style type="text/css">
	.st0{fill:#3A3A3A;}
</style>
<g>
	<path class="st0" d="M36.7,12.2H30c-0.1,0.6-0.3,1.2-0.6,1.7h7.3L21.2,29.7c-0.3,0.4-0.8,0.5-1.2,0.5c-0.4,0-0.9-0.2-1.2-0.6
		C15.1,26,2.8,13.9,2.8,13.9l7.7,0c-0.2-0.6-0.4-1.1-0.6-1.7H3.4C2,12.2,0,12.3,0,15v22.3c-0.1,2.8,2.2,2.8,3.3,2.8h33.2
		c1.4,0,3.4-0.4,3.4-2.8V15C39.8,12.2,37.8,12.2,36.7,12.2z M1.8,15.3l0.6,0.6c1.8,1.7,3.5,3.5,5.3,5.2c1.6,1.6,5.1,5,5.1,5
		l-11,10.8V15.3z M3.1,38.3l0.6-0.6c3.4-3.4,6.8-6.7,10.2-10.1l0.2-0.2l0.2,0.2l0,0c0.1,0,0.1,0.1,0.2,0.2c1,1,2,2,2.9,2.9
		c0.7,0.7,1.6,1.1,2.5,1.1c0.9,0,1.8-0.4,2.5-1.1c0.9-0.9,1.8-1.8,2.9-2.9c0.1-0.1,0.1-0.1,0.1-0.2c0,0,0-0.1,0.1-0.1l0.2-0.3
		l11,10.9H3.1z M38.3,37l-11-10.8l11-10.8V37z"/>
	<path class="st0" d="M20,18.8c5.2,0,9.4-4.2,9.5-9.4c0-2.5-1-4.9-2.7-6.7c-1.8-1.8-4.2-2.8-6.7-2.8c-5.2,0-9.5,4.2-9.5,9.4
		C10.5,14.6,14.8,18.8,20,18.8z M20,1.5L20,1.5c4.4,0,7.9,3.6,7.9,7.9c0,2.1-0.8,4.1-2.3,5.5c-1.5,1.5-3.5,2.3-5.6,2.3c0,0,0,0,0,0
		c-4.3,0-7.8-3.5-7.8-7.9C12.1,5,15.7,1.5,20,1.5z"/>
	<path class="st0" d="M20,13.4c-0.8,0-1.4,0.6-1.4,1.4c0,0.7,0.6,1.4,1.4,1.4c0.8,0,1.4-0.6,1.4-1.4C21.4,14,20.8,13.4,20,13.4z"/>
	<path class="st0" d="M19.7,12.4c0.1,0.3,0.6,0.3,0.7,0l1.7-7.1c0.3-1.3-0.7-2.6-2.1-2.6c-1.4,0-2.4,1.3-2.1,2.6L19.7,12.4z"/>
</g>
</svg>
