<?xml version="1.0" encoding="utf-8"?>
<!-- Generator: Adobe Illustrator 23.0.1, SVG Export Plug-In . SVG Version: 6.00 Build 0)  -->
<svg version="1.1" id="Layer_1" xmlns="http://www.w3.org/2000/svg" xmlns:xlink="http://www.w3.org/1999/xlink" x="0px" y="0px"
	 viewBox="0 0 40 40" style="enable-background:new 0 0 40 40;" xml:space="preserve">
<style type="text/css">
	.st0{fill:#2C2F33;}
</style>
<g>
	<path class="st0" d="M9.1,21.3c-0.3-0.3-0.6-0.3-0.9,0c-0.9,0.9-1.8,1.8-2.7,2.7c-0.2,0.2-0.3,0.6,0,0.9c0.9,0.9,1.8,1.8,2.7,2.7
		c0.3,0.3,0.6,0.2,0.9,0c0.3-0.3,0.3-0.6,0-0.9c-0.2-0.2-0.4-0.4-0.5-0.5c-0.6-0.7-1.2-1.3-1.7-1.8c0.7-0.8,1.4-1.5,2.1-2.2
		C9.3,21.9,9.3,21.5,9.1,21.3z"/>
	<path class="st0" d="M15.3,27.5c0.3,0.3,0.6,0.3,0.9,0c0.9-0.9,1.7-1.7,2.6-2.6c0.3-0.3,0.3-0.7,0-1c-0.4-0.4-0.7-0.7-1.1-1.1
		c-0.5-0.5-1-1-1.6-1.5c-0.2-0.2-0.5-0.3-0.8-0.1c-0.2,0.1-0.4,0.4-0.3,0.7c0,0.1,0.1,0.3,0.3,0.4c0.7,0.7,1.4,1.4,2.1,2.1
		c-0.7,0.7-1.4,1.5-2.2,2.2C15.1,26.8,15.1,27.2,15.3,27.5z"/>
	<path class="st0" d="M13.3,21.5c-0.7,1.8-1.5,3.5-2.2,5.3C11,26.9,11,27.1,11,27.2c0,0.3,0.3,0.5,0.6,0.5c0.3,0,0.5-0.1,0.6-0.4
		c0.7-1.8,1.5-3.5,2.2-5.3c0-0.1,0-0.1,0-0.2c0.1-0.4-0.2-0.7-0.6-0.7C13.6,21.1,13.4,21.2,13.3,21.5z"/>
	<path class="st0" d="M39.8,27.5c-0.3-0.8-0.8-1.2-1.7-1.2c-0.1,0-0.1,0-0.2,0l0,0l0,0l0,0c0,0,0,0-0.1,0l0,0l0,0c0,0-0.1,0-0.1-0.1
		c-0.1-0.3-0.3-0.7-0.4-1.2l0,0c-0.1-0.2-0.2-0.4-0.1-0.4c0-0.1,0.1-0.2,0.3-0.4c0.7-0.7,0.7-1.6,0-2.3c-0.3-0.3-0.6-0.6-0.9-0.9
		c-0.3-0.3-0.7-0.5-1.1-0.5c-0.4,0-0.8,0.2-1.1,0.5c-0.1,0.1-0.2,0.2-0.3,0.4l0,0l-1.8-0.8v-0.1c0-0.1,0-0.3,0-0.4
		c0-0.9-0.6-1.5-1.5-1.6c-0.2,0-0.5,0-0.7,0c-0.2,0-0.5,0-0.7,0c-0.8,0-1.4,0.6-1.5,1.5c0,0.1,0,0.2,0,0.3c0,0.1,0,0.2,0,0.3
		l-0.1,0.1c-0.4,0.2-0.9,0.4-1.4,0.5c-0.1,0-0.3,0.1-0.4,0.1l0,0c-0.1-0.1-0.2-0.2-0.3-0.3c-0.3-0.3-0.7-0.5-1.1-0.5
		c-0.4,0-0.8,0.2-1.1,0.5c-0.3,0.3-0.5,0.5-0.8,0.8c-0.7,0.8-0.7,1.6,0,2.4c0,0,0,0,0.1,0.1c0.1,0.1,0.1,0.1,0.2,0.2s0.1,0.1,0,0.2
		c-0.2,0.3-0.3,0.7-0.5,1.1l0,0c-0.1,0.2-0.1,0.4-0.2,0.4s-0.2,0.1-0.5,0.1c-0.9,0-1.6,0.6-1.6,1.5c0,0.4,0,0.9,0,1.3
		c0,0.9,0.7,1.5,1.6,1.5c0,0,0,0,0.1,0h0.1h0.1c0.1,0,0.1,0,0.2,0h0.1c0.2,0.5,0.4,0.9,0.6,1.4c0,0.1,0.1,0.2,0.1,0.3l-0.1,0.1
		c-0.1,0.1-0.3,0.3-0.4,0.4c-0.5,0.6-0.5,1.4,0,2c0.3,0.4,0.7,0.8,1.1,1.1c0.3,0.2,0.6,0.4,1,0.4c0.4,0,0.7-0.1,1-0.4
		c0.1-0.1,0.1-0.1,0.2-0.2s0.2-0.2,0.2-0.2h0.1c0,0,0,0,0.1,0s0.2,0.1,0.4,0.2c0.2,0.1,0.4,0.2,0.6,0.3c0.6,0.1,0.8,0.4,0.7,0.9
		c0,0.4,0.1,0.7,0.3,1c0.3,0.3,0.7,0.5,1.1,0.5c0.2,0,0.5,0,0.7,0c0.3,0,0.5,0,0.8,0c0.7,0,1.3-0.5,1.4-1.2c0-0.2,0.1-0.5,0-0.7
		c0-0.2,0-0.2,0.2-0.3c0.3-0.1,0.6-0.2,0.9-0.3h0.1c0.1,0,0.2-0.1,0.2-0.1c0.1-0.1,0.2-0.1,0.3-0.1l0,0c0.1,0,0.2,0.1,0.3,0.2
		c0.1,0.1,0.1,0.1,0.2,0.2c0.3,0.3,0.7,0.4,1.1,0.4s0.7-0.2,1.1-0.4c0.3-0.3,0.6-0.6,0.9-0.9c0.6-0.6,0.6-1.5,0-2.2
		c-0.1-0.1-0.2-0.2-0.4-0.3c0,0,0,0-0.1,0l0.8-1.8c0,0,0,0,0.1,0h0.1c0.1,0,0.2,0,0.2,0l0,0c0.8,0,1.4-0.4,1.7-1.2l0,0L39.8,27.5
		L39.8,27.5z M38.3,29C38.3,29.1,38.3,29.1,38.3,29L38.3,29L38.3,29c-0.2,0.1-0.4,0.1-0.5,0.1c-0.2,0-0.3,0-0.5,0h-0.2
		c-0.4,0-0.7,0.2-0.8,0.6c-0.2,0.9-0.5,1.7-1,2.4c-0.2,0.3-0.2,0.7,0.1,1l0,0c0.2,0.2,0.5,0.5,0.7,0.7c0.1,0.1,0.1,0.1,0.1,0.1
		s0,0.1-0.1,0.1c-0.2,0.2-0.5,0.5-0.7,0.7c-0.1,0.1-0.1,0.1-0.1,0.1s0,0-0.1-0.1c-0.2-0.2-0.4-0.5-0.7-0.7c-0.2-0.2-0.4-0.3-0.6-0.3
		c-0.1,0-0.3,0.1-0.5,0.2c-0.7,0.4-1.4,0.7-2.3,0.9c-0.5,0.1-0.7,0.3-0.7,0.8c0,0.3,0,0.6,0,0.9c0,0.1,0,0.1,0,0.2h-0.1l0,0
		c-0.2,0-0.3,0-0.5,0s-0.3,0-0.5,0l0,0c-0.1,0-0.1,0-0.1,0s0-0.1,0-0.2c0-0.3,0-0.6,0-0.9c0-0.6-0.2-0.8-0.7-0.9
		c-0.8-0.2-1.5-0.5-2.2-0.9c-0.2-0.1-0.3-0.2-0.5-0.2s-0.4,0.1-0.6,0.3c-0.3,0.3-0.5,0.5-0.7,0.7l-0.1,0.1c0,0,0,0-0.1-0.1
		c-0.3-0.3-0.5-0.5-0.7-0.7c-0.1,0-0.1-0.1-0.1-0.1s0-0.1,0.1-0.1c0.2-0.2,0.4-0.4,0.6-0.6l0.1-0.1c0.4-0.4,0.4-0.7,0.1-1.2
		c-0.4-0.7-0.7-1.4-0.9-2.2c-0.1-0.5-0.4-0.7-0.9-0.7h-0.1c-0.1,0-0.3,0-0.4,0c-0.1,0-0.3,0-0.4,0l0,0h-0.1v-0.1c0-0.4,0-0.7,0-1
		c0-0.1,0-0.1,0-0.1h0.1l0,0c0.2,0,0.3,0,0.5,0c0.2,0,0.3,0,0.5,0c0.5,0,0.8-0.2,0.9-0.7c0.2-0.8,0.5-1.5,0.9-2.2
		c0.3-0.4,0.2-0.7-0.1-1.1c-0.2-0.2-0.4-0.4-0.7-0.7c-0.1-0.1-0.1-0.1-0.1-0.1s0,0,0.1-0.1c0.2-0.2,0.5-0.5,0.8-0.8
		c0.1-0.1,0.1-0.1,0.1-0.1s0,0,0.1,0.1c0.2,0.2,0.5,0.5,0.7,0.7c0.2,0.2,0.4,0.3,0.6,0.3c0.1,0,0.3,0,0.5-0.2c0.7-0.5,1.5-0.8,2.3-1
		c0.4-0.1,0.6-0.4,0.6-0.8c0-0.3,0-0.6,0-1c0-0.1,0-0.1,0-0.2h0.1l0,0c0.2,0,0.3,0,0.5,0s0.3,0,0.5,0l0,0h0.1c0,0,0,0.1,0,0.2
		c0,0.3,0,0.5,0,0.9c0,0.5,0.2,0.8,0.7,0.9c0.8,0.2,1.5,0.5,2.2,0.9c0.2,0.1,0.4,0.2,0.5,0.2c0.3,0,0.5-0.2,0.6-0.3
		c0.1-0.1,0.2-0.2,0.2-0.2c0.1-0.1,0.3-0.3,0.4-0.4h0.1l0,0c0.2,0.2,0.5,0.4,0.7,0.7l0.1,0.1l0,0l0,0L36,22.9
		c-0.1,0.1-0.2,0.2-0.3,0.3c-0.1,0.1-0.2,0.2-0.4,0.4c-0.4,0.4-0.4,0.7-0.1,1.1c0.4,0.7,0.7,1.5,0.9,2.2c0.1,0.5,0.4,0.7,0.9,0.7
		c0.2,0,0.3,0,0.5,0s0.3,0,0.4,0l0,0c0.1,0,0.1,0,0.1,0v0.1C38.3,28.3,38.3,28.7,38.3,29z"/>
	<path class="st0" d="M30,24.3L30,24.3c-1.1,0-2.1,0.4-2.9,1.2c-0.8,0.8-1.2,1.8-1.2,2.9c0,1.1,0.4,2.1,1.2,2.9
		c0.8,0.8,1.8,1.2,2.9,1.2l0,0c2.3,0,4.1-1.8,4.1-4.1c0-1.1-0.4-2.1-1.2-2.9C32,24.8,31,24.4,30,24.3z M31.7,30.3
		C31.2,30.8,30.6,31,30,31c0,0,0,0-0.1,0c-0.7,0-1.4-0.3-1.9-0.8c-0.5-0.5-0.7-1.1-0.7-1.8c0-1.4,1.2-2.5,2.5-2.5c0,0,0,0,0.1,0
		c0.7,0,1.4,0.3,1.9,0.9c0.5,0.5,0.7,1.1,0.7,1.8C32.4,29.2,32.1,29.8,31.7,30.3z"/>
	<path class="st0" d="M2.5,34.2c-0.3,0-0.4-0.1-0.4-0.4c0-5.8,0-11.4,0-17.2c0-0.3,0.1-0.4,0.4-0.4c8.3,0,16.4,0,24.7,0
		c0.1,0,0.2,0,0.3,0c0,0.1,0,0.3,0,0.4c0,0.6,0,1.1,0,1.7c0.7-0.2,1.4-0.3,2.1-0.3c0-1.6,0-3.1,0-4.7c0-0.2,0-0.4,0-0.5
		c-0.1-0.9-0.6-1.5-1.5-1.8c-0.3-0.1-0.7-0.1-1-0.1c-7.8,0-15.5,0-23.3,0c-0.5,0-1.1,0-1.6,0s-1,0.1-1.4,0.5
		c-0.4,0.3-0.6,0.8-0.8,1.3C0,20,0,27.2,0,34.5c0.2,0.5,0.4,1,0.9,1.3c0.3,0.2,0.6,0.3,0.9,0.4c6.9,0,13.8,0,20.7,0
		c-0.6-0.6-1.2-1.3-1.7-2.1C14.7,34.2,8.6,34.2,2.5,34.2z M12.6,13.3c0-0.1,0.1-0.1,0.2-0.2c0.1,0,0.2,0,0.3,0c4.7,0,9.4,0,14,0
		c0.1,0,0.2,0,0.3,0c0,0.1,0,0.2,0,0.3c0,0.2,0,0.5,0,0.8c-5,0-9.9,0-14.8,0C12.6,13.9,12.6,13.6,12.6,13.3z M10.1,12.6
		c0.6,0,1.1,0.5,1.1,1.1c0,0.6-0.5,1.1-1.1,1.1s-1.1-0.5-1.1-1.1C9.1,13.1,9.6,12.6,10.1,12.6z M6.9,12.6c0.6,0,1.1,0.5,1.1,1
		c0,0.6-0.5,1.1-1.1,1.1s-1.1-0.5-1.1-1.1C5.8,13.1,6.3,12.6,6.9,12.6z M3.7,12.6c0.6,0,1.1,0.5,1.1,1.1c0,0.6-0.5,1.1-1.1,1.1
		s-1.1-0.5-1.1-1.1C2.7,13.1,3.2,12.6,3.7,12.6z"/>
	<path class="st0" d="M7,9.7c0.2,0.1,0.5,0.1,0.8,0.1c0.4,0,0.8,0,1.2,0c0-0.9,0-1.7,0-2.6c0-0.3,0.1-0.4,0.4-0.4
		c8.3,0,16.4,0,24.7,0c0.3,0,0.4,0.1,0.4,0.4c0,4,0,7.9,0,11.8c0.8,0.4,1.5,0.8,2.1,1.3c0-5.7,0-11.3,0-17c0-1.1-0.2-1.7-1.8-1.7
		c-8.7,0-17.4,0-26.1,0c0,0,0,0-0.1,0C7.3,1.8,7,2.6,7,3.9c0,1.7,0,3.3,0,5C7,9.2,6.9,9.6,7,9.7z M19.6,3.7c0.1,0,0.2,0,0.4,0
		c4.7,0,9.4,0,14,0c0.3,0,0.4,0.1,0.4,0.4c0,0.7,0,0.7-0.7,0.7c-4.6,0-9.2,0-13.7,0c-0.1,0-0.2,0-0.4,0C19.6,4.4,19.6,4,19.6,3.7z
		 M17,3.1c0.6,0,1.1,0.5,1,1.1c0,0.6-0.5,1-1.1,1c-0.6,0-1.1-0.5-1.1-1.1C16,3.6,16.4,3.1,17,3.1z M13.8,3.1c0.6,0,1.1,0.5,1.1,1.1
		s-0.5,1.1-1.1,1c-0.6,0-1.1-0.5-1-1.1C12.7,3.6,13.2,3.1,13.8,3.1z M10.6,3.1c0.6,0,1,0.5,1,1.1s-0.5,1-1.1,1s-1-0.5-1-1.1
		C9.6,3.6,10,3.1,10.6,3.1z"/>
</g>
</svg>
