<?xml version="1.0" encoding="utf-8"?>
<!-- Generator: Adobe Illustrator 23.0.1, SVG Export Plug-In . SVG Version: 6.00 Build 0)  -->
<svg version="1.1" id="Layer_1" xmlns="http://www.w3.org/2000/svg" xmlns:xlink="http://www.w3.org/1999/xlink" x="0px" y="0px"
	 viewBox="0 0 40 40" style="enable-background:new 0 0 40 40;" xml:space="preserve">
<style type="text/css">
	.st0{fill:#3A3A3A;}
</style>
<g>
	<path class="st0" d="M20,15.5c0.6,0,1.2-0.1,1.7-0.3c1.3-0.5,2.4-1.4,3-2.7v0c0.6-1.3,0.7-2.7,0.2-4c-0.7-2.1-2.7-3.5-5-3.5
		c-0.6,0-1.2,0.1-1.7,0.3c-2.8,1-4.2,4-3.2,6.7C15.7,14,17.8,15.5,20,15.5z M18.7,6.4c0.4-0.2,0.9-0.2,1.3-0.2
		c1.7,0,3.2,1.1,3.8,2.7c0.4,1,0.3,2.1-0.2,3.1v0c-0.5,1-1.3,1.7-2.3,2.1c-0.4,0.2-0.9,0.2-1.3,0.2c-1.7,0-3.2-1.1-3.8-2.7
		C15.5,9.4,16.6,7.1,18.7,6.4z"/>
	<path class="st0" d="M10.6,14.5c0.1,0.3,0.4,0.5,0.7,0.5l2-0.5c0.4,0.7,1,1.3,1.6,1.8l-0.7,1.8c-0.1,0.3,0,0.7,0.4,0.9l1.8,0.9
		c0.3,0.2,0.7,0,0.9-0.3l1-1.6c0.8,0.2,1.6,0.2,2.4,0.2l0.8,1.7c0.1,0.3,0.4,0.4,0.7,0.4c0.1,0,0.2,0,0.2,0l1.9-0.7
		c0.4-0.1,0.6-0.5,0.5-0.8l-0.4-1.8c0.7-0.4,1.3-1,1.9-1.6l1.7,0.6c0.3,0.1,0.7,0,0.9-0.4l0.9-1.8c0.2-0.3,0-0.7-0.3-0.9l-1.5-0.9
		c0.2-0.8,0.3-1.7,0.2-2.6l1.6-0.7C30,8.5,30.2,8.1,30,7.7l-0.7-1.9c-0.1-0.3-0.4-0.5-0.7-0.5l-1.8,0.4c-0.5-0.7-1-1.4-1.7-2
		l0.6-1.6c0.1-0.3,0-0.7-0.4-0.9l-1.8-0.9c-0.3-0.2-0.7,0-0.9,0.3l-0.9,1.4C20.9,2,20,1.9,19.2,2l-0.7-1.5c-0.1-0.3-0.4-0.4-0.7-0.4
		c-0.1,0-0.2,0-0.2,0l-1.9,0.7c-0.4,0.1-0.6,0.5-0.5,0.8l0.4,1.7c-0.7,0.5-1.4,1-1.9,1.7l-1.6-0.6c-0.3-0.1-0.7,0-0.9,0.4l-0.9,1.8
		c-0.2,0.3,0,0.7,0.3,0.9l1.5,0.9c-0.2,0.8-0.2,1.6-0.1,2.5l-1.7,0.8c-0.3,0.2-0.5,0.5-0.4,0.9L10.6,14.5z M12.7,12l0.7-0.2L13.3,11
		c-0.1-0.9-0.1-1.7,0.1-2.6l0.2-0.7L13,7.5l-1.3-0.8l0.5-0.9l2.1,0.8L14.6,6c0.5-0.7,1.2-1.3,1.9-1.8L17,3.9l-0.5-2.1l1-0.3l0.9,1.9
		l0.7-0.1c0.9-0.1,1.8-0.1,2.7,0.1l0.6,0.2l1.1-1.8l0.9,0.5l-0.7,2l0.5,0.4c0.7,0.5,1.3,1.2,1.8,2l0.3,0.6l2.1-0.5l0.3,1l-1.9,0.9
		l0.1,0.6c0.1,0.9,0.1,1.8-0.2,2.6l-0.2,0.6l1.9,1.1l-0.5,0.9L26.5,14l-0.6-0.3l-0.5,0.6c-0.5,0.7-1.2,1.3-1.9,1.7l-0.6,0.4l0.2,0.7
		l0.4,1.5l-1,0.3l-0.6-1.4l-0.2-0.7l-0.7,0.1c-0.8,0.1-1.7,0.1-2.5-0.2l-0.7-0.2l-0.3,0.7l-0.8,1.3l-0.9-0.5l0.5-1.4l0.3-0.7
		l-0.6-0.4c-0.7-0.5-1.2-1.1-1.7-1.9L13.8,13l-0.7,0.3l-1.5,0.4l-0.3-1L12.7,12z"/>
	<path class="st0" d="M39.8,35.2c-0.1-0.2-0.4-0.2-0.6-0.2h-1.6V16.7c0-1.4-1.1-2.5-2.5-2.5h-4.3l-0.7,1.4h4.5
		c0.8,0,1.4,0.6,1.4,1.4v17.6H3.9V17c0-0.8,0.6-1.4,1.4-1.4H10l-0.1-0.1c-0.2-0.2-0.3-0.4-0.4-0.6l-0.2-0.7H4.9
		c-1.4,0-2.5,1.1-2.5,2.5v18.2H0.8c-0.2,0-0.4,0.1-0.6,0.2S0,35.5,0,35.7c0.1,2.5,2.1,4.2,5,4.2h30c2.8,0,4.9-1.8,5-4.2
		C40,35.5,39.9,35.3,39.8,35.2z M35,38.5H5c-2.2,0-3.2-1.1-3.5-2.2h37C38.2,37.6,36.8,38.5,35,38.5z"/>
	<path class="st0" d="M15.2,22.8c-0.6,0-1.1,0.3-1.3,1l-2.4,6.6c0,0.1,0,0.1,0,0.2c0,0.2,0.1,0.3,0.2,0.4c0.1,0.1,0.3,0.2,0.5,0.2
		c0.3,0,0.5-0.1,0.6-0.4l0.8-2.3h3.4l0.8,2.3c0.1,0.3,0.3,0.4,0.6,0.4c0.2,0,0.3-0.1,0.4-0.2c0.1-0.1,0.2-0.3,0.2-0.4
		c0-0.1,0-0.1,0-0.2l-2.4-6.6C16.3,23.2,15.8,22.8,15.2,22.8z M13.9,27.3l1.1-3.2c0-0.1,0-0.1,0.1-0.1c0,0,0.1,0,0.1,0s0.1,0,0.1,0
		c0,0,0,0,0.1,0.1l1.1,3.2H13.9z"/>
	<path class="st0" d="M25.1,23.7C24.6,23.2,24,23,23.2,23h-2.3c-0.3,0-0.5,0.1-0.7,0.3c-0.2,0.2-0.2,0.4-0.2,0.7v6.7
		c0,0.2,0.1,0.3,0.2,0.4s0.3,0.2,0.4,0.2c0.2,0,0.3-0.1,0.4-0.2c0.1-0.1,0.2-0.3,0.2-0.4v-2.4h1.9c0.8,0,1.5-0.2,2-0.7
		c0.5-0.5,0.8-1.1,0.8-2C25.9,24.8,25.7,24.1,25.1,23.7z M23.1,27h-1.9v-2.9h1.9c0.5,0,0.9,0.1,1.1,0.4c0.2,0.3,0.4,0.6,0.4,1.1
		C24.6,26.6,24.2,27,23.1,27z"/>
	<path class="st0" d="M27.4,23.1c-0.1,0.1-0.2,0.3-0.2,0.4v7.1c0,0.2,0.1,0.3,0.2,0.4c0.1,0.1,0.3,0.2,0.4,0.2
		c0.2,0,0.3-0.1,0.4-0.2c0.1-0.1,0.2-0.3,0.2-0.5v-7.1c0-0.2-0.1-0.3-0.2-0.5c-0.1-0.1-0.3-0.2-0.4-0.2C27.7,22.9,27.6,23,27.4,23.1
		z"/>
</g>
</svg>
