<?xml version="1.0" encoding="utf-8"?>
<!-- Generator: Adobe Illustrator 23.0.1, SVG Export Plug-In . SVG Version: 6.00 Build 0)  -->
<svg version="1.1" id="Layer_1" xmlns="http://www.w3.org/2000/svg" xmlns:xlink="http://www.w3.org/1999/xlink" x="0px" y="0px"
	 viewBox="0 0 40 40" style="enable-background:new 0 0 40 40;" xml:space="preserve">
<style type="text/css">
	.st0{fill:#3A3A3A;}
</style>
<g>
	<path class="st0" d="M13.2,17.3c-0.1,0-0.2,0-0.2,0c-1.4,0.1-2.1,0.8-2.1,2.2l0,1.1c0,2.2,0,4.4,0,6.7c0,1.8,0.8,2.7,2.5,3
		c1.8,0.2,3.7,0.4,5.4,0.5c0.6,0,1.2,0,1.8,0c2.2,0,4.1-0.2,6-0.5c1.5-0.3,2.4-1.2,2.4-2.6c0-3,0-6,0-8.5c0-0.9-0.8-1.7-1.7-1.8
		c-0.1,0-0.3,0-0.5,0l-0.3,0v-0.1c0-0.4,0-0.7,0-1.1c0-0.8,0-1.6,0-2.3c-0.1-3.5-3-6.2-6.6-6.2c-3.4,0-6.3,2.8-6.5,6.2
		c0,0.8,0,1.6,0,2.4c0,0.4,0,0.7,0,1.1v0.1L13.2,17.3z M15.5,17.2c0-0.5,0-0.9,0-1.4c0-1,0-2,0.3-3C16.3,11,18,9.7,20,9.7
		c0.2,0,0.5,0,0.7,0.1c2.1,0.3,3.6,2.1,3.7,4.3c0,0.7,0,1.4,0,2.1l0,1.1h-8.8L15.5,17.2z M26.9,19.5l0,7.6c0,0.9,0,1-0.9,1.1
		c-2,0.3-4,0.5-6,0.5c-2,0-4.1-0.2-6.2-0.5c-0.4-0.1-0.8-0.2-0.8-0.8c0-1.5,0-7.6,0-7.6c0,0,0-0.1,0-0.1c0,0,0.1-0.1,0.1-0.1H26.9z"
		/>
	<path class="st0" d="M38.5,14.1c-0.2-0.5-0.6-0.9-1-0.9c-0.1,0-0.2,0-0.4,0.1c-0.6,0.2-0.8,0.8-0.5,1.5c1,2.8,1.3,5.7,0.8,8.5
		C36.1,31.8,28.9,38,20.2,38c0,0,0,0,0,0c-3.8,0-7.4-1.2-10.4-3.6c-0.1-0.1-0.3-0.2-0.4-0.4l-0.5-0.4l1-0.2c0.6-0.1,1.1-0.2,1.6-0.3
		c0.6-0.1,1-0.6,0.9-1.2c-0.1-0.5-0.5-0.9-1-0.9c-0.1,0-0.1,0-0.2,0C9.6,31.5,8,31.8,6.4,32c-0.7,0.1-1,0.5-0.9,1.2
		c0,0.4,0.1,0.9,0.2,1.3L5.8,35l0.1,0.8c0.1,0.8,0.2,1.5,0.4,2.3c0.1,0.6,0.5,0.9,1,0.9c0.1,0,0.1,0,0.2,0c0.6-0.1,0.9-0.5,0.9-1.2
		c0-0.1,0-0.2,0-0.3c0-0.1,0-0.1,0-0.2L8,35.8l0.1,0c0,0,0.1,0,0.1,0c0,0,0.1,0,0.1,0c0.2,0.1,0.3,0.2,0.5,0.3
		c3.5,2.5,7.3,3.8,11.4,3.8c0,0,0,0,0,0c1,0,2-0.1,3-0.2c5.7-0.8,10.7-4.2,13.7-9.2C39.9,25.5,40.5,19.5,38.5,14.1z"/>
	<path class="st0" d="M2.7,16C4.3,7.8,11.3,2.1,19.7,2.1c3.9,0,7.7,1.3,10.8,3.8C30.6,6,30.7,6,30.7,6.1c0,0,0.1,0.1,0.1,0.1
		l0.1,0.1L30,6.5c-0.5,0.1-1,0.2-1.5,0.2c-0.3,0.1-0.6,0.2-0.8,0.5c-0.1,0.2-0.2,0.4-0.1,0.7c0.1,0.5,0.5,0.8,1,0.8
		c0.1,0,0.2,0,0.2,0c0.8-0.1,1.6-0.2,2.3-0.4c0.8-0.1,1.5-0.2,2.3-0.3c0.9-0.1,1.2-0.5,1.1-1.4c-0.3-1.8-0.5-3.5-0.8-4.8
		c-0.1-0.6-0.5-0.9-1-0.9c-0.1,0-0.1,0-0.2,0c-0.6,0.1-0.9,0.6-0.8,1.3l0.4,2.2l-0.5-0.4c-0.2-0.1-0.3-0.2-0.5-0.3
		C27.5,1.3,23.7,0,19.8,0c-2.5,0-5.1,0.5-7.7,1.6C2.7,5.5-2,16.1,1.5,25.9c0.2,0.4,0.5,0.9,1,0.9c0.1,0,0.2,0,0.3-0.1
		c0.3-0.1,0.4-0.2,0.5-0.4c0.1-0.3,0.1-0.6,0-1.1C2.3,22.2,2,19.1,2.7,16z"/>
	<path class="st0" d="M19.3,24.5L19.3,24.5l0.1,0.7c0,0.3,0.3,0.6,0.6,0.6c0.3,0,0.6-0.3,0.6-0.6v-0.7l0.1,0
		c0.4-0.2,0.7-0.7,0.7-1.2c0-0.7-0.6-1.4-1.4-1.4c-0.7,0-1.4,0.6-1.4,1.4C18.6,23.8,18.9,24.3,19.3,24.5z"/>
</g>
</svg>
