<?xml version="1.0" encoding="utf-8"?>
<!-- Generator: Adobe Illustrator 23.0.1, SVG Export Plug-In . SVG Version: 6.00 Build 0)  -->
<svg version="1.1" id="Layer_1" xmlns="http://www.w3.org/2000/svg" xmlns:xlink="http://www.w3.org/1999/xlink" x="0px" y="0px"
	 viewBox="0 0 40 40" style="enable-background:new 0 0 40 40;" xml:space="preserve">
<style type="text/css">
	.st0{fill:#2C2F33;}
</style>
<g>
	<path class="st0" d="M39.3,11.6L38,10.9c0-0.3,0.1-0.7,0.1-1c0-0.3,0-0.7-0.1-1l1.2-0.7c0.6-0.4,0.9-1.1,0.7-1.7
		c-0.5-1.2-1-2.1-1.6-2.8c-0.5-0.5-1.2-0.6-1.8-0.3L35.3,4c-0.5-0.4-1.1-0.8-1.8-1V1.6c0-0.7-0.5-1.3-1.2-1.4C31.1,0,30,0,29.1,0.1
		c-0.7,0.1-1.1,0.7-1.1,1.4V3c-0.6,0.3-1.2,0.6-1.8,1L25,3.3c-0.6-0.4-1.4-0.2-1.8,0.3c-0.8,1-1.3,1.9-1.6,2.8
		c-0.2,0.6,0.1,1.4,0.7,1.7l1.2,0.7c0,0.3-0.1,0.7-0.1,1c0,0.3,0,0.7,0.1,1l-1.2,0.7c-0.6,0.4-0.9,1.1-0.7,1.7
		c0.4,1,0.9,1.9,1.6,2.8c0.4,0.5,1.2,0.7,1.8,0.3l1.2-0.7c0.5,0.4,1.1,0.8,1.8,1v1.4c0,0.7,0.5,1.3,1.2,1.4c0.5,0.1,1.1,0.1,1.6,0.1
		s1.1,0,1.6-0.1c0.7-0.1,1.2-0.7,1.2-1.4v-1.4c0.6-0.3,1.2-0.6,1.8-1l1.2,0.7c0.6,0.4,1.4,0.2,1.8-0.3c0.7-0.8,1.2-1.8,1.6-2.8
		C40.2,12.6,39.9,11.9,39.3,11.6z M38.7,12.8c-0.3,0.9-0.8,1.7-1.4,2.4c0,0-0.1,0-0.2,0l-2-1.2l-0.3,0.3c-0.6,0.6-1.3,1-2.1,1.2
		l-0.4,0.1v2.3c0,0.1-0.1,0.2-0.1,0.2c-0.9,0.2-1.9,0.2-2.8,0c0,0-0.1-0.1-0.1-0.2v-2.3l-0.4-0.1c-0.8-0.3-1.5-0.7-2.1-1.2l-0.3-0.3
		l-2,1.2c-0.1,0-0.2,0-0.2,0c-0.6-0.7-1.1-1.5-1.4-2.4c0,0,0-0.1,0.1-0.2l2-1.2l-0.1-0.5c-0.1-0.4-0.1-0.8-0.1-1.2
		c0-0.4,0-0.8,0.1-1.2l0.1-0.5l-2-1.2c-0.1-0.1-0.1-0.1-0.1-0.2c0.2-0.7,0.7-1.5,1.4-2.4c0,0,0.1,0,0.2,0l2,1.2l0.3-0.3
		c0.6-0.6,1.3-1,2.1-1.2l0.4-0.1V1.6c0-0.1,0.1-0.2,0.1-0.2c0.7-0.2,1.7-0.2,2.8,0c0,0,0.1,0.1,0.1,0.2v2.3L32.7,4
		c0.8,0.3,1.5,0.7,2.1,1.2l0.3,0.3l2-1.2c0.1-0.1,0.2,0,0.2,0c0.5,0.6,1,1.4,1.4,2.4c0,0,0,0.1-0.1,0.2l-2,1.2l0.1,0.5
		c0.1,0.4,0.1,0.8,0.1,1.2s0,0.8-0.1,1.2l-0.1,0.5l2,1.2C38.7,12.7,38.7,12.8,38.7,12.8z"/>
	<path class="st0" d="M30.7,6.1c-2.1,0-3.7,1.7-3.7,3.7s1.7,3.7,3.7,3.7c2.1,0,3.7-1.7,3.7-3.7S32.8,6.1,30.7,6.1z M30.7,12.3
		c-1.4,0-2.4-1.1-2.4-2.4s1.1-2.4,2.4-2.4c1.4,0,2.4,1.1,2.4,2.4S32.1,12.3,30.7,12.3z"/>
	<path class="st0" d="M28.6,20.4c-0.3-0.3-0.7-0.4-1.1-0.4c-1,0-2.1,0-3.5,0l-4.4,0c0,0,0-5.1,0-6.5c0-0.4-0.1-0.6-0.2-0.9
		c-0.3-0.4-0.7-0.7-1.3-0.7c-3.4,0-6.8,0-9.9,0H1.6c-0.1,0-0.1,0-0.2,0C0.6,12,0,12.6,0,13.4C0,18.6,0,23.8,0,29c0,0.1,0,0.2,0,0.3
		c0.1,0.7,0.7,1.2,1.5,1.2l5.5,0c-0.3,0.3-0.7,0.7-0.9,0.9c-0.1,0.1-0.3,0.3-0.5,0.4c-0.4,0.4-0.8,0.7-1.1,1.1
		c-0.3,0.4-0.4,0.8-0.2,1.3C4.4,34.7,4.9,35,5.3,35c0,0,0,0,0.1,0c0.4,0,0.9-0.1,1.3-0.1l0.7,0L9,34.7l0,3.8c0,0.1,0,0.2,0,0.4
		c0.1,0.7,0.7,1.2,1.5,1.2c0.5,0,1.1,0,1.6,0l6.4,0c2.8,0,5.9,0,8.9,0c0.2,0,0.5,0,0.7-0.1c0.6-0.2,0.9-0.7,0.9-1.4l0-2.3
		c0-4.8,0-9.7,0-14.6C29,21.1,28.9,20.7,28.6,20.4z M4.2,29c0,0-2.7,0-2.7,0c0,0,0,0,0,0c0,0,0,0,0,0c0,0,0,0,0-0.1l0-15.4
		c0-0.1,0-0.1,0-0.1c0,0,0.1,0,0.1,0h16.3c0,0,0.1,0,0.1,0c0,0,0,0.1,0,0.1V20l-7.5,0c-0.7,0-1.2,0.4-1.4,1c0,0.1-0.1,0.3-0.1,0.4
		c0,1.1,0,2.3,0,3.4l0,3.7c-0.2,0.2-0.4,0.4-0.5,0.5C7.2,29,5.8,29,4.2,29z M10.6,38.5c-0.1,0-0.1,0-0.1,0c0,0,0-0.1,0-0.1v-3.4
		l2.6,3c0.2,0.2,0.4,0.4,0.7,0.5H10.6z M13.8,36.7l-0.4-0.5c-0.7-0.8-1.4-1.7-2.2-2.5c-0.3-0.3-0.6-0.5-1.1-0.5c0,0-0.1,0-0.1,0
		c-0.8,0.1-1.7,0.1-2.5,0.2L6,33.5l7.8-7.5V36.7z M13.2,24.5l-2.7,2.6v-5.5c0,0,0-0.1,0-0.1c0,0,0.1,0,0.1,0H18c0,0,0.1,0,0.1,0
		c0,0,0,0.1,0,0.1v7.3c0,0,0,0.1,0,0.1c0,0-0.1,0-0.1,0h-2.7l0-1c0-0.9,0-1.7,0-2.6c0-0.5-0.2-0.9-0.7-1.1c-0.2-0.1-0.4-0.1-0.5-0.1
		C13.7,24.2,13.4,24.3,13.2,24.5z M27.6,38.4c0,0.1,0,0.1,0,0.1c0,0-0.1,0-0.1,0H14.3c0.1,0,0.1,0,0.2-0.1c0.5-0.2,0.8-0.6,0.8-1.2
		c0-1.7,0-6.8,0-6.8c0.3,0,0.5,0,0.8,0c0.3,0,0.6,0,0.8,0c0.4,0,0.8,0,1.1,0l0,0c0.4,0,0.8-0.1,1.1-0.4c0.3-0.3,0.5-0.7,0.4-1.1
		c0-1.8,0-3.6,0-5.3l0-2.2h7.9c0,0,0.1,0,0.1,0c0,0,0,0.1,0,0.1V38.4z"/>
	<path class="st0" d="M4.6,18.6c0-0.3,0-0.7,0-1c0-0.4-0.3-0.7-0.7-0.7c-0.4,0-0.7,0.3-0.7,0.7c0,0.9,0,1.8,0,2.6l0,0.2
		c0,0.3,0.1,0.5,0.3,0.6c0.1,0.1,0.3,0.1,0.4,0.1c0.4,0,0.7-0.3,0.7-0.7c0-0.3,0-0.7,0-1L4.6,18.6z"/>
	<path class="st0" d="M3.9,14.5L3.9,14.5c-0.4,0-0.7,0.3-0.7,0.7c0,0.1,0,0.1,0,0.2v0.1c0,0.1,0,0.1,0,0.2c0,0.4,0.3,0.7,0.7,0.7h0
		c0.4,0,0.7-0.3,0.7-0.7c0-0.2,0-0.4,0-0.6C4.6,14.8,4.3,14.5,3.9,14.5z"/>
</g>
</svg>
