<?xml version="1.0" encoding="utf-8"?>
<!-- Generator: Adobe Illustrator 23.0.1, SVG Export Plug-In . SVG Version: 6.00 Build 0)  -->
<svg version="1.1" id="Layer_1" xmlns="http://www.w3.org/2000/svg" xmlns:xlink="http://www.w3.org/1999/xlink" x="0px" y="0px"
	 viewBox="0 0 40 40" style="enable-background:new 0 0 40 40;" xml:space="preserve">
<style type="text/css">
	.st0{fill:#3A3A3A;}
</style>
<g>
	<path class="st0" d="M38.5,16.4l-3.3-0.3c-0.4-1.5-0.9-2.8-1.7-4.1l2.1-2.5c0.5-0.7,0.5-1.6-0.1-2.2l-2.8-2.8
		c-0.6-0.6-1.5-0.6-2.2-0.1l-2.5,2c-1.3-0.8-2.7-1.4-4.3-1.8l-0.3-3.1C23.5,0.6,22.8,0,21.9,0H20H20h-1.9c-0.8,0-1.5,0.6-1.6,1.5
		l-0.3,3.1c-1.5,0.4-2.9,1-4.3,1.8l-2.5-2C8.8,3.8,7.9,3.9,7.3,4.5L4.5,7.2C3.9,7.8,3.9,8.8,4.4,9.4L6.5,12
		c-0.8,1.3-1.3,2.7-1.7,4.1l-3.3,0.3C0.7,16.5,0,17.2,0,18.1v3.9c0,0.8,0.6,1.5,1.5,1.6l3.4,0.3c0.4,1.4,0.9,2.8,1.7,4l-2.2,2.6
		c-0.5,0.7-0.5,1.6,0.1,2.2l2.8,2.8c0.6,0.6,1.5,0.6,2.2,0.1l2.6-2.2c1.3,0.8,2.6,1.3,4,1.7l0.3,3.4c0.1,0.8,0.8,1.5,1.6,1.5H20H20
		h1.9c0.8,0,1.5-0.6,1.6-1.5l0.3-3.4c1.4-0.4,2.8-0.9,4-1.7l2.6,2.2c0.7,0.5,1.6,0.5,2.2-0.1l2.8-2.8c0.6-0.6,0.6-1.5,0.1-2.2
		l-2.2-2.6c0.8-1.3,1.3-2.6,1.7-4l3.4-0.3c0.8-0.1,1.5-0.8,1.5-1.6v-3.9C40,17.2,39.3,16.5,38.5,16.4z M38,21.7L34.4,22h-0.9
		l-0.2,0.8c-0.4,1.7-1,3.3-2,4.7l-0.4,0.7l0.7,0.7l2.3,2.8l-2.3,2.3l-2.8-2.3L28.1,31l-0.7,0.4c-1.4,1-3,1.6-4.7,2L22,33.6v0.9
		L21.6,38H20H20h-1.6L18,34.4v-0.9l-0.8-0.2c-1.7-0.4-3.3-1-4.7-2L11.9,31l-0.7,0.7l-2.8,2.3l-2.3-2.3l2.3-2.8l0.7-0.7l-0.4-0.7
		c-1-1.4-1.6-3-2-4.7L6.5,22H5.6L2,21.7v-3.3L5.6,18h0.9l0.2-0.8c0.3-1.7,1-3.3,1.9-4.8l0.4-0.7l-0.5-0.5L6.1,8.4l2.3-2.3l3.3,2.8
		l0.6-0.4c1.5-1,3.1-1.7,4.9-2.1L18,6.2L18.4,2H20H20h1.6L22,6.2l0.7,0.1c1.8,0.4,3.4,1.1,4.9,2.1l0.6,0.4l3.3-2.8l2.3,2.3l-2.3,2.8
		l-0.5,0.5l0.4,0.7c0.9,1.5,1.6,3.1,1.9,4.8l0.2,0.8h0.9l3.6,0.3V21.7z"/>
	<path class="st0" d="M20,13.3c-3.7,0-6.7,3-6.7,6.7s3,6.7,6.7,6.7s6.7-3,6.7-6.7S23.7,13.3,20,13.3z M20,24.6
		c-2.5,0-4.6-2.1-4.6-4.6s2.1-4.6,4.6-4.6s4.6,2.1,4.6,4.6S22.5,24.6,20,24.6z"/>
</g>
</svg>
