<?xml version="1.0" encoding="utf-8"?>
<!-- Generator: Adobe Illustrator 23.0.1, SVG Export Plug-In . SVG Version: 6.00 Build 0)  -->
<svg version="1.1" id="Layer_1" xmlns="http://www.w3.org/2000/svg" xmlns:xlink="http://www.w3.org/1999/xlink" x="0px" y="0px"
	 viewBox="0 0 40 40" style="enable-background:new 0 0 40 40;" xml:space="preserve">
<style type="text/css">
	.st0{fill:#2C2F33;}
</style>
<g>
	<path class="st0" d="M11,35.2c-0.2,0-0.3,0.1-0.5,0.2c-0.1,0.1-0.2,0.3-0.2,0.5c0,0.2,0.1,0.3,0.2,0.5c0.1,0.1,0.3,0.2,0.5,0.2
		c0.2,0,0.3-0.1,0.5-0.2c0.1-0.1,0.2-0.3,0.2-0.5c0-0.2-0.1-0.3-0.2-0.5C11.4,35.2,11.2,35.2,11,35.2z"/>
	<path class="st0" d="M15.4,34.6c0,0.3-0.1,0.5-0.2,0.7c-0.1,0.2-0.4,0.2-0.6,0.2c-0.2,0-0.4-0.1-0.6-0.2c-0.2-0.1-0.2-0.3-0.2-0.6
		h-1c0,0.5,0.2,0.9,0.5,1.3c0.3,0.3,0.8,0.5,1.3,0.5c0.6,0,1-0.2,1.4-0.5c0.3-0.3,0.5-0.8,0.5-1.4v-4.1h-1V34.6z"/>
	<path class="st0" d="M19.3,30.6l-2.1,5.8h1l0.5-1.5h2.1l0.5,1.5h1.1l-2.1-5.8H19.3z M19.1,34.1l0.8-2.4h0.1l0.8,2.4H19.1z"/>
	<polygon class="st0" points="25.3,35.1 25.2,35.1 23.7,30.6 22.6,30.6 24.6,36.4 25.8,36.4 27.8,30.6 26.7,30.6 	"/>
	<path class="st0" d="M29.9,30.6l-2.1,5.8h1l0.5-1.5h2.1l0.5,1.5h1.1l-2.1-5.8H29.9z M29.6,34.1l0.8-2.4h0.1l0.8,2.4H29.6z"/>
	<path class="st0" d="M36.2,29.1c0-1.4-0.9-2.3-2.3-2.3c-0.2,0-0.4,0-0.6,0c-0.2,0-0.3,0-0.5,0c-0.1,0-0.2,0-0.3,0l0-3.7
		c0-4.1,0-8.4,0-12.6c0-0.4-0.1-0.9-0.5-1.3c-3.4-3.3-6.7-6.5-9.3-8.9c-0.2-0.2-0.6-0.4-1-0.4c-2.4,0-4.8,0-7.4,0C11.9,0,9.4,0,7,0
		C5,0,3.8,1.2,3.8,3.2c0,10.4,0,20.9,0,31.3c0,1.9,1.2,3.1,3.1,3.1c0.1,0,0.3,0,0.4,0c0.1,0,0.2,0,0.4,0c0,0,0.1,0,0.1,0
		c0.2,1.7,1,2.3,2.8,2.3c1.7,0,3.3,0,5,0l9.9,0l4.6,0c1.2,0,2.4,0,3.6,0c1.7,0,2.6-0.9,2.6-2.5C36.2,34.4,36.2,31.8,36.2,29.1z
		 M22.9,4.2c0-0.4,0-0.7,0-1.1l6.4,6.1c-1,0-2,0-3,0c-0.7,0-1.4,0-2.2,0c-0.9,0-1.2-0.4-1.2-1.2C22.9,6.7,22.9,5.5,22.9,4.2z
		 M7.8,29.5c0,1.5,0,3,0,4.5l0,1.8c-0.1,0-0.2,0-0.3,0c-0.2,0-0.3,0-0.5,0c-0.2,0-0.4,0-0.6,0c-0.7-0.1-0.7-0.9-0.7-1.2
		c0-2.9,0-5.8,0-8.7c0-7.5,0-15,0-22.5c0-1.1,0.3-1.5,1.4-1.5c3.2,0,6.3,0,9.5,0l4.1,0h0.5c0,0.6,0,1.1,0,1.7c0,1.4,0,2.8,0,4.2
		c0,1,0.3,1.9,0.9,2.5c0.6,0.6,1.4,0.9,2.3,0.9c0.1,0,0.1,0,0.2,0c0.7,0,1.5,0,2.5,0c0.6,0,1.3,0,1.9,0c0.6,0,1.1,0,1.7,0v15.8
		l-6.1,0c-4.7,0-9.4,0-14.1,0c-0.9,0-1.6,0.2-2,0.6C8,27.9,7.8,28.6,7.8,29.5z M34.4,37.3c0,0.8,0,0.8-0.8,0.8c-4,0-7.9,0-11.9,0
		c-3.8,0-7.6,0-11.4,0c-0.7,0-0.8,0-0.8-0.8c0-2.7,0-5.3,0-8c0-0.7,0.1-0.7,0.8-0.8c1.9,0,3.8,0,5.7,0l9.1,0c0,0,6.6,0,8.4,0
		c0.8,0,0.8,0,0.8,0.8C34.4,32.1,34.4,34.7,34.4,37.3z"/>
	<path class="st0" d="M9.8,16.1h16.6c0.4,0,0.8-0.4,0.8-1c0-0.5-0.4-1-0.8-1H9.8c-0.4,0-0.8,0.4-0.8,1C9,15.7,9.4,16.1,9.8,16.1z"/>
	<path class="st0" d="M9.8,20.1h16.6c0.4,0,0.8-0.4,0.8-1c0-0.5-0.4-1-0.8-1H9.8c-0.4,0-0.8,0.4-0.8,1C9,19.6,9.4,20.1,9.8,20.1z"/>
	<path class="st0" d="M24.7,23.1c0-0.5-0.4-1-1-1H12.4c-0.5,0-1,0.4-1,1s0.4,1,1,1h11.4C24.3,24,24.7,23.6,24.7,23.1z"/>
</g>
</svg>
