<?xml version="1.0" encoding="utf-8"?>
<!-- Generator: Adobe Illustrator 23.0.1, SVG Export Plug-In . SVG Version: 6.00 Build 0)  -->
<svg version="1.1" id="Layer_1" xmlns="http://www.w3.org/2000/svg" xmlns:xlink="http://www.w3.org/1999/xlink" x="0px" y="0px"
	 viewBox="0 0 40 40" style="enable-background:new 0 0 40 40;" xml:space="preserve">
<style type="text/css">
	.st0{fill:#3A3A3A;}
</style>
<g>
	<path class="st0" d="M39.1,31L38,30.4c0-0.3,0.1-0.6,0.1-0.9c0-0.3,0-0.6-0.1-0.9l1.1-0.6c0.8-0.4,1.1-1.4,0.8-2.2
		c-0.5-1.2-1.1-2.2-1.7-3c-0.6-0.6-1.5-0.8-2.2-0.3l-1.1,0.6c-0.5-0.4-1-0.7-1.6-0.9V21c0-0.9-0.6-1.7-1.5-1.8
		c-1.3-0.2-2.5-0.2-3.4,0C27.6,19.4,27,20.1,27,21v1.2c-0.6,0.2-1.1,0.5-1.6,0.9l-1.1-0.6c-0.8-0.4-1.7-0.3-2.3,0.4
		c-0.8,1-1.4,2-1.7,3c-0.3,0.8,0.1,1.7,0.8,2.1l1.1,0.6c0,0.3-0.1,0.6-0.1,0.9s0,0.6,0.1,0.9L21.2,31c-0.8,0.4-1.1,1.3-0.8,2.1
		c0.4,1.1,1,2.1,1.7,2.9c0.5,0.7,1.5,0.8,2.3,0.4l1.1-0.6c0.5,0.4,1,0.7,1.6,0.9V38c0,0.9,0.6,1.6,1.4,1.8c0.6,0.1,1.1,0.1,1.7,0.1
		c0.6,0,1.1,0,1.7-0.1c0.8-0.1,1.4-0.9,1.4-1.8v-1.2c0.6-0.2,1.1-0.5,1.6-0.9l1.1,0.6c0.8,0.4,1.7,0.3,2.3-0.4
		c0.7-0.9,1.3-1.9,1.7-2.9C40.2,32.4,39.8,31.5,39.1,31z M36.8,34.8l-2.2-1.2L34.1,34c-0.6,0.5-1.3,0.9-2.1,1.2l-0.7,0.2v2.5
		c-0.8,0.1-1.7,0.1-2.5,0v-2.5l-0.7-0.2c-0.8-0.3-1.5-0.7-2.1-1.2l-0.5-0.5l-2.2,1.2c-0.5-0.6-0.9-1.4-1.2-2.1l2.2-1.2l-0.1-0.7
		c-0.1-0.4-0.1-0.8-0.1-1.2c0-0.4,0-0.8,0.1-1.2l0.1-0.7l-2.2-1.2c0.2-0.6,0.6-1.4,1.2-2.1l2.2,1.2l0.5-0.5c0.6-0.5,1.3-1,2.1-1.2
		l0.7-0.2v-2.5c0.7-0.1,1.5-0.1,2.5,0v2.5l0.7,0.2c0.8,0.3,1.5,0.7,2.1,1.2l0.5,0.5l2.2-1.2c0.4,0.5,0.9,1.2,1.2,2.1l-2.2,1.2
		l0.1,0.7c0.1,0.4,0.1,0.8,0.1,1.2c0,0.4,0,0.8-0.1,1.2l-0.1,0.7l2.2,1.2C37.7,33.4,37.3,34.1,36.8,34.8z"/>
	<path class="st0" d="M33.9,27.3l-0.1-0.1v0.2c-0.7-1.3-2.1-2.1-3.6-2.1c-2.3,0-4.1,1.9-4.1,4.1s1.9,4.1,4.1,4.1
		c1.5,0,2.9-0.9,3.6-2.1v0.2l0.1-0.1L34,31c0.2-0.5,0.3-0.9,0.3-1.5c0-0.5-0.1-1-0.3-1.5L33.9,27.3z M30.2,31.7
		c-1.2,0-2.2-1-2.2-2.2c0-1.2,1-2.2,2.2-2.2s2.2,1,2.2,2.2C32.4,30.7,31.4,31.7,30.2,31.7z"/>
	<path class="st0" d="M23.5,38.6c-0.6,0-1.2-0.2-1.8-0.4H4.4c-1.4,0-2.5-1.1-2.5-2.5v-16c0-1.4,1.1-2.5,2.5-2.5h26.8
		c0.4,0,0.9,0.1,1.2,0.3c1.5,0.4,2.7,1.7,2.8,3.3c0.2-0.1,0.3-0.1,0.5-0.2v-0.9c0-2.5-2-4.4-4.4-4.4h-4V9.3c0-5.2-4.2-9.4-9.4-9.4
		S8.5,4.1,8.5,9.3v5.9h-4c-2.5,0-4.4,2-4.4,4.4v16c0,2.5,2,4.4,4.4,4.4h21.3c-0.4-0.5-0.6-1.2-0.6-1.8C24.6,38.5,24,38.6,23.5,38.6z
		 M10.4,9.3c0-4.1,3.4-7.5,7.5-7.5s7.5,3.4,7.5,7.5v5.9H10.4V9.3z"/>
	<circle class="st0" cx="5.9" cy="29" r="1.4"/>
	<circle class="st0" cx="11.1" cy="29" r="1.4"/>
	<circle class="st0" cx="16.4" cy="29" r="1.4"/>
</g>
</svg>
