<?xml version="1.0" encoding="utf-8"?>
<!-- Generator: Adobe Illustrator 23.0.1, SVG Export Plug-In . SVG Version: 6.00 Build 0)  -->
<svg version="1.1" id="Layer_1" xmlns="http://www.w3.org/2000/svg" xmlns:xlink="http://www.w3.org/1999/xlink" x="0px" y="0px"
	 viewBox="0 0 40 40" style="enable-background:new 0 0 40 40;" xml:space="preserve">
<style type="text/css">
	.st0{fill:#3A3A3A;}
</style>
<g>
	<path class="st0" d="M25.2,21.3c-0.5,0.2-0.7,0.7-0.6,1.1c0.3,1.1,0.7,2.7,0.7,4c0,6.5-5.3,11.7-11.7,11.7S1.8,32.9,1.8,26.5
		c0-6.5,5.3-11.7,11.7-11.7c1.6,0,3.1,0.3,4.6,0.9c0.1,0.1,0.3,0.1,0.4,0.2c0.4,0.2,1,0,1.2-0.4c0.2-0.4,0-1-0.4-1.2
		c-0.2-0.1-0.3-0.2-0.5-0.2c-1.7-0.7-3.4-1.1-5.3-1.1c-3.6,0-7,1.4-9.6,4c-2.6,2.6-4,6-4,9.6c0,3.6,1.4,7,4,9.6c2.6,2.6,6,4,9.6,4
		s7-1.4,9.6-4c2.6-2.6,4-6,4-9.6c0-1.6-0.4-3.5-0.8-4.6C26.1,21.4,25.6,21.1,25.2,21.3z"/>
	<polygon class="st0" points="23,17.7 18.8,18.5 19.6,19.3 13.7,25.5 8.6,20.4 5.7,32.4 8.4,32.4 10,25.7 13.7,29.7 21.5,21.2 
		22.3,21.9 	"/>
	<polygon class="st0" points="17.6,27.4 18.8,32.4 21.5,32.4 19.7,25.2 	"/>
	<polygon class="st0" points="24.1,37.9 24.5,37.9 24.5,39.1 24.8,39.1 24.8,37.9 25.2,37.9 25.2,37.7 24.1,37.7 	"/>
	<polygon class="st0" points="26.3,38.6 26.1,37.7 25.6,37.7 25.6,39.1 25.9,39.1 25.9,38 26.2,39.1 26.5,39.1 26.7,38 26.7,39.1 
		27,39.1 27,37.7 26.6,37.7 	"/>
	<path class="st0" d="M39.1,11.5l-1.1-0.6c0-0.3,0.1-0.6,0.1-0.9c0-0.3,0-0.6-0.1-0.9l1.1-0.6c0.7-0.4,1-1.3,0.8-2
		c-0.5-1.2-1-2.1-1.6-2.8c-0.5-0.6-1.4-0.7-2.1-0.3l-1.1,0.6c-0.5-0.4-1-0.7-1.5-0.9V1.8c0-0.8-0.6-1.6-1.4-1.7
		c-1.3-0.2-2.4-0.2-3.3,0c-0.8,0.2-1.3,0.9-1.3,1.7V3C27,3.3,26.5,3.6,26,3.9l-1.1-0.6c-0.7-0.4-1.6-0.3-2.1,0.4
		c-0.8,1-1.3,2-1.6,2.8c-0.2,0.7,0.1,1.6,0.8,2L23,9.1C23,9.4,23,9.7,23,10s0,0.6,0.1,0.9l-1.1,0.6c-0.7,0.4-1,1.3-0.8,2
		c0.4,1,0.9,2,1.6,2.8c0.5,0.6,1.4,0.8,2.1,0.3l1.1-0.6c0.5,0.4,1,0.7,1.5,0.9v1.2c0,0.8,0.6,1.5,1.4,1.7C29.5,20,30,20,30.5,20
		c0.5,0,1.1,0,1.6-0.1c0.8-0.1,1.4-0.8,1.4-1.7V17c0.5-0.2,1.1-0.5,1.5-0.9l1.1,0.6c0.7,0.4,1.6,0.3,2.1-0.3
		c0.7-0.8,1.3-1.8,1.6-2.8C40.2,12.8,39.9,11.9,39.1,11.5z M37,15.1l-2.1-1.2l-0.5,0.4c-0.6,0.5-1.3,0.9-2,1.2l-0.6,0.2v2.4
		c-0.8,0.1-1.6,0.1-2.5,0v-2.4l-0.6-0.2c-0.8-0.3-1.4-0.6-2-1.2l-0.5-0.4l-2.1,1.2c-0.5-0.6-0.9-1.4-1.2-2.1l2.1-1.2l-0.1-0.6
		c-0.1-0.4-0.1-0.8-0.1-1.2c0-0.4,0-0.8,0.1-1.2L25,8.2L22.9,7c0.2-0.6,0.6-1.4,1.2-2.1l2.1,1.2l0.5-0.4c0.6-0.5,1.3-0.9,2-1.2
		l0.6-0.2V1.9c0.7-0.1,1.5-0.1,2.5,0v2.4l0.6,0.2c0.8,0.2,1.4,0.6,2,1.2l0.5,0.4L37,4.9c0.4,0.5,0.9,1.2,1.2,2.1l-2.1,1.2l0.1,0.6
		c0.1,0.4,0.1,0.8,0.1,1.2c0,0.4,0,0.8-0.1,1.2l-0.1,0.6l2.1,1.2C37.9,13.8,37.5,14.5,37,15.1z"/>
	<path class="st0" d="M30.5,6c-2.2,0-4,1.8-4,4s1.8,4,4,4s4-1.8,4-4S32.7,6,30.5,6z M30.5,12.2c-1.2,0-2.2-1-2.2-2.2s1-2.2,2.2-2.2
		c1.2,0,2.2,1,2.2,2.2S31.7,12.2,30.5,12.2z"/>
</g>
</svg>
