<?xml version="1.0" encoding="utf-8"?>
<!-- Generator: Adobe Illustrator 23.0.1, SVG Export Plug-In . SVG Version: 6.00 Build 0)  -->
<svg version="1.1" id="Layer_1" xmlns="http://www.w3.org/2000/svg" xmlns:xlink="http://www.w3.org/1999/xlink" x="0px" y="0px"
	 viewBox="0 0 40 40" style="enable-background:new 0 0 40 40;" xml:space="preserve">
<style type="text/css">
	.st0{fill:#2C2F33;}
</style>
<g>
	<path class="st0" d="M37,20.7c0-0.8-0.4-1.2-1.2-1.2c-0.4,0-0.9,0-1.3,0c-0.3-0.8-0.6-1.5-1-2.4c0.3-0.3,0.7-0.6,1-0.9
		c0.5-0.5,0.5-1.1,0-1.5c-0.4-0.5-0.9-0.9-1.4-1.4c-0.5-0.5-1.1-0.5-1.6,0c-0.3,0.3-0.5,0.5-0.8,0.8c-0.1,0.2-0.3,0.1-0.4,0.1
		c-0.6-0.3-1.2-0.5-1.8-0.8c-0.1,0-0.2-0.2-0.2-0.3c0-0.4,0-0.9,0-1.3c0-0.6-0.4-1-1-1c-0.1,0-0.3,0-0.5,0c0-0.3,0-0.5,0-0.8
		c0-2.4,0-4.9,0-7.3c0-0.9-0.3-1.7-1-2.2c-0.3-0.2-0.7-0.3-1-0.5c-2.9,0-5.8,0-8.7,0c-0.3,0.2-0.5,0.4-0.4,0.8
		c0.1,0.4,0.4,0.4,0.8,0.4c2.5,0,5.1,0,7.6,0c1,0,1.5,0.5,1.5,1.5c0,2.6,0,7.9,0,7.9c-0.5,0.2-0.9,0.3-1.3,0.5c0-0.8,0-3.6,0-4
		c0-0.8-0.4-1.2-1.2-1.2c-1.3,0-2.6,0-3.9,0c-4.1,0-8.3,0-12.4,0c-0.9,0-1.3,0.4-1.3,1.3c0,8.3,0,16.7,0,25c0,0.2,0,0.5,0.1,0.7
		c0.1,0.4,0.5,0.6,0.9,0.7c0.4,0,0.8,0,1.1,0c5.1,0,10.1,0,15.2,0c1.1,0,1.4-0.3,1.5-1.5c0-0.1,0-0.1,0-0.1c0.4,0.1,0.8,0.3,1.3,0.5
		c0,0,0,0.1,0,0.2c0,1.5,0,3.1,0,4.6c0,1-0.5,1.5-1.5,1.5c-6.2,0-12.3,0-18.5,0c-1,0-1.5-0.5-1.5-1.5c0-7.3,0-30.3,0-34.6
		c0-0.8,0.4-1.3,1-1.5c0.2,0,0.4,0,0.5,0c2.4,0,4.9,0,7.3,0c0.1,0,0.2,0,0.2,0c0.3,0,0.6,0,0.8-0.4C14.2,0.4,14,0.2,13.7,0
		C10.9,0,8,0,5.1,0C3.6,0.6,3,1.3,3,2.7c0,11.5,0,23,0,34.6C3,39,4,40,5.7,40c6.1,0,12.2,0,18.3,0c1.7,0,2.7-1,2.8-2.7
		c0-1.5,0-3,0-4.5c0-0.1,0-0.3,0-0.4c0.1,0,0.2,0,0.2,0c0.9,0,1.3-0.4,1.3-1.3c0-0.4,0-0.8,0-1.2c0.8-0.3,1.5-0.6,2.4-1
		c0.3,0.3,0.6,0.6,0.9,0.9c0.6,0.5,1.1,0.6,1.7,0c0.4-0.4,0.9-0.8,1.3-1.3c0.5-0.5,0.5-1.1,0-1.7c-0.3-0.3-0.6-0.6-0.9-0.9
		c0.3-0.8,0.6-1.6,1-2.4c0.4,0,0.8,0,1.3,0c0.8,0,1.2-0.4,1.2-1.3C37,21.8,37,21.2,37,20.7z M10.1,7.1c4.3,0,8.6,0,13,0
		c0,0.8,0,1.6,0,2.5c-4.3,0-8.6,0-13,0C10.1,8.7,10.1,7.9,10.1,7.1z M6.7,7.1c0.7,0,1.4,0,2.2,0c0,0.8,0,1.7,0,2.5
		c-0.7,0-1.4,0-2.2,0C6.7,8.8,6.7,7.9,6.7,7.1z M23.1,32.3c-5.5,0-10.9,0-16.4,0c0-7.2,0-14.3,0-21.5c5.4,0,10.9,0,16.4,0
		c0,0.1,0,0.2,0,0.3c0,0.5,0,1,0,1.4c0,1.1,0,1.1-1.1,1.6c-0.1,0-0.3,0-0.4-0.1c-0.3-0.3-0.6-0.6-0.9-0.8c-0.5-0.4-1.1-0.5-1.5,0
		c-0.3,0.3-0.6,0.6-0.9,0.9c-0.3,0.4-0.6,0.4-1.1,0.4c-2.6,0-5.2,0-7.9,0c-0.1,0-0.3,0-0.4,0c-0.3,0-0.6,0.2-0.6,0.6
		c0,0.3,0.2,0.6,0.6,0.6c0.1,0,0.2,0,0.4,0c2.6,0,5.2,0,7.8,0c0.3,0,0.4,0.1,0.6,0.3c0.2,0.3,0.6,0.6,0.9,0.9
		c0.1,0.1,0.2,0.3,0.2,0.4c-0.1,0.2-0.2,0.4-0.5,0.4c-1.4,0-2.9,0-4.3,0c-1.6,0-3.1,0-4.7,0c-0.2,0-0.3,0-0.5,0.1
		c-0.3,0.1-0.4,0.3-0.4,0.6c0,0.3,0.2,0.5,0.4,0.5c0.2,0,0.3,0,0.5,0c2.7,0,5.5,0,8.2,0c0.2,0,0.3,0,0.5,0c0,0.4-0.1,0.6-0.5,0.5
		c-0.3,0-0.6,0-0.9,0c-0.8,0-1.2,0.4-1.3,1.2c0,0.1,0,0.1,0,0.2c-0.1,0-0.3,0-0.4,0c-1.9,0-3.8,0-5.7,0c-0.2,0-0.3,0-0.5,0
		c-0.3,0.1-0.5,0.3-0.4,0.6c0.1,0.2,0.3,0.4,0.4,0.5c0.1,0.1,0.3,0,0.4,0c1.9,0,3.8,0,5.7,0c0.1,0,0.3,0,0.4,0
		c0.2,1.4,0.3,1.5,1.8,1.5c0.1,0,0.3,0,0.4,0c0.4,0,0.4,0,0.5,0.5c-0.1,0-0.3,0-0.4,0c-2.8,0-5.5,0-8.3,0c-0.1,0-0.3,0-0.4,0
		c-0.3,0-0.4,0.2-0.5,0.5c0,0.3,0.1,0.5,0.4,0.6c0.2,0,0.3,0.1,0.5,0.1c3,0,5.9,0,8.9,0c0.4,0,0.5,0.2,0.6,0.5
		c0,0.1-0.1,0.2-0.1,0.3c-0.3,0.4-0.7,0.8-1,1.1c-0.1,0.1-0.3,0.1-0.4,0.1c-2.6,0-5.2,0-7.9,0c-0.2,0-0.3,0-0.5,0
		c-0.3,0-0.5,0.2-0.5,0.5c0,0.3,0.1,0.5,0.4,0.6c0.2,0,0.3,0,0.5,0c2.7,0,5.4,0,8.1,0c0.3,0,0.5,0.1,0.7,0.3c0.3,0.4,0.7,0.7,1,1
		c0.5,0.5,1.1,0.5,1.6,0c0.3-0.3,0.6-0.7,0.9-1c0.4,0.2,0.8,0.4,1.1,0.5c0.1,0,0.2,0.2,0.2,0.3C23.1,30.5,23.1,31.4,23.1,32.3z
		 M35.8,22.4c-0.5,0-1,0-1.6,0c-0.6,0-0.7,0.1-0.9,0.7c-0.3,0.8-0.6,1.6-1,2.3c-0.3,0.5-0.3,0.7,0.1,1.1c0.4,0.4,0.7,0.7,1.1,1.1
		c-0.4,0.4-0.8,0.8-1.3,1.3c-0.3-0.3-0.7-0.7-1.1-1.1c-0.4-0.4-0.6-0.4-1-0.1c-0.8,0.5-1.6,0.8-2.4,1c-0.5,0.1-0.6,0.3-0.6,0.8
		c0,0.5,0,1.1,0,1.6c-0.6,0-1.2,0-1.8,0c0-0.5,0-1.1,0-1.6c0-0.6-0.1-0.7-0.7-0.9c-0.8-0.3-1.6-0.6-2.3-1c-0.5-0.3-0.7-0.3-1.1,0.1
		c-0.4,0.4-0.7,0.7-1.2,1.2c-0.2-0.3-0.4-0.5-0.6-0.7c-0.2-0.2-0.4-0.4-0.7-0.6c0.4-0.4,0.8-0.8,1.2-1.1c0.4-0.4,0.4-0.6,0.1-1.1
		c-0.5-0.7-0.8-1.5-1-2.4c-0.1-0.5-0.3-0.7-0.8-0.7c-0.5,0-1,0-1.6,0c0-0.3,0-0.6,0-0.9c0-0.3,0-0.6,0-0.9c0.6,0,1.1,0,1.7,0
		c0.5,0,0.7-0.1,0.8-0.6c0.2-0.9,0.5-1.7,1-2.4c0.3-0.4,0.2-0.7-0.1-1c-0.4-0.4-0.7-0.7-1.1-1c0.4-0.4,0.8-0.8,1.3-1.3
		c0.3,0.3,0.6,0.7,1,1.1c0.4,0.4,0.6,0.4,1.1,0.1c0.7-0.5,1.5-0.8,2.4-1c0.5-0.1,0.6-0.3,0.6-0.8c0-0.5,0-1.1,0-1.6
		c0.6,0,1.2,0,1.8,0c0,0.5,0,1,0,1.5c0,0.6,0.1,0.7,0.7,0.9c0.8,0.2,1.6,0.5,2.4,1c0.4,0.3,0.7,0.2,1-0.1c0.4-0.4,0.8-0.8,1.1-1.1
		c0.4,0.4,0.8,0.8,1.3,1.3c-0.4,0.3-0.8,0.7-1.2,1.1c-0.4,0.4-0.4,0.6-0.1,1c0.5,0.8,0.8,1.6,1,2.5c0.1,0.5,0.3,0.6,0.8,0.6
		c0.5,0,1.1,0,1.7,0C35.8,21.2,35.8,21.8,35.8,22.4z"/>
	<path class="st0" d="M16.7,37.9c0.7,0,1.3-0.5,1.3-1.3c0-0.2,0-0.4,0-0.6c0-1-0.5-1.5-1.5-1.5c-0.9,0-1.8,0-2.7,0
		c-1.3-0.1-2,0.4-1.9,2c0.1,0.9,0.6,1.4,1.4,1.4c0.6,0,1.1,0,1.7,0c0,0,0,0,0,0C15.5,37.9,16.1,37.9,16.7,37.9z M13.4,36.7
		c-0.3,0-0.4-0.1-0.4-0.4c0-0.7,0-0.7,0.7-0.7c0.9,0,1.8,0,2.7,0c0.5,0,0.5,0,0.5,0.5c0,0.5,0,0.5-0.5,0.5c-0.5,0-0.9,0-1.4,0
		C14.4,36.7,13.9,36.7,13.4,36.7z"/>
	<path class="st0" d="M13.1,3.6c0,0.3,0.2,0.6,0.6,0.6c0.4,0,1.9,0,2.3,0c0.4,0,0.7-0.2,0.7-0.6c0-0.3-0.2-0.6-0.7-0.6
		c-0.8,0-1.5,0-2.3,0C13.4,3,13.1,3.2,13.1,3.6z"/>
	<path class="st0" d="M23.9,17.9c1.5-1,3.5-1,4.9,0.1c0.8,0.6,1.4,1.4,1.7,2.3c0.1,0.4,0.4,0.6,0.8,0.5c0.3-0.1,0.5-0.4,0.3-0.8
		c-0.8-2.6-3.4-4.3-6.1-3.9c-2.9,0.4-5,3-4.8,5.9c0.2,2.9,2.6,5.2,5.5,5.2c2.3,0,4.4-1.5,5.2-3.6c0.2-0.6,0.2-1-0.2-1.1
		c-0.4-0.1-0.6,0.1-0.9,0.7c-0.7,2-2.8,3.2-4.9,2.8c-1.8-0.3-3.2-1.7-3.5-3.4C21.6,20.7,22.3,18.9,23.9,17.9z"/>
</g>
</svg>
