<?xml version="1.0" encoding="utf-8"?>
<!-- Generator: Adobe Illustrator 23.0.1, SVG Export Plug-In . SVG Version: 6.00 Build 0)  -->
<svg version="1.1" id="Layer_1" xmlns="http://www.w3.org/2000/svg" xmlns:xlink="http://www.w3.org/1999/xlink" x="0px" y="0px"
	 viewBox="0 0 40 40" style="enable-background:new 0 0 40 40;" xml:space="preserve">
<style type="text/css">
	.st0{fill:#3A3A3A;}
</style>
<g>
	<path class="st0" d="M27.2,25.6l-0.8-1.4l1.6-0.4c0.3-0.1,0.6-0.4,0.6-0.7v-2.7c0-0.4-0.2-0.7-0.6-0.7l-1.6-0.4l0.8-1.4
		c0.2-0.3,0.1-0.7-0.1-0.9l-1.9-1.9c-0.1-0.1-0.3-0.2-0.5-0.2c-0.1,0-0.3,0-0.4,0.1l-1.4,0.8l-0.4-1.6c-0.1-0.3-0.4-0.6-0.7-0.6H19
		c-0.4,0-0.7,0.2-0.7,0.6l-0.4,1.6l-1.4-0.8c-0.1-0.1-0.3-0.1-0.4-0.1c-0.2,0-0.4,0.1-0.5,0.2l-1.9,1.9c-0.3,0.3-0.3,0.6-0.1,0.9
		l0.8,1.4l-1.6,0.4c-0.3,0.1-0.6,0.4-0.6,0.7V23c0,0.4,0.2,0.7,0.6,0.7l1.6,0.4l-0.8,1.4c-0.2,0.3-0.1,0.7,0.1,0.9l1.9,1.9
		c0.1,0.1,0.3,0.2,0.5,0.2c0.1,0,0.3,0,0.4-0.1l1.4-0.8l0.4,1.6c0.1,0.3,0.4,0.6,0.7,0.6h2.7c0.4,0,0.7-0.2,0.7-0.6l0.4-1.6l1.4,0.8
		c0.1,0.1,0.3,0.1,0.4,0.1c0.2,0,0.4-0.1,0.5-0.2l1.9-1.9C27.3,26.3,27.4,25.9,27.2,25.6z M21.1,28.3h-1.5l-0.5-1.8
		c-0.1-0.2-0.2-0.4-0.5-0.5c0,0,0,0-0.1,0c0,0-0.1,0-0.1-0.1c-0.1,0-0.2-0.1-0.3-0.1c-0.1,0-0.3,0-0.4,0.1l-1.6,1l-1.1-1.1l1-1.6
		c0.1-0.2,0.1-0.5,0-0.7L16,23.4c-0.1-0.2-0.3-0.4-0.5-0.5l-1.8-0.5v-1.5l1.8-0.5c0.2-0.1,0.4-0.2,0.5-0.5l0.1-0.2
		c0.1-0.2,0.1-0.5,0-0.7l-1-1.6l1.1-1.1l1.6,1c0.1,0.1,0.3,0.1,0.4,0.1c0.1,0,0.2,0,0.3-0.1c0,0,0.2-0.1,0.2-0.1
		c0.2-0.1,0.4-0.3,0.5-0.5l0.5-1.8h1.5l0.5,1.8c0.1,0.2,0.2,0.4,0.5,0.5c0,0,0,0,0.1,0c0,0,0.1,0,0.1,0.1c0.1,0,0.2,0.1,0.3,0.1
		c0.1,0,0.3,0,0.4-0.1l1.6-1l1.1,1.1l-1,1.6c-0.1,0.2-0.1,0.5,0,0.7l0.1,0.2c0.1,0.2,0.3,0.4,0.5,0.5l1.8,0.5l0,1.5l-1.8,0.5
		c-0.2,0.1-0.4,0.2-0.5,0.5c0,0,0,0,0,0.1c0,0,0,0.1-0.1,0.1c-0.1,0.2-0.1,0.5,0,0.7l1,1.6l-1.1,1.1l-1.6-1
		c-0.1-0.1-0.3-0.1-0.4-0.1c-0.1,0-0.2,0-0.3,0.1L22,26c-0.2,0.1-0.4,0.3-0.5,0.5L21.1,28.3z"/>
	<path class="st0" d="M33.9,26.4V4.8c0-0.4-0.3-0.8-0.8-0.8h-3.3V0.8c0-0.4-0.3-0.8-0.8-0.8H0.8C0.3,0,0,0.3,0,0.8v28.3
		c0,0.4,0.3,0.8,0.8,0.8H4v3.3c0,0.4,0.3,0.8,0.8,0.8h21.5c0.4,3.5,3.3,6.1,6.8,6.1h0c0.1,0,0.2,0,0.2,0c3.6-0.1,6.5-3,6.6-6.6
		C40.1,29.8,37.5,26.8,33.9,26.4z M27.9,33.2c0-2.9,2.4-5.3,5.3-5.3c2.9,0,5.3,2.4,5.3,5.3c0,2.9-2.4,5.3-5.3,5.3
		S27.9,36.1,27.9,33.2z M4,6.9v21.4H1.5V6.9H4z M4,4.8v0.6H1.5V1.5h26.8V4H4.8C4.4,4,4,4.4,4,4.8z M5.6,9.4V5.6h26.8v3.9H5.6z
		 M5.6,11h26.8v15.4c-3.2,0.4-5.7,2.9-6,6H5.6V11z"/>
	<rect x="6.7" y="6.7" class="st0" width="1.5" height="1.5"/>
	<rect x="9.4" y="6.7" class="st0" width="1.5" height="1.5"/>
	<rect x="12.1" y="6.7" class="st0" width="1.5" height="1.5"/>
	<rect x="29.7" y="6.7" class="st0" width="1.5" height="1.5"/>
	<path class="st0" d="M37.1,32.6L35,30.5l-1.1,1.1l0.8,0.8h-3l0.8-0.8l-1.1-1.1l-2.1,2.1c-0.3,0.3-0.3,0.8,0,1.1l2.1,2.1l1.1-1.1
		l-0.8-0.8h3l-0.8,0.8l1.1,1.1l2.1-2.1C37.4,33.4,37.4,32.9,37.1,32.6z"/>
	<path class="st0" d="M23.1,21.7c0-1.5-1.3-2.8-2.8-2.8c-1.5,0-2.8,1.3-2.8,2.8c0,1.5,1.3,2.8,2.8,2.8
		C21.9,24.5,23.1,23.2,23.1,21.7z M20.3,22.9c-0.7,0-1.3-0.6-1.3-1.3s0.6-1.3,1.3-1.3c0.7,0,1.3,0.6,1.3,1.3S21,22.9,20.3,22.9z"/>
</g>
</svg>
