<?xml version="1.0" encoding="utf-8"?>
<!-- Generator: Adobe Illustrator 23.0.1, SVG Export Plug-In . SVG Version: 6.00 Build 0)  -->
<svg version="1.1" id="Layer_1" xmlns="http://www.w3.org/2000/svg" xmlns:xlink="http://www.w3.org/1999/xlink" x="0px" y="0px"
	 viewBox="0 0 40 40" style="enable-background:new 0 0 40 40;" xml:space="preserve">
<style type="text/css">
	.st0{fill:#3A3A3A;}
</style>
<g>
	<path class="st0" d="M18.2,38.1c-1.5,0-2.8-1.3-2.8-2.8l0-0.3h3.3c-0.2-0.5-0.5-0.9-0.6-1.4c-0.1-0.2-0.1-0.3-0.1-0.5H2l0-0.3
		c0-0.1,0-0.2,0-0.4c0-0.8,0-1.8,0.9-2.4c2.3-1.5,3.7-3.8,4.4-7.2c0.1-0.7,0.3-1.5,0.4-2.3c0.1-0.8,0.2-1.5,0.4-2.3l0.2-0.8
		c0.3-1.5,0.6-3.1,1.1-4.6c1.1-3.2,3.6-5.1,7.2-5.7C17.1,7,17.6,7,18.2,7h0h0c0.5,0,1.1,0,1.6,0.1c3.7,0.5,6.1,2.4,7.2,5.7
		c0.4,1.3,0.7,2.6,1,3.9c0.5-0.1,1.1-0.1,1.6-0.1c0.1,0,0.2,0,0.3,0c-0.3-1.7-0.7-3.5-1.4-5.1C27.2,8.6,25,6.6,22,5.6l-0.8-0.3
		l0.1-0.3c0.6-2,0.2-3.4-1.1-4.4C19.6,0.3,19,0,18.3,0l-0.1,0c0,0,0,0-0.1,0c0,0-0.1,0-0.1,0v0L18,0c-0.7,0-1.3,0.3-1.8,0.6
		c-1.4,1-1.7,2.4-1.1,4.4l0.1,0.3l-0.8,0.3c-3.1,1-5.3,3-6.5,5.8c-0.8,1.9-1.2,3.9-1.6,5.9l0,0.3c-0.1,0.7-0.2,1.3-0.3,2l0,0
		c-0.1,0.8-0.2,1.5-0.4,2.3c-0.4,2.2-1.2,4.9-4,6.6c-0.5,0.4-0.9,1-1,1.3c-0.5,1.1-0.6,2.3-0.4,3.5c0.2,1.1,0.7,1.5,1.9,1.5
		c2.1,0,11.3,0,11.3,0s0,0.6,0,0.6c0.2,2.1,1.5,3.7,3.4,4.3c0.2,0,0.3,0.1,0.5,0.1l0.2,0.1h1.2l0.2-0.1c0.2,0,0.3-0.1,0.5-0.1
		c1-0.3,1.8-0.9,2.4-1.6c-0.6-0.2-1.2-0.5-1.7-1C19.7,37.8,18.9,38.1,18.2,38.1z M18.2,1.9L18.2,1.9L18.2,1.9c0.8,0,1.5,0.7,1.6,1.5
		c0,0.4-0.1,0.8-0.4,1.2C19,4.9,18.6,5,18.2,5.1c0,0,0,0,0,0h0c0,0,0,0,0,0c-0.4,0-0.8-0.2-1.1-0.5c-0.3-0.3-0.4-0.7-0.4-1.2
		C16.6,2.6,17.3,1.9,18.2,1.9z"/>
	<path class="st0" d="M39.1,30.9l-1.2-0.7l0-0.1c0-0.3,0.1-0.6,0.1-1c0-0.3,0-0.6-0.1-1l0-0.1l1.2-0.7c0.7-0.4,1.1-1.3,0.8-2
		c-0.5-1.3-1.1-2.3-1.8-3.1c-0.3-0.4-0.8-0.6-1.3-0.6c-0.3,0-0.6,0.1-0.9,0.2l-1.3,0.7l-0.1-0.1c-0.5-0.4-1.1-0.7-1.6-1l-0.1,0v-1.4
		c0-0.8-0.6-1.6-1.4-1.7c-0.7-0.1-1.3-0.1-1.9-0.1c-0.6,0-1.2,0.1-1.7,0.2c-0.8,0.2-1.3,0.9-1.3,1.7v1.4l-0.1,0
		c-0.6,0.3-1.1,0.6-1.7,1l-0.1,0.1l-1.3-0.7c-0.3-0.2-0.6-0.2-0.9-0.2c-0.5,0-1,0.2-1.3,0.6c-0.9,1.1-1.4,2.1-1.8,3.1
		c-0.2,0.7,0.1,1.6,0.8,2l1.3,0.7l0,0.1c0,0.3-0.1,0.6-0.1,1c0,0.3,0,0.6,0.1,1l0,0.1l-1.3,0.7c-0.7,0.4-1,1.3-0.8,2
		c0.4,1.1,1,2.1,1.8,3.1c0.3,0.4,0.8,0.6,1.3,0.6c0.3,0,0.6-0.1,0.9-0.2l1.3-0.7l0.1,0.1c0.5,0.4,1.1,0.7,1.7,1l0.1,0v1.4
		c0,0.8,0.6,1.5,1.4,1.7c0.6,0.1,1.2,0.2,1.8,0.2c0.6,0,1.2-0.1,1.8-0.2c0.8-0.1,1.4-0.8,1.4-1.7v-1.4l0.1,0c0.6-0.3,1.1-0.6,1.6-1
		l0.1-0.1l1.3,0.7c0.3,0.2,0.6,0.2,0.9,0.2c0.5,0,0.9-0.2,1.3-0.6c0.8-0.9,1.4-1.9,1.8-3.1C40.1,32.1,39.8,31.3,39.1,30.9z
		 M38.3,32.4c-0.3,0.9-0.8,1.7-1.4,2.4l-0.1,0.1l-2.3-1.3L34.1,34c-0.7,0.6-1.4,1-2.3,1.3l-0.6,0.2v2.7l-0.1,0
		c-0.5,0.1-0.9,0.1-1.4,0.1c-0.5,0-0.9,0-1.4-0.1l-0.1,0v-2.7l-0.6-0.2c-0.8-0.3-1.6-0.7-2.3-1.3L25,33.6l-2.3,1.3l-0.1-0.1
		c-0.6-0.7-1-1.5-1.4-2.4l0-0.1l2.3-1.3l-0.1-0.6c-0.1-0.4-0.1-0.9-0.1-1.3c0-0.4,0-0.9,0.1-1.3l0.1-0.6l-2.3-1.3l0-0.1
		c0.3-0.7,0.7-1.5,1.4-2.4l0.1-0.1l2.3,1.3l0.4-0.4c0.7-0.6,1.4-1,2.3-1.3l0.6-0.2V20l0.1,0c0.4-0.1,0.8-0.1,1.2-0.1
		c0.5,0,1,0,1.5,0.1l0.1,0v2.7l0.6,0.2c0.8,0.3,1.6,0.7,2.3,1.3l0.4,0.4l2.3-1.3l0.1,0.1c0.5,0.6,1,1.4,1.4,2.4l0.1,0.1L36,27.2
		l0.1,0.6c0.1,0.4,0.1,0.9,0.1,1.3s0,0.9-0.1,1.3L36,31l2.3,1.3L38.3,32.4z"/>
	<path class="st0" d="M29.7,24.9c-2.3,0-4.2,1.9-4.2,4.2s1.9,4.2,4.2,4.2s4.2-1.9,4.2-4.2S32,24.9,29.7,24.9z M29.7,31.6
		c-1.4,0-2.6-1.1-2.6-2.6c0-1.4,1.1-2.6,2.6-2.6c1.4,0,2.6,1.1,2.6,2.6C32.3,30.5,31.2,31.6,29.7,31.6z"/>
</g>
</svg>
