<?xml version="1.0" encoding="utf-8"?>
<!-- Generator: Adobe Illustrator 23.0.1, SVG Export Plug-In . SVG Version: 6.00 Build 0)  -->
<svg version="1.1" id="Layer_1" xmlns="http://www.w3.org/2000/svg" xmlns:xlink="http://www.w3.org/1999/xlink" x="0px" y="0px"
	 viewBox="0 0 40 40" style="enable-background:new 0 0 40 40;" xml:space="preserve">
<style type="text/css">
	.st0{fill:#2C2F33;}
</style>
<g>
	<path class="st0" d="M39.2,10.6l-1-0.6c0-0.3,0-0.5,0-0.8c0-0.3,0-0.5,0-0.8l1-0.6c0.7-0.4,1-1.2,0.7-1.9c-0.4-1.1-0.9-2-1.5-2.6
		c-0.5-0.5-1.3-0.7-1.9-0.3l-1,0.6C35,3.3,34.5,3,34,2.8V1.7c0-0.8-0.6-1.4-1.3-1.5c-1.2-0.2-2.2-0.2-3,0c-0.7,0.1-1.2,0.8-1.2,1.5
		v1.1c-0.5,0.2-1,0.5-1.4,0.8l-1-0.6c-0.7-0.4-1.5-0.2-2,0.3c-0.7,0.9-1.2,1.8-1.5,2.6c-0.2,0.7,0.1,1.5,0.7,1.8l1,0.6
		c0,0.3,0,0.5,0,0.8c0,0.3,0,0.5,0,0.8l-1,0.6c-0.7,0.4-1,1.2-0.7,1.9c0.4,1,0.9,1.8,1.5,2.6c0.5,0.6,1.3,0.7,2,0.3l1-0.6
		c0.4,0.3,0.9,0.6,1.4,0.8v1.1c0,0.8,0.5,1.4,1.3,1.5c0.5,0.1,1,0.1,1.5,0.1c0.5,0,1,0,1.5-0.1c0.7-0.1,1.3-0.8,1.3-1.5v-1.1
		c0.5-0.2,1-0.5,1.4-0.8l1,0.6c0.7,0.4,1.5,0.2,2-0.3c0.6-0.8,1.2-1.7,1.5-2.6C40.2,11.8,39.9,11,39.2,10.6z M37.2,14l-1.9-1.1
		l-0.4,0.4c-0.5,0.5-1.2,0.9-1.9,1.1l-0.6,0.2v2.2c-0.8,0.1-1.5,0.1-2.3,0v-2.2l-0.6-0.2c-0.7-0.2-1.3-0.6-1.9-1.1l-0.4-0.4L25.3,14
		c-0.5-0.6-0.9-1.3-1.1-2l1.9-1.1L26,10.3c-0.1-0.4-0.1-0.7-0.1-1.1c0-0.4,0-0.7,0.1-1.1l0.1-0.6l-1.9-1.1c0.2-0.6,0.6-1.3,1.1-2
		l1.9,1.1l0.4-0.4c0.5-0.5,1.2-0.9,1.9-1.1l0.6-0.2V1.7c0.6-0.1,1.4-0.1,2.3,0v2.2L33,4.1c0.7,0.2,1.3,0.6,1.9,1.1l0.4,0.4l1.9-1.1
		c0.4,0.5,0.8,1.1,1.1,2l-1.9,1.1l0.1,0.6c0.1,0.4,0.1,0.7,0.1,1.1c0,0.4,0,0.7-0.1,1.1l-0.1,0.6l1.9,1.1
		C38.1,12.7,37.7,13.4,37.2,14z"/>
	<path class="st0" d="M31.3,5.6c-2,0-3.6,1.6-3.6,3.6s1.6,3.6,3.6,3.6s3.6-1.6,3.6-3.6S33.3,5.6,31.3,5.6z M31.3,11.2
		c-1.1,0-2-0.9-2-2s0.9-2,2-2c1.1,0,2,0.9,2,2S32.4,11.2,31.3,11.2z"/>
	<path class="st0" d="M7.2,35.2c-0.2,0-0.3,0.1-0.5,0.2c-0.1,0.1-0.2,0.3-0.2,0.5c0,0.2,0.1,0.3,0.2,0.5c0.1,0.1,0.3,0.2,0.5,0.2
		c0.2,0,0.3-0.1,0.5-0.2c0.1-0.1,0.2-0.3,0.2-0.5c0-0.2-0.1-0.3-0.2-0.5C7.6,35.2,7.4,35.2,7.2,35.2z"/>
	<path class="st0" d="M11.6,34.6c0,0.3-0.1,0.5-0.2,0.7c-0.1,0.2-0.4,0.2-0.6,0.2c-0.2,0-0.4-0.1-0.6-0.2C10,35.2,9.9,35,9.9,34.8
		h-1c0,0.5,0.2,0.9,0.5,1.3c0.3,0.3,0.8,0.5,1.3,0.5c0.6,0,1-0.2,1.4-0.5c0.3-0.3,0.5-0.8,0.5-1.4v-4.1h-1V34.6z"/>
	<path class="st0" d="M15.5,30.6l-2.1,5.8h1l0.5-1.5h2.1l0.5,1.5h1.1l-2.1-5.8H15.5z M15.3,34.1l0.8-2.4h0.1l0.8,2.4H15.3z"/>
	<polygon class="st0" points="21.5,35.1 21.4,35.1 19.9,30.6 18.8,30.6 20.8,36.4 22,36.4 24,30.6 22.9,30.6 	"/>
	<path class="st0" d="M26.1,30.6l-2.1,5.8h1l0.5-1.5h2.1l0.5,1.5h1.1l-2.1-5.8H26.1z M25.8,34.1l0.8-2.4h0.1l0.8,2.4H25.8z"/>
	<path class="st0" d="M22.5,14.2H6c-0.4,0-0.8,0.4-0.8,1c0,0.5,0.4,1,0.8,1h16.6c0.4,0,0.8-0.4,0.8-1C23.3,14.6,23,14.2,22.5,14.2z"
		/>
	<path class="st0" d="M23.3,19.1c0-0.5-0.4-1-0.8-1H6c-0.4,0-0.8,0.4-0.8,1c0,0.5,0.4,1,0.8,1h16.6C23,20.1,23.3,19.6,23.3,19.1z"/>
	<path class="st0" d="M8.6,22.1c-0.5,0-1,0.4-1,1s0.4,1,1,1h11.4c0.5,0,1-0.4,1-1s-0.4-1-1-1H8.6z"/>
	<path class="st0" d="M30.1,26.8c-0.2,0-0.4,0-0.6,0c-0.2,0-0.3,0-0.5,0c-0.1,0-0.2,0-0.3,0l0-3.7c0-0.8,0-1.6,0-2.4
		c-0.8-0.3-1.4-0.7-1.9-1.3v7.5l-6.1,0c-4.7,0-9.4,0-14.1,0c-0.9,0-1.6,0.2-2,0.6c-0.4,0.4-0.6,1.1-0.6,2c0,1.5,0,3,0,4.5l0,1.8
		c-0.1,0-0.2,0-0.3,0c-0.2,0-0.3,0-0.5,0c-0.2,0-0.4,0-0.6,0c-0.7-0.1-0.7-0.9-0.7-1.2c0-2.9,0-5.8,0-8.7c0-7.5,0-15,0-22.5
		c0-1.1,0.3-1.5,1.4-1.5c3.2,0,6.3,0,9.5,0l4.1,0h0.5c0,0.6,0,1.1,0,1.7c0,1.4,0,2.8,0,4.2c0,1,0.3,1.9,0.9,2.5
		c0.5,0.5,1.2,0.8,2,0.9c0.2-0.7,0.5-1.3,0.9-1.8c0,0,0,0,0,0c-0.2,0-0.4,0-0.6,0c-0.9,0-1.2-0.4-1.2-1.2c0-1.2,0-2.5,0-3.8
		c0-0.4,0-0.7,0-1.1l1.4,1.3c0.2-0.5,0.6-1.1,0.9-1.7c-0.9-0.8-1.7-1.6-2.5-2.3C18.7,0.2,18.3,0,18,0c-2.4,0-4.8,0-7.4,0
		C8.1,0,5.6,0,3.2,0C1.2,0,0,1.2,0,3.2c0,10.4,0,20.9,0,31.3c0,1.9,1.2,3.1,3.1,3.1c0.1,0,0.3,0,0.4,0c0.1,0,0.2,0,0.4,0
		c0,0,0.1,0,0.1,0C4.2,39.3,5,40,6.7,40c1.7,0,3.3,0,5,0l9.9,0l4.6,0c1.2,0,2.4,0,3.6,0c1.7,0,2.6-0.9,2.6-2.5c0-3.1,0-5.7,0-8.3
		C32.4,27.7,31.5,26.8,30.1,26.8z M30.6,37.3c0,0.8,0,0.8-0.8,0.8c-4,0-7.9,0-11.9,0c-3.8,0-7.6,0-11.4,0c-0.7,0-0.8,0-0.8-0.8
		c0-2.7,0-5.3,0-8c0-0.7,0.1-0.7,0.8-0.8c1.9,0,3.8,0,5.7,0l9.1,0c0,0,6.6,0,8.4,0c0.8,0,0.8,0,0.8,0.8
		C30.6,32.1,30.6,34.7,30.6,37.3z"/>
</g>
</svg>
