<?xml version="1.0" encoding="utf-8"?>
<!-- Generator: Adobe Illustrator 23.0.1, SVG Export Plug-In . SVG Version: 6.00 Build 0)  -->
<svg version="1.1" id="Layer_1" xmlns="http://www.w3.org/2000/svg" xmlns:xlink="http://www.w3.org/1999/xlink" x="0px" y="0px"
	 viewBox="0 0 40 40" style="enable-background:new 0 0 40 40;" xml:space="preserve">
<style type="text/css">
	.st0{fill:#3A3A3A;}
</style>
<g>
	<path class="st0" d="M32.9,4.9H12.3c-3.8,0-6.9,3.1-6.9,7v17.7l-2.9,2.6l0-4.2L2.1,11.9c0-4.5,2.8-9.9,10.5-10h15.5
		c1.2,0,2.3,0.4,3.2,1.2c0.1,0.1,0.2,0.2,0.4,0.3c0.2,0.2,0.4,0.3,0.7,0.3c0.3,0,0.5-0.1,0.7-0.3c0.4-0.4,0.4-1,0-1.3
		c-0.2-0.2-0.3-0.3-0.5-0.5c-1.2-1-2.8-1.6-4.4-1.6H12.6C8.7,0.1,5.4,1.4,3.2,3.8c-1.9,2.1-3,5-3,8.1L0.6,28v6.1
		c0,0.4,0.2,0.8,0.6,0.9c0.1,0.1,0.3,0.1,0.4,0.1c0.3,0,0.5-0.1,0.7-0.3l3.1-2.8V39c0,0.4,0.2,0.8,0.6,0.9C6.1,40,6.3,40,6.4,40
		c0.3,0,0.5-0.1,0.7-0.3l6.5-5.9h19.2c3.8,0,6.9-3.1,6.9-7v-15C39.8,8,36.7,4.9,32.9,4.9z M32.9,31.9h-20L7.3,37V11.9
		c0-2.8,2.2-5.1,5-5.1h20.6c2.8,0,5,2.3,5,5.1v15C37.9,29.6,35.6,31.9,32.9,31.9z"/>
	<path class="st0" d="M32.4,15.8c-0.5-1.3-1.1-2.3-1.7-3c-0.3-0.4-0.8-0.6-1.3-0.6c-0.3,0-0.6,0.1-0.9,0.2l-1.1,0.6
		c-0.5-0.4-1-0.7-1.6-0.9v-1.3c0-0.9-0.6-1.7-1.5-1.8C23.5,9,22.9,9,22.3,9c-0.6,0-1.1,0.1-1.6,0.2c-0.8,0.2-1.4,0.9-1.4,1.8v1.3
		c-0.6,0.2-1.1,0.6-1.6,0.9l-1.1-0.6c-0.3-0.2-0.6-0.2-0.9-0.2c-0.5,0-1,0.2-1.4,0.6c-0.8,1.1-1.4,2.1-1.7,3
		c-0.3,0.8,0.1,1.7,0.8,2.1l1.1,0.6c0,0.3-0.1,0.6-0.1,0.9s0,0.6,0.1,0.9l-1.1,0.6c-0.8,0.4-1.1,1.3-0.8,2.2c0.4,1.1,1,2.1,1.7,3
		c0.3,0.4,0.8,0.6,1.3,0.6c0.3,0,0.6-0.1,0.9-0.3l1.1-0.6c0.5,0.4,1,0.7,1.6,0.9v1.3c0,0.9,0.6,1.6,1.5,1.8c0.6,0.1,1.2,0.1,1.7,0.1
		h0c0.6,0,1.2,0,1.7-0.1c0.8-0.1,1.5-0.9,1.5-1.8V27c0.6-0.2,1.1-0.6,1.6-0.9l1.1,0.6c0.3,0.2,0.6,0.3,0.9,0.3c0.5,0,1-0.2,1.3-0.6
		c0.7-0.9,1.3-1.9,1.7-3c0.3-0.8,0-1.7-0.8-2.2l-1.1-0.6c0-0.3,0.1-0.6,0.1-0.9c0-0.3,0-0.6-0.1-0.9l1.1-0.6
		C32.4,17.5,32.7,16.6,32.4,15.8z M23.8,28.2c-0.4,0.1-0.9,0.1-1.3,0.1c-0.5,0-0.9,0-1.3-0.1v-2.5l-0.6-0.2
		c-0.8-0.3-1.5-0.7-2.1-1.2l-0.5-0.5l-0.2,0.1l-2,1.2c-0.6-0.7-1-1.5-1.3-2.3l2.2-1.3l-0.1-0.7c-0.1-0.4-0.1-0.8-0.1-1.2
		c0-0.4,0-0.8,0.1-1.2l0.1-0.7l-2.2-1.3c0.2-0.7,0.7-1.4,1.3-2.2l2.2,1.3l0.5-0.5c0.6-0.6,1.4-1,2.1-1.2l0.6-0.2l0-2.6
		c0.3-0.1,0.7-0.1,1.2-0.1c0.4,0,0.9,0,1.4,0.1v2.5l0.6,0.2c0.8,0.3,1.5,0.7,2.1,1.2l0.5,0.5l2.2-1.3c0.5,0.5,0.9,1.3,1.3,2.2
		l-2.2,1.3l0.1,0.7c0.1,0.4,0.1,0.8,0.1,1.2c0,0.4,0,0.8-0.1,1.2l-0.1,0.7l0.2,0.1l2,1.1c-0.3,0.8-0.8,1.6-1.3,2.3l-2.2-1.3
		l-0.5,0.5c-0.6,0.6-1.3,1-2.1,1.2l-0.6,0.2v0.2L23.8,28.2z"/>
	<path class="st0" d="M26.2,19.6c0-2-1.7-3.7-3.7-3.7c-2,0-3.7,1.7-3.7,3.7c0,2,1.7,3.7,3.7,3.7C24.5,23.3,26.2,21.6,26.2,19.6z
		 M22.5,21.4c-1,0-1.8-0.8-1.8-1.8s0.8-1.8,1.8-1.8s1.8,0.8,1.8,1.8S23.5,21.4,22.5,21.4z"/>
</g>
</svg>
