<?xml version="1.0" encoding="utf-8"?>
<!-- Generator: Adobe Illustrator 23.0.1, SVG Export Plug-In . SVG Version: 6.00 Build 0)  -->
<svg version="1.1" id="Layer_1" xmlns="http://www.w3.org/2000/svg" xmlns:xlink="http://www.w3.org/1999/xlink" x="0px" y="0px"
	 viewBox="0 0 40 40" style="enable-background:new 0 0 40 40;" xml:space="preserve">
<style type="text/css">
	.st0{fill:#2C2F33;}
</style>
<g>
	<path class="st0" d="M38.7,9.7c-0.4-0.2-0.9-0.4-1.5-0.6C37.1,9,37,8.8,36.9,8.7c-0.4-0.5-0.4-1.1,0-1.8c0.2-0.3,0.3-0.6,0.4-0.9
		c0.1-0.2,0.1-0.3,0.2-0.5c0.2-0.5,0-0.9-0.2-1.1l-0.2-0.2c-0.5-0.5-1-1-1.5-1.6c-0.2-0.2-0.4-0.3-0.6-0.3c-0.1,0-0.3,0-0.4,0.1
		c-0.3,0.1-0.6,0.2-0.9,0.3c-0.4,0.2-0.8,0.3-1.3,0.5c-0.1,0-0.1,0-0.2,0c-0.1,0-0.2,0-0.3-0.1l0,0c-0.6-0.2-1-0.5-1.2-1.3
		c-0.1-0.2-0.2-0.5-0.3-0.7c-0.1-0.2-0.2-0.3-0.2-0.5c-0.2-0.5-0.5-0.8-1.1-0.8l-0.1,0c0,0,0,0-0.1,0c0,0-0.1,0-0.1,0l0,0L27,0
		c-1,0-1.3,0.8-1.5,1.4c-0.1,0.2-0.2,0.5-0.3,0.7c-0.1,0.2-0.2,0.4-0.3,0.7c-0.1,0.2-0.2,0.3-0.4,0.4c-0.3,0.2-0.5,0.2-0.8,0.2
		c-0.3,0-0.6-0.1-0.9-0.2c-0.3-0.2-0.6-0.3-0.9-0.4c-0.2-0.1-0.3-0.1-0.5-0.2c-0.2-0.1-0.3-0.1-0.5-0.1c-0.2,0-0.5,0.1-0.6,0.3
		c-0.6,0.6-1.2,1.2-1.8,1.8c-0.2,0.2-0.4,0.6-0.2,1.1c0.1,0.3,0.3,0.6,0.4,0.9c0.2,0.4,0.3,0.8,0.5,1.1c0.1,0.2,0,0.3,0,0.5
		c-0.2,0.6-0.6,1-1.3,1.2c-0.4,0.1-0.7,0.3-1.2,0.5c-0.2,0.1-0.4,0.2-0.6,0.4c-0.1,0.1-0.2,0.1-0.3,0.2h-1.5l0-0.3
		c0-0.4,0-0.8,0-1.2c0-0.5-0.2-0.9-0.5-1.3c-0.1-0.1-0.1-0.2-0.1-0.3c0-2.1,0-4.2,0-6.4c0-0.4-0.2-0.8-0.6-1L13,0H8.5L8.4,0
		C7.9,0.3,7.9,0.8,7.9,1.2c0,2.1,0,4.2,0,6.2c0,0.1-0.1,0.3-0.2,0.4C7.5,8,7.2,8.4,7.2,8.9c0,0.4,0,0.8,0,1.3l0,0.3l-3.3,0
		c-0.8,0-1.5,0-2.3,0c-1.1,0-1.7,0.7-1.7,1.8v25.9C0,39.3,0.7,40,1.8,40l9,0l9,0c1.1,0,1.8-0.7,1.8-1.8l0-16.6
		c0.1,0,0.2-0.1,0.3-0.1c0.3-0.1,0.6-0.2,0.9-0.4c0.4-0.2,0.7-0.3,1-0.3c0.3,0,0.5,0.1,0.8,0.2c0.2,0.1,0.3,0.2,0.4,0.4
		c0.2,0.4,0.3,0.8,0.5,1.2c0.1,0.3,0.2,0.5,0.4,0.8c0.2,0.5,0.6,0.6,0.9,0.6l2.5,0c0.4,0,0.7-0.2,0.9-0.6c0.1-0.2,0.1-0.3,0.2-0.5
		c0.1-0.3,0.3-0.6,0.4-0.9c0.2-0.8,0.6-1.2,1.3-1.3c0.1,0,0.2,0,0.3,0c0.1,0,0.1,0,0.1,0c0.7,0.3,1.5,0.6,2.1,0.8
		c0.2,0.1,0.3,0.1,0.5,0.1c0.3,0,0.5-0.1,0.7-0.3c0,0,1.4-1.4,1.7-1.7c0.4-0.4,0.4-0.8,0.2-1.3c-0.3-0.8-0.6-1.4-0.8-2
		c0-0.1,0-0.2,0-0.4c0.1-0.7,0.6-1.1,1.3-1.3c0.2,0,0.3-0.1,0.5-0.2c0.1,0,0.2-0.1,0.3-0.1C39.1,14.3,40,14,40,13v-1.8
		C40,10.3,39.4,9.9,38.7,9.7z M9.7,7.2V1.8h2.1v5.4H9.7z M12.5,9.1v1.4H9.1V9.1H12.5z M35.4,14.3c-0.2,0.5-0.4,1-0.6,1.5
		c-0.1,0.2-0.1,0.6,0,0.9c0.2,0.7,0.5,1.4,0.8,2l0,0.1c0.1,0.1,0,0.2,0,0.3l0,0c-0.5,0.5-0.7,0.7-0.9,0.7c-0.2,0-0.5-0.1-0.9-0.3
		c-0.5-0.2-1.1-0.5-1.7-0.5c-0.5,0-1,0.2-1.4,0.5c0,0-0.1,0-0.2,0c-0.1,0-0.2,0.1-0.3,0.1l-0.1,0c-0.2,0.1-0.5,0.3-0.6,0.6
		c-0.3,0.7-0.6,1.3-0.9,2c-0.1,0.2-0.1,0.2-0.3,0.2c-0.2,0-0.3,0-0.5,0c-0.6,0-0.6,0-1-1l-0.2-0.4c-0.1-0.3-0.2-0.5-0.4-0.8
		c-0.1-0.4-0.4-0.6-0.8-0.7c-0.2-0.1-0.4-0.2-0.6-0.2c-0.2-0.1-0.5-0.2-0.7-0.3c-0.1,0-0.3-0.1-0.6-0.1c-0.1,0-0.3,0-0.4,0.1
		c-0.7,0.2-1.4,0.5-2,0.8c-0.1,0-0.1,0-0.1,0c0,0-0.1,0-0.2-0.1c-0.8-0.7-0.8-0.7-0.4-1.7l0.1-0.3c0.1-0.3,0.2-0.6,0.4-0.9
		c0.2-0.3,0.1-0.7,0-1c-0.1-0.2-0.2-0.4-0.2-0.6c-0.1-0.2-0.2-0.5-0.3-0.7c-0.1-0.2-0.3-0.5-0.6-0.7c-0.6-0.3-1.3-0.6-1.9-0.8
		l-0.1,0c-0.1-0.1-0.2-0.1-0.2-0.3c0-1.1,0-1.1,1-1.5c0.1,0,0.2-0.1,0.3-0.1c0.3-0.1,0.6-0.2,0.9-0.4c0.2-0.1,0.5-0.4,0.6-0.6
		c0.2-0.5,0.4-0.9,0.6-1.5c0.1-0.3,0.1-0.6,0-0.9c-0.2-0.7-0.6-1.5-0.8-2.1c-0.1-0.1-0.1-0.2,0.1-0.3c0.5-0.5,0.6-0.7,0.9-0.7
		c0.2,0,0.5,0.1,0.9,0.3c0.1,0,0.2,0.1,0.3,0.1C22.7,5,23,5.1,23.3,5.2c0.1,0,0.2,0,0.4,0c0.2,0,0.3,0,0.5-0.1
		c0.5-0.2,1-0.4,1.5-0.6C26,4.5,26.2,4.2,26.3,4c0.3-0.7,0.6-1.3,0.9-2c0.1-0.1,0.1-0.2,0.3-0.2c0.2,0,0.4,0,0.6,0
		c0.5,0,0.5,0,0.9,1C29,2.9,29.1,3,29.1,3.1c0.1,0.3,0.2,0.6,0.4,0.9c0.1,0.2,0.4,0.5,0.6,0.6c0.2,0.1,0.5,0.2,0.7,0.3
		c0.2,0.1,0.4,0.2,0.7,0.3c0.2,0.1,0.4,0.1,0.6,0.1c0.2,0,0.3,0,0.5-0.1c0.3-0.1,0.6-0.3,0.9-0.4c0.4-0.1,0.7-0.3,1.1-0.4
		c0.1,0,0.1,0,0.1,0c0,0,0,0,0.1,0.1c0.2,0.2,0.3,0.3,0.5,0.5c0.1,0.1,0.2,0.2,0.3,0.3c0,0,0,0,0.1,0.1c0,0.1,0,0.1-0.1,0.2
		c-0.1,0.2-0.2,0.4-0.2,0.6c-0.2,0.5-0.4,1-0.6,1.5c-0.1,0.2-0.1,0.6,0,0.9c0.2,0.5,0.4,1,0.6,1.4c0.1,0.1,0.3,0.5,0.6,0.7
		c0.7,0.3,1.3,0.6,2,0.9c0.2,0.1,0.2,0.1,0.2,0.3c0,1.1,0,1.1-0.9,1.5c-0.1,0.1-0.2,0.1-0.4,0.2c-0.3,0.1-0.6,0.3-0.9,0.4
		C35.7,13.8,35.5,14.1,35.4,14.3z M16.5,14.2c0.3,0.1,0.5,0.2,0.8,0.4c0.4,0.2,0.8,0.3,1.2,0.5c0.2,0.1,0.2,0.2,0.4,0.4
		c0.3,0.6,0.3,1.1,0,1.7c-0.1,0.3-0.2,0.5-0.3,0.8c-0.1,0.2-0.1,0.4-0.2,0.6c-0.2,0.4-0.1,0.9,0.2,1.2l0.1,0.2
		c0.3,0.3,0.6,0.7,0.9,1c0.1,0.1,0.1,0.2,0.1,0.2c0,5.4,0,10.8,0,16.3v0.8H1.8V12.4h14l0,0.1c0,0.3,0,0.5,0.1,0.8
		C15.9,13.8,16.1,14.1,16.5,14.2z"/>
	<path class="st0" d="M10.8,13.8c-2.9,0-5.5,2.6-5.5,5.5c0,2.9,2.6,5.5,5.5,5.5h0c2.9,0,5.5-2.6,5.5-5.5c0-1.4-0.6-2.8-1.7-3.9
		C13.6,14.4,12.2,13.8,10.8,13.8z M10.8,15.4v0.2c2.1,0,3.7,1.6,3.7,3.7c0,1-0.4,2-1.1,2.7c-0.7,0.7-1.6,1.1-2.7,1.1
		c-2.1,0-3.7-1.6-3.7-3.7c0-2.1,1.6-3.7,3.7-3.7L10.8,15.4L10.8,15.4z"/>
	<path class="st0" d="M10.8,25.7c-2.9,0-5.5,2.6-5.5,5.5c0,1.4,0.6,2.8,1.6,3.9c1,1.1,2.5,1.7,3.9,1.7h0c2.9,0,5.5-2.6,5.5-5.5
		C16.3,28.3,13.7,25.7,10.8,25.7z M10.8,27.5v-0.2l0,0V27.5c2.2,0,3.7,1.6,3.7,3.7c0,2.1-1.6,3.7-3.7,3.7c-2.1,0-3.7-1.6-3.7-3.7
		c0-1,0.4-2,1-2.7C8.8,27.9,9.7,27.5,10.8,27.5z"/>
	<path class="st0" d="M9.9,18.1c0,0.8,0,1.7,0,2.5c0,0.6,0.4,0.9,0.9,0.9h0c0.5,0,0.9-0.4,0.9-0.9c0-0.3,0-0.6,0-0.9l0-0.8
		c0-0.3,0-0.6,0-0.9c0-0.5-0.4-0.9-0.9-0.9C10.3,17.1,9.9,17.5,9.9,18.1z"/>
	<path class="st0" d="M10.8,33.1c1.1,0,1.9-0.9,1.9-1.9s-0.9-1.9-1.9-1.9s-1.9,0.9-1.9,1.9S9.7,33.1,10.8,33.1z M10.8,31.5
		c-0.2,0-0.4-0.2-0.4-0.4c0-0.2,0.2-0.4,0.4-0.4c0.2,0,0.4,0.2,0.4,0.4C11.1,31.4,11,31.5,10.8,31.5z"/>
	<path class="st0" d="M27.9,6.9c-2.7,0-4.9,2.2-4.9,4.9s2.2,4.9,4.9,4.9s4.9-2.2,4.9-4.9S30.6,6.9,27.9,6.9z M27.9,14.6
		c-1.6,0-2.8-1.3-2.8-2.8c0-1.6,1.3-2.8,2.8-2.8c1.6,0,2.8,1.3,2.8,2.8C30.7,13.4,29.5,14.6,27.9,14.6z"/>
</g>
</svg>
