<?xml version="1.0" encoding="utf-8"?>
<!-- Generator: Adobe Illustrator 23.0.1, SVG Export Plug-In . SVG Version: 6.00 Build 0)  -->
<svg version="1.1" id="Layer_1" xmlns="http://www.w3.org/2000/svg" xmlns:xlink="http://www.w3.org/1999/xlink" x="0px" y="0px"
	 viewBox="0 0 40 40" style="enable-background:new 0 0 40 40;" xml:space="preserve">
<style type="text/css">
	.st0{fill:#3A3A3A;}
</style>
<g>
	<path class="st0" d="M22.3,15.6l-7-4.3c-0.2-0.1-0.5-0.2-0.8,0c-0.2,0.1-0.4,0.4-0.4,0.7v8.6c0,0.3,0.2,0.5,0.4,0.7
		c0.1,0.1,0.3,0.1,0.4,0.1c0.1,0,0.3,0,0.4-0.1l7-4.3c0.2-0.1,0.4-0.4,0.4-0.7S22.5,15.8,22.3,15.6z M15.6,19.2v-5.8l4.8,2.9
		L15.6,19.2z"/>
	<path class="st0" d="M38.4,20.6h-1.7V6.1c0-1.3-1.1-2.3-2.3-2.3H2.3C1.1,3.8,0,4.8,0,6.1v20.4c0,1.3,1.1,2.3,2.3,2.3h22v5.9
		c0,0.9,0.7,1.6,1.6,1.6h12.5c0.9,0,1.6-0.7,1.6-1.6V22.2C40,21.3,39.3,20.6,38.4,20.6z M24.4,22.2v5.1h-22c-0.4,0-0.8-0.4-0.8-0.8
		V6.1c0-0.4,0.4-0.8,0.8-0.8h32.1c0.4,0,0.8,0.4,0.8,0.8v14.5h-9.3C25.1,20.6,24.4,21.3,24.4,22.2z M38.4,34.7H25.9V22.2h12.5V34.7z
		"/>
	<path class="st0" d="M11,24h-7c-0.4,0-0.8,0.3-0.8,0.8s0.3,0.8,0.8,0.8h7c0.4,0,0.8-0.3,0.8-0.8S11.4,24,11,24z"/>
	<path class="st0" d="M13.7,24L13.7,24c-0.4,0-0.8,0.3-0.8,0.8s0.4,0.8,0.8,0.8s0.8-0.3,0.8-0.8S14.2,24,13.7,24z"/>
	<path class="st0" d="M28.4,29.1v4c0,0.4,0.3,0.8,0.8,0.8c0.4,0,0.8-0.4,0.8-0.8v-4c0.9-0.3,1.6-1.2,1.6-2.2c0-1-0.7-1.9-1.6-2.2
		v-0.9c0-0.4-0.4-0.8-0.8-0.8c-0.4,0-0.8,0.4-0.8,0.8v0.9c-0.9,0.3-1.6,1.2-1.6,2.2C26.9,27.9,27.5,28.7,28.4,29.1z M29.2,26.1
		c0.4,0,0.8,0.4,0.8,0.8c0,0.4-0.4,0.8-0.8,0.8c-0.4,0-0.8-0.4-0.8-0.8C28.4,26.4,28.8,26.1,29.2,26.1z"/>
	<path class="st0" d="M33.9,32.2v0.9c0,0.4,0.3,0.8,0.8,0.8c0.4,0,0.8-0.4,0.8-0.8v-0.9C36.4,31.9,37,31,37,30s-0.7-1.9-1.6-2.2v-4
		c0-0.4-0.4-0.8-0.8-0.8c-0.4,0-0.8,0.4-0.8,0.8v4C33,28.1,32.3,29,32.3,30S33,31.9,33.9,32.2z M34.7,29.2c0.4,0,0.8,0.4,0.8,0.8
		s-0.4,0.8-0.8,0.8c-0.4,0-0.8-0.4-0.8-0.8S34.3,29.2,34.7,29.2z"/>
</g>
</svg>
