<?xml version="1.0" encoding="utf-8"?>
<!-- Generator: Adobe Illustrator 22.1.0, SVG Export Plug-In . SVG Version: 6.00 Build 0)  -->
<svg version="1.1" id="Layer_1" xmlns="http://www.w3.org/2000/svg" xmlns:xlink="http://www.w3.org/1999/xlink" x="0px" y="0px"
	 viewBox="0 0 40 40" style="enable-background:new 0 0 40 40;" xml:space="preserve">
<style type="text/css">
	.st0{fill:#626975;}
</style>
<g>
	<path class="st0" d="M9.1,21.4c-0.3-0.3-0.6-0.3-0.9,0c-0.9,0.9-1.8,1.8-2.7,2.7c-0.2,0.2-0.3,0.6,0,0.9c0.9,0.9,1.8,1.8,2.7,2.7
		c0.3,0.3,0.6,0.2,0.9,0c0.3-0.3,0.3-0.6,0-0.9c-0.2-0.2-0.4-0.4-0.5-0.5C8,25.6,7.4,25,6.9,24.5C7.6,23.7,8.3,23,9,22.3
		C9.3,22,9.3,21.6,9.1,21.4z"/>
	<path class="st0" d="M15.4,27.6c0.3,0.3,0.6,0.3,0.9,0c0.9-0.9,1.7-1.7,2.6-2.6c0.3-0.3,0.3-0.7,0-1c-0.4-0.4-0.7-0.7-1.1-1.1
		c-0.5-0.5-1-1-1.6-1.5c-0.2-0.2-0.5-0.3-0.8-0.1c-0.2,0.1-0.4,0.4-0.3,0.7c0,0.1,0.1,0.3,0.3,0.4c0.7,0.7,1.4,1.4,2.1,2.1
		c-0.7,0.7-1.4,1.5-2.2,2.2C15.2,26.9,15.2,27.3,15.4,27.6z"/>
	<path class="st0" d="M13.4,21.6c-0.7,1.8-1.5,3.5-2.2,5.3c-0.1,0.1-0.1,0.3-0.1,0.4c0,0.3,0.3,0.5,0.6,0.5c0.3,0,0.5-0.1,0.6-0.4
		c0.7-1.8,1.5-3.5,2.2-5.3c0-0.1,0-0.1,0-0.2c0.1-0.4-0.2-0.7-0.6-0.7C13.7,21.2,13.5,21.3,13.4,21.6z"/>
	<path class="st0" d="M40,27.6c-0.3-0.8-0.8-1.2-1.7-1.2c-0.1,0-0.1,0-0.2,0c0,0,0,0,0,0c0,0,0,0,0,0c0,0,0,0,0,0c0,0,0,0-0.1,0
		c0,0,0,0,0,0c0,0,0,0,0,0c0,0-0.1,0-0.1-0.1c-0.1-0.3-0.3-0.7-0.4-1.2l0,0c-0.1-0.2-0.2-0.4-0.1-0.4c0-0.1,0.1-0.2,0.3-0.4
		c0.7-0.7,0.7-1.6,0-2.3c-0.3-0.3-0.6-0.6-0.9-0.9c-0.3-0.3-0.7-0.5-1.1-0.5c-0.4,0-0.8,0.2-1.1,0.5c-0.1,0.1-0.2,0.2-0.3,0.4
		c0,0,0,0,0,0l-1.8-0.8c0,0,0-0.1,0-0.1c0-0.1,0-0.3,0-0.4c0-0.9-0.6-1.5-1.5-1.6c-0.2,0-0.5,0-0.7,0c-0.2,0-0.5,0-0.7,0
		c-0.8,0-1.4,0.6-1.5,1.5c0,0.1,0,0.2,0,0.3c0,0.1,0,0.2,0,0.3c0,0-0.1,0.1-0.1,0.1c-0.4,0.2-0.9,0.4-1.4,0.5
		c-0.1,0-0.3,0.1-0.4,0.1c0,0,0,0,0,0c-0.1-0.1-0.2-0.2-0.3-0.3c-0.3-0.3-0.7-0.5-1.1-0.5c-0.4,0-0.8,0.2-1.1,0.5
		c-0.3,0.3-0.5,0.5-0.8,0.8c-0.7,0.8-0.7,1.6,0,2.4c0,0,0,0,0.1,0.1c0.1,0.1,0.1,0.1,0.2,0.2c0.1,0.1,0.1,0.1,0,0.2
		c-0.2,0.3-0.3,0.7-0.5,1.1l0,0c-0.1,0.2-0.1,0.4-0.2,0.4c-0.1,0-0.2,0.1-0.5,0.1c-0.9,0-1.6,0.6-1.6,1.5c0,0.4,0,0.9,0,1.3
		c0,0.9,0.7,1.5,1.6,1.5c0,0,0,0,0.1,0c0,0,0.1,0,0.1,0c0,0,0.1,0,0.1,0c0.1,0,0.1,0,0.2,0c0,0,0.1,0,0.1,0c0.2,0.5,0.4,0.9,0.6,1.4
		c0,0.1,0.1,0.2,0.1,0.3c0,0-0.1,0.1-0.1,0.1c-0.1,0.1-0.3,0.3-0.4,0.4c-0.5,0.6-0.5,1.4,0,2c0.3,0.4,0.7,0.8,1.1,1.1
		c0.3,0.2,0.6,0.4,1,0.4c0.4,0,0.7-0.1,1-0.4c0.1-0.1,0.1-0.1,0.2-0.2c0.1-0.1,0.2-0.2,0.2-0.2c0,0,0.1,0,0.1,0c0,0,0,0,0.1,0
		c0.1,0,0.2,0.1,0.4,0.2c0.2,0.1,0.4,0.2,0.6,0.3c0.6,0.1,0.8,0.4,0.7,0.9c0,0.4,0.1,0.7,0.3,1c0.3,0.3,0.7,0.5,1.1,0.5
		c0.2,0,0.5,0,0.7,0c0.3,0,0.5,0,0.8,0c0.7,0,1.3-0.5,1.4-1.2c0-0.2,0.1-0.5,0-0.7c0-0.2,0-0.2,0.2-0.3c0.3-0.1,0.6-0.2,0.9-0.3
		l0.1,0c0.1,0,0.2-0.1,0.2-0.1c0.1-0.1,0.2-0.1,0.3-0.1c0,0,0,0,0,0c0.1,0,0.2,0.1,0.3,0.2c0.1,0.1,0.1,0.1,0.2,0.2
		c0.3,0.3,0.7,0.4,1.1,0.4c0.4,0,0.7-0.2,1.1-0.4c0.3-0.3,0.6-0.6,0.9-0.9c0.6-0.6,0.6-1.5,0-2.2c-0.1-0.1-0.2-0.2-0.4-0.3
		c0,0,0,0-0.1,0l0.8-1.8c0,0,0,0,0.1,0c0,0,0.1,0,0.1,0c0.1,0,0.2,0,0.2,0c0,0,0,0,0,0c0.8,0,1.4-0.4,1.7-1.2c0,0,0,0,0,0L40,27.6
		C40,27.6,40,27.6,40,27.6z M38.5,29.1c0,0.1,0,0.1,0,0.1c0,0-0.1,0-0.1,0l0,0c-0.1,0-0.3,0-0.4,0c-0.2,0-0.3,0-0.5,0l-0.2,0
		c-0.4,0-0.7,0.2-0.8,0.6c-0.2,0.9-0.5,1.7-1,2.4c-0.2,0.3-0.2,0.7,0.1,1l0,0c0.2,0.2,0.5,0.5,0.7,0.7c0.1,0.1,0.1,0.1,0.1,0.1
		c0,0,0,0.1-0.1,0.1c-0.2,0.2-0.5,0.5-0.7,0.7c-0.1,0.1-0.1,0.1-0.1,0.1c0,0,0,0-0.1-0.1c-0.2-0.2-0.4-0.5-0.7-0.7
		c-0.2-0.2-0.4-0.3-0.6-0.3c-0.1,0-0.3,0.1-0.5,0.2c-0.7,0.4-1.4,0.7-2.3,0.9c-0.5,0.1-0.7,0.3-0.7,0.8c0,0.3,0,0.6,0,0.9
		c0,0.1,0,0.1,0,0.2c0,0-0.1,0-0.1,0c0,0,0,0,0,0c-0.2,0-0.3,0-0.5,0c-0.2,0-0.3,0-0.5,0c0,0,0,0,0,0c-0.1,0-0.1,0-0.1,0
		c0,0,0-0.1,0-0.2c0-0.3,0-0.6,0-0.9c0-0.6-0.2-0.8-0.7-0.9c-0.8-0.2-1.5-0.5-2.2-0.9c-0.2-0.1-0.3-0.2-0.5-0.2
		c-0.2,0-0.4,0.1-0.6,0.3c-0.3,0.3-0.5,0.5-0.7,0.7c0,0-0.1,0.1-0.1,0.1c0,0,0,0-0.1-0.1c-0.3-0.3-0.5-0.5-0.7-0.7
		c-0.1,0-0.1-0.1-0.1-0.1c0,0,0-0.1,0.1-0.1c0.2-0.2,0.4-0.4,0.6-0.6l0.1-0.1c0.4-0.4,0.4-0.7,0.1-1.2c-0.4-0.7-0.7-1.4-0.9-2.2
		c-0.1-0.5-0.4-0.7-0.9-0.7l-0.1,0c-0.1,0-0.3,0-0.4,0c-0.1,0-0.3,0-0.4,0c0,0,0,0,0,0c0,0-0.1,0-0.1,0c0,0,0-0.1,0-0.1
		c0-0.4,0-0.7,0-1c0-0.1,0-0.1,0-0.1c0,0,0.1,0,0.1,0c0,0,0,0,0,0c0.2,0,0.3,0,0.5,0c0.2,0,0.3,0,0.5,0c0.5,0,0.8-0.2,0.9-0.7
		c0.2-0.8,0.5-1.5,0.9-2.2c0.3-0.4,0.2-0.7-0.1-1.1c-0.2-0.2-0.4-0.4-0.7-0.7c-0.1-0.1-0.1-0.1-0.1-0.1c0,0,0,0,0.1-0.1
		c0.2-0.2,0.5-0.5,0.8-0.8c0.1-0.1,0.1-0.1,0.1-0.1c0,0,0,0,0.1,0.1c0.2,0.2,0.5,0.5,0.7,0.7c0.2,0.2,0.4,0.3,0.6,0.3
		c0.1,0,0.3,0,0.5-0.2c0.7-0.5,1.5-0.8,2.3-1c0.4-0.1,0.6-0.4,0.6-0.8c0-0.3,0-0.6,0-1c0-0.1,0-0.1,0-0.2c0,0,0.1,0,0.1,0
		c0,0,0,0,0,0c0.2,0,0.3,0,0.5,0c0.2,0,0.3,0,0.5,0c0,0,0,0,0,0c0,0,0.1,0,0.1,0c0,0,0,0.1,0,0.2c0,0.3,0,0.5,0,0.9
		c0,0.5,0.2,0.8,0.7,0.9c0.8,0.2,1.5,0.5,2.2,0.9c0.2,0.1,0.4,0.2,0.5,0.2c0.3,0,0.5-0.2,0.6-0.3c0.1-0.1,0.2-0.2,0.2-0.2
		c0.1-0.1,0.3-0.3,0.4-0.4c0,0,0.1,0,0.1,0c0,0,0,0,0,0c0.2,0.2,0.5,0.4,0.7,0.7c0,0,0.1,0.1,0.1,0.1c0,0,0,0,0,0c0,0,0,0,0,0
		c0,0-0.1,0.1-0.1,0.1c-0.1,0.1-0.2,0.2-0.3,0.3c-0.1,0.1-0.2,0.2-0.4,0.4c-0.4,0.4-0.4,0.7-0.1,1.1c0.4,0.7,0.7,1.5,0.9,2.2
		c0.1,0.5,0.4,0.7,0.9,0.7c0.2,0,0.3,0,0.5,0c0.2,0,0.3,0,0.4,0c0,0,0,0,0,0c0.1,0,0.1,0,0.1,0c0,0,0,0.1,0,0.1
		C38.5,28.4,38.5,28.8,38.5,29.1z"/>
	<path class="st0" d="M30.1,24.4L30.1,24.4c-1.1,0-2.1,0.4-2.9,1.2c-0.8,0.8-1.2,1.8-1.2,2.9c0,1.1,0.4,2.1,1.2,2.9
		c0.8,0.8,1.8,1.2,2.9,1.2c0,0,0,0,0,0c2.3,0,4.1-1.8,4.1-4.1c0-1.1-0.4-2.1-1.2-2.9C32.2,24.9,31.2,24.5,30.1,24.4z M31.9,30.4
		c-0.5,0.5-1.1,0.7-1.7,0.7c0,0,0,0-0.1,0c-0.7,0-1.4-0.3-1.9-0.8c-0.5-0.5-0.7-1.1-0.7-1.8c0-1.4,1.2-2.5,2.5-2.5c0,0,0,0,0.1,0
		c0.7,0,1.4,0.3,1.9,0.9c0.5,0.5,0.7,1.1,0.7,1.8C32.6,29.3,32.3,29.9,31.9,30.4z"/>
	<path class="st0" d="M2.5,34.3c-0.3,0-0.4-0.1-0.4-0.4c0-5.8,0-11.5,0-17.3c0-0.3,0.1-0.4,0.4-0.4c8.3,0,16.5,0,24.8,0
		c0.1,0,0.2,0,0.3,0c0,0.1,0,0.3,0,0.4c0,0.6,0,1.1,0,1.7c0.7-0.2,1.4-0.3,2.1-0.3c0-1.6,0-3.1,0-4.7c0-0.2,0-0.4,0-0.5
		c-0.1-0.9-0.6-1.5-1.5-1.8c-0.3-0.1-0.7-0.1-1-0.1c-7.8,0-15.6,0-23.4,0c-0.5,0-1.1,0-1.6,0c-0.5,0-1,0.1-1.4,0.5
		c-0.4,0.3-0.6,0.8-0.8,1.3c0,7.3,0,14.6,0,21.9c0.2,0.5,0.4,1,0.9,1.3c0.3,0.2,0.6,0.3,0.9,0.4c6.9,0,13.9,0,20.8,0
		c-0.6-0.6-1.2-1.3-1.7-2.1C14.8,34.3,8.6,34.3,2.5,34.3z M12.7,13.3c0-0.1,0.1-0.1,0.2-0.2c0.1,0,0.2,0,0.3,0c4.7,0,9.4,0,14.1,0
		c0.1,0,0.2,0,0.3,0c0,0.1,0,0.2,0,0.3c0,0.2,0,0.5,0,0.8c-5,0-9.9,0-14.9,0C12.7,13.9,12.7,13.6,12.7,13.3z M10.2,12.6
		c0.6,0,1.1,0.5,1.1,1.1c0,0.6-0.5,1.1-1.1,1.1c-0.6,0-1.1-0.5-1.1-1.1C9.1,13.1,9.6,12.6,10.2,12.6z M6.9,12.6c0.6,0,1.1,0.5,1.1,1
		c0,0.6-0.5,1.1-1.1,1.1c-0.6,0-1.1-0.5-1.1-1.1C5.8,13.1,6.3,12.6,6.9,12.6z M3.7,12.6c0.6,0,1.1,0.5,1.1,1.1
		c0,0.6-0.5,1.1-1.1,1.1c-0.6,0-1.1-0.5-1.1-1.1C2.7,13.1,3.2,12.6,3.7,12.6z"/>
	<path class="st0" d="M7,9.7c0.2,0.1,0.5,0.1,0.8,0.1c0.4,0,0.8,0,1.2,0c0-0.9,0-1.7,0-2.6c0-0.3,0.1-0.4,0.4-0.4
		c8.3,0,16.5,0,24.8,0c0.3,0,0.4,0.1,0.4,0.4c0,4,0,7.9,0,11.9c0.8,0.4,1.5,0.8,2.1,1.3c0-5.7,0-11.4,0-17.1c-0.2-0.5-0.4-1-0.9-1.3
		c-0.3-0.2-0.6-0.3-0.9-0.4c-8.7,0-17.5,0-26.2,0c0,0,0,0-0.1,0C7.4,2,7,2.6,7,3.9c0,1.7,0,3.3,0,5C7,9.2,6.9,9.6,7,9.7z M19.7,3.7
		c0.1,0,0.2,0,0.4,0c4.7,0,9.4,0,14.1,0c0.3,0,0.4,0.1,0.4,0.4c0,0.7,0,0.7-0.7,0.7c-4.6,0-9.2,0-13.8,0c-0.1,0-0.2,0-0.4,0
		C19.7,4.4,19.7,4,19.7,3.7z M17.1,3.1c0.6,0,1.1,0.5,1,1.1c0,0.6-0.5,1-1.1,1c-0.6,0-1.1-0.5-1.1-1.1C16.1,3.6,16.5,3.1,17.1,3.1z
		 M13.9,3.1c0.6,0,1.1,0.5,1.1,1.1c0,0.6-0.5,1.1-1.1,1c-0.6,0-1.1-0.5-1-1.1C12.8,3.6,13.3,3.1,13.9,3.1z M10.7,3.1
		c0.6,0,1,0.5,1,1.1c0,0.6-0.5,1-1.1,1c-0.6,0-1-0.5-1-1.1C9.6,3.6,10.1,3.1,10.7,3.1z"/>
</g>
</svg>
