<svg id="Layer_1" data-name="Layer 1" xmlns="http://www.w3.org/2000/svg" viewBox="0 0 39.45 40"><defs><style>.cls-1{fill:#484D55;}.cls-2{fill:#484D55;}</style></defs><title>Customer role-40</title><path class="cls-1" d="M38.51,13.22l-3.57,1.4a16.09,16.09,0,0,1-4.17,17.22l2,3.39A19.93,19.93,0,0,0,38.51,13.22Z" transform="translate(-0.27)"/><path class="cls-2" d="M28.08,33.88A16.09,16.09,0,0,1,5,26.41l-3.57,1.4A19.92,19.92,0,0,0,30,37.2Z" transform="translate(-0.27)"/><path class="cls-1" d="M12,6.06L10.1,2.74A19.9,19.9,0,0,0,.8,24.45L4.41,23A16.09,16.09,0,0,1,12,6.06Z" transform="translate(-0.27)"/><path class="cls-2" d="M20.19,0a19.86,19.86,0,0,0-7.05,1.29l1.95,3.37a16.08,16.08,0,0,1,18.77,6.77L37.46,10A19.9,19.9,0,0,0,20.19,0Z" transform="translate(-0.27)"/><circle class="cls-2" cx="29" cy="11.43" r="1.33"/><circle class="cls-2" cx="32.46" cy="22.51" r="1.33"/><circle class="cls-2" cx="18.15" cy="33.21" r="1.33"/><circle class="cls-2" cx="7.55" cy="22.51" r="1.33"/><circle class="cls-2" cx="13.93" cy="8.46" r="1.33"/><path class="cls-2" d="M20.46,20.56A1.45,1.45,0,0,1,20,20.48a3.16,3.16,0,0,1-1.9-1.79,1,1,0,0,0-.28-0.35,1.35,1.35,0,0,1-.55-1,1.37,1.37,0,0,1,.42-1.07,0.57,0.57,0,0,0,.06-0.36A2.52,2.52,0,0,1,19,13.56a2.73,2.73,0,0,1,1.57-.34h0a2.43,2.43,0,0,1,1.79.75,2.64,2.64,0,0,1,.72,2,0.38,0.38,0,0,0,.17.38,1,1,0,0,1,.35.83,1.46,1.46,0,0,1-.56,1.13,1,1,0,0,0-.28.35,3.15,3.15,0,0,1-1.89,1.8A1.45,1.45,0,0,1,20.46,20.56Zm0-6.52H20.22a1.68,1.68,0,0,0-1.5,1.77,3.53,3.53,0,0,0,0,.35,3.82,3.82,0,0,1,0,.41v0.24a0.24,0.24,0,0,1-.29.21H18.36a0.36,0.36,0,0,0-.18,0,0.09,0.09,0,0,0,0,.08,0.67,0.67,0,0,0,.22.4,0.42,0.42,0,0,1,.41.38,2.6,2.6,0,0,0,1.09,1.5,1,1,0,0,0,1.15,0,2.69,2.69,0,0,0,1.1-1.57,0.33,0.33,0,0,1,.33-0.31h0c0.17,0,.23-0.08.26-0.36v0a0.11,0.11,0,0,0,0-.09,0.26,0.26,0,0,0-.16,0H22.49l-0.11,0-0.15,0V16.81s0-.34,0-0.48,0-.18,0-0.27a2.93,2.93,0,0,0,0-.57A1.71,1.71,0,0,0,20.43,14Z" transform="translate(-0.27)"/><path class="cls-2" d="M20.23,25.79H16.29a1.48,1.48,0,0,1-1.2-.49,1.4,1.4,0,0,1-.21-1.22,9.64,9.64,0,0,1,.58-1.76,1.55,1.55,0,0,1,.7-0.68c0.4-.2.82-0.37,1.23-0.53h0l0.79-.33a1.32,1.32,0,0,1,.54-0.13,1.22,1.22,0,0,1,.69.24,1.8,1.8,0,0,0,1,.33,2.23,2.23,0,0,0,1.28-.46,0.66,0.66,0,0,1,.39-0.14,0.73,0.73,0,0,1,.28.06L23.26,21c0.45,0.18.9,0.36,1.34,0.55a1.79,1.79,0,0,1,1.09,1.36c0.07,0.32.16,0.65,0.25,1v0l0.12,0.43a1.05,1.05,0,0,1-.13.8,1.31,1.31,0,0,1-.79.61,2.1,2.1,0,0,1-.51.05H20.23ZM22.95,25l1,0h0.78a0.46,0.46,0,0,0,.37-0.16,0.3,0.3,0,0,0,0-.26L25,24c-0.08-.28-0.18-0.64-0.25-1a0.93,0.93,0,0,0-.56-0.71c-0.69-.29-1.33-0.54-1.94-0.78H22.23a0.48,0.48,0,0,0-.22.06,3.14,3.14,0,0,1-1.56.45,3.07,3.07,0,0,1-1.57-.46,0.44,0.44,0,0,0-.19-0.07h0c-0.81.31-1.48,0.57-2.15,0.86a0.63,0.63,0,0,0-.28.33c-0.18.49-.34,1-0.47,1.47a0.54,0.54,0,0,0,0,.47,0.56,0.56,0,0,0,.46.15h1.84L20.5,25h2.44Z" transform="translate(-0.27)"/><rect class="cls-2" x="13.51" y="9.79" width="5.27" height="1.55" rx="0.77" ry="0.77" transform="translate(12.66 -8.46) rotate(47.22)"/><rect class="cls-2" x="24.13" y="11.98" width="5.27" height="1.55" rx="0.6" ry="0.6" transform="translate(56.05 10.42) rotate(150)"/><rect class="cls-2" x="26.77" y="20.33" width="6.28" height="1.81" rx="0.77" ry="0.77" transform="translate(47.35 53.37) rotate(-154.23)"/><rect class="cls-2" x="15.69" y="29.99" width="5.88" height="1.81" rx="0.74" ry="0.74" transform="matrix(0.11, -0.99, 0.99, 0.11, -14.36, 46.09)"/><rect class="cls-2" x="7.42" y="20.33" width="7" height="1.81" rx="0.81" ry="0.81" transform="translate(-6.69 4.82) rotate(-19.35)"/></svg>