<?xml version="1.0" encoding="utf-8"?>
<!-- Generator: Adobe Illustrator 19.2.0, SVG Export Plug-In . SVG Version: 6.00 Build 0)  -->
<svg version="1.1" id="Layer_1" xmlns="http://www.w3.org/2000/svg" xmlns:xlink="http://www.w3.org/1999/xlink" x="0px" y="0px"
	 viewBox="0 0 40 40" style="enable-background:new 0 0 40 40;" xml:space="preserve">
<style type="text/css">
	.st0{fill:#636A75;}
</style>
<g>
	<path class="st0" d="M35,34.2H5c-2.7,0-5-2.2-5-5V11.6c0-2.7,2.2-5,5-5H35c2.7,0,5,2.2,5,5V26c0,0.6-0.5,1.1-1.1,1.1
		c-0.6,0-1.1-0.5-1.1-1.1V11.6c0-1.5-1.2-2.8-2.8-2.8H5c-1.5,0-2.8,1.2-2.8,2.8v17.6C2.2,30.7,3.4,32,5,32H35c0.6,0,1.1,0.5,1.1,1.1
		C36.1,33.7,35.6,34.2,35,34.2L35,34.2z M35,34.2"/>
	<path class="st0" d="M12,38.2H5.1c-1.3,0-2.4-1.1-2.4-2.4v-2.7c0-0.6,0.5-1.1,1.1-1.1h9.4c0.6,0,1.1,0.5,1.1,1.1v2.7
		C14.4,37.1,13.3,38.2,12,38.2L12,38.2z M4.9,34.2v1.6C4.9,35.9,5,36,5.1,36H12c0.1,0,0.2-0.1,0.2-0.2v-1.6H4.9z M4.9,34.2"/>
	<path class="st0" d="M34.9,38.2H28c-1.3,0-2.4-1.1-2.4-2.4v-2.7c0-0.6,0.5-1.1,1.1-1.1h9.4c0.6,0,1.1,0.5,1.1,1.1v2.7
		C37.3,37.1,36.2,38.2,34.9,38.2L34.9,38.2z M27.8,34.2v1.6c0,0.1,0.1,0.2,0.2,0.2h6.8c0.1,0,0.2-0.1,0.2-0.2v-1.6H27.8z M27.8,34.2
		"/>
	<path class="st0" d="M32,8.8H8c-0.6,0-1.1-0.5-1.1-1.1V4.6c0-1.5,1.2-2.7,2.7-2.7h20.8c1.5,0,2.7,1.2,2.7,2.7v3.2
		C33.1,8.3,32.6,8.8,32,8.8L32,8.8z M9.1,6.6h21.8V4.6c0-0.3-0.2-0.5-0.5-0.5H9.6C9.3,4,9.1,4.3,9.1,4.6V6.6z M9.1,6.6"/>
	<g>
		<path class="st0" d="M6.3,24.7v-3.3l0.3-0.3l0.8,0.8v2.4L6.3,24.7z M11.1,25.6H6.9c-0.3-0.1-0.5-0.3-0.6-0.6l1-0.4h3.4L11.1,25.6z
			 M10.4,17.5h-3l-1-0.4c0.1-0.3,0.3-0.5,0.6-0.6h3.8L10.4,17.5z M10.6,20.5l0.5,0.5l-0.5,0.5H7.3L6.8,21l0.5-0.5H10.6z M10.6,20.1
			v-2.7l0.4-1c0.3,0.1,0.5,0.3,0.6,0.6v3.6l-0.3,0.3L10.6,20.1z"/>
		<path class="st0" d="M13.9,17.3v2.8l-0.8,0.8l-0.3-0.3v-3.7L13.9,17.3z M17.2,20.5l0.5,0.5l-0.5,0.5h-3.3L13.4,21l0.5-0.5H17.2z
			 M17.2,20.1v-2.7l0.4-1c0.3,0.1,0.5,0.3,0.6,0.6v3.6L18,20.9L17.2,20.1z M18,21.1l0.3,0.3v3.6c-0.1,0.3-0.3,0.5-0.6,0.6l-0.4-1
			v-2.7L18,21.1z"/>
		<path class="st0" d="M20.5,19.5h-1v-1h1V19.5z M20.5,23.5h-1v-1h1V23.5z"/>
		<path class="st0" d="M22.8,17.7v2.4L22,20.9l-0.3-0.3v-3.3L22.8,17.7z M21.8,24.7v-3.3l0.3-0.3l0.8,0.8v2.4L21.8,24.7z M26.2,25.6
			h-3.8c-0.3-0.1-0.5-0.3-0.6-0.6l1-0.4h3L26.2,25.6z M25.8,17.5h-3l-1-0.4c0.1-0.3,0.3-0.5,0.6-0.6h3.8L25.8,17.5z M26.1,20.1v-2.7
			l0.4-1c0.3,0.1,0.5,0.3,0.6,0.6v3.6l-0.3,0.3L26.1,20.1z M26.9,21.1l0.3,0.3v3.6c-0.1,0.3-0.3,0.5-0.6,0.6l-0.4-1v-2.7L26.9,21.1z
			"/>
		<path class="st0" d="M29.4,17.7v2.4l-0.8,0.8l-0.3-0.3v-3.3L29.4,17.7z M28.4,24.7v-3.3l0.3-0.3l0.8,0.8v2.4L28.4,24.7z
			 M32.8,25.6H29c-0.3-0.1-0.5-0.3-0.6-0.6l1-0.4h3L32.8,25.6z M32.4,17.5h-3l-1-0.4c0.1-0.3,0.3-0.5,0.6-0.6h3.8L32.4,17.5z
			 M32.7,20.1v-2.7l0.4-1c0.3,0.1,0.5,0.3,0.6,0.6v3.6l-0.3,0.3L32.7,20.1z M33.4,21.1l0.3,0.3v3.6c-0.1,0.3-0.3,0.5-0.6,0.6l-0.4-1
			v-2.7L33.4,21.1z"/>
	</g>
</g>
</svg>
