<?xml version="1.0" encoding="utf-8"?>
<!-- Generator: Adobe Illustrator 18.0.0, SVG Export Plug-In . SVG Version: 6.00 Build 0)  -->
<!DOCTYPE svg PUBLIC "-//W3C//DTD SVG 1.1//EN" "http://www.w3.org/Graphics/SVG/1.1/DTD/svg11.dtd">
<svg version="1.1" id="Layer_1" xmlns="http://www.w3.org/2000/svg" xmlns:xlink="http://www.w3.org/1999/xlink" x="0px" y="0px"
	 viewBox="0 0 380 380" enable-background="new 0 0 380 380" xml:space="preserve">
<g>
	<circle fill="#FFFFFF" cx="299.7" cy="290.3" r="12.5"/>
	<path fill="#FFFFFF" d="M357.6,330.9l-10-14.6c1.8-3.3,3.2-6.7,4.3-10.3l17.5-3.3c1.6-0.3,2.9-1.9,2.9-3.6v-17.6
		c0-1.7-1.3-3.3-2.9-3.6l-17.5-3.3c-1.1-3.5-2.5-6.9-4.2-10.1l10.1-14.8c0.9-1.4,0.7-3.4-0.4-4.6l-12.5-12.5
		c-1.2-1.2-3.2-1.4-4.6-0.4l-14.8,10.1c-3.3-1.8-6.8-3.2-10.4-4.3l-3.3-17.4c-0.3-1.6-1.9-3-3.6-3h-17.6c-1.7,0-3.2,1.3-3.6,3
		l-3.3,17.6c-3.5,1.1-6.9,2.5-10,4.2l-14.6-10c-1.4-0.9-3.4-0.7-4.6,0.4l-12.5,12.5c-1.2,1.2-1.4,3.2-0.4,4.6l10.1,14.7
		c-1.7,3.2-3.1,6.5-4.1,10l-17.5,3.3c-1.6,0.3-2.9,1.9-2.9,3.6v17.6c0,1.7,1.3,3.2,2.9,3.6l17.5,3.3c1.1,3.6,2.5,7,4.2,10.2
		l-9.9,14.5c-0.9,1.4-0.7,3.4,0.4,4.6l12.5,12.5c1.2,1.2,3.2,1.4,4.6,0.4l14.5-9.9c3.1,1.7,6.4,3.1,9.9,4.1l3.3,17.6
		c0.3,1.6,1.9,2.9,3.6,2.9h17.6c1.7,0,3.2-1.3,3.6-2.9l3.3-17.4c3.6-1.1,7.1-2.5,10.3-4.2l14.7,10.1c1.4,0.9,3.4,0.7,4.6-0.4
		l12.5-12.5C358.4,334.3,358.6,332.3,357.6,330.9z M299.7,320.6c-16.7,0-30.3-13.6-30.3-30.3c0-16.7,13.6-30.3,30.3-30.3
		c16.7,0,30.3,13.6,30.3,30.3C330,307,316.5,320.6,299.7,320.6z"/>
	<path fill="#FFFFFF" d="M37.6,233.6c15.2,0,27.6-12.3,27.6-27.6c0-3-0.5-6-1.4-8.7L94,181.2c4.8,4.1,11.1,6.7,17.9,6.7
		c15.2,0,27.6-12.3,27.6-27.6c0-2.5-0.4-4.9-1-7.2l0.7-0.5l34.5-27.8l0.2-0.1c4.1,2.4,8.9,3.8,14,3.8c7.9,0,15.1-3.4,20.1-8.7
		l26.7,0.3c2.4,10.6,13.6,23.5,27.1,23.5c15.2,0,27.6-12.3,27.6-27.6c0-2.8-0.4-5.5-1.2-8l36.3-28l-0.2-0.3
		c4.2,2.6,9.1,4.1,14.4,4.1c15.2,0,27.6-12.3,27.6-27.6S354,28.7,338.7,28.7c-15.2,0-27.6,12.3-27.6,27.6c0,2.1,0.2,4.1,0.7,6
		l-0.4-0.5L274,91.5c-3.7-1.9-7.9-2.9-12.3-2.9c-9.6,0-18.1,4.9-23,12.4l-0.3,0.1h-23c0-15.2-12.3-27.6-27.6-27.6
		c-15.2,0-27.6,12.3-27.6,27.6c0,2.9,0.4,5.6,1.2,8.2h-0.2l-34.9,27.6c-4.2-2.6-9.2-4.1-14.5-4.1c-15.2,0-27.6,12.3-27.6,27.6
		c0,1.8,0.2,3.5,0.5,5.2l-32.3,17.5c-4.3-2.8-9.5-4.5-15-4.5C22.4,178.5,10,190.8,10,206S22.4,233.6,37.6,233.6z"/>
	<path fill="#FFFFFF" d="M58.2,241.1h-37c-7.4,0-13.5,6.1-13.5,13.5v94.8c0,7.4,6.1,13.5,13.5,13.5h37c7.4,0,13.5-6.1,13.5-13.5
		v-94.8C71.7,247.2,65.6,241.1,58.2,241.1z"/>
	<path fill="#FFFFFF" d="M133.4,209.1h-37c-7.4,0-13.5,6.1-13.5,13.5v126.8c0,7.4,6.1,13.5,13.5,13.5h37c7.4,0,13.5-6.1,13.5-13.5
		V222.6C146.8,215.2,140.8,209.1,133.4,209.1z"/>
	<path fill="#FFFFFF" d="M208.5,164.7h-37c-7.4,0-13.5,6.1-13.5,13.5v171.2c0,7.4,6.1,13.5,13.5,13.5h37c7.4,0,13.5-6.1,13.5-13.5
		v-33.9c-5.9-3.2-9.8-9.4-9.8-16.4v-17.6c0-7,3.9-13.2,9.8-16.4v-87C222,170.7,215.9,164.7,208.5,164.7z"/>
	<path fill="#FFFFFF" d="M246.7,192c-7.4,0-13.5,6.1-13.5,13.5V233l10.7-10.7c3.4-3.4,8.2-5.4,13.2-5.4c3.8,0,7.4,1.1,10.5,3.2
		l3.8,2.6l0.9-4.7c1.7-8.8,9.4-15.2,18.3-15.2h6.3c-1.3-6.1-6.7-10.7-13.2-10.7H246.7z"/>
	<path fill="#FFFFFF" d="M271.5,358.1l-3.6,2.5c-1.5,1-3.1,1.8-4.8,2.3h9.3c0-0.1,0-0.1,0-0.2L271.5,358.1z"/>
	<path fill="#FFFFFF" d="M233.2,347.4v2c0,7.4,6.1,13.5,13.5,13.5h5c-2.8-0.9-5.4-2.4-7.5-4.5L233.2,347.4z"/>
	<path fill="#FFFFFF" d="M367.4,262.3l4.7,0.9c0.1,0,0.1,0,0.2,0V254c-0.5,1.5-1.2,2.9-2.1,4.2L367.4,262.3z"/>
	<path fill="#FFFFFF" d="M358.8,134.2h-37c-7.4,0-13.5,6.1-13.5,13.5v55c8.9,0,16.6,6.4,18.3,15.2l0.9,4.9l4.4-3
		c3.1-2.1,6.7-3.2,10.5-3.2c4.9,0,9.8,2,13.2,5.4l12.5,12.5c2,2,3.4,4.4,4.3,6.9v-93.7C372.3,140.3,366.2,134.2,358.8,134.2z"/>
	<path fill="#FFFFFF" d="M327.5,357.9l-0.9,4.8c0,0.1,0,0.1,0,0.2h9.3c-1.5-0.5-2.8-1.2-4.1-2.1L327.5,357.9z"/>
	<path fill="#FFFFFF" d="M367.2,318.4l2.8,4.1c1,1.5,1.8,3.1,2.3,4.7v-9.7c0,0-0.1,0-0.1,0L367.2,318.4z"/>
	<path fill="#FFFFFF" d="M355.3,358.6c-1.9,1.9-4.3,3.4-6.9,4.3h10.4c7.4,0,13.5-6.1,13.5-13.5v-10.6c-0.9,2.7-2.4,5.2-4.5,7.4
		L355.3,358.6z"/>
</g>
</svg>
