<svg id="Layer_1" data-name="Layer 1" xmlns="http://www.w3.org/2000/svg" viewBox="0 0 37.58 40"><defs><style>.cls-1{fill:#484D55;}.cls-2{fill:#484D55;}</style></defs><title>manage sites groups_White-40</title><path class="cls-1" d="M38,9.92" transform="translate(-1.21)"/><path class="cls-2" d="M30.17,11.29" transform="translate(-1.21)"/><path class="cls-2" d="M38,7.69a1,1,0,0,0-.83-0.88L36,6.63a6.67,6.67,0,0,0-.58-1.4l0.7-1a1,1,0,0,0,0-1.22A8.78,8.78,0,0,0,35,2a1,1,0,0,0-1.21,0l-1,.7A6.69,6.69,0,0,0,31.45,2L31.27,0.87A1,1,0,0,0,30.39,0c-0.26,0-.52,0-0.78,0s-0.53,0-.79,0a1,1,0,0,0-.88.83L27.76,2a6.69,6.69,0,0,0-1.4.58l-1-.7a1,1,0,0,0-.59-0.19,1,1,0,0,0-.63.23,8.66,8.66,0,0,0-1.11,1.11,1,1,0,0,0,0,1.21l0.7,1a6.62,6.62,0,0,0-.58,1.4L22,6.81a1,1,0,0,0-.83.88,8.66,8.66,0,0,0,0,1.57,1,1,0,0,0,.83.88l1.17,0.18a6.6,6.6,0,0,0,.58,1.4l-0.7,1a1,1,0,0,0,0,1.22A8.79,8.79,0,0,0,24.2,15a1,1,0,0,0,.62.22A1,1,0,0,0,25.41,15l1-.7a6.63,6.63,0,0,0,1.4.58l0.18,1.17a1,1,0,0,0,.88.83c0.26,0,.52,0,0.78,0s0.53,0,.79,0a1,1,0,0,0,.88-0.83l0.18-1.17a6.65,6.65,0,0,0,1.4-.58l1,0.7a1,1,0,0,0,.59.19A1,1,0,0,0,35,15a8.64,8.64,0,0,0,1.11-1.11,1,1,0,0,0,0-1.21l-0.7-1a6.66,6.66,0,0,0,.58-1.4l1.17-.18A1,1,0,0,0,38,9.26,8.66,8.66,0,0,0,38,7.69Zm-0.78,1.5a0.21,0.21,0,0,1-.17.18l-1.42.22a0.39,0.39,0,0,0-.32.29,5.86,5.86,0,0,1-.69,1.66,0.39,0.39,0,0,0,0,.44l0.85,1.16a0.21,0.21,0,0,1,0,.25,7.88,7.88,0,0,1-1,1,0.21,0.21,0,0,1-.13,0,0.21,0.21,0,0,1-.12,0l-1.16-.85a0.39,0.39,0,0,0-.44,0,5.87,5.87,0,0,1-1.66.69,0.39,0.39,0,0,0-.29.32L30.5,16a0.2,0.2,0,0,1-.18.17c-0.23,0-.48,0-0.72,0s-0.47,0-.71,0A0.21,0.21,0,0,1,28.71,16L28.5,14.54a0.39,0.39,0,0,0-.29-0.32,5.87,5.87,0,0,1-1.66-.69,0.39,0.39,0,0,0-.2-0.06,0.4,0.4,0,0,0-.23.08l-1.16.85a0.2,0.2,0,0,1-.12,0,0.2,0.2,0,0,1-.13,0,7.9,7.9,0,0,1-1-1,0.21,0.21,0,0,1,0-.25L24.54,12a0.39,0.39,0,0,0,0-.44,5.85,5.85,0,0,1-.69-1.66,0.39,0.39,0,0,0-.32-0.29l-1.42-.22a0.2,0.2,0,0,1-.17-0.18,7.81,7.81,0,0,1,0-1.42,0.21,0.21,0,0,1,.17-0.18l1.43-.22a0.39,0.39,0,0,0,.32-0.29,5.86,5.86,0,0,1,.69-1.66,0.39,0.39,0,0,0,0-.44L23.68,3.81a0.2,0.2,0,0,1,0-.25,7.88,7.88,0,0,1,1-1,0.21,0.21,0,0,1,.13,0,0.21,0.21,0,0,1,.12,0L26.1,3.4a0.39,0.39,0,0,0,.23.08,0.39,0.39,0,0,0,.2-0.06,5.88,5.88,0,0,1,1.66-.69,0.39,0.39,0,0,0,.29-0.32L28.71,1A0.2,0.2,0,0,1,28.89.82c0.24,0,.48,0,0.72,0s0.47,0,.71,0A0.21,0.21,0,0,1,30.5,1l0.22,1.42a0.39,0.39,0,0,0,.29.32,5.87,5.87,0,0,1,1.66.69,0.39,0.39,0,0,0,.2.06,0.39,0.39,0,0,0,.23-0.08l1.16-.85a0.21,0.21,0,0,1,.12,0,0.2,0.2,0,0,1,.13,0,7.88,7.88,0,0,1,1,1,0.21,0.21,0,0,1,0,.25L34.68,5a0.39,0.39,0,0,0,0,.43,5.87,5.87,0,0,1,.69,1.66,0.39,0.39,0,0,0,.32.29l1.42,0.22a0.2,0.2,0,0,1,.17.18A7.81,7.81,0,0,1,37.27,9.18Z" transform="translate(-1.21)"/><path class="cls-2" d="M29.61,5.74a2.74,2.74,0,1,0,2.74,2.74A2.74,2.74,0,0,0,29.61,5.74Zm0,4.69a2,2,0,1,1,2-2A2,2,0,0,1,29.61,10.43Z" transform="translate(-1.21)"/><path class="cls-2" d="M28.17,4.51a0.39,0.39,0,0,0-.39-0.34H27.73a3,3,0,0,0-2.42,2.41,0.39,0.39,0,0,0,.32.45H25.7a0.39,0.39,0,0,0,.39-0.33,2.11,2.11,0,0,1,1.75-1.76A0.39,0.39,0,0,0,28.17,4.51Z" transform="translate(-1.21)"/><path class="cls-2" d="M11.34,30.55c0.57,0.67,1.15,1.31,1.76,2l0.78,0.86,0.21,0.24,0.2-.24,0.78-.92c0.59-.7,1.15-1.36,1.7-2A28.74,28.74,0,0,0,18.52,28a4.54,4.54,0,0,0,.67-3.07,5.2,5.2,0,0,0-3.78-4.33A5.14,5.14,0,0,0,10,22.49a5.27,5.27,0,0,0-.19,6A17.22,17.22,0,0,0,11.34,30.55Zm-0.93-7.73a4.58,4.58,0,0,1,4.86-1.69A4.64,4.64,0,0,1,18.65,25a4,4,0,0,1-.59,2.7,28.13,28.13,0,0,1-1.72,2.36c-0.54.68-1.1,1.34-1.69,2l-0.58.68-0.57-.63c-0.61-.67-1.18-1.3-1.75-2a16.73,16.73,0,0,1-1.51-2A4.73,4.73,0,0,1,10.41,22.82ZM14,28.4h0A2.71,2.71,0,0,0,16,23.78,2.55,2.55,0,0,0,14.17,23h0a2.7,2.7,0,0,0-2,4.59A2.6,2.6,0,0,0,14,28.4Zm0.14-4.85h0a2,2,0,0,1,1.42.62,2.18,2.18,0,0,1,.63,1.53,2.14,2.14,0,0,1-.64,1.52,2.17,2.17,0,0,1-1.53.62h0a2.05,2.05,0,0,1-1.45-.65,2.17,2.17,0,0,1-.62-1.52A2.14,2.14,0,0,1,14.15,23.55ZM20,32.95a2.62,2.62,0,0,0-.63-0.43,9.5,9.5,0,0,0-3-.76,0.48,0.48,0,0,0-.56.33c0.51,0.06,1,.1,1.54.2a6.32,6.32,0,0,1,1.33.4c0.45,0.2.46,0.58,0.05,0.86a3.08,3.08,0,0,1-.75.36,12.11,12.11,0,0,1-3.5.53,15.57,15.57,0,0,1-4.36-.39,2.8,2.8,0,0,1-1.3-.59A0.4,0.4,0,0,1,9,32.76a1.94,1.94,0,0,1,.65-0.29c0.82-.16,1.64-0.29,2.49-0.43-0.09-.08-0.19-0.18-0.3-0.26a0.25,0.25,0,0,0-.18,0C10.83,31.89,10,32,9.21,32.22a3.14,3.14,0,0,0-1.31.64,0.66,0.66,0,0,0,0,1.16,4.1,4.1,0,0,0,1,.52,13.94,13.94,0,0,0,4.37.71,19.53,19.53,0,0,0,3.44-.17,9.3,9.3,0,0,0,2.46-.61A3.66,3.66,0,0,0,20,33.92,0.59,0.59,0,0,0,20,32.95Z" transform="translate(-1.21)"/><path class="cls-2" d="M24.51,28.41c0.57,0.67,1.15,1.31,1.76,2l0.78,0.86,0.21,0.24,0.2-.24,0.78-.92c0.59-.7,1.15-1.36,1.7-2a28.72,28.72,0,0,0,1.75-2.41,4.54,4.54,0,0,0,.67-3.07,5.2,5.2,0,0,0-3.78-4.33,5.14,5.14,0,0,0-5.44,1.89,5.27,5.27,0,0,0-.19,6A17.22,17.22,0,0,0,24.51,28.41Zm-0.93-7.73A4.58,4.58,0,0,1,28.44,19a4.64,4.64,0,0,1,3.38,3.87,4,4,0,0,1-.59,2.7,28.15,28.15,0,0,1-1.72,2.36c-0.54.68-1.1,1.34-1.69,2l-0.58.68L26.68,30c-0.61-.67-1.18-1.3-1.75-2a16.74,16.74,0,0,1-1.51-2A4.73,4.73,0,0,1,23.58,20.68Zm3.6,5.58h0a2.71,2.71,0,0,0,1.93-4.62,2.55,2.55,0,0,0-1.81-.79h0a2.7,2.7,0,0,0-2,4.59A2.6,2.6,0,0,0,27.19,26.26Zm0.14-4.85h0a2,2,0,0,1,1.42.62,2.18,2.18,0,0,1,.63,1.53,2.14,2.14,0,0,1-.64,1.52,2.17,2.17,0,0,1-1.53.62h0a2.05,2.05,0,0,1-1.45-.65,2.17,2.17,0,0,1-.62-1.52A2.14,2.14,0,0,1,27.33,21.41Zm5.89,9.4a2.62,2.62,0,0,0-.63-0.43,9.5,9.5,0,0,0-3-.76,0.48,0.48,0,0,0-.56.33c0.51,0.06,1,.1,1.54.2a6.32,6.32,0,0,1,1.33.4c0.45,0.2.46,0.58,0.05,0.86a3.08,3.08,0,0,1-.75.36,12.11,12.11,0,0,1-3.5.53,15.57,15.57,0,0,1-4.36-.39,2.8,2.8,0,0,1-1.3-.59,0.4,0.4,0,0,1,.05-0.7,1.94,1.94,0,0,1,.65-0.29c0.82-.16,1.64-0.29,2.49-0.43-0.09-.08-0.19-0.18-0.3-0.26a0.25,0.25,0,0,0-.18,0c-0.81.15-1.62,0.29-2.42,0.48a3.14,3.14,0,0,0-1.31.64,0.66,0.66,0,0,0,0,1.16,4.11,4.11,0,0,0,1,.52,14,14,0,0,0,4.37.71,19.53,19.53,0,0,0,3.44-.17,9.31,9.31,0,0,0,2.46-.61,3.66,3.66,0,0,0,.87-0.53A0.59,0.59,0,0,0,33.22,30.81Z" transform="translate(-1.21)"/><path class="cls-2" d="M11.34,15.3c0.57,0.67,1.15,1.31,1.76,2l0.78,0.86,0.21,0.24,0.2-.24,0.78-.92c0.59-.7,1.15-1.36,1.7-2a28.73,28.73,0,0,0,1.75-2.41,4.54,4.54,0,0,0,.67-3.07,5.2,5.2,0,0,0-3.78-4.33A5.14,5.14,0,0,0,10,7.24a5.27,5.27,0,0,0-.19,6A17.22,17.22,0,0,0,11.34,15.3ZM10.41,7.57a4.58,4.58,0,0,1,4.86-1.69,4.64,4.64,0,0,1,3.38,3.87,4,4,0,0,1-.59,2.7,28.14,28.14,0,0,1-1.72,2.36c-0.54.68-1.1,1.34-1.69,2l-0.58.68-0.57-.63c-0.61-.67-1.18-1.3-1.75-2a16.74,16.74,0,0,1-1.51-2A4.73,4.73,0,0,1,10.41,7.57ZM14,13.14h0A2.71,2.71,0,0,0,16,8.53a2.55,2.55,0,0,0-1.81-.79h0a2.7,2.7,0,0,0-2,4.59A2.6,2.6,0,0,0,14,13.14ZM14.15,8.3h0a2,2,0,0,1,1.42.62,2.18,2.18,0,0,1,.63,1.53A2.14,2.14,0,0,1,15.58,12a2.17,2.17,0,0,1-1.53.62h0a2.05,2.05,0,0,1-1.45-.65,2.17,2.17,0,0,1-.62-1.52A2.14,2.14,0,0,1,14.15,8.3ZM20,17.69a2.62,2.62,0,0,0-.63-0.43,9.5,9.5,0,0,0-3-.76,0.48,0.48,0,0,0-.56.33c0.51,0.06,1,.1,1.54.2a6.32,6.32,0,0,1,1.33.4c0.45,0.2.46,0.58,0.05,0.86a3.08,3.08,0,0,1-.75.36,12.11,12.11,0,0,1-3.5.53,15.57,15.57,0,0,1-4.36-.39,2.8,2.8,0,0,1-1.3-.59A0.4,0.4,0,0,1,9,17.51a1.94,1.94,0,0,1,.65-0.29c0.82-.16,1.64-0.29,2.49-0.43-0.09-.08-0.19-0.18-0.3-0.26a0.25,0.25,0,0,0-.18,0C10.83,16.63,10,16.77,9.21,17a3.14,3.14,0,0,0-1.31.64,0.66,0.66,0,0,0,0,1.16,4.11,4.11,0,0,0,1,.52,14,14,0,0,0,4.37.71,19.53,19.53,0,0,0,3.44-.17,9.3,9.3,0,0,0,2.46-.61A3.66,3.66,0,0,0,20,18.67,0.59,0.59,0,0,0,20,17.69Z" transform="translate(-1.21)"/><path class="cls-2" d="M36.8,12.85q-0.16.41-.37,0.8A18.1,18.1,0,1,1,20,3.1a18.12,18.12,0,0,1,2.24.15q0.31-.31.65-0.59A18.78,18.78,0,1,0,38.79,21.21,18.65,18.65,0,0,0,36.8,12.85Z" transform="translate(-1.21)"/></svg>