<?xml version="1.0" encoding="utf-8"?>
<!-- Generator: Adobe Illustrator 19.2.0, SVG Export Plug-In . SVG Version: 6.00 Build 0)  -->
<svg version="1.1" id="Layer_1" xmlns="http://www.w3.org/2000/svg" xmlns:xlink="http://www.w3.org/1999/xlink" x="0px" y="0px"
	 viewBox="0 0 40 40" style="enable-background:new 0 0 40 40;" xml:space="preserve">
<style type="text/css">
	.st0{fill:#FFFFFF;}
</style>
<g>
	<path class="st0" d="M38.8,26.1l-1.6-0.3c-0.2-0.5-0.4-1.1-0.6-1.6l1-1.3c0.4-0.6,0.3-1.3-0.2-1.8l-1.4-1.4c-0.3-0.3-0.6-0.4-1-0.4
		c-0.3,0-0.6,0.1-0.8,0.3l-1.3,1c-0.5-0.3-1.1-0.5-1.6-0.7l-0.3-1.6c-0.1-0.7-0.7-1.2-1.4-1.2h-0.3h-1.7c-0.2,0-0.5,0.1-0.7,0.2
		c-0.4,0.2-0.7,0.6-0.7,1l-0.3,1.6c-0.5,0.2-1.1,0.4-1.6,0.7l-1.3-1c-0.2-0.2-0.5-0.3-0.8-0.3c-0.4,0-0.7,0.1-1,0.4l-1.4,1.4
		c-0.5,0.5-0.6,1.3-0.2,1.8l1,1.4c-0.3,0.5-0.5,1-0.6,1.6l-1.6,0.3c-0.7,0.1-1.2,0.7-1.2,1.4v2c0,0.7,0.5,1.3,1.2,1.4l1,0.2l0.6,0.1
		c0.2,0.5,0.4,1.1,0.7,1.6l-0.9,1.3c-0.4,0.5-0.3,1.1,0,1.6c0,0.1,0.1,0.1,0.1,0.2l1.4,1.4c0.3,0.3,0.6,0.4,1,0.4
		c0.3,0,0.6-0.1,0.8-0.3l1.4-1c0.5,0.3,1,0.5,1.5,0.6l0.3,1.6c0.1,0.7,0.7,1.2,1.4,1.2h2c0.7,0,1.3-0.5,1.4-1.2l0.3-1.6
		c0.5-0.2,1.1-0.4,1.6-0.6l1.3,1c0.2,0.2,0.5,0.3,0.8,0.3c0.4,0,0.7-0.1,1-0.4l1.4-1.4c0.5-0.5,0.6-1.3,0.2-1.8l-1-1.3
		c0.3-0.5,0.5-1,0.6-1.6l1.6-0.3c0.7-0.1,1.2-0.7,1.2-1.4v-2C40,26.8,39.5,26.2,38.8,26.1z M38.7,29.5L38.7,29.5
		c0,0.1,0,0.1-0.1,0.1l-2,0.3c-0.3,0-0.5,0.2-0.5,0.5c-0.2,0.7-0.5,1.4-0.8,2c-0.1,0.2-0.1,0.5,0,0.7l1.2,1.7c0,0,0,0.1,0,0.2
		L35,36.4c0,0-0.1,0-0.1,0c0,0-0.1,0-0.1,0l-1.7-1.2c-0.2-0.1-0.5-0.2-0.7,0c-0.6,0.4-1.3,0.7-2,0.8c-0.3,0.1-0.4,0.3-0.5,0.5
		l-0.3,2c0,0.1-0.1,0.1-0.1,0.1h-2c-0.1,0-0.1,0-0.1-0.1l-0.3-2c0-0.3-0.2-0.5-0.5-0.5c-0.7-0.2-1.4-0.5-2-0.8
		c-0.1-0.1-0.2-0.1-0.3-0.1c-0.1,0-0.3,0-0.4,0.1l-1.7,1.2c0,0,0,0-0.1,0c0,0-0.1,0-0.1,0L20.6,35c0,0,0-0.1,0-0.2l1.2-1.7
		c0.1-0.2,0.2-0.5,0-0.7c-0.1-0.2-0.2-0.3-0.2-0.5c-0.3-0.5-0.5-1-0.6-1.5c-0.1-0.2-0.3-0.4-0.5-0.5l-0.5-0.1l-1.5-0.3
		c-0.1,0-0.1-0.1-0.1-0.1v-2c0-0.1,0-0.1,0.1-0.1l2-0.3c0.3,0,0.5-0.2,0.5-0.5c0.2-0.7,0.5-1.4,0.8-2c0.1-0.2,0.1-0.5,0-0.7
		l-1.2-1.7c0,0,0-0.1,0-0.2l1.4-1.4c0,0,0.1,0,0.1,0c0,0,0.1,0,0.1,0l1.7,1.2c0.2,0.1,0.5,0.2,0.7,0c0.1-0.1,0.3-0.1,0.4-0.2
		c0.5-0.3,1-0.5,1.6-0.6c0.2-0.1,0.4-0.3,0.5-0.5l0.3-2c0-0.1,0.1-0.1,0.1-0.1h1.5h0.6c0.1,0,0.1,0,0.1,0.1l0.3,2
		c0,0.3,0.2,0.5,0.5,0.5c0.7,0.2,1.4,0.5,2.1,0.8c0.2,0.1,0.5,0.1,0.7,0l1.7-1.2c0,0,0,0,0.1,0c0,0,0.1,0,0.1,0l1.4,1.4
		c0,0,0,0.1,0,0.2l-1.2,1.7c-0.1,0.2-0.2,0.5,0,0.7c0.4,0.6,0.7,1.3,0.8,2c0.1,0.2,0.3,0.4,0.5,0.5l2,0.3c0.1,0,0.1,0.1,0.1,0.1
		V29.5z"/>
	<path class="st0" d="M14.7,9.4c-2.9,0-5.3,2.4-5.3,5.3s2.4,5.3,5.3,5.3c2.9,0,5.3-2.4,5.3-5.3S17.6,9.4,14.7,9.4z M14.7,17.7
		c-1.6,0-3-1.3-3-3c0-1.6,1.3-3,3-3c1.6,0,3,1.3,3,3S16.3,17.7,14.7,17.7z"/>
	<path class="st0" d="M28.5,23.5c-0.9,0-1.7,0.2-2.4,0.7c-1.5,0.8-2.5,2.4-2.5,4.3c0,0,0,0,0,0c0,2.7,2.2,5,5,5c2.7,0,5-2.2,5-5
		C33.5,25.8,31.2,23.5,28.5,23.5z M28.5,32.2c-2,0-3.7-1.6-3.7-3.7c0-2,1.6-3.7,3.7-3.7s3.7,1.6,3.7,3.7
		C32.2,30.5,30.5,32.2,28.5,32.2z"/>
	<path class="st0" d="M25,4.2C22.2,1.4,18.4-0.1,14.5,0C10.6,0.1,7,1.6,4.3,4.4C1.5,7.1,0,10.7,0,14.6c0,2.4,0.5,4.7,1.6,6.8
		c0,0,0,0,0,0.1L6.2,29l4.6,8.5c0.8,1.6,2.3,2.5,3.9,2.5c1.1,0,2.2-0.5,3-1.3c-0.8-0.3-1.5-1-1.9-1.8l-0.1,0.2
		c-0.3,0.5-0.8,0.6-1,0.6c-0.2,0-0.7-0.1-1-0.6l-10-16.8c-0.9-1.8-1.3-3.7-1.3-5.7c0-6.7,5.5-12.2,12.2-12.3c3.3,0,6.5,1.2,8.9,3.6
		c2,2,3.2,4.5,3.6,7.2c0.3-0.1,0.6-0.2,0.9-0.2c0.6,0,1.1,0.2,1.5,0.5C29,10,27.5,6.7,25,4.2z"/>
</g>
</svg>
