<svg id="Layer_1" data-name="Layer 1" xmlns="http://www.w3.org/2000/svg" viewBox="0 0 35.29 40.05"><defs><style>.cls-1{fill:#484D55;}</style></defs><title>Sites_White-40</title><path class="cls-1" d="M10.45,27.31c1.58,1.8,3.18,3.52,4.87,5.34L17.48,35l0.59,0.64L18.63,35l2.15-2.48C22.42,30.59,24,28.81,25.49,27a77.67,77.67,0,0,0,4.85-6.5,12,12,0,0,0,1.86-8.28A14.14,14.14,0,0,0,21.72.47,14.42,14.42,0,0,0,6.63,5.57a13.93,13.93,0,0,0-.51,16.24A46.58,46.58,0,0,0,10.45,27.31ZM7.88,6.47A12.91,12.91,0,0,1,21.33,1.92a12.62,12.62,0,0,1,9.36,10.43,10.55,10.55,0,0,1-1.64,7.29A76.08,76.08,0,0,1,24.29,26c-1.5,1.85-3,3.61-4.68,5.49L18,33.32l-1.57-1.69c-1.68-1.81-3.28-3.52-4.84-5.3A45.29,45.29,0,0,1,7.43,21,12.49,12.49,0,0,1,7.88,6.47Zm10,15H18a7.62,7.62,0,0,0,5.32-2.1,7.19,7.19,0,0,0,2.22-5.16A7.3,7.3,0,0,0,23.34,9a7.14,7.14,0,0,0-5-2.13h0A7.42,7.42,0,0,0,10.63,14s0,0.09,0,.13a7.4,7.4,0,0,0,7.22,7.37Zm0.4-13.08h0a5.61,5.61,0,0,1,3.93,1.68,5.81,5.81,0,0,1,1.74,4.13,5.71,5.71,0,0,1-1.76,4.1A6.08,6.08,0,0,1,17.94,20H17.86a5.89,5.89,0,0,1-5.72-5.85,5.85,5.85,0,0,1,6-5.72h0.14ZM34.56,33.78a7.27,7.27,0,0,0-1.75-1.16,26.86,26.86,0,0,0-8.19-2,1.34,1.34,0,0,0-1.55.9c1.42,0.17,2.86.26,4.26,0.54a17.84,17.84,0,0,1,3.7,1c1.26,0.55,1.28,1.57.14,2.33a8.62,8.62,0,0,1-2.07,1,34.32,34.32,0,0,1-9.69,1.42A44.19,44.19,0,0,1,7.36,36.77a7.84,7.84,0,0,1-3.61-1.6,1.06,1.06,0,0,1,.14-1.88A5.43,5.43,0,0,1,5.7,32.5c2.26-.43,4.53-0.77,6.9-1.17-0.25-.22-0.53-0.48-0.83-0.7a0.71,0.71,0,0,0-.49-0.12c-2.24.42-4.49,0.79-6.71,1.3A8.78,8.78,0,0,0,.93,33.52c-1.24,1-1.26,2.2,0,3.12A11.46,11.46,0,0,0,3.65,38,39.52,39.52,0,0,0,15.8,40a55.46,55.46,0,0,0,9.51-.47,26.3,26.3,0,0,0,6.8-1.66,10.16,10.16,0,0,0,2.42-1.43A1.57,1.57,0,0,0,34.56,33.78Z" transform="translate(0.01 0.01)"/></svg>