<?xml version="1.0" encoding="utf-8"?>
<!-- Generator: Adobe Illustrator 19.2.0, SVG Export Plug-In . SVG Version: 6.00 Build 0)  -->
<svg version="1.1" id="Layer_1" xmlns="http://www.w3.org/2000/svg" xmlns:xlink="http://www.w3.org/1999/xlink" x="0px" y="0px"
	 viewBox="0 0 100 100" style="enable-background:new 0 0 100 100;" xml:space="preserve">
<style type="text/css">
	.st0{fill-rule:evenodd;clip-rule:evenodd;fill:#6BBBFF;}
	.st1{fill:#6BBBFF;}
</style>
<g>
	<g>
		<g>
			<g>
				<path class="st0" d="M73.3,30.1H54.7c-1.2,0-2.1,1-2.1,2.1v3.2c0,1.2,1,2.1,2.1,2.1h18.6c1.2,0,2.1-1,2.1-2.1v-3.2
					C75.4,31,74.5,30.1,73.3,30.1z M73.3,45h-28c-1.2,0-2.1,1-2.1,2.1v3.2c0,1.2,1,2.1,2.1,2.1h28c1.2,0,2.1-1,2.1-2.1v-3.2
					C75.4,45.9,74.5,45,73.3,45z M73.3,59.8H38.2c-1.2,0-2.1,1-2.1,2.1V65c0,1.2,1,2.1,2.1,2.1h35.1c1.2,0,2.1-1,2.1-2.1v-3.1
					C75.4,60.7,74.5,59.8,73.3,59.8z"/>
			</g>
		</g>
	</g>
	<path class="st1" d="M92.2,22.3l-9.6,16.4c1,3.3,1.6,6.7,1.6,10.3c0,18.9-15.4,34.2-34.4,34.2c-17,0-31.1-12.3-33.9-28.4l-3.6-4.2
		c0,0-1.9-2.1-2.4-2.4c-0.5-0.3-2.7-0.9-2.9-0.9c-0.2,0-4,0.8-4,0.8s-0.3,0.2-0.3,0.4s-0.5,0.6-0.6,0.7S1.8,50,1.8,50l-0.2,0.6
		c0,0-0.6,0.9-0.7,1.1s-0.2,0.5-0.2,0.7s0,0.3,0,0.6c0,0.3-0.4,1.2-0.4,1.2v1.1c0,0,0,0.8,0,0.9c0,0.1,0,0.6,0,0.6l0,0.2
		c1.6,10.4,6.5,19.9,14.1,27.5C23.8,93.8,36.4,99,49.8,99c13.4,0,26-5.2,35.5-14.6c9.5-9.4,14.7-22,14.7-35.4
		C100,39.4,97.3,30.2,92.2,22.3z"/>
	<path class="st0" d="M0.1,56.4c0,0-1.1-7.4,4.4-10l7.1-4.5c0,0,3.1-1.9,6.1,0.6l6.4,4.5c0,0,1.4,1.1,2.7-0.9
		c0,0,22.9-40.3,51.4-45.1c0,0,2.4-0.1,2.9,1.9c0,0-1.7-1.9-6.6,0.7c0,0-17.2,5.1-45.2,61.6c0,0-1.2,1.8-3.1-0.3
		c0,0-12.1-11.8-19.2-15.6c0,0-3.4-2-5.1,1.8c0,0-1.1,1.3-1.4,5.3C0.5,56.4,0.2,57.6,0.1,56.4z"/>
</g>
</svg>
