<?xml version="1.0" encoding="utf-8"?>
<!-- Generator: Adobe Illustrator 18.0.0, SVG Export Plug-In . SVG Version: 6.00 Build 0)  -->
<!DOCTYPE svg PUBLIC "-//W3C//DTD SVG 1.1//EN" "http://www.w3.org/Graphics/SVG/1.1/DTD/svg11.dtd">
<svg version="1.1" id="Layer_1" xmlns="http://www.w3.org/2000/svg" xmlns:xlink="http://www.w3.org/1999/xlink" x="0px" y="0px"
	 viewBox="0 0 380 380" enable-background="new 0 0 380 380" xml:space="preserve">
<path fill="#EFEFEF" d="M-419-8"/>
<circle fill="#FFFFFF" cx="307.4" cy="306.3" r="12.5"/>
<path fill="#FFFFFF" d="M364.3,346.9l-10-14.6c1.8-3.3,3.2-6.7,4.3-10.3l17.5-3.3c1.6-0.3,2.9-1.9,2.9-3.6v-17.6
	c0-1.7-1.3-3.3-2.9-3.6l-17.5-3.3c-1.1-3.5-2.5-6.9-4.2-10.1l10.1-14.8c0.9-1.4,0.7-3.4-0.4-4.6l-12.5-12.5
	c-1.2-1.2-3.2-1.4-4.6-0.4l-14.8,10.1c-3.3-1.8-6.8-3.2-10.4-4.3l-3.3-17.4c-0.3-1.6-1.9-3-3.6-3h-17.6c-1.7,0-3.2,1.3-3.6,3
	l-3.3,17.6c-3.5,1.1-6.9,2.5-10,4.2l-14.6-10c-1.4-0.9-3.4-0.7-4.6,0.4l-12.5,12.5c-1.2,1.2-1.4,3.2-0.4,4.6l10.1,14.7
	c-1.7,3.2-3.1,6.5-4.1,10l-17.5,3.3c-1.6,0.3-2.9,1.9-2.9,3.6v17.6c0,1.7,1.3,3.2,2.9,3.6l17.5,3.3c1.1,3.6,2.5,7,4.2,10.2
	l-9.9,14.5c-0.9,1.4-0.7,3.4,0.4,4.6l12.5,12.5c1.2,1.2,3.2,1.4,4.6,0.4l14.5-9.9c3.1,1.7,6.4,3.1,9.9,4.1l3.3,17.6
	c0.3,1.6,1.9,2.9,3.6,2.9H315c1.7,0,3.2-1.3,3.6-2.9l3.3-17.4c3.6-1.1,7.1-2.5,10.3-4.2l14.7,10.1c1.4,0.9,3.4,0.7,4.6-0.4
	l12.5-12.5C365.1,350.4,365.3,348.3,364.3,346.9z M306.4,336.6c-16.7,0-30.3-13.6-30.3-30.3c0-16.7,13.6-30.3,30.3-30.3
	c16.7,0,30.3,13.6,30.3,30.3C336.7,323.1,323.2,336.6,306.4,336.6z"/>
<g>
	<path fill="#FFFFFF" d="M263.8,232.9c3.8,0,7.4,1.1,10.5,3.2l3.8,2.6l0.9-4.7c0.6-3.1,1.9-5.9,3.8-8.2v-0.9c0-2.7-2.2-5-5-5H144.1
		c-2.7,0-5,2.2-5,5v17.7c0,2.7,2.2,5,5,5h97.2l9.3-9.3C254.1,234.8,258.9,232.9,263.8,232.9z"/>
	<path fill="#FFFFFF" d="M275.6,168.2H169.7c-2.7,0-5,2.2-5,5v17.7c0,2.7,2.2,5,5,5h106c2.7,0,5-2.2,4.9-5v-17.7
		C280.6,170.5,278.4,168.2,275.6,168.2z"/>
	<path fill="#FFFFFF" d="M280.7,121.8c0-2.7-2.2-5-5-5h-73.6c-2.7,0-5,2.2-5,5v17.7c0,2.7,2.2,5,5,5h73.6c2.7,0,5-2.3,5-5V121.8z"/>
	
		<linearGradient id="SVGID_1_" gradientUnits="userSpaceOnUse" x1="12.3567" y1="99.0874" x2="367.1567" y2="99.0874" gradientTransform="matrix(1 0 0 -1 0 380)">
		<stop  offset="0" style="stop-color:#000000"/>
		<stop  offset="0.2057" style="stop-color:#303030"/>
		<stop  offset="0.6704" style="stop-color:#A7A7A7"/>
		<stop  offset="1" style="stop-color:#FFFFFF"/>
	</linearGradient>
	<path fill="url(#SVGID_1_)" stroke="#FFFFFF" stroke-miterlimit="10" d="M236.2,338.2l2.7-3.9l-4.8-0.9c-3.8-0.7-7.1-2.6-9.7-5.1
		c-11.1,3-22.7,4.7-34.8,4.7c-71.7,0-127.3-64-127.3-135.2c0-0.2,0-0.5,0-0.7c-13.1-11.1-23.4-16.6-31.7-15
		c-13.4,2.6-17.3,20.6-18.2,26.4C14.7,303.6,93.2,380,189.6,380c20.1,0,39.4-3.3,57.4-9.4l-8.7-8.7
		C232.1,355.7,231.2,345.5,236.2,338.2z"/>
	
		<linearGradient id="SVGID_2_" gradientUnits="userSpaceOnUse" x1="12.3" y1="175.9946" x2="367.1" y2="175.9946" gradientTransform="matrix(1 0 0 -1 0 380)">
		<stop  offset="0" style="stop-color:#000000"/>
		<stop  offset="0.2057" style="stop-color:#303030"/>
		<stop  offset="0.6704" style="stop-color:#A7A7A7"/>
		<stop  offset="1" style="stop-color:#FFFFFF"/>
	</linearGradient>
	<path fill="url(#SVGID_2_)" stroke="#FFFFFF" stroke-miterlimit="10" d="M333.3,233.9l0.9,4.9l4.4-3c3.1-2.1,6.7-3.2,10.5-3.2
		c4.9,0,9.8,2,13.2,5.4l1.2,1.2c2.3-11.3,3.5-23.1,3.5-35.1c0-12.1,0-12.1,0.2-35.3h-47.5c0.5,23.5-0.1,23.1-0.1,35.3
		c0,5.1-0.3,10.1-0.9,15C325.9,220.6,331.9,226.5,333.3,233.9z"/>
	<path fill="#FFFFFF" d="M26,177.7L62.1,189c-3.1,11,0.1-2.8,0.2,8.1c12.1,10.3,26.6,25.4,44.1,44.2c1.9,1.7,5.7,6.3,5.7,6.3
		s82.7-155,117.8-187.7c0,0,37.9-45.7,69.1-41.9c0,0-15.6-18.6-79.3,26.8C156,90.2,104.4,177.7,104.4,177.7l-35-21.4
		c0,0-18.5-4.4-49,23.3c0-0.1-9,7.5-8.3,30.8c0,0,0.1-0.7,0.3-1.9c0-1.5-0.1-3-0.1-4.4C12.3,192.1,19.2,189.6,26,177.7z"/>
	<path fill="#FFFFFF" d="M30.6,182.1c8.3-1.6,18.6,3.9,31.7,15c-0.1-10.9-3.3,2.9-0.2-8.1L26,177.7c-6.8,11.9-13.7,14.4-13.7,26.4
		c0,1.5,0,3,0.1,4.4C13.3,202.7,17.2,184.7,30.6,182.1z"/>
</g>
</svg>
