<?xml version="1.0" encoding="utf-8"?>
<!-- Generator: Adobe Illustrator 18.0.0, SVG Export Plug-In . SVG Version: 6.00 Build 0)  -->
<!DOCTYPE svg PUBLIC "-//W3C//DTD SVG 1.1//EN" "http://www.w3.org/Graphics/SVG/1.1/DTD/svg11.dtd">
<svg version="1.1" id="Capa_1" xmlns="http://www.w3.org/2000/svg" xmlns:xlink="http://www.w3.org/1999/xlink" x="0px" y="0px"
	 viewBox="0 0 380 380" enable-background="new 0 0 380 380" xml:space="preserve">
<g>
	<circle fill="#FFFFFF" cx="305.4" cy="305.4" r="12.5"/>
	<path fill="#FFFFFF" d="M375.1,293l-17.5-3.3c-1.1-3.5-2.5-6.9-4.2-10.1l10.1-14.8c0.9-1.4,0.7-3.4-0.4-4.6l-12.5-12.5
		c-1.2-1.2-3.2-1.4-4.6-0.4l-14.8,10.1c-3.3-1.8-6.8-3.2-10.4-4.3l-3.3-17.4c-0.3-1.6-1.9-3-3.6-3h-17.6c-1.7,0-3.2,1.3-3.6,3
		l-3.3,17.6c-3.5,1.1-6.9,2.5-10,4.2l-14.6-10c-1.4-0.9-3.4-0.7-4.6,0.4l-12.5,12.5c-1.2,1.2-1.4,3.2-0.4,4.6l10.1,14.7
		c-1.7,3.2-3.1,6.5-4.1,10l-17.5,3.3c-1.6,0.3-2.9,1.9-2.9,3.6v17.6c0,1.7,1.3,3.2,2.9,3.6l17.5,3.3c1.1,3.6,2.5,7,4.2,10.2
		l-9.9,14.5c-0.9,1.4-0.7,3.4,0.4,4.6l12.5,12.5c1.2,1.2,3.2,1.4,4.6,0.4l14.5-9.9c3.1,1.7,6.4,3.1,9.9,4.1l3.3,17.6
		c0.3,1.6,1.9,2.9,3.6,2.9H314c1.7,0,3.2-1.3,3.6-2.9l3.3-17.4c3.6-1.1,7.1-2.5,10.3-4.2l14.7,10.1c1.4,0.9,3.4,0.7,4.6-0.4
		l12.5-12.5c1.2-1.2,1.4-3.2,0.4-4.6l-10-14.6c1.8-3.3,3.2-6.7,4.3-10.3l17.5-3.3c1.6-0.3,2.9-1.9,2.9-3.6v-17.6
		C378,294.9,376.7,293.3,375.1,293z M305.4,335.7c-16.7,0-30.3-13.6-30.3-30.3c0-16.7,13.6-30.3,30.3-30.3
		c16.7,0,30.3,13.6,30.3,30.3C335.7,322.1,322.2,335.7,305.4,335.7z"/>
	<path fill="#FFFFFF" d="M235.2,337.3l2.7-3.9l-2.5-0.5c-11.3,3.6-23.1,5.9-35.4,6.7v-19.9c0-5.5-4.5-10-10-10s-10,4.5-10,10v19.9
		c-21.5-1.4-41.8-7.4-59.9-17l8.1-14.1c0.7-1.2,0.9-2.6,0.5-4c-0.4-1.4-1.2-2.5-2.5-3.2c-0.8-0.5-1.7-0.7-2.6-0.7
		c-1.9,0-3.7,1-4.6,2.7l-8.1,14.1c-18.1-11.3-33.6-26.3-45.4-43.9l17.2-9.9c4.8-2.8,6.4-8.9,3.7-13.7c-2.8-4.8-8.9-6.4-13.7-3.7
		l-17.2,9.9c-9.1-18.3-14.5-38.8-15.3-60.4l16.3-0.1c1.4,0,2.7-0.6,3.7-1.6s1.5-2.3,1.5-3.7c0-2.9-2.4-5.3-5.3-5.3L40,185.1
		c0.7-21.9,6.1-42.7,15.3-61.3l17.2,9.9c1.6,0.9,3.3,1.3,5,1.3c3.5,0,6.8-1.8,8.7-5c2.8-4.8,1.1-10.9-3.7-13.7l-17.2-9.9
		C77,89,92.2,74.2,110,63l8.2,14.1c0.5,0.8,1.1,1.5,1.9,1.9c1.6,0.9,3.7,0.9,5.3,0c1.2-0.7,2.1-1.9,2.5-3.2c0.4-1.4,0.2-2.8-0.5-4
		l-8.2-14.1c18.3-9.8,38.9-16,60.8-17.4v19.9c0,5.5,4.5,10,10,10s10-4.5,10-10V40.3c21.5,1.4,41.8,7.4,59.9,17l-8.1,14.1
		c-1.5,2.5-0.6,5.8,2,7.2c0.8,0.5,1.7,0.7,2.6,0.7c1.9,0,3.7-1,4.6-2.7l8.1-14.1c18.1,11.3,33.6,26.3,45.4,43.9l-17.2,9.9
		c-4.8,2.8-6.4,8.9-3.7,13.7c1.9,3.2,5.2,5,8.7,5c1.7,0,3.4-0.4,5-1.3l17.2-9.9c9.1,18.3,14.5,38.8,15.3,60.4l-16.3,0.1
		c-1.4,0-2.7,0.6-3.7,1.6s-1.5,2.3-1.5,3.7c0,1.9,1,3.6,2.7,4.6c0.8,0.5,1.7,0.7,2.6,0.7l16.3-0.1c-0.5,14.3-2.9,28-7.1,41.1
		l0.4,2.1l4.4-3c3.1-2.1,6.7-3.2,10.5-3.2c4.9,0,9.8,2,13.2,5.4l10,10c5.7-18,8.8-37.2,8.8-57.2C380,85.2,294.8,0,190,0
		S0,85.2,0,190s85.2,190,190,190c20,0,39.3-3.1,57.5-8.9L237.4,361C231.1,354.8,230.2,344.6,235.2,337.3z"/>
	<path fill="#FFFFFF" d="M263.9,135.8l-64.1,35.6c-2.9-1.5-6.2-2.4-9.8-2.4c-3.5,0-6.8,0.9-9.8,2.4l-64.1-35.6
		c-6.1-3.4-13.7-1.2-17.1,4.9c-3.4,6.1-1.2,13.7,4.9,17.1l65.4,36.3c1.9,9.7,10.4,17,20.6,17s18.8-7.3,20.6-17l65.4-36.3
		c6.1-3.4,8.3-11,4.9-17.1C277.6,134.6,270,132.4,263.9,135.8z"/>
</g>
</svg>
