<?xml version="1.0" encoding="utf-8"?>
<!-- Generator: Adobe Illustrator 19.2.0, SVG Export Plug-In . SVG Version: 6.00 Build 0)  -->
<svg version="1.1" id="Layer_1" xmlns="http://www.w3.org/2000/svg" xmlns:xlink="http://www.w3.org/1999/xlink" x="0px" y="0px"
	 viewBox="0 0 40 40" style="enable-background:new 0 0 40 40;" xml:space="preserve">
<style type="text/css">
	.st0{fill:#6BBBFF;}
	.st1{fill:#6BBBFF;}
</style>
<g>
	<g>
		<g>
			<path class="st0" d="M31.9,20.1c0.2,7.2-4.4,13.7-11,15.8c-8.9,2.8-18.1-2.4-20.3-11.5c-1.7-6.9,0.7-14,6.1-18
				c7.4-5.6,17.9-3.5,22.7,4.4C31.1,13.7,32,16.7,31.9,20.1z M27.8,20c-0.1-3.2-1-6.1-3-8.6C21.3,7,15.5,5.7,10.9,8.2
				c-7,3.8-8.8,13.8-4,20.1c4,5.3,10.7,6.2,15.9,2.2C26.2,27.9,27.6,24.2,27.8,20z"/>
		</g>
	</g>
	<path class="st1" d="M8.1,27.9c-0.5,0-0.9-0.2-1.3-0.5c-0.4-0.3-0.7-0.8-0.8-1.4C6,25.6,6.1,25,6.5,24.6l9-10.9
		c0.4-0.4,0.9-0.7,1.5-0.8c0.1,0,0.1,0,0.1,0c0.5,0,1,0.2,1.4,0.5l6.2,5.4l7.7-9.5l-2.3-1.9c-0.2-0.1-0.1-0.4,0.1-0.5l9.5-3.5
		C39.8,3.4,40,3.6,40,3.8l-1.7,9.8c0,0.2-0.3,0.3-0.5,0.2L35.6,12l-9,11.1c-0.4,0.4-0.9,0.7-1.4,0.7c-0.1,0-0.1,0-0.2,0
		c-0.5,0-1-0.2-1.4-0.5l-6.2-5.4l-7.7,9.3c-0.4,0.4-0.9,0.7-1.5,0.8C8.2,27.9,8.1,27.9,8.1,27.9z"/>
</g>
</svg>
