<?xml version="1.0" encoding="utf-8"?>
<!-- Generator: Adobe Illustrator 19.2.0, SVG Export Plug-In . SVG Version: 6.00 Build 0)  -->
<svg version="1.1" id="Layer_1" xmlns="http://www.w3.org/2000/svg" xmlns:xlink="http://www.w3.org/1999/xlink" x="0px" y="0px"
	 viewBox="0 0 40 40" style="enable-background:new 0 0 40 40;" xml:space="preserve">
<style type="text/css">
	.st0{fill:#FFFFFF;}
</style>
<g>
	<g>
		<path class="st0" d="M6.2,23.3c0.7,0.3,1.5-0.1,1.8-0.8c0.1-0.2,0.2-0.4,0.3-0.6c2.1-5.8,4.2-11.7,6.4-17.5
			c0.2-0.4,0.3-0.7,0.9-0.6c4.5,0.9,9,1.8,13.4,2.7c0-1,0.3-2,0.8-2.9c-5.1-1-10.2-2-15.3-3.1c-1.1-0.2-1.6,0.1-2,1.2
			c-1.3,3.6-2.6,7.1-3.9,10.7c-1.1,3-2.1,6-3.2,9C5.1,22.2,5.5,23,6.2,23.3z M32.7,12.5c-1,2.9-2,5.9-3,8.8c-1.3,3.7-2.8,7.4-4.3,11
			c-0.5,1.2-1.4,2.4-2.4,3.2c-2,1.7-5.5,1.4-6.4-2c-0.2-0.8-0.3-1.6-0.3-2.4c0-0.6-0.2-0.8-0.7-1.1C10.4,27.9,5.2,25.8,0,23.7l2.8,9
			c0.8,0.4,1.7,0.8,2.5,1.2c3.8,1.7,7.5,3.5,11.3,5.1c3.8,1.6,7.9,0.4,10.2-3.1c0.8-1.2,1.5-2.6,2.1-4c2.5-6.1,4.7-12.4,6.7-18.7
			c-0.1,0-0.2,0-0.2,0C34.4,13.1,33.5,12.9,32.7,12.5z M25.1,21.5c0.8,0,1.3-0.4,1.5-1.1c0.2-0.7-0.1-1.5-0.8-1.7
			c-2.3-0.8-4.6-1.5-7-2.2c-0.8-0.2-1.5,0.4-1.6,1.2c-0.1,0.8,0.3,1.3,1.1,1.6c2.1,0.7,4.1,1.4,6.2,2.1
			C24.7,21.5,24.9,21.5,25.1,21.5z M15.7,25.4c2.1,0.7,4.1,1.4,6.2,2.1c0.2,0.1,0.5,0.1,0.8,0.2c0.2-0.1,0.6-0.1,0.7-0.3
			c0.3-0.4,0.6-0.8,0.6-1.3c0.1-0.7-0.5-1.1-1.1-1.3c-2.2-0.7-4.3-1.5-6.5-2.1c-0.4-0.1-1,0-1.2,0.2c-0.3,0.3-0.5,0.9-0.6,1.4
			C14.7,24.9,15.2,25.2,15.7,25.4z M27.8,14.9c0.8,0,1.3-0.4,1.5-1.1c0.2-0.8-0.1-1.4-1-1.7c-2.1-0.6-4.2-1.2-6.4-1.8
			c-1-0.3-1.7,0.1-1.9,1c-0.3,0.9,0.2,1.6,1.2,1.9c2.1,0.6,4.1,1.1,6.2,1.7C27.4,14.9,27.6,14.9,27.8,14.9z M15.9,16.6
			c0-0.8-0.7-1.5-1.6-1.6c-0.8,0-1.5,0.7-1.5,1.5c0,0.8,0.7,1.5,1.6,1.5C15.2,18.1,15.9,17.4,15.9,16.6z M16.7,11.8
			c0.9,0,1.5-0.6,1.5-1.4c0-0.9-0.7-1.6-1.6-1.5c-0.8,0-1.5,0.6-1.5,1.4C15.2,11.1,15.8,11.7,16.7,11.8z M11.9,20.9
			c-0.9,0-1.5,0.7-1.5,1.5c0,0.9,0.6,1.5,1.6,1.5c0.9,0,1.5-0.6,1.5-1.5C13.5,21.5,12.8,20.9,11.9,20.9z M35.4,2
			c-2.6,0-4.6,2.1-4.6,4.6c0,2.6,2.1,4.6,4.6,4.6c2.6,0,4.6-2.1,4.6-4.6C40,4.1,37.9,2,35.4,2z M34.8,9l-2.3-2.3l0.8-0.8l1.5,1.5
			l2.9-2.9l0.9,0.9L34.8,9z"/>
	</g>
</g>
</svg>
