<?xml version="1.0" encoding="utf-8"?>
<!-- Generator: Adobe Illustrator 19.2.0, SVG Export Plug-In . SVG Version: 6.00 Build 0)  -->
<svg version="1.1" id="Layer_1" xmlns="http://www.w3.org/2000/svg" xmlns:xlink="http://www.w3.org/1999/xlink" x="0px" y="0px"
	 viewBox="0 0 40 40" style="enable-background:new 0 0 40 40;" xml:space="preserve">
<style type="text/css">
	.st0{fill:#FFFFFF;}
</style>
<g>
	<g>
		<g>
			<path class="st0" d="M39.3,12.8c-0.6-0.8-1.5-1.2-2.5-1.2H25.3c0.7-0.6,1.4-1.2,2.1-1.8c-0.7-0.1-1.5-0.1-2.2-0.2c0,0,0,0,0-0.1
				c0.1-1.3,0.2-2.6,1-3.8c1.2-1.7,2.8-2.7,4.9-2.8C33.9,3,36.4,5,36.9,7.9c0,0,0,0.1,0.1,0.1c-0.1-0.3-0.1-0.7-0.2-1
				C36,3.9,34.1,1.8,31,0.9c-0.3-0.1-0.6-0.1-1-0.2c-0.1,0-0.1,0-0.2-0.1c-0.3,0-0.5,0-0.8-0.1c-0.3,0-0.6,0-0.9,0
				c-2.9,0.3-5.1,1.6-6.6,4.1c-0.6,1.1-1,2.2-1.1,3.5c0,0.4-0.1,0.7-0.1,1.1c-0.8-0.1-1.5-0.1-2.3-0.2c0.7,0.9,1.4,1.7,2.2,2.6H10.3
				L9.5,9.1C9.1,7.3,7.3,5.9,5.5,5.9H1.5C0.7,5.9,0,6.6,0,7.5C0,8.4,0.7,9,1.5,9h3.9c0.4,0,1,0.4,1.1,0.8l0.9,3.3c0,0,0,0,0,0.1
				c0,0.3,0.1,0.5,0.2,0.8L11,26.8c0.1,0.4,0.2,0.7,0.4,1.1c-0.9,0.7-1.4,1.7-1.4,2.9c0,1.7,1.2,3.2,2.8,3.5
				c-0.5,0.6-0.8,1.3-0.8,2.1c0,1.7,1.4,3.1,3.1,3.1c1.7,0,3.1-1.4,3.1-3.1c0-0.8-0.3-1.5-0.8-2h11.1c-0.5,0.5-0.8,1.3-0.8,2
				c0,1.7,1.4,3.1,3.1,3.1c1.7,0,3.1-1.4,3.1-3.1c0-0.8-0.3-1.5-0.8-2h0.7c0.8,0,1.5-0.7,1.5-1.6s-0.7-1.6-1.5-1.6H13.6
				c-0.2,0-0.4-0.3-0.4-0.6c0-0.3,0.2-0.6,0.4-0.6h11.3c-3.5,0,8.5-0.1,8.5-0.1c1.8,0,3.6-1.4,4-3.2l2.6-11.2
				C40.1,14.6,39.9,13.6,39.3,12.8z M36.9,14.9l-2.6,11.2c0,0.1-0.4,0.8-1,0.8H15.5l0,0c0,0,0,0,0,0c0,0-0.1,0-0.2,0
				c-0.4,0-1-0.2-1.3-0.9l-2.9-11.3l25.7,0c0,0,0.1,0,0.1,0C36.9,14.8,36.9,14.8,36.9,14.9z"/>
		</g>
	</g>
</g>
</svg>
