<?xml version="1.0" encoding="utf-8"?>
<!-- Generator: Adobe Illustrator 19.2.0, SVG Export Plug-In . SVG Version: 6.00 Build 0)  -->
<svg version="1.1" id="Layer_1" xmlns="http://www.w3.org/2000/svg" xmlns:xlink="http://www.w3.org/1999/xlink" x="0px" y="0px"
	 viewBox="0 0 40 40" style="enable-background:new 0 0 40 40;" xml:space="preserve">
<style type="text/css">
	.st0{fill:#6BBBFF;}
</style>
<g>
	<g>
		<g>
			<path class="st0" d="M18.7,16.1H25c0.5,0,0.9-0.4,0.9-0.9v-4c0-0.5-0.4-0.9-0.9-0.9h-6.3c-0.5,0-0.9,0.4-0.9,0.9v4
				C17.8,15.7,18.2,16.1,18.7,16.1z M9.3,16.1h6.3c0.5,0,0.9-0.4,0.9-0.9v-4c0-0.5-0.4-0.9-0.9-0.9H9.3c-0.5,0-0.9,0.4-0.9,0.9v4
				C8.4,15.7,8.8,16.1,9.3,16.1z M9.2,24.2c-0.2,0-0.4,0.2-0.4,0.4V26c0,0.2,0.2,0.4,0.4,0.4h5c0.1-0.9,0.6-1.7,1.2-2.3H9.2V24.2z
				 M24.9,23.3c0.5,0,0.9-0.4,0.9-0.9v-4c0-0.5-0.4-0.9-0.9-0.9H9.3c-0.5,0-0.9,0.4-0.9,0.9v4c0,0.5,0.4,0.9,0.9,0.9H24.9z
				 M32.3,24.2c-1.5,0-2.8,1.3-2.8,2.8s1.2,2.8,2.8,2.8c1.5,0,2.8-1.3,2.8-2.8C35.1,25.4,33.8,24.2,32.3,24.2z M32.3,28.3
				c-0.8,0-1.4-0.6-1.4-1.4s0.6-1.4,1.4-1.4s1.4,0.6,1.4,1.4C33.7,27.7,33.1,28.3,32.3,28.3z M39.6,24.2h-1.1v-6.1
				c0-0.7-0.2-1.4-0.6-2l-2.7-4c-0.7-1-1.8-1.6-3-1.6H28c-0.5,0-0.9,0.4-0.9,0.9v12.8h-6.9c0.7,0.6,1.1,1.4,1.2,2.3h7.3
				c0.3-1.8,1.8-3.2,3.6-3.2s3.4,1.4,3.6,3.2h3.6c0.3,0,0.4-0.2,0.4-0.4v-1.4C40,24.4,39.8,24.2,39.6,24.2z M35.1,16.9h-5.6
				c-0.2,0-0.4-0.2-0.4-0.4v-3.1c0-0.2,0.2-0.4,0.4-0.4h3.4c0.1,0,0.3,0.1,0.4,0.2l2.2,3.1C35.7,16.5,35.5,16.9,35.1,16.9z
				 M17.8,24.2c-1.5,0-2.8,1.3-2.8,2.8s1.2,2.8,2.8,2.8c1.5,0,2.8-1.3,2.8-2.8C20.6,25.4,19.3,24.2,17.8,24.2z M17.8,28.3
				c-0.8,0-1.4-0.6-1.4-1.4s0.6-1.4,1.4-1.4s1.4,0.6,1.4,1.4C19.2,27.7,18.5,28.3,17.8,28.3z M6.6,17.5c-1.3,0.1-2.5,0.1-3.8,0.1
				L0,17.9C1.1,18,2.2,18,3.3,18.1s2.3,0.2,3.4,0.2c0.4,0,0.9,0.1,1-0.4C7.8,17.6,7.3,17.4,6.6,17.5z M7.2,21.9
				c-0.3-0.1-0.6-0.1-0.9-0.1c-1,0-1.9,0.1-2.9,0.1c-0.7,0-1.4,0-2.1,0v0.2c1.4,0.2,2.7,0.3,4.1,0.5c0.6,0.1,1.2,0.2,1.7,0.2
				c0.2,0,0.4-0.2,0.6-0.3C7.5,22.3,7.4,22,7.2,21.9z M6.4,20.4c0.2,0,0.4,0,0.6,0c0.2-0.1,0.4-0.2,0.4-0.4c0-0.1-0.2-0.3-0.3-0.4
				c-0.1-0.1-0.3-0.1-0.4-0.1c-1.2,0.1-2.3,0.2-3.5,0.3v0.1c0.1,0.1,0.2,0.2,0.4,0.2C4.5,20.2,5.5,20.3,6.4,20.4z"/>
		</g>
	</g>
</g>
</svg>
