<?xml version="1.0" encoding="utf-8"?>
<!-- Generator: Adobe Illustrator 19.2.0, SVG Export Plug-In . SVG Version: 6.00 Build 0)  -->
<svg version="1.1" id="Layer_1" xmlns="http://www.w3.org/2000/svg" xmlns:xlink="http://www.w3.org/1999/xlink" x="0px" y="0px"
	 viewBox="0 0 100 100" style="enable-background:new 0 0 100 100;" xml:space="preserve">
<style type="text/css">
	.st0{fill:#FFFFFF;}
</style>
<g>
	<g>
		<g>
			<path class="st0" d="M51.3,88.5c-8.5,0-17.1,0-25.6,0c-0.8,0-1.7-0.1-2.5-0.2c-5.5-1.1-9.1-5.5-9.1-11.2c0-12.1,0-24.2,0-36.3
				c0-0.2,0-0.5,0-0.8h66v8.7c4.1,0.5,8.1,1.9,11.6,4.1V14.5H81.2v0.9c0,2.7-0.1,5.3-0.1,8c0,7.3-6.1,12.6-13.3,11.8
				c-5.6-0.7-10-5.5-10.1-11.2c-0.1-2.9,0-5.8,0-8.6v-0.9H36.3c0,2.3,0,4.2,0,6.3c0,1.6,0,3.2-0.2,4.7c-0.9,6.4-7.5,11-13.8,9.6
				c-5.7-1.3-9.4-5.8-9.4-11.7c0-2.7,0-5.4,0-8.1c0-0.7-0.2-0.8-0.8-0.8c-3.2,0-6.6,0-9.7,0V79c0.3,1.5,0.4,3,0.9,4.4
				c2.8,9,8.8,14.6,18.1,16.5c1.1,0.2,2.2,0.2,3.3,0.5h36.7C57,97.5,53.5,93.3,51.3,88.5z M23.9,81.2c1.1,0,2.2,0,3.3,0
				c1.1,0,2.2,0,3.3,0c2.4,0,3.9-1.5,4-3.9c0-2.2,0-4.5,0-6.7c0-2.4-1.6-4-4-4c-2.2,0-4.3,0-6.5,0c-2.4,0-4,1.5-4.1,3.9
				c0,2.3,0,4.5,0,6.8C20,79.6,21.6,81.2,23.9,81.2z M23.6,62.1c2.4,0,4.8,0,7.3,0c1.9,0,3.5-1.5,3.6-3.3c0.1-2.6,0.1-5.3,0-7.9
				c-0.1-1.9-1.7-3.3-3.6-3.3c-1.2,0-2.4,0-3.5,0c-1.1,0-2.3,0-3.4,0c-2.2,0-3.9,1.5-3.9,3.8c-0.1,2.4-0.1,4.7,0,7.1
				C20,60.5,21.6,62.1,23.6,62.1z M50.7,66.6c-0.1,0-0.3,0-0.4,0c-2.2,0-4.4,0-6.6,0c-2.3,0-3.9,1.5-4,3.8c-0.1,2.3-0.1,4.7,0,7
				c0.1,2.3,1.7,3.8,4,3.8c1.8,0,3.6,0,5.4,0c-0.3-2.2-0.4-4.5-0.2-6.7C49.1,71.7,49.8,69.1,50.7,66.6z M54.3,51.1
				c-0.1-2.1-1.7-3.5-3.8-3.5c-2.3,0-4.5,0-6.8,0c-2.3,0-3.9,1.5-3.9,3.8c-0.1,2.3,0,4.7,0,7c0,2.1,1.6,3.7,3.6,3.8
				c2.4,0,4.9,0,7.3,0c1.9,0,3.5-1.5,3.6-3.4c0.1-1.3,0-2.5,0-3.8c0,0,0,0,0,0C54.3,53.6,54.3,52.3,54.3,51.1z M63.5,47.5
				c-2.3,0-3.9,1.5-3.9,3.8c0,1.1,0,2.2,0,3.3c3.8-3,8.4-5,13.6-5.8c0,0,0.1,0,0.1,0c-0.7-0.8-1.7-1.3-2.8-1.3c-1.2,0-2.4,0-3.5,0
				C65.7,47.5,64.6,47.5,63.5,47.5z M17.4,24.7c0.6,3.8,4,6.5,7.8,6.2c3.8-0.3,6.7-3.5,6.7-7.3c0-5.3,0-10.7,0-16
				c0-3.1-1.6-5.4-4.4-6.7c-0.6-0.3-1.3-0.4-1.9-0.6h-2c-0.1,0-0.1,0.1-0.2,0.1c-3.9,0.9-6.1,3.6-6.1,7.5c0,5.1,0,10.1,0,15.2
				C17.3,23.7,17.3,24.2,17.4,24.7z M62.1,23.3c0,0.4,0,0.9,0.1,1.3c0.6,3.8,4,6.6,7.8,6.3c3.8-0.3,6.7-3.4,6.7-7.3
				c0-5.4,0-10.7,0-16.1c0-3.2-2.1-6-5.1-6.9c-0.4-0.1-0.8-0.2-1.2-0.3h-2c-0.1,0-0.1,0.1-0.2,0.1C65,1,62,4,62.1,8
				C62.2,13.1,62.1,18.2,62.1,23.3z M99.5,71.7c-2.4-11.6-14-19.6-25.7-17.9c-10.9,1.6-18.8,10.1-19.8,21c-1,11,6.2,21.4,16.8,24.2
				c1.4,0.4,2.9,0.6,4.4,0.9h3.5c1.4-0.3,2.9-0.4,4.3-0.9c9.4-2.9,15-9.2,16.7-18.9c0.1-0.5,0.2-1.1,0.3-1.6V75
				C99.8,73.9,99.7,72.8,99.5,71.7z M93.9,75.3c-0.6,0-1.2,0-1.8,0c-0.9,0-1.5,0.6-1.5,1.5c0,0.9,0.6,1.5,1.5,1.5c0.6,0,1.2,0,1.8,0
				c-0.2,7.5-7.1,15.2-15.5,15.6c0-0.6,0-1.2,0-1.8c0-0.9-0.6-1.6-1.5-1.6c-0.9,0-1.5,0.6-1.5,1.6c0,0.6,0,1.1,0,1.7
				c0,0,0,0-0.1,0.2c-3.8-0.3-7.1-1.8-9.9-4.3c-3.3-3-5.1-6.7-5.6-11.3c0.7,0,1.2,0,1.8,0c1,0,1.7-0.6,1.7-1.5
				c0-0.9-0.7-1.4-1.6-1.5c-0.6,0-1.1,0-1.8,0c0.3-3.7,1.7-6.8,4-9.6c3.2-3.9,7.9-5.8,11.6-6c0,0.6,0,1.2,0,1.8c0,1,0.6,1.6,1.5,1.6
				c0.9,0,1.5-0.6,1.5-1.6c0-0.6,0-1.2,0-1.7C86.6,59.6,94.5,68.4,93.9,75.3z M85.7,74.6c-1.6,0-3.2,0-4.9,0c-0.3,0-0.8-0.2-1-0.4
				c-0.7-0.6-1.4-1.1-2.3-1.2c-0.5,0-0.8-0.3-1.1-0.7c-1.4-2-2.9-4.1-4.3-6.1c-0.5-0.8-1.3-1.2-2.2-1.1c-1.7,0.2-2.5,2.1-1.5,3.5
				c1.2,1.8,2.5,3.6,3.8,5.3c0.6,0.9,1.3,1.7,0.9,2.8c0,0,0,0,0,0.1c0,1.7,1,3.1,2.5,3.7c1.5,0.6,3.2,0.2,4.3-1
				c0.3-0.3,0.6-0.5,1-0.4c1.5,0,3,0,4.4,0c0.3,0,0.6,0,0.8-0.1c1.1-0.3,1.7-1.3,1.6-2.4C87.6,75.5,86.8,74.6,85.7,74.6z"/>
		</g>
	</g>
</g>
</svg>
