<?xml version="1.0" encoding="utf-8"?>
<!-- Generator: Adobe Illustrator 19.2.0, SVG Export Plug-In . SVG Version: 6.00 Build 0)  -->
<svg version="1.1" id="Layer_1" xmlns="http://www.w3.org/2000/svg" xmlns:xlink="http://www.w3.org/1999/xlink" x="0px" y="0px"
	 viewBox="0 0 40 40" style="enable-background:new 0 0 40 40;" xml:space="preserve">
<style type="text/css">
	.st0{fill:#FFFFFF;}
</style>
<g>
	<g>
		<path class="st0" d="M37.9,4.6c-0.2-0.4-0.5-0.5-0.9-0.5c-3.8,0-7.6,0-11.4,0c-1.5,0-3,0.1-4.4,0.6c-0.7,0.3-1.3,0.6-1.9,1.1
			C19,6,19,6,18.8,5.8c-0.4-0.4-0.8-0.6-1.3-0.9c-0.6-0.3-1.3-0.5-2-0.6c-0.6-0.1-1.3-0.2-1.9-0.2c-0.6,0-1.1,0-1.7,0
			c-3.6,0-7.2,0-10.8,0c-0.1,0-0.3,0-0.4,0C0.2,4.3,0,4.6,0,5.1c0,3.8,0,7.6,0,11.4c0,3.8,0,7.6,0,11.4c0,0.7,0.5,1.1,1.1,1.1
			c2.7,0,5.4,0,8.1,0c1,0,2,0,3,0c0.9,0,1.8,0.1,2.8,0.3c0.9,0.2,1.8,0.4,2.7,0.9c0.3,0.1,0.5,0.2,0.9,0.2c0.1,0,0.2,0,0.2,0
			c0.5,0,1,0,1.4-0.1c0.1,0,0.1-0.1,0.2-0.1c0.3-0.1,0.5-0.3,0.8-0.4c0.4-0.1,0.7-0.2,1.1-0.4c0,0.2,0,0.4,0,0.5
			c0,0.2,0,0.3-0.3,0.4c-1.1,0.2-1.7,1-1.8,2c-0.2,1.2,0.1,2.3,0.4,3.4l14.6-0.8v-2.5c0-0.1,0-0.2,0-0.3c0-0.8,0-1.6-0.1-2.4
			c0-0.3-0.1-0.6-0.2-0.9c0.8,0,1.6,0,2.3,0c0.5,0,1-0.4,1-1c0-7.7,0-15.4,0-23C38,4.9,38,4.7,37.9,4.6z M17.8,28.4
			c-0.6-0.2-1.1-0.4-1.7-0.6c-0.9-0.2-1.7-0.3-2.6-0.4c-0.6-0.1-1.3-0.1-1.9-0.1c-3,0-6,0-9,0c-0.2,0-0.4,0-0.5,0
			c-0.1,0-0.1-0.1-0.2-0.2c0,0,0-0.1,0-0.2V16.6c0-3.5,0-6.9,0-10.4c0-0.2,0.1-0.3,0.3-0.3c2.3,0,4.6,0,6.9,0c1.4,0,2.8,0,4.3,0
			c1.1,0,2.1,0.2,3.2,0.6c0.6,0.2,1,0.5,1.4,1C18,7.6,18.1,7.8,18.1,8c0,0.7,0,1.4,0,2.1c0,3.1,0,6.2,0,9.2c0,2.9,0,5.9,0,8.8
			C18.1,28.4,18,28.5,17.8,28.4z M36.2,27c0,0.3,0,0.3-0.3,0.3c-1.6,0-3.3,0-4.9,0c0,0,0,0-0.1,0c-0.4-0.1-0.8-0.1-1.2,0
			c-0.3,0-0.7,0-1,0c-0.3-0.4-0.7-0.7-1.2-0.9c-0.7-0.2-1.4-0.1-2,0.5c0-0.2,0-0.3,0-0.4c0-1.4,0-2.8,0-4.2c0-0.5,0-1.1,0-1.6
			c0-0.5,0-1,0-1.5c0-0.5-0.3-0.9-0.7-1.1v-1.3c0-0.3-0.3-0.6-0.6-0.6h-1.5c-0.3,0-0.6,0.3-0.6,0.6v1.5c0,0.3,0.2,0.5,0.5,0.6
			c0,0.2-0.1,0.4-0.1,0.5c0,0.1,0,0.2,0,0.3c-0.2,0.1-0.4,0.3-0.4,0.5v1.5c0,0.2,0.1,0.4,0.3,0.5c0,0.2,0,0.3,0,0.5
			c0,0.2,0,0.4,0,0.5c-0.2,0.1-0.3,0.3-0.3,0.5v1.5c0,0.1,0.1,0.3,0.2,0.4c0,0.5,0,1-0.1,1.4c0,0.2,0,0.3,0,0.5
			c-0.7,0.2-1.5,0.4-2.2,0.7c-0.2,0.1-0.2,0-0.2-0.2c0-2.5,0-4.9,0-7.4c0-4.2,0-8.5,0-12.7c0-0.4,0.2-0.6,0.4-0.9
			c0.6-0.6,1.3-0.9,2.1-1.1c1.3-0.3,2.7-0.3,4.1-0.3c2.9,0,5.9,0,8.8,0c0.2,0,0.5,0,0.7,0c0.2,0,0.3,0.1,0.3,0.3c0,2.7,0,5.3,0,8
			v2.4C36.2,20,36.2,23.5,36.2,27z M4.6,10.9c1.2,0,3.6,0,7.4,0c0.9,0,1.8,0,2.7,0c0.3,0,0.3,0,0.3-0.3c0-0.2,0-0.3,0-0.5
			c0-0.3,0-0.3-0.3-0.3c-2.9,0-4.6,0-5,0v0c-1.7,0-3.4,0-5.1,0c-0.2,0-0.3,0.1-0.3,0.3c0,0.2,0,0.4,0,0.5
			C4.3,10.8,4.4,10.9,4.6,10.9z M14.7,15.9c-2.9,0-4.6,0-5,0v0c-1.3,0-2.6,0-3.9,0c-0.4,0-0.8,0-1.2,0c-0.1,0-0.2,0-0.2,0.2
			c0,0.2,0,0.5,0,0.7C4.3,17,4.4,17,4.6,17c0.3,0,0.5,0,0.8,0c1.8,0,5,0,9.4,0c0.2,0,0.2-0.1,0.2-0.2c0-0.2,0-0.4,0-0.6
			C15,16,14.9,15.9,14.7,15.9z M14.7,22.2c-4.6,0-7.9,0-10,0c-0.1,0-0.2,0-0.3,0c0,0.2,0,0.4,0,0.5c0,0.6,0,0.6,0.6,0.6
			c2,0,5.2,0,9.8,0c0.2,0,0.3-0.1,0.3-0.3c0-0.2,0-0.4,0-0.5C15,22.2,14.9,22.2,14.7,22.2z M8.4,12.8c-1.3,0-2.5,0-3.8,0
			c-0.2,0-0.3,0.1-0.3,0.3c0,0.2,0,0.4,0,0.5c0,0.2,0,0.3,0.3,0.3c0.9,0,1.8,0,2.7,0c1.2,0,3.6,0,7.4,0c0.2,0,0.3-0.1,0.3-0.3
			c0-0.2,0-0.4,0-0.5c0-0.3-0.1-0.3-0.3-0.3c-2.9,0-4.6,0-5,0v0C9.2,12.8,8.8,12.8,8.4,12.8z M4.6,20.3c1.7,0,3.3,0,5,0v0
			c0.4,0,2.1,0,5,0c0.2,0,0.3-0.1,0.3-0.3c0-0.2,0-0.3,0-0.5c0-0.2-0.1-0.3-0.3-0.3c-2.9,0-4.5,0-4.8,0c-1.8,0-3.5,0-5.3,0
			c-0.2,0-0.3,0-0.3,0.3c0,0.2,0,0.3,0,0.5C4.3,20.3,4.4,20.3,4.6,20.3z M39.1,7h-0.3v20.3h0.3c0.5,0,0.9-0.4,0.9-1V7.9
			C40,7.4,39.6,7,39.1,7z M34.6,14.2V8.6c0-0.5-0.4-1-0.9-1H22.9c-0.5,0-0.9,0.4-0.9,1v5.7c0,0.5,0.4,1,0.9,1h10.7
			C34.2,15.2,34.6,14.7,34.6,14.2z M29.2,16.3h-1.5c-0.3,0-0.6,0.3-0.6,0.6v1.5c0,0.3,0.3,0.6,0.6,0.6h1.5c0.3,0,0.6-0.3,0.6-0.6
			v-1.5C29.8,16.5,29.5,16.3,29.2,16.3z M29.2,19.8h-1.5c-0.3,0-0.6,0.3-0.6,0.6v1.5c0,0.3,0.3,0.6,0.6,0.6h1.5
			c0.3,0,0.6-0.3,0.6-0.6v-1.5C29.8,20,29.5,19.8,29.2,19.8z M29.2,23.3h-1.5c-0.3,0-0.6,0.3-0.6,0.6v1.5c0,0.3,0.3,0.6,0.6,0.6h1.5
			c0.3,0,0.6-0.3,0.6-0.6v-1.5C29.8,23.5,29.5,23.3,29.2,23.3z M34.1,16.3h-1.5c-0.3,0-0.6,0.3-0.6,0.6v1.5c0,0.3,0.3,0.6,0.6,0.6
			h1.5c0.3,0,0.6-0.3,0.6-0.6v-1.5C34.6,16.5,34.4,16.3,34.1,16.3z M34.1,19.8h-1.5c-0.3,0-0.6,0.3-0.6,0.6v1.5
			c0,0.3,0.3,0.6,0.6,0.6h1.5c0.3,0,0.6-0.3,0.6-0.6v-1.5C34.6,20,34.4,19.8,34.1,19.8z M34.1,23.3h-1.5c-0.3,0-0.6,0.3-0.6,0.6v1.5
			c0,0.3,0.3,0.6,0.6,0.6h1.5c0.3,0,0.6-0.3,0.6-0.6v-1.5C34.6,23.5,34.4,23.3,34.1,23.3z"/>
	</g>
</g>
</svg>
