<?xml version="1.0" encoding="utf-8"?>
<!-- Generator: Adobe Illustrator 18.0.0, SVG Export Plug-In . SVG Version: 6.00 Build 0)  -->
<!DOCTYPE svg PUBLIC "-//W3C//DTD SVG 1.1//EN" "http://www.w3.org/Graphics/SVG/1.1/DTD/svg11.dtd">
<svg version="1.1" id="Capa_1" xmlns="http://www.w3.org/2000/svg" xmlns:xlink="http://www.w3.org/1999/xlink" x="0px" y="0px"
	 viewBox="0 0 380 380" enable-background="new 0 0 380 380" xml:space="preserve">
<g>
	<circle fill="#FFFFFF" cx="79.6" cy="305.4" r="12.5"/>
	<path fill="#FFFFFF" d="M123.6,363.1l12.5-12.5c1.2-1.2,1.4-3.2,0.4-4.6l-10-14.6c1.8-3.3,3.2-6.7,4.3-10.3l17.5-3.3
		c1.6-0.3,2.9-1.9,2.9-3.6v-17.6c0-1.7-1.3-3.3-2.9-3.6l-17.5-3.3c-1.1-3.5-2.5-6.9-4.2-10.1l10.1-14.8c0.9-1.4,0.7-3.4-0.4-4.6
		l-12.5-12.5c-1.2-1.2-3.2-1.4-4.6-0.4l-14.8,10.1c-3.3-1.8-6.8-3.2-10.4-4.3l-3.3-17.4c-0.3-1.6-1.9-3-3.6-3H69.5
		c-1.7,0-3.2,1.3-3.6,3l-3.3,17.6c-3.5,1.1-6.9,2.5-10,4.2l-14.6-10c-1.4-0.9-3.4-0.7-4.6,0.4l-12.5,12.5c-1.2,1.2-1.4,3.2-0.4,4.6
		l10.1,14.7c-1.7,3.2-3.1,6.5-4.1,10L8.9,293c-1.6,0.3-2.9,1.9-2.9,3.6v17.6c0,1.7,1.3,3.2,2.9,3.6l17.5,3.3c1.1,3.6,2.5,7,4.2,10.2
		l-9.9,14.5c-0.9,1.4-0.7,3.4,0.4,4.6l12.5,12.5c1.2,1.2,3.2,1.4,4.6,0.4l14.5-9.9c3.1,1.7,6.4,3.1,9.9,4.1l3.3,17.6
		c0.3,1.6,1.9,2.9,3.6,2.9h17.6c1.7,0,3.2-1.3,3.6-2.9l3.3-17.4c3.6-1.1,7.1-2.5,10.3-4.2l14.7,10.1
		C120.3,364.5,122.4,364.3,123.6,363.1z M78.6,335.7c-16.7,0-30.3-13.6-30.3-30.3c0-16.7,13.6-30.3,30.3-30.3
		c16.7,0,30.3,13.6,30.3,30.3C108.9,322.1,95.3,335.7,78.6,335.7z"/>
	<path fill="#FFFFFF" d="M295.4,219.8c-44.2,0-80.1,35.9-80.1,80.1c0,44.2,35.9,80.1,80.1,80.1s80.1-35.9,80.1-80.1
		C375.4,255.7,339.6,219.8,295.4,219.8z M300.5,359.1v-6.9c0-2.9-2.3-5.2-5.1-5.2c-2.9,0-5.2,2.3-5.2,5.2v6.9
		c-28.7-2.5-51.6-25.4-54-54h6.9c2.8,0,5.1-2.3,5.1-5.1c0-2.9-2.3-5.2-5.1-5.2h-6.9c2.5-28.7,25.4-51.6,54-54v6.9
		c0,2.8,2.3,5.2,5.2,5.2c2.8,0,5.1-2.3,5.1-5.2v-6.9c28.7,2.5,51.6,25.4,54,54h-6.9c-2.8,0-5.1,2.3-5.1,5.2c0,2.8,2.3,5.1,5.1,5.1
		h6.9C352.1,333.7,329.2,356.6,300.5,359.1z"/>
	<path fill="#FFFFFF" d="M325.2,292.1h-18.6c-2.5-3.6-6.6-5.9-11.3-5.9c-0.1,0-0.1,0-0.2,0l-16.9-23.8c-2.5-3.5-7.3-4.3-10.8-1.8
		s-4.3,7.3-1.8,10.8l16.9,23.8c-0.5,1.5-0.9,3-0.9,4.7c0,7.5,6.1,13.7,13.7,13.7c4.7,0,8.8-2.4,11.3-5.9h18.6c4.3,0,7.7-3.4,7.7-7.7
		C332.9,295.6,329.5,292.1,325.2,292.1z"/>
	<path fill="#FFFFFF" d="M81.8,140.5c14,0,25.4-11.4,25.4-25.3v-55c0-14-11.3-25.3-25.4-25.3c-14,0-25.3,11.3-25.3,25.3v55
		C56.5,129.1,67.8,140.5,81.8,140.5z"/>
	<path fill="#FFFFFF" d="M237.1,140.5c14,0,25.4-11.4,25.4-25.3v-55c0-14-11.3-25.3-25.4-25.3c-14,0-25.3,11.3-25.3,25.3v55
		C211.7,129.1,223.1,140.5,237.1,140.5z"/>
	<path fill="#FFFFFF" d="M78.8,197.8c-7.2,0-13.1,5.9-13.1,13.1v7.3c1.2-0.3,2.5-0.4,3.8-0.4h17.6c8.8,0,16.7,6.5,18.3,15.2l0.9,4.9
		l4.4-3c1.7-1.2,3.6-2,5.5-2.5c0-4.4,0-21.5,0-21.5c0-7.2-5.9-13.1-13.1-13.1H78.8z"/>
	<path fill="#FFFFFF" d="M184.7,210.9c0-7.2-5.9-13.1-13.1-13.1h-24.3c-7.2,0-13.1,5.9-13.1,13.1v24.3c0,0.7,0.1,1.3,0.2,2l11,11
		c0.6,0.1,1.3,0.2,2,0.2h24.3c7.2,0,13.1-5.9,13.1-13.1V210.9z"/>
	<path fill="#FFFFFF" d="M215.9,197.8c-7.2,0-13.1,5.9-13.1,13.1v24.3c0,6.6,4.9,11.7,11.2,12.7c9.6-15,23.2-27.1,39.3-34.9v-2.1
		c0-7.2-5.9-13.1-13.1-13.1H215.9z"/>
	<path fill="#FFFFFF" d="M171.6,314.1c7.2,0,13.1-5.9,13.1-13.1v-24.3c0-7.2-5.9-13.1-13.1-13.1h-19.4c-0.1,3.4-1.2,6.8-3.2,9.7
		l-2.8,4.1l4.7,0.9c8.7,1.7,15.2,9.5,15.2,18.3v17.5H171.6z"/>
	<path fill="#FFFFFF" d="M10.8,277.4l-2.7-3.9c-5-7.3-4-17.5,2.2-23.7l12.5-12.5c3.4-3.4,8.2-5.4,13.2-5.4c3.3,0,6.5,0.9,9.3,2.5
		V172h228.3v33.7c7-1.6,14.2-2.6,21.7-2.6c6.4,0,12.7,0.7,18.8,1.9V83.9h-36.5v31.2c0,22.4-18.2,40.6-40.6,40.6
		c-22.4,0-40.6-18.2-40.6-40.6V83.9h-74.1v31.2c0,22.4-18.2,40.6-40.6,40.6c-22.4,0-40.7-18.2-40.7-40.6V83.9H4.5v194.8
		c0.5-0.2,1.1-0.3,1.6-0.4L10.8,277.4z"/>
	<path fill="#FFFFFF" d="M207,339.2h-57.2c3.9,7.2,2.7,16.2-3.2,22l-12.5,12.5c-3.4,3.4-8.2,5.4-13.2,5.4c0,0,0,0,0,0
		c-3.8,0-7.4-1.1-10.5-3.2l-4.2-2.9l-0.9,4.8c-0.1,0.6-0.3,1.3-0.5,1.9H235c1.8,0,3.6-0.1,5.3-0.3
		C225.9,369.4,214.3,355.5,207,339.2z"/>
</g>
</svg>
