<svg id="Layer_1" data-name="Layer 1" xmlns="http://www.w3.org/2000/svg" viewBox="0 0 40 19.52"><defs><style>.cls-1{fill:#fff;}</style></defs><title>Supply Chain-white_40</title><path class="cls-1" d="M18.71,16H25a0.88,0.88,0,0,0,.9-0.9v-4a0.88,0.88,0,0,0-.9-0.9H18.71a0.88,0.88,0,0,0-.9.9v4A0.94,0.94,0,0,0,18.71,16ZM9.28,16h6.33a0.88,0.88,0,0,0,.9-0.9v-4a0.88,0.88,0,0,0-.9-0.9H9.28a0.88,0.88,0,0,0-.9.9v4A0.94,0.94,0,0,0,9.28,16Zm-0.1,8.09a0.41,0.41,0,0,0-.38.38V25.9a0.41,0.41,0,0,0,.38.38h5A4,4,0,0,1,15.38,24H9.19v0.14Zm15.71-.9a0.88,0.88,0,0,0,.9-0.9v-4a0.88,0.88,0,0,0-.9-0.9H9.28a0.88,0.88,0,0,0-.9.9v4a0.88,0.88,0,0,0,.9.9H24.9Zm7.43,0.9A2.85,2.85,0,0,0,29.52,27a2.78,2.78,0,0,0,2.81,2.81A2.85,2.85,0,0,0,35.14,27,2.78,2.78,0,0,0,32.33,24.14Zm0,4.09a1.38,1.38,0,1,1,0-2.76,1.38,1.38,0,0,1,1.38,1.38A1.3,1.3,0,0,1,32.33,28.24Zm7.33-4.09h-1.1V18a3.42,3.42,0,0,0-.62-2l-2.71-4a3.71,3.71,0,0,0-3-1.62H28a0.88,0.88,0,0,0-.9.9V24.14h-6.9a3.38,3.38,0,0,1,1.19,2.29h7.33a3.72,3.72,0,0,1,3.62-3.19A3.65,3.65,0,0,1,36,26.43h3.62A0.35,0.35,0,0,0,40,26V24.67A0.4,0.4,0,0,0,39.66,24.14Zm-4.52-7.28H29.52a0.41,0.41,0,0,1-.38-0.38V13.38A0.41,0.41,0,0,1,29.52,13h3.43a0.72,0.72,0,0,1,.38.19l2.19,3.09C35.76,16.43,35.56,16.86,35.14,16.86ZM17.81,24.14A2.85,2.85,0,0,0,15,27a2.78,2.78,0,0,0,2.81,2.81A2.85,2.85,0,0,0,20.62,27,2.78,2.78,0,0,0,17.81,24.14Zm0,4.09a1.38,1.38,0,1,1,0-2.76,1.38,1.38,0,0,1,1.38,1.38A1.35,1.35,0,0,1,17.81,28.24ZM6.57,17.43c-1.29.1-2.52,0.1-3.81,0.1L0,17.86C1.1,18,2.19,18,3.29,18s2.29,0.19,3.43.19c0.38,0,.9.1,1-0.38S7.28,17.33,6.57,17.43Zm0.62,4.43a2.93,2.93,0,0,0-.9-0.1c-1,0-1.9.1-2.9,0.1H1.29V22c1.38,0.19,2.71.29,4.09,0.52a11.78,11.78,0,0,0,1.71.19,2.32,2.32,0,0,0,.62-0.29A3.86,3.86,0,0,0,7.19,21.86ZM6.38,20.33H7A0.51,0.51,0,0,0,7.38,20a1,1,0,0,0-.29-0.38,0.57,0.57,0,0,0-.38-0.1l-3.52.29v0.1a0.49,0.49,0,0,0,.38.19Z" transform="translate(0 -10.24)"/></svg>