<?xml version="1.0" encoding="utf-8"?>
<!-- Generator: Adobe Illustrator 18.0.0, SVG Export Plug-In . SVG Version: 6.00 Build 0)  -->
<!DOCTYPE svg PUBLIC "-//W3C//DTD SVG 1.1//EN" "http://www.w3.org/Graphics/SVG/1.1/DTD/svg11.dtd">
<svg version="1.1" id="Layer_1" xmlns="http://www.w3.org/2000/svg" xmlns:xlink="http://www.w3.org/1999/xlink" x="0px" y="0px"
	 viewBox="0 0 380 380" enable-background="new 0 0 380 380" xml:space="preserve">
<g>
	<g>
		<g>
			<path fill="#FFFFFF" d="M218.1,147.5c14.1-14.1,32.8-21.9,52.7-21.9s38.7,7.7,52.7,21.9c12,12,19.6,28,21.4,44.8
				c1.4,13-0.7,26.2-6,38.2l0.2,0.2c5.6,1.4,10.6,4.3,14.7,8.2l2.9,2.9V37.7c0-3.2-1.6-6.2-4.3-8c-26-17.7-55.7-27-85.6-27
				c-27.9,0-55.5,8.2-80.2,23.6C162,10.7,134.4,2.6,106.5,2.6c-29.9,0-59.5,9.4-85.6,27c-2.6,1.8-4.3,4.8-4.3,8v227.6
				c0,3.6,2,6.9,5.2,8.6c3.1,1.7,7.1,1.4,10-0.5c22.8-15.5,48.6-23.7,74.7-23.7s51.9,8.2,74.7,23.7c1.6,1.1,3.6,1.7,5.4,1.7l0,0
				c2,0,3.9-0.5,5.6-1.7c9.8-6.6,20.1-11.9,30.7-15.8c-1.7-1.4-3.4-2.9-4.9-4.5C189,223.9,189,176.6,218.1,147.5z M214.9,68.1
				c18.2-12.4,43.1-14.3,56.3-14.3s38.1,1.9,56.3,14.3c4.5,3.1,5.6,9.2,2.6,13.7c-3.1,4.5-9.2,5.6-13.7,2.6
				c-10.1-6.9-26.6-10.9-45.2-10.9s-35.1,4-45.2,10.9c-1.7,1.2-3.7,1.7-5.5,1.7c-3.1,0-6.2-1.5-8.2-4.3
				C209.3,77.3,210.5,71.2,214.9,68.1z M214.9,110.6c18.2-12.4,43.1-14.3,56.3-14.3s38.1,1.9,56.3,14.3c4.5,3.1,5.6,9.2,2.6,13.7
				c-3,4.5-9.2,5.6-13.7,2.6c-10.1-6.9-26.6-10.9-45.2-10.9s-35.1,4-45.2,10.9c-1.7,1.2-3.7,1.7-5.5,1.7c-3.1,0-6.2-1.5-8.2-4.3
				C209.3,119.8,210.5,113.7,214.9,110.6z M161.3,209.3c-3.1,4.5-9.2,5.6-13.7,2.6C137.5,205,121,201,102.4,201s-35.1,4-45.2,10.9
				c-1.7,1.2-3.7,1.7-5.5,1.7c-3.1,0-6.2-1.5-8.2-4.3c-3.1-4.5-2-10.6,2.6-13.7c18.4-12.4,43.2-14.2,56.5-14.2s38.1,1.9,56.3,14.3
				C163.2,198.8,164.4,204.9,161.3,209.3z M161.3,166.8c-3.1,4.5-9.2,5.6-13.7,2.6c-10.1-6.9-26.6-10.9-45.2-10.9s-35.1,4-45.2,10.9
				c-1.7,1.2-3.7,1.7-5.5,1.7c-3.1,0-6.2-1.5-8.2-4.3c-3.1-4.5-2-10.6,2.6-13.7c18.2-12.4,43.1-14.3,56.3-14.3s38.1,1.9,56.3,14.3
				C163.2,156.2,164.4,162.3,161.3,166.8z M161.3,124.2c-3.1,4.5-9.2,5.6-13.7,2.6c-10.1-6.9-26.6-10.9-45.2-10.9s-35.1,4-45.2,10.9
				c-1.7,1.2-3.7,1.7-5.5,1.7c-3.1,0-6.2-1.5-8.2-4.3c-3.1-4.5-2-10.6,2.6-13.7c18.2-12.4,43.1-14.3,56.3-14.3s38.1,1.9,56.3,14.3
				C163.2,113.7,164.4,119.8,161.3,124.2z M161.3,81.7c-3.1,4.5-9.2,5.6-13.7,2.6c-10.1-6.9-26.6-10.9-45.2-10.9s-35.1,4-45.2,10.9
				c-1.7,1.2-3.7,1.7-5.5,1.7c-3.1,0-6.2-1.5-8.2-4.3c-3.1-4.5-2-10.6,2.6-13.7c18.4-12.4,43.2-14.3,56.5-14.3s38.1,1.9,56.3,14.3
				C163.2,71.2,164.4,77.3,161.3,81.7z"/>
		</g>
	</g>
</g>
<g>
	<g>
		<path fill="#FFFFFF" d="M252.9,373.3c0,3.2,2.6,5.9,5.9,5.9h86.3c3.2,0,5.9-2.6,5.9-5.9v-13.4h-98.1L252.9,373.3L252.9,373.3z"/>
		<path fill="#FFFFFF" d="M248.3,255.6v-51.9c0-6,2.3-11.6,6.4-15.8c4.6-4.6,11.2-7.2,18.2-7.2c5.4,0,10.6,1.7,14.7,4.7
			c4.9,3.7,7.9,9.1,8.6,15.3c0,0.2,2.8,27.2,5.4,51.5c17.6-10.4,29.5-29.5,29.5-51.5c0-32.9-26.7-59.6-59.6-59.6
			s-59.6,26.7-59.6,59.6C211.8,225.3,226.9,246.5,248.3,255.6z"/>
		<path fill="#FFFFFF" d="M365.9,281.3c0-4.8-3.7-9.1-9.1-10.6c-16.2-4.5-48.9-13.4-53.9-14.3c-1.5-0.3-3.1-0.3-4.5-0.3
			c-3.9,0-7.4,0.9-9.4,2.5l0,0l0,0c0-0.2-7.6-62.1-7.6-62.2c-0.6-4.9-5.4-7.3-10.5-7.3c-5.7,0-11.5,3.1-11.5,8.7V298
			c0,1.2-1,2.2-2.4,2.4c0,0,0,0-0.1,0s-0.3,0-0.3,0h-0.1c-4-0.1-12.9-0.2-21.7-11c-1.2-1.4-2.2-2.7-3.1-3.9
			c-3.1-3.7-7.1-5.3-10.9-5.3c-6.7,0-12.8,4.9-11.3,12.3c2.1,10.7,15.9,35.7,43.2,59.2h98l9.9-14.2c3.6-5,5.4-10.8,5.4-16.7
			L365.9,281.3L365.9,281.3z"/>
	</g>
</g>
</svg>
