<?xml version="1.0" encoding="utf-8"?>
<!-- Generator: Adobe Illustrator 18.0.0, SVG Export Plug-In . SVG Version: 6.00 Build 0)  -->
<!DOCTYPE svg PUBLIC "-//W3C//DTD SVG 1.1//EN" "http://www.w3.org/Graphics/SVG/1.1/DTD/svg11.dtd">
<svg version="1.1" id="Capa_1" xmlns="http://www.w3.org/2000/svg" xmlns:xlink="http://www.w3.org/1999/xlink" x="0px" y="0px"
	 viewBox="0 0 380 380" enable-background="new 0 0 380 380" xml:space="preserve">
<g>
	<g>
		<g>
			<g>
				<g>
					<path fill="#FFFFFF" d="M295.4,219.8c-44.2,0-80.1,35.9-80.1,80.1s35.9,80.1,80.1,80.1s80.1-35.9,80.1-80.1
						C375.4,255.7,339.6,219.8,295.4,219.8z M300.5,359.1v-6.9c0-2.9-2.3-5.2-5.1-5.2c-2.9,0-5.2,2.3-5.2,5.2v6.9
						c-28.7-2.5-51.6-25.4-54-54h6.9c2.8,0,5.1-2.3,5.1-5.1c0-2.9-2.3-5.2-5.1-5.2h-6.9c2.5-28.7,25.4-51.6,54-54v6.9
						c0,2.8,2.3,5.2,5.2,5.2c2.8,0,5.1-2.3,5.1-5.2v-6.9c28.7,2.5,51.6,25.4,54,54h-6.9c-2.8,0-5.1,2.3-5.1,5.2
						c0,2.8,2.3,5.1,5.1,5.1h6.9C352.1,333.7,329.2,356.6,300.5,359.1z"/>
				</g>
			</g>
		</g>
		<g>
			<g>
				<g>
					<path fill="#FFFFFF" d="M325.2,292.1h-18.6c-2.5-3.6-6.6-5.9-11.3-5.9c-0.1,0-0.1,0-0.2,0l-16.9-23.8
						c-2.5-3.5-7.3-4.3-10.8-1.8s-4.3,7.3-1.8,10.8l16.9,23.8c-0.5,1.5-0.9,3-0.9,4.7c0,7.5,6.1,13.7,13.7,13.7
						c4.7,0,8.8-2.4,11.3-5.9h18.6c4.3,0,7.7-3.4,7.7-7.7C332.9,295.6,329.5,292.1,325.2,292.1z"/>
				</g>
			</g>
		</g>
		<g>
			<g>
				<g>
					<path fill="#FFFFFF" d="M81.8,140.5c14,0,25.4-11.4,25.4-25.3v-55c0-14-11.3-25.3-25.4-25.3c-14,0-25.3,11.3-25.3,25.3v55
						C56.5,129.1,67.8,140.5,81.8,140.5z"/>
				</g>
			</g>
		</g>
		<g>
			<g>
				<g>
					<path fill="#FFFFFF" d="M237.1,140.5c14,0,25.4-11.4,25.4-25.3v-55c0-14-11.3-25.3-25.4-25.3c-14,0-25.3,11.3-25.3,25.3v55
						C211.7,129.1,223.1,140.5,237.1,140.5z"/>
				</g>
			</g>
		</g>
		<g>
			<g>
				<g>
					<path fill="#FFFFFF" d="M116.2,210.9c0-7.2-5.9-13.1-13.1-13.1H78.8c-7.2,0-13.1,5.9-13.1,13.1v24.3c0,7.2,5.9,13.1,13.1,13.1
						h24.3c7.2,0,13.1-5.9,13.1-13.1V210.9z"/>
				</g>
			</g>
		</g>
		<g>
			<g>
				<g>
					<path fill="#FFFFFF" d="M184.7,210.9c0-7.2-5.9-13.1-13.1-13.1h-24.3c-7.2,0-13.1,5.9-13.1,13.1v24.3c0,7.2,5.9,13.1,13.1,13.1
						h24.3c7.2,0,13.1-5.9,13.1-13.1V210.9z"/>
				</g>
			</g>
		</g>
		<g>
			<g>
				<g>
					<path fill="#FFFFFF" d="M215.9,197.8c-7.2,0-13.1,5.9-13.1,13.1v24.3c0,6.6,4.9,11.7,11.2,12.7c9.6-15,23.2-27.1,39.3-34.9
						v-2.1c0-7.2-5.9-13.1-13.1-13.1H215.9L215.9,197.8z"/>
				</g>
			</g>
		</g>
		<g>
			<g>
				<g>
					<path fill="#FFFFFF" d="M78.8,263.6c-7.2,0-13.1,5.9-13.1,13.1V301c0,7.2,5.9,13.1,13.1,13.1h24.3c7.2,0,13.1-5.9,13.1-13.1
						v-24.3c0-7.2-5.9-13.1-13.1-13.1H78.8z"/>
				</g>
			</g>
		</g>
		<g>
			<g>
				<g>
					<path fill="#FFFFFF" d="M171.6,263.6h-24.3c-7.2,0-13.1,5.9-13.1,13.1V301c0,7.2,5.9,13.1,13.1,13.1h24.3
						c7.2,0,13.1-5.9,13.1-13.1v-24.3C184.7,269.5,178.8,263.6,171.6,263.6z"/>
				</g>
			</g>
		</g>
		<g>
			<g>
				<g>
					<path fill="#FFFFFF" d="M207,339.2H83.8c-21.2,0-38.5-17.3-38.5-38.5V172h228.3v33.7c7-1.6,14.2-2.6,21.7-2.6
						c6.4,0,12.7,0.7,18.8,1.9V83.9h-36.5v31.2c0,22.4-18.2,40.6-40.6,40.6s-40.6-18.2-40.6-40.6V83.9h-74.1v31.2
						c0,22.4-18.2,40.6-40.6,40.6S41,137.5,41,115.1V83.9H4.5v216.8c0,43.6,35.4,79,79,79h151.5c1.8,0,3.6-0.1,5.3-0.3
						C225.9,369.4,214.3,355.5,207,339.2z"/>
				</g>
			</g>
		</g>
	</g>
</g>
</svg>
