<?xml version="1.0" encoding="utf-8"?>
<!-- Generator: Adobe Illustrator 18.0.0, SVG Export Plug-In . SVG Version: 6.00 Build 0)  -->
<!DOCTYPE svg PUBLIC "-//W3C//DTD SVG 1.1//EN" "http://www.w3.org/Graphics/SVG/1.1/DTD/svg11.dtd">
<svg version="1.1" id="Layer_1" xmlns="http://www.w3.org/2000/svg" xmlns:xlink="http://www.w3.org/1999/xlink" x="0px" y="0px"
	 viewBox="0 0 380 380" enable-background="new 0 0 380 380" xml:space="preserve">
<circle fill="#FFFFFF" cx="78.4" cy="291.5" r="12.5"/>
<path fill="#FFFFFF" d="M135.3,332.1l-10-14.6c1.8-3.3,3.2-6.7,4.3-10.3l17.5-3.3c1.6-0.3,2.9-1.9,2.9-3.6v-17.6
	c0-1.7-1.3-3.3-2.9-3.6l-17.5-3.3c-1.1-3.5-2.5-6.9-4.2-10.1l10.1-14.8c0.9-1.4,0.7-3.4-0.4-4.6l-12.5-12.5
	c-1.2-1.2-3.2-1.4-4.6-0.4l-14.8,10.1c-3.3-1.8-6.8-3.2-10.4-4.3l-3.3-17.4c-0.3-1.6-1.9-3-3.6-3H68.3c-1.7,0-3.2,1.3-3.6,3
	l-3.3,17.6c-3.5,1.1-6.9,2.5-10,4.2l-14.6-10c-1.4-0.9-3.4-0.7-4.6,0.4l-12.5,12.5c-1.2,1.2-1.4,3.2-0.4,4.6l10.1,14.7
	c-1.7,3.2-3.1,6.5-4.1,10l-17.5,3.3c-1.6,0.3-2.9,1.9-2.9,3.6v17.6c0,1.7,1.3,3.2,2.9,3.6l17.5,3.3c1.1,3.6,2.5,7,4.2,10.2
	l-9.9,14.5c-0.9,1.4-0.7,3.4,0.4,4.6L32.5,349c1.2,1.2,3.2,1.4,4.6,0.4l14.5-9.9c3.1,1.7,6.4,3.1,9.9,4.1l3.3,17.6
	c0.3,1.6,1.9,2.9,3.6,2.9H86c1.7,0,3.2-1.3,3.6-2.9l3.3-17.4c3.6-1.1,7.1-2.5,10.3-4.2l14.7,10.1c1.4,0.9,3.4,0.7,4.6-0.4l12.5-12.5
	C136.1,335.5,136.3,333.5,135.3,332.1z M77.4,321.8c-16.7,0-30.3-13.6-30.3-30.3c0-16.7,13.6-30.3,30.3-30.3s30.3,13.6,30.3,30.3
	C107.7,308.2,94.2,321.8,77.4,321.8z"/>
<g>
	<path fill="#FFFFFF" d="M261.4,220.7c-1.1-0.2-2.3-0.4-3.4-0.5C259.2,220.4,260.3,220.5,261.4,220.7z"/>
	<path fill="#FFFFFF" d="M331.3,261c-0.4-7.8-4.4-13.5-11.3-15.6c-2.1-0.6-4.4-0.6-6.6-0.4c-2.5,0.2-4.6,1.6-5.7,4.8
		c-2.4-7.6-7-12.2-14.1-14c-6.9-1.7-13.3-1.1-18.3,5.3c-2.3-6.9-6.8-11.4-13.8-13.1c-6.7-1.6-13-1.1-18.7,4.3c0-1.5,0-2.5,0-3.4
		c0.1-13.1,0.1-26.2,0.2-39.4c0-5.1,0.2-10.1,0.2-15.2c0-4.6-0.2-9.1-0.1-13.7c0.1-5.9-4.4-10.8-10.4-12c-0.4-0.1-0.9-0.3-1.3-0.4
		c-1.2,0-2.4,0-3.7,0c-2.7,0.7-5.4,1.5-7.7,3.3c-3.6,2.9-4.2,6.9-4.4,11.1c-0.2,5.7-0.3,11.3-0.5,17c-0.2,4.9-0.7,9.9-0.9,14.8
		c-0.3,6.5-0.4,13.1-0.7,19.6c-0.3,7.1-0.7,14.3-1.1,21.4c-0.5,9.2-1.1,18.3-1.6,27.5c-0.1,1.8-0.4,2.9-2.7,3.3
		c-10.7,2-15.7,9.3-17.1,19.2c-1.6,11.1,0.8,21.9,3.8,32.5c1.4,5,3,10.1,4.9,14.9c2,5.2,5.5,9.4,9.3,13.4c5.5,5.9,10.7,12,15.9,18.1
		c0.9,1.1,1.8,1.5,3.3,1.5c14.8,0,29.7,0.1,44.5,0.1c11.3,0,22.6-0.1,33.9-0.2c1,0,2.4-0.7,3-1.5c9.5-11.1,16.2-23.7,19.7-37.9
		c1.2-4.7,1.8-9.5,2.7-14.3c0.1-0.6,0.3-1.2,0.4-1.8c0-7.8,0-15.7,0-23.5c-0.1-0.9-0.2-1.9-0.3-2.8
		C331.9,276.4,331.7,268.7,331.3,261z"/>
	<path fill="#FFFFFF" d="M359.1,22.3c-1.8-3.5-4.9-5.2-8.9-5.2c-36,0-72,0.1-108-0.1c-14.2-0.1-28.1,1-41.6,5.9
		c-6.6,2.4-12.7,5.6-17.8,10.5c-2,1.9-2.4,1.9-4.4-0.1c-3.6-3.5-7.8-6-12.3-8.1c-6.1-2.9-12.5-5-19.2-5.9
		c-6.1-0.8-12.2-1.7-18.3-2.1c-5.4-0.3-10.7,0-16.1,0c-33.8,0-67.7,0-101.5,0c-1.2,0-2.4,0.1-3.5,0.5C3,19.4,1.3,22.1,1.3,27
		c0,35.9,0,71.8,0,107.7c0,36,0.1,72-0.1,107.9c0,3.1,1,5.5,2.6,7.2c-0.2-5.1,1.6-10.1,5.4-13.9l9.1-9.1c0-30.6,0-61.2,0-91.9
		c0-32.6,0-65.2-0.1-97.8c0-2.2,0.5-2.8,2.7-2.8c21.8,0.1,43.6,0.1,65.4,0.1c13.4,0,26.9-0.4,40.3-0.3c10.2,0.1,20.2,1.5,29.8,5.2
		c5.2,2.1,9.8,4.9,13.5,9.3c1.5,1.7,2.2,3.6,2.1,6c-0.1,6.5,0,13.1,0,19.6c0,29.1-0.1,58.1-0.1,87.2c0,27.8,0.1,55.6,0.2,83.3
		c-0.2,2.3-0.7,2.5-2.7,1.7c-5.4-2-10.7-4.2-16.2-5.5c-1.4-0.3-2.9-0.6-4.3-0.9c2.8,5.3,3,11.8,0.3,17.2c6.3,1.6,12.5,3.8,18.3,6.9
		c2.6,1.4,5.2,2.1,8.1,2c0.7,0,1.5,0.1,2.2,0.1c4.5-0.2,9-0.4,13.5-0.7c0.6,0,1.2-0.5,1.8-0.8c2-1,4-2.1,6-3.1
		c1.7-0.8,3.4-1.4,5-1.9c0.2-4.1,0.5-8.1,0.7-12.2c0.1-2,0.2-4,0.4-6.1c-4.6,1.3-9,2.9-13.4,4.9c-1.8,0.8-2.3,0.4-2.3-2
		c0-23.1,0-46.3,0-69.4c0-40,0-80.1,0-120.1c0-3.6,1.7-6,4-8.2c5.5-5.4,12.4-8.1,19.7-10c12.6-3.2,25.4-2.7,38.3-2.5
		c27.7,0.2,55.4,0,83.1,0c2.2,0,4.3,0.1,6.5,0c2.1-0.2,2.4,0.8,2.4,2.7c-0.1,25.1,0,50.2,0,75.3c0,7.7,0,15.3,0,23
		c0,32.6,0,65.2,0,97.8c0,2.8-0.1,2.9-2.9,2.9c-10.9,0-21.8,0-32.7-0.1c0.8,0.8,1.5,1.7,2.2,2.6c0.9-0.3,1.9-0.5,2.9-0.6
		s2.1-0.1,3-0.1c2.3,0,4.4,0.3,6.3,0.8c7.2,2.2,12.4,7.3,14.8,14.2c4.7,0,9.5,0,14.2,0s9-4.1,9-9.1C360,171.4,360,99,360,26.6
		C360,25.2,359.8,23.6,359.1,22.3z"/>
	<path fill="#FFFFFF" d="M45,81.4c11,0,34.2,0,69.4-0.1c8.4,0,16.7,0,25.1,0c2.7,0,3-0.3,3-2.9c0-1.5,0-3,0-4.5c0-2.9,0-2.9-3-2.9
		c-27.8,0-43.4,0-47,0c-15.9,0-31.8,0-47.7,0c-2,0-2.6,0.6-2.4,2.6c0,1.7,0,3.4-0.1,5.1C42.1,80.8,42.9,81.4,45,81.4z"/>
	<path fill="#FFFFFF" d="M139.9,128.8c-27.8,0.1-43.6,0-47.2,0c-12.3,0-24.6,0-36.9,0c-3.8,0-7.6,0-11.4,0c-1.4,0-2.1,0.3-2,1.9
		c0,2.3,0,4.4-0.1,6.6c-0.1,1.7,0.6,2.2,2.3,2.1c2.4-0.2,4.8,0,7.2,0c17.4,0,47,0,88.6,0c1.4,0,2.1-0.6,2.1-2c0-2-0.2-3.9,0-5.9
		C142.7,129.3,141.9,128.8,139.9,128.8z"/>
	<path fill="#FFFFFF" d="M139.6,187.9c-43.5,0.1-75,0-94.3,0c-0.9,0-1.8,0-2.9,0c0,2,0,3.5,0,5.1c0,5.3,0,5.3,5.3,5.3
		c18.7,0,49.4,0,92.3,0c1.9,0,2.6-0.6,2.5-2.4c-0.1-1.7-0.2-3.5,0-5.2C142.7,188.4,141.8,187.9,139.6,187.9z"/>
	<path fill="#FFFFFF" d="M44.7,109.9c8.4-0.1,16.9-0.1,25.3-0.1c11.1,0,34.3-0.1,69.6,0c2.2,0,2.9-0.8,2.8-2.9
		c-0.1-1.6-0.3-3.3,0-4.9c0.4-2.4-0.8-2.7-2.8-2.7c-27.8,0.1-43.6,0-47.2,0c0,0,0,0,0-0.1c-3.9,0-7.8,0-11.6,0
		c-11.9,0-23.9,0.1-35.8-0.1c-2.2,0-2.9,0.7-2.7,2.8c0.2,1.7,0.1,3.5,0,5.2C42.1,109.2,42.6,110,44.7,109.9z"/>
	<path fill="#FFFFFF" d="M45.1,170.7c15.7,0,31.4,0,47,0c3.7,0,19.6-0.1,47.5,0c2.2,0,2.9-0.8,2.8-2.9c-0.1-1.5-0.1-3,0-4.5
		c0.2-2.1-0.5-2.9-2.7-2.9c-27.2,0.2-42.3,0-45.2,0c-16.6,0-33.2,0-49.7-0.1c-1.8,0-2.6,0.4-2.4,2.4c0.1,1.6,0,3.3,0,5
		C42.2,170.6,42.3,170.7,45.1,170.7z"/>
	<path fill="#FFFFFF" d="M369.8,44.4h-3.1v191.4h3.1c4.9,0,9-4.1,9-9V53.4C378.8,48.4,374.8,44.4,369.8,44.4z"/>
	<path fill="#FFFFFF" d="M318.8,50.5H217.7c-4.9,0-9,4.1-9,9v53.4c0,4.9,4.1,9,9,9h101.1c4.9,0,9-4.1,9-9V59.5
		C327.8,54.5,323.8,50.5,318.8,50.5z"/>
	<path fill="#FFFFFF" d="M217,132.2c-3,0-5.4,2.4-5.4,5.4v12.9c1-1.7,2.3-3.3,4.1-4.7c3.4-2.7,7.1-3.8,10.4-4.6l0.8-0.2h5.7l1.1,0.4
		c0.2,0.1,0.4,0.2,0.6,0.2h0.1c0.8,0.2,1.5,0.4,2.2,0.6v-4.7c0.1-2.8-2.3-5.3-5.3-5.3L217,132.2L217,132.2z"/>
	<path fill="#FFFFFF" d="M282.4,137.6c0-2.9-2.4-5.4-5.4-5.4h-14.3c-3,0-5.4,2.4-5.4,5.4V152c0,3,2.4,5.4,5.4,5.4H277
		c3,0,5.4-2.4,5.4-5.4V137.6z"/>
	<path fill="#FFFFFF" d="M282.4,170.7c0-3-2.4-5.4-5.4-5.4h-14.3c-3,0-5.4,2.4-5.4,5.4v14.4c0,3,2.4,5.4,5.4,5.4H277
		c3,0,5.4-2.4,5.4-5.4V170.7z"/>
	<path fill="#FFFFFF" d="M277,198.3h-14.3c-3,0-5.4,2.4-5.4,5.4v14.4c0,0.7,0.2,1.5,0.4,2.1h0.1c0.8,1.9,2.7,3.3,4.9,3.3h6.8h0.1
		h7.3c3.1,0,5.5-2.4,5.5-5.4v-14.4C282.4,200.7,280,198.3,277,198.3z M258.1,220.2c1.1,0.1,2.2,0.2,3.4,0.5
		C260.3,220.5,259.2,220.4,258.1,220.2z"/>
	<path fill="#FFFFFF" d="M328.1,137.6c0-2.9-2.4-5.4-5.4-5.4h-14.3c-3,0-5.4,2.4-5.4,5.4V152c0,3,2.4,5.4,5.4,5.4h14.3
		c3,0,5.4-2.4,5.4-5.4V137.6z"/>
	<path fill="#FFFFFF" d="M328.1,170.7c0-3-2.4-5.4-5.4-5.4h-14.3c-3,0-5.4,2.4-5.4,5.4v14.4c0,3,2.4,5.4,5.4,5.4h14.3
		c3,0,5.4-2.4,5.4-5.4V170.7z"/>
	<path fill="#FFFFFF" d="M322.7,198.3h-14.3c-3,0-5.4,2.4-5.4,5.4v14.4c0,3,2.4,5.4,5.4,5.4h14.3c3,0,5.4-2.4,5.4-5.4v-14.4
		C328.1,200.8,325.7,198.3,322.7,198.3z"/>
</g>
</svg>
