<?xml version="1.0" encoding="utf-8"?>
<!-- Generator: Adobe Illustrator 19.0.0, SVG Export Plug-In . SVG Version: 6.00 Build 0)  -->
<svg version="1.1" id="Layer_1" xmlns="http://www.w3.org/2000/svg" xmlns:xlink="http://www.w3.org/1999/xlink" x="0px" y="0px"
	 viewBox="0 0 120 120" style="enable-background:new 0 0 120 120;" xml:space="preserve">
<style type="text/css">
	.st0{fill:#6BBBFF;}
</style>
<g id="XMLID_1_">
	<g>
		<g id="XMLID_119_">
			<path id="XMLID_120_" class="st0" d="M13.2,24.4c-0.1,0.7,0.2,0.9,0.8,0.9c3.5,0,10.9,0,22.1,0c2.7,0,5.3,0,8,0
				c0.9,0,0.9-0.1,0.9-0.9c0-0.5,0-1,0-1.4c0-0.9,0-0.9-0.9-0.9c-8.8,0-13.8,0-14.9,0v0c-5.1,0-10.1,0-15.2,0
				c-0.6,0-0.8,0.2-0.8,0.8C13.2,23.3,13.2,23.8,13.2,24.4z M44.2,40.3c-8.8,0-13.9,0-15,0v0c-3.9,0-7.8,0-11.7,0
				c-1.2,0-2.4,0-3.6,0c-0.4,0-0.7,0.1-0.6,0.6c0,0.7,0,1.4,0,2.1c0,0.5,0.2,0.7,0.7,0.7c0.8-0.1,1.5,0,2.3,0c5.5,0,14.9,0,28.2,0
				c0.5,0,0.7-0.2,0.7-0.6c0-0.6,0-1.2,0-1.9C45.1,40.5,44.8,40.3,44.2,40.3z M44.1,59.1c-13.8,0-23.8,0-30,0c-0.3,0-0.6,0-0.9,0
				c0,0.6,0,1.1,0,1.6c0,1.7,0,1.7,1.7,1.7c5.9,0,15.7,0,29.3,0c0.6,0,0.8-0.2,0.8-0.8c0-0.5-0.1-1.1,0-1.6
				C45.1,59.2,44.8,59.1,44.1,59.1z M44.1,31c-8.8,0-13.9,0-15,0v0c-1.2,0-2.5,0-3.7,0c-3.8,0-7.6,0-11.4,0c-0.7,0-0.9,0.2-0.9,0.9
				c0.1,0.5,0,1.1,0,1.6c0,0.6,0.1,0.8,0.8,0.8c2.7,0,5.4,0,8,0c3.5,0,10.9,0,22.1,0c0.7,0,0.9-0.2,0.9-0.9c0-0.5-0.1-1.1,0-1.6
				C45.1,31,44.7,31,44.1,31z M14.1,53.6c5,0,10,0,14.9,0v0c1.2,0,6.2,0,15.1,0c0.7,0,0.9-0.3,0.9-0.9c0-0.5,0-1,0-1.4
				c0.1-0.7-0.2-0.9-0.9-0.9c-8.6,0.1-13.4,0-14.4,0c-5.3,0-10.5,0-15.8,0c-0.6,0-0.8,0.1-0.8,0.8c0,0.5,0,1,0,1.6
				C13.1,53.6,13.2,53.6,14.1,53.6z M117.3,13.4h-1v60.9h1c1.6,0,2.8-1.3,2.8-2.9V16.3C120.1,14.7,118.8,13.4,117.3,13.4z
				 M103.9,35.2v-17c0-1.6-1.3-2.9-2.8-2.9H68.9c-1.6,0-2.8,1.3-2.8,2.9v17c0,1.6,1.3,2.9,2.8,2.9H101
				C102.6,38.1,103.9,36.8,103.9,35.2z M87.8,41.4h-4.5c-0.9,0-1.7,0.8-1.7,1.7v4.6c0,0.9,0.8,1.7,1.7,1.7h4.5
				c0.9,0,1.7-0.8,1.7-1.7v-4.6C89.5,42.2,88.7,41.4,87.8,41.4z M87.8,51.9h-4.5c-0.9,0-1.7,0.8-1.7,1.7v4.6c0,0.9,0.8,1.7,1.7,1.7
				h4.5c0.9,0,1.7-0.8,1.7-1.7v-4.6C89.5,52.7,88.7,51.9,87.8,51.9z M102.3,41.4h-4.5c-0.9,0-1.7,0.8-1.7,1.7v4.6
				c0,0.9,0.8,1.7,1.7,1.7h4.5c0.9,0,1.7-0.8,1.7-1.7v-4.6C104,42.2,103.2,41.4,102.3,41.4z M102.3,51.9h-4.5
				c-0.9,0-1.7,0.8-1.7,1.7v4.6c0,0.9,0.8,1.7,1.7,1.7h4.5c0.9,0,1.7-0.8,1.7-1.7v-4.6C104,52.7,103.2,51.9,102.3,51.9z M102.3,62.4
				h-4.5c-0.9,0-1.7,0.8-1.7,1.7v4.6c0,0.9,0.8,1.7,1.7,1.7h4.5c0.9,0,1.7-0.8,1.7-1.7v-4.6C104,63.2,103.2,62.4,102.3,62.4z"/>
		</g>
	</g>
	<path id="XMLID_23_" class="st0" d="M105.4,90.6c0,2.5,0,5,0,7.5c0,0.2-0.1,0.4-0.1,0.6c-0.3,1.5-0.5,3-0.9,4.5
		c-1.1,4.5-3.2,8.5-6.3,12c-0.2,0.3-0.6,0.5-1,0.5c-3.6,0-7.2,0.1-10.8,0.1c-4.7,0-9.4,0-14.2,0c-0.5,0-0.7-0.1-1-0.5
		c-1.7-1.9-3.3-3.9-5.1-5.8c-1.2-1.3-2.3-2.6-2.9-4.3c-0.6-1.6-1.1-3.1-1.6-4.8c-0.9-3.4-1.7-6.8-1.2-10.3c0.5-3.2,2.1-5.5,5.4-6.1
		c0.7-0.1,0.8-0.5,0.9-1.1c0.2-2.9,0.4-5.8,0.5-8.7c0.1-2.3,0.3-4.5,0.4-6.8c0.1-2.1,0.1-4.2,0.2-6.2c0.1-1.6,0.2-3.1,0.3-4.7
		c0.1-1.8,0.1-3.6,0.2-5.4c0.1-1.3,0.2-2.6,1.4-3.5c0.7-0.6,1.6-0.8,2.5-1c0.4,0,0.8,0,1.2,0c0.1,0,0.3,0.1,0.4,0.1
		c1.9,0.4,3.3,2,3.3,3.8c0,1.5,0,2.9,0,4.4c0,1.6,0,3.2-0.1,4.8c0,4.2-0.1,8.3-0.1,12.5c0,0.3,0,0.6,0,1.1c1.8-1.7,3.8-1.9,5.9-1.4
		c2.2,0.5,3.6,2,4.4,4.2c1.6-2,3.6-2.2,5.8-1.7c2.2,0.6,3.7,2,4.5,4.4c0.4-1,1-1.4,1.8-1.5c0.7-0.1,1.4-0.1,2.1,0.1
		c2.2,0.7,3.5,2.5,3.6,5c0.1,2.4,0.2,4.9,0.3,7.3C105.3,90,105.3,90.3,105.4,90.6z"/>
	<path id="XMLID_9_" class="st0" d="M67.2,44.3c1.5-1.2,3.1-1.6,4-1.8l0.5-0.1H74l0.8,0.3c0.1,0,0.1,0,0.2,0
		c-0.2-0.8-0.9-1.4-1.7-1.4h-4.5c-0.9,0-1.7,0.8-1.7,1.7v1.4C67.1,44.4,67.1,44.4,67.2,44.3z"/>
	<path id="XMLID_10_" class="st0" d="M83.8,67.9c1.8,0.4,3.3,1.2,4.5,2.4c0.7-0.2,1.2-0.9,1.2-1.6v-4.6c0-0.9-0.8-1.7-1.7-1.7h-4.5
		c-0.9,0-1.7,0.8-1.7,1.7v3.5C82.2,67.6,83,67.7,83.8,67.9z"/>
	<path id="XMLID_37_" class="st0" d="M114.1,7.8c0-0.5-0.1-1-0.3-1.4c-0.6-1.1-1.6-1.6-2.8-1.6c-11.4,0-22.9,0-34.3,0
		c-4.5,0-8.9,0.3-13.2,1.9c-2.1,0.8-4,1.8-5.7,3.3c-0.6,0.6-0.8,0.6-1.4,0C55.3,8.8,54,8,52.5,7.3c-1.9-0.9-4-1.6-6.1-1.9
		c-1.9-0.3-3.9-0.5-5.8-0.7c-1.7-0.1-3.4,0-5.1,0c-10.8,0-21.5,0-32.3,0c-0.4,0-0.8,0-1.1,0.1c-1.4,0.6-2,1.4-2,3
		c0,11.4,0,22.8,0,34.3c0,11.4,0,22.9,0,34.3c0,2.1,1.4,3.3,3.2,3.3c8.1-0.1,16.2,0,24.3,0c3,0,6.1,0,9.1,0.1c2.8,0,5.5,0.3,8.3,0.9
		c2.8,0.6,5.5,1.3,8,2.7c0.8,0.4,1.6,0.7,2.6,0.6c0.2,0,0.5,0,0.7,0c0.8,0,1.6-0.1,2.5-0.1c1.1-1.4,2.5-2.5,4.2-3.2
		c0-0.5,0.1-2.3,0.2-3.9c-0.8,0.3-1.6,0.6-2.4,1c-0.6,0.3-0.7,0.1-0.7-0.6c0-7.4,0-14.7,0-22.1c0-12.7,0-25.5,0-38.2
		c0-1.1,0.5-1.9,1.3-2.6c1.7-1.7,3.9-2.6,6.3-3.2c4-1,8.1-0.8,12.2-0.8c8.8,0.1,17.6,0,26.4,0c0.7,0,1.4,0,2.1,0
		c0.7,0,0.8,0.3,0.8,0.8c0,8,0,16,0,23.9c0,2.4,0,4.9,0,7.3c0,10.4,0,20.7,0,31.1c0,0.9,0,0.9-0.9,0.9c-1.1,0-2.3,0-3.4,0
		c2,1.2,3.5,3,4.1,5.4c0.9,0,1.8,0,2.7,0c1.5,0,2.9-1.3,2.9-2.9C114.1,53.8,114.2,30.8,114.1,7.8z M53.6,77.7
		c-1.7-0.6-3.4-1.3-5.2-1.7c-2.6-0.6-5.2-1-7.8-1.3c-1.9-0.2-3.9-0.2-5.8-0.3c-9,0-18.1,0-27.1,0c-0.5,0-1.1,0-1.6,0
		c-0.2,0-0.4-0.3-0.5-0.5c-0.1-0.1,0-0.3,0-0.5c0-10.4,0-20.7,0-31.1c0-10.4,0-20.7,0-31.1c0-0.7,0.2-0.9,0.9-0.9
		c6.9,0,13.9,0,20.8,0c4.3,0,8.5-0.1,12.8-0.1c3.2,0,6.4,0.5,9.5,1.7c1.7,0.7,3.1,1.6,4.3,2.9c0.5,0.6,0.7,1.2,0.7,1.9
		c0,2.1,0,4.2,0,6.2c0,9.2,0,18.5,0,27.7c0,8.8,0,17.7,0.1,26.5C54.4,77.9,54.2,77.9,53.6,77.7z"/>
</g>
</svg>
