<svg xmlns="http://www.w3.org/2000/svg" width="79.785" height="62.379" viewBox="0 0 79.785 62.379">
  <g id="diploma_1_" data-name="diploma (1)" transform="translate(0 -50.176)">
    <rect id="Rectangle_1218" data-name="Rectangle 1218" width="79.785" height="58.859" transform="translate(0 50.176)" fill="#d8d9dd"/>
    <path id="Path_2213" data-name="Path 2213" d="M106.093,129.325V96.476a6.018,6.018,0,0,1-6.018-6.018H46.3a6.018,6.018,0,0,1-6.018,6.018v32.849a6.018,6.018,0,0,1,6.018,6.018h53.775A6.018,6.018,0,0,1,106.093,129.325Z" transform="translate(-33.295 -33.295)" fill="#edeef0"/>
    <path id="Path_2214" data-name="Path 2214" d="M290.109,342.6l-5.29-4.03-5.542,4.03V328.495h10.832Z" transform="translate(-230.838 -230.046)" fill="#c8523b"/>
    <path id="Path_2215" data-name="Path 2215" d="M281.346,277.49a7.61,7.61,0,1,1-7.61-7.61A7.61,7.61,0,0,1,281.346,277.49Z" transform="translate(-219.969 -181.597)" fill="#e5c400"/>
    <path id="Path_2216" data-name="Path 2216" d="M317.61,277.49a7.61,7.61,0,0,0-7.61-7.61v20.334l.126-.092,5.29,4.03V282.833A7.582,7.582,0,0,0,317.61,277.49Z" transform="translate(-256.232 -181.597)" fill="#5b5b5f" opacity="0.3"/>
    <rect id="Rectangle_1219" data-name="Rectangle 1219" width="20.813" height="1.734" transform="translate(29.486 67.72)" fill="#5b5b5f" opacity="0.4"/>
    <rect id="Rectangle_1220" data-name="Rectangle 1220" width="39.188" height="1.734" transform="translate(20.298 75.269)" fill="#5b5b5f" opacity="0.4"/>
    <rect id="Rectangle_1221" data-name="Rectangle 1221" width="39.188" height="1.734" transform="translate(20.298 82.819)" fill="#5b5b5f" opacity="0.4"/>
  </g>
</svg>
