<svg xmlns="http://www.w3.org/2000/svg" width="80" height="70.345" viewBox="0 0 80 70.345">
  <g id="diploma" transform="translate(0 -30.897)">
    <path id="Path_2200" data-name="Path 2200" d="M0,30.9v60.69H57.931V86.142a12.3,12.3,0,0,0,11.034,0v5.444H80V30.9Z" fill="#724530"/>
    <path id="Path_2201" data-name="Path 2201" d="M351.448,246.345a12.414,12.414,0,1,0-12.414,12.414,12.413,12.413,0,0,0,12.414-12.414" transform="translate(-275.586 -171.31)" fill="#d3b434"/>
    <g id="Group_97" data-name="Group 97" transform="translate(55.172 66.759)">
      <path id="Path_2202" data-name="Path 2202" d="M398.62,314.206a1.379,1.379,0,0,1,0-2.759,5.523,5.523,0,0,0,5.517-5.517,1.379,1.379,0,0,1,2.759,0,8.284,8.284,0,0,1-8.276,8.276" transform="translate(-390.344 -297.654)" fill="#f8e7a1"/>
      <path id="Path_2203" data-name="Path 2203" d="M354.482,270.068a1.378,1.378,0,0,1-1.379-1.379,8.284,8.284,0,0,1,8.276-8.276,1.379,1.379,0,1,1,0,2.759,5.523,5.523,0,0,0-5.517,5.517,1.378,1.378,0,0,1-1.379,1.379" transform="translate(-353.103 -260.413)" fill="#f8e7a1"/>
    </g>
    <path id="Path_2204" data-name="Path 2204" d="M80.828,104.828a12.408,12.408,0,0,1,23.448-5.67V71.724a5.517,5.517,0,0,1-5.517-5.517H40.828a5.517,5.517,0,0,1-5.517,5.517v38.621a5.517,5.517,0,0,1,5.517,5.517H87.572a12.4,12.4,0,0,1-6.743-11.035" transform="translate(-29.794 -29.793)" fill="#ece8d8"/>
    <path id="Path_2205" data-name="Path 2205" d="M376.276,385.774a12.327,12.327,0,0,1-5.517-1.306v15.1l5.517-5.517,5.517,5.517v-15.1a12.329,12.329,0,0,1-5.517,1.306" transform="translate(-312.828 -298.326)" fill="#f0ce49"/>
    <g id="Group_98" data-name="Group 98" transform="translate(16.552 43.311)">
      <path id="Path_2206" data-name="Path 2206" d="M212.137,113.1H195.585a1.379,1.379,0,1,1,0-2.759h16.552a1.379,1.379,0,0,1,0,2.759" transform="translate(-180.413 -110.344)" fill="#c9b693"/>
      <path id="Path_2207" data-name="Path 2207" d="M151.448,157.241H107.31a1.379,1.379,0,1,1,0-2.759h44.138a1.379,1.379,0,1,1,0,2.759" transform="translate(-105.931 -147.585)" fill="#c9b693"/>
      <path id="Path_2208" data-name="Path 2208" d="M151.448,201.379H107.31a1.379,1.379,0,1,1,0-2.759h44.138a1.379,1.379,0,1,1,0,2.759" transform="translate(-105.931 -184.827)" fill="#c9b693"/>
      <path id="Path_2209" data-name="Path 2209" d="M179.586,245.517h-19.31a1.379,1.379,0,1,1,0-2.759h19.31a1.379,1.379,0,0,1,0,2.759" transform="translate(-150.62 -222.068)" fill="#c9b693"/>
      <path id="Path_2210" data-name="Path 2210" d="M110.069,245.517H107.31a1.379,1.379,0,1,1,0-2.759h2.759a1.379,1.379,0,0,1,0,2.759" transform="translate(-105.931 -222.068)" fill="#c9b693"/>
      <path id="Path_2211" data-name="Path 2211" d="M118.344,289.655H107.309a1.379,1.379,0,1,1,0-2.759h11.035a1.379,1.379,0,1,1,0,2.759" transform="translate(-105.93 -259.31)" fill="#c9b693"/>
      <path id="Path_2212" data-name="Path 2212" d="M224.276,289.655H213.241a1.379,1.379,0,0,1,0-2.759h11.035a1.379,1.379,0,1,1,0,2.759" transform="translate(-195.31 -259.31)" fill="#c9b693"/>
    </g>
  </g>
</svg>
