<?xml version="1.0" encoding="utf-8"?>
<!-- Generator: Adobe Illustrator 21.1.0, SVG Export Plug-In . SVG Version: 6.00 Build 0)  -->
<svg version="1.1" id="Layer_1" xmlns="http://www.w3.org/2000/svg" xmlns:xlink="http://www.w3.org/1999/xlink" x="0px" y="0px"
	 viewBox="0 0 40 40" style="enable-background:new 0 0 40 40;" xml:space="preserve">
<style type="text/css">
	.st0{fill:#6BBBFF;}
</style>
<g id="Group_12" transform="translate(1338)">
	<path id="Subtraction_2" class="st0" d="M-1324.6,35.1h-7.2c-1,0-2-0.4-2.8-1.2c-0.7-0.7-1.1-1.7-1-2.7v-7.3c0-2.1,1.7-3.8,3.8-3.8
		h7.2c2.1,0,3.8,1.7,3.8,3.8c0,0,0,0.1,0,0.1v7.4C-1320.8,33.4-1322.5,35.1-1324.6,35.1z M-1331.8,21.3c-1.4,0-2.5,1.1-2.6,2.5
		c0,0,0,0,0,0.1v7.4c0,1.4,1.1,2.5,2.5,2.6c0,0,0,0,0.1,0h7.2c1.4,0,2.5-1.1,2.6-2.5c0,0,0,0,0-0.1v-7.4c0-1.4-1.1-2.5-2.5-2.6
		c0,0,0,0-0.1,0H-1331.8z M-1313.4,35h-1c-2.1,0-3.8-1.7-3.8-3.8v-7.4c0-2.1,1.7-3.8,3.8-3.8h7.2c2.1,0,3.8,1.7,3.8,3.8v0.3
		c-0.7-0.3-1.3-0.9-1.5-1.7l0-0.2c-0.3-1-0.4-1.2-1.5-1.2c-0.2,0-0.3,0-0.5,0c-0.2,0-0.4,0.1-0.6,0.2h-6.9c-1.4,0-2.5,1.1-2.6,2.5
		c0,0,0,0,0,0.1v7.4c0,1.4,1.1,2.5,2.5,2.6c0,0,0,0,0.1,0h0.5C-1313.6,34.1-1313.4,34.5-1313.4,35L-1313.4,35z M-1307.1,17.6h-7.2
		c-2.1,0-3.8-1.7-3.8-3.8V6.5c0-2.1,1.7-3.8,3.8-3.8h7.2c2.1,0,3.8,1.7,3.8,3.8c0,0,0,0.1,0,0.1v7.2
		C-1303.3,15.9-1305,17.6-1307.1,17.6z M-1314.4,4c-1.4,0-2.5,1.1-2.6,2.5c0,0,0,0,0,0.1v7.2c0,1.4,1.1,2.5,2.5,2.6c0,0,0,0,0.1,0
		h7.2c1.4,0,2.5-1.1,2.6-2.5c0,0,0,0,0-0.1V6.6c0-1.4-1.1-2.5-2.5-2.6c0,0,0,0-0.1,0H-1314.4z M-1331.2,16.7c-1.1,0-2.2-0.6-2.7-1.6
		l-3.6-6.3c-0.4-0.7-0.6-1.6-0.4-2.4c0.2-0.8,0.7-1.5,1.5-2l6.2-3.6c1.5-0.9,3.5-0.4,4.4,1.1c0,0,0,0,0,0l3.6,6.2
		c0.4,0.7,0.6,1.6,0.4,2.4c-0.2,0.8-0.7,1.5-1.5,2l-6.3,3.7C-1330.1,16.6-1330.7,16.7-1331.2,16.7z"/>
	<path id="Path_170" class="st0" d="M-1298,30.8c0-0.4-0.2-0.7-0.6-0.8c-0.4-0.2-0.9-0.3-1.3-0.5c-0.6-0.4-0.9-1.2-0.8-1.9
		c0.1-0.4,0.3-0.8,0.5-1.2c0.2-0.3,0.1-0.8-0.2-1l-0.4-0.4c-0.2-0.3-0.7-0.4-1-0.2c-0.4,0.2-0.7,0.3-1.1,0.5
		c-0.2,0.1-0.4,0.1-0.6,0.1c-0.9-0.1-1.6-0.7-1.8-1.5c-0.3-1.1-0.3-1.2-1.7-1.1c-0.3,0-0.7,0.2-0.8,0.6c-0.1,0.4-0.3,0.8-0.4,1.1
		c-0.4,0.7-1.2,1.1-2,0.9c-0.4-0.2-0.8-0.3-1.3-0.5c-0.3-0.2-0.7-0.1-0.9,0.2l-0.5,0.5c-0.3,0.2-0.4,0.6-0.2,0.9
		c0.2,0.4,0.4,0.7,0.5,1.1c0.2,0.8-0.1,1.6-0.8,2c-0.4,0.2-0.8,0.4-1.3,0.5c-0.3,0.1-0.5,0.4-0.5,0.7c0,0.5-0.2,1.1,0.4,1.5
		c0.1,0,0.2,0.1,0.3,0.1c0.3,0.1,0.6,0.2,0.9,0.3c0.8,0.2,1.4,1.5,1.1,2.3c-0.2,0.3-0.3,0.7-0.4,1c-0.1,0.1-0.1,0.3-0.1,0.4
		c0,0.4,0.9,1.3,1.4,1.3c0.1,0,0.2-0.1,0.3-0.1l0.9-0.4c0.3-0.1,0.7-0.2,1-0.1c0.8,0.1,1.4,0.7,1.6,1.5c0.4,1.2,0.4,1.2,1.7,1.1
		c0.4,0,0.7-0.2,0.8-0.6c0.2-0.4,0.3-0.8,0.5-1.2c0.4-0.7,1.2-1,1.9-0.9c0.4,0.2,0.9,0.3,1.3,0.5c0.3,0.2,0.6,0.1,0.9-0.2l0.6-0.6
		c0.3-0.2,0.3-0.6,0.2-0.9c-0.1-0.3-0.3-0.6-0.4-0.9c-0.1-0.3-0.2-0.7-0.1-1.1c0.2-0.8,0.7-1.4,1.5-1.6
		C-1298,32.1-1298,32.1-1298,30.8z M-1302.3,31.3c-0.1,2.4-2.1,4.2-4.5,4c-2.4-0.1-4.2-2.1-4-4.5c0.1-2.3,2.1-4.1,4.4-4
		C-1304,27-1302.2,29-1302.3,31.3C-1302.3,31.3-1302.3,31.3-1302.3,31.3z"/>
	<path id="Path_171" class="st0" d="M-1306.5,28.5c-1.4,0-2.6,1.1-2.6,2.6s1.1,2.6,2.6,2.6c1.4,0,2.6-1.1,2.6-2.6c0,0,0,0,0,0
		C-1304,29.7-1305.1,28.6-1306.5,28.5z"/>
</g>
</svg>
