<?xml version="1.0" encoding="utf-8"?>
<!-- Generator: Adobe Illustrator 21.1.0, SVG Export Plug-In . SVG Version: 6.00 Build 0)  -->
<svg version="1.1" id="Layer_1" xmlns="http://www.w3.org/2000/svg" xmlns:xlink="http://www.w3.org/1999/xlink" x="0px" y="0px"
	 viewBox="0 0 40 40" style="enable-background:new 0 0 40 40;" xml:space="preserve">
<style type="text/css">
	.st0{fill:#45DD8F;}
</style>
<path id="Union_22" class="st0" d="M23.6,31.3c0-4.5,3.7-8.2,8.2-8.2c4.5,0,8.2,3.7,8.2,8.2c0,4.5-3.7,8.2-8.2,8.2c0,0,0,0,0,0
	C27.3,39.5,23.6,35.8,23.6,31.3C23.6,31.3,23.6,31.3,23.6,31.3z M24.9,31.3c0,3.8,3.1,6.9,6.9,6.9s6.9-3.1,6.9-6.9
	c0-3.8-3.1-6.9-6.9-6.9c0,0,0,0,0,0C28,24.4,24.9,27.5,24.9,31.3L24.9,31.3z M16.2,37.9H5.5c-1.1,0-2.1-0.1-2.9-0.6
	C0.9,36.3,0,34.9,0,33c0-6.9,0-9.4,0-16.1V5.5C0,4.2,0.5,3,1.4,2.1c1-1,2.3-1.5,3.7-1.5l0,0c2.8,0,5.8,0,9.6,0h12.9
	c0.4,0,0.7,0,1.1,0.1c2.3,0.4,4,2.5,4,4.9v16.4h-1.9V5.6c0-1.9-1.2-3.2-3.2-3.2H5.1c-1.9,0-3.2,1.3-3.2,3.2v27.1
	c0,1.6,0.9,2.7,2.2,3.1c0.3,0.1,0.6,0.1,1,0.1h18.1c0.2,0,0.4,0.1,0.5,0.3c0.5,0.6,1.1,1.2,1.6,1.7L16.2,37.9z M31,35.6
	c-0.7-0.1-1.4-0.3-2.1-0.4c-0.5-0.1-0.5-0.1-0.4-0.6c0.1-0.3,0.2-0.7,0.3-1c0.5,0.2,1,0.3,1.6,0.4c0.5,0.1,1.1,0,1.6,0
	c0.4,0,0.7-0.3,0.7-0.7c0-0.4-0.2-0.7-0.6-0.8c-0.4-0.2-0.8-0.3-1.2-0.4c-0.6-0.2-1.1-0.5-1.6-0.8c-0.9-0.6-1.2-1.8-0.6-2.8
	c0.1-0.2,0.3-0.4,0.6-0.6c0.2-0.2,0.5-0.3,0.7-0.4c0.3-0.1,0.5-0.2,0.8-0.3v-1h1.6v0.9c0.6,0.1,1.2,0.3,1.8,0.4
	c0.3,0,0.3,0.2,0.2,0.4c-0.1,0.4-0.3,0.8-0.4,1.2c-0.7-0.3-1.5-0.4-2.3-0.4c-0.3,0-0.5,0.1-0.8,0.2c-0.3,0.1-0.4,0.5-0.3,0.8
	c0.1,0.1,0.1,0.2,0.3,0.3c0.3,0.2,0.7,0.4,1.1,0.5c0.7,0.3,1.4,0.6,2,0.9c0.9,0.6,1.2,1.9,0.6,2.9c-0.1,0.1-0.2,0.3-0.3,0.4
	c-0.3,0.3-0.7,0.5-1,0.7c-0.3,0.1-0.5,0.2-0.8,0.3c0,0.3,0,0.5,0,0.8c0,0.1-0.1,0.2-0.2,0.2c-0.4,0-0.9,0-1.4,0L31,35.6z M15.6,30.3
	H5.2V15.9h22.4c0,0.1,0,0.3,0,0.4c0,2.2,0,4.3,0,6.5c0,0.3-0.1,0.5-0.4,0.6c-0.3,0.2-0.7,0.4-1,0.6v-6.7h-3.6c0,0.1,0,0.3,0,0.4
	c0,3.4,0,6.9,0,10.3c-0.1,0.7-0.2,1.4-0.4,2.1c0,0.1-0.3,0.2-0.4,0.2L15.6,30.3z M17.7,28.8h3.5V17.3h-3.5V28.8z M6.5,28.8h9.7V17.3
	H6.5L6.5,28.8z M16.5,14.2H5.2v-1.3h11.7V14c0,0.2-0.1,0.2-0.2,0.2C16.6,14.2,16.5,14.2,16.5,14.2z M5.8,11.5H5.2v-1.4
	c0.1,0,0.3,0,0.4,0c3.6,0,7.2,0,10.8,0c0.4,0,0.5,0.1,0.5,0.5c0,0.9,0,0.9-0.9,0.9H5.8z M20.3,7.7c-0.3-0.3-0.4-0.8-0.4-1.3
	c0-0.5,0.1-1,0.4-1.3c0.3-0.3,0.7-0.5,1.2-0.5c0.4,0,0.7,0.1,1,0.4c0.2,0.2,0.3,0.4,0.3,0.6l-0.7,0.2c0-0.2-0.1-0.3-0.3-0.4
	c-0.1-0.1-0.3-0.2-0.5-0.1c-0.2,0-0.5,0.1-0.6,0.3c-0.2,0.3-0.3,0.6-0.2,0.9c0,0.3,0.1,0.6,0.2,0.9c0.1,0.2,0.4,0.3,0.6,0.3
	c0.2,0,0.3-0.1,0.5-0.2c0.1-0.2,0.2-0.3,0.3-0.6l0.7,0.2c-0.1,0.3-0.3,0.6-0.5,0.8c-0.3,0.2-0.6,0.3-0.9,0.3C21,8.2,20.6,8,20.3,7.7
	z M15.3,7.7c-0.3-0.4-0.5-0.8-0.4-1.3c0-0.3,0-0.6,0.1-0.9c0.1-0.2,0.2-0.3,0.3-0.5c0.1-0.1,0.3-0.2,0.4-0.3
	c0.2-0.1,0.5-0.1,0.7-0.1c0.4,0,0.9,0.1,1.2,0.5c0.3,0.4,0.5,0.8,0.4,1.3c0,0.5-0.1,0.9-0.4,1.3C17.4,8,17,8.2,16.5,8.2
	C16.1,8.2,15.7,8,15.3,7.7L15.3,7.7z M15.8,5.5c-0.2,0.3-0.3,0.6-0.3,0.9c0,0.3,0.1,0.6,0.3,0.9c0.2,0.2,0.4,0.3,0.7,0.3
	c0.3,0,0.5-0.1,0.7-0.3c0.2-0.3,0.3-0.6,0.3-0.9c0-0.3-0.1-0.6-0.3-0.9c-0.2-0.2-0.4-0.3-0.7-0.3C16.2,5.2,16,5.4,15.8,5.5L15.8,5.5
	z M23.5,8.1V4.7H26v0.6h-1.8V6h1.7v0.6h-1.7v0.9H26v0.6L23.5,8.1z M18.7,8.1V4.7h0.7v3.4L18.7,8.1z M12.7,8.1l-1.2-3.4h0.7l0.9,2.5
	l0.8-2.5h0.7l-1.2,3.4L12.7,8.1z M10.4,8.1L9.1,5.9v2.2H8.4V4.7h0.7L10.5,7V4.7h0.6v3.4L10.4,8.1z M7.1,8.1V4.7h0.7v3.4L7.1,8.1z"/>
</svg>
