<?xml version="1.0" encoding="utf-8"?>
<!-- Generator: Adobe Illustrator 19.2.0, SVG Export Plug-In . SVG Version: 6.00 Build 0)  -->
<svg version="1.1"
	 id="Layer_1" xmlns:cc="http://creativecommons.org/ns#" xmlns:dc="http://purl.org/dc/elements/1.1/" xmlns:inkscape="http://www.inkscape.org/namespaces/inkscape" xmlns:rdf="http://www.w3.org/1999/02/22-rdf-syntax-ns#" xmlns:sodipodi="http://sodipodi.sourceforge.net/DTD/sodipodi-0.dtd" xmlns:svg="http://www.w3.org/2000/svg"
	 xmlns="http://www.w3.org/2000/svg" xmlns:xlink="http://www.w3.org/1999/xlink" x="0px" y="0px" viewBox="0 0 40 40"
	 style="enable-background:new 0 0 40 40;" xml:space="preserve">
<style type="text/css">
	.st0{fill:#484D55;}
</style>
<g>
	<path id="rect6478-6-1" class="st0" d="M11,0c-0.7,0-1.2,0.5-1.2,1.2v4.9c0,0.7,0.5,1.2,1.2,1.2h0.2c0.7,0,1.2-0.5,1.2-1.2V1.2
		c0-0.7-0.5-1.2-1.2-1.2H11z M28.5,0c-0.7,0-1.2,0.5-1.2,1.2v4.9c0,0.7,0.5,1.2,1.2,1.2h0.2c0.7,0,1.2-0.5,1.2-1.2V1.2
		c0-0.7-0.5-1.2-1.2-1.2H28.5z"/>
	<g>
		<path class="st0" d="M26.2,3H13.4c0,0.6,0,1.3,0,1.9h12.8C26.2,4.3,26.2,3.6,26.2,3z"/>
		<path class="st0" d="M21.3,35.3H4.2c-0.8,0-1.4-0.6-1.4-1.4V10.2h34v3.1c0.2,0.1,0.4,0.2,0.7,0.3c0.4,0.2,0.8,0.5,1.2,0.8V6.3
			c0-1.8-1.5-3.3-3.3-3.3h-4.5c0,0.6,0,1.3,0,1.9h4.5c0.8,0,1.4,0.6,1.4,1.4v2.3h-34V6.3c0-0.8,0.6-1.4,1.4-1.4h4.5
			c0-0.6,0-1.3,0-1.9H4.2C2.4,3,0.9,4.5,0.9,6.3v27.6c0,1.8,1.5,3.3,3.3,3.3h18.2C22,36.6,21.6,35.9,21.3,35.3z"/>
	</g>
	<g>
		<path class="st0" d="M28.5,16.1c-3.4,0-6.1,2.8-6.1,6.1c0,3.4,2.8,6.1,6.1,6.1c3.4,0,6.1-2.8,6.1-6.1S31.9,16.1,28.5,16.1
			L28.5,16.1z M28.5,26.7c-2.5,0-4.5-2-4.5-4.5s2-4.5,4.5-4.5s4.5,2,4.5,4.5S31,26.7,28.5,26.7L28.5,26.7z"/>
		<path class="st0" d="M28.5,11.8c-5.7,0-10.4,4.7-10.4,10.4c0,3.3,2.8,8.2,4.4,10.9c1.1,1.7,2.3,3.4,3.3,4.7c1.7,2,2.3,2.2,2.7,2.2
			c0.4,0,1-0.2,2.7-2.2c1-1.3,2.2-2.9,3.3-4.7c1.7-2.7,4.5-7.6,4.5-10.9C38.9,16.5,34.3,11.8,28.5,11.8L28.5,11.8z M33.3,31.9
			c-2.1,3.5-4.1,5.8-4.8,6.4c-0.7-0.6-2.6-2.9-4.8-6.4c-2.5-4.1-3.9-7.6-3.9-9.6c0-4.8,3.9-8.8,8.8-8.8c4.8,0,8.8,3.9,8.8,8.8
			C37.3,24.3,35.8,27.8,33.3,31.9L33.3,31.9z"/>
	</g>
	<path class="st0" d="M6.9,17.2c-0.4,0-0.7-0.3-0.7-0.7v-1.4c0-0.4,0.3-0.7,0.7-0.7h1.4c0.4,0,0.7,0.3,0.7,0.7v1.4
		c0,0.4-0.3,0.7-0.7,0.7H6.9z"/>
	<path class="st0" d="M13,17.4c-0.4,0-0.7-0.3-0.7-0.7v-1.4c0-0.4,0.3-0.7,0.7-0.7h1.4c0.4,0,0.7,0.3,0.7,0.7v1.4
		c0,0.4-0.3,0.7-0.7,0.7H13z"/>
	<path class="st0" d="M7,23.8c-0.4,0-0.7-0.3-0.7-0.7v-1.4C6.3,21.3,6.6,21,7,21h1.4c0.4,0,0.7,0.3,0.7,0.7v1.4
		c0,0.4-0.3,0.7-0.7,0.7H7z"/>
	<path class="st0" d="M12.9,23.8c-0.4,0-0.7-0.3-0.7-0.7v-1.4c0-0.4,0.3-0.7,0.7-0.7h1.4c0.4,0,0.7,0.3,0.7,0.7v1.4
		c0,0.4-0.3,0.7-0.7,0.7H12.9z"/>
	<path class="st0" d="M12.9,30.4c-0.4,0-0.7-0.3-0.7-0.7v-1.4c0-0.4,0.3-0.7,0.7-0.7h1.4c0.4,0,0.7,0.3,0.7,0.7v1.4
		c0,0.4-0.3,0.7-0.7,0.7H12.9z"/>
	<path class="st0" d="M6.9,30.4c-0.4,0-0.7-0.3-0.7-0.7v-1.4c0-0.4,0.3-0.7,0.7-0.7h1.4c0.4,0,0.7,0.3,0.7,0.7v1.4
		c0,0.4-0.3,0.7-0.7,0.7H6.9z"/>
</g>
</svg>
