<?xml version="1.0" encoding="utf-8"?>
<!-- Generator: Adobe Illustrator 21.1.0, SVG Export Plug-In . SVG Version: 6.00 Build 0)  -->
<svg version="1.1" id="Layer_1" xmlns="http://www.w3.org/2000/svg" xmlns:xlink="http://www.w3.org/1999/xlink" x="0px" y="0px"
	 viewBox="0 0 40 40" style="enable-background:new 0 0 40 40;" xml:space="preserve">
<style type="text/css">
	.st0{fill:#919191;}
</style>
<g>
	<g>
		<path class="st0" d="M33.3,12.7c3.7,0,6.7-2.8,6.7-6.3C40,2.8,37,0,33.3,0s-6.7,2.8-6.7,6.3C26.6,9.8,29.6,12.7,33.3,12.7z M6.7,0
			C3,0,0,2.8,0,6.3c0,3.5,3,6.3,6.7,6.3c3.7,0,6.7-2.8,6.7-6.3C13.4,2.8,10.4,0,6.7,0z M33.3,27.3c-3.7,0-6.7,2.8-6.7,6.3
			c0,3.5,3,6.3,6.7,6.3s6.7-2.8,6.7-6.3C40,30.2,37,27.3,33.3,27.3z M6.7,27.3C3,27.3,0,30.2,0,33.7C0,37.2,3,40,6.7,40
			c3.7,0,6.7-2.8,6.7-6.3C13.4,30.2,10.4,27.3,6.7,27.3z"/>
	</g>
</g>
</svg>
