<?xml version="1.0" encoding="utf-8"?>
<!-- Generator: Adobe Illustrator 22.1.0, SVG Export Plug-In . SVG Version: 6.00 Build 0)  -->
<svg version="1.1" id="Capa_1" xmlns="http://www.w3.org/2000/svg" xmlns:xlink="http://www.w3.org/1999/xlink" x="0px" y="0px"
	 viewBox="0 0 490.7 490.7" style="enable-background:new 0 0 490.7 490.7;" xml:space="preserve">
<style type="text/css">
	.st0{fill:#FD5969;}
</style>
<g>
	<path class="st0" d="M416,0H74.7C33.5,0,0,33.5,0,74.7v234.7C0,350.5,33.5,384,74.7,384h230.3l103.5,103.6c2,2,4.8,3.1,7.6,3.1
		c1.4,0,2.8-0.3,4.1-0.8c4-1.6,6.6-5.5,6.6-9.9v-96.7c36.1-5.2,64-36.4,64-73.9V74.7C490.7,33.5,457.2,0,416,0z M469.3,309.3
		c0,29.4-23.9,53.3-53.3,53.3c-5.9,0-10.7,4.8-10.7,10.7v80.9l-88.4-88.5c-2-2-4.7-3.1-7.6-3.1H74.7c-29.4,0-53.3-23.9-53.3-53.3
		V74.7c0-29.4,23.9-53.3,53.3-53.3H416c29.4,0,53.3,23.9,53.3,53.3V309.3z"/>
	<path class="st0" d="M245.3,256c-17.6,0-32,14.4-32,32s14.4,32,32,32s32-14.4,32-32S263,256,245.3,256z M245.3,298.7
		c-5.9,0-10.7-4.8-10.7-10.7s4.8-10.7,10.7-10.7c5.9,0,10.7,4.8,10.7,10.7S251.2,298.7,245.3,298.7z"/>
	<path class="st0" d="M256,64h-21.3c-8.9,0-17.4,3.7-23.4,10.2c-6,6.5-9.1,15.2-8.5,24.2l9,105.1c1.2,17.5,15.9,31.1,33.6,31.1
		c17.5,0,32.2-13.7,33.4-31l9.2-105.4c0.6-8.8-2.5-17.6-8.5-24.1C273.4,67.7,264.9,64,256,64z M266.7,96.6L257.5,202
		c-0.4,6.3-5.8,11.3-12.3,11.3c-6.4,0-11.7-4.9-12.1-11.5l-9-105.1c-0.2-3,0.8-5.9,2.8-8c2-2.2,4.8-3.4,7.8-3.4H256
		c3,0,5.8,1.2,7.8,3.4C265.9,90.9,266.9,93.8,266.7,96.6z"/>
</g>
</svg>
