<?xml version="1.0" standalone="no"?>
<!DOCTYPE svg PUBLIC "-//W3C//DTD SVG 20010904//EN"
 "http://www.w3.org/TR/2001/REC-SVG-20010904/DTD/svg10.dtd">
<svg version="1.0" xmlns="http://www.w3.org/2000/svg"
 width="980.000000pt" height="980.000000pt" viewBox="0 0 980.000000 980.000000"
 preserveAspectRatio="xMidYMid meet">
<metadata>
Created by potrace 1.15, written by Peter Selinger 2001-2017
</metadata>
<g transform="translate(0.000000,980.000000) scale(0.100000,-0.100000)"
fill="#000000" stroke="none">
<path d="M4560 9789 c-1035 -75 -1998 -463 -2800 -1128 -150 -123 -501 -475
-622 -621 -534 -647 -880 -1372 -1042 -2180 -259 -1290 18 -2648 761 -3727
277 -403 628 -778 1018 -1087 680 -539 1533 -896 2400 -1005 1488 -188 2966
303 4028 1338 427 416 739 843 992 1356 477 968 621 2065 409 3125 -169 848
-553 1624 -1130 2280 -112 128 -386 398 -509 501 -762 642 -1665 1026 -2665
1134 -174 19 -664 27 -840 14z m870 -788 c1199 -163 2247 -814 2907 -1806 359
-539 576 -1117 664 -1769 30 -220 37 -669 15 -906 -52 -536 -181 -987 -423
-1470 -242 -485 -563 -903 -959 -1250 -634 -555 -1367 -886 -2218 -1002 -220
-30 -785 -33 -996 -5 -405 54 -767 148 -1105 289 -1265 528 -2191 1650 -2465
2986 -63 308 -75 441 -75 832 0 392 12 523 76 835 165 804 575 1552 1166 2125
649 631 1475 1029 2361 1140 224 28 224 28 577 25 257 -3 351 -7 475 -24z"/>
<path d="M4287 6742 c-334 -334 -607 -610 -607 -615 0 -4 137 -7 305 -7 l305
0 0 -610 0 -610 610 0 610 0 0 610 0 610 305 0 c168 0 305 3 305 8 0 8 -1212
1222 -1220 1222 -3 0 -278 -273 -613 -608z"/>
<path d="M4290 4440 l0 -150 610 0 610 0 0 150 0 150 -610 0 -610 0 0 -150z"/>
<path d="M4290 3825 l0 -155 610 0 610 0 0 155 0 155 -610 0 -610 0 0 -155z"/>
<path d="M4290 3215 l0 -155 610 0 610 0 0 155 0 155 -610 0 -610 0 0 -155z"/>
<path d="M4290 2605 l0 -155 610 0 610 0 0 155 0 155 -610 0 -610 0 0 -155z"/>
</g>
</svg>
