<?xml version="1.0" encoding="utf-8"?>
<!-- Generator: Adobe Illustrator 22.1.0, SVG Export Plug-In . SVG Version: 6.00 Build 0)  -->
<svg version="1.1" id="Layer_1" xmlns="http://www.w3.org/2000/svg" xmlns:xlink="http://www.w3.org/1999/xlink" x="0px" y="0px"
	 viewBox="0 0 150 150" style="enable-background:new 0 0 150 150;" xml:space="preserve">
<style type="text/css">
	.st0{fill:#FA873B;}
	.st1{fill:#FFFFFF;}
</style>
<g>
	<path class="st0" d="M131.3,150H18.7C8.4,150,0,141.6,0,131.3V18.7C0,8.4,8.4,0,18.7,0h112.7C141.6,0,150,8.4,150,18.7v112.7
		C150,141.6,141.6,150,131.3,150z"/>
	<g>
		<path class="st1" d="M76.4,25.4c1.7,0.6,3.4,1.1,4.8,2.3c2.9,2.5,3.9,6.9,2.4,10.5c-1.5,3.5-5.2,5.9-8.9,5.6
			c-5-0.3-8.8-4.1-8.8-9.1c-0.1-4,2.5-7.5,6.2-8.8c0.5-0.2,1.1-0.2,1.5-0.5C74.4,25.4,75.4,25.4,76.4,25.4z M80.7,34.6
			c0-3.1-2.6-5.7-5.7-5.7c-3.1,0-5.7,2.6-5.7,5.7c0,3.2,2.6,5.7,5.8,5.6C78.2,40.3,80.7,37.7,80.7,34.6z"/>
		<path class="st1" d="M75,92.9c-9.9,0-17.9-8-17.9-17.9c0-9.9,8-17.9,17.9-17.9c9.9,0,17.9,8,17.9,17.9
			C92.9,84.9,84.9,92.9,75,92.9z"/>
		<path class="st1" d="M119.2,54.6c0.1,5.1-3.9,9.3-9.1,9.4c-4.8,0.1-9.1-4-9.3-8.7c-0.2-5.4,3.9-9.7,9.1-9.8
			C114.9,45.5,119.1,49.6,119.2,54.6z M110,60.5c3.1,0,5.7-2.6,5.6-5.7c0-3.1-2.6-5.7-5.7-5.7c-3.1,0-5.6,2.6-5.6,5.7
			C104.3,58,106.9,60.5,110,60.5z"/>
		<path class="st1" d="M49.2,55C49.2,60,45,64.1,40,64.1c-5.1-0.1-9.2-4.3-9.2-9.3c0.1-5.2,4.3-9.3,9.4-9.2
			C45.3,45.7,49.3,49.9,49.2,55z M40.1,60.5c3.2,0,5.7-2.6,5.7-5.8c0-3.1-2.7-5.7-5.7-5.6c-3.1,0-5.7,2.7-5.7,5.8
			C34.4,58,36.9,60.5,40.1,60.5z"/>
		<path class="st1" d="M49.2,95.1c0.1,5.1-4,9.3-9.1,9.4c-5.1,0.1-9.2-4.1-9.3-9.3c-0.1-5,4-9.1,9.1-9.3C45,85.8,49.2,90,49.2,95.1z
			 M40,89.5c-3.1,0-5.7,2.5-5.7,5.7c0,3.1,2.6,5.8,5.7,5.7c3.1,0,5.7-2.6,5.7-5.7C45.7,92.1,43.2,89.5,40,89.5z"/>
		<path class="st1" d="M100.8,95c0.1-5.1,4.2-9.2,9.3-9.1c5.1,0.1,9.3,4.3,9.2,9.3c-0.1,5.2-4.3,9.3-9.4,9.2
			C104.7,104.4,100.7,100.1,100.8,95z M110,89.5c-3.2,0-5.7,2.6-5.7,5.7c0,3.1,2.6,5.7,5.7,5.7c3.1,0,5.7-2.6,5.7-5.8
			C115.7,92.1,113.1,89.5,110,89.5z"/>
		<path class="st1" d="M75.1,124.6c-5,0.1-9.4-4.1-9.4-9.2c0-5.2,4-9.1,9.1-9.2c5-0.1,9.3,4,9.3,9.1
			C84.3,120.4,80.3,124.5,75.1,124.6z M80.7,115.4c0-3.2-2.6-5.7-5.7-5.7c-3.1,0-5.6,2.6-5.6,5.7c0,3.1,2.5,5.6,5.6,5.7
			C78.1,121.1,80.7,118.5,80.7,115.4z"/>
		<path class="st1" d="M87.2,34.7c1.7,0.5,3.1,1,4.5,1.6c4.3,1.9,8.2,4.4,11.6,7.5c0.4,0.4,0.5,0.6,0.1,1c-0.5,0.5-1.1,1-1.5,1.6
			c-0.3,0.4-0.6,0.3-0.9,0c-4.1-3.8-8.9-6.5-14.3-8.3c-0.4-0.1-0.6-0.2-0.5-0.7c0.3-0.8,0.5-1.7,0.8-2.5
			C87.1,34.8,87.1,34.7,87.2,34.7z"/>
		<path class="st1" d="M63.8,112.4c-0.3,0.9-0.5,1.8-0.8,2.7c-0.2,0.5-0.5,0.1-0.7,0.1c-3.8-1.2-7.4-2.9-10.7-5.1
			c-1.7-1.2-3.4-2.5-5-3.9c-0.5-0.4-0.5-0.6,0-1c0.5-0.5,1-1,1.5-1.5c0.3-0.4,0.5-0.5,1-0.1c4.1,3.8,8.9,6.5,14.3,8.3
			C63.8,112,63.8,112,63.8,112.4z"/>
		<path class="st1" d="M117.1,74.6c0,3.4-0.3,6.4-1,9.4c-0.1,0.5-0.2,0.7-0.8,0.5c-0.9-0.3-2.1-0.2-2.6-0.8
			c-0.5-0.5,0.2-1.7,0.3-2.6c0.8-4.8,0.6-9.6-0.4-14.3c-0.1-0.6,0-0.9,0.6-1c0.2,0,0.4-0.1,0.7-0.1c2.1-0.5,2.1-0.5,2.5,1.7
			C116.9,70,117.1,72.5,117.1,74.6z"/>
		<path class="st1" d="M63.8,37.7c0,0.6-0.5,0.5-0.7,0.6c-4.6,1.5-8.8,3.8-12.5,6.9c-0.5,0.4-1,0.9-1.5,1.3
			c-0.4,0.4-0.6,0.3-0.9-0.1c-0.1-0.2-0.3-0.3-0.5-0.5c-0.5-0.6-1.4-1-1.4-1.7c0-0.5,0.9-1,1.5-1.4c4.3-3.6,9.1-6.3,14.4-8
			c0.6-0.2,0.8-0.1,0.9,0.5C63.3,36.1,63.6,36.9,63.8,37.7z"/>
		<path class="st1" d="M32.9,75c0-3.1,0.3-6.1,1-9.1c0.1-0.5,0.2-0.7,0.7-0.5c0.7,0.2,1.5,0.4,2.3,0.5c0.5,0.1,0.6,0.3,0.5,0.8
			c-0.7,3-1,6.1-0.9,9.2c0.1,2.4,0.3,4.8,0.9,7.2c0.1,0.6,0,0.8-0.6,0.9c-0.6,0.1-1.3,0.2-1.9,0.4c-0.8,0.3-1,0-1.1-0.7
			C33.2,80.9,32.9,78,32.9,75z"/>
		<path class="st1" d="M87.2,115.4c-0.1,0-0.2-0.2-0.2-0.4c-0.2-0.8-0.5-1.7-0.7-2.5c-0.2-0.6,0.3-0.6,0.6-0.7
			c3.1-1,6.1-2.4,8.9-4.2c1.9-1.2,3.6-2.5,5.2-4c0.4-0.4,0.7-0.4,1,0c0.1,0.1,0.2,0.2,0.3,0.4c1.7,1.8,1.7,1.8-0.2,3.4
			c-4.2,3.5-8.9,6.1-14.1,7.8C87.8,115.2,87.6,115.2,87.2,115.4z"/>
		<path class="st1" d="M100.7,88c-0.5,0.9-1.1,1.8-1.6,2.7c-0.1,0.2-0.4,0-0.5-0.1c-2.2-1.2-4.3-2.5-6.5-3.7
			c-0.4-0.2-0.5-0.4-0.2-0.7c0,0,0-0.1,0.1-0.1c0.5-0.8,0.8-2,1.5-2.3c0.7-0.3,1.6,0.7,2.4,1.2c1.5,0.8,2.9,1.7,4.4,2.5
			C100.4,87.7,100.8,87.7,100.7,88z"/>
		<path class="st1" d="M51.1,59.2c0.1,0.1,0.3,0.2,0.4,0.2c2.1,1.2,4.1,2.4,6.2,3.6c0.5,0.3,0.5,0.5,0.2,1c-0.4,0.6-0.8,1.3-1.2,2
			c-0.2,0.4-0.4,0.4-0.8,0.2c-2.1-1.3-4.3-2.5-6.4-3.7c-0.2-0.1-0.5-0.2-0.3-0.6c0.5-0.8,0.9-1.6,1.4-2.4
			C50.8,59.3,50.9,59.1,51.1,59.2z"/>
		<path class="st1" d="M58.2,86.5c0.1,0.4-0.2,0.4-0.4,0.5c-2.1,1.2-4.2,2.4-6.4,3.7c-0.4,0.2-0.6,0.2-0.8-0.2
			c-0.4-0.9-1.4-1.8-1.3-2.5c0.1-0.6,1.4-1,2.2-1.5c1.4-0.8,2.9-1.7,4.3-2.5c0.4-0.3,0.7-0.2,0.9,0.2C57.3,84.9,57.8,85.7,58.2,86.5
			z"/>
		<path class="st1" d="M100.8,62.1c-0.1,0.2-0.3,0.3-0.4,0.4c-2.1,1.2-4.2,2.4-6.4,3.7c-0.4,0.2-0.6,0.2-0.8-0.2
			c-0.4-0.8-1.3-1.7-1.3-2.4c0.1-0.8,1.4-1,2.2-1.5c1.4-0.9,2.9-1.7,4.3-2.5c0.5-0.3,0.8-0.2,1,0.3c0.3,0.7,0.7,1.3,1.1,1.9
			C100.6,61.8,100.7,61.9,100.8,62.1z"/>
		<path class="st1" d="M76.8,50.6c0,1.2,0,2.3,0,3.5c0,0.5-0.1,0.7-0.6,0.7c-0.9-0.1-2.1,0.3-2.7-0.2c-0.6-0.5-0.2-1.7-0.2-2.7
			c0-1.6,0-3.3,0-4.9c0-0.6,0.1-0.8,0.7-0.8c0.9,0.1,2.1-0.3,2.6,0.2c0.6,0.5,0.1,1.7,0.2,2.6C76.8,49.5,76.8,50,76.8,50.6
			C76.8,50.6,76.8,50.6,76.8,50.6z"/>
		<path class="st1" d="M76.8,99.5c0,1.2,0,2.3,0,3.5c0,0.5-0.1,0.8-0.7,0.8c-0.9-0.1-2.1,0.3-2.6-0.2c-0.6-0.5-0.2-1.7-0.2-2.6
			c0-1.6,0-3.3,0-4.9c0-0.7,0.2-0.9,0.9-0.8c0.7,0.1,1.4,0,2,0c0.5,0,0.7,0.1,0.7,0.7C76.7,97.1,76.8,98.3,76.8,99.5z"/>
		<path class="st0" d="M87.8,79.5c0.5-1.4,0.8-2.9,0.8-4.5s-0.3-3.1-0.8-4.5c0,0,0-0.1,0-0.1c-1.9-5.2-6.9-9-12.8-9
			s-10.9,3.7-12.8,9c0,0,0,0.1,0,0.1c-0.5,1.4-0.8,2.9-0.8,4.5s0.3,3.1,0.8,4.5c0,0,0,0.1,0,0.1c1.9,5.2,6.9,9,12.8,9
			s10.9-3.7,12.8-9C87.8,79.5,87.8,79.5,87.8,79.5z M75,86.6c-0.5,0-1.3-0.9-2-3c-0.3-1-0.6-2.2-0.8-3.4h5.7
			c-0.2,1.3-0.5,2.4-0.8,3.4C76.3,85.7,75.5,86.6,75,86.6z M71.9,78.2c-0.1-1-0.1-2.1-0.1-3.2s0-2.2,0.1-3.2h6.2
			c0.1,1,0.1,2.1,0.1,3.2s0,2.2-0.1,3.2H71.9z M63.4,75c0-1.1,0.2-2.2,0.5-3.2H70c-0.1,1.1-0.1,2.1-0.1,3.2c0,1.1,0,2.2,0.1,3.2
			h-6.1C63.5,77.2,63.4,76.1,63.4,75z M75,63.4c0.5,0,1.3,0.9,2,3c0.3,1,0.6,2.2,0.8,3.4h-5.7c0.2-1.3,0.5-2.4,0.8-3.4
			C73.7,64.3,74.5,63.4,75,63.4z M80,71.8h6.1c0.3,1,0.5,2.1,0.5,3.2s-0.2,2.2-0.5,3.2H80c0.1-1.1,0.1-2.1,0.1-3.2
			S80.1,72.8,80,71.8z M85.4,69.8h-5.6c-0.3-2.4-0.9-4.5-1.8-6C81.3,64.7,83.9,66.9,85.4,69.8z M72,63.8c-0.8,1.5-1.4,3.7-1.8,6
			h-5.6C66.1,66.9,68.7,64.7,72,63.8z M64.6,80.2h5.6c0.3,2.4,0.9,4.5,1.8,6C68.7,85.3,66.1,83.1,64.6,80.2z M78,86.2
			c0.8-1.5,1.4-3.7,1.8-6h5.6C83.9,83.1,81.3,85.3,78,86.2z"/>
	</g>
</g>
</svg>
