<?xml version="1.0" encoding="utf-8"?>
<!-- Generator: Adobe Illustrator 22.1.0, SVG Export Plug-In . SVG Version: 6.00 Build 0)  -->
<svg version="1.1" id="Layer_1" xmlns="http://www.w3.org/2000/svg" xmlns:xlink="http://www.w3.org/1999/xlink" x="0px" y="0px"
	 viewBox="0 0 150 150" style="enable-background:new 0 0 150 150;" xml:space="preserve">
<style type="text/css">
	.st0{fill:#1C75BC;}
	.st1{fill:#54A3F2;}
	.st2{fill:#EB2027;}
	.st3{fill:#404041;}
	.st4{fill:#FFFFFF;}
	.st5{fill:#F37A23;}
	.st6{fill:#FF6600;}
	.st7{fill:#424C5F;}
</style>
<g>
	<path class="st0" d="M42,136c0-7.7,6.1-14,13.9-14s14,6.2,14,14c0,7.8-6.2,14-14,14C48,150,42,143.7,42,136z"/>
	<path class="st0" d="M107.1,136.1c0,8-6.1,14-14,13.9c-7.7,0-13.9-6.2-13.9-14c0-7.7,6.1-14,13.9-14
		C100.8,121.9,107.1,128.1,107.1,136.1z"/>
	<path class="st1" d="M76,25.4C76,11.3,87.3,0,101.3,0s25.4,11.3,25.4,25.4s-11.3,25.4-25.4,25.4C87.2,50.7,76,39.4,76,25.4z"/>
	<g>
		<path class="st2" d="M31.8,33.3c0-10.3,8.4-18.5,18.5-18.5s18.5,8.4,18.5,18.6s-8.4,18.5-18.5,18.5C40.2,51.8,31.8,43.4,31.8,33.3
			z"/>
		<g>
			<path class="st3" d="M60.2,26.8l-2.3,3.8c0.1,0.8,0.3,1.5,0.3,2.4c0,4.3-3.6,8-8,8c-3.9,0-7.1-2.8-8-6.6l-0.9-0.9
				c0,0-0.4-0.4-0.5-0.5c-0.1,0-0.5-0.1-0.5-0.1l-0.9,0.1c0,0,0,0,0,0.1s0,0.1,0,0.1v0.1v0.1c0,0-0.1,0.1-0.1,0.3v0.1c0,0,0,0,0,0.1
				L39,34.3v0.3v0.1v0.1l0,0c0.3,2.4,1.5,4.6,3.2,6.3c2.3,2,5.1,3.2,8.2,3.2s5.9-1.2,8.2-3.4c2.3-2.3,3.4-5.1,3.4-8.2
				C61.9,30.8,61.4,28.6,60.2,26.8z"/>
			<path class="st4" d="M55.9,28.6h-4.3c-0.3,0-0.4,0.1-0.4,0.4v0.8c0,0.3,0.1,0.4,0.4,0.4h4.3c0.3,0,0.4-0.1,0.4-0.4v-0.7
				C56.3,28.9,56.1,28.6,55.9,28.6z M55.9,32.1h-6.3c-0.3,0-0.4,0.1-0.4,0.4v0.8c0,0.3,0.1,0.4,0.4,0.4h6.3c0.3,0,0.4-0.1,0.4-0.4
				v-0.8C56.3,32.2,56.1,32.1,55.9,32.1z M55.9,35.5h-8.1c-0.3,0-0.4,0.1-0.4,0.4v0.8c0,0.3,0.1,0.4,0.4,0.4h8.1
				c0.3,0,0.4-0.1,0.4-0.4v-0.8C56.3,35.6,56.1,35.5,55.9,35.5z"/>
			<path class="st4" d="M38.9,34.7c0,0-0.3-1.6,1.1-2.4l1.6-1.1c0,0,0.8-0.4,1.3,0.1l1.5,1.1c0,0,0.3,0.3,0.5-0.1
				c0,0,5.4-9.4,11.9-10.4c0,0,0.5,0,0.5,0.4c0,0-0.4-0.4-1.5,0.1c0,0-4,1.2-10.4,14.3c0,0-0.3,0.4-0.8,0c0,0-2.8-2.7-4.5-3.6
				c0,0-0.8-0.4-1.2,0.4C39.3,33.5,39,33.7,38.9,34.7C39,34.7,38.9,34.9,38.9,34.7L38.9,34.7z"/>
		</g>
	</g>
	<g>
		<path class="st5" d="M100.4,67.4c0-5.4,4.2-9.7,9.7-9.8c5.4,0,9.7,4.2,9.7,9.7c0,5.4-4.2,9.8-9.7,9.8
			C104.7,77.2,100.4,72.8,100.4,67.4z"/>
		<g>
			<path class="st4" d="M108.3,69.3C108.3,69.3,108.2,69.3,108.3,69.3l-0.1,3.5c0,0.1,0,0.1,0.1,0.1h1.2c0.1,0,0.1,0,0.1-0.1v-3.4
				c0-0.1,0-0.1-0.1-0.1H108.3L108.3,69.3z M109.4,72.7h-0.8v-3.1h0.8V72.7z"/>
			<path class="st4" d="M104.7,70.1C104.4,70.1,104.4,70.1,104.7,70.1l-0.1,2.7c0,0.1,0,0.1,0.1,0.1h1.2c0.1,0,0.1,0,0.1-0.1v-2.6
				c0-0.1,0-0.1-0.1-0.1H104.7L104.7,70.1z M104.8,72.7v-0.4l0.4,0.4H104.8z M105.4,72.7l-0.5-0.7v-0.4l0.8,0.8L105.4,72.7
				L105.4,72.7z M105.6,72.3l-0.8-0.8v-0.4l0.8,0.8V72.3z M105.6,71.8l-0.8-0.8v-0.4l0.8,0.8V71.8z M105.6,71.4l-0.8-0.8h0.4
				l0.5,0.5v0.3H105.6z M105.6,70.8l-0.4-0.4h0.4V70.8z"/>
			<path class="st4" d="M106.4,67.7C106.3,67.7,106.3,68,106.4,67.7l-0.1,5c0,0.1,0,0.1,0.1,0.1h1.2c0.1,0,0.1,0,0.1-0.1V68
				c0-0.1,0-0.1-0.1-0.1L106.4,67.7L106.4,67.7z"/>
			<path class="st4" d="M114.7,63c-0.8-0.8-1.9-1.3-3.1-1.3c-0.1,0-0.5,0.1-0.5,0.5v3.5c0,0.1,0.1,0.5,0.5,0.5h3.5
				c0.1,0,0.5-0.1,0.5-0.5C115.6,64.7,115.3,63.7,114.7,63z M112.1,65.2v-2.7c0.7,0.1,1.5,0.5,2,1.1c0.5,0.5,0.7,1.1,0.8,1.8h-2.8
				V65.2z"/>
			<path class="st4" d="M114.3,67.2h-4.2V63c0-0.1-0.1-0.5-0.5-0.5c-2.7,0-5.1,2.2-5.1,5.1c0,0.5,0.1,1.2,0.4,1.5h0.8
				c-0.1-0.5-0.4-1.1-0.4-1.5c0-2.2,1.5-3.9,3.8-4v4c0,0.1,0.1,0.5,0.4,0.5h4.2c-0.1,1.9-1.8,3.4-3.5,3.8v0.8c2.6-0.4,4.5-2.4,4.5-5
				C114.7,67.4,114.5,67.2,114.3,67.2z"/>
		</g>
	</g>
	<path class="st0" d="M125.3,83.9c-1.1-1.9-3-3.1-5.3-3.4c-3-0.3-5.7,1.3-6.9,4c-0.8,1.8-3.4,7.1-4,8.6c-0.3,0.8-1.3,3.2-4.7,3.2
		c-2.6,0-4.9,0-7.4,0c-2.3,0-4.5,0-6.7,0h-0.1c-4.3,0-8.5,0-11.1,0c-8.1,0-15.9,0-24,0c-5.7,0-9.7-2.7-11.7-8.1
		c-3.2-8-6.1-14.7-8.9-21.2c-2-4.7-5.7-7.3-10.8-7.4c-2.7-0.1-5.4-0.1-8.1-0.1c-2.3,0-4.5,0-6.7,0h-2c-1.9,0-3.6,0.8-4.9,2.3
		c-2,2.3-2.4,4.7-1.2,7.6s3.4,4.2,6.7,4.2c2.3,0,1.4,0,3.6,0c2.4,0,4.7,0,7.4,0c3.4,0,4.5,2.6,4.7,3.2c2.3,5.5,4.6,11.1,7,16.6
		l2.3,5.4c3.1,7.6,8.9,11.3,17,11.3h44c2.3,0,4.5,0,6.7,0c0.1,0,0.3,0,0.4,0c0.3,0,0.5,0,0.9,0c0.1,0,0.3,0,0.5,0c1.3,0,2.8,0,4.2,0
		c0.3,0,0.4,0,0.8,0c0.9,0,1.6,0,2.6,0c5.1-0.1,8.6-2.7,10.8-7.4c2.4-5.4,3-6.7,5.7-12.9H126C126.4,87.9,126.3,85.8,125.3,83.9z"/>
	<g>
		<g>
			<g>
				<path class="st4" d="M101.3,36.7c-2.6,0-5.1,0-7.6,0c-0.3,0-0.4,0-0.8,0c-1.6-0.3-2.7-1.6-2.7-3.2c0-3.6,0-7.1,0-10.8
					c0,0,0-0.1,0-0.3h19.6V25c1.2,0.1,2.4,0.5,3.4,1.2V14.8h-3.1v0.3c0,0.8,0,1.5,0,2.4c0,2.3-1.8,3.8-3.9,3.4c-1.6-0.1-3-1.6-3-3.2
					c0-0.9,0-1.8,0-2.6v-0.3H97c0,0.8,0,1.2,0,1.8c0,0.4,0,0.9,0,1.3c-0.4,1.9-2.4,3.4-4.2,3c-1.6-0.4-2.8-1.8-2.8-3.4
					c0-0.8,0-1.6,0-2.4c0-0.1,0-0.3-0.3-0.3c-0.9,0-1.9,0-2.8,0v19c0.1,0.4,0.1,0.9,0.3,1.3c0.9,2.7,2.6,4.3,5.4,4.9
					c0.3,0,0.5,0,1.1,0.1h10.9C102.9,39.4,101.9,38,101.3,36.7z M93.2,34.5c0.3,0,0.5,0,1.1,0c0.4,0,0.5,0,1.1,0
					c0.8,0,1.2-0.4,1.2-1.2c0-0.5,0-1.3,0-1.9c0-0.8-0.4-1.2-1.2-1.2c-0.5,0-1.3,0-1.9,0c-0.8,0-1.2,0.4-1.2,1.2c0,0.8,0,1.3,0,1.9
					C92,34,92.5,34.5,93.2,34.5z M93.1,28.9c0.8,0,1.5,0,2.3,0c0.5,0,1.1-0.4,1.1-1.1c0-0.8,0-1.5,0-2.4c0-0.5-0.4-1.1-1.1-1.1
					c-0.3,0-0.8,0-1.1,0c-0.3,0-0.8,0-1.1,0c-0.5,0-1.2,0.4-1.2,1.1c0,0.8,0,1.3,0,2C92,28.3,92.5,28.9,93.1,28.9z M101.2,30.2
					C101,30.2,101,30.2,101.2,30.2c-0.8,0-1.3,0-2,0c-0.8,0-1.2,0.4-1.2,1.1c0,0.8,0,1.3,0,2c0,0.7,0.4,1.1,1.2,1.1
					c0.5,0,1.1,0,1.6,0c-0.1-0.5-0.1-1.3,0-1.9C100.6,31.7,100.8,30.9,101.2,30.2z M102.1,25.5c0-0.5-0.4-1.1-1.1-1.1
					c-0.8,0-1.3,0-1.9,0c-0.8,0-1.2,0.4-1.2,1.1c0,0.8,0,1.3,0,2c0,0.5,0.4,1.1,1.1,1.1c0.8,0,1.5,0,2.3,0c0.5,0,1.1-0.4,1.1-1.1
					c0-0.4,0-0.8,0-1.1l0,0C102.1,26.3,102.1,26,102.1,25.5z M104.8,24.5c-0.8,0-1.2,0.4-1.2,1.1c0,0.3,0,0.5,0,1.1
					c1.1-0.9,2.6-1.5,4-1.8l0,0c-0.1-0.3-0.4-0.4-0.9-0.4c-0.3,0-0.8,0-1.1,0C105.5,24.5,105.1,24.5,104.8,24.5z M91.3,17.8
					c0.1,1.1,1.2,1.9,2.3,1.8c1.1-0.1,1.9-1.1,1.9-2.3c0-1.5,0-3.1,0-4.7c0-0.9-0.4-1.6-1.3-1.9c-0.1-0.1-0.4-0.1-0.5-0.1h-0.5l0,0
					c-1.2,0.3-1.8,1.1-1.8,2.3c0,1.5,0,3,0,4.5C91.2,17.5,91.2,17.7,91.3,17.8z M104.4,17.4c0,0.1,0,0.3,0,0.4
					c0.1,1.1,1.2,1.9,2.3,1.8c1.1-0.1,1.9-1.1,1.9-2.3c0-1.6,0-3.1,0-4.7c0-0.9-0.5-1.8-1.5-2c-0.1,0-0.3,0-0.3-0.1h-0.5l0,0
					c-0.9,0.1-1.8,1.1-1.8,2.3C104.4,14.3,104.4,15.8,104.4,17.4z M115.5,31.7c-0.8-3.4-4.2-5.8-7.6-5.3c-3.2,0.4-5.5,3-5.8,6.2
					c-0.3,3.2,1.8,6.2,4.9,7.1c0.4,0.1,0.9,0.1,1.3,0.3h1.1c0.4-0.1,0.9-0.1,1.3-0.3c2.8-0.9,4.5-2.7,4.9-5.5c0-0.1,0-0.3,0.1-0.4
					v-1.1C115.6,32.4,115.6,32.1,115.5,31.7z M113.9,32.8c-0.1,0-0.3,0-0.5,0c-0.3,0-0.4,0.1-0.4,0.4c0,0.3,0.1,0.4,0.4,0.4
					c0.1,0,0.3,0,0.5,0c0,2.3-2,4.5-4.6,4.6c0-0.1,0-0.3,0-0.5c0-0.3-0.1-0.4-0.4-0.4c-0.3,0-0.4,0.1-0.4,0.4c0,0.1,0,0.3,0,0.4l0,0
					c-1.1-0.1-2-0.5-3-1.3c-1.1-0.9-1.5-1.9-1.6-3.2c0.1,0,0.3,0,0.5,0c0.3,0,0.4-0.1,0.4-0.4s-0.1-0.4-0.4-0.4c-0.1,0-0.3,0-0.5,0
					c0.1-1.1,0.4-1.9,1.2-2.8c0.9-1.2,2.4-1.8,3.4-1.8c0,0.1,0,0.3,0,0.5s0.1,0.4,0.4,0.4c0.3,0,0.4-0.1,0.4-0.4c0-0.1,0-0.3,0-0.4
					C111.7,28.1,114.1,30.8,113.9,32.8z M111.4,32.5c-0.4,0-0.9,0-1.5,0c-0.1,0-0.3,0-0.3-0.1c-0.1-0.1-0.4-0.3-0.8-0.3
					c-0.1,0-0.3-0.1-0.3-0.1c-0.4-0.5-0.9-1.2-1.3-1.8c-0.1-0.3-0.4-0.3-0.5-0.3c-0.4,0-0.8,0.5-0.4,1.1c0.3,0.5,0.8,1.1,1.1,1.5
					c0.1,0.3,0.4,0.4,0.3,0.9l0,0c0,0.4,0.3,0.9,0.8,1.1c0.4,0.1,0.9,0,1.3-0.3c0.1-0.1,0.1-0.1,0.3-0.1c0.4,0,0.9,0,1.3,0
					c0.1,0,0.1,0,0.3,0c0.3-0.1,0.4-0.4,0.4-0.8C112,32.8,111.7,32.5,111.4,32.5z"/>
			</g>
		</g>
	</g>
	<g>
		<path class="st6" d="M83.1,67.7c6.9,0,12.3,5.4,12.3,12.3c0,6.1-4.5,12.1-12.3,12.3c-6.7,0.1-12.3-5.5-12.3-12.3
			C70.7,73,76.2,67.7,83.1,67.7z"/>
		<g>
			<g>
				<path class="st7" d="M79.2,80.9L79.2,80.9c0.5-0.5,0.8-1.1,1.3-1.5l0.1-0.1c0.1-0.1,0.4-0.4,0.5-0.5h-0.1v-5.1h-2.7v6.2
					C78.7,80.1,78.9,80.4,79.2,80.9z"/>
				<path class="st7" d="M89,74.6v-0.9h-2.7v1.9C87.2,75,88,74.9,89,74.6z"/>
				<path class="st7" d="M86.3,77v1.5v2.4v5.5H89V75.8C88,76.2,87.2,76.5,86.3,77z"/>
				<path class="st7" d="M80.5,83.9L80.5,83.9c-0.1,0.1-0.1,0.4-0.1,0.5c-0.1,0.4-0.4,0.7-0.5,1.1c0,0.1-0.1,0.4-0.4,0.5
					c-0.1,0.1-0.4,0.1-0.5,0.1s-0.4,0-0.5-0.4c0-0.1,0-0.5,0-0.7v1.3h2.7V83C80.9,83.2,80.7,83.6,80.5,83.9z"/>
			</g>
			<path class="st4" d="M79.3,81.7c0-0.1,0.1-0.4,0.1-0.4c0.4-0.7,0.8-1.2,1.3-1.9c0.8-1.1,3.8-4.2,10-4.7l0,0l0,0
				c-0.1,0-0.1,0.1-0.4,0.1c-3.9,1.1-7.4,2.6-10.3,8.8c-0.4,0.5-0.5,1.1-0.8,1.5c0,0.1-0.1,0.4-0.4,0.4c-0.1,0.1-0.1,0.1-0.4,0
				s-0.1-0.4-0.1-0.5c-0.5-2.8-1.8-4.2-2.2-4.9c-0.4-0.4-0.7-0.7-0.8-1.1h-0.1c0-0.1,0-0.1,0.1-0.1s0.4,0,0.5,0
				c0.7,0.1,1.2,0.5,1.9,1.1c0.5,0.5,0.7,0.7,1.2,1.2C79.1,81.2,79.1,81.5,79.3,81.7C79.2,81.7,79.2,81.7,79.3,81.7z"/>
		</g>
	</g>
	<g>
		<path class="st1" d="M43.7,69.1c0.1-6.3,5.1-11.3,11.5-11.2c6.3,0.1,11.2,5.4,10.9,11.6c-0.1,6.2-5.5,11.2-11.5,10.9
			C48.4,80.4,43.6,75.3,43.7,69.1z"/>
		<g>
			<path class="st4" d="M55.1,61c-4.6,0-8.2,3.8-8.2,8.2c0,4.5,3.8,8.2,8.2,8.2c4.6,0,8.2-3.8,8.2-8.2C63.3,64.6,59.6,61,55.1,61z
				 M55.1,76.3c-3.9,0-7.1-3.2-7.1-7.1c0-3.9,3.2-7.1,7.1-7.1s7.1,3.2,7.1,7.1C62.1,73.1,59,76.3,55.1,76.3z"/>
			<path class="st4" d="M49.4,69.5h-2.3c-0.1,0-0.3-0.1-0.3-0.3l0,0c0-0.1,0.1-0.3,0.3-0.3h2.3c0.1,0,0.3,0.1,0.3,0.3l0,0
				C49.8,69.3,49.7,69.5,49.4,69.5z"/>
			<path class="st4" d="M63,69.5h-2.3c-0.1,0-0.3-0.1-0.3-0.3l0,0c0-0.1,0.1-0.3,0.3-0.3H63c0.1,0,0.3,0.1,0.3,0.3l0,0
				C63.3,69.3,63.1,69.5,63,69.5z"/>
			<path class="st4" d="M55.5,74.9v2.3c0,0.1-0.1,0.3-0.3,0.3l0,0c-0.1,0-0.3-0.1-0.3-0.3v-2.3c0-0.1,0.1-0.3,0.3-0.3l0,0
				C55.3,74.5,55.5,74.7,55.5,74.9z"/>
			<path class="st4" d="M55.5,61.2v2.3c0,0.1-0.1,0.3-0.3,0.3l0,0c-0.1,0-0.3-0.1-0.3-0.3v-2.3c0-0.1,0.1-0.3,0.3-0.3l0,0
				C55.3,61,55.5,61.1,55.5,61.2z"/>
			<g>
				<g>
					<g>
						<path class="st4" d="M58.3,62.7l-0.5,0.9c0,0-0.1,0.1-0.1,0l0,0c0,0-0.1-0.1,0-0.1L58.3,62.7C58.2,62.6,58.3,62.5,58.3,62.7
							L58.3,62.7C58.3,62.6,58.3,62.6,58.3,62.7z"/>
						<path class="st4" d="M56.7,62L56.5,63c0,0,0,0.1-0.1,0.1l0,0c0,0-0.1,0-0.1-0.1l0.1-0.9C56.5,61.9,56.5,61.9,56.7,62L56.7,62
							C56.7,61.9,56.7,61.9,56.7,62z"/>
						<path class="st4" d="M59.6,63.5L59,64.3h-0.1l0,0v-0.1L59.6,63.5L59.6,63.5L59.6,63.5C59.6,63.4,59.8,63.5,59.6,63.5z"/>
						<path class="st4" d="M60.7,64.6l-0.8,0.7h-0.1l0,0v-0.1L60.7,64.6L60.7,64.6L60.7,64.6C60.9,64.5,60.9,64.6,60.7,64.6z"/>
						<path class="st4" d="M61.7,66.1l-0.9,0.5h-0.1l0,0v-0.1L61.7,66.1L61.7,66.1L61.7,66.1L61.7,66.1z"/>
						<path class="st4" d="M62.2,67.8L61.3,68c0,0-0.1,0-0.1-0.1l0,0c0,0,0-0.1,0.1-0.1l0.9-0.1C62.2,67.6,62.3,67.6,62.2,67.8
							L62.2,67.8C62.3,67.7,62.3,67.7,62.2,67.8z"/>
					</g>
					<g>
						<path class="st4" d="M48.6,65.8l0.8,0.5v0.1l0,0h-0.1L48.6,65.8L48.6,65.8L48.6,65.8C48.4,65.8,48.4,65.8,48.6,65.8z"/>
						<path class="st4" d="M48,67.3l0.9,0.1c0,0,0.1,0,0.1,0.1l0,0c0,0,0,0.1-0.1,0.1L48,67.6C47.8,67.6,47.8,67.4,48,67.3L48,67.3
							C47.8,67.4,47.8,67.3,48,67.3z"/>
						<path class="st4" d="M49.4,64.5l0.8,0.7v0.1l0,0h-0.1L49.4,64.5L49.4,64.5L49.4,64.5L49.4,64.5z"/>
						<path class="st4" d="M50.7,63.4l0.7,0.8v0.1l0,0h-0.1L50.7,63.4L50.7,63.4L50.7,63.4C50.6,63.3,50.6,63.3,50.7,63.4z"/>
						<path class="st4" d="M52.2,62.6l0.5,0.9v0.1l0,0h-0.1l-0.7-1.1v-0.1l0,0C52.1,62.5,52.1,62.5,52.2,62.6z"/>
						<path class="st4" d="M53.8,61.9l0.1,0.9c0,0,0,0.1-0.1,0.1l0,0c0,0-0.1,0-0.1-0.1l-0.1-0.9C53.4,61.9,53.7,61.9,53.8,61.9
							L53.8,61.9L53.8,61.9z"/>
					</g>
				</g>
				<g>
					<g>
						<path class="st4" d="M51.8,75.8l0.5-0.9c0,0,0.1-0.1,0.1,0l0,0c0,0,0.1,0.1,0,0.1L51.8,75.8C51.9,75.9,51.8,76.1,51.8,75.8
							L51.8,75.8L51.8,75.8z"/>
						<path class="st4" d="M53.4,76.3l0.1-0.9c0,0,0-0.1,0.1-0.1l0,0c0,0,0.1,0,0.1,0.1v0.9C53.7,76.5,53.7,76.5,53.4,76.3
							L53.4,76.3C53.4,76.5,53.3,76.5,53.4,76.3z"/>
						<path class="st4" d="M50.5,74.9l0.7-0.8h0.1l0,0v0.1L50.6,75L50.5,74.9L50.5,74.9C50.5,75,50.5,75,50.5,74.9z"/>
						<path class="st4" d="M49.2,73.9l0.8-0.7h0.1l0,0v0.1L49.2,73.9L49.2,73.9L49.2,73.9L49.2,73.9z"/>
						<path class="st4" d="M48.4,72.4l0.8-0.5h0.1l0,0V72L48.4,72.4L48.4,72.4L48.4,72.4C48.3,72.4,48.3,72.4,48.4,72.4z"/>
						<path class="st4" d="M47.8,70.7l0.9-0.1c0,0,0.1,0,0.1,0.1l0,0c0,0,0,0.1-0.1,0.1L47.8,71C47.8,71,47.6,71,47.8,70.7
							L47.8,70.7C47.6,70.8,47.6,70.8,47.8,70.7z"/>
					</g>
					<g>
						<path class="st4" d="M61.5,72.4l-0.9-0.5c0,0-0.1-0.1,0-0.1l0,0c0,0,0.1-0.1,0.1,0L61.5,72.4C61.7,72.3,61.8,72.4,61.5,72.4
							L61.5,72.4L61.5,72.4z"/>
						<path class="st4" d="M62.1,70.8l-0.9-0.1c0,0-0.1,0-0.1-0.1l0,0c0,0,0-0.1,0.1-0.1l0.9,0.1C62.2,70.7,62.2,70.7,62.1,70.8
							L62.1,70.8C62.2,70.8,62.2,70.8,62.1,70.8z"/>
						<path class="st4" d="M60.6,73.6L59.8,73v-0.1l0,0h0.1L60.6,73.6L60.6,73.6L60.6,73.6C60.7,73.6,60.7,73.6,60.6,73.6z"/>
						<path class="st4" d="M59.5,74.9l-0.7-0.8v-0.1l0,0H59L59.5,74.9L59.5,74.9L59.5,74.9C59.6,75,59.5,75,59.5,74.9z"/>
						<path class="st4" d="M58,75.8l-0.5-0.9v-0.1l0,0h0.1L58,75.8L58,75.8L58,75.8L58,75.8z"/>
						<path class="st4" d="M56.4,76.3l-0.1-0.9c0,0,0-0.1,0.1-0.1l0,0c0,0,0.1,0,0.1,0.1l0.1,0.9C56.5,76.3,56.5,76.5,56.4,76.3
							L56.4,76.3C56.4,76.5,56.4,76.5,56.4,76.3z"/>
					</g>
				</g>
			</g>
			<path class="st4" d="M59.6,68.7c-1.3,0-2.6,0-3.8,0l0,0c-0.1-0.3-0.4-0.4-0.8-0.4c-0.1,0-0.1,0-0.3,0c-0.7-0.7-1.1-1.1-1.8-1.8
				c-0.3-0.3-0.5-0.5-0.8-0.8c-0.1-0.1-0.1-0.1-0.3,0c-0.3,0-0.3,0.1-0.3,0.3s0,0.3,0.1,0.3c0.8,0.8,1.6,1.6,2.6,2.6l0,0
				c0,0.1,0,0.1,0,0.3c0,0.3,0.1,0.5,0.3,0.7c-0.7,1.1-1.3,2.2-1.9,3.2c0,0,0.1,0,0.1,0.1V73c0.7-0.9,1.1-2.2,1.8-3.1
				c0.1,0,0.1,0,0.3,0c0.3,0,0.7-0.1,0.8-0.5c1.3,0,2.4,0,3.8,0c0,0,0,0,0.1,0s0.3-0.1,0.3-0.3C59.9,68.9,59.8,68.7,59.6,68.7z"/>
		</g>
	</g>
</g>
</svg>
