<?xml version="1.0" encoding="utf-8"?>
<!-- Generator: Adobe Illustrator 22.1.0, SVG Export Plug-In . SVG Version: 6.00 Build 0)  -->
<svg version="1.1" id="Layer_1" xmlns="http://www.w3.org/2000/svg" xmlns:xlink="http://www.w3.org/1999/xlink" x="0px" y="0px"
	 viewBox="0 0 14.8 14.7" style="enable-background:new 0 0 14.8 14.7;" xml:space="preserve">
<style type="text/css">
	.st0{fill:#919499;}
</style>
<g>
	<path class="st0" d="M5.9,6.9C5.1,7.6,4.4,8.4,3.7,9.1c-0.4,0.4-0.8,0.8-1.2,1.2c-0.6,0.6-0.6,1.2,0,1.9c0.1,0.1,0.2,0.2,0.2,0.2
		c0.5,0.5,1.2,0.5,1.7,0c1-1,2-2.1,3.1-3.1C7.6,9.2,7.7,9,7.8,8.9c0.5,0.8,0.4,2-0.3,2.8S6,13.3,5.2,14c-1,0.9-2.4,0.8-3.4-0.1
		c-0.3-0.3-0.6-0.6-0.9-0.9c-0.9-1-1-2.5,0-3.5C1.6,8.7,2.3,8,3.1,7.3S4.8,6.4,5.9,6.9z"/>
	<path class="st0" d="M6.9,5.8C6.5,4.9,6.6,3.7,7.3,3C8,2.2,8.8,1.5,9.6,0.8c1-0.9,2.4-0.9,3.4,0c0.4,0.3,0.7,0.7,1,1
		c0.9,1,0.9,2.5,0,3.5c-0.7,0.7-1.4,1.4-2.1,2.1C11,8.1,9.9,8.3,9,7.8c0.1-0.1,0.2-0.2,0.3-0.3c1-1,2.1-2.1,3.1-3.1
		c0.6-0.6,0.6-1.3,0-1.9c-0.1-0.1-0.2-0.2-0.2-0.2c-0.5-0.5-1.2-0.5-1.7,0C9.3,3.4,8.2,4.5,7.2,5.5C7.1,5.6,7,5.7,6.9,5.8z"/>
	<path class="st0" d="M12.8,12.3c-0.1,0.1-0.2,0.2-0.3,0.3c-0.6-0.6-1.2-1.2-1.8-1.8c0.1-0.1,0.3-0.2,0.4-0.3
		C11.6,11.1,12.2,11.7,12.8,12.3z"/>
	<path class="st0" d="M14.1,9.5C14,9.7,14,9.8,13.9,10c-0.7-0.2-1.4-0.4-2.2-0.6c0-0.2,0.1-0.3,0.1-0.5C12.6,9.1,13.3,9.3,14.1,9.5z
		"/>
	<path class="st0" d="M9.1,11.7c0.2-0.1,0.3-0.1,0.5-0.1c0.2,0.7,0.4,1.4,0.6,2.2C10,13.9,9.9,13.9,9.7,14
		C9.5,13.1,9.3,12.4,9.1,11.7z"/>
	<path class="st0" d="M5.7,2.6C5.5,2.7,5.3,2.7,5.1,2.8C4.9,2,4.8,1.3,4.6,0.6c0.2-0.1,0.3-0.1,0.5-0.2C5.3,1.2,5.5,1.9,5.7,2.6z"/>
	<path class="st0" d="M0.7,4.8c0.1-0.2,0.1-0.3,0.2-0.5C1.6,4.5,2.3,4.7,3,4.9C3,5,2.9,5.2,2.9,5.4C2.2,5.2,1.4,5,0.7,4.8z"/>
	<path class="st0" d="M2,2c0.1-0.1,0.2-0.2,0.3-0.3c0.5,0.5,1,1,1.6,1.6C3.8,3.4,3.7,3.5,3.6,3.6C3,3.1,2.5,2.6,2,2z"/>
</g>
</svg>
