<?xml version="1.0" encoding="utf-8"?>
<!-- Generator: Adobe Illustrator 22.1.0, SVG Export Plug-In . SVG Version: 6.00 Build 0)  -->
<svg version="1.1" id="Layer_1" xmlns="http://www.w3.org/2000/svg" xmlns:xlink="http://www.w3.org/1999/xlink" x="0px" y="0px"
	 viewBox="0 0 14.8 14.7" style="enable-background:new 0 0 14.8 14.7;" xml:space="preserve">
<style type="text/css">
	.st0{fill:#35C4FF;}
</style>
<g>
	<path class="st0" d="M8.9,7.7C9,7.7,9.1,7.6,9.2,7.6c1-1,2-2,3-3c0.6-0.6,0.6-1.3,0-1.9c-0.2-0.2-0.4-0.4-0.7-0.5
		c-0.5-0.2-0.9,0-1.2,0.3c-1,1-2.1,2.1-3.1,3.1C7.1,5.7,7,5.7,6.9,5.8C6.4,5,6.6,3.9,7.2,3.2C8,2.4,8.8,1.6,9.6,0.8
		c0.9-0.8,2.3-0.8,3.2,0.1c0.4,0.3,0.7,0.7,1,1c0.8,1,0.9,2.4,0,3.3c-0.7,0.8-1.4,1.5-2.2,2.2C11,8.1,10.2,8.2,9.3,8
		C9.2,8,9.1,7.9,9,7.9C8.9,7.8,8.9,7.8,8.9,7.7z"/>
	<path class="st0" d="M7.9,8.9c0.4,0.9,0.3,2-0.4,2.7c-0.7,0.7-1.4,1.5-2.2,2.2c-1,0.9-2.5,0.9-3.4,0c-0.3-0.3-0.6-0.6-0.9-0.9
		c-0.9-1-1-2.5,0-3.5C1.6,8.7,2.3,8,3,7.3c0.8-0.7,1.9-0.9,2.8-0.4C5.7,7,5.7,7.1,5.6,7.2c-1,1-2.1,2-3.1,3.1
		c-0.6,0.6-0.6,1.2,0,1.9c0.1,0.1,0.1,0.1,0.2,0.2c0.5,0.5,1.2,0.5,1.7,0c1.1-1.1,2.1-2.2,3.2-3.2C7.7,9,7.8,9,7.9,8.9z"/>
	<path class="st0" d="M5,10.7c-0.4-0.1-0.7-0.2-0.8-0.6C4.1,9.8,4.1,9.5,4.3,9.2c0-0.1,0.1-0.1,0.2-0.2C6,7.5,7.6,6,9.1,4.4
		C9.5,4,10,4,10.4,4.3c0.4,0.4,0.4,0.9,0,1.3C9.4,6.6,8.4,7.5,7.5,8.4c-0.6,0.6-1.2,1.2-1.8,1.8C5.5,10.4,5.2,10.5,5,10.7z"/>
</g>
</svg>
