<?xml version="1.0" encoding="utf-8"?>
<!-- Generator: Adobe Illustrator 21.1.0, SVG Export Plug-In . SVG Version: 6.00 Build 0)  -->
<svg version="1.1" id="Layer_1" xmlns="http://www.w3.org/2000/svg" xmlns:xlink="http://www.w3.org/1999/xlink" x="0px" y="0px"
	 viewBox="0 0 40 40" style="enable-background:new 0 0 40 40;" xml:space="preserve">
<style type="text/css">
	.st0{fill:#939596;}
</style>
<path id="Path_1357" class="st0" d="M33.8,4h-5V2.7c0-0.7-0.5-1.2-1.2-1.2c-0.7,0-1.2,0.5-1.2,1.2c0,0,0,0,0,0v1.2H13.8V2.7
	c0-0.7-0.6-1.2-1.2-1.2c0,0-0.1,0-0.1,0c-0.6,0-1.1,0.4-1.2,1c0,0.1,0,0.1,0,0.2v1.2h-5C2.8,3.9,0.1,6.7,0,10.1v22.2
	c0,3.4,2.7,6.2,6.1,6.2c0,0,0.1,0,0.1,0h27.6c3.4,0.1,6.1-2.6,6.2-5.9c0-0.1,0-0.2,0-0.3V10.1C40,6.7,37.2,4,33.8,4
	C33.8,4,33.8,4,33.8,4z M37.5,32.3c-0.1,2-1.7,3.6-3.7,3.7H6.2c-2-0.1-3.6-1.7-3.7-3.7v-16h35L37.5,32.3z M37.5,13.8h-35v-3.7
	c0.1-2,1.7-3.6,3.7-3.7h5v1.2c0,0.9,0.4,1.3,1.2,1.3c0.6,0,1.1-0.4,1.2-1c0-0.1,0-0.1,0-0.2V6.4h12.4v1.2c0,0.7,0.5,1.2,1.2,1.2
	c0.7,0,1.2-0.5,1.2-1.2V6.4h5c2,0.1,3.6,1.7,3.7,3.7v3.7H37.5z M8.7,32.3c0.7,0,1.3-0.3,1.8-0.7c0.5-0.5,0.7-1.1,0.7-1.8
	c-0.1-0.7-0.3-1.3-0.7-1.8c-0.9-1-2.4-1-3.4-0.1C7.1,27.9,7,28,7,28c-0.5,0.5-0.7,1.1-0.7,1.8C6.3,30.4,6.6,31,7,31.6
	C7.4,32.1,8.1,32.3,8.7,32.3z M8.7,24.9c0.7,0,1.3-0.3,1.8-0.7c0.5-0.5,0.7-1.1,0.7-1.8c-0.1-0.7-0.3-1.3-0.7-1.8
	c-0.9-1-2.4-1-3.4-0.1c0,0-0.1,0.1-0.1,0.1c-0.5,0.5-0.7,1.1-0.7,1.8c0,0.7,0.3,1.3,0.7,1.8C7.4,24.7,8.1,24.9,8.7,24.9z M16.3,32.3
	c1.4,0,2.5-1.1,2.5-2.5c-0.1-0.7-0.3-1.3-0.7-1.8c-0.9-1-2.4-1-3.4-0.1c0,0-0.1,0.1-0.1,0.1c-0.5,0.5-0.7,1.1-0.7,1.8
	c0.1,0.7,0.3,1.3,0.7,1.8C14.9,32.1,15.6,32.4,16.3,32.3L16.3,32.3z M16.3,24.9c1.4,0,2.5-1.1,2.5-2.5c-0.1-0.7-0.3-1.3-0.7-1.8
	c-0.9-1-2.4-1-3.4-0.1c0,0-0.1,0.1-0.1,0.1c-0.5,0.5-0.7,1.1-0.7,1.8c0.1,0.7,0.3,1.3,0.7,1.8C14.9,24.7,15.6,25,16.3,24.9
	L16.3,24.9z M23.7,32.3c0.7,0,1.3-0.3,1.8-0.7c0.5-0.5,0.7-1.1,0.7-1.8c0-0.7-0.3-1.3-0.7-1.8c-0.9-1-2.4-1-3.4-0.1
	c0,0-0.1,0.1-0.1,0.1c-0.5,0.5-0.7,1.1-0.7,1.8c0.1,0.7,0.3,1.3,0.7,1.8C22.4,32.1,23,32.3,23.7,32.3z M23.7,24.9
	c0.7,0,1.3-0.3,1.8-0.7c0.5-0.5,0.7-1.1,0.7-1.8c-0.1-0.7-0.3-1.3-0.7-1.8c-0.9-1-2.4-1-3.4-0.1c0,0-0.1,0.1-0.1,0.1
	c-0.5,0.5-0.7,1.1-0.8,1.8c0.1,0.7,0.3,1.3,0.7,1.8C22.4,24.7,23,24.9,23.7,24.9z M31.3,32.3c1.4,0,2.5-1.1,2.5-2.5
	c-0.1-0.7-0.3-1.3-0.7-1.8c-0.9-1-2.4-1-3.4-0.1c0,0-0.1,0.1-0.1,0.1c-0.5,0.5-0.7,1.1-0.7,1.8c0.1,0.7,0.3,1.3,0.7,1.8
	C29.9,32.1,30.6,32.4,31.3,32.3z M31.3,24.9c0.7,0,1.3-0.3,1.8-0.7c0.5-0.5,0.7-1.1,0.7-1.8c-0.1-0.7-0.3-1.3-0.7-1.8
	c-0.9-1-2.4-1-3.4-0.1c0,0-0.1,0.1-0.1,0.1c-0.5,0.5-0.7,1.1-0.7,1.8c0.1,0.7,0.3,1.3,0.7,1.8C29.9,24.7,30.6,25,31.3,24.9z"/>
</svg>
