<?xml version="1.0" encoding="utf-8"?>
<!-- Generator: Adobe Illustrator 18.0.0, SVG Export Plug-In . SVG Version: 6.00 Build 0)  -->
<!DOCTYPE svg PUBLIC "-//W3C//DTD SVG 1.1//EN" "http://www.w3.org/Graphics/SVG/1.1/DTD/svg11.dtd">
<svg version="1.1" id="Capa_1" xmlns="http://www.w3.org/2000/svg" xmlns:xlink="http://www.w3.org/1999/xlink" x="0px" y="0px"
	 viewBox="-169.8 -169.8 380 380" enable-background="new -169.8 -169.8 380 380" xml:space="preserve">
<g>
	<path fill="#FFFFFF" d="M203.8,124.1H-61.5c-0.4,0-0.8,0.2-1,0.5c-0.3,0.3-0.4,0.7-0.3,1.1c0,0.2,4,24.8,35.1,24.8H170
		c31.1,0,35.1-24.6,35.1-24.8c0.1-0.4-0.1-0.8-0.3-1.1S204.2,124.1,203.8,124.1z M91.1,141.9H51.2v-9.2h39.9V141.9z"/>
	<path fill="#FFFFFF" d="M-34-25.6c-3,0-5.5,2.5-5.5,5.5v129.1c0,3,2.5,5.5,5.5,5.5h210.2c3,0,5.5-2.5,5.5-5.5V-20.1
		c0-3-2.5-5.5-5.5-5.5H-34z M162.5,95.3H-20.2V-6.3h182.7V95.3z"/>
	<path fill="#FFFFFF" d="M-77.7,127.9c-0.7-4.7,0.7-9.5,3.9-13.1c3-3.5,7.6-5.6,12.3-5.6h7.1c0,0,0,0,0-0.1V-20.1
		c0-11.3,9.2-20.5,20.5-20.5h210.2c9.4,0,17.4,6.4,19.7,15.1c0.5,0,1,0,1.4,0c2.5,0,4.9,0.2,7.3,0.4c0.4-2.4,0.6-4.9,0.8-7.3
		c-2.4-44.4-34-75.9-78.4-78.3c-26-1.4-47.7,11.9-61.6,31.3C51.6-97.8,30-109.4,3.8-110.8c-44.3-2.4-76.1,37.6-78.3,78.3
		c-0.2,5.2,0.1,10.3,0.9,15.1c-2.8-0.4-5.6-0.7-8.5-0.8c-47.9-2.6-82.3,40.6-84.7,84.7c-2.4,45,35.6,78.1,76.8,83.9v0.8h24.4
		c-7.6-7.7-11.3-16.8-12.3-23.2L-77.7,127.9z"/>
	<path fill="#FFFFFF" d="M71.2,67.6c-6.5,0-11.7,5.2-11.7,11.7c0,6.5,5.2,11.7,11.7,11.7s11.7-5.2,11.7-11.7
		C82.9,72.8,77.6,67.6,71.2,67.6z"/>
	<path fill="#FFFFFF" d="M13,36.3c1.7,0,3.3-0.7,4.5-2.1c13.4-16,33-25.1,53.7-25.1s40.3,9.2,53.7,25.1c1.2,1.4,2.8,2.1,4.5,2.1
		c1.3,0,2.7-0.4,3.8-1.4c2.5-2.1,2.8-5.8,0.7-8.2C118.2,8,95.3-2.6,71.2-2.6C47-2.6,24.1,8,8.5,26.7c-2.1,2.5-1.8,6.2,0.7,8.2
		C10.3,35.8,11.6,36.3,13,36.3z"/>
	<path fill="#FFFFFF" d="M71.2,44.2c-10.4,0-20.2,4.6-26.9,12.5c-2.1,2.5-1.8,6.2,0.7,8.2c1.1,0.9,2.4,1.4,3.8,1.4
		c1.7,0,3.3-0.7,4.5-2.1c4.5-5.3,11-8.4,17.9-8.4c6.9,0,13.4,3.1,17.9,8.4c1.2,1.4,2.8,2.1,4.5,2.1c1.3,0,2.7-0.4,3.8-1.4
		c2.5-2.1,2.8-5.8,0.7-8.2C91.3,48.7,81.5,44.2,71.2,44.2z"/>
	<path fill="#FFFFFF" d="M71.2,20.8c-17.3,0-33.6,7.6-44.8,20.9c-2.1,2.5-1.8,6.2,0.7,8.2c1.1,0.9,2.4,1.4,3.8,1.4
		c1.7,0,3.3-0.7,4.5-2.1c8.9-10.6,22-16.7,35.8-16.7S98,38.6,107,49.2c1.2,1.4,2.8,2.1,4.5,2.1c1.3,0,2.7-0.4,3.8-1.4
		c2.5-2.1,2.8-5.8,0.7-8.2C104.8,28.4,88.4,20.8,71.2,20.8z"/>
</g>
</svg>
