<?xml version="1.0" encoding="utf-8"?>
<!-- Generator: Adobe Illustrator 19.2.0, SVG Export Plug-In . SVG Version: 6.00 Build 0)  -->
<svg version="1.1" id="Layer_1" xmlns="http://www.w3.org/2000/svg" xmlns:xlink="http://www.w3.org/1999/xlink" x="0px" y="0px"
	 viewBox="0 0 40 40" style="enable-background:new 0 0 40 40;" xml:space="preserve">
<style type="text/css">
	.st0{fill:#EEEEEE;}
</style>
<g>
	<path class="st0" d="M30.7,21c0-0.2-0.1-0.4-0.2-0.5l-1-1c-0.1-0.1-0.3-0.2-0.5-0.2c-0.2,0-0.4,0.1-0.5,0.2l-9.9,9.9l-4.9-4.9
		c-0.1-0.1-0.3-0.2-0.5-0.2c-0.2,0-0.4,0.1-0.5,0.2l-1,1c-0.1,0.1-0.2,0.3-0.2,0.5c0,0.2,0.1,0.4,0.2,0.5l6.4,6.4
		c0.1,0.1,0.3,0.2,0.5,0.2c0.2,0,0.4-0.1,0.5-0.2l11.4-11.4C30.6,21.4,30.7,21.2,30.7,21z M4.3,14.3h31.4v22.9H4.3V14.3z M12.7,10.5
		c-0.1,0.1-0.3,0.2-0.5,0.2h-1.4c-0.2,0-0.4-0.1-0.5-0.2C10.1,10.4,10,10.2,10,10V3.6c0-0.2,0.1-0.4,0.2-0.5
		c0.1-0.1,0.3-0.2,0.5-0.2h1.4c0.2,0,0.4,0.1,0.5,0.2c0.1,0.1,0.2,0.3,0.2,0.5V10C12.9,10.2,12.8,10.4,12.7,10.5z M29.8,10.5
		c-0.1,0.1-0.3,0.2-0.5,0.2h-1.4c-0.2,0-0.4-0.1-0.5-0.2c-0.1-0.1-0.2-0.3-0.2-0.5V3.6c0-0.2,0.1-0.4,0.2-0.5
		c0.1-0.1,0.3-0.2,0.5-0.2h1.4c0.2,0,0.4,0.1,0.5,0.2C29.9,3.2,30,3.4,30,3.6V10C30,10.2,29.9,10.4,29.8,10.5z M37.7,6.6
		c-0.6-0.6-1.2-0.8-2-0.8h-2.9V3.6c0-1-0.3-1.8-1-2.5c-0.7-0.7-1.5-1-2.5-1h-1.4c-1,0-1.8,0.3-2.5,1c-0.7,0.7-1,1.5-1,2.5v2.1h-8.6
		V3.6c0-1-0.3-1.8-1-2.5c-0.7-0.7-1.5-1-2.5-1h-1.4c-1,0-1.8,0.3-2.5,1c-0.7,0.7-1,1.5-1,2.5v2.1H4.3c-0.8,0-1.4,0.3-2,0.8
		c-0.6,0.6-0.8,1.2-0.8,2v28.6c0,0.8,0.3,1.4,0.8,2c0.6,0.6,1.2,0.8,2,0.8h31.4c0.8,0,1.4-0.3,2-0.8c0.6-0.6,0.8-1.2,0.8-2V8.6
		C38.6,7.8,38.3,7.1,37.7,6.6z"/>
</g>
</svg>
