<?xml version="1.0" encoding="utf-8"?>
<!-- Generator: Adobe Illustrator 21.1.0, SVG Export Plug-In . SVG Version: 6.00 Build 0)  -->
<svg version="1.1" id="Layer_1" xmlns="http://www.w3.org/2000/svg" xmlns:xlink="http://www.w3.org/1999/xlink" x="0px" y="0px"
	 viewBox="0 0 40 40" style="enable-background:new 0 0 40 40;" xml:space="preserve">
<style type="text/css">
	.st0{fill:#F15B6A;}
</style>
<g>
	<g>
		<path class="st0" d="M32.6,4.8h-6.8C25.5,2.1,23,0,20,0c-3,0-5.5,2.1-5.8,4.8H7.4c-2.7,0-5,2.1-5,4.6v0.2c0,1.9,1.3,3.6,3.1,4.2
			v21.6c0,2.5,2.2,4.6,5,4.6h18.9c2.7,0,5-2.1,5-4.6V13.8c1.8-0.7,3.1-2.3,3.1-4.2V9.4C37.5,6.8,35.3,4.8,32.6,4.8z M20,2.2
			c1.7,0,3.1,1.1,3.5,2.6h-6.9C16.9,3.3,18.3,2.2,20,2.2z M32.1,35.4c0,1.3-1.2,2.4-2.6,2.4H10.5c-1.4,0-2.6-1.1-2.6-2.4V14.2h24.1
			V35.4z M35.2,9.6c0,1.3-1.2,2.4-2.6,2.4H7.4C6,12,4.8,10.9,4.8,9.6V9.4C4.8,8,6,7,7.4,7h25.2C34,7,35.2,8,35.2,9.4V9.6z
			 M13.7,35.1c0.6,0,1.2-0.5,1.2-1.1V21.8c0-0.6-0.5-1.1-1.2-1.1c-0.6,0-1.2,0.5-1.2,1.1V34C12.5,34.6,13,35.1,13.7,35.1z M20,35.1
			c0.6,0,1.2-0.5,1.2-1.1V21.8c0-0.6-0.5-1.1-1.2-1.1c-0.6,0-1.2,0.5-1.2,1.1V34C18.8,34.6,19.4,35.1,20,35.1z M26.3,35.1
			c0.6,0,1.2-0.5,1.2-1.1V21.8c0-0.6-0.5-1.1-1.2-1.1c-0.6,0-1.2,0.5-1.2,1.1V34C25.1,34.6,25.7,35.1,26.3,35.1z"/>
	</g>
</g>
</svg>
