<?xml version="1.0" encoding="utf-8"?>
<!-- Generator: Adobe Illustrator 21.1.0, SVG Export Plug-In . SVG Version: 6.00 Build 0)  -->
<svg version="1.1" id="Layer_1" xmlns="http://www.w3.org/2000/svg" xmlns:xlink="http://www.w3.org/1999/xlink" x="0px" y="0px"
	 viewBox="0 0 40 40" style="enable-background:new 0 0 40 40;" xml:space="preserve">
<style type="text/css">
	.st0{fill:#35c4ff;}
</style>
<path class="st0" d="M40,6.9c0-1.8-0.7-3.5-1.9-4.7l-0.2-0.2c-2.6-2.6-6.8-2.6-9.4,0L9.7,20.8c-0.2,0.2-0.4,0.6-0.4,0.9l-0.9,8.4
	c0,0.4,0.1,0.9,0.4,1.2c0.3,0.3,0.8,0.5,1.2,0.4l8.4-0.9c0.3,0,0.6-0.2,0.9-0.4l7.2-7.3c0.6-0.6,0.6-1.5,0-2.1
	c-0.6-0.6-1.5-0.6-2.1,0l-6.9,6.9l-6.1,0.7l0.7-6.1L30.6,4c1.4-1.4,3.8-1.4,5.2,0L36,4.2c1.4,1.4,1.4,3.8,0,5.2l-4.6,4.6
	c-0.3,0.3-0.4,0.7-0.4,1l0,21.2c0,0.4-0.3,0.7-0.7,0.7H3.6C3.3,37,3,36.7,3,36.3V9.7C3,9.3,3.3,9,3.6,9h14.2c0.8,0,1.5-0.7,1.5-1.5
	c0-0.8-0.7-1.5-1.5-1.5H3.6C1.6,6,0,7.6,0,9.7v26.7c0,2,1.6,3.7,3.6,3.7h26.6c2,0,3.6-1.6,3.6-3.7l0-20.6l4.1-4.2
	C39.3,10.3,40,8.6,40,6.9L40,6.9z M40,6.9"/>
</svg>
