<svg xmlns="http://www.w3.org/2000/svg" viewBox="0 0 158.449 129.377">
  <defs>
    <style>
      .cls-1 {
        fill: #a4c2f7;
      }

      .cls-2 {
        fill: #e3e7f2;
      }

      .cls-3 {
        fill: #7facfa;
      }

      .cls-4 {
        fill: #fff;
      }

      .cls-5 {
        fill: #428dff;
      }
    </style>
  </defs>
  <g id="Group_1426" data-name="Group 1426" transform="translate(-631 -458)">
    <path id="Path_1586" data-name="Path 1586" class="cls-1" d="M130.527,233.374H12.662a3.979,3.979,0,0,1-3.271-1.736,4.762,4.762,0,0,1-.71-3.871L35.438,148.4a4.225,4.225,0,0,1,3.981-3.3H157.285c2.716,0,3.981,2.8,3.981,5.607L134.509,230.07a4.163,4.163,0,0,1-3.981,3.3Z" transform="translate(625.312 351.165)"/>
    <path id="Path_1587" data-name="Path 1587" class="cls-2" d="M122.121,233.374H12.643a3.956,3.956,0,0,1-3.257-1.736,4.78,4.78,0,0,1-.707-3.871L35.319,148.4a4.211,4.211,0,0,1,3.964-3.3H148.792c2.7,0,3.964,2.8,3.964,5.607l-26.64,79.363a4.208,4.208,0,0,1-3.994,3.3Z" transform="translate(625.312 351.165)"/>
    <path id="Path_1588" data-name="Path 1588" class="cls-3" d="M139.661,26.857H73.744L60.689,8.5H13.025a4.658,4.658,0,0,0-3.21,1.32A4.458,4.458,0,0,0,8.5,13.043v111.92a3.309,3.309,0,0,1,.55.031L35.191,53.44A4.122,4.122,0,0,1,39.135,50.4H144.186V31.369a4.7,4.7,0,0,0-1.315-3.223A4.445,4.445,0,0,0,139.661,26.857Z" transform="translate(625.337 452.337)"/>
    <path id="Path_1589" data-name="Path 1589" class="cls-1" d="M143.145,26.857H79.728L65.475,8.5H13.44a5.335,5.335,0,0,0-3.5,1.32A4.274,4.274,0,0,0,8.5,13.043v111.92a3.94,3.94,0,0,1,.6.031L37.639,53.44A4.452,4.452,0,0,1,41.944,50.4h106.14V31.369a4.5,4.5,0,0,0-1.435-3.223A5.1,5.1,0,0,0,143.145,26.857Z" transform="translate(625.337 452.337)"/>
    <path id="Path_1590" data-name="Path 1590" class="cls-4" d="M22.241,8.5h-1a5.335,5.335,0,0,0-3.5,1.32A4.274,4.274,0,0,0,16.3,13.043v111.92a3.94,3.94,0,0,1,.6.031l5.34-14.335V8.5Z" transform="translate(620.141 452.337)"/>
    <g id="Group_1425" data-name="Group 1425" transform="translate(631 458)">
      <path id="Path_1591" data-name="Path 1591" class="cls-5" d="M124.984,220.321H6.8a6.931,6.931,0,0,1-5.385-2.56,6.314,6.314,0,0,1-1.145-5.656l26.924-70.992a6.742,6.742,0,0,1,6.468-4.614H151.846c3.837,0,6.623,3.185,6.623,7.561a2.672,2.672,0,0,1-.155.863l-26.831,70.783A6.678,6.678,0,0,1,124.984,220.321ZM33.629,141.59a1.514,1.514,0,0,0-1.455,1.072L5.281,213.653a1.4,1.4,0,0,0,.309,1.042,1.486,1.486,0,0,0,1.176.565H124.953a1.45,1.45,0,0,0,1.424-1.072l26.738-70.516c-.062-.685-.309-2.084-1.331-2.084Z" transform="translate(-0.019 -90.945)"/>
      <path id="Path_1592" data-name="Path 1592" class="cls-5" d="M3.16,122.168H2.976l-.46-.031A2.634,2.634,0,0,1,0,119.518V7.179A7.151,7.151,0,0,1,7.148,0H54.972a2.533,2.533,0,0,1,2.117,1.109l12.3,17.316h64.789a7.151,7.151,0,0,1,7.148,7.179v19.1a2.592,2.592,0,0,1-.767,1.849,2.622,2.622,0,0,1-1.841.77H33.315a1.51,1.51,0,0,0-1.442,1.109L5.614,120.473A2.6,2.6,0,0,1,3.16,122.168ZM7.148,5.269a1.9,1.9,0,0,0-1.9,1.91v99.028L26.9,46.834a6.713,6.713,0,0,1,6.411-4.776h102.8V25.6a1.9,1.9,0,0,0-1.9-1.91H68.071a2.533,2.533,0,0,1-2.117-1.109L53.653,5.269Z"/>
    </g>
  </g>
</svg>
