<svg xmlns="http://www.w3.org/2000/svg" viewBox="0 0 28.741 15.736">
  <defs>
    <style>
      .cls-1 {
        fill: #fff;
      }
    </style>
  </defs>
  <path id="Union_50_1_" class="cls-1" d="M4.311,12a24.883,24.883,0,0,1-4.1-3.665.781.781,0,0,1,0-1.078,28.2,28.2,0,0,1,4.1-3.593A17.871,17.871,0,0,1,14.371,0,17.871,17.871,0,0,1,24.43,3.665a24.883,24.883,0,0,1,4.1,3.665.781.781,0,0,1,0,1.078,24.883,24.883,0,0,1-4.1,3.665,17.871,17.871,0,0,1-10.06,3.665C11.137,15.736,7.688,14.371,4.311,12ZM5.317,4.958A25.525,25.525,0,0,0,1.94,7.832a21.629,21.629,0,0,0,3.377,2.874c2.156,1.509,5.461,3.305,9.054,3.305a16.291,16.291,0,0,0,9.054-3.305A25.525,25.525,0,0,0,26.8,7.832a21.629,21.629,0,0,0-3.377-2.874c-2.156-1.509-5.461-3.305-9.054-3.305A16.291,16.291,0,0,0,5.317,4.958ZM9.341,7.832a5,5,0,0,1,5.03-5.03,5.079,5.079,0,0,1,3.305,1.222A.815.815,0,0,1,16.6,5.245a3.343,3.343,0,0,0-2.227-.862,3.5,3.5,0,0,0-3.449,3.449,3.449,3.449,0,1,0,6.9,0,.79.79,0,1,1,1.581,0,5.03,5.03,0,1,1-10.06,0Zm3.377,0a1.671,1.671,0,0,1,1.653-1.653,1.653,1.653,0,0,1,0,3.305,1.671,1.671,0,0,1-1.653-1.653Z"/>
</svg>
