<?xml version="1.0" encoding="utf-8"?>
<!-- Generator: Adobe Illustrator 21.1.0, SVG Export Plug-In . SVG Version: 6.00 Build 0)  -->
<svg version="1.1" id="Layer_1" xmlns="http://www.w3.org/2000/svg" xmlns:xlink="http://www.w3.org/1999/xlink" x="0px" y="0px"
	 viewBox="0 0 40 40" style="enable-background:new 0 0 40 40;" xml:space="preserve">
<style type="text/css">
	.st0{fill:#939596;}
</style>
<path id="Path_419" class="st0" d="M37.9,10.9H2c-1.1,0-2,0.8-2,1.9c0,1.1,0.9,1.9,2,1.9c0,0,0,0,0,0H38c1.1,0,2-0.8,2-1.9
	C39.9,11.8,39,10.9,37.9,10.9z M31.1,18.1H8.8c-1.1,0-2,0.8-2,1.9c0,1.1,0.9,1.9,2,1.9c0,0,0,0,0,0h22.4c1.1,0,2-0.8,2-1.9
	C33.1,18.9,32.2,18.1,31.1,18.1z M24.4,25.2h-8.9c-1.1-0.1-2,0.7-2.1,1.8c-0.1,1.1,0.7,2,1.8,2.1c0.1,0,0.2,0,0.3,0h8.9
	c1.1,0,2-0.8,2.1-1.9C26.4,26.1,25.5,25.2,24.4,25.2z"/>
</svg>
