<?xml version="1.0" encoding="utf-8"?>
<!-- Generator: Adobe Illustrator 18.0.0, SVG Export Plug-In . SVG Version: 6.00 Build 0)  -->
<!DOCTYPE svg PUBLIC "-//W3C//DTD SVG 1.1//EN" "http://www.w3.org/Graphics/SVG/1.1/DTD/svg11.dtd">
<svg version="1.1" id="Layer_1" xmlns="http://www.w3.org/2000/svg" xmlns:xlink="http://www.w3.org/1999/xlink" x="0px" y="0px"
	 viewBox="0 0 23 23" enable-background="new 0 0 23 23" xml:space="preserve">
<path fill="#FFFFFF" stroke="#FFFFFF" stroke-miterlimit="10" d="M4.2,21.9c-0.3,0-0.5-0.2-0.5-0.5V1.6c0-0.3,0.2-0.5,0.5-0.5
	s0.5,0.2,0.5,0.5v0.3h5.6c0.3,0,0.5,0.2,0.5,0.5v0.9h8c0.2,0,0.4,0,0.5,0.2s0.1,0.3,0,0.5l-2.8,3.9l2.8,3.9c0.1,0.2,0.1,0.4,0,0.5
	c-0.1,0.2-0.3,0.3-0.5,0.3H8.6C7.7,12.7,7,12,7,11.1c0-0.2,0-0.3,0.1-0.6H4.6v10.9C4.6,21.7,4.4,21.9,4.2,21.9z M8.6,10.6
	c-0.3,0-0.6,0.3-0.6,0.6s0.3,0.6,0.6,0.6h9.2l-2.5-3.5c-0.1-0.2-0.1-0.4,0-0.6l2.5-3.4h-7V10c0,0.3-0.3,0.5-0.5,0.5H8.6V10.6z
	 M9.8,9.6V2.8H4.6v6.8H9.8z"/>
</svg>
