<?xml version="1.0" encoding="utf-8"?>
<!-- Generator: Adobe Illustrator 22.1.0, SVG Export Plug-In . SVG Version: 6.00 Build 0)  -->
<svg version="1.1" id="Layer_1" xmlns="http://www.w3.org/2000/svg" xmlns:xlink="http://www.w3.org/1999/xlink" x="0px" y="0px"
	 viewBox="0 0 135.1 101.8" style="enable-background:new 0 0 135.1 101.8;" xml:space="preserve">
<style type="text/css">
	.st0{fill:#FFFFFF;}
	.st1{fill:#595959;}
	.st2{fill:#54A3F2;}
</style>
<g>
	<g>
		<rect x="18.6" y="7.2" class="st0" width="85.4" height="68.2"/>
		<g>
			<path class="st1" d="M119.6,91h-45v-8.7h29.9c3.6,0,6.4-2.8,6.4-6.4v-6h9.6c0.6,0,1.2-0.5,1.2-1.2V13.5c0-0.6-0.5-1.2-1.2-1.2
				h-9.6V6.4c0-3.6-2.8-6.4-6.4-6.4H18.1c-3.6,0-6.4,2.8-6.4,6.4v69.1c0,3.6,2.8,6.4,6.4,6.4h30v8.7H3.8c-2.1,0-3.8,1.7-3.8,3.8v7.3
				h123.3v-7.3C123.3,92.6,121.7,91,119.6,91z M116,47.9c1.5,0,2.7,1.3,2.7,2.7s-1.3,2.7-2.7,2.7c-1.5,0-2.7-1.3-2.7-2.7
				C113.2,49.1,114.5,47.9,116,47.9z M116,54.7c1.5,0,2.7,1.3,2.7,2.7c0,1.5-1.3,2.7-2.7,2.7c-1.5,0-2.7-1.3-2.7-2.7
				C113.2,55.8,114.5,54.7,116,54.7z M18.6,75.3V7.2h85.5v68.2L18.6,75.3L18.6,75.3z"/>
			<path class="st1" d="M131.3,18.6h-5.4c-0.6,0-1.2,0.5-1.2,1.2v42.6c0,0.6,0.5,1.2,1.2,1.2h5.4c2.1,0,3.8-1.7,3.8-3.8V22.3
				C135,20.3,133.4,18.6,131.3,18.6z M131.1,38.3c0,0.6-0.5,1.2-1.2,1.2c-0.6,0-1.2-0.5-1.2-1.2v-13c0-0.6,0.5-1.2,1.2-1.2
				c0.6,0,1.2,0.5,1.2,1.2V38.3z"/>
			<circle class="st1" cx="116" cy="57.2" r="1.5"/>
			<circle class="st1" cx="116" cy="50.6" r="1.5"/>
		</g>
	</g>
	<g>
		<path class="st2" d="M57.9,61.8c-3.2,0-3.5-0.3-3.6-0.5s-0.1-0.3-0.1-0.4c-0.4-1.7-0.7-3-1.3-4.1c-1.7-0.6-3.5-1.7-5-2.8
			c-1.3,0.3-2.6,0.6-3.9,1.2h-0.1h-0.3c-0.4,0-0.7,0-2.8-3.5c-1.8-3.3-1.7-3.7-1.7-3.9c0-0.1,0.1-0.3,0.3-0.4
			c1.4-1.3,2.2-2.2,2.8-2.8c-0.3-1-0.3-1.9-0.4-3c0-1.2,0.1-2.2,0.4-3.3c-0.7-0.8-1.7-1.8-2.8-2.8c-0.1-0.1-0.1-0.3-0.3-0.4
			c-0.1-0.3-0.3-0.7,1.7-3.9c1.9-3.5,2.4-3.5,2.8-3.5h0.3l0.1,0.1c1.4,0.5,2.7,0.8,3.9,1.2c1.5-1.3,3.1-2.1,4.9-2.7
			c0.4-1.3,0.7-2.6,1.2-4.1c0-0.1,0.1-0.3,0.1-0.4c0.3-0.3,0.5-0.6,4.2-0.6c0.3,0,0.5,0,0.6,0c3.2,0,3.5,0.3,3.6,0.5
			s0.1,0.3,0.1,0.5l0,0c0.4,1.7,0.7,3,1.3,4.1c1.8,0.6,3.5,1.7,5,2.8c1.3-0.3,2.6-0.6,3.9-1.2l0.1-0.1h0.2c0.4,0,0.7,0,2.8,3.5
			c0.1,0.1,0.1,0.4,0.3,0.5c0.1,0.3,0.4,0.6,0.5,0.8l0.5,1h-9.1l-0.3-0.3c-2.3-2.7-5.8-4.1-9.3-4.1h-0.1c-3.3,0-6.5,1.4-8.8,3.8
			c-2.3,2.3-3.6,5.5-3.6,8.8s1.4,6.4,3.7,8.7c2.3,2.3,5.4,3.6,8.7,3.6h0.1c3.6,0,6.9-1.7,9.3-4.2l0.3-0.3h9l-0.6,1
			c-0.1,0.1-0.1,0.3-0.3,0.4c-0.1,0.3-0.4,0.6-0.6,1c-1.9,3.5-2.3,3.5-2.8,3.5h-0.3l-0.1-0.1c-1.4-0.5-2.7-0.8-3.9-1.2
			c-1.5,1.3-3.1,2.1-4.9,2.7c-0.4,1.3-0.7,2.6-1.2,4.1c0,0.1-0.1,0.3-0.1,0.4C62,61.7,61.8,62,58.2,62
			C58.4,61.8,58.1,61.8,57.9,61.8z"/>
		<g>
			<path class="st2" d="M59.3,42l1.7,2.4l1.7-2.4H59.3z M63.7,39.4l-3.6-5.3h4.7l1.8,2.6l1.8-2.6H73l-4,5.8l3,4.2L79.2,34h4.6
				c0,0-6.8,9.7-8.7,12.4c-0.1,0.3-0.3,0.4-0.5,0.6c0,0-0.1,0.1-0.3,0.1c-3.1,2.3-5.1-0.5-5.3-0.6l-2.3-3.3
				c-0.1,0.1-2.1,3.3-3.2,4.1c-0.8,0.6-3.3,1.5-5.1-1l-9-12.2H54l3.7,5.3L63.7,39.4z"/>
		</g>
		<path class="st2" d="M64.7,34.2H60l3.7,5.3h-6L54,34.2h-4.6L58,46.6c1.7,2.2,3.9,1.7,5.1,1c-0.1-0.3-3.8-5.5-3.8-5.5h6l3.3,4.7
			c2.2,3.2,5,1,5.1,0.8C73.9,47.4,64.7,34.2,64.7,34.2z"/>
	</g>
</g>
</svg>
