<?xml version="1.0" encoding="utf-8"?>
<!-- Generator: Adobe Illustrator 18.0.0, SVG Export Plug-In . SVG Version: 6.00 Build 0)  -->
<!DOCTYPE svg PUBLIC "-//W3C//DTD SVG 1.1//EN" "http://www.w3.org/Graphics/SVG/1.1/DTD/svg11.dtd">
<svg version="1.1" id="Layer_1" xmlns="http://www.w3.org/2000/svg" xmlns:xlink="http://www.w3.org/1999/xlink" x="0px" y="0px"
	 viewBox="0 0 23 23" enable-background="new 0 0 23 23" xml:space="preserve">
<g>
	<g>
		<path fill="#FFFFFF" d="M21.8,9.5l-10-7.4c-0.2-0.1-0.5-0.1-0.6,0l-10,7.4C1,9.7,0.9,10,1.1,10.3c0.2,0.2,0.5,0.3,0.8,0.1l9.6-7.2
			l9.6,7.2c0.1,0.1,0.2,0.1,0.3,0.1c0.2,0,0.3-0.1,0.4-0.2C22.1,10,22,9.7,21.8,9.5z M19.1,10.5c-0.3,0-0.5,0.2-0.5,0.6v8.8h-4.4
			v-4.8c0-1.5-1.2-2.8-2.7-2.8c-1.5,0-2.7,1.2-2.7,2.8v4.8H4.4v-8.8c0-0.3-0.2-0.6-0.5-0.6c-0.3,0-0.5,0.2-0.5,0.6v9.4
			c0,0.3,0.2,0.6,0.5,0.6h5.5c0.3,0,0.5-0.2,0.5-0.5c0,0,0,0,0,0v-5.4c0-0.9,0.7-1.7,1.6-1.7s1.6,0.7,1.6,1.7v5.4c0,0,0,0,0,0
			c0,0.3,0.3,0.5,0.5,0.5h5.5c0.3,0,0.5-0.2,0.5-0.6v-9.4C19.7,10.8,19.4,10.5,19.1,10.5z"/>
	</g>
</g>
</svg>
