<?xml version="1.0" encoding="utf-8"?>
<!-- Generator: Adobe Illustrator 22.0.1, SVG Export Plug-In . SVG Version: 6.00 Build 0)  -->
<svg version="1.1" id="Layer_1" xmlns="http://www.w3.org/2000/svg" xmlns:xlink="http://www.w3.org/1999/xlink" x="0px" y="0px"
	 viewBox="0 0 40 37.8" style="enable-background:new 0 0 40 37.8;" xml:space="preserve">
<style type="text/css">
	.st0{fill:#737680;}
</style>
<path id="Path_1484" class="st0" d="M40,14.3L40,14.3c0-0.3-0.2-0.6-0.4-0.8l-5.7-4V5.2c0-0.5-0.4-1-0.9-1.1c0,0-0.1,0-0.1,0h-6.5
	l-5.7-4c-0.4-0.2-0.9-0.2-1.3,0l-5.7,4H7.2c-0.6,0-1,0.5-1.1,1.1v4.2l-5.7,4C0.2,13.6,0,13.9,0,14.3l0,0v22.5c0,0.2,0.1,0.4,0.2,0.6
	c0.2,0.2,0.5,0.4,0.8,0.4h37.9c0.5,0,1-0.4,1.1-0.9c0,0,0-0.1,0-0.1V14.3z M33.9,11.9l3.4,2.3l-3.4,2.3V11.9z M20,2.3l2.5,1.9h-5.1
	L20,2.3z M8.2,6.3h23.6v11.8L24,23.5L20.6,21l0,0c-0.4-0.2-0.9-0.2-1.3,0l-3.2,2.5l-8-5.5V6.3z M6.1,11.9v4.6l-3.4-2.3L6.1,11.9z
	 M2.1,16.4L14.5,25L2.1,34.7V16.4z M4,35.7l16-12.6l16,12.4L4,35.7z M25.5,25l12.4-8.8v18.5L25.5,25z M13.1,12.4h13.9
	c0.5,0,1-0.4,1.1-0.9c0,0,0-0.1,0-0.1c0-0.5-0.4-1-0.9-1.1c0,0-0.1,0-0.1,0H13.1c-0.5,0-1,0.4-1.1,0.9c0,0,0,0.1,0,0.1
	c0,0.5,0.4,1,0.9,1.1C13,12.4,13,12.4,13.1,12.4z M28,16.8c0-0.5-0.4-1-0.9-1.1c0,0-0.1,0-0.1,0H13.1c-0.6,0-1.1,0.5-1.1,1.1
	c0,0.6,0.5,1.1,1.1,1.1h13.9c0.5,0,1-0.4,1.1-0.9C28,16.9,28,16.8,28,16.8z"/>
</svg>
