<?xml version="1.0" encoding="utf-8"?>
<!-- Generator: Adobe Illustrator 19.2.0, SVG Export Plug-In . SVG Version: 6.00 Build 0)  -->
<svg version="1.1" id="Layer_1" xmlns="http://www.w3.org/2000/svg" xmlns:xlink="http://www.w3.org/1999/xlink" x="0px" y="0px"
	 viewBox="0 0 61 61" style="enable-background:new 0 0 61 61;" xml:space="preserve">
<style type="text/css">
	.st0{fill:#3F9DDD;}
</style>
<g>
	<g>
		<path class="st0" d="M54.4,0.5H6.6c-3.4,0-6.1,2.7-6.1,6.1v34c0,3.4,2.7,6.1,6.1,6.1h4l-1.5,11c-0.1,1,0.4,2,1.3,2.5
			c0.4,0.2,1.6,0.7,2.8-0.2l16.3-13.3h25c3.4,0,6.1-2.7,6.1-6.1v-34C60.5,3.2,57.7,0.5,54.4,0.5z M27.1,41.9c-1.6,0-2.8-1.1-1.6-5.9
			l2.8-12.2c0.3-1.4,0.3-1.9,0-1.9c-0.5,0-2,0.9-3.3,1.9l-0.8-1.5c3.9-3.6,7.9-5.8,9.9-5.8c1.6,0,1.8,2.1,1.1,5.4l-3.1,12.6
			c-0.4,1.6-0.2,2.1,0.2,2.1c0.5,0,1.9-0.8,3.5-2.2l0.9,1.4C32.8,40.2,28.7,41.9,27.1,41.9z M33.2,13.3c-1.9,0-3-1.3-3-3.4
			c0-1.7,1.4-4.1,4.1-4.1c2.1,0,3,1.5,3,3.2C37.4,11.2,35.6,13.3,33.2,13.3z"/>
	</g>
</g>
</svg>
