<?xml version="1.0" encoding="utf-8"?>
<!-- Generator: Adobe Illustrator 19.2.0, SVG Export Plug-In . SVG Version: 6.00 Build 0)  -->
<svg version="1.1" id="Layer_1" xmlns="http://www.w3.org/2000/svg" xmlns:xlink="http://www.w3.org/1999/xlink" x="0px" y="0px"
	 viewBox="0 0 380 380" style="enable-background:new 0 0 380 380;" xml:space="preserve">
<style type="text/css">
	.st0{fill:#484D55;}
</style>
<g>
	<g>
		<path class="st0" d="M379.8,292.6c0,0-0.9-0.9-1.9-0.9H2.5c-0.9,0-0.9,0-1.9,0.9c0,0-0.9,0.9,0,1.9c0,0,5.7,25.6,49.3,25.6h279.7
			c43.6,0,49.3-25.6,49.3-25.6C379.8,293.6,379.8,293.6,379.8,292.6z M218.7,307.8h-56.9v-13.3h56.9V307.8z M41.4,268.9h297.7
			c4.7,0,7.6-3.8,7.6-7.6V67.4c0-4.7-3.8-7.6-7.6-7.6H41.4c-4.7,0-7.6,3.8-7.6,7.6v193.9C33.8,265.2,37.6,268.9,41.4,268.9z
			 M61.3,87.4h258.8v154.1H61.3V87.4z"/>
	</g>
</g>
</svg>
