<svg id="Layer_1" data-name="Layer 1" xmlns="http://www.w3.org/2000/svg" viewBox="0 0 40.06 40.06"><defs><style>.cls-1{fill:#fff;}</style></defs><title>Redirect_White-40</title><path class="cls-1" d="M20,0A20,20,0,1,0,40,20,20,20,0,0,0,20,0Zm0,36.46A16.43,16.43,0,1,1,36.43,20,16.43,16.43,0,0,1,20,36.43Z" transform="translate(0.03 0.03)"/><path class="cls-1" d="M18,28.83a1.49,1.49,0,0,1-1.06-.44L9.85,21.33a1.5,1.5,0,0,1,0-2.12l7.07-7.07a1.5,1.5,0,0,1,2.55,1.06A1.76,1.76,0,0,1,19,14.38L14.52,19H35.09a1.5,1.5,0,0,1,0,3H14.52L19,26.4a1.36,1.36,0,0,1,.44,1,1.42,1.42,0,0,1-.44,1A1.46,1.46,0,0,1,18,28.83Z" transform="translate(0.03 0.03)"/></svg>