<svg xmlns="http://www.w3.org/2000/svg" viewBox="0 0 312.578 367.82">
  <defs>
    <style>
      .cls-1 {
        fill: #bfbfbf;
      }

      .cls-2 {
        fill: #fff;
      }

      .cls-3 {
        fill: #ffcb00;
      }
    </style>
  </defs>
  <g id="Group_1459" data-name="Group 1459" transform="translate(0.02 0.019)">
    <path id="Path_1643" data-name="Path 1643" class="cls-1" d="M272.126,45.257c.578-.449,1.284-1.027,2.247-1.862a10.981,10.981,0,0,1,3.082-1.862,4.468,4.468,0,0,1,1.862-.193,11.921,11.921,0,0,0,3.082-.385,2.731,2.731,0,0,0,1.862-1.413,1.905,1.905,0,0,0-.514-1.027,7.2,7.2,0,0,0-1.862-1.413c-.9-.514-1.541-.963-1.926-1.22-2.055-2.055-3.724-3.082-4.944-3.082a2.624,2.624,0,0,0-2.376,1.541,4.851,4.851,0,0,0-.193,2.7,4.366,4.366,0,0,1-.128,2.568,7.022,7.022,0,0,1-1.22,2.183,7.707,7.707,0,0,0-1.22,1.862c-.128.321.064.9.642,1.734A1.477,1.477,0,0,0,272.126,45.257Z" transform="translate(-96.578 -11.745)"/>
    <path id="Path_1644" data-name="Path 1644" class="cls-2" d="M240.583,304.365c.128-6.1,1.734-10.916,4.752-14.512,2.055-2.44,5.522-3.724,10.467-3.724a11.709,11.709,0,0,1,7.063-10.916,25.986,25.986,0,0,1,14.9-2.183q7.994,1.156,12.329,4.623c0-2.44-3.789-5.33-11.3-8.6.514-2.055,1.027-3.917,1.541-5.651a35.56,35.56,0,0,0,1.027-5.33,37.8,37.8,0,0,1,.642-4.431,20.253,20.253,0,0,0,.128-4.623c-.128-1.991-.193-3.339-.193-3.981a32.824,32.824,0,0,0-.706-4.495c-.514-2.312-.771-3.724-.835-4.238-.064-.449-.385-2.183-1.027-5.137s-.963-4.752-1.156-5.458q-2.023-9.824-9.632-21.19c-5.073-7.513-10.017-12.65-14.769-15.411,3.275,2.761,7.192,8.412,11.687,17.016q17.819,33.23,11.109,57.085c-1.477,5.458-4.944,8.348-10.274,8.6-4.238.578-6.871-.706-7.9-3.789s-1.605-8.8-1.67-17.145a96.2,96.2,0,0,0-2.376-21.961,140.229,140.229,0,0,0-3.981-14.191,59.069,59.069,0,0,0-3.981-9.375,54.2,54.2,0,0,0-3.211-5.009,22.023,22.023,0,0,0-2.7-3.082c-.9-.835-1.413-1.284-1.541-1.413a137.307,137.307,0,0,0-6.357-21.19c-2.312-5.586-4.366-9.439-6.036-11.494a49.448,49.448,0,0,1-4.816-6.806,23.45,23.45,0,0,1-3.082-8.219c-.514-2.89-.128-6.55,1.22-10.98s1.67-7.834.9-10.146-3.789-4.045-9.118-5.137c-2.055-.385-5.073-1.67-9.118-3.724s-6.485-3.146-7.32-3.275c-1.092-.128-1.862-1.926-2.247-5.33a20.231,20.231,0,0,1,1.67-10.467c1.477-3.532,3.981-5.394,7.384-5.522,5.073-.385,8.54,1.67,10.467,6.164s2.183,8.476.835,11.943c-1.477,2.568-1.67,4.431-.385,5.458,1.22,1.027,3.275,1.092,6.164.128,1.8-.514,2.7-3.018,2.7-7.384V102.29a47.929,47.929,0,0,0-2.761-10.274,16.98,16.98,0,0,0-4.3-6.293,21.3,21.3,0,0,0-4.816-3.082,24.981,24.981,0,0,0-5.522-1.541q-21.961,1.637-18.3,27.547,0,3.082-.193,3.082c-1.22-1.22-3.275-1.926-6.036-2.183a28.611,28.611,0,0,0-6.806.128c-1.734.257-2.761-.064-3.211-1.027q.193-11.751-3.275-18.493c-2.312-4.495-5.394-6.871-9.247-7-3.724-.128-6.55,1.734-8.54,5.651a30.776,30.776,0,0,0-3.4,12.2,31.242,31.242,0,0,0,.706,7.577,26.434,26.434,0,0,0,2.7,7.705c1.156,2.119,2.247,3.018,3.211,2.761a5.475,5.475,0,0,0,3.275-2.89c.514-1.22.064-1.8-1.413-1.67-.963,0-1.991-.963-3.211-2.954a15.022,15.022,0,0,1-1.926-6.871,12.045,12.045,0,0,1,1.862-7.577c1.348-2.055,3.724-3.018,7-2.89,2.312,0,4.174,1.413,5.522,4.3a17.862,17.862,0,0,1,1.926,8.027,30.252,30.252,0,0,1-.321,4.495,22.191,22.191,0,0,0-6.357,5.972,16.138,16.138,0,0,1-5.651,4.816c-2.7,1.605-4.11,2.44-4.238,2.568a12.183,12.183,0,0,0-3.211,5.522c-.321,1.8.193,3.018,1.541,3.724a23.922,23.922,0,0,1,5.137,3.981,38.707,38.707,0,0,1,3.275,3.917,8.232,8.232,0,0,0,3.788,2.7,21.892,21.892,0,0,0,7.32,1.348,62.93,62.93,0,0,0,20.933-3.082c.257-.128,1.862-.642,4.752-1.413,2.89-.835,5.265-1.541,7.063-2.119a36.67,36.67,0,0,0,6.036-2.7,10.488,10.488,0,0,0,4.3-3.6c1.22-1.926,2.568-2.44,4.11-1.67a2.625,2.625,0,0,1,1.348,1.734,2.86,2.86,0,0,1-.642,2.44,5.452,5.452,0,0,1-3.4,1.926c-2.761.835-6.614,2.312-11.622,4.431s-8.091,3.467-9.375,3.981c-6.036,2.568-10.788,4.174-14.383,4.687-3.4.706-8.861.578-16.246-.385-1.348-.257-1.991-.128-1.862.385.128.578,1.284,1.862,3.467,3.917,3.4,3.146,8.027,4.687,13.741,4.495a32.415,32.415,0,0,0,7.384-1.413,58.886,58.886,0,0,0,7.384-2.89c2.312-1.092,4.623-2.312,6.871-3.6s4.3-2.44,6.164-3.467a43.772,43.772,0,0,1,5.009-2.44,5.486,5.486,0,0,1,3.6-.514,2.635,2.635,0,0,1,1.734,2.247,2.522,2.522,0,0,1-.193.9,2.362,2.362,0,0,1-.835,1.027,14.81,14.81,0,0,1-1.22.9,15.431,15.431,0,0,1-1.734,1.027c-.771.385-1.348.706-1.862.9s-1.156.578-2.055,1.027a10.885,10.885,0,0,1-1.926.9,91.785,91.785,0,0,0-13.87,9.054,84.677,84.677,0,0,1-13.677,8.861c-3.724,1.8-7.063,1.862-10.081.193-2.89-1.477-7.192-6.485-12.971-15.026-3.018-4.238-4.752-5.715-5.137-4.495a7.519,7.519,0,0,0-.193,2.055,27.576,27.576,0,0,1-3.082,11.622c-2.055,4.3-4.045,8.091-6.036,11.366a35.845,35.845,0,0,0-4.3,11.943,17.332,17.332,0,0,0,2.376,12.971c-3.146.835-7.449,7-12.842,18.493s-8.669,21.126-9.76,28.96c-.257,2.44-.385,7.192-.321,14.191s-.321,11.044-1.156,12.136c-1.092,3.275-3.082,3.467-5.972.642-4.366-4.238-6.871-10.659-7.384-19.328a40.864,40.864,0,0,1,.835-11.494c.578-2.568.449-3.853-.193-3.724l-.835,1.027q-7.416,13.388,2.055,34.1c.706,1.67,2.376,3.6,5.137,5.779s4.366,3.532,4.944,4.11c2.761,3.146,9.889,9.375,21.383,18.557,11.494,9.247,17.851,14.448,19.135,15.732a11.36,11.36,0,0,1,3.6,7.834,12.922,12.922,0,0,1-2.89,8.861c-2.119,2.761-5.265,4.3-9.375,4.688a92.673,92.673,0,0,0,5.972,9.118,36.988,36.988,0,0,1,5.779,11.109c.963,3.339,1.413,8.155,1.413,14.512,6.293-3.275,6.806-9.568,1.413-18.878a19.358,19.358,0,0,0-2.183-3.275c-.9-1.092-1.541-1.926-1.926-2.44-.385-.578-.578-.963-.385-1.22a5.2,5.2,0,0,1,2.7-1.926,3.884,3.884,0,0,1,4.11.514q9.439,10.691,34.1,7.384c18.236-2.055,30.308-8.026,36.344-17.851,3.146-5.2,5.458-7.256,7-6.164,1.67.835,2.312,4.366,2.055,10.659-.128,3.4-1.734,9.7-4.752,18.878-1.22,3.146-1.669,5.715-1.22,7.705.385,1.991,2.055,3.018,4.944,3.211.385-2.633,1.413-7.9,2.954-15.8a142.054,142.054,0,0,0,2.761-18.493c.257-2.89-.193-7.9-1.348-15.09A123.376,123.376,0,0,1,240.583,304.365ZM165.519,115.582q-.963,1.926-1.734,1.926c-.706.128-1.027-.193-1.027-1.027,0-1.605,1.284-2.633,3.917-3.082h2.055A3.746,3.746,0,0,0,165.519,115.582Zm21.062.771c-.578.128-1.348-.321-2.376-1.348a3.315,3.315,0,0,0-3.6-.9q4.912-2.215,6.55.385A1.2,1.2,0,0,1,186.58,116.352Z" transform="translate(-34.019 -29.031)"/>
    <path id="Path_1645" data-name="Path 1645" class="cls-3" d="M110.785,461.121c-1.348-2.7-2.761-5.137-4.11-7.513q-24.85-39.009-34.739-49.7-13.966-15.122-23.181-8.219c-2.312,4.3-3.917,10.017-5.073,16.5a15.471,15.471,0,0,1-7.641,11.687c-4.366,2.761-10.081,3.789-17.016,3.082-4.687-.385-7.577.257-8.861,2.055-1.8,2.055-1.477,5.972,1.027,11.687a28.9,28.9,0,0,0,1.67,3.724c.835,1.605,1.413,2.89,1.734,3.66a18.888,18.888,0,0,1,.9,3.467,17.6,17.6,0,0,1,.193,4.495c0,2.055-1.156,5.394-3.467,10.081-2.312,4.623-3.275,7.962-2.89,9.889.385,2.312,2.954,4.11,7.577,5.33,2.761.835,8.54,2.055,17.337,3.789,8.861,1.734,15.668,3.082,20.419,4.238,3.275.835,8.348,2.312,15.218,4.495s12.521,3.789,16.952,4.752a34.835,34.835,0,0,0,11.43.835c5.908-.835,10.274-2.761,13.228-5.715a15.44,15.44,0,0,0,4.752-9.889,38.043,38.043,0,0,0-1.541-12.008A58.362,58.362,0,0,0,110.785,461.121Z" transform="translate(-3.237 -140.838)"/>
    <path id="Path_1646" data-name="Path 1646" class="cls-2" d="M194.71,118.25a.576.576,0,0,0,.642-.642,10.876,10.876,0,0,0-.514-6.164c-.771-1.8-1.541-2.825-2.376-3.082-1.22-.257-1.862.193-1.862,1.413a1.844,1.844,0,0,0,1.027,1.22c1.348,0,1.862,1.027,1.413,3.082C192.655,116.9,193.168,118.25,194.71,118.25Z" transform="translate(-68.219 -38.762)"/>
    <path id="Path_1647" data-name="Path 1647" class="cls-3" d="M420.917,453.5a48.6,48.6,0,0,0-10.595-4.816c-4.495-1.477-7.9-4.816-10.146-9.889a33.493,33.493,0,0,1-3.082-13.677v.064a77.563,77.563,0,0,0-3.4-19.135,4.561,4.561,0,0,1-1.156.514c-1.348.257-2.954,1.605-4.816,3.917s-3.724,4.752-5.522,7.32a25.587,25.587,0,0,1-8.348,6.871,24.055,24.055,0,0,1-12.521,2.89,26.909,26.909,0,0,1-6.485-1.027,9.937,9.937,0,0,1-4.623-2.761,30.328,30.328,0,0,1-2.761-3.211,26.762,26.762,0,0,1-2.376-4.238c-.963-1.991-1.541-3.339-1.862-3.981-3.018-5.073-5.843-7.128-8.412-6.164-2.633.963-4.495,4.3-5.779,10.081-1.22,5.779-.771,12.393,1.413,19.906q4.142,14.351.193,40.068c-1.348,8.926-.128,15.8,3.724,20.612a16.959,16.959,0,0,0,14.961,6.806c6.164-.321,12.008-2.761,17.466-7.32,8.091-6.742,14.191-11.237,18.365-13.677,4.174-2.376,11.237-5.33,21.254-8.733q10.884-3.66,15.8-7.513c3.275-2.5,4.559-4.88,3.789-7.063A11.113,11.113,0,0,0,420.917,453.5Z" transform="translate(-117.522 -145.284)"/>
    <path id="Path_1648" data-name="Path 1648" class="cls-1" d="M320.263,185.987a2.86,2.86,0,0,0,2.954-1.67,5.629,5.629,0,0,0,.706-4.11,4.1,4.1,0,0,0-1.348-2.376,6.23,6.23,0,0,0-2.7-1.027,6.794,6.794,0,0,1-2.954-1.156,6.684,6.684,0,0,1-1.926-1.67,20.953,20.953,0,0,1-1.413-1.605q-.482-.578-1.156-1.348a4.711,4.711,0,0,0-.835-.835c-.128-.064-.385.064-.835.321-1.926,2.183-1.413,5.137,1.413,8.925C315.126,183.29,317.759,185.473,320.263,185.987Z" transform="translate(-110.811 -60.909)"/>
    <path id="Path_1649" data-name="Path 1649" class="cls-2" d="M116.376,283.587c.514.128,1.413-.321,2.568-1.413a10.491,10.491,0,0,0,2.568-3.724c.128-.385.257-.9.385-1.413a6.925,6.925,0,0,1,.385-1.22,3.384,3.384,0,0,0,.321-.963,4.42,4.42,0,0,0,.128-.835v-.642a.729.729,0,0,0-.193-.514,1.854,1.854,0,0,0-.642-.385.963.963,0,0,0-1.22.642,18.5,18.5,0,0,0-.9,2.568,9.381,9.381,0,0,1-1.156,2.761,16.628,16.628,0,0,1-2.055,2.7C115.605,282.5,115.541,283.331,116.376,283.587Z" transform="translate(-41.448 -97.508)"/>
    <path id="Path_1650" data-name="Path 1650" class="cls-2" d="M267.8,107.142c-.835-.514-1.413-.771-1.862-.578-1.926.128-2.376.578-1.413,1.413.257.128.514.257.835.385,1.926.578,3.146,2.7,3.724,6.357,0,.385.578.257,1.669-.385l.385-.578a7.36,7.36,0,0,0-1.027-3.981A7.967,7.967,0,0,0,267.8,107.142Z" transform="translate(-94.5 -38.121)"/>
    <path id="Path_1651" data-name="Path 1651" class="cls-3" d="M249.761,157.319c-31.079,18.814-58.69,26.52-77.119,4.238L165.9,123.8c2.055,12.136,7.834,16.053,15.86,9.054,0-2.055,4.174-7,21.254-9.054,9.76,2.633,24.85,9.889,46.746,10.338Z" transform="translate(-59.379 -44.312)"/>
    <g id="Group_1458" data-name="Group 1458" transform="translate(-0.02 -0.019)">
      <path id="Path_1652" data-name="Path 1652" d="M200.5,134.582c0,.835.321,1.156,1.027,1.027q.867,0,1.734-1.926a3.83,3.83,0,0,1,3.211-2.183h-2.055C201.784,131.885,200.5,132.913,200.5,134.582Z" transform="translate(-71.742 -47.049)"/>
      <path id="Path_1653" data-name="Path 1653" d="M228.3,131.832a3.433,3.433,0,0,1,3.6.9c1.027,1.027,1.8,1.477,2.376,1.348a1.239,1.239,0,0,0,.642-1.862C233.758,130.484,231.575,130.355,228.3,131.832Z" transform="translate(-81.691 -46.803)"/>
      <path id="Path_1654" data-name="Path 1654" d="M312.513,313.091a9.132,9.132,0,0,0-2.44-4.944,24.366,24.366,0,0,0-6.357-5.009c-.385-.257-1.541-.9-3.4-1.926a48.861,48.861,0,0,1-4.431-2.7,33.2,33.2,0,0,1-4.3-3.917,23.687,23.687,0,0,1-4.238-5.843,42.886,42.886,0,0,1-2.954-8.283,52.759,52.759,0,0,1-1.67-11.622h0c-1.541-5.843-2.376-9.311-3.467-12.714a37.989,37.989,0,0,0,2.247-10.788,73.275,73.275,0,0,0-1.027-17.337c-2.055-11.943-6.1-24.979-12.2-39.234s-12.907-25.364-20.419-33.454q-20.323-21.575-27.29-44.756Q213.338,86.1,214.4,66.581c.706-9.311-1.348-19.392-6.036-30.308-4.752-10.916-10.98-19.2-18.814-24.979a53.685,53.685,0,0,0-18.3-8.54A76.733,76.733,0,0,0,149.479-.007c-8.925,0-16.053,1.413-21.383,4.3q-16.47,8.861-21.768,21.447c-3.532,8.412-5.2,18.814-4.944,31.143q.867,40.646,3.275,63.7-2.89,10.691-25.492,40.068a50.706,50.706,0,0,0-8.027,11.109,110.784,110.784,0,0,0-6.164,12.521c-1.541,3.724-3.532,9.054-6.036,16.053s-4.366,11.943-5.458,14.769a53.676,53.676,0,0,1-4.495,8.6,57.188,57.188,0,0,0-4.944,9.632A32.439,32.439,0,0,0,41.988,244S40,254.723,39.419,261.529c0-.064-.064-.193-.064-.257,0,4.687-.835,8.155-2.44,10.467-1.67,2.312-4.495,4.688-8.6,7.192-2.312,1.348-6.421,2.183-12.329,2.44s-9.76,1.22-11.687,2.89a7.67,7.67,0,0,0-2.183,5.522,27.932,27.932,0,0,0,.9,7.513c.706,2.5,1.348,5.458,2.055,8.733a31.371,31.371,0,0,1,.835,8.219c-.128,1.477-1.348,5.265-3.724,11.173C-.136,331.392-.649,335.951.763,339.1a10.137,10.137,0,0,0,3.467,3.981,23.136,23.136,0,0,0,6.871,2.954q4.431,1.252,8.091,1.926c2.44.449,5.908,1.092,10.274,1.862s7.9,1.413,10.467,1.926a223.349,223.349,0,0,1,29.987,8.8c11.237,4.11,18.814,6.229,22.8,6.357a22.481,22.481,0,0,0,10.98-2.376,40.511,40.511,0,0,0,8.925-5.843q3.66-3.275,10.98-6.164a46.664,46.664,0,0,1,16.31-3.082c2.761-.128,6.678-.321,11.879-.514s9.118-.321,11.687-.321c11.751,0,20.676.064,26.712.193a23.574,23.574,0,0,1,9.632,1.926c2.312,1.156,3.853,2.5,4.495,3.981a27.1,27.1,0,0,0,3.4,5.2,17.3,17.3,0,0,0,6.036,4.816,36.271,36.271,0,0,0,18.3,2.954c7-.449,11.622-1.8,14-3.981a200.57,200.57,0,0,1,15.475-13.163,102.526,102.526,0,0,1,17.594-11.494c1.092-.578,2.954-1.413,5.522-2.7,2.568-1.22,4.816-2.312,6.55-3.211,1.8-.9,3.917-1.991,6.485-3.4a56.526,56.526,0,0,0,6.164-3.789c1.541-1.156,3.211-2.5,4.816-3.981a11.324,11.324,0,0,0,3.211-4.495A8.071,8.071,0,0,0,312.513,313.091Zm-112.5-203.424c.385-.257.706-.385.835-.321a4.524,4.524,0,0,1,.835.835l1.156,1.348c.321.385.835.963,1.413,1.605a11.169,11.169,0,0,0,1.926,1.67,8.125,8.125,0,0,0,2.954,1.156,6.579,6.579,0,0,1,2.7,1.027,3.9,3.9,0,0,1,1.348,2.376,6.023,6.023,0,0,1-.706,4.11,3,3,0,0,1-2.954,1.67c-2.44-.578-5.137-2.7-8.027-6.485C198.537,114.869,198.087,111.851,200.014,109.668ZM173.3,31.714a13.677,13.677,0,0,1,1.22-1.862,5.892,5.892,0,0,0,1.22-2.183,4.96,4.96,0,0,0,.128-2.568,4.851,4.851,0,0,1,.193-2.7,2.551,2.551,0,0,1,2.376-1.541c1.22,0,2.89,1.027,4.944,3.082.385.257,1.092.706,1.926,1.22a11.3,11.3,0,0,1,1.862,1.413,1.905,1.905,0,0,1,.514,1.027,2.449,2.449,0,0,1-1.862,1.413,11.921,11.921,0,0,1-3.082.385,4.468,4.468,0,0,0-1.862.193,9.66,9.66,0,0,0-3.082,1.862c-.963.835-1.734,1.413-2.247,1.862a1.35,1.35,0,0,1-1.67,0A1.9,1.9,0,0,1,173.3,31.714ZM75.121,183.64a16.627,16.627,0,0,0,2.055-2.7,14.883,14.883,0,0,0,1.156-2.761,18.507,18.507,0,0,1,.9-2.568.989.989,0,0,1,1.22-.642,5.646,5.646,0,0,1,.642.385.729.729,0,0,1,.193.514v.642a6.744,6.744,0,0,1-.128.835,4.241,4.241,0,0,1-.321.963,6.925,6.925,0,0,0-.385,1.22,13.984,13.984,0,0,1-.385,1.413,11.089,11.089,0,0,1-2.568,3.724c-1.156,1.092-2.055,1.605-2.568,1.413C74.094,185.823,74.158,184.988,75.121,183.64Zm37.885,159.374a15.272,15.272,0,0,1-4.752,9.889c-2.954,3.018-7.384,4.944-13.228,5.715a35.043,35.043,0,0,1-11.43-.835c-4.431-.963-10.081-2.5-16.952-4.752-6.871-2.183-11.879-3.724-15.218-4.495Q44.2,346.9,31.007,344.3c-8.861-1.734-14.64-2.954-17.337-3.789-4.687-1.22-7.192-3.018-7.577-5.33-.385-1.926.578-5.2,2.89-9.889s3.467-8.027,3.467-10.081a17.6,17.6,0,0,0-.193-4.495,16.4,16.4,0,0,0-.9-3.467,39.542,39.542,0,0,0-1.734-3.66c-.835-1.67-1.348-2.89-1.67-3.724-2.44-5.779-2.825-9.632-1.027-11.687,1.22-1.8,4.174-2.44,8.861-2.055,7,.706,12.65-.321,17.016-3.082a15.3,15.3,0,0,0,7.641-11.687c1.22-6.421,2.761-12.136,5.073-16.5q9.247-6.935,23.181,8.219,9.824,10.691,34.739,49.7c1.348,2.312,2.761,4.816,4.11,7.513a59.309,59.309,0,0,1,3.917,10.659A38.422,38.422,0,0,1,113.006,343.014Zm96.447-32.684a154.25,154.25,0,0,1-2.761,18.493c-1.605,7.962-2.568,13.228-2.954,15.8-2.89-.128-4.495-1.22-4.944-3.211-.385-1.991,0-4.559,1.22-7.705,3.018-9.182,4.559-15.475,4.752-18.878.257-6.293-.385-9.889-2.055-10.659-1.541-1.092-3.853.963-7,6.164-6.036,9.889-18.172,15.8-36.344,17.851q-24.657,3.275-34.1-7.384a3.884,3.884,0,0,0-4.11-.514,6.919,6.919,0,0,0-2.7,1.926c-.128.257,0,.706.385,1.22.385.578,1.092,1.348,1.926,2.44a19.357,19.357,0,0,1,2.183,3.275c5.33,9.311,4.88,15.6-1.413,18.878a59.313,59.313,0,0,0-1.413-14.512,37.746,37.746,0,0,0-5.779-11.109,92.673,92.673,0,0,1-5.972-9.118,13.024,13.024,0,0,0,9.375-4.687,12.822,12.822,0,0,0,2.89-8.861,11.36,11.36,0,0,0-3.6-7.834c-1.22-1.22-7.577-6.485-19.135-15.732Q80.675,262.3,76.534,257.612c-.578-.578-2.183-1.926-4.944-4.11s-4.431-4.11-5.137-5.779q-9.439-20.708-2.055-34.1l.835-1.027c.706-.128.771,1.092.193,3.724a40.864,40.864,0,0,0-.835,11.494c.578,8.6,3.018,15.09,7.384,19.328,2.89,2.89,4.88,2.7,5.972-.642q1.252-1.637,1.156-12.136a130.309,130.309,0,0,1,.321-14.191q1.637-11.751,9.76-28.96c5.394-11.494,9.7-17.658,12.842-18.493a17.629,17.629,0,0,1-2.376-12.971,36.923,36.923,0,0,1,4.3-11.943c1.991-3.275,3.981-7.063,6.036-11.366a27.343,27.343,0,0,0,3.082-11.622,7.519,7.519,0,0,1,.193-2.055c.385-1.22,2.119.257,5.137,4.495,5.779,8.476,10.081,13.485,12.971,15.026,3.018,1.67,6.357,1.605,10.081-.193a87.572,87.572,0,0,0,13.677-8.861A91.784,91.784,0,0,1,169,124.179a14.406,14.406,0,0,0,1.926-.9c.9-.449,1.541-.835,2.055-1.027.449-.193,1.092-.514,1.862-.9a15.428,15.428,0,0,0,1.734-1.027,14.812,14.812,0,0,0,1.22-.9,2.943,2.943,0,0,0,.835-1.027,2.521,2.521,0,0,0,.193-.9,2.635,2.635,0,0,0-1.734-2.247,5.486,5.486,0,0,0-3.6.514,44.155,44.155,0,0,0-5.009,2.44q-2.793,1.541-6.164,3.467c-2.247,1.284-4.559,2.5-6.871,3.6a63.035,63.035,0,0,1-7.384,2.89,29.806,29.806,0,0,1-7.384,1.413c-5.779.128-10.338-1.348-13.741-4.495-2.183-2.055-3.339-3.339-3.467-3.917s.449-.642,1.862-.385c7.384.963,12.778,1.092,16.246.385a67.026,67.026,0,0,0,14.384-4.687c1.22-.578,4.366-1.862,9.375-3.981s8.861-3.6,11.622-4.431a5.451,5.451,0,0,0,3.4-1.926,2.905,2.905,0,0,0,.642-2.44,2.625,2.625,0,0,0-1.348-1.734c-1.541-.835-2.89-.257-4.11,1.67a10.488,10.488,0,0,1-4.3,3.6,46.587,46.587,0,0,1-6.036,2.7c-1.862.578-4.238,1.348-7.063,2.119-2.89.835-4.431,1.284-4.752,1.413a62.931,62.931,0,0,1-20.933,3.082,21.891,21.891,0,0,1-7.32-1.348,7.9,7.9,0,0,1-3.789-2.7,38.705,38.705,0,0,0-3.275-3.917,22.443,22.443,0,0,0-5.137-3.981c-1.348-.706-1.862-1.926-1.541-3.724a11.339,11.339,0,0,1,3.211-5.522c.128-.128,1.541-.963,4.238-2.568a16.825,16.825,0,0,0,5.651-4.816,22.191,22.191,0,0,1,6.357-5.972,31.179,31.179,0,0,0,.321-4.495,18.054,18.054,0,0,0-1.926-8.027c-1.348-2.89-3.211-4.3-5.522-4.3-3.275-.128-5.586.835-7,2.89a12.47,12.47,0,0,0-1.862,7.577,14.8,14.8,0,0,0,1.926,6.871c1.156,1.991,2.247,2.954,3.211,2.954,1.477-.128,1.991.385,1.413,1.67a5.921,5.921,0,0,1-3.275,2.89c-.963.257-1.991-.642-3.211-2.761a28.452,28.452,0,0,1-2.7-7.705,28.314,28.314,0,0,1-.706-7.577,30.776,30.776,0,0,1,3.4-12.2c1.991-3.917,4.816-5.779,8.54-5.651,3.853.128,6.935,2.44,9.247,7q3.467,6.742,3.275,18.493c.385.963,1.477,1.284,3.211,1.027a32.491,32.491,0,0,1,6.806-.128c2.825.193,4.816.9,6.036,2.183q.193,0,.193-3.082c-2.44-17.273,3.6-26.455,18.3-27.547a24.981,24.981,0,0,1,5.522,1.541,21.3,21.3,0,0,1,4.816,3.082,15.785,15.785,0,0,1,4.3,6.293,47.929,47.929,0,0,1,2.761,10.274v7.577c0,4.366-.9,6.871-2.7,7.384-2.89.963-4.944.9-6.164-.128s-1.092-2.825.385-5.458c1.348-3.4,1.092-7.384-.835-11.943-1.926-4.495-5.394-6.55-10.467-6.164-3.4.128-5.908,1.991-7.384,5.522a20.231,20.231,0,0,0-1.67,10.467c.385,3.4,1.156,5.2,2.247,5.33q1.252.193,7.32,3.275a42.7,42.7,0,0,0,9.118,3.724c5.33,1.092,8.412,2.825,9.118,5.137.771,2.312.449,5.715-.9,10.146s-1.8,8.091-1.22,10.98a23.449,23.449,0,0,0,3.082,8.219,53.685,53.685,0,0,0,4.816,6.806c1.734,2.055,3.724,5.908,6.036,11.494a133.06,133.06,0,0,1,6.357,21.19c.128.128.642.578,1.541,1.413a22.025,22.025,0,0,1,2.7,3.082c.9,1.22,1.926,2.89,3.211,5.009a56.543,56.543,0,0,1,3.981,9.375,140.236,140.236,0,0,1,3.981,14.191,99.95,99.95,0,0,1,2.376,21.961c.064,8.348.642,14.062,1.67,17.145s3.66,4.366,7.9,3.789c5.33-.257,8.733-3.146,10.274-8.6q6.742-23.791-11.109-57.085c-4.495-8.6-8.412-14.319-11.687-17.016,4.816,2.761,9.7,7.9,14.769,15.411s8.283,14.576,9.632,21.19c.128.706.514,2.5,1.156,5.458s.963,4.687,1.027,5.137.321,1.862.835,4.238a34.371,34.371,0,0,1,.706,4.495c0,.706.064,1.991.193,3.981a17.107,17.107,0,0,1-.128,4.623c-.193,1.092-.385,2.568-.642,4.431a35.561,35.561,0,0,1-1.027,5.33c-.514,1.734-.963,3.6-1.541,5.651,7.513,3.275,11.3,6.164,11.3,8.6q-4.334-3.467-12.329-4.623a25.543,25.543,0,0,0-14.9,2.183A11.645,11.645,0,0,0,221.91,257.1c-4.944,0-8.412,1.22-10.467,3.724-3.018,3.532-4.559,8.412-4.752,14.512a111.087,111.087,0,0,0,1.541,19.906C209.26,302.432,209.71,307.441,209.453,310.33ZM123.408,72.3a2.018,2.018,0,0,1-1.027-1.22c0-1.22.642-1.734,1.862-1.413.835.257,1.605,1.284,2.376,3.082a10.876,10.876,0,0,1,.514,6.164.576.576,0,0,1-.642.642c-1.477,0-2.055-1.348-1.67-4.11C125.206,73.324,124.757,72.3,123.408,72.3Zm53.168,3.275-.385.578c-1.092.706-1.67.835-1.67.385-.578-3.724-1.8-5.843-3.724-6.357-.257-.128-.578-.257-.835-.385-.963-.835-.514-1.284,1.413-1.413a2.59,2.59,0,0,1,1.862.578,8.179,8.179,0,0,1,2.247,2.568A7.369,7.369,0,0,1,176.576,75.571ZM304.743,321.118q-4.912,3.756-15.8,7.513c-10.017,3.4-17.08,6.357-21.254,8.733s-10.274,6.935-18.365,13.677c-5.458,4.495-11.3,6.935-17.466,7.32a16.822,16.822,0,0,1-14.961-6.806c-3.853-4.88-5.073-11.751-3.724-20.612q3.853-25.621-.193-40.068c-2.183-7.513-2.7-14.191-1.413-19.906,1.22-5.779,3.146-9.118,5.779-10.081,2.568-.963,5.394,1.092,8.412,6.164.257.706.9,1.991,1.862,3.981A26.757,26.757,0,0,0,230,275.271c.642.835,1.541,1.862,2.761,3.211a9.937,9.937,0,0,0,4.623,2.761,26.392,26.392,0,0,0,6.485,1.027,23.908,23.908,0,0,0,12.521-2.89,25.587,25.587,0,0,0,8.348-6.871c1.862-2.5,3.724-4.944,5.522-7.32,1.862-2.312,3.467-3.6,4.816-3.917a3.056,3.056,0,0,0,1.156-.514,74.687,74.687,0,0,1,3.4,19.135v-.064a33.722,33.722,0,0,0,3.082,13.677c2.247,5.073,5.651,8.348,10.145,9.889a55.547,55.547,0,0,1,10.6,4.816,11.811,11.811,0,0,1,5.137,5.843C309.3,316.238,308.018,318.614,304.743,321.118Z" transform="translate(0.02 0.019)"/>
    </g>
  </g>
</svg>
