<?xml version="1.0" encoding="utf-8"?>
<!-- Generator: Adobe Illustrator 19.2.0, SVG Export Plug-In . SVG Version: 6.00 Build 0)  -->
<svg version="1.1" id="Layer_1" xmlns="http://www.w3.org/2000/svg" xmlns:xlink="http://www.w3.org/1999/xlink" x="0px" y="0px"
	 viewBox="0 0 40 40" style="enable-background:new 0 0 40 40;" xml:space="preserve">
<style type="text/css">
	.st0{fill:#636A75;}
</style>
<g>
	<g>
		<path class="st0" d="M37.5,26.1c0.3-1.3,0.5-2.7,0.5-4c0-6.3-3.2-12-8.5-15.3c-0.3-0.2-0.8-0.1-1,0.2c-0.2,0.3-0.1,0.7,0.2,0.9
			c4.9,3,7.9,8.3,7.9,14.1c0,1.2-0.1,2.4-0.4,3.5c-0.3-0.1-0.6-0.1-1-0.1c-2.7,0-4.8,2.2-4.8,4.8c0,2.7,2.2,4.8,4.8,4.8
			c2.7,0,4.8-2.2,4.8-4.8C40,28.5,39,26.9,37.5,26.1L37.5,26.1z M35.2,33.8c-1.9,0-3.4-1.5-3.4-3.4c0-1.9,1.5-3.4,3.4-3.4
			c1.9,0,3.4,1.5,3.4,3.4C38.6,32.2,37.1,33.8,35.2,33.8L35.2,33.8z M35.2,33.8"/>
		<path class="st0" d="M26.3,37.4c-2,0.8-4.1,1.3-6.3,1.3c-4.4,0-8.6-1.8-11.7-4.9c0.9-0.9,1.4-2.1,1.4-3.4c0-2.7-2.2-4.8-4.8-4.8
			c-2.7,0-4.8,2.2-4.8,4.8c0,2.7,2.2,4.8,4.8,4.8c0.8,0,1.6-0.2,2.3-0.6C10.5,38,15.2,40,20,40c2.4,0,4.7-0.5,6.9-1.4
			c0.4-0.1,0.5-0.5,0.4-0.9C27.1,37.4,26.7,37.2,26.3,37.4L26.3,37.4z M1.4,30.3c0-1.9,1.5-3.4,3.4-3.4c1.9,0,3.4,1.5,3.4,3.4
			c0,1.9-1.5,3.4-3.4,3.4C2.9,33.8,1.4,32.2,1.4,30.3L1.4,30.3z M1.4,30.3"/>
		<path class="st0" d="M2.8,21.5C2.8,21.5,2.8,21.5,2.8,21.5c0.4,0,0.7-0.3,0.7-0.6C4,13.9,8.7,8.1,15.4,6.2c0.6,2,2.4,3.5,4.6,3.5
			c2.7,0,4.8-2.2,4.8-4.8C24.8,2.2,22.7,0,20,0c-2.7,0-4.8,2.2-4.8,4.8c-7.3,2-12.5,8.4-13.1,16C2.1,21.2,2.4,21.5,2.8,21.5
			L2.8,21.5z M20,1.4c1.9,0,3.4,1.5,3.4,3.4c0,1.9-1.5,3.4-3.4,3.4c-1.9,0-3.4-1.5-3.4-3.4C16.6,2.9,18.1,1.4,20,1.4L20,1.4z
			 M20,1.4"/>
	</g>
	<g>
		<path class="st0" d="M28.5,21l-1.3-0.2c-0.1-0.4-0.3-0.9-0.5-1.3l0.8-1.1c0.3-0.5,0.3-1.1-0.1-1.5l-1.2-1.2
			c-0.2-0.2-0.5-0.3-0.8-0.3c-0.2,0-0.5,0.1-0.7,0.2l-1.1,0.8c-0.4-0.2-0.9-0.4-1.3-0.6L22,14.5c-0.1-0.6-0.6-1-1.2-1h-1.7
			c-0.6,0-1.1,0.4-1.2,1l-0.2,1.4c-0.4,0.1-0.9,0.3-1.3,0.5l-1.1-0.8c-0.2-0.1-0.4-0.2-0.7-0.2c-0.3,0-0.6,0.1-0.8,0.3l-1.2,1.2
			c-0.4,0.4-0.5,1-0.1,1.5l0.8,1.1c-0.2,0.4-0.4,0.9-0.5,1.3l-1.3,0.2c-0.6,0.1-1,0.6-1,1.2v1.7c0,0.6,0.4,1.1,1,1.2l1.4,0.2
			c0.1,0.4,0.3,0.9,0.5,1.3l-0.8,1.1c-0.3,0.5-0.3,1.1,0.1,1.5l1.2,1.2c0.2,0.2,0.5,0.3,0.8,0.3c0.2,0,0.5-0.1,0.7-0.2l1.1-0.8
			c0.4,0.2,0.8,0.4,1.3,0.5l0.2,1.3c0.1,0.6,0.6,1,1.2,1h1.7c0.6,0,1.1-0.4,1.2-1l0.2-1.3c0.4-0.1,0.9-0.3,1.3-0.5l1.1,0.8
			c0.2,0.1,0.4,0.2,0.7,0.2c0.3,0,0.6-0.1,0.8-0.3l1.2-1.2c0.4-0.4,0.5-1,0.1-1.5l-0.8-1.1c0.2-0.4,0.4-0.9,0.5-1.3l1.3-0.2
			c0.6-0.1,1-0.6,1-1.2v-1.7C29.5,21.6,29.1,21.1,28.5,21L28.5,21z M28.4,23.9c0,0.1,0,0.1-0.1,0.1l-1.7,0.3c-0.2,0-0.4,0.2-0.4,0.4
			c-0.2,0.6-0.4,1.1-0.7,1.7c-0.1,0.2-0.1,0.4,0,0.6l1,1.4c0,0,0,0.1,0,0.1l-1.2,1.2c0,0-0.1,0-0.1,0c0,0,0,0-0.1,0l-1.4-1
			c-0.2-0.1-0.4-0.1-0.6,0c-0.5,0.3-1.1,0.5-1.7,0.7c-0.2,0.1-0.4,0.2-0.4,0.4l-0.3,1.7c0,0.1-0.1,0.1-0.1,0.1h-1.7
			c-0.1,0-0.1,0-0.1-0.1l-0.3-1.7c0-0.2-0.2-0.4-0.4-0.4c-0.6-0.1-1.1-0.4-1.6-0.7c-0.1,0-0.2-0.1-0.3-0.1c-0.1,0-0.2,0-0.3,0.1
			l-1.4,1c0,0,0,0-0.1,0c0,0,0,0-0.1,0l-1.2-1.2c0,0,0-0.1,0-0.1l1-1.4c0.1-0.2,0.1-0.4,0-0.6c-0.3-0.5-0.5-1.1-0.7-1.7
			c-0.1-0.2-0.2-0.4-0.4-0.4L11.6,24c-0.1,0-0.1-0.1-0.1-0.1v-1.7c0-0.1,0-0.1,0.1-0.1l1.7-0.3c0.2,0,0.4-0.2,0.4-0.4
			c0.1-0.6,0.4-1.1,0.7-1.7c0.1-0.2,0.1-0.4,0-0.6l-1-1.4c0,0,0-0.1,0-0.1l1.2-1.2c0,0,0.1,0,0.1,0c0,0,0,0,0.1,0l1.4,1
			c0.2,0.1,0.4,0.1,0.6,0c0.5-0.3,1.1-0.5,1.7-0.7c0.2-0.1,0.4-0.2,0.4-0.4l0.3-1.7c0-0.1,0.1-0.1,0.1-0.1h1.7c0.1,0,0.1,0,0.1,0.1
			l0.3,1.7c0,0.2,0.2,0.4,0.4,0.4c0.6,0.2,1.2,0.4,1.7,0.7c0.2,0.1,0.4,0.1,0.6,0l1.4-1c0,0,0,0,0.1,0c0,0,0,0,0.1,0l1.2,1.2
			c0,0,0,0.1,0,0.1l-1,1.4c-0.1,0.2-0.1,0.4,0,0.6c0.3,0.5,0.5,1.1,0.7,1.7c0.1,0.2,0.2,0.4,0.4,0.4l1.7,0.3c0.1,0,0.1,0.1,0.1,0.1
			L28.4,23.9L28.4,23.9z M28.4,23.9"/>
		<path class="st0" d="M20,18.9c-2.3,0-4.1,1.8-4.1,4.1c0,2.3,1.8,4.1,4.1,4.1c2.3,0,4.1-1.8,4.1-4.1C24.1,20.8,22.3,18.9,20,18.9
			L20,18.9z M20,26.1c-1.7,0-3-1.4-3-3c0-1.7,1.4-3,3-3c1.7,0,3,1.4,3,3C23,24.7,21.7,26.1,20,26.1L20,26.1z M20,26.1"/>
	</g>
</g>
</svg>
