<?xml version="1.0" encoding="utf-8"?>
<!-- Generator: Adobe Illustrator 18.0.0, SVG Export Plug-In . SVG Version: 6.00 Build 0)  -->
<!DOCTYPE svg PUBLIC "-//W3C//DTD SVG 1.1//EN" "http://www.w3.org/Graphics/SVG/1.1/DTD/svg11.dtd">
<svg version="1.1" id="Layer_1" xmlns="http://www.w3.org/2000/svg" xmlns:xlink="http://www.w3.org/1999/xlink" x="0px" y="0px"
	 viewBox="0 0 23 23" enable-background="new 0 0 23 23" xml:space="preserve">
<g>
	<g>
		<path fill="#DDDEDF" d="M21,9.3C21,9.3,21,9.2,21,9.3c0-0.2-0.1-0.3-0.2-0.4L18.1,7V5c0-0.3-0.2-0.5-0.5-0.5h-3.1l-2.7-1.9
			c-0.2-0.1-0.4-0.1-0.6,0L8.5,4.5H5.4C5.2,4.5,4.9,4.7,4.9,5v2L2.2,8.9C2.1,9,2,9.1,2,9.3c0,0,0,0,0,0L2,20c0,0.1,0.1,0.3,0.1,0.3
			c0.1,0.1,0.2,0.1,0.3,0.1h0l18,0c0.3,0,0.5-0.2,0.5-0.5L21,9.3z M18.1,8.2l1.6,1.1l-1.6,1.1V8.2z M11.5,3.6l1.2,0.9h-2.5L11.5,3.6
			z M5.9,5.5h11.2v5.6l-3.7,2.6l-1.5-1.2c0,0,0,0,0,0c-0.2-0.1-0.4-0.1-0.6,0l-1.5,1.2l-3.8-2.6V5.5z M4.9,8.2v2.2L3.3,9.3L4.9,8.2z
			 M3,10.3l5.9,4.1L3,19L3,10.3z M3.9,19.5l7.6-6l7.6,5.9L3.9,19.5z M14.1,14.4l5.9-4.1l0,8.8L14.1,14.4z M8.2,8.4h6.6
			c0.3,0,0.5-0.2,0.5-0.5s-0.2-0.5-0.5-0.5H8.2c-0.3,0-0.5,0.2-0.5,0.5S7.9,8.4,8.2,8.4z M15.3,10.5c0-0.3-0.2-0.5-0.5-0.5H8.2
			c-0.3,0-0.5,0.2-0.5,0.5c0,0.3,0.2,0.5,0.5,0.5h6.6C15.1,11,15.3,10.8,15.3,10.5z"/>
	</g>
</g>
</svg>
