<?xml version="1.0" encoding="utf-8"?>
<!-- Generator: Adobe Illustrator 18.0.0, SVG Export Plug-In . SVG Version: 6.00 Build 0)  -->
<!DOCTYPE svg PUBLIC "-//W3C//DTD SVG 1.1//EN" "http://www.w3.org/Graphics/SVG/1.1/DTD/svg11.dtd">
<svg version="1.1" id="Layer_1" xmlns="http://www.w3.org/2000/svg" xmlns:xlink="http://www.w3.org/1999/xlink" x="0px" y="0px"
	 viewBox="0 0 23 23" enable-background="new 0 0 23 23" xml:space="preserve">
<g>
	<g>
		<path fill="#FFFFFF" d="M6.4,10.7L10,8.6c0.9-0.5,1.2-1.6,0.7-2.5L8.6,2.4C8.1,1.6,6.9,1.3,6.1,1.8L2.4,3.9
			C1.5,4.4,1.2,5.5,1.8,6.4L3.9,10C4.4,10.9,5.5,11.2,6.4,10.7z M19.3,2.9h-4.2c-1.2,0-2.2,1-2.2,2.2v4.2c0,1.2,1,2.2,2.2,2.2h4.2
			c1.2,0,2.2-1,2.2-2.2V5.1C21.5,3.9,20.5,2.9,19.3,2.9z M20.8,9.3c0,0.8-0.7,1.5-1.5,1.5h-4.2c-0.8,0-1.5-0.7-1.5-1.5V5.1
			c0-0.8,0.7-1.5,1.5-1.5h4.2c0.8,0,1.5,0.7,1.5,1.5V9.3z M9.3,12.9H5.1c-1.2,0-2.2,1-2.2,2.2v4.2c0,1.2,1,2.2,2.2,2.2h4.2
			c1.2,0,2.2-1,2.2-2.2v-4.2C11.4,13.9,10.5,12.9,9.3,12.9z M10.7,19.3c0,0.8-0.7,1.5-1.5,1.5H5.1c-0.8,0-1.5-0.7-1.5-1.5v-4.2
			c0-0.8,0.7-1.5,1.5-1.5h4.2c0.8,0,1.5,0.7,1.5,1.5V19.3z M19.3,12.9h-4.2c-1.2,0-2.2,1-2.2,2.2v4.2c0,1.2,1,2.2,2.2,2.2h4.2
			c1.2,0,2.2-1,2.2-2.2v-4.2C21.5,13.9,20.5,12.9,19.3,12.9z M20.8,19.3c0,0.8-0.7,1.5-1.5,1.5h-4.2c-0.8,0-1.5-0.7-1.5-1.5v-4.2
			c0-0.8,0.7-1.5,1.5-1.5h4.2c0.8,0,1.5,0.7,1.5,1.5V19.3z"/>
	</g>
</g>
</svg>
