<?xml version="1.0" encoding="utf-8"?>
<!-- Generator: Adobe Illustrator 18.0.0, SVG Export Plug-In . SVG Version: 6.00 Build 0)  -->
<!DOCTYPE svg PUBLIC "-//W3C//DTD SVG 1.1//EN" "http://www.w3.org/Graphics/SVG/1.1/DTD/svg11.dtd">
<svg version="1.1" id="Layer_1" xmlns="http://www.w3.org/2000/svg" xmlns:xlink="http://www.w3.org/1999/xlink" x="0px" y="0px"
	 viewBox="0 0 23 23" enable-background="new 0 0 23 23" xml:space="preserve">
<g>
	<g>
		<path fill="#FFFFFF" d="M7.8,15.3c0.8,0.9,1.6,1.8,2.5,2.8c0.4,0.4,0.7,0.8,1.1,1.2l0.3,0.3l0.3-0.3c0.4-0.4,0.7-0.9,1.1-1.3
			c0.8-1,1.6-1.9,2.4-2.9c0.7-0.9,1.7-2.1,2.5-3.4c0.8-1.3,1.1-2.8,1-4.3c-0.4-2.9-2.5-5.4-5.4-6.1c-2.9-0.8-6,0.3-7.7,2.7
			c-1.9,2.5-2,5.8-0.3,8.5C6.3,13.5,7,14.4,7.8,15.3z M6.5,4.4c1.2-1.7,3.2-2.6,5.2-2.6c0.6,0,1.1,0.1,1.7,0.2
			c2.5,0.7,4.5,2.9,4.8,5.5c0.2,1.4-0.1,2.7-0.8,3.8c-0.8,1.3-1.7,2.5-2.4,3.3c-0.8,1-1.6,1.9-2.4,2.9c-0.3,0.3-0.5,0.6-0.8,1
			c-0.3-0.3-0.5-0.6-0.8-0.9c-0.9-0.9-1.7-1.8-2.5-2.8C7.6,13.9,6.9,13,6.3,12C4.8,9.6,4.9,6.7,6.5,4.4z M11.6,12.3
			C11.6,12.3,11.6,12.3,11.6,12.3c1.1,0,2-0.4,2.8-1.1c0.7-0.7,1.1-1.7,1.1-2.7c0-1-0.4-2-1.1-2.7c-0.7-0.7-1.6-1.1-2.6-1.1h0
			c-2.2,0-3.9,1.7-3.9,3.8c0,1,0.4,2,1.1,2.7C9.7,11.9,10.6,12.3,11.6,12.3z M11.8,5.4L11.8,5.4c0.8,0,1.5,0.3,2,0.9
			c0.6,0.6,0.9,1.4,0.9,2.2c0,0.8-0.3,1.6-0.9,2.2c-0.6,0.6-1.3,0.9-2.2,0.9c0,0,0,0,0,0c-0.8,0-1.5-0.3-2.1-0.9
			C9,10,8.7,9.2,8.7,8.4C8.7,6.7,10.1,5.4,11.8,5.4z M20.2,18.7c-0.3-0.2-0.6-0.5-0.9-0.6c-1.3-0.6-2.7-0.9-4.2-1.1
			c-0.4-0.1-0.6,0.1-0.8,0.5c0.7,0.1,1.5,0.1,2.2,0.3c0.6,0.1,1.3,0.3,1.9,0.6c0.6,0.3,0.7,0.8,0.1,1.2c-0.3,0.2-0.7,0.4-1.1,0.5
			c-1.6,0.5-3.3,0.7-5,0.7c-2.1,0.1-4.1,0-6.2-0.6c-0.7-0.2-1.3-0.3-1.8-0.8c-0.4-0.3-0.3-0.7,0.1-1c0.3-0.2,0.6-0.4,0.9-0.4
			c1.2-0.2,2.3-0.4,3.5-0.6c-0.1-0.1-0.3-0.3-0.4-0.4C8.4,17,8.3,17,8.3,17c-1.1,0.2-2.3,0.4-3.4,0.7c-0.7,0.2-1.3,0.4-1.9,0.9
			c-0.6,0.5-0.6,1.2,0,1.6c0.4,0.3,0.9,0.6,1.4,0.7c2,0.7,4.1,0.9,6.2,1c1.6,0.1,3.3,0,4.9-0.2c1.2-0.2,2.4-0.4,3.5-0.9
			c0.4-0.2,0.9-0.4,1.2-0.8C20.6,19.7,20.6,19.2,20.2,18.7z"/>
	</g>
</g>
</svg>
