<?xml version="1.0" encoding="utf-8"?>
<!-- Generator: Adobe Illustrator 19.2.0, SVG Export Plug-In . SVG Version: 6.00 Build 0)  -->
<svg version="1.1" id="Layer_1" xmlns="http://www.w3.org/2000/svg" xmlns:xlink="http://www.w3.org/1999/xlink" x="0px" y="0px"
	 viewBox="0 0 40 40" style="enable-background:new 0 0 40 40;" xml:space="preserve">
<style type="text/css">
	.st0{fill:#EEEEEE;}
</style>
<g>
	<path class="st0" d="M36.4,28.9c-0.1-1.3-0.4-2.6-0.8-4c-0.4-1.3-0.9-2.5-1.5-3.4c-0.6-0.9-1.4-1.7-2.4-2.3c-1-0.6-2.2-0.9-3.5-0.9
		c-2.3,2.2-5,3.3-8.2,3.3c-3.2,0-5.9-1.1-8.2-3.3c-1.3,0-2.5,0.3-3.5,0.9c-1,0.6-1.8,1.4-2.4,2.3c-0.6,0.9-1.1,2.1-1.5,3.4
		c-0.4,1.3-0.7,2.6-0.8,4c-0.1,1.3-0.2,2.7-0.2,4.2C3.3,35,3.9,36.6,5,38c1.1,1.4,2.4,2,3.9,2h22.2c1.5,0,2.8-0.7,3.9-2
		c1.1-1.4,1.6-3,1.6-4.9C36.7,31.6,36.6,30.2,36.4,28.9z M20,0c-2.8,0-5.1,1-7.1,2.9C11,4.9,10,7.2,10,10s1,5.1,2.9,7.1
		c2,2,4.3,2.9,7.1,2.9c2.8,0,5.1-1,7.1-2.9c2-2,2.9-4.3,2.9-7.1s-1-5.1-2.9-7.1S22.8,0,20,0z"/>
</g>
</svg>
