<?xml version="1.0" encoding="utf-8"?>
<!-- Generator: Adobe Illustrator 19.2.0, SVG Export Plug-In . SVG Version: 6.00 Build 0)  -->
<svg version="1.1" id="Layer_1" xmlns="http://www.w3.org/2000/svg" xmlns:xlink="http://www.w3.org/1999/xlink" x="0px" y="0px"
	 viewBox="0 0 40 40" style="enable-background:new 0 0 40 40;" xml:space="preserve">
<style type="text/css">
	.st0{fill:#F18535;}
</style>
<g>
	<g>
		<g>
			<path class="st0" d="M16.3,26.4c0,0.4,0.4,0.6,0.7,0.4l9.3-6.4c0.3-0.2,0.3-0.6,0-0.8L17,13.2c-0.3-0.2-0.7,0-0.7,0.4v3.3H1
				c-0.6,0-1,0.5-1,1v4.2c0,0.6,0.5,1,1,1h15.2V26.4z M38.7,16.9h-3c-0.4-2.1-1.2-4-2.4-5.8L35.4,9c0.5-0.5,0.5-1.3,0-1.9l-2.5-2.5
				c-0.5-0.5-1.3-0.5-1.9,0l-2.1,2.1c-1.7-1.2-3.7-2-5.8-2.4v-3c0-0.7-0.6-1.3-1.3-1.3h-3.6c-0.7,0-1.3,0.6-1.3,1.3v3
				c-2.1,0.4-4.1,1.2-5.8,2.4L9,4.6c-0.5-0.5-1.3-0.5-1.9,0L4.6,7.2C4.1,7.7,4.1,8.5,4.6,9l2.1,2.1c-0.6,0.8-1,1.7-1.4,2.6h6.7
				c1.9-2.4,4.7-3.9,8-3.9c5.6,0,10.1,4.5,10.1,10.1S25.6,30.1,20,30.1c-3.2,0-6.1-1.5-8-3.9H5.3c0.4,0.9,0.9,1.8,1.4,2.6L4.6,31
				c-0.5,0.5-0.5,1.3,0,1.9l2.5,2.5c0.5,0.5,1.3,0.5,1.9,0l2.1-2.1c1.7,1.2,3.7,2,5.8,2.4v3c0,0.7,0.6,1.3,1.3,1.3h3.6
				c0.7,0,1.3-0.6,1.3-1.3v-3c2.1-0.4,4.1-1.2,5.8-2.4l2.1,2.1c0.5,0.5,1.3,0.5,1.9,0l2.5-2.5c0.5-0.5,0.5-1.3,0-1.9l-2.1-2.1
				c1.2-1.7,2-3.7,2.4-5.8h3c0.7,0,1.3-0.6,1.3-1.3v-3.6C40,17.5,39.4,16.9,38.7,16.9z"/>
		</g>
	</g>
</g>
</svg>
