<?xml version="1.0" encoding="iso-8859-1"?>
<!-- Generator: Adobe Illustrator 19.2.0, SVG Export Plug-In . SVG Version: 6.00 Build 0)  -->
<svg version="1.1" id="Layer_1" xmlns="http://www.w3.org/2000/svg" xmlns:xlink="http://www.w3.org/1999/xlink" x="0px" y="0px"
	 viewBox="196.5 386.5 21 21" style="enable-background:new 196.5 386.5 21 21;" xml:space="preserve">
<g>
	<path style="fill:#49B6E3;" d="M211.974,394.182c-0.469,0.085-0.878,0.159-1.356,0.245c-0.048-0.139-0.113-0.327-0.179-0.515
		c-0.602-1.725-1.759-2.905-3.499-3.47c-0.376-0.122-0.55-0.242-0.55-0.671c0.001-0.69-0.461-1.15-1.071-1.174
		c-0.639-0.025-1.165,0.431-1.174,1.139c-0.006,0.452-0.171,0.59-0.575,0.72c-2.227,0.711-3.694,2.722-3.749,5.106
		c-0.025,1.075,0.019,2.153-0.024,3.227c-0.012,0.297-0.183,0.618-0.362,0.871c-0.216,0.306-0.49,0.589-0.79,0.816
		c-0.626,0.473-0.72,1.079-0.538,1.857c0.508,0,1.029,0,1.55,0c1.793,0,3.587-0.01,5.38,0.013c0.239,0.003,0.484,0.158,0.712,0.273
		c0.38,0.192,0.748,0.409,1.168,0.641c-0.099,0.345-0.308,0.579-0.773,0.568c-0.796-0.02-1.593-0.006-2.391-0.006
		c0.066,1.385,1.24,1.898,2.589,1.192c0.301,0.345,0.603,0.689,0.923,1.056c-0.857,0.738-1.816,1.016-2.883,0.645
		c-1.326-0.461-2.025-1.451-2.197-2.892c-1.491,0-2.985,0.001-4.479,0c-0.943-0.001-1.136-0.2-1.143-1.159
		c0-0.021,0.003-0.043,0-0.063c-0.243-1.456,0.204-2.622,1.384-3.541c0.231-0.18,0.357-0.602,0.381-0.924
		c0.097-1.322-0.002-2.672,0.226-3.967c0.384-2.188,1.711-3.753,3.681-4.784c0.249-0.13,0.487-0.38,0.611-0.633
		c0.501-1.022,1.279-1.63,2.426-1.629c1.145,0.001,1.929,0.598,2.423,1.629c0.121,0.253,0.363,0.502,0.612,0.631
		c1.779,0.92,2.976,2.315,3.57,4.227c0.037,0.12,0.069,0.243,0.094,0.366C211.984,394.034,211.974,394.097,211.974,394.182z"/>
	<path style="fill:#49B6E3;" d="M208.753,396.589c0.104,0.068,0.226,0.143,0.343,0.225c0.277,0.192,0.536,0.414,0.83,0.576
		c0.56,0.308,0.984,0.099,1.114-0.519c0.022-0.103,0.031-0.208,0.043-0.313c0.119-1.068,0.515-1.353,1.55-1.06
		c0.145,0.041,0.293,0.272,0.334,0.441c0.073,0.304,0.052,0.629,0.097,0.941c0.087,0.599,0.603,0.859,1.147,0.573
		c0.241-0.127,0.462-0.295,0.679-0.461c0.597-0.456,0.572-0.435,1.354,0.303c0.431,0.407,0.328,0.698-0.024,1.05
		c-0.178,0.178-0.331,0.385-0.469,0.595c-0.336,0.514-0.128,0.998,0.465,1.109c0.166,0.031,0.335,0.091,0.498,0.081
		c0.619-0.04,0.809,0.257,0.782,0.842c-0.042,0.899,0.137,1.085-1.028,1.112c-0.268,0.006-0.609,0.169-0.779,0.374
		c-0.266,0.322-0.087,0.674,0.178,0.96c0.071,0.077,0.128,0.168,0.195,0.249c0.625,0.766,0.601,0.744-0.056,1.46
		c-0.399,0.435-0.728,0.519-1.14,0.053c-0.109-0.123-0.266-0.206-0.407-0.299c-0.824-0.538-1.348-0.288-1.467,0.675
		c-0.039,0.315-0.086,0.838-0.248,0.889c-0.421,0.132-0.909,0.076-1.367,0.042c-0.095-0.007-0.214-0.235-0.251-0.379
		c-0.067-0.263-0.06-0.545-0.119-0.811c-0.152-0.685-0.594-0.863-1.212-0.501c-0.109,0.064-0.215,0.134-0.318,0.207
		c-0.901,0.634-1.182,0.594-1.807-0.342c-0.088-0.132-0.042-0.431,0.051-0.589c0.18-0.306,0.458-0.552,0.657-0.848
		c0.327-0.486,0.086-1.02-0.489-1.125c-0.103-0.019-0.209-0.027-0.314-0.036c-0.962-0.08-0.931-0.081-0.969-1.076
		c-0.023-0.588,0.151-0.87,0.768-0.84c0.225,0.011,0.462-0.054,0.681-0.123c0.402-0.126,0.616-0.658,0.413-1.026
		c-0.101-0.183-0.257-0.334-0.373-0.51c-0.178-0.271-0.548-0.654-0.472-0.808c0.197-0.395,0.592-0.692,0.915-1.022
		C208.58,396.619,208.657,396.619,208.753,396.589z M214.495,401.134c0.016-1.343-1.092-2.473-2.428-2.477
		c-1.342-0.004-2.452,1.102-2.459,2.45c-0.007,1.307,1.078,2.412,2.399,2.445C213.334,403.585,214.479,402.472,214.495,401.134z"/>
</g>
</svg>
