<svg id="Layer_1" data-name="Layer 1" xmlns="http://www.w3.org/2000/svg" viewBox="0 0 155.6 155.6"><defs><style>.cls-1{fill:#4ccb8a;}.cls-2{fill:#fff;}</style></defs><title>ok-thumbsup</title><circle class="cls-1" cx="77.8" cy="77.8" r="77.8"/><path class="cls-2" d="M616,597.37a8.15,8.15,0,0,0,2-5.56,8.33,8.33,0,0,0-1.87-4.81,7.32,7.32,0,0,0-1.83-8.61c-2.29-2-6.18-2.94-11.56-2.69a47.65,47.65,0,0,0-7.08.88h0c-.72.13-1.48.28-2.26.45-.06-.89.1-3.12,1.8-8.13,2-6,1.9-10.53-.37-13.58a9.28,9.28,0,0,0-7.33-3.45,3.65,3.65,0,0,0-2.78,1.23c-1.6,1.8-1.41,5.13-1.21,6.67-1.9,5-7.23,17.11-11.74,20.48l-.23.2a15.13,15.13,0,0,0-2.82,4.11,6.16,6.16,0,0,0-2.85-.7h-8.78a5.91,5.91,0,0,0-6,5.83v22.74a5.92,5.92,0,0,0,6,5.83h8.78a6.08,6.08,0,0,0,3.45-1.07l3.39.39a148.65,148.65,0,0,0,19.19,1c1.72.12,3.33.19,4.83.19a32.6,32.6,0,0,0,6.69-.59c4.41-.91,7.42-2.73,8.94-5.4a8.31,8.31,0,0,0,1-5.36,8.81,8.81,0,0,0,3.27-7.27A9.39,9.39,0,0,0,616,597.37Zm-58.93,17.11a2.09,2.09,0,0,1-2.11-2.05V589.67a2.08,2.08,0,0,1,2.11-2h8.78a2.07,2.07,0,0,1,2.1,2v22.75a2.07,2.07,0,0,1-2.1,2h-8.78Zm55.25-18.75a1.85,1.85,0,0,0-.26,2.29,5.63,5.63,0,0,1,.66,2.33c.1,1.84-.81,3.46-2.71,4.85a1.86,1.86,0,0,0-.66,2.15A4.81,4.81,0,0,1,609,611c-1,1.68-3.11,2.89-6.36,3.56a39.52,39.52,0,0,1-10.5.31h-.2a145.52,145.52,0,0,1-18.72-1h0l-1.45-.17a5.52,5.52,0,0,0,.13-1.23V589.67a5.8,5.8,0,0,0-.27-1.73,11.37,11.37,0,0,1,2.67-4.8c6.47-5,12.79-21.8,13.06-22.53a1.63,1.63,0,0,0,.09-.93,8.51,8.51,0,0,1,.19-4.06,5.21,5.21,0,0,1,4.06,1.89c1.47,2,1.41,5.5-.17,10.17-2.42,7.13-2.63,10.88-.71,12.53a3.21,3.21,0,0,0,3.14.55c.88-.2,1.71-.37,2.5-.49l.19,0c4.42-.93,12.34-1.51,15.09.93,2.33,2.07.68,4.81.49,5.11a1.83,1.83,0,0,0,.35,2.43A5.3,5.3,0,0,1,614.1,592,5.12,5.12,0,0,1,612.31,595.73Z" transform="translate(-506.73 -507.53)"/></svg>