<?xml version="1.0" encoding="iso-8859-1"?>
<!-- Generator: Adobe Illustrator 19.2.0, SVG Export Plug-In . SVG Version: 6.00 Build 0)  -->
<svg version="1.1" id="Layer_1" xmlns="http://www.w3.org/2000/svg" xmlns:xlink="http://www.w3.org/1999/xlink" x="0px" y="0px"
	 viewBox="0 0 40 40" style="enable-background:new 0 0 40 40;" xml:space="preserve">
<g>
	<path style="fill:#35c4ff;" d="M31.331,38.029H0.79c-0.059,0-0.114,0.005-0.164,0.009c-0.051,0.004-0.097,0.007-0.138,0.007
		c-0.25,0-0.388-0.145-0.388-0.409v-1.872c0-0.047,0.093-4.748,8.123-7.086c-0.002,0.001-0.003,0.001-0.004,0.001
		c-0.027,0,0.076-0.059,0.513-0.298c0.697-0.382,1.994-1.094,2.674-1.638l0.025-0.025v-1.669l-0.088-0.044
		c-2.378-1.288-4.023-3.575-4.637-6.44l0-0.041H6.701c-1.607-0.317-2.66-1.783-2.66-2.956c0-1.104,0.956-1.954,2.435-2.165l0.028,0
		v-1.184C6.497,10.685,6.758,6.955,9.32,4.393c1.734-1.631,3.937-2.422,6.741-2.422c2.768,0,5.002,0.79,6.83,2.414
		c2.711,2.71,2.848,6.655,2.825,7.8v1.214c1.553,0.22,2.463,1.029,2.463,2.168c0,1.172-1.054,2.638-2.622,2.952l-0.038,0v0.003
		c-0.62,2.908-2.264,5.194-4.635,6.479l-0.094,0.047v1.569l0.041,0.041c0.698,0.628,2.035,1.319,2.752,1.689
		c0.384,0.198,0.456,0.237,0.5,0.282c7.943,2.388,8.037,7.086,8.037,7.133v1.872c0,0.188-0.086,0.286-0.157,0.335
		c-0.097,0.066-0.215,0.074-0.294,0.074C31.616,38.045,31.388,38.029,31.331,38.029z M13.91,37.044l-1.681-4.762l-0.012-0.362
		l1.038-2.955l-0.041-0.021c-0.176-0.128-0.321-0.223-0.461-0.315c-0.244-0.16-0.474-0.311-0.673-0.509l-0.071,0.035
		c-1.058,0.775-3.03,1.763-3.251,1.872c-1.672,0.481-4.656,1.58-6.235,3.686c-0.776,1.164-1.033,1.98-1.045,2.063v0.197
		l-0.196-0.013v1.083H13.91z M30.839,36.847v-1.083c-0.008-0.119-0.219-1.064-0.955-2.262c-0.501-0.688-2.125-2.448-6.194-3.658
		c-0.001,0-0.002,0-0.003,0c-0.262,0-2.452-1.207-3.406-1.9l-0.08-0.039L20.09,27.96c-0.09,0.071-0.201,0.162-0.308,0.248
		c-0.249,0.203-0.485,0.394-0.776,0.54l-0.041,0.02l1.025,2.891l0.012,0.361l-1.692,4.827H30.839z M16.708,36.847l1.705-4.925
		l-0.887-2.483c-0.586,0.15-1.052,0.216-1.466,0.216c-0.414,0-0.924-0.102-1.418-0.2l-0.046-0.022l-0.889,2.489l1.705,4.925H16.708z
		 M12.602,26.72c0.096,0.062,0.189,0.13,0.298,0.21c0.317,0.233,0.797,0.584,1.377,0.874c0.509,0.255,1.044,0.373,1.685,0.373
		c0.641,0,1.177-0.118,1.685-0.373c0.8-0.301,1.465-0.79,1.722-1.047l0.14-0.076v-1.029l-0.362,0.06
		c-1.08,0.327-2.16,0.495-3.185,0.495c-1.044,0-2.249-0.183-3.308-0.501l-0.14-0.035v1.005L12.602,26.72z M7.785,16.257
		c0,0.473,0.094,0.942,0.193,1.439c0.368,2.764,1.981,5.043,4.427,6.266c1.253,0.521,2.418,0.767,3.656,0.767
		s2.403-0.245,3.668-0.773c2.44-1.075,4.128-3.374,4.511-6.151c-0.002-0.303,0.057-0.578,0.108-0.821
		c0.045-0.214,0.088-0.415,0.088-0.63v-3.448h-0.197c-4.17-0.226-7.237-1.812-8.077-2.292l-0.1-0.05l-0.11,0.055
		c-0.678,0.798-2.133,1.399-4.389,1.791c-0.883,0.136-1.868,0.226-2.66,0.299c-0.375,0.034-0.715,0.065-0.997,0.097l-0.12,0V16.257z
		 M25.715,16.923l0.109-0.054c0.444-0.361,0.778-0.905,0.778-1.302c0-0.314-0.296-0.561-0.836-0.696l-0.051-0.017V16.923z
		 M6.468,14.867c-0.554,0.139-0.851,0.385-0.851,0.699c0,0.443,0.272,1.049,0.777,1.302l0.109,0.054v-2.068L6.468,14.867z
		 M16.2,8.925c0.007,0,3.432,2.216,7.853,2.504h0.087V11.33c-0.172-2.57-1.003-4.637-2.401-5.966
		c-1.358-1.357-3.181-2.015-5.579-2.015c-2.43,0-4.339,0.676-5.673,2.011C9.061,6.786,8.252,8.795,8.081,11.33
		c0.769,0,2.058-0.198,3.218-0.391c0.996-0.166,1.884-0.42,2.713-0.775c0.78-0.391,0.865-0.624,0.865-0.706
		c0-0.318,0.29-0.464,0.502-0.57c0.106-0.12,0.274-0.12,0.385-0.12C15.876,8.768,16.044,8.768,16.2,8.925L16.2,8.925z
		 M30.642,20.887c-1.214,0-2.43-0.209-3.516-0.604l-0.209-0.075l0.1-0.198c0.031-0.061,0.07-0.131,0.114-0.208
		c0.092-0.164,0.205-0.358,0.27-0.554l0.063-0.187l0.187,0.062c0.973,0.325,1.918,0.483,2.893,0.483
		c4.455,0,8.078-3.447,8.078-7.684s-3.623-7.684-8.078-7.684c-1.507,0-2.957,0.41-4.434,1.255l-0.106,0.06l-0.102-0.067
		c-0.152-0.102-0.28-0.204-0.407-0.306c-0.119-0.095-0.238-0.19-0.381-0.285l-0.245-0.164l0.245-0.164
		c1.558-1.038,3.45-1.61,5.331-1.61c5.209,0,9.45,3.935,9.656,8.957C40.1,16.865,35.857,20.887,30.642,20.887z M31.233,16.454
		c-0.718,0-1.182-0.503-1.182-1.281s0.465-1.281,1.182-1.281c0.674,0,1.182,0.551,1.182,1.281
		C32.416,15.951,31.951,16.454,31.233,16.454z M30.353,13.596l-0.21-6.601h2.179l-0.21,6.601H30.353z"/>
</g>
</svg>
