<?xml version="1.0" encoding="utf-8"?>
<!-- Generator: Adobe Illustrator 19.2.0, SVG Export Plug-In . SVG Version: 6.00 Build 0)  -->
<svg version="1.1" id="Layer_1" xmlns="http://www.w3.org/2000/svg" xmlns:xlink="http://www.w3.org/1999/xlink" x="0px" y="0px"
	 viewBox="0 0 181.4 181.4" style="enable-background:new 0 0 181.4 181.4;" xml:space="preserve">
<style type="text/css">
	.st0{fill:#484D55;}
</style>
<g>
	<path class="st0" d="M108.3,152.8c-3.2,14.2-13.4,22.8-27,23.2c-13.4,0.4-23.7-7.3-27.7-21.1c-0.7-2.2-2-2.1-3.7-2.1
		c-13.3,0-26.7,0-40,0c-7.9,0-10.6-4.6-6.9-11.9c3.6-7.1,7.4-14.2,10.9-21.3c0.8-1.6,1.3-3.5,1.3-5.3c0.1-10.6,0.1-21.1,0-31.7
		c-0.1-28.5,19.2-53.9,46.8-61.4c2.5-0.7,3.9-1.3,4.4-4.5c0.9-6.9,6.9-11.5,13.7-11.4c6.7,0.1,12.7,4.9,13.8,11.5
		c0.5,2.7,1.6,3.9,4.2,4.4c2.1,0.4,4.1,1.3,6.4,2c-4.6,3-8.7,5.8-12.9,8.4c-0.7,0.5-2,0.2-3,0c-16.5-2.4-31.4,1.5-43.9,12.6
		c-10.9,9.7-16.9,21.9-17,36.7c-0.1,11.6,0,23.2-0.1,34.8c0,2.3-0.7,4.8-1.6,6.9c-2.7,5.8-5.8,11.5-9,17.6c42.5,0,84.6,0,126.9,0
		c-0.5-1.3-1.1-2.6-1.8-4.5c4.7,2.5,8.6,0.9,12.6-1.7c2.1,4.6,5.4,8.3,4.8,13.7c-0.4,3.8-1.4,5.1-5.4,5.1c-13.7,0-27.4,0-41.1,0
		C111.5,152.8,110,152.8,108.3,152.8z"/>
	<path class="st0" d="M106.3,127.3c-3.7-2.3-7.2-4.4-10.9-6.6c0.7-4.8,6.4-9.9-1.6-14.1c-2.3,0.8-5.2,1.9-8.3,3
		c-2.1-3.7-4.2-7.3-6.4-11.2c2.2-1.8,4.2-3.7,6.4-5.2c2.7-1.9,0.6-4,0.4-6c0-0.7-1.6-1.7-2.6-1.9c-6.8-1.3-6.8-1.2-6.8-8.2
		c0-7.6-1.1-5.5,6.2-7c3.5-0.7,5.6-2.6,5.5-5.9c0-0.7-0.8-1.6-1.4-2.2c-1.7-1.5-3.5-2.9-5.3-4.4c2-4,3.9-7.8,5.9-12
		c2.3,0.9,4.7,1.6,6.7,2.8c3.2,1.8,4.7-0.8,6.3-2.4c0.7-0.7,0.5-2.6,0.2-3.9c-0.4-1.9-1.3-3.7-2.2-5.9c3.8-2.1,7.4-4.2,11.3-6.4
		c1.7,2,3.5,3.7,4.7,5.8c1.9,3.2,4.4,1,6.5,0.7c0.9-0.2,1.8-2,2.2-3.3c0.5-1.7,0.6-3.6,0.9-5.7H137c0.3,2.3,0.7,4.6,1,7
		c0.3,1.6,0.9,2.6,2.7,3.4c3.5,1.6,5.6,0.7,7.4-2.3c0.6-1.1,1.6-1.9,2.7-3.2c3.3,2,6.6,3.9,9.8,6c0.5,0.3,0.8,1.6,0.6,2.3
		c-0.5,1.9-1.6,3.6-2,5.5c-0.2,1.2,0.1,2.7,0.7,3.8c1.5,2.7,3.6,3.6,6.5,1.7c1.3-0.8,3-1.2,4.9-1.9c2.1,3.7,4.3,7.4,6.5,11.3
		c-1.7,1.3-3.1,2.7-4.7,3.7c-2.5,1.6-3.5,3.4-2.6,6.6c0.5,2,1.5,2.6,3.2,2.9c2.1,0.3,4.1,0.6,6.4,1V88c-2.3,0.6-4.8,1.5-7.3,1.9
		c-3.3,0.5-2.7,3.4-3.4,5.3c-0.3,0.8,0.8,2.3,1.7,3.2c1.4,1.4,3,2.5,4.9,4c-2.1,3.7-4.2,7.4-6.4,11.3c-2.6-1-5-1.6-7.3-2.8
		c-3.1-1.6-4.2,1.2-5.7,2.5c-0.7,0.6-0.8,2.5-0.4,3.5c2.2,6.4,2.3,6.3-3.7,9.6c-1.6,0.9-3.2,1.8-5.1,2.8c-3.4-2.9-5.2-9.4-11.6-6.4
		c-0.8,0.4-1.4,1.1-1.5,2c-0.4,2.1-0.8,4.5-1.3,6.9H120c-0.3-2.3-0.8-4.4-0.9-6.6c-0.1-2.2-1.2-3.1-3.2-3.8c-2.7-1-4.5-0.7-6.1,1.8
		C108.9,124.7,107.6,125.7,106.3,127.3z M99.5,79.3c-0.1,16.1,12.9,29.4,28.9,29.5c15.5,0.1,28.8-13,28.9-28.3
		c0.1-16.9-12.5-30.4-28.6-30.6C112.7,49.7,99.6,62.9,99.5,79.3z"/>
</g>
</svg>
