<?xml version="1.0" encoding="utf-8"?>
<!-- Generator: Adobe Illustrator 21.1.0, SVG Export Plug-In . SVG Version: 6.00 Build 0)  -->
<svg version="1.1" id="Layer_1" xmlns="http://www.w3.org/2000/svg" xmlns:xlink="http://www.w3.org/1999/xlink" x="0px" y="0px"
	 viewBox="0 0 64 64" style="enable-background:new 0 0 64 64;" xml:space="preserve">
<g>
	<path fill="rgb(27, 188, 155)" d="M41.7,58.2c-0.6,0-1.3-0.4-2.1-1.4L28.8,46c-0.8-0.8-1-2.3-0.4-3.3c0.4-0.7,1.2-1.1,2-1.1c0.9,0,1.8,0.7,2.4,1.3
		c1.4,1.4,2.9,2.9,4.4,4.3c1.4,1.4,3,2.7,4.3,4.1c0.3,0.3,0.6,0.7,1,0.9c0,0,0.7-1.2,0.8-1.3c0.3-0.5,0.7-0.9,1.1-1.2
		c0.4-0.3,0.7-0.7,1.1-1.1c0.9-0.9,1.7-1.7,2.6-2.6c2.1-2.1,4.2-4.2,6.4-6.4c1.6-1.6,3.2-3.2,4.7-4.7c0.2-0.2,0.4-0.4,0.6-0.6
		c0.7-0.7,1.3-1.1,1.9-1.1c0.2,0,0.5,0,0.7,0.1l0.1,0l0.1,0c0.9,0.2,1.3,0.9,1.5,1.4c0.3,0.8,0.2,1.7-0.3,2.4L44.1,56.8
		C43.1,57.7,42.4,58.2,41.7,58.2z"/>
	<g>
		<path fill="rgb(27, 188, 155)" d="M46.2,58.9c-0.1,0.1-0.3,0.3-0.5,0.5h8.7v-8.7L46.2,58.9z"/>
		<path fill="rgb(27, 188, 155)" d="M37.4,58.9L34.5,56H5.8l17-17h5.5c0.6-0.3,1.3-0.4,2.1-0.4c2.3,0,4,1.7,4.5,2.2c1.4,1.4,2.9,2.9,4.4,4.3
			c0.5,0.5,1,0.9,1.4,1.4c0.4,0.4,0.9,0.8,1.4,1.3c0.1-0.1,0.1-0.1,0.2-0.2c0.3-0.3,0.6-0.6,0.9-0.9l0.4-0.4l-6.3-6.3L51,27.5v11.2
			l3.4-3.4V22.7l-7.7-5.1l-10.1-6.7l-9.4-6.3l-9.4,6.3L7.6,17.7l-7.6,5v36.7h37.8C37.7,59.2,37.5,59,37.4,58.9z M27.2,8.7L50,23.8
			L35,37.5l-2-2H21.4l-1.9,1.9l-8.5-7.7l-6.6-5.9L27.2,8.7z M3.4,27.5l13.7,12.4L3.4,53.6V27.5z"/>
	</g>
</g>
</svg>
