<?xml version="1.0" encoding="utf-8"?>
<!-- Generator: Adobe Illustrator 19.2.0, SVG Export Plug-In . SVG Version: 6.00 Build 0)  -->
<svg version="1.1" id="Layer_1" xmlns="http://www.w3.org/2000/svg" xmlns:xlink="http://www.w3.org/1999/xlink" x="0px" y="0px"
	 viewBox="0 0 40 40" style="enable-background:new 0 0 40 40;" xml:space="preserve">
<style type="text/css">
	.st0{fill:#FFFFFF;}
</style>
<g>
	<path class="st0" d="M9.5,17.5c-1.1,0-1.1,1.7,0,1.7h12.8c1.1,0,1.1-1.7,0-1.7H9.5z M9.5,17.5"/>
	<path class="st0" d="M22.3,21.5H9.5c-1.1,0-1.1,1.7,0,1.7h12.8C23.3,23.1,23.3,21.5,22.3,21.5L22.3,21.5z M22.3,21.5"/>
	<path class="st0" d="M22.3,25.1H9.5c-1.1,0-1.1,1.7,0,1.7h12.8C23.3,26.8,23.3,25.1,22.3,25.1L22.3,25.1z M22.3,25.1"/>
	<path class="st0" d="M22.3,29H9.5c-1.1,0-1.1,1.7,0,1.7h12.8C23.3,30.7,23.3,29,22.3,29L22.3,29z M22.3,29"/>
	<path class="st0" d="M22,32.7H9.2c-1.1,0-1.1,1.7,0,1.7H22C23.1,34.4,23.1,32.7,22,32.7L22,32.7z M22,32.7"/>
	<path class="st0" d="M4,9.1V40h23.8V13.3l-4.4-4.3H4z M25.7,37.9H6V11.1h16.3v3.3h3.4V37.9z M25.7,37.9"/>
	<path class="st0" d="M8,4.3v3.6H10V6.4h16.3v3.3h3.4v23.6h-0.9v2.1h3V8.6l-4.4-4.3H8z M8,4.3"/>
	<path class="st0" d="M31.6,0H12.2v3.6h2.1V2.1h16.3v3.3H34v23.6h-0.9v2.1h3V4.3L31.6,0z M31.6,0"/>
</g>
</svg>
