<?xml version="1.0" encoding="utf-8"?>
<!-- Generator: Adobe Illustrator 22.1.0, SVG Export Plug-In . SVG Version: 6.00 Build 0)  -->
<svg version="1.1" id="Capa_1" xmlns="http://www.w3.org/2000/svg" xmlns:xlink="http://www.w3.org/1999/xlink" x="0px" y="0px"
	 viewBox="0 0 47 47" style="enable-background:new 0 0 47 47;" xml:space="preserve">
<style type="text/css">
	.st0{fill:#45D7E1;}
</style>
<path class="st0" d="M46.9,20.1c-0.2-0.3-0.5-0.6-0.9-0.6h-2.9C41.2,9.5,32.4,1.8,21.7,1.8C9.7,1.8,0,11.5,0,23.5
	s9.7,21.7,21.7,21.7c7.7,0,14.9-4.2,18.8-10.9c0.5-0.9,0.2-2.2-0.7-2.7c-0.9-0.5-2.2-0.2-2.7,0.7c-3.2,5.5-9.1,8.9-15.4,8.9
	c-9.8,0-17.8-8-17.8-17.8c0-9.8,8-17.8,17.8-17.8c8.4,0,15.5,5.9,17.3,13.8h-2.9c-0.4,0-0.7,0.2-0.9,0.6c-0.2,0.3-0.1,0.8,0.1,1.1
	l4.9,5.9c0.2,0.2,0.5,0.4,0.8,0.4c0.3,0,0.6-0.1,0.8-0.4l4.9-5.9C47,20.9,47.1,20.5,46.9,20.1z"/>
<g>
	<path class="st0" d="M32.1,18.8c-0.4,1.5-1.3,2.6-2.4,3.6c-1.2,1.1-2.3,2.3-3.5,3.5c-1,0.9-2.1,1.6-3.5,1.7
		c-1.3,0.1-2.3-0.5-3.2-1.4c-0.5-0.5-0.4-1.2,0-1.7c0.4-0.5,1.2-0.6,1.7-0.2c1.3,0.9,1.9,0.9,3.1-0.2c1.6-1.5,3.1-3,4.6-4.5
		c0.9-0.9,0.8-2.4-0.1-3.3c-1.1-1-2.2-1-3.3,0c-0.4,0.3-0.7,0.7-1.1,1c-0.6,0.6-1.4,0.6-1.9,0c-0.5-0.5-0.5-1.2,0-1.8
		c0.7-0.7,1.4-1.5,2.3-2.1c2.6-1.5,6-0.1,7,2.9c0.1,0.2,0.2,0.5,0.3,0.7C32.1,17.7,32.1,18.3,32.1,18.8z"/>
	<path class="st0" d="M15.2,34.1c-1.3-0.4-2.4-0.9-3.2-2c-1.4-1.9-1.4-4.4,0.1-6.1c1.7-1.8,3.4-3.5,5.2-5.1c1.3-1.1,2.9-1.7,4.6-1.1
		c0.5,0.2,1.1,0.5,1.5,0.9c0.6,0.5,0.6,1.3,0.1,1.9c-0.5,0.5-1.2,0.6-1.8,0.1c-0.7-0.6-1.5-0.6-2.2-0.1c-0.5,0.3-0.9,0.6-1.3,1
		c-1.3,1.2-2.5,2.5-3.8,3.8c-1,1-1.1,2.5-0.1,3.5c0.9,0.9,2.4,0.9,3.4-0.1c0.3-0.3,0.7-0.7,1-1c0.6-0.5,1.3-0.5,1.8,0
		c0.5,0.5,0.5,1.2,0,1.8c-1.1,1.2-2.3,2.2-4,2.5C16.1,34.1,15.6,34.1,15.2,34.1z"/>
</g>
</svg>
