<?xml version="1.0" encoding="iso-8859-1"?>
<!-- Generator: Adobe Illustrator 19.2.0, SVG Export Plug-In . SVG Version: 6.00 Build 0)  -->
<svg version="1.1" id="Layer_1" xmlns="http://www.w3.org/2000/svg" xmlns:xlink="http://www.w3.org/1999/xlink" x="0px" y="0px"
	 viewBox="0 0 20 20" style="enable-background:new 0 0 20 20;" xml:space="preserve">
<path style="fill:#2BB4A0;" d="M18.047,6.817c-0.132-0.256-0.774-0.844-1.858-0.31c-1.084,0.533-0.56,1.704-0.56,1.704
	c0.404,0.828,0.631,1.758,0.631,2.742c0,3.458-2.803,6.261-6.261,6.261c-3.457,0-6.26-2.803-6.26-6.261
	c0-3.236,2.455-5.898,5.604-6.226V6.35c0,0-0.004,0.097,0.096,0.158c0.101,0.061,0.201,0,0.201,0l5.194-3.06
	c0,0,0.116-0.061,0.116-0.181c0-0.099-0.116-0.169-0.116-0.169L9.658,0.055c0,0-0.118-0.084-0.223-0.043
	C9.33,0.052,9.343,0.195,9.343,0.195v1.738C4.654,2.27,0.953,6.178,0.953,10.954C0.953,15.95,5.004,20,10,20
	c4.996,0,9.047-4.05,9.047-9.046C19.047,9.463,18.686,8.057,18.047,6.817L18.047,6.817z M18.047,6.817"/>
</svg>
