<svg xmlns="http://www.w3.org/2000/svg" viewBox="0 0 106.004 104.539">
  <defs>
    <style>
      .cls-1 {
        fill: #4ccb8a;
      }
    </style>
  </defs>
  <path id="Union_12" data-name="Union 12" class="cls-1" d="M64.974,104.406c-.831-3.833-1.7-7.8-2.6-11.69l.044-.014A40.344,40.344,0,0,0,88.334,73.413,39.445,39.445,0,0,0,93.721,56.1,40.872,40.872,0,0,0,27.872,20.658a40.708,40.708,0,0,0-9.108,9.854A39.827,39.827,0,0,0,13.3,43.242c-3.319,14.024.02,26.659,9.929,37.572.02.034.065.089.109.153s.075.1.119.164l.569.767L34.485,65.543c.2.855.371,1.687.559,2.508l1.213,5.5c1.622,7.387,3.308,15.03,4.971,22.539-8.385,1.84-16.914,3.724-25.156,5.54l-5.4,1.193c2.024-3.186,4.116-6.457,6.194-9.687a1.156,1.156,0,0,0-.184-1.642A52.3,52.3,0,0,1,.842,62.282,49.516,49.516,0,0,1,.089,55.8a1.978,1.978,0,0,0-.068-.47c-.01-.031-.01-.065-.02-.1V50.612c.02-.331.055-.668.089-1,.075-.733.14-1.479.218-2.222A51.845,51.845,0,0,1,5.922,28.683,52.541,52.541,0,0,1,28.945,5.758,51.02,51.02,0,0,1,46.339.426,58.7,58.7,0,0,1,53.314,0,51.681,51.681,0,0,1,84.6,10.488,51.908,51.908,0,0,1,104.57,40.911a50.248,50.248,0,0,1,1.049,18.062,54.493,54.493,0,0,1-6.467,20.035A54.4,54.4,0,0,1,85.336,94.883,51.77,51.77,0,0,1,65,104.539Zm-17.166-34.2a4.813,4.813,0,0,1-3.414-1.39c-3.452-3.22-6.668-6.648-9.874-10.1a6.445,6.445,0,0,1-1.172-1.707,2.643,2.643,0,0,1,.218-2.746,7.355,7.355,0,0,1,1.227-1.315c.756-.668,1.5-1.336,2.256-2a2.845,2.845,0,0,1,4.378.2c1.741,1.816,3.5,3.612,5.244,5.431a2.46,2.46,0,0,0,2.845.624,4.838,4.838,0,0,0,1.819-1.281Q58.9,48.039,66.473,40.165c1.469-1.52,2.9-3.073,4.5-4.464a4.578,4.578,0,0,1,2.078-1.152,2.59,2.59,0,0,1,2.354.569,34.092,34.092,0,0,1,2.726,2.617,2.407,2.407,0,0,1,.525,2.627,7.015,7.015,0,0,1-1.8,2.671c-8.45,8.474-16.706,17.145-25.136,25.64A5.068,5.068,0,0,1,47.9,70.208Z"/>
</svg>
