<?xml version="1.0" encoding="utf-8"?>
<!-- Generator: Adobe Illustrator 19.2.0, SVG Export Plug-In . SVG Version: 6.00 Build 0)  -->
<svg version="1.1" id="Layer_1" xmlns="http://www.w3.org/2000/svg" xmlns:xlink="http://www.w3.org/1999/xlink" x="0px" y="0px"
	 viewBox="0 0 400 400" style="enable-background:new 0 0 400 400;" xml:space="preserve">
<style type="text/css">
	.st0{fill:#BEC3C7;}
</style>
<g>
	<path class="st0" d="M131.7,307.8c0.9-1,1.7-1.8,2.5-2.6c0.3-0.3,0.6-0.6,0.8-0.8c0.2-0.3,0.3-0.7,0.6-1.1
		c-6.5-0.2-12.2-2.2-16.7-6c-4.7-4-5.5-10.4-5.7-12.9c0-0.4,0-0.7-0.1-1.1c-28.5,0-56.6,0-83.9,0.1c-3.4,0-4.4-0.8-4.4-4.4
		c0.1-67.4,0.1-134.8,0-202.3c0-3.5,0.9-4.4,4.4-4.4c96.7,0.1,203.3,0.1,300,0.1c1.1,0,2.3,0,3.9,0c0,1.7,0,3,0,4.2
		c0,19.5,0,39,0,58.5l0.7-0.7c2.2-2.3,5.5-3.7,8.7-3.7c1.2,0,2.4,0.2,3.6,0.6c3.9,1.3,7.1,2.5,9.9,3.7c0.6,0.2,1.2,0.5,1.8,0.8
		c0-32.4,0-64.8,0-97.2c0-2.1,0-4.1-0.2-6.2c-1.2-10.7-7-18-17.3-21.1c-3.7-1.1-7.9-1.3-11.8-1.3C237.3,10,136.1,10,44.9,10
		c-6.3,0-12.6,0-18.9,0c-6.2,0.1-11.8,1.7-16.8,5.6c-5,4-7.3,9.4-9.2,15.2c0,85.5,0,171,0,256.5c2.3,6.1,4.6,12.2,10.5,15.8
		c3.2,1.9,6.7,3.2,10,4.8c36,0,73.3,0,111,0C131.6,307.9,131.6,307.8,131.7,307.8z M149.1,36.9c0-0.6,1.1-1.5,1.9-1.8
		c0.9-0.3,2-0.1,3.1-0.1c54.9,0,119.9,0,174.8,0c1.2,0,2.5,0,4,0c0.1,1.5,0.2,2.4,0.2,3.3c0,2.8,0,5.7,0,8.8c-58,0-125.9,0-184.1,0
		C149,43.7,148.9,40.3,149.1,36.9z M118.9,28.6c6.8,0,12.3,5.5,12.3,12.4c0,6.7-5.8,12.5-12.4,12.4c-6.8-0.1-12.4-5.8-12.4-12.5
		C106.4,34.3,112.1,28.6,118.9,28.6z M80.6,28.6c6.8-0.1,12.5,5.5,12.7,12.2c0.1,6.7-5.6,12.6-12.3,12.6
		c-6.7,0.1-12.5-5.6-12.6-12.3C68.3,34.3,73.8,28.7,80.6,28.6z M43.6,28.6C50.4,28.7,56,34.4,56,41.1c-0.1,6.7-5.9,12.4-12.5,12.4
		C36.7,53.4,31,47.7,31.1,41C31.1,34.2,36.9,28.6,43.6,28.6z"/>
</g>
<g>
	<path class="st0" d="M397.1,206.7c-0.1-0.7-0.8-1.6-1.4-1.8c-2.8-0.6-5.6-1.2-8.5-1.4c-3.7-0.3-6.8-1.4-8.6-4.7
		c-1.1-2-2.3-4.4-2.1-6.6c0.2-2.3,1.7-4.6,3.1-6.6c1.6-2.4,3.7-4.4,5.5-6.7c1.3-1.6,1.2-2.6,0-4.3c-2.1-2.8-4.2-5.7-6.3-8.5
		c-0.9-1.2-1.7-1.6-2.8-0.3c-0.3,0.3-0.7,0.4-1.1,0.6c-2.3,0.9-4.8,1.6-7,2.6c-4.2,1.9-10.4,0.2-13.1-3.6c-2.4-3.4-1.5-7-1.1-10.5
		c0.3-2.2,0.8-4.4,1.1-6.7c0.4-2.6,0.2-2.9-2.6-4.1c-3-1.3-6.1-2.4-9.3-3.5c-0.5-0.2-1.4,0.2-1.8,0.6c-2.3,2.4-4.6,4.7-6.6,7.3
		c-2.4,3-5.2,4.5-9,4.1c-3.4-0.4-6.2-1.7-7.7-4.9c-1.4-3.1-2.6-6.4-3.9-9.6c-0.9-2.2-2-3.7-4.9-3.1c-3.3,0.7-6.7,0.9-10,1.5
		c-0.6,0.1-1.4,0.9-1.5,1.6c-0.4,2.1-0.4,4.2-0.8,6.2c-0.5,2.6-0.6,5.3-2.3,7.5c-1.5,2-3.2,3.7-6,3.6c-0.6,0-1.2,0.1-1.8,0.2
		c0,0.2,0,0.4,0,0.5c0.3,0.2,0.6,0.5,0.9,0.6c3.3,0.8,6.3,2.3,9,4.4c2.5,1.9,4.7,4.1,5.2,7.4c0.2,1.3,0.6,2,2,1.8
		c1.8-0.3,3.7-0.9,5.5-1c6.8-0.3,13.5,0.3,19.9,2.8c4.4,1.7,8.6,3.3,12.6,6c5.2,3.5,9.5,7.8,13.2,12.8c4.1,5.6,6.8,11.8,8.2,18.5
		c0.9,4.3,1.4,8.7,0.8,13.2c-0.5,4.5-1.3,8.9-2.6,13.3c-1.1,3.4-2.8,6.4-4.6,9.4c-0.2,0.4-0.3,1-0.2,1.4c0.4,4.1,0.9,8.1,1.3,12.2
		c0.1,1.1,0.2,2.2,0.3,3.3c0.3,4-0.1,7.7-2.7,11c-2.2,2.7-5.3,4.1-8.3,5.4c-3.4,1.4-7,2.1-10.5,3.2c-0.6,0.2-0.9,1.3-1.3,2
		c0.7,0.1,1.4,0.4,2,0.2c1.7-0.6,3.5-1,5.2-0.2c2,0.9,3.9,2,5.7,3.2c0.8,0.5,1.3,1.6,2,2.3c1.5,1.4,3.1,2.8,4.7,4.1
		c0.4,0.3,1.2,0.3,1.6,0.1c1.9-1.2,3.7-2.6,5.4-3.9c0.6-0.5,1-1.2,1.7-1.7c1.1-0.8,2.2-1.4,3.3-2.2c0.8-0.5,0.9-1.2,0.5-2.2
		c-1.2-2.9-2.2-5.9-3.5-8.7c-1.4-3.2-1.2-6.1,0.6-9.1c2.4-4.1,7.3-6.5,11.9-5.4c3,0.7,6,1.3,9,1.8c0.6,0.1,1.6-0.4,1.9-0.9
		c1.9-3.3,3.6-6.6,5.4-10c0.5-1,0.5-1.9-0.4-2.7c-2.6-2.2-5.2-4.3-7.7-6.6c-1-0.9-2.1-1.8-2.7-2.9c-3-5.2-1.6-11.3,3.6-14.3
		c3-1.7,6.6-2.5,9.9-3.7c1.4-0.5,3.2-1,3.1-2.8C398.1,214.4,397.6,210.6,397.1,206.7z"/>
	<path class="st0" d="M264.8,232.5c-0.5-2.1-1-4.3-1.4-6.4c0.1,0,0.2,0,0.3-0.1c-0.1-1.8-0.2-3.7-0.4-5.5c-0.1-0.5-0.5-1.2-0.9-1.4
		c-2.1-1.1-4.3-2.3-6.6-3.1c-3.5-1.2-7.2-2.1-10.8-3c-0.7-0.2-1.8,0.2-2.4,0.6c-3.7,2.4-7.7,3.8-11.9,5.1c-1.2,0.4-2.3,1-2.1,2.6
		c0.5,4.1,0.9,8.1,1.4,12.2c0.1,0.5,0.9,1.2,1.5,1.3c2.6,0.6,5.2,1,7.8,1.5c1,0.2,2.3,0.2,3,0.8c2,1.6,3.9,3.4,5.4,5.5
		c1.1,1.5,2,3.6,1.8,5.3c-0.2,2-1.5,4.1-2.8,5.9c-1.9,2.6-4.3,4.9-6.4,7.4c-0.3,0.3-0.1,1.1,0,1.6c0.2,0.5,0.6,0.9,0.9,1.4
		c2.2,3,4.3,6,6.6,8.9c0.3,0.4,1.3,0.7,1.9,0.6c2.3-0.6,4.6-1.2,6.7-2.3c4.3-2.1,8.3-1.9,12.1,1c2.9,2.1,4.4,4.9,4.1,8.4
		c-0.4,3.8-1.3,7.6-1.8,11.4c-0.1,0.7,0.4,2.1,0.9,2.3c1.9,0.8,3.7,2.4,6,1.9c0.3-0.1,0.7,0.3,1,0.5c1.1,0.8,2.3,0.3,2.4-0.6
		c0.3-1.5,1.5-1.6,2.2-2.4c0.6-0.7,1.3-1.3,1.6-2.1c0.9-2.1,1-4.5,2.2-6.6c1.4-2.6,2-5.7,2.6-8.6c0.6-2.9,0.6-5.8,1.1-8.7
		c0.3-1.7-0.3-2.3-1.6-3.1c-2.9-1.8-5.9-3.5-8.5-5.8C273,251.6,267.2,243.1,264.8,232.5z"/>
	<path class="st0" d="M344.2,299.1c-1.3-1.1-3-1.9-4-3.1c-2.3-2.8-5.2-4.8-8.1-6.9c-1.5-1.1-2.7-2.5-2.4-4.6
		c0.2-1.6,0.4-3.3,0.8-4.9c0.1-0.5,0.7-1,1.2-1.2c2.3-0.8,4.6-1.5,6.8-2.3c2.9-1,5.7-1.9,8.5-2.9c4.4-1.6,6.5-5.4,5.9-10.2
		c-0.3-2-0.5-4.1-0.7-6.1c-0.3-3-0.3-6-0.7-9c-0.4-2.5-1.3-5-4.1-6c-1.5-0.6-3.1-1-4.7-1.3c-3.7-0.7-7.4-1.6-11.2-2
		c-1.9-0.2-3.2-0.8-4.5-2.1c-2.3-2.4-2.3-7.2-1-8.8c2.9-3.4,5.8-6.9,8.6-10.3c1.7-2,2.8-4.4,2.5-6.9c-0.2-2-1.1-4.1-2.3-5.8
		c-3.1-4.6-6.4-9.1-9.8-13.5c-1.2-1.6-2.9-2.7-5-2.2c-1.1,0.3-2.2,0.9-3.3,1.3c-3.6,1.4-7.2,2.7-10.8,4c-2.3,0.8-4.2,2.3-7,0.6
		c-3.5-2.1-5.8-4.7-4-9.9c1.3-3.9,1.7-8.1,2.1-10.4c0.3-6.1-1.9-9.1-5.6-10.9c-5.3-2.6-10.8-4.7-16.6-5.9c-2.3-0.5-4.1,0.1-5.6,1.6
		c-3.4,3.7-6.6,7.6-10,11.2c-1.1,1.2-2.5,2.4-4,2.7c-4.7,0.9-7.3-2.9-8.6-6.1c-1.6-4-3-8-4.6-12c-0.8-2.1-2.4-4-4.6-4.2
		c-3.6-0.4-7.2-0.1-10.8,0.1c-2.9,0.2-5.8,0.7-8.7,1.1c-2.9,0.4-6.4,1.7-7,5.5c-0.5,3.4-1.2,6.8-1.8,10.2c-0.2,1.1-0.3,2.2-0.4,3.3
		c-0.4,3.1-1.7,5.1-5.1,5.9c-3,0.7-5.5,0.3-7.8-1.6c-2.7-2.2-5.1-4.6-7.8-6.8c-4-3.1-7.9-4-12.7-0.5c-4.4,3.1-8.6,6.4-13.1,9.3
		c-3.1,2-3.2,5.8-2.3,8.5c0.5,1.5,1.6,2.8,2.2,4.2c0.8,2.1,1.1,4.5,2.1,6.3c2.4,4.1-0.2,8.3-3.2,10.9c-1.1,1-2.6,1.3-3.7,0.9
		c-2.1-0.9-4.5-0.8-6.5-1.5c-2.7-0.9-5.4-1.1-8.2-1.1c-0.8,0-1.7-0.3-2.4,0.1c-2,1.1-3.8,2.5-4.7,4.7c-2,4.5-3.9,9.1-6.1,13.5
		c-1.2,2.4-0.8,4.9-0.9,7.3c0,0.4,0.4,0.9,0.7,1.3c3.1,3.8,6.8,6.9,10.8,9.6c3,2,4,7,2.1,10.2c-1.3,2.3-3.6,2.7-5.7,3.6
		c-3.4,1.4-6.9,2.5-10.2,3.9c-1.3,0.5-2.4,1.5-3.4,2.6c-2.4,2.5-1.7,5.9-1.2,8.6c0.8,4.2,1.1,8.3,1.3,12.5c0.1,2,0.7,4.6,2.1,5.8
		c3,2.5,6.8,3.7,10.9,3.7c2.1,0,4.2,0.7,6.3,1.3c2.9,0.8,4,3.3,5.1,5.7c0.7,1.7,0.5,3.1-0.7,4.4c-1,1.1-1.8,2.3-2.6,3.5
		c-0.4,0.6-0.6,1.5-1.1,2c-1.3,1.4-2.7,2.7-4,4.1c-2.9,3.3-3.3,6.9-1.4,10c3.5,5.8,7.1,11.6,12.1,16.3c0.8,0.8,2.1,1.1,3.2,1.4
		c2.7,0.6,5.2-0.7,7.7-1.5c2-0.7,4-1.4,6-2.3c2.6-1.2,5.2-2.1,7.9-0.3c0.6,0.4,1.1,0.9,1.7,1.3c1.8,1.2,2.8,2.9,2.4,5.1
		c-0.8,4.3-2,8.6-2.3,13c-0.2,3.9,0,7.1,4.1,9.1c2.5,1.2,4.9,2.6,7.4,3.7c3.4,1.5,6.9,3.2,10.5,4.3c2.4,0.7,5,0.5,6.8-1.8
		c2.6-3.3,5-6.6,7.6-9.8c3.7-4.7,6.8-5.8,11.5-0.9c2,2.1,2.7,5.5,4,8.4c1.2,2.6,2.1,5.4,3.5,7.8c1.3,2.2,3.4,3.4,6.2,3.3
		c2.4-0.2,4.8-0.4,7.2-0.3c4.3,0.2,8.5-0.9,12.7-1.4c1.7-0.2,4.2-2.9,4.5-4.5c0.8-4.9,1.6-9.8,2.4-14.6c0.8-5,6.6-7.6,10.7-4.6
		c3.4,2.5,6.5,5.3,9.8,8c2.9,2.4,6,4,9.8,2.3c1.5-0.7,3-1.5,4.3-2.4c3.9-2.8,7.9-5.7,11.7-8.7c1.8-1.4,3.4-3.4,2.8-5.8
		c-0.8-2.9-2.1-5.7-3.2-8.6c-1.1-2.8-2.2-5.6-3.2-8.5c-0.2-0.5,0-1.2,0.1-1.7c0.2-0.8,0.7-1.5,1-2.3c0.8-2,4.3-4.2,6.2-3.8
		c2.9,0.5,5.7,1.1,8.6,1.7c2,0.4,3.9,1,5.9,1.3c1.9,0.2,4,0.5,5.5-1.1c1.7-1.7,3.6-3.2,4.2-5.7c0.1-0.5,0.6-0.9,0.9-1.4
		c1.7-3.1,3.4-6.2,5-9.3c0.5-1,0.8-2,1.4-2.9C348,304.3,346.4,300.8,344.2,299.1z M237.6,325.6c-32.6,0-59-26.4-59-59
		c0-32.6,26.4-59,59-59c32.6,0,59,26.4,59,59C296.6,299.2,270.2,325.6,237.6,325.6z"/>
</g>
</svg>
