<?xml version="1.0" encoding="utf-8"?>
<!-- Generator: Adobe Illustrator 19.2.0, SVG Export Plug-In . SVG Version: 6.00 Build 0)  -->
<svg version="1.1" id="Layer_1" xmlns="http://www.w3.org/2000/svg" xmlns:xlink="http://www.w3.org/1999/xlink" x="0px" y="0px"
	 viewBox="0 0 40 40" style="enable-background:new 0 0 40 40;" xml:space="preserve">
<style type="text/css">
	.st0{fill:#609DD5;}
	.st1{fill:#494E56;}
</style>
<g>
	<path class="st0" d="M18.4,13.2h1.5c0.2,1.2,0.7,2.3,1.3,3.2l-1,1c-0.4,0.4-0.4,1,0,1.4l1.1,1.1c0.4,0.4,1,0.4,1.4,0l1-1
		c1,0.6,2.1,1.1,3.2,1.3v1.5c0,0.5,0.4,1,1,1h1.6c0.5,0,1-0.4,1-1v-1.5c1.2-0.2,2.3-0.7,3.2-1.3l1,1c0.4,0.4,1,0.4,1.4,0l1.1-1.1
		c0.4-0.4,0.4-1,0-1.4l-1-1c0.6-1,1.1-2.1,1.3-3.2H39c0.5,0,1-0.4,1-1v-1.6c0-0.5-0.4-1-1-1h-1.5c-0.2-1.2-0.7-2.3-1.3-3.2l1-1
		c0.4-0.4,0.4-1,0-1.4l-1.1-1.1c-0.4-0.4-1-0.4-1.4,0l-1,1c-1-0.6-2.1-1.1-3.2-1.3V1.1c0-0.5-0.4-1-1-1h-1.6c-0.5,0-1,0.4-1,1v1.5
		c-1.2,0.2-2.3,0.7-3.2,1.3l-1-1c-0.4-0.4-1-0.4-1.4,0L20.2,4c-0.4,0.4-0.4,1,0,1.4l1,1c-0.6,1-1.1,2.1-1.3,3.2h-1.5
		c-0.5,0-1,0.4-1,1v1.6C17.5,12.8,17.9,13.2,18.4,13.2L18.4,13.2z M28.7,7.4c2.3,0,4.1,1.8,4.1,4.1c0,2.3-1.8,4.1-4.1,4.1
		s-4.1-1.8-4.1-4.1C24.6,9.2,26.5,7.4,28.7,7.4L28.7,7.4z M28.7,7.4"/>
	<g>
		<g>
			<path class="st1" d="M28.8,30.9c-0.1,0.3-0.4,0.4-0.7,0.3l-1.9-0.8c-0.3-0.1-0.7,0-0.9,0.3c-0.8,1.3-1.9,2.4-3.2,3.2
				c-0.3,0.2-0.4,0.6-0.3,0.9l0.8,1.9c0.1,0.3,0,0.6-0.3,0.7l-2,0.9c-0.3,0.1-0.6,0-0.7-0.3l-0.8-1.9c-0.1-0.3-0.5-0.5-0.8-0.4
				c-1.5,0.3-3,0.3-4.5,0c-0.3-0.1-0.7,0.1-0.8,0.4L11.7,38c-0.1,0.3-0.4,0.4-0.7,0.3l-2-0.8c-0.1-0.1-0.2-0.2-0.3-0.3
				c-0.1-0.1-0.1-0.3,0-0.4l0.8-1.9c0.1-0.3,0-0.7-0.3-0.9C7.9,33,6.8,32,5.9,30.7c-0.2-0.3-0.6-0.4-0.9-0.3l-1.9,0.8
				c-0.3,0.1-0.6,0-0.7-0.3l-0.8-2c-0.1-0.3,0-0.6,0.3-0.7l1.9-0.8c0.3-0.1,0.5-0.5,0.4-0.8c-0.3-1.5-0.3-3,0-4.5
				c0.1-0.3-0.1-0.7-0.4-0.8l-1.9-0.8c-0.1-0.1-0.2-0.2-0.3-0.3c-0.1-0.1-0.1-0.3,0-0.4l0.8-2c0.1-0.1,0.2-0.2,0.3-0.3
				c0.1-0.1,0.3-0.1,0.4,0L5,18c0.3,0.1,0.7,0,0.9-0.3c0.8-1.3,1.9-2.4,3.2-3.2c0.3-0.2,0.4-0.6,0.3-0.9l-0.8-1.9
				c-0.1-0.1-0.1-0.3,0-0.4c0.1-0.1,0.2-0.2,0.3-0.3l2-0.8c0.3-0.1,0.6,0,0.7,0.3l0.8,1.9c0.2,0.4,0.6,0.6,1,0.4
				c0.4-0.2,0.6-0.6,0.4-1l-0.8-1.9c-0.4-1.1-1.6-1.6-2.7-1.1l-2,0.8c-0.5,0.2-0.9,0.6-1.1,1.1c-0.2,0.5-0.2,1.1,0,1.6l0.5,1.3
				c-1,0.8-2,1.7-2.8,2.8l-1.3-0.5c-0.5-0.2-1.1-0.2-1.6,0C1.6,16.1,1.2,16.5,1,17l-0.8,2c-0.2,0.5-0.2,1.1,0,1.6
				c0.2,0.5,0.6,0.9,1.1,1.1l1.3,0.5c-0.2,1.3-0.2,2.6,0,3.9l-1.3,0.5c-1.1,0.4-1.6,1.6-1.1,2.7l0.8,2c0.4,1.1,1.6,1.6,2.7,1.1L5,32
				c0.8,1,1.7,2,2.8,2.8l-0.5,1.3c-0.2,0.5-0.2,1.1,0,1.6c0.2,0.5,0.6,0.9,1.1,1.1l2,0.8c1.1,0.4,2.3-0.1,2.7-1.1l0.5-1.3
				c1.3,0.2,2.6,0.2,3.9,0l0.5,1.3c0.3,0.8,1.1,1.3,1.9,1.3c0.3,0,0.5,0,0.8-0.2l2-0.8c1.1-0.4,1.6-1.6,1.1-2.7l-0.5-1.3
				c1-0.8,2-1.7,2.8-2.8l1.3,0.5c1.1,0.4,2.3-0.1,2.7-1.1l0.8-2c0.2-0.5,0.2-1.1,0-1.6c-0.2-0.5-0.6-0.9-1.1-1.1L28,25.9
				c-0.4-0.2-0.8,0-1,0.4c-0.2,0.4,0,0.8,0.4,1l1.9,0.8c0.1,0.1,0.2,0.2,0.3,0.3c0.1,0.1,0.1,0.3,0,0.4L28.8,30.9z M28.8,30.9"/>
		</g>
		<path class="st1" d="M15.6,19.1c0.4,0,0.7-0.3,0.7-0.8c0-0.4-0.3-0.7-0.8-0.7h0c-1.8,0-3.4,0.7-4.7,2c-1.2,1.3-1.9,2.9-1.9,4.7
			c0,1.8,0.7,3.4,2,4.7c1.3,1.2,2.9,1.9,4.7,1.9h0c1.8,0,3.4-0.7,4.7-2c1.2-1.3,1.9-2.9,1.9-4.7c0-0.4-0.3-0.7-0.8-0.7h0
			c-0.4,0-0.7,0.3-0.7,0.8c0,1.4-0.5,2.7-1.5,3.6c-1,1-2.3,1.5-3.6,1.5h0c-1.4,0-2.6-0.5-3.6-1.5c-1-1-1.5-2.3-1.5-3.6
			c0-1.4,0.5-2.7,1.5-3.6C12.9,19.6,14.2,19.1,15.6,19.1L15.6,19.1z M15.6,19.1"/>
	</g>
</g>
</svg>
