<?xml version="1.0" encoding="utf-8"?>
<!-- Generator: Adobe Illustrator 18.0.0, SVG Export Plug-In . SVG Version: 6.00 Build 0)  -->
<!DOCTYPE svg PUBLIC "-//W3C//DTD SVG 1.1//EN" "http://www.w3.org/Graphics/SVG/1.1/DTD/svg11.dtd">
<svg version="1.1" id="Layer_1" xmlns="http://www.w3.org/2000/svg" xmlns:xlink="http://www.w3.org/1999/xlink" x="0px" y="0px"
	 viewBox="0 0 23 23" enable-background="new 0 0 23 23" xml:space="preserve">
<g>
	<g>
		<path fill="#49BDED" d="M20,9.5l-1.3-0.2c-0.1-0.4-0.3-0.9-0.5-1.3l0.8-1.1c0.3-0.5,0.3-1.1-0.1-1.5l-1.2-1.2
			c-0.2-0.2-0.5-0.3-0.8-0.3c-0.2,0-0.5,0.1-0.7,0.2L15,4.8c-0.4-0.2-0.9-0.4-1.3-0.6L13.5,3c-0.1-0.6-0.6-1-1.2-1h-1.7
			c-0.6,0-1.1,0.4-1.2,1L9.2,4.3C8.8,4.5,8.4,4.7,7.9,4.9L6.9,4.1C6.7,3.9,6.4,3.9,6.2,3.9C5.9,3.9,5.6,4,5.3,4.2L4.2,5.4
			C3.8,5.8,3.7,6.4,4,6.9L4.8,8C4.6,8.4,4.4,8.9,4.3,9.3L3,9.5c-0.6,0.1-1,0.6-1,1.2v1.7c0,0.6,0.4,1.1,1,1.2l1.3,0.2
			c0.1,0.4,0.3,0.9,0.5,1.3l-0.8,1.1c-0.3,0.5-0.3,1.1,0.1,1.5l1.2,1.2c0.2,0.2,0.5,0.3,0.8,0.3c0.2,0,0.5-0.1,0.7-0.2L8,18.2
			c0.4,0.2,0.8,0.4,1.3,0.5L9.5,20c0.1,0.6,0.6,1,1.2,1h1.7c0.6,0,1.1-0.4,1.2-1l0.2-1.3c0.4-0.1,0.9-0.3,1.3-0.5l1.1,0.8
			c0.2,0.1,0.4,0.2,0.7,0.2c0.3,0,0.6-0.1,0.8-0.3l1.2-1.2c0.4-0.4,0.5-1,0.1-1.5L18.2,15c0.2-0.4,0.4-0.8,0.5-1.3l1.3-0.2
			c0.6-0.1,1-0.6,1-1.2v-1.7C21,10.1,20.6,9.6,20,9.5z M19.9,12.3L19.9,12.3c0,0.1,0,0.1-0.1,0.1l-1.7,0.3c-0.2,0-0.4,0.2-0.4,0.4
			c-0.2,0.6-0.4,1.1-0.7,1.7c-0.1,0.2-0.1,0.4,0,0.6l1,1.4c0,0,0,0.1,0,0.1l-1.2,1.2c0,0-0.1,0-0.1,0c0,0,0,0-0.1,0l-1.4-1
			c-0.2-0.1-0.4-0.1-0.6,0c-0.5,0.3-1.1,0.5-1.7,0.7c-0.2,0.1-0.4,0.2-0.4,0.4l-0.3,1.7c0,0.1-0.1,0.1-0.1,0.1h-1.7
			c-0.1,0-0.1,0-0.1-0.1l-0.3-1.7c0-0.2-0.2-0.4-0.4-0.4c-0.6-0.1-1.1-0.4-1.6-0.7C8.2,17,8.1,17,8,17c-0.1,0-0.2,0-0.3,0.1l-1.4,1
			c0,0,0,0-0.1,0c0,0,0,0-0.1,0L5,16.9c0,0,0-0.1,0-0.1l1-1.4c0.1-0.2,0.1-0.4,0-0.6c-0.3-0.5-0.5-1.1-0.7-1.7
			C5.2,13,5,12.8,4.8,12.8l-1.7-0.3c-0.1,0-0.1-0.1-0.1-0.1v-1.7c0-0.1,0-0.1,0.1-0.1l1.7-0.3c0.2,0,0.4-0.2,0.4-0.4
			c0.1-0.6,0.4-1.1,0.7-1.7C6,8.1,6,7.9,5.9,7.7l-1-1.4c0,0,0-0.1,0-0.1L6.1,5c0,0,0.1,0,0.1,0c0,0,0,0,0.1,0l1.4,1
			C7.8,6.1,8,6.1,8.2,6c0.5-0.3,1.1-0.5,1.7-0.7c0.2-0.1,0.4-0.2,0.4-0.4l0.3-1.7c0-0.1,0.1-0.1,0.1-0.1h1.7c0.1,0,0.1,0,0.1,0.1
			l0.3,1.7c0,0.2,0.2,0.4,0.4,0.4c0.6,0.2,1.2,0.4,1.7,0.7C15,6,15.2,6,15.4,5.9l1.4-1c0,0,0,0,0.1,0c0,0,0,0,0.1,0l1.2,1.2
			c0,0,0,0.1,0,0.1l-1,1.4C17,7.8,17,8,17.1,8.2c0.3,0.5,0.5,1.1,0.7,1.7c0.1,0.2,0.2,0.4,0.4,0.4l1.7,0.3c0.1,0,0.1,0.1,0.1,0.1
			V12.3z M11.5,7.4c-2.3,0-4.1,1.8-4.1,4.1c0,2.3,1.8,4.1,4.1,4.1c2.3,0,4.1-1.8,4.1-4.1C15.6,9.2,13.8,7.4,11.5,7.4z M11.5,14.5
			c-1.7,0-3-1.4-3-3c0-1.7,1.4-3,3-3s3,1.4,3,3C14.5,13.2,13.2,14.5,11.5,14.5z"/>
	</g>
</g>
</svg>
