<?xml version="1.0" encoding="utf-8"?>
<!-- Generator: Adobe Illustrator 21.1.0, SVG Export Plug-In . SVG Version: 6.00 Build 0)  -->
<svg version="1.1" id="Layer_1" xmlns="http://www.w3.org/2000/svg" xmlns:xlink="http://www.w3.org/1999/xlink" x="0px" y="0px"
	 viewBox="0 0 40 40" style="enable-background:new 0 0 40 40;" xml:space="preserve">
<style type="text/css">
	.st0{fill:#4ccb8a;}
</style>
<g>
	<g>
		<path class="st0" d="M38,15.8l-2.8-0.5c-0.3-0.9-0.7-1.9-1.1-2.7l1.7-2.3c0.7-1,0.6-2.3-0.3-3.2L33,4.6c-0.5-0.5-1.1-0.7-1.7-0.7
			c-0.5,0-1,0.2-1.4,0.5L27.4,6c-0.9-0.5-1.8-0.9-2.8-1.2L24.1,2c-0.2-1.1-1.2-2-2.4-2h-3.5C17,0,16,0.9,15.8,2.1l-0.5,2.8
			c-0.9,0.3-1.8,0.7-2.7,1.1l-2.3-1.7c-0.5-0.2-1-0.4-1.5-0.4C8.1,3.9,7.5,4.2,7,4.7L4.5,7.2c-0.9,0.9-1,2.2-0.3,3.2l1.7,2.3
			c-0.5,0.9-0.8,1.8-1.1,2.7L2,15.9c-1.1,0.2-2,1.2-2,2.4v3.5C0,23,0.9,24,2.1,24.2l2.8,0.5c0.3,0.9,0.7,1.8,1.1,2.7l-1.6,2.3
			c-0.7,1-0.6,2.3,0.3,3.2l2.5,2.5c0.5,0.5,1.1,0.7,1.7,0.7c0.5,0,1-0.2,1.4-0.5l2.3-1.7c0.8,0.4,1.7,0.8,2.6,1.1l0.5,2.8
			C16,39.1,17,40,18.2,40h3.5c1.2,0,2.2-0.9,2.4-2.1l0.5-2.8c0.9-0.3,1.9-0.7,2.7-1.1l2.3,1.7c0.4,0.3,0.9,0.5,1.4,0.5
			c0.7,0,1.3-0.3,1.7-0.7l2.5-2.5c0.9-0.9,1-2.2,0.3-3.2L34,27.4c0.5-0.9,0.8-1.8,1.1-2.7l2.8-0.5C39.1,24,40,23,40,21.8v-3.5
			C40,17,39.1,16,38,15.8z M37.8,21.8L37.8,21.8c0,0.1-0.1,0.2-0.2,0.2l-3.5,0.6c-0.4,0.1-0.8,0.4-0.9,0.8c-0.3,1.2-0.8,2.4-1.5,3.5
			c-0.2,0.4-0.2,0.9,0.1,1.2l2.1,2.9c0.1,0.1,0.1,0.2,0,0.3l-2.5,2.5c-0.1,0.1-0.1,0.1-0.2,0.1s-0.1,0-0.1,0l-2.9-2.1
			c-0.4-0.3-0.8-0.3-1.2-0.1c-1.1,0.7-2.3,1.1-3.5,1.5c-0.4,0.1-0.8,0.5-0.8,0.9L22,37.6c0,0.1-0.1,0.2-0.2,0.2h-3.5
			c-0.1,0-0.2-0.1-0.2-0.2l-0.6-3.5c-0.1-0.4-0.4-0.8-0.8-0.9c-1.2-0.3-2.3-0.8-3.4-1.4c-0.2-0.1-0.4-0.2-0.6-0.2
			c-0.2,0-0.5,0.1-0.7,0.2l-3,2.1H8.9c0,0-0.1,0-0.2-0.1l-2.5-2.5c-0.1-0.1-0.1-0.2,0-0.3l2.1-2.9c0.3-0.4,0.3-0.9,0.1-1.2
			c-0.7-1.1-1.2-2.3-1.5-3.5C6.8,23,6.4,22.6,6,22.6L2.5,22c-0.1,0-0.2-0.1-0.2-0.2v-3.5c0-0.1,0.1-0.2,0.2-0.2L6,17.5
			c0.4-0.1,0.8-0.4,0.9-0.8c0.3-1.2,0.8-2.4,1.4-3.5c0.2-0.4,0.2-0.9-0.1-1.2L6.1,9C6,8.9,6,8.8,6.1,8.7l2.5-2.5
			c0.1-0.1,0.1-0.1,0.2-0.1c0.1,0,0.1,0,0.1,0l2.9,2.1c0.4,0.3,0.9,0.3,1.2,0.1c1.1-0.7,2.3-1.2,3.5-1.5c0.5,0,0.8-0.4,0.9-0.8
			L18,2.4c0-0.1,0.1-0.2,0.2-0.2h3.5c0.1,0,0.2,0.1,0.2,0.2l0.6,3.5c0.1,0.4,0.4,0.8,0.8,0.9c1.3,0.3,2.5,0.8,3.6,1.5
			c0.4,0.2,0.9,0.2,1.2-0.1l2.9-2h0.1c0,0,0.1,0,0.2,0.1l2.5,2.5c0.1,0.1,0.1,0.2,0,0.3L31.7,12c-0.3,0.4-0.3,0.8-0.1,1.2
			c0.7,1.1,1.1,2.3,1.5,3.5c0.1,0.4,0.5,0.8,0.9,0.8l3.5,0.6c0.1,0,0.2,0.1,0.2,0.2L37.8,21.8L37.8,21.8z M20,11.4
			c-4.8,0-8.6,3.9-8.6,8.6c0,4.8,3.9,8.6,8.6,8.6c4.8,0,8.6-3.9,8.6-8.6C28.6,15.2,24.8,11.4,20,11.4z M20,26.4
			c-3.5,0-6.4-2.9-6.4-6.4s2.9-6.4,6.4-6.4s6.4,2.9,6.4,6.4S23.5,26.4,20,26.4z"/>
	</g>
</g>
</svg>
