<?xml version="1.0" encoding="utf-8"?>
<!-- Generator: Adobe Illustrator 18.0.0, SVG Export Plug-In . SVG Version: 6.00 Build 0)  -->
<!DOCTYPE svg PUBLIC "-//W3C//DTD SVG 1.1//EN" "http://www.w3.org/Graphics/SVG/1.1/DTD/svg11.dtd">
<svg version="1.1" id="Layer_1" xmlns="http://www.w3.org/2000/svg" xmlns:xlink="http://www.w3.org/1999/xlink" x="0px" y="0px"
	 viewBox="0 0 20 20" enable-background="new 0 0 20 20" xml:space="preserve">
<circle fill="#578EBF" cx="10" cy="10" r="9.8"/>
<g>
	<path fill="#FFFFFF" d="M4.4,12.6l3.2-0.5c0.1,0.6,0.4,1.1,0.8,1.4c0.4,0.3,1,0.5,1.7,0.5c0.8,0,1.4-0.2,1.9-0.5
		c0.3-0.2,0.4-0.5,0.4-0.8c0-0.2-0.1-0.4-0.2-0.6c-0.2-0.1-0.5-0.3-1.1-0.4c-2.6-0.6-4.2-1.1-4.9-1.5c-1-0.6-1.4-1.5-1.4-2.7
		c0-1,0.4-1.9,1.2-2.6c0.8-0.7,2.1-1.1,3.8-1.1c1.6,0,2.9,0.3,3.7,0.8c0.8,0.5,1.4,1.3,1.7,2.4l-3,0.6c-0.1-0.5-0.4-0.8-0.7-1.1
		C11.1,6.2,10.6,6,10,6C9.1,6,8.5,6.2,8.2,6.4C7.9,6.6,7.8,6.8,7.8,7c0,0.2,0.1,0.4,0.3,0.6c0.3,0.2,1.3,0.5,3,0.9
		c1.7,0.4,2.9,0.9,3.6,1.4c0.7,0.6,1,1.3,1,2.3c0,1.1-0.5,2-1.4,2.8c-0.9,0.8-2.3,1.2-4.1,1.2c-1.6,0-2.9-0.3-3.9-1
		C5.3,14.6,4.7,13.7,4.4,12.6z"/>
</g>
</svg>
