<?xml version="1.0" encoding="utf-8"?>
<!-- Generator: Adobe Illustrator 19.2.0, SVG Export Plug-In . SVG Version: 6.00 Build 0)  -->
<svg version="1.1" id="Layer_1" xmlns="http://www.w3.org/2000/svg" xmlns:xlink="http://www.w3.org/1999/xlink" x="0px" y="0px"
	 viewBox="0 0 35.3 40" style="enable-background:new 0 0 35.3 40;" xml:space="preserve">
<style type="text/css">
	.st0{fill:#66CCF5;}
</style>
<title>Sites_White-40</title>
<path class="st0" d="M10.5,27.3c1.6,1.8,3.2,3.5,4.9,5.3l2.2,2.3l0.6,0.6l0.6-0.6l2.1-2.5c1.6-1.9,3.2-3.7,4.7-5.5
	c1.7-2.1,3.3-4.3,4.9-6.5c1.6-2.4,2.3-5.4,1.9-8.3C31.4,6.6,27.3,1.9,21.7,0.5C16.1-1,10.2,1,6.6,5.6C3,10.3,2.8,16.9,6.1,21.8
	C7.4,23.8,8.9,25.6,10.5,27.3z M7.9,6.5c3.2-4.1,8.5-5.9,13.4-4.6c4.9,1.3,8.6,5.4,9.4,10.4c0.4,2.5-0.2,5.1-1.6,7.3
	C27.6,21.9,26,24,24.3,26c-1.5,1.9-3,3.6-4.7,5.5L18,33.3l-1.6-1.7c-1.7-1.8-3.3-3.5-4.8-5.3c-1.5-1.7-2.9-3.5-4.2-5.3
	C4.5,16.6,4.6,10.7,7.9,6.5z M17.9,21.5H18c2,0,3.9-0.7,5.3-2.1c1.4-1.3,2.2-3.2,2.2-5.2c0-2-0.8-3.8-2.2-5.2
	c-1.3-1.3-3.1-2.1-5-2.1l0,0c-4.1-0.2-7.5,3-7.7,7.1c0,0,0,0,0,0c0,0,0,0.1,0,0.1C10.7,18.1,13.9,21.4,17.9,21.5L17.9,21.5z
	 M18.3,8.4L18.3,8.4c1.5,0,2.9,0.6,3.9,1.7c1.1,1.1,1.7,2.6,1.7,4.1c0,1.5-0.6,3-1.8,4.1C21.1,19.4,19.5,20,18,20h-0.1
	c-3.2-0.1-5.7-2.7-5.7-5.9c0.1-3.2,2.7-5.8,6-5.7c0,0,0,0,0,0L18.3,8.4L18.3,8.4z M34.6,33.8c-0.5-0.5-1.1-0.9-1.8-1.2
	c-2.6-1.1-5.4-1.8-8.2-2c-0.7-0.1-1.3,0.2-1.5,0.9c1.4,0.2,2.9,0.3,4.3,0.5c1.3,0.2,2.5,0.5,3.7,1c1.3,0.5,1.3,1.6,0.1,2.3
	c-0.6,0.4-1.3,0.8-2.1,1c-3.1,0.9-6.4,1.4-9.7,1.4c-4,0.2-8.1-0.1-12.1-1C6,36.6,4.8,36,3.8,35.2c-0.5-0.3-0.7-1-0.4-1.5
	c0.1-0.2,0.3-0.3,0.5-0.4c0.5-0.4,1.2-0.6,1.8-0.8c2.3-0.4,4.5-0.8,6.9-1.2c-0.3-0.2-0.5-0.5-0.8-0.7c-0.1-0.1-0.3-0.1-0.5-0.1
	c-2.2,0.4-4.5,0.8-6.7,1.3c-1.3,0.3-2.6,0.9-3.6,1.7c-1.2,1-1.3,2.2,0,3.1c0.8,0.6,1.8,1,2.7,1.4c3.9,1.3,8,2,12.2,2
	c3.2,0.1,6.4,0,9.5-0.5c2.3-0.2,4.6-0.8,6.8-1.7c0.9-0.4,1.7-0.8,2.4-1.4c0.7-0.5,1-1.4,0.5-2.2C34.9,34.1,34.8,33.9,34.6,33.8z"/>
</svg>
