<?xml version="1.0" encoding="utf-8"?>
<!-- Generator: Adobe Illustrator 18.0.0, SVG Export Plug-In . SVG Version: 6.00 Build 0)  -->
<!DOCTYPE svg PUBLIC "-//W3C//DTD SVG 1.1//EN" "http://www.w3.org/Graphics/SVG/1.1/DTD/svg11.dtd">
<svg version="1.1" xmlns="http://www.w3.org/2000/svg" xmlns:xlink="http://www.w3.org/1999/xlink" x="0px" y="0px"
	 viewBox="0 0 18 18" enable-background="new 0 0 18 18" xml:space="preserve" height="18px">
<g id="Background">
	<g>
		<g>
			<path fill="#04496A" d="M13.7,4.8c0-2.6-2.1-4.7-4.7-4.7S4.3,2.2,4.3,4.8C4.3,8.5,9,14,9,14S13.7,8.5,13.7,4.8z M6.7,4.5
				c0-1.3,1-2.3,2.3-2.3s2.3,1,2.3,2.3c0,1.3-1,2.3-2.3,2.3S6.7,5.8,6.7,4.5z M10.1,4.5c0-0.6-0.5-1.1-1.1-1.1S7.9,3.9,7.9,4.5
				c0,0.6,0.5,1.1,1.1,1.1S10.1,5.1,10.1,4.5z M11.6,12.3c-0.4,0.6-0.7,1-1,1.4c2.9,0.2,4.9,0.8,5.6,1.3c-0.8,0.6-3.3,1.3-7.2,1.3
				s-6.3-0.8-7.2-1.3c0.7-0.5,2.6-1.1,5.6-1.3c-0.3-0.4-0.7-0.9-1-1.4c-3.6,0.4-6.2,1.4-6.2,2.7c0,1.6,4,2.8,8.9,2.8
				c4.9,0,8.9-1.3,8.9-2.8C17.9,13.8,15.3,12.7,11.6,12.3z"/>
		</g>
	</g>
</g>
<g id="Objects">
</g>
</svg>
