<?xml version="1.0" encoding="utf-8"?>
<!-- Generator: Adobe Illustrator 18.0.0, SVG Export Plug-In . SVG Version: 6.00 Build 0)  -->
<!DOCTYPE svg PUBLIC "-//W3C//DTD SVG 1.1//EN" "http://www.w3.org/Graphics/SVG/1.1/DTD/svg11.dtd">
<svg version="1.1" id="Layer_1" xmlns="http://www.w3.org/2000/svg" xmlns:xlink="http://www.w3.org/1999/xlink" x="0px" y="0px"
	 viewBox="0 0 23 23" enable-background="new 0 0 23 23" xml:space="preserve">
<g>
	<g>
		<path fill="#66CCF5" d="M16.4,12.9h-3.1c-0.9,0-1.5,0.6-1.5,1.4v2.2c0,0.8,0.7,1.4,1.5,1.4h3.1c0.9,0,1.5-0.6,1.5-1.4v-2.2
			C17.9,13.5,17.2,12.9,16.4,12.9z M16.8,16.5c0,0.2-0.2,0.4-0.4,0.4h-3.1c-0.2,0-0.4-0.2-0.4-0.4v-2.2c0-0.2,0.2-0.4,0.4-0.4h3.1
			c0.2,0,0.4,0.2,0.4,0.4V16.5z M23,9c0-0.1,0-0.2-0.1-0.3l-3.4-5.4C19.4,3.1,19.2,3,19,3H4C3.8,3,3.6,3.1,3.5,3.3L0.1,8.7
			C0.1,8.8,0,8.9,0,9c0,1.2,0.8,2.3,2,2.7v9c0,0.3,0.3,0.5,0.6,0.5h3.1c0,0,0,0,0,0h4.4c0,0,0,0,0,0h10.4c0.3,0,0.6-0.2,0.6-0.5
			v-8.9c0,0,0,0,0-0.1C22.2,11.2,23,10.2,23,9z M4.3,4h14.4l2.7,4.3H1.7L4.3,4z M16.4,9.3c-0.2,0.9-1.1,1.6-2.1,1.6s-2-0.7-2.1-1.6
			H16.4z M10.9,9.3c-0.2,0.9-1.1,1.6-2.1,1.6c-1.1,0-2-0.7-2.1-1.6H10.9z M1.2,9.3h4.3c-0.2,0.9-1.1,1.6-2.1,1.6
			C2.3,10.9,1.4,10.2,1.2,9.3z M9.5,20.2L9.5,20.2H6.3v-5.5c0-0.4,0.4-0.7,0.8-0.7h1.6c0.4,0,0.8,0.3,0.8,0.7V20.2z M19.9,20.2h-9.3
			v-5.5c0-1-0.9-1.7-1.9-1.7H7.1c-1.1,0-1.9,0.8-1.9,1.7v5.5h-2v-8.2c0.1,0,0.1,0,0.2,0c1.1,0,2.1-0.5,2.7-1.3
			c0.6,0.8,1.6,1.3,2.7,1.3s2.1-0.5,2.7-1.3c0.6,0.8,1.6,1.3,2.7,1.3c1.1,0,2.1-0.5,2.7-1.3c0.6,0.8,1.6,1.3,2.7,1.3
			c0.1,0,0.1,0,0.2,0V20.2z M19.7,10.9c-1.1,0-2-0.7-2.1-1.6h4.3C21.7,10.2,20.8,10.9,19.7,10.9z"/>
	</g>
</g>
</svg>
