<?xml version="1.0" encoding="utf-8"?>
<!-- Generator: Adobe Illustrator 18.0.0, SVG Export Plug-In . SVG Version: 6.00 Build 0)  -->
<!DOCTYPE svg PUBLIC "-//W3C//DTD SVG 1.1//EN" "http://www.w3.org/Graphics/SVG/1.1/DTD/svg11.dtd">
<svg version="1.1" id="Layer_1" xmlns="http://www.w3.org/2000/svg" xmlns:xlink="http://www.w3.org/1999/xlink" x="0px" y="0px"
	 viewBox="0 0 23 23" enable-background="new 0 0 23 23" xml:space="preserve">
<g>
	<g>
		<path fill="#A2A5A9" d="M21.3,18.7l-4.8-4.8c-0.7,1.1-1.7,2-2.8,2.8l4.8,4.8c0.8,0.8,2,0.8,2.8,0C22.1,20.7,22.1,19.4,21.3,18.7z
			 M16.7,9c0-4.3-3.5-7.8-7.8-7.8C4.6,1.2,1.1,4.7,1.1,9c0,4.3,3.5,7.8,7.8,7.8C13.2,16.8,16.7,13.3,16.7,9z M8.9,14.8
			c-3.2,0-5.9-2.6-5.9-5.9c0-3.2,2.6-5.9,5.9-5.9c3.2,0,5.9,2.6,5.9,5.9C14.8,12.2,12.1,14.8,8.9,14.8z M4.4,9h1.3
			c0-1.8,1.5-3.3,3.3-3.3V4.4C6.4,4.4,4.4,6.5,4.4,9z"/>
	</g>
</g>
</svg>
