<?xml version="1.0" encoding="utf-8"?>
<!-- Generator: Adobe Illustrator 18.0.0, SVG Export Plug-In . SVG Version: 6.00 Build 0)  -->
<!DOCTYPE svg PUBLIC "-//W3C//DTD SVG 1.1//EN" "http://www.w3.org/Graphics/SVG/1.1/DTD/svg11.dtd">
<svg version="1.1" id="Layer_1" xmlns="http://www.w3.org/2000/svg" xmlns:xlink="http://www.w3.org/1999/xlink" x="0px" y="0px"
	 viewBox="294.5 0 23 23" enable-background="new 294.5 0 23 23" xml:space="preserve">
<g>
	<g>
		<path fill="#00BFF3" d="M314.2,3.2H310V1.8c0-0.4-0.4-0.8-0.8-0.8h-6.5c-0.4,0-0.8,0.3-0.8,0.8v4.1c0,0.4,0.4,0.8,0.8,0.8h4.8
			c0.4,0,0.8-0.3,0.8-0.8c0-0.4-0.4-0.8-0.8-0.8h-4V2.5h5V4c0,0.4,0.4,0.8,0.8,0.8h4.2v15.7h-14.9V4.8h1.2c0.4,0,0.8-0.3,0.8-0.8
			c0-0.4-0.4-0.8-0.8-0.8h-2c-0.4,0-0.8,0.3-0.8,0.8v17.2c0,0.4,0.4,0.8,0.8,0.8h16.4c0.4,0,0.8-0.3,0.8-0.8V4
			C315,3.6,314.6,3.2,314.2,3.2z M304.9,15.7c0.2,0,0.4-0.1,0.5-0.2l4.2-4.1c0.3-0.3,0.3-0.8,0-1.1c-0.3-0.3-0.8-0.3-1.1,0l-3.6,3.6
			l-1.3-1.3c-0.3-0.3-0.8-0.3-1.1,0c-0.3,0.3-0.3,0.8,0,1.1l1.9,1.9C304.4,15.7,304.6,15.7,304.9,15.7z"/>
	</g>
</g>
</svg>
