<?xml version="1.0" encoding="utf-8"?>
<!-- Generator: Adobe Illustrator 19.2.0, SVG Export Plug-In . SVG Version: 6.00 Build 0)  -->
<svg version="1.1" id="Layer_1" xmlns="http://www.w3.org/2000/svg" xmlns:xlink="http://www.w3.org/1999/xlink" x="0px" y="0px"
	 viewBox="0 0 40 40" style="enable-background:new 0 0 40 40;" xml:space="preserve">
<style type="text/css">
	.st0{fill:#EEEEEE;}
</style>
<path class="st0" d="M38.3,21.8c-1.2-1.5-2.6-2.4-4.4-2.8c0.6-0.9,0.9-1.8,0.9-2.9c0-1.5-0.5-2.7-1.6-3.8c-1-1-2.3-1.6-3.8-1.6
	c-1.3,0-2.5,0.4-3.5,1.3c-0.8-2-2.1-3.6-3.9-4.8c-1.8-1.2-3.8-1.8-6-1.8c-2.9,0-5.5,1-7.5,3.1c-2.1,2.1-3.1,4.6-3.1,7.5v0.9
	c-1.6,0.8-2.9,1.9-3.9,3.4S0,23.5,0,25.3c0,2.6,0.9,4.8,2.7,6.6c1.8,1.8,4,2.7,6.6,2.7H32c2.2,0,4.1-0.8,5.7-2.3
	c1.6-1.6,2.3-3.4,2.3-5.7C40,24.9,39.4,23.2,38.3,21.8"/>
</svg>
