<?xml version="1.0" encoding="utf-8"?>
<!-- Generator: Adobe Illustrator 19.2.0, SVG Export Plug-In . SVG Version: 6.00 Build 0)  -->
<svg version="1.1" id="Layer_1" xmlns="http://www.w3.org/2000/svg" xmlns:xlink="http://www.w3.org/1999/xlink" x="0px" y="0px"
	 viewBox="0 0 40 40" style="enable-background:new 0 0 40 40;" xml:space="preserve">
<style type="text/css">
	.st0{clip-path:url(#SVGID_2_);}
	.st1{clip-path:url(#SVGID_4_);fill:#EEEEEE;}
</style>
<g>
	<g>
		<defs>
			<rect id="SVGID_1_" width="40" height="40"/>
		</defs>
		<clipPath id="SVGID_2_">
			<use xlink:href="#SVGID_1_"  style="overflow:visible;"/>
		</clipPath>
		<g class="st0">
			<defs>
				<rect id="SVGID_3_" width="40" height="40"/>
			</defs>
			<clipPath id="SVGID_4_">
				<use xlink:href="#SVGID_3_"  style="overflow:visible;"/>
			</clipPath>
			<path class="st1" d="M23.1,10.2c-0.2-0.2-0.4-0.2-0.6-0.2h-1.7c-0.2,0-0.4,0.1-0.6,0.2c-0.2,0.2-0.2,0.4-0.2,0.6V20h-5.8
				c-0.2,0-0.4,0.1-0.6,0.2c-0.2,0.2-0.2,0.4-0.2,0.6v1.7c0,0.2,0.1,0.4,0.2,0.6c0.2,0.2,0.4,0.2,0.6,0.2h8.3c0.2,0,0.4-0.1,0.6-0.2
				c0.2-0.2,0.2-0.4,0.2-0.6V10.8C23.3,10.6,23.3,10.4,23.1,10.2 M27.1,32.3c-2.2,1.3-4.5,1.9-7.1,1.9c-2.6,0-4.9-0.6-7.1-1.9
				c-2.2-1.3-3.9-3-5.2-5.2c-1.3-2.2-1.9-4.5-1.9-7.1s0.6-4.9,1.9-7.1c1.3-2.2,3-3.9,5.2-5.2c2.2-1.3,4.5-1.9,7.1-1.9
				c2.6,0,4.9,0.6,7.1,1.9c2.2,1.3,3.9,3,5.2,5.2c1.3,2.2,1.9,4.5,1.9,7.1s-0.6,4.9-1.9,7.1C31,29.3,29.3,31,27.1,32.3 M30,2.7
				C27,0.9,23.6,0,20,0c-3.6,0-7,0.9-10,2.7C6.9,4.5,4.5,6.9,2.7,10S0,16.4,0,20c0,3.6,0.9,7,2.7,10s4.2,5.5,7.3,7.3
				C13,39.1,16.4,40,20,40c3.6,0,7-0.9,10-2.7c3.1-1.8,5.5-4.2,7.3-7.3C39.1,27,40,23.6,40,20c0-3.6-0.9-7-2.7-10
				C35.5,6.9,33.1,4.5,30,2.7"/>
		</g>
	</g>
</g>
</svg>
