<?xml version="1.0" encoding="utf-8"?>
<!-- Generator: Adobe Illustrator 19.2.0, SVG Export Plug-In . SVG Version: 6.00 Build 0)  -->
<svg version="1.1" id="Layer_1" xmlns="http://www.w3.org/2000/svg" xmlns:xlink="http://www.w3.org/1999/xlink" x="0px" y="0px"
	 viewBox="0 0 40 40" style="enable-background:new 0 0 40 40;" xml:space="preserve">
<style type="text/css">
	.st0{fill:#FFFFFF;}
</style>
<g>
	<g>
		<path class="st0" d="M39.1,13.5c0-2-0.4-4-1.2-5.8c-2.3-4.7-6-7.3-11.2-7.7c-2.2-0.2-4.3,0-6.5,0v0c-0.7,0-1.4,0-2.1,0
			c-1.8,0-3.6-0.1-5.3,0.1C7,0.8,2.4,5.1,1.2,10.8c-0.4,1.9-0.3,5.7-0.3,7.6c0,0.9,0.1,1.7,0.3,2.6c1.1,5.5,5.7,9.8,11.2,10.5
			c0.3,0,0.4,0.2,0.4,0.5c0,1.8,0,3.7,0,5.5c0,0.4,0.1,0.9,0.3,1.2c0.8,1.5,2.7,1.7,3.9,0.4c2.2-2.4,4.5-4.8,6.7-7.2
			c0.2-0.2,0.4-0.3,0.7-0.3c1.6,0.1,3.2,0,4.8-0.5c5.3-1.7,8.6-5.2,9.6-10.7C39.1,18.8,39,15.2,39.1,13.5z M36.3,21.3
			c-1.4,4.5-4.5,7.1-9.1,7.9c-1.2,0.2-2.5,0.1-3.8,0.1c-0.3,0-0.5,0.1-0.7,0.3c-2.4,2.6-4.7,5.1-7.1,7.7c-0.1,0.1-0.2,0.2-0.3,0.3
			c0,0-0.1,0-0.1-0.1v-8.2c-0.6,0-1.1,0-1.6-0.1c-5.2-0.3-9.7-4.5-10.2-9.7c-0.2-2.3-0.3-6.5,0.2-8.8c1.1-4.4,4.9-7.9,9.5-8.3
			c1.5-0.1,3-0.1,4.6-0.1c2.7,0,5.3,0,8,0c5.5,0,10.1,3.8,10.9,9.2C36.9,14.2,37,18.7,36.3,21.3z M23,7.9c-1.8-0.7-3.6-0.8-5.5-0.5
			c-0.9,0.2-1.7,0.4-2.5,0.8c-2,1-2.3,3.9-0.4,5c0.1,0,0.1,0.1,0.1,0c1.6-1.6,3.5-2.3,5.7-2c1.5,0.2,2.2,1,2.1,2.3
			c0,0.7-0.4,1.2-0.9,1.5c-0.6,0.4-1.2,0.6-1.8,1c-1.8,1.1-2.8,3.3-2.3,5.5h2.6c0.6-1.8,0.8-2.1,2.5-3c0.3-0.2,0.7-0.3,1-0.6
			c0.4-0.3,0.9-0.6,1.3-0.9C27.1,15.1,27.2,9.6,23,7.9z M18.8,22.9c-1.1,0-2.1,1-2.1,2.2c0,1.2,1,2.2,2.1,2.1c1.1,0,2-1,2-2.1
			C20.8,23.9,19.9,23,18.8,22.9z"/>
	</g>
</g>
</svg>
