<?xml version="1.0" encoding="utf-8"?>
<!-- Generator: Adobe Illustrator 18.0.0, SVG Export Plug-In . SVG Version: 6.00 Build 0)  -->
<!DOCTYPE svg PUBLIC "-//W3C//DTD SVG 1.1//EN" "http://www.w3.org/Graphics/SVG/1.1/DTD/svg11.dtd">
 <svg version="1.1" id="Capa_1" xmlns="http://www.w3.org/2000/svg" xmlns:xlink="http://www.w3.org/1999/xlink" x="0px" y="0px"
 	                width="18px" height="18px" viewBox="11.45 -36.478 545.625 544.009"
 	                 enable-background="new 11.45 -36.478 545.625 544.009" xml:space="preserve">
       <g>
 	<path fill="#006699" d="M521.913,394.489c-0.322-2.86-3.657-5.01-6.541-5.01c-9.324,0-17.598-5.475-21.068-13.942
 		c-3.545-8.672-1.259-18.786,5.69-25.16c2.187-2,2.453-5.347,0.619-7.672c-4.772-6.06-10.196-11.534-16.118-16.278
 		c-2.319-1.861-5.722-1.602-7.732,0.625c-6.065,6.716-16.958,9.213-25.376,5.7c-8.76-3.685-14.284-12.561-13.743-22.09
 		c0.178-2.993-2.009-5.595-4.993-5.943c-7.6-0.879-15.267-0.906-22.889-0.061c-2.95,0.326-5.137,2.866-5.038,5.822
 		c0.332,9.435-5.259,18.156-13.932,21.708c-8.317,3.397-19.134,0.922-25.186-5.734c-2-2.193-5.348-2.462-7.678-0.646
 		c-6.098,4.784-11.644,10.263-16.46,16.273c-1.878,2.336-1.602,5.723,0.607,7.733c7.081,6.413,9.368,16.614,5.689,25.386
 		c-3.512,8.363-12.197,13.753-22.138,13.753c-3.226-0.104-5.524,2.062-5.877,4.995c-0.895,7.644-0.906,15.432-0.044,23.138
 		c0.32,2.873,3.756,5.003,6.672,5.003c8.86-0.226,17.366,5.259,20.934,13.942c3.557,8.672,1.27,18.78-5.689,25.159
 		c-2.177,2-2.453,5.341-0.619,7.667c4.727,6.021,10.152,11.501,16.096,16.284c2.331,1.878,5.723,1.613,7.744-0.613
 		c6.087-6.733,16.98-9.225,25.364-5.706c8.782,3.674,14.306,12.549,13.765,22.083c-0.176,2.994,2.022,5.601,4.993,5.943
 		c3.888,0.454,7.799,0.68,11.721,0.68c3.723,0,7.446-0.204,11.169-0.619c2.951-0.326,5.136-2.866,5.037-5.827
 		c-0.341-9.429,5.259-18.151,13.92-21.697c8.373-3.42,19.145-0.917,25.198,5.733c2.012,2.188,5.335,2.452,7.679,0.642
 		c6.086-4.773,11.621-10.247,16.46-16.274c1.878-2.331,1.613-5.723-0.608-7.732c-7.081-6.413-9.379-16.616-5.7-25.382
 		c3.459-8.252,11.82-13.792,20.814-13.792l1.258,0.033c2.917,0.237,5.601-2.01,5.955-4.988
 		C522.764,409.977,522.775,402.195,521.913,394.489z M420.97,439.939c-18.715,0-33.937-15.223-33.937-33.937
 		c0-18.714,15.223-33.937,33.937-33.937c18.714,0,33.937,15.224,33.937,33.937C454.906,424.717,439.684,439.939,420.97,439.939z"/>
 	<path fill="#006699" d="M245.631,229.852c73.989-0.004,100.61-74.087,107.581-134.94c8.585-74.968-26.864-131.39-107.581-131.39
 		c-80.704,0-116.172,56.417-107.581,131.389C145.027,155.763,171.64,229.857,245.631,229.852z"/>
 	<path fill="#006699" d="M326.904,434.084l-0.529,0.007c-8.284,0-17.505-5.863-18.598-15.675c-0.964-8.626-0.947-17.329,0.052-25.861
 		c1.09-9.059,8.479-15.604,17.574-15.604c0.113,0,0.227,0.001,0.342,0.004c5.042-0.04,9.334-2.543,10.954-6.399
 		c1.711-4.081,0.635-8.843-2.68-11.846c-6.913-6.289-7.74-16.887-1.904-24.146c5.373-6.705,11.569-12.832,18.404-18.195
 		c3.121-2.433,6.98-3.759,10.898-3.759c4.957,0,9.714,2.099,13.053,5.759c1.85,2.035,5.099,3.339,8.29,3.339
 		c1.282,0,2.49-0.217,3.494-0.626c4.025-1.649,6.632-5.741,6.477-10.178c-0.308-9.19,6.594-17.163,15.714-18.17
 		c4.121-0.457,8.321-0.689,12.478-0.689c2.608,0,5.235,0.103,7.857,0.284c-5.3-17.731-13.271-34.478-26.631-44.45
 		c-14.219-10.611-32.632-14.092-48.909-20.491c-7.922-3.113-15.02-6.204-21.681-9.723c-22.482,24.654-51.797,37.551-85.936,37.552
 		c-34.129,0-63.441-12.897-85.921-37.552c-6.661,3.52-13.758,6.612-21.681,9.723c-16.278,6.399-34.69,9.879-48.908,20.491
 		c-24.588,18.352-30.942,59.637-35.934,87.798c-4.122,23.247-6.89,46.968-7.698,70.583c-0.626,18.29,8.405,20.854,23.707,26.376
 		c19.161,6.91,38.943,12.04,58.857,16.245c38.462,8.122,78.107,14.364,117.583,14.644c28.576-0.203,57.239-3.538,85.479-8.441
 		c0.694-0.973,1.488-1.891,2.398-2.727c3.276-3.003,4.359-7.729,2.704-11.767C334.61,436.701,330.871,434.084,326.904,434.084z"/>
 </g>
 </svg>