<?xml version="1.0" encoding="utf-8"?>
<!-- Generator: Adobe Illustrator 21.1.0, SVG Export Plug-In . SVG Version: 6.00 Build 0)  -->
<svg version="1.1" id="Layer_1" xmlns="http://www.w3.org/2000/svg" xmlns:xlink="http://www.w3.org/1999/xlink" x="0px" y="0px"
	 viewBox="0 0 40 40" style="enable-background:new 0 0 40 40;" xml:space="preserve">
<style type="text/css">
	.st0{fill:#EEEEEE;}
</style>
<g>
	<path class="st0" d="M165.5-40.9c-0.3-0.2-0.7-0.3-1.1-0.3c-6.8,0-13.5,0-20.3,0c-0.1,0-0.2,0-0.3,0c-0.8,0.1-1.4,0.6-1.6,1.3
		c-2,7.2-4,14.3-6,21.5c-0.2,0.6-0.3,1.1-0.5,1.8c-0.2-0.5-0.4-0.9-0.5-1.3c-0.4-1-0.8-2-1.2-2.9c-0.3-0.7-0.8-1.2-1.6-1.2
		c-1.4,0-2.8,0-4.2,0c-0.7,0-1.2,0.3-1.6,0.9c-0.3,0.5-0.3,1.1-0.1,1.5c0.4,0.9,1.1,1.2,2,1.2c0.8,0,1.6,0,2.4,0
		c0.2,0,0.2,0,0.3,0.2c0.5,1.2,0.9,2.4,1.4,3.6c0.5,1.3,1,2.6,1.6,3.9c0.2,0.4,0.4,0.8,0.8,1c1.1,0.6,2.3,0,2.6-1.2
		c2.3-8,4.6-16,6.8-24c0.2-0.9,0.5-1.7,0.7-2.6c0.1,0,0.2,0,0.3,0c6.3,0,12.6,0,18.9,0c0.1,0,0.2,0,0.3,0c0.8,0,1.5-0.6,1.7-1.3
		C166.4-39.6,166.1-40.4,165.5-40.9z"/>
	<path class="st0" d="M165.4-13.8c-1.9-2.1-3.7-4.2-5.6-6.3c-0.4-0.5-0.9-1-1.3-1.5c0.1-0.1,0.1-0.1,0.2-0.2
		c2.1-2.4,4.3-4.8,6.4-7.1c0.2-0.2,0.3-0.4,0.1-0.6c-0.1-0.2-0.3-0.3-0.5-0.3c-1.3,0-2.6,0-3.9,0c-0.3,0-0.5,0.1-0.6,0.3
		c-1.3,1.5-2.5,2.9-3.8,4.4c-0.2,0.2-0.4,0.4-0.6,0.7c-1.5-1.7-2.9-3.4-4.3-5.1c-0.2-0.2-0.3-0.3-0.6-0.3c-1.4,0-2.8,0-4.2,0
		c-0.2,0-0.4,0-0.5,0.3c-0.1,0.2,0,0.4,0.1,0.6c1.7,1.9,3.5,3.9,5.2,5.8c0.4,0.5,0.9,1,1.3,1.5c0,0.1-0.1,0.1-0.1,0.1
		c-2.3,2.6-4.5,5.1-6.8,7.7c-0.1,0.2-0.2,0.3-0.2,0.6c0.1,0.2,0.3,0.3,0.5,0.3c1.4,0,2.8,0,4.1,0c0.2,0,0.4-0.1,0.5-0.3
		c1.1-1.4,2.3-2.8,3.5-4.1c0.4-0.4,0.7-0.9,1.1-1.3c0.3,0.4,0.6,0.7,0.9,1c1.3,1.5,2.5,3,3.8,4.5c0.1,0.1,0.3,0.2,0.4,0.2
		c1.5,0,3,0,4.4,0c0.2,0,0.3-0.1,0.4-0.3c0.1-0.2,0-0.3-0.1-0.5C165.4-13.7,165.4-13.7,165.4-13.8z"/>
</g>
<path class="st0" d="M20,38.1c-5.2,0-10.4,0-15.5,0c-0.9,0-1.8-0.2-2.6-0.8c-1.9-1.3-2.4-3.7-1.2-5.8c2.1-3.7,4.2-7.5,6.4-11.2
	c3-5.3,6-10.6,9-15.9c0.6-1.1,1.5-2,2.7-2.4c1.9-0.6,4,0.2,5,2c1.3,2.2,2.5,4.4,3.8,6.6c4,7,7.9,13.9,11.9,20.9
	c1.2,2.2,0.6,4.7-1.4,5.9c-0.8,0.5-1.7,0.6-2.6,0.6C30.3,38.1,25.1,38.1,20,38.1C20,38.1,20,38.1,20,38.1z M17.5,12.9
	c0,0.1,0.1,0.9,0.1,1.4c0.2,2.6,0.3,5.1,0.5,7.7c0.1,1.1,0.1,2.2,0.5,3.3c0.3,0.7,0.8,1.1,1.6,1c0.8,0,1.4-0.5,1.7-1.5
	c0.2-1.2,0.4-2.5,0.5-3.8c0.2-1.9,0.3-3.8,0.5-5.8c0.1-1.4,0.2-2.9-0.1-4.3c-0.2-0.6-0.4-1.2-1.1-1.5c-1.5-0.8-3.4,0-3.9,1.5
	C17.6,11.5,17.5,12.2,17.5,12.9z M17.6,31.2c0,1.6,1.1,2.7,2.8,2.6c1.5,0,2.7-1.2,2.7-2.7c0-1.5-1.2-2.7-2.7-2.7
	C18.7,28.4,17.6,29.6,17.6,31.2z"/>
</svg>
