<?xml version="1.0" encoding="utf-8"?>
<!-- Generator: Adobe Illustrator 18.0.0, SVG Export Plug-In . SVG Version: 6.00 Build 0)  -->
<!DOCTYPE svg PUBLIC "-//W3C//DTD SVG 1.1//EN" "http://www.w3.org/Graphics/SVG/1.1/DTD/svg11.dtd">
<svg version="1.1" id="Layer_1" xmlns="http://www.w3.org/2000/svg" xmlns:xlink="http://www.w3.org/1999/xlink" x="0px" y="0px"
	 viewBox="0 0 46 32" enable-background="new 0 0 46 32" xml:space="preserve">
<g>
	<g>
		<path fill="#4FC0EF" d="M21.3,8.5c0.1,0.1,0.3,0.2,0.5,0.2c0.2,0,0.4-0.1,0.5-0.2c0.1-0.1,0.2-0.3,0.2-0.5c0-0.2-0.1-0.4-0.2-0.5
			l-2.5-2.5c-0.1-0.1-0.3-0.2-0.5-0.2c-0.2,0-0.4,0.1-0.5,0.2c-0.1,0.1-0.2,0.3-0.2,0.5c0,0.2,0.1,0.4,0.2,0.5L21.3,8.5z M38.4,23.6
			c-0.1-0.1-0.3-0.2-0.5-0.2c-0.2,0-0.4,0.1-0.5,0.2c-0.1,0.1-0.2,0.3-0.2,0.5c0,0.2,0.1,0.4,0.2,0.5l2.5,2.5
			c0.1,0.1,0.3,0.2,0.5,0.2c0.2,0,0.4-0.1,0.5-0.2c0.1-0.1,0.2-0.3,0.2-0.5c0-0.2-0.1-0.4-0.2-0.5L38.4,23.6z M37.9,8.8
			c0.2,0,0.4-0.1,0.5-0.2l2.5-2.5c0.1-0.1,0.2-0.3,0.2-0.5c0-0.2-0.1-0.4-0.2-0.5c-0.1-0.1-0.3-0.2-0.5-0.2c-0.2,0-0.4,0.1-0.5,0.2
			l-2.5,2.5c-0.1,0.1-0.2,0.3-0.2,0.5c0,0.2,0.1,0.4,0.2,0.5C37.6,8.7,37.8,8.8,37.9,8.8z M44.8,15.4h-3.5c-0.4,0-0.7,0.3-0.7,0.7
			c0,0.4,0.3,0.7,0.7,0.7h3.5c0.4,0,0.7-0.3,0.7-0.7C45.5,15.7,45.2,15.4,44.8,15.4z M29.9,5.4c0.4,0,0.7-0.3,0.7-0.7V1.2
			c0-0.4-0.3-0.7-0.7-0.7c-0.4,0-0.7,0.3-0.7,0.7v3.5C29.2,5.1,29.5,5.4,29.9,5.4z M29.9,7.6c-2.5,0-4.8,1.1-6.4,2.9
			c-0.1,0.1-0.2,0.3-0.2,0.5c0,0.2,0.1,0.4,0.2,0.5c0.1,0.1,0.3,0.2,0.5,0.2c0.2,0,0.4-0.1,0.5-0.2C25.9,9.9,27.8,9,29.9,9
			c3.9,0,7.1,3.2,7.1,7.1c0,1.9-0.7,3.7-2.1,5c-0.1,0.1-0.2,0.3-0.2,0.5c0,0.2,0.1,0.4,0.2,0.5c0.1,0.1,0.3,0.2,0.5,0.2
			c0.2,0,0.4-0.1,0.5-0.2c1.6-1.6,2.5-3.7,2.5-6C38.4,11.4,34.6,7.6,29.9,7.6z M25.7,17.1c-0.2,0-0.4,0-0.6,0
			c-1.7-3.1-4.9-4.9-8.4-4.9c-4.3,0-8,2.7-9.2,6.8c-3.3,0.2-5.9,2.9-5.9,6.2c0,3.4,2.8,6.3,6.3,6.3h17.9c0.2,0,0.5,0,0.7,0
			c0,0,0.1,0,0.1,0c0.2,0,0.4,0,0.6-0.1c0,0,0.1,0,0.1,0c0.2,0,0.4-0.1,0.6-0.2c0,0,0,0,0,0c0.7-0.2,1.3-0.5,1.8-0.9c0,0,0,0,0.1,0
			c0.2-0.1,0.3-0.2,0.5-0.4c0.2-0.1,0.3-0.3,0.5-0.4c0,0,0,0,0,0l0,0c0.2-0.2,0.3-0.3,0.5-0.5c0.1-0.1,0.2-0.3,0.3-0.4
			c0,0,0.1-0.1,0.1-0.1c0.1-0.2,0.2-0.3,0.3-0.5c0,0,0,0,0-0.1c0.1-0.2,0.2-0.4,0.3-0.6c0,0,0,0,0-0.1c0.1-0.2,0.1-0.4,0.2-0.5
			c0,0,0-0.1,0-0.1c0-0.2,0.1-0.3,0.1-0.5c0-0.1,0-0.1,0.1-0.2c0-0.1,0-0.3,0.1-0.4c0-0.1,0-0.2,0-0.3c0-0.1,0-0.2,0-0.2
			c0-0.2,0-0.3,0-0.5c0-1.7-0.6-3.3-1.6-4.6C29.9,18.1,27.9,17.1,25.7,17.1z M25.7,30.1H7.8c-2.7,0-4.8-2.2-4.8-4.8
			c0-2.7,2.2-4.8,4.8-4.8l0.2,0c0.3,0,0.6-0.2,0.7-0.5c0.9-3.7,4.2-6.3,8-6.3c2.8,0,5.4,1.4,6.9,3.8c-1.3,0.4-2.4,1.1-3.3,2.1
			c-0.1,0.1-0.2,0.3-0.2,0.5c0,0.2,0.1,0.4,0.2,0.5c0.1,0.1,0.3,0.2,0.5,0.2c0.2,0,0.4-0.1,0.5-0.2c0.9-1,2.2-1.7,3.5-1.9
			c0.1,0,0.2,0,0.3,0c0.2,0,0.3,0,0.5,0c3.2,0,5.8,2.6,5.8,5.8C31.4,27.5,28.8,30.1,25.7,30.1z"/>
	</g>
</g>
</svg>
