<svg xmlns="http://www.w3.org/2000/svg" viewBox="0 0 74.56 87">
  <defs>
    <style>
      .cls-1 {
        fill: #288dde;
      }
    </style>
  </defs>
  <path id="Union_11" data-name="Union 11" class="cls-1" d="M4.539,86.985A4.625,4.625,0,0,1,.137,83.5,7.457,7.457,0,0,1,0,81.65V5.456c0-.391,0-.783.034-1.191A4.5,4.5,0,0,1,3.026.3c.254-.1.526-.2.78-.3H49.349c.117.154.288.137.459.171a13.538,13.538,0,0,1,6.916,3.722c4.69,4.757,9.446,9.446,14.153,14.186a12.144,12.144,0,0,1,3.672,8.853q.025,27.429,0,54.852c0,3.347-1.851,5.2-5.2,5.2H8.957c-.986,0-1.965.015-2.945.015C5.522,87,5.031,87,4.539,86.985ZM67.394,80.8c.763,0,.984-.187.984-.987q-.025-23.905.034-47.833c0-.763-.221-.917-.951-.917q-9.48.025-18.946.017a4.948,4.948,0,0,1-3.11-.934,4.771,4.771,0,0,1-1.888-4.063c.017-6.32-.017-12.623.017-18.946.017-.763-.221-.968-.951-.934-1.53.05-3.059.034-4.589,0-.576,0-.73.187-.713.73.017,1.614,0,3.23,0,4.843,0,.288.12.663-.408.646-.71-.014-1.421-.006-2.128,0-1.261.011-2.522.025-3.784-.07,0-1.683.017-3.417.117-5.131.034-.749-.151-1-.968-1q-11.472.05-22.939,0c-.749,0-.987.171-.987.968q.025,36.3,0,72.626c0,.8.221.987.987.987q15.05-.013,30.109-.013T67.394,80.8ZM49.7,7.036c0,5.707.017,11.435-.017,17.178,0,.73.375.663.85.663H64.385c.987,0,1.988-.017,2.975,0,.509.017.593-.154.372-.6a5.456,5.456,0,0,0-1-1.563L51.9,7.886a5.153,5.153,0,0,0-2.142-1.225A1.925,1.925,0,0,0,49.7,7.036ZM29.754,74.513a14.4,14.4,0,0,1-6.608-1.955A8.558,8.558,0,0,1,18.694,66a8.249,8.249,0,0,1,.372-3.347q2.781-9.2,5.573-18.4a5.432,5.432,0,0,0,.238-1.58c-.017-1.513.036-3.006-.034-4.5-.05-.783.238-.917.954-.917,1.714.017,3.431.1,5.2-.034.1,1.222-.358,5.453.3,6.116.408.408,1.188.324,1.977.238A7.6,7.6,0,0,1,34.41,43.5h.341A3.108,3.108,0,0,1,38,45.931q2.068,6.753,4.1,13.543a32.07,32.07,0,0,1,1.325,4.469,7.987,7.987,0,0,1-3.568,8.087,14.337,14.337,0,0,1-8.6,2.534Q30.509,74.564,29.754,74.513ZM26.373,63.246c-2.055,1.037-2.022,2.855-.017,4.01a9.246,9.246,0,0,0,4.656,1.071,9.149,9.149,0,0,0,4.74-1.054c2.041-1.155,2.092-2.989-.017-4.044a10.388,10.388,0,0,0-4.675-1.158A10.276,10.276,0,0,0,26.373,63.246Zm4.606-26.085c0-2.089-.05-3.839-.05-6.015,1.988,0,3.993-.034,6-.084.322,0,.355.187.355.442v5.268c0,.288-.05.492-.405.492C34.922,37.265,33.018,37.178,30.979,37.161Zm-.016.036h.016v.017Zm-.021.014s0-.006,0-.008l.017.008Zm-.017-.017c.013,0,.016,0,.017.008Zm.036,0c-.008-.009,0-.006,0,0Zm-.034-6.035Zm0,0Zm0,0Zm0,0Zm0,0ZM25.694,31.1c-.68,0-.85-.187-.833-.85q.055-2.37,0-4.74c-.017-.526.154-.663.68-.68,1.888,0,3.6-.084,5.389-.084v6.4C29.075,31.146,27.444,31.1,25.694,31.1Zm5.235-6.356V18.778c-1.8,0-3.388-.087-5.05-.087-.831,0-1.018-.221-1.018-1.035-.017-1.463,0-2.822,0-4.505-.017-.61.187-.747.763-.747,1.767.017,3.535-.017,5.336-.017,0,1.866-.017,5.346-.017,6.387,1.984,0,3.984-.05,5.968-.117.372-.017.372.238.372.509v5.168c0,.254.02.509-.372.509C34.955,24.843,33.018,24.74,30.929,24.74Zm0,.02Zm0-12.388v-.017h.017v.017Z" transform="translate(0)"/>
</svg>
