<?xml version="1.0" encoding="utf-8"?>
<!-- Generator: Adobe Illustrator 19.0.0, SVG Export Plug-In . SVG Version: 6.00 Build 0)  -->
<svg version="1.1" id="Layer_1" xmlns="http://www.w3.org/2000/svg" xmlns:xlink="http://www.w3.org/1999/xlink" x="0px" y="0px"
	 viewBox="0 0 150 150" style="enable-background:new 0 0 150 150;" xml:space="preserve">
<style type="text/css">
	.st0{fill:#FF6600;}
	.st1{fill:#424C5F;}
	.st2{fill:#FFFFFF;}
</style>
<g>
	<g>
		<path id="SVGID_1_" class="st0" d="M37.5,0h75C133.2,0,150,16.8,150,37.5v75c0,20.7-16.8,37.5-37.5,37.5h-75
			C16.8,150,0,133.2,0,112.5v-75C0,16.8,16.8,0,37.5,0z"/>
	</g>
	<g>
		<g>
			<defs>
				<path id="SVGID_2_" d="M37.5,0h75C133.2,0,150,16.8,150,37.5v75c0,20.7-16.8,37.5-37.5,37.5h-75C16.8,150,0,133.2,0,112.5v-75
					C0,16.8,16.8,0,37.5,0z"/>
			</defs>
			<clipPath id="SVGID_3_">
				<use xlink:href="#SVGID_2_"  style="overflow:visible;"/>
			</clipPath>
		</g>
	</g>
</g>
<g>
	<g>
		<path class="st1" d="M43.3,81c0.2,0.3,0.4,0.6,0.7,1c2.5-4.2,5.4-8.3,8.7-12.2l0.9-1c1-1,2.2-2.3,3.6-3.7h-0.7V29.3H36.9v44.2
			C39.5,75.8,40.8,77.4,43.3,81z"/>
		<path class="st1" d="M112.8,36.8v-7.5H93.2v12.9C99,40,105.5,38.1,112.8,36.8z"/>
		<path class="st1" d="M93.2,53.9v66.8h19.6V45.4C106.1,47.6,99.5,50.3,93.2,53.9z"/>
		<path class="st1" d="M53.3,102.3c0,0.1-0.1,0.1-0.1,0.2c-0.6,1.1-1.2,2.2-1.7,3.4c-1.2,2.5-2.5,5-4.1,7.2c-0.5,1-1.2,2-2.1,3.1
			c-1.2,1.4-2.4,1.7-3.2,1.7c-0.9,0-2.3-0.4-3.5-2.1c-1-1.5-1.5-3.1-1.7-4.4v9.3h19.6V95.5C55.4,97.7,54.4,99.9,53.3,102.3z"/>
	</g>
	<path class="st2" d="M44.2,87.3c0.5-1,1-1.9,1.5-2.8c2.6-4.6,5.6-8.9,9.1-12.8c6.4-6.7,26.4-29.6,70.6-33.9c0.1,0,0.3,0,0.4,0
		c0,0.1,0.1,0.1,0.1,0.2c-0.8,0.5-1.6,1.1-2.5,1.5C95.8,47,70.7,57.4,50.8,101.3c-1.9,3.6-3.5,7.5-5.8,10.5c-0.4,1-1.1,1.9-1.8,2.7
		c-0.9,1-1.6,0.9-2.4-0.2c-0.7-1.1-1.1-2.3-1.3-3.6c-3.3-20.8-12.1-30.2-15.7-34.4c-2.1-2.4-4.3-4.7-6.5-7c-0.4-0.5-0.8-1-1.1-1.6
		c-0.4-0.7-0.1-1.1,0.7-1c1.2,0.1,2.4,0.2,3.5,0.5c4.8,1.2,8.9,3.6,12.7,6.8c3.9,3.3,5,4.5,7.9,8.7c1,1.4,1.9,2.9,2.9,4.4
		C44,87.1,44.1,87.2,44.2,87.3z"/>
</g>
</svg>
