<?xml version="1.0" encoding="utf-8"?>
<!-- Generator: Adobe Illustrator 22.1.0, SVG Export Plug-In . SVG Version: 6.00 Build 0)  -->
<svg version="1.1" id="Layer_1" xmlns="http://www.w3.org/2000/svg" xmlns:xlink="http://www.w3.org/1999/xlink" x="0px" y="0px"
	 viewBox="0 0 20 20" style="enable-background:new 0 0 20 20;" xml:space="preserve">
<style type="text/css">
	.st0{fill-rule:evenodd;clip-rule:evenodd;fill:#009888;}
	.st1{fill:#FFFFFF;}
</style>
<g>
	<path class="st0" d="M2,0h16c1.1,0,2,0.9,2,2v16c0,1.1-0.9,2-2,2H2c-1.1,0-2-0.9-2-2V2C0,0.9,0.9,0,2,0z"/>
	<g>
		<g>
			<path class="st1" d="M16.1,13.4c1.1-1,1.8-2.4,1.8-4c0-2.9-2.4-5.2-5.3-5.2h0c-1.4,0-2.7,0.6-3.7,1.6C8.3,6.3,8,6.9,7.7,7.5H5.4
				C5.2,7.5,5,7.7,5,8s0.2,0.4,0.4,0.4h2C7.4,8.7,7.4,8.9,7.3,9.2H5.3C5,9.2,4.8,9.4,4.8,9.7s0.2,0.4,0.4,0.4h2.1
				c0,0.3,0.1,0.6,0.2,0.9H5.4c-0.2,0-0.4,0.2-0.4,0.4s0.2,0.4,0.4,0.4h2.5c0.3,0.5,0.6,1,1,1.4c0.1,0.1,0.2,0.2,0.3,0.3
				c-0.5,0.2-1.1,0.4-1.7,0.4c-0.4,0-0.8,0-1.1-0.1c-0.1,0-0.3,0-0.4,0.1c-0.6,0.6-1.3,0.8-1.6,0.9c-0.1,0-0.1,0-0.2,0.1
				c0.3-0.4,0.4-0.9,0.5-1.5c0-0.2,0-0.3-0.1-0.4C3.6,12.1,3,10.8,3,9.5c0-2.4,2-4.4,4.4-4.4h0c0.3,0,0.5,0,0.8,0.1
				c0.2,0,0.5-0.1,0.5-0.3c0-0.2-0.1-0.5-0.3-0.5C8,4.3,7.7,4.2,7.4,4.2h0c-2.9,0-5.3,2.3-5.3,5.2c0,1.5,0.6,3,1.8,4
				c-0.1,0.4-0.3,0.9-0.6,1.3c-0.2,0.2-0.2,0.5-0.1,0.7c0.1,0.2,0.3,0.3,0.6,0.3h0.1c0.3,0,0.5-0.1,0.8-0.2c0.3-0.1,1.1-0.3,1.8-0.9
				c0.4,0.1,0.7,0.1,1.1,0.1c0.9,0,1.7-0.3,2.5-0.7c0.7,0.4,1.6,0.7,2.5,0.7c0.4,0,0.7,0,1.1-0.1c0.7,0.6,1.5,0.9,1.8,0.9
				c0.3,0.1,0.5,0.1,0.8,0.2h0.1c0.2,0,0.5-0.1,0.6-0.3c0.1-0.2,0.1-0.5-0.1-0.7C16.4,14.3,16.2,13.8,16.1,13.4z M15.6,14.8
				c-0.2-0.1-1-0.3-1.6-0.9c-0.1-0.1-0.2-0.1-0.3-0.1c0,0-0.1,0-0.1,0c-0.4,0.1-0.7,0.1-1.1,0.1c-0.8,0-1.6-0.3-2.2-0.7
				c0,0,0,0-0.1,0C10,13,9.7,12.8,9.5,12.6c-0.4-0.4-0.7-0.9-0.9-1.4c0,0,0,0,0,0c-0.2-0.5-0.3-1.1-0.3-1.6c0-1.2,0.4-2.3,1.3-3.2
				s1.9-1.3,3.1-1.3h0c2.4,0,4.4,2,4.4,4.4c0,1.4-0.6,2.6-1.7,3.5c-0.1,0.1-0.2,0.3-0.1,0.4c0.1,0.6,0.3,1.1,0.5,1.5
				C15.7,14.8,15.6,14.8,15.6,14.8z M10.3,8.1h4.9c0.2,0,0.4-0.2,0.4-0.4s-0.2-0.4-0.4-0.4h-4.9c-0.2,0-0.4,0.2-0.4,0.4
				S10.1,8.1,10.3,8.1z M15.6,9.4c0-0.2-0.2-0.4-0.4-0.4h-4.9c-0.2,0-0.4,0.2-0.4,0.4s0.2,0.4,0.4,0.4h4.9
				C15.4,9.8,15.6,9.6,15.6,9.4z M12.8,10.7h-2.5c-0.2,0-0.4,0.2-0.4,0.4s0.2,0.4,0.4,0.4h2.5c0.2,0,0.4-0.2,0.4-0.4
				S13,10.7,12.8,10.7z"/>
		</g>
	</g>
</g>
</svg>
