<?xml version="1.0" encoding="utf-8"?>
<!-- Generator: Adobe Illustrator 23.0.1, SVG Export Plug-In . SVG Version: 6.00 Build 0)  -->
<svg version="1.1" id="Capa_1" xmlns="http://www.w3.org/2000/svg" xmlns:xlink="http://www.w3.org/1999/xlink" x="0px" y="0px"
	 viewBox="0 0 40 40" style="enable-background:new 0 0 40 40;" xml:space="preserve">
<style type="text/css">
	.st0{fill:#3A3A3A;}
</style>
<g>
	<path class="st0" d="M36.5,9.5c0-0.2-0.1-0.4-0.3-0.6c-2.9-2.9-5.8-5.8-8.7-8.7C27.4,0.1,27.2,0,26.9,0c-6,0-12,0-18,0
		C7.6,0,7,0.7,7,2c0,0.5,0,1,0,1.5c-0.5,0-1,0-1.5,0c-1.3,0-2,0.7-2,2c0,10.9,0,21.7,0,32.6c0,1.3,0.7,2,2,2c8.5,0,17.1,0,25.6,0
		c1.2,0,1.9-0.7,1.9-2c0-0.5,0-1,0-1.5c0.6,0,1.1,0,1.6,0c1.2,0,1.9-0.7,1.9-1.9C36.5,26.3,36.5,17.9,36.5,9.5z M27.8,3.1
		c1.8,1.8,3.7,3.7,5.5,5.5c-1.8,0-3.6,0-5.5,0C27.8,6.8,27.8,4.9,27.8,3.1z M31.3,38.2c-8.7,0-17.3,0-26,0c0-11,0-22,0-33
		c0.5,0,1.1,0,1.7,0c0,0.2,0,0.4,0,0.5C7,15.4,7,25,7,34.6c0,1,0.5,1.7,1.4,1.9c0.2,0,0.5,0,0.7,0c7.2,0,14.4,0,21.7,0
		c0.2,0,0.3,0,0.5,0C31.3,37.1,31.3,37.6,31.3,38.2z M34.8,34.8c-8.7,0-17.3,0-26,0c0-11,0-22,0-33c5.8,0,11.5,0,17.4,0
		c0,0.2,0,0.3,0,0.4c0,2.1,0,4.2,0,6.4c0,1.2,0.7,1.9,1.9,1.9c2.1,0,4.2,0,6.3,0c0.1,0,0.3,0,0.5,0C34.8,18.5,34.8,26.6,34.8,34.8z"
		/>
	<path class="st0" d="M31,24.8c-0.8-0.5-1.6-0.9-2.5-1.4c-0.4-0.2-0.9-0.5-1.3-0.8c-0.7-0.5-0.6-1.4,0.2-1.8c0.3-0.1,0.6-0.2,1-0.2
		c0.9-0.1,1.7,0.2,2.3,0.9c0.3-0.5,0.7-1,1.1-1.5c-0.7-0.3-1.3-0.7-1.9-0.9c-0.3-0.1-0.4-0.2-0.4-0.5c0-0.4,0-0.7,0-1.1
		c-0.6,0-1.2,0-1.7,0c0,0.5,0,1,0,1.5c-0.3,0.1-0.6,0.2-0.9,0.3c-1.7,0.6-2.9,3.3-0.7,4.9c0.5,0.4,1.1,0.7,1.6,1
		c0.6,0.3,1.2,0.6,1.8,1c0.4,0.2,0.6,0.6,0.5,1c-0.1,0.5-0.4,0.8-0.9,0.9c-0.9,0.3-1.8,0.2-2.7-0.4c-0.1-0.1-0.3-0.2-0.4-0.3
		c-0.3,0.5-0.7,0.9-1,1.4c0.7,0.7,1.6,1.1,2.6,1.2c0,0.5,0,1,0,1.4c0.6,0,1.2,0,1.7,0c0-0.5,0-1,0-1.5c0.1,0,0.2-0.1,0.3-0.1
		c1.2-0.4,1.9-1.3,2.1-2.6C32.1,26.2,31.8,25.4,31,24.8z"/>
	<path class="st0" d="M20.8,13.9c-2.9,0-5.7,0-8.6,0c0,0.6,0,1.1,0,1.7c2.9,0,5.7,0,8.6,0C20.8,15.1,20.8,14.5,20.8,13.9z"/>
	<path class="st0" d="M20.8,19.2c-2.9,0-5.8,0-8.6,0c0,0.6,0,1.1,0,1.7c2.9,0,5.8,0,8.6,0C20.8,20.3,20.8,19.7,20.8,19.2z"/>
	<path class="st0" d="M20.8,26.1c0-0.6,0-1.1,0-1.7c-2.9,0-5.7,0-8.6,0c0,0.6,0,1.1,0,1.7C15.1,26.1,17.9,26.1,20.8,26.1z"/>
	<path class="st0" d="M12.2,31.3c2.9,0,5.8,0,8.7,0c0-0.6,0-1.1,0-1.7c-2.9,0-5.8,0-8.7,0C12.2,30.2,12.2,30.7,12.2,31.3z"/>
</g>
</svg>
