<?xml version="1.0" encoding="utf-8"?>
<!-- Generator: Adobe Illustrator 23.0.1, SVG Export Plug-In . SVG Version: 6.00 Build 0)  -->
<svg version="1.1" id="Capa_1" xmlns="http://www.w3.org/2000/svg" xmlns:xlink="http://www.w3.org/1999/xlink" x="0px" y="0px"
	 viewBox="0 0 40 40" style="enable-background:new 0 0 40 40;" xml:space="preserve">
<style type="text/css">
	.st0{fill:#3A3A3A;}
</style>
<g>
	<path class="st0" d="M34.2,23.6c0-5.3,0-10.6,0-16c0-1.7-1-2.7-2.7-2.7c-0.7,0-1.5,0-2.2,0c-0.3,0-0.4-0.1-0.5-0.3
		c-0.4-0.8-0.8-1.5-1.1-2.3c-0.2-0.5-0.6-0.7-1.1-0.7c-1.2,0-2.4,0-3.6,0c-0.3,0-0.4-0.1-0.6-0.3C21.7,0.4,21,0,20,0
		c-1,0-1.7,0.5-2.2,1.3c-0.1,0.2-0.3,0.3-0.5,0.3c-1.3,0-2.5,0-3.8,0c-0.5,0-0.8,0.2-1,0.6c-0.3,0.7-0.7,1.3-1,2
		c-0.2,0.6-0.6,0.8-1.2,0.8C9.7,4.9,9.1,5,8.5,5C6.8,5,5.8,6,5.8,7.7c0,4.9,0,9.8,0,14.8c0,0,0,0,0,0c0,5,0,10,0,14.9
		c0,1.6,1,2.6,2.6,2.6c7.7,0,15.4,0,23.2,0c0.2,0,0.5,0,0.7-0.1c1.2-0.3,1.9-1.2,1.9-2.5C34.2,32.8,34.2,28.2,34.2,23.6z M13.8,3.5
		c0.1-0.1,0.3-0.2,0.4-0.2c1.3,0,2.7,0,4,0c0.7,0,0.9-0.2,1-0.9c0.1-0.5,0.4-0.8,0.8-0.8c0.5,0,0.8,0.3,0.8,0.8
		c0.1,0.7,0.3,0.9,1,0.9c1.3,0,2.7,0,4,0c0.2,0,0.4,0.1,0.5,0.3c0.5,1,1,2,1.5,3c-5.2,0-10.4,0-15.6,0C12.7,5.6,13.2,4.5,13.8,3.5z
		 M32.5,13c0,8.1,0,16.1,0,24.2c0,0.9-0.2,1.2-1.1,1.2c-7.5,0-15.1,0-22.6,0c-0.1,0-0.2,0-0.3,0c-0.7,0-1-0.3-1-1c0-2.3,0-4.6,0-6.9
		c0-7.5,0-15.1,0-22.6c0-0.9,0.2-1.1,1.1-1.1c0.5,0,1.1,0,1.7,0c-0.1,0.2-0.1,0.3-0.2,0.4c-0.3,0.7,0,1.3,0.8,1.3c0.9,0,1.9,0,2.8,0
		c5,0,10.1,0,15.1,0c0.1,0,0.3,0,0.4,0c0.7-0.1,0.9-0.6,0.7-1.2c-0.1-0.1-0.1-0.3-0.2-0.4c0.8,0,1.5-0.1,2.3,0
		c0.4,0,0.5,0.5,0.5,0.9C32.5,9.4,32.5,11.2,32.5,13z"/>
	<path class="st0" d="M10.1,20c3.3,0,6.6,0,9.9,0c0,0,0,0,0,0c1.9,0,3.8,0,5.7,0c1.4,0,2.8,0,4.3,0c0.4,0,0.7-0.1,0.8-0.4
		c0.1-0.3,0.1-0.6,0-0.9c-0.1-0.4-0.5-0.4-0.9-0.4c-5.9,0-11.8,0-17.8,0c-0.7,0-1.4,0-2,0c-0.7,0-1,0.6-0.7,1.2
		C9.4,19.9,9.8,20,10.1,20z"/>
	<path class="st0" d="M30.2,22.5c-0.2,0-0.3,0-0.5,0c-5,0-9.9,0-14.9,0c-1.6,0-3.2,0-4.8,0c-0.7,0-1,0.5-0.9,1.1
		c0.1,0.4,0.4,0.6,0.9,0.6c3.3,0,6.6,0,9.9,0c3.3,0,6.5,0,9.8,0c0.1,0,0.3,0,0.4,0c0.4-0.1,0.7-0.4,0.7-0.8
		C30.8,22.9,30.6,22.6,30.2,22.5z"/>
	<path class="st0" d="M29.9,26.7c-3.3,0-6.6,0-9.9,0c0,0,0,0,0,0c-2.5,0-5.1,0-7.6,0c-0.8,0-1.6,0-2.4,0c-0.5,0-0.8,0.3-0.9,0.8
		c0,0.5,0.3,0.8,0.8,0.9c0.2,0,0.3,0,0.5,0c5.8,0,11.6,0,17.3,0c0.7,0,1.5,0,2.2,0c0.6,0,0.9-0.4,0.8-0.9
		C30.8,26.9,30.5,26.7,29.9,26.7z"/>
	<path class="st0" d="M24.9,30.8c-2.7,0-5.5,0-8.2,0c-2.2,0-4.4,0-6.6,0c-0.7,0-1.1,0.5-0.9,1.2c0.2,0.4,0.5,0.5,1,0.5
		c2.4,0,4.9,0,7.3,0c0.8,0,1.6,0,2.3,0c1.7,0,3.4,0,5.1,0c0.7,0,1.1-0.5,0.9-1.1C25.7,31,25.4,30.8,24.9,30.8z"/>
	<path class="st0" d="M15.7,15c1.2,0.1,2.3,0.2,3.1-1c0,0,0,0,0.1-0.1c0.4,0.7,0.7,1.5,1.1,2.2c0.3,0.6,0.9,0.7,1.4,0.2
		c0.1-0.1,0.3-0.3,0.4-0.4c0.6-0.8,1.3-1.1,2.2-1c0.6,0.1,0.9-0.3,0.9-0.8c0-0.5-0.3-0.8-0.9-0.8c-0.5,0-1,0-1.4,0
		c-0.3,0-0.6,0.2-0.9,0.4c-0.3,0.2-0.5,0.5-0.7,0.7c-0.4-0.8-0.7-1.5-1.1-2.2c-0.3-0.7-1-0.8-1.5-0.3c-0.4,0.4-0.7,0.7-1.1,1.1
		c-0.1,0.1-0.3,0.2-0.5,0.2c-0.4,0-0.7,0-1.1,0c-0.5,0-0.8,0.4-0.8,0.8C15,14.6,15.3,15,15.7,15z"/>
</g>
</svg>
