<?xml version="1.0" encoding="utf-8"?>
<!-- Generator: Adobe Illustrator 23.0.1, SVG Export Plug-In . SVG Version: 6.00 Build 0)  -->
<svg version="1.1" id="Layer_1" xmlns="http://www.w3.org/2000/svg" xmlns:xlink="http://www.w3.org/1999/xlink" x="0px" y="0px"
	 viewBox="0 0 150 150" style="enable-background:new 0 0 150 150;" xml:space="preserve">
<style type="text/css">
	.st0{fill:#ababab;}
</style>
<path class="st0" d="M37.3,136.5c-1.2,0-2.4-0.5-3.3-1.3l-19.7-19.7c-0.5-0.5-0.8-1.3-0.8-2s0.3-1.5,0.8-2c0.5-0.5,1.3-0.8,2-0.8
	c0.8,0,1.5,0.3,2,0.8l8,8c0.9-3,3.7-5,6.9-5c4,0,7.2,3.2,7.2,7.2c0,3.2-2.1,5.9-5.1,6.9l1.8,1.8l8.3-8.3l-31-31l-8.3,8.3l2.6,2.6
	c0.5,0.5,0.8,1.3,0.8,2s-0.3,1.5-0.8,2c-0.5,0.5-1.3,0.8-2,0.8s-1.5-0.3-2-0.8l-3.4-3.4c-0.9-0.9-1.4-2-1.3-3.3
	c0-1.2,0.5-2.4,1.4-3.3l9.8-9.8c0.9-0.9,2-1.4,3.3-1.4c1.3,0,2.4,0.5,3.3,1.3l1,1l8.3-7.8l9.2-29.5c1.2-3.8,3.5-7.2,6.6-9.8
	l22.5-18.9c1.5-1.3,3.4-2,5.4-2c0.2,0,0.5,0,0.7,0l22.3,1.4c6.1-4.6,13.4-7.1,21.1-7.1c19.4,0,35.2,15.8,35.2,35.2
	c0,19.4-15.8,35.2-35.2,35.2c-2.6,0-5.1-0.3-7.6-0.8c-0.8-0.2-1.4-0.6-1.8-1.3c-0.4-0.7-0.6-1.4-0.4-2.2c0.3-1.3,1.5-2.3,2.8-2.3
	c0.2,0,0.4,0,0.6,0.1c2.1,0.5,4.2,0.7,6.4,0.7c16.2,0,29.4-13.2,29.4-29.4S131,19.3,114.8,19.3c-6.4,0-12.4,2-17.5,5.8
	c-0.3,0.6-0.9,1-1.5,1.2c-6.6,5.6-10.4,13.8-10.4,22.4c0,2.1,0.2,4.2,0.6,6.2c0.3,1.6-0.7,3.1-2.2,3.4c-0.2,0-0.4,0.1-0.6,0.1
	c-1.4,0-2.5-1-2.8-2.3c-0.5-2.4-0.8-4.9-0.8-7.4c0-2.1,0.2-4.2,0.6-6.3l-4.7,0.1c-0.2,0-0.4,0.1-0.5,0.2l-6,5.6
	c-0.1,0.1-0.1,0.2-0.1,0.3l0.5,18.1c0,1.7,0.7,3.3,1.7,4.4c0.6,0.6,1.2,1,1.7,1c0.1,0,0.1,0,0.1,0c0.6-0.1,2.4-0.6,5.1-4.5
	c6.1-9,13.5-13.2,18.7-15.2c2.7-1,5.5-1.5,8.4-1.5c1.6,0,3.2,0.2,4.8,0.5c4.4,0.9,7,2.9,7.8,5.9c0.4,1.6,0.3,3.3-0.5,5.1
	c0.4,0,0.7,0,1.1,0c2.5,0,4.5-0.5,5.8-1.4c1.3-0.9,1.9-2.2,1.9-4.1c0-1.5-0.6-2.5-1.8-3.3c-1.4-0.9-4-1.7-7.7-2.5
	c-4.2-0.9-7.3-2.2-9.2-3.8c-1.9-1.7-2.9-4-2.9-7c0-2.9,1-5.4,3.1-7.3c1.9-1.8,4.5-2.9,7.6-3.2v-3.1c0-0.7,0.2-1.3,0.6-1.8
	c0.5-0.6,1.2-1,2-1c0.7,0,1.4,0.3,1.9,0.8c0.5,0.5,0.7,1.2,0.7,1.9v3.1c3.2,0.5,5.8,1.5,7.7,3c0.7,0.5,1,1.3,1,2.3
	c0,0.8-0.3,1.4-0.8,1.9c-0.5,0.5-1.2,0.8-2,0.8c-0.4,0-1-0.2-1.8-0.7c-2.2-1.3-4.6-2-7-2c-2.7,0-4.6,0.5-5.7,1.5
	c-1.1,1-1.6,2.2-1.6,3.5c0,1.7,0.5,2.8,1.6,3.5c1.2,0.8,3.2,1.4,6.1,2c4.9,1,8.4,2.3,10.6,4c2.2,1.7,3.4,4.1,3.4,7.2
	c0,3.1-1.1,5.6-3.4,7.7c-2.1,1.9-4.8,3-7.9,3.2V71c0,0.8-0.2,1.4-0.7,1.9c-0.5,0.5-1.1,0.8-1.9,0.8c-0.7,0-1.3-0.3-1.8-0.8
	c-0.5-0.5-0.8-1.2-0.8-1.9v-3.2c-0.4,0-0.8-0.1-1.3-0.2c-0.7,0.8-1.3,1.3-1.4,1.5L92.1,88.8L82,101.4c-5.1,6.7-13,9.2-26.1,13.3
	l-1.9,0.6c-1.5,0.4-3,1.3-4.2,2.5l-0.1,0.1l0.8,0.8c1.8,1.8,1.8,4.8,0,6.6l-9.8,9.8C39.7,136,38.5,136.5,37.3,136.5z M33.3,120.1
	c-0.8,0-1.4,0.6-1.4,1.4s0.6,1.4,1.4,1.4s1.4-0.6,1.4-1.4S34.1,120.1,33.3,120.1z M45.6,113.9L45.6,113.9c2-2,4.4-3.4,6.8-4.1
	l1.7-0.5c12-3.8,19.2-6,23.2-11.3l10.5-13.1l8.2-7.9c-3.2-2.8-3.2-6.6-2.3-8.5c2-4.3,6.3-9,12.4-9.3c0.1,0,0.1,0,0.2,0
	c1.2,0,2.5,0.4,3.7,1.1c0.5,0.3,0.9,0.6,1.4,0.8c0.5-0.9,0.7-1.7,0.6-2.2c-0.1-0.5-1.1-1.3-3.4-1.8c-1.2-0.3-2.4-0.4-3.6-0.4
	c-2.1,0-4.3,0.4-6.3,1.2c-4.4,1.7-10.7,5.3-15.9,13c-3.1,4.5-6.1,6.8-9.4,7c-0.2,0-0.4,0-0.6,0c0,0,0,0,0,0c-2.1,0-4.2-0.9-5.9-2.7
	c-2.1-2.2-3.3-5.1-3.4-8.2l-0.5-18.1c0-1.8,0.7-3.5,2-4.7l6-5.6c1.2-1.1,2.7-1.7,4.3-1.8l6.4-0.2c1.4-3.9,3.5-7.5,6.2-10.6
	l-17.1-1.1c-0.1,0-0.2,0-0.3,0c-0.6,0-1.2,0.2-1.6,0.6L46.5,44.4c-2.3,1.8-3.9,4.3-4.8,7l-9.3,29.8c-0.2,0.7-0.6,1.4-1.2,1.9l-8.4,8
	L45.6,113.9z M100.1,73l7.7-7.5c-0.2-0.1-0.3-0.2-0.5-0.3c-0.4-0.3-1.3-0.4-2.2-0.4c-0.8,0-1.5,0.1-1.9,0.4
	c-1.1,0.6-3.9,3.3-4.2,5.6c-0.1,0.7,0.1,1.3,0.6,1.8C99.8,72.7,99.9,72.8,100.1,73z"/>
</svg>
