<?xml version="1.0" encoding="utf-8"?>
<!-- Generator: Adobe Illustrator 23.0.1, SVG Export Plug-In . SVG Version: 6.00 Build 0)  -->
<svg version="1.1" id="Layer_1" xmlns="http://www.w3.org/2000/svg" xmlns:xlink="http://www.w3.org/1999/xlink" x="0px" y="0px"
	 viewBox="0 0 150 150" style="enable-background:new 0 0 150 150;" xml:space="preserve">
<style type="text/css">
	.st0{fill:#ababab;}
</style>
<g>
	<g>
		<g>
			<path class="st0" d="M150,26.3C150,11.8,138.2,0,123.7,0c-7.6,0-14.5,3.3-19.3,8.5C94.8,4.2,84.6,2,74,2C33.2,2,0,35.2,0,76
				s33.2,74,74,74s74-33.2,74-74c0-10.6-2.2-20.8-6.5-30.4C146.7,40.8,150,33.9,150,26.3z M123.7,7.4c10.4,0,18.9,8.5,18.9,18.9
				s-8.5,18.9-18.9,18.9s-18.9-8.5-18.9-18.9C104.8,15.9,113.3,7.4,123.7,7.4z M74,142.6c-36.7,0-66.6-29.9-66.6-66.6
				S37.3,9.4,74,9.4c9.1,0,17.9,1.8,26.1,5.3c-1.7,3.5-2.7,7.4-2.7,11.6c0,14.5,11.8,26.3,26.3,26.3c4.2,0,8.1-1,11.6-2.7
				c3.5,8.2,5.3,17,5.3,26.1C140.6,112.7,110.7,142.6,74,142.6z"/>
		</g>
	</g>
	<g>
		<g>
			<path class="st0" d="M96.7,89.2c-0.1,0-9.1,0.3-11.7-9.2c1.7-1.3,3.3-2.9,4.7-4.8c3-4.1,4.9-9.1,5.7-14.6
				c0.2-0.3,0.4-0.5,0.5-0.9c1.3-3.1,1.9-6.3,1.9-9.7c0-13-9.8-23.6-21.9-23.6c-3.1,0-6.1,0.7-9,2.1c-1.1,0.1-2.1,0.3-3.1,0.6
				C53.7,32.2,47.9,44.4,51,56.5c0.3,1.2,1.1,3.5,1.7,4.4C53.8,69.1,57.7,76,63,80c-2.6,9.6-11.6,9.2-11.7,9.2
				c-8.7,0.3-15.8,7.5-15.8,16.3v10.6c0,4,3.3,7.2,7.2,7.2h62.5c4,0,7.2-3.3,7.2-7.2v-10.6C112.5,96.7,105.5,89.5,96.7,89.2z
				 M65.7,35.6c0.7-0.2,1.5-0.3,2.3-0.4c0.5,0,1-0.2,1.4-0.4c2.1-1.1,4.3-1.6,6.5-1.6c8,0,14.6,6.8,15.2,15.5
				c-1.7-1-3.6-1.7-5.7-1.7H70.3c-0.7,0-1.3-0.2-1.8-0.6c-0.4-0.3-0.8-0.8-1-1.3c-0.6-1.5-2.1-2.5-3.8-2.4c-1.7,0.1-3.1,1.3-3.5,2.9
				c-0.6,2.4-1.8,4.7-3.3,6.7C56,44.6,59.6,37.4,65.7,35.6z M59.3,59.8c2.3-2.2,4.3-4.8,5.7-7.7c1.6,1.1,3.4,1.6,5.4,1.6h15.1
				c1.6,0,3,0.9,3.7,2.2c-0.1,8.7-3.8,16.2-9,19.5c-0.2,0.1-2.6,1.8-6,1.8C66.9,77.3,60.6,69.7,59.3,59.8z M83.8,90.8
				C81,92.9,77.6,94,74,94c-3.6,0-7-1.1-9.8-3.2c2.2-2.1,3.9-4.7,4.9-7.7c1.6,0.5,3.3,0.7,5,0.7c1.7,0,3.4-0.3,5-0.7
				C79.9,86.1,81.6,88.8,83.8,90.8z M105.8,116.2L105.8,116.2c0,0.3-0.3,0.6-0.6,0.6H42.7c-0.3,0-0.6-0.3-0.6-0.6v-10.6
				c0-5.3,4.3-9.6,9.6-9.6c0.1,0,3.2-0.1,6.5-1.3c4.3,3.9,9.9,6.1,15.7,6.1c5.8,0,11.5-2.2,15.7-6.1c3.3,1.3,6.4,1.3,6.4,1.3
				c5.3,0,9.6,4.3,9.6,9.6L105.8,116.2L105.8,116.2z"/>
		</g>
	</g>
	<g>
		<path class="st0" d="M114.6,24.9c-0.8-0.7-1.3-1.7-1.4-2.9c0-0.6-0.1-1-0.1-1.3c0-0.3,0-0.8,0.1-1.6c0.1-1.2,0.5-2.2,1.3-2.9
			c0.8-0.7,1.9-1.1,3.3-1.1c1.4,0,2.5,0.4,3.3,1.1c0.8,0.7,1.2,1.7,1.3,2.9c0,0.8,0.1,1.3,0.1,1.6c0,0.2,0,0.7-0.1,1.3
			c-0.1,1.2-0.5,2.2-1.4,2.9c-0.8,0.7-1.9,1.1-3.3,1.1C116.5,26,115.5,25.7,114.6,24.9z M115,36.3c-0.1-0.1-0.2-0.3-0.2-0.4
			c0-0.1,0-0.2,0.1-0.3l14.9-19.6c0.2-0.2,0.3-0.3,0.5-0.4c0.1-0.1,0.3-0.1,0.6-0.1h2.3c0.2,0,0.4,0.1,0.5,0.2
			c0.1,0.1,0.2,0.3,0.2,0.4c0,0.1,0,0.2-0.1,0.3l-14.9,19.6c-0.2,0.2-0.3,0.3-0.5,0.4c-0.1,0.1-0.3,0.1-0.6,0.1h-2.3
			C115.3,36.5,115.2,36.4,115,36.3z M118.9,22.9c0.2-0.3,0.3-0.6,0.3-1c0-0.6,0.1-1,0.1-1.3c0-0.3,0-0.7-0.1-1.2
			c0-0.4-0.1-0.8-0.3-1c-0.2-0.3-0.5-0.4-1-0.4c-0.8,0-1.2,0.5-1.3,1.4c0,0.3,0,0.7,0,1.2c0,0.5,0,1,0,1.3c0,0.4,0.2,0.8,0.4,1
			c0.2,0.3,0.5,0.4,0.9,0.4C118.4,23.3,118.7,23.2,118.9,22.9z M127.5,35.5c-0.8-0.7-1.3-1.7-1.4-2.9c0-0.6-0.1-1-0.1-1.3
			s0-0.8,0.1-1.6c0.1-1.2,0.5-2.2,1.3-3c0.8-0.7,1.9-1.1,3.3-1.1c1.4,0,2.5,0.4,3.3,1.1c0.8,0.7,1.2,1.7,1.3,3
			c0,0.8,0.1,1.3,0.1,1.6s0,0.7-0.1,1.3c-0.1,1.2-0.5,2.2-1.4,2.9c-0.8,0.7-1.9,1.1-3.3,1.1C129.5,36.6,128.4,36.3,127.5,35.5z
			 M131.8,33.5c0.2-0.3,0.3-0.6,0.4-1c0-0.6,0.1-1,0.1-1.3c0-0.3,0-0.7-0.1-1.2c0-0.4-0.2-0.8-0.4-1c-0.2-0.3-0.5-0.4-0.9-0.4
			c-0.4,0-0.8,0.1-1,0.4c-0.2,0.3-0.3,0.6-0.3,1c0,0.3,0,0.7,0,1.2c0,0.5,0,1,0,1.3c0,0.4,0.1,0.8,0.3,1c0.2,0.3,0.5,0.4,1,0.4
			C131.3,33.9,131.6,33.8,131.8,33.5z"/>
	</g>
</g>
</svg>
