<?xml version="1.0" encoding="utf-8"?>
<!-- Generator: Adobe Illustrator 23.0.2, SVG Export Plug-In . SVG Version: 6.00 Build 0)  -->
<svg version="1.1" id="Layer_1" xmlns="http://www.w3.org/2000/svg" xmlns:xlink="http://www.w3.org/1999/xlink" x="0px" y="0px"
	 viewBox="0 0 27.7 26" style="enable-background:new 0 0 27.7 26;" xml:space="preserve">
<style type="text/css">
	.st0{fill:#FFFFFF;}
</style>
<path id="Union_241_1_" class="st0" d="M0,26c0,0,0.2-2.5,0.2-2.9c0.2-0.8,0.4-1.6,0.6-2.4c0.7-2.1,2-3.9,3.6-5.3
	c0.2-0.2,0.4-0.3,0.7-0.3c0.1,0,0.3,0.1,0.4,0.2c0.1,0.1,0.2,0.2,0.2,0.4c0,0.3-0.2,0.5-0.4,0.7c-2.3,2.1-3.8,4.9-4.1,8l0,0.4h25.1
	l0-0.4c-0.1-2-0.8-3.9-1.9-5.6c-1.4-2.1-3.3-3.7-5.6-4.6C18.6,14,18.4,14,18.3,14c-0.2,0-0.4,0-0.7,0.1c-1.2,0.6-2.4,0.9-3.7,0.9
	c-2.1,0-4.1-0.8-5.6-2.3C6.8,11.3,6,9.3,6.1,7.2c0.2-3.5,2.8-6.5,6.3-7.1c0.1,0,0.2-0.1,0.4-0.1c0,0,0.1,0,0.1,0h1.9
	c0.1,0,0.2,0.1,0.3,0.1c2.7,0.4,5,2.2,6,4.8c1,2.5,0.5,5.3-1.2,7.4c-0.1,0.1-0.1,0.2-0.2,0.2c0,0-0.1,0.1-0.1,0.1L19.4,13l0.8,0.4
	c3.7,1.8,6.3,5.2,7.2,9.2c0.1,0.4,0.2,0.8,0.2,1.1c0,0.2,0.1,0.3,0.1,0.5V26L0,26z M7.4,7.6c0.1,3.5,3,6.3,6.5,6.3h0
	c1.7,0,3.4-0.7,4.6-1.9c1.2-1.2,1.9-2.8,1.9-4.5c-0.1-3.5-3-6.3-6.5-6.3h0C10.3,1.2,7.4,4.1,7.4,7.6z M12.9,10.5
	c0-0.4,0.4-0.8,0.8-0.8s0.8,0.4,0.8,0.8c0,0.4-0.4,0.8-0.8,0.8C13.3,11.3,12.9,11,12.9,10.5L12.9,10.5z M13.2,8.8
	c0-0.6,0.2-1.2,0.6-1.7c0.4-0.3,0.6-0.7,0.7-1.2c0-0.4-0.3-0.7-0.9-0.7c-0.4,0-0.7,0.1-1.1,0.3l-0.3-0.9c0.5-0.3,1.1-0.4,1.7-0.4
	c1.3,0,1.9,0.7,1.9,1.6c-0.1,0.7-0.4,1.3-0.9,1.8c-0.4,0.4-0.6,0.9-0.6,1.4l0,0.2h-1.1v0L13.2,8.8z"/>
</svg>
