<?xml version="1.0" encoding="utf-8"?>
<!-- Generator: Adobe Illustrator 23.0.1, SVG Export Plug-In . SVG Version: 6.00 Build 0)  -->
<svg version="1.1" id="Layer_1" xmlns="http://www.w3.org/2000/svg" xmlns:xlink="http://www.w3.org/1999/xlink" x="0px" y="0px"
	 viewBox="0 0 150 150" style="enable-background:new 0 0 150 150;" xml:space="preserve">
<style type="text/css">
	.st0{fill:#ababab;}
</style>
<g>
	<path class="st0" d="M78,80.8c6.8-3.8,13.5-7.7,20.2-11.6c1.3-0.8,1.7-2,1.1-3.1c-0.7-1.1-2-1.4-3.3-0.7c-0.8,0.4-1.5,0.9-2.3,1.3
		c-6.5,3.7-13,7.5-19.5,11.3c-1.6-1.6-3.8-2.6-6.3-2.6c-1.6,0-3.1,0.4-4.3,1.2c-0.3,0-0.6-0.2-0.9-0.3c-7.1-4.1-14.2-8.2-21.3-12.3
		c-0.7-0.4-1.4-0.8-2.2-0.9c-2.1-0.4-4,0.8-4.7,2.8s0.1,4.1,2.1,5.3C43.3,75,50.1,78.9,57,82.8c0.8,0.5,1.6,0.9,2.1,1.6
		c0.1,4.7,4,8.5,8.8,8.5c4.8,0,8.8-3.9,8.8-8.8c0-0.7-0.1-1.3-0.2-2C76.8,81.5,77.3,81.2,78,80.8z"/>
	<path class="st0" d="M134.1,65.9c-2.5,1.6-5.2,2.8-8,3.7c0.5,2.5,0.8,5,1,7.5c-2.7,0-5.4,0-8.1,0c0,2.9,0,5.7,0,8.6
		c2.7,0,5.4,0,8,0c-1.4,28.2-25.4,53.2-54.8,54.8c0-2.6,0-5.3,0-8c-2.8,0-5.6,0-8.5,0c0,2.6,0,5.3,0,8c-28-1.2-53.4-25.4-54.9-54.8
		c2.6,0,5.3,0,8,0c0-2.8,0-5.6,0-8.5c-2.7,0-5.3,0-8,0C10,50.4,32.6,24.4,63.6,22.3c0,2.7,0,5.3,0,8.1c2.9,0,5.7,0,8.6,0
		c0-2.7,0-5.4,0-8c2.8,0.1,5.5,0.5,8.3,1.1c1-2.8,2.2-5.5,3.8-8c-2.2-0.5-4.5-1-6.8-1.3c-5.2-0.9-15.6-0.6-21.6,0.4
		c-13.4,2.4-25,8.2-34.7,17.5C9.7,43,2.8,56.4,0.5,72C-0.1,78-0.1,89,1,93.6c2.4,13.3,8.2,24.8,17.5,34.6
		c10.9,11.5,24.3,18.3,39.9,20.7c1.5,0.2,3,0.4,4.4,0.6c3.4,0,6.7,0,10.1,0c2.3-0.3,4.7-0.6,7-1.1c13.3-2.4,24.8-8.2,34.6-17.5
		C126,120,132.8,106.6,135.2,91c0.2-1.5,0.4-3,0.6-4.4c0-3.4,0-6.7,0-10.1c-0.3-2.3-0.6-4.7-1.1-7C134.6,68.2,134.3,67.1,134.1,65.9
		z"/>
	<path class="st0" d="M115.7,0.5C96.8,0.5,81.5,16,81.5,34.8S96.8,69,115.7,69c18.8,0,34.2-15.5,34.2-34.3S134.6,0.5,115.7,0.5z
		 M115.7,62.7c-15.4,0-27.9-12.5-27.9-27.9c0-15.4,12.5-27.9,27.9-27.9c15.3,0,27.9,12.5,27.9,27.9S131.1,62.7,115.7,62.7z"/>
	<path class="st0" d="M131.1,19.3h-30.7c-0.8,0-1.2,0.3-1.5,0.5c-0.3,0.3-0.6,0.7-0.6,1.5v2.2c0,0.9,0.4,1.6,1.2,2l15.4,9.2
		l-15.3,9.1c-0.8,0.4-1.3,1.1-1.3,2.1v2.2c0,0.8,0.3,1.3,0.6,1.5c0.3,0.2,0.8,0.5,1.5,0.5h30.7c0.6,0,1.1-0.2,1.5-0.6
		c0.4-0.4,0.6-0.9,0.6-1.5v-2.1c0-0.6-0.2-1.1-0.6-1.5c-0.4-0.4-0.9-0.6-1.5-0.6h-19.8l10.1-6.1c1-0.5,1.5-1.4,1.5-2.4v-1.4
		c0-1.1-0.5-1.9-1.5-2.4l-10.1-6.2h19.8c0.6,0,1.1-0.2,1.5-0.5c0.4-0.4,0.6-0.9,0.6-1.5v-2.2c0-0.6-0.2-1.1-0.6-1.5
		C132.2,19.5,131.6,19.3,131.1,19.3z"/>
</g>
</svg>
