<?xml version="1.0" encoding="utf-8"?>
<!-- Generator: Adobe Illustrator 19.2.0, SVG Export Plug-In . SVG Version: 6.00 Build 0)  -->
<svg version="1.1" id="Layer_1" xmlns="http://www.w3.org/2000/svg" xmlns:xlink="http://www.w3.org/1999/xlink" x="0px" y="0px"
	 viewBox="0 0 20 20" style="enable-background:new 0 0 20 20;" xml:space="preserve">
<style type="text/css">
	.st0{fill:#35C4FF;}
</style>
<g>
	<g>
		<path class="st0" d="M18.8,3.8c-0.8-1.3-2-2.3-3.3-2.9c-0.4-0.2-0.8,0-1,0.3c-0.2,0.4,0,0.8,0.3,1c2.1,1,3.5,3,3.7,5.2h-5.8V0.8
			C12.7,0.4,12.4,0,12,0c-0.4,0-0.7,0.3-0.7,0.7v7.4c0,0.4,0.3,0.7,0.7,0.7h7.4c0.4,0,0.7-0.3,0.7-0.7C20,6.6,19.6,5.1,18.8,3.8z
			 M17.5,10.2H9.9V2.6c0-0.4-0.3-0.7-0.7-0.7c-2.4,0-4.7,0.9-6.5,2.7C1,6.2,0,8.5,0,11s0.9,4.7,2.7,6.5c1.7,1.7,4,2.7,6.5,2.7
			c2.4,0,4.7-0.9,6.5-2.7c1.7-1.7,2.7-4,2.7-6.5C18.3,10.5,17.9,10.2,17.5,10.2z M9.1,18.6c-4.2,0-7.6-3.4-7.6-7.6
			c0-4,3-7.2,6.9-7.6V11c0,0.4,0.3,0.7,0.7,0.7h7.6C16.4,15.6,13.1,18.6,9.1,18.6z"/>
	</g>
</g>
</svg>
