<?xml version="1.0" encoding="utf-8"?>
<!-- Generator: Adobe Illustrator 19.0.0, SVG Export Plug-In . SVG Version: 6.00 Build 0)  -->
<svg version="1.1" id="Layer_1" xmlns="http://www.w3.org/2000/svg" xmlns:xlink="http://www.w3.org/1999/xlink" x="0px" y="0px"
	 viewBox="-245 273.3 350 50" style="enable-background:new -245 273.3 350 50;" xml:space="preserve">
<style type="text/css">
	.st0{fill:#6F6F71;}
	.st1{fill:#FF6600;}
</style>
<g>
	<path class="st0" d="M104.7,278.9c0,3.3-2.5,5.8-5.7,5.8s-5.7-2.6-5.7-5.8c0-3.2,2.6-5.7,5.7-5.7
		C102.2,273.2,104.7,275.7,104.7,278.9z M94.7,278.9c0,2.6,1.8,4.6,4.4,4.6c2.4,0,4.3-2,4.3-4.6s-1.8-4.6-4.3-4.6
		C96.5,274.3,94.7,276.4,94.7,278.9z M98.1,281.9h-1.3v-5.7c0.5-0.1,1.2-0.2,2.1-0.2c1.1,0,1.5,0.2,1.9,0.4c0.3,0.2,0.5,0.7,0.5,1.3
		s-0.5,1.1-1.2,1.3v0.1c0.5,0.2,0.9,0.6,1,1.4c0.2,0.9,0.3,1.2,0.4,1.4h-1.4c-0.2-0.2-0.3-0.7-0.4-1.4c-0.1-0.6-0.4-0.9-1.2-0.9
		h-0.6v2.3C97.9,281.9,98.1,281.9,98.1,281.9z M98.1,278.7h0.6c0.7,0,1.3-0.2,1.3-0.8c0-0.5-0.4-0.9-1.2-0.9c-0.3,0-0.6,0-0.7,0.1
		L98.1,278.7L98.1,278.7z"/>
	<path class="st1" d="M-121,304.8c0.3-0.5,0.5-1,0.8-1.5c1.3-2.4,2.9-4.6,4.7-6.6c3.3-3.5,13.6-15.3,36.4-17.5c0.1,0,0.1,0,0.2,0
		v0.1c-0.4,0.3-0.8,0.6-1.3,0.8c-14.2,3.9-27.1,9.2-37.4,31.9c-1,1.9-1.8,3.9-3,5.4c-0.2,0.5-0.6,1-0.9,1.4
		c-0.4,0.5-0.8,0.5-1.2-0.1c-0.4-0.6-0.6-1.2-0.7-1.9c-1.7-10.7-6.2-15.6-8.1-17.7c-1.1-1.3-2.2-2.4-3.3-3.6
		c-0.2-0.2-0.4-0.5-0.6-0.8c-0.2-0.4-0.1-0.6,0.3-0.5c0.6,0.1,1.2,0.1,1.8,0.3c2.5,0.6,4.6,1.9,6.5,3.5c2,1.7,2.6,2.3,4.1,4.5
		c0.5,0.7,1,1.5,1.5,2.3C-121.1,304.7-121.1,304.7-121,304.8z"/>
	<g>
		<g>
			<path class="st0" d="M-61.3,274l-18.3,48.5h8.4l4.8-13.4h18.7l4.9,13.4h8.5L-52.6,274H-61.3z M-64.1,302.3l4.4-12.6
				c1.2-3.2,2-6.2,2.6-8.9c0.2,0.9,0.6,2.3,1.2,4.2c0.6,1.9,1.1,3.3,1.4,4.2l4.6,13.1H-64.1z M-7,280.3c2,0,4,0.3,5.8,0.9
				s3.6,1.3,5.2,2l2.9-6.6c-4.2-2.1-8.9-3.1-13.9-3.1c-4.8,0-8.9,1-12.4,3s-6.2,4.9-8.1,8.7c-1.9,3.8-2.8,8.2-2.8,13.2
				c0,8,1.9,14.1,5.8,18.4c3.8,4.3,9.3,6.4,16.5,6.4c4.9,0,9.2-0.7,13.1-2.1v-6.8C3,314.9,1,315.5-1,315.9c-1.9,0.4-4,0.6-6,0.6
				c-4.8,0-8.5-1.5-11-4.6c-2.5-3-3.8-7.5-3.8-13.4c0-5.7,1.3-10.1,4-13.3C-15.2,281.9-11.6,280.3-7,280.3z M36.5,280.3
				c2,0,4,0.3,5.8,0.9s3.6,1.3,5.2,2l2.9-6.6c-4.2-2.1-8.9-3.1-13.9-3.1c-4.8,0-8.9,1-12.4,3s-6.2,4.9-8.1,8.7
				c-1.9,3.8-2.8,8.2-2.8,13.2c0,8,1.9,14.1,5.8,18.4c3.8,4.3,9.3,6.4,16.5,6.4c4.9,0,9.2-0.7,13.1-2.1v-6.8
				c-2.1,0.6-4.1,1.2-6.1,1.6c-1.9,0.4-4,0.6-6,0.6c-4.8,0-8.5-1.5-11-4.6c-2.5-3-3.8-7.5-3.8-13.4c0-5.7,1.3-10.1,4-13.3
				C28.2,281.9,31.9,280.3,36.5,280.3z M86.9,277.9c-3-2.5-7.6-3.7-13.7-3.7H59.1v48.3h8v-18h5.1c6.2,0,11-1.3,14.3-4
				c3.3-2.7,5-6.5,5-11.6C91.5,284,90,280.4,86.9,277.9z M80.4,295.7c-1.9,1.4-4.9,2.1-9,2.1h-4.3v-17h5.6c3.6,0,6.3,0.7,8,2
				c1.7,1.4,2.6,3.4,2.6,6.2C83.3,292.1,82.3,294.3,80.4,295.7z"/>
		</g>
	</g>
	<path class="st0" d="M-86.1,278.9v-4.7h-8v6.7C-91.7,280.1-89,279.4-86.1,278.9z"/>
	<path class="st0" d="M-121.8,301.7c0.1,0.2,0.2,0.3,0.3,0.5c1.3-2.2,2.8-4.3,4.5-6.3l0.5-0.5c0.4-0.4,0.8-0.9,1.4-1.4h-1.6v-19.8
		h-8v23.9C-123.6,299.2-123,300-121.8,301.7z"/>
	<path class="st0" d="M-94.1,286.6v7.4v6.8v21.8h8v-39.3C-88.8,284.2-91.5,285.3-94.1,286.6z"/>
	<path class="st0" d="M-117.6,314.5c-0.6,1.3-1.3,2.6-2.1,3.7c-0.2,0.5-0.6,1.1-1.1,1.6c-0.6,0.7-1.2,0.9-1.7,0.9s-1.2-0.2-1.8-1.1
		c-0.2-0.3-0.4-0.6-0.5-0.9v3.8h8v-9.8C-117,313.3-117.3,313.9-117.6,314.5z"/>
	<g>
		<g>
			<path class="st1" d="M-202.1,281.8l1.8-8.2h-33.4l-2.3,10.7h16.2l-23.3,30.2l-1.6,8.1h35l2.3-10.7h-18.4L-202.1,281.8z
				 M-194.1,273.6l-10.5,49h13.4l10.5-49C-180.7,273.6-194.1,273.6-194.1,273.6z M-144.7,277.4c-3.1-2.5-7.6-3.8-13.5-3.8h-12.6
				l-10.5,49h13.3l3.4-16.3h2.9c6.7,0,12-1.6,15.9-4.8c3.8-3.2,5.8-7.6,5.8-13.2C-140,283.5-141.6,279.9-144.7,277.4z M-155.2,293.7
				c-1.3,1.3-2.9,2-5,2h-2.1l2.5-11.4h2c1.4,0,2.5,0.4,3.4,1.2c0.8,0.8,1.2,1.9,1.2,3.2C-153.3,290.7-153.9,292.3-155.2,293.7z"/>
		</g>
	</g>
</g>
</svg>
