<?xml version="1.0" encoding="utf-8"?>
<!-- Generator: Adobe Illustrator 19.2.0, SVG Export Plug-In . SVG Version: 6.00 Build 0)  -->
<svg version="1.1" id="Layer_1" xmlns="http://www.w3.org/2000/svg" xmlns:xlink="http://www.w3.org/1999/xlink" x="0px" y="0px"
	 viewBox="0 0 512 612" style="enable-background:new 0 0 512 612;" xml:space="preserve">
<style type="text/css">
	.st0{fill:#54A2F2;}
	.st1{opacity:0.15;enable-background:new    ;}
	.st2{fill:#FFFFFF;}
</style>
<g>
	<g>
		<path class="st0" d="M162.1,479l-31.5,31.5c-4.5,4.5-8.1,13.2-8.1,19.5v82h47.7V482.4C170.2,476.1,166.6,474.6,162.1,479z
			 M371.5,401.3L340,432.8c-4.5,4.5-8.1,13.2-8.1,19.5V612h47.7V404.6C379.6,398.3,375.9,396.8,371.5,401.3z M437.9,334.9L409.7,363
			c-4.5,4.4-8.1,13.2-8.1,19.5V612h44.3V338.3C446,332,442.3,330.5,437.9,334.9z M301.7,471.1l-30.1,30c0,0-2.1,2.1-4.7,4.8
			c-2.6,2.6-4.7,9.9-4.7,16.2v90h47.7V474.4C309.8,468.1,306.1,466.6,301.7,471.1z M224.7,501.1l-24.3-24.2c-4.5-4.4-8.1-3-8.1,3.3
			V612H240v-84.2c0-6.3-3.4-14.8-7.7-19L224.7,501.1z M92.3,548.8l-21.7,21.7l-15.4,15.4c-4.5,4.5-8.1,12.1-8.1,17.1v9h53.2v-59.9
			C100.4,545.8,96.8,544.3,92.3,548.8z M488.7,148H326.5c-6.3,0-7.8,3.6-3.3,8.1l57.7,57.7l-23.5,23.4L248.2,346.3l-57.7-57.7
			c-4.5-4.5-11.7-4.4-16.1,0L13.8,449.1c-17.8,17.8-17.8,46.7,0,64.5l1.1,1.1c17.8,17.8,46.8,17.8,64.6,0l102.9-102.8l57.7,57.6
			c4.5,4.4,11.7,4.4,16.2,0l190.2-190.1l56.9,56.8c4.5,4.5,8.1,3,8.1-3.3v-163C511.5,158.2,500.3,148,488.7,148z"/>
	</g>
</g>
<g>
	<g>
		<path class="st0" d="M240.3,1H114.2c-41.9,0-76,34.1-76,76v126c0,42,34.1,76,76,76h126c42,0,76-34.1,76-76V77
			C316.3,35.1,282.2,1,240.3,1z"/>
	</g>
</g>
<path class="st1" d="M255.5,61.3c-5.3,0-6.4,0-10.6,0c-2.7-4.3-13-20-13-20c-6.2,0-147,0-147,0l0,175.4l23.5,14.3v5.7l89.5,42.3
	c0,0,6.6-0.1,45.7-0.1c46.7,0,73.3-43.6,73.3-73c0-24,0-100.2,0-100.2L255.5,61.3z"/>
<path class="st2" d="M84.9,41.3c49,0,98,0,147,0c0,58.5,0,116.9,0,175.4c-49.1,0-98,0-147,0C84.9,158.1,84.9,99.7,84.9,41.3z
	 M94,207.9c43.1,0,86.1,0,129.2,0c0-52.7,0-105.1,0-157.5c-43.1,0-86.2,0-129.2,0C94,103,94,155.5,94,207.9z"/>
<path class="st2" d="M108.4,236.7c0-4.9,0-9.7,0-14.7c2.9,0,5.6,0,8.6,0c0,1.9,0,3.7,0,5.6c43.2,0,86.2,0,129.3,0
	c0-52.5,0-105,0-157.7c-2.6,0-5.2,0-7.9,0c0-2.9,0-5.7,0-8.6c5.6,0,11.2,0,17.1,0c0,58.5,0,116.9,0,175.4
	C206.4,236.7,157.4,236.7,108.4,236.7z"/>
<path class="st2" d="M214.5,152.4c-0.1,5.9-4.4,10.5-10,10.8c-6.1,0.3-11-3.7-11.6-9.7c-0.1-1.3-0.6-2-1.7-2.6
	c-3.8-2.1-7.5-4.2-11.2-6.4c-1-0.6-1.9-0.4-3.1,0c-1.8,0.7-3.9,1.1-5.8,1.3c-1.3,0.1-2.1,0.5-2.8,1.6c-5.4,8.2-10.8,16.3-16.2,24.4
	c-0.7,1-0.8,1.9-0.4,3.1c1.4,4.7,0.1,8.7-3.6,11.8c-3.4,2.9-7.4,3.1-11.4,1.4c-4.2-1.8-6.4-5.3-6.4-9.9c0-1.2-0.3-1.9-1.3-2.6
	c-3-2.3-5.9-4.7-8.8-7.1c-1.5-1.3-3-1.8-5-1.4c-2.4,0.5-4.9,0.5-7.2-0.8c-4.8-2.6-6.9-7.7-5.5-13c1.2-4.4,5.7-7.7,10.7-7.7
	c5.2,0,9.5,3.5,10.7,8.6c0.2,1.1,0.3,2.2,0.1,3.3c-0.3,1.6,0.3,2.6,1.5,3.6c2.9,2.2,5.6,4.4,8.3,6.8c0.9,0.8,1.6,0.8,2.8,0.4
	c2.1-0.6,4.3-0.7,6.4-1.2c0.8-0.2,1.8-0.5,2.2-1.2c5.5-8.1,10.9-16.2,16.3-24.4c0.4-0.6,0.5-1.7,0.3-2.4c-2.4-6.4,0.5-12.8,6.8-14.7
	c6.4-1.9,12.6,1.9,13.8,8.7c0.4,2,1.2,3,2.9,3.9c3.1,1.6,6.2,3.4,9.1,5.3c1.5,0.9,2.7,1.1,4.2,0.2c3.7-2.1,7.4-1.9,10.9,0.3
	C212.9,145.2,214.5,148.4,214.5,152.4z"/>
<path class="st2" d="M209.6,69.9c0,3.1,0,6.1,0,9.3c-0.7,0-1.3,0-2,0c-32.1-0.1-64.1-0.1-96.2-0.1c-1.8,0-2.3-0.5-2.2-2.2
	c0.1-2.3,0-4.5,0-7C142.6,69.9,176,69.9,209.6,69.9z"/>
<path class="st2" d="M109.2,108c0-3,0-5.8,0-8.8c33.4,0,66.8,0,100.3,0c0,2.8,0,5.7,0,8.8C176.2,108,142.8,108,109.2,108z"/>
</svg>
