<?xml version="1.0" encoding="utf-8"?>
<!-- Generator: Adobe Illustrator 19.2.0, SVG Export Plug-In . SVG Version: 6.00 Build 0)  -->
<svg version="1.1" id="Layer_1" xmlns="http://www.w3.org/2000/svg" xmlns:xlink="http://www.w3.org/1999/xlink" x="0px" y="0px"
	 viewBox="0 0 40 40" style="enable-background:new 0 0 40 40;" xml:space="preserve">
<style type="text/css">
	.st0{fill:#A94447;}
	.st1{fill-rule:evenodd;clip-rule:evenodd;fill:none;stroke:#A94447;stroke-width:0.4348;stroke-miterlimit:10;}
</style>
<g>
	<g>
		<path class="st0" d="M15.1,19.2l3.5-2c0.8-0.5,1.1-1.6,0.6-2.4l-2-3.5c-0.5-0.8-1.6-1.1-2.4-0.6l-3.5,2c-0.8,0.5-1.1,1.6-0.6,2.4
			l2,3.5C13.2,19.4,14.2,19.7,15.1,19.2z M27.5,11.8h-4c-1.2,0-2.1,0.9-2.1,2.1v4c0,1.2,0.9,2.1,2.1,2.1h4c1.2,0,2.1-0.9,2.1-2.1v-4
			C29.6,12.7,28.6,11.8,27.5,11.8z M28.9,17.9c0,0.8-0.6,1.4-1.4,1.4h-4c-0.8,0-1.4-0.6-1.4-1.4v-4c0-0.8,0.6-1.4,1.4-1.4h4
			c0.8,0,1.4,0.6,1.4,1.4V17.9z M17.9,21.3h-4c-1.2,0-2.1,0.9-2.1,2.1v4c0,1.2,0.9,2.1,2.1,2.1h4c1.2,0,2.1-0.9,2.1-2.1v-4
			C20,22.3,19,21.3,17.9,21.3z M19.3,27.5c0,0.8-0.6,1.4-1.4,1.4h-4c-0.8,0-1.4-0.6-1.4-1.4v-4c0-0.8,0.6-1.4,1.4-1.4h4
			c0.8,0,1.4,0.6,1.4,1.4V27.5z M27.5,21.3h-4c-1.2,0-2.1,0.9-2.1,2.1v4c0,1.2,0.9,2.1,2.1,2.1h4c1.2,0,2.1-0.9,2.1-2.1v-4
			C29.6,22.3,28.6,21.3,27.5,21.3z M28.9,27.5c0,0.8-0.6,1.4-1.4,1.4h-4c-0.8,0-1.4-0.6-1.4-1.4v-4c0-0.8,0.6-1.4,1.4-1.4h4
			c0.8,0,1.4,0.6,1.4,1.4V27.5z"/>
	</g>
</g>
<path class="st1" d="M20,0c11,0,20,9,20,20s-9,20-20,20S0,31,0,20S9,0,20,0z"/>
</svg>
