<?xml version="1.0" encoding="utf-8"?>
<!-- Generator: Adobe Illustrator 19.2.0, SVG Export Plug-In . SVG Version: 6.00 Build 0)  -->
<svg version="1.1" id="Layer_1" xmlns="http://www.w3.org/2000/svg" xmlns:xlink="http://www.w3.org/1999/xlink" x="0px" y="0px"
	 viewBox="0 0 512 612" style="enable-background:new 0 0 512 612;" xml:space="preserve">
<style type="text/css">
	.st0{fill:#54A2F2;}
	.st1{fill:#FFFFFF;}
	.st2{fill-rule:evenodd;clip-rule:evenodd;fill:#54A2F2;}
	.st3{opacity:0.12;}
</style>
<g>
	<g>
		<g>
			<path class="st1" d="M162.6,479.2l-31.5,31.5c-4.5,4.5-8.1,13.2-8.1,19.5v82h47.7V482.6C170.7,476.3,167.1,474.8,162.6,479.2z
				 M372,401.5L340.5,433c-4.5,4.5-8.1,13.2-8.1,19.5v159.7h47.7V404.8C380.1,398.5,376.4,397,372,401.5z M438.4,335.1l-28.2,28.1
				c-4.5,4.4-8.1,13.2-8.1,19.5v229.5h44.3V338.5C446.5,332.2,442.8,330.7,438.4,335.1z M302.2,471.3l-30.1,30c0,0-2.1,2.1-4.7,4.8
				c-2.6,2.6-4.7,9.9-4.7,16.2v90h47.7V474.6C310.3,468.3,306.6,466.8,302.2,471.3z M225.2,501.3l-24.3-24.2c-4.5-4.4-8.1-3-8.1,3.3
				v131.8h47.7V528c0-6.3-3.4-14.8-7.7-19L225.2,501.3z M92.8,549l-21.7,21.7l-15.4,15.4c-4.5,4.5-8.1,12.1-8.1,17.1v9h53.2v-59.9
				C100.9,546,97.3,544.5,92.8,549z M489.2,148.2H327c-6.3,0-7.8,3.6-3.3,8.1l57.7,57.7l-23.5,23.4L248.7,346.5L191,288.8
				c-4.5-4.5-11.7-4.4-16.1,0L14.3,449.3c-17.8,17.8-17.8,46.7,0,64.5l1.1,1.1c17.8,17.8,46.8,17.8,64.6,0l102.9-102.8l57.7,57.6
				c4.5,4.4,11.7,4.4,16.2,0L447,279.6l56.9,56.8c4.5,4.5,8.1,3,8.1-3.3v-163C512,158.4,500.8,148.2,489.2,148.2z"/>
		</g>
	</g>
	<g>
		<g>
			<path class="st1" d="M238.6,0.3h-126c-42,0-76.1,34-76.1,76v126c0,42,34.1,76,76.1,76h126.1c42,0,76.1-34,76.1-76v-126
				C314.7,34.3,280.7,0.3,238.6,0.3z"/>
		</g>
	</g>
	<path d="M82.2,70c6.2,0,12.5,0.1,18.7,0c1.2,0,1.6,0.3,1.6,1.6c-0.1,5.2,0,10.4,0,15.6c0,11.3,7.1,20.1,18.1,22.5
		c12,2.6,24.7-6.1,26.4-18.5c0.4-3,0.3-6,0.3-9c0-4,0-8,0-12.1c13.7,0,27.4,0,41.1,0c0,0.6,0,1.1,0,1.5c0,5.6-0.1,11.1,0,16.7
		c0.2,10.8,8.7,20.2,19.4,21.5c13.8,1.7,25.4-8.6,25.4-22.7c0-5.1,0-10.3,0-15.4c0-0.5,0-1,0-1.6c6.8,0,13.4,0,20.2,0
		c0,22.4,0,44.8,0,67.1c-3.7-0.2-7.5-0.7-11.2-0.6c-3.7,0.1-7.4,0.6-11.2,1c0-6,0-12.1,0-18.4c-42.2,0-84.3,0-126.5,0
		c0,0.5-0.1,1-0.1,1.4c0,23.3,0,46.6,0,69.9c0,10.8,7,19.4,17.5,21.5c1.6,0.3,3.2,0.4,4.9,0.4c21.8,0,43.7,0,65.5,0
		c1.2,0,1.9,0.3,2.4,1.5c3.8,8,9.3,14.7,16.4,20c0.3,0.2,0.6,0.5,1.1,0.8c-0.9,0.2-1.6,0.3-2.3,0.4c-28.4,0-56.8,0-85.2,0
		c-2.1-0.3-4.3-0.4-6.4-0.8c-17.8-3.6-29.4-14.2-34.8-31.6c-0.8-2.7-1.1-5.7-1.6-8.5C82.2,152.8,82.2,111.4,82.2,70z"/>
	<path d="M239.8,235.1c-2.8-0.5-5.7-0.9-8.5-1.7c-20.4-5.5-34.3-25.6-32.3-46.7c1.9-21.1,17.2-37.4,38.1-40.5
		c22.5-3.4,44.7,12.1,49.4,34.4c0.4,2.1,0.7,4.3,1.1,6.4c0,2.3,0,4.6,0,6.8c-0.2,1-0.3,2.1-0.5,3.1c-3.4,18.7-14.1,30.9-32.1,36.5
		c-2.7,0.8-5.5,1.1-8.3,1.6C244.3,235.1,242.1,235.1,239.8,235.1z M275.8,187.6c1.2-13.3-14-30.2-29.8-29.9c0,1.1,0,2.2,0,3.4
		c0,1.9-1.1,3.1-2.8,3.1s-2.8-1.2-2.9-3.1c0-1.2,0-2.3,0-3.5c-7.1,0.3-16.1,4.1-22.3,11.6c-4.4,5.3-7,11.4-7.6,18.5
		c1.3,0,2.4,0,3.5,0c1.9,0,3.1,1.1,3.2,2.8c0,1.8-1.2,2.9-3.2,2.9c-1.1,0-2.2,0-3.5,0c0.9,8.8,4.5,16,10.8,21.7
		c5.4,4.9,11.8,7.7,19,8.4c0.1-0.2,0.2-0.3,0.2-0.3c0-1.1,0-2.2,0-3.3c0-1.9,1.2-3.1,2.9-3.1c1.6,0,2.8,1.2,2.8,3c0,1.2,0,2.3,0,3.5
		c16.1-0.8,29.4-15.6,29.7-30c-1.2,0-2.3,0-3.5,0c-1.8-0.1-2.9-1.2-2.9-2.9s1.2-2.8,3-2.8C273.5,187.6,274.6,187.6,275.8,187.6z"/>
	<path d="M126.7,42.7c1.2,0.4,2.6,0.6,3.7,1.2c5.4,2.5,8.4,6.8,8.5,12.8c0.1,10.3,0.1,20.6,0,30.8c0,7.4-5.7,13.6-13,14.1
		s-13.8-4.7-14.9-12c-0.1-0.9-0.1-1.9-0.1-2.9c0-9.8,0-19.6,0-29.3c0-7.6,4.2-12.9,11.7-14.5c0.1,0,0.2-0.1,0.3-0.2
		C124.1,42.7,125.4,42.7,126.7,42.7z"/>
	<path d="M212.7,42.7c0.8,0.2,1.6,0.4,2.3,0.6c5.9,1.8,9.9,7.2,9.9,13.4c0,10.3,0,20.6,0,31c0,7.3-5.7,13.5-12.9,14
		c-7.4,0.5-13.9-4.8-15-12.1c-0.1-0.8-0.1-1.7-0.1-2.6c0-9.8,0.1-19.6,0-29.5c-0.1-7.9,5.5-13.6,11.7-14.5c0.1,0,0.2-0.1,0.3-0.2
		C210.1,42.7,211.4,42.7,212.7,42.7z"/>
	<path d="M129.9,198.4c-2.1,0-4.2,0-6.4,0c-4.5,0-7.5-3-7.6-7.5c-0.1-4.4-0.1-8.7,0-13.1c0.1-4.6,3.1-7.6,7.8-7.6
		c4.2,0,8.3,0,12.5,0c4.6,0,7.7,3,7.7,7.6c0.1,4.3,0.1,8.6,0,13c-0.1,4.6-3.1,7.5-7.6,7.6C134.1,198.4,132,198.4,129.9,198.4z"/>
	<path d="M130,133.6c2.3,0,4.5,0,6.8,0c3.7,0,6.9,2.7,7,6.4c0.2,5.1,0.2,10.2,0,15.3c-0.1,3.6-3.3,6.4-6.9,6.4
		c-4.7,0.1-9.3,0.1-14,0c-3.9-0.1-6.9-3.1-7-7.2c-0.1-4.5-0.1-9.1,0-13.6c0.1-4.3,3.2-7.2,7.5-7.2
		C125.6,133.6,127.8,133.6,130,133.6z"/>
	<path d="M181.8,184.4c0,2.1,0,4.3,0,6.4c0,4.6-3,7.6-7.6,7.6c-4.2,0-8.5,0-12.7,0c-4.4,0-7.5-2.8-7.6-7.3s-0.2-9,0-13.5
		s3.2-7.3,7.6-7.3c4.2,0,8.4,0,12.6,0c4.7,0,7.6,3,7.7,7.7C181.9,180.1,181.8,182.2,181.8,184.4z"/>
	<path d="M181.8,147.7c0,2.5,0.1,4.9,0,7.4c-0.2,3.7-3.2,6.5-6.9,6.6c-4.7,0.1-9.3,0.1-14,0c-3.9-0.1-6.9-3.2-7-7.3
		c-0.1-4.5-0.1-9,0-13.5c0.1-4.4,3.2-7.3,7.6-7.3c4.3,0,8.7,0,13,0c4,0,7,2.8,7.3,6.8C181.9,142.8,181.8,145.3,181.8,147.7
		L181.8,147.7z"/>
	<path d="M205.8,133.6c2.3,0,4.5,0,6.8,0c4.2,0,7.5,3.5,7.2,7.7c0,0.4-0.4,0.9-0.7,1.1c-8.4,4.4-15.3,10.5-20.6,18.5
		c-0.2,0.3-0.9,0.5-1.3,0.4c-3.1-0.8-5.2-3.5-5.3-6.9c-0.1-4.5-0.1-8.9,0-13.4c0.1-4.4,3.2-7.3,7.6-7.4
		C201.6,133.6,203.7,133.6,205.8,133.6z"/>
	<path d="M235.7,190.5v-0.1c0.9-2.3-0.5-3.8-1.7-5.5c-2.4-3.4-4.9-6.8-7.2-10.2c-1.9-2.8-0.4-6.3,2.9-6.8c1.8-0.3,3.2,0.6,4.2,2.1
		c2.8,3.9,5.6,7.8,8.3,11.8c0.5,0.8,1.1,1.2,2.1,1.3c1.8,0.1,3.2,1.1,4.5,2.3c0.5,0.5,1.3,0.8,1.9,0.8c3.1,0.1,6.2,0,9.4,0.1
		c2,0.1,3.7,1.7,3.9,3.7c0.2,2.2-1,4.1-3.1,4.7c-0.5,0.1-1.1,0.1-1.6,0.1c-2.8,0-5.7,0-8.5,0c-0.8,0-1.4,0.2-2,0.9
		c-2.1,2.4-5.4,3.1-8.3,2C237.5,196.5,235.7,193.7,235.7,190.5z"/>
</g>
</svg>
