<?xml version="1.0" encoding="utf-8"?>
<!-- Generator: Adobe Illustrator 19.2.0, SVG Export Plug-In . SVG Version: 6.00 Build 0)  -->
<svg version="1.1" id="Layer_1" xmlns="http://www.w3.org/2000/svg" xmlns:xlink="http://www.w3.org/1999/xlink" x="0px" y="0px"
	 viewBox="0 0 512 612" style="enable-background:new 0 0 512 612;" xml:space="preserve">
<style type="text/css">
	.st0{fill:#E42328;}
	.st1{opacity:0.12;enable-background:new    ;}
	.st2{fill:#ED1C24;}
	.st3{fill:#FFFFFF;}
</style>
<g>
	<g>
		<path class="st3" d="M161.6,479.3l-31.5,31.5c-4.5,4.5-8.1,13.2-8.1,19.5v82h47.7V482.7C169.7,476.4,166.1,474.9,161.6,479.3z
			 M371,401.6l-31.5,31.5c-4.5,4.5-8.1,13.2-8.1,19.5v159.7h47.7V404.9C379.1,398.6,375.4,397.1,371,401.6z M437.4,335.2l-28.2,28.1
			c-4.5,4.4-8.1,13.2-8.1,19.5v229.5h44.3V338.6C445.5,332.3,441.8,330.8,437.4,335.2z M301.3,471.4l-30.1,30c0,0-2.1,2.1-4.7,4.8
			c-2.6,2.6-4.7,9.9-4.7,16.2v90h47.7V474.7C309.3,468.4,305.6,466.9,301.3,471.4z M224.2,501.4l-24.3-24.2c-4.5-4.4-8.1-3-8.1,3.3
			v131.8h47.7v-84.2c0-6.3-3.4-14.8-7.7-19L224.2,501.4z M91.8,549.1l-21.7,21.7l-15.4,15.4c-4.5,4.5-8.1,12.1-8.1,17.1v9h53.2
			v-59.9C99.9,546.1,96.3,544.6,91.8,549.1z M488.3,148.3H326c-6.3,0-7.8,3.6-3.3,8.1l57.7,57.7L357,237.5L247.8,346.6l-57.7-57.7
			c-4.5-4.5-11.7-4.4-16.1,0L13.3,449.4c-17.8,17.8-17.8,46.7,0,64.5l1.1,1.1c17.8,17.8,46.8,17.8,64.6,0l102.9-102.8l57.7,57.6
			c4.5,4.4,11.7,4.4,16.2,0L446,279.7l56.9,56.8c4.5,4.5,8.1,3,8.1-3.3v-163C511,158.5,499.8,148.3,488.3,148.3z"/>
	</g>
</g>
<g>
	<path class="st3" d="M245.9,1h-139C68.5,1,37.4,32.1,37.4,70.5v139c0,38.4,31.1,69.5,69.5,69.5h139c38.4,0,69.5-31.1,69.5-69.5
		v-139C315.4,32.1,284.3,1,245.9,1z"/>
</g>
<path d="M75.4,125.6c0-19.2,0-38.4,0-57.6c0-2.7,0.9-4.1,3.3-5c0.6-0.2,1.2-0.2,1.9-0.3c18.1,0,36.2,0,54.3,0c2.9,0,5.8-0.2,8.6,0
	c3.3,0.2,6.5,0.7,9.8,1.1c3.6,0.5,7,1.6,10.3,3.2c2.4,1.1,4.7,2.5,6.6,4.4c1.1,1,1.3,1,2.3,0c2.8-2.6,6-4.3,9.5-5.6
	c7.2-2.6,14.7-3.2,22.2-3.2c19.3,0.1,38.5,0.1,57.8,0c2.2,0,3.8,0.9,4.8,2.8c0.3,0.7,0.5,1.5,0.5,2.3c0,38.7,0,77.5,0,116.2
	c0,2.7-2.3,4.9-4.8,4.8c-18-0.1-36-0.1-54.1,0c-4.5,0-8.9,0.7-13.4,1.1c-4.5,0.4-8.7,1.8-12.9,3.2c-1.5,0.5-2.8,1.4-4.2,2.1
	c-0.3,0.2-0.6,0.4-1,0.4c-2.4,0.2-4.8,0.3-7.2,0.4c-0.4,0-0.8-0.1-1.2-0.1c-1.5,0.1-2.9-0.3-4.3-1.1c-4.2-2.3-8.7-3.6-13.4-4.5
	c-4.6-0.9-9.3-1.4-14-1.5c-5.1-0.1-10.2-0.2-15.3-0.2c-13.6,0-27.2-0.1-40.9,0.1c-3,0-5.4-1.9-5.4-5.5
	C75.6,164.1,75.4,144.8,75.4,125.6z M84.4,125.7c0,17.4,0,34.9,0,52.3c0,0.3-0.1,0.6,0,0.8c0.2,0.3,0.5,0.8,0.8,0.8
	c0.9,0.1,1.8,0,2.7,0c15.2,0,30.4,0,45.7,0c3.3,0,6.6,0,9.8,0.4c4.4,0.5,8.8,1.3,13.2,2.3c3,0.7,5.8,1.9,8.7,2.9
	c1.1,0.4,1.3,0.3,1.3-0.9c0-14.9-0.1-29.7-0.1-44.6c0-15.6,0-31.1,0.1-46.7c0-3.5,0-7,0-10.5c0-1.2-0.4-2.3-1.1-3.2
	c-2-2.3-4.4-3.9-7.2-5c-5.1-2-10.5-2.8-15.9-2.8c-7.2-0.1-14.4,0.1-21.6,0.1c-11.7,0-23.3,0-35,0c-1.2,0-1.5,0.3-1.4,1.5
	C84.4,90.8,84.4,108.2,84.4,125.7z M258.4,125.8c0-4.1,0-8.2,0-12.3c0-13.4,0-26.8,0-40.3c0-1-0.2-1.5-1.3-1.4c-1.2,0.1-2.3,0-3.5,0
	c-14.8,0-29.6,0.1-44.5,0c-6.9-0.1-13.7-0.3-20.5,1.4c-3.9,1-7.6,2.4-10.5,5.3c-1.2,1.2-2.1,2.5-2.1,4.4c0,21.4,0,42.8,0,64.3
	c0,12.4,0,24.8,0,37.1c0,1.3,0.3,1.5,1.2,1.1c4.4-2.1,9.1-3.3,13.9-4.2c5.9-1.2,11.9-1.5,17.9-1.5c15.9,0,31.9,0,47.8,0.1
	c1.5,0,1.5-0.1,1.5-1.6C258.4,160.7,258.4,143.3,258.4,125.8z"/>
<path d="M124.2,91.5c1.9,0,10.3,0,25.2,0c1.6,0,1.6,0,1.6,1.6c0,0.8,0,1.6,0,2.4c0,1.4-0.1,1.6-1.6,1.6c-4.5,0-8.9,0-13.4,0
	c-18.9,0-31.2,0-37.1,0c-1.1,0-1.5-0.3-1.4-1.4c0.1-0.9,0.1-1.9,0-2.8c-0.1-1,0.2-1.4,1.3-1.4C107.2,91.5,115.7,91.5,124.2,91.5
	L124.2,91.5z"/>
<path d="M124.3,122.5c2,0,10.4,0,25.3,0c1.1,0,1.5,0.3,1.4,1.4c-0.1,1,0,2.1,0,3.1c0,0.7-0.3,1.1-1.1,1.1c-22.3,0-38.1,0-47.4,0
	c-1.3,0-2.6-0.1-3.8,0c-0.9,0.1-1.2-0.2-1.2-1.1c0-1.2,0-2.3,0-3.5c0-0.8,0.3-1,1.1-1c2,0,4.1,0,6.1,0
	C111.1,122.4,117.7,122.4,124.3,122.5C124.3,122.4,124.3,122.5,124.3,122.5z"/>
<path d="M97.4,154c0.6,0,1.1,0,1.6,0c10.3,0,27.2,0,50.5,0c1.2,0,1.7,0.3,1.5,1.5c-0.1,0.9-0.1,1.8,0,2.8c0,1-0.4,1.3-1.3,1.3
	c-22.9,0-39.4,0-49.4,0c-2.8,0-2.8,0-2.8-2.8C97.4,155.9,97.4,155.1,97.4,154z"/>
<path d="M124.2,106.7c2,0,10.4,0,25.3,0c1.1,0,1.7,0.1,1.5,1.4c-0.1,0.9,0,1.8,0,2.6c0.1,1.1-0.3,1.5-1.5,1.5
	c-18.9-0.1-31.3,0-37.2,0c-4.5,0-9,0-13.5,0c-1.1,0-1.4-0.4-1.3-1.4c0.1-0.9,0.1-1.9,0-2.8c-0.1-1.1,0.2-1.5,1.4-1.5
	c6.4,0.1,12.8,0,19.2,0C120,106.7,122.1,106.7,124.2,106.7L124.2,106.7z"/>
<path d="M124,144.8c-8.4,0-16.8,0-25.2,0c-1.5,0-1.5,0-1.5-1.6c0-0.9,0.1-1.8,0-2.7c-0.1-1,0.3-1.3,1.3-1.3c8.9,0,17.7,0,26.6,0
	c1.6,0,9.7,0.1,24.2,0c1.2,0,1.6,0.4,1.5,1.5c-0.1,0.8-0.1,1.6,0,2.4c0.1,1.1-0.3,1.5-1.5,1.5C134.5,144.7,126,144.8,124,144.8
	L124,144.8z"/>
<path d="M272.6,179.6h-1.7V77.2h1.7c2.6,0,4.8,2.2,4.8,4.8v92.7C277.4,177.4,275.3,179.6,272.6,179.6z"/>
<path d="M245.3,118.7h-54.1c-2.6,0-4.8-2.2-4.8-4.8V85.3c0-2.7,2.2-4.8,4.8-4.8h54.1c2.6,0,4.8,2.2,4.8,4.8v28.6
	C250.1,116.5,247.9,118.7,245.3,118.7z"/>
<path d="M198.5,137.7h-7.6c-1.6,0-2.9-1.3-2.9-2.9v-7.7c0-1.6,1.3-2.9,2.9-2.9h7.6c1.6,0,2.9,1.3,2.9,2.9v7.7
	C201.4,136.4,200.1,137.7,198.5,137.7z"/>
<path d="M198.5,155.4h-7.6c-1.6,0-2.9-1.3-2.9-2.9v-7.7c0-1.6,1.3-2.9,2.9-2.9h7.6c1.6,0,2.9,1.3,2.9,2.9v7.7
	C201.4,154.1,200.1,155.4,198.5,155.4z"/>
<path d="M198.5,173.1h-7.6c-1.6,0-2.9-1.3-2.9-2.9v-7.7c0-1.6,1.3-2.9,2.9-2.9h7.6c1.6,0,2.9,1.3,2.9,2.9v7.7
	C201.4,171.8,200.1,173.1,198.5,173.1z"/>
<path d="M223,137.7h-7.6c-1.6,0-2.9-1.3-2.9-2.9v-7.7c0-1.6,1.3-2.9,2.9-2.9h7.6c1.6,0,2.9,1.3,2.9,2.9v7.7
	C225.8,136.4,224.5,137.7,223,137.7z"/>
<path d="M223,155.4h-7.6c-1.6,0-2.9-1.3-2.9-2.9v-7.7c0-1.6,1.3-2.9,2.9-2.9h7.6c1.6,0,2.9,1.3,2.9,2.9v7.7
	C225.8,154.1,224.5,155.4,223,155.4z"/>
<path d="M223,173.1h-7.6c-1.6,0-2.9-1.3-2.9-2.9v-7.7c0-1.6,1.3-2.9,2.9-2.9h7.6c1.6,0,2.9,1.3,2.9,2.9v7.7
	C225.8,171.8,224.5,173.1,223,173.1z"/>
<path d="M247.4,137.7h-7.6c-1.6,0-2.9-1.3-2.9-2.9v-7.7c0-1.6,1.3-2.9,2.9-2.9h7.6c1.6,0,2.9,1.3,2.9,2.9v7.7
	C250.3,136.4,249,137.7,247.4,137.7z"/>
<path d="M247.4,155.4h-7.6c-1.6,0-2.9-1.3-2.9-2.9v-7.7c0-1.6,1.3-2.9,2.9-2.9h7.6c1.6,0,2.9,1.3,2.9,2.9v7.7
	C250.3,154.1,249,155.4,247.4,155.4z"/>
<path d="M247.4,173.1h-7.6c-1.6,0-2.9-1.3-2.9-2.9v-7.7c0-1.6,1.3-2.9,2.9-2.9h7.6c1.6,0,2.9,1.3,2.9,2.9v7.7
	C250.3,171.8,249,173.1,247.4,173.1z"/>
<g>
	<path d="M220.6,252.3c-3.9,0-7.8,0-11.7,0c-4,0-8.1,0-12.1,0c-1.6,0-2.9-0.6-4-1.9l-0.7-0.9c-2.5-2.9-5.1-5.9-7.7-8.8
		c-2.1-2.3-4.3-4.9-5.5-8.1c-1-2.6-1.9-5.4-2.7-8.3c-1.5-5.5-3.1-11.9-2.1-18.6c1.2-8.4,6.3-11.5,10.6-12.6c0.1-2.4,0.3-4.7,0.4-7.1
		c0.1-2.3,0.3-4.6,0.4-6.9c0.2-3.5,0.4-7.5,0.6-11.4c0.1-1.7,0.1-3.4,0.2-5c0.1-1.8,0.1-3.6,0.2-5.5c0.1-1.3,0.2-2.7,0.3-4
		c0.1-1.3,0.2-2.6,0.3-3.9c0.1-1.7,0.1-3.4,0.2-5c0-1.3,0.1-2.7,0.1-4c0.1-1.8,0.2-5.6,3.5-8.2c1.7-1.3,3.6-1.9,5.3-2.3l0.4-0.1h2.8
		l0.5,0.2c0.1,0,0.4,0.1,0.4,0.1c4.7,1,8,4.9,7.9,9.4c0,1.4,0,2.7,0,4.1c0,1,0,2.1,0,3.1c0,1.5,0,3-0.1,4.5c0,1.2,0,2.4,0,3.6
		c0,5.4-0.1,10.7-0.1,16.1v1.6c1.2-0.3,2.4-0.5,3.6-0.5c1.3,0,2.6,0.2,4,0.5c3.2,0.8,5.8,2.5,7.6,5.1c1.7-1,3.5-1.5,5.6-1.5
		c1.2,0,2.5,0.2,3.9,0.5c3.3,0.8,5.9,2.6,7.7,5.3c0.6-0.2,1.2-0.4,1.9-0.5c0.5,0,1.1-0.1,1.5-0.1c1.2,0,2.2,0.1,3.1,0.4
		c4.9,1.5,7.9,5.6,8.2,11.1c0.1,2.7,0.2,5.3,0.3,8c0,1.5,0.1,3,0.1,4.4c0,0.3,0,0.5,0.1,0.8l0.1,0.7v13.1l-0.2,0.7
		c0,0.1-0.1,0.3-0.1,0.4c-0.2,0.8-0.3,1.6-0.4,2.4c-0.3,1.7-0.6,3.6-1.1,5.4c-1.9,7.8-5.7,15.1-11.2,21.5c-0.9,1.1-2.4,1.8-3.9,1.8
		c-5.6,0.1-11.4,0.1-17.8,0.1h-0.4L220.6,252.3L220.6,252.3z"/>
	<path class="st3" d="M198.6,132.7c0.2,0.1,0.5,0.2,0.7,0.2c3.2,0.6,5.6,3.3,5.5,6.4c0,2.4,0.1,4.9,0,7.3c0,2.7-0.1,5.4-0.1,8.1
		c0,7-0.1,14-0.1,21.1c0,0.5,0,1,0,1.8c2.1-2,4.3-2.7,6.7-2.7c1.1,0,2.2,0.2,3.3,0.4c3.7,0.9,6.1,3.3,7.4,7c1.9-2.4,4.1-3.3,6.6-3.3
		c1,0,2.1,0.2,3.2,0.4c3.8,0.9,6.3,3.4,7.6,7.5c0.6-1.7,1.7-2.4,3.1-2.5c0.4,0,0.8-0.1,1.3-0.1c0.8,0,1.6,0.1,2.3,0.3
		c3.7,1.1,5.9,4.2,6,8.4c0.2,4.1,0.3,8.2,0.4,12.4c0,0.5,0.1,1,0.2,1.5c0,4.2,0,8.4,0,12.6c-0.1,0.3-0.2,0.6-0.2,0.9
		c-0.5,2.6-0.8,5.1-1.5,7.6c-1.9,7.6-5.5,14.3-10.5,20.3c-0.4,0.4-1.1,0.8-1.6,0.8c-5.9,0.1-11.8,0.1-17.7,0.1c-0.1,0-0.3,0-0.4,0
		c-7.9,0-15.9-0.1-23.8-0.1l0,0c-0.8,0-1.3-0.2-1.7-0.8c-2.8-3.3-5.6-6.5-8.5-9.7c-2-2.2-3.9-4.4-5-7.2c-1-2.6-1.9-5.3-2.6-8
		c-1.6-5.7-2.9-11.4-2-17.4c0.8-5.3,3.5-9.2,9.2-10.3c1.2-0.2,1.4-0.8,1.5-1.8c0.3-4.9,0.6-9.8,0.9-14.7c0.2-3.8,0.4-7.6,0.6-11.5
		c0.2-3.5,0.2-7,0.4-10.5c0.1-2.6,0.4-5.3,0.5-7.9c0.1-3,0.2-6.1,0.3-9.1c0.1-2.2,0.4-4.4,2.3-5.9c1.2-1,2.7-1.4,4.1-1.7
		C197.3,132.7,198,132.7,198.6,132.7 M199.6,126.7h-1h-2h-0.7l-0.7,0.2c-1.4,0.4-4,1-6.4,2.9c-4.4,3.4-4.5,8.3-4.6,10.4
		c-0.1,1.4-0.1,2.7-0.1,4.1c0,1.6-0.1,3.3-0.2,5c-0.1,1.3-0.1,2.5-0.2,3.8s-0.2,2.7-0.3,4.1c-0.1,1.8-0.1,3.7-0.2,5.5
		c-0.1,1.6-0.1,3.4-0.2,5c-0.2,3.6-0.4,7.2-0.6,11.4c-0.1,2.3-0.3,4.6-0.4,6.9c-0.1,1.7-0.2,3.3-0.3,5c-5.9,2.2-9.7,7.2-10.7,14.4
		c-1.1,7.3,0.6,14.1,2.2,19.9c0.8,3,1.8,5.9,2.8,8.6c1.4,3.7,3.8,6.6,6.1,9.1c2.6,2.8,5.2,5.8,7.7,8.7l0.7,0.8
		c2.1,2.4,4.6,2.9,6.3,2.9c4.1,0,8.1,0,12.1,0c3.9,0,7.8,0,11.7,0h0.4c6.4,0,12.2,0,17.8-0.1c2.3,0,4.6-1.1,6.1-2.9
		c5.8-6.8,9.8-14.4,11.8-22.7c0.5-1.9,0.8-3.8,1.1-5.6c0.1-0.8,0.3-1.6,0.4-2.4c0,0,0-0.1,0.1-0.2c0-0.1,0.1-0.3,0.1-0.4l0.2-0.7
		v-0.7v-12.6v-0.3v-0.3c0-0.2,0-0.4-0.1-0.6c0-0.2-0.1-0.4-0.1-0.5c-0.1-1.5-0.1-2.9-0.1-4.4c-0.1-2.6-0.2-5.3-0.3-8
		c-0.3-6.8-4.2-12-10.3-13.8c-1.2-0.4-2.6-0.5-4-0.5c-0.6,0-1.2,0-1.8,0.1c-0.2,0-0.3,0-0.5,0.1c-2.5-2.8-5.6-4.2-8.1-4.8
		c-1.7-0.4-3.2-0.6-4.7-0.6c-1.7,0-3.3,0.3-4.7,0.8c-2.1-2.1-4.7-3.6-7.8-4.4c-1.7-0.4-3.2-0.6-4.7-0.6c-0.2,0-0.4,0-0.6,0
		c0-4.7,0.1-9.4,0.1-14.1c0-1.2,0-2.4,0-3.6c0-1.5,0-3,0.1-4.5c0-1.1,0-2.1,0-3.2c0-1.4,0-2.7,0-4c0.1-5.9-4.1-11-10-12.4
		c-0.1,0-0.2-0.1-0.3-0.1L199.6,126.7L199.6,126.7z"/>
</g>
</svg>
