<?xml version="1.0" encoding="utf-8"?>
<!-- Generator: Adobe Illustrator 19.2.0, SVG Export Plug-In . SVG Version: 6.00 Build 0)  -->
<svg version="1.1" id="Layer_1" xmlns="http://www.w3.org/2000/svg" xmlns:xlink="http://www.w3.org/1999/xlink" x="0px" y="0px"
	 viewBox="0 0 20 20" style="enable-background:new 0 0 20 20;" xml:space="preserve">
<style type="text/css">
	.st0{fill:#FFFFFF;}
</style>
<path class="st0" d="M3.6-1.3c0,0.2-0.1,0.3-0.3,0.3S2.9-1.1,2.9-1.3"/>
<path class="st0" d="M0.6,0c0,0.5,0.4,0.9,0.9,1.1v18H0.7C0.3,19,0,19.2,0,19.5C0,19.8,0.3,20,0.7,20h3.1c0.4,0,0.7-0.2,0.7-0.5
	c0-0.3-0.3-0.5-0.7-0.5H2.9v-8.4h16.4c0.3,0,0.5-0.1,0.6-0.3C20,10.2,20,10,19.8,9.9L16,6.2l3.8-3.7C20,2.3,20,2.1,19.9,2
	c-0.1-0.2-0.3-0.3-0.6-0.3H2.9V1.1C3.4,0.9,3.8,0.5,3.8,0 M2.6,0c0,0.2-0.2,0.3-0.4,0.3S1.8,0.2,1.8,0 M2.9,9.7L2.9,9.7V8H5
	c0.4,0,0.7-0.2,0.7-0.5c0-0.3-0.3-0.5-0.7-0.5H2.9V5.3h3.4c0.4,0,0.7-0.2,0.7-0.5c0-0.3-0.3-0.5-0.7-0.5H2.9V2.7H18l-3.3,3.2
	c-0.2,0.2-0.2,0.4,0,0.6L18,9.7H2.9L2.9,9.7z"/>
</svg>
