<?xml version="1.0" encoding="utf-8"?>
<!-- Generator: Adobe Illustrator 19.2.0, SVG Export Plug-In . SVG Version: 6.00 Build 0)  -->
<svg version="1.1" id="Layer_1" xmlns="http://www.w3.org/2000/svg" xmlns:xlink="http://www.w3.org/1999/xlink" x="0px" y="0px"
	 viewBox="0 0 512 612" style="enable-background:new 0 0 512 612;" xml:space="preserve">
<style type="text/css">
	.st0{fill:#FFFFFF;}
	.st1{fill:#1D1D1B;}
	.st2{fill:#3F3F3E;}
</style>
<g>
	<g>
		<path class="st0" d="M162.1,479.5L130.6,511c-4.5,4.5-8.1,13.2-8.1,19.5v82h47.7V482.9C170.2,476.6,166.6,475.1,162.1,479.5z
			 M371.5,401.8L340,433.3c-4.5,4.5-8.1,13.2-8.1,19.5v159.7h47.7V405.1C379.6,398.8,375.9,397.3,371.5,401.8z M437.9,335.4
			l-28.2,28.1c-4.5,4.4-8.1,13.2-8.1,19.5v229.5h44.3V338.8C446,332.5,442.3,331,437.9,335.4z M301.7,471.6l-30.1,30
			c0,0-2.1,2.1-4.7,4.8c-2.6,2.6-4.7,9.9-4.7,16.2v90h47.7V474.9C309.8,468.6,306.1,467.1,301.7,471.6z M224.7,501.6l-24.3-24.2
			c-4.5-4.4-8.1-3-8.1,3.3v131.8H240v-84.2c0-6.3-3.4-14.8-7.7-19L224.7,501.6z M92.3,549.3L70.6,571l-15.4,15.4
			c-4.5,4.5-8.1,12.1-8.1,17.1v9h53.2v-59.9C100.4,546.3,96.8,544.8,92.3,549.3z M488.7,148.5H326.5c-6.3,0-7.8,3.6-3.3,8.1
			l57.7,57.7l-23.5,23.4L248.2,346.8l-57.7-57.7c-4.5-4.5-11.7-4.4-16.1,0L13.8,449.6c-17.8,17.8-17.8,46.7,0,64.5l1.1,1.1
			c17.8,17.8,46.8,17.8,64.6,0l102.9-102.8l57.7,57.6c4.5,4.4,11.7,4.4,16.2,0l190.2-190.1l56.9,56.8c4.5,4.5,8.1,3,8.1-3.3v-163
			C511.5,158.7,500.3,148.5,488.7,148.5z"/>
	</g>
</g>
<g>
	<path class="st0" d="M239,0.5H112.1c-42.3,0-76.6,34.3-76.6,76.6V204c0,42.3,34.3,76.6,76.6,76.6H239c42.3,0,76.6-34.3,76.6-76.6
		V77.1C315.5,34.8,281.2,0.5,239,0.5z"/>
</g>
<path class="st1" d="M195,93h39.9c2.3,0,4.1,1.8,4.1,4.1v7.5c0,2.3-1.8,4.1-4.1,4.1H195c-2.3,0-4.1-1.8-4.1-4.1v-7.5
	C190.9,94.8,192.7,93,195,93z"/>
<path class="st1" d="M175.3,124.6h59.6c2.3,0,4.1,1.8,4.1,4.1v7.5c0,2.3-1.8,4.1-4.1,4.1h-59.6c-2.3,0-4.1-1.8-4.1-4.1v-7.5
	C171.2,126.4,173,124.6,175.3,124.6z"/>
<path class="st1" d="M160.3,155.8h74.6c2.3,0,4.1,1.8,4.1,4.1v7.5c0,2.3-1.8,4.1-4.1,4.1h-74.6c-2.3,0-4.1-1.8-4.1-4.1v-7.5
	C156.2,157.7,158,155.8,160.3,155.8z"/>
<path class="st2" d="M250.6,157.1c-7.9,33.6-38.1,58.6-74.1,58.6c-42.1,0-76.2-34.1-76.2-76.2c0-0.2,0-0.4,0-0.6l-22.1-1.2
	c0,0.2-5.7,6.7-5.7,6.9c0,5.9-2.5,6.6-1.6,12.2c8.3,50.7,52.3,89.4,105.4,89.4c59,0,106.8-47.8,106.8-106.8c0-0.2,0-0.4,0-0.5
	C283.2,138.9,261.9,151,250.6,157.1z"/>
<path class="st1" d="M70.6,155.7c0,0-2.2-15.9,9.4-21.3l15-9.7c0,0,6.6-4.1,13,1.2l13.5,9.6c0,0,2.9,2.4,5.8-1.8
	c0,0,48.5-86.1,109.1-96.3c0,0,5-0.2,6.1,4.1c0,0-3.7-4.2-13.9,1.4c0,0-36.5,10.9-95.8,131.6c0,0-2.5,3.8-6.6-0.6
	c0,0-25.6-25.2-40.7-33.4c0,0-7.1-4.3-10.9,3.9c0,0-2.3,2.8-2.9,11.3C71.5,155.6,70.9,158.3,70.6,155.7z"/>
</svg>
