<?xml version="1.0" encoding="utf-8"?>
<!-- Generator: Adobe Illustrator 18.0.0, SVG Export Plug-In . SVG Version: 6.00 Build 0)  -->
<!DOCTYPE svg PUBLIC "-//W3C//DTD SVG 1.1//EN" "http://www.w3.org/Graphics/SVG/1.1/DTD/svg11.dtd">
<svg version="1.1" id="Layer_1" xmlns="http://www.w3.org/2000/svg" xmlns:xlink="http://www.w3.org/1999/xlink" x="0px" y="0px"
	 viewBox="-84 346 780 100" enable-background="new -84 346 780 100" xml:space="preserve">
<g>
	<g>
		<path fill="#575759" d="M445.3,346.5h-4.5v41.3c-1.3-1-2.3-1.9-3.6-2.6c-7.3-4.5-15.2-5.5-23.5-3.9c-6.4,1.2-12.1,4-16.6,8.7
			c-7.8,8.2-10.7,18.1-8.7,29.1c2.3,12.8,9.8,21.6,22.4,25.3c2.6,0.7,5.3,0.9,7.9,1.4h3.8c0.3-0.1,0.7-0.2,1-0.2
			c6.2-0.5,11.6-2.7,16.2-6.9c0.2-0.2,0.5-0.4,0.9-0.7v6.6h4.4V443c0-31.7,0-63.4,0-95.1C445.3,347.3,445.3,346.9,445.3,346.5z
			 M440.8,413.1c0,5.9,0,11.9,0,17.8c0,1.8-0.6,3.1-2,4.4c-5.4,4.4-11.5,6.9-18.6,6.8c-13.9-0.1-25.1-9.6-27.4-23.3
			c-1.5-9.2,0.3-17.6,6.6-24.8c5-5.7,11.4-8.6,18.9-9.2c7.8-0.6,14.8,1.6,20.8,6.7c1.2,1,1.8,2.3,1.8,4
			C440.8,401.2,440.8,407.1,440.8,413.1z M307.7,401.4c-0.1-9.5-5-16.3-14.1-19.4c-5.4-1.9-10.9-1.8-16.5-1c-4.8,0.7-9,2.7-12.3,6.3
			c-1,1-1.8,2.3-2.8,3.6c0-0.6,0-1,0-1.5c0-14.4,0-28.7,0-43h-4.3c0,0.2,0,0.3,0,0.5c0,32.2,0,64.5,0,96.7c0,0.3,0.1,0.6,0.1,1h4.3
			v-2.9c0-13.2,0-26.6,0-39.8c0-6.9,3.1-11.9,9.2-15.1c3.8-2,7.9-2.8,12.2-2.5c2.7,0.2,5.6,0.5,8.2,1.4c7.7,2.4,11.6,8.6,11.6,17.2
			c0,12.9-0.1,25.8-0.1,38.7c0,2.9,0.2,3.1,3.1,2.9c1-0.1,1.5-0.5,1.5-1.5c0.1-0.9,0-1.9,0-2.7C307.7,427.3,307.7,414.3,307.7,401.4
			z M586.8,380.7c-12.4-1.1-21.8,4.4-28.3,14.7c-4.3,6.9-5.1,14.7-4.1,22.6c1.6,13,10.3,23.1,22.9,26.5c1.9,0.5,4,0.8,5.9,1.2h6.9
			c0.9-0.2,1.8-0.2,2.7-0.5c2.7-0.7,5.6-1.5,8.2-2.4c2.8-1,4-3.6,3.2-6.4c-0.3,0.2-0.6,0.3-0.8,0.5c-6.3,3.9-13.1,5.4-20.3,4.6
			c-14.5-1.6-24.4-13.3-24.6-27.4c0-2.1,0.5-2.6,2.6-2.6c1.9,0,3.6,0.1,5.5,0.1c11.4,0,22.7,0,34.1,0c1.3,0,2.6,0,4,0
			c2.3-0.1,4.9-2.1,4.9-4c0-2.3,0-4.6-0.4-6.9C607.3,389.2,597.7,381.6,586.8,380.7z M603.1,407.7c-7,0-14.1,0-21.1,0
			c-7.1,0-14.1,0-21.2,0c-1.6,0-1.9-0.3-1.5-1.9c2.4-9.9,8-17.4,18-20.6c9.9-3.2,24.5,0.7,27.6,15.9c0.3,1.5,0.3,3,0.3,4.5
			C605.2,407.4,604.8,407.7,603.1,407.7z M366.1,384.8c-11.6-7.4-26.8-5.2-36.2,5.5c-7.3,8.3-9.8,18.1-7.8,28.8
			c2.2,12.3,9.1,20.8,21.2,24.9c2.5,0.9,5.2,1.2,7.8,1.8h6.7c1.3-0.2,2.7-0.4,4-0.7c2.4-0.6,4.8-1.3,7.1-2.3
			c2.6-1.1,3.8-3.8,3.1-6.3c-0.3,0.2-0.6,0.3-0.9,0.5c-6.9,4.1-14.2,5.6-22,4.3c-13.2-2-23.2-14-22.9-27.3c0-1.9,0.6-2.4,2.4-2.4
			c1.9,0,3.6,0.1,5.5,0.1c12.7,0,25.4,0,38,0c2.9,0,5.1-2.3,5.1-5.2c0-0.6,0-1.2,0-1.8C376.9,396.1,373.4,389.4,366.1,384.8z
			 M370.6,407.7c-5.3,0-10.7-0.1-16.1-0.1c-1.7,0-3.4,0-5.1,0v0.1c-7,0-14,0-21,0c-1.7,0-1.9-0.2-1.6-1.9
			c1.8-10.1,10.4-19.2,20.5-21c7.8-1.4,14.7,0.3,20.2,6.3c3.8,4.1,5.2,9.2,5.3,14.8C372.8,407.2,372.3,407.7,370.6,407.7z
			 M511.5,381.8c-2.6,0-2.6,0-2.6,2.6c0,13.3,0,26.6,0,40c0,6.2-2.6,11.1-8,14.2c-5.7,3.4-12,4-18.4,2.8c-9-1.6-14.5-7.9-14.8-17
			c-0.1-3.4,0.1-6.9,0.1-10.3c0-10.2,0-20.3-0.1-30.4c0-1.5-0.4-1.9-1.9-1.9c-2.1,0-2.4,0.2-2.4,1.9c0,3.2,0,6.5,0,9.8
			c0,10.5,0,21.1,0,31.6c0,4.8,1.1,9.1,4.4,12.8c2.9,3.4,6.7,5.3,10.8,6.6c1.7,0.6,3.6,0.8,5.3,1.2h6.7c0.9-0.2,1.7-0.3,2.6-0.5
			c4.4-0.8,8.8-2,12.2-5.2c1.3-1.2,2.4-2.7,3.7-4.1c0,2.2,0,4.4,0,6.5c0,1.7,0.5,2.2,2.1,2.1c1.7,0,2-0.4,2-2.2
			c0-19.6,0-39.2,0-58.8C513.2,381.9,513.1,381.8,511.5,381.8z M174.8,415.7c-3.8-3.1-8.2-4.8-12.8-6.5c-2.7-1-5.3-2-7.6-3.9
			c-3.4-2.8-4.8-6.5-4.1-10.9c0.7-4.4,3.6-7.3,7.8-8.6c5.6-1.7,10.8-0.5,15.8,2.2c0.6,0.3,1.1,0.6,1.8,1c0.4-0.6,0.9-1.2,1.2-1.8
			c0.6-1.1,0.4-2-0.6-2.7c-0.4-0.2-0.9-0.5-1.4-0.7c-4.2-1.9-8.7-2.7-13.3-2.5c-3.9,0.2-7.5,1.3-10.6,3.8
			c-4.3,3.5-6.1,10.3-4.3,16.2c1.4,4.7,4.8,7.7,8.9,9.8c2.6,1.3,5.4,2.3,8.2,3.4c3.1,1.2,6.1,2.6,8.6,4.8c3.7,3.4,5.3,7.4,4.1,12.4
			c-1.2,4.8-4.4,7.3-9,8.6c-7.6,2-14.5,0.5-20.8-4c-0.7-0.5-1.5-1-2.3-1.7c-0.2,0.4-0.2,0.7-0.4,1v1.2c0.5,2.6,2.3,4,4.5,5.2
			c6.2,3,12.7,3.8,19.4,2.2c4.2-1,8.1-2.7,10.7-6.4C183.1,431.1,181.6,421.1,174.8,415.7z M536.8,431c0.1-8.2,0-16.5,0-24.7
			c0-19.5-0.1-39-0.1-58.5c0-0.4-0.1-0.9-0.1-1.3h-4.3c0,0.5,0.1,1,0.1,1.5c0,28.1,0,56.2,0,84.3c0,1.6,0.2,3.3,0.6,4.9
			c0.8,4,3.4,6.5,6.8,8.5h1.2c1.1-0.9,2.2-1.7,3.6-2.7C538.4,440.9,536.8,436.6,536.8,431z M239.4,384.1c-7.1-2.9-14.4-3.8-22-2.6
			c-11.6,1.9-19.7,8.2-24.1,19.2c-2.4,6.1-2.6,12.5-1.5,18.9c1,6.5,3.7,12.4,8.7,16.8c11.6,10.3,24.9,10.7,38.9,6
			c1.5-0.5,2.1-1.7,2-3.3c0-0.6-0.2-1.1-0.2-1.6c-2.5,0.9-4.8,1.9-7.3,2.6c-8.5,2.4-16.7,2-24.5-2.4c-10.4-6.1-14.7-15.5-13.8-27.3
			c1.4-17.4,17.1-28.7,34.2-24.9c4.1,1,8.1,2.4,11.6,4.7C243.2,386.6,242.8,385.6,239.4,384.1z M650.8,414.4
			c-3.6-2.5-7.6-3.9-11.6-5.4c-2.7-1-5.2-2.1-7.4-4c-3.6-3.1-4.5-6.9-3.6-11.4c0.9-4.2,3.6-6.6,7.7-7.8c4.1-1.2,8.2-0.9,12.1,0.6
			c1.5,0.6,2.8,1.4,4.3,2c1.3,0.6,2,0.2,2.2-1.1c0.2-1.6-0.4-2.7-1.9-3.4c-5.6-2.7-11.4-3.2-17.4-2.1c-3.6,0.7-6.5,2.5-8.7,5.4
			c-5.3,7-3.5,17.1,4.1,22.3c3.1,2.1,6.5,3.4,10,4.6c3,1,5.8,2.3,8.3,4.4c4,3.2,6.2,7.3,5.1,12.5c-1.1,5.2-4.8,8.1-9.7,9.4
			c-4,1-7.9,0.8-11.9-0.2c-4.1-1-7.6-3.1-10.8-6c-0.5,3.3,0.6,5.8,3.6,7.3c7.8,3.9,15.7,4.7,23.8,1.5c7-2.7,10.7-9.4,9.7-16.8
			C657.9,421.1,654.9,417.3,650.8,414.4z M681.6,391.5v-0.2c1.5-0.5,2.6-1.5,2.6-3c0-1.3-0.6-2.3-1.2-2.8c-0.9-0.6-1.9-1-4.3-1
			c-2,0-3.6,0.2-4.8,0.4v12.9h2.9v-5.2h1.4c1.6,0,2.3,0.6,2.6,2c0.4,1.5,0.6,2.7,1,3.1h3.1c-0.3-0.5-0.6-1.3-0.9-3.2
			C683.5,392.9,682.8,392,681.6,391.5z M678.2,390.5h-1.4v-3.7c0.3-0.1,0.8-0.2,1.6-0.2c1.8,0,2.7,0.8,2.7,1.9
			C681.1,390,679.8,390.5,678.2,390.5z M678.7,378.2c-7.1,0-12.8,5.7-12.8,12.9c0,7.3,5.7,13.1,12.8,13.1c7.2,0,12.7-5.7,12.7-13.1
			C691.4,383.9,685.9,378.2,678.7,378.2z M678.8,401.4c-5.6,0-9.7-4.6-9.7-10.3c0-5.7,4.1-10.3,9.6-10.3s9.5,4.7,9.5,10.4
			C688.3,396.8,684.2,401.4,678.8,401.4z"/>
	</g>
</g>
<path fill="#55A2F0" d="M-52.7,346.5h73l-3.2,17l-57,60.8H5.3L1,445.2h-77.8l3.2-17l57-61.9h-40.1L-52.7,346.5z"/>
<path fill="#55A2F0" d="M29.3,346.5H56l-20.8,98.7H8L29.3,346.5z"/>
<path fill="#55A2F0" d="M127.4,365.3c-3.1-17.6-26.2-18.5-26.2-18.5H66l-21.3,98.5h27.2l8-36.9l18.1-1
	C122.6,407,130.5,382.5,127.4,365.3z M105.5,377.9c-1.5,10.4-10.7,11.7-10.7,11.7l-11.2,0.6l5.3-25.6l10.7,0.6
	C103.4,365.7,107.2,367.6,105.5,377.9z"/>
</svg>
