<?xml version="1.0" encoding="utf-8"?>
<!-- Generator: Adobe Illustrator 18.0.0, SVG Export Plug-In . SVG Version: 6.00 Build 0)  -->
<!DOCTYPE svg PUBLIC "-//W3C//DTD SVG 1.1//EN" "http://www.w3.org/Graphics/SVG/1.1/DTD/svg11.dtd">
<svg version="1.1" id="Layer_1" xmlns="http://www.w3.org/2000/svg" xmlns:xlink="http://www.w3.org/1999/xlink" x="0px" y="0px"
	 viewBox="-24 346 660 100" enable-background="new -24 346 660 100" xml:space="preserve">
<g>
	<g>
		<g>
			<path fill="#575759" d="M622.3,348.3c-6.3,0-11.4,5.1-11.4,11.4c0,6.3,5.1,11.4,11.4,11.4c6.3,0,11.4-5.1,11.4-11.4
				C633.8,353.4,628.6,348.3,622.3,348.3z M622.3,368.7c-4.9,0-8.9-4-8.9-8.9c0-4.9,4-8.9,8.9-8.9c4.9,0,8.9,4,8.9,8.9
				C631.2,364.7,627.2,368.7,622.3,368.7z M615.7,357.3h2v5.7h1.4v-5.7h2v-1.2h-5.4L615.7,357.3L615.7,357.3z M625.2,360.8l-1.2-4.6
				h-2.1v6.9h1.2v-5.4l1.4,5.4h1.3l1.4-5.4v5.4h1.2v-6.9h-2.1L625.2,360.8z M248.1,393.6c-2.1-1.4-4.6-2.6-7.6-3.5
				c-3-0.9-6.3-1.8-10-2.6c-3.5-0.8-6.6-1.5-9.1-2.2s-4.6-1.6-6.2-2.6c-1.7-1-2.8-2.3-3.6-3.7c-0.8-1.5-1.2-3.3-1.2-5.5
				c0-4.3,1.5-7.8,4.6-10.3c3-2.6,7.9-3.8,14.6-3.8c8.1,0,14.4,2.5,18.9,7.4l2.5-3.9c-2.8-2.7-6-4.7-9.4-6c-3.5-1.3-7.4-2-11.9-2
				c-3.6,0-6.9,0.4-9.8,1.2c-3,0.8-5.5,2.1-7.6,3.7s-3.8,3.7-5,6c-1.2,2.4-1.8,5.1-1.8,8.2c0,2.8,0.5,5.2,1.5,7.1
				c1,1.9,2.4,3.5,4.3,4.8c1.9,1.3,4.2,2.4,7.1,3.3c2.8,0.9,6,1.7,9.7,2.4c3.6,0.8,6.7,1.6,9.4,2.4c2.7,0.8,4.9,1.8,6.7,3
				c1.8,1.2,3.1,2.5,4,4.1c0.9,1.6,1.3,3.5,1.3,5.8c0,4.4-1.7,7.8-5.1,9.9c-3.4,2.2-8,3.3-14.1,3.3c-5.2,0-9.9-0.9-14.1-2.6
				c-4.2-1.8-7.7-4.2-10.6-7.2l-2.6,4c7.4,6.8,16.4,10.3,27.1,10.3c3.7,0,7-0.4,10-1.2s5.5-1.9,7.7-3.4c2.1-1.5,3.8-3.4,5-5.6
				c1.2-2.2,1.8-4.9,1.8-7.9c0-3-0.6-5.5-1.7-7.6C251.9,396.8,250.2,395,248.1,393.6z M302.7,378.9c-1.3-1.9-3-3.4-5-4.4
				c-2-1-4.4-1.5-7.1-1.5c-4.2,0-8.1,1.2-11.7,3.5c-3.6,2.3-6.5,5.4-8.5,9.4v-32.2h-4.9V424h4.9v-31.1c0.6-2.2,1.6-4.2,2.9-6.1
				c1.3-1.9,2.8-3.5,4.5-5c1.7-1.4,3.5-2.5,5.5-3.3s4-1.2,6-1.2c8.3,0,12.5,6.2,12.5,18.6v28h4.9v-28.8c0-3.4-0.3-6.4-0.9-9.2
				C305,383.2,304,380.9,302.7,378.9z M321.2,362.4h4.9v-8.9h-4.9V362.4z M321.2,424h4.9v-50.2h-4.9V424z M363.1,353.4
				c-1.8-0.6-3.7-0.9-5.6-0.9c-4.4,0-7.9,1.7-10.4,5.1c-2.5,3.5-3.7,8.2-3.7,14.4v1.7h-7.1v4h7.1v46.2h4.9v-46.2h14.3v-4h-14.3v-1.7
				c0-4.9,0.9-8.7,2.6-11.4c1.8-2.6,4.3-3.9,7.6-3.9c1.4,0,2.8,0.2,4.1,0.7s2.4,1,3.3,1.7l1.7-3.5
				C366.4,354.8,364.9,354.1,363.1,353.4z M390.1,419c-1.5,0.7-3.2,1-5.2,1c-1.6,0-3-0.5-4.4-1.4c-1.3-0.9-1.9-2.4-1.9-4.2v-36.7
				h11.7v-4h-11.7v-17.2h-4.9v17.2h-7v4h7.1v37.8c0,1.5,0.3,2.8,0.8,3.9c0.5,1.1,1.2,2,2.1,2.8s1.9,1.3,3.1,1.7
				c1.2,0.4,2.5,0.6,3.8,0.6s2.6-0.1,3.7-0.4c1.2-0.3,2.2-0.6,3.1-0.9c0.9-0.3,1.7-0.7,2.3-1c0.6-0.3,1-0.6,1.3-0.7l-1.5-3.9
				C392.4,417.9,391.6,418.3,390.1,419z M441.9,388.9c3.1-1.3,5.5-3.5,7.2-6.4s2.6-6.1,2.6-9.6c0-2.1-0.3-4.2-1.1-6.3
				c-0.8-2.1-1.8-4-3.1-5.6c-1.3-1.7-3-3-4.9-4s-4.1-1.5-6.4-1.5h-32v68.5h32c2.5,0,4.9-0.4,7.1-1.3c2.2-0.9,4.2-2.1,5.9-3.7
				s3-3.5,4-5.6c1-2.1,1.5-4.5,1.5-7c0-4-1.1-7.7-3.4-10.9C448.9,392.2,445.9,390,441.9,388.9z M409,360h25.6c1.8,0,3.5,0.3,4.9,1.1
				s2.8,1.7,3.8,3c1,1.2,1.9,2.7,2.5,4.4c0.6,1.7,0.9,3.4,0.9,5.3c0,1.7-0.3,3.5-1,5.1c-0.6,1.7-1.5,3.1-2.6,4.4s-2.5,2.3-4,3
				c-1.5,0.8-3.3,1.2-5.1,1.2h-25V360z M448.6,410.8c-0.7,1.7-1.7,3.2-2.8,4.5c-1.2,1.3-2.6,2.4-4.2,3.1c-1.7,0.8-3.4,1.2-5.3,1.2
				H409v-28.1h27.8c1.8,0,3.5,0.4,5.1,1.2c1.6,0.8,2.9,1.8,4.1,3.1c1.2,1.3,2.1,2.8,2.7,4.5c0.6,1.7,1,3.5,1,5.3
				C449.7,407.4,449.4,409.1,448.6,410.8z M505,380.7c-2.2-2.4-4.8-4.2-7.8-5.6s-6.2-2.1-9.6-2.1s-6.7,0.7-9.7,2.1s-5.6,3.3-7.8,5.6
				c-2.2,2.4-3.9,5.1-5.2,8.3c-1.2,3.1-1.9,6.5-1.9,10c0,3.5,0.6,6.8,1.8,9.9c1.2,3.1,2.9,5.9,5.1,8.3c2.2,2.4,4.8,4.2,7.8,5.6
				c3,1.4,6.2,2.1,9.8,2.1c3.5,0,6.7-0.7,9.7-2.1c3-1.4,5.6-3.3,7.8-5.6c2.2-2.4,3.9-5.1,5.2-8.3c1.2-3.1,1.9-6.4,1.9-9.9
				c0-3.5-0.6-6.9-1.9-10C509.1,385.8,507.3,383,505,380.7z M505.7,407.4c-1,2.6-2.4,4.9-4.2,6.9c-1.8,2-3.9,3.5-6.3,4.7
				c-2.4,1.1-4.9,1.7-7.6,1.7s-5.3-0.6-7.6-1.7c-2.4-1.1-4.4-2.6-6.2-4.6s-3.2-4.2-4.2-6.8c-1-2.6-1.5-5.4-1.5-8.3
				c0-3,0.6-5.8,1.6-8.5c1-2.6,2.5-5,4.2-7c1.8-2,3.8-3.5,6.2-4.7c2.4-1.2,4.9-1.7,7.6-1.7c2.7,0,5.2,0.6,7.6,1.7
				c2.4,1.2,4.4,2.7,6.2,4.7c1.8,1.9,3.2,4.2,4.2,6.9c1,2.6,1.5,5.4,1.5,8.3C507.3,402,506.7,404.7,505.7,407.4z M562.2,380.7
				c-2.2-2.4-4.8-4.2-7.8-5.6s-6.2-2.1-9.6-2.1s-6.7,0.7-9.7,2.1s-5.6,3.3-7.8,5.6c-2.2,2.4-3.9,5.1-5.2,8.3
				c-1.2,3.1-1.9,6.5-1.9,10c0,3.5,0.6,6.8,1.8,9.9c1.2,3.1,2.9,5.9,5.1,8.3c2.2,2.4,4.8,4.2,7.8,5.6s6.2,2.1,9.8,2.1
				c3.5,0,6.7-0.7,9.7-2.1s5.6-3.3,7.8-5.6c2.2-2.4,3.9-5.1,5.2-8.3c1.2-3.1,1.9-6.4,1.9-9.9c0-3.5-0.6-6.9-1.9-10
				C566.2,385.8,564.4,383,562.2,380.7z M562.8,407.4c-1,2.6-2.4,4.9-4.2,6.9c-1.8,2-3.9,3.5-6.3,4.7c-2.4,1.1-4.9,1.7-7.6,1.7
				s-5.3-0.6-7.6-1.7c-2.4-1.1-4.4-2.6-6.2-4.6s-3.2-4.2-4.2-6.8c-1-2.6-1.5-5.4-1.5-8.3c0-3,0.6-5.8,1.6-8.5c1-2.6,2.5-5,4.2-7
				c1.8-2,3.8-3.5,6.2-4.7c2.4-1.2,4.9-1.7,7.6-1.7s5.2,0.6,7.6,1.7c2.4,1.2,4.4,2.7,6.2,4.7c1.8,1.9,3.2,4.2,4.2,6.9
				c1,2.6,1.5,5.4,1.5,8.3C564.4,402,563.9,404.7,562.8,407.4z M621.8,374h-5.6l-30.5,28.8v-49.2h-4.9V424h4.9v-15.9l11.9-10.9
				l19.6,26.8h5.3l-21.6-29.7L621.8,374z"/>
		</g>
	</g>
	<path fill="#FD0302" d="M53.8,424.3H17l47.4-60.8L68,347H1.2l-4.5,21.6h32.4l-46.7,61l-3.2,16.4h70.1L53.8,424.3z"/>
	<path fill="#FD0302" d="M89.2,446l20.9-99H83.2l-20.9,99H89.2z"/>
	<path fill="#FD0302" d="M184.8,354.7c-6.2-5.1-15.2-7.7-27-7.7h-25.3l-20.9,99h26.5l6.8-32.9h5.8c13.4,0,24.1-3.3,31.8-9.7
		c7.8-6.4,11.6-15.4,11.6-26.8C194.2,367.1,191.1,359.8,184.8,354.7z M154.5,368.6h4c2.8,0,5.1,0.8,6.7,2.4c1.7,1.6,2.4,3.7,2.4,6.4
		c0,4.1-1.2,7.4-3.8,10c-2.5,2.6-5.8,4-10,4h-4.3L154.5,368.6z"/>
</g>
<path fill="#FD0302" d="M544.9,390.5c4.8,0,8.7,3.9,8.7,8.7s-3.9,8.7-8.7,8.7s-8.7-3.9-8.7-8.7C536.2,394.3,540.1,390.5,544.9,390.5
	z"/>
<path fill="#575759" d="M569.2,428.2c0,1.8,0,3.6,0,5.4c0,0.1-0.1,0.3-0.1,0.4c-0.2,1.1-0.3,2.2-0.6,3.3c-0.8,3.3-2.4,6.2-4.5,8.7
	c-0.1,0.2-0.5,0.3-0.7,0.3c-2.6,0.1-5.2,0.1-7.8,0.1c-3.4,0-6.9,0-10.3,0c-0.3,0-0.6-0.1-0.8-0.3c-1.2-1.4-2.4-2.8-3.7-4.2
	c-0.8-0.9-1.7-1.9-2.1-3.1c-0.4-1.1-0.8-2.3-1.1-3.4c-0.7-2.4-1.2-4.9-0.8-7.5c0.3-2.3,1.5-4,4-4.4c0.6-0.1,0.6-0.3,0.6-0.8
	c0.1-2.1,0.3-4.2,0.3-6.3c0.1-1.7,0.2-3.3,0.3-4.9c0.1-1.5,0.1-3,0.1-4.5c0.1-1.1,0.1-2.3,0.2-3.4c0.1-1.3,0.1-2.6,0.1-3.9
	c0.1-1,0.1-1.9,1-2.6c0.6-0.4,1.1-0.6,1.8-0.8c0.3,0,0.6,0,0.8,0c0.1,0,0.2,0.1,0.3,0.1c1.4,0.3,2.4,1.4,2.4,2.8c0,1,0,2.1,0,3.1
	c0,1.2,0,2.4-0.1,3.5c0,3-0.1,6-0.1,9c0,0.2,0,0.4,0,0.8c1.3-1.2,2.8-1.4,4.3-1c1.6,0.4,2.6,1.4,3.2,3c1.2-1.5,2.6-1.6,4.2-1.2
	c1.7,0.4,2.7,1.5,3.3,3.2c0.3-0.7,0.8-1,1.3-1.1c0.5-0.1,1-0.1,1.5,0.1c1.6,0.5,2.5,1.8,2.6,3.6c0.1,1.8,0.1,3.5,0.2,5.3
	C569.2,427.7,569.2,427.9,569.2,428.2z"/>
</svg>
