<?xml version="1.0" encoding="utf-8"?>
<!-- Generator: Adobe Illustrator 19.2.0, SVG Export Plug-In . SVG Version: 6.00 Build 0)  -->
<svg version="1.1" id="Layer_1" xmlns="http://www.w3.org/2000/svg" xmlns:xlink="http://www.w3.org/1999/xlink" x="0px" y="0px"
	 viewBox="0 0 512 612" style="enable-background:new 0 0 512 612;" xml:space="preserve">
<style type="text/css">
	.st0{fill:#FFFFFF;}
	.st1{fill:none;}
</style>
<g>
	<g>
		<path class="st0" d="M162.6,479l-31.5,31.5c-4.5,4.5-8.1,13.2-8.1,19.5v82h47.7V482.4C170.7,476.1,167.1,474.6,162.6,479z
			 M372,401.3l-31.5,31.5c-4.5,4.5-8.1,13.2-8.1,19.5V612h47.7V404.6C380.1,398.3,376.4,396.8,372,401.3z M438.4,334.9L410.2,363
			c-4.5,4.4-8.1,13.2-8.1,19.5V612h44.3V338.3C446.5,332,442.8,330.5,438.4,334.9z M302.2,471.1l-30.1,30c0,0-2.1,2.1-4.7,4.8
			c-2.6,2.6-4.7,9.9-4.7,16.2v90h47.7V474.4C310.3,468.1,306.6,466.6,302.2,471.1z M225.2,501.1l-24.3-24.2c-4.5-4.4-8.1-3-8.1,3.3
			V612h47.7v-84.2c0-6.3-3.4-14.8-7.7-19L225.2,501.1z M92.8,548.8l-21.7,21.7l-15.4,15.4c-4.5,4.5-8.1,12.1-8.1,17.1v9h53.2v-59.9
			C100.9,545.8,97.3,544.3,92.8,548.8z M489.2,148H327c-6.3,0-7.8,3.6-3.3,8.1l57.7,57.7l-23.5,23.4L248.7,346.3L191,288.6
			c-4.5-4.5-11.7-4.4-16.1,0L14.3,449.1c-17.8,17.8-17.8,46.7,0,64.5l1.1,1.1c17.8,17.8,46.8,17.8,64.6,0l102.9-102.8l57.7,57.6
			c4.5,4.4,11.7,4.4,16.2,0L447,279.4l56.9,56.8c4.5,4.5,8.1,3,8.1-3.3v-163C512,158.2,500.8,148,489.2,148z"/>
	</g>
</g>
<g>
	<path class="st0" d="M238.5,0h-126c-42,0-76,34-76,76v126c0,42,34,76,76,76h126c42,0,76-34,76-76V76C314.5,34,280.5,0,238.5,0z"/>
</g>
<path d="M273.2,142c0,54.6-44.2,98.8-98.8,98.8S75.6,196.6,75.6,142s44.2-98.8,98.8-98.8C229,43.2,273.2,87.4,273.2,142z
	 M256.7,146.4c-0.8,0-1.2,0-1.7,0c-4,0-8.1,0-12.1,0c-2.7,0-4.7-1.7-4.7-4.2c0-2.4,1.9-4.2,4.7-4.2c4.1,0,8.1,0,12.2,0
	c0.5,0,0.9,0,1.6,0c-0.5-3.6-0.9-6.9-1.3-10.4c-1.5,0.3-2.7,0.5-3.9,0.7c-2.1,0.4-4.3,0.8-6.4,1.2c-0.7,0.1-1.5,0.3-1.6-0.6
	c0-0.3,0.8-0.7,1.3-1c0.3-0.2,0.7-0.2,1.1-0.2c3-0.6,6.1-1.2,9.2-1.7c-1.3-6.1-3-11.9-5.6-17.5c-3.3,1.7-6.5,3.4-9.6,5.1
	c-0.6,0.3-1.4,0.8-1.7-0.2c-0.1-0.3,0.5-1.1,0.9-1.3c1.4-0.9,2.9-1.6,4.4-2.4c1.7-0.9,3.4-1.8,5.5-2.9c-3-4.9-5.9-9.7-8.9-14.5
	c-1,0.8-1.7,1.4-2.4,1.9c-2.3,1.9-4.5,3.8-6.8,5.6c-0.3,0.2-0.9,0.1-1.4,0.2c0.1-0.5,0.1-1,0.4-1.5c0.2-0.4,0.7-0.6,1-0.9
	c2.6-2.2,5.3-4.4,8-6.6c-3.7-4.6-7.5-8.7-12-12.3c-2.5,3.2-4.8,6.2-7.2,9.2c-0.4,0.6-0.9,1.2-1.6,0.5c-0.2-0.2,0-1.2,0.3-1.6
	c1.2-1.7,2.5-3.2,3.7-4.8c1.1-1.4,2.2-2.9,3.6-4.6c-4.6-2.9-9-5.8-13.6-8.7c-1.9,3.7-3.7,7-5.4,10.3c-0.3,0.6-0.6,1.6-1.5,1.1
	c-1-0.5-0.3-1.2,0-1.8c1.1-2.1,2.2-4.2,3.3-6.2c0.7-1.3,1.3-2.5,2-3.9c-5.4-2.6-10.8-4.7-16.6-6c-0.1,0.3-0.2,0.6-0.2,0.8
	c-0.7,3.9-1.4,7.7-2.1,11.6c-0.1,0.5-0.7,0.9-1,1.3c-0.2-0.5-0.6-1.1-0.6-1.6c0.1-1.3,0.4-2.6,0.6-3.9c0.5-2.8,1-5.7,1.6-8.8
	c-4.6-0.6-9-1.2-13.5-1.9c0,0.9,0,1.4,0,1.8c0,4.4,0,8.8,0,13.2c0,0.8-0.1,1.6-0.3,2.3c-0.7,1.8-2.6,2.9-4.4,2.6
	c-2-0.3-3.5-1.9-3.5-4c-0.1-4.7,0-9.4,0-14.1c0-0.5,0-1,0-1.7c-3.5,0.4-6.7,0.8-10,1.2c0.1,0.5,0.1,0.7,0.1,0.9
	c0.6,3.4,1.2,6.8,1.8,10.3c0.1,0.4-0.4,0.9-0.6,1.3c-0.3-0.3-0.9-0.6-1-1c-0.3-1-0.4-2-0.6-3.1c-0.5-2.6-1-5.3-1.5-8
	c-5.8,1.2-11.2,2.8-16.5,5.1c0.2,0.4,0.3,0.6,0.4,0.9c1.6,3,3.2,6,4.7,9c0.2,0.4-0.1,1-0.2,1.5c-0.4-0.2-0.9-0.4-1.2-0.7
	c-0.3-0.2-0.4-0.6-0.5-0.9c-1.6-3-3.2-6-4.7-9c-3.1,1-12.2,6.3-13.8,8.1c2.3,2.9,4.6,5.8,6.8,8.8c0.2,0.3,0.6,0.6,0.7,1
	c0.1,0.3,0,0.9-0.2,1.1s-0.8,0.1-1-0.1c-0.4-0.3-0.7-0.8-1.1-1.2c-2.2-2.8-4.5-5.7-6.7-8.6c-4.7,3.5-8.9,7.4-12.7,11.8
	c0.8,0.7,1.5,1.3,2.3,1.9c2.5,2,5,4.1,7.4,6.2c0.3,0.3,0.3,0.9,0.5,1.4c-0.5-0.1-1.1,0-1.5-0.2c-0.4-0.1-0.6-0.5-1-0.7
	c-2.9-2.4-5.9-4.8-8.8-7.3c-3.7,4.5-6.9,9.2-9.6,14.4c0.6,0.3,1.1,0.6,1.6,0.9c3.2,1.7,6.4,3.4,9.6,5.1c0.6,0.3,1.4,0.5,1,1.4
	c-0.5,0.9-1.1,0.4-1.7,0.1c-1.4-0.7-2.8-1.5-4.2-2.2c-2.3-1.2-4.6-2.4-7-3.7c-2.9,5.8-5.1,11.6-6.5,17.8c0.4,0.1,0.6,0.2,0.8,0.2
	c4,0.7,8,1.5,12,2.3c0.5,0.1,1.4,0.8,1.4,1.1c-0.2,1-1,0.7-1.7,0.6c-3.1-0.6-6.1-1.2-9.2-1.7c-1.2-0.2-2.4-0.4-3.8-0.7
	c-0.6,4.5-1.2,8.7-1.8,13.2c0.8,0,1.3,0,1.8,0c4.1,0,8.1,0,12.2,0c2.6,0,4.4,1.8,4.3,4.2c0,2.4-1.8,4.2-4.4,4.2c-4.1,0-8.1,0-12.2,0
	c-0.5,0-1,0-1.8,0c0.7,4.7,1.3,9.2,1.9,13.7c0.8-0.1,1.3-0.2,1.8-0.3c3.3-0.6,6.7-1.3,10-1.8c0.4-0.1,1.3,0.2,1.4,0.5
	c0.3,0.8-0.5,1-1.1,1.1c-1.5,0.3-3,0.6-4.5,0.8c-2.3,0.4-4.6,0.9-7,1.3c1.5,6.1,3.7,11.8,6.5,17.4c1.3-0.7,2.6-1.3,3.8-2
	c2-1,4-2.1,6-3.1c0.4-0.2,1.4-0.2,1.6,0.1c0.5,0.7-0.2,1.1-0.8,1.4c-0.5,0.3-1,0.5-1.6,0.8c-2.7,1.4-5.5,2.9-8.3,4.4
	c2.7,5.1,5.7,9.7,9.4,14.1c1.5-1.2,2.9-2.4,4.3-3.5c1.5-1.2,2.9-2.5,4.4-3.6c0.3-0.2,0.9,0,1.4,0c-0.1,0.4-0.1,0.9-0.3,1.3
	c-0.1,0.2-0.4,0.3-0.6,0.5c-2.6,2.2-5.3,4.4-8,6.6c3.7,4.4,7.8,8.1,12.4,11.6c2.1-2.7,4.1-5.3,6.2-7.9c0.4-0.5,0.8-1.5,1.7-0.8
	c0.8,0.7,0,1.3-0.3,1.8c-0.1,0.1-0.2,0.2-0.3,0.3c-2,2.5-3.9,5-6.1,7.8c4.6,2.7,9,5.4,13.6,8.1c1.1-2,1.9-3.6,2.8-5.2
	c0.6-1.2,1.2-2.4,1.9-3.6c0.3-0.4,0.9-0.6,1.4-0.8c0,0.6,0.2,1.1,0,1.7c-0.1,0.6-0.5,1-0.8,1.6c-1.2,2.3-2.4,4.5-3.6,6.9
	c5.2,2.3,10.5,4,16.1,5.2c0.1-0.5,0.2-0.9,0.3-1.2c0.5-2.8,1-5.7,1.6-8.5c0.1-0.4,0.7-1.1,1-1.1c0.9,0,0.7,0.8,0.6,1.4
	c-0.1,0.8-0.3,1.5-0.4,2.3c-0.4,2.5-0.9,5-1.3,7.6c3.8,0.5,7.4,0.9,11.2,1.4c0-0.7,0-1.2,0-1.7c0-4.3,0-8.6,0-12.9
	c0-1.4,0.4-2.6,1.5-3.5c1.3-1.1,2.8-1.3,4.3-0.6c1.7,0.8,2.5,2.2,2.5,4c0,4.3,0,8.7,0,13c0,0.5,0,1,0.1,1.7
	c4.5-0.6,8.9-1.2,13.2-1.8c-0.1-0.9-0.2-1.4-0.3-1.9c-0.6-3.4-1.2-6.8-1.8-10.1c-0.1-0.4-0.1-1.1,0.6-1.4c0.7-0.1,0.9,0.7,1,1.2
	c0.4,1.5,0.6,3,0.8,4.5c0.4,2.4,0.9,4.8,1.3,7.3c5.8-1.4,11.2-3.3,16.4-5.9c-1.7-3.2-3.3-6.2-4.8-9.2c-0.3-0.6-1.3-1.5-0.2-2.1
	s1.3,0.6,1.7,1.3c1.2,2.2,2.4,4.5,3.6,6.7c0.5,0.9,0.9,1.7,1.5,2.8c4.5-2.9,8.9-5.7,13.4-8.6c-0.5-0.7-0.8-1.1-1.1-1.5
	c-2-2.6-4-5.1-6-7.7c-0.2-0.3-0.1-1-0.1-1.5c0.5,0.1,1.1,0.2,1.3,0.5c1.2,1.4,2.3,2.9,3.5,4.4s2.4,3,3.6,4.6
	c4.5-3.7,8.5-7.7,12-12.1c-2.9-2.4-5.7-4.7-8.5-7c-0.4-0.3-0.8-1.2-0.6-1.5c0.5-0.9,1.1-0.2,1.7,0.2c1.1,0.9,2.1,1.7,3.1,2.6
	c1.7,1.4,3.5,2.8,5.5,4.5c3-4.9,5.9-9.6,8.9-14.4c-2.5-1.3-4.6-2.4-6.7-3.5c-1-0.6-2.1-1-3.1-1.7c-0.4-0.3-0.9-1-0.7-1.3
	c0.3-0.8,1-0.5,1.6-0.2c0.2,0.1,0.3,0.2,0.5,0.3c3,1.5,5.9,3.1,9,4.7c2.6-5.6,4.4-11.3,5.6-17.3c-0.4-0.1-0.8-0.3-1.1-0.3
	c-3-0.6-6-1.1-8.9-1.7c-0.7-0.1-1.5-0.2-1.3-1.1c0.2-0.9,1-0.7,1.7-0.5c3.3,0.6,6.6,1.2,10.2,1.9
	C255.7,153.8,256.2,150.2,256.7,146.4z"/>
<path d="M148.5,190.8c-0.8-0.5-1.6-0.9-2.4-1.4c7.7-13.7,15.3-27.3,22.8-40.5c-0.9-1.9-1.8-3.6-2.6-5.3c-0.1-0.1-0.1-0.3-0.1-0.4
	c0.6-2.2-1.1-3.3-2.3-4.6c-10.1-10.1-20.1-20.2-30.2-30.3c-1.1-1.1-2-2.4-1.6-4.1c0.3-1.6,1.3-2.8,2.9-3.3c1.6-0.5,3-0.1,4.2,1.1
	c3,3,6,6,9,9c7.5,7.5,15,15,22.4,22.5c0.6,0.6,1.1,0.9,2.1,0.7c3-0.7,5.6,0.2,7.5,2.6c0.7,0.9,1.4,1.1,2.5,1.1c14.9,0,29.9,0,44.8,0
	c2.7,0,4.6,1.6,4.6,4.1c0.1,2.4-1.7,4.2-4.1,4.3c-0.4,0-0.8,0-1.2,0c-14.7,0-29.5,0-44.2,0c-1,0-1.6,0.2-2.3,1
	c-2,2.4-4.6,3.4-7.6,2.7c-1-0.2-1.3,0.1-1.8,0.8c-7.1,12.7-14.3,25.4-21.4,38.1C149.2,189.6,148.9,190.1,148.5,190.8z"/>
</svg>
