<?xml version="1.0" encoding="utf-8"?>
<!-- Generator: Adobe Illustrator 18.0.0, SVG Export Plug-In . SVG Version: 6.00 Build 0)  -->
<!DOCTYPE svg PUBLIC "-//W3C//DTD SVG 1.1//EN" "http://www.w3.org/Graphics/SVG/1.1/DTD/svg11.dtd">
<svg version="1.1" id="Layer_1" xmlns="http://www.w3.org/2000/svg" xmlns:xlink="http://www.w3.org/1999/xlink" x="0px" y="0px"
	 viewBox="46 346 520 100" enable-background="new 46 346 520 100" xml:space="preserve">
<g>
	<g>
		<path fill="#575759" d="M384.3,377.1c-18.4,0.2-33.4,15.5-33.4,34.5c0,19.2,15.9,34.4,34.6,34.1c18.1-0.3,33.2-15.7,33.2-34.3
			C418.6,391.2,402.3,376.9,384.3,377.1z M406.9,401.6c1.2-0.6,2.5-1.2,3.8-1.9c0.6,2,1.2,3.9,1.9,5.9c-1.4,0.3-2.7,0.6-4.1,0.9
			c0.1,0.2,0.1,0.3,0.1,0.5c1.3-0.2,2.5-0.4,4-0.7c0.2,1.2,0.3,2.2,0.4,3.5c-1.6,0-3.1,0-4.5,0c-1.2,0-1.8,0.5-1.8,1.5
			s0.6,1.5,1.8,1.5c1.5,0,2.9,0,4.5,0c-0.2,1.3-0.3,2.5-0.4,3.7c-1.4-0.2-2.7-0.4-3.9-0.6c-0.1,0.2-0.1,0.3-0.1,0.5
			c0.6,0.1,1.2,0.3,1.8,0.4c0.7,0.2,1.3,0.3,2.2,0.5c-0.6,2-1.2,3.9-1.9,5.9c-1.4-0.7-2.5-1.3-3.7-1.9c-0.1,0.1-0.2,0.3-0.2,0.4
			c0.9,0.9,2.3,1.3,3.6,2.1c-1,1.6-1.9,3.2-3,4.8c-1.2-0.9-2.3-1.8-3.3-2.6c-0.1,0.2-0.2,0.3-0.3,0.4c1,0.9,2,1.8,3.3,2.8
			c-1.4,1.3-2.8,2.6-4.3,3.9c-0.9-1.1-1.7-2.1-2.6-3.2c-0.2,0.1-0.3,0.2-0.4,0.3c0.8,1.2,1.6,2.2,2.5,3.5c-1.5,0.9-2.9,1.9-4.5,2.9
			c-0.7-1.3-1.4-2.5-2.1-3.8c-0.2,0.1-0.3,0.2-0.5,0.3c0.6,1.2,1.2,2.4,1.9,3.8c-1.9,0.7-3.6,1.3-5.5,2c-0.3-1.6-0.6-3.1-0.9-4.5
			c-0.2,0.1-0.3,0.1-0.5,0.1c0.2,1.5,0.4,2.9,0.7,4.5c-1.5,0.2-2.9,0.4-4.5,0.6c0-1.7,0-3.2,0-4.7c0-1.3-0.5-2-1.4-2
			c-0.9,0-1.4,0.7-1.4,2c0,1.5,0,3,0,4.7c-1.3-0.2-2.5-0.3-3.7-0.4c0.2-1.3,0.4-2.6,0.5-3.8c-0.2-0.1-0.3-0.1-0.4-0.1
			c-0.3,1.2-0.5,2.4-0.9,3.8c-1.8-0.5-3.5-1.2-5.4-1.7c0.6-1.3,1.2-2.4,1.7-3.5c-0.2-0.1-0.3-0.2-0.4-0.2c-0.6,1-1.2,2.1-1.9,3.3
			c-1.5-0.9-3-1.8-4.5-2.7c0.9-1.2,1.6-2.2,2.4-3.2c-0.2-0.1-0.3-0.2-0.5-0.4c-0.8,1-1.6,2-2.5,3.1c-1.4-1.3-2.7-2.5-4.2-3.9
			c1.1-1,2.1-1.9,3.1-2.8c-0.1-0.1-0.2-0.3-0.3-0.4c-1,0.8-2.1,1.6-3.3,2.6c-1-1.6-2.1-3.1-3.2-4.8c1.4-0.8,2.6-1.4,3.8-2.1
			c-0.1-0.2-0.2-0.3-0.3-0.5c-1.2,0.6-2.4,1.3-3.8,2c-0.7-2-1.5-3.8-2.2-5.9c1.6-0.3,3-0.7,4.4-1c-0.1-0.2-0.1-0.3-0.1-0.5
			c-1.4,0.2-2.8,0.4-4.4,0.7c-0.2-1.5-0.4-3-0.7-4.7c1.4,0,2.7,0,4,0c1.6,0,2.2-0.4,2.2-1.5c0-1.1-0.5-1.5-2.2-1.5
			c-1.3,0-2.6,0-4.1,0c0.2-1.5,0.4-3,0.6-4.5c1.8,0.3,3.3,0.5,4.9,0.8c0.1-0.2,0.1-0.3,0.1-0.5c-1.5-0.3-3.1-0.7-4.9-1.1
			c0.8-2,1.5-4,2.2-6.1c1.6,0.8,3,1.5,4.3,2.2c0.1-0.1,0.2-0.2,0.2-0.4c-1.1-1.2-2.8-1.5-4.2-2.6c1-1.6,2.1-3.2,3.2-4.8
			c1.3,1.1,2.5,2.1,3.7,3c0.1-0.1,0.2-0.2,0.3-0.3c-0.8-1.3-2.4-2-3.5-3.3c1.4-1.3,2.7-2.6,4.2-3.9c1,1.3,2,2.4,2.9,3.6
			c0.1-0.1,0.2-0.2,0.3-0.2c-0.4-1.4-1.8-2.4-2.5-3.8c1.5-0.9,3-1.8,4.5-2.7c0.8,1.4,1.4,2.6,2.1,3.8c0.2-0.1,0.3-0.2,0.5-0.2
			c-0.6-1.2-1.2-2.5-1.9-3.8c1.9-0.6,3.6-1.2,5.6-1.8c0.3,1.5,0.5,2.8,0.8,4.2c0.2,0,0.3-0.1,0.5-0.1c-0.2-1.4-0.4-2.7-0.5-4.2
			c1.1-0.1,2.1-0.3,3.3-0.4c0,1.8,0,3.3,0,5c0,1.2,0.5,1.9,1.4,1.9c0.9,0.1,1.5-0.7,1.5-1.9c0-1.6,0-3.2,0-5c1.6,0.2,3,0.4,4.5,0.6
			c-0.3,1.7-0.5,3.2-0.7,4.8c0.2,0.1,0.3,0.1,0.5,0.1c0.3-1.5,0.6-3.1,1-4.8c1.9,0.7,3.7,1.3,5.6,2c-0.7,1.5-1.4,2.8-2,4.1
			c0.2,0.1,0.3,0.2,0.5,0.2c0.7-1.3,1.4-2.5,2.2-4c1.5,1,3,1.9,4.5,2.9c-1,1.3-1.8,2.5-2.7,3.7c0.2,0.1,0.3,0.2,0.4,0.3
			c0.9-1.1,1.8-2.2,2.8-3.5c1.4,1.3,2.7,2.6,4.1,3.8c-1.1,1.5-2.6,2-3.3,3.3l0.3,0.3c1.1-0.9,2.2-1.8,3.4-2.8c1,1.6,2,3.2,3,4.9
			c-1.3,0.8-2.5,1.4-3.7,2.1C406.7,401.3,406.8,401.4,406.9,401.6z M530.5,382.8c-1.4-1.4-2.6-2.8-3.9-4.2
			c-9.4,7.6-18.7,15.1-28.2,22.8v-55.2H493v97.8h5.5v-33.4c11.6,11.4,23,22.6,34.5,33.9c1.5-1.4,2.8-2.6,4.3-4.1
			c-12-11.5-23.8-22.8-35.8-34.3C511.2,398.3,520.9,390.6,530.5,382.8z M299.8,383.1c9.4-1,17.4,2,23.9,8.8c1.3-1.2,2.6-2.2,3.8-3.3
			c-8.5-9.5-22.5-13.5-35.6-8.8c-14,5-23,18.4-22.5,32.9c0.5,14.6,10.5,27.3,24.6,31.2c13,3.6,26.1-1.1,33.2-9.3
			c-1.4-1.1-2.7-2.1-4-3.2c-12.2,12.1-30.7,10.3-40.8-0.5c-9.9-10.6-10.5-26.7-1.2-37.7C286.3,387.4,292.4,383.9,299.8,383.1z
			 M480.9,391.9c1.3-1.1,2.5-2.2,3.8-3.3c-9.3-10.1-24-13.6-36.9-8.3c-13.7,5.6-22.2,19.2-21,33.9c1.2,14.6,11.8,26.8,26.2,30
			c12.7,2.8,25.3-2.2,31.5-9.8c-1.3-1-2.6-2.1-4-3.2c-12.2,11.7-29.9,10.6-40.3,0c-10.8-11.2-11-27.9-0.6-39.2
			C450.1,380.5,469.2,379.2,480.9,391.9z M336.3,444.1h5.4v-97.8h-5.4V444.1z M403,409.9c-4.8,0-9.6,0-14.4,0
			c-0.8,0-1.4-0.1-2.1-0.7c-0.4-0.4-1.2-0.7-1.8-0.7c-0.8,0.1-1.2-0.2-1.7-0.7c-3.3-3.4-6.6-6.8-10-10.1c-0.4-0.4-1.2-0.7-1.8-0.6
			c-0.3,0-0.9,0.7-0.9,1.1c0,0.5,0.3,1.2,0.7,1.6c2.2,2.3,4.5,4.5,6.7,6.8c1.8,1.9,4.1,3.2,4.7,6c0.2,0.8,0.3,1.3-0.1,1.9
			c-2.3,4.1-4.5,8.2-6.8,12.2c-0.3,0.5-0.6,1,0.5,1.3c0.3-0.5,0.5-1,0.8-1.4c2.2-3.9,4.4-7.9,6.6-11.8c0.2-0.3,0.4-0.8,0.6-0.7
			c1.3,0.2,2.2-0.2,3.1-1.2c0.2-0.2,0.7-0.1,1-0.1c2.7,0,5.4,0,8.1,0c2.2,0,4.5,0,6.7,0c0.9,0,1.6-0.3,1.8-1.3
			C404.9,410.5,404.3,409.9,403,409.9z M549.7,364.8c-7.1,0-12.8,5.8-12.8,13c0,7.3,5.7,13.1,12.8,13.1c7.2,0,12.8-5.8,12.8-13.1
			C562.5,370.5,556.9,364.8,549.7,364.8z M549.8,388c-5.6,0-9.8-4.6-9.8-10.4c0-5.7,4.1-10.4,9.6-10.4s9.6,4.7,9.6,10.4
			S555.2,388,549.8,388z M552.6,378.1V378c1.5-0.5,2.6-1.6,2.6-3c0-1.3-0.5-2.3-1.2-2.8c-0.9-0.5-2-0.9-4.3-0.9
			c-2,0-3.7,0.2-4.8,0.4v13h2.9v-5.2h1.4c1.6,0,2.4,0.7,2.6,2c0.4,1.5,0.6,2.7,1,3.2h3.1c-0.3-0.5-0.5-1.3-0.9-3.2
			C554.5,379.6,553.8,378.6,552.6,378.1z M549.2,377.1h-1.4v-3.7c0.3-0.1,0.8-0.2,1.6-0.2c1.8,0,2.7,0.8,2.7,2
			C552.1,376.6,550.7,377.1,549.2,377.1z"/>
	</g>
</g>
<path fill="#55A2F0" d="M73.6,346.3h73.3l-3.2,17.1l-57.2,61.1h45.5l-4.3,20.9H49.5l3.2-17.1l57.2-62.1H69.9L73.6,346.3z"/>
<path fill="#55A2F0" d="M156,346.3h26.7l-20.8,99.1h-27.3L156,346.3z"/>
<path fill="#55A2F0" d="M254.5,365c-3.2-17.7-26.2-18.8-26.2-18.8h-35.3l-21.4,99.1h27.3l8.1-36.9l18.2-1.1
	C249.6,406.8,257.6,382.2,254.5,365z M232.5,377.9c-1.6,10.4-10.7,11.8-10.7,11.8l-11.2,0.5l5.4-25.7l10.7,0.5
	C230.4,365.7,234.1,367.5,232.5,377.9z"/>
</svg>
