<?xml version="1.0" encoding="utf-8"?>
<!-- Generator: Adobe Illustrator 22.1.0, SVG Export Plug-In . SVG Version: 6.00 Build 0)  -->
<svg version="1.1" id="Layer_1" xmlns="http://www.w3.org/2000/svg" xmlns:xlink="http://www.w3.org/1999/xlink" x="0px" y="0px"
	 viewBox="0 0 512 512" style="enable-background:new 0 0 512 512;" xml:space="preserve">
<style type="text/css">
	.st0{fill:#35C4FF;}
</style>
<path class="st0" d="M5,70.4c127.7,0,255.4,0,386.4,0c-14.1,14-25.3,26.2-37.7,37.1c-3.4,3-10.4,2.8-15.8,2.8
	c-91.1,0.1-182.3,0.1-273.4,0.1c-5.5,0-11.1,0-18,0c0,102.3,0,203.7,0,305.7c101.2,0,202,0,304.6,0c0-24.4,1.7-48.5-0.4-72.3
	c-2.2-24.5,4.4-43.1,24.2-57.7c5.1-3.7,8.7-9.5,14.7-16.4c1.4,5.2,2.4,7.1,2.4,9c0.1,56.3,0.1,112.5,0,168.8c0,3.6-1.2,7.2-1.9,10.8
	c-128.1,0-256.2,0-385.1,0C5,329,5,199.7,5,70.4z"/>
<path class="st0" d="M507.3,101.1c-3.8,3.2-7.9,6.2-11.4,9.8c-66.1,66-132.1,132.2-196.9,197c-43.7-43.6-86.9-86.7-129.7-129.4
	c13.6-13.4,28.7-28.2,44-43.3c26.3,26.6,53.6,54.2,81.5,82.3C350.8,161.4,404.9,107.2,460.1,52c16.3,16,31.7,31.1,47.2,46.3
	C507.3,99.2,507.3,100.1,507.3,101.1z"/>
<path class="st0" d="M80.9,194.5c0-15.9,0-31,0-46.8c17.6,0,34.5,0,52.2,0c0,15.7,0,30.8,0,46.8C116.1,194.5,99.2,194.5,80.9,194.5z
	"/>
<path class="st0" d="M132.9,287.2c-17.8,0-34.3,0-51.8,0c0-15.6,0-30.6,0-46.7c17.1,0,34,0,51.8,0
	C132.9,255.7,132.9,270.8,132.9,287.2z"/>
<path class="st0" d="M80.8,379.1c0-16.2,0-30.9,0-46.5c17.6,0,34.4,0,52.2,0c0,15.6,0,30.6,0,46.5
	C115.6,379.1,98.7,379.1,80.8,379.1z"/>
</svg>
