<?xml version="1.0" encoding="utf-8"?>
<!-- Generator: Adobe Illustrator 22.1.0, SVG Export Plug-In . SVG Version: 6.00 Build 0)  -->
<svg version="1.1" id="Layer_1" xmlns="http://www.w3.org/2000/svg" xmlns:xlink="http://www.w3.org/1999/xlink" x="0px" y="0px"
	 viewBox="0 0 150 150" style="enable-background:new 0 0 150 150;" xml:space="preserve">
<style type="text/css">
	.st0{fill:#35C4FF;}
</style>
<g>
	<path class="st0" d="M75,0C33.6,0,0,33.6,0,75c0,41.4,33.6,75,75,75s75-33.6,75-75C150,33.6,116.4,0,75,0z M75,141.2
		c-36.5,0-66.2-29.7-66.2-66.2S38.5,8.8,75,8.8s66.2,29.7,66.2,66.2S111.5,141.2,75,141.2z"/>
	<path class="st0" d="M95.7,98.2l0.1-0.5c1.1-4,1.1-8.2,0-12.2C94,78.9,89.3,73.6,83,70.8c-1.8-0.8-3.7-1.6-5.4-2.2L77,68.2
		L65.9,50.5l0.6-0.6c1.7-1.8,4.3-3,7.4-3.3c0.9-0.1,1.9-0.1,2.8-0.1c4.1,0,7.9,0.9,11.6,2.9c0.9,0.5,1.7,0.7,2.4,0.7
		c0.8,0,2-0.2,3.1-2.2c1.4-2.3,0.9-4.5-1.3-6c-1.3-0.9-2.9-1.6-4.5-2.1c-1.8-0.5-3.8-0.9-5.8-1.4l-2.8-0.6l0-1.7c0-1.1,0-2.2,0-3.3
		c-0.2-2.7-2-4.5-4.6-4.6c-2.5,0-4.3,1.7-4.6,4.3c-0.1,1.1-0.1,2.3-0.1,3.6c0.1,1.5-0.2,2.5-2.1,3.1c-2.3,0.7-4.3,1.7-6.1,2.9
		l-1,0.7l-8-12.7c-0.7-1.2-2-1.8-3.3-1.8c-0.7,0-1.5,0.2-2.1,0.6c-0.9,0.6-1.5,1.4-1.7,2.5c-0.2,1-0.1,2.1,0.5,3l9.8,15.6L56,50.4
		c-0.5,1.6-0.8,3.2-0.9,5c-0.5,8.7,3.2,14.9,11,18.4c1.4,0.6,2.9,1.2,4.3,1.8l2.4,1l13.3,21.3l-0.3,0.6c-1.6,2.9-4.4,4.7-8.5,5.2
		c-1.1,0.2-2.3,0.2-3.3,0.2c-5.4,0-9.7-2-13.1-6c-1.1-1.3-2.2-2-3.2-2c-0.7,0-1.4,0.3-2.2,0.8c-2.1,1.6-2.7,4.3-1.3,6.3
		c1,1.5,2.6,3.6,4.5,4.7c2.4,1.4,5.1,2.5,7.8,3.6c1,0.4,2,0.8,3.1,1.3l0.7,0.3l0,1.1c0,0.9-0.1,2.2,0,3.4c0.2,2.6,2.1,4.4,4.6,4.4
		H75c2.5,0,4.3-1.9,4.5-4.6c0.1-1.1,0.1-2.2,0-3.4l0-1.6l0.9-0.2c4.4-1.1,7.5-2.6,9.9-4.9l1-1l8.4,13.5c0.6,0.9,1.4,1.5,2.5,1.7
		c0.3,0.1,0.6,0.1,0.9,0.1c0.7,0,1.5-0.2,2.1-0.6c0.9-0.6,1.5-1.4,1.7-2.5c0.2-1,0.1-2.1-0.5-3L95.7,98.2z"/>
</g>
</svg>
