<?xml version="1.0" encoding="utf-8"?>
<!-- Generator: Adobe Illustrator 22.1.0, SVG Export Plug-In . SVG Version: 6.00 Build 0)  -->
<svg version="1.1" id="Layer_1" xmlns="http://www.w3.org/2000/svg" xmlns:xlink="http://www.w3.org/1999/xlink" x="0px" y="0px"
	 viewBox="0 0 150 150" style="enable-background:new 0 0 150 150;" xml:space="preserve">
<style type="text/css">
	.st0{fill:#35C4FF;}
</style>
<g>
	<path class="st0" d="M149.7,92.2L143.1,75l6.6-17.2c0.7-1.9,0.1-4-1.4-5.3L134,40.9l-2.9-18.2c-0.3-2-1.9-3.6-3.9-3.9L109,16
		L97.5,1.7c-1.3-1.6-3.4-2.1-5.3-1.4L75,6.9L57.8,0.3c-1.9-0.7-4-0.2-5.3,1.4L40.9,16l-18.2,2.9c-2,0.3-3.6,1.9-3.9,3.9L16,41
		L1.7,52.5c-1.6,1.3-2.1,3.4-1.4,5.3L6.9,75L0.3,92.2c-0.7,1.9-0.1,4,1.4,5.3L16,109l2.9,18.2c0.3,2,1.9,3.6,3.9,3.9l18.2,2.9
		l11.6,14.3c1.3,1.6,3.4,2.2,5.3,1.4l17.2-6.6l17.2,6.6c0.5,0.2,1.1,0.3,1.7,0.3c1.4,0,2.7-0.6,3.6-1.7l11.6-14.3l18.2-2.9
		c2-0.3,3.6-1.9,3.9-3.9L134,109l14.3-11.6C149.8,96.2,150.4,94,149.7,92.2z M133.7,76.7l6,15.7l-13,10.6c-0.9,0.7-1.5,1.8-1.7,2.9
		l-2.6,16.6l-16.6,2.6c-1.1,0.2-2.2,0.8-2.9,1.7l-10.5,13l-15.7-6c-0.5-0.2-1.1-0.3-1.7-0.3c-0.6,0-1.1,0.1-1.7,0.3l-15.7,6
		l-10.6-13c-0.7-0.9-1.8-1.5-2.9-1.7l-16.6-2.6L25,105.8c-0.2-1.1-0.8-2.2-1.7-2.9l-13-10.5l6-15.7c0.4-1.1,0.4-2.3,0-3.4l-6-15.7
		l13-10.6c0.9-0.7,1.5-1.8,1.7-2.9l2.6-16.6L44.2,25c1.1-0.2,2.2-0.8,2.9-1.7l10.5-13l15.7,6c1.1,0.4,2.3,0.4,3.4,0l15.7-6l10.6,13
		c0.7,0.9,1.8,1.5,2.9,1.7l16.6,2.6l2.6,16.6c0.2,1.1,0.8,2.2,1.7,2.9l13,10.6l-6,15.7C133.3,74.4,133.3,75.6,133.7,76.7z"/>
	<path class="st0" d="M60.9,65.6c7.8,0,14.1-6.3,14.1-14.1c0-7.8-6.3-14.1-14.1-14.1s-14.1,6.3-14.1,14.1
		C46.9,59.3,53.2,65.6,60.9,65.6z M60.9,46.9c2.6,0,4.7,2.1,4.7,4.7c0,2.6-2.1,4.7-4.7,4.7c-2.6,0-4.7-2.1-4.7-4.7
		C56.2,49,58.3,46.9,60.9,46.9z"/>
	<path class="st0" d="M89.1,84.4c-7.8,0-14.1,6.3-14.1,14.1s6.3,14.1,14.1,14.1s14.1-6.3,14.1-14.1S96.8,84.4,89.1,84.4z
		 M89.1,103.1c-2.6,0-4.7-2.1-4.7-4.7c0-2.6,2.1-4.7,4.7-4.7c2.6,0,4.7,2.1,4.7,4.7C93.7,101,91.6,103.1,89.1,103.1z"/>
	<path class="st0" d="M101.2,38.4c-2.1-1.5-5-1-6.5,1.1l-46.9,65.6c-1.5,2.1-1,5,1.1,6.5c0.8,0.6,1.8,0.9,2.7,0.9
		c1.5,0,2.9-0.7,3.8-2l46.9-65.6C103.8,42.8,103.3,39.9,101.2,38.4z"/>
</g>
</svg>
