<?xml version="1.0" encoding="utf-8"?>
<!-- Generator: Adobe Illustrator 22.1.0, SVG Export Plug-In . SVG Version: 6.00 Build 0)  -->
<svg version="1.1" id="Layer_1" xmlns="http://www.w3.org/2000/svg" xmlns:xlink="http://www.w3.org/1999/xlink" x="0px" y="0px"
	 viewBox="0 0 512 512" style="enable-background:new 0 0 512 512;" xml:space="preserve">
<style type="text/css">
	.st0{fill:none;}
	.st1{fill:#35C4FF;}
</style>
<path class="st0" d="M867-523.4"/>
<path class="st1" d="M244.1,263.3c3.7-3.4,4.9-8.6,3.2-13.5c-1.5-4.7-5.6-8.1-10.6-8.8l-43.5-6.4c-0.7-0.2-1.5-0.7-2-1.5l-19.4-39.3
	c-2.2-4.4-6.6-7.4-11.8-7.4s-9.6,2.7-11.8,7.4l-19.4,39.3c-0.5,0.7-1.2,1.2-2,1.5L83.3,241c-4.9,0.7-9.1,4.2-10.6,8.8
	c-1.5,4.7-0.2,9.8,3.2,13.5l31.4,30.7c0.7,0.5,1,1.5,0.7,2.2l-7.4,43.2c-0.7,4.9,1.2,9.8,5.2,12.8c4.2,2.9,9.3,3.4,13.7,1l38.8-20.4
	c0.7-0.5,1.7-0.5,2.5,0l38.8,20.4c2,1,3.9,1.5,6.1,1.5c2.7,0,5.4-0.7,7.6-2.5c4.2-2.9,6.1-7.9,5.2-12.8l-7.4-43.2
	c-0.2-0.7,0.2-1.7,0.7-2.2L244.1,263.3z"/>
<path class="st1" d="M284.7,199.8c17.5,0,34.3,0,51.9,0c0,12.7,0,25.3,0,38.6c-17.2,0-34.2,0-51.9,0
	C284.7,225.7,284.7,213.4,284.7,199.8z"/>
<path class="st1" d="M284.4,305.2c0-13.3,0-25.6,0-38.5c17.2,0,33.9,0,50.8,0C316.6,285.9,290.9,305.6,284.4,305.2z"/>
<path class="st1" d="M405.6,374.5c14,0,26.9,0,39.7,0c15.1,0,21.2,4.3,21,14.9c-0.2,10-6.3,14.3-20.5,14.3c-17.3,0-34.7,0-52-0.1
	c-12-0.1-17.1-4.7-17.3-16.5c-0.3-18.8-0.2-37.6-0.1-56.5c0.1-9,4.6-14.7,13.8-15.6c8.2-0.8,14.9,5.7,15.3,15.4
	C406,344.7,405.6,359,405.6,374.5z"/>
<g>
	<path class="st1" d="M101.5,142.8L101.5,142.8L101.5,142.8z"/>
	<path class="st1" d="M123.1,106.5c0.5-0.7,1.3-1.1,2.2-1.1H200V75.5c-0.5,0.6-1.3,1-2.1,1h-72.1c-1.3,0-2.5-0.9-2.7-2.2
		c0-0.2,0-0.3-0.1-0.5L123.1,106.5L123.1,106.5z"/>
	<path class="st1" d="M213.1,32.8c-0.6-0.1-1.2,0-1.7,0.2C211.9,33,212.5,32.9,213.1,32.8z"/>
	<path class="st1" d="M119.4,140.2c-1.6,1.7-3.6,3.1-5.8,3.9C116.1,143.3,118,142,119.4,140.2z"/>
	<path class="st1" d="M282,452.8c-3.1-11.7-10.9-13.1-21.6-13c-71.3,0.7-142.5,0.8-213.8,1.1c-16.7,0.1-18.3-1.5-18.3-18.3
		c0-100.1,0-200.1,0-300.2c0-3.3-0.6-7,0.5-9.9c1.2-3.1,4.1-7.7,6.3-7.8c19.2-0.6,38.4-0.4,58.1-0.4c0.5,0,1.1,0.2,1.5,0.4V76.2
		c-0.2,0.2-0.4,0.3-0.6,0.5c-0.4,0.3-0.8,0.5-1.2,0.5c-17,0.1-34,0.2-50.9,0.3c-26.2,0-39.9,13.2-40,39.2
		c-0.2,103-0.2,206.1,0,309.1c0,27.3,13.6,40.4,41.1,40.4c78.7,0.1,157.3,0,236,0c1.8,0,3.5-0.2,5.4-0.4c2-0.2,3.1-2.4,2.1-4.2
		C284.6,458.5,282.8,455.8,282,452.8z"/>
	<path class="st1" d="M430.7,118.6c0-27.6-13.8-41.2-41.6-41.2c-16.3,0-32.6,0-49.8,0c-0.4,0-0.7-0.1-1.1-0.2v27.7
		c0.4-0.2,0.8-0.3,1.3-0.3c17.7,0,33.8-0.1,49.9,0c12.4,0.1,14.8,2.4,14.8,15c0.1,39.5,0,79,0,118.5c0,3.1,0,6.2,0,9.3
		c0,1.4,1.1,2.6,2.5,2.7c7.6,0.6,14.4,1.2,21,1.8c1.5,0.1,3-1,3-2.6l0,0C430.6,205.8,430.7,162.2,430.7,118.6z"/>
	<path class="st1" d="M309.8,75.5c-0.5,0.7-1.3,1.1-2.2,1.1h-74.8l0,0v28.7h75.1c0.8,0,1.5,0.3,2,0.9L309.8,75.5L309.8,75.5z"/>
</g>
<path class="st1" d="M109.4,133.5h-1c-7.6,0-13.7-6.1-13.7-13.7V35.1c0-7.6,6.1-13.7,13.7-13.7h1c7.6,0,13.7,6.1,13.7,13.7v84.7
	C123.1,127.3,116.9,133.5,109.4,133.5z"/>
<path class="st1" d="M219.1,133.5h-5.3c-7.6,0-13.7-6.1-13.7-13.7V35.1c0-7.6,6.1-13.7,13.7-13.7h5.3c7.6,0,13.7,6.1,13.7,13.7v84.7
	C232.7,127.3,226.6,133.5,219.1,133.5z"/>
<path class="st1" d="M324.5,135.8h-1c-7.6,0-13.7-6.1-13.7-13.7V37.4c0-7.6,6.1-13.7,13.7-13.7h1c7.6,0,13.7,6.1,13.7,13.7v84.7
	C338.2,129.7,332.1,135.8,324.5,135.8z"/>
<path class="st1" d="M399.9,484.4c-59.6,0-108.1-48.5-108.1-108.1s48.5-108.1,108.1-108.1S508,316.8,508,376.4
	S459.5,484.4,399.9,484.4z M399.9,291.2c-46.9,0-85.1,38.2-85.1,85.1s38.2,85.1,85.1,85.1s85.1-38.2,85.1-85.1
	S446.9,291.2,399.9,291.2z"/>
</svg>
