<?xml version="1.0" encoding="utf-8"?>
<!-- Generator: Adobe Illustrator 22.1.0, SVG Export Plug-In . SVG Version: 6.00 Build 0)  -->
<svg version="1.1" id="Layer_1" xmlns="http://www.w3.org/2000/svg" xmlns:xlink="http://www.w3.org/1999/xlink" x="0px" y="0px"
	 viewBox="0 0 150 150" style="enable-background:new 0 0 150 150;" xml:space="preserve">
<style type="text/css">
	.st0{fill:#35C4FF;}
</style>
<g>
	<path class="st0" d="M75,0C33.6,0,0,33.6,0,75s33.6,75,75,75s75-33.6,75-75S116.4,0,75,0z M75,141.5c-36.7,0-66.5-29.8-66.5-66.5
		S38.3,8.5,75,8.5s66.5,29.8,66.5,66.5S111.7,141.5,75,141.5z"/>
	<path class="st0" d="M37.8,70.7H67V41.5H37.8V70.7z M43.8,47.6h17.1v17.1H43.8V47.6z"/>
	<path class="st0" d="M37.8,105.5H67V76.3H37.8V105.5z M43.8,82.4h17.1v17.1H43.8V82.4z"/>
	<rect x="75.7" y="41.5" class="st0" width="39.6" height="4.3"/>
	<rect x="75.7" y="56.5" class="st0" width="39.6" height="4.3"/>
	<rect x="75.7" y="71.4" class="st0" width="39.6" height="4.3"/>
	<rect x="75.7" y="86.3" class="st0" width="39.6" height="4.3"/>
	<rect x="75.7" y="101.2" class="st0" width="39.6" height="4.3"/>
</g>
</svg>
