<?xml version="1.0" encoding="utf-8"?>
<!-- Generator: Adobe Illustrator 22.1.0, SVG Export Plug-In . SVG Version: 6.00 Build 0)  -->
<svg version="1.1" id="Layer_1" xmlns="http://www.w3.org/2000/svg" xmlns:xlink="http://www.w3.org/1999/xlink" x="0px" y="0px"
	 viewBox="0 0 150 150" style="enable-background:new 0 0 150 150;" xml:space="preserve">
<style type="text/css">
	.st0{fill:#35C4FF;}
</style>
<g>
	<path class="st0" d="M150,25.8c0-6.5-3.1-11.1-9-14c-1.4-0.7-2.9-1-4.4-1.2c-0.1,0-0.3-0.1-0.4-0.1c-16.8,0-33.6,0-50.4,0
		c-0.7,0.1-1.3,0.2-2,0.4c-3.5,0.8-6.3,2.6-8.5,5.4c-0.1,0.1-0.2,0.2-0.3,0.3c-0.5-0.6-1-1.2-1.6-1.7c-2.5-2.4-5.5-3.9-9-4.3
		c-0.1,0-0.2-0.1-0.3-0.1c-16.8,0-33.6,0-50.4,0c-0.7,0.1-1.4,0.2-2.1,0.4C5.6,12.2,0.8,17.5,0.1,23.7C0,24.3,0,25,0,25.7
		c0,28.9,0,57.7,0,86.6c0,7.2,4.8,13.2,11.8,14.8c1,0.2,2.1,0.3,3.2,0.4c16,0,31.9,0,47.9,0c4.5,0,8.2,3.1,9,7.6
		c0.1,0.5,0.1,0.9,0.1,1.4c0,1.6,1.3,3,2.9,3c1.7,0,3.1-1.1,3.1-2.9c0.1-2.5,0.9-4.7,2.6-6.5c1.8-1.8,4-2.7,6.5-2.7
		c15.9,0,31.9,0,47.8,0c7.5,0,13.8-5.4,14.9-12.9c0.1-0.8,0.1-1.5,0.1-2.3C150,83.5,150,54.6,150,25.8z M72,124.8
		c-0.9-0.6-1.7-1.1-2.6-1.6c-2.1-1.2-4.4-1.7-6.8-1.7c-15.8,0-31.5,0-47.3,0c-2.6,0-4.8-0.7-6.6-2.5c-1.9-1.8-2.7-4.1-2.7-6.7
		c0-3.1,0-6.3,0-9.4C6,77.2,6,51.6,6,26c0-2,0.4-3.9,1.6-5.6c1.9-2.7,4.5-3.9,7.8-3.9c12.2,0,24.5,0,36.7,0c3.6,0,7.2,0,10.8,0
		c4.3,0,7.7,2.5,8.9,6.6c0.2,0.8,0.3,1.6,0.3,2.4c0,33,0,65.9,0,98.9C72,124.5,72,124.6,72,124.8z M144,112.2c0,4.4-2.6,7.8-6.7,8.9
		c-0.9,0.2-1.8,0.3-2.8,0.3c-15.6,0-31.3,0-46.9,0c-3.4,0-6.4,1-9.2,3c-0.1,0.1-0.2,0.2-0.5,0.3c0-0.3,0-0.5,0-0.6
		c0-32.8,0-65.6,0-98.4c0-4.4,2.6-8,6.7-9c0.8-0.2,1.7-0.3,2.6-0.3c15.8,0,31.5,0,47.3,0c4.5,0,7.7,2.7,8.8,6
		c0.4,1.1,0.5,2.2,0.5,3.3C144,54.6,144,83.4,144,112.2z"/>
	<path class="st0" d="M116.8,79.5c-4.5,0-9.1,0-13.6,0c-4.6,0-9.1,0-13.7,0c-1.5,0-2.7,1-3,2.5c-0.3,1.4,0.6,2.9,1.9,3.3
		c0.6,0.2,1.2,0.2,1.8,0.2c8.7,0,17.4,0,26.2,0c0.3,0,0.7,0,1-0.1c1.7-0.2,2.8-2,2.4-3.6C119.6,80.4,118.5,79.5,116.8,79.5z"/>
	<path class="st0" d="M116.6,64.5c-9,0-18,0-27.1,0c-1.7,0-3,1.3-3,3c0,1.7,1.3,3,3,3c4.5,0,9.1,0,13.6,0c0,0,0,0,0,0
		c4.4,0,8.9,0,13.3,0c0.2,0,0.4,0,0.7,0c1.2-0.1,2-0.7,2.5-1.7c0.5-1.1,0.4-2.1-0.3-3.1C118.7,64.8,117.8,64.5,116.6,64.5z"/>
	<path class="st0" d="M117,34.5c-4.6,0-9.2,0-13.8,0c-4.6,0-9.1,0-13.7,0c-0.2,0-0.4,0-0.6,0c-1.4,0.3-2.4,1.6-2.4,3.1
		c0,1.4,1.1,2.6,2.5,2.8c0.5,0.1,0.9,0,1.4,0c8.7,0,17.3,0,26,0c0.3,0,0.6,0,0.9,0c0.7-0.1,1.4-0.4,1.9-0.9c0.9-1,1.1-2.1,0.6-3.2
		C119.3,35.1,118.3,34.5,117,34.5z"/>
	<path class="st0" d="M117,94.5c-4.6,0-9.2,0-13.8,0c-4.6,0-9.1,0-13.7,0c-0.2,0-0.4,0-0.6,0c-1.4,0.3-2.4,1.6-2.3,3.2
		c0.1,1.3,1.2,2.6,2.6,2.7c0.5,0.1,0.9,0,1.4,0c8.7,0,17.4,0,26.2,0c0.3,0,0.7,0,1-0.1c1.5-0.4,2.5-1.7,2.3-3.3
		C119.8,95.6,118.5,94.5,117,94.5z"/>
	<path class="st0" d="M90.4,55.5c4.5,0,8.9,0,13.4,0c4.4,0,8.9,0,13.3,0c2.2,0,3.6-2.3,2.6-4.3c-0.6-1.2-1.6-1.7-3-1.7
		c-4.5,0-9,0-13.5,0c-4.6,0-9.2,0-13.7,0c-1.6,0-2.9,1.2-3,2.7c-0.1,1.7,1.1,3.1,2.7,3.3C89.6,55.5,90,55.5,90.4,55.5z"/>
	<path class="st0" d="M129.3,85.5c1.1,0,2.1,0,3.2-0.1c1.5-0.1,2.5-1.4,2.6-2.8c0-1.5-0.9-2.8-2.4-3c-0.8-0.1-1.6-0.1-2.4-0.1
		c0,0,0,0,0,0c-0.6,0-1.1,0-1.7,0c-1.6,0-2.9,1.1-3,2.6c-0.2,1.6,0.8,3,2.4,3.3C128.4,85.5,128.9,85.5,129.3,85.5z"/>
	<path class="st0" d="M131.9,64.5c-1.1,0-2.2,0-3.4,0c-1.5,0-2.8,1.1-3,2.5c-0.2,1.6,0.7,3,2.2,3.4c0.8,0.2,1.6,0.1,2.4,0.2
		c0,0,0,0,0-0.1c0.6,0,1.3,0,1.9,0c1.6-0.1,2.9-1.4,2.9-3C135,65.8,133.7,64.5,131.9,64.5z"/>
	<path class="st0" d="M128,40.4c1.4,0.1,2.9,0.1,4.3,0c1.5-0.1,2.6-1.3,2.7-2.7c0.1-1.5-0.9-2.9-2.3-3.1c-0.8-0.1-1.7-0.1-2.5-0.2
		c0,0,0,0,0,0c-0.6,0-1.1,0-1.7,0c-1.6,0-2.8,1.2-3,2.7C125.4,38.8,126.5,40.3,128,40.4z"/>
	<path class="st0" d="M132.1,94.5c-1.3,0-2.5,0-3.8,0c-0.1,0-0.3,0-0.4,0c-1.4,0.3-2.4,1.6-2.3,3c0.1,1.5,1.1,2.7,2.6,2.9
		c0.8,0.1,1.7,0,2.5,0c0,0,0,0,0,0c0.5,0,1.1,0,1.6,0c1.6-0.1,2.8-1.4,2.8-3.1C135,95.8,133.7,94.5,132.1,94.5z"/>
	<path class="st0" d="M132.2,49.5c-0.6,0-1.3,0-1.9,0c0,0,0,0,0,0c-0.6,0-1.2,0-1.8,0c-1.6,0-2.9,1.2-2.9,2.8
		c-0.1,1.6,1.1,3,2.6,3.1c1.3,0.1,2.6,0,4,0c1.6,0,2.9-1.4,2.9-3C135.1,50.9,133.8,49.6,132.2,49.5z"/>
	<path class="st0" d="M58.3,33H19.7c-2.1,0-3.8,1.7-3.8,3.8v23c0,11.8,8.9,21.6,20.4,22.9v19.8h-10c-1.5,0-2.7,1.2-2.7,2.7
		s1.2,2.7,2.7,2.7h26.5c1.5,0,2.7-1.2,2.7-2.7s-1.2-2.7-2.7-2.7H41.7V82.7c11.4-1.4,20.4-11.1,20.4-22.9v-23
		C62.1,34.7,60.4,33,58.3,33z M39,77.5L39,77.5c-9.4,0-17.2-7.4-17.6-16.8h35.2C56.2,70,48.4,77.5,39,77.5z M56.6,55.2H21.4V38.5
		h35.3V55.2z"/>
</g>
</svg>
