<svg xmlns="http://www.w3.org/2000/svg" width="21.139" height="22.224" viewBox="0 0 21.139 22.224">
  <g id="Group_4" data-name="Group 4" transform="translate(-235.088 -249.438)">
    <g id="Group_2" data-name="Group 2" transform="translate(235.088 249.438)">
      <path id="Path_1" data-name="Path 1" d="M238.553,269.54h13.736a.573.573,0,1,1,0,1.146H238.553a.573.573,0,1,1,0-1.146Z" transform="translate(-234.889 -248.461)" fill="#50c1ef" fill-rule="evenodd"/>
      <path id="Path_2" data-name="Path 2" d="M242.508,267.4h5.647a.382.382,0,0,1,.382.382l2.289,1.832a.381.381,0,0,1-.382.382H240.219a.382.382,0,0,1-.382-.382l2.289-1.832A.382.382,0,0,1,242.508,267.4Z" transform="translate(-234.762 -248.406)" fill="#50c1ef" fill-rule="evenodd"/>
      <path id="Path_3" data-name="Path 3" d="M252.4,249.438H238.912a3.824,3.824,0,0,0-3.824,3.824v11.549a3.824,3.824,0,0,0,3.824,3.824H252.4a3.823,3.823,0,0,0,3.824-3.824V253.262A3.823,3.823,0,0,0,252.4,249.438Zm2.124,14.87A2.686,2.686,0,0,1,251.84,267H239.475a2.686,2.686,0,0,1-2.687-2.687V253.764a2.686,2.686,0,0,1,2.687-2.686H251.84a2.686,2.686,0,0,1,2.687,2.686Z" transform="translate(-235.088 -249.438)" fill="#50c1ef"/>
    </g>
    <g id="Group_3" data-name="Group 3" transform="translate(239.905 253.283)">
      <path id="Path_4" data-name="Path 4" d="M250.816,257.719l-1.027-.124a4.58,4.58,0,0,0-.456-1.1l.638-.812a.332.332,0,0,0-.026-.43l-1.058-1.058a.334.334,0,0,0-.43-.027l-.813.639a4.509,4.509,0,0,0-1.1-.455l-.123-1.027a.332.332,0,0,0-.322-.285h-1.5a.333.333,0,0,0-.322.285l-.123,1.027a4.563,4.563,0,0,0-1.1.456l-.812-.639a.332.332,0,0,0-.429.027l-1.059,1.058a.335.335,0,0,0-.025.431l.638.811a4.529,4.529,0,0,0-.456,1.105l-1.026.123a.333.333,0,0,0-.286.322v1.5a.333.333,0,0,0,.286.322l1.026.123a4.636,4.636,0,0,0,.456,1.1l-.638.812a.335.335,0,0,0,.027.431l1.057,1.058a.332.332,0,0,0,.429.027l.813-.64a4.473,4.473,0,0,0,1.1.456l.124,1.026a.332.332,0,0,0,.322.285h1.5a.331.331,0,0,0,.322-.285l.124-1.026a4.556,4.556,0,0,0,1.1-.456l.813.639a.335.335,0,0,0,.43-.026l1.058-1.059a.335.335,0,0,0,.026-.431l-.639-.812a4.512,4.512,0,0,0,.456-1.1l1.027-.123a.332.332,0,0,0,.285-.322v-1.5A.331.331,0,0,0,250.816,257.719Zm-5.467,3.947a2.876,2.876,0,1,1,2.876-2.877A2.877,2.877,0,0,1,245.349,261.666Z" transform="translate(-239.595 -253.036)" fill="#50c1ef"/>
    </g>
  </g>
</svg>
