<?xml version="1.0" encoding="utf-8"?>
<!-- Generator: Adobe Illustrator 22.1.0, SVG Export Plug-In . SVG Version: 6.00 Build 0)  -->
<svg version="1.1" id="Layer_1" xmlns="http://www.w3.org/2000/svg" xmlns:xlink="http://www.w3.org/1999/xlink" x="0px" y="0px"
	 viewBox="0 0 150 150" style="enable-background:new 0 0 150 150;" xml:space="preserve">
<style type="text/css">
	.st0{fill:#35C4FF;}
</style>
<g>
	<path class="st0" d="M149,108.7l-0.4-0.4c-1.7-1.6-3.4-3.3-5.1-4.9c-0.5-0.4-0.6-0.8-0.4-1.4c0.5-1.8,1-3.6,1.4-5.3l0.5-1.9
		c0.5-2-0.1-3-2.1-3.5l-1.4-0.4c-1.6-0.4-3.2-0.9-4.9-1.3c-0.1,0-0.2-0.1-0.3-0.1l-0.3-0.1l-0.1-0.3c0-0.1-0.1-0.2-0.1-0.3
		c-0.4-1.9-0.8-3.9-1.2-5.8l-0.2-1c-0.3-1.4-1.1-2.1-2.3-2.1c-0.3,0-0.6,0-0.9,0.1l-1.2,0.3c-2.4,0.5-5,1.1-7.4,1.7
		c-0.2,0-0.3,0.1-0.4,0.1l-0.2,0l-0.2-0.1c-0.1-0.1-0.2-0.2-0.4-0.3c-1.8-1.8-3.7-3.6-5.5-5.4l-0.6-0.6c-0.6-0.5-1.3-0.8-2-0.8
		c-0.8,0-1.5,0.3-2.1,0.9c-0.4,0.4-0.8,0.8-1.1,1.1c-1.1,1.1-2.3,2.3-3.3,3.5c-0.8,0.9-1.4,1.3-2.1,1.3c-0.4,0-0.8-0.1-1.2-0.3
		c-0.5-0.2-1-0.3-1.5-0.4c-0.2,0-0.4-0.1-0.6-0.1l-4.7-1.2h-0.1c-1.4,0-2.2,0.6-2.5,1.7c-0.2,0.9-0.5,1.7-0.7,2.6
		c-0.4,1.4-0.7,2.8-1.1,4.2c-0.2,0.8-0.5,0.9-1.1,1.1c-1.7,0.3-3.5,0.7-5.1,1.1l-1.3,0.3c-0.7,0.2-1.5,0.4-1.9,1
		c-0.4,0.6-0.3,1.4-0.1,2.2l0.4,1.8c0.5,2.2,1,4.5,1.6,6.7c0.1,0.6,0,1-0.4,1.4c-2.1,2.1-4.1,4.1-6.3,6.4c-1.1,1.2-1.1,2.2,0.1,3.4
		l0.4,0.4c1.7,1.6,3.4,3.4,5.2,5c0.5,0.4,0.5,0.8,0.4,1.4c-0.6,2.1-1.1,4.2-1.7,6.3l-0.2,0.9c-0.5,2,0.1,3,2.1,3.5l1.4,0.4
		c1.6,0.4,3.2,0.9,4.8,1.3c0.2,0,0.3,0.1,0.4,0.1l0.3,0.1l0.1,0.3c0,0.1,0.1,0.2,0.1,0.3c0.4,2,0.8,4.1,1.3,6.1l0.1,0.6
		c0.3,1.4,1.1,2.1,2.3,2.1c0.3,0,0.6,0,0.9-0.1l1.1-0.3c2.5-0.5,5-1.1,7.5-1.7c0.2,0,0.3-0.1,0.4-0.1c0.3,0,0.5,0.1,0.8,0.4
		c1.9,1.9,3.9,3.8,5.7,5.6l0.7,0.7c0.5,0.5,1.1,1,1.8,1c0.7,0,1.3-0.5,1.8-1l0.8-0.8c1.4-1.5,2.9-3,4.4-4.5c0.3-0.3,0.6-0.6,1-0.6
		c0.2,0,0.3,0,0.5,0.1c1.9,0.5,3.8,1,5.6,1.5l1.6,0.4c0.4,0.1,0.8,0.2,1.1,0.2c0.7,0,1.7-0.2,2.3-2.1c0.2-0.7,0.4-1.3,0.5-2
		c0.4-1.5,0.8-3,1.2-4.4l0-0.1l0.1-0.1c0.1-0.1,0.3-0.3,0.4-0.4l0.1-0.1l0.1,0c1.8-0.4,3.5-0.8,5.3-1.2l0.9-0.2
		c2.5-0.5,2.9-1.2,2.4-3.7c-0.2-1.1-0.4-2.2-0.7-3.3c-0.3-1.7-0.7-3.5-1.1-5.2c-0.1-0.6,0-1,0.5-1.5c1.8-1.8,3.6-3.6,5.3-5.4
		l0.8-0.9C150.3,111,150.3,110,149,108.7z M143.4,112c-1.2,1.4-2.5,2.7-3.9,4.1c-1.4,1.3-1.8,2.6-1.3,4.4c0.5,1.8,0.9,3.5,1.3,5.4
		l0.4,2.1l-1.6,0.4c-1.5,0.4-3,0.7-4.5,0.9c-1.7,0.3-2.5,1.1-2.8,2.7c-0.3,1.4-0.7,2.8-1.1,4.3l-0.5,1.7l-1.8-0.5
		c-1.7-0.4-3.3-0.8-4.8-1.3c-0.5-0.1-0.9-0.2-1.3-0.2c-1.2,0-2,0.7-2.6,1.3c-1.1,1.2-2.4,2.3-3.7,3.5l-1.4,1.3l-1.4-1.3
		c-1.5-1.4-3-2.8-4.4-4.2c-0.7-0.7-1.4-1-2.3-1c-0.3,0-0.6,0-1,0.1c-1.9,0.5-3.9,0.9-5.9,1.4l-2.2,0.5l-0.4-1.5
		c-0.3-1.4-0.6-2.8-0.8-4.1c-0.3-2-1.3-3.1-3.3-3.4c-1.4-0.2-2.7-0.6-4-1l-1.5-0.4l0.5-1.9c0.5-1.8,0.9-3.5,1.4-5.2
		c0.3-1.2,0.1-2.1-0.8-3.1c-1.2-1.3-2.4-2.5-3.6-3.9l-1.3-1.4l1.2-1.3c1.3-1.3,2.6-2.7,4-4.1c1.3-1.2,1.6-2.5,1.2-4.2
		c-0.5-1.8-0.9-3.6-1.3-5.5l-0.4-2.1l1.7-0.4c1.6-0.4,3.1-0.7,4.6-1c1.5-0.3,2.3-1,2.6-2.5c0.3-1.5,0.7-3,1.2-4.5l0.5-1.7l0.8,0.2
		c0,0,3,0.8,4.2,1.1c0.5,0.1,1,0.3,1.5,0.4c0.9,0.2,1.4,0.4,1.9,0.4c0.8,0,1.2-0.4,2.3-1.5c0.3-0.3,0.6-0.7,1.1-1.1
		c0.8-0.8,1.6-1.6,2.4-2.4l1.3-1.3c0,0,1.4,1.3,1.8,1.6l1,0.9c1.2,1.1,2.3,2.2,3.5,3.3c0.6,0.6,1.3,0.9,2.1,0.9c0.3,0,0.5,0,0.8-0.1
		c2-0.5,4-0.9,5.9-1.3l2.4-0.5l0.4,1.8c0.4,1.6,0.7,3.2,1,4.8c0.3,1.3,1,2,2.2,2.3c1.5,0.4,3,0.8,4.7,1.2l1.7,0.5l-0.4,1.8
		c-0.4,1.6-0.8,3.1-1.3,4.6c-0.7,2.2,0.2,3.4,1.2,4.4c1.2,1.1,2.2,2.3,3.3,3.4l1,1.1L143.4,112z"/>
	<path class="st0" d="M128,99c0-0.5-0.2-1-0.6-1.4c-0.4-0.4-0.9-0.6-1.4-0.6c-0.5,0-1,0.2-1.4,0.6l-24.1,24.1
		c-0.4,0.4-0.6,0.9-0.6,1.4c0,0.5,0.2,1,0.6,1.4c0.4,0.4,0.9,0.6,1.4,0.6c0.5,0,1-0.2,1.4-0.6l24.1-24.1C127.8,100,128,99.5,128,99z
		"/>
	<path class="st0" d="M106.3,109.6c4.4,0,8-3.6,8-8s-3.6-8-8-8c-4.4,0-8,3.6-8,8S101.9,109.6,106.3,109.6z M106.3,97.6
		c2.2,0,4,1.8,4,4s-1.8,4-4,4c-2.2,0-4-1.8-4-4S104.1,97.6,106.3,97.6z"/>
	<path class="st0" d="M123.5,110.8c-4.4,0-8,3.6-8,8s3.6,8,8,8s8-3.6,8-8S127.9,110.8,123.5,110.8z M123.5,122.8c-2.2,0-4-1.8-4-4
		s1.8-4,4-4c2.2,0,4,1.8,4,4S125.7,122.8,123.5,122.8z"/>
	<path class="st0" d="M51.9,117.8c-12.4,0-24.8,0-37.2,0c-4.8,0-7-2.2-7-7c0-22.1,0-44.2,0-66.3c0-0.4,0-0.8,0.1-1.1l0-0.5l0-0.8
		h107.7v27.2l7.8,1.9l0-7.3c0-13,0-25.9,0-38.9c0-0.9-0.2-2-0.5-3.2c-0.9-3.6-3.1-6.4-6.4-8.3c-2.6-1.5-5.3-1.8-8.5-1.8
		c-0.7,0-1.3,0-2,0c-0.7,0-1.3,0-2,0c-0.1,0-0.2,0-0.3,0v7.4c0.4,0,0.8,0,1.2,0c0.7,0,1.3,0,2,0c0.8,0,1.6,0,2.4,0
		c4.1,0.1,6.2,2.3,6.3,6.4c0,1.1,0,2.1,0,3.2l0,1.4v5.5H8v-0.8c0-1.1,0-2.2,0-3.3c0-2.5-0.1-5.1,0.1-7.7c0.2-2.7,2.2-4.6,5-4.7
		c1.8,0,3.7-0.1,6.1-0.1c1.4,0,2.8,0,4.3,0c1.4,0,2.9,0,4.4,0h0.7l0.2,1.1c0,0.2,0.1,0.4,0.1,0.6c0.4,2.1,1.9,3.4,3.8,3.4
		c0.1,0,0.2,0,0.3,0c2.1-0.1,3.4-1.7,3.5-3.9c0.1-4.9,0.1-9.8,0-14.5c0-2.2-1.5-3.6-3.7-3.7l-0.2,0c-2,0-3.5,1.5-3.7,3.6
		c-0.1,1.2-0.1,2.4-0.1,3.7c0,0.5,0,1.2-0.5,1.7c-0.5,0.5-1.2,0.6-1.8,0.6c0,0,0,0,0,0c-1.9,0-3.9,0-5.8,0c-2.1,0-4.1,0-6.2,0
		C5.5,12,0,17.5,0,26.3c0,30.8,0,58.6,0,84.9c0,1.9,0.3,3.8,0.9,5.6c1.8,5.4,6.8,8.8,12.8,8.9c9.3,0,18.5,0,27.8,0l29.3,0l-2.1-7.8
		L51.9,117.8z"/>
	<path class="st0" d="M86.9,20c0.2,1.6,1,4.4,3.8,4.5l0.1,0c1.8,0,3.7-1.2,3.8-3.4c0.1-3.7,0.1-7.5,0-11.2c0-1.5,0-2.9,0-4.4
		c0-0.1-0.1-0.3-0.1-0.5c-0.5-1.6-2-2.8-3.6-2.8c-0.1,0-0.2,0-0.3,0c-2.1,0.2-3.4,1.6-3.5,3.6L87,6c-0.1,1.1-0.1,2.2,0,3.3
		c0.1,0.6,0.1,1.4-0.5,1.9c-0.5,0.6-1.4,0.7-2.1,0.7c0,0-4.3,0-6.4,0c-7.4,0-14.9,0-22.3,0l-9.6,0v7.3h40.7L86.9,20z"/>
	<path class="st0" d="M29.9,89.6c-2.4,0-4.7,0-7.1,0c-2,0-2.9,0.9-2.9,2.8c0,3.1,0,6.2,0,9.2c0,1.9,0.9,2.7,2.8,2.8
		c0.9,0,1.9,0,2.8,0l4.2,0l2.2,0c0,0,3.8,0,4.7,0c2.3,0,3.1-0.8,3.1-3c0-2.9,0-5.8,0-8.8c0-2.1-0.8-3-2.9-3
		C34.6,89.6,32.3,89.6,29.9,89.6z"/>
	<path class="st0" d="M68.8,61.2c-2.2,0-4.5,0-6.7,0c-2.6,0-5.1,0-7.7,0c-1.7,0-2.6,0.9-2.7,2.6c-0.1,3.3-0.1,6.5,0,9.5
		c0,1.8,0.9,2.6,2.8,2.7c0.9,0,1.9,0,2.8,0l4.1,0l4.6,0c0.9,0,1.8,0,2.7,0c2,0,2.9-0.9,2.9-2.8c0-3.1,0-6.1,0-9
		C71.6,62,70.8,61.2,68.8,61.2z"/>
	<path class="st0" d="M39.8,63.9c0-1.8-0.9-2.7-2.7-2.7c-2.2,0-4.3,0-6.5,0c-2.7,0-5.4,0-8,0c-1.8,0-2.6,0.8-2.7,2.6
		c-0.1,3-0.1,6.2,0,9.5c0,1.8,0.9,2.6,2.8,2.7c0.9,0,1.9,0,2.8,0l4.3,0l0.8,0l3.6,0c1,0,1.9,0,2.9,0c1.7,0,2.7-1,2.7-2.7
		C39.8,69.9,39.8,66.9,39.8,63.9z"/>
	<path class="st0" d="M69.3,89.7c-2.5,0-5.1-0.1-7.7-0.1c-2.5,0-4.9,0-7.4,0.1c-1.5,0-2.3,0.8-2.4,2.3c-0.1,3.4-0.1,6.8,0,10.2
		c0,1.3,0.9,2.2,2.2,2.2c2.2,0,4.5,0,6.7,0c1.4,0,6.7,0,7.9,0c0.2-0.7,0.4-1.4,0.6-2.1c0.6-2.2,1.2-4.3,1.8-6.4
		c0.4-1.4,0.6-2.6,0.6-3.7c0-0.8-0.2-1.4-0.6-1.9C70.6,89.9,70,89.7,69.3,89.7z"/>
	<path class="st0" d="M101.1,61.2c-2.5,0-4.9,0-7.4,0c-2.6,0-5.2,0-7.7,0c-1.4,0-2.3,0.8-2.3,2.1c-0.1,4-0.1,7.3,0,10.3
		c0.1,1.4,1.4,2.4,2.6,2.4c0.4,0,0.8-0.1,1.2-0.3c4.8-3,10.1-4.9,16-5.9l0-1.4c0-1.6,0-3.1,0-4.6C103.4,62.1,102.6,61.2,101.1,61.2z
		"/>
</g>
</svg>
