<?xml version="1.0" encoding="utf-8"?>
<!-- Generator: Adobe Illustrator 22.1.0, SVG Export Plug-In . SVG Version: 6.00 Build 0)  -->
<svg version="1.1" id="Layer_1" xmlns="http://www.w3.org/2000/svg" xmlns:xlink="http://www.w3.org/1999/xlink" x="0px" y="0px"
	 viewBox="0 0 512 512" style="enable-background:new 0 0 512 512;" xml:space="preserve">
<style type="text/css">
	.st0{fill:#4FC0EF;}
</style>
<path class="st0" d="M6.5,306.4c7.4-10.7,13.4-22.8,22.4-32c65.3-66.1,131.2-131.6,197-197.2c2.8-2.8,6.6-4.7,9.1-8.4
	c-33.5-9-65.9-15.7-99.3-13c-0.4,1-0.9,1.9-1.3,2.9c8,4.7,15.8,9.7,24,13.9c8.2,4.2,17.1,6.9,25,11.6c2.7,1.6,3.1,6.9,4.6,10.6
	c-3.4,1.3-7.8,4.7-10.1,3.6c-17.6-8.4-35-17.1-51.8-26.8c-6.9-4-13.3-10.6-9.8-20.2c3.2-9,11.7-11.6,19.8-11.3
	c22.8,0.9,45.9,1,68.3,4.8c52.4,8.9,103.6,22.7,152.5,44c13.4,5.9,26.1,13.7,38.4,21.6c6.9,4.5,12.5,11.5,9,20.7
	c-3.4,8.8-11.8,11-20.1,10.7c-3.8-0.2-7.4-4-11-6.2c2.9-3.1,5.6-6.2,8.7-9.1c0.9-0.8,2.6-0.7,7.3-1.8c-10.6-6.4-18.8-11.3-27-16.3
	c-8.8,12.2-8.5,25.3,0.3,37.1c8.9,11.9,24.8,16.6,38.7,11.4c13.4-5,22.3-18.7,21.5-33c-1-16.9-11.6-28.6-29.8-31.9
	c-6.1-1.1-12.9-1.4-10.7-10.1c1.9-7.6,8.4-7,14.5-5.8c30.8,6,42.9,29,42.6,51.5c-0.4,24.8-21.1,45.3-45.8,47.6
	c-24.4,2.2-47.7-14.4-52.4-39.7c-2-10.7,0.8-22.3,1.6-36.7c-26.4-8.1-55-17.1-83.9-25.4c-2.6-0.7-7.1,1.6-9.3,3.8
	c-72.5,72-144.8,144.1-217,216.4c-12.3,12.4-12.3,26.8,0,39.1c49.9,50.1,99.8,100.1,150,150c12,11.9,26.5,11.9,38.4,0
	c83.5-83.5,166.8-167.2,250.1-250.8c13.6-13.6,18.8-30.5,18.9-49.4c0-42.6,0.2-85.1-0.1-127.7c-0.1-20.4-9.9-29.8-30.1-29.9
	c-42.2-0.1-84.4,0-126.6,0c-19.2,0-36.3,5.6-50.4,19.1c-2.6,2.5-5.9,5.3-9.1,5.7c-2.4,0.3-7.2-2.6-7.5-4.6
	c-0.5-3.3,0.6-8.2,2.9-10.5c16.2-16.5,36.2-25.6,59.3-25.8c45.2-0.4,90.3-0.3,135.5,0c23.7,0.1,41.7,16.3,42,41.1
	c0.7,49.2-0.3,98.4-1.3,147.6c-0.3,16.9-8.2,31.5-19.9,43.3c-41.2,42-82.7,83.7-124.2,125.4c-40.5,40.7-81.2,81.1-121.4,122
	c-9.9,10.1-20.7,17.5-34.6,20.3c-1.5,0-3,0-4.4,0c-16-2.2-27-12.1-37.8-23.1c-44.2-44.8-89.2-88.8-133.1-133.8
	c-8.9-9.2-14.9-21.2-22.3-31.9C6.5,315.3,6.5,310.8,6.5,306.4z"/>
<path class="st0" d="M301.9,508.5c-9.5-5.4-19.4-10.2-28.2-16.5c-3.1-2.2-5.8-9.1-4.6-12.4c2.3-6.2,8.1-4.5,12.9-1.3
	c4,2.7,8,5.3,12.1,7.8c16.5,10.4,29.9,7.3,40-9.7c20.4-34.6,40.6-69.3,60.9-103.9c10.1-17.2,20.2-34.3,30.2-51.5
	c3.2-5.5,7.2-11.2,13.4-6.7c2.5,1.8,2.8,10.5,0.7,14.1c-30.7,53.3-62.1,106.3-93,159.4c-6.7,11.5-17.3,16.4-28.8,20.6
	C312.3,508.5,307.1,508.5,301.9,508.5z"/>
<path class="st0" d="M222.1,309.8c0,17.4,0,34.8,0,52.2c0,6.1,0.2,13.1-8.2,12.8c-7.2-0.2-7.7-6.4-7.7-12.3
	c0.1-35.9,0.1-71.8,0-107.7c0-6.1,0.7-12.2,7.7-12.3c8.1-0.2,8.2,6.7,8.2,12.9C222.1,273.5,222.1,291.7,222.1,309.8z"/>
<path class="st0" d="M156.2,308.7c8.7,0.2,16.9,8.8,16.4,17.4c-0.5,8.6-8.2,15.9-16.8,15.7c-9.1-0.1-16.4-8-16.1-17.3
	C140.1,315.9,147.8,308.5,156.2,308.7z"/>
<path class="st0" d="M288.8,275.5c-0.1,9.6-6.4,15.8-16,15.8c-9.3,0.1-16.2-6.6-16.5-15.7c-0.2-9.5,7-16.5,16.9-16.3
	C282.8,259.6,288.9,265.9,288.8,275.5z"/>
</svg>
