<?xml version="1.0" encoding="utf-8"?>
<!-- Generator: Adobe Illustrator 22.1.0, SVG Export Plug-In . SVG Version: 6.00 Build 0)  -->
<svg version="1.1" id="Layer_1" xmlns="http://www.w3.org/2000/svg" xmlns:xlink="http://www.w3.org/1999/xlink" x="0px" y="0px"
	 viewBox="0 0 150 150" style="enable-background:new 0 0 150 150;" xml:space="preserve">
<style type="text/css">
	.st0{fill:#35C4FF;}
</style>
<g>
	<g>
		<g>
			<circle class="st0" cx="18.7" cy="81.2" r="6.2"/>
			<path class="st0" d="M115.6,93.7c-8.6,0-15.6,7-15.6,15.6s7,15.6,15.6,15.6s15.6-7,15.6-15.6S124.2,93.7,115.6,93.7z
				 M115.6,118.7c-5.2,0-9.4-4.2-9.4-9.4s4.2-9.4,9.4-9.4c5.2,0,9.4,4.2,9.4,9.4S120.8,118.7,115.6,118.7z"/>
			<path class="st0" d="M147.6,100.1l-6-1.5l3.2-5.3c0.7-1.2,0.5-2.8-0.5-3.8l-6.9-6.9V75c0-6.9-5.6-12.5-12.5-12.5h-6.2V40.6
				c0-1.7-1.4-3.1-3.1-3.1h-3.1v-3.1c0-0.8-0.3-1.6-0.9-2.2l-25-25c-0.6-0.6-1.4-0.9-2.2-0.9H37.5C30.6,6.2,25,11.9,25,18.7v18.7
				h-3.1c-1.7,0-3.1,1.4-3.1,3.1v21.9h-6.2C5.6,62.5,0,68.1,0,75v31.2c0,6.9,5.6,12.5,12.5,12.5H84l5.6,1.4l-3.2,5.3
				c-0.7,1.2-0.5,2.8,0.5,3.8l8.8,8.8c1,1,2.6,1.2,3.8,0.5l5.3-3.2l1.5,6c0.3,1.4,1.6,2.4,3,2.4h12.5c1.4,0,2.7-1,3-2.4l1.5-6
				l5.3,3.2c1.2,0.7,2.8,0.5,3.8-0.5l8.8-8.8c1-1,1.2-2.6,0.5-3.8l-3.2-5.3l6-1.5c1.4-0.3,2.4-1.6,2.4-3v-12.5
				C150,101.7,149,100.4,147.6,100.1z M87.5,16.9l14.3,14.3h-8.1c-3.4,0-6.2-2.8-6.2-6.2V16.9z M31.2,18.8c0-3.4,2.8-6.2,6.2-6.2
				h43.7V25c0,6.9,5.6,12.5,12.5,12.5h12.5v25h-75C31.2,62.5,31.2,18.8,31.2,18.8z M21.9,100c-1.7,0-3.1,1.4-3.1,3.1
				c0,1.7,1.4,3.1,3.1,3.1h59.4v6.2H12.5c-3.4,0-6.2-2.8-6.2-6.2V75c0-3.4,2.8-6.2,6.2-6.2H125c3.4,0,6.2,2.8,6.2,6.2v5.4l-4.8,2.9
				l-1.5-6c-0.3-1.4-1.6-2.4-3-2.4h-12.5c-1.4,0-2.7,1-3,2.4l-1.5,6l-5.3-3.2c-1.2-0.7-2.8-0.5-3.8,0.5l-8.8,8.8
				c-1,1-1.2,2.6-0.5,3.8l3.2,5.3L84,100L21.9,100L21.9,100z M143.7,113.2l-5.4,1.3c-1,0.3-1.8,1-2.2,2c-0.3,0.8-0.6,1.6-1,2.3
				c-0.5,1-0.4,2.1,0.1,3l2.8,4.7l-5.4,5.4l-4.7-2.8c-0.9-0.5-2-0.6-3-0.1c-0.8,0.4-1.5,0.7-2.3,1c-1,0.3-1.7,1.2-2,2.2l-1.3,5.4
				h-7.6l-1.3-5.4c-0.3-1-1-1.8-2-2.2c-0.8-0.3-1.6-0.6-2.3-1c-0.9-0.5-2.1-0.4-3,0.1l-4.7,2.8l-5.4-5.4l2.8-4.7
				c0.5-0.9,0.6-2,0.1-3c-0.4-0.8-0.7-1.5-1-2.3c-0.3-1-1.2-1.7-2.2-2l-5.4-1.3v-7.6l5.4-1.3c1-0.3,1.8-1,2.2-2
				c0.3-0.8,0.6-1.6,1-2.3c0.5-1,0.4-2.1-0.1-3L93,92.2l5.4-5.4l4.7,2.8c0.9,0.5,2,0.6,3,0.1c0.8-0.4,1.5-0.7,2.3-1
				c1-0.3,1.7-1.2,2-2.2l1.3-5.4h7.6l1.3,5.4c0.3,1,1,1.8,2,2.2c0.8,0.3,1.6,0.6,2.3,1c0.9,0.5,2.1,0.4,3-0.1l4.7-2.8l5.4,5.4
				l-2.8,4.7c-0.5,0.9-0.6,2-0.1,3c0.4,0.8,0.7,1.5,1,2.3c0.3,1,1.2,1.7,2.2,2l5.4,1.3V113.2z"/>
		</g>
	</g>
</g>
</svg>
