<?xml version="1.0" encoding="utf-8"?>
<!-- Generator: Adobe Illustrator 23.0.1, SVG Export Plug-In . SVG Version: 6.00 Build 0)  -->
<svg version="1.1" id="Capa_1" xmlns="http://www.w3.org/2000/svg" xmlns:xlink="http://www.w3.org/1999/xlink" x="0px" y="0px"
	 viewBox="0 0 40 40" style="enable-background:new 0 0 40 40;" xml:space="preserve">
<style type="text/css">
	.st0{fill:#3A3A3A;}
</style>
<g>
	<path class="st0" d="M40,23c-0.3-1.7-1.8-3-3.6-3c-2.7,0-5.5,0-8.2,0l0-5.4c0-2.4,0-4.7,0-7.1c0-1.6-0.9-2.5-2.5-2.5
		c0,0-1.1,0-1.3,0c-0.3,0-0.6,0-1,0c-0.3,0-0.5-0.1-0.7-0.5c-0.2-0.3-0.3-0.7-0.5-1c-0.2-0.4-0.4-0.9-0.6-1.3
		c-0.2-0.4-0.5-0.6-0.9-0.6l0,0c-0.5,0-0.9,0-1.4,0l-1.5,0c-0.3,0-0.5,0-0.8,0c-0.3,0-0.5-0.1-0.7-0.4C15.7,0.4,15,0,14.1,0
		c-0.9,0-1.6,0.4-2,1.3c-0.1,0.3-0.3,0.4-0.7,0.4c0,0,0,0,0,0c-0.5,0-1,0-1.5,0l-1.2,0c-0.4,0-0.7,0-1.1,0c-0.4,0-0.7,0.2-0.8,0.5
		C6.6,2.5,6.4,2.7,6.3,3C6.1,3.4,5.9,3.8,5.7,4.2C5.5,4.6,5.3,5.1,4.5,5.1c-0.1,0-0.2,0-0.2,0c-0.2,0-0.4,0-0.7,0
		c-0.2,0-0.4,0-0.6,0c-0.2,0-0.4,0-0.5,0C0.9,5.1,0,6,0,7.6c0,3.5,0,7.1,0,10.6l0,4.1h0l0,4.4c0,3.6,0,7.3,0,10.9
		C0,39,0.9,40,2.4,40c3,0,6,0,8.9,0l10.1,0c-0.7-0.4-1.3-0.8-1.9-1.3H2.5c-0.8,0-1.2-0.4-1.2-1.2c0-1.7,0-3.4,0-5.1l0-24.7
		c0-1,0.3-1.3,1.3-1.3l2,0L4.4,6.8c0,0.1-0.1,0.2-0.1,0.2c-0.1,0.3-0.1,0.5,0,0.7C4.4,7.9,4.6,8,4.9,8c0.4,0,0.8,0,1.3,0l1.5,0L23,8
		l0.2,0c0.1,0,0.1,0,0.2,0c0.3,0,0.5-0.1,0.5-0.3c0.1-0.2,0.1-0.4,0-0.6l-0.3-0.7h0.3c0.2,0,0.5,0,0.7,0c0.2,0,0.5,0,0.7,0
		c0.4,0,0.7,0,0.9,0c0.3,0,0.7,0.3,0.7,1.1c0,1.3,0,2.6,0,3.9l0,8.5c-2.9,0-5.9,0-8.8,0c-2,0-3.6,1.6-3.6,3.7c0,1.8,0,3.6,0,5.4
		c0,2,1.7,3.7,3.7,3.7c2.1,0,4.2,0,6.3,0c0.7,0,1.4,0,2.1,0c0.3,0,0.5-0.2,0.5-0.5c0-0.3-0.2-0.5-0.5-0.5c-0.1,0-0.1,0-0.2,0
		c-2.8,0-5.5,0-8.3,0c-1.4,0-2.5-1-2.5-2.4c0-1.9,0-3.8,0-5.8c0-0.7,0.2-1.3,0.7-1.7c0.5-0.6,1.2-0.7,2-0.7c6.1,0,12.1,0,18.2,0
		c1.6,0,2.6,1,2.6,2.6c0,1.8,0,3.7,0,5.5c0,1.5-1,2.5-2.6,2.5c-1.2,0-2.4,0-3.6,0c-0.4,0-0.6,0.2-0.6,0.5c0,0.3,0.2,0.5,0.6,0.5
		c1.2,0,2.5,0,3.7,0c1.6,0,3-1.1,3.5-2.7c0-0.2,0.1-0.3,0.1-0.5c0-2.1,0-4.3,0-6.4C40,23.1,40,23.1,40,23z M5.9,6.7l0.5-1
		c0.4-0.8,0.8-1.6,1.2-2.4C7.7,3.1,8,3,8.2,3c0.7,0,1.5,0,2.2,0h1.9c0.6,0,0.7-0.1,0.8-0.7c0.1-0.6,0.5-0.9,1-0.9c0.6,0,1,0.4,1,1
		C15.2,2.9,15.3,3,15.9,3c0.6,0,1.3,0,1.9,0c0.7,0,1.4,0,2.2,0c0.3,0,0.5,0.1,0.6,0.4c0.4,0.7,0.7,1.5,1.1,2.2l0.5,1.1H5.9z"/>
	<path class="st0" d="M33.4,36.4c0.2,0,0.3-0.1,0.4-0.1c0.4-0.1,0.6-0.2,0.7-0.6c0.1-0.3,0-0.6-0.3-0.9c-0.5-0.4-1-0.9-1.5-1.3
		c-1.3-1.2-2.6-2.4-3.9-3.5c-0.5-0.5-1.2-0.3-1.3,0.3c0,0.2,0,0.3,0,0.5c0.4,2.3,0.8,4.7,1.2,7c0.1,0.4,0.2,0.7,0.6,0.8
		c0.3,0.1,0.7,0,0.9-0.3c0.2-0.2,0.3-0.3,0.5-0.6c0.4,0.6,0.7,1.2,1,1.7c0.3,0.6,0.8,0.7,1.3,0.3c0.4-0.3,0.8-0.5,1.2-0.8
		c0.5-0.4,0.6-0.8,0.2-1.3C34,37.2,33.7,36.8,33.4,36.4z M32.4,38.8c-0.1-0.3-0.3-0.5-0.4-0.7c-0.3-0.4-0.5-0.9-0.8-1.3
		c-0.2-0.4-0.6-0.5-1-0.1c-0.2,0.2-0.4,0.4-0.6,0.7c0,0,0,0-0.1,0c-0.3-2-0.7-3.9-1-5.9c0,0,0,0,0,0c1.5,1.4,3,2.7,4.6,4.1
		c-0.3,0.1-0.5,0.1-0.8,0.2c-0.5,0.1-0.6,0.5-0.3,0.9c0.4,0.6,0.9,1.2,1.3,1.7C33,38.4,32.7,38.6,32.4,38.8z"/>
	<path class="st0" d="M28.5,28.6c0.2,0,0.4-0.1,0.5-0.3c0.4-1,0.7-2,1.1-2.9c0.1-0.3,0-0.6-0.3-0.7c-0.3-0.1-0.6,0-0.7,0.3
		c-0.2,0.4-0.3,0.9-0.5,1.3c0,0.1-0.1,0.2-0.1,0.3c-0.2-0.5-0.4-1-0.6-1.5c-0.1-0.3-0.3-0.4-0.5-0.4c-0.2,0-0.4,0.1-0.5,0.4
		c-0.1,0.2-0.2,0.4-0.2,0.6c-0.1,0.3-0.2,0.6-0.4,0.9c-0.1-0.2-0.1-0.3-0.1-0.4c-0.2-0.4-0.3-0.8-0.5-1.3c-0.1-0.3-0.4-0.4-0.7-0.3
		c-0.3,0.1-0.4,0.4-0.3,0.7c0,0.1,0,0.1,0.1,0.2c0.3,0.9,0.7,1.8,1,2.7c0.1,0.3,0.3,0.5,0.5,0.5c0.3,0,0.4-0.2,0.5-0.5
		c0.2-0.5,0.4-1,0.6-1.5c0.2,0.6,0.4,1.1,0.6,1.6C28,28.4,28.2,28.6,28.5,28.6z"/>
	<path class="st0" d="M23.2,25c-0.2,0.5-0.4,1-0.6,1.6c-0.1-0.1-0.1-0.2-0.1-0.2c-0.2-0.4-0.3-0.9-0.5-1.3c-0.1-0.3-0.3-0.4-0.5-0.4
		c-0.2,0-0.4,0.1-0.5,0.4c-0.2,0.5-0.4,1-0.6,1.5c0-0.1-0.1-0.2-0.1-0.3c-0.2-0.4-0.3-0.9-0.5-1.3c-0.1-0.1-0.2-0.3-0.3-0.3
		c-0.2-0.1-0.4-0.1-0.6,0.1c-0.2,0.2-0.2,0.4-0.1,0.6c0.4,0.9,0.7,1.9,1.1,2.8c0.1,0.3,0.3,0.4,0.5,0.4c0.2,0,0.4-0.1,0.5-0.4
		c0.2-0.5,0.4-1,0.6-1.5c0.1,0.1,0.1,0.2,0.1,0.3c0.2,0.4,0.3,0.9,0.5,1.3c0.1,0.2,0.3,0.3,0.5,0.4c0.2,0,0.4-0.1,0.5-0.3
		c0.4-1,0.8-2,1.1-3c0.1-0.3-0.1-0.6-0.4-0.7C23.5,24.5,23.3,24.6,23.2,25z"/>
	<path class="st0" d="M32,28.6c0.2,0,0.4-0.1,0.5-0.3c0.1-0.2,0.1-0.3,0.2-0.5c0.1-0.4,0.3-0.7,0.4-1.2c0.2,0.6,0.4,1,0.6,1.5
		c0.1,0.3,0.3,0.4,0.5,0.4c0.2,0,0.4-0.1,0.5-0.4c0.2-0.5,0.4-0.9,0.5-1.4c0.2-0.5,0.4-0.9,0.5-1.4c0.1-0.3,0-0.6-0.3-0.7
		c-0.3-0.1-0.6,0-0.7,0.4c-0.1,0.2-0.1,0.3-0.2,0.5c-0.1,0.3-0.3,0.7-0.4,1.1c-0.2-0.5-0.4-1-0.6-1.5c-0.1-0.4-0.3-0.5-0.6-0.5
		c-0.3,0-0.4,0.1-0.6,0.5c-0.2,0.5-0.4,0.9-0.6,1.5c-0.2-0.6-0.4-1.1-0.6-1.6c-0.1-0.3-0.4-0.4-0.7-0.3c-0.3,0.1-0.4,0.4-0.3,0.7
		c0.4,1,0.8,2,1.1,3C31.6,28.5,31.8,28.6,32,28.6z"/>
	<path class="st0" d="M14.9,16.5c0.2,0,0.4-0.1,0.5-0.2l0.1-0.1c0.1-0.1,0.2-0.2,0.3-0.3c0.5-0.7,1.2-1.1,2-1.1c0.1,0,0.3,0,0.4,0
		c0,0,0.1,0,0.1,0c0.4,0,0.6-0.2,0.6-0.6c0-0.4-0.2-0.7-0.7-0.7l-0.3,0c-0.2,0-0.3,0-0.5,0c-0.2,0-0.4,0-0.6,0
		c-0.2,0-0.5,0.1-0.8,0.3c-0.2,0.1-0.3,0.3-0.5,0.4c-0.1,0.1-0.2,0.2-0.2,0.2l-0.2,0.2l-0.4-0.9c-0.3-0.5-0.5-1-0.8-1.5
		c-0.2-0.3-0.4-0.5-0.6-0.5c-0.2,0-0.4,0.1-0.6,0.3c-0.1,0.1-0.3,0.3-0.4,0.4c-0.2,0.2-0.4,0.5-0.7,0.7c-0.2,0.1-0.4,0.2-0.6,0.3
		c-0.1,0-0.3,0-0.4,0l-0.4,0c-0.1,0-0.2,0-0.3,0c-0.4,0-0.6,0.3-0.6,0.7c0,0.4,0.2,0.6,0.6,0.6l0.2,0c0.2,0,0.5,0,0.7,0c0,0,0,0,0,0
		c0.7,0,1.5-0.1,2-0.9c0-0.1,0.1-0.1,0.1-0.1l0.2-0.1l0.4,0.9c0.3,0.5,0.5,1,0.8,1.5C14.4,16.3,14.7,16.5,14.9,16.5z"/>
	<path class="st0" d="M6.7,22.7c-0.9,0-1.7,0-2.6,0c-0.3,0-0.5,0.1-0.6,0.3c-0.1,0.2-0.1,0.4-0.1,0.6C3.5,23.8,3.6,24,4.1,24l7.5,0
		c0-0.1,0-0.2,0-0.3c0-0.3,0-0.7,0.1-1L6.7,22.7z"/>
	<path class="st0" d="M4,26.9c-0.4,0-0.7,0.2-0.7,0.6c0,0.5,0.4,0.7,0.7,0.7c0.1,0,0.2,0,0.2,0l7.3,0c0-0.4,0-0.9,0-1.3l-6.4,0
		C4.8,26.9,4.4,26.9,4,26.9z"/>
	<path class="st0" d="M4.2,32.4c1.1,0,2.2,0,3.3,0l5,0c-0.2-0.4-0.4-0.9-0.6-1.3l-4.7,0c-1,0-2,0-3.1,0c-0.3,0-0.5,0.1-0.6,0.3
		c-0.1,0.2-0.1,0.4,0,0.6C3.5,32.3,3.7,32.4,4.2,32.4z"/>
	<path class="st0" d="M13.5,19.1c0.2-0.2,0.4-0.4,0.7-0.6H6.1c-0.2,0-1,0-1.2,0c-0.3,0-0.6,0-0.8,0c-0.3,0-0.5,0.1-0.6,0.3
		c-0.1,0.2-0.1,0.4,0,0.7c0.1,0.2,0.3,0.3,0.7,0.3h0c1.9,0,3.8,0,5.7,0l3,0C13,19.6,13.3,19.3,13.5,19.1z"/>
</g>
</svg>
