<?xml version="1.0" encoding="utf-8"?>
<!-- Generator: Adobe Illustrator 23.0.1, SVG Export Plug-In . SVG Version: 6.00 Build 0)  -->
<svg version="1.1" id="Capa_1" xmlns="http://www.w3.org/2000/svg" xmlns:xlink="http://www.w3.org/1999/xlink" x="0px" y="0px"
	 viewBox="0 0 40 40" style="enable-background:new 0 0 40 40;" xml:space="preserve">
<style type="text/css">
	.st0{fill:#3A3A3A;}
</style>
<g>
	<path class="st0" d="M40,29.1C40,29.1,39.9,29.1,40,29.1c-0.4-2.2-1.6-3.7-3.6-4.5c-0.3-0.1-0.5-0.2-0.8-0.2c-0.1,0-0.1,0-0.2-0.1
		c0-3.6-2.3-6.8-5.6-7.7c-0.9-0.3-1.8-0.4-2.7-0.4c-2.8,0-5.1,1.4-6.9,4.2c-0.7-0.4-1.5-0.6-2.2-0.6c-0.8,0-1.5,0.2-2.3,0.7
		c-1.1,0.7-1.8,1.7-2,3.1c0,0.1,0,0.2-0.1,0.2c-2.9,1.2-4.3,4.1-3.5,7.1c0.6,2.3,2.9,4.1,5.2,4.2c1,0,2,0,2.8,0l1.8,0l0.6,0
		c0.1,0,0.2,0,0.4-0.1c0.3-0.1,0.5-0.3,0.5-0.7c0-0.3-0.2-0.6-0.5-0.7c-0.1-0.1-0.3-0.1-0.5-0.1c-0.6,0-2.3,0-2.3,0
		c-0.8,0-1.5,0-2.3,0c-0.3,0-0.6,0-1-0.1c-1.8-0.4-3.3-2-3.5-3.8c-0.2-2.4,1.4-4.1,3-4.6c0.6-0.2,0.7-0.4,0.7-1
		c0-1.1,0.5-1.9,1.5-2.4c0.4-0.2,0.8-0.3,1.3-0.3c0.7,0,1.3,0.3,1.9,0.7c0.2,0.2,0.5,0.3,0.7,0.3c0.2,0,0.4-0.1,0.5-0.2
		c0.1-0.1,0.2-0.3,0.3-0.4l0-0.1c1.2-2.5,3.1-3.8,5.7-3.9c0.1,0,0.2,0,0.3,0c1.9,0,3.5,0.8,4.8,2.3c1.1,1.3,1.6,2.9,1.5,4.6
		c0,0.4,0,0.7,0.2,0.9c0.2,0.2,0.4,0.3,0.8,0.3c1.1,0,2.1,0.6,2.8,1.4c0.7,0.9,1,2,0.8,3.1c-0.3,2-1.9,3.3-3.9,3.3
		c-0.6,0-1.3,0-1.9,0l-1.8,0c-0.5,0-1,0-1.5,0c-0.1,0-0.4,0-0.6,0.1c-0.3,0.2-0.4,0.5-0.3,0.9c0.1,0.3,0.4,0.5,0.9,0.5
		c0,0,2.6,0,3.1,0c0.7,0,1.4,0,2,0c2.4,0,4.4-1.4,5.2-3.7c0.1-0.3,0.2-0.5,0.2-0.8c0-0.1,0.1-0.2,0.1-0.4l0,0L40,29.1L40,29.1z"/>
	<path class="st0" d="M28.7,30.5c0.1-0.3,0-0.6-0.3-0.8c-0.8-0.9-1.7-1.7-2.5-2.5l-0.6-0.6c0,0-0.1-0.1-0.1-0.1L25,26.3l-0.2,0.2
		c-0.1,0-0.1,0.1-0.2,0.1l-0.9,0.9c-0.7,0.7-1.4,1.4-2.1,2.1c-0.7,0.6-0.3,1.1-0.2,1.3c0.1,0.2,0.3,0.2,0.5,0.2
		c0.2,0,0.5-0.1,0.8-0.4l1.5-1.5v1.6c0,2.7,0,5.4,0,8.2c0,0.1,0,0.3,0.1,0.5c0.1,0.3,0.4,0.5,0.7,0.5c0.2,0,0.3-0.1,0.5-0.2
		c0.3-0.2,0.3-0.5,0.3-0.8l0-9.8c0,0,1.2,1.2,1.5,1.5c0.2,0.2,0.4,0.3,0.7,0.3c0.1,0,0.2,0,0.3-0.1C28.5,31,28.7,30.8,28.7,30.5z"/>
	<path class="st0" d="M15.1,9.6C15.1,9.6,15.1,9.6,15.1,9.6l-5.3,0l-0.5,0c-0.2,0-0.3,0-0.4,0c-0.2,0-0.4,0.1-0.5,0.3
		c-0.1,0.1-0.2,0.3-0.1,0.5c0,0.2,0.2,0.5,0.7,0.5c0.4,0,0.9,0,1.3,0l1.7,0l1.9,0c0.5,0,0.8,0,1.2,0c0.4,0,0.7-0.3,0.7-0.7
		C15.8,9.9,15.5,9.7,15.1,9.6z"/>
	<path class="st0" d="M15.7,15.9c0.1-0.2,0.1-0.4,0-0.6c-0.1-0.2-0.3-0.3-0.6-0.3c-0.5,0-0.9,0-1.4,0l-3.3,0c-0.5,0-1,0-1.5,0
		c-0.4,0-0.7,0.3-0.7,0.6c0,0.2,0.1,0.3,0.2,0.5c0.1,0.1,0.3,0.2,0.5,0.2c0.4,0,0.9,0,1.3,0l3.4,0l1.4,0
		C15.4,16.2,15.6,16.1,15.7,15.9z"/>
	<path class="st0" d="M7.7,8.2C7.5,8.1,7.4,8,7.2,8C7.1,8,7.1,8,7,8C6.9,8.1,6.7,8.2,6.6,8.3c-0.3,0.4-0.7,0.8-1,1.3l-0.4,0.5
		c0,0-0.3-0.5-0.4-0.6C4.6,9.3,4.4,9.2,4.2,9.2c-0.1,0-0.3,0-0.4,0.1c-0.3,0.2-0.3,0.6-0.1,1c0.3,0.4,0.5,0.7,0.8,1.1l0.1,0.1
		c0.2,0.2,0.4,0.4,0.6,0.4c0.2,0,0.4-0.1,0.6-0.4c0.5-0.6,0.9-1.2,1.3-1.8l0.4-0.6C7.6,9.1,7.7,9,7.7,8.9C7.9,8.7,7.8,8.4,7.7,8.2z"
		/>
	<path class="st0" d="M3.7,20.9c0.3,0.4,0.5,0.7,0.8,1.1L4.6,22c0.2,0.2,0.4,0.4,0.6,0.4c0.2,0,0.4-0.1,0.6-0.4
		c0.4-0.5,0.7-1,1.1-1.4l0.6-0.7c0.1-0.1,0.2-0.2,0.3-0.4c0.2-0.3,0.1-0.7-0.1-0.9c-0.1-0.1-0.3-0.1-0.4-0.1c-0.2,0-0.4,0.1-0.5,0.2
		c0,0.1-0.1,0.1-0.1,0.2l-1.3,1.8L5,20.5c-0.1-0.1-0.2-0.3-0.3-0.4c-0.2-0.2-0.4-0.3-0.6-0.3c-0.1,0-0.3,0-0.4,0.1
		C3.5,20.1,3.4,20.5,3.7,20.9z"/>
	<path class="st0" d="M7.4,13.3c-0.1,0-0.2-0.1-0.3-0.1c-0.2,0-0.4,0.1-0.5,0.3c-0.3,0.4-0.7,0.9-1,1.3l-0.4,0.6
		c0,0-0.4-0.5-0.5-0.6c-0.2-0.2-0.4-0.3-0.6-0.3c-0.1,0-0.3,0-0.4,0.1c-0.3,0.2-0.3,0.6-0.1,1C4,16,4.3,16.4,4.6,16.8
		C4.8,17,5,17.1,5.2,17.1c0.2,0,0.4-0.1,0.6-0.3c0.6-0.7,1.2-1.6,1.9-2.5c0.1-0.1,0.1-0.2,0.2-0.4C7.8,13.7,7.7,13.4,7.4,13.3z"/>
	<path class="st0" d="M1.6,24.6c0-6.4,0-12.9,0-19.3c0-0.6,0.3-0.9,0.8-0.9c0.3,0,0.5,0,0.9,0l1.4,0l0,0.3c0,0.2,0,0.5,0,0.7
		c0,0.5,0.2,0.7,0.7,0.7c1.5,0,3.1,0,4.6,0c1.4,0,2.8,0,4.2,0c0.5,0,0.7-0.2,0.7-0.8c0-0.2,0-0.4,0-0.7l0-0.3c0,0,0.1,0,0.1,0
		c0,0,0.1,0,0.1,0l1.2,0c0.3,0,0.6,0,0.8,0c0.6,0,0.9,0.3,0.9,0.9v13.3l0.2,0c0.4,0,0.8,0.1,1.1,0.2l0.2,0.1l0-13.4
		c0-1.5-1-2.5-2.5-2.5l-1,0c-0.4,0-0.6,0-0.9,0c-0.1,0-0.1,0-0.2,0c0,0,0-0.1,0-0.2c0-0.5-0.2-0.8-0.8-0.8l-0.9,0
		c-0.3,0-0.5,0-0.8,0c-0.2,0-0.3-0.1-0.3-0.2C11.8,0.6,10.9,0,9.8,0c-1.1,0-2,0.7-2.4,1.7C7.4,1.8,7.3,1.9,7.1,1.9
		c-0.3,0-0.6,0-0.9,0c-0.3,0-0.6,0-0.9,0c-0.4,0-0.7,0.2-0.7,0.7c0,0,0,0,0,0l0,0l0,0.3l-1.4,0c-0.3,0-0.6,0-0.8,0
		c-0.2,0-0.4,0-0.7,0.1C0.7,3.2,0,4.1,0,5.3v19.2C0,26,1,27,2.5,27l6.6,0l0-0.1c0.1-0.2,0.2-0.5,0.3-0.7c0.1-0.2,0.2-0.3,0.3-0.5
		l0.2-0.3l-7.4,0C1.9,25.4,1.6,25.1,1.6,24.6z M8.4,3.2l0.1-0.1l0-0.1c0,0,0,0,0-0.1c0-0.1,0-0.3,0-0.4c0-0.6,0.6-1.2,1.2-1.2
		c0.6,0,1.2,0.5,1.2,1.2c0,0.1,0,0.3,0,0.4c0,0,0,0.1,0,0.2l0,0.1l0.1,0c0,0,0.1,0,0.1,0c0,0,0,0,0,0c0.3,0,0.5,0,0.9,0l1.4,0v1.7H6
		V3.2l1.4,0c0.4,0,0.6,0,0.9,0C8.3,3.2,8.4,3.2,8.4,3.2z"/>
	<path class="st0" d="M8.8,20.2c-0.3,0.1-0.5,0.3-0.5,0.6c0,0.3,0.2,0.6,0.5,0.6c0.1,0,0.2,0,0.3,0c0.9,0,4.1,0,4.1,0l0.1-0.1
		c0.2-0.3,0.4-0.6,0.7-0.9l0.3-0.3l-5,0C9,20.2,8.9,20.2,8.8,20.2z"/>
</g>
</svg>
