<?xml version="1.0" encoding="utf-8"?>
<!-- Generator: Adobe Illustrator 23.0.1, SVG Export Plug-In . SVG Version: 6.00 Build 0)  -->
<svg version="1.1" id="Layer_1" xmlns="http://www.w3.org/2000/svg" xmlns:xlink="http://www.w3.org/1999/xlink" x="0px" y="0px"
	 viewBox="0 0 40 40" style="enable-background:new 0 0 40 40;" xml:space="preserve">
<style type="text/css">
	.st0{fill:#3A3A3A;}
</style>
<g>
	<path class="st0" d="M11.7,26.5c1.6-1.6,3.2-3.2,4.9-4.8c0.3-0.3,0.5-0.7,0.5-1.2c0-0.4-0.2-0.9-0.5-1.2c-1.1-1.1-6.8-6.8-6.8-6.8
		c-0.3-0.3-0.6-0.4-1-0.4c-0.7,0-1.5,0-2.2,0l-1.9,0c-0.1,0-0.2,0-0.2,0.1c-0.1,0.1-0.2,0.2-0.3,0.3L4,12.6c-0.1,0.1-0.1,0.2,0,0.3
		l0.3,0.4c-0.5-0.3-1-0.5-1.5-0.5c-0.3,0-0.6,0.1-1,0.2c-1,0.4-1.6,1.1-1.8,2.2c-0.2,1.2,0.7,2.6,1.9,3c0,0,0,0,0,0c0,0,0,0,0,0
		C2,18.5,2,18.7,2,19c0.1,0.3,0.2,0.6,0.5,0.8l6.8,6.7C9.6,26.8,10,27,10.5,27C10.9,27,11.3,26.8,11.7,26.5z M2.5,13.9
		c-0.2,0.1-0.3,0.3-0.5,0.4c-0.1,0.1-0.1,0.2-0.1,0.3c0,0.7,0,1.3,0,2v0.4c-0.2-0.1-0.4-0.3-0.6-0.5c-0.4-0.5-0.4-1.3-0.1-1.9
		C1.6,14.2,2,13.9,2.5,13.9L2.5,13.9z M10,25.8L7.2,23c-1.3-1.3-2.7-2.7-4-4C3.1,18.9,3,18.7,3,18.5L3,18c0-1,0-2,0-3
		c0,0,0.1-0.1,0.1-0.1c0,0,0.1-0.1,0.1-0.1l0,0c0.1,0,0.1-0.1,0.1-0.2c0-0.1,0-0.1-0.1-0.2L3,13.9c0,0,0,0,0,0
		c0.5,0.1,0.8,0.3,1.1,0.6c0,0,0,0,0,0c0,0,0,0,0,0c-0.1,0.1-0.3,0.3-0.4,0.4L3.6,15c0,0-0.1,0.1-0.1,0.2c0,0.1,0,0.1,0.1,0.2
		L4,15.8c0,0,0.1,0.1,0.2,0.1c0.1,0,0.1,0,0.2-0.1l1.3-1.3c0,0,0.1-0.1,0.1-0.2c0-0.1,0-0.1-0.1-0.2l-0.4-0.4c0,0-0.1-0.1-0.2-0.1
		c-0.1,0-0.1,0-0.2,0.1l0,0l0,0c-0.1-0.1-0.2-0.2-0.3-0.3c0,0,0,0,0,0c0,0,0,0,0,0c0,0,0.1,0,0.1,0l0,0l0,0l0,0
		c0.1-0.1,0.3-0.2,0.5-0.2h0c0.5,0,1.1,0,1.6,0c0.6,0,1.2,0,1.8,0c0.2,0,0.3,0.1,0.5,0.2c2,2,4,3.9,5.9,5.9l0.7,0.7
		c0.1,0.1,0.3,0.3,0.3,0.5c0,0.2,0,0.3-0.2,0.4c0,0-4.7,4.7-4.9,4.9c-0.2,0.2-0.3,0.2-0.5,0.2C10.3,26,10.2,25.9,10,25.8z"/>
	<rect x="8.7" y="16.3" transform="matrix(0.8684 -0.4959 0.4959 0.8684 -8.3604 7.0946)" class="st0" width="1" height="6"/>
	<path class="st0" d="M7.4,19.2C7.4,19.2,7.3,19.2,7.4,19.2c-0.9,0-1.4,0.6-1.4,1.5c0,0.8,0.6,1.3,1.4,1.3c0,0,0.1,0,0.1,0
		c0.7,0,1.3-0.6,1.3-1.4c0-0.4-0.1-0.8-0.4-1C8.1,19.4,7.8,19.2,7.4,19.2z M7.7,20.9c0,0.1,0,0.1-0.1,0.1c-0.1,0-0.2,0-0.3,0
		c-0.1,0-0.1,0-0.2,0C7,21,7,21,7,20.8c0-0.1,0-0.2,0-0.2l0-0.1c0-0.2,0-0.2,0.2-0.2l0.2,0l0.1,0c0.2,0,0.2,0,0.2,0.2
		C7.7,20.6,7.7,20.7,7.7,20.9z"/>
	<path class="st0" d="M10.9,19.3c0,0,0.1,0,0.1,0c0.8,0,1.3-0.6,1.3-1.4c0-0.3-0.1-0.7-0.3-1c-0.3-0.3-0.6-0.5-1-0.5l0,0
		c-0.9,0-1.4,0.5-1.5,1.3c0,0.4,0.1,0.8,0.4,1.1C10.1,19.1,10.5,19.3,10.9,19.3z M10.5,17.8c0,0,0-0.1,0-0.1c0-0.1,0-0.2,0.2-0.2
		c0.1,0,0.1,0,0.2,0c0.1,0,0.2,0,0.3,0c0.1,0,0.1,0,0.1,0.1c0,0.2,0,0.3,0,0.5c0,0.1,0,0.1-0.2,0.1c0,0-0.1,0-0.1,0l-0.2,0
		c-0.2,0-0.2,0-0.2-0.2V17.8z"/>
	<path class="st0" d="M40,15.2c-0.2-1-0.8-1.8-1.8-2.2c-0.3-0.1-0.6-0.2-1-0.2c-0.5,0-1,0.2-1.5,0.5l0.3-0.4c0.1-0.1,0.1-0.3,0-0.3
		L36,12.5c-0.1-0.1-0.2-0.2-0.3-0.3c-0.1-0.1-0.2-0.1-0.2-0.1l-1.9,0c-0.7,0-1.5,0-2.2,0c-0.4,0-0.7,0.1-1,0.4c0,0-5.7,5.6-6.8,6.8
		c-0.3,0.3-0.5,0.7-0.5,1.2c0,0.4,0.2,0.9,0.5,1.2c1.6,1.6,3.2,3.2,4.9,4.8c0.3,0.3,0.7,0.5,1.2,0.5c0.5,0,0.9-0.2,1.2-0.5l6.8-6.7
		c0.2-0.2,0.4-0.5,0.5-0.8c0.1-0.3,0.1-0.5,0.1-0.7c0,0,0,0,0,0c0,0,0,0,0,0C39.3,17.8,40.2,16.4,40,15.2z M36.7,14.6L36.7,14.6
		c0.1,0.1,0.1,0.1,0.2,0.2c0,0,0.1,0.1,0.1,0.1c0,1,0,2,0,3l0,0.5c0,0.2-0.1,0.4-0.2,0.5c-1.3,1.3-2.7,2.7-4,4L30,25.8
		c-0.2,0.2-0.3,0.2-0.5,0.2c-0.1,0-0.3-0.1-0.5-0.2c-0.2-0.2-4.9-4.9-4.9-4.9c-0.1-0.1-0.2-0.3-0.2-0.4c0-0.2,0.1-0.3,0.3-0.5
		l0.7-0.7c2-2,4-3.9,5.9-5.9c0.1-0.1,0.3-0.2,0.5-0.2c0.6,0,1.2,0,1.8,0c0.5,0,1.1,0,1.6,0h0c0.2,0,0.4,0,0.5,0.2l0,0l0,0l0,0
		c0,0,0.1,0,0.1,0c0,0,0,0,0,0c0,0,0,0,0,0c-0.1,0.1-0.2,0.2-0.3,0.3l0,0l0,0c0,0-0.1-0.1-0.2-0.1c-0.1,0-0.1,0-0.2,0.1l-0.4,0.4
		c0,0-0.1,0.1-0.1,0.2c0,0.1,0,0.1,0.1,0.2l1.3,1.3c0,0,0.1,0.1,0.2,0.1c0.1,0,0.1,0,0.2-0.1l0.4-0.4c0,0,0.1-0.1,0.1-0.2
		c0-0.1,0-0.1-0.1-0.2l-0.1-0.1c-0.1-0.1-0.3-0.3-0.4-0.4c0,0,0,0,0,0c0,0,0,0,0,0c0.3-0.4,0.6-0.6,1.1-0.6c0,0,0,0,0,0l-0.4,0.4
		c0,0.1-0.1,0.1-0.1,0.2C36.6,14.5,36.7,14.6,36.7,14.6z M38.6,16.6c-0.2,0.2-0.3,0.4-0.6,0.5v-0.4c0-0.7,0-1.3,0-2
		c0-0.1,0-0.2-0.1-0.3c-0.1-0.1-0.3-0.3-0.5-0.4l-0.1-0.1c0.5,0,1,0.3,1.3,0.8C39.1,15.2,39,16.1,38.6,16.6z"/>
	<rect x="27.8" y="18.8" transform="matrix(0.4962 -0.8682 0.8682 0.4962 -1.2276 36.4762)" class="st0" width="6" height="1"/>
	<path class="st0" d="M32.7,19.2C32.7,19.2,32.6,19.2,32.7,19.2c-0.5,0-0.8,0.1-1.1,0.4c-0.3,0.3-0.4,0.6-0.4,1
		c0,0.8,0.6,1.4,1.3,1.4c0,0,0.1,0,0.1,0c0.8,0,1.4-0.5,1.4-1.3C34,19.8,33.6,19.3,32.7,19.2z M33,20.8c0,0.1,0,0.2-0.1,0.2
		c-0.1,0-0.1,0-0.2,0c-0.1,0-0.2,0-0.3,0c-0.1,0-0.1,0-0.1-0.1c0-0.2,0-0.3,0-0.4c0-0.1,0-0.2,0.2-0.2l0.1,0l0.2,0
		c0.2,0,0.2,0,0.2,0.2l0,0.1C33,20.7,33,20.8,33,20.8z"/>
	<path class="st0" d="M29.1,19.3c0.4,0,0.8-0.2,1-0.4c0.3-0.3,0.4-0.7,0.4-1.1c0-0.8-0.6-1.3-1.5-1.3l0,0c-0.4,0-0.7,0.2-1,0.5
		c-0.2,0.3-0.4,0.6-0.3,1c0,0.8,0.5,1.4,1.3,1.4C29,19.3,29.1,19.3,29.1,19.3z M28.8,18.1c0-0.1,0-0.3,0-0.5c0-0.1,0-0.1,0.1-0.1
		c0.1,0,0.2,0,0.3,0c0.1,0,0.1,0,0.2,0c0.1,0,0.2,0,0.2,0.2c0,0,0,0.1,0,0.1V18c0,0.2,0,0.2-0.2,0.2l-0.2,0c0,0-0.1,0-0.1,0
		C28.8,18.2,28.8,18.2,28.8,18.1z"/>
	<path class="st0" d="M30.8,29.5c-0.2,0-0.3,0.1-0.5,0.2c0,0-0.1,0.1-0.1,0.1c0,0,0,0-0.1,0.1c-2.5,2.4-5.7,3.7-9.1,3.7
		c-3.1,0-6-1.1-8.4-3.1c-0.1-0.1-0.1-0.1-0.2-0.2c0,0-0.1-0.1-0.1-0.1L12,30h0.4c0.1,0,0.2,0,0.4,0c0,0,0.2,0,0.3,0
		c0.1,0,0.2,0,0.3,0c0.4,0,0.6-0.3,0.6-0.6c0-0.2-0.1-0.3-0.2-0.5c-0.1-0.1-0.3-0.2-0.4-0.2c-0.1,0-0.3,0-0.4,0c-0.8,0-1.7,0-2.6,0
		c-0.3,0-0.6,0.2-0.6,0.6c0,0.9,0,1.9,0,2.9c0,0.4,0.3,0.6,0.6,0.6c0.3,0,0.6-0.3,0.6-0.7c0-0.2,0-0.4,0-0.6c0-0.1,0-0.6,0-0.6
		l0.4,0.3c0.1,0.1,0.2,0.1,0.2,0.2c2.6,2.2,5.9,3.4,9.2,3.4c2.3,0,4.7-0.6,6.8-1.7c1.3-0.7,2.4-1.5,3.4-2.6c0.3-0.3,0.3-0.6,0-0.9
		C31.1,29.6,30.9,29.5,30.8,29.5z"/>
	<path class="st0" d="M11.2,10.5c0.2,0,0.3-0.1,0.4-0.2c0.1-0.1,0.1-0.1,0.2-0.2l0.1-0.1c2.4-2.4,5.7-3.7,9.1-3.7
		c2.8,0,5.5,0.9,7.7,2.5c0.2,0.2,0.4,0.3,0.6,0.5c0.1,0.1,0.2,0.2,0.4,0.3L30,9.9l-0.6,0c-0.1,0-0.2,0-0.2,0c-0.1,0-0.2,0-0.2,0l0,0
		c-0.1,0-0.2,0-0.2,0c-0.4,0-0.7,0.2-0.7,0.6c0,0.2,0.1,0.3,0.2,0.4c0.1,0.1,0.3,0.2,0.5,0.2c0.8,0,1.7,0,2.5,0l0.2,0
		c0.4,0,0.7-0.2,0.7-0.7c0-0.9,0-1.8,0-2.7c0-0.4-0.2-0.7-0.6-0.7l0,0c-0.4,0-0.6,0.3-0.6,0.7c0,0.2,0,0.4,0,0.6l0,0.6l-0.3-0.3
		c-0.1,0-0.1-0.1-0.1-0.1c-2.6-2.3-6-3.5-9.4-3.5c-2.6,0-5.1,0.7-7.4,2c-1,0.6-2,1.4-2.8,2.2c-0.3,0.3-0.3,0.6,0,0.9
		C10.9,10.4,11,10.5,11.2,10.5z"/>
</g>
</svg>
