<?xml version="1.0" encoding="utf-8"?>
<!-- Generator: Adobe Illustrator 23.0.1, SVG Export Plug-In . SVG Version: 6.00 Build 0)  -->
<svg version="1.1" id="Layer_1" xmlns="http://www.w3.org/2000/svg" xmlns:xlink="http://www.w3.org/1999/xlink" x="0px" y="0px"
	 viewBox="0 0 40 40" style="enable-background:new 0 0 40 40;" xml:space="preserve">
<style type="text/css">
	.st0{fill:#3A3A3A;}
</style>
<g>
	<path class="st0" d="M30,24.8c-0.6,0-1.2,0.1-1.7,0.3c-2.7,1-4.2,3.9-3.2,6.7c0.7,2.1,2.7,3.5,5,3.5c0.6,0,1.2-0.1,1.7-0.3
		c1.3-0.5,2.4-1.4,3-2.7v0c0.6-1.3,0.7-2.7,0.2-4C34.2,26.2,32.2,24.8,30,24.8z M33.6,31.7L33.6,31.7c-0.5,1-1.3,1.7-2.3,2
		C30.9,33.9,30.4,34,30,34c-1.7,0-3.2-1.1-3.8-2.7c-0.7-2.1,0.4-4.4,2.5-5.1c0.4-0.1,0.9-0.2,1.3-0.2c1.7,0,3.2,1.1,3.8,2.7
		C34.1,29.7,34.1,30.8,33.6,31.7z"/>
	<path class="st0" d="M39.3,25.7c-0.1-0.3-0.4-0.5-0.7-0.5l-1.8,0.4c-0.5-0.7-1-1.4-1.7-1.9l0.6-1.5c0.1-0.3,0-0.7-0.4-0.9l-1.8-0.9
		c-0.3-0.2-0.7,0-0.9,0.3l-0.9,1.4c-0.8-0.2-1.7-0.2-2.6-0.1l-0.7-1.5c-0.1-0.3-0.4-0.4-0.6-0.4c-0.1,0-0.2,0-0.2,0l-1.9,0.7
		c-0.4,0.1-0.5,0.5-0.5,0.8l0.4,1.7c-0.7,0.5-1.3,1-1.9,1.7l-1.6-0.6c-0.3-0.1-0.7,0-0.9,0.4l-0.9,1.8c-0.2,0.3,0,0.7,0.3,0.9
		l1.5,0.9C22,29.1,22,30,22.1,30.8l-1.7,0.8c-0.3,0.2-0.5,0.5-0.4,0.9l0.7,1.9c0.1,0.3,0.4,0.5,0.7,0.5l2-0.5c0.4,0.7,1,1.3,1.6,1.8
		l-0.6,1.8c-0.1,0.3,0,0.7,0.4,0.9l1.8,0.9c0.3,0.2,0.7,0,0.9-0.3l1-1.6c0.8,0.2,1.6,0.2,2.4,0.1l0.8,1.7c0.1,0.3,0.4,0.4,0.6,0.4
		c0.1,0,0.2,0,0.2,0l1.9-0.7c0.3-0.1,0.5-0.5,0.5-0.8l-0.4-1.8c0.7-0.4,1.3-1,1.9-1.6l1.7,0.6c0.3,0.1,0.7,0,0.9-0.4l0.9-1.8
		c0.2-0.3,0-0.7-0.3-0.9l-1.5-0.9c0.2-0.8,0.3-1.7,0.2-2.5l1.5-0.7c0.3-0.2,0.5-0.5,0.4-0.9L39.3,25.7z M36.7,28.4l0.1,0.6
		c0.1,0.9,0.1,1.8-0.2,2.6l-0.2,0.6l1.9,1.1l-0.5,0.9l-1.4-0.5l-0.6-0.3l-0.5,0.6c-0.5,0.7-1.2,1.2-1.9,1.7l-0.6,0.4l0.2,0.7
		l0.4,1.5l-1,0.3l-0.6-1.4l-0.2-0.7l-0.7,0.1c-0.8,0.1-1.7,0.1-2.5-0.2l-0.7-0.2L27.4,37l-0.8,1.3l-0.9-0.5l0.5-1.4l0.3-0.7
		l-0.6-0.4c-0.7-0.5-1.2-1.1-1.7-1.9l-0.4-0.6l-0.7,0.2l-1.5,0.4l-0.3-1l1.4-0.6l0.7-0.2l-0.1-0.7c-0.1-0.8-0.1-1.7,0.1-2.5l0.2-0.7
		L23,27.4l-1.3-0.8l0.5-0.9l2,0.8l0.4-0.5c0.5-0.7,1.2-1.3,1.9-1.8l0.5-0.3l-0.5-2.1l1-0.3l0.9,1.9l0.6-0.1c0.9-0.1,1.8-0.1,2.6,0.1
		l0.6,0.2l1.1-1.8l0.9,0.5l-0.7,2l0.5,0.4c0.7,0.5,1.3,1.2,1.8,2l0.3,0.6l2-0.5l0.3,1L36.7,28.4z"/>
	<path class="st0" d="M19.6,17.1c0.3-0.2,0.6-0.3,0.8-0.5c3.4-3.4,6.8-6.8,10.2-10.2c0.1-0.1,0.2-0.2,0.2-0.3
		c0.3-0.4,0.2-0.8-0.1-1.2c-0.3-0.3-0.8-0.3-1.2-0.1c-0.1,0.1-0.2,0.2-0.3,0.3c-3.4,3.4-6.8,6.8-10.1,10.1c-0.1,0.1-0.3,0.2-0.3,0.4
		c-0.1,0.3-0.1,0.6,0,0.9C19,16.8,19.3,16.9,19.6,17.1z"/>
	<path class="st0" d="M21,10.2c1.6,0,2.9-1.3,2.9-2.9c0-1.6-1.3-2.9-2.9-2.9c-1.6,0-2.9,1.3-2.9,2.9C18.1,8.9,19.4,10.2,21,10.2z
		 M21,6.2c0.6,0,1.1,0.5,1.1,1.1c0,0.6-0.5,1.1-1.1,1.1c-0.6,0-1.1-0.5-1.1-1.1C19.9,6.7,20.4,6.2,21,6.2z"/>
	<path class="st0" d="M28.2,11.6c-1.6,0-2.9,1.2-3,2.8c0,1.6,1.2,2.9,2.8,3c1.6,0,2.9-1.2,3-2.8C31.1,12.9,29.8,11.6,28.2,11.6z
		 M28.2,15.6c-0.6,0-1.1-0.4-1.1-1.1c0-0.6,0.5-1.1,1.1-1.1c0.6,0,1.1,0.5,1.1,1.1C29.3,15.1,28.8,15.5,28.2,15.6z"/>
	<path class="st0" d="M11.6,12.8c0,0.5,0.4,0.9,0.9,0.9c0.5,0,0.9-0.3,0.9-0.9c0-1,0-2.1,0-3.1c0-0.5-0.4-0.9-0.9-0.9
		c-0.5,0-0.9,0.4-0.9,0.9c0,0.5,0,1,0,1.5c0,0,0,0,0,0c0,0.3,0,0.5,0,0.8C11.6,12.2,11.6,12.5,11.6,12.8z"/>
	<path class="st0" d="M13.4,4.2c0-0.5-0.5-0.8-0.9-0.8c-0.5,0-0.8,0.4-0.9,0.9c0,0.4,0,0.7,0,1.1c0,0,0,0,0,0c0,0.4,0,0.8,0,1.2
		c0,0.5,0.4,0.9,0.8,0.9c0.5,0,0.9-0.3,1-0.8C13.4,5.9,13.4,5,13.4,4.2z"/>
	<path class="st0" d="M11.6,18.2c0,0.5,0.4,0.9,0.8,0.9c0.5,0,0.9-0.3,0.9-0.8c0-0.8,0-1.6,0-2.4c0-0.5-0.4-0.8-0.9-0.8
		c-0.5,0-0.9,0.4-0.9,0.9c0,0.4,0,0.7,0,1.1C11.6,17.4,11.6,17.8,11.6,18.2z"/>
	<path class="st0" d="M4.8,27.5c-1,0-1.8,0.8-1.8,1.8c0,1,0.8,1.8,1.8,1.8c1,0,1.8-0.8,1.8-1.8C6.5,28.3,5.7,27.5,4.8,27.5z"/>
	<path class="st0" d="M40,1.1C40,0.3,39.7,0,38.9,0c-0.1,0-0.1,0-0.2,0c-6.9,0-13.9,0-20.8,0c-1.7,0-3.4,0-5.1,0
		c-0.7,0-1.1,0.3-1.1,1.1c0,0.1,0,0.1,0,0.2c-0.6,0-1.1,0-1.7,0C9.9,0.3,9.7,0,9,0C6.5,0,4.1,0,1.6,0c-0.6,0-1,0.3-1,1
		c0,0.1,0,0.2,0,0.3c0,3.3,0,6.6,0,9.9c0,0.2,0,0.5-0.1,0.6c-0.7,1.3-0.6,2.5-0.1,3.8c0.1,0.3,0.2,0.6,0.2,0.9c0,1.6,0,3.1,0,4.7
		c0,1.1,0.3,1.3,1.3,1.3c1.4,0,2.8,0,4.2,0c0.1,0,0.3,0,0.4,0.1c0.6,0.6,1.3,1.2,1.8,1.8c-0.3,0.3-0.6,0.6-0.9,0.9
		c-1-0.7-2.2-0.9-3.4-0.8c-2,0.3-3.7,1.9-4,3.8c-0.4,2.1,0.5,4.1,2.4,5.1c1.8,1,4.1,0.8,5.6-0.6c1.3-1.2,2.6-2.6,3.9-3.9
		c0.2-0.2,0.3-0.4,0.6-0.7c0.2,0.2,0.3,0.4,0.4,0.5c1.3,1.3,2.5,2.5,3.8,3.8c0.8,0.8,1.7,1.3,2.7,1.4l-0.4-1.3
		c-0.1-0.3-0.1-0.5-0.1-0.8c-1-0.5-1.7-1.5-1.7-2.7c0-1.3,0.8-2.4,2-2.8c0-0.2,0.1-0.4,0.2-0.5l0.7-1.4c-0.9,0-1.8,0.3-2.5,0.8
		c-0.3-0.3-0.7-0.6-1-0.9c0.6-0.6,1.1-1.1,1.7-1.6c0.2-0.2,0.5-0.3,0.7-0.3c1.8,0,3.6,0,5.3,0l-0.2-0.6C24,21.4,24,21,24.2,20.6
		c-3.5,0-7,0-10.5,0c0,0,0-0.1-0.1-0.1c-0.1-1-0.3-1.2-1.3-1.2c-0.6,0-1-0.2-1.4-0.6c-2.6-2.7-5.3-5.3-8-8c-0.4-0.4-0.5-0.7-0.5-1.2
		c0-2.5,0-4.9,0-7.4c0-0.4,0.1-0.5,0.5-0.5c1.6,0,3.2,0,4.9,0c0.1,0,0.3,0,0.4,0c0,0.2,0,0.3,0,0.5c0,0.5,0.4,0.8,0.8,0.8
		c1.2,0,2.4,0,3.6,0c0.5,0,0.8-0.3,0.9-0.9c0-0.1,0-0.3,0-0.4c8.2,0,16.4,0,24.6,0c0,6.3,0,12.5,0,18.8c-0.6,0-1.1,0-1.7,0
		c0.4,0.5,0.6,1.2,0.4,1.8c0.7,0,1.4,0,2.1,0c0.8,0,1.1-0.3,1.1-1.1c0-0.1,0-0.2,0-0.3c0-4.2,0-8.3,0-12.5C40,6.1,40,3.6,40,1.1z
		 M4.8,32.3c-1.7,0-3-1.4-3-3c0-1.7,1.3-3,3-3c1.7,0,3,1.3,3,3C7.8,31,6.5,32.3,4.8,32.3z M2.4,20.6c0-0.7,0-1.4,0-2
		c0.7,0.7,1.4,1.4,2,2C3.9,20.6,3.2,20.6,2.4,20.6z M9.7,28.6c-0.2-0.6-0.5-1.2-0.8-1.9c0-0.1,0-0.3,0.1-0.3
		c0.2-0.2,0.4-0.5,0.7-0.7c0.5,0.5,1,1,1.4,1.5C10.6,27.7,10.1,28.2,9.7,28.6z M15.8,22.5c-0.2,0.2-0.4,0.4-0.6,0.6
		c-0.2-0.2-0.3-0.4-0.5-0.6C15,22.5,15.4,22.5,15.8,22.5z M16.1,26.6c-0.2,0.7-0.5,1.3-0.8,2.1c0,0-0.1,0-0.1-0.1
		c-4-4-7.9-7.9-11.9-11.9c-0.6-0.6-1-1.3-1.3-2.1c-0.3-0.6-0.3-1.3,0.1-2C6.8,17.3,11.4,22,16.1,26.6z"/>
</g>
</svg>
