<?xml version="1.0" encoding="utf-8"?>
<!-- Generator: Adobe Illustrator 23.0.1, SVG Export Plug-In . SVG Version: 6.00 Build 0)  -->
<svg version="1.1" id="Layer_1" xmlns="http://www.w3.org/2000/svg" xmlns:xlink="http://www.w3.org/1999/xlink" x="0px" y="0px"
	 viewBox="0 0 40 40" style="enable-background:new 0 0 40 40;" xml:space="preserve">
<style type="text/css">
	.st0{fill:#3A3A3A;}
</style>
<g>
	<path class="st0" d="M37.4,11.1l-4-4V3.5c0-1.9-1.6-3.5-3.5-3.5H3.5C1.6,0,0,1.6,0,3.5V18c0,1.8,1.3,3.2,3,3.5l2.4,6.3
		C6,29.1,7.3,30,8.7,30c0.4,0,0.9-0.1,1.3-0.2L25.1,24c-0.9,2.7-0.5,5.8,1,8.2l0.3,0.6v6.4c0,0.5,0.4,0.9,0.9,0.9h11.9
		c0.5,0,0.9-0.4,0.9-0.9V17.4C40,15,39.1,12.8,37.4,11.1z M38.3,33.4v4.9H28.1v-4.9H38.3z M8.7,28.3c-0.7,0-1.4-0.5-1.7-1.1l-1-2.7
		l7.7-3h10.7l0.6,0.6l-15.6,6C9.2,28.3,8.9,28.3,8.7,28.3z M8.9,21.5l-3.5,1.3l-0.5-1.3H8.9z M1.7,3.5c0-1,0.8-1.8,1.8-1.8h26.4
		c1,0,1.8,0.8,1.8,1.8v4l-0.1,0l0.1,0.2l0,10.2l-5.7-5.7c-0.7-0.7-1.6-1.1-2.6-1.1c-1,0-1.9,0.4-2.6,1c-1.5,1.4-1.5,3.7-0.2,5.2
		l2.3,2.5H3.5c-1,0-1.8-0.8-1.8-1.8V3.5z M27.3,23.1c0.2-0.3,0.1-0.7-0.1-1l-5.4-5.9c-0.7-0.8-0.7-2,0.1-2.8
		c0.4-0.4,0.9-0.6,1.4-0.6c0.5,0,1,0.2,1.4,0.6l10.5,10.5c0.2,0.2,0.4,0.3,0.7,0.3c0.3,0,0.6-0.2,0.7-0.5c0.2-0.3,0.1-0.7-0.2-1
		l-2.2-2.2l0.4-0.2c1.8-0.7,2.7-2.7,2-4.5l-1.9-4.9l1.5,1.5c1.3,1.3,2.1,3.1,2.1,5v14.3H27.7l-0.2-0.4
		C25.9,28.8,25.9,25.6,27.3,23.1z M34,18.7L33.3,19c0.1-0.3,0.1-0.6,0.1-1v-5.8l1.6,4.2C35.4,17.3,34.9,18.4,34,18.7z"/>
	<path class="st0" d="M4.6,9.6h3.2c1.1,0,1.9-0.9,1.9-1.9V4.6c0-1.1-0.9-1.9-1.9-1.9H4.6c-1.1,0-1.9,0.9-1.9,1.9v3.2
		C2.6,8.8,3.5,9.6,4.6,9.6z M7.9,5.3H6.6V7h1.3v0.7c0,0.1-0.1,0.2-0.2,0.2H4.6c-0.1,0-0.2-0.1-0.2-0.2V7h1.3V5.3H4.4V4.6
		c0-0.1,0.1-0.2,0.2-0.2h3.2c0.1,0,0.2,0.1,0.2,0.2V5.3z"/>
	<rect x="3.3" y="11.2" class="st0" width="3" height="1.7"/>
	<rect x="3.3" y="15.2" class="st0" width="3" height="1.7"/>
	<rect x="15.2" y="15.2" class="st0" width="3" height="1.7"/>
	<rect x="7.3" y="11.2" class="st0" width="3" height="1.7"/>
	<rect x="11.2" y="11.2" class="st0" width="3" height="1.7"/>
	<rect x="15.2" y="11.2" class="st0" width="3" height="1.7"/>
	<rect x="27.7" y="3.3" class="st0" width="1.7" height="2.4"/>
	<rect x="25.1" y="3.3" class="st0" width="1.7" height="2.4"/>
	<rect x="22.4" y="3.3" class="st0" width="1.7" height="2.4"/>
	<rect x="19.8" y="3.3" class="st0" width="1.7" height="2.4"/>
	<rect x="29" y="34.3" class="st0" width="1.7" height="1.7"/>
</g>
</svg>
