<?xml version="1.0" encoding="utf-8"?>
<!-- Generator: Adobe Illustrator 23.0.1, SVG Export Plug-In . SVG Version: 6.00 Build 0)  -->
<svg version="1.1" id="Layer_1" xmlns="http://www.w3.org/2000/svg" xmlns:xlink="http://www.w3.org/1999/xlink" x="0px" y="0px"
	 viewBox="0 0 40 40" style="enable-background:new 0 0 40 40;" xml:space="preserve">
<style type="text/css">
	.st0{fill:#3A3A3A;}
</style>
<g>
	<path class="st0" d="M18.8,23.3C18.4,23.1,18,23,17.6,23c-0.6,0-1.2,0.2-1.7,0.6l0.3-0.4c0.1-0.1,0.1-0.3,0-0.4l-0.1-0.1
		c-0.1-0.1-0.3-0.2-0.4-0.3c-0.1-0.1-0.2-0.1-0.3-0.1l-2.2,0c-0.9,0-1.8,0-2.6,0c-0.5,0-0.9,0.2-1.2,0.5c0,0-6.8,6.7-8.1,8.1
		c-0.4,0.4-0.6,0.9-0.6,1.4c0,0.5,0.2,1,0.6,1.4c1.9,1.9,3.9,3.9,5.8,5.8C7.4,39.8,7.9,40,8.4,40c0.5,0,1.1-0.2,1.5-0.6l8.1-8.1
		c0.3-0.3,0.5-0.6,0.5-1c0.1-0.3,0.1-0.6,0.1-0.9c0,0,0,0,0,0c0,0,0,0,0,0c1.5-0.5,2.5-2.1,2.2-3.6C20.7,24.6,19.9,23.7,18.8,23.3z
		 M17,25.2L17,25.2c0.1,0.1,0.2,0.1,0.2,0.2c0,0,0.1,0.1,0.1,0.2c0,1.2,0,2.4,0,3.6l0,0.6c0,0.2-0.1,0.4-0.3,0.6
		c-1.6,1.6-3.2,3.2-4.8,4.8L9,38.5c-0.2,0.2-0.4,0.3-0.6,0.3c-0.2,0-0.4-0.1-0.6-0.3C7.7,38.3,2,32.7,2,32.7
		c-0.2-0.2-0.2-0.3-0.2-0.5c0-0.2,0.2-0.4,0.3-0.6L3,30.8c2.4-2.4,4.7-4.7,7.1-7.1c0.2-0.2,0.3-0.2,0.5-0.2c0.7,0,1.4,0,2.1,0
		c0.6,0,1.3,0,1.9,0h0.1c0.3,0,0.5,0,0.6,0.2l0,0l0,0l0,0c0,0,0.1,0,0.1,0c0,0,0,0,0,0c0,0,0,0,0,0c-0.1,0.1-0.3,0.2-0.4,0.4l0,0
		l0,0c-0.1,0-0.1-0.1-0.2-0.1c-0.1,0-0.2,0-0.2,0.1l-0.4,0.4c-0.1,0.1-0.1,0.1-0.1,0.2c0,0.1,0,0.2,0.1,0.2l1.5,1.5
		c0.1,0.1,0.1,0.1,0.2,0.1c0.1,0,0.2,0,0.2-0.1l0.5-0.5c0.1-0.1,0.1-0.1,0.1-0.2c0-0.1,0-0.2-0.1-0.2l-0.1-0.1
		c-0.2-0.2-0.3-0.3-0.5-0.5c0,0,0,0,0,0c0,0,0,0,0,0c0.3-0.4,0.8-0.7,1.3-0.8c0,0,0,0,0,0L17,24.8c-0.1,0.1-0.1,0.1-0.1,0.2
		C16.9,25.1,16.9,25.2,17,25.2z M19.3,27.5c-0.2,0.2-0.4,0.4-0.7,0.6v-0.5c0-0.8,0-1.6,0-2.4c0-0.1,0-0.2-0.1-0.3
		c-0.2-0.2-0.4-0.3-0.5-0.5l-0.1-0.1c0.6,0.1,1.2,0.4,1.5,0.9C19.8,25.9,19.8,26.9,19.3,27.5z"/>
	<rect x="6.3" y="30.1" transform="matrix(0.4962 -0.8682 0.8682 0.4962 -21.7055 24.1425)" class="st0" width="7.2" height="1.3"/>
	<path class="st0" d="M12.1,30.6c0,0-0.1,0-0.1,0c-0.5,0-0.9,0.2-1.2,0.5c-0.3,0.3-0.5,0.8-0.5,1.2c0,0.9,0.7,1.7,1.6,1.7
		c0.1,0,0.1,0,0.1,0c1,0,1.7-0.6,1.7-1.5C13.7,31.3,13.1,30.6,12.1,30.6z M12.4,32.5c0,0.2,0,0.2-0.2,0.2c-0.1,0-0.2,0-0.2,0
		c-0.1,0-0.2,0-0.3,0c-0.1,0-0.1,0-0.1-0.1c0-0.2,0-0.4,0-0.5c0-0.2,0-0.2,0.2-0.2l0.1,0l0.3,0c0.3,0,0.3,0,0.3,0.3l0,0.1
		C12.4,32.3,12.4,32.4,12.4,32.5z"/>
	<path class="st0" d="M8,30.9c0.5,0,0.9-0.2,1.2-0.5c0.3-0.3,0.5-0.8,0.4-1.3c-0.1-1-0.7-1.5-1.8-1.6l0,0c-0.4,0-0.9,0.2-1.2,0.5
		c-0.3,0.3-0.4,0.7-0.4,1.2c0,1,0.6,1.6,1.6,1.7C7.9,30.9,7.9,30.9,8,30.9z M7.5,29.5c0-0.2,0-0.3,0-0.6c0-0.1,0-0.1,0.1-0.1
		c0.1,0,0.2,0,0.4,0c0.1,0,0.1,0,0.2,0c0.2,0,0.2,0,0.2,0.2c0,0,0,0.1,0,0.2v0.2c0,0.3,0,0.3-0.3,0.3l-0.2,0c-0.1,0-0.1,0-0.2,0
		C7.6,29.6,7.6,29.6,7.5,29.5z"/>
	<path class="st0" d="M39.2,21l-8.7-9.7c-0.2-0.3-0.6-0.3-0.9-0.2c-0.3,0.1-0.5,0.4-0.5,0.8l0,3.7H10.8c-0.5,0-0.8,0.4-0.8,0.8
		l-0.1,3.2l-7.6-8.8L10,2l0,3.1c0,0.5,0.4,0.8,0.8,0.8l17.8,0.1c0,0,0,0,0,0c0.3,0,0.6-0.3,0.6-0.6c0-0.4-0.3-0.6-0.6-0.6L11.2,4.7
		l0-3.8c0-0.3-0.2-0.7-0.5-0.8C10.4-0.1,10,0,9.8,0.3l-8.7,9.8c-0.3,0.3-0.3,0.8,0,1.1l8.6,10c0.2,0.3,0.6,0.4,0.9,0.2
		c0.3-0.1,0.5-0.4,0.5-0.8l0.1-3.9h18.2c0.5,0,0.8-0.4,0.8-0.8l0-2.9l7.7,8.6l-7.8,9l0-3.3c0-0.2-0.1-0.4-0.2-0.6
		c-0.2-0.2-0.4-0.2-0.6-0.2h-7.8c-0.4,0-0.6,0.3-0.6,0.6s0.3,0.6,0.6,0.6h7.3l0,4c0,0.4,0.2,0.7,0.5,0.8c0.1,0,0.2,0.1,0.3,0.1
		c0.2,0,0.5-0.1,0.6-0.3l8.8-10.2C39.4,21.7,39.4,21.3,39.2,21z"/>
</g>
</svg>
