<?xml version="1.0" encoding="utf-8"?>
<!-- Generator: Adobe Illustrator 23.0.1, SVG Export Plug-In . SVG Version: 6.00 Build 0)  -->
<svg version="1.1" id="Layer_1" xmlns="http://www.w3.org/2000/svg" xmlns:xlink="http://www.w3.org/1999/xlink" x="0px" y="0px"
	 viewBox="0 0 40 40" style="enable-background:new 0 0 40 40;" xml:space="preserve">
<style type="text/css">
	.st0{fill:#3A3A3A;}
</style>
<g>
	<path class="st0" d="M38.2,18.7c0,0.4,0.1,0.7,0.5,0.8c0.1,0.1,0.3,0.1,0.4,0.1c0.4,0,0.9-0.4,0.9-0.9c0-3.8,0-7.6,0-11.4l0-1.4
		c0-0.1,0-0.3,0-0.4c-0.4-2.5-2.4-4.2-4.9-4.2H4.8c-2.2,0-4.1,1.5-4.7,3.6C0.1,5,0.1,5.1,0,5.3l0,0.1v20.2c0,0,0.1,0.1,0.1,0.2
		c0.5,2.3,2.4,4,4.8,4l15.5,0l0.1,0.3c0.3,1.8,0.9,3.3,2,4.7c1.1,1.4,2.4,2.4,4,3.1c1.2,0.5,2.4,0.8,3.7,0.8c0,0,0,0,0,0
		c0.4,0,0.9,0,1.3-0.1c4.6-0.6,8.4-4.8,8.5-9.4c0.1-4.9-3.4-9.1-8.4-10c-0.5-0.1-1-0.1-1.5-0.1c-1.6,0-3.1,0.4-4.6,1.3
		c-2.8,1.6-4.5,4.1-5,7.3L20.4,28L8.2,28c-1.2,0-2.3,0-3.5,0c-1.5,0-2.5-0.7-2.8-1.9c-0.1-0.3-0.1-0.7-0.1-1.2c0-3.4,0-6.9,0-10.3
		l0-4.5c0-1.4,0-2.9,0-4.3c0-1.7,1.1-2.8,2.8-2.8c0.1,0,0.2,0,0.3,0l30.3,0c2,0,3,1,3,3c0,1.1,0,2.2,0,3.3l0,3.1
		C38.2,14.5,38.2,16.6,38.2,18.7z M30.2,20.9L30.2,20.9c4.7,0,8.1,3.4,8.1,8.1c0,4.6-3.5,8-8.1,8c-4.7,0-8-3.4-8-8.1
		C22.2,24.3,25.6,20.9,30.2,20.9z"/>
	<path class="st0" d="M9.8,21.4c0,1.9,1.6,3.5,3.6,3.5h0c0.9,0,1.8-0.4,2.5-1c0.7-0.7,1-1.6,1-2.5c0-2-1.6-3.6-3.5-3.6
		c-1,0-1.9,0.4-2.5,1.1C10.2,19.6,9.8,20.5,9.8,21.4z"/>
	<path class="st0" d="M8,17.8c-1,0-2,0.4-2.6,1.1c-1.3,1.3-1.4,3.3-0.3,4.7C5.8,24.4,6.8,25,7.9,25c0,0,0,0,0,0
		c0.4,0,0.9-0.1,1.3-0.3c-1.6-2.2-1.6-4.5,0-6.6C8.9,17.9,8.5,17.8,8,17.8z"/>
	<rect x="5.1" y="8.9" class="st0" width="4.2" height="1.7"/>
	<rect x="11.5" y="8.9" class="st0" width="4.3" height="1.7"/>
	<rect x="17.9" y="8.9" class="st0" width="4.3" height="1.7"/>
	<rect x="24.2" y="8.9" class="st0" width="4.2" height="1.7"/>
	<path class="st0" d="M29,30.8c0.8,0,1.7,0,2.5,0c0.9,0,1.8,0,2.7,0c0.4,0,0.6-0.2,0.8-0.5c0.1-0.3,0.1-0.6-0.1-0.8
		c-0.2-0.3-0.5-0.4-0.8-0.4c-0.5,0-1,0-1.5,0L30,29l0-1.6c0-0.9,0-1.8,0-2.6c0-0.5-0.4-0.9-0.9-0.9c-0.5,0-0.9,0.4-0.9,0.9
		c0,1.7,0,3.4,0,5.1C28.2,30.4,28.6,30.8,29,30.8z"/>
</g>
</svg>
