<?xml version="1.0" encoding="utf-8"?>
<!-- Generator: Adobe Illustrator 23.0.1, SVG Export Plug-In . SVG Version: 6.00 Build 0)  -->
<svg version="1.1" id="Layer_1" xmlns="http://www.w3.org/2000/svg" xmlns:xlink="http://www.w3.org/1999/xlink" x="0px" y="0px"
	 viewBox="0 0 40 40" style="enable-background:new 0 0 40 40;" xml:space="preserve">
<style type="text/css">
	.st0{fill:#3A3A3A;}
</style>
<g>
	<path class="st0" d="M38.9,29.9c-0.7-0.7-1.6-1.1-2.6-1.1c-0.6,0-1.2,0.1-1.7,0.4l-6.9-6.9c-0.2-0.2-0.5-0.3-0.7-0.3
		c-0.3,0-0.5,0.1-0.7,0.3c-0.2,0.2-0.3,0.5-0.3,0.7c0,0.3,0.1,0.5,0.3,0.7l6.9,6.9c-0.7,1.4-0.5,3.1,0.6,4.3
		c0.7,0.7,1.6,1.1,2.6,1.1c1,0,1.9-0.4,2.6-1.1c0.7-0.7,1.1-1.6,1.1-2.6C40,31.5,39.6,30.6,38.9,29.9z M37.5,33.6
		c-0.3,0.3-0.7,0.5-1.1,0.5c-0.4,0-0.8-0.2-1.1-0.5s-0.5-0.7-0.5-1.1c0-0.4,0.2-0.8,0.5-1.1c0.3-0.3,0.7-0.4,1.1-0.4
		c0.4,0,0.8,0.2,1.1,0.4c0.3,0.3,0.5,0.7,0.5,1.1C37.9,32.9,37.8,33.3,37.5,33.6z"/>
	<path class="st0" d="M13,22.1c-0.3,0-0.5,0.1-0.7,0.3l-6.9,6.9c-0.5-0.3-1.1-0.4-1.7-0.4c-1,0-1.9,0.4-2.6,1.1
		C0.4,30.6,0,31.5,0,32.5c0,1,0.4,1.9,1.1,2.6c0.7,0.7,1.6,1.1,2.6,1.1s1.9-0.4,2.6-1.1c1.1-1.1,1.4-2.9,0.6-4.3l6.9-6.9
		c0.2-0.2,0.3-0.5,0.3-0.7c0-0.3-0.1-0.5-0.3-0.7C13.5,22.2,13.3,22.1,13,22.1z M2.1,32.5c0-0.4,0.2-0.8,0.5-1.1
		C2.8,31.1,3.2,31,3.6,31s0.8,0.2,1.1,0.4c0.3,0.3,0.5,0.7,0.5,1.1c0,0.4-0.2,0.8-0.5,1.1S4,34,3.6,34s-0.8-0.2-1.1-0.5
		S2.1,32.9,2.1,32.5z"/>
	<path class="st0" d="M21,32.9v-9.8c0-0.6-0.5-1-1-1s-1,0.5-1,1v9.8c-1.5,0.5-2.6,1.9-2.6,3.5c0,2,1.6,3.6,3.6,3.6
		c2,0,3.6-1.6,3.6-3.6C23.6,34.8,22.6,33.4,21,32.9z M20,37.9c-0.8,0-1.5-0.7-1.5-1.5c0-0.8,0.7-1.5,1.5-1.5s1.5,0.7,1.5,1.5
		C21.5,37.2,20.8,37.9,20,37.9z"/>
	<path class="st0" d="M13,17.6c0.2,0,0.3,0,0.5,0h13.1c0.2,0,0.3,0,0.5,0c1.2-0.3,2.1-1.5,1.8-2.7c-0.6-3-2.7-5.4-5.5-6.5
		c1.8-1.7,2.1-4.4,0.6-6.4C23,0.7,21.5,0,20,0c-1.5,0-2.9,0.7-3.9,1.9c-1.5,2-1.2,4.8,0.6,6.4c-2.8,1.1-4.9,3.6-5.5,6.5
		C10.9,16.1,11.7,17.4,13,17.6z M19.8,9.7c0,0,0.1,0,0.2,0c0,0,0.2,0,0.2,0c3.3,0.1,6.1,2.4,6.7,5.6c0,0.1,0,0.2-0.1,0.3
		c-0.1,0.1-0.1,0.2-0.3,0.2c0,0-0.1,0-0.1,0H13.5c0,0-0.1,0-0.1,0c-0.1,0-0.2-0.1-0.3-0.2c-0.1-0.1-0.1-0.2-0.1-0.3
		C13.8,12.1,16.5,9.7,19.8,9.7z M20,1.9c1.5,0,2.8,1.2,2.9,2.8c0.1,1.6-1.2,3-2.7,3.1l-0.3,0c-1.6-0.1-2.8-1.5-2.8-3.1
		C17.2,3.1,18.4,1.9,20,1.9C20,1.9,20,1.9,20,1.9l0-0.4l0,0L20,1.9z"/>
</g>
</svg>
