<?xml version="1.0" encoding="utf-8"?>
<!-- Generator: Adobe Illustrator 23.0.1, SVG Export Plug-In . SVG Version: 6.00 Build 0)  -->
<svg version="1.1" id="Layer_1" xmlns="http://www.w3.org/2000/svg" xmlns:xlink="http://www.w3.org/1999/xlink" x="0px" y="0px"
	 viewBox="0 0 40 40" style="enable-background:new 0 0 40 40;" xml:space="preserve">
<style type="text/css">
	.st0{fill:#3A3A3A;}
</style>
<g>
	<path class="st0" d="M29.7,0H10.3C9,0,7.9,1.1,7.9,2.3v35.3c0,1.3,1.1,2.3,2.3,2.3h19.5c1.3,0,2.3-1.1,2.3-2.3V2.3
		C32.1,1.1,31,0,29.7,0z M30.6,37.7c0,0.5-0.4,0.9-0.9,0.9H10.3c-0.5,0-0.9-0.4-0.9-0.9V2.3c0-0.5,0.4-0.9,0.9-0.9h19.5
		c0.5,0,0.9,0.4,0.9,0.9V37.7z"/>
	<path class="st0" d="M10.5,32.6h18.9V4.8H10.5V32.6z M12,6.3h16v24.8H12V6.3z"/>
	<path class="st0" d="M18.6,3.9h2.9c0.4,0,0.7-0.3,0.7-0.7s-0.3-0.7-0.7-0.7h-2.9c-0.4,0-0.7,0.3-0.7,0.7S18.2,3.9,18.6,3.9z"/>
	<path class="st0" d="M23.9,20.6h-7.7c-0.4,0-0.7,0.3-0.7,0.7c0,0.4,0.3,0.7,0.7,0.7h7.7c0.4,0,0.7-0.3,0.7-0.7
		C24.6,20.9,24.3,20.6,23.9,20.6z"/>
	<path class="st0" d="M22.7,23h-5.3c-0.4,0-0.7,0.3-0.7,0.7s0.3,0.7,0.7,0.7h5.3c0.4,0,0.7-0.3,0.7-0.7S23.1,23,22.7,23z"/>
	<path class="st0" d="M11.2,3.9c0.4,0,0.8-0.3,0.8-0.8c0-0.4-0.3-0.8-0.8-0.8c-0.4,0-0.8,0.3-0.8,0.8C10.4,3.6,10.8,3.9,11.2,3.9z"
		/>
	<path class="st0" d="M20,33.3c-1.2,0-2.1,1-2.1,2.1s1,2.1,2.1,2.1c1.2,0,2.1-1,2.1-2.1S21.1,33.3,20,33.3z M20,36.1
		c-0.4,0-0.6-0.3-0.6-0.6c0-0.4,0.3-0.6,0.6-0.6c0.4,0,0.6,0.3,0.6,0.6C20.6,35.8,20.3,36.1,20,36.1z"/>
	<path class="st0" d="M20,9.8c-2.6,0-4.6,2.1-4.6,4.6c0,2.6,2.1,4.6,4.6,4.6c2.6,0,4.6-2.1,4.6-4.6C24.6,11.8,22.6,9.8,20,9.8z
		 M20,17.5c-1.7,0-3.2-1.4-3.2-3.2s1.4-3.2,3.2-3.2s3.2,1.4,3.2,3.2S21.7,17.5,20,17.5z"/>
</g>
</svg>
