<?xml version="1.0" encoding="utf-8"?>
<!-- Generator: Adobe Illustrator 23.0.1, SVG Export Plug-In . SVG Version: 6.00 Build 0)  -->
<svg version="1.1" id="Layer_1" xmlns="http://www.w3.org/2000/svg" xmlns:xlink="http://www.w3.org/1999/xlink" x="0px" y="0px"
	 viewBox="0 0 40 40" style="enable-background:new 0 0 40 40;" xml:space="preserve">
<style type="text/css">
	.st0{fill:#3A3A3A;}
</style>
<g>
	<path class="st0" d="M30.4,25.3c-0.6,0-1.1,0.1-1.7,0.3c-2.6,0.9-4,3.8-3.1,6.4c0.7,2,2.6,3.4,4.8,3.4c0.6,0,1.1-0.1,1.7-0.3
		c1.3-0.4,2.3-1.4,2.9-2.6v0c0.6-1.2,0.7-2.6,0.2-3.9C34.4,26.7,32.5,25.3,30.4,25.3z M33.8,32L33.8,32c-0.4,0.9-1.2,1.6-2.2,2
		c-0.4,0.1-0.8,0.2-1.3,0.2c-1.6,0-3.1-1-3.6-2.6c-0.7-2,0.4-4.2,2.4-4.9c0.4-0.1,0.8-0.2,1.3-0.2c1.6,0,3.1,1,3.6,2.6
		C34.3,30.1,34.3,31.1,33.8,32z"/>
	<path class="st0" d="M40,28l-0.6-1.8c-0.1-0.3-0.4-0.5-0.7-0.5L37,26.1c-0.4-0.7-1-1.3-1.7-1.9l0.6-1.5c0.1-0.3,0-0.7-0.3-0.9
		l-1.7-0.8c-0.3-0.1-0.7,0-0.9,0.3l-0.8,1.4c-0.8-0.2-1.7-0.2-2.5-0.1l-0.7-1.5c-0.1-0.2-0.4-0.4-0.6-0.4c-0.1,0-0.2,0-0.2,0
		l-1.8,0.6c-0.3,0.1-0.5,0.5-0.4,0.8l0.4,1.6c-0.7,0.5-1.3,1-1.8,1.6l-1.6-0.6c-0.3-0.1-0.7,0-0.9,0.3L21.1,27
		c-0.2,0.3,0,0.7,0.3,0.9l1.5,0.9c-0.2,0.8-0.2,1.6-0.1,2.4l-1.6,0.7c-0.3,0.1-0.5,0.5-0.4,0.8l0.6,1.8c0.1,0.3,0.4,0.5,0.7,0.5
		l1.9-0.4c0.4,0.6,0.9,1.2,1.5,1.7l-0.6,1.7c-0.1,0.3,0,0.7,0.3,0.9l1.7,0.8c0.3,0.1,0.7,0,0.9-0.3l0.9-1.5c0.8,0.2,1.5,0.2,2.3,0.1
		l0.7,1.6c0.1,0.2,0.4,0.4,0.6,0.4c0.1,0,0.2,0,0.2,0l1.8-0.6c0.3-0.1,0.5-0.5,0.4-0.8l-0.4-1.7c0.7-0.4,1.3-1,1.8-1.6l1.6,0.6
		c0.3,0.1,0.7,0,0.9-0.3l0.8-1.7c0.2-0.3,0-0.7-0.3-0.9L38,32c0.2-0.8,0.2-1.6,0.2-2.4l1.5-0.7C39.9,28.7,40.1,28.4,40,28z
		 M36.8,28.8l0.1,0.6c0.1,0.8,0,1.7-0.2,2.5l-0.2,0.6l1.8,1.1l-0.4,0.9l-1.4-0.5L36,33.8l-0.4,0.5c-0.5,0.7-1.1,1.2-1.8,1.6
		l-0.6,0.3l0.2,0.7l0.3,1.4l-0.9,0.3l-0.6-1.3l-0.2-0.7l-0.7,0.1c-0.8,0.1-1.6,0-2.4-0.2l-0.7-0.2l-0.3,0.7l-0.8,1.2l-0.9-0.4
		l0.5-1.4l0.3-0.7l-0.5-0.4c-0.6-0.5-1.2-1.1-1.6-1.8l-0.4-0.6l-0.7,0.2l-1.4,0.3l-0.3-0.9l1.3-0.6l0.7-0.2l-0.1-0.7
		c-0.1-0.8-0.1-1.6,0.1-2.4l0.2-0.7l-0.6-0.3l-1.3-0.8l0.4-0.9l2,0.7l0.4-0.5c0.5-0.7,1.1-1.3,1.9-1.7l0.5-0.3l-0.5-2l0.9-0.3
		l0.8,1.8l0.6-0.1c0.9-0.1,1.7-0.1,2.6,0.1l0.6,0.2l1-1.7l0.9,0.4l-0.7,1.9l0.5,0.4c0.7,0.5,1.3,1.2,1.7,1.9l0.3,0.5l2-0.5l0.3,0.9
		L36.8,28.8z"/>
	<rect x="11.3" y="15.7" transform="matrix(0.4957 -0.8685 0.8685 0.4957 -5.2966 24.315)" class="st0" width="13.9" height="2.1"/>
	<path class="st0" d="M22,22.8C22,22.8,22,22.8,22,22.8c0.1,0,0.2,0,0.3,0c1.9,0,3.1-1.2,3.1-2.8c0-2.1-1-3.3-2.9-3.4
		c-0.1,0-0.1,0-0.2,0c-0.9,0-1.7,0.3-2.2,0.9c-0.6,0.6-0.9,1.4-0.9,2.3C19.2,21.4,20.5,22.8,22,22.8z M21.3,19.2
		c0-0.5,0.2-0.6,0.7-0.6c0,0,0.1,0,0.1,0l0.6,0c0.6,0,0.8,0.2,0.8,0.8l0,0.2c0,0.2,0,0.4,0,0.6c0,0.4-0.2,0.6-0.6,0.6
		c-0.2,0-0.3,0-0.5,0c-0.2,0-0.4,0-0.6,0c-0.3,0-0.4-0.2-0.5-0.5C21.3,19.8,21.3,19.5,21.3,19.2z"/>
	<path class="st0" d="M16.7,15.9c0.6-0.6,0.9-1.5,0.8-2.4c-0.1-1.8-1.3-2.9-3.3-2.9l-0.1,0c-0.8,0-1.6,0.4-2.2,1
		c-0.5,0.6-0.8,1.4-0.7,2.1c0,1.8,1.1,3,2.9,3.1c0.1,0,0.1,0,0.2,0C15.3,16.8,16.1,16.5,16.7,15.9z M13.9,14.7
		c-0.4,0-0.6-0.2-0.6-0.6c0-0.3,0-0.7,0-1.1c0-0.3,0.2-0.4,0.4-0.4c0.2,0,0.5,0,0.7,0c0.1,0,0.2,0,0.4,0c0.4,0,0.6,0.2,0.6,0.6
		c0,0.1,0,0.2,0,0.3l0,0.4c0,0.6-0.2,0.8-0.8,0.8l-0.4,0C14.1,14.7,14,14.7,13.9,14.7z"/>
	<polygon class="st0" points="28,23.7 28,23.7 28,23.7 	"/>
	<path class="st0" d="M21.9,29.2l-1.1-0.7c-0.1-0.1-0.2-0.2-0.3-0.3l-4,4c-0.4,0.4-0.8,0.6-1.2,0.6c-0.4,0-0.8-0.2-1.3-0.6
		c-0.5-0.5-1-1-1.4-1.4L2.4,20.7c-0.4-0.4-0.5-0.7-0.5-1.2c0-0.5,0.4-0.9,0.7-1.2l1.7-1.7c4.7-4.7,9.4-9.3,14.1-14
		C18.8,2.2,19.2,2,19.7,2h0c1.4,0,2.8,0,4.2,0c1.3,0,2.6,0,3.9,0l0.1,0c0.6,0,1,0.1,1.4,0.5l0.1,0.1l0.1,0c0,0,0.1,0,0.1,0
		c0.1,0,0.2-0.1,0.3-0.1l0.8-1c0.1-0.2,0.1-0.4,0-0.5l-0.2-0.2c-0.3-0.2-0.5-0.5-0.8-0.7C29.4,0,29.2,0,29.1,0l-4.4,0
		c-1.8,0-3.5,0-5.3,0c-0.9,0-1.6,0.3-2.2,0.9l-6.4,6.4c-3.2,3.2-6.4,6.4-9.7,9.6C0.4,17.6,0,18.6,0,19.6c0,1,0.4,1.9,1.1,2.6
		c3.8,3.8,7.7,7.7,11.5,11.5c0.7,0.7,1.7,1.1,2.7,1.1c0,0,0,0,0,0c1,0,2-0.4,2.7-1.1l3.9-3.9C21.9,29.6,21.9,29.4,21.9,29.2z"/>
	<path class="st0" d="M28.8,3.8L28.6,4l-0.2-0.2c-0.1-0.1-0.2-0.1-0.2-0.1c-0.1,0-0.2,0-0.3,0.1L27,4.7c-0.1,0.1-0.1,0.2-0.1,0.3
		c0,0.1,0,0.2,0.1,0.3l3,3c0.1,0.1,0.2,0.1,0.3,0.1c0.1,0,0.2,0,0.3-0.1l0.9-0.9c0.1-0.1,0.1-0.2,0.1-0.3c0-0.1,0-0.2-0.1-0.3
		l-0.3-0.3c-0.3-0.3-0.6-0.6-0.9-0.9c-0.2-0.1-0.2-0.2,0-0.4c0.7-0.9,1.6-1.4,2.7-1.6c0.2,0,0.4,0,0.6,0c1.5,0,2.9,0.8,3.6,2
		c0.9,1.5,0.8,3.5-0.2,4.8c-0.5,0.6-1,1-1.7,1.4l0-1.4c0-1.6,0-3.1,0-4.7c0-0.2,0-0.4-0.1-0.5c-0.3-0.3-0.7-0.6-1.1-1L33.8,4
		c-0.1-0.1-0.2-0.1-0.2-0.1c-0.1,0-0.2,0-0.3,0.1l-0.9,1c-0.1,0.1-0.1,0.2-0.1,0.3c0,0.1,0.1,0.2,0.1,0.3l0.1,0.1
		c0.1,0.1,0.3,0.2,0.4,0.3c0.1,0.1,0.3,0.3,0.3,0.5c0,2.4,0,4.8,0,7.2l0,1.3c0,0.5-0.2,1-0.6,1.4c-1.3,1.3-2.3,2.3-3.6,3.6
		c0.3,0.1,0.6,0.4,0.8,0.7l0.4,1c1.4-1.4,2.4-2.4,3.8-3.8c0.5-0.5,0.9-1.1,1-1.8c0.1-0.6,0.1-1.2,0.2-1.7c0-0.2,0-0.3,0.2-0.3
		c2.8-0.9,4.8-4,4.3-6.9c-0.4-2.4-1.8-4.1-4.1-5c-0.7-0.3-1.5-0.4-2.2-0.4c-1.3,0-2.7,0.5-3.9,1.5C29.3,3.3,29,3.5,28.8,3.8z"/>
</g>
</svg>
