<?xml version="1.0" encoding="utf-8"?>
<!-- Generator: Adobe Illustrator 19.2.0, SVG Export Plug-In . SVG Version: 6.00 Build 0)  -->
<svg version="1.1" id="Layer_1" xmlns="http://www.w3.org/2000/svg" xmlns:xlink="http://www.w3.org/1999/xlink" x="0px" y="0px"
	 viewBox="0 0 40 40" style="enable-background:new 0 0 40 40;" xml:space="preserve">
<style type="text/css">
	.st0{fill:#F59B43;}
</style>
<g>
	<g>
		<g>
			<path class="st0" d="M14.4,6.4c1.4,0.2,2.9,0.2,4.1,0.2c0.4,0,0.8,0,1.2,0c0.6,0,1.2,0,1.9,0l0.1,0c0.2,0,0.3,0,0.5,0
				c0.2,0,0.4,0,0.6,0c-0.4,0.1-0.8,0.2-1.3,0.2c-0.8,0.2-1.7,0.3-2.3,0.5l-0.1,0c-1.2,0.3-3,0.7-3.6,2.1c-0.2,0.5-0.2,1.1,0,1.6
				c0.3,0.5,0.8,0.9,1.4,1c0.2,0,0.4,0.1,0.7,0.1c0.4,0,0.8,0,1.1-0.1c1.9-0.4,1.9,0.1,1.9,0.2c0,0.3-0.6,0.9-0.9,1.1
				c-0.1,0.1-0.1,0.1-0.1,0.1c-0.1,0.1-0.2,0.1-0.2,0.2c-0.5,0.5-1.3,1.2-1.2,1.9c0,0.1,0.1,0.2,0.2,0.2c0,0,0,0,0,0
				c0.1,0,0.2-0.1,0.2-0.2c0-0.3,0.3-0.6,0.6-0.8c0.3-0.2,0.5-0.4,0.8-0.6c0.1-0.1,0.2-0.2,0.3-0.2l0,0c0.5-0.4,1.3-1,1.4-1.7
				c0-0.3,0-0.6-0.2-0.8c-0.5-0.7-1.5-0.8-2.3-0.8l-0.1,0c-0.1,0-0.3,0-0.4,0c-0.2,0-0.3,0-0.5,0c-0.3,0-0.5,0-0.7,0
				c-0.4-0.1-0.5-0.3-0.4-0.4c0.3-0.5,1.7-0.9,4.1-1.2c0.1,0,0.2,0,0.3,0c0.2,0,0.3,0,0.5-0.1c0.9-0.1,1.8-0.3,2.7-0.5
				c1.6-0.5,1.8-1.3,1.8-1.9c0,0,0,0,0,0l0,0l0,0c0,0,0,0,0,0c0,0,0,0,0,0v0c0,0,0,0,0,0c0,0,0,0,0,0c0,0,0,0,0,0
				c-0.1-0.6-0.5-1.2-1.2-1.4c-1-0.4-2.1-0.4-3.1-0.4l-0.3,0c-0.9,0-1.8,0-2.6,0c-0.7,0-1.5,0-2.3,0c-0.8,0-1.4,0-2-0.1
				c-0.5,0-1-0.1-1.6-0.2c-0.4-0.1-1-0.2-1.3-0.5c-0.3-0.3,0-0.8,0.2-1.1c0.6-0.8,1.7-1.2,2.7-1.4C15.8,1.1,16.8,1,18,0.9
				c0.8,0,1.6,0,2.3,0.1c0,0,0,0,0,0c0,0,0,0,0,0c0.1,0,0.2-0.1,0.2-0.2c0-0.1-0.1-0.2-0.1-0.2C19,0.2,17.5,0,16,0
				c-0.4,0-0.9,0-1.3,0.1c-1.7,0.2-3.8,0.8-4.5,2.8C10,3.5,10,4.1,10.3,4.6C11,5.7,12.9,6.2,14.4,6.4z M32.9,20h-2.1v-2.5
				c0-0.6-0.4-1.1-1-1.1h-26c-0.5,0-1,0.5-1,1.1v10C2.9,34.4,7.6,40,13.4,40h6.8c3.2,0,6.1-1.7,8-4.4l4.9-2.9c2.5-1.5,4-4.4,4-7.7
				C37.1,22.3,35.2,20,32.9,20z M28.8,27.5c0,5.6-3.9,10.2-8.6,10.2h-6.8c-4.7,0-8.6-4.6-8.6-10.2v-0.1h24V27.5z M28.8,25.1h-24V24
				h24V25.1z M28.8,21.7h-24v-3.1h24V21.7z M32.3,30.7L30.1,32c0.4-1.4,0.7-2.9,0.7-4.5v-5.2h2.1c1.3,0,2.3,1.2,2.3,2.7
				C35.2,27.4,34.1,29.6,32.3,30.7z"/>
		</g>
	</g>
</g>
</svg>
