<?xml version="1.0" encoding="utf-8"?>
<!-- Generator: Adobe Illustrator 22.1.0, SVG Export Plug-In . SVG Version: 6.00 Build 0)  -->
<svg version="1.1" id="Capa_1" xmlns="http://www.w3.org/2000/svg" xmlns:xlink="http://www.w3.org/1999/xlink" x="0px" y="0px"
	 viewBox="0 0 478.7 478.7" style="enable-background:new 0 0 478.7 478.7;" xml:space="preserve">
<style type="text/css">
	.st0{fill:#686868;}
</style>
<g>
	<path class="st0" d="M239.3,210.8c-33.8,0-61.2-27.5-61.2-61.2s27.5-61.2,61.2-61.2s61.2,27.5,61.2,61.2S273,210.8,239.3,210.8z
		 M239.3,109.2c-22.3,0-40.4,18.1-40.4,40.4S217,190,239.3,190s40.4-18.1,40.4-40.4S261.6,109.2,239.3,109.2z"/>
	<path class="st0" d="M227.3,278.4c-9.6,0-17.7-6.8-19.2-16.3l-2.9-17.4c-5.3-1.7-10.4-3.8-15.2-6.2l-14.5,10.3
		c-3.3,2.4-7.2,3.6-11.3,3.6c-5.2,0-10.1-2-13.8-5.7l-16.9-16.9c-6.8-6.7-7.7-17.3-2.1-25.1l10.2-14.1c-2.6-5.1-4.9-10.4-6.6-15.7
		l-17.6-3c-9.4-1.6-16.3-9.7-16.3-19.2v-23.8c0-9.6,6.8-17.7,16.3-19.2l17.1-2.9c1.7-5.5,3.9-10.8,6.4-15.8l-10.4-14.5
		c-5.5-7.8-4.6-18.3,2.1-25.1l16.9-16.9c3.6-3.7,8.5-5.7,13.8-5.7c4.1,0,8,1.3,11.3,3.6l14.2,10.2c5.1-2.6,10.4-4.9,15.7-6.6l3-17.6
		C209.2,8.8,217.3,2,226.8,2h23.8c9.6,0,17.7,6.8,19.2,16.3l2.9,17.1c5.6,1.8,11.1,4.1,16.5,6.8l14.4-10.2c3.3-2.4,7.2-3.6,11.3-3.6
		c5.2,0,10.1,2,13.8,5.7l16.9,16.9c6.8,6.7,7.7,17.3,2.1,25.1l-10.2,14.3c2.6,5,4.8,10.4,6.5,15.8l17.4,2.9
		c9.5,1.6,16.3,9.7,16.2,19.3v23.8c0,9.6-6.8,17.7-16.3,19.2l-17.3,2.9c-1.7,5.2-3.9,10.5-6.6,15.8l10.2,14.4
		c5.6,7.8,4.7,18.3-2.1,25.1l-16.9,16.9c-3.7,3.7-8.6,5.7-13.8,5.7c-4.1,0-8.1-1.3-11.3-3.6l-14.3-10.2c-5,2.6-10.3,4.8-15.8,6.5
		l-3,17.4c-1.6,9.4-9.7,16.3-19.2,16.3H227.3z M189.3,216.1c1.8,0,3.6,0.5,5.2,1.4c7.2,4.1,14.7,7.2,22.5,9.2c3.9,1,6.9,4.3,7.6,8.3
		l3.8,22.8l21.7,0L254,235c0.6-4,3.6-7.3,7.7-8.3c8.1-2.1,15.9-5.3,23-9.5c1.6-1,3.4-1.5,5.3-1.5c2.2,0,4.3,0.7,6,1.9l18.8,13.4
		l15.4-15.4l-13.4-18.8c-2.4-3.3-2.5-7.8-0.5-11.3c4.2-7.1,7.5-14.8,9.6-23c1-3.9,4.3-6.9,8.3-7.6l22.8-3.8v-21.7l-22.7-3.8
		c-4-0.6-7.3-3.6-8.3-7.6c-2.1-8.1-5.3-15.9-9.5-23c-2.1-3.6-1.9-8,0.5-11.3l13.4-18.8l-15.4-15.4l-18.6,13.4
		c-1.8,1.3-3.9,1.9-6,1.9c-1.8,0-3.7-0.5-5.3-1.4c-7.3-4.3-15.3-7.6-23.6-9.7c-4-1-7-4.3-7.7-8.4l-3.8-22.6L228,22.7l-3.8,22.9
		c-0.7,4-3.7,7.2-7.6,8.3c-8,2.1-15.7,5.3-23,9.7c-1.6,1-3.5,1.5-5.3,1.5c-2.2,0-4.3-0.7-6-1.9l-18.7-13.3l-15.4,15.4l13.5,18.9
		c2.4,3.3,2.6,7.7,0.5,11.3c-4.1,7-7.3,14.8-9.4,23.1c-1,4-4.3,7-8.4,7.7l-22.6,3.8l0.1,21.7l22.9,3.8c4,0.7,7.2,3.7,8.3,7.6
		c2.1,8,5.3,15.7,9.7,23c2.1,3.6,1.9,8-0.5,11.4l-13.3,18.7l15.4,15.4l18.9-13.5C184.9,216.8,187.1,216.1,189.3,216.1z"/>
	<path class="st0" d="M42.6,476.7c-14.8,0-24.1-5.7-30.3-18.4L12,379.9c6.6-16.3,18.7-19.5,35-19.5c3.6,0,7.2,0.2,10.4,0.3l3.1,0.2
		l0-17.8c0-10.3,0-19.8,0-29.3c0.2-24.8,12.7-37.5,37.2-37.7c15.7-0.1,31.3-0.2,47-0.2l84.2,0.1v-6.9l21.3,0v6.9l95.6-0.1
		c11.7,0,23.4,0,35.1,0.2c24.6,0.2,37.1,12.9,37.3,37.7c0.1,8,0.1,16,0,24.3l0,22.2h8.3c18.4,0,33,1.4,40,18.9l0.2,78.2
		c-7.4,13.8-14.8,19-25.9,19l-13.1,0l-29.7,0.1c-8.4,0-15.2-0.1-21.4-0.2c-15.6-0.3-25.3-9.7-25.8-25.1c-0.8-21.7-0.8-43.6,0-65
		c0.6-15.5,10.4-24.7,27.1-25.3c2.1-0.1,4.2-0.1,6.3-0.1l13,0.1l0.9-4.9c0.4-1.8,0.6-2.8,0.6-3.9c0.1-11.5,0.1-23,0.1-34.5
		c-0.1-19.7-4.5-22.4-22-22.4l-43.2,0l-83.8,0v65.8l14.6-0.1c2.2,0,4.3,0,6.4,0.1c16.4,0.7,26.1,10.2,26.5,26
		c0.6,21.7,0.6,43.1,0,63.7c-0.4,15.5-10.2,25.3-25.5,25.6c-10.7,0.2-21.6,0.3-32.3,0.3c-10.9,0-21.9-0.1-32.8-0.3
		c-14.7-0.3-24.8-10.1-25.3-24.3c-0.7-21.1-0.7-43.4,0-66.3c0.5-14.4,10.1-23.9,25.1-24.7c2.1-0.1,4.4-0.2,7.2-0.2l14.9,0.1v-65.7
		l-60.3-0.1c-21.4,0-46.7,0.1-72.7,0.5c-5.5,0.1-14.4,6.9-14.9,12.6c-1,11.7-0.8,23.3-0.7,35.6c0.1,4.7,0.1,9.3,0.1,14v3l14.6-0.1
		c2.1,0,4,0,6,0.1c17.1,0.6,26.8,10,27.3,26.5c0.6,20.7,0.6,41.7,0,62.4c-0.5,17.2-10.4,26.4-28.4,26.6l-5.9,0
		c-3.9,0-23.8-0.2-28.2-0.2c-7.6,0-13.8,0.2-19.6,0.5C44.7,476.7,43.6,476.7,42.6,476.7z M266.1,457.2c3.1,0,6.9-0.3,9.4-2.9
		c1.9-1.9,2.8-4.7,2.7-8.6c-0.2-14.2-0.2-28.3-0.2-43.3l0-21.6h-77.5l0,17.5c0,17-0.1,33.1,0.4,49.7c0.1,4.2,7.3,8.7,11.3,8.8
		c8.9,0.3,17.9,0.3,25.5,0.3l17,0C254.8,457.2,266,457.2,266.1,457.2z M64.8,457.1c9.9,0,21.7,0,33.9-0.3c3.5-0.1,9.7-4.1,9.8-8
		c0.4-16.9,0.4-33.4,0.3-50.8l0-17.3H32v76.4L64.8,457.1z M414.4,379.9c-10.4,0-22.7,0.1-35.3,0.4c-4.3,0.1-9,7.4-9.1,11.2
		c-0.5,16.5-0.6,34.1-0.1,53.8c0.1,3.7,3.7,11.1,7.8,11.2c13.7,0.4,27.3,0.4,38.7,0.4l30.3,0v-77L414.4,379.9z"/>
</g>
</svg>
