<?xml version="1.0" encoding="iso-8859-1"?>
<!-- Generator: Adobe Illustrator 19.2.0, SVG Export Plug-In . SVG Version: 6.00 Build 0)  -->
<svg version="1.1" id="Layer_1" xmlns="http://www.w3.org/2000/svg" xmlns:xlink="http://www.w3.org/1999/xlink" x="0px" y="0px"
	 viewBox="0 0 40 40" style="enable-background:new 0 0 40 40;" xml:space="preserve">
<g>
	<g>
		<g>
			<path style="fill:#35C4FF;" d="M36.764,5.431c-0.007-2.645-1.779-4.768-4.389-5.306C32.159,0.08,31.941,0.042,31.724,0H8.271
				C8.016,0.051,7.76,0.099,7.506,0.153c-2.467,0.52-4.264,2.66-4.267,5.162c-0.012,9.79-0.012,19.58,0,29.37
				c0.004,2.675,2.074,4.932,4.733,5.238c0.101,0.012,0.2,0.051,0.299,0.077h23.454c0.216-0.042,0.433-0.082,0.649-0.126
				c2.625-0.538,4.387-2.667,4.391-5.342c0.008-5.247,0.003-10.495,0.003-15.742C36.768,14.337,36.776,9.884,36.764,5.431z
				 M33.795,32.759c-0.004,2.642-1.987,4.567-4.652,4.568c-6.162,0.003-12.325,0.003-18.487,0c-2.696-0.001-4.647-1.93-4.65-4.6
				c-0.004-3.982-0.001-8.621-0.001-12.604c0-3.996-0.007-8.813,0.003-12.809c0.005-2.213,1.415-3.968,3.554-4.439
				c0.373-0.082,0.765-0.11,1.148-0.111c6.149-0.007,12.297-0.008,18.446-0.003c2.659,0.002,4.636,1.941,4.64,4.584
				C33.806,15.324,33.808,24.781,33.795,32.759z M16.657,14.747c3.986,0.003,7.971,0.002,11.957,0c1.147,0,1.765-0.658,1.763-1.864
				c-0.002-1.132-0.642-1.777-1.767-1.778c-1.993-0.001-3.986-0.001-5.979-0.001c-1.993,0-3.986-0.001-5.979,0.001
				c-1.127,0.001-1.761,0.645-1.763,1.782C14.888,14.091,15.505,14.747,16.657,14.747z M16.655,21.866c1.993,0.001,3.986,0,5.979,0
				c1.94,0,3.882-0.042,5.821,0.015c1.204,0.035,1.996-0.741,1.934-1.912c-0.058-1.088-0.671-1.743-1.778-1.743
				c-3.986-0.002-7.972,0.007-11.958-0.007c-0.926-0.003-1.838,0.605-1.774,1.911C14.933,21.225,15.541,21.865,16.655,21.866z
				 M28.616,25.223c-1.992,0.012-3.985,0.004-5.977,0.004c-2.019,0-4.038,0.005-6.056-0.003c-0.516-0.002-0.964,0.142-1.294,0.537
				c-0.544,0.652-0.525,1.409-0.248,2.138c0.266,0.699,0.866,0.953,1.607,0.949c1.94-0.011,3.88-0.004,5.82-0.004
				c2.058,0,4.116-0.005,6.174,0.003c0.527,0.002,0.994-0.128,1.334-0.538c0.542-0.653,0.531-1.408,0.248-2.138
				C29.955,25.477,29.359,25.218,28.616,25.223z M11.473,17.974c-1.022,0.002-1.851,0.822-1.853,1.834
				c-0.001,1.016,0.819,1.832,1.847,1.837c1.052,0.005,1.875-0.812,1.864-1.851C13.321,18.771,12.505,17.971,11.473,17.974z
				 M11.499,25.191c-1.009-0.014-1.864,0.813-1.878,1.819c-0.015,1.021,0.834,1.877,1.86,1.878c1.019,0,1.846-0.822,1.851-1.84
				C13.337,26.029,12.524,25.206,11.499,25.191z M11.514,11.106c-1.027-0.02-1.892,0.823-1.893,1.842
				c-0.001,1.014,0.82,1.833,1.846,1.842c1.029,0.009,1.852-0.792,1.865-1.815C13.344,11.958,12.535,11.125,11.514,11.106z"/>
		</g>
	</g>
</g>
</svg>
