<?xml version="1.0" encoding="utf-8"?>
<!-- Generator: Adobe Illustrator 19.2.0, SVG Export Plug-In . SVG Version: 6.00 Build 0)  -->
<svg version="1.1" id="Layer_1" xmlns="http://www.w3.org/2000/svg" xmlns:xlink="http://www.w3.org/1999/xlink" x="0px" y="0px"
	 viewBox="0 0 40 40" style="enable-background:new 0 0 40 40;" xml:space="preserve">
<style type="text/css">
	.st0{fill:#4DC0EF;}
</style>
<g>
	<g>
		<path class="st0" d="M39.9,26.4c-0.5-2.6-2-4.6-4.2-6c-0.9-0.6-1.9-1-3-1.2c-0.3-0.1-0.5-0.3-0.5-0.6c0-2,0-4.1,0-6.1
			c0-0.2,0-0.4,0.1-0.6c0.1-0.4-0.1-0.7-0.4-1C30.9,10,29.9,9.2,29,8.3c-2.4-2.2-4.9-4.4-7.3-6.5c-0.5-0.4-0.9-0.8-1.4-1.2
			C20.2,0.4,20,0.2,19.8,0H3.9C2.9,0,0.1,0.5,0,3.7v32.5C0,38.5,2.5,40,3.9,40h23.9c1.8,0,3.1-1.3,3.8-2.4c0.1-0.2,0.2-0.3,0.3-0.5
			c0.1-0.2,0.2-0.2,0.3-0.2c2.5-0.4,4.6-1.7,6.1-3.7c0.8-1.1,1.4-2.3,1.6-3.6C40.1,28,39.9,26.5,39.9,26.4z M20.3,3.2
			c0-0.1,0-0.2,0.1-0.3c0.1,0,0.2,0.1,0.3,0.1c0.9,0.8,1.8,1.6,2.7,2.5c1.7,1.6,3.4,3.1,5.2,4.7c0.1,0.1,0.2,0.1,0.3,0.2
			c0,0,0.1,0.1,0.1,0.2c-0.1,0-0.1,0.1-0.2,0.1c-0.1,0-0.3,0-0.4,0c-1.2,0-2.4,0-3.7,0v0c-1.3,0-2.6,0-3.9,0c-0.4,0-0.4,0-0.4-0.4
			C20.3,7.9,20.3,5.5,20.3,3.2z M29.9,37.1c-0.4,0.5-0.9,0.9-1.5,1.1c-0.4,0.1-0.9,0.2-1.3,0.2c-7.4,0-14.7,0-22.1,0
			c-0.7,0-1.4-0.1-2-0.5c-0.8-0.5-1.2-1.3-1.3-2.3c0-0.2,0-0.5,0-0.7c0-4.9,0-9.9,0-14.8c0-5,0-10,0-15c0-0.4,0-0.8,0.1-1.3
			C2,3,2.5,2.4,3.3,2c0.5-0.2,1-0.3,1.5-0.3c4.4,0,8.9,0,13.3,0c0.3,0,0.4,0.1,0.4,0.4c0,3.1,0,6.1,0,9.2c0,0.4,0,0.8,0.5,1
			c0.1,0.1,0.3,0.1,0.5,0.1c1.8,0,3.6,0,5.4,0c1.7,0,3.5,0,5.2,0c0.4,0,0.4,0,0.4,0.4c0,1.9,0,3.8,0,5.7c0,0.4,0,0.4-0.4,0.5
			c-0.9,0-1.7,0.3-2.5,0.6c-1.6,0.6-3,1.6-4,2.9c-0.7,0.8-1.2,1.8-1.5,2.8c-0.4,1.3-0.5,2.6-0.3,4c0.2,1.3,0.7,2.5,1.5,3.6
			c0.8,1.1,1.7,2,2.9,2.7c0.8,0.5,1.7,0.9,2.6,1.1c0.4,0.1,0.8,0.1,1.2,0.2C30,36.9,30,37,29.9,37.1z M38.3,28.7
			c-0.1,0.9-0.3,1.7-0.7,2.5c-0.5,1-1.2,1.9-2.2,2.6c-1.5,1-2.9,1.4-4.9,1.4c-0.9,0-2-0.2-3-0.7c-1.5-0.7-2.7-1.8-3.5-3.3
			c-0.7-1.3-0.9-2.7-0.7-4.1c0.3-2.2,1.3-3.9,3-5.1c1.6-1.1,3.4-1.5,5.3-1.3c2.3,0.2,4.2,1.3,5.5,3.2C38.1,25.3,38.5,26.9,38.3,28.7
			z M7,16.8c-0.5,0.1-0.7,0.7-0.4,1.2c0.2,0.3,0.5,0.4,0.8,0.4c2.8,0,5.6,0,8.5,0c2.8,0,5.6,0,8.4,0c0.1,0,0.2,0,0.3,0
			c0.5,0,0.8-0.5,0.7-1c-0.1-0.5-0.4-0.7-1-0.7c-5.6,0-11.2,0-16.9,0C7.3,16.7,7.1,16.7,7,16.8z M20,21.5c-0.1,0-0.2,0-0.3,0
			c-4.1,0-8.2,0-12.2,0c-0.1,0-0.1,0-0.2,0c-0.4,0-0.6,0.2-0.8,0.5c-0.1,0.3-0.1,0.6,0.2,0.8c0.2,0.2,0.5,0.3,0.8,0.3
			c2.1,0,4.1,0,6.2,0c0.6,0,1.2,0,1.9,0c1.5,0,2.9,0,4.4,0c0.5,0,0.8-0.3,0.9-0.8C20.7,22,20.5,21.6,20,21.5z M19.8,31
			c-2.1,0-4.1,0-6.2,0c-2,0-4,0-6,0c-0.1,0-0.3,0-0.4,0c-0.6,0.1-0.9,0.8-0.6,1.3c0.2,0.3,0.5,0.4,0.9,0.4c4.1,0,8.1,0,12.2,0
			c0.1,0,0.2,0,0.3,0c0.5-0.1,0.8-0.5,0.7-1C20.6,31.2,20.3,31,19.8,31z M7.4,27.9c3.7,0,7.5,0,11.2,0c0.1,0,0.3,0,0.4,0
			c0.3,0,0.6-0.2,0.8-0.5c0.2-0.6-0.2-1.2-0.8-1.2c-2,0-3.9,0-5.9,0c-1.9,0-3.8,0-5.7,0c-0.1,0-0.2,0-0.3,0c-0.3,0-0.6,0.2-0.7,0.5
			c-0.1,0.3-0.1,0.5,0.1,0.8C6.8,27.8,7.1,27.9,7.4,27.9z M7.4,13.6c1.2,0,2.4,0,3.7,0c1,0,2.1,0,3.1,0c0.3,0,0.5,0,0.8,0
			c0.5,0,0.8-0.6,0.7-1c-0.1-0.4-0.4-0.6-0.9-0.6c-2.4,0-4.9,0-7.3,0c-0.1,0-0.2,0-0.3,0c-0.6,0.1-0.9,0.7-0.6,1.2
			C6.7,13.5,7,13.6,7.4,13.6z M7.4,8.9c1.7,0,3.4,0,5,0c0.8,0,1.6,0,2.4,0c0.2,0,0.4-0.1,0.6-0.2c0.3-0.2,0.4-0.6,0.3-0.9
			c-0.1-0.4-0.4-0.6-0.8-0.6c-1.3,0-2.5,0-3.8,0c-1.3,0-2.6,0-3.8,0c-0.4,0-0.6,0.2-0.8,0.5c-0.1,0.3,0,0.6,0.2,0.8
			C6.8,8.8,7.1,8.9,7.4,8.9z M34,27.1c-0.7,0-1.4,0-2.1,0c-0.3,0-0.3,0-0.3-0.3c0-0.4,0-0.7,0-1.1h0c0-0.2,0-0.4,0-0.6
			c0-0.2,0-0.4,0-0.6c0-0.4-0.4-0.7-0.8-0.8c-0.5,0-0.9,0.3-0.9,0.9c0,0.7,0,1.3,0,2c0,0.4-0.1,0.4-0.4,0.4c-0.7,0-1.3,0-2,0
			c-0.5,0-0.9,0.4-0.9,0.8c0,0.5,0.4,0.9,0.9,0.9c0.7,0,1.4,0,2.1,0c0.3,0,0.3,0.1,0.3,0.4c0,0.7,0,1.4,0,2c0,0.2,0.1,0.4,0.2,0.6
			c0.2,0.3,0.6,0.4,1,0.3c0.3-0.1,0.5-0.4,0.5-0.8c0-0.7,0-1.4,0-2.1c0-0.3,0-0.3,0.3-0.3c0.7,0,1.4,0,2.1,0c0.6,0,1-0.6,0.8-1.1
			C34.7,27.3,34.4,27.1,34,27.1z"/>
	</g>
</g>
</svg>
