<?xml version="1.0" encoding="utf-8"?>
<!-- Generator: Adobe Illustrator 19.2.0, SVG Export Plug-In . SVG Version: 6.00 Build 0)  -->
<svg version="1.1" id="Layer_1" xmlns="http://www.w3.org/2000/svg" xmlns:xlink="http://www.w3.org/1999/xlink" x="0px" y="0px"
	 viewBox="0 0 40 40" style="enable-background:new 0 0 40 40;" xml:space="preserve">
<style type="text/css">
	.st0{fill:#484D55;}
</style>
<g>
	<path class="st0" d="M34.1,5.9C30.4,2.1,25.3,0,20,0C14.6,0,9.6,2.1,5.8,5.9c-7.3,7.3-7.8,19-1.3,26.9c-0.6,1.3-1.7,2.8-3.2,3.6
		c-0.7,0.4-1.2,1.2-1,2c0.1,0.8,0.8,1.4,1.6,1.6C2.3,39.9,2.8,40,3.5,40c1.8,0,4.4-0.4,7-2.3c3,1.6,6.2,2.4,9.4,2.4
		c5.2,0,10.3-2,14.2-5.9C37.9,30.4,40,25.3,40,20C40,14.7,37.9,9.6,34.1,5.9z M32.5,32.5C26.8,38.2,18,39.4,11,35.3
		c-0.5-0.3-1-0.2-1.4,0.2c0,0-0.1,0-0.1,0.1c-2.3,1.8-4.5,2.1-6,2.1h0c1.7-1.3,2.8-3.1,3.4-4.6C7,32.9,7.1,32.6,7,32.4
		c0-0.2-0.1-0.5-0.3-0.6c-6.2-7-5.9-17.6,0.7-24.3c6.9-6.9,18.1-6.9,25.1,0C39.4,14.4,39.4,25.6,32.5,32.5z"/>
</g>
</svg>
