<?xml version="1.0" encoding="utf-8"?>
<!-- Generator: Adobe Illustrator 19.2.0, SVG Export Plug-In . SVG Version: 6.00 Build 0)  -->
<svg version="1.1" id="Layer_1" xmlns="http://www.w3.org/2000/svg" xmlns:xlink="http://www.w3.org/1999/xlink" x="0px" y="0px"
	 viewBox="0 0 100 100" style="enable-background:new 0 0 100 100;" xml:space="preserve">
<style type="text/css">
	.st0{fill:#F79646;}
	.st1{fill:#FFFFFF;}
</style>
<circle class="st0" cx="50" cy="50" r="50"/>
<g>
	<path class="st1" d="M55.3,29.8c-4.8,0-8.5,1.8-11.1,5.4c-2.6,3.6-3.9,8.6-3.9,15.1c0,13.4,5,20.1,15.1,20.1
		c4.2,0,9.3-1.1,15.3-3.2v10.7C65.7,80,60.2,81,54.1,81c-8.7,0-15.4-2.7-20.1-8c-4.6-5.3-6.9-12.9-6.9-22.8c0-6.2,1.1-11.7,3.4-16.4
		c2.3-4.7,5.5-8.3,9.8-10.8c4.3-2.5,9.3-3.8,15-3.8c5.8,0,11.7,1.4,17.6,4.2l-4.1,10.4c-2.2-1.1-4.5-2-6.8-2.8
		C59.7,30.2,57.5,29.8,55.3,29.8z"/>
</g>
</svg>
