<?xml version="1.0" encoding="utf-8"?>
<!-- Generator: Adobe Illustrator 19.2.0, SVG Export Plug-In . SVG Version: 6.00 Build 0)  -->
<svg version="1.1" id="Layer_1" xmlns="http://www.w3.org/2000/svg" xmlns:xlink="http://www.w3.org/1999/xlink" x="0px" y="0px"
	 viewBox="0 0 40 40" style="enable-background:new 0 0 40 40;" xml:space="preserve">
<style type="text/css">
	.st0{fill-rule:evenodd;clip-rule:evenodd;fill:#FD5969;}
	.st1{fill:#FFFFFF;}
</style>
<path class="st0" d="M8,0h24v40l-10.8-9.3L8,40V0z"/>
<g>
	<g>
		<g>
			<path class="st1" d="M21.1,6.9c-0.7-0.3-1.5-0.3-2.3,0C18.3,7.1,18,7.5,18,8.1c0,2.6,0,5.2,0,7.8c0,0.5,0.3,0.9,0.8,1.2
				c0.6,0.3,1.3,0.3,2,0.2c0.9-0.2,1.3-0.7,1.3-1.5c0-1.2,0-2.5,0-3.7c0-1.3,0-2.6,0-3.9C22,7.5,21.7,7.1,21.1,6.9z M20,19.2
				c-1.1,0-2,0.8-2,1.8c0,1,0.9,1.7,2,1.7c1.1,0,2-0.8,2-1.7C22,20,21.1,19.2,20,19.2z"/>
		</g>
	</g>
</g>
</svg>
