<?xml version="1.0" encoding="iso-8859-1"?>
<!-- Generator: Adobe Illustrator 19.2.0, SVG Export Plug-In . SVG Version: 6.00 Build 0)  -->
<svg version="1.1" id="Layer_1" xmlns="http://www.w3.org/2000/svg" xmlns:xlink="http://www.w3.org/1999/xlink" x="0px" y="0px"
	 viewBox="0 0 40 40" style="enable-background:new 0 0 40 40;" xml:space="preserve">
<g>
	<path style="fill:#3BCBDD;" d="M30.917,21.208V3.222H3.312v33.557H16.01c0.911,0,1.656,0.725,1.656,1.611
		c0,0.886-0.745,1.611-1.656,1.611H1.656C0.745,40,0,39.276,0,38.39V1.611C0,0.725,0.745,0,1.656,0h30.917
		c0.911,0,1.656,0.725,1.656,1.611v19.598c0,0.886-0.745,1.611-1.656,1.611C31.662,22.819,30.917,22.094,30.917,21.208z
		 M39.446,25.128c-0.69-0.591-1.739-0.537-2.346,0.134l-9.082,9.826l-4.555-4.269c-0.663-0.617-1.711-0.591-2.346,0.054
		c-0.635,0.644-0.607,1.665,0.055,2.282l5.797,5.423c0.303,0.295,0.718,0.456,1.159,0.456c0.028,0,0.028,0,0.055,0
		c0.441-0.027,0.883-0.215,1.159-0.537l10.214-11.06C40.191,26.738,40.136,25.718,39.446,25.128z M24.844,9.396H9.938
		c-0.911,0-1.656,0.725-1.656,1.611s0.745,1.611,1.656,1.611h14.906c0.911,0,1.656-0.725,1.656-1.611S25.755,9.396,24.844,9.396z
		 M26.5,19.866c0-0.886-0.745-1.611-1.656-1.611H9.938c-0.911,0-1.656,0.725-1.656,1.611c0,0.886,0.745,1.611,1.656,1.611h14.906
		C25.755,21.477,26.5,20.752,26.5,19.866z M9.938,26.846c-0.911,0-1.656,0.725-1.656,1.611c0,0.886,0.745,1.611,1.656,1.611h4.417
		c0.911,0,1.656-0.725,1.656-1.611c0-0.886-0.745-1.611-1.656-1.611H9.938z"/>
</g>
</svg>
