<?xml version="1.0" encoding="iso-8859-1"?>
<!-- Generator: Adobe Illustrator 19.2.0, SVG Export Plug-In . SVG Version: 6.00 Build 0)  -->
<svg version="1.1" id="Layer_1" xmlns="http://www.w3.org/2000/svg" xmlns:xlink="http://www.w3.org/1999/xlink" x="0px" y="0px"
	 viewBox="0 0 40 40" style="enable-background:new 0 0 40 40;" xml:space="preserve">
<g>
	<g>
		<g>
			<path style="fill:#3BCBDD;" d="M33.75,3.238h-5V1.949c0-0.773-0.5-1.289-1.25-1.289c-0.75,0-1.25,0.516-1.25,1.289v1.289h-12.5
				V1.949c0-0.773-0.5-1.289-1.25-1.289c-0.75,0-1.25,0.516-1.25,1.289v1.289h-5C2.75,3.238,0,6.075,0,9.685v23.209
				c0,3.61,2.75,6.447,6.25,6.447h27.5c3.5,0,6.25-2.836,6.25-6.447V9.685C40,6.075,37.25,3.238,33.75,3.238z M37.5,32.894
				c0,2.063-1.75,3.868-3.75,3.868H6.25c-2,0-3.75-1.805-3.75-3.868V16.132h35V32.894z M37.5,13.553h-35V9.685
				c0-2.063,1.75-3.868,3.75-3.868h5v1.289c0,0.774,0.5,1.289,1.25,1.289s1.25-0.516,1.25-1.289V5.817h12.5v1.289
				c0,0.774,0.5,1.289,1.25,1.289c0.75,0,1.25-0.516,1.25-1.289V5.817h5c2,0,3.75,1.805,3.75,3.868V13.553z M14.576,22.036
				c1.337,0,2.064,0.846,2.064,2.163c0,1.908-2.182,4.11-5.662,7.473v1.318h8.453v-1.927h-3.067c-0.609,0-1.435,0.079-2.084,0.138
				c2.477-2.615,4.541-4.897,4.541-7.119c0-2.321-1.553-3.835-3.951-3.835c-1.71,0-2.85,0.708-3.991,1.927l1.258,1.259
				C12.807,22.685,13.613,22.036,14.576,22.036z M26.192,32.99h2.123v-3.225h1.573v-1.75h-1.573v-7.532h-2.693l-4.954,7.748v1.534
				h5.524V32.99z M22.909,28.014l2.28-3.481c0.354-0.669,0.708-1.298,1.022-1.947h0.079c-0.039,0.728-0.098,1.868-0.098,2.596v2.832
				H22.909z"/>
		</g>
	</g>
</g>
</svg>
