<?xml version="1.0" encoding="utf-8"?>
<!-- Generator: Adobe Illustrator 22.1.0, SVG Export Plug-In . SVG Version: 6.00 Build 0)  -->
<svg version="1.1" id="Capa_1" xmlns="http://www.w3.org/2000/svg" xmlns:xlink="http://www.w3.org/1999/xlink" x="0px" y="0px"
	 viewBox="0 0 512 512" style="enable-background:new 0 0 512 512;" xml:space="preserve">
<style type="text/css">
	.st0{fill:#686868;}
</style>
<path class="st0" d="M222.2,251.7c2.9-4.8,6.1-9.6,9.6-14.1c-2.3-2.7-3.7-6-3.7-9.9c0-8.3,6.8-15.1,15.1-15.1c3.4,0,6.4,1.1,9,2.9
	c4.2-3.8,8.7-7.3,13.4-10.6c-5.8-5.6-13.6-9.1-22.2-9.1c-17.6,0-31.9,14.3-31.9,31.9C211.4,237.3,215.7,245.9,222.2,251.7z"/>
<path class="st0" d="M131.7,312.3c0,17.6,14.3,31.9,31.9,31.9s31.9-14.3,31.9-31.9c0-17.6-14.3-31.9-31.9-31.9
	S131.7,294.7,131.7,312.3z M148.5,312.3c0-8.3,6.8-15.1,15.1-15.1s15.1,6.8,15.1,15.1c0,8.3-6.8,15.1-15.1,15.1
	S148.5,320.6,148.5,312.3z"/>
<path class="st0" d="M53.4,312.3c0,17.6,14.3,31.9,31.9,31.9s31.9-14.3,31.9-31.9c0-17.6-14.3-31.9-31.9-31.9S53.4,294.7,53.4,312.3
	z M70.2,312.3c0-8.3,6.8-15.1,15.1-15.1s15.1,6.8,15.1,15.1c0,8.3-6.8,15.1-15.1,15.1S70.2,320.6,70.2,312.3z"/>
<path class="st0" d="M131.7,225c0,17.6,14.3,31.9,31.9,31.9s31.9-14.3,31.9-31.9s-14.3-31.9-31.9-31.9S131.7,207.4,131.7,225z
	 M148.5,225c0-8.3,6.8-15.1,15.1-15.1s15.1,6.8,15.1,15.1s-6.8,15.1-15.1,15.1S148.5,233.3,148.5,225z"/>
<path class="st0" d="M53.4,225c0,17.6,14.3,31.9,31.9,31.9s31.8-14.4,31.8-31.9s-14.3-31.9-31.9-31.9S53.4,207.4,53.4,225z
	 M70.2,225c0-8.3,6.8-15.1,15.1-15.1s15.1,6.8,15.1,15.1s-6.8,15.1-15.1,15.1S70.2,233.3,70.2,225z"/>
<path class="st0" d="M241.8,438.1H62.1c2.5-4.5,3.8-9.6,3.8-15.1v-13.4h89.3c4.7,0,8.4-3.8,8.4-8.4s-3.8-8.4-8.4-8.4H57.5
	c-4.7,0-8.4,3.8-8.4,8.4v21.7c0,8.3-6.8,15.1-15.1,15.1s-15.1-6.8-15.1-15.1V104.1c0-13.9,11.3-25.2,25.2-25.2h40v10.5
	c0,13.9,11.3,25.2,25.2,25.2s25.2-11.3,25.2-25.2V78.9h141.1v10.5c0,13.9,11.3,25.2,25.2,25.2s25.2-11.3,25.2-25.2V78.6
	c0.7,0.2,1.5,0.3,2.2,0.3h33.5c13.9,0,25.2,11.3,25.2,25.2v27.7H84.1c-4.7,0-8.4,3.8-8.4,8.4c0,4.7,3.8,8.4,8.4,8.4h302.6v30.2
	c5.7,1.1,11.3,2.5,16.8,4.2v-78.9c0-23.1-18.8-42-42-42h-33.5c-0.7,0-1.6,0.1-2.2,0.3V50.4c0-13.9-11.3-25.2-25.2-25.2
	s-25.2,11.3-25.2,25.2v11.7H134.4V50.4c0-13.9-11.3-25.2-25.2-25.2S84.1,36.5,84.1,50.4v11.7H44c-23.1,0-42,18.8-42,42v319
	C2.1,440.6,16.3,455,34,455h225.9C253.4,449.8,247.4,444.3,241.8,438.1z M292.2,50.4c0-4.7,3.8-8.4,8.4-8.4s8.4,3.8,8.4,8.4v39.1
	c0,4.7-3.8,8.4-8.4,8.4s-8.4-3.8-8.4-8.4V50.4z M100.8,50.4c0-4.7,3.8-8.4,8.4-8.4s8.4,3.8,8.4,8.4v39.1c0,4.7-3.8,8.4-8.4,8.4
	s-8.4-3.8-8.4-8.4V50.4z"/>
<path class="st0" d="M351.5,174c-85.8,0-155.4,69.6-155.4,155.4s69.6,155.4,155.4,155.4s155.4-69.6,155.4-155.4
	C506.8,243.6,437.3,174.1,351.5,174z M361.3,464.9v-18.9c0-5.4-4.3-9.7-9.7-9.7s-9.7,4.3-9.7,9.7v18.9
	C274.5,460,221,406.4,216.1,339.1H235c5.4,0,9.7-4.3,9.7-9.7c0-5.4-4.3-9.7-9.7-9.7h-18.9c4.9-67.3,58.4-120.9,125.8-125.8v18.9
	c0,5.4,4.3,9.7,9.7,9.7s9.7-4.3,9.7-9.7v-18.9c67.3,4.9,120.9,58.4,125.8,125.8h-18.9c-5.4,0-9.7,4.3-9.7,9.7c0,5.4,4.3,9.7,9.7,9.7
	H487C482.1,406.4,428.6,460,361.3,464.9z"/>
<path class="st0" d="M409.8,319.7h-48.6v-58.3c0-5.4-4.3-9.7-9.7-9.7s-9.7,4.3-9.7,9.7v68c0,5.4,4.3,9.7,9.7,9.7h58.3
	c5.4,0,9.7-4.3,9.7-9.7C419.5,324,415.2,319.7,409.8,319.7z"/>
</svg>
