<?xml version="1.0" encoding="utf-8"?>
<!-- Generator: Adobe Illustrator 19.2.0, SVG Export Plug-In . SVG Version: 6.00 Build 0)  -->
<svg version="1.1" id="Layer_1" xmlns="http://www.w3.org/2000/svg" xmlns:xlink="http://www.w3.org/1999/xlink" x="0px" y="0px"
	 viewBox="0 0 40 40" style="enable-background:new 0 0 40 40;" xml:space="preserve">
<style type="text/css">
	.st0{fill:#4EC2E7;}
</style>
<g>
	<g>
		<g>
			<path class="st0" d="M39.1,34.7h-1.3l0.8-9.6c0-0.2-0.1-0.5-0.2-0.7c-0.2-0.2-0.4-0.3-0.6-0.3h-0.5v-5.5c0-0.5-0.4-0.9-0.9-0.9
				h-8l0.1-4.9h0.5c0.5,0,0.9-0.4,0.9-0.9V9.5c0-0.5-0.4-0.9-0.9-0.9h-2.1l1.5-3.8l6.3-2.4c0.4-0.2,0.7-0.7,0.5-1.1
				C35,0.8,34.5,0.6,34,0.8l-6.7,2.5c-0.2,0.1-0.4,0.3-0.5,0.5L25,8.6H13.8c-0.5,0-0.9,0.4-0.9,0.9V12c0,0.5,0.4,0.9,0.9,0.9h0.5
				l0.2,6.5c-0.7-0.2-1.4-0.2-2.2-0.2c-4.8,0-8.7,3.3-9.2,7.6H2.2c-0.5,0-0.9,0.4-0.9,0.9v2.6c0,0.4,0.3,0.7,0.6,0.8
				c-0.1,0.2-0.1,0.5-0.1,0.7c0,0.9,0.5,1.7,1.2,2.1c0,0.3,0.1,0.6,0.1,0.8H0.9c-0.5,0-0.9,0.4-0.9,0.9v2.9c0,0.5,0.4,0.9,0.9,0.9
				h38.3c0.5,0,0.9-0.4,0.9-0.9v-2.9C40,35.1,39.6,34.7,39.1,34.7z M24.1,34.7h-2.7c0.1-0.3,0.1-0.5,0.1-0.8
				c0.7-0.4,1.2-1.2,1.2-2.1c0-0.2,0-0.5-0.1-0.7c0.4-0.1,0.6-0.4,0.6-0.8v-2.6c0-0.5-0.4-0.9-0.9-0.9h-0.9c-0.3-3-2.4-5.5-5.2-6.8
				L16,12.9h10.7l-0.1,4.9h-1.1c-0.5,0-0.9,0.4-0.9,0.9v5.5h-0.5c-0.2,0-0.5,0.1-0.6,0.3c-0.2,0.2-0.2,0.4-0.2,0.7L24.1,34.7z
				 M27.4,19.5v4.6h-1v-4.6H27.4z M34.5,19.5h1v4.6h-1V19.5z M31.8,19.5h1v4.6h-1V19.5z M29.1,19.5h1v4.6h-1V19.5z M36.6,25.9
				c-0.7,0.9-2.7,1.8-5.7,1.8c-2.9,0-5-0.9-5.7-1.8H36.6z M36.7,28.1l-0.5,6.6H25.8l-0.5-6.6c1.4,0.8,3.4,1.3,5.7,1.3
				C33.3,29.4,35.3,28.9,36.7,28.1z M14.7,10.4H28v0.7H14.7V10.4z M12.3,20.9c3.8,0,7,2.5,7.5,5.8H4.8C5.3,23.4,8.4,20.9,12.3,20.9z
				 M3.1,29.3v-0.9h18.4v0.9H3.1z M4.2,32.4c-0.3,0-0.6-0.3-0.6-0.7c0-0.4,0.3-0.7,0.6-0.7h16.2c0.3,0,0.6,0.3,0.6,0.7
				c0,0.4-0.3,0.7-0.6,0.7H4.2z M19.7,34.2c0,0.2-0.1,0.3-0.1,0.5H4.9c0-0.2-0.1-0.3-0.1-0.5H19.7z M38.3,37.5H1.7v-1.1h36.5V37.5z
				 M11.3,23.2c-0.2,0-0.4,0.1-0.6,0.2c-0.1,0.1-0.2,0.4-0.2,0.6c0,0.2,0.1,0.4,0.2,0.6c0.1,0.2,0.4,0.2,0.6,0.2
				c0.2,0,0.4-0.1,0.6-0.2c0.1-0.1,0.2-0.4,0.2-0.6c0-0.2-0.1-0.4-0.2-0.6C11.7,23.3,11.5,23.2,11.3,23.2z M8.1,24.4
				c-0.2,0-0.4,0.1-0.6,0.2c-0.1,0.2-0.2,0.4-0.2,0.6c0,0.2,0.1,0.4,0.2,0.6c0.1,0.1,0.4,0.2,0.6,0.2c0.2,0,0.4-0.1,0.6-0.2
				c0.1-0.1,0.2-0.4,0.2-0.6c0-0.2-0.1-0.4-0.2-0.6C8.5,24.5,8.3,24.4,8.1,24.4z M14.5,24.4c-0.2,0-0.4,0.1-0.6,0.2
				c-0.1,0.2-0.2,0.4-0.2,0.6c0,0.2,0.1,0.4,0.2,0.6c0.1,0.1,0.4,0.2,0.6,0.2c0.2,0,0.4-0.1,0.6-0.2c0.1-0.1,0.2-0.4,0.2-0.6
				c0-0.2-0.1-0.4-0.2-0.6C14.9,24.5,14.7,24.4,14.5,24.4z"/>
		</g>
	</g>
</g>
</svg>
