<?xml version="1.0" encoding="utf-8"?>
<!-- Generator: Adobe Illustrator 19.2.0, SVG Export Plug-In . SVG Version: 6.00 Build 0)  -->
<svg version="1.1" id="Layer_1" xmlns="http://www.w3.org/2000/svg" xmlns:xlink="http://www.w3.org/1999/xlink" x="0px" y="0px"
	 viewBox="0 0 120 120" style="enable-background:new 0 0 120 120;" xml:space="preserve">
<style type="text/css">
	.st0{fill:#70C1F0;}
</style>
<path class="st0" d="M84.9,42.1l15.7-20.4c0.6-0.8,0.7-1.9,0.3-2.8c-0.5-0.9-1.4-1.5-2.5-1.5H30.8V14c2.3-1,3.9-3.3,3.9-5.9
	c0-3.6-3-6.4-6.7-6.4s-6.7,2.9-6.7,6.4c0,2.6,1.6,4.8,3.9,5.9v98.9h-3.5c-1.5,0-2.8,1.2-2.8,2.7s1.2,2.7,2.8,2.7h12.6
	c1.5,0,2.8-1.2,2.8-2.7s-1.2-2.7-2.8-2.7h-3.5V66.7h67.5c1,0,2-0.6,2.5-1.5s0.4-2-0.3-2.8L84.9,42.1z M28,9.8
	c-0.9,0-1.7-0.7-1.7-1.6S27,6.6,28,6.6c0.9,0,1.7,0.7,1.7,1.6C29.7,9,29,9.8,28,9.8z M30.8,61.4L30.8,61.4v-8.9h8.8
	c1.5,0,2.8-1.2,2.8-2.7s-1.2-2.7-2.8-2.7h-8.8v-9.9h13.8c1.5,0,2.8-1.2,2.8-2.7s-1.2-2.7-2.8-2.7H30.8v-9h62.1L79.3,40.5
	c-0.7,1-0.7,2.3,0,3.2l13.5,17.6L30.8,61.4L30.8,61.4z"/>
</svg>
