<?xml version="1.0" encoding="utf-8"?>
<!-- Generator: Adobe Illustrator 19.2.0, SVG Export Plug-In . SVG Version: 6.00 Build 0)  -->
<svg version="1.1" id="Layer_1" xmlns="http://www.w3.org/2000/svg" xmlns:xlink="http://www.w3.org/1999/xlink" x="0px" y="0px"
	 viewBox="0 0 40 40" style="enable-background:new 0 0 40 40;" xml:space="preserve">
<style type="text/css">
	.st0{fill:#FFFFFF;}
</style>
<path class="st0" d="M28.5,13.9l5.4-7c0.2-0.3,0.2-0.7,0.1-1c-0.2-0.3-0.5-0.5-0.9-0.5H10V4.2c0.8-0.3,1.3-1.1,1.3-2
	C11.3,1,10.3,0,9,0S6.7,1,6.7,2.2c0,0.9,0.5,1.6,1.3,2v33.9H6.9c-0.5,0-1,0.4-1,0.9s0.4,0.9,1,0.9h4.3c0.5,0,1-0.4,1-0.9
	s-0.4-0.9-1-0.9H10V22.3h23.2c0.3,0,0.7-0.2,0.9-0.5s0.1-0.7-0.1-1L28.5,13.9z M9,2.8c-0.3,0-0.6-0.2-0.6-0.5S8.7,1.7,9,1.7
	c0.3,0,0.6,0.2,0.6,0.5C9.6,2.5,9.4,2.8,9,2.8z M10,20.5L10,20.5v-3.1h3c0.5,0,1-0.4,1-0.9s-0.4-0.9-1-0.9h-3v-3.4h4.7
	c0.5,0,1-0.4,1-0.9s-0.4-0.9-1-0.9H10V7.2h21.3l-4.7,6.1c-0.2,0.3-0.2,0.8,0,1.1l4.6,6L10,20.5L10,20.5z"/>
</svg>
