<?xml version="1.0" encoding="utf-8"?>
<!-- Generator: Adobe Illustrator 19.2.0, SVG Export Plug-In . SVG Version: 6.00 Build 0)  -->
<svg version="1.1" id="Layer_1" xmlns="http://www.w3.org/2000/svg" xmlns:xlink="http://www.w3.org/1999/xlink" x="0px" y="0px"
	 viewBox="0 0 40 40" style="enable-background:new 0 0 40 40;" xml:space="preserve">
<style type="text/css">
	.st0{fill:#484D55;}
</style>
<g>
	<path class="st0" d="M28.7,13.9l5.5-7c0.2-0.3,0.3-0.7,0.1-1c-0.2-0.3-0.5-0.5-0.9-0.5H9.7V4.2c0.8-0.4,1.4-1.1,1.4-2
		C11.1,1,10,0,8.8,0C7.5,0,6.4,1,6.4,2.2c0,0.9,0.6,1.7,1.4,2v33.9H6.5c-0.5,0-1,0.4-1,0.9c0,0.5,0.4,0.9,1,0.9H11
		c0.5,0,1-0.4,1-0.9c0-0.5-0.4-0.9-1-0.9H9.7V22.3h23.7c0.4,0,0.7-0.2,0.9-0.5c0.2-0.3,0.1-0.7-0.1-1L28.7,13.9z M8.8,2.8
		c-0.3,0-0.6-0.2-0.6-0.6c0-0.3,0.3-0.6,0.6-0.6c0.3,0,0.6,0.2,0.6,0.6C9.3,2.5,9.1,2.8,8.8,2.8z M9.7,20.5L9.7,20.5v-3.1h3.1
		c0.5,0,1-0.4,1-0.9c0-0.5-0.4-0.9-1-0.9H9.7v-3.4h4.9c0.5,0,1-0.4,1-0.9c0-0.5-0.4-0.9-1-0.9H9.7V7.2h21.8l-4.8,6.1
		c-0.3,0.3-0.3,0.8,0,1.1l4.8,6L9.7,20.5L9.7,20.5z"/>
</g>
</svg>
