<?xml version="1.0" encoding="utf-8"?>
<!-- Generator: Adobe Illustrator 19.2.0, SVG Export Plug-In . SVG Version: 6.00 Build 0)  -->
<svg version="1.1" id="Layer_1" xmlns="http://www.w3.org/2000/svg" xmlns:xlink="http://www.w3.org/1999/xlink" x="0px" y="0px"
	 viewBox="0 0 40 40" style="enable-background:new 0 0 40 40;" xml:space="preserve">
<style type="text/css">
	.st0{fill:#787C88;}
	.st1{fill:#FFFFFF;}
	.st2{fill:#FD5969;}
</style>
<g>
	<g>
		<g>
			<path class="st2" d="M22.2,0.6c-1.5-0.8-3-0.8-4.5,0C16.6,1.1,16,2.1,16,3.5c0,6.5,0,13.1,0,19.6c0,1.3,0.5,2.3,1.5,2.9
				c1.2,0.7,2.5,0.8,3.9,0.4c1.7-0.5,2.5-1.7,2.5-3.7c0-3.1,0-6.2,0-9.4c0-3.2,0-6.5,0-9.7C24,2.2,23.4,1.2,22.2,0.6z M20,31.2
				c-2.1,0-4,2-4,4.4c0,2.4,1.8,4.4,4,4.4c2.1,0,3.9-2,4-4.3C24,33.3,22.1,31.2,20,31.2z"/>
		</g>
	</g>
</g>
</svg>
