<?xml version="1.0" encoding="iso-8859-1"?>
<!-- Generator: Adobe Illustrator 19.2.0, SVG Export Plug-In . SVG Version: 6.00 Build 0)  -->
<svg version="1.1" id="Layer_1" xmlns="http://www.w3.org/2000/svg" xmlns:xlink="http://www.w3.org/1999/xlink" x="0px" y="0px"
	 viewBox="0 0 40 40" style="enable-background:new 0 0 40 40;" xml:space="preserve">
<g>
	<g>
		<g>
			<path style="fill-rule:evenodd;clip-rule:evenodd;fill:#a767dd;" d="M33.75,3.737h-5V2.486c0-0.751-0.5-1.251-1.25-1.251
				c-0.75,0-1.25,0.5-1.25,1.251v1.251h-12.5V2.486c0-0.751-0.5-1.251-1.25-1.251c-0.75,0-1.25,0.5-1.25,1.251v1.251h-5
				C2.75,3.737,0,6.489,0,9.992V32.51c0,3.503,2.75,6.255,6.25,6.255h27.5c3.5,0,6.25-2.752,6.25-6.255V9.992
				C40,6.489,37.25,3.737,33.75,3.737z M37.5,32.51c0,2.002-1.75,3.753-3.75,3.753H6.25c-2,0-3.75-1.751-3.75-3.753V16.247h35V32.51
				z M37.5,13.745h-35V9.992c0-2.002,1.75-3.753,3.75-3.753h5V7.49c0,0.75,0.5,1.251,1.25,1.251c0.75,0,1.25-0.5,1.25-1.251V6.239
				h12.5V7.49c0,0.75,0.5,1.251,1.25,1.251c0.75,0,1.25-0.5,1.25-1.251V6.239h5c2,0,3.75,1.751,3.75,3.753V13.745z M7,28.257
				c-0.5,0.5-0.75,1.001-0.75,1.752c0,0.5,0.25,1.251,0.75,1.751c0.5,0.5,1,0.75,1.75,0.75c0.75,0,1.25-0.25,1.75-0.75
				c0.5-0.5,0.75-1.251,0.75-1.751c0-0.5-0.25-1.251-0.75-1.752C9.5,27.256,8,27.256,7,28.257z M14.5,28.257
				c-0.5,0.5-0.75,1.251-0.75,1.752c0,0.5,0.25,1.251,0.75,1.751c0.5,0.5,1,0.75,1.75,0.75c0.75,0,1.25-0.25,1.75-0.75
				c0.5-0.5,0.75-1.251,0.75-1.751c0-0.5-0.25-1.251-0.75-1.752C17,27.256,15.5,27.256,14.5,28.257z M22,28.257
				c-0.5,0.5-0.75,1.251-0.75,1.752c0,0.5,0.25,1.251,0.75,1.751c0.5,0.5,1,0.75,1.75,0.75c0.75,0,1.25-0.25,1.75-0.75
				c0.5-0.5,0.75-1.001,0.75-1.751c0-0.751-0.25-1.251-0.75-1.752C24.5,27.256,23,27.256,22,28.257z M29.5,28.257
				c-0.5,0.5-0.75,1.001-0.75,1.752c0,0.5,0.25,1.251,0.75,1.751c0.5,0.5,1,0.75,1.75,0.75c0.75,0,1.25-0.25,1.75-0.75
				c0.5-0.5,0.75-1.251,0.75-1.751c0-0.5-0.25-1.251-0.75-1.752C32,27.256,30.5,27.256,29.5,28.257z M35.068,18.68H4.921v7.588
				h30.147V18.68z M10.5,24.253c-0.5,0.5-1,0.751-1.75,0.751c-0.75,0-1.25-0.25-1.75-0.751c-0.5-0.5-0.75-1.001-0.75-1.752
				c0-0.751,0.25-1.251,0.75-1.751c1-1.001,2.5-1.001,3.5,0c0.5,0.5,0.75,1.251,0.75,1.751C11.25,23.002,11,23.753,10.5,24.253z
				 M18,24.253c-0.5,0.5-1,0.751-1.75,0.751c-0.75,0-1.25-0.25-1.75-0.751c-0.5-0.5-0.75-1.251-0.75-1.752
				c0-0.5,0.25-1.251,0.75-1.751c1-1.001,2.5-1.001,3.5,0c0.5,0.5,0.75,1.251,0.75,1.751C18.75,23.002,18.5,23.753,18,24.253z
				 M25.5,24.253c-0.5,0.5-1,0.751-1.75,0.751c-0.75,0-1.25-0.25-1.75-0.751c-0.5-0.5-0.75-1.251-0.75-1.752
				c0-0.5,0.25-1.251,0.75-1.751c1-1.001,2.5-1.001,3.5,0c0.5,0.5,0.75,1.251,0.75,1.751C26.25,23.253,26,23.753,25.5,24.253z
				 M33,24.253c-0.5,0.5-1,0.751-1.75,0.751c-0.75,0-1.25-0.25-1.75-0.751c-0.5-0.5-0.75-1.251-0.75-1.752
				c0-0.5,0.25-1.251,0.75-1.751c1-1.001,2.5-1.001,3.5,0c0.5,0.5,0.75,1.251,0.75,1.751C33.75,23.253,33.5,23.753,33,24.253z"/>
		</g>
	</g>
</g>
</svg>
