<?xml version="1.0" encoding="utf-8"?>
<!-- Generator: Adobe Illustrator 19.2.0, SVG Export Plug-In . SVG Version: 6.00 Build 0)  -->
<svg version="1.1" id="Layer_1" xmlns="http://www.w3.org/2000/svg" xmlns:xlink="http://www.w3.org/1999/xlink" x="0px" y="0px"
	 viewBox="0 0 100 100" style="enable-background:new 0 0 100 100;" xml:space="preserve">
<style type="text/css">
	.st0{fill:#92D050;}
	.st1{fill:#FFFFFF;}
</style>
<circle class="st0" cx="50" cy="50" r="50"/>
<g>
	<path class="st1" d="M69.9,63.6c0,5.5-2,9.9-6,13.1s-9.5,4.8-16.6,4.8c-6.5,0-12.3-1.2-17.3-3.7V65.7c4.1,1.8,7.6,3.1,10.5,3.9
		s5.5,1.1,7.8,1.1c2.8,0,5-0.5,6.5-1.6s2.3-2.7,2.3-4.9c0-1.2-0.3-2.3-1-3.2s-1.7-1.8-2.9-2.7c-1.3-0.9-3.9-2.2-7.9-4.1
		c-3.7-1.8-6.5-3.4-8.4-5.1c-1.9-1.6-3.4-3.5-4.5-5.6c-1.1-2.1-1.7-4.7-1.7-7.5c0-5.4,1.8-9.7,5.5-12.8s8.7-4.6,15.2-4.6
		c3.2,0,6.2,0.4,9.1,1.1c2.9,0.8,5.9,1.8,9.1,3.2L65.4,33c-3.3-1.3-6-2.3-8.1-2.8s-4.2-0.8-6.3-0.8c-2.5,0-4.3,0.6-5.6,1.7
		c-1.3,1.1-2,2.6-2,4.5c0,1.1,0.3,2.1,0.8,3s1.4,1.7,2.5,2.5c1.2,0.8,3.9,2.2,8.2,4.3c5.7,2.7,9.6,5.5,11.8,8.2
		C68.9,56.3,69.9,59.6,69.9,63.6z"/>
</g>
</svg>
