<?xml version="1.0" encoding="utf-8"?>
<!-- Generator: Adobe Illustrator 18.0.0, SVG Export Plug-In . SVG Version: 6.00 Build 0)  -->
<!DOCTYPE svg PUBLIC "-//W3C//DTD SVG 1.1//EN" "http://www.w3.org/Graphics/SVG/1.1/DTD/svg11.dtd">
<svg version="1.1" id="Capa_1" xmlns="http://www.w3.org/2000/svg" xmlns:xlink="http://www.w3.org/1999/xlink" x="0px" y="0px"
	fill="#fff" viewBox="65.8 65.8 380 380" enable-background="new 65.8 65.8 380 380" xml:space="preserve">
<g>
	<g>
		<g>
			<circle cx="350" cy="310.6" r="16.1"/>
			<path d="M439.4,294.7l-22.4-4.2c-1.4-4.5-3.2-8.9-5.4-13l13-19c1.2-1.8,1-4.4-0.6-5.9l-16-16c-1.5-1.5-4.1-1.7-5.9-0.6l-19,13
				c-4.2-2.3-8.7-4.1-13.4-5.5l-4.2-22.3c-0.4-2.1-2.4-3.8-4.6-3.8h-22.6c-2.1,0-4.2,1.7-4.6,3.8l-4.2,22.6
				c-4.5,1.4-8.8,3.2-12.9,5.4l-18.8-12.8c-1.8-1.2-4.4-1-5.9,0.6l-16,16c-1.5,1.5-1.7,4.1-0.6,5.9l12.9,18.9
				c-2.2,4.1-3.9,8.4-5.3,12.8l-22.4,4.2c-2.1,0.4-3.8,2.4-3.8,4.6v22.6c0,2.1,1.7,4.2,3.8,4.6l22.4,4.2c1.4,4.6,3.2,9,5.4,13.1
				l-12.8,18.7c-1.2,1.8-1,4.4,0.6,5.9l16,16c1.5,1.5,4.1,1.7,5.9,0.6l18.7-12.8c4,2.2,8.3,3.9,12.7,5.3l4.2,22.6
				c0.4,2.1,2.4,3.8,4.6,3.8H361c2.1,0,4.2-1.7,4.6-3.8l4.2-22.3c4.6-1.4,9.1-3.2,13.3-5.4l18.9,12.9c1.8,1.2,4.4,1,5.9-0.6l16-16
				c1.5-1.5,1.8-4.1,0.6-5.9L411.5,344c2.3-4.2,4.1-8.6,5.5-13.3l22.4-4.2c2.1-0.4,3.8-2.4,3.8-4.6v-22.6
				C443.2,297.1,441.5,295.1,439.4,294.7z M350,349.5c-21.5,0-38.9-17.4-38.9-38.9c0-21.5,17.4-38.9,38.9-38.9
				c21.5,0,38.9,17.4,38.9,38.9C388.9,332.1,371.5,349.5,350,349.5z"/>
		</g>
	</g>
</g>
<g>
	<path fill="none" d="M203.1,269.2h49.2c0.4-0.1,0.9-0.3,1.3-0.4c-4.6-8.2-5-18-1.3-26.4h-49.2V269.2z"/>
	<rect x="337.4" y="135" fill="none" width="80.6" height="26.9"/>
	<path d="M258.7,384.1c-9.3-9.3-11.2-24.1-4.9-35.5c-11.9-3.3-20.5-13.5-21.7-25.7H82.2c-3.6,0-6.8,1.3-9.4,4c-2.7,2.7-4,5.8-4,9.4
		v53.7c0,3.6,1.3,6.8,4,9.4c2.7,2.7,5.8,4,9.4,4h196.6c-1.5-1-2.9-2.1-4.1-3.4L258.7,384.1z"/>
	<path d="M425.6,400.4c-1.1,1.1-2.4,2.2-3.7,3.1h9.4c3.6,0,6.8-1.3,9.4-4c2.7-2.7,4-5.8,4-9.4v-9.5c-1,1.3-2,2.6-3.2,3.8
		L425.6,400.4z"/>
	<path d="M344.4,296.1h11.5c-1.8-0.8-3.7-1.3-5.7-1.3C348.1,294.8,346.2,295.3,344.4,296.1z"/>
	<path d="M441.9,233c1.1,1.1,2.1,2.3,3,3.5V229c0-3.6-1.3-6.8-4-9.4c-2.7-2.7-5.8-4-9.4-4h-7.1c0.5,0.5,1.1,1,1.6,1.5L441.9,233z"/>
	<path d="M252.3,269.2h-49.2v-26.9h49.2c1.4-3.3,3.5-6.4,6.2-9.1l16-16c0.6-0.6,1.3-1.2,1.9-1.7H82.2c-3.6,0-6.8,1.3-9.4,4
		c-2.7,2.7-4,5.8-4,9.4v53.7c0,3.6,1.3,6.8,4,9.4c2.7,2.7,5.8,4,9.4,4H232C232.6,283.7,240.7,273.1,252.3,269.2z"/>
	<path d="M82.2,188.7h349.1c3.6,0,6.8-1.3,9.4-4c2.7-2.7,4-5.8,4-9.4v-53.7c0-3.6-1.3-6.8-4-9.4c-2.7-2.7-5.8-4-9.4-4H82.2
		c-3.6,0-6.8,1.3-9.4,4c-2.7,2.7-4,5.8-4,9.4v53.7c0,3.6,1.3,6.8,4,9.4C75.5,187.3,78.6,188.7,82.2,188.7z M337.4,135H418v26.9
		h-80.6V135z"/>
</g>
</svg>
