<?xml version="1.0" encoding="iso-8859-1"?>
<!-- Generator: Adobe Illustrator 19.2.0, SVG Export Plug-In . SVG Version: 6.00 Build 0)  -->
<svg version="1.1" id="Layer_1" xmlns="http://www.w3.org/2000/svg" xmlns:xlink="http://www.w3.org/1999/xlink" x="0px" y="0px"
	 viewBox="0 0 40 40" style="enable-background:new 0 0 40 40;" xml:space="preserve">
<g>
	<g>
		<g>
			<path style="fill:#35C4FF;" d="M35.613,4.265h-7.944V1.47c0-0.809-0.666-1.47-1.48-1.47H13.82c-0.814,0-1.48,0.662-1.48,1.47
				v7.737c0,0.809,0.666,1.471,1.48,1.471h9.145c0.814,0,1.48-0.662,1.48-1.471s-0.666-1.47-1.48-1.47H15.3V2.941h9.416v2.794
				c0,0.809,0.666,1.471,1.481,1.471h7.944v29.853H5.868V7.206h2.262c0.814,0,1.48-0.662,1.48-1.471c0-0.809-0.666-1.47-1.48-1.47
				H4.387c-0.814,0-1.48,0.662-1.48,1.47v32.794c0,0.809,0.666,1.471,1.48,1.471h31.226c0.814,0,1.48-0.662,1.48-1.471V5.735
				C37.093,4.927,36.427,4.265,35.613,4.265z M17.817,28.072c0.378,0,0.757-0.139,1.045-0.425l7.952-7.835
				c0.584-0.572,0.584-1.503,0.008-2.083c-0.576-0.58-1.513-0.58-2.097-0.008l-6.899,6.797L15.3,21.993
				c-0.576-0.58-1.513-0.58-2.097-0.008c-0.584,0.572-0.584,1.503-0.008,2.083l3.569,3.57C17.052,27.925,17.43,28.072,17.817,28.072
				z"/>
		</g>
	</g>
</g>
</svg>
