<?xml version="1.0" encoding="utf-8"?>
<!-- Generator: Adobe Illustrator 19.2.0, SVG Export Plug-In . SVG Version: 6.00 Build 0)  -->
<svg version="1.1" id="Layer_1" xmlns="http://www.w3.org/2000/svg" xmlns:xlink="http://www.w3.org/1999/xlink" x="0px" y="0px"
	 viewBox="0 0 40 40" style="enable-background:new 0 0 40 40;" xml:space="preserve">
<style type="text/css">
	.st0{fill:#626975;}
</style>
<g>
	<path class="st0" d="M22.6,37.4c-0.2-0.2-0.3-0.4-0.4-0.4H10.3C5.8,37,2,34.1,2,29.5V10.1C2,5.5,5.8,2,10.3,2h19
		c4.6,0,7.7,3.5,7.7,8.1v12.2c0,0.1,0.9,0.3,1.1,0.5l0.9,1V10.1C39,4.6,34.8,0,29.3,0h-19C4.9,0,0,4.6,0,10.1v19.4
		C0,35,4.9,39,10.3,39h13.4L22.6,37.4z"/>
	<path class="st0" d="M19.7,11c-0.6,0-1-0.4-1-1c0-0.6,0.5-1,1-1h12.4c0.6,0,1,0.4,1,1c0,0.6-0.5,1-1,1H19.7z"/>
	<path class="st0" d="M30.1,20h1.6c0.4,0,0.8,0.2,1.2,0.4c0.1-0.2,0.2-0.3,0.2-0.5c0-0.6-0.5-0.9-1-0.9H19.7c-0.6,0-1,0.4-1,1
		c0,0.6,0.5,1,1,1h8.5C28.8,20,29.4,20,30.1,20z"/>
	<path class="st0" d="M10.1,33.1c-0.2,0-0.4-0.1-0.6-0.2l-3.2-2.4C6.1,30.4,6,30.1,6,29.9c0-0.3,0-0.5,0.2-0.8
		c0.2-0.3,0.5-0.4,0.8-0.4c0.2,0,0.4,0.1,0.6,0.2l2.4,1.8l4.1-4.8c0.2-0.2,0.5-0.4,0.8-0.4c0.2,0,0.5,0.1,0.7,0.2
		c0.4,0.4,0.5,1,0.1,1.4l-4.7,5.5C10.7,33,10.4,33.1,10.1,33.1z"/>
	<path class="st0" d="M10.1,22.8c-0.2,0-0.4-0.1-0.6-0.2l-3.2-2.4C6.1,20,6,19.8,6,19.5c0-0.3,0-0.5,0.2-0.8
		c0.2-0.3,0.5-0.4,0.8-0.4c0.2,0,0.4,0.1,0.6,0.2l2.4,1.8l4.1-4.8c0.2-0.2,0.5-0.4,0.8-0.4c0.2,0,0.5,0.1,0.7,0.2
		c0.4,0.4,0.5,1,0.1,1.4l-4.7,5.5C10.7,22.6,10.4,22.8,10.1,22.8z"/>
	<path class="st0" d="M10.1,13.1c-0.2,0-0.4-0.1-0.6-0.2l-3.2-2.4C6.1,10.4,6,10.2,6,9.9c0-0.3,0-0.5,0.2-0.8C6.4,8.9,6.6,8.7,7,8.7
		c0.2,0,0.4,0.1,0.6,0.2l2.4,1.8l4.1-4.8c0.2-0.2,0.5-0.4,0.8-0.4c0.2,0,0.5,0.1,0.7,0.2c0.4,0.4,0.5,1,0.1,1.4l-4.7,5.5
		C10.7,13,10.4,13.1,10.1,13.1z"/>
	<path class="st0" d="M15.4,7"/>
	<g>
		<path class="st0" d="M31.1,35.1c-2.2,0-4-1.8-4-4s1.8-4,4-4s4,1.8,4,4S33.3,35.1,31.1,35.1z M31.1,28.8c-1.3,0-2.4,1.1-2.4,2.4
			c0,1.3,1.1,2.4,2.4,2.4s2.4-1.1,2.4-2.4C33.5,29.9,32.4,28.8,31.1,28.8z"/>
		<path class="st0" d="M30.4,39.9c-0.7,0-1.2-0.5-1.4-1.1l-0.2-1c-0.3-0.1-0.5-0.2-0.8-0.3l-0.8,0.6c-0.2,0.2-0.5,0.3-0.8,0.3
			c-0.4,0-0.7-0.1-1-0.4l-1-1c-0.5-0.5-0.5-1.2-0.1-1.8l0.6-0.8c-0.1-0.3-0.2-0.5-0.3-0.8l-1-0.2c-0.7-0.1-1.1-0.7-1.1-1.4v-1.5
			c0-0.7,0.5-1.2,1.1-1.4l1-0.2c0.1-0.3,0.2-0.6,0.3-0.8l-0.6-0.8c-0.4-0.5-0.3-1.3,0.1-1.8l1.1-1c0.3-0.3,0.6-0.4,1-0.4
			c0.3,0,0.6,0.1,0.8,0.3l0.8,0.6c0.3-0.1,0.5-0.3,0.8-0.3l0.2-1c0.1-0.7,0.7-1.1,1.4-1.1h1.5c0.7,0,1.2,0.5,1.4,1.1l0.2,1
			c0.3,0.1,0.6,0.2,0.9,0.4l0.8-0.6c0.2-0.2,0.5-0.3,0.8-0.3c0.4,0,0.7,0.1,1,0.4l1,1c0.5,0.5,0.5,1.2,0.1,1.8l-0.6,0.8
			c0.1,0.3,0.2,0.5,0.3,0.8l1,0.2c0.7,0.1,1.1,0.7,1.1,1.4v1.5c0,0.7-0.5,1.2-1.1,1.4l-1,0.2c-0.1,0.3-0.2,0.6-0.3,0.8l0.6,0.8
			c0.4,0.5,0.3,1.3-0.1,1.8l-1,1c-0.3,0.3-0.6,0.4-1,0.4c-0.3,0-0.6-0.1-0.8-0.3l-0.8-0.6c-0.3,0.1-0.5,0.2-0.8,0.3l-0.2,1
			c-0.1,0.7-0.7,1.1-1.4,1.1H30.4z M31.7,38.3l0.2-1.3c0-0.3,0.3-0.6,0.6-0.6c0.5-0.1,1-0.3,1.4-0.6c0.1-0.1,0.3-0.1,0.4-0.1
			c0.2,0,0.3,0.1,0.5,0.1l1.1,0.8l0.8-0.8l-0.8-1.1c-0.2-0.3-0.2-0.6,0-0.9c0.3-0.4,0.4-0.9,0.6-1.4c0.1-0.3,0.3-0.5,0.6-0.6
			l1.3-0.2v-1.1L37,30.4c-0.3,0-0.6-0.3-0.6-0.6c-0.1-0.5-0.3-1-0.6-1.4c-0.2-0.3-0.1-0.6,0-0.9l0.8-1.1l-0.8-0.8l-1,0.8
			c-0.1,0.1-0.3,0.1-0.5,0.1c-0.1,0-0.3,0-0.4-0.1c-0.4-0.3-0.9-0.5-1.4-0.6c-0.3-0.1-0.5-0.3-0.6-0.6L31.6,24h-1.1l-0.2,1.3
			c-0.1,0.3-0.3,0.6-0.6,0.6c-0.5,0.1-1,0.3-1.4,0.6c-0.1,0.1-0.3,0.1-0.4,0.1c-0.2,0-0.3-0.1-0.5-0.1l-1.1-0.8l-0.8,0.8l0.8,1.1
			c0.2,0.3,0.2,0.6,0,0.9c-0.3,0.4-0.4,0.9-0.6,1.4c-0.1,0.3-0.3,0.5-0.6,0.6L24,30.7v1.1l1.3,0.2c0.3,0.1,0.6,0.3,0.6,0.6
			c0.1,0.5,0.3,1,0.6,1.4c0.2,0.3,0.1,0.6,0,0.9l-0.7,1.1l0.8,0.8l1.1-0.8c0.1-0.1,0.3-0.1,0.5-0.1c0.1,0,0.3,0,0.4,0.1
			c0.4,0.2,0.9,0.4,1.4,0.6c0.3,0.1,0.5,0.3,0.6,0.6l0.2,1.3H31.7z"/>
	</g>
</g>
</svg>
