<?xml version="1.0" encoding="utf-8"?>
<!-- Generator: Adobe Illustrator 19.2.0, SVG Export Plug-In . SVG Version: 6.00 Build 0)  -->
<svg version="1.1" id="Layer_1" xmlns="http://www.w3.org/2000/svg" xmlns:xlink="http://www.w3.org/1999/xlink" x="0px" y="0px"
	 viewBox="0 0 100 100" style="enable-background:new 0 0 100 100;" xml:space="preserve">
<style type="text/css">
	.st0{fill:#F79646;}
	.st1{fill:#FFFFFF;}
</style>
<circle class="st0" cx="50" cy="50" r="50"/>
<g>
	<path class="st1" d="M74.7,19.9v39c0,4.5-1,8.4-3,11.7c-2,3.4-4.9,5.9-8.6,7.7c-3.8,1.8-8.2,2.7-13.4,2.7c-7.8,0-13.8-2-18.1-6
		c-4.3-4-6.4-9.4-6.4-16.3V19.9H38v36.9c0,4.6,0.9,8.1,2.8,10.2c1.9,2.2,5,3.3,9.3,3.3c4.2,0,7.2-1.1,9.1-3.3
		c1.9-2.2,2.8-5.6,2.8-10.3V19.9H74.7z"/>
</g>
</svg>
