<?xml version="1.0" encoding="utf-8"?>
<!-- Generator: Adobe Illustrator 19.2.0, SVG Export Plug-In . SVG Version: 6.00 Build 0)  -->
<svg version="1.1" id="Layer_1" xmlns="http://www.w3.org/2000/svg" xmlns:xlink="http://www.w3.org/1999/xlink" x="0px" y="0px"
	 viewBox="0 0 40 40" style="enable-background:new 0 0 40 40;" xml:space="preserve">
<style type="text/css">
	.st0{fill:#484D55;}
</style>
<g>
	<g>
		<g>
			<path class="st0" d="M31.9,24.1c-0.1-0.1-0.3-0.3-0.4-0.4c-2.4-2.3-5.3-3.9-8.5-4.7c3.4-1.6,5.7-5,5.7-8.9c0-5.5-4.6-10-10.2-10
				C12.8,0,8.2,4.5,8.2,10c0,3.9,2.3,7.3,5.7,8.9c-3.2,0.8-6.1,2.4-8.5,4.7C1.9,27.1,0,31.6,0,36.4c0,0.4,0.4,0.8,0.8,0.8h24.8
				c1.5,1.7,3.7,2.8,6.2,2.8c4.5,0,8.2-3.6,8.2-8C40,27.7,36.4,24.1,31.9,24.1z M9.8,10c0-4.6,3.9-8.4,8.6-8.4
				c4.7,0,8.6,3.8,8.6,8.4s-3.9,8.4-8.6,8.4C13.7,18.4,9.8,14.6,9.8,10z M1.7,35.6L1.7,35.6C2.1,26.9,9.5,20,18.5,20
				c4.4,0,8.4,1.6,11.4,4.3c-3.5,0.9-6.2,4-6.2,7.7c0,1.3,0.3,2.5,0.9,3.5H1.7z M31.8,38.4c-3.6,0-6.5-2.9-6.5-6.4s2.9-6.4,6.5-6.4
				s6.5,2.9,6.5,6.4S35.4,38.4,31.8,38.4z M10.6,23.5C7,25.6,4.5,29,3.5,32.9c-0.1,0.4,0.2,0.9,0.6,1c0.1,0,0.1,0,0.2,0
				c0.4,0,0.7-0.2,0.8-0.6c0.9-3.5,3.2-6.5,6.3-8.4c0.4-0.2,0.5-0.7,0.3-1.1C11.5,23.4,11,23.3,10.6,23.5z M18.5,21.4
				c-1.2,0-2.4,0.1-3.6,0.4c-0.4,0.1-0.7,0.5-0.6,1c0.1,0.4,0.4,0.6,0.8,0.6c0.1,0,0.1,0,0.2,0c1-0.2,2.1-0.4,3.2-0.4
				c0.5,0,0.8-0.4,0.8-0.8S18.9,21.4,18.5,21.4z M35.2,31.4h-2.5v-2.5c0-0.4-0.4-0.8-0.8-0.8c-0.5,0-0.8,0.4-0.8,0.8v2.5h-2.5
				c-0.5,0-0.8,0.4-0.8,0.8c0,0.4,0.4,0.8,0.8,0.8H31v2.5c0,0.4,0.4,0.8,0.8,0.8c0.5,0,0.8-0.4,0.8-0.8V33h2.5
				c0.5,0,0.8-0.4,0.8-0.8C36,31.7,35.6,31.4,35.2,31.4z"/>
		</g>
	</g>
</g>
</svg>
