<?xml version="1.0" encoding="utf-8"?>
<!-- Generator: Adobe Illustrator 18.0.0, SVG Export Plug-In . SVG Version: 6.00 Build 0)  -->
<!DOCTYPE svg PUBLIC "-//W3C//DTD SVG 1.1//EN" "http://www.w3.org/Graphics/SVG/1.1/DTD/svg11.dtd">
<svg version="1.1" id="Layer_1" xmlns="http://www.w3.org/2000/svg" xmlns:xlink="http://www.w3.org/1999/xlink" x="0px" y="0px"
	 viewBox="0 0 380 380" enable-background="new 0 0 380 380" xml:space="preserve">
<path fill="#FFFFFF" d="M277.8,247.6H144.1c-2.8,0-5-2.3-5-5v-17.7c0-2.8,2.3-5,5-5h133.7c2.8,0,5,2.3,5,5v17.7
	C282.8,245.3,280.5,247.6,277.8,247.6z"/>
<path fill="#FFFFFF" d="M275.7,195.9H169.7c-2.8,0-5-2.3-5-5v-17.7c0-2.8,2.3-5,5-5h105.9c2.8,0,5,2.3,5,5v17.7
	C280.7,193.7,278.4,195.9,275.7,195.9z"/>
<path fill="#FFFFFF" d="M275.7,144.5h-73.6c-2.8,0-5-2.3-5-5v-17.7c0-2.8,2.3-5,5-5h73.6c2.8,0,5,2.3,5,5v17.7
	C280.7,142.2,278.4,144.5,275.7,144.5z"/>
<path fill="#EFEFEF" d="M-419-8"/>
<g>
	<linearGradient id="SVGID_1_" gradientUnits="userSpaceOnUse" x1="12.3601" y1="274.4199" x2="367.1803" y2="274.4199">
		<stop  offset="0" style="stop-color:#000000"/>
		<stop  offset="0.2057" style="stop-color:#303030"/>
		<stop  offset="0.6704" style="stop-color:#A7A7A7"/>
		<stop  offset="1" style="stop-color:#FFFFFF"/>
	</linearGradient>
	<path fill="url(#SVGID_1_)" stroke="#FFFFFF" stroke-miterlimit="10" d="M319.5,204.1c0,71.2-58.2,128.9-129.9,128.9
		S62.3,269,62.3,197.8c0-12.2-3.4,2.4-0.2-8.8l-36.1-11.3c-6.8,11.9-13.7,14.4-13.7,26.4c0,97.1,79.4,175.9,177.3,175.9
		s177.3-78.8,177.3-175.9c0-12.1,0-12.1,0.2-35.3h-47.5C320.1,192.3,319.5,191.9,319.5,204.1z"/>
</g>
<path fill="#FFFFFF" d="M12.1,210.4c0,0,2.5-25.2,18.5-28.3s39.5,20.2,75.8,59.2c1.9,1.7,5.7,6.3,5.7,6.3S194.8,92.6,229.9,59.9
	c0,0,37.9-45.7,69.1-41.9c0,0-15.6-18.6-79.3,26.8S104.4,177.7,104.4,177.7l-35-21.4c0,0-18.5-4.4-49,23.3
	C20.4,179.5,11.4,187.1,12.1,210.4z"/>
</svg>
