<?xml version="1.0" encoding="utf-8"?>
<!-- Generator: Adobe Illustrator 23.0.1, SVG Export Plug-In . SVG Version: 6.00 Build 0)  -->
<svg version="1.1" id="Layer_1" xmlns="http://www.w3.org/2000/svg" xmlns:xlink="http://www.w3.org/1999/xlink" x="0px" y="0px"
	 viewBox="0 0 40 40" style="enable-background:new 0 0 40 40;" xml:space="preserve">
<style type="text/css">
	.st0{fill:#3A3A3A;}
</style>
<g>
	<path class="st0" d="M40,2.7c0-0.8-0.3-1.4-0.8-2C38.7,0.3,38,0,37.3,0c-2.2,0-4.5,0-7.4,0c-2.2,0-4.3,0-6.5,0l-2.9,0
		c-0.4,0-0.6,0.1-0.9,0.4C17.2,2.8,15.1,4.9,13,7c-0.5,0.5-0.6,0.9-0.6,1.5c0.1,1,0,2,0,2.9c0,0.4,0,0.8,0,1.2v0.1
		c0,0.1,0,0.2,0,0.3c0,0.4,0.3,0.6,0.7,0.7c0,0,0,0,0.1,0c0.4,0,0.7-0.2,0.7-0.6c0-0.1,0-0.3,0-0.5c0-0.8,0-1.7,0-2.5l0-1.4h4.4
		c1.6,0,2.7-1,2.7-2.7l0-4.5l0.3,0c0.1,0,0.2,0,0.3,0l15.6,0c0.9,0,1.2,0.3,1.2,1.2v27.1c0,0.9-0.3,1.2-1.2,1.2l-12.3,0
		c-0.3,0-0.6,0.1-0.7,0.2c-0.1,0.1-0.2,0.3-0.2,0.5c0,0.4,0.3,0.7,0.7,0.8c0.1,0,0.1,0,0.2,0l12.4,0c1.7,0,2.7-1,2.7-2.7
		c0-2.4,0-4.8,0-7.3C40,16.2,40,9.4,40,2.7z M19.5,6.3c0,0.5-0.4,0.9-0.8,0.9c-0.5,0-0.9,0-1.4,0c-0.3,0-2.3,0-2.3,0l4.5-4.3l0,1.1
		C19.5,4.8,19.5,5.6,19.5,6.3z"/>
	<path class="st0" d="M35,13.8c-0.2-0.2-0.4-0.3-0.6-0.3l-0.7,0c-0.8,0-1.5,0-2.3,0l-2.7,0c-1.1,0-2.2,0-3.3,0
		c-0.5,0-0.8,0.2-0.9,0.7c0,0.3,0,0.5,0.2,0.6c0.1,0.2,0.4,0.3,0.7,0.3c0.6,0,1.3,0,1.9,0l2.5,0v0l2.8,0c0.6,0,1.3,0,1.9,0
		c0.5,0,0.8-0.3,0.9-0.7C35.2,14.2,35.2,14,35,13.8z"/>
	<path class="st0" d="M35,10.1c-0.2-0.2-0.4-0.3-0.6-0.3l-0.7,0c-0.7,0-1.5,0-2.2,0l-1.3,0c-0.6,0-1.7,0-2.8,0c-1.8,0-3.9,0-4.9,0
		c-0.5,0-0.8,0.2-0.9,0.7c0,0.3,0,0.5,0.2,0.6c0.1,0.2,0.4,0.3,0.7,0.3c0.6,0,1.8,0,3.1,0l4.2,0v0l2.8,0c0.6,0,1.3,0,1.9,0
		c0.5,0,0.8-0.3,0.9-0.7C35.2,10.4,35.2,10.2,35,10.1z"/>
	<path class="st0" d="M34.3,18c-0.4,0-0.9,0-1.3,0h-3.8c-0.4,0-0.9,0-1.3,0c-0.5,0-0.9,0.3-0.9,0.8c0,0.2,0.1,0.4,0.2,0.6
		c0.2,0.2,0.4,0.2,0.7,0.2c1.1,0,2.2,0,3.2,0c1.1,0,2.2,0,3.2,0c0.3,0,0.5-0.1,0.7-0.2c0.1-0.1,0.2-0.3,0.2-0.5
		C35.1,18.3,34.8,18,34.3,18z"/>
	<path class="st0" d="M24.7,29.1c0-1.1,0-2,0-2.8c0-0.8-0.6-1.3-1.3-1.3l0,0c-0.2,0-0.3,0-0.5,0c-0.2,0-0.3,0-0.5,0
		c-0.1,0-0.1,0-0.1-0.1c-0.2-0.7-0.5-1.4-0.9-2.1c0-0.1,0-0.1,0-0.2c0.1-0.1,0.1-0.1,0.2-0.2c0.1-0.1,0.3-0.3,0.4-0.4
		c0.3-0.3,0.5-0.6,0.5-1c0-0.4-0.2-0.7-0.5-1c-0.6-0.6-1.2-1.2-1.9-1.9c-0.3-0.3-0.6-0.4-1-0.4c-0.4,0-0.7,0.2-1,0.4
		c-0.2,0.2-0.3,0.3-0.5,0.5l-0.2,0.2c0,0,0,0-0.1,0c0,0,0,0-0.1,0c-0.7-0.4-1.4-0.7-2.1-0.9c-0.1,0-0.1,0-0.1-0.1c0-0.3,0-0.6,0-0.9
		l0-0.1c0-0.8-0.5-1.3-1.3-1.3c-0.5,0-1,0-1.4,0c-0.5,0-0.9,0-1.4,0c-0.8,0-1.3,0.5-1.3,1.4c0,0.2,0,0.4,0,0.6c0,0.1,0,0.3,0,0.4
		c0,0.1,0,0.1-0.1,0.2C8.8,18,8,18.3,7.4,18.7c-0.1,0-0.1,0-0.1,0c0,0,0,0,0,0C7,18.5,6.8,18.3,6.5,18c-0.3-0.3-0.6-0.5-1-0.5
		c-0.3,0-0.7,0.1-0.9,0.4c-0.6,0.6-1.2,1.2-2,2c-0.3,0.3-0.4,0.6-0.4,1c0,0.4,0.2,0.7,0.4,1C2.8,22,3,22.2,3.1,22.3
		c0,0,0.2,0.2,0.2,0.2c0,0,0,0,0,0.1c-0.4,0.7-0.7,1.4-0.9,2.1c0,0.1,0,0.1-0.2,0.1c-0.3,0-0.6,0-0.8,0l-0.2,0
		c-0.7,0-1.3,0.6-1.3,1.2c0,1,0,2,0,2.9c0,0.7,0.6,1.3,1.3,1.3c0.2,0,0.3,0,0.5,0c0.2,0,0.3,0,0.5,0c0.1,0,0.1,0,0.1,0.1
		c0.2,0.7,0.5,1.4,0.9,2.2c0,0.1,0,0.1,0,0.1c-0.1,0.1-0.1,0.1-0.2,0.2c-0.1,0.1-0.3,0.3-0.5,0.5c-0.3,0.3-0.4,0.6-0.4,1
		c0,0.4,0.1,0.7,0.4,1c0.5,0.5,1,1,1.5,1.5l0.5,0.5c0.3,0.3,0.6,0.4,1,0.4c0.4,0,0.7-0.2,1-0.4c0.1-0.1,0.3-0.3,0.4-0.4
		c0.1-0.1,0.2-0.2,0.3-0.3c0,0,0.1,0,0.1,0c0,0,0,0,0.1,0c0.7,0.4,1.5,0.7,2.1,0.9c0.1,0,0.1,0,0.1,0.1c0,0.3,0,0.5,0,0.8l0,0.2
		c0,0.8,0.5,1.3,1.3,1.3c0.2,0,0.4,0,0.5,0l2.3,0c0.7,0,1.3-0.6,1.3-1.3c0-0.3,0-0.7,0-1c0-0.1,0-0.1,0.1-0.1
		c0.7-0.2,1.4-0.5,2.2-0.9c0,0,0.1,0,0.1,0c0,0,0,0,0,0l0.2,0.2c0.2,0.2,0.4,0.3,0.5,0.5c0.3,0.3,0.6,0.5,1,0.5c0.3,0,0.7-0.1,1-0.4
		l2-2c0.3-0.3,0.4-0.6,0.4-1c0-0.4-0.2-0.7-0.4-1c-0.2-0.2-0.5-0.4-0.6-0.6c-0.1-0.1-0.1-0.1,0-0.2c0.4-0.7,0.7-1.4,0.9-2.1
		c0-0.1,0.1-0.1,0.2-0.1c0.1,0,0.3,0,0.5,0c0.2,0,0.4,0,0.5,0C24.1,30.4,24.7,29.8,24.7,29.1z M23.3,29C23.3,29,23.3,29,23.3,29
		c0,0-0.5,0-0.5,0c-0.2,0-0.5,0-0.7,0c-0.6,0.1-1,0.4-1.2,1c-0.2,0.7-0.5,1.4-0.8,1.9c-0.3,0.6-0.2,1.3,0.3,1.7
		c0.1,0.1,0.2,0.2,0.3,0.3c0.1,0.1,0.2,0.2,0.3,0.3c0,0,0,0,0,0c0,0,0,0,0,0c-0.6,0.6-1.3,1.3-1.9,1.9c0,0,0,0,0,0c0,0,0,0,0,0
		c-0.1-0.1-0.2-0.2-0.3-0.3l0,0c-0.1-0.1-0.2-0.2-0.3-0.3c-0.3-0.3-0.7-0.5-1.1-0.5c-0.2,0-0.5,0.1-0.7,0.2
		c-0.5,0.3-1.1,0.6-1.8,0.8c-0.7,0.2-1.1,0.7-1.1,1.5l0,0.4c0,0.2,0,0.3,0,0.5c0,0,0,0,0,0c0,0-0.4,0-0.6,0l-1.6,0c0,0-0.6,0-0.6,0
		c0,0,0,0,0,0c0-0.1,0-0.2,0-0.4c0-0.3,0-0.6,0-0.8c-0.1-0.6-0.4-1-0.9-1.1c-0.8-0.3-1.5-0.5-2.1-0.9c-0.2-0.1-0.4-0.2-0.6-0.2
		c-0.4,0-0.8,0.2-1,0.4L6,36c-0.2,0.1-0.3,0.3-0.5,0.5c0,0,0,0,0,0c0,0,0,0,0,0c-0.6-0.6-1.2-1.2-1.9-1.9c0,0,0,0,0,0c0,0,0,0,0,0
		c0.1-0.1,0.2-0.2,0.4-0.4L3.9,34l0.1,0c0.1-0.1,0.2-0.2,0.3-0.3c0.5-0.5,0.6-1.2,0.3-1.8c-0.3-0.6-0.6-1.2-0.8-1.9
		C3.5,29.4,3,29.1,2.3,29c0,0-0.4,0-0.5,0c-0.2,0-0.3,0-0.5,0c0,0,0,0,0,0c0,0,0,0,0,0c0-0.9,0-1.8,0-2.7c0,0,0,0,0,0
		c0,0,0.5,0,0.5,0c0.2,0,0.4,0,0.7,0c0.6-0.1,1-0.4,1.2-1c0.2-0.8,0.5-1.4,0.8-2c0.3-0.6,0.2-1.3-0.3-1.7c-0.1-0.1-0.2-0.2-0.3-0.3
		c-0.1-0.1-0.2-0.2-0.4-0.4c0,0,0,0,0,0c0,0,0,0,0,0c0.6-0.6,1.3-1.3,1.9-1.9c0,0,0,0,0,0c0,0,0.2,0.2,0.2,0.2
		c0.2,0.2,0.5,0.5,0.7,0.7C6.7,20,7,20.1,7.3,20.1c0.2,0,0.5-0.1,0.7-0.2c0.6-0.3,1.2-0.6,1.9-0.8c0.7-0.2,1.1-0.7,1.1-1.5l0-0.3
		c0-0.2,0-0.4,0-0.6c0,0,0,0,0,0c0,0,0,0,0,0c0.4,0,0.8,0,1.3,0c0.5,0,1,0,1.5,0c0,0,0,0,0,0c0,0,0,0,0,0c0,0.3,0,0.5,0,0.8l0,0.2
		c0,0.7,0.4,1.2,1.1,1.5c0.7,0.2,1.3,0.5,1.9,0.8c0.2,0.1,0.5,0.2,0.7,0.2c0.4,0,0.8-0.2,1.1-0.5c0.1-0.1,0.2-0.2,0.3-0.4l0,0
		c0.1-0.1,0.2-0.2,0.3-0.3c0,0,0,0,0,0c0,0,0,0,0,0c0.7,0.7,1.3,1.3,2,2c-0.2,0.2-0.4,0.4-0.5,0.5l-0.2,0.2
		c-0.5,0.5-0.6,1.1-0.3,1.7c0.3,0.6,0.6,1.2,0.8,1.9c0.2,0.7,0.7,1,1.4,1.1c0.2,0,0.4,0,0.5,0c0.2,0,0.3,0,0.4,0c0,0,0,0,0,0
		c0,0,0,0,0,0C23.3,27.2,23.3,28.2,23.3,29z"/>
	<path class="st0" d="M10.1,25.7c-0.2-0.5-0.5-0.8-1.1-0.8c-0.2,0-0.5,0.1-0.6,0.2c-0.2,0.1-0.3,0.3-0.4,0.6l-1.4,4
		c0,0.1,0,0.1,0,0.2c0,0.2,0.1,0.3,0.2,0.4c0.1,0.1,0.2,0.2,0.4,0.2c0.1,0,0.2,0,0.3-0.1c0.1-0.1,0.2-0.2,0.2-0.3L8,28.9h2l0.4,1.2
		c0,0.1,0.1,0.2,0.2,0.3c0.1,0.1,0.2,0.1,0.3,0.1c0.2,0,0.3-0.1,0.4-0.2c0.1-0.1,0.2-0.3,0.2-0.4c0-0.1,0-0.2,0-0.2L10.1,25.7z
		 M8.4,27.8L9,26.1c0,0,0,0,0.1,0c0,0,0,0,0.1,0l0.6,1.7H8.4z"/>
	<path class="st0" d="M14.4,25h-1.5c-0.2,0-0.4,0.1-0.6,0.2c-0.1,0.1-0.2,0.3-0.2,0.5v4.1c0,0.2,0.1,0.3,0.2,0.4
		c0.1,0.1,0.3,0.2,0.4,0.2c0.2,0,0.3-0.1,0.4-0.2c0.1-0.1,0.2-0.3,0.2-0.4v-1.1h1c0.6,0,1.1-0.2,1.4-0.5c0.4-0.3,0.6-0.8,0.6-1.4
		c0-0.6-0.2-1-0.6-1.3C15.4,25.1,14.9,25,14.4,25z M14.3,27.5h-1v-1.4h1c0.5,0,0.8,0.2,0.8,0.7C15.1,27.3,14.8,27.5,14.3,27.5z"/>
	<path class="st0" d="M17.6,24.9c-0.2,0-0.3,0.1-0.4,0.2C17,25.2,17,25.4,17,25.5v4.3c0,0.2,0.1,0.3,0.2,0.4
		c0.1,0.1,0.3,0.2,0.4,0.2c0.2,0,0.3-0.1,0.4-0.2c0.1-0.1,0.2-0.3,0.2-0.4v-4.3c0-0.2-0.1-0.3-0.2-0.4C17.9,25,17.7,24.9,17.6,24.9z
		"/>
</g>
</svg>
