<?xml version="1.0" encoding="utf-8"?>
<!-- Generator: Adobe Illustrator 23.0.1, SVG Export Plug-In . SVG Version: 6.00 Build 0)  -->
<svg version="1.1" id="Layer_1" xmlns="http://www.w3.org/2000/svg" xmlns:xlink="http://www.w3.org/1999/xlink" x="0px" y="0px"
	 viewBox="0 0 40 40" style="enable-background:new 0 0 40 40;" xml:space="preserve">
<style type="text/css">
	.st0{fill:#3A3A3A;}
</style>
<g>
	<path class="st0" d="M37.4,7.5h-2.3V6.2c0-1.3-1.1-2.4-2.4-2.4c-1.3,0-2.4,1.1-2.4,2.4v1.3h-5.5V6.2c0-1.3-1.1-2.4-2.4-2.4
		s-2.4,1.1-2.4,2.4v1.3h-3.4c-1-3.7-4.4-6.2-8.2-6.2C3.8,1.3,0,5.2,0,9.9c0,3.5,2,6.5,5.2,7.9v18.4c0,1.4,1.1,2.6,2.6,2.6h29.6
		c1.4,0,2.6-1.1,2.6-2.6v-26C40,8.7,38.9,7.5,37.4,7.5z M32.1,6.2c0-0.4,0.3-0.7,0.7-0.7c0.4,0,0.7,0.3,0.7,0.7V11
		c0,0.4-0.3,0.7-0.7,0.7c-0.4,0-0.7-0.3-0.7-0.7V6.2z M21.8,6.2c0-0.4,0.3-0.7,0.7-0.7c0.4,0,0.7,0.3,0.7,0.7V11
		c0,0.4-0.3,0.7-0.7,0.7c-0.4,0-0.7-0.3-0.7-0.7V6.2z M1.7,9.9C1.7,6.1,4.7,3,8.5,3c3.8,0,6.8,3.1,6.8,6.8c0,3.8-3.1,6.8-6.8,6.8
		C4.7,16.7,1.7,13.6,1.7,9.9z M38.3,36.1c0,0.5-0.4,0.9-0.9,0.9H7.8c-0.5,0-0.9-0.4-0.9-0.9V18.2c0.5,0.1,1.1,0.2,1.6,0.2
		c4.7,0,8.5-3.8,8.5-8.5c0-0.2,0-0.4,0-0.6h3.1V11c0,1.3,1.1,2.4,2.4,2.4s2.4-1.1,2.4-2.4V9.2h5.5V11c0,1.3,1.1,2.4,2.4,2.4
		c1.3,0,2.4-1.1,2.4-2.4V9.2h2.3c0.5,0,0.9,0.4,0.9,0.9V36.1z"/>
	<path class="st0" d="M11.9,14.8c0.2,0,0.4-0.1,0.6-0.2c0.2-0.2,0.3-0.4,0.3-0.6c0-0.2-0.1-0.4-0.2-0.6l-3.1-3.3V5.8
		c0-0.5-0.4-0.8-0.8-0.8c-0.5,0-0.8,0.4-0.8,0.8v5l3.6,3.7C11.4,14.7,11.7,14.8,11.9,14.8z"/>
	<path class="st0" d="M17.8,17.4c0.5,0,0.8-0.4,0.8-0.8v-1.6c0-0.5-0.4-0.8-0.8-0.8S17,14.5,17,14.9v1.6C17,17,17.3,17.4,17.8,17.4z
		"/>
	<path class="st0" d="M21.3,17.4c0.5,0,0.8-0.4,0.8-0.8v-1.6c0-0.5-0.4-0.8-0.8-0.8s-0.8,0.4-0.8,0.8v1.6
		C20.5,17,20.8,17.4,21.3,17.4z"/>
	<path class="st0" d="M24.8,17.4c0.5,0,0.8-0.4,0.8-0.8v-1.6c0-0.5-0.4-0.8-0.8-0.8S24,14.5,24,14.9v1.6C24,17,24.3,17.4,24.8,17.4z
		"/>
	<path class="st0" d="M28.3,17.4c0.5,0,0.8-0.4,0.8-0.8v-1.6c0-0.5-0.4-0.8-0.8-0.8s-0.8,0.4-0.8,0.8v1.6
		C27.5,17,27.8,17.4,28.3,17.4z"/>
	<path class="st0" d="M31.8,17.4c0.5,0,0.8-0.4,0.8-0.8v-1.6c0-0.5-0.4-0.8-0.8-0.8S31,14.5,31,14.9v1.6C31,17,31.3,17.4,31.8,17.4z
		"/>
	<path class="st0" d="M35.3,14.1c-0.5,0-0.8,0.4-0.8,0.8v1.6c0,0.5,0.4,0.8,0.8,0.8s0.8-0.4,0.8-0.8v-1.6
		C36.1,14.5,35.8,14.1,35.3,14.1z"/>
	<path class="st0" d="M34.9,33.2H10.3c-0.5,0-0.8,0.4-0.8,0.8s0.4,0.8,0.8,0.8h24.6c0.5,0,0.8-0.4,0.8-0.8S35.4,33.2,34.9,33.2z"/>
	<path class="st0" d="M15.7,24.3l3.3,2.4l-1.2,3.8c-0.1,0.4,0,0.9,0.4,1.1c0.2,0.1,0.4,0.2,0.6,0.2s0.4-0.1,0.6-0.2l3.3-2.4l3.3,2.4
		c0.2,0.1,0.4,0.2,0.6,0.2c0.2,0,0.4-0.1,0.6-0.2c0.4-0.3,0.5-0.7,0.4-1.1l-1.2-3.8l3.3-2.4c0.4-0.3,0.5-0.7,0.4-1.1
		c-0.1-0.4-0.5-0.7-1-0.7h-4l-1.2-3.8c-0.1-0.4-0.5-0.7-1-0.7c-0.4,0-0.8,0.3-1,0.7l-1.2,3.8h-4c-0.4,0-0.8,0.3-1,0.7
		C15.2,23.6,15.4,24.1,15.7,24.3z M20.8,24.2c0.4,0,0.8-0.3,1-0.7l0.8-2.4l0.8,2.4c0.1,0.4,0.5,0.7,1,0.7h2.5l-2,1.5
		c-0.4,0.3-0.5,0.7-0.4,1.1l0.8,2.4l-2-1.5c-0.2-0.1-0.4-0.2-0.6-0.2c-0.2,0-0.4,0.1-0.6,0.2l-2,1.5l0.8-2.4c0.1-0.4,0-0.9-0.4-1.1
		l-2-1.5H20.8z"/>
</g>
</svg>
