<?xml version="1.0" encoding="utf-8"?>
<!-- Generator: Adobe Illustrator 23.0.1, SVG Export Plug-In . SVG Version: 6.00 Build 0)  -->
<svg version="1.1" id="Layer_1" xmlns="http://www.w3.org/2000/svg" xmlns:xlink="http://www.w3.org/1999/xlink" x="0px" y="0px"
	 viewBox="0 0 40 40" style="enable-background:new 0 0 40 40;" xml:space="preserve">
<style type="text/css">
	.st0{fill:#3A3A3A;}
</style>
<g>
	<path class="st0" d="M40,3c0-0.8-0.3-1.6-0.9-2.2C38.6,0.3,37.8,0,37,0c-2.5,0-5.1,0-8.2,0c-2.4,0-4.8,0-7.2,0l-3.2,0
		c-0.4,0-0.7,0.1-1,0.4c-2.6,2.6-4.9,5-7.3,7.4c-0.5,0.5-0.7,1-0.7,1.6c0.1,1.1,0,2.2,0,3.3c0,0.5,0,0.9,0,1.4v0.1
		c0,0.1,0,0.3,0,0.4c0,0.4,0.4,0.7,0.8,0.7c0,0,0,0,0.1,0c0.4,0,0.7-0.3,0.8-0.6c0-0.2,0-0.3,0-0.5c0-0.9,0-1.8,0-2.8l0-1.6H16
		c1.8,0,2.9-1.2,2.9-3l0-5l0.3,0c0.1,0,0.2,0,0.3,0l17.3,0c1,0,1.4,0.3,1.4,1.4v30.1c0,1-0.4,1.4-1.3,1.4l-13.6,0
		c-0.4,0-0.6,0.1-0.8,0.3c-0.1,0.1-0.2,0.3-0.2,0.6c0,0.5,0.3,0.8,0.8,0.8c0.1,0,0.1,0,0.2,0l13.8,0c1.9,0,3-1.1,3-3
		c0-2.7,0-5.4,0-8.1C40,18,40,10.4,40,3z M17.2,7c0,0.5-0.4,1-0.9,1c-0.5,0-1,0-1.6,0c-0.3,0-2.5,0-2.5,0l5-4.8l0,1.3
		C17.2,5.3,17.2,6.2,17.2,7z"/>
	<path class="st0" d="M34.5,15.4c-0.2-0.2-0.4-0.3-0.7-0.3l-0.8,0c-0.9,0-1.7,0-2.6,0l-3,0c-1.2,0-2.5,0-3.7,0c-0.5,0-0.9,0.3-1,0.7
		c0,0.3,0,0.5,0.2,0.7c0.2,0.2,0.4,0.3,0.7,0.3c0.7,0,1.4,0,2.1,0l2.7,0v0l3.1,0c0.7,0,1.4,0,2.1,0c0.6,0,0.9-0.3,1-0.8
		C34.7,15.7,34.6,15.5,34.5,15.4z"/>
	<path class="st0" d="M34.5,11.2c-0.2-0.2-0.4-0.3-0.7-0.3l-0.8,0c-0.8,0-1.6,0-2.4,0l-1.5,0c-0.7,0-1.9,0-3.1,0c-2,0-4.3,0-5.4,0
		c-0.5,0-0.9,0.3-1,0.7c0,0.3,0,0.5,0.2,0.7c0.2,0.2,0.4,0.3,0.7,0.3c0.7,0,2,0,3.4,0l4.7,0v0l3.1,0c0.7,0,1.4,0,2.1,0
		c0.6,0,0.9-0.3,1-0.8C34.7,11.6,34.6,11.4,34.5,11.2z"/>
	<path class="st0" d="M33.6,20c-0.5,0-1,0-1.5,0H28c-0.5,0-1,0-1.5,0c-0.6,0-1,0.3-1,0.8c0,0.3,0.1,0.5,0.2,0.6
		c0.2,0.2,0.4,0.3,0.7,0.3c1.2,0,2.4,0,3.6,0c1.2,0,2.4,0,3.6,0c0.3,0,0.6-0.1,0.7-0.3c0.2-0.2,0.2-0.4,0.2-0.6
		C34.6,20.3,34.2,20,33.6,20z"/>
	<path class="st0" d="M19.3,20.9c-2.1-2.1-4.9-3.3-7.8-3.4l-0.2,0c-6.1,0-11.1,5-11.2,11c0,3,1.1,5.9,3.2,8.1c2.1,2.2,5,3.4,8,3.4h0
		c6.1,0,11.1-5,11.2-11C22.5,25.9,21.4,23.1,19.3,20.9z M8.2,19.5C7.6,20.4,7.2,21.2,7,22c-0.6-0.3-1.1-0.6-1.6-1
		C6.2,20.3,7.2,19.9,8.2,19.5z M10.5,24.4V28H7.4c0.1-1.5,0.2-2.8,0.5-4.1C8.7,24.2,9.6,24.4,10.5,24.4z M4.2,22
		c0.7,0.6,1.5,1,2.3,1.4c-0.4,1.5-0.6,3-0.6,4.6H1.5C1.4,26.5,2.8,23.3,4.2,22z M1.5,29.5h4.4c0,0,0,0.1,0,0.1c0,0.3,0,0.6,0.1,0.9
		c0.1,0.8,0.2,1.7,0.3,2.5l0.1,0.5c-0.9,0.4-1.7,1-2.5,1.7C2.4,33.5,1.7,31.6,1.5,29.5z M4.9,36.1c0.5-0.4,1.3-1,1.9-1.3
		C7,35.9,7.5,37,8.2,38C6.9,37.6,5.9,37,4.9,36.1z M10.5,38.3l-0.1-0.1c-0.3-0.2-0.5-0.4-0.7-0.6c-0.8-1-1.3-2.2-1.6-3.3
		c0.8-0.3,1.6-0.4,2.4-0.5V38.3z M10.5,32.3c-1,0.1-1.9,0.2-2.8,0.5c-0.2-1-0.3-2.1-0.4-3.3h3.1V32.3z M10.5,22.9
		c-0.7,0-1.5-0.2-2.2-0.4l0,0c0.1-0.2,0.2-0.5,0.3-0.7c0.4-0.9,0.8-1.6,1.3-2.1c0.2-0.2,0.4-0.3,0.6-0.4V22.9z M20.9,28h-4.4
		c0-1.6-0.2-3.2-0.6-4.6c0.8-0.4,1.6-0.8,2.3-1.4C19.9,23.7,20.7,25.7,20.9,28z M17.1,21c-0.4,0.3-1.1,0.8-1.6,1
		c-0.3-0.8-0.6-1.6-1.2-2.5C15.3,19.9,16.2,20.3,17.1,21z M15.1,28H12v-3.6c0.9-0.1,1.8-0.2,2.6-0.5C14.9,25.2,15,26.5,15.1,28z
		 M12,19.2l0.1,0.1c0.3,0.2,0.5,0.4,0.7,0.6c0.6,0.8,1,1.7,1.3,2.6c-0.7,0.2-1.4,0.4-2.2,0.4V19.2z M12,29.5h3.1
		c0,1.2-0.2,2.3-0.4,3.3c-0.9-0.3-1.8-0.5-2.8-0.5V29.5z M12.7,37.7c-0.2,0.3-0.5,0.5-0.7,0.6v-4.5c0.8,0.1,1.6,0.2,2.4,0.5
		c-0.2,0.7-0.4,1.3-0.7,1.9C13.4,36.8,13.1,37.3,12.7,37.7z M14.3,38c0.7-1,1.1-2.1,1.4-3.1c0.7,0.4,1.3,0.8,1.9,1.3
		C16.6,37,15.5,37.6,14.3,38z M18.6,35.1c-0.1-0.1-0.1-0.1-0.2-0.2c-0.7-0.6-1.5-1.1-2.4-1.5c0.3-1.2,0.4-2.6,0.5-3.9h4.4
		C20.8,31.6,20,33.5,18.6,35.1z"/>
</g>
</svg>
