<?xml version="1.0" encoding="utf-8"?>
<!-- Generator: Adobe Illustrator 23.0.1, SVG Export Plug-In . SVG Version: 6.00 Build 0)  -->
<svg version="1.1" id="Layer_1" xmlns="http://www.w3.org/2000/svg" xmlns:xlink="http://www.w3.org/1999/xlink" x="0px" y="0px"
	 viewBox="0 0 40 40" style="enable-background:new 0 0 40 40;" xml:space="preserve">
<style type="text/css">
	.st0{fill:#3A3A3A;}
</style>
<g>
	<g>
		<path class="st0" d="M40,19.2c0-1.2-0.4-2.2-1.3-3c-0.8-0.8-1.9-1.2-3.2-1.2c-1.3,0-2.6,0-4,0l-5.2,0l0-0.9c0-0.9,0-1.8,0-2.8
			c0-0.2-0.1-0.4-0.2-0.5c-2.6-3.1-5.3-6.1-7.9-9.2c-0.1-0.2-0.3-0.2-0.5-0.2c-3.6,0-7.2,0-10.8,0l-4,0c-0.2,0-0.3,0-0.5,0
			C1,1.6,0,2.8,0,4.4v31.2c0,1.8,1.3,3,3,3l7.5,0l12.8,0c0.1,0,0.3,0,0.5,0c1.5-0.2,2.5-1.4,2.5-3c0-0.6,0-2.4,0-2.4s7.4,0,9.2,0
			c0.2,0,0.5,0,0.7,0c2.1-0.2,3.7-2,3.8-4.1C40,25.9,40,22.5,40,19.2z M18.2,5.6c0-0.4,0-0.9,0-1.3l5.7,6.7c-0.4,0-0.8,0-1.1,0
			c-0.5,0-0.9,0-1.4,0c-0.6,0-1.3,0-1.9,0c-0.3,0-0.6-0.1-0.9-0.4c-0.2-0.3-0.4-0.6-0.4-0.9C18.2,8.3,18.2,6.9,18.2,5.6z M23.4,36.8
			c-0.1,0-0.1,0-0.2,0c0,0-15.4,0-20.1,0c-0.3,0-0.5,0-0.8-0.2c-0.3-0.2-0.5-0.5-0.5-0.9c0-0.1,0-0.1,0-0.2v-3.4
			c0-9.2,0-18.4,0-27.6c0-0.4,0.1-0.6,0.2-0.8c0.2-0.3,0.5-0.5,0.9-0.5c0.1,0,0.2,0,0.2,0h13.3l0,1.9c0,1.5,0,3.1,0,4.6
			c0,1.4,0.8,2.5,2.1,2.9c0.3,0.1,0.6,0.1,0.9,0.1c0.9,0,1.7,0,2.6,0l2.5,0V15l-3.3,0c0,0-6.9,0-8.7,0c-1.7,0-3,0.7-3.8,2.2
			c-0.4,0.6-0.5,1.4-0.5,2.2c0,1.2,0,2.5,0,3.7c0,1.9,0,3.7,0,5.6c0,0.5,0.1,0.9,0.2,1.3c0.5,1.8,2.1,3.1,4,3.1c1.4,0,2.8,0,4.2,0
			l8,0c0,0.8,0,1.7,0,2.5C24.5,36.3,24.1,36.8,23.4,36.8z M38.2,28.8c0,1.3-0.9,2.3-2.1,2.5c-0.1,0-0.3,0-0.5,0c0,0-11.8,0-11.8,0
			c-3.7,0-7.4,0-11.1,0c-1.5,0-2.4-1-2.6-2.1c0-0.2,0-0.3,0-0.5c0-3.1,0-6.3,0-9.4c0-1.3,0.8-2.3,2.1-2.5c0.2,0,0.3,0,0.5,0
			c2.7,0,5.5,0,8.2,0l14.8,0c1.3,0,2.3,0.9,2.5,2.2c0,0.1,0,0.3,0,0.4l0,1.3C38.2,23.4,38.2,26.1,38.2,28.8z"/>
		<path class="st0" d="M17.1,27c-0.5-1.1-0.9-2.1-1.4-3.2c0,0,0-0.1-0.1-0.1c-0.6,0-1.2,0-1.8,0c0,0-0.1,0-0.1,0
			c-0.5,1-0.9,2.1-1.4,3.1c-0.3,0.7-0.6,1.4-1,2.2c0,0.1-0.1,0.2-0.1,0.3c0,0,0,0,0,0c0.5,0,1.1,0,1.6,0c0,0,0,0,0.1,0
			c0.1-0.4,0.3-0.7,0.4-1.1c0,0,0-0.1,0.1-0.1c0.8,0,1.7,0,2.5,0c0,0,0.1,0,0.1,0.1c0.1,0.4,0.3,0.7,0.4,1.1c0,0,0,0.1,0.1,0.1
			c0.5,0,1,0,1.5,0c0,0,0,0,0.1,0c0,0,0,0,0-0.1C17.8,28.6,17.5,27.8,17.1,27z M13.9,27.2c0.3-0.7,0.6-1.5,0.9-2.2
			c0.3,0.8,0.6,1.5,0.9,2.2C15,27.2,14.5,27.2,13.9,27.2z"/>
		<path class="st0" d="M29,26c-0.3-0.7-0.6-1.4-0.9-2.1c0,0,0-0.1-0.1-0.1c-0.6,0-1.2,0-1.8,0c0,0-0.1,0-0.1,0.1
			c-0.1,0.3-0.3,0.7-0.5,1c-0.6,1.5-1.3,2.9-1.9,4.4c0,0.1-0.1,0.2-0.1,0.2c0,0,0,0,0,0c0.5,0,1.1,0,1.6,0c0,0,0,0,0.1,0
			c0.1-0.4,0.3-0.7,0.4-1.1c0,0,0-0.1,0.1-0.1c0.8,0,1.7,0,2.5,0c0,0,0.1,0,0.1,0c0.1,0.4,0.3,0.7,0.4,1.1c0,0,0,0,0.1,0
			c0.5,0,1,0,1.6,0c0,0,0,0,0.1,0c0,0,0,0,0,0C30,28.3,29.5,27.1,29,26z M26.2,27.2c0.3-0.7,0.6-1.5,0.9-2.2
			c0.3,0.8,0.6,1.5,0.9,2.2C27.4,27.2,26.8,27.2,26.2,27.2z"/>
		<path class="st0" d="M21,24.7c-0.2-0.2-0.5-0.5-0.7-0.7c-0.3,0.3-0.5,0.5-0.8,0.8c0,0,0-0.1,0-0.1c0-1.3,0-2.7,0-4
			c0-0.1,0-0.3,0-0.4c0-0.2,0.2-0.5,0.4-0.6c0.2-0.1,0.4-0.1,0.6-0.1c0.3,0,0.6,0,0.9,0c0.3,0,0.6,0.1,0.7,0.4
			c0.1,0.1,0.1,0.3,0.1,0.5c0,0.1,0,0.3,0,0.4c0.5,0,1,0,1.5,0c0-0.3,0-0.6-0.1-0.9c-0.1-0.3-0.1-0.5-0.3-0.7
			c-0.2-0.3-0.6-0.5-1-0.6c-0.4-0.1-0.8-0.1-1.2-0.1c-0.3,0-0.6,0-1,0c-0.3,0-0.7,0-1,0.2c-0.5,0.2-0.8,0.5-1,1
			c-0.1,0.3-0.1,0.6-0.1,0.9c0,1.4,0,2.8,0,4.1c0,0,0,0,0,0.1c0,0,0,0,0,0c-0.3-0.3-0.5-0.5-0.8-0.8c-0.2,0.2-0.5,0.5-0.7,0.7
			c0.7,0.7,1.5,1.5,2.2,2.2C19.6,26.1,20.3,25.4,21,24.7z"/>
		<path class="st0" d="M25.1,23.5c-0.7-0.7-1.5-1.5-2.2-2.2c-0.7,0.7-1.5,1.5-2.2,2.2c0.2,0.2,0.5,0.5,0.7,0.7
			c0.3-0.3,0.5-0.5,0.8-0.8c0,0,0,0,0,0.1c0,1.4,0,2.7,0,4.1c0,0.1,0,0.3,0,0.4c0,0.2-0.2,0.4-0.4,0.6c-0.2,0.1-0.3,0.1-0.5,0.1
			c-0.3,0-0.6,0-0.9,0c-0.4,0-0.7-0.2-0.8-0.6c0-0.1,0-0.3,0-0.4c0-0.1,0-0.2,0-0.3c-0.5,0-1,0-1.5,0c0,0.3,0,0.6,0,0.9
			c0.1,0.5,0.4,0.9,0.9,1.2c0.4,0.2,0.8,0.3,1.2,0.3c0.4,0,0.8,0,1.2,0c0.3,0,0.7,0,1-0.1c0.6-0.2,0.9-0.5,1.1-1.1
			c0.1-0.3,0.1-0.6,0.1-0.8c0-1.4,0-2.7,0-4.1c0,0,0,0,0-0.1c0,0,0,0,0,0c0.3,0.3,0.5,0.5,0.8,0.8C24.7,24,24.9,23.7,25.1,23.5z"/>
		<path class="st0" d="M37.1,23.8C37.1,23.8,37.1,23.8,37.1,23.8c-0.6,0-1.2,0-1.8,0c0,0-0.1,0-0.1,0c-0.4,0.5-0.8,1.1-1.2,1.6
			c0,0,0,0.1-0.1,0.1c0,0-0.1-0.1-0.1-0.1c-0.4-0.5-0.8-1.1-1.1-1.6c0,0,0,0-0.1,0c-0.6,0-1.2,0-1.7,0c0,0,0,0-0.1,0c0,0,0,0,0,0
			c0.3,0.4,0.7,0.8,1,1.2c0.4,0.5,0.8,1,1.2,1.4c0,0,0,0.1,0,0.1c-0.1,0.2-0.3,0.4-0.4,0.5c-0.6,0.7-1.2,1.5-1.8,2.2
			c0,0-0.1,0.1-0.1,0.2c0,0,0,0,0,0c0.6,0,1.2,0,1.8,0c0,0,0,0,0.1,0c0.4-0.5,0.7-1,1.1-1.5c0.1-0.1,0.2-0.3,0.3-0.4c0,0,0,0,0,0.1
			c0.4,0.6,0.9,1.2,1.3,1.8c0,0,0,0,0.1,0c0.6,0,1.2,0,1.8,0c0,0,0,0,0,0c-0.8-1-1.6-2-2.4-2.9C35.6,25.6,36.4,24.7,37.1,23.8z"/>
	</g>
</g>
</svg>
