<?xml version="1.0" encoding="utf-8"?>
<!-- Generator: Adobe Illustrator 23.0.1, SVG Export Plug-In . SVG Version: 6.00 Build 0)  -->
<svg version="1.1" id="Layer_1" xmlns="http://www.w3.org/2000/svg" xmlns:xlink="http://www.w3.org/1999/xlink" x="0px" y="0px"
	 viewBox="0 0 40 40" style="enable-background:new 0 0 40 40;" xml:space="preserve">
<style type="text/css">
	.st0{fill:#3A3A3A;}
</style>
<g>
	<path class="st0" d="M37,10.5l0-0.5c0-0.6,0-1.1-0.1-1.6c-0.2-1.4-1.1-2.2-2.5-2.2l-4.4,0c-0.8,0-1.1,0.3-1.1,1.2c0,0,0,2,0,2.4
		c0,0.1,0,0.2,0,0.3l0,0.1l-17.3,0c-0.3,0-0.4,0-0.5-0.1C11,10,11,9.8,11,9.6L11,9c0-0.6,0-1.2,0-1.7c0-0.6-0.4-1-1-1l-0.7,0
		c-0.5,0-1,0-1.5,0c-0.6,0-1.1,0-1.7,0C4.4,6.3,3,7.7,3,9.4c0,9.1,0,18.1,0,27.2C3,38.5,4.5,40,6.4,40c4.4,0,8.8,0,13.2,0l14.9,0
		c1.1,0,1.9-0.5,2.2-1.6c0.2-0.6,0.3-1.3,0.3-1.9C37,27.9,37,19,37,10.5z M35.1,36.5c0,0.4,0,0.8-0.1,1.1c-0.1,0.4-0.2,0.6-0.7,0.6
		l-21.4,0c-2.1,0-4.2,0-6.3,0c-0.7,0-1.1-0.3-1.4-0.8c-0.1-0.2-0.2-0.5-0.2-0.8c0-9,0-18,0-27c0-0.8,0.5-1.3,1.3-1.4
		c0.3,0,0.7,0,1.2,0c0.3,0,0.6,0,0.9,0c0.3,0,0.6,0,0.8,0c0,0.1,0,0.3,0,0.4c0,0.4,0,0.7,0,1.1c0,0.6,0.1,1.2,0.6,1.6
		c0.5,0.5,1.1,0.8,1.9,0.8c1.1,0,2.2,0,3.3,0l4.6,0l9.2,0c1.5,0,2.3-0.7,2.3-2.3V8.1l3.6,0c0.4,0,0.6,0.1,0.6,0.5
		c0,0.3,0.1,0.5,0.1,0.8C35.1,18.4,35.1,27.5,35.1,36.5z"/>
	<path class="st0" d="M13.7,9.3l6.3,0l6.3,0c1,0,1.5-0.5,1.5-1.5c0-0.5,0-1,0-1.6l0-0.6c0-0.9-0.3-1.2-1.2-1.2l-3.2,0
		c0.2-1.5-0.3-2.6-0.8-3.1C21.9,0.5,20.9,0,20,0l-0.1,0c-1,0-1.9,0.4-2.6,1.1c-0.9,0.9-1.2,2-1,3.3l-2,0c-0.4,0-0.9,0-1.3,0
		c-0.6,0-1,0.4-1,0.9c0,0.9,0,1.6,0,2.4C12.1,8.8,12.6,9.3,13.7,9.3z M13.9,6.3L13.9,6.3c0.1,0,0.2,0,0.3,0l1.9,0c0.4,0,0.9,0,1.3,0
		c0.4,0,0.7-0.1,0.9-0.4c0.2-0.2,0.2-0.6,0.1-0.9c0-0.1-0.1-0.3-0.1-0.4c-0.1-0.2-0.1-0.4-0.1-0.6c-0.1-0.8,0.1-1.4,0.8-1.8
		c0.3-0.2,0.6-0.3,0.9-0.3c0.3,0,0.6,0.1,0.9,0.3c0.6,0.4,0.9,1,0.7,1.8c0,0.2-0.1,0.5-0.2,0.7c0,0.1-0.1,0.2-0.1,0.3
		c-0.1,0.4,0,0.7,0.1,0.9c0.2,0.2,0.5,0.4,0.9,0.4c0.5,0,0.9,0,1.4,0l2.2,0v1H13.9V6.3z"/>
	<path class="st0" d="M16.4,17.7c0.2,0.1,0.4,0.1,0.7,0.1c1.4,0,2.7,0,4.1,0l2.8,0v0l5.6,0c0.5,0,1,0,1.6,0c0.4,0,0.7-0.1,0.8-0.3
		c0.2-0.2,0.2-0.4,0.2-0.7c0-0.5-0.5-0.9-1.2-0.9h-11l-1.7,0c-0.4,0-0.9,0-1.3,0c-0.5,0-0.9,0.3-1,0.7C15.8,17.1,16,17.5,16.4,17.7z
		"/>
	<path class="st0" d="M30.9,23l-12.4,0c-0.5,0-1.1,0-1.6,0c-0.4,0-0.7,0.1-0.9,0.4c-0.2,0.2-0.2,0.5-0.1,0.8
		c0.1,0.5,0.5,0.7,1.1,0.7l12,0c0.7,0,1.4,0,2.1,0c0.4,0,0.7-0.2,0.9-0.4c0.2-0.2,0.2-0.5,0.1-0.8C31.9,23.2,31.5,23,30.9,23z"/>
	<path class="st0" d="M31,30.1l-7,0l-0.1,0l-6.8,0v0.1L17,30.1c-0.1,0-0.2,0-0.3,0c-0.4,0.1-0.7,0.4-0.8,0.8c-0.1,0.4,0.2,0.9,0.6,1
		c0.2,0.1,0.3,0.1,0.6,0.1c2.6,0,5.1,0,7.7,0l3.9,0c0.8,0,1.7,0,2.5,0c0.4,0,0.7-0.1,0.9-0.4c0.2-0.2,0.2-0.5,0.2-0.8
		C32,30.3,31.6,30.1,31,30.1z"/>
	<path class="st0" d="M8.1,19.5C8.4,19.9,8.6,20,8.9,20c0.3,0,0.6-0.2,0.8-0.5c0.4-0.5,0.9-1,1.3-1.5l0.6-0.7L12,17
		c0.3-0.3,0.5-0.6,0.8-0.9c0.3-0.3,0.3-0.7,0.1-1.1c-0.2-0.3-0.4-0.5-0.8-0.5c-0.1,0-0.2,0-0.2,0c-0.2,0.1-0.4,0.2-0.6,0.4
		c-0.6,0.7-1.2,1.3-1.8,2L9,17.6l-0.3-0.4c-0.3-0.3-0.5-0.6-0.7-1c-0.2-0.3-0.5-0.5-0.8-0.5c-0.2,0-0.4,0.1-0.6,0.2
		c-0.5,0.3-0.5,0.9-0.1,1.4C7,18.1,7.5,18.8,8.1,19.5z"/>
	<path class="st0" d="M8.2,26c0.2,0.3,0.5,0.4,0.8,0.4c0.3,0,0.5-0.1,0.7-0.4c0.9-1.1,2-2.3,3.1-3.6c0.4-0.4,0.3-1-0.1-1.3
		c-0.2-0.2-0.4-0.2-0.6-0.2c-0.3,0-0.6,0.1-0.8,0.4c-0.1,0.2-0.3,0.3-0.4,0.5L10.7,22L9,24l-0.3-0.4c-0.3-0.4-0.5-0.7-0.8-1
		c-0.2-0.3-0.5-0.4-0.8-0.4c-0.2,0-0.4,0.1-0.6,0.2c-0.2,0.2-0.3,0.4-0.4,0.6c0,0.3,0,0.5,0.2,0.8C7,24.5,7.6,25.3,8.2,26z"/>
	<path class="st0" d="M12.2,27.3c0,0-0.1,0-0.1,0c-0.3,0-0.6,0.1-0.8,0.4c-0.6,0.7-1.1,1.3-1.7,2L9,30.4L8.7,30
		c-0.3-0.4-0.6-0.7-0.9-1.1c-0.2-0.2-0.4-0.4-0.7-0.4c-0.2,0-0.4,0.1-0.6,0.2c-0.4,0.3-0.5,0.9-0.2,1.3c0.7,0.9,1.3,1.7,1.9,2.4
		c0.2,0.2,0.4,0.4,0.7,0.4c0.3,0,0.5-0.1,0.7-0.3c0.9-1,2.1-2.4,3.2-3.8c0.2-0.3,0.3-0.6,0.1-0.9C12.9,27.6,12.6,27.3,12.2,27.3z"/>
</g>
</svg>
