<?xml version="1.0" encoding="utf-8"?>
<!-- Generator: Adobe Illustrator 23.0.1, SVG Export Plug-In . SVG Version: 6.00 Build 0)  -->
<svg version="1.1" id="Layer_1" xmlns="http://www.w3.org/2000/svg" xmlns:xlink="http://www.w3.org/1999/xlink" x="0px" y="0px"
	 viewBox="0 0 40 40" style="enable-background:new 0 0 40 40;" xml:space="preserve">
<style type="text/css">
	.st0{fill:#3A3A3A;}
</style>
<g>
	<path class="st0" d="M8.8,16c0.1,0,0.3,0,0.4,0l0.6,1.3c0.1,0.3,0.5,0.5,0.8,0.5c0.1,0,0.2,0,0.3,0l1.6-0.6
		c0.4-0.2,0.7-0.6,0.6-1.1l-0.3-1.4c0.5-0.3,0.9-0.7,1.3-1.1l1.3,0.5c0.1,0,0.2,0.1,0.3,0.1c0.3,0,0.7-0.2,0.8-0.5l0.8-1.6
		c0.2-0.4,0.1-0.9-0.3-1.2l-1.1-0.7C16,9.7,16,9.1,16,8.5L17.2,8c0.4-0.2,0.6-0.7,0.5-1.1l-0.6-1.6c-0.1-0.4-0.5-0.6-0.9-0.6
		c-0.1,0-0.1,0-0.2,0l-1.2,0.3c-0.3-0.5-0.7-1-1.2-1.4l0.4-1.2c0.2-0.4,0-0.9-0.4-1.1l-1.5-0.8c-0.1-0.1-0.3-0.1-0.4-0.1
		c-0.3,0-0.6,0.2-0.8,0.4l-0.7,1.1C9.8,1.7,9.4,1.7,8.9,1.7c-0.2,0-0.4,0-0.5,0L7.9,0.5C7.7,0.2,7.4,0,7.1,0C7,0,6.9,0,6.8,0
		L5.1,0.6C4.7,0.8,4.4,1.2,4.5,1.7L4.8,3C4.3,3.3,3.9,3.7,3.5,4.2L2.2,3.7C2.1,3.6,2,3.6,1.9,3.6c-0.3,0-0.7,0.2-0.8,0.5L0.3,5.7
		C0.1,6.1,0.3,6.6,0.7,6.9l1.2,0.7C1.7,8.2,1.7,8.7,1.7,9.3L0.5,9.9C0,10.1-0.2,10.6,0,11l0.6,1.6C0.7,13,1,13.3,1.4,13.3
		c0.1,0,0.1,0,0.2,0L3,12.9c0.3,0.5,0.7,0.9,1.1,1.3l-0.5,1.3c-0.2,0.4,0,0.9,0.4,1.1l1.5,0.8c0.1,0.1,0.3,0.1,0.4,0.1
		c0.3,0,0.6-0.2,0.8-0.4l0.7-1.2C7.9,16,8.3,16,8.8,16z M6.8,14.5L6.6,15l-0.8,1.2l-1-0.5l0.5-1.3l0.2-0.5l-0.4-0.3
		c-0.6-0.5-1.1-1-1.4-1.7l-0.3-0.4L3,11.6L1.6,12l-0.4-1.1l1.3-0.6l0.5-0.2L3,9.6C2.9,8.9,3,8.2,3.2,7.4L3.3,7L2.8,6.7L1.6,6l0.5-1
		l1.3,0.5l0.5,0.2l0.3-0.4c0.5-0.6,1-1.1,1.7-1.5l0.4-0.3L6.1,3.1L5.8,1.7l1.1-0.4l0.8,1.7L8.1,3c0.3,0,0.6-0.1,0.8-0.1
		c0.5,0,1,0.1,1.5,0.2l0.4,0.1l1-1.6l1,0.5l-0.7,1.7l0.4,0.3c0.6,0.5,1.1,1.1,1.5,1.7l0.2,0.4l1.8-0.4l0.4,1.1l-1.3,0.6l-0.5,0.2
		l0.1,0.5c0.1,0.8,0,1.5-0.2,2.2l-0.1,0.5l0.5,0.2l1.2,0.8l-0.5,1l-1.3-0.5l-0.5-0.2l-0.3,0.4c-0.5,0.6-1,1.1-1.7,1.4l-0.4,0.3
		l0.2,0.5l0.3,1.4l-1.1,0.4l-0.6-1.3L10,14.7l-0.5,0.1c-0.2,0-0.5,0-0.7,0c-0.5,0-1-0.1-1.4-0.2L6.8,14.5z"/>
	<path class="st0" d="M8.8,12.1C8.8,12.1,8.8,12.1,8.8,12.1c1.2,0,2.3-0.7,2.8-1.8c0.4-0.8,0.4-1.6,0.2-2.4S11,6.5,10.2,6.1
		C9.8,5.9,9.3,5.8,8.8,5.8C7.6,5.8,6.5,6.4,6,7.5C5.2,9.1,5.9,11,7.4,11.8C7.9,12,8.3,12.1,8.8,12.1z M7.2,8.1c0.3-0.6,1-1,1.7-1
		c0.3,0,0.6,0.1,0.8,0.2c0.4,0.2,0.8,0.6,0.9,1.1s0.1,1-0.1,1.4c-0.3,0.6-1,1-1.7,1c-0.3,0-0.6-0.1-0.8-0.2C7.1,10.1,6.7,9,7.2,8.1z
		"/>
	<path class="st0" d="M22.9,12.7c0.1,0.4,0.5,0.6,0.9,0.6h0c0.1,0,0.1,0,0.2,0l1.4-0.3c0.3,0.5,0.7,0.9,1.1,1.3l-0.5,1.3
		c-0.2,0.4,0,0.9,0.4,1.1l1.5,0.8c0.1,0.1,0.3,0.1,0.4,0.1c0.3,0,0.6-0.2,0.8-0.4l0.7-1.2c0.4,0.1,0.9,0.1,1.3,0.1
		c0.1,0,0.3,0,0.4,0l0.6,1.3c0.1,0.3,0.5,0.5,0.8,0.5c0.1,0,0.2,0,0.3,0l1.6-0.6c0.4-0.2,0.7-0.6,0.6-1.1l-0.3-1.4
		c0.5-0.3,0.9-0.7,1.3-1.1l1.3,0.5c0.1,0,0.2,0.1,0.3,0.1c0.3,0,0.7-0.2,0.8-0.5l0.8-1.6c0.2-0.4,0.1-0.9-0.3-1.2l-1.1-0.7
		c0.1-0.6,0.2-1.2,0.1-1.8L39.5,8C40,7.8,40.2,7.3,40,6.8l-0.6-1.6c-0.1-0.4-0.5-0.6-0.9-0.6c-0.1,0-0.1,0-0.2,0l-1.2,0.3
		c-0.3-0.5-0.7-1-1.2-1.4l0.4-1.2c0.2-0.4,0-0.9-0.4-1.1l-1.5-0.8c-0.1-0.1-0.3-0.1-0.4-0.1c-0.3,0-0.6,0.2-0.8,0.4l-0.7,1.1
		c-0.4-0.1-0.9-0.1-1.3-0.1c-0.2,0-0.4,0-0.5,0l-0.5-1.2C30.1,0.2,29.7,0,29.4,0c-0.1,0-0.2,0-0.3,0l-1.6,0.6
		c-0.4,0.2-0.7,0.6-0.6,1.1L27.2,3c-0.5,0.3-0.9,0.7-1.3,1.2l-1.3-0.5c-0.1,0-0.2-0.1-0.3-0.1c-0.3,0-0.7,0.2-0.8,0.5l-0.8,1.6
		c-0.2,0.4-0.1,0.9,0.3,1.2l1.2,0.7c-0.1,0.6-0.1,1.1-0.1,1.7l-1.3,0.6c-0.4,0.2-0.6,0.7-0.5,1.1L22.9,12.7z M28.6,3.5l-0.2-0.5
		l-0.3-1.4l1.1-0.4L30,3.1L30.4,3c0.3,0,0.6-0.1,0.8-0.1c0.5,0,1,0.1,1.5,0.2l0.4,0.1l1-1.6l1,0.5l-0.7,1.7l0.4,0.3
		c0.6,0.5,1.1,1.1,1.5,1.7l0.2,0.4l1.8-0.4l0.4,1.1l-1.3,0.6L37,7.7L37,8.2c0.1,0.8,0,1.5-0.2,2.2l-0.1,0.5l0.5,0.2l1.2,0.8l-0.5,1
		l-1.3-0.5l-0.5-0.2l-0.3,0.4c-0.5,0.6-1,1.1-1.7,1.4l-0.4,0.3l0.2,0.5l0.3,1.4l-1.1,0.4l-0.6-1.3l-0.2-0.5l-0.5,0.1
		c-0.2,0-0.5,0-0.7,0c-0.5,0-1-0.1-1.4-0.2l-0.5-0.1L28.9,15l-0.8,1.2l-1-0.5l0.5-1.3l0.2-0.5l-0.4-0.3c-0.6-0.5-1.1-1-1.4-1.7
		l-0.3-0.4l-0.5,0.2L23.9,12l-0.4-1.1l1.3-0.6l0.5-0.2l-0.1-0.5c-0.1-0.7,0-1.5,0.1-2.2L25.6,7l-0.5-0.2L23.9,6l0.5-1l1.3,0.5
		l0.5,0.2l0.3-0.4c0.5-0.6,1-1.1,1.7-1.5L28.6,3.5z"/>
	<path class="st0" d="M39.4,27.2c-0.1-0.4-0.5-0.6-0.9-0.6c-0.1,0-0.1,0-0.2,0L37,26.9c-0.3-0.5-0.8-1-1.2-1.4l0.5-1.2
		c0.2-0.4,0-0.9-0.5-1.2l-1.5-0.8c-0.1-0.1-0.3-0.1-0.4-0.1c-0.3,0-0.6,0.2-0.8,0.4l-0.7,1.1c-0.4-0.1-0.9-0.1-1.3-0.1
		c-0.2,0-0.4,0-0.5,0L30,22.5c-0.1-0.3-0.5-0.5-0.8-0.5c-0.1,0-0.2,0-0.3,0l-1.7,0.6c-0.5,0.2-0.7,0.6-0.6,1.1l0.3,1.3
		c-0.5,0.3-0.9,0.7-1.3,1.2l-1.3-0.5c-0.1,0-0.2-0.1-0.3-0.1c-0.4,0-0.7,0.2-0.8,0.5l-0.8,1.6c-0.2,0.4-0.1,0.9,0.3,1.2l1.2,0.7
		c-0.1,0.6-0.1,1.2-0.1,1.7L22.5,32c-0.4,0.2-0.6,0.7-0.5,1.1l0.6,1.7c0.1,0.4,0.5,0.6,0.9,0.6c0.1,0,0.1,0,0.2,0L25,35
		c0.3,0.5,0.7,0.9,1.1,1.3l-0.5,1.3c-0.2,0.4,0,0.9,0.5,1.2l1.5,0.8c0.1,0.1,0.3,0.1,0.4,0.1c0.3,0,0.6-0.2,0.8-0.4l0.7-1.2
		c0.4,0.1,0.9,0.1,1.3,0.1c0.1,0,0.3,0,0.4,0l0.6,1.3c0.1,0.3,0.5,0.5,0.8,0.5c0.1,0,0.2,0,0.3,0l1.7-0.6c0.5-0.2,0.7-0.6,0.6-1.1
		L35,36.9c0.5-0.3,0.9-0.7,1.3-1.1l1.3,0.5c0.1,0,0.2,0.1,0.3,0.1c0,0,0,0,0,0c0.4,0,0.7-0.2,0.8-0.5l0.8-1.6
		c0.2-0.4,0.1-0.9-0.3-1.2l-1.2-0.7c0.1-0.6,0.2-1.2,0.1-1.8l1.2-0.6c0.4-0.2,0.6-0.7,0.5-1.1L39.4,27.2z M33.5,36.4l0.2,0.5
		l0.3,1.4L33,38.7l-0.6-1.3l-0.2-0.5l-0.5,0.1c-0.3,0-0.5,0-0.8,0c-0.5,0-1-0.1-1.5-0.2L29,36.6l-0.2,0.5L28,38.3l-1-0.5l0.5-1.3
		l0.2-0.5l-0.4-0.3c-0.6-0.5-1.1-1-1.5-1.7l-0.3-0.4l-0.5,0.2l-1.4,0.3L23.3,33l1.3-0.6l0.5-0.2l-0.1-0.5c-0.1-0.7,0-1.5,0.1-2.2
		l0.1-0.5l-0.5-0.2L23.6,28l0.5-1l1.3,0.5l0.5,0.2l0.3-0.4c0.5-0.6,1-1.1,1.7-1.5l0.4-0.3l-0.2-0.5l-0.3-1.4l1.1-0.4l0.8,1.8
		l0.5-0.1c0.3,0,0.6-0.1,0.8-0.1c0.5,0,1,0.1,1.5,0.2l0.4,0.1l1-1.6l1,0.5l-0.7,1.8l0.4,0.3c0.6,0.5,1.1,1.1,1.5,1.8l0.2,0.4
		l1.9-0.4l0.4,1.1l-1.3,0.6l-0.5,0.2l0.1,0.5c0.1,0.8,0,1.5-0.2,2.3L36.6,33l0.5,0.2l1.2,0.8l-0.5,1l-1.3-0.5L36,34.2l-0.3,0.4
		c-0.5,0.6-1,1.1-1.7,1.5L33.5,36.4z"/>
	<path class="st0" d="M29.8,11.8c0.4,0.2,0.9,0.3,1.4,0.3c0,0,0,0,0,0c1.2,0,2.3-0.7,2.8-1.8c0.4-0.8,0.4-1.6,0.2-2.4
		c-0.3-0.8-0.8-1.4-1.6-1.8c-0.4-0.2-0.9-0.3-1.4-0.3c-1.2,0-2.3,0.7-2.8,1.8C27.6,9.1,28.2,11,29.8,11.8z M32.8,9.7
		c-0.3,0.6-1,1-1.7,1c-0.3,0-0.6-0.1-0.8-0.2C29.4,10.1,29,9,29.5,8.1c0.3-0.6,1-1,1.7-1c0.3,0,0.6,0.1,0.8,0.2
		C32.9,7.7,33.3,8.8,32.8,9.7z"/>
	<rect x="17.8" y="8.2" class="st0" width="4.4" height="1.7"/>
	<path class="st0" d="M20.6,29.6c-0.5-0.2-1-0.4-1.6-0.7c-0.8-0.3-1.6-0.7-2.4-1c-0.1-0.1-0.3-0.1-0.4-0.1c-0.4,0-0.7,0.3-0.7,0.9
		c0,0.2,0,0.5,0,0.7l0,0.1H8.7v-9.4H7.2l0,0.3c0,0.1,0,0.1,0,0.1l0,1.1c0,2.8,0,5.7,0,8.5c0,0.6,0.3,0.9,0.9,0.9l7.3,0
		c0,0,0,0.6,0,0.9c0,0.5,0.3,0.9,0.8,0.9c0.1,0,0.3,0,0.4-0.1c0.7-0.3,1.5-0.6,2.2-0.9c0.6-0.2,1.2-0.5,1.7-0.7
		c0.1-0.1,0.6-0.2,0.6-0.8C21.2,30,21,29.7,20.6,29.6z M17,30.9v-1.2l1.4,0.6L17,30.9z"/>
	<path class="st0" d="M32.9,28.5l-2.5,3.1l-1.2-1.3L28,31.4c0,0,0.5,0.5,0.7,0.7c0.4,0.4,0.8,0.9,1.3,1.3c0.1,0.1,0.3,0.2,0.5,0.2
		c0.2,0,0.4-0.1,0.6-0.3c0.2-0.2,0.3-0.4,0.5-0.6l0.2-0.2l2.4-2.8L32.9,28.5z"/>
	<path class="st0" d="M34.8,27.2c-1-1-2.4-1.6-3.8-1.6c-3,0-5.4,2.4-5.4,5.4c0,1.4,0.6,2.8,1.6,3.8c1,1,2.3,1.6,3.8,1.6h0
		c3,0,5.4-2.4,5.4-5.4C36.4,29.5,35.8,28.2,34.8,27.2z M31,35c-1.1,0-2.1-0.4-2.9-1.2c-0.8-0.8-1.2-1.8-1.2-2.9
		c0-1.1,0.4-2.1,1.2-2.9c0.8-0.8,1.8-1.2,2.9-1.2v-0.2l0,0.2c1.1,0,2.1,0.4,2.9,1.2c0.8,0.8,1.2,1.8,1.2,2.9
		C35.1,33.2,33.3,35,31,35z"/>
</g>
</svg>
