<?xml version="1.0" encoding="utf-8"?>
<!-- Generator: Adobe Illustrator 23.0.1, SVG Export Plug-In . SVG Version: 6.00 Build 0)  -->
<svg version="1.1" id="Layer_1" xmlns="http://www.w3.org/2000/svg" xmlns:xlink="http://www.w3.org/1999/xlink" x="0px" y="0px"
	 viewBox="0 0 40 40" style="enable-background:new 0 0 40 40;" xml:space="preserve">
<style type="text/css">
	.st0{fill:#2C2F33;}
</style>
<g>
	<path class="st0" d="M36.3,10.4c-0.2-0.2-0.4-0.3-0.7-0.3l-0.8,0c-0.8,0-1.6,0-2.5,0l-2.8,0c-1.2,0-2.4,0-3.6,0
		c-0.5,0-0.9,0.3-0.9,0.7c0,0.3,0,0.5,0.2,0.7c0.2,0.2,0.4,0.3,0.7,0.3c0.7,0,1.4,0,2,0l2.6,0v0l2.9,0c0.7,0,1.4,0,2,0
		c0.6,0,0.9-0.3,0.9-0.8C36.5,10.8,36.4,10.6,36.3,10.4z"/>
	<path class="st0" d="M36.3,6.4c-0.2-0.2-0.4-0.3-0.7-0.3l-0.8,0c-0.8,0-1.6,0-2.3,0l-1.4,0c-0.7,0-1.8,0-3,0c-1.9,0-4.2,0-5.2,0
		c-0.5,0-0.9,0.3-0.9,0.7c0,0.3,0,0.5,0.2,0.7c0.2,0.2,0.4,0.3,0.7,0.3c0.7,0,1.9,0,3.3,0l4.5,0v0l2.9,0c0.7,0,1.4,0,2,0
		c0.6,0,0.9-0.3,0.9-0.8C36.5,6.8,36.4,6.6,36.3,6.4z"/>
	<path class="st0" d="M35.4,14.9c-0.5,0-1,0-1.4,0h-4c-0.5,0-1,0-1.4,0c-0.6,0-0.9,0.3-0.9,0.8c0,0.2,0.1,0.4,0.2,0.6
		c0.2,0.2,0.4,0.3,0.7,0.3c1.1,0,2.3,0,3.4,0c1.1,0,2.3,0,3.4,0c0.3,0,0.6-0.1,0.7-0.3c0.1-0.1,0.2-0.4,0.2-0.6
		C36.4,15.2,36,14.9,35.4,14.9z"/>
	<path class="st0" d="M18.2,34.9l-4.9-2.5v-1.1c0,0,0,0,0,0c1.5-1.1,2.5-2.9,2.6-4.9c0.6-0.9,0.8-2.2,0.5-3.4c-0.3-1-1-1.8-1.9-2.2
		c-0.9-1.4-2-2.2-3.4-2.5c-1.8-0.3-4,0.4-6.5,2.4l0,0l0,0c-1.8,1.8-1.5,4.9-1.5,5.4c0,1.9,0.9,3.7,2.3,4.8c0,0,0,0,0,0v1.3l-4.6,2.4
		C0.3,34.8,0,35.3,0,35.7l0,3.5c0,0.4,0.3,0.7,0.7,0.7c0,0,0,0,0,0c0.4,0,0.7-0.3,0.7-0.7l0-3.4l4.2-2.1l3.9,2.6l3.4-2.6l4.6,2.3
		l0,3.1c0,0.4,0.3,0.7,0.7,0.7c0,0,0,0,0,0c0.4,0,0.7-0.3,0.7-0.7l0-3.2C18.9,35.5,18.7,35.1,18.2,34.9z M10.9,19.8
		c1,0.2,1.8,0.8,2.5,2l0.1,0.2l0.3,0.1c0.8,0.3,1.1,0.9,1.2,1.3c0.1,0.4,0.1,0.7,0.1,1.1c-0.1,0-0.2,0-0.2,0
		c-2.3,0.1-6.4,0.2-7.7-3.7C8.6,19.9,9.9,19.6,10.9,19.8z M5.6,21.8c0.1-0.1,0.2-0.2,0.3-0.3c0.2,0.5,0.4,1,0.7,1.5
		c-0.2,0.6-0.7,1.3-1.4,1.7C5,24.9,4.8,25,4.5,25C4.5,24.1,4.7,22.7,5.6,21.8z M4.6,26.5c0.5,0,1-0.2,1.5-0.5
		c0.7-0.4,1.3-1.1,1.7-1.7c0.6,0.5,1.4,1,2.3,1.2c1.3,0.4,2.6,0.5,3.7,0.5c0.3,0,0.5,0,0.7,0v0.2c0,2.7-2.2,4.9-4.9,4.9
		C6.9,31.1,4.8,29,4.6,26.5z M9.5,34.6l-2.7-1.8v-0.9c0.8,0.4,1.7,0.6,2.7,0.6c0.8,0,1.6-0.2,2.3-0.4v0.7L9.5,34.6z"/>
	<path class="st0" d="M10.6,12.3c0,0.4,0,0.9,0,1.3v0.1c0,0.1,0,0.2,0,0.4c0,0.4,0.3,0.7,0.8,0.7c0,0,0,0,0.1,0
		c0.4,0,0.7-0.3,0.8-0.6c0-0.2,0-0.3,0-0.5c0-0.9,0-1.8,0-2.7l0-1.5H17c1.7,0,2.8-1.1,2.8-2.8l0-4.8l0.3,0c0.1,0,0.2,0,0.3,0l16.6,0
		c1,0,1.3,0.3,1.3,1.3v19.9l1.6,1.5l0,0c0-0.1,0-0.1,0-0.2c0-7,0-14.2,0-21.3c0-0.8-0.3-1.5-0.8-2.1c-0.5-0.5-1.3-0.8-2.1-0.8
		c-2.4,0-4.8,0-7.8,0c-2.3,0-4.6,0-6.9,0l-3.1,0c-0.4,0-0.7,0.1-1,0.4c-2.5,2.5-4.7,4.8-7,7.1c-0.5,0.5-0.7,0.9-0.6,1.6
		C10.7,10.2,10.7,11.2,10.6,12.3z M18.2,3.2l0,1.2c0,0.8,0,1.6,0,2.4c0,0.5-0.4,0.9-0.9,1c-0.5,0-1,0-1.5,0c-0.3,0-2.4,0-2.4,0
		L18.2,3.2z"/>
	<path class="st0" d="M39.6,27.6c-0.4,0.5-0.8,0.9-1.3,1.4v3c0,1-0.3,1.3-1.3,1.3l-2.6,0c-0.5,0.6-1,1.1-1.5,1.6l4.2,0
		c1.8,0,2.9-1.1,2.9-2.9c0-1.6,0-3.3,0-4.9C39.9,27.3,39.7,27.4,39.6,27.6z"/>
	<path class="st0" d="M38.9,25.3L38.9,25.3l-8.3-7.6l0,0c-0.2-0.1-0.3-0.1-0.5-0.1c-0.3,0-0.6,0.2-0.9,0.5c-2.5,2.7-5.1,5.5-7,7.6
		l-4.8,5.2c-0.5,0.5-0.4,1.1,0.1,1.6c0.4,0.3,0.7,0.6,1.1,1l0.8,0.7l0.2-0.2c0.6-0.6,1.3-0.9,2.1-0.9c0.7,0,1.3,0.2,1.8,0.6
		c0.6,0.5,0.9,1.2,1,2c0.1,0.8-0.2,1.5-0.7,2.1l-0.2,0.2l1.8,1.6c0.3,0.3,0.6,0.4,0.8,0.4c0.3,0,0.6-0.2,0.9-0.5l4.7-5.2
		c2.2-2.4,4.5-4.9,7-7.6C38.9,26.4,39.3,25.9,38.9,25.3z M29.7,34.5L29.1,34l-0.9,1l0.5,0.5l-2.7,3l-0.8-0.7c0,0,0-0.1,0-0.1
		c0.8-1.6,0.4-3.7-0.9-4.9c-0.8-0.7-1.8-1.1-2.8-1.1c-0.8,0-1.5,0.2-2.2,0.6c0,0,0,0,0,0c0,0,0,0,0,0c-0.2-0.2-0.5-0.4-0.7-0.7
		c0,0-0.1-0.1-0.1-0.1l2.7-3l0.6,0.5l0.9-1l-0.6-0.5l7.9-8.6l7.5,6.9L29.7,34.5z"/>
	<rect x="29.4" y="21.5" transform="matrix(0.9928 -0.1199 0.1199 0.9928 -2.9613 3.7988)" class="st0" width="1.3" height="10"/>
	<path class="st0" d="M33.2,28.4C33.2,28.4,33.2,28.4,33.2,28.4c0.5,0,1-0.2,1.4-0.6c0.7-0.7,0.6-1.9-0.1-2.6
		c-0.3-0.3-0.8-0.5-1.2-0.5c-0.5,0-1,0.2-1.3,0.6l0,0c-0.3,0.4-0.5,0.8-0.5,1.3c0,0.5,0.2,0.9,0.6,1.3
		C32.3,28.2,32.7,28.4,33.2,28.4z M32.8,26.3L32.8,26.3c0.1-0.1,0.2-0.2,0.3-0.2l0,0c0.1,0,0.2,0,0.3,0.1c0.2,0.2,0.2,0.5,0,0.7l0,0
		c-0.1,0.1-0.2,0.1-0.3,0.1c-0.1,0-0.2,0-0.3-0.1C32.6,26.8,32.6,26.5,32.8,26.3z"/>
	<path class="st0" d="M26.6,25c-0.5,0-1,0.2-1.3,0.6l0,0c-0.7,0.7-0.6,1.9,0.1,2.6c0.3,0.3,0.8,0.5,1.2,0.5c0,0,0,0,0.1,0
		c0.5,0,0.9-0.2,1.3-0.6L28,28v0c0.6-0.8,0.6-1.8-0.2-2.5C27.5,25.2,27.1,25,26.6,25z M27,27.2c-0.1,0.1-0.2,0.1-0.3,0.2l0,0
		c-0.1,0-0.2,0-0.3-0.1c-0.2-0.2-0.2-0.5,0-0.7l0,0c0.1-0.1,0.2-0.2,0.3-0.2l0,0c0.1,0,0.2,0,0.3,0.1C27.2,26.7,27.2,27,27,27.2z"/>
	<rect x="26.2" y="31.4" transform="matrix(0.6754 -0.7374 0.7374 0.6754 -15.493 30.4965)" class="st0" width="1.3" height="2.9"/>
	
		<rect x="23.4" y="28.8" transform="matrix(0.6755 -0.7374 0.7374 0.6755 -14.4993 27.5637)" class="st0" width="1.3" height="2.9"/>
</g>
</svg>
