<svg xmlns="http://www.w3.org/2000/svg" viewBox="0 0 59.5 61"><defs><style>.cls-1{fill:#801452;}.cls-2{fill:#fff;}</style></defs><title>Asset 1</title><g id="Layer_2" data-name="Layer 2"><g id="Layer_1-2" data-name="Layer 1"><rect class="cls-1" width="59.5" height="61" rx="5.54"/><path class="cls-2" d="M29.41,19.12A16.4,16.4,0,0,0,13.74,30.78a13.06,13.06,0,1,1,7.86,19,16.34,16.34,0,1,0,7.81-30.68Z"/><path class="cls-2" d="M25.12,24.14a14,14,0,0,1,2.67.25,16.78,16.78,0,0,0-5.22-3.77,16.42,16.42,0,0,0-8.77,10.1A13.06,13.06,0,0,1,25.12,24.14Z"/><path class="cls-2" d="M21.63,49.82c.32.17.63.34.94.49.14-.06.25-.12.4-.17C22.51,50,22.09,49.94,21.63,49.82Z"/><path class="cls-2" d="M20.38,9.27s7.38-.85,9.28,4.45c1.51,4.15-3.85,4.6-5.59,3.1S20,12.08,20.38,9.27Z"/><path class="cls-2" d="M39.06,12.13s-2,5.34-5.65,5.48c-2.84.09-3.06-3.09-1.33-4.4S37.38,11.37,39.06,12.13Z"/><path class="cls-2" d="M19.93,45.45h9.91a.4.4,0,0,1,0,.8H19.93a.41.41,0,0,1-.4-.4A.39.39,0,0,1,19.93,45.45Z"/><path class="cls-2" d="M22.88,43.81H27a.25.25,0,0,1,.25.25l1.65,1.34a.25.25,0,0,1-.26.25H21.24A.25.25,0,0,1,21,45.4l1.65-1.34C22.6,43.92,22.71,43.81,22.88,43.81Z"/><path class="cls-2" d="M33.13,33.22a2.53,2.53,0,0,0-.34-.57,1.58,1.58,0,0,0-.94-.59,5.82,5.82,0,0,0-1-.06c-.26,0-.31.09-.31.34V38.5c0,.26.08.34.34.34a3.48,3.48,0,0,0,.56,0,1.91,1.91,0,0,0,.77-.17,2,2,0,0,0,.74-.68,1.55,1.55,0,0,0,.17-.57C33.16,36.83,33.16,33.33,33.13,33.22ZM31.79,38.5h0V32.34h0a.41.41,0,0,1,.4.4V38.1A.41.41,0,0,1,31.79,38.5Z"/><path class="cls-2" d="M27.71,40.83c-.15,0-.17-.06-.17-.2V36.88c0-.2-.06-.25-.26-.25h-.62c-.23,0-.26,0-.26.25V40.6c0,.14,0,.2-.2.2s-.22,0-.22-.2c0-.6,0-1.16,0-1.76,0-.2-.06-.25-.26-.25h-.6c-.19,0-.25,0-.25.25V40.6c0,.06,0,.14-.06.14a.24.24,0,0,1-.37-.22V38.16c0-.26,0-.28-.25-.28h-.57c-.23,0-.26,0-.26.25v2.33c0,.25,0,.25-.25.25s-.17-.05-.17-.17v-.93c0-.17-.06-.23-.2-.23h-.65c-.17,0-.2.06-.23.23v.74c0,.08,0,.22,0,.28s-.17,0-.25.08-.09.09-.15.12.06.11.12.14a.38.38,0,0,0,.2,0h6c.11,0,.2,0,.22-.14S27.79,40.83,27.71,40.83ZM22.46,38a.46.46,0,0,0,.22-.51c0-.06,0-.15.09-.17.25-.26.54-.49.79-.71a.17.17,0,0,1,.17,0,.44.44,0,0,0,.46-.09.27.27,0,0,1,.2,0,3.43,3.43,0,0,1,.56.22c.06,0,.15.09.15.14.08.29.28.46.53.4a.44.44,0,0,0,.32-.59.16.16,0,0,1,0-.17c.31-.4.62-.77,1-1.17a.2.2,0,0,1,.17-.06.42.42,0,0,0,.48-.59c-.08-.17-.2-.29-.39-.26a.45.45,0,0,0-.46.57.17.17,0,0,1,0,.2c-.31.4-.62.77-.93,1.13a.35.35,0,0,1-.17.09.64.64,0,0,0-.4.09.3.3,0,0,1-.14,0c-.2-.08-.4-.17-.57-.22a.25.25,0,0,1-.17-.2.42.42,0,0,0-.54-.34.47.47,0,0,0-.34.54.32.32,0,0,1-.09.2c-.25.22-.51.45-.73.68a.23.23,0,0,1-.26,0,.43.43,0,0,0-.51.2.45.45,0,0,0,.06.51A.48.48,0,0,0,22.46,38Z"/><path class="cls-2" d="M30.83,32.37a2.74,2.74,0,0,0-2.75-2.75H21.92a2.74,2.74,0,0,0-2.76,2.75v9.05a2.74,2.74,0,0,0,2.76,2.76h6.13a2.74,2.74,0,0,0,2.75-2.76l0-9.05Zm-1.25,8.34a1.69,1.69,0,0,1-1.82,1.79H22.71a2.13,2.13,0,0,1-2.27-1.79V32.46c0-1,1.11-1.62,2.27-1.62h5.08c1.17,0,1.82.62,1.82,1.62C29.58,32.46,29.58,40.71,29.58,40.71Z"/></g></g></svg>