<?xml version="1.0" encoding="utf-8"?>
<!-- Generator: Adobe Illustrator 19.2.0, SVG Export Plug-In . SVG Version: 6.00 Build 0)  -->
<svg version="1.1" id="Layer_1" xmlns="http://www.w3.org/2000/svg" xmlns:xlink="http://www.w3.org/1999/xlink" x="0px" y="0px"
	 viewBox="0 0 40 40" style="enable-background:new 0 0 40 40;" xml:space="preserve">
<style type="text/css">
	.st0{fill:#626975;}
</style>
<g>
	<g>
		<path class="st0" d="M2.3,17.5h2c0.4,0,0.6-0.3,0.6-0.6c0-0.4-0.3-0.6-0.6-0.6h-2c-0.4,0-0.6,0.3-0.6,0.6
			C1.7,17.2,2,17.5,2.3,17.5z M7.8,23.5H3.2c-0.4,0-0.6,0.3-0.6,0.6c0,0.4,0.3,0.6,0.6,0.6h4.6c0.4,0,0.6-0.3,0.6-0.6
			C8.4,23.7,8.1,23.5,7.8,23.5z M0.6,20.9h5.4c0.4,0,0.6-0.3,0.6-0.6s-0.3-0.6-0.6-0.6H0.6c-0.4,0-0.6,0.3-0.6,0.6
			S0.3,20.9,0.6,20.9z M6.1,28.6H5.5c-0.4,0-0.6,0.3-0.6,0.6c0,0.4,0.3,0.6,0.6,0.6h0.5c0.4,0,0.6-0.3,0.6-0.6
			C6.7,28.8,6.4,28.6,6.1,28.6z M3.4,28.6H0.6c-0.4,0-0.6,0.3-0.6,0.6c0,0.4,0.3,0.6,0.6,0.6h2.8c0.4,0,0.6-0.3,0.6-0.6
			C4,28.8,3.8,28.6,3.4,28.6z M33.4,12.5H28v-1.1c0-0.4-0.3-0.6-0.6-0.6h-8.1c-0.4,0-0.6,0.3-0.6,0.6s0.3,0.6,0.6,0.6h7.5v13.4
			c0,0.4,0.3,0.6,0.6,0.6s0.6-0.3,0.6-0.6V13.7h5.4c2.9,0,5.3,2.4,5.3,5.3v10.8h-1.6c-0.3-1.9-2-3.4-4-3.4c-2,0-3.7,1.5-4,3.4H28
			v-2.3c0-0.4-0.3-0.6-0.6-0.6s-0.6,0.3-0.6,0.6v2.3h-6.8c-0.3-1.9-2-3.4-4-3.4c-2,0-3.7,1.5-4,3.4h-1.3v-9.3c0-0.4-0.3-0.6-0.6-0.6
			c-0.4,0-0.6,0.3-0.6,0.6v9.9c0,0.4,0.3,0.6,0.6,0.6h2c0.3,1.9,2,3.4,4,3.4c2,0,3.7-1.5,4-3.4h9.2c0.3,1.9,2,3.4,4,3.4
			c2,0,3.7-1.5,4-3.4h2.3c0.4,0,0.6-0.3,0.6-0.6V19C40,15.4,37,12.5,33.4,12.5z M15.9,33.2c-1.5,0-2.8-1.2-2.8-2.8
			c0-1.5,1.2-2.8,2.8-2.8c1.5,0,2.8,1.2,2.8,2.8C18.7,31.9,17.5,33.2,15.9,33.2z M33.1,33.2c-1.5,0-2.8-1.2-2.8-2.8c0,0,0,0,0,0l0,0
			c0-1.5,1.2-2.8,2.8-2.8c1.5,0,2.8,1.2,2.8,2.8C35.9,31.9,34.6,33.2,33.1,33.2z M37.4,20.9c0,0,0-0.1,0-0.1V19h0c0-2.2-1.8-4-4-4
			h-3.5c-0.4,0-0.6,0.3-0.6,0.6v6c0,0.4,0.3,0.6,0.6,0.6h2.4c0.1,0.2,0.2,0.3,0.4,0.5c1.1,1.1,2.9,1.1,4,0c0.2-0.2,0.3-0.3,0.4-0.5
			c0.2-0.1,0.4-0.3,0.4-0.6V20.9z M32.7,18.8c-0.6,0.6-0.9,1.4-0.8,2.2h-1.3v-4.7h2.9c1.3,0,2.4,0.9,2.7,2.1
			C35,17.8,33.6,17.9,32.7,18.8z M15.9,28.8c-0.9,0-1.6,0.7-1.6,1.6c0,0.9,0.7,1.6,1.6,1.6c0.9,0,1.6-0.7,1.6-1.6
			C17.6,29.5,16.8,28.8,15.9,28.8z M15.9,30.8c-0.2,0-0.4-0.2-0.4-0.4c0-0.2,0.2-0.4,0.4-0.4c0.2,0,0.4,0.2,0.4,0.4
			C16.3,30.6,16.1,30.8,15.9,30.8z M33.1,28.8c-0.9,0-1.6,0.7-1.6,1.6c0,0.9,0.7,1.6,1.6,1.6c0.9,0,1.6-0.7,1.6-1.6
			C34.7,29.5,34,28.8,33.1,28.8z M33.1,30.8c-0.2,0-0.4-0.2-0.4-0.4c0-0.2,0.2-0.4,0.4-0.4c0.2,0,0.4,0.2,0.4,0.4
			C33.5,30.6,33.3,30.8,33.1,30.8z M36.2,24.7v1.6c0,0.4,0.3,0.6,0.6,0.6c0.4,0,0.6-0.3,0.6-0.6v-1.6c0-0.4-0.3-0.6-0.6-0.6
			C36.4,24,36.2,24.3,36.2,24.7z M11,19.1c3.8,0,6.8-3,6.8-6.8c0-3.7-3.1-6.8-6.8-6.8c-0.9,0-1.7,0.2-2.5,0.5C8.2,6.1,8,6.5,8.1,6.8
			C8.3,7.2,8.6,7.3,9,7.2c0.6-0.3,1.3-0.4,2-0.4c3,0,5.5,2.5,5.5,5.5c0,3-2.5,5.5-5.5,5.5c-3,0-5.5-2.5-5.5-5.5c0-1.5,0.7-3,1.8-4.1
			c0.3-0.2,0.3-0.6,0-0.9c-0.2-0.3-0.6-0.3-0.9,0c-1.4,1.3-2.2,3.1-2.2,5C4.2,16.1,7.2,19.1,11,19.1z M11,8.1
			c-0.4,0-0.6,0.3-0.6,0.6v3.5c0,0.4,0.3,0.6,0.6,0.6h1.6c0.4,0,0.6-0.3,0.6-0.6c0-0.4-0.3-0.6-0.6-0.6h-0.9V8.8
			C11.6,8.4,11.4,8.1,11,8.1z"/>
	</g>
</g>
</svg>
