<?xml version="1.0" encoding="utf-8"?>
<!-- Generator: Adobe Illustrator 19.2.0, SVG Export Plug-In . SVG Version: 6.00 Build 0)  -->
<svg version="1.1" id="Layer_1" xmlns="http://www.w3.org/2000/svg" xmlns:xlink="http://www.w3.org/1999/xlink" x="0px" y="0px"
	 viewBox="0 0 40 40" style="enable-background:new 0 0 40 40;" xml:space="preserve">
<style type="text/css">
	.st0{fill:#626975;}
</style>
<g>
	<g>
		<path class="st0" d="M39.8,30.4c-0.7-4.1-4.7-7-8.8-6.6c-0.3,0-0.7,0.1-1.1,0.2v-0.5c0-1.3,0-2.6,0-3.8c0-0.2,0-0.5-0.1-0.7
			c-0.9-2.5-1.9-5-2.9-7.5c-0.1-0.2-0.1-0.4-0.1-0.6c0-1,0-2.1,0-3.1c0-0.3,0.1-0.4,0.3-0.6C28,6.7,28.3,5.8,28,5.1
			c-0.3-0.8-1-1.3-1.8-1.3c-2,0-4,0-6,0c-0.9,0-1.7,0.6-1.9,1.4c-0.2,0.8,0.1,1.6,0.9,2c0.2,0.1,0.3,0.3,0.3,0.5c0,1,0,2.1,0,3.1
			c0,0.2,0,0.5-0.1,0.7c-0.5,1.3-1,2.7-1.5,4c-0.1,0.2-0.1,0.4-0.2,0.6c0.4,0.1,0.7,0.3,1.1,0.4c0.6-1.7,1.3-3.4,1.9-5
			c0-0.1,0-0.3,0-0.4c0-1,0-2.1,0-3.1c0-0.1,0-0.3,0-0.4h5c0,1.2,0,2.3,0,3.4c0,0.3,0.1,0.6,0.2,0.9c0.9,2.4,1.9,4.9,2.8,7.3
			c0.3,0.7,0.1,1.5,0.2,2.2c-0.1,0-0.2,0-0.2,0c-3.4,0-6.7,0-10.1,0c-0.2,0-0.3-0.1-0.4-0.3c-0.3-0.8-0.7-1.7-1.1-2.5
			c-0.6-1.1-0.9-2.3-0.7-3.6c0-0.2,0-0.3,0-0.5c0-0.4-0.2-0.7-0.7-0.7c-3.7,0-7.4,0-11.1,0c-0.5,0-0.7,0.2-0.7,0.7
			c0,0.6,0,1.2,0,1.8c0,0.3-0.1,0.6-0.2,0.9c-0.4,1.1-0.9,2.1-1.4,3.2c-0.7,1.7-1.5,3.4-2.2,5.1V40h19.5c0.4-0.2,0.5-0.5,0.5-0.9
			c0-2.1,0-4.2,0-6.2v-0.3h3.8c0.3,2.6,1.6,4.7,3.8,6.2h-6.4V40h11.3c0.5-0.1,0.9-0.2,1.4-0.3c3.3-0.9,5.6-3.6,6-6.9
			c0-0.1,0-0.2,0.1-0.3v-1.3C39.9,31,39.9,30.7,39.8,30.4z M26.2,6.3c-1,0-2.1,0-3.1,0c-1,0-2,0-3,0c-0.5,0-0.7-0.2-0.7-0.6
			c0-0.5,0.2-0.6,0.7-0.6c2,0,4.1,0,6.1,0c0.5,0,0.7,0.2,0.7,0.6C26.9,6.1,26.7,6.3,26.2,6.3z M15.6,18.4c1,2.2,1.9,4.4,2.8,6.6
			h-5.6C13.7,22.8,14.7,20.7,15.6,18.4z M5,15h10v1.2H5V15z M11.2,38.7h-10V26.3h10V38.7z M11.2,25c-3.1,0-6.2,0-9.4,0
			c-0.1,0-0.1,0-0.3,0c0.3-0.7,0.6-1.4,0.9-2.1c0.7-1.7,1.4-3.3,2.1-5c0.1-0.2,0.2-0.3,0.4-0.3c3.1,0,6.2,0,9.4,0c0.1,0,0.1,0,0.2,0
			c-0.1,0.1-0.1,0.3-0.1,0.4c-1,2.3-1.9,4.5-2.9,6.8C11.5,24.9,11.5,25,11.2,25z M18.7,38.7h-6.2V26.3h6.2V38.7z M23.8,31.2H20v-0.4
			c0-1.6,0-3.3,0-4.9c0-0.3-0.1-0.5-0.2-0.8c-0.3-0.8-0.7-1.5-1-2.3c0-0.1-0.1-0.2-0.1-0.3h10c0,0.6,0,1.2,0,1.8
			c0,0.1-0.2,0.2-0.3,0.3c-2.3,1.2-3.9,3.1-4.5,5.6C23.9,30.5,23.8,30.9,23.8,31.2z M31.8,38.8c-3.9,0-6.9-3-6.8-7
			c0-3.8,3.1-6.8,7-6.7c3.9,0,6.8,3.1,6.8,7C38.7,35.8,35.7,38.8,31.8,38.8z M3.8,12.5H5V1.3h26.3v21.2h1.2V2.2
			c0.1,0.1,0.2,0.2,0.3,0.3c0.6,0.6,1.3,1.3,1.9,1.9C34.9,4.5,35,4.8,35,5c0,5.6,0,11.3,0,16.9v0.5h1.2v-0.3c0-5.9,0-11.7,0-17.6
			c0-0.2-0.1-0.5-0.3-0.7C35,2.9,34.1,2,33.2,1.1C32.8,0.7,32.4,0.4,32,0H4.2C3.9,0.2,3.8,0.5,3.8,0.9c0,3.7,0,7.5,0,11.2
			C3.8,12.2,3.8,12.3,3.8,12.5z M16.2,2.5H6.3v1.2h9.9V2.5z M11.2,6.2V5H6.3v1.2H11.2z M35,35c-0.9,0.8-1.9,1.2-3.1,1.3v1.2
			c3.1,0,5.7-2.9,5.5-5.6h-1.2C36.2,33.1,35.9,34.2,35,35z M32.5,26.3h-1.2v1.2h1.2V26.3z M8.7,36.3H3.8v1.2h4.9V36.3z M16.2,27.5
			H15v1.2h1.2V27.5z M15,31.2h1.2V30H15V31.2z M15,33.7h1.2v-1.2H15V33.7z M8.1,18.8c-1.3,0-2.5,1.2-2.5,2.5c0,1.3,1.2,2.5,2.5,2.5
			c1.3,0,2.5-1.2,2.5-2.5C10.6,20,9.4,18.8,8.1,18.8z M8.1,22.5c-0.8,0-1.2-0.5-1.2-1.3c0-0.8,0.5-1.2,1.3-1.2
			c0.8,0,1.2,0.5,1.2,1.3C9.4,22,8.9,22.5,8.1,22.5z"/>
	</g>
</g>
</svg>
