<?xml version="1.0" encoding="utf-8"?>
<!-- Generator: Adobe Illustrator 19.2.0, SVG Export Plug-In . SVG Version: 6.00 Build 0)  -->
<svg version="1.1" id="Layer_1" xmlns="http://www.w3.org/2000/svg" xmlns:xlink="http://www.w3.org/1999/xlink" x="0px" y="0px"
	 viewBox="0 0 40 40" style="enable-background:new 0 0 40 40;" xml:space="preserve">
<style type="text/css">
	.st0{fill:#626975;}
</style>
<g>
	<g>
		<path class="st0" d="M17.3,12.9c0-0.4,0-0.7-0.1-1.1c-0.2-0.9-0.7-1.7-1.3-2.2c-0.7-0.5-1.6-0.8-2.5-0.8c-0.1,0-0.2,0-0.4,0
			c-0.1,0-0.2,0-0.3,0c-0.1,0-0.2,0-0.3,0H12L13.2,6h0.2c0.3,0,0.6,0,0.9,0c0.3,0,0.6,0,0.9,0c0.5,0,0.9,0,1.3,0
			c0.4,0,0.7-0.2,0.7-0.5c0-0.3-0.3-0.5-0.7-0.5l-0.3,0c-0.4,0-0.8,0-1.2,0c-0.5,0-0.9,0-1.2,0c0,0,0,0,0,0c-0.4,0-0.7-0.2-0.8-0.6
			c-0.3-0.9-0.8-1.8-1.6-2.3c-0.8-0.6-1.7-0.9-2.6-0.9c-0.3,0-0.6,0-0.9,0.1c-0.7,0.2-1.4,0.5-2,1c-0.5,0.5-0.9,1-1.2,1.7
			C4.4,4.5,4.3,5.2,4.3,5.9c0.1,0.7,0.3,1.4,0.8,2.1C5.1,8,5.2,8.1,5.2,8.2c0,0,0.1,0.1,0.1,0.2l0.3,0.4H5.1c-0.1,0-0.3,0-0.4,0
			c-0.1,0-0.2,0-0.3,0c-0.1,0-0.2,0-0.4,0c-1.1,0-2.2,0.4-2.9,1.1C0.4,10.6,0,11.6,0,12.8c0,2.8,0,5.8,0,8.7c0,0.4,0,0.8,0.1,1.1
			c0.4,1.5,1.4,2.4,3,2.9l0.2,0.1l0,3.8c0,2.9,0,5.8,0,8.7c0,0.3,0,0.6,0.2,0.7c0.1,0.1,0.3,0.2,0.6,0.2c2.2,0,4.3,0,6.1,0
			c0.9,0,1.9,0,2.8,0c0.4,0,0.7,0,0.8-0.1C14,38.6,14,38.4,14,38c0-2.8,0-5.7,0-8.5l0-3.9l0.2-0.1c0,0,0,0,0.1,0c0,0,0.1,0,0.1-0.1
			c1-0.3,1.8-0.8,2.3-1.5c0.5-0.7,0.7-1.5,0.7-2.6C17.3,18.6,17.3,15.7,17.3,12.9L17.3,12.9z M1.1,21.1l0-0.8c0-0.4,0-0.8,0-1.2
			c0-0.6,0-1.2,0-1.9c0-1.5,0-3.1,0-4.6c0-1.2,0.7-2.2,1.8-2.6l0.4-0.1v11.2H1.1z M3.4,24.2l-0.3,0c-0.8-0.1-1.5-0.8-1.7-1.7
			l-0.1-0.3h2.1V24.2z M5.6,4.6c0.3-1.3,1.6-2.4,3.1-2.4c0,0,0,0,0,0c1.5,0,2.8,1,3.1,2.4l0.1,0.3H5.5L5.6,4.6z M5.6,6.3L5.5,6h6.4
			l0,0.3c-0.1,0.6-0.4,1.2-1,1.7c-0.6,0.5-1.3,0.8-1.9,0.8c0,0-0.1,0-0.1,0C7.2,8.7,5.9,7.8,5.6,6.3z M8.1,37.8H4.5v-1.8h3.6V37.8z
			 M8.1,34.9H4.5V22.2h3.6V34.9z M12.9,37.8H9.3V36h3.6V37.8z M12.9,34.9H9.3V22.2h3.6V34.9z M12.9,21.1H4.5V9.9h8.4V21.1z
			 M16.1,22.6c-0.3,0.8-0.9,1.3-1.7,1.7l-0.4,0.2v-2.2h2.2L16.1,22.6z M16.3,18.4c0,0.7,0,1.5,0,2.3c0,0.1,0,0.1,0,0.2c0,0,0,0,0,0
			l-0.1,0.2h-2.1V9.8l0.4,0.2c1.2,0.5,1.8,1.4,1.8,2.5C16.3,14.5,16.3,16.5,16.3,18.4z M39.4,35.3c-0.1,0-0.2,0-0.3,0
			c-0.1,0-0.2,0-0.3,0c-0.1,0-0.2,0-0.3,0h-0.3l0-3.7c0-2.6,0-5.3,0-7.9c0-0.4-0.1-0.6-0.2-0.7c-0.1-0.1-0.3-0.2-0.7-0.2
			c-1.5,0-3,0-4.5,0c-2.5,0-5,0-7.5,0c-0.3,0-0.6,0-0.7,0.1c-0.1,0.1-0.1,0.3-0.1,0.7c0,2.2,0,4.5,0,6.7c0,0.8,0,3.3,0,3.3l-2,0.1
			v-6.1l0-2.5c0-2.3,0-4.7,0-7c0-0.6-0.3-0.7-0.5-0.7c-0.4,0-0.9,0-1.3,0c-0.5,0-0.9,0-1.4,0c-0.2,0-0.3,0.1-0.4,0.2
			c-0.1,0.1-0.1,0.3-0.1,0.4c0.1,0.3,0.3,0.4,0.6,0.4c0.2,0,0.5,0,0.7,0l1.4,0v0.8c0,0.9,0,1.9,0,2.8c0,4,0,8.1,0,12.1
			c0,0.3-0.1,0.7-0.2,1.1c-0.3,0.7-0.3,1.5,0,2.2c0.3,0.7,0.8,1.2,1.5,1.5c0.3,0.1,0.6,0.2,0.9,0.2c0.6,0,1.1-0.2,1.6-0.5
			c0.5-0.4,0.8-0.9,1-1.5c0-0.1,0.1-0.2,0.1-0.3c0,0,0-0.1,0-0.1l0.1-0.2h6l0.1,0.2c0.3,1.1,0.9,2.3,2.6,2.3c0,0,0,0,0,0
			c0.5,0,1-0.2,1.5-0.4c0.7-0.3,1.1-1,1.2-1.9l0-0.2h0.2c0.1,0,0.3,0,0.4,0c0.1,0,0.2,0,0.4,0c0.2,0,0.3,0,0.4,0
			c0.3,0,0.6-0.2,0.6-0.5C40,35.5,39.8,35.3,39.4,35.3z M23.8,37.9L23.8,37.9c-0.9,0-1.6-0.7-1.6-1.6c0-0.9,0.7-1.6,1.6-1.6h0
			c0.4,0,0.8,0.2,1.2,0.5c0.3,0.3,0.5,0.7,0.5,1.1C25.4,37.1,24.7,37.9,23.8,37.9z M30.1,23.9h2.7v2.7h-2.7V23.9z M35.3,37.8
			C35.3,37.8,35.3,37.8,35.3,37.8c-0.9,0-1.6-0.8-1.6-1.6c0-0.9,0.7-1.6,1.6-1.6c0,0,0,0,0,0c0.9,0,1.6,0.8,1.6,1.6
			C36.9,37.1,36.2,37.8,35.3,37.8z M37.1,34l-0.4-0.1c0,0-0.1,0-0.1,0c-0.1,0-0.2-0.1-0.2-0.1c-0.4-0.2-0.8-0.2-1.1-0.2
			c-0.9,0-1.7,0.4-2.2,1.2c-0.2,0.3-0.5,0.5-0.8,0.5h0c-0.9,0-1.9,0-2.6,0c-0.4,0-0.8,0-1.1,0c-0.4,0-0.8,0-1.1,0l-0.4,0
			c-0.7,0-1.2-0.5-1.2-1.1c0-2.7,0-5.4,0-8c0-0.6,0-1.2,0-1.8c0-0.1,0-0.1,0-0.2c0,0,0,0,0-0.1l0.1-0.2H29l0,1.1c0,0.6,0,1.2,0,1.8
			c0,0.4,0,0.6,0.2,0.7c0.1,0.1,0.3,0.2,0.7,0.2c0.5,0,1,0,1.5,0c0.7,0,1.3,0,1.8,0c0.6,0,0.7-0.2,0.7-0.7c0-0.6,0-1.3,0-1.9
			c0-0.3,0-0.6,0-0.8v-0.3h3.2V34z"/>
	</g>
</g>
</svg>
