<?xml version="1.0" encoding="utf-8"?>
<!-- Generator: Adobe Illustrator 21.1.0, SVG Export Plug-In . SVG Version: 6.00 Build 0)  -->
<svg version="1.1" id="Layer_1" xmlns="http://www.w3.org/2000/svg" xmlns:xlink="http://www.w3.org/1999/xlink" x="0px" y="0px"
	 viewBox="0 0 40 40" style="enable-background:new 0 0 40 40;" xml:space="preserve">
<style type="text/css">
	.st0{fill:#35C4FF;}
</style>
<path id="Union_17" class="st0" d="M23.4,32.2c0-4.3,3.5-7.8,7.8-7.8c4.3,0,7.8,3.5,7.8,7.8c0,4.3-3.5,7.8-7.8,7.8c0,0,0,0,0,0
	C26.9,40,23.4,36.6,23.4,32.2C23.4,32.3,23.4,32.3,23.4,32.2z M24.3,32.2c0,3.8,3,6.8,6.8,6.8s6.8-3,6.8-6.8c0-3.8-3-6.8-6.8-6.8
	c0,0,0,0,0,0C27.4,25.4,24.3,28.5,24.3,32.2z M16.4,39.6H6.3c-1,0.1-1.9-0.1-2.8-0.6c-1.5-0.8-2.5-2.3-2.4-4c0-6.5,0-13.1,0-19.5
	V4.7c0-1.2,0.5-2.4,1.3-3.3C3.3,0.5,4.6,0,5.9,0l0,0c2.6,0,5.4,0,9.1,0h12.2c0.3,0,0.7,0,1,0.1c2.2,0.4,3.8,2.4,3.7,4.6v17.9h-1.8
	V4.8c0.1-1.5-1-2.9-2.6-3c-0.1,0-0.3,0-0.4,0H5.9C4.3,1.7,3,2.9,2.9,4.5c0,0.1,0,0.3,0,0.4v29.9c-0.1,1.4,0.8,2.6,2.1,2.9
	c0.3,0.1,0.6,0.1,0.9,0.1H23c0.2,0,0.4,0.1,0.5,0.2c0.5,0.6,1,1.1,1.5,1.6L16.4,39.6z M30.4,36.5c-0.7-0.1-1.4-0.2-2-0.4
	c-0.5-0.1-0.5-0.1-0.3-0.6l0.3-1c0.6,0.1,1,0.3,1.6,0.4c0.5,0.1,1.1,0,1.6,0c0.4,0,0.7-0.3,0.7-0.7c0-0.4-0.2-0.7-0.6-0.8
	c-0.4-0.2-0.8-0.3-1.1-0.4c-0.5-0.2-1.1-0.4-1.6-0.7c-0.9-0.6-1.2-1.8-0.7-2.7c0.1-0.2,0.3-0.4,0.6-0.6c0.2-0.2,0.5-0.3,0.7-0.4
	c0.2-0.1,0.5-0.2,0.8-0.3v-1h1.5v0.8c0.6,0.1,1.2,0.2,1.8,0.3c0.3,0,0.3,0.2,0.2,0.4c-0.2,0.4-0.3,0.8-0.4,1.1
	c-0.7-0.3-1.5-0.4-2.3-0.3c-0.3,0-0.5,0.1-0.8,0.2c-0.3,0.1-0.4,0.5-0.3,0.8c0.1,0.1,0.1,0.2,0.2,0.3c0.3,0.2,0.7,0.3,1,0.5
	c0.7,0.3,1.4,0.6,2,0.9c0.9,0.6,1.2,1.8,0.6,2.7c-0.1,0.2-0.2,0.3-0.4,0.4c-0.3,0.3-0.7,0.5-1,0.6c-0.3,0.1-0.5,0.2-0.8,0.3
	c0,0.3,0,0.6,0,0.8c0,0.1-0.1,0.2-0.2,0.2c-0.4,0-0.9,0-1.3,0L30.4,36.5z M11,34.7v-1.2h11.1v1.2H11z M15.8,30.5H6V17h21.2
	c0,0.1,0,0.3,0,0.4c0,2,0,4.1,0,6.1c0,0.3-0.1,0.5-0.4,0.6c-0.3,0.2-0.6,0.3-0.9,0.6v-6.4h-3.4c0,0.1,0,0.3,0,0.4c0,3.2,0,6.5,0,9.7
	c0,0.7-0.2,1.3-0.4,2c0,0.1-0.2,0.2-0.4,0.2L15.8,30.5z M17.8,29.2h3.3V18.3h-3.3V29.2z M7.3,29.2h9.1V18.3H7.3V29.2z M16.7,14.7H6
	v-1.3h11.1v1.1c0,0.2-0.1,0.2-0.2,0.2C16.8,14.7,16.7,14.7,16.7,14.7z M6.6,12.1H6v-1.3c0.1,0,0.3,0,0.4,0c3.4,0,6.8,0,10.2,0
	c0.4,0,0.5,0.1,0.5,0.5c0,0.8,0,0.8-0.8,0.8L6.6,12.1z M21,7.9c-0.3-0.4-0.5-0.9-0.5-1.4c0-0.5,0.1-1.1,0.5-1.5
	c0.3-0.4,0.8-0.6,1.3-0.5c0.4,0,0.8,0.1,1.2,0.4c0.2,0.2,0.3,0.4,0.4,0.7l-0.8,0.2c0-0.2-0.1-0.4-0.3-0.5c-0.2-0.1-0.3-0.2-0.5-0.2
	c-0.3,0-0.5,0.1-0.7,0.3c-0.2,0.3-0.3,0.6-0.3,1c0,0.4,0.1,0.7,0.3,1c0.2,0.2,0.4,0.3,0.7,0.3c0.2,0,0.4-0.1,0.5-0.2
	c0.2-0.2,0.3-0.4,0.3-0.6l0.8,0.2c-0.1,0.4-0.3,0.7-0.6,0.9c-0.3,0.2-0.7,0.3-1,0.3C21.8,8.5,21.4,8.3,21,7.9L21,7.9z M15.4,7.9
	C15,7.5,14.8,7,14.9,6.4c0-0.3,0-0.7,0.2-1c0.1-0.2,0.2-0.4,0.4-0.5c0.2-0.1,0.3-0.3,0.5-0.3c0.3-0.1,0.5-0.2,0.8-0.1
	c0.5,0,1,0.2,1.4,0.5c0.4,0.4,0.5,0.9,0.5,1.5c0,0.5-0.2,1.1-0.5,1.5c-0.3,0.4-0.8,0.6-1.3,0.5C16.2,8.4,15.7,8.2,15.4,7.9z
	 M15.9,5.4c-0.2,0.3-0.3,0.6-0.3,1c0,0.4,0.1,0.7,0.3,1c0.2,0.2,0.5,0.3,0.8,0.3c0.3,0,0.6-0.1,0.8-0.3c0.2-0.3,0.3-0.7,0.3-1
	c0-0.4-0.1-0.7-0.3-1c-0.2-0.2-0.5-0.3-0.8-0.3C16.4,5.1,16.1,5.2,15.9,5.4L15.9,5.4z M24.6,8.4V4.5h2.9v0.7h-2.1V6h1.9v0.7h-1.9
	v1.1h2.2v0.6H24.6z M19.2,8.4V4.5h0.8v3.9H19.2z M12.4,8.4L11,4.5h0.8l1,2.9l0.9-2.9h0.8l-1.4,3.9H12.4z M9.8,8.4L8.2,5.8v2.5H7.5
	V4.5h0.8l1.6,2.6V4.5h0.7v3.9L9.8,8.4z M6,8.4V4.5h0.8v3.9H6z"/>
</svg>
