<?xml version="1.0" encoding="utf-8"?>
<!-- Generator: Adobe Illustrator 21.1.0, SVG Export Plug-In . SVG Version: 6.00 Build 0)  -->
<svg version="1.1" id="Layer_1" xmlns="http://www.w3.org/2000/svg" xmlns:xlink="http://www.w3.org/1999/xlink" x="0px" y="0px"
	 viewBox="0 0 40 40" style="enable-background:new 0 0 40 40;" xml:space="preserve">
<style type="text/css">
	.st0{fill:#35C4FF;}
</style>
<path id="Union_25" class="st0" d="M0,39.7V36h1.9V13.7L18,8.4V36h1.6V4.8H23V0.3h11.7v4.5h3.3V36H40v3.7L0,39.7z M1.2,38.4h37.5
	v-1.2H1.2V38.4z M32,28.8V36h4.9V6.1h-16V36h4.8v-7.2L32,28.8z M13.1,28.8V36h3.6V10.1L3.2,14.6V36h3.6v-7.2H13.1z M31.5,3.4h1.2
	V2.2h-1.2V3.4z M28.3,3.4h1.2V2.2h-1.2L28.3,3.4z M24.9,3.4h1.2V2.2h-1.2V3.4z M11.4,26.2v-3.8h3.8v3.8L11.4,26.2z M4.7,26.2v-3.8
	h3.8v3.8L4.7,26.2z M30.3,26v-3.8h3.8V26L30.3,26z M23.6,26v-3.8h3.8V26L23.6,26z M11.4,20v-3.8h3.8V20H11.4z M4.7,20v-3.8h3.8V20
	H4.7z M30.3,19.7v-3.8h3.8v3.8L30.3,19.7z M23.6,19.7v-3.8h3.8v3.8L23.6,19.7z M30.3,13.6V9.7h3.8v3.8L30.3,13.6z M23.6,13.6V9.7
	h3.8v3.8L23.6,13.6z"/>
</svg>
