<?xml version="1.0" encoding="utf-8"?>
<!-- Generator: Adobe Illustrator 21.1.0, SVG Export Plug-In . SVG Version: 6.00 Build 0)  -->
<svg version="1.1" id="Layer_1" xmlns="http://www.w3.org/2000/svg" xmlns:xlink="http://www.w3.org/1999/xlink" x="0px" y="0px"
	 viewBox="0 0 40 40" style="enable-background:new 0 0 40 40;" xml:space="preserve">
<style type="text/css">
	.st0{fill:#35C4FF;}
</style>
<path id="Union_37" class="st0" d="M25.3,38.2c-0.2-0.8-0.8-1.4-1.6-1.6c-0.4-0.1-0.7,0-1.1,0.1l-0.9,0.4c-0.1,0.1-0.2,0.1-0.3,0.1
	c-0.7-0.2-1.2-0.7-1.4-1.4c0-0.1,0-0.3,0.1-0.4c0.1-0.4,0.3-0.7,0.5-1.1c0.3-1-0.1-2-1.1-2.5c-0.3-0.1-0.6-0.2-0.9-0.3
	c-0.1,0-0.2-0.1-0.3-0.1c-0.6-0.4-0.4-1-0.4-1.5c0-0.3,0.2-0.7,0.5-0.7c0.5-0.1,0.9-0.3,1.3-0.5c0.7-0.5,1-1.3,0.8-2.1
	c-0.1-0.4-0.3-0.8-0.5-1.2c-0.2-0.3-0.1-0.7,0.2-1l0.5-0.5c0.2-0.3,0.6-0.3,0.9-0.2c0.4,0.2,0.9,0.4,1.3,0.5
	c0.8,0.2,1.7-0.2,2.1-0.9c0.2-0.4,0.3-0.8,0.5-1.2c0.1-0.3,0.4-0.6,0.8-0.6c1.5,0,1.4,0.1,1.8,1.2c0.2,0.9,1,1.5,1.9,1.6
	c0.2,0,0.4,0,0.6-0.1c0.4-0.2,0.8-0.3,1.2-0.5c0.3-0.2,0.8-0.2,1,0.2l0.5,0.5c0.3,0.2,0.4,0.7,0.2,1.1c-0.2,0.4-0.4,0.8-0.5,1.3
	c-0.1,0.8,0.2,1.5,0.8,2c0.4,0.2,0.9,0.4,1.3,0.6c0.4,0.1,0.6,0.4,0.6,0.8c0,1.3,0,1.4-1.2,1.7c-0.8,0.2-1.4,0.8-1.6,1.6
	c-0.1,0.4,0,0.8,0.1,1.1c0.1,0.3,0.3,0.6,0.5,1c0.2,0.3,0.1,0.7-0.2,0.9l-0.6,0.6c-0.2,0.3-0.6,0.3-0.9,0.2
	c-0.4-0.2-0.9-0.4-1.4-0.6c-0.8-0.2-1.6,0.2-2,0.9c-0.2,0.4-0.3,0.8-0.5,1.2c-0.1,0.4-0.4,0.6-0.8,0.6c-0.2,0-0.3,0-0.5,0
	C25.8,39.4,25.7,39.2,25.3,38.2z M22.3,30.4c-0.1,2.4,1.8,4.5,4.2,4.6c2.4,0.1,4.5-1.8,4.7-4.2c0.1-2.4-1.7-4.5-4.2-4.7
	c0,0-0.1,0-0.1,0c-0.1,0-0.2,0-0.3,0C24.3,26.1,22.4,28,22.3,30.4z M0.9,34.5c-0.5,0-0.9-0.1-0.9-0.7c-0.1-2.9,0-5.8,0.4-8.7
	c0.9-4.6,5-7.9,9.7-7.9c3-0.1,6-0.1,9,0c2.4,0,4.6,0.9,6.4,2.5c-1,0.8-1.8,0.2-2.7-0.2c-1.3-0.6-2.6-0.9-4-1c-2.7-0.2-5.5-0.1-8.3,0
	c-4.7-0.1-8.7,3.6-9,8.4c-0.1,2,0,4,0,6.1h4.1v-4.7c0-0.2-0.1-0.5,0-0.7c0.2-0.3,0.4-0.6,0.7-0.8c0.2,0.3,0.6,0.6,0.6,0.8
	c0.1,1.5,0,2.9,0,4.4v0.9c0.3,0,0.7,0.1,0.9,0.1c2.5,0,4.9,0,7.3,0c1.2-0.2,2.3,0.2,3.2,0.9c-0.3,0.1-0.5,0.4-0.8,0.4
	c-2.8,0-5.6,0-8.3,0L0.9,34.5z M24.1,30.5c0-1.5,1.2-2.7,2.7-2.7c1.5,0,2.7,1.2,2.7,2.7c0,1.5-1.2,2.7-2.7,2.7
	C25.3,33.2,24.1,32,24.1,30.5L24.1,30.5z M32.6,20.7c-0.1-0.6-0.6-1-1.2-1.1c-0.3-0.1-0.5,0-0.8,0.1L30,20c-0.1,0-0.2,0.1-0.2,0.1
	c-0.5-0.1-0.9-0.5-1-1c0-0.1,0-0.2,0.1-0.3c0.1-0.3,0.2-0.5,0.3-0.8c0.2-0.7-0.1-1.5-0.8-1.8c-0.2-0.1-0.4-0.2-0.6-0.2
	c-0.1,0-0.1,0-0.2-0.1c-0.4-0.3-0.3-0.7-0.3-1.1c0-0.2,0.2-0.5,0.4-0.5c0.3-0.1,0.7-0.2,1-0.4c0.5-0.3,0.7-0.9,0.6-1.5
	c-0.1-0.3-0.2-0.6-0.4-0.8c-0.1-0.2-0.1-0.5,0.1-0.7l0.4-0.4c0.2-0.2,0.4-0.2,0.7-0.1c0.3,0.1,0.6,0.3,0.9,0.4
	c0.6,0.1,1.2-0.1,1.5-0.7c0.1-0.3,0.2-0.6,0.3-0.9c0.1-0.2,0.3-0.4,0.6-0.4c1,0,1,0,1.3,0.8c0.1,0.6,0.7,1.1,1.3,1.2
	c0.1,0,0.3,0,0.4,0c0.3-0.1,0.6-0.2,0.8-0.4c0.2-0.2,0.6-0.1,0.7,0.1l0.3,0.3c0.2,0.2,0.3,0.5,0.1,0.8c-0.1,0.3-0.3,0.6-0.4,0.9
	c-0.1,0.5,0.1,1.1,0.6,1.4c0.3,0.2,0.6,0.3,1,0.4c0.3,0.1,0.5,0.3,0.4,0.6c0,1,0,1-0.9,1.2c-0.6,0.1-1,0.6-1.1,1.2
	c-0.1,0.3,0,0.5,0.1,0.8c0.1,0.2,0.2,0.5,0.3,0.7c0.1,0.2,0.1,0.5-0.1,0.6l-0.4,0.4c-0.2,0.2-0.4,0.2-0.6,0.1
	c-0.3-0.2-0.6-0.3-1-0.4c-0.6-0.1-1.2,0.1-1.5,0.6c-0.1,0.3-0.2,0.6-0.3,0.9c-0.1,0.3-0.3,0.4-0.6,0.4c-0.1,0-0.2,0-0.3,0
	C32.9,21.6,32.9,21.5,32.6,20.7L32.6,20.7z M30.4,15.1c-0.1,1.7,1.3,3.2,3,3.3c1.8,0.1,3.2-1.3,3.3-3c0.1-1.8-1.2-3.3-3-3.3
	c0,0,0,0-0.1,0c-0.1,0-0.1,0-0.2,0C31.9,12.1,30.5,13.4,30.4,15.1L30.4,15.1z M31.7,15.2c0-1.1,0.9-1.9,1.9-1.9
	c1.1,0,1.9,0.9,1.9,1.9c0,1.1-0.9,1.9-1.9,1.9C32.6,17.1,31.7,16.3,31.7,15.2L31.7,15.2z M14.5,15.8c-4.2,0-7.6-3.5-7.6-7.7
	c0,0,0,0,0,0C7,4,10.4,0.6,14.5,0.6C18.7,0.7,22,4.1,22,8.2C22,12.4,18.6,15.8,14.5,15.8L14.5,15.8z M8.3,8.2c0,3.4,2.8,6.2,6.2,6.2
	c3.4,0,6.2-2.8,6.2-6.2c0-3.4-2.7-6.2-6.2-6.2h0C11,2,8.3,4.8,8.3,8.2L8.3,8.2z"/>
</svg>
