<?xml version="1.0" encoding="utf-8"?>
<!-- Generator: Adobe Illustrator 21.1.0, SVG Export Plug-In . SVG Version: 6.00 Build 0)  -->
<svg version="1.1" id="Layer_1" xmlns="http://www.w3.org/2000/svg" xmlns:xlink="http://www.w3.org/1999/xlink" x="0px" y="0px"
	 viewBox="0 0 40 40" style="enable-background:new 0 0 40 40;" xml:space="preserve">
<style type="text/css">
	.st0{fill:#35C4FF;}
</style>
<path id="Union_13" class="st0" d="M25.5,38.3c-0.4-1.2-1.1-1.9-2.3-2.2c-0.5-0.1-1-0.1-1.5,0.2l-1.3,0.6C20.3,37,20.1,37,20,37
	c-0.7,0-2-1.3-2-1.9c0-0.2,0.1-0.4,0.1-0.6c0.2-0.5,0.4-1,0.7-1.5c0.6-1.2-0.3-3.1-1.5-3.4c-0.4-0.1-0.8-0.3-1.3-0.5
	c-0.1,0-0.3-0.1-0.4-0.2c-0.8-0.5-0.5-1.4-0.5-2.1c0-0.5,0.3-0.9,0.8-1c0.6-0.2,1.3-0.5,1.9-0.8c0.9-0.5,1.5-2,1.1-3
	c-0.2-0.6-0.5-1.1-0.7-1.7c-0.3-0.5-0.2-1,0.2-1.4l0.7-0.7c0.3-0.4,0.9-0.5,1.3-0.2c0.6,0.3,1.2,0.5,1.8,0.8
	c1.2,0.3,2.4-0.3,2.9-1.3c0.3-0.5,0.5-1.1,0.7-1.7c0.1-0.5,0.6-0.8,1.1-0.8c2-0.1,2,0.1,2.5,1.6c0.4,1.3,1.2,2.1,2.6,2.3
	c0.3,0,0.6,0,0.8-0.1c0.6-0.2,1.1-0.5,1.7-0.7c0.5-0.3,1.1-0.2,1.4,0.2c0.2,0.2,0.4,0.4,0.7,0.7c0.5,0.5,0.6,0.8,0.3,1.5
	c-0.3,0.6-0.5,1.2-0.7,1.8c-0.2,1.1,0.2,2.1,1.1,2.7c0.6,0.3,1.2,0.6,1.9,0.8C39.7,26,40,26.5,40,27c0,1.9,0,1.9-1.7,2.4
	c-1.2,0.4-1.9,1.1-2.2,2.3c-0.1,0.5,0,1.1,0.2,1.5c0.2,0.5,0.4,0.9,0.6,1.3c0.2,0.4,0.1,1-0.2,1.3l-0.8,0.8
	c-0.3,0.4-0.8,0.5-1.3,0.2c-0.6-0.3-1.3-0.6-1.9-0.8c-1.1-0.2-2.3,0.3-2.9,1.3c-0.3,0.5-0.5,1.2-0.7,1.7C29,39.6,28.5,40,28,40
	c-0.3,0-0.5,0-0.7,0C26.1,40,26,39.8,25.5,38.3z M21.3,27.3c-0.2,3.3,2.5,6.3,5.9,6.5c3.4,0.2,6.4-2.5,6.5-5.9
	c0.2-3.4-2.4-6.3-6-6.6c-0.1,0-0.3,0-0.4,0C24.2,21.3,21.5,23.9,21.3,27.3z M10.1,35.2l-4.3-8l-4.3-7v-0.1c-1-2-1.5-4.2-1.5-6.4
	c0-3.6,1.4-7.1,4-9.6c2.5-2.6,6-4.1,9.6-4.1c3.7-0.1,7.2,1.3,9.9,3.9c2.3,2.4,3.8,5.4,4.2,8.6c-0.4-0.3-0.9-0.5-1.4-0.5
	c-0.3,0-0.6,0.1-0.8,0.2c-0.4-2.6-1.5-4.9-3.4-6.8C17.5,1,10.2,1.1,5.6,5.6c-2.1,2.2-3.4,5.1-3.4,8.1c0,1.9,0.4,3.7,1.2,5.3
	l9.4,15.8c0.3,0.5,0.9,0.7,1.4,0.4c0.2-0.1,0.3-0.3,0.4-0.4l0.1-0.2c0.4,0.8,1,1.4,1.8,1.7c-1.5,1.6-4,1.6-5.6,0.1
	C10.6,36.1,10.3,35.7,10.1,35.2L10.1,35.2z M23.7,27.5c0-2.1,1.7-3.7,3.8-3.7c2.1,0,3.7,1.7,3.7,3.8c0,2.1-1.7,3.7-3.8,3.7
	C25.4,31.3,23.7,29.6,23.7,27.5z M8.8,13.8c0-2.7,2.2-5,5-5c2.7,0,5,2.2,5,5c0,2.7-2.2,5-5,5C11.1,18.8,8.8,16.6,8.8,13.8z M11,13.8
	c0,1.6,1.3,2.8,2.8,2.8s2.8-1.3,2.8-2.8c0-1.6-1.3-2.8-2.8-2.8C12.2,11,11,12.3,11,13.8L11,13.8z"/>
</svg>
