<?xml version="1.0" encoding="utf-8"?>
<!-- Generator: Adobe Illustrator 19.2.0, SVG Export Plug-In . SVG Version: 6.00 Build 0)  -->
<svg version="1.1" id="Capa_1" xmlns="http://www.w3.org/2000/svg" xmlns:xlink="http://www.w3.org/1999/xlink" x="0px" y="0px"
	 viewBox="0 0 40 40" style="enable-background:new 0 0 40 40;" xml:space="preserve">
<style type="text/css">
	.st0{fill:#484D55;}
</style>
<g>
	<g>
		<path class="st0" d="M13.3,27.4l-3.8,3.1v5.3c0,0.1,0.2,0.3,0.3,0.3h4.6c0.2,0,0.3-0.1,0.3-0.3v-8.1l-1.1-0.3L13.3,27.4L13.3,27.4
			z"/>
		<path class="st0" d="M22.8,29.9h-4.6c-0.2,0-0.3,0.1-0.3,0.3v5.7c0,0.1,0.2,0.3,0.3,0.3h4.6c0.2,0,0.3-0.1,0.3-0.3v-5.7
			C23.1,30,22.9,29.9,22.8,29.9z"/>
		<path class="st0" d="M30.3,24.3c-0.3,0-0.6-0.1-0.8-0.2l-0.8-0.6l-3.1,2.6v9.7c0,0.1,0.2,0.3,0.3,0.3h4.6c0.2,0,0.3-0.1,0.3-0.3
			V24.2c0,0,0,0-0.1,0C30.7,24.3,30.5,24.3,30.3,24.3z"/>
		<path class="st0" d="M20.9,27.1c0.3,0.1,0.6,0,0.7-0.1l7-6.1l1.7,1.1c0.1,0.1,0.2,0.1,0.3,0c0.1,0,0.1-0.1,0.1-0.2l-0.4-3.2
			c0-0.1-0.1-0.2-0.3-0.2l-4,0.3c-0.1,0-0.2,0.1-0.2,0.1c0,0,0,0.1,0,0.1c0,0.1,0,0.1,0.1,0.1l1.7,1.1l-6.7,5.7l-7.6-2.2
			c-0.3-0.1-0.5,0-0.7,0.1l-4.7,3.8c-0.3,0.2-0.3,0.6,0,0.8c0.1,0.1,0.3,0.2,0.5,0.2s0.4-0.1,0.5-0.2l4.4-3.6L20.9,27.1z"/>
	</g>
	<path class="st0" d="M3.7,40c-0.4,0-0.8-0.4-0.8-0.8V10.4c0-0.1,0-0.1,0-0.1c0,0,0,0,0-0.1l0-0.1v0C3,10,3,9.9,3.1,9.9l0,0l8.2-9.7
		l0,0c0,0,0.1-0.1,0.1-0.1l0,0c0,0,0,0,0,0c0,0,0.1,0,0.1,0c0,0,0.1,0,0.1,0l0.1,0c0,0,0.1,0,0.1,0h24.4c0.5,0,0.8,0.3,0.8,0.8v38.4
		c0,0.5-0.3,0.8-0.8,0.8L3.7,40L3.7,40z M4.5,38.4h31V1.6H12.7v8.8c0,0.5-0.3,0.8-0.8,0.8H4.5V38.4z M5.4,9.7h5.6V3L5.4,9.7z"/>
	<path class="st0" d="M17.9,8.9c-0.5,0-0.8-0.3-0.8-0.8c0-0.5,0.3-0.8,0.8-0.8h12.6c0.5,0,0.8,0.3,0.8,0.8S31,8.9,30.5,8.9H17.9z"/>
	<path class="st0" d="M9.5,16c-0.5,0-0.8-0.3-0.8-0.8s0.3-0.8,0.8-0.8h21c0.4,0,0.8,0.4,0.8,0.8c0,0.5-0.3,0.8-0.8,0.8H9.5z"/>
	<path class="st0" d="M15.2,12.5c-0.4,0-0.7-0.3-0.7-0.8s0.3-0.8,0.7-0.8h15.4c0.4,0,0.7,0.4,0.7,0.8c0,0.5-0.3,0.8-0.7,0.8H15.2z"
		/>
</g>
</svg>
