<?xml version="1.0" encoding="utf-8"?>
<!-- Generator: Adobe Illustrator 19.2.0, SVG Export Plug-In . SVG Version: 6.00 Build 0)  -->
<svg version="1.1" id="Layer_1" xmlns="http://www.w3.org/2000/svg" xmlns:xlink="http://www.w3.org/1999/xlink" x="0px" y="0px"
	 viewBox="0 0 40 40" style="enable-background:new 0 0 40 40;" xml:space="preserve">
<style type="text/css">
	.st0{fill:#484D55;}
</style>
<g>
	<g>
		<path class="st0" d="M27.9,40C27.8,40,27.8,40,27.9,40c-5.8,0-10.8-4-12-9.6c-0.2-1-0.2-1.8-0.2-2.6c0-0.5,0-0.9,0.1-1.4
			c0.7-5.8,5.4-10.4,11.3-10.7c0.3,0,0.6,0,0.8,0c1,0,1.8,0.1,2.8,0.3c5.5,1.2,9.4,6.1,9.4,11.8c0,3.3-1.3,6.3-3.6,8.6
			C34.2,38.8,31.1,40,27.9,40z M27.8,17c-0.2,0-0.4,0-0.6,0h-0.1c-5.3,0.3-9.5,4.4-10.1,9.6c0,0.4-0.1,0.8-0.1,1.2
			c0,0.7,0.1,1.4,0.2,2.3c1,4.9,5.5,8.6,10.6,8.6c2.9,0,5.7-1.1,7.7-3.1s3.2-4.8,3.2-7.7c0-5.1-3.4-9.4-8.4-10.6
			C29.5,17.1,28.7,17,27.8,17z"/>
	</g>
	<path class="st0" d="M14.3,19.2h0.9c0.4-0.6,0.9-1.2,1.4-1.7h-2.3c-0.5,0-0.9,0.4-0.9,0.9C13.4,18.9,13.8,19.2,14.3,19.2z"/>
	<path class="st0" d="M9.7,18.4c0,0.5-0.4,0.9-0.9,0.9H5.9c-0.5,0-0.9-0.4-0.9-0.9s0.4-0.9,0.9-0.9h2.9C9.3,17.5,9.7,17.9,9.7,18.4
		L9.7,18.4z"/>
	<path class="st0" d="M9.7,24.3c0,0.5-0.4,0.9-0.9,0.9H5.9c-0.5,0-0.9-0.4-0.9-0.9s0.4-0.9,0.9-0.9h2.9C9.3,23.4,9.7,23.8,9.7,24.3
		L9.7,24.3z"/>
	<path class="st0" d="M9.7,30.3c0,0.5-0.4,0.9-0.9,0.9H5.9c-0.5,0-0.9-0.4-0.9-0.9c0-0.5,0.4-0.9,0.9-0.9h2.9
		C9.3,29.4,9.7,29.8,9.7,30.3L9.7,30.3z"/>
	<path class="st0" d="M15.2,35.1H3c-0.7,0-1.2-0.5-1.2-1.2V13.5h36.4v3.2L40,18V6.9c0-1.6-1.4-3-3-3h-3.9V1.7c0-0.9-0.8-1.7-1.7-1.7
		H29c-0.9,0-1.7,0.8-1.7,1.7v2.2H12.9V1.7c0-0.9-0.8-1.7-1.7-1.7H8.8C7.9,0,7.2,0.8,7.2,1.7v2.2H3c-1.6,0-3,1.4-3,3v27
		c0,1.6,1.4,3,3,3h12.8L15.2,35.1z M29.1,1.8h2.2v5.3h-2.2V1.8z M8.9,1.8h2.2v5.3H8.9V1.8z M1.8,6.9c0-0.7,0.5-1.2,1.2-1.2h4.1v1.6
		C7.2,8.2,7.9,9,8.8,9h2.4c0.9,0,1.7-0.8,1.7-1.7V5.7h14.3v1.6C27.2,8.2,28,9,28.9,9h2.4C32.2,9,33,8.2,33,7.3V5.7h4
		c0.7,0,1.2,0.5,1.2,1.2v4.8H1.8V6.9z"/>
	<path class="st0" d="M15.2,23.4h-0.8c-0.5,0-0.9,0.4-0.9,0.9s0.4,0.9,0.9,0.9h0.4C14.8,24.6,15,24,15.2,23.4z"/>
	<path class="st0" d="M14.7,30.6c-0.1-0.4-0.1-0.8-0.2-1.2h-0.2c-0.5,0-0.9,0.4-0.9,0.9c0,0.5,0.4,0.9,0.9,0.9h0.5
		C14.8,31,14.7,30.8,14.7,30.6z"/>
	<g>
		<path class="st0" d="M32.4,35.9c-0.1,0-0.3,0-0.4,0h-0.6h-4.6c-0.4,0-0.5-0.1-0.5-0.5v-0.2c0-0.2,0-0.3,0-0.4
			c0-0.3-0.1-0.5-0.3-0.6c-0.9-0.4-1.5-1.1-2-2.3c-0.2-0.4-0.4-0.8-0.8-1.1c-0.4-0.4-0.8-0.7-1.2-1c-0.2-0.2-0.5-0.5-0.3-1
			c0.2-0.4,0.6-0.5,0.9-0.6c0,0,0.1,0,0.2,0c0.4,0,0.8,0.1,1.4,0.4c0.3,0.2,0.6,0.3,1,0.5l0.2,0.1v-6.8c0-0.8,0.6-1.4,1.3-1.4
			c0.8,0,1.3,0.6,1.3,1.4v3.4c0.2-0.1,0.5-0.2,0.7-0.2c0.4,0,0.8,0.2,1.1,0.6c0.2-0.2,0.5-0.2,0.8-0.2c0,0,0.1,0,0.2,0
			c0.4,0,0.7,0.2,0.9,0.5c0.2-0.2,0.5-0.2,0.7-0.2c0.7,0,1.2,0.5,1.4,1c0.2,0.6,0.2,1.1,0.3,1.7v0.1c0.1,1.2,0.1,2.5-0.1,3.8
			c-0.1,0.6-0.4,1-0.7,1.4c-0.3,0.3-0.4,0.5-0.4,0.8c0,0,0,0.1,0,0.2s0,0.1,0,0.1c0,0.2,0,0.3-0.1,0.4
			C32.6,35.8,32.5,35.9,32.4,35.9L32.4,35.9z M26.8,35.2c0,0,0,0,0.1,0c0.9,0,1.9,0,2.8,0H32c0,0,0.1,0,0.1,0
			c-0.1-0.7,0.3-1.1,0.7-1.6c0.2-0.2,0.3-0.4,0.3-0.7c0.2-1,0.2-1.9,0.2-2.9c0-0.8-0.1-1.5-0.2-2.1c-0.1-0.4-0.3-0.7-0.6-0.8
			c-0.1,0-0.2,0-0.2,0c-0.2,0-0.4,0.1-0.4,0.3c0,0,0,0,0,0.1c0,0.1-0.1,0.4-0.4,0.4c-0.3,0-0.4-0.3-0.4-0.4c0,0,0-0.1,0-0.1
			c-0.1-0.3-0.3-0.5-0.6-0.5c-0.4,0-0.6,0.2-0.6,0.5c0,0.1,0,0.2-0.1,0.2c-0.1,0.1-0.2,0.2-0.3,0.2c-0.1,0-0.3-0.1-0.3-0.2
			c0-0.1,0-0.2,0-0.4v-0.1c0-0.4-0.2-0.6-0.6-0.6c-0.2,0-0.4,0.1-0.5,0.2c-0.1,0.1-0.2,0.3-0.2,0.5c0,0.2,0,0.2,0,0.4
			c0,0.1-0.1,0.3-0.3,0.3l0,0c-0.2,0-0.3-0.1-0.4-0.2c0-0.1,0-0.2,0-0.3c0-1.6,0-3.2,0-4.7c0-0.3-0.1-0.5-0.3-0.6
			c-0.1,0-0.2-0.1-0.3-0.1c-0.4,0-0.6,0.3-0.6,0.7v8c0,0.1,0,0.2,0,0.3c0,0.1-0.1,0.1-0.2,0.2l-0.2,0.2l-0.1-0.1
			c-0.1-0.1-0.2-0.2-0.2-0.3c0-0.2,0-0.3,0-0.5c0-0.1,0-0.2-0.1-0.2c-0.2-0.1-0.4-0.2-0.5-0.3c-0.4-0.2-0.7-0.4-1.1-0.6
			c-0.3-0.1-0.7-0.2-1-0.2l0,0c-0.1,0-0.2,0.1-0.2,0.1l0,0c0,0,0.1,0.1,0.2,0.2c0.3,0.3,0.6,0.6,1.1,0.9c0.5,0.4,0.8,0.8,1,1.4
			c0.1,0.2,0.2,0.4,0.3,0.6c0.3,0.6,0.7,1,1.2,1.2c0.6,0.3,0.9,0.8,0.8,1.4C26.9,35.1,26.9,35.1,26.8,35.2
			C26.8,35.2,26.8,35.2,26.8,35.2L26.8,35.2z"/>
		<path class="st0" d="M25,25.3c-0.1,0-0.2,0-0.3,0c-0.3,0-0.6,0-0.8-0.1c-0.4-0.1-0.7-0.5-0.7-1c0-1.1,0-2.2,0-3.3
			c0-0.6,0.5-1.1,1.1-1.1c0.8,0,1.5,0,2.3,0c0.8,0,1.6,0,2.3,0c0.6,0,1.1,0.5,1.1,1.1c0,1,0,2.1,0,3.2c0,0.6-0.4,1.1-1.1,1.1
			c-0.1,0-0.2,0-0.3,0H28v-0.7h0.8c0.3,0,0.5-0.2,0.5-0.5c0-1,0-2.1,0-3.1c0-0.3-0.2-0.5-0.5-0.5c-0.7,0-1.4,0-2.1,0
			c-0.8,0-1.6,0-2.4,0c-0.3,0-0.5,0.2-0.5,0.5c0,1,0,2,0,3.1c0,0.3,0.2,0.5,0.5,0.5h0.8v0.7L25,25.3z"/>
		<path class="st0" d="M28.3,23.9c0,0-0.1,0-0.2,0c-0.1-0.1-0.3-0.2-0.1-0.5c0.2-0.5,0.2-1,0-1.5c0-0.1-0.1-0.2,0-0.4
			c0-0.1,0.1-0.2,0.2-0.2c0,0,0.1,0,0.2,0c0.2,0,0.3,0.1,0.4,0.3c0.1,0.2,0.2,0.5,0.2,0.7l0.1,0.3l-0.1,0.4
			c-0.1,0.2-0.2,0.5-0.2,0.7C28.6,23.8,28.4,23.9,28.3,23.9z"/>
		<path class="st0" d="M24.8,23.9c-0.2,0-0.3-0.1-0.3-0.3c-0.1-0.2-0.2-0.5-0.2-0.7l-0.1-0.3l0.1-0.4c0.1-0.2,0.2-0.5,0.2-0.7
			c0.1-0.2,0.2-0.3,0.4-0.3c0,0,0.1,0,0.2,0c0.1,0,0.2,0.1,0.2,0.2c0,0.1,0,0.2,0,0.4c-0.3,0.5-0.3,1,0,1.5c0,0.1,0.1,0.2,0,0.3
			c0,0.1-0.1,0.2-0.2,0.2C25,23.8,24.9,23.9,24.8,23.9z"/>
	</g>
</g>
</svg>
