<svg xmlns="http://www.w3.org/2000/svg" viewBox="99 250 180 169.18">
  <defs>
    <style>
      .cls-1 {
        fill: #484D55;
      }
    </style>
  </defs>
  <g id="Group_1" data-name="Group 1" transform="translate(99 250)">
    <path id="Path_1" data-name="Path 1" class="cls-1" d="M145.843,117.6a1.372,1.372,0,0,1-1.112-.607,4.066,4.066,0,0,0-3.64-2.022,4.694,4.694,0,0,0-2.022.4h-.2a.525.525,0,0,1-.4-.2,4.442,4.442,0,0,0-3.944-2.326,9.572,9.572,0,0,0-1.921.3h-.1a.542.542,0,0,1-.506-.506v-9.607a3.236,3.236,0,1,0-6.472,0v16.685a1.6,1.6,0,0,1-1.618,1.618,1.474,1.474,0,0,1-1.315-.708l-1.517-2.427a3.243,3.243,0,1,0-5.562,3.337L127.742,145c.1.2.2.2.4.2h17.191a.672.672,0,0,0,.506-.4l.4-6.978c0-.1,0-.2.1-.2,4.247-6.472,5.461-10.618,4.753-14.865C150.495,118.306,147.36,117.6,145.843,117.6Z" transform="translate(1.292 1.121)"/>
    <path id="Path_2" data-name="Path 2" class="cls-1" d="M145.224,55.7c-1.213,1.416-2.326,2.831-3.742,4.551-1.416-1.82-2.427-3.236-3.438-4.449-1.416,1.213-2.427,2.124-3.944,3.539,1.517,1.213,2.933,2.326,4.854,3.944-1.719,1.213-3.135,2.326-4.247,3.135,1.112,1.315,2.022,2.326,3.135,3.539,1.213-1.416,2.326-2.629,3.944-4.449,1.315,1.618,2.427,3.034,3.337,4.146,1.213-1.112,2.225-2.022,3.539-3.337-1.315-1.112-2.73-2.225-4.449-3.64,1.719-1.315,3.135-2.326,4.449-3.438C147.347,57.925,146.437,56.913,145.224,55.7Z" transform="translate(1.507 0.626)"/>
    <path id="Path_3" data-name="Path 3" class="cls-1" d="M146.856,36.3c-2.326,2.73-4.449,5.36-6.674,7.989-1.618-1.416-3.034-2.629-4.551-3.944-1.011,1.112-1.921,2.225-2.831,3.337,2.629,2.326,5.157,4.551,7.888,6.978,3.236-3.944,6.371-7.685,9.607-11.629C148.98,38.019,147.969,37.21,146.856,36.3Z" transform="translate(1.492 0.408)"/>
    <path id="Path_4" data-name="Path 4" class="cls-1" d="M128.642,61.7H115.9v4.247h12.742Z" transform="translate(1.302 0.693)"/>
    <path id="Path_5" data-name="Path 5" class="cls-1" d="M128.542,44.7H115.8v4.045h12.742Z" transform="translate(1.301 0.502)"/>
    <path id="Path_6" data-name="Path 6" class="cls-1" d="M113.716,8.458l.1.607h33.472a1.168,1.168,0,0,1,1.213,1.213V27.267a3.367,3.367,0,0,0,3.337,3.337h17.292a1.013,1.013,0,0,1,1.011,1.011V80.762l.3.2A48.744,48.744,0,0,1,174.9,84.5l1.213,1.112V28.279a4.63,4.63,0,0,0-1.618-3.438c-.1-.1-.2-.1-.2-.2-2.124-2.124-4.348-4.247-6.472-6.472-4.551-4.551-9.1-9.1-13.652-13.551A4.5,4.5,0,0,0,151.233,3.2H112.3l.4,1.011C113.008,5.526,113.412,6.942,113.716,8.458ZM154.57,14.02l10.618,10.719h-8.9a1.772,1.772,0,0,1-1.719-1.719Z" transform="translate(1.262 0.036)"/>
    <path id="Path_7" data-name="Path 7" class="cls-1" d="M164.831,86.865a53.6,53.6,0,0,0-5.258-4.247,47.552,47.552,0,0,0-58.854,3.64,49.884,49.884,0,0,0-5.056,5.258,46.52,46.52,0,0,0-8.8,16.685,26.935,26.935,0,0,1-3.843-2.933L84.135,99.1c9.708-5.663,16.079-15.27,18.506-27.4,6.067-1.213,10.517-7.281,10.517-12.843,0-5.258-3.64-8.494-9.708-9.708V46.011l-.1-5.562c-.3-6.371-2.225-20.022-11.629-30.034C84.944,3.64,76.146,0,64.416,0c-11.225,0-20.528,3.64-27.4,10.517C24.978,22.955,25.382,42.371,25.382,43.888v5.258c-5.663.809-9.3,4.449-9.3,9.708,0,5.663,4.449,11.225,10.517,12.843,2.427,12.034,8.9,21.742,18.506,27.4v6.876c-3.236,2.831-9.708,6.472-12.438,8.09C.4,124.382,0,143.7,0,144.506v8.09a3.2,3.2,0,0,0,3.236,3.236H99.607a47.464,47.464,0,1,0,65.225-68.966ZM103.449,55.921c1.618.4,3.236,1.213,3.236,2.831,0,2.022-1.213,4.045-3.236,5.663ZM25.787,64.416c-1.618-1.618-3.236-3.64-3.236-5.663,0-1.618,1.618-2.427,3.236-2.831ZM42.27,15.27C47.933,9.607,55.112,6.775,64.82,6.775S81.708,9.607,87.371,15.27c7.685,8.09,9.3,19.719,9.708,25.382-18.2-1.213-31.854-10.416-32.258-10.416a3.167,3.167,0,0,0-3.236-.4,2.708,2.708,0,0,0-1.618,2.831c0,.4-.809,1.618-3.64,2.831A39.5,39.5,0,0,1,45.4,38.73a98.932,98.932,0,0,1-13.247,1.618C32.966,34.989,34.584,23.36,42.27,15.27ZM32.663,68.056c0-2.427-.4-4.449-.4-6.067V47.124c3.236-.4,8.9-.809,14.461-2.022,9.3-1.618,15.27-4.449,18.1-7.685a76.213,76.213,0,0,0,32.663,9.708V61.989a30.615,30.615,0,0,1-.4,6.067c-1.618,12.034-8.09,21.337-17.292,26.191a29.482,29.482,0,0,1-14.461,3.236,34.083,34.083,0,0,1-14.461-3.236C40.652,89.393,34.18,79.685,32.663,68.056Zm45,33.775v4.045a17.716,17.716,0,0,1-6.472,4.449,15.22,15.22,0,0,1-13.247,0c-2.831-1.618-5.258-3.64-6.472-4.449v-4.045a34.549,34.549,0,0,0,12.843,2.022C68.865,103.854,73.719,103.449,77.663,101.831ZM6.472,148.955v-4.449c0-.4.4-4.045,3.64-8.9C16.18,127.112,27,122.36,35.09,119.933c0,0,8.9-4.449,13.247-8.494,1.213.809,2.427,2.022,4.449,3.236l-4.045,12.034a1.837,1.837,0,0,0,0,2.022l6.876,20.124H6.472Zm55.921.4-6.876-20.933,3.64-10.517a31.223,31.223,0,0,0,6.067.809,31.223,31.223,0,0,0,6.067-.809l3.64,10.517L68.056,149.36Zm11.73,0L81,129.236a1.837,1.837,0,0,0,0-2.022L76.955,115.18c1.618-1.213,3.236-2.427,4.449-3.236,1.213.91,2.629,1.921,4.045,2.831a49.421,49.421,0,0,0-.506,6.674v.2a50.916,50.916,0,0,0,.506,6.775,47.162,47.162,0,0,0,8.7,21.236,31.781,31.781,0,0,1-4.146-.3Zm58.348,9.607A37.525,37.525,0,0,1,95.461,126.91a33.09,33.09,0,0,1-.4-5.461v-.2a37.208,37.208,0,0,1,8.494-23.562,50.511,50.511,0,0,1,3.944-4.146,37.35,37.35,0,0,1,46.315-2.933,42.77,42.77,0,0,1,4.146,3.337,37.563,37.563,0,0,1-25.483,65.022Z"/>
  </g>
</svg>
