<?xml version="1.0" encoding="utf-8"?>
<!-- Generator: Adobe Illustrator 19.2.0, SVG Export Plug-In . SVG Version: 6.00 Build 0)  -->
<svg version="1.1" id="Layer_1" xmlns="http://www.w3.org/2000/svg" xmlns:xlink="http://www.w3.org/1999/xlink" x="0px" y="0px"
	 viewBox="0 0 100 100" style="enable-background:new 0 0 100 100;" xml:space="preserve">
<style type="text/css">
	.st0{fill:#35c4ff;}
</style>
<path class="st0" d="M69.6,39.3c-16.8,0-30.4,13.6-30.4,30.4S52.9,100,69.6,100S100,86.4,100,69.6S86.4,39.3,69.6,39.3z M69.6,44.9
	c6,0,11.5,2.1,15.7,5.6L50.5,85.4c-3.5-4.3-5.6-9.8-5.6-15.7C44.9,56,56,44.9,69.6,44.9z M69.6,94.4c-6,0-11.5-2.1-15.7-5.6
	l34.8-34.8c3.5,4.3,5.6,9.8,5.6,15.7C94.4,83.3,83.3,94.4,69.6,94.4z"/>
<path class="st0" d="M35.8,48.1H38c1.1-1.5,2.2-3,3.5-4.3h-5.7c-1.2,0-2.2,1-2.2,2.2S34.6,48.1,35.8,48.1z"/>
<path class="st0" d="M24.3,45.9c0,1.2-1,2.2-2.2,2.2h-7.3c-1.2,0-2.2-1-2.2-2.2s1-2.2,2.2-2.2h7.3C23.3,43.7,24.3,44.7,24.3,45.9
	L24.3,45.9z"/>
<path class="st0" d="M24.3,60.8c0,1.2-1,2.2-2.2,2.2h-7.3c-1.2,0-2.2-1-2.2-2.2s1-2.2,2.2-2.2h7.3C23.3,58.6,24.3,59.6,24.3,60.8
	L24.3,60.8z"/>
<path class="st0" d="M24.3,75.8c0,1.2-1,2.2-2.2,2.2h-7.3c-1.2,0-2.2-1-2.2-2.2s1-2.2,2.2-2.2h7.3C23.3,73.5,24.3,74.5,24.3,75.8
	L24.3,75.8z"/>
<path class="st0" d="M38,87.8H7.6c-1.7,0-3-1.3-3-3v-51h90.9v8.1L100,45V17.2c0-4.1-3.4-7.5-7.5-7.5h-9.8V4.2c0-2.3-1.9-4.2-4.2-4.2
	h-6c-2.3,0-4.2,1.9-4.2,4.2v5.4h-36V4.2c0-2.3-1.9-4.2-4.2-4.2h-6c-2.3,0-4.2,1.9-4.2,4.2v5.4H7.5C3.4,9.7,0,13.1,0,17.2v67.6
	c0,4.1,3.4,7.5,7.5,7.5h31.9L38,87.8z M72.7,4.6h5.6v13.3h-5.6V4.6z M22.3,4.6h5.6v13.3h-5.6V4.6z M4.6,17.2c0-1.7,1.3-3,3-3h10.3v4
	c0,2.3,1.9,4.2,4.2,4.2h6c2.3,0,4.2-1.9,4.2-4.2v-4h35.8v4c0,2.3,1.9,4.2,4.2,4.2h6c2.3,0,4.2-1.9,4.2-4.2v-4h9.9c1.7,0,3,1.3,3,3
	v12.1H4.6V17.2z"/>
<path class="st0" d="M37.9,58.6h-2.1c-1.2,0-2.2,1-2.2,2.2s1,2.2,2.2,2.2h0.9C37,61.5,37.4,60,37.9,58.6z"/>
<path class="st0" d="M36.7,76.6c-0.2-1-0.3-2-0.4-2.9h-0.5c-1.2,0-2.2,1-2.2,2.2s1,2.2,2.2,2.2H37C36.9,77.5,36.8,77.1,36.7,76.6z"
	/>
</svg>
