<?xml version="1.0" encoding="utf-8"?>
<!-- Generator: Adobe Illustrator 19.2.0, SVG Export Plug-In . SVG Version: 6.00 Build 0)  -->
<svg version="1.1" id="Layer_1" xmlns="http://www.w3.org/2000/svg" xmlns:xlink="http://www.w3.org/1999/xlink" x="0px" y="0px"
	 viewBox="0 0 40 40" style="enable-background:new 0 0 40 40;" xml:space="preserve">
<style type="text/css">
	.st0{fill:#35c4ff;}
</style>
<g>
	<g>
		<path class="st0" d="M28.2,14.2c0.2,0,0.4,0.1,0.5,0.2c0.4,0.1,0.6,0.4,0.5,0.9c-0.3,1-0.7,2-1,2.9c-0.1,0.3-0.4,0.5-0.8,0.4
			c-0.3-0.1-0.5-0.4-0.5-0.7c0.2-1,0.4-2.1,0.7-3.1c0-0.2,0.3-0.3,0.4-0.5C28.1,14.3,28.2,14.3,28.2,14.2z"/>
		<path class="st0" d="M22.6,19.3c0.9-0.1,1.9,0,2.9,0.3c2.2,0.6,4.3,1.8,6.1,3.1c1.7,1.2,3.3,2.6,4.5,4.3c0.6,0.8,1,1.6,1.2,2.6
			c0.3,1.7-0.8,2.6-2.2,2.8c-1.5,0.1-2.9-0.3-4.3-0.9c-2.9-1.2-5.5-3-7.8-5.3c-1-1-1.8-2-2.3-3.3c-0.2-0.4-0.3-1-0.3-1.4
			C20.5,20.3,21.2,19.5,22.6,19.3z M23.4,21.4c-0.1,0-0.3,0.1-0.4,0.2c-0.1,0-0.2,0.2-0.2,0.2c0,0.2,0,0.4,0.1,0.6
			c0.2,0.7,0.6,1.4,1.1,1.9c1.8,2,3.9,3.5,6.3,4.7c1,0.5,2,0.9,3.1,1.1c0.5,0.1,1,0.1,1.5-0.1c0.1,0,0.2-0.2,0.2-0.3
			c0-0.2,0-0.4-0.1-0.6c-0.2-0.6-0.6-1.2-1-1.7c-2.3-2.7-5.1-4.6-8.4-5.7C24.9,21.4,24.2,21.3,23.4,21.4z"/>
		<path class="st0" d="M20.5,24.7c0.5,0.6,1.1,1.4,1.7,2.1c0.1,0.1,0.2,0.3,0.2,0.4c0,1.2-0.1,2.4-0.6,3.6c0,0.1,0,0.3,0,0.4
			c0.5,1.2,1.4,1.9,2.5,2.5c0.6,0.4,1.4,0.6,2.1,0.6c0.1,0,0.3,0,0.4-0.1c0.9-0.8,2-1.4,3.1-1.9c0.2,0,0.4,0,0.6,0
			c0.8,0.2,1.6,0.5,2.4,0.8c-0.1,0-0.2,0-0.4,0.1C30,33.7,28.1,35,26.7,37c-0.4,0.6-0.8,1.2-1.2,1.8C24.9,39.7,24,40.1,23,40
			c-2.4-0.3-4.3-1.5-5.3-3.7c-0.4-0.8-0.4-1.6,0.2-2.4c0.6-0.9,1.2-1.8,1.8-2.8c0.8-1.5,1.2-3.1,1-4.7
			C20.7,25.7,20.6,25.2,20.5,24.7z"/>
		<path class="st0" d="M38.9,21.4c0.1,0,0.2,0,0.2,0c0.3,0,0.7,0.5,0.8,0.8c0,0.3-0.1,0.6-0.4,0.8c-0.8,0.6-1.7,1.1-2.5,1.7
			c-0.4,0.3-1,0-1-0.5c0-0.2,0.1-0.4,0.2-0.5c0.8-0.7,1.6-1.4,2.4-2C38.7,21.6,38.8,21.5,38.9,21.4z"/>
		<path class="st0" d="M32.9,20.8c-0.3,0-0.5,0-0.7-0.2c-0.2-0.2-0.2-0.5-0.1-0.7c0.6-0.9,1.1-1.9,1.6-2.8c0.2-0.3,0.5-0.4,0.9-0.2
			c0.1,0.1,0.2,0.1,0.3,0.2c0.4,0.3,0.4,0.6,0.1,1c-0.6,0.8-1.2,1.6-1.9,2.4C33.2,20.6,33,20.7,32.9,20.8z"/>
		<path class="st0" d="M26.6,25.3c0.5-0.5,1-0.7,1.7-0.6c0.9,0.2,1.6,0.7,2,1.5c0.2,0.5,0.2,1-0.1,1.5
			C28.9,27.1,27.7,26.3,26.6,25.3z"/>
	</g>
	<path class="st0" d="M4.9,24.7h9.9c0.4,0,0.7-0.3,0.7-0.7c0-0.4-0.3-0.7-0.7-0.7H4.9c-0.4,0-0.7,0.3-0.7,0.7
		C4.2,24.4,4.5,24.7,4.9,24.7L4.9,24.7z"/>
	<path class="st0" d="M15,27.5H4.9c-0.4,0-0.7,0.3-0.7,0.7c0,0.4,0.3,0.7,0.7,0.7H15c0.4,0,0.7-0.3,0.7-0.7
		C15.7,27.8,15.4,27.5,15,27.5L15,27.5z"/>
	<path class="st0" d="M4.9,12.4h8.9c0.4,0,0.7-0.3,0.7-0.7c0-0.4-0.3-0.7-0.7-0.7H4.9c-0.4,0-0.7,0.3-0.7,0.7
		C4.2,12,4.5,12.4,4.9,12.4L4.9,12.4z"/>
	<path class="st0" d="M14.8,33c0.4,0,0.7-0.3,0.7-0.7c0-0.4-0.3-0.7-0.7-0.7H4.9c-0.4,0-0.7,0.3-0.7,0.7c0,0.4,0.3,0.7,0.7,0.7H14.8
		z"/>
	<path class="st0" d="M21.8,15.1H4.9c-0.4,0-0.7,0.3-0.7,0.7c0,0.4,0.3,0.7,0.7,0.7h16.9c0.4,0,0.7-0.3,0.7-0.7
		C22.5,15.4,22.2,15.1,21.8,15.1L21.8,15.1z"/>
	<path class="st0" d="M4.9,20.6h11.6c0.4,0,0.7-0.3,0.7-0.7s-0.3-0.7-0.7-0.7H4.9c-0.4,0-0.7,0.3-0.7,0.7
		C4.2,20.3,4.5,20.6,4.9,20.6L4.9,20.6z"/>
	<path class="st0" d="M14.3,36.5H1.4v-31h4.8v1.4c0,0.4,0.3,0.7,0.7,0.7h15.8c0.4,0,0.7-0.3,0.7-0.7V5.5h4.8v6.1
		c0,0.4,0.3,0.7,0.7,0.7c0.4,0,0.7-0.3,0.7-0.7V4.8c0-0.4-0.3-0.7-0.7-0.7h-5.5V2.8c0-0.4-0.3-0.7-0.7-0.7h-4.1V0.7
		c0-0.4-0.3-0.7-0.7-0.7h-6.2c-0.4,0-0.7,0.3-0.7,0.7V2H6.9C6.6,2,6.3,2.4,6.3,2.7v1.4H0.8c-0.4,0-0.7,0.3-0.7,0.7v32.3
		c0,0.4,0.3,0.7,0.7,0.7h13.5c0.4,0,0.7-0.3,0.7-0.7C15,36.7,14.6,36.5,14.3,36.5L14.3,36.5z M12.4,1.4h4.8v2.8h-4.8
		C12.4,4.1,12.4,1.4,12.4,1.4z M7.6,3.4H11v1.4c0,0.4,0.3,0.7,0.7,0.7h6.2c0.4,0,0.7-0.3,0.7-0.7V3.4H22v2.8H7.6V3.4z"/>
</g>
</svg>
