<?xml version="1.0" encoding="utf-8"?>
<!-- Generator: Adobe Illustrator 19.2.0, SVG Export Plug-In . SVG Version: 6.00 Build 0)  -->
<svg version="1.1" id="Capa_1" xmlns="http://www.w3.org/2000/svg" xmlns:xlink="http://www.w3.org/1999/xlink" x="0px" y="0px"
	 viewBox="0 0 40 40" style="enable-background:new 0 0 40 40;" xml:space="preserve">
<style type="text/css">
	.st0{fill:#484D55;}
</style>
<g>
	<path class="st0" d="M26.5,33.6c0.5,0.4,1.3,0.6,2.5,0.6l0.3,0v1.1h1.1v-1.1l0.3,0c1.2,0,2-0.2,2.5-0.6c0.5-0.4,0.7-1.2,0.7-2.2
		c0-1-0.2-1.6-0.6-2s-1.3-0.6-2.5-0.7l-0.4,0v-2.5h0.3c0.9,0,1.4,0.4,1.4,1.1l0,0.2h1.6v-0.2c0-1-0.2-1.6-0.7-2
		c-0.5-0.4-1.3-0.5-2.5-0.5v-1h-1.1v1c-1.3,0-2.2,0.2-2.7,0.6c-0.5,0.4-0.7,1.1-0.7,2.1c0,1,0.2,1.8,0.7,2.1
		c0.5,0.4,1.4,0.6,2.7,0.6v2.7l-0.2,0c-0.7,0-1.1-0.1-1.3-0.3c-0.2-0.2-0.3-0.6-0.3-1.2v-0.2h-1.7l0,0.3
		C25.8,32.5,26,33.2,26.5,33.6z M30.4,30.2c0.7,0,1.2,0.1,1.5,0.2c0.2,0.2,0.4,0.5,0.4,1c0,0.9-0.5,1.4-1.6,1.4h-0.2L30.4,30.2
		L30.4,30.2z M29,28.6c-1,0-1.5-0.4-1.5-1.2c0-0.8,0.5-1.2,1.5-1.2l0.2,0v2.4C29.1,28.6,29,28.6,29,28.6z M29.7,39.9
		c5.7,0,10.3-4.7,10.3-10.4s-4.6-10.4-10.3-10.4s-10.3,4.7-10.3,10.4C19.4,35.3,24,39.9,29.7,39.9z M29.7,19.9
		c5.3,0,9.6,4.3,9.6,9.7s-4.3,9.7-9.6,9.7s-9.6-4.3-9.6-9.7S24.4,19.9,29.7,19.9z M29.7,39.3c5.3,0,9.7-4.4,9.7-9.8
		s-4.3-9.8-9.7-9.8S20,24.2,20,29.6C20,34.9,24.4,39.3,29.7,39.3z M29.7,21.5c4.4,0,8,3.6,8,8.1s-3.6,8.1-8,8.1s-8-3.6-8-8.1
		C21.7,25.1,25.3,21.5,29.7,21.5z"/>
	<path class="st0" d="M16.9,21.5h0.3c2.4,0,4.4-0.9,5.8-2.5c3.2-3.6,2.7-9.8,2.6-10.3c-0.2-4.4-2.3-6.5-4-7.5
		C20.3,0.4,18.8,0,17.1,0H17c-0.9,0-2.7,0.1-4.5,1.1c-1.7,1-3.9,3.1-4.1,7.5C8.4,9.3,7.9,15.4,11.1,19
		C12.5,20.7,14.5,21.5,16.9,21.5L16.9,21.5z M10.7,8.9C10.7,8.9,10.7,8.8,10.7,8.9c0.3-6,4.5-6.6,6.3-6.6h0.1c2.2,0.1,6,1,6.3,6.6
		c0,0,0,0.1,0,0.1c0,0.1,0.6,5.7-2,8.7c-1,1.2-2.4,1.8-4.3,1.8H17c-1.8,0-3.2-0.6-4.3-1.8C10.1,14.6,10.7,8.9,10.7,8.9L10.7,8.9z"/>
	<path class="st0" d="M19.3,37.7c-0.7,0-1.5,0.1-2.3,0.1c-8,0-13.3-2.6-14.6-3.4c-0.1-0.7-0.2-1.8-0.2-2.6c0-0.1,0-0.1,0-0.2
		c0.1-1.9,0.3-4,2.2-4.6c4.1-1.1,7.4-3.4,7.6-3.5c0.5-0.4,0.6-1.1,0.3-1.6s-1.1-0.6-1.6-0.3c0,0-3.1,2.2-6.9,3.1c0,0-0.1,0-0.1,0
		c-3.6,1.2-3.7,5.1-3.8,6.7c0,0.1,0,0.1,0,0.2v0c0,0.4,0,2.6,0.4,3.8c0.1,0.2,0.2,0.4,0.4,0.5c0.3,0.2,6.2,4,16.2,4
		c1.3,0,2.5-0.1,3.7-0.2C20.2,39.1,19.7,38.3,19.3,37.7z"/>
</g>
</svg>
