<?xml version="1.0" encoding="utf-8"?>
<!-- Generator: Adobe Illustrator 19.2.0, SVG Export Plug-In . SVG Version: 6.00 Build 0)  -->
<svg version="1.1" id="Layer_1" xmlns="http://www.w3.org/2000/svg" xmlns:xlink="http://www.w3.org/1999/xlink" x="0px" y="0px"
	 viewBox="0 0 40 40" style="enable-background:new 0 0 40 40;" xml:space="preserve">
<style type="text/css">
	.st0{fill:#484D55;}
</style>
<g>
	<path class="st0" d="M25.6,40l-1.3-3.5l1-0.4l-0.1-0.2c-0.4-0.9-1.4-2.1-4.5-2.3c-0.2,0-2.1,0-2.6-1.4c0,0-0.3-0.9,0.3-1.6
		c0.5-0.6,1.4-0.9,2.7-0.9c0.4,0,0.9,0,1.3,0.1h0.2l0.1-0.2c0-0.1-0.1-0.2-0.1-0.4l-2.9-7.7c-0.2-0.5-0.2-1,0.1-1.5
		c0.2-0.5,0.6-0.9,1.2-1c0.2-0.1,0.5-0.1,0.7-0.1s0.4,0,0.6,0.1c0.1,0,1,0.3,1.2,1c0.1,0.3,1.7,4.6,1.7,4.6l0.2-0.2
		c0.3-0.3,0.6-0.5,1.1-0.6c0.5-0.2,0.9-0.2,1.2-0.2c0.6-0.3,1.3-0.4,1.9-0.4c0.7,0,1.3,0.1,1.7,0.4c0.1,0,0.1,0,0.2,0s0.3,0,0.5,0
		s0.4-0.1,0.7-0.1c0.9,0,1.6,0.4,2.1,1.2c0,0.1,1.4,2.9,1.4,4.8c0,0.7-0.1,1.1-0.1,1.5c-0.1,0.4-0.1,0.7,0,1.2v0.2l1-0.3l1.3,3.5
		L25.6,40"/>
	<path class="st0" d="M21.2,30.7c-0.6,0-1,0.1-1.4,0.2c-0.3,0.1-0.4,0.2-0.5,0.3c-0.2,0.3-0.1,0.6-0.1,0.7c0.3,0.8,1.6,0.8,1.7,0.8
		c2.2,0.2,3.8,0.8,4.8,1.9c0.3,0.3,0.5,0.7,0.6,1l0.1,0.1l8.7-3.1v-0.1c-0.2-0.8-0.1-1.2,0-1.7c0.1-0.3,0.1-0.7,0.1-1.3
		c0-1.6-1.1-4.1-1.3-4.4c-0.3-0.5-0.7-0.8-1.2-0.8c-0.2,0-0.4,0-0.6,0.1c-0.2,0-0.4,0.1-0.6,0.1s-0.4,0-0.5-0.1
		c-0.5-0.2-1-0.3-1.4-0.3c-0.5,0-0.9,0.1-1.1,0.2s-0.2,0-0.2,0c-0.1,0-0.1,0-0.2,0h-0.4c-0.1,0-0.5,0.1-1,0.3
		c-0.5,0.2-1.3,0.5-1.1,1.1l0.1,0.3c0,0.2-0.1,0.5-0.3,0.6c-0.1,0-0.1,0-0.2,0c-0.2,0-0.4-0.1-0.5-0.3l-2.1-5.7
		c-0.1-0.4-0.5-0.7-1-0.7c-0.1,0-0.2,0-0.4,0.1c-0.3,0.1-0.5,0.3-0.6,0.5s-0.1,0.5,0,0.8l2.9,7.8c0.4,1,0.2,1.6,0.2,1.6l-0.1,0.4
		L23.2,31C22.4,30.8,21.7,30.7,21.2,30.7z"/>
	<path class="st0" d="M3.9,37.2c-1.5,0-2.3-1-2.3-2.4V2.3C1.6,0.9,2.4,0,3.9,0h22c1.5,0,2.8,0.9,2.8,2.3V21l-2,0.3v-19
		c0-0.5-0.3-1.3-0.8-1.3h-22C3.4,1,3.6,1.8,3.6,2.3v29.8H16c0,0,0.1,0.5,0.2,0.6c0.7,2,2.9,2.8,4.5,2.8c0.4,0,0.8,0,1.1,0.1l0.6,1.5
		C22.4,37.2,3.9,37.2,3.9,37.2z M13.6,33.9v2.3h3v-2.3l-1.5-1L13.6,33.9z"/>
	<path class="st0" d="M14.9,19.8c-4.6,0-8.3-3.6-8.3-8.1s3.7-8.1,8.3-8.1s8.3,3.6,8.3,8.1S19.5,19.8,14.9,19.8z M14.9,5
		c-3.8,0-6.8,3-6.8,6.7s3.1,6.7,6.8,6.7c3.8,0,6.8-3,6.8-6.7S18.7,5,14.9,5z"/>
	<path class="st0" d="M14.9,12.1c-0.3,0-0.3,0.3-0.3,0.1V6.9c0-0.3,0.2-0.5,0.5-0.5s0.5,0.2,0.5,0.5V12h-0.7V12.1z"/>
	<polygon class="st0" points="5.4,28.9 5.7,28.3 7.2,28.8 8.5,24.5 10.4,26.7 13.1,23.4 18.4,21.4 18.7,22.1 13.6,24 10.4,27.9 
		8.8,26 7.6,29.8 	"/>
</g>
</svg>
