<?xml version="1.0" encoding="utf-8"?>
<!-- Generator: Adobe Illustrator 19.2.0, SVG Export Plug-In . SVG Version: 6.00 Build 0)  -->
<svg version="1.1" id="Layer_1" xmlns="http://www.w3.org/2000/svg" xmlns:xlink="http://www.w3.org/1999/xlink" x="0px" y="0px"
	 viewBox="0 0 20 20" style="enable-background:new 0 0 20 20;" xml:space="preserve">
<style type="text/css">
	.st0{fill:#35c4ff;}
</style>
<g>
	<path class="st0" d="M16.5,4.2h-13V3.4h13.1L16.5,4.2L16.5,4.2z M3.5,15.2h7.1c-0.2-0.2-0.4-0.4-0.5-0.6H3.5V15.2z M3.5,13.6h6.2
		c-0.1-0.2-0.2-0.4-0.2-0.6h-6V13.6z M10.9,7.4c0.2-0.2,0.5-0.5,0.8-0.6H10v0.6H10.9z M3.5,16.6h9.1c-0.4-0.2-0.8-0.4-1.2-0.6H3.5
		V16.6z M19.9,13c-0.2,0.8-0.5,1.4-0.9,2l1,1.8v-3.9C20,12.9,20,12.9,19.9,13L19.9,13z M10.7,13.9c-1.2-2.2-0.5-5,1.7-6.2
		s5-0.5,6.2,1.7c1.3,2.2,0.5,5-1.6,6.2C14.8,16.9,12,16.1,10.7,13.9L10.7,13.9z M16.6,14.9c1.8-1.1,2.5-3.4,1.4-5.2
		s-3.4-2.5-5.2-1.4s-2.5,3.4-1.4,5.2C12.4,15.4,14.8,16,16.6,14.9L16.6,14.9z"/>
	<path class="st0" d="M16.6,19H2.7c-1,0-1.7-0.8-1.7-1.7V2.7C1,1.7,1.7,1,2.7,1h14.6c1,0,1.7,0.8,1.7,1.7v5.2c0.3,0.4,0.6,0.9,1,1.8
		v-7C20,1.2,18.8,0,17.3,0H2.7C1.2,0,0,1.2,0,2.7v14.6C0,18.8,1.2,20,2.7,20h14.5L16.6,19z"/>
	<g>
		<path class="st0" d="M9.4,11.4H3.5V5.8h5.9V11.4z M4,10.9h4.9V6.3H4V10.9z"/>
	</g>
</g>
<g>
	<polygon class="st0" points="18.2,15.7 16.8,16.4 18.3,19.3 19.7,18.6 	"/>
	<path class="st0" d="M18.5,19.6c0.2,0.4,0.7,0.5,1,0.3c0.4-0.2,0.5-0.7,0.3-1L18.5,19.6z"/>
</g>
</svg>
