<?xml version="1.0" encoding="utf-8"?>
<!-- Generator: Adobe Illustrator 22.0.1, SVG Export Plug-In . SVG Version: 6.00 Build 0)  -->
<svg version="1.1" id="Layer_1" xmlns="http://www.w3.org/2000/svg" xmlns:xlink="http://www.w3.org/1999/xlink" x="0px" y="0px"
	 viewBox="0 0 20 20" style="enable-background:new 0 0 20 20;" xml:space="preserve">
<style type="text/css">
	.st0{fill:#35C4FF;}
</style>
<g>
	<path class="st0" d="M11.3,2.1H3.8c-0.2,0-0.4,0.2-0.4,0.4v5.4c0,0.2,0.2,0.4,0.4,0.4h7.5c0.2,0,0.4-0.2,0.4-0.4V2.5
		C11.7,2.3,11.5,2.1,11.3,2.1z M10.9,7.5h-0.1H4.2V2.9h6.7V7.5z"/>
	<path class="st0" d="M14.6,19.2H0.4c-0.2,0-0.4,0.2-0.4,0.4S0.2,20,0.4,20h14.2c0.2,0,0.4-0.2,0.4-0.4S14.8,19.2,14.6,19.2z"/>
	<path class="st0" d="M16.8,11.5c-1.7,0-3,1.4-3,3c0,0.4,0.1,0.9,0.3,1.2c0.8,1.7,2.2,3.4,2.6,3.9l0.1,0.1c0,0,0.1,0,0.1-0.1
		c0.4-0.5,1.9-2.2,2.6-3.9c0.2-0.4,0.3-0.8,0.3-1.2C19.8,12.9,18.5,11.5,16.8,11.5z M16.8,16.1c-0.9,0-1.6-0.7-1.6-1.6
		c0-0.9,0.7-1.6,1.6-1.6c0.9,0,1.6,0.7,1.6,1.6C18.4,15.4,17.7,16.1,16.8,16.1z"/>
	<path class="st0" d="M17.1,5.4c0.3,0.3,0.4,0.5,0.4,0.8h-1.2c-0.3,0-0.5,0.2-0.5,0.5v2c0,0.5,0.4,0.8,0.8,0.8h0.8V10
		c0.3,0,0.6,0.1,0.8,0.2v-4c0-0.6-0.3-1-0.6-1.4l-1.3-1.5c0-0.1-0.1-0.1-0.2-0.1c-0.5,0-0.6,0.5-0.4,0.7L17.1,5.4z M17.5,8.8h-0.8
		V7.1h0.8V8.8z"/>
	<path class="st0" d="M2.2,18.7c0.3,0,0.7,0,1.2,0h8.3c0.5,0,0.9,0,1.2,0c0.5,0,0.9,0,0.9-0.4c-0.4-0.4-0.6-0.9-0.9-1.4v1
		c-0.3,0-0.7,0-1.3,0H3.3c-0.6,0-1,0-1.3,0V2.1c0-0.7,0.6-1.3,1.3-1.3h8.3c0.7,0,1.3,0.6,1.3,1.3v10.3c0.2-0.4,0.5-0.8,0.8-1.1V10
		h0.7c0.3,0,0.5,0.2,0.5,0.4v0.1c0.3-0.1,0.5-0.2,0.8-0.3c-0.1-0.6-0.7-1-1.3-1h-0.7V2.1C13.7,1,12.8,0,11.6,0H3.3
		c-1.1,0-2,0.9-2,2.1v16.2C1.3,18.7,1.6,18.7,2.2,18.7z"/>
</g>
</svg>
