<?xml version="1.0" encoding="utf-8"?>
<!-- Generator: Adobe Illustrator 22.0.1, SVG Export Plug-In . SVG Version: 6.00 Build 0)  -->
<svg version="1.1" id="Layer_1" xmlns="http://www.w3.org/2000/svg" xmlns:xlink="http://www.w3.org/1999/xlink" x="0px" y="0px"
	 viewBox="0 0 20 20" style="enable-background:new 0 0 20 20;" xml:space="preserve">
<style type="text/css">
	.st0{fill:#35C4FF;}
</style>
<g>
	<path class="st0" d="M18.7,7.3c-0.6-0.5-1.1-1.1-1.7-1.7c-0.2-0.1-0.2-0.2-0.2-0.4c0-0.3,0-0.6,0-0.9c0-0.5-0.3-0.8-0.8-0.8
		c-0.1,0-0.1,0-0.2,0c0-0.5,0-0.9,0-1.3h0.1c0.5,0,0.8-0.3,0.9-0.7c0.1-0.5,0-1-0.4-1.3C16.3,0.1,16.1,0.1,16,0C11.4,0,6.9,0,2.3,0
		C2.1,0.1,2,0.2,1.8,0.3C1.5,0.6,1.5,1,1.6,1.4c0,0.4,0.3,0.8,0.9,0.8c0.1,0,0.1,0,0.2,0c0,5.3,0,10.6,0,15.9c-0.3,0-0.6,0-0.9,0
		c-0.4,0-0.6,0.2-0.7,0.5c0,0.3-0.1,0.5,0,0.8c0.1,0.3,0.4,0.5,0.8,0.5c4.8,0,9.6,0,14.4,0c0.7,0,1-0.2,1-1c0-0.5-0.3-0.8-0.8-0.8
		c-0.2,0-0.5,0-0.7,0c0-2.4,0-4.9,0-7.3c0.1,0,0.1,0,0.2,0c0.5,0,0.7,0.2,0.7,0.7c0,0.2,0,0.4,0,0.6c0,0.4,0,0.8,0,1.2
		c0,0.2,0.1,0.3,0.3,0.3s0.3-0.1,0.3-0.3c0-0.6,0-1.3,0-2c0-0.6-0.5-1.1-1.1-1.1c-0.1,0-0.2,0-0.3,0c0-0.6,0-1.1,0-1.6H16
		c0.6-0.1,0.9-0.4,0.9-1c0-0.4,0-0.8,0-1.2c0-0.1,0-0.1,0-0.2c0.3,0.3,0.5,0.5,0.8,0.8c-0.1,0-0.1,0.1-0.2,0.1
		C17.2,7.3,17,7.5,17,7.9c0,0.5,0,0.9,0,1.4c0,0.3,0.2,0.6,0.5,0.8s0.7,0.2,1,0.1v0.1c0,2,0,4,0,6c0,0.4-0.3,0.6-0.6,0.6
		c-0.4,0-0.6-0.2-0.6-0.6c0-0.5,0-1,0-1.5c0-0.2,0-0.3,0-0.5S17.2,14,17,14s-0.3,0.1-0.3,0.3v0.1c0,0.6,0,1.2,0,1.8
		c0,0.2,0,0.4,0.1,0.6c0.2,0.6,0.7,0.8,1.3,0.7c0.5-0.1,0.9-0.6,0.9-1.2c0-2.7,0-5.4,0-8.1C19,7.8,18.9,7.5,18.7,7.3z M12.3,0.6
		c0.3,0,0.5,0,0.8,0c0.9,0,1.7,0,2.6,0c0.1,0,0.4,0,0.4,0.2c0.1,0.2,0,0.4,0,0.6c-0.1,0.1-0.2,0.2-0.3,0.2c-1.2,0-2.3,0-3.5,0
		C12.3,1.3,12.3,0.9,12.3,0.6z M2.1,0.8c0-0.1,0.2-0.2,0.3-0.2c0.2,0,0.3,0,0.5,0c2.9,0,5.7,0,8.5,0c0.1,0,0.2,0,0.3,0
		c0,0.4,0,0.7,0,1c-0.1,0-0.1,0-0.2,0c-2.9,0-5.9,0-8.8,0C2.2,1.6,2,1.3,2.1,0.8z M16.5,19c0.1-0.1,0.2,0,0.2,0.2v0.1
		c0.1,0.1,0,0.2-0.2,0.2c-4,0-7.9,0-11.9,0c-0.9,0-1.8,0-2.7,0c-0.3,0-0.3,0-0.3-0.3c0-0.1,0-0.1,0-0.1c0-0.3,0-0.3,0.3-0.3
		c1.2,0,2.4,0,3.6,0c2.3,0,4.7,0,7,0c0,0,0.1,0,0.2,0c0.2,0,0.3-0.1,0.3-0.3s-0.1-0.3-0.3-0.3c-0.1,0-0.1,0-0.2,0c-3,0-6.1,0-9.1,0
		c0,0-0.1,0-0.2,0c0-5.4,0-10.7,0.1-15.7c4,0,7.9,0,11.9,0c0,5.3,0,10.6,0,15.9c-0.3,0-0.6,0-0.9,0c-0.1,0-0.2,0-0.2,0
		c-0.1,0.1-0.2,0.2-0.2,0.3c0,0.1,0.1,0.2,0.2,0.3c0,0,0.1,0,0.2,0C15,19,15.8,19,16.5,19z M16.1,7c0,0.2,0,0.4,0,0.6
		c0,0.4,0,0.4-0.4,0.4c0-1.3,0-2.6-0.1-4c0.1,0,0.1,0,0.2,0c0.2,0,0.3,0.1,0.3,0.3C16.1,5.2,16.1,6.1,16.1,7z M18.4,8.4
		c0,0.1,0,0.2,0,0.3c0,0.2,0,0.4-0.1,0.6c0,0.3-0.1,0.5-0.4,0.5c-0.2,0-0.4-0.2-0.4-0.5c0-0.4,0-0.8,0-1.2c0.1-0.3,0.3-0.5,0.5-0.5
		s0.4,0.2,0.4,0.5C18.4,8.2,18.4,8.3,18.4,8.4z"/>
	<path class="st0" d="M14,4.5c0-0.6-0.4-1-1.1-1c-2.5,0-5.1,0-7.7,0c-0.6,0-1,0.4-1,1.1c0,1.2,0,2.3,0,3.5c0,0.6,0.4,1,1.1,1
		c1.2,0,2.5,0,3.8,0c1.3,0,2.6,0,3.9-0.1c0.6,0,1-0.3,1-1C14,6.9,14,5.7,14,4.5z M13.4,8c0,0.3-0.1,0.4-0.4,0.4c-2.5,0-5.1,0-7.7,0
		C5,8.4,4.9,8.4,4.9,8c0-1.2,0-2.3,0-3.5c0-0.3,0.1-0.4,0.4-0.4c1.3,0,2.6,0,3.9,0c1.2,0,2.5,0,3.8,0c0.3,0,0.4,0,0.4,0.4
		C13.4,5.7,13.4,6.8,13.4,8z"/>
	<path class="st0" d="M9.1,10.1c-1.9,0-3.5,1.6-3.5,3.5c0,1.9,1.6,3.5,3.5,3.5c2,0,3.5-1.6,3.5-3.5C12.6,11.7,11,10.1,9.1,10.1z
		 M9.1,16.5c-1.6,0-2.9-1.3-2.9-2.9c0-1.6,1.3-2.9,2.9-2.9c1.6,0,2.9,1.3,2.9,2.9C12,15.2,10.7,16.5,9.1,16.5z"/>
	<path class="st0" d="M8.4,5C7.6,5,6.9,5,6.1,5C5.7,5,5.5,5.2,5.5,5.6c0,0.5,0,0.9,0,1.4c0,0.4,0.2,0.6,0.6,0.6c0.4,0,0.8,0,1.2,0
		c0.4,0,0.8,0,1.1,0C8.8,7.6,9,7.4,9,7c0-0.5,0-0.9,0-1.4C9,5.2,8.8,5,8.4,5z M8.4,7C7.6,7,6.9,7,6.1,6.9c0-0.4,0-0.8,0-1.3h0.1
		c0.7,0,1.3,0,2,0c0.2,0,0.2,0.1,0.2,0.2C8.4,6.2,8.4,6.6,8.4,7z"/>
	<path class="st0" d="M12.4,5c-0.4,0-0.9,0-1.3,0c-0.4,0-0.9,0-1.3,0C9.5,5,9.4,5.1,9.4,5.3s0.2,0.3,0.4,0.3c0.8,0,1.7,0,2.6,0
		c0.3,0,0.4-0.1,0.4-0.3S12.6,5,12.4,5z"/>
	<path class="st0" d="M9.7,6.5c0.9,0,1.8,0,2.7,0c0.1,0,0.2,0,0.2-0.1c0.1-0.1,0.1-0.2,0.1-0.3c0-0.1-0.1-0.2-0.3-0.2
		c-0.4,0-0.9,0-1.3,0c-0.5,0-0.9,0-1.4,0C9.4,5.9,9.3,6,9.3,6.2C9.3,6.4,9.5,6.5,9.7,6.5z"/>
	<path class="st0" d="M9.7,6.8C9.5,6.9,9.4,7,9.4,7.2c-0.1,0.2,0,0.4,0.2,0.4c0.2,0,0.4-0.1,0.4-0.4C10,6.9,9.9,6.7,9.7,6.8z"/>
	<path class="st0" d="M12.5,6.8c-0.1,0-0.2,0-0.3,0.1c-0.1,0.2-0.1,0.5,0,0.6c0.1,0.1,0.3,0.2,0.4,0.1c0.2-0.1,0.2-0.2,0.2-0.4
		C12.8,7,12.7,6.9,12.5,6.8z"/>
	<path class="st0" d="M10.4,6.8c-0.2,0-0.3,0.2-0.3,0.4c0,0.2,0.1,0.4,0.3,0.4c0.2,0,0.3-0.1,0.3-0.4C10.7,6.9,10.6,6.8,10.4,6.8z"
		/>
	<path class="st0" d="M11.1,6.8c-0.2,0-0.3,0.2-0.3,0.4c0,0.2,0.1,0.4,0.3,0.4c0.2,0,0.3-0.1,0.3-0.4C11.4,6.9,11.3,6.8,11.1,6.8z"
		/>
	<path class="st0" d="M11.8,6.8c-0.2,0-0.3,0.1-0.3,0.4c0,0.3,0.1,0.4,0.3,0.4s0.3-0.1,0.3-0.4C12.1,6.9,12,6.8,11.8,6.8z"/>
	<path class="st0" d="M9.5,11.7c-0.2-0.2-0.5-0.2-0.7,0c-0.1,0.1-0.2,0.3-0.3,0.4c-0.1,0.1,0,0.3,0.1,0.4c0.1,0.1,0.3,0.1,0.4,0
		c0,0,0.1-0.1,0.1-0.2c0.2,0.2,0.3,0.4,0.4,0.5c0.2,0.3,0.4,0.5,0.5,0.8c0.2,0.4,0.1,0.8-0.2,1.1C9.5,15,9,15.1,8.7,14.8
		c-0.4-0.2-0.6-0.6-0.5-1c0.1-0.2,0.2-0.4,0.3-0.6c0.1-0.1,0-0.3-0.1-0.4c-0.1-0.1-0.3,0-0.4,0.1c-0.2,0.3-0.4,0.6-0.4,1
		c-0.1,0.7,0.3,1.3,0.9,1.6s1.3,0.2,1.8-0.3s0.6-1.2,0.3-1.8C10.3,12.8,9.9,12.2,9.5,11.7z"/>
</g>
</svg>
