<?xml version="1.0" encoding="utf-8"?>
<!-- Generator: Adobe Illustrator 22.0.1, SVG Export Plug-In . SVG Version: 6.00 Build 0)  -->
<svg version="1.1" id="Layer_1" xmlns="http://www.w3.org/2000/svg" xmlns:xlink="http://www.w3.org/1999/xlink" x="0px" y="0px"
	 viewBox="0 0 20 20" style="enable-background:new 0 0 20 20;" xml:space="preserve">
<style type="text/css">
	.st0{fill:#35C4FF;}
</style>
<g>
	<path class="st0" d="M10,0C4.5,0,0,4.5,0,10s4.5,10,10,10s10-4.5,10-10S15.5,0,10,0z M18.6,12.9c-0.2,0.5-0.4,0.6-0.9,0.3
		c-0.4-0.2-0.6-0.3-1.1-0.6c-0.4-0.2-0.5-0.2-0.7,0.2c-0.1,0.2-0.1,0.1-0.2,0.3c-0.2,0.3-0.1,0.5,0.2,0.7c0.5,0.3,0.7,0.4,1.2,0.7
		c0.3,0.2,0.3,0.6,0,1C13.5,20,6.5,20,2.9,15.5c-0.3-0.3-0.4-0.8,0-1c0.5-0.3,0.6-0.3,1.1-0.6c0.1-0.1,0.2-0.2,0.2-0.3
		c0-0.1-0.3-0.6-0.3-0.6c-0.1-0.1-0.3-0.2-0.5,0c-0.4,0.3-0.6,0.4-1,0.7c-0.4,0.2-0.8,0-0.9-0.5c-0.3-0.7-0.4-1.5-0.6-2.3
		c-0.1-0.4,0.1-0.6,0.5-0.6c0.4,0,0.3-0.6,0.1-0.6C0.9,9.6,0.8,9.5,0.9,8.9c0.2-0.8,0.3-1.5,0.5-2.2c0.2-0.5,0.5-0.7,1-0.4
		c0.4,0.2,0.3,0.2,0.8,0.5c0.3,0.1,0.5,0.1,0.7-0.2C4,6.4,4.2,6,4.2,5.9c0-0.1-0.1-0.2-0.3-0.3C3.4,5.3,3.6,5.4,3.1,5.1
		C2.7,4.8,2.6,4.5,2.9,4.2C3.5,3.7,4,3.1,4.6,2.6C5,2.3,5.2,2.4,5.5,2.8C5.6,3,5.7,3,5.9,2.9C6.1,2.8,6.1,2.7,6,2.5
		C5.8,2,5.9,1.8,6.3,1.6C7.1,1.4,7.8,1.2,8.6,1C9,0.9,9.2,1.1,9.2,1.5c0,0.3,0,0.3,0,0.6s0,0.3,0,0.5C9.2,3,9.3,3,9.6,3
		C9.8,3,9.8,3,10,3c0.3,0,0.4-0.1,0.4-0.5c0-0.6,0-0.5,0-1.1c0-0.5,0.5-0.6,1-0.5c0.7,0.2,1.5,0.5,2.2,0.7c0.5,0.1,0.5,0.4,0.3,0.8
		c-0.1,0.3-0.1,0.4,0.1,0.5C14.2,3,14.3,3,14.5,2.5C14.8,2.1,15,2,15.4,2.3c0.6,0.5,1.2,1,1.7,1.6c0.4,0.3,0.3,0.6-0.1,0.8
		C16.5,5,16.5,5,16,5.2c-0.3,0.2-0.4,0.4-0.2,0.7c0.1,0.2,0.3,0.5,0.4,0.5c0.1,0.1,0.3,0.1,0.4,0c0.5-0.3,0.5-0.3,1-0.6
		c0.4-0.2,0.8,0,0.9,0.5c0.2,0.8,0.4,1.6,0.6,2.4c0.1,0.4-0.1,0.6-0.5,0.6c-0.3,0-0.4,0.1-0.4,0.4c0.1,0.2,0.1,0.3,0.3,0.3
		c0.6,0.1,0.7,0.2,0.6,0.8C19,11.5,18.8,12.2,18.6,12.9z"/>
	<path class="st0" d="M12.3,13c0-0.1,0-0.2,0.1-0.4c-0.3,0-0.6,0-0.9,0c0,0.1,0,0.1,0,0.1c0.2,0,0.4,0,0.6,0.1
		c-0.1,0.3-0.2,0.6-0.2,0.8c-0.2-0.2-0.4-0.3-0.6-0.7c0-0.3,0-0.7,0-1.1c-0.9,0-1.8,0-2.7,0c0,1.4,0,2.8,0,4.3
		c-0.3,0-0.2,0.2-0.2,0.4c1.1,0,2.2,0,3.3,0c0-0.2,0-0.4-0.1-0.4c-0.2,0-0.2-0.2-0.2-0.3c0-0.8,0-1.6,0-2.4c0,0,0-0.1,0-0.2
		c0.3,0.2,0.6,0.6,0.5,0.9c0,0.3,0,0.5-0.1,0.7c-0.1,0.2,0,0.4,0.2,0.5c0-0.1-0.1-0.2-0.1-0.3c0-0.2,0-0.4,0.1-0.7
		c0.1,0.3,0.3,0.4,0.4,0.7c0,0.1,0,0.2-0.1,0.3c0.1,0,0.1,0,0.2-0.1c0.2-0.2,0.1-0.4,0-0.6C12.1,14.1,12.1,13.6,12.3,13z M11,12.6
		c0,0.3,0,0.6,0,0.9c-0.7,0-1.3,0-2,0c0-0.4,0-0.8,0-1.2c0.6,0,1.3,0,2,0C11,12.4,11,12.5,11,12.6z"/>
	<path class="st0" d="M12.3,15.3C12.3,15.3,12.3,15.3,12.3,15.3c-0.1,0-0.2,0-0.3,0C12.1,15.3,12.2,15.3,12.3,15.3z"/>
	<path class="st0" d="M10,11.1c0.5,0,0.9-0.2,1.1-0.7c0.2-0.5,0-0.9-0.3-1.3c-0.6-0.6-1.3-1.3-1.9-2c-0.9-1-1.8-2-2.8-3
		c0,0.1,0,0.2,0,0.2C7,6.3,8,8.4,9,10.4C9.2,10.8,9.5,11.1,10,11.1z M10,9.1c0.5,0,0.9,0.4,0.9,0.9s-0.4,0.9-0.9,0.9
		s-0.9-0.4-0.9-0.8C9.1,9.5,9.5,9.1,10,9.1z"/>
	<path class="st0" d="M4.8,16.5c0.5,0,0.9,0,1.4,0c0-0.1,0-0.3,0-0.4c-0.3,0-0.6,0-0.9,0c0-0.2,0-0.3,0-0.5c0.3,0,0.5,0,0.8,0
		c0-0.1,0-0.2,0-0.4c-0.3,0-0.5,0-0.8,0c0-0.2,0-0.3,0-0.5c0.3,0,0.6,0,0.9,0c0-0.2,0-0.3,0-0.4c-0.5,0-0.9,0-1.4,0
		C4.8,15,4.8,15.8,4.8,16.5z"/>
	<path class="st0" d="M13.8,16.5c0.2,0,0.3,0,0.5,0c0-0.3,0-0.6,0-0.9c0.3,0,0.5,0,0.8,0c0-0.1,0-0.3,0-0.4c-0.3,0-0.5,0-0.8,0
		c0-0.2,0-0.3,0-0.5c0.2,0,0.5,0,0.8,0c0-0.2,0-0.3,0-0.4c-0.5,0-0.9,0-1.4,0C13.7,15,13.7,15.8,13.8,16.5z"/>
</g>
</svg>
