<?xml version="1.0" encoding="utf-8"?>
<!-- Generator: Adobe Illustrator 22.0.1, SVG Export Plug-In . SVG Version: 6.00 Build 0)  -->
<svg version="1.1" id="Layer_1" xmlns="http://www.w3.org/2000/svg" xmlns:xlink="http://www.w3.org/1999/xlink" x="0px" y="0px"
	 viewBox="0 0 20 20" style="enable-background:new 0 0 20 20;" xml:space="preserve">
<style type="text/css">
	.st0{fill:#35C4FF;}
</style>
<g>
	<path class="st0" d="M12.1,2.1H4.6c-0.2,0-0.4,0.2-0.4,0.4v5.4c0,0.2,0.2,0.4,0.4,0.4h7.5c0.2,0,0.4-0.2,0.4-0.4V2.5
		C12.5,2.3,12.3,2.1,12.1,2.1z M11.7,7.5H5V2.9h6.7V7.5z"/>
	<path class="st0" d="M15.4,19.2H1.3c-0.2,0-0.4,0.2-0.4,0.4C0.8,19.8,1,20,1.3,20h14.2c0.2,0,0.4-0.2,0.4-0.4
		C15.8,19.4,15.6,19.2,15.4,19.2z"/>
	<path class="st0" d="M18.5,4.9l-1.3-1.5c0-0.1-0.1-0.1-0.2-0.1c-0.5,0-0.6,0.5-0.4,0.7l1.2,1.4c0.3,0.3,0.4,0.5,0.4,0.8H17
		c-0.3,0-0.5,0.2-0.5,0.5v2c0,0.5,0.4,0.8,0.8,0.8h0.8v6.2c0,0.2-0.2,0.4-0.4,0.4H17c-0.2,0-0.3-0.2-0.3-0.4v-5.4
		c0-0.7-0.7-1.2-1.3-1.2h-0.7v-7C14.7,1,13.8,0,12.6,0H4.2C3,0,2.1,0.9,2.1,2.1v16.2c0,0.4,0.3,0.4,0.9,0.4c0.3,0,0.7,0,1.2,0h8.3
		c0.5,0,0.9,0,1.2,0c0.6,0,0.9,0,0.9-0.4V10h0.7c0.3,0,0.5,0.2,0.5,0.4v5.4c0,0.7,0.5,1.3,1.2,1.3h0.9c0.7,0,1.3-0.6,1.3-1.3V6.3
		C19.2,5.6,18.8,5.2,18.5,4.9z M13.8,17.9c-0.3,0-0.7,0-1.3,0H4.2c-0.6,0-1,0-1.2,0V2.1c0-0.7,0.6-1.3,1.2-1.3h8.3
		c0.7,0,1.3,0.6,1.3,1.3V17.9z M18.3,8.8h-0.8V7.1h0.8V8.8z"/>
	<path class="st0" d="M8.3,13.1v-2c0.5,0,0.9,0.1,1.2,0.3v-0.6c-0.2-0.1-0.6-0.2-1.2-0.2V9.9H7.8v0.7c-0.4,0.1-0.8,0.2-1.1,0.5
		c-0.3,0.2-0.4,0.5-0.4,0.9c0,0.3,0.2,0.6,0.3,0.8c0.1,0.2,0.6,0.4,1.2,0.7v1.9c-0.2,0-0.5,0-0.8-0.1S6.5,15.1,6.3,15v0.7
		C6.7,15.9,7.2,16,7.8,16v0.7h0.5v-0.8c0.5,0,0.9-0.2,1.1-0.4c0.3-0.3,0.4-0.5,0.4-0.9c0-0.3-0.1-0.6-0.3-0.8S8.9,13.3,8.3,13.1z
		 M7.8,12.9c-0.3-0.2-0.5-0.4-0.6-0.5C7.1,12.3,7,12.1,7,11.9c0-0.2,0.1-0.3,0.2-0.4c0.2-0.2,0.4-0.3,0.6-0.3V12.9z M8.3,15.4v-1.7
		c0.5,0.3,0.8,0.6,0.8,0.9C9.1,15,8.9,15.3,8.3,15.4z"/>
</g>
</svg>
