<?xml version="1.0" encoding="utf-8"?>
<!-- Generator: Adobe Illustrator 22.0.1, SVG Export Plug-In . SVG Version: 6.00 Build 0)  -->
<svg version="1.1" id="Layer_1" xmlns="http://www.w3.org/2000/svg" xmlns:xlink="http://www.w3.org/1999/xlink" x="0px" y="0px"
	 viewBox="0 0 20 20" style="enable-background:new 0 0 20 20;" xml:space="preserve">
<style type="text/css">
	.st0{fill:#35C4FF;}
</style>
<g>
	<path class="st0" d="M16.5,11.8c-0.3,0.3-0.7,0.6-1.1,0.9c0,0,0,0,0,0.1c0,0.3,0.1,0.5,0.1,0.8s-0.1,0.5-0.4,0.6
		c-0.8,0.3-1.5,0.5-2.3,0.8c-0.3,0.1-0.5,0.1-0.8,0c-0.6-0.2-1.2-0.4-1.7-0.6c-0.1,0-0.3-0.1-0.4-0.2c-0.7-0.7-1.5-1.4-2.2-2.1
		c-0.2-0.1-0.3-0.2-0.5-0.4c0.2-0.1,0.4-0.2,0.6-0.3c0.1-0.1,0.2-0.1,0.3,0c0.8,0.7,1.7,1.4,2.5,2.1c0.6,0.5,1.2,0.5,1.9,0.5
		c0.3,0,0.4-0.2,0.4-0.5c0-0.2-0.1-0.3-0.4-0.3c-0.2,0-0.5-0.1-0.7-0.2c-0.8-0.5-1.6-1.2-2.3-2c-0.1-0.1-0.2-0.3-0.3-0.4
		c0.1,0,0.1-0.1,0.2-0.1c0.9-0.5,1.7-1,2.6-1.5c0.1,0,0.2-0.2,0.1-0.3c0.1-0.4,0-0.8-0.3-1c-0.6-0.5-1.3-0.9-1.9-1.4
		c0-0.1-0.1-0.1-0.2,0C8.9,6.8,8.1,7.2,7.3,7.7L7.2,7.8C7.4,8.2,7.7,8.7,8,9.1c-0.1,0-0.2,0.1-0.3,0.2C7.2,9.6,6.6,10,5.8,10.4
		c-0.3,0.2-0.5,0.5-0.5,0.9c0,0.3,0,0.6,0.2,0.9c0.3,0.5,0.7,0.9,1.1,1.3c0.8,0.6,1.5,1.3,2.2,2C9,15.7,9.3,15.9,9.6,16
		c0.7,0.3,1.5,0.5,2.2,0.8c0.5,0.1,0.9,0.2,1.4,0c0.9-0.3,1.9-0.7,2.8-1c0.5-0.2,0.9-0.7,0.8-1.3c-0.1-0.5-0.1-1-0.2-1.5
		C16.6,12.6,16.5,12.2,16.5,11.8z"/>
	<path class="st0" d="M17.6,5.4c-0.7,0.4-1.3,0.8-1.7,1.2C15.5,7,15,7,14.5,6.7c-0.2-0.1-0.5-0.1-0.7-0.1c-0.5,0.1-1,0.4-1.5,0.6
		c0.2,0.1,0.4,0.3,0.6,0.5c0.1,0.1,0.2,0.2,0.2,0.4c0,0.3,0.1,0.5,0.1,0.7c0,0.3,0,0.5-0.3,0.6c-0.8,0.4-1.5,0.8-2.3,1.2
		c-0.2,0.1-0.2,0.2-0.1,0.4s0.3,0.4,0.6,0.4c0.1,0,0.3,0,0.4,0c0.1,0.3,0.3,0.6,0.6,0.6c0.1,0,0.3,0,0.4,0h0.1
		c0.4,0.3,0.8,0.4,1.2,0.2c0.1,0.1,0.2,0.1,0.3,0.2c0.2,0.2,0.5,0.1,0.7,0c0.8-0.5,1.5-0.9,2.2-1.4c0.6-0.4,0.8-0.9,0.9-1.5
		C18,9,18.1,8.5,18.4,8c0.2-0.3,0.2-0.6,0-0.9C18.1,6.6,17.9,6,17.6,5.4z"/>
	<path class="st0" d="M5.6,5.2c0,0,0,0.1,0,0.2c0.1,0.1,0,0.2,0.1,0.3c0,0.1,0.1,0.1,0.2,0.1c0.1,0,0.1-0.1,0.2,0c0.1,0,0,0.1,0,0.2
		c0,0.1,0,0.2,0.1,0.2c0.1,0,0.2,0,0.3,0s0.1,0,0.1,0c0.2,0.1,0.1,0.2,0.1,0.3c0,0.1,0,0.2,0.1,0.3c0,0.1,0.2,0.1,0.3,0l0.1-0.1
		c0.1,0.1,0.2,0.2,0.4,0.4h0.1C8,6.8,8.4,6.6,8.6,6.4c0-0.1,0-0.1,0-0.1C7.7,5.4,6.7,4.5,5.8,3.6C5.5,3.3,5.1,3.1,4.7,3.1
		c-0.3,0-0.5,0.1-0.8,0.1c-0.5,0.1-1,0.3-1.5,0.5C2.7,4.1,3,4.5,3.2,4.9c0.3-0.1,0.4-0.1,0.7-0.2c0.4-0.2,0.7-0.1,1.1,0
		c0.1,0,0.1,0.1,0.1,0.2C5,5.1,5.2,5.3,5.4,5.2C5.5,5.2,5.5,5.1,5.6,5.2z"/>
	<path class="st0" d="M2,5.9C1.9,6,1.8,6.2,1.8,6.3c-0.2,0.3-0.2,0.7,0,1s0.5,0.5,0.9,0.5c0.5,0,0.9-0.5,0.9-1.1
		c0-0.6-0.3-1.1-0.5-1.7C2.7,5.3,2.3,5.6,2,5.9z"/>
	<path class="st0" d="M17.4,0H2.6C1.2,0,0,1.2,0,2.6v14.8C0,18.8,1.2,20,2.6,20h14.8c1.4,0,2.6-1.2,2.6-2.6V2.6
		C20,1.2,18.8,0,17.4,0z M19.1,17.3c0,1-0.8,1.7-1.7,1.7H2.6C1.7,19,1,18.3,1,17.4V2.6C1,1.7,1.7,1,2.6,1h14.8
		c0.9,0,1.6,0.7,1.7,1.6V17.3z"/>
</g>
</svg>
