<?xml version="1.0" encoding="utf-8"?>
<!-- Generator: Adobe Illustrator 19.2.0, SVG Export Plug-In . SVG Version: 6.00 Build 0)  -->
<svg version="1.1" id="Layer_1" xmlns="http://www.w3.org/2000/svg" xmlns:xlink="http://www.w3.org/1999/xlink" x="0px" y="0px"
	 viewBox="0 0 20 20" style="enable-background:new 0 0 20 20;" xml:space="preserve">
<style type="text/css">
	.st0{fill:#484D55;}
</style>
<g>
	<path class="st0" d="M8,9.1C7.7,8.7,7.4,8.2,7.2,7.8c0,0,0.1-0.1,0.1-0.1c0.8-0.5,1.6-0.9,2.4-1.4c0.1-0.1,0.2-0.1,0.2,0
		c0.6,0.5,1.3,0.9,1.9,1.4c0.3,0.2,0.4,0.6,0.3,1C12.2,8.8,12.1,9,12,9c-0.9,0.5-1.7,1-2.6,1.5c-0.1,0-0.1,0.1-0.2,0.1
		c0.1,0.1,0.2,0.3,0.3,0.4c0.7,0.8,1.5,1.5,2.3,2c0.2,0.1,0.5,0.2,0.7,0.2c0.3,0,0.4,0.1,0.4,0.3c0,0.3-0.1,0.5-0.4,0.5
		c-0.7,0-1.3,0-1.9-0.5c-0.8-0.7-1.7-1.4-2.5-2.1c-0.1-0.1-0.2-0.1-0.3,0c-0.2,0.1-0.4,0.2-0.6,0.3c0.2,0.2,0.3,0.3,0.5,0.4
		c0.7,0.7,1.5,1.4,2.2,2.1c0.1,0.1,0.3,0.2,0.4,0.2c0.5,0.2,1.1,0.4,1.7,0.6c0.3,0.1,0.5,0.1,0.8,0c0.8-0.3,1.5-0.5,2.3-0.8
		c0.3-0.1,0.4-0.3,0.4-0.6c0-0.3-0.1-0.5-0.1-0.8c0-0.1,0-0.1,0-0.1c0.4-0.3,0.8-0.6,1.1-0.9c0,0.4,0.1,0.8,0.1,1.2
		c0.1,0.5,0.1,1,0.2,1.5c0.1,0.6-0.3,1.1-0.8,1.3c-0.9,0.3-1.9,0.7-2.8,1c-0.5,0.2-0.9,0.1-1.4,0c-0.7-0.3-1.5-0.5-2.2-0.8
		c-0.3-0.1-0.6-0.3-0.8-0.5c-0.7-0.7-1.4-1.4-2.2-2c-0.4-0.4-0.8-0.8-1.1-1.3c-0.2-0.3-0.2-0.6-0.2-0.9c0-0.4,0.2-0.7,0.5-0.9
		C6.6,10,7.2,9.6,7.7,9.3C7.8,9.2,7.9,9.1,8,9.1z"/>
	<path class="st0" d="M17.6,5.4c0.3,0.6,0.5,1.2,0.8,1.7c0.2,0.3,0.2,0.6,0,0.9c-0.3,0.5-0.4,1-0.5,1.5c-0.1,0.6-0.3,1.1-0.9,1.5
		c-0.7,0.5-1.4,0.9-2.2,1.4c-0.2,0.1-0.5,0.2-0.7,0c-0.1-0.1-0.2-0.1-0.3-0.2c-0.4,0.2-0.8,0.1-1.2-0.2c0,0-0.1,0-0.1,0
		c-0.1,0-0.3,0-0.4,0c-0.3,0-0.5-0.3-0.6-0.6c-0.1,0-0.3,0-0.4,0c-0.3,0-0.5-0.2-0.6-0.4c-0.1-0.2-0.1-0.3,0.1-0.4
		c0.8-0.4,1.5-0.8,2.3-1.2c0.3-0.1,0.3-0.3,0.3-0.6c0-0.2-0.1-0.4-0.1-0.7c0-0.2-0.1-0.3-0.2-0.4c-0.2-0.2-0.4-0.4-0.6-0.5
		c0.5-0.2,1-0.5,1.5-0.6c0.2,0,0.5,0,0.7,0.1c0.5,0.3,1,0.3,1.4-0.1C16.3,6.2,16.9,5.8,17.6,5.4z"/>
	<path class="st0" d="M3.2,4.9C3,4.5,2.7,4.1,2.4,3.7c0.5-0.2,1-0.4,1.5-0.5c0.3,0,0.5-0.1,0.8-0.1c0.4,0,0.8,0.2,1.1,0.5
		c0.9,0.9,1.9,1.8,2.8,2.7c0,0,0,0,0,0.1C8.4,6.6,8,6.8,7.7,7.1c0,0-0.1,0-0.1,0C7.4,6.9,7.3,6.8,7.2,6.7c0,0-0.1,0.1-0.1,0.1
		C7,6.9,6.8,6.9,6.8,6.8C6.7,6.7,6.7,6.6,6.7,6.5c0-0.1,0.1-0.2-0.1-0.3c0,0,0,0-0.1,0c-0.1,0-0.2,0-0.3,0C6.1,6.2,6.1,6.1,6.1,6
		c0-0.1,0.1-0.2,0-0.2C6,5.7,6,5.8,5.9,5.8c-0.1,0-0.2,0-0.2-0.1c-0.1-0.1,0-0.2-0.1-0.3c0-0.1,0-0.2,0-0.2c-0.1-0.1-0.1,0-0.2,0
		C5.2,5.3,5,5.1,5.1,4.9c0-0.1,0-0.2-0.1-0.2c-0.4-0.1-0.7-0.2-1.1,0C3.6,4.8,3.5,4.8,3.2,4.9z"/>
	<path class="st0" d="M3.1,5c0.2,0.6,0.5,1.1,0.5,1.7c0,0.6-0.4,1.1-0.9,1.1c-0.4,0-0.7-0.2-0.9-0.5c-0.2-0.3-0.2-0.7,0-1
		C1.8,6.2,1.9,6,2,5.9C2.3,5.6,2.7,5.3,3.1,5z"/>
</g>
<g>
	<path class="st0" d="M17.4,20H2.6C1.2,20,0,18.8,0,17.4V2.6C0,1.2,1.2,0,2.6,0h14.8C18.8,0,20,1.2,20,2.6v14.8
		C20,18.8,18.8,20,17.4,20z M2.6,1C1.7,1,1,1.7,1,2.6v14.8C1,18.3,1.7,19,2.6,19h14.8c0.9,0,1.7-0.7,1.7-1.7V2.6
		C19,1.7,18.3,1,17.4,1H2.6z"/>
</g>
</svg>
