<?xml version="1.0" encoding="utf-8"?>
<!-- Generator: Adobe Illustrator 19.2.0, SVG Export Plug-In . SVG Version: 6.00 Build 0)  -->
<svg version="1.1" id="Layer_1" xmlns="http://www.w3.org/2000/svg" xmlns:xlink="http://www.w3.org/1999/xlink" x="0px" y="0px"
	 viewBox="0 0 20 20" style="enable-background:new 0 0 20 20;" xml:space="preserve">
<style type="text/css">
	.st0{fill:#484D55;}
</style>
<g id="XMLID_24_">
	<g id="XMLID_63_">
		<path id="XMLID_64_" class="st0" d="M16.3,5.2c-0.2-1.3-0.9-2.4-1.8-3.3c-1.1-1-2.5-1.5-3.9-1.5c-1.1,0-2.2,0.3-3.1,0.9
			C6.6,1.8,6,2.4,5.5,3.2C5.3,3.2,5.1,3.2,4.9,3.2c-1.8,0-3.2,1.4-3.2,3.2c0,0.2,0,0.5,0.1,0.7C0.7,7.8,0,9.2,0,10.6
			c0,1.2,0.4,2.3,1.2,3.1c0.8,0.9,1.9,1.4,3,1.5h3.6c0.3,0,0.6-0.3,0.6-0.6s-0.3-0.6-0.6-0.6H4.2c-1.7-0.1-3.1-1.7-3.1-3.5
			c0-1.2,0.6-2.3,1.6-2.8C3,7.7,3.1,7.4,3,7.2C2.9,7,2.9,6.7,2.9,6.4c0-1.2,0.9-2.1,2.1-2.1c0.3,0,0.5,0.1,0.7,0.1
			c0.3,0.1,0.6,0,0.7-0.3c0.7-1.7,2.4-2.7,4.2-2.7c2.4,0,4.4,1.8,4.6,4.2c0,0.3,0.2,0.5,0.5,0.5c1.8,0.3,3.2,2,3.2,3.9
			c0,2.1-1.6,3.8-3.6,4h-3c-0.3,0-0.6,0.3-0.6,0.6s0.3,0.6,0.6,0.6h3.1c1.3-0.1,2.4-0.7,3.3-1.6c0.9-1,1.4-2.2,1.4-3.5
			C20,7.8,18.4,5.7,16.3,5.2z M13.4,11.1c0.2-0.2,0.2-0.6,0-0.8l-2.9-2.9c-0.1-0.1-0.3-0.2-0.4-0.2c-0.2,0-0.3,0.1-0.4,0.2l-2.9,2.9
			c-0.2,0.2-0.2,0.6,0,0.8c0.1,0.1,0.3,0.2,0.4,0.2s0.3-0.1,0.4-0.2l2-2v10c0,0.3,0.3,0.6,0.6,0.6s0.6-0.3,0.6-0.6v-10l2,2
			C12.8,11.3,13.1,11.3,13.4,11.1z"/>
	</g>
</g>
</svg>
