<?xml version="1.0" encoding="utf-8"?>
<!-- Generator: Adobe Illustrator 19.2.0, SVG Export Plug-In . SVG Version: 6.00 Build 0)  -->
<svg version="1.1" id="Layer_1" xmlns="http://www.w3.org/2000/svg" xmlns:xlink="http://www.w3.org/1999/xlink" x="0px" y="0px"
	 viewBox="0 0 20 20" style="enable-background:new 0 0 20 20;" xml:space="preserve">
<style type="text/css">
	.st0{fill:#484D55;}
</style>
<g>
	<path class="st0" d="M16,0c0.1,0.1,0.3,0.1,0.4,0.2c0.4,0.3,0.5,0.8,0.4,1.3c-0.1,0.4-0.4,0.7-0.9,0.7c0,0-0.1,0-0.1,0
		c0,0.4,0,0.8,0,1.3c0.1,0,0.1,0,0.2,0c0.5,0,0.8,0.3,0.8,0.8c0,0.3,0,0.6,0,0.9c0,0.2,0,0.3,0.2,0.4c0.6,0.6,1.1,1.2,1.7,1.7
		C18.9,7.5,19,7.8,19,8.2c0,2.7,0,5.4,0,8.1c0,0.6-0.4,1.1-0.9,1.2c-0.6,0.1-1.1-0.1-1.3-0.7c-0.1-0.2-0.1-0.4-0.1-0.6
		c0-0.6,0-1.2,0-1.8c0,0,0-0.1,0-0.1c0-0.2,0.1-0.3,0.3-0.3c0.2,0,0.3,0.1,0.3,0.3c0,0.2,0,0.3,0,0.5c0,0.5,0,1,0,1.5
		c0,0.4,0.2,0.6,0.6,0.6c0.3,0,0.6-0.2,0.6-0.6c0-2,0-4,0-6c0,0,0-0.1,0-0.1c-0.3,0.1-0.7,0.1-1-0.1c-0.3-0.2-0.5-0.5-0.5-0.8
		c0-0.5,0-0.9,0-1.4c0-0.4,0.2-0.6,0.5-0.8c0.1,0,0.1-0.1,0.2-0.1c-0.3-0.3-0.5-0.5-0.8-0.8c0,0.1,0,0.1,0,0.2c0,0.4,0,0.8,0,1.2
		c0,0.6-0.3,0.9-0.9,1c0,0-0.1,0-0.1,0c0,0.5,0,1,0,1.6c0.1,0,0.2,0,0.3,0c0.6,0,1.1,0.5,1.1,1.1c0,0.7,0,1.4,0,2
		c0,0.2-0.1,0.3-0.3,0.3c-0.2,0-0.3-0.1-0.3-0.3c0-0.4,0-0.8,0-1.2c0-0.2,0-0.4,0-0.6c0-0.5-0.2-0.7-0.7-0.7c-0.1,0-0.1,0-0.2,0
		c0,2.4,0,4.9,0,7.3c0.2,0,0.5,0,0.7,0c0.5,0,0.8,0.3,0.8,0.8c0,0.8-0.3,1-1,1c-4.8,0-9.6,0-14.4,0c-0.4,0-0.7-0.2-0.8-0.5
		c-0.1-0.3,0-0.5,0-0.8c0.1-0.3,0.3-0.5,0.7-0.5c0.3,0,0.6,0,0.9,0c0-5.3,0-10.6,0-15.9c-0.1,0-0.1,0-0.2,0C1.9,2.2,1.6,1.8,1.6,1.4
		C1.5,1,1.5,0.6,1.8,0.3C2,0.2,2.1,0.1,2.3,0C6.9,0,11.4,0,16,0z M3.2,18.2c0.1,0,0.2,0,0.2,0c3,0,6.1,0,9.1,0c0.1,0,0.1,0,0.2,0
		c0.2,0,0.3,0.1,0.3,0.3c0,0.2-0.1,0.3-0.3,0.3c-0.1,0-0.2,0-0.2,0c-2.3,0-4.7,0-7,0c-1.2,0-2.4,0-3.6,0c-0.3,0-0.3,0-0.3,0.3
		c0,0,0,0,0,0.1c0,0.3,0,0.3,0.3,0.3c0.9,0,1.8,0,2.7,0c4,0,7.9,0,11.9,0c0.2,0,0.3-0.1,0.2-0.2c0,0,0-0.1,0-0.1
		c0-0.2-0.1-0.3-0.2-0.2c-0.7,0-1.5,0-2.2,0c-0.1,0-0.2,0-0.2,0c-0.1-0.1-0.2-0.2-0.2-0.3c0-0.1,0.1-0.2,0.2-0.3c0,0,0.1,0,0.2,0
		c0.3,0,0.6,0,0.9,0c0-5.3,0-10.6,0-15.9c-4,0-7.9,0-11.9,0C3.2,7.5,3.2,12.8,3.2,18.2z M11.7,0.6c-0.1,0-0.2,0-0.3,0
		c-2.8,0-5.6,0-8.5,0c-0.2,0-0.3,0-0.5,0c-0.1,0-0.3,0.1-0.3,0.2C2,1.3,2.2,1.6,2.7,1.6c2.9,0,5.9,0,8.8,0c0.1,0,0.1,0,0.2,0
		C11.7,1.3,11.7,1,11.7,0.6z M12.3,0.6c0,0.3,0,0.7,0,1c1.2,0,2.3,0,3.5,0c0.1,0,0.2-0.1,0.3-0.2c0-0.2,0.1-0.4,0-0.6
		c0-0.2-0.3-0.2-0.4-0.2c-0.9,0-1.7,0-2.6,0C12.8,0.6,12.6,0.6,12.3,0.6z M18.4,8.7C18.4,8.7,18.4,8.7,18.4,8.7c0-0.1,0-0.2,0-0.3
		c0-0.1,0-0.2,0-0.3c0-0.3-0.2-0.5-0.4-0.5c-0.2,0-0.4,0.2-0.5,0.5c0,0.4,0,0.8,0,1.2c0,0.3,0.2,0.5,0.4,0.5c0.3,0,0.4-0.2,0.4-0.5
		C18.4,9.1,18.4,8.9,18.4,8.7z M15.7,8c0.4,0,0.4,0,0.4-0.4c0-0.2,0-0.4,0-0.6c0-0.9,0-1.8,0-2.7c0-0.2-0.1-0.3-0.3-0.3
		c-0.1,0-0.1,0-0.2,0C15.7,5.4,15.7,6.7,15.7,8z"/>
	<path class="st0" d="M9.1,9.1c-1.3,0-2.6,0-3.8,0c-0.7,0-1.1-0.4-1.1-1c0-1.2,0-2.3,0-3.5c0-0.7,0.4-1.1,1-1.1c2.6,0,5.2,0,7.7,0
		c0.7,0,1.1,0.4,1.1,1c0,1.2,0,2.4,0,3.5c0,0.7-0.4,1-1,1C11.7,9.1,10.4,9.1,9.1,9.1z M9.2,4.1C9.2,4.1,9.2,4.1,9.2,4.1
		c-1.3,0-2.6,0-3.9,0c-0.3,0-0.4,0.1-0.4,0.4c0,1.2,0,2.3,0,3.5c0,0.4,0.1,0.4,0.4,0.4c2.6,0,5.2,0,7.7,0c0.3,0,0.4-0.1,0.4-0.4
		c0-1.2,0-2.3,0-3.5c0-0.4-0.1-0.4-0.4-0.4C11.7,4.1,10.4,4.1,9.2,4.1z"/>
	<path class="st0" d="M9.1,17.1c-1.9,0-3.5-1.6-3.5-3.5c0-1.9,1.6-3.5,3.5-3.5c1.9,0,3.5,1.6,3.5,3.5C12.6,15.5,11.1,17.1,9.1,17.1z
		 M9.1,10.7c-1.6,0-2.9,1.3-2.9,2.9c0,1.6,1.3,2.9,2.9,2.9c1.6,0,2.9-1.3,2.9-2.9C12,12,10.7,10.7,9.1,10.7z"/>
	<path class="st0" d="M7.3,7.6c-0.4,0-0.8,0-1.2,0C5.7,7.6,5.5,7.4,5.5,7c0-0.5,0-0.9,0-1.4C5.5,5.2,5.7,5,6.1,5c0.8,0,1.5,0,2.3,0
		C8.8,5,9,5.2,9,5.6C9,6.1,9,6.5,9,7c0,0.4-0.2,0.6-0.6,0.6C8.1,7.6,7.7,7.6,7.3,7.6z M8.4,7c0-0.4,0-0.8,0-1.2c0-0.1,0-0.2-0.2-0.2
		c-0.7,0-1.3,0-2,0c0,0-0.1,0-0.1,0c0,0.5,0,0.9,0,1.3C6.9,7,7.6,7,8.4,7z"/>
	<path class="st0" d="M11.1,5c0.4,0,0.9,0,1.3,0c0.2,0,0.4,0.1,0.4,0.3c0,0.2-0.1,0.3-0.4,0.3c-0.9,0-1.8,0-2.6,0
		c-0.2,0-0.4-0.1-0.4-0.3C9.4,5.1,9.5,5,9.8,5C10.2,5,10.7,5,11.1,5z"/>
	<path class="st0" d="M11.1,5.9c0.4,0,0.9,0,1.3,0c0.2,0,0.3,0.1,0.3,0.2c0,0.1,0,0.2-0.1,0.3c0,0.1-0.1,0.1-0.2,0.1
		c-0.9,0-1.8,0-2.7,0c-0.2,0-0.4-0.1-0.4-0.3c0-0.2,0.1-0.3,0.4-0.3C10.2,5.9,10.6,5.9,11.1,5.9z"/>
	<path class="st0" d="M10,7.2c0,0.3-0.2,0.4-0.4,0.4c-0.2,0-0.3-0.2-0.2-0.4c0-0.2,0.1-0.3,0.3-0.4C9.9,6.7,10,6.9,10,7.2z"/>
	<path class="st0" d="M12.8,7.2c0,0.2,0,0.3-0.2,0.4c-0.1,0.1-0.3,0-0.4-0.1c-0.1-0.1-0.1-0.4,0-0.6c0.1-0.1,0.2-0.1,0.3-0.1
		C12.7,6.9,12.8,7,12.8,7.2z"/>
	<path class="st0" d="M10.1,7.2c0-0.2,0.1-0.4,0.3-0.4c0.2,0,0.3,0.1,0.3,0.4c0,0.3-0.1,0.4-0.3,0.4C10.2,7.6,10.1,7.4,10.1,7.2z"/>
	<path class="st0" d="M11.4,7.2c0,0.3-0.1,0.4-0.3,0.4c-0.2,0-0.3-0.2-0.3-0.4c0-0.2,0.1-0.4,0.3-0.4C11.3,6.8,11.4,6.9,11.4,7.2z"
		/>
	<path class="st0" d="M12.1,7.2c0,0.3-0.1,0.4-0.3,0.4c-0.2,0-0.3-0.1-0.3-0.4c0-0.3,0.1-0.4,0.3-0.4C12,6.8,12.1,6.9,12.1,7.2z"/>
	<path class="st0" d="M9.1,12.3C9.1,12.4,9,12.5,9,12.5c-0.1,0.1-0.3,0.1-0.4,0c-0.1-0.1-0.2-0.3-0.1-0.4c0.1-0.1,0.2-0.3,0.3-0.4
		c0.2-0.2,0.5-0.2,0.7,0c0.4,0.5,0.8,1.1,1.1,1.7c0.3,0.6,0.2,1.3-0.3,1.8c-0.5,0.5-1.2,0.6-1.8,0.3c-0.6-0.3-1-0.9-0.9-1.6
		c0-0.4,0.2-0.7,0.4-1c0.1-0.1,0.3-0.2,0.4-0.1c0.1,0.1,0.2,0.3,0.1,0.4c-0.1,0.2-0.2,0.4-0.3,0.6c-0.1,0.4,0.1,0.8,0.5,1
		C9,15.1,9.5,15,9.8,14.7c0.3-0.3,0.4-0.7,0.2-1.1c-0.1-0.3-0.3-0.5-0.5-0.8C9.4,12.7,9.3,12.5,9.1,12.3z"/>
</g>
</svg>
