<?xml version="1.0" encoding="utf-8"?>
<!-- Generator: Adobe Illustrator 19.2.0, SVG Export Plug-In . SVG Version: 6.00 Build 0)  -->
<svg version="1.1" id="Layer_1" xmlns="http://www.w3.org/2000/svg" xmlns:xlink="http://www.w3.org/1999/xlink" x="0px" y="0px"
	 viewBox="0 0 20 20" style="enable-background:new 0 0 20 20;" xml:space="preserve">
<style type="text/css">
	.st0{fill:#484D55;}
</style>
<g>
	<path class="st0" d="M12.1,2.1H4.6c-0.2,0-0.4,0.2-0.4,0.4v5.4c0,0.2,0.2,0.4,0.4,0.4h7.5c0.2,0,0.4-0.2,0.4-0.4V2.5
		C12.5,2.3,12.3,2.1,12.1,2.1z M11.7,7.5H5V2.9h6.7V7.5z"/>
	<path class="st0" d="M15.4,19.2H1.3c-0.2,0-0.4,0.2-0.4,0.4C0.8,19.8,1,20,1.3,20h14.2c0.2,0,0.4-0.2,0.4-0.4
		C15.8,19.4,15.6,19.2,15.4,19.2z"/>
	<path class="st0" d="M18.5,4.9l-1.3-1.5c0-0.1-0.1-0.1-0.2-0.1c-0.5,0-0.6,0.5-0.4,0.7l1.2,1.4c0.3,0.3,0.4,0.5,0.4,0.8h-1.2
		c-0.3,0-0.5,0.2-0.5,0.5v2c0,0.5,0.4,0.8,0.8,0.8h0.8v6.2c0,0.2-0.2,0.4-0.4,0.4H17c-0.2,0-0.3-0.2-0.3-0.4v-5.4
		c0-0.7-0.7-1.2-1.3-1.2h-0.7V2.1c0-1.1-0.9-2.1-2.1-2.1H4.2C3,0,2.1,0.9,2.1,2.1v16.2c0,0.4,0.3,0.4,0.9,0.4c0.3,0,0.7,0,1.2,0h8.3
		c0.5,0,0.9,0,1.2,0c0.6,0,0.9,0,0.9-0.4V10h0.7c0.3,0,0.5,0.2,0.5,0.4v5.4c0,0.7,0.5,1.3,1.2,1.3h0.9c0.7,0,1.3-0.6,1.3-1.3l0,0
		V6.3C19.2,5.6,18.8,5.2,18.5,4.9z M13.8,17.9c-0.3,0-0.7,0-1.3,0H4.2c-0.6,0-1,0-1.2,0V2.1c0-0.7,0.6-1.3,1.2-1.3h8.3
		c0.7,0,1.3,0.6,1.3,1.3V17.9z M17.5,8.8V7.1h0.8v1.7H17.5z"/>
</g>
<g>
	<path class="st0" d="M8.3,15.9v0.8H7.8V16c-0.6,0-1.1-0.1-1.5-0.3V15c0.2,0.1,0.4,0.2,0.7,0.3c0.3,0.1,0.6,0.1,0.8,0.1v-1.9
		c-0.6-0.3-1.1-0.5-1.2-0.7S6.3,12.3,6.3,12c0-0.4,0.1-0.7,0.4-0.9c0.3-0.3,0.7-0.4,1.1-0.5V9.9h0.5v0.7c0.6,0,1,0.1,1.2,0.2v0.6
		c-0.3-0.2-0.7-0.3-1.2-0.3v2c0.6,0.2,1,0.5,1.2,0.7c0.2,0.2,0.3,0.5,0.3,0.8c0,0.4-0.1,0.6-0.4,0.9C9.2,15.7,8.8,15.9,8.3,15.9z
		 M7.8,12.9v-1.7c-0.2,0-0.4,0.1-0.6,0.3C7.1,11.6,7,11.7,7,11.9c0,0.2,0.1,0.4,0.2,0.5S7.5,12.7,7.8,12.9z M8.3,13.7v1.7
		c0.6-0.1,0.8-0.4,0.8-0.8C9.1,14.3,8.8,14,8.3,13.7z"/>
</g>
</svg>
