<?xml version="1.0" encoding="utf-8"?>
<!-- Generator: Adobe Illustrator 19.2.0, SVG Export Plug-In . SVG Version: 6.00 Build 0)  -->
<svg version="1.1" id="Layer_1" xmlns="http://www.w3.org/2000/svg" xmlns:xlink="http://www.w3.org/1999/xlink" x="0px" y="0px"
	 viewBox="0 0 20 20" style="enable-background:new 0 0 20 20;" xml:space="preserve">
<style type="text/css">
	.st0{fill:#484D55;}
</style>
<g>
	<path class="st0" d="M11.3,2.1H3.8c-0.2,0-0.4,0.2-0.4,0.4v5.4c0,0.2,0.2,0.4,0.4,0.4h7.5c0.2,0,0.4-0.2,0.4-0.4V2.5
		C11.7,2.3,11.5,2.1,11.3,2.1z M10.8,7.5H4.2V2.9h6.7V7.5z"/>
	<path class="st0" d="M14.6,19.2H0.4c-0.2,0-0.4,0.2-0.4,0.4C0,19.8,0.2,20,0.4,20h14.2c0.2,0,0.4-0.2,0.4-0.4
		C15,19.4,14.8,19.2,14.6,19.2z"/>
	<g>
		<path class="st0" d="M16.8,11.5c-1.7,0-3,1.4-3,3c0,0.4,0.1,0.9,0.3,1.2c0.8,1.7,2.2,3.4,2.6,3.9c0,0,0.1,0.1,0.1,0.1
			s0.1,0,0.1-0.1c0.4-0.5,1.9-2.2,2.6-3.9c0.2-0.4,0.3-0.8,0.3-1.2C19.8,12.9,18.5,11.5,16.8,11.5L16.8,11.5z M16.8,16.1
			c-0.9,0-1.6-0.7-1.6-1.6c0-0.9,0.7-1.6,1.6-1.6c0.9,0,1.6,0.7,1.6,1.6C18.4,15.4,17.7,16.1,16.8,16.1L16.8,16.1z"/>
	</g>
	<g>
		<path class="st0" d="M17.1,5.4c0.3,0.3,0.4,0.5,0.4,0.8h-1.2c-0.3,0-0.5,0.2-0.5,0.5v2c0,0.5,0.4,0.8,0.8,0.8h0.8V10
			c0.3,0,0.6,0.1,0.8,0.2v-4c0-0.6-0.3-1-0.6-1.4l-1.3-1.5c0-0.1-0.1-0.1-0.2-0.1c-0.5,0-0.6,0.5-0.4,0.7L17.1,5.4z M17.5,8.8h-0.8
			V7.1h0.8V8.8z"/>
		<path class="st0" d="M12.9,16.9v1c-0.3,0-0.7,0-1.3,0H3.3c-0.6,0-1,0-1.3,0V2.1c0-0.7,0.6-1.3,1.3-1.3h8.3c0.7,0,1.3,0.6,1.3,1.3
			v10.3c0.2-0.4,0.5-0.8,0.8-1.1V10h0.7c0.3,0,0.5,0.2,0.5,0.4v0.1c0.3-0.1,0.5-0.2,0.8-0.3c-0.1-0.6-0.7-1-1.3-1h-0.7V2.1
			c0-1.1-0.9-2.1-2.1-2.1H3.3C2.2,0,1.3,0.9,1.3,2.1v16.2c0,0.4,0.3,0.4,0.9,0.4c0.3,0,0.7,0,1.2,0h8.3c0.5,0,0.9,0,1.2,0
			c0.5,0,0.9,0,0.9-0.4C13.4,17.9,13.2,17.4,12.9,16.9z"/>
	</g>
</g>
</svg>
