<?xml version="1.0" encoding="utf-8"?>
<!-- Generator: Adobe Illustrator 19.2.0, SVG Export Plug-In . SVG Version: 6.00 Build 0)  -->
<svg version="1.1" id="Layer_1" xmlns="http://www.w3.org/2000/svg" xmlns:xlink="http://www.w3.org/1999/xlink" x="0px" y="0px"
	 viewBox="0 0 20 20" style="enable-background:new 0 0 20 20;" xml:space="preserve">
<style type="text/css">
	.st0{fill:#484D55;}
</style>
<g>
	<path class="st0" d="M13,11H9.2C9.1,11,9,11.1,9,11.2V14c0,0.1,0.1,0.2,0.2,0.2H13c0.1,0,0.2-0.1,0.2-0.2v-2.7
		C13.2,11.1,13.1,11,13,11z M12.8,13.7H9.4v-2.3h3.3V13.7z"/>
	<path class="st0" d="M14.6,19.6H7.5c-0.1,0-0.2,0.1-0.2,0.2c0,0.1,0.1,0.2,0.2,0.2h7.1c0.1,0,0.2-0.1,0.2-0.2
		C14.8,19.7,14.7,19.6,14.6,19.6z"/>
	<path class="st0" d="M16.2,12.4l-0.6-0.7c0,0-0.1,0-0.1,0c-0.2,0-0.3,0.2-0.2,0.4l0.6,0.7c0.1,0.2,0.2,0.3,0.2,0.4h-0.6
		c-0.1,0-0.3,0.1-0.3,0.3v1c0,0.2,0.2,0.4,0.4,0.4h0.4v3.1c0,0.1-0.1,0.2-0.2,0.2h-0.5c-0.1,0-0.2-0.1-0.2-0.2v-2.7
		c0-0.4-0.3-0.6-0.7-0.6h-0.4V11c0-0.6-0.5-1-1-1H9c-0.6,0-1,0.5-1,1v8.1c0,0.2,0.2,0.2,0.5,0.2c0.2,0,0.4,0,0.6,0h4.2
		c0.2,0,0.4,0,0.6,0c0.3,0,0.5,0,0.5-0.2V15h0.4c0.1,0,0.3,0.1,0.3,0.2v2.7c0,0.4,0.3,0.6,0.6,0.6h0.5c0.3,0,0.6-0.3,0.6-0.6l0,0
		v-4.8C16.5,12.8,16.3,12.6,16.2,12.4z M13.8,19c-0.1,0-0.3,0-0.6,0H9c-0.3,0-0.5,0-0.6,0V11c0-0.3,0.3-0.6,0.6-0.6h4.2
		c0.3,0,0.6,0.3,0.6,0.6V19z M15.7,14.4v-0.8h0.4v0.8H15.7z"/>
</g>
<g>
	<path class="st0" d="M6.9,20H0v-2h0.6v-5.8C0.6,1.7,5.9,0.4,6.1,0.4l0.1,0h0.3V18h0.5V20z M0.6,19.4h5.8v-0.7H5.9V1.1
		C4.8,1.5,1.1,3.5,1.1,12.2v6.4H0.6V19.4z M3.8,8.2C3.1,8.2,2.5,7.7,2.5,7c0-0.7,0.6-1.2,1.2-1.2S5,6.4,5,7C5,7.7,4.5,8.2,3.8,8.2z
		 M3.8,6.3C3.4,6.3,3,6.6,3,7c0,0.4,0.4,0.8,0.8,0.8c0.4,0,0.8-0.3,0.8-0.8C4.6,6.6,4.2,6.3,3.8,6.3z"/>
</g>
<path class="st0" d="M17.7,5.1H7.3v0.6h10.3c0.9,0,1.6,0.6,1.7,1.4h-1.1v12.3h-0.5V7.1H7.3v0.6h9.8V20h1.7V7.7H20V7.4
	C20,6.1,18.9,5.1,17.7,5.1z"/>
</svg>
