<?xml version="1.0" encoding="utf-8"?>
<!-- Generator: Adobe Illustrator 22.0.1, SVG Export Plug-In . SVG Version: 6.00 Build 0)  -->
<svg version="1.1" id="Layer_1" xmlns="http://www.w3.org/2000/svg" xmlns:xlink="http://www.w3.org/1999/xlink" x="0px" y="0px"
	 viewBox="0 0 20 20" style="enable-background:new 0 0 20 20;" xml:space="preserve">
<style type="text/css">
	.st0{fill:#35C4FF;}
</style>
<g>
	<path class="st0" d="M13,11H9.2C9.1,11,9,11.1,9,11.2V14c0,0.1,0.1,0.2,0.2,0.2H13c0.1,0,0.2-0.1,0.2-0.2v-2.7
		C13.2,11.1,13.1,11,13,11z M9.4,13.7v-2.3h3.3v2.3H9.4z"/>
	<path class="st0" d="M14.6,19.6H7.5c-0.1,0-0.2,0.1-0.2,0.2S7.4,20,7.5,20h7.1c0.1,0,0.2-0.1,0.2-0.2S14.7,19.6,14.6,19.6z"/>
	<path class="st0" d="M15.6,11.7L15.6,11.7c-0.3,0-0.4,0.2-0.3,0.4l0.6,0.7c0.1,0.2,0.2,0.3,0.2,0.4h-0.6c-0.1,0-0.3,0.1-0.3,0.3v1
		c0,0.2,0.2,0.4,0.4,0.4H16V18c0,0.1-0.1,0.2-0.2,0.2h-0.5c-0.1,0-0.1-0.1-0.2-0.1c0.1,0.3,0.3,0.4,0.6,0.4h0.5
		c0.3,0,0.6-0.3,0.6-0.6v-4.8c-0.3-0.3-0.5-0.5-0.6-0.7L15.6,11.7z M16.1,14.4h-0.4v-0.8h0.4V14.4z"/>
	<path class="st0" d="M15.1,15.2C15.1,15.2,15.1,15.1,15.1,15.2C15.1,15.2,15.1,15.2,15.1,15.2L15.1,15.2z"/>
	<path class="st0" d="M14.4,14.7H14V11c0-0.6-0.5-1-1-1H9c-0.6,0-1,0.5-1,1v8.1c0,0.2,0.2,0.2,0.5,0.2c0.2,0,0.4,0,0.6,0h4.2
		c0.2,0,0.4,0,0.6,0c0.3,0,0.5,0,0.5-0.2V15h0.4c0.1,0,0.2,0.1,0.3,0.1C15,14.8,14.7,14.7,14.4,14.7z M13.8,19c-0.1,0-0.3,0-0.6,0H9
		c-0.3,0-0.5,0-0.6,0v-8c0-0.3,0.3-0.6,0.6-0.6h4.2c0.3,0,0.6,0.3,0.6,0.6V19z"/>
	<path class="st0" d="M15.1,18C15.1,18,15.1,18.1,15.1,18c0,0,0,0,0-0.1V18z"/>
	<path class="st0" d="M3.7,5.8C3.1,5.8,2.5,6.3,2.5,7s0.6,1.2,1.3,1.2S5,7.7,5,7C5,6.4,4.3,5.8,3.7,5.8z M3.8,7.8C3.4,7.8,3,7.4,3,7
		c0-0.4,0.4-0.7,0.8-0.7c0.4,0,0.8,0.3,0.8,0.7C4.6,7.5,4.2,7.8,3.8,7.8z"/>
	<path class="st0" d="M6.5,0.4H6.2H6.1c-0.2,0-5.5,1.3-5.5,11.8V18H0v2h6.9H7v-2H6.5V0.4z M6.4,19.4H0.6v-0.8h0.5v-6.4
		c0-8.7,3.7-10.7,4.8-11.1v17.6h0.5V19.4z"/>
	<path class="st0" d="M17.7,5.1H7.3v0.6h10.3c0.9,0,1.6,0.6,1.7,1.4h-1.1v12.3h-0.5V7.1H7.3v0.6h9.8V20h1.7V7.7H20V7.4
		C20,6.1,18.9,5.1,17.7,5.1z"/>
</g>
</svg>
