<?xml version="1.0" encoding="utf-8"?>
<!-- Generator: Adobe Illustrator 22.0.1, SVG Export Plug-In . SVG Version: 6.00 Build 0)  -->
<svg version="1.1" id="Layer_1" xmlns="http://www.w3.org/2000/svg" xmlns:xlink="http://www.w3.org/1999/xlink" x="0px" y="0px"
	 viewBox="0 0 20 20" style="enable-background:new 0 0 20 20;" xml:space="preserve">
<style type="text/css">
	.st0{fill:#35C4FF;}
</style>
<g>
	<path class="st0" d="M20,13.8c-0.1-0.2-0.2-0.4-0.4-0.5l-0.1-0.1c0-0.1,0-0.3,0-0.4s0-0.3,0-0.4l0.1-0.1c0.2-0.1,0.3-0.3,0.4-0.5
		c0-0.2,0-0.4-0.1-0.6l-0.6-1c-0.2-0.4-0.7-0.5-1.1-0.3L18.1,10c-0.3-0.2-0.6-0.4-0.9-0.5V9.4c0-0.4-0.3-0.8-0.8-0.8h-1.2
		c-0.4,0-0.8,0.3-0.8,0.8v0.3c-0.3,0.1-0.6,0.3-0.9,0.5l-0.1-0.1c-0.4-0.2-0.9-0.1-1.1,0.3l-0.6,1c-0.1,0.2-0.2,0.4-0.1,0.6
		c0.1,0.2,0.2,0.4,0.4,0.5l0.1,0.1c0,0.1,0,0.3,0,0.4c0,0.1,0,0.3,0,0.4L12,13.5c-0.2,0.1-0.3,0.3-0.4,0.5c0,0.2,0,0.4,0.1,0.6
		l0.6,1c0.2,0.4,0.7,0.5,1.1,0.3l0.1-0.1c0.3,0.2,0.6,0.4,0.9,0.5v0.1c0,0.4,0.3,0.8,0.8,0.8h1.2c0.5,0,0.9-0.4,0.8-1v-0.1
		c0.4-0.1,0.6-0.3,0.9-0.5l0.1,0.1c0.4,0.2,0.9,0.1,1.1-0.3l0.6-1C20,14.2,20.1,14,20,13.8z M19.5,14.3l-0.6,1
		c-0.1,0.1-0.3,0.2-0.5,0.1L18,15.2l-0.1,0.1c-0.3,0.3-0.6,0.5-1,0.6L16.7,16v0.4c0,0.2-0.1,0.3-0.3,0.3h-1.2
		c-0.2,0-0.3-0.1-0.3-0.3V16l-0.2-0.1c-0.4-0.1-0.7-0.3-1-0.6l-0.1-0.1l-0.3,0.2c-0.2,0.1-0.4,0.1-0.5-0.1l-0.6-1c0-0.1,0-0.2,0-0.3
		c0.1-0.1,0.1-0.2,0.2-0.2l0.4-0.2v-0.2c0-0.1,0-0.3,0-0.5c0-0.2,0-0.3,0-0.5v-0.2L12.4,12c-0.1,0-0.2-0.1-0.2-0.2
		c-0.1-0.1,0-0.2,0-0.3l0.6-1c0.1-0.1,0.3-0.2,0.5-0.1l0.4,0.2l0.1-0.1c0.3-0.3,0.6-0.5,1-0.6L15,9.8V9.4c0-0.2,0.1-0.3,0.3-0.3h1.2
		c0.2,0,0.3,0.1,0.3,0.3v0.4L17,9.9c0.4,0.1,0.7,0.3,1,0.6l0.1,0.1l0.4-0.2c0.2-0.1,0.4-0.1,0.5,0.1l0.6,1c0,0.1,0,0.2,0,0.3
		c-0.1,0.1-0.1,0.2-0.2,0.2L19,12.2v0.2c0,0.1,0,0.3,0,0.5c0,0.2,0,0.3,0,0.5v0.2l0.3,0.2c0.1,0,0.2,0.1,0.2,0.2
		C19.6,14.1,19.5,14.2,19.5,14.3z"/>
	<path class="st0" d="M15.8,11c-1,0-1.9,0.9-1.9,1.9s0.8,1.9,1.9,1.9c1.1,0,1.9-0.9,1.9-1.9S16.8,11,15.8,11z M15.8,14.3
		c-0.8,0-1.4-0.6-1.4-1.4c0-0.8,0.6-1.4,1.4-1.4s1.4,0.6,1.4,1.4C17.2,13.7,16.6,14.3,15.8,14.3z"/>
	<path class="st0" d="M2.4,6.8h13.5c1.3,0,2.4-1.1,2.4-2.4C18.3,3,17.2,2,15.9,2H2.4C1.1,2,0,3,0,4.4C0,5.7,1.1,6.8,2.4,6.8z
		 M2.3,2.4H16c1,0,1.7,0.8,1.7,1.9C17.8,5.4,17,6.2,16,6.2H2.3c-1,0-1.7-0.8-1.7-1.9C0.6,3.3,1.4,2.4,2.3,2.4z"/>
	<path class="st0" d="M2.9,5.7h2.2c0.7,0,1.3-0.6,1.3-1.3C6.4,3.6,5.8,3,5.1,3H2.9C2.2,3,1.6,3.6,1.6,4.4C1.6,5.1,2.2,5.7,2.9,5.7z
		 M2.9,3.8h2.2c0.3,0,0.6,0.3,0.6,0.6C5.7,4.7,5.4,5,5.1,5H2.9C2.6,5,2.3,4.7,2.3,4.4C2.3,4.1,2.6,3.8,2.9,3.8z"/>
	<path class="st0" d="M14.8,5.9c0.8,0,1.5-0.7,1.5-1.5c0-0.8-0.6-1.5-1.5-1.5c-0.8,0-1.5,0.7-1.5,1.5C13.3,5.2,14,5.9,14.8,5.9z
		 M14.8,3.6c0.4,0,0.8,0.4,0.8,0.8c0,0.4-0.3,0.8-0.8,0.8c-0.4,0-0.8-0.4-0.8-0.8C14,4,14.4,3.6,14.8,3.6z"/>
	<path class="st0" d="M2.9,11.3h2.2c0.7,0,1.3-0.6,1.3-1.3S5.8,8.7,5.1,8.7H2.9c-0.7,0-1.3,0.6-1.3,1.3S2.2,11.3,2.9,11.3z M2.9,9.4
		h2.2c0.3,0,0.6,0.3,0.6,0.6s-0.3,0.6-0.6,0.6H2.9c-0.3,0-0.6-0.3-0.6-0.6S2.6,9.4,2.9,9.4z"/>
	<path class="st0" d="M2.4,12.4h8.5c-0.1-0.1-0.1-0.2-0.1-0.3c-0.1-0.4-0.1-0.8,0.1-1.2l0.6-1.2c0.3-0.5,0.8-0.8,1.4-0.8
		c0.2,0,0.3,0,0.5,0.1c0.1-0.1,0.3-0.2,0.4-0.2c0.1-0.5,0.5-1,1-1.2H2.4C1.1,7.6,0,8.7,0,10S1.1,12.4,2.4,12.4z M2.3,8.2h10.1
		c-0.6,0.2-1.1,0.6-1.4,1.1l-0.7,1.2c-0.2,0.4-0.3,0.8-0.3,1.3H2.3c-1,0-1.7-0.8-1.7-1.8S1.4,8.2,2.3,8.2z"/>
	<path class="st0" d="M5.1,14.3H2.9c-0.7,0-1.3,0.6-1.3,1.3s0.6,1.3,1.3,1.3h2.2c0.7,0,1.3-0.6,1.3-1.3S5.8,14.3,5.1,14.3z
		 M5.1,16.3H2.9c-0.3,0-0.6-0.3-0.6-0.6c0-0.3,0.3-0.7,0.6-0.7h2.2c0.3,0,0.6,0.3,0.6,0.6S5.4,16.3,5.1,16.3z"/>
	<path class="st0" d="M13.4,17c-0.2,0-0.3,0.1-0.5,0.1c-0.6,0-1.1-0.3-1.4-0.8l-0.6-1.2c-0.2-0.4-0.3-0.8-0.1-1.2
		c0.1-0.3,0.2-0.5,0.4-0.7H2.4c-1.3,0-2.4,1.1-2.4,2.4C0,17,1.1,18,2.4,18h11.8c-0.2-0.2-0.4-0.5-0.4-0.8
		C13.7,17.1,13.5,17.1,13.4,17z M2.3,17.5c-1,0-1.7-0.8-1.7-1.9c0-1,0.8-1.9,1.7-1.9h7.8c-0.1,0.6,0,1.2,0.3,1.7l0.7,1.3
		c0.2,0.3,0.4,0.6,0.7,0.8H2.3z"/>
</g>
</svg>
