<?xml version="1.0" encoding="utf-8"?>
<!-- Generator: Adobe Illustrator 19.2.0, SVG Export Plug-In . SVG Version: 6.00 Build 0)  -->
<svg version="1.1" id="Layer_1" xmlns="http://www.w3.org/2000/svg" xmlns:xlink="http://www.w3.org/1999/xlink" x="0px" y="0px"
	 viewBox="0 0 20 20" style="enable-background:new 0 0 20 20;" xml:space="preserve">
<style type="text/css">
	.st0{fill:#484D55;}
</style>
<g>
	<g>
		<path class="st0" d="M7.5,4.1c-1.3,0-2.4,1.1-2.4,2.4C5.1,7.9,6.1,9,7.5,9c1.3,0,2.4-1.1,2.4-2.4C9.9,5.2,8.8,4.1,7.5,4.1L7.5,4.1
			z M7.5,8.3c-1,0-1.7-0.8-1.7-1.7c0-0.9,0.8-1.7,1.7-1.7c1,0,1.7,0.8,1.7,1.7C9.2,7.5,8.4,8.3,7.5,8.3L7.5,8.3z M7.5,8.3"/>
		<path class="st0" d="M8.5,16.3l-1,1.3l-4.8-6.9C0.9,8.4,1.1,4.5,3.2,2.4c1.1-1.1,2.6-1.7,4.2-1.7c1.6,0,3.1,0.6,4.2,1.7
			c1.9,1.9,2.3,5.3,1,7.8c-0.1,0.2,0,0.4,0.1,0.5c0.2,0.1,0.4,0,0.5-0.1c1.5-2.7,1-6.5-1.1-8.6C10.8,0.7,9.2,0,7.4,0
			C5.6,0,4,0.7,2.7,1.9c-2.3,2.3-2.6,6.7-0.6,9.3l5.3,7.6L9,16.8c0.1-0.2,0.1-0.4-0.1-0.5C8.8,16.2,8.6,16.2,8.5,16.3L8.5,16.3z
			 M8.5,16.3"/>
	</g>
	<g>
		<path class="st0" d="M18.5,14.5h-0.8c-0.1,0-0.2-0.1-0.3-0.2c-0.1-0.1,0-0.3,0.1-0.4l0.6-0.6c0.1-0.1,0.1-0.2,0.1-0.3
			c0-0.1,0-0.2-0.1-0.3l-0.8-0.8c-0.2-0.2-0.5-0.2-0.7,0l-0.6,0.6c-0.1,0.1-0.2,0.1-0.4,0.1c-0.1-0.1-0.2-0.2-0.2-0.3v-0.8
			c0-0.3-0.2-0.5-0.5-0.5H14c-0.3,0-0.5,0.2-0.5,0.5v0.8c0,0.1-0.1,0.2-0.2,0.3c-0.1,0.1-0.3,0-0.4-0.1l-0.6-0.6
			c-0.2-0.2-0.5-0.2-0.7,0l-0.8,0.8c-0.1,0.1-0.1,0.2-0.1,0.3c0,0.1,0,0.2,0.1,0.3l0.6,0.6c0.1,0.1,0.1,0.2,0.1,0.4
			c-0.1,0.1-0.2,0.2-0.3,0.2h-0.8c-0.3,0-0.5,0.2-0.5,0.5V16c0,0.3,0.2,0.5,0.5,0.5h0.8c0.1,0,0.2,0.1,0.3,0.2
			c0.1,0.1,0,0.3-0.1,0.4l-0.6,0.6c-0.1,0.1-0.1,0.2-0.1,0.3c0,0.1,0,0.2,0.1,0.3l0.8,0.8c0.2,0.2,0.5,0.2,0.7,0l0.6-0.6
			c0.1-0.1,0.2-0.1,0.4-0.1c0.1,0.1,0.2,0.2,0.2,0.3v0.8c0,0.3,0.2,0.5,0.5,0.5H15c0.3,0,0.5-0.2,0.5-0.5v-0.8
			c0-0.1,0.1-0.2,0.2-0.3c0.1-0.1,0.3,0,0.4,0.1l0.6,0.6c0.2,0.2,0.5,0.2,0.7,0l0.8-0.8c0.1-0.1,0.1-0.2,0.1-0.3
			c0-0.1,0-0.2-0.1-0.3l-0.6-0.6c-0.1-0.1-0.1-0.2-0.1-0.4c0.1-0.1,0.2-0.2,0.3-0.2h0.8c0.3,0,0.5-0.2,0.5-0.5V15
			C19,14.7,18.8,14.5,18.5,14.5L18.5,14.5z M18.7,16c0,0.1-0.1,0.1-0.1,0.1h-0.8c-0.3,0-0.5,0.2-0.6,0.4c-0.1,0.2,0,0.5,0.1,0.7
			l0.6,0.6c0.1,0.1,0.1,0.1,0,0.2l-0.8,0.8c-0.1,0.1-0.1,0.1-0.2,0l-0.6-0.6c-0.2-0.2-0.5-0.2-0.7-0.1c-0.2,0.1-0.4,0.3-0.4,0.6v0.8
			c0,0.1-0.1,0.1-0.1,0.1H14c-0.1,0-0.1-0.1-0.1-0.1v-0.8c0-0.3-0.2-0.5-0.4-0.6c-0.1,0-0.2-0.1-0.3-0.1c-0.2,0-0.3,0.1-0.5,0.2
			l-0.6,0.6c-0.1,0.1-0.1,0.1-0.2,0l-0.8-0.8c-0.1-0.1-0.1-0.1,0-0.2l0.6-0.6c0.2-0.2,0.2-0.5,0.1-0.7c-0.1-0.2-0.3-0.4-0.6-0.4
			h-0.8c-0.1,0-0.1-0.1-0.1-0.1V15c0-0.1,0.1-0.1,0.1-0.1h0.8c0.3,0,0.5-0.2,0.6-0.4c0.1-0.2,0-0.5-0.1-0.7l-0.6-0.6
			c-0.1-0.1-0.1-0.1,0-0.2l0.8-0.8c0.1-0.1,0.1-0.1,0.2,0l0.6,0.6c0.2,0.2,0.5,0.2,0.7,0.1c0.3-0.1,0.4-0.3,0.4-0.6v-0.8
			c0-0.1,0.1-0.1,0.1-0.1H15c0.1,0,0.1,0.1,0.1,0.1v0.8c0,0.3,0.2,0.5,0.4,0.6c0.2,0.1,0.5,0,0.7-0.1l0.6-0.6c0.1-0.1,0.1-0.1,0.2,0
			l0.8,0.8c0.1,0.1,0.1,0.1,0,0.2l-0.6,0.6c-0.2,0.2-0.2,0.5-0.1,0.7c0.1,0.2,0.3,0.4,0.6,0.4h0.8c0.1,0,0.1,0.1,0.1,0.1V16z
			 M18.7,16"/>
		<path class="st0" d="M14.5,14c-0.8,0-1.5,0.7-1.5,1.5c0,0.8,0.7,1.5,1.5,1.5c0.8,0,1.5-0.7,1.5-1.5C16,14.7,15.3,14,14.5,14
			L14.5,14z M14.5,16.7c-0.6,0-1.2-0.5-1.2-1.2c0-0.6,0.5-1.2,1.2-1.2c0.6,0,1.2,0.5,1.2,1.2C15.7,16.1,15.1,16.7,14.5,16.7
			L14.5,16.7z M14.5,16.7"/>
	</g>
</g>
</svg>
