<?xml version="1.0" encoding="utf-8"?>
<!-- Generator: Adobe Illustrator 19.2.0, SVG Export Plug-In . SVG Version: 6.00 Build 0)  -->
<svg version="1.1" id="Layer_1" xmlns="http://www.w3.org/2000/svg" xmlns:xlink="http://www.w3.org/1999/xlink" x="0px" y="0px"
	 viewBox="0 0 20 20" style="enable-background:new 0 0 20 20;" xml:space="preserve">
<style type="text/css">
	.st0{fill:#35c4ff;}
</style>
<path class="st0" d="M10,0C4.5,0,0,4.5,0,10s4.5,10,10,10s10-4.5,10-10S15.5,0,10,0L10,0z M10,19.2c-5.1,0-9.2-4.1-9.2-9.2
	C0.8,4.9,5,0.8,10,0.8c5.1,0,9.2,4.1,9.2,9.2C19.2,15.1,15.1,19.2,10,19.2L10,19.2z"/>
<g>
	<path class="st0" d="M11.6,12.1c0-0.3-0.1-0.6-0.4-0.9s-0.7-0.5-1.2-0.7c-0.8-0.2-1.4-0.6-1.8-1S7.6,8.7,7.6,8
		c0-0.6,0.2-1.2,0.6-1.6S9,5.8,9.7,5.7V4.3h0.9v1.5c0.7,0.1,1.2,0.4,1.5,0.8c0.4,0.5,0.5,1.1,0.5,1.9h-1.1c0-0.5-0.1-1-0.4-1.3
		c-0.2-0.3-0.6-0.5-1-0.5c-0.5,0-0.8,0.1-1,0.4C8.8,7.3,8.7,7.6,8.7,8c0,0.4,0.1,0.7,0.4,0.9s0.7,0.5,1.3,0.7c0.8,0.3,1.4,0.6,1.8,1
		s0.6,0.9,0.6,1.6c0,0.7-0.2,1.2-0.6,1.6s-1,0.6-1.7,0.7v1.3H9.5v-1.3c-0.7-0.1-1.2-0.3-1.7-0.7s-0.6-1-0.6-1.8l0,0h1.1
		c0,0.6,0.2,1,0.5,1.3s0.7,0.4,1.1,0.4c0.5,0,0.9-0.1,1.2-0.4S11.6,12.6,11.6,12.1z"/>
</g>
</svg>
