<?xml version="1.0" encoding="utf-8"?>
<!-- Generator: Adobe Illustrator 19.2.0, SVG Export Plug-In . SVG Version: 6.00 Build 0)  -->
<svg version="1.1" id="Layer_1" xmlns="http://www.w3.org/2000/svg" xmlns:xlink="http://www.w3.org/1999/xlink" x="0px" y="0px"
	 viewBox="0 0 20 20" style="enable-background:new 0 0 20 20;" xml:space="preserve">
<style type="text/css">
	.st0{fill:#484D55;}
</style>
<path class="st0" d="M5.7,6.9C5,6.9,4.5,7.4,4.5,8.1s0.6,1.3,1.2,1.3C6.4,9.4,7,8.8,7,8.1S6.4,6.9,5.7,6.9L5.7,6.9z M5.7,8.7
	c-0.3,0-0.6-0.3-0.6-0.6s0.3-0.6,0.6-0.6c0.3,0,0.6,0.3,0.6,0.6C6.4,8.5,6.1,8.7,5.7,8.7L5.7,8.7z"/>
<path class="st0" d="M5.7,10.6c-0.7,0-1.2,0.6-1.2,1.2c0,0.7,0.6,1.3,1.2,1.3c0.7,0,1.2-0.6,1.2-1.3C7,11.2,6.4,10.6,5.7,10.6
	L5.7,10.6z M5.7,12.5c-0.3,0-0.6-0.3-0.6-0.6s0.3-0.6,0.6-0.6c0.3,0,0.6,0.3,0.6,0.6C6.4,12.2,6.1,12.5,5.7,12.5L5.7,12.5z"/>
<path class="st0" d="M18.7,17.4L18.7,17.4c0.7,0,1.3-0.6,1.3-1.3v-0.9C19.6,16,19.2,16.7,18.7,17.4z"/>
<path class="st0" d="M15.2,9.3c-0.9,0-1.8,0.8-1.8,1.8c0,0.9,0.8,1.8,1.8,1.8c0.9,0,1.8-0.8,1.8-1.8C16.8,10,16.1,9.3,15.2,9.3
	L15.2,9.3z M15.2,12.3c-0.7,0-1.3-0.5-1.3-1.2s0.5-1.2,1.3-1.2c0.7,0,1.3,0.5,1.3,1.2S15.8,12.3,15.2,12.3L15.2,12.3z"/>
<path class="st0" d="M18.5,7.3c-0.9-0.9-2.1-1.4-3.5-1.4s-2.5,0.5-3.5,1.4c-1.7,1.7-1.9,5-0.4,7.1l4,5.7l4-5.7
	C20.4,12.3,20.2,9,18.5,7.3L18.5,7.3z M18.2,13.9L15,18.6l-3.2-4.8c-1.1-1.8-1-4.5,0.4-5.9c0.8-0.8,1.7-1.2,2.9-1.2
	c1,0,2.1,0.4,2.9,1.2C19.4,9.4,19.6,12.2,18.2,13.9L18.2,13.9z"/>
<path class="st0" d="M9.5,9c0.1-0.2,0.1-0.4,0.2-0.6C9.6,8.4,9.5,8.3,9.5,8.1c0-0.3,0.3-0.6,0.6-0.6c0,0,0,0,0,0
	c0.1-0.2,0.3-0.4,0.4-0.6c-0.2-0.1-0.3-0.1-0.5-0.1C9.4,6.8,8.9,7.4,8.9,8C8.9,8.4,9.1,8.8,9.5,9z"/>
<path class="st0" d="M9.2,11.1c-0.2,0.2-0.3,0.5-0.3,0.8c0,0.4,0.2,0.8,0.5,1C9.3,12.3,9.2,11.7,9.2,11.1z"/>
<path class="st0" d="M11.7,16.8H1.3c-0.3,0-0.6-0.3-0.6-0.6V3c0-0.3,0.3-0.6,0.6-0.6h4.2v1.1c0,0.2,0.1,0.3,0.3,0.3
	C5.9,3.8,6,3.6,6,3.4v-1h3.7v1.1c0,0.2,0.1,0.3,0.3,0.3s0.3-0.1,0.3-0.3V2.4h3.8v1.1c0,0.2,0.1,0.3,0.3,0.3c0.2,0,0.3-0.1,0.3-0.3
	V2.4h4c0.3,0,0.6,0.3,0.6,0.6v3.6c0.2,0.2,0.4,0.5,0.6,0.8V3c0-0.7-0.6-1.3-1.3-1.3h-4V0.3c0-0.2-0.1-0.3-0.3-0.3S14,0.1,14,0.3v1.4
	h-3.8V0.3c0-0.2-0.1-0.3-0.3-0.3c0,0-0.1,0.1-0.1,0.3v1.4H6V0.3C6,0.1,5.9,0,5.7,0C5.6,0,5.4,0.1,5.4,0.3v1.4H1.3C0.6,1.8,0,2.3,0,3
	v13.1c0,0.7,0.6,1.3,1.3,1.3h10.8L11.7,16.8z"/>
</svg>
