<?xml version="1.0" encoding="utf-8"?>
<!-- Generator: Adobe Illustrator 22.0.1, SVG Export Plug-In . SVG Version: 6.00 Build 0)  -->
<svg version="1.1" id="Layer_1" xmlns="http://www.w3.org/2000/svg" xmlns:xlink="http://www.w3.org/1999/xlink" x="0px" y="0px"
	 viewBox="0 0 20 20" style="enable-background:new 0 0 20 20;" xml:space="preserve">
<style type="text/css">
	.st0{fill:#35C4FF;}
</style>
<g>
	<path class="st0" d="M2,7.5c2.4,0,4.7,0,7.1,0c0.1,0,0.2,0,0.2-0.1C9.5,7.2,9.7,7,10,6.9c0.1,0,0.2-0.1,0.4-0.1
		c0.2,0,0.2-0.1,0.1-0.3c-0.1-0.1-0.1-0.3-0.2-0.4c-0.2-0.6-0.1-1.2,0.3-1.6c0.1-0.1,0.2-0.2,0.3-0.3c0.4-0.4,1.1-0.5,1.6-0.3
		C12.7,3.9,12.9,4,13,4c0.1,0.1,0.2,0,0.2-0.1c0.1-0.1,0.1-0.3,0.2-0.4c-3.9,0-7.8,0-11.7,0c-0.1,0-0.2,0.1-0.3,0.1
		C0.7,3.9,0.2,4.4,0,5.1v0.1c0,0.2,0,0.4,0,0.5c0,0,0,0,0,0.1C0.2,6.8,1,7.5,2,7.5z M0.8,5.7V5.3V5.2c0.1-0.6,0.5-0.9,1-1.1h0.1
		C2,4.1,2,4,2,4l8.2,0.1c-0.1,0-0.2,0.1-0.2,0.2C9.5,4.8,9.3,5.5,9.6,6.2c0,0.1,0.1,0.1,0.1,0.2H9.6C9.2,6.6,9,6.7,8.8,7
		C8.1,7,7.4,7,6.7,7C5.9,7,5.2,7,4.5,7C3.7,7,3,7,2.3,7C1.5,7,0.9,6.5,0.8,5.7L0.8,5.7z"/>
	<path class="st0" d="M2.6,11.2c0.6,0,1.1-0.6,1.1-1.2c0-0.6-0.5-1.1-1.1-1.1C2,8.9,1.5,9.3,1.5,10S2,11.2,2.6,11.2z M2.6,9.2
		c0.5,0,0.8,0.3,0.9,0.9c0,0.5-0.4,0.9-0.9,0.9s-0.9-0.4-0.9-0.9S2.1,9.2,2.6,9.2z"/>
	<path class="st0" d="M2.6,6.7c0.6,0,1.1-0.6,1.1-1.2c0-0.6-0.5-1.1-1.1-1.1C2,4.4,1.5,4.8,1.5,5.5S2,6.7,2.6,6.7z M2.6,4.7
		c0.5,0,0.8,0.3,0.8,0.8S3,6.4,2.6,6.4C2.1,6.4,1.7,6,1.7,5.5S2.1,4.7,2.6,4.7z"/>
	<path class="st0" d="M2.6,13.4c-0.6,0-1.1,0.4-1.1,1.1s0.5,1.2,1.1,1.2c0.6,0,1.1-0.5,1.1-1.2C3.7,13.9,3.2,13.4,2.6,13.4z
		 M2.6,15.5c-0.5,0-0.9-0.4-0.9-0.9s0.4-0.9,0.9-0.9s0.8,0.4,0.9,0.9C3.5,15.1,3.1,15.5,2.6,15.5z"/>
	<path class="st0" d="M2.1,12.1c2.6,0,5.3,0,7.9,0c0.1,0,0.1,0,0.2,0c-0.1-0.4-0.1-0.8,0.1-1.2c0.4-0.6,0.3-0.6-0.2-0.7
		C9.3,9.9,9,9.4,9,8.6C9,8.4,9,8.2,9,8C8.9,8,8.8,8,8.7,8C8,8,7.3,8,6.6,8c-1.5,0-3,0-4.5,0C1,8,0.2,8.7,0,9.7v0.1
		c0,0.2,0,0.3,0,0.5c0,0.1,0.1,0.3,0.1,0.4C0.4,11.6,1.1,12.1,2.1,12.1z M0.6,9.9L0.6,9.9C0.8,9,1.4,8.5,2.2,8.5h6.4v0.2
		c0.1,0.9,0.5,1.5,1.4,1.9c-0.2,0.3-0.3,0.6-0.2,0.9H2.3c-0.8,0-1.4-0.4-1.6-1c0-0.1-0.1-0.2-0.1-0.3V9.9z"/>
	<path class="st0" d="M10.5,13.6h-5c-0.2,0-0.4,0.1-0.6,0.2c-0.3,0.2-0.4,0.6-0.3,1c0.1,0.4,0.5,0.6,0.9,0.6h5
		c0.5,0,0.9-0.4,0.9-0.9S11,13.6,10.5,13.6z M10.5,15c-0.8,0-1.7,0-2.5,0s-1.7,0-2.5,0c-0.3,0-0.4-0.1-0.5-0.3
		c-0.1-0.2,0-0.4,0.2-0.5C5.3,14.1,5.4,14,5.5,14c1.7,0,3.3,0,5,0c0.3,0,0.5,0.2,0.5,0.5S10.8,15,10.5,15z"/>
	<path class="st0" d="M14.1,15c-0.2,0-0.4,0-0.5-0.2c-0.1-0.3-0.1-0.5,0.1-0.7c-0.6-0.2-1.1-0.4-1.5-0.8c-0.5,0.1-0.9-0.1-1.3-0.4
		c-0.1-0.1-0.2-0.2-0.3-0.3c-0.1-0.1-0.1-0.1-0.2-0.1c-2.8,0-5.6,0-8.4,0c-0.9,0-1.6,0.5-1.9,1.4C0.1,14,0,14.1,0,14.3s0,0.4,0,0.6
		c0.3,1.1,1,1.7,2.1,1.7c0.9,0,1.8,0,2.7,0c3,0,6.1,0,9.1,0c0.5,0,1-0.2,1.4-0.5c0.4-0.4,0.7-0.9,0.7-1.5c-0.5,0-1,0-1.5,0
		C14.5,14.8,14.3,15,14.1,15z M12.5,14c0.3,0,0.5,0.2,0.5,0.5S12.8,15,12.5,15S12,14.8,12,14.5S12.2,14,12.5,14z M14.8,14.9h0.7
		c-0.1,0.3-0.2,0.5-0.5,0.8c-0.3,0.2-0.7,0.4-1.1,0.4H2.3c-0.9,0-1.5-0.4-1.7-1.3c0,0,0,0,0-0.1v-0.4c0,0,0-0.1,0-0.2V14
		c0.2-0.6,0.8-1,1.5-1h8.2l0.3,0.3c0.3,0.3,0.8,0.5,1.3,0.5H12c-0.3,0.1-0.4,0.4-0.4,0.7c0,0.5,0.4,0.9,0.9,0.9
		c0.3,0,0.6-0.1,0.7-0.4c0.1,0.3,0.4,0.4,0.7,0.4c0.1,0,0.1,0,0.2,0C14.4,15.3,14.7,15.2,14.8,14.9z"/>
	<path class="st0" d="M19.2,7.4h-0.9c-0.1,0-0.2-0.1-0.2-0.1C18,7.1,18,7,18.1,7l0.6-0.6c0.1-0.1,0.2-0.3,0.2-0.4
		c0-0.2-0.1-0.3-0.2-0.4l-0.8-0.8c-0.2-0.2-0.6-0.2-0.8,0l-0.6,0.6c-0.1,0.1-0.2,0.1-0.3,0.1c-0.1,0-0.1-0.1-0.1-0.2v-1
		c0-0.3-0.3-0.6-0.6-0.6h-1.1c-0.3,0-0.6,0.3-0.6,0.6v0.9c0,0.1-0.1,0.2-0.1,0.2c-0.1,0-0.2,0-0.3-0.1l-0.6-0.6
		c-0.2-0.2-0.6-0.2-0.8,0l-0.8,0.8C11.1,5.6,11,5.8,11,5.9c0,0.2,0.1,0.3,0.2,0.4L11.7,7c0.1,0.1,0.1,0.2,0.1,0.3s-0.1,0.1-0.2,0.1
		h-0.9c-0.3,0-0.6,0.3-0.6,0.6v1.1c0,0.3,0.3,0.6,0.6,0.6h0.9c0.1,0,0.2,0.1,0.2,0.1c0,0.1,0,0.2-0.1,0.3l-0.6,0.6
		c-0.1,0.1-0.2,0.3-0.2,0.4c0,0.1,0.1,0.3,0.2,0.4l0.8,0.8c0.2,0.2,0.6,0.2,0.8,0l0.6-0.6c0.1-0.1,0.2-0.1,0.3-0.1
		c0.1,0,0.1,0.1,0.1,0.2v0.9c0,0.3,0.3,0.6,0.6,0.6h1.1c0.3,0,0.6-0.3,0.6-0.6v-0.9c0-0.1,0.1-0.2,0.1-0.2c0.1,0,0.2,0,0.3,0.1
		l0.6,0.6c0.2,0.2,0.6,0.2,0.8,0l0.8-0.8c0.1-0.1,0.2-0.3,0.2-0.4c0-0.2-0.1-0.3-0.2-0.4L18,10.1c0-0.1,0-0.2,0.1-0.3
		c0-0.1,0.1-0.1,0.2-0.1h0.9c0.3,0,0.6-0.3,0.6-0.6V8C19.8,7.6,19.5,7.4,19.2,7.4z M19.2,9h-0.9c-0.3,0.1-0.6,0.3-0.8,0.6
		c-0.1,0.3-0.1,0.6,0.2,0.9l0.6,0.6c0,0,0,0,0,0.1L17.5,12l-0.6-0.6c-0.2-0.2-0.6-0.3-0.9-0.2c-0.3,0.1-0.5,0.4-0.5,0.7v0.9h-1.1
		v-0.9c0-0.3-0.2-0.6-0.5-0.7c-0.1,0-0.2-0.1-0.3-0.1c-0.2,0-0.4,0.1-0.6,0.2L12.3,12l-0.8-0.8c0,0,0,0,0-0.1l0.6-0.6
		c0.2-0.2,0.3-0.6,0.2-0.9c-0.1-0.3-0.4-0.5-0.7-0.5h-0.9V8h0.9c0.3,0,0.6-0.2,0.7-0.5c0.1-0.3,0.1-0.6-0.2-0.9L11.5,6
		c0,0,0,0,0-0.1l0.8-0.8c0,0,0,0,0.1,0L13,5.7C13.2,6,13.5,6,13.8,5.9c0.3-0.1,0.5-0.4,0.5-0.7V4.3h1.1v0.9c0,0.3,0.2,0.6,0.5,0.7
		c0.4,0.1,0.7,0.1,1-0.2l0.6-0.6c0,0,0,0,0.1,0l0.8,0.8l-0.6,0.6c-0.2,0.2-0.3,0.6-0.2,0.9c0.1,0.3,0.4,0.5,0.7,0.5h0.9V9z"/>
	<path class="st0" d="M14.9,6.8c-0.9,0-1.7,0.8-1.7,1.7c0,0.9,0.8,1.7,1.7,1.7c0.9,0,1.7-0.8,1.7-1.7C16.6,7.6,15.8,6.8,14.9,6.8z
		 M14.9,9.6c-0.6,0-1.1-0.5-1.1-1.1c0-0.6,0.5-1.1,1.1-1.1c0.6,0,1.1,0.5,1.1,1.1C16,9.1,15.5,9.6,14.9,9.6z"/>
</g>
</svg>
