<?xml version="1.0" encoding="utf-8"?>
<!-- Generator: Adobe Illustrator 22.0.1, SVG Export Plug-In . SVG Version: 6.00 Build 0)  -->
<svg version="1.1" id="Layer_1" xmlns="http://www.w3.org/2000/svg" xmlns:xlink="http://www.w3.org/1999/xlink" x="0px" y="0px"
	 viewBox="0 0 20 20" style="enable-background:new 0 0 20 20;" xml:space="preserve">
<style type="text/css">
	.st0{fill:#35C4FF;}
</style>
<g>
	<path class="st0" d="M16.3,8.4c-2,0-3.7,1.6-3.7,3.7c0,2.1,3.7,7.9,3.7,7.9s3.7-5.9,3.7-7.9S18.4,8.4,16.3,8.4z M16.3,14.9
		c-1.6,0-2.9-1.3-2.9-2.9c0-1.6,1.3-2.9,2.9-2.9c1.6,0,2.9,1.3,2.9,2.9C19.2,13.6,17.9,14.9,16.3,14.9z"/>
	<path class="st0" d="M19,7.8h-0.8c0.7,0.3,1.3,0.8,1.8,1.4V8.8C20,8.2,19.5,7.8,19,7.8z"/>
	<path class="st0" d="M12.3,15.7c-0.6,0.2-0.9,0.7-0.9,1.3v2c0,0.2-0.1,0.3-0.3,0.3H8.8c-0.2,0-0.3-0.1-0.3-0.3v-1.9
		c0-0.6-0.3-1.1-0.9-1.3c-0.2-0.1-0.4-0.1-0.6-0.1c-0.4,0-0.7,0.1-1,0.4l-1.3,1.3c-0.1,0.1-0.3,0.1-0.4,0l-1.7-1.7
		c-0.1-0.1-0.1-0.3,0-0.4L3.9,14c0.4-0.4,0.5-1,0.3-1.6c-0.2-0.6-0.7-0.9-1.3-0.9H1c-0.2,0-0.3-0.1-0.3-0.3V8.8
		c0-0.2,0.1-0.3,0.3-0.3h1.9c0.6,0,1.1-0.3,1.3-0.9C4.5,7.1,4.4,6.5,3.9,6L2.6,4.7c-0.1-0.1-0.1-0.3,0-0.4l1.7-1.7
		c0.1-0.1,0.3-0.1,0.4,0L6,3.9c0.4,0.4,1,0.5,1.6,0.3C8.2,4,8.5,3.5,8.5,2.9V1c0-0.2,0.1-0.3,0.3-0.3h2.4c0.2,0,0.3,0.1,0.3,0.3v1.9
		c0,0.6,0.3,1.1,0.9,1.3C13,4.4,13.6,4.3,14,3.9l1.3-1.3c0.1-0.1,0.3-0.1,0.4,0l1.7,1.7c0.1,0.1,0.1,0.3,0,0.4L16.1,6
		c-0.4,0.4-0.5,0.9-0.4,1.4c0.2,0,0.4-0.1,0.6-0.1h0.1V7.2c-0.1-0.3-0.1-0.6,0.2-0.8l1.3-1.3c0.2-0.2,0.3-0.5,0.3-0.7
		c0-0.3-0.1-0.5-0.3-0.7L16.2,2c-0.4-0.4-1.1-0.4-1.5,0l-1.3,1.3c-0.2,0.2-0.5,0.3-0.8,0.2c-0.3-0.1-0.4-0.4-0.4-0.7V1
		c0-0.6-0.5-1-1-1H8.8c-0.6,0-1,0.5-1,1v1.9c0,0.3-0.2,0.5-0.4,0.7c-0.3,0.1-0.6,0-0.8-0.2L5.2,2.1c-0.4-0.4-1.1-0.4-1.5,0L2.1,3.8
		C1.9,4,1.8,4.2,1.8,4.5S1.9,5,2.1,5.2l1.3,1.3C3.6,6.7,3.7,7,3.6,7.3C3.5,7.6,3.2,7.8,2.9,7.8H1c-0.6,0-1,0.5-1,1v2.4
		c0,0.6,0.5,1,1,1h1.9c0.3,0,0.5,0.2,0.7,0.4c0.1,0.3,0.1,0.6-0.2,0.8l-1.3,1.3c-0.2,0.2-0.3,0.5-0.3,0.7c0,0.3,0.1,0.5,0.3,0.7
		l1.7,1.7c0.4,0.4,1.1,0.4,1.5,0l1.3-1.3c0.2-0.2,0.5-0.3,0.8-0.2c0.3,0.1,0.4,0.4,0.4,0.7v2c0,0.6,0.5,1,1,1h2.4c0.6,0,1-0.5,1-1
		v-1.9c0-0.3,0.2-0.5,0.4-0.7c0.2-0.1,0.4-0.1,0.6,0c-0.1-0.2-0.2-0.5-0.4-0.8C12.6,15.6,12.5,15.6,12.3,15.7z"/>
	<path class="st0" d="M10,7.5c1.2,0,2.3,0.9,2.5,2c0.2-0.2,0.4-0.5,0.6-0.7c-0.5-1.2-1.7-2.1-3.1-2.1c-1.8,0-3.3,1.5-3.3,3.3
		s1.5,3.3,3.3,3.3c0.7,0,1.3-0.2,1.8-0.5c-0.1-0.3-0.1-0.5-0.1-0.7V12c-0.5,0.4-1.1,0.7-1.7,0.7c-1.4,0-2.6-1.2-2.6-2.6
		C7.4,8.7,8.6,7.5,10,7.5z"/>
</g>
</svg>
