<?xml version="1.0" encoding="utf-8"?>
<!-- Generator: Adobe Illustrator 23.0.1, SVG Export Plug-In . SVG Version: 6.00 Build 0)  -->
<svg version="1.1" id="Layer_1" xmlns="http://www.w3.org/2000/svg" xmlns:xlink="http://www.w3.org/1999/xlink" x="0px" y="0px"
	 viewBox="0 0 40 40" style="enable-background:new 0 0 40 40;" xml:space="preserve">
<style type="text/css">
	.st0{fill:#FFFFFF;}
</style>
<path class="st0" d="M39.6,26.3c-2.5-2.4-5-4.8-7.6-7.2c-1.5-1.4-3-2.8-4.4-4.2c-0.4-0.4-0.8-0.6-1.1-0.6c-0.3,0-0.7,0.2-1.1,0.6
	c-1.2,1.2-2.5,2.4-3.7,3.6c-2.7,2.6-5.3,5.2-8,7.8c-0.5,0.5-0.6,1-0.3,1.6c0.4,0.8,1,1.2,1.8,1.3c0.2,0,0.3,0,0.5,0
	c0.1,0,0.3,0,0.4,0c0.1,0,0.3,0,0.4,0h0.2l0,0.9c-0.5,0-1,0-1.6,0c-3.3,0-6.3-0.2-9.1-0.6c-1.6-0.2-3-0.6-4.2-1c-0.1,0-0.1,0-0.1,0
	c0,0,0,0,0-0.1c0.1-0.3,0.1-0.5,0.1-0.8c0.1-0.5,0.1-0.9,0.3-1.3c0.7-2.5,2-4,4-4.7c1.4-0.5,2.8-1.2,4.1-1.8
	c0.5-0.3,1.2-0.9,1.8-0.7c0.4,0.1,0.8,0.5,1.3,0.7c0.6,0.2,1.2,0.3,1.8,0.3c0,0,0,0,0,0c1,0,2-0.4,3-1.1c1.4-1.1,2.4-2.5,3-4.3
	c0.1-0.2,0.2-0.4,0.3-0.6c1.2-1.6,1.8-3,1.6-4.5c0-0.5-0.1-1-0.5-1.4c-0.1-0.1-0.2-0.3-0.2-0.5c0-0.4,0-0.7,0-1.1c0-0.3,0-0.6,0-1
	c0-0.8-0.3-1.5-0.8-2.1c-0.1-0.1-0.1-0.1-0.1-0.1C21,2,20.1,1.1,18.6,0.6C17.5,0.2,16.4,0,15.3,0c-0.9,0-1.9,0.1-2.8,0.4
	c-2.2,0.7-3.6,2.1-4.3,4.3C8,5.5,8,6.3,8,7.1c0,0.6,0.1,1.4-0.3,1.9c-0.5,0.6-0.4,1.3-0.4,2c0.1,0.7,0.3,1.4,0.6,2.1
	c0.4,0.8,1.1,1.3,1.4,2.1c0.1,0.2,1.1,2.6,1.3,2.5c-0.1,0.1-0.2,0.1-0.3,0.2c-0.5,0.2-0.9,0.4-1.3,0.6c-1,0.4-2,0.9-2.9,1.3
	c-0.6,0.2-1.1,0.5-1.7,0.7c-0.7,0.3-1.3,0.7-1.7,1.3C1,23.7,0.2,26.1,0,28.7c0,0.5,0.2,0.9,0.7,1.1c1.1,0.5,2.4,0.8,3.9,1.1
	c2.1,0.4,4.4,0.6,7,0.8c1.2,0,2.4,0.1,3.6,0.1c0.3,0,0.9,0.1,1.4,0.1c0,0.6,0,1.3,0,1.9l0,0.9c0,1.2,0,2.4,0.1,3.6
	c0.1,1.1,0.8,1.8,1.8,1.8c0.7,0,1.4,0,2.4,0c0.5,0,1,0,1.5,0c0.5,0,1,0,1.5,0c0,0,0,0,0,0l0-8.5c0-0.3,0-0.5,0.1-0.7
	c0.1-0.1,0.4-0.1,0.6-0.1l0.5,0c0.5,0,1.1,0,1.6,0c0.5,0,0.9,0,1.4,0l0.2,0c0.3,0,0.5,0,0.6,0.1c0.1,0.1,0.2,0.4,0.2,0.8l0,8.4
	c0,0,0.1,0,0.1,0l0.2,0c0.4,0,0.8,0,1.2,0c0.4,0,0.8,0,1.2,0c0.9,0,1.5,0,2.2,0c1.5,0,2.6-1.1,2.6-2.7c0-0.9,0-1.9,0-2.8l0-5.5
	c0,0,1.1,0,1.3,0c0.2,0,0.5,0,0.7,0c0.6,0,1-0.3,1.2-0.9C40,27.5,40.2,26.9,39.6,26.3z M10.2,13.9c-0.7-1.2-1.4-2.4-1.3-3.8
	c0,0,0-0.1,0-0.1c0,0,0,0,0,0c0.5-0.1,0.6-0.6,0.6-1c0-1.4-0.2-3,0.4-4.4C10.3,4,10.6,3.5,11,3c1.1-1.1,2.8-1.3,4.3-1.3
	c1.3,0,2.9,0.1,3.9,1.1c0.5,0.6,1.1,1.6,1.3,2.4c0.4,1.2-0.1,2.4,0.2,3.6c0,0.1,0.3,0.3,0.5,0.4c0.1,0.1,0.2,0.2,0.2,0.4
	c0,0.8-0.1,1.5-0.5,2.2c-0.5,0.9-1.1,1.5-1.5,2.5c-0.4,1.1-0.9,2-1.7,2.8c-0.8,0.8-1.7,1.2-2.7,1.2c-1.9,0-3-1.4-3.9-2.9
	C10.9,14.9,10.6,14.4,10.2,13.9z M35,27.5L35,27.5c0,0.2,0,0.3,0,0.5l0,8.7c0,0.2,0,0.4,0,0.6c-0.1,0.7-0.4,1.1-1.1,1.1
	c-0.3,0-0.7,0-1.2,0c-0.3,0-0.6,0-0.9,0c-0.3,0-0.6,0-0.9,0h-0.1c0,0,0-0.3,0-0.4c0-0.2,0-0.4,0-0.6c0-0.8,0-1.6,0-2.5
	c0-1.1,0-2.3,0-3.4c0-1.8-0.6-2.3-2.4-2.4c-0.5,0-1,0-1.5,0c-0.5,0-0.9,0-1.4,0l-1,0c-0.1,0-0.3,0-0.4,0c-1.3,0.1-1.8,0.7-1.8,2
	c0,1.6,0,3.1,0,4.7l0,2.7l-2,0c-0.5,0-1,0-1.5,0c-0.4,0-0.6-0.2-0.6-0.6l0-0.1c0-0.1,0-0.2,0-0.4l0-9.7h-3.3c0,0,9.3-9.7,11.3-11.4
	l0.1-0.1l12.1,11.4H35z"/>
</svg>
