<?xml version="1.0" encoding="utf-8"?>
<!-- Generator: Adobe Illustrator 23.0.1, SVG Export Plug-In . SVG Version: 6.00 Build 0)  -->
<svg version="1.1" id="Layer_1" xmlns="http://www.w3.org/2000/svg" xmlns:xlink="http://www.w3.org/1999/xlink" x="0px" y="0px"
	 viewBox="0 0 40 40" style="enable-background:new 0 0 40 40;" xml:space="preserve">
<style type="text/css">
	.st0{fill:#FFFFFF;}
</style>
<g>
	<g>
		<g>
			<g>
				<path class="st0" d="M27.4,9.3c0,0-0.1,0-0.1,0c-1.7,0-3.4,0-5.1,0c-0.1,0-0.2,0-0.2,0.2c-0.4,1.3-0.9,2.6-1.4,3.8
					c-0.1,0.3-0.2,0.6-0.3,0.9h3.3c0.3,1,0.7,1.9,1,2.8h-0.2c-1.7,0-3.4,0-5.2,0c-0.1,0-0.2,0-0.2,0.2c-0.8,2.3-1.6,4.5-2.4,6.7
					c-0.8,2.2-1.6,4.4-2.4,6.6c0,0.1,0,0.1-0.1,0.2c0.1,0,0.1,0,0.1,0c1.8,0,3.6,0,5.4,0c0.1,0,0.2,0,0.2-0.2
					c1.4-3.9,2.8-7.8,4.2-11.6c0.2-0.5,0.4-1.1,0.6-1.6c0,0,0,0,0,0c0,0.1,0.1,0.2,0.1,0.4c0.3,0.9,0.7,1.7,1,2.6
					c1.2,3.4,2.5,6.8,3.7,10.2c0,0.1,0.1,0.2,0.3,0.2c1.8,0,3.6,0,5.4,0c0,0,0.1,0,0.2,0C32.7,23.6,30,16.4,27.4,9.3z M17.3,17.2
					c0,0,0-0.1,0-0.1c0,0,0,0-0.1,0c-1.1,0-2.3,0-3.4,0c-0.1,0-0.1,0.1-0.2,0.1c-0.6,1.6-1.1,3.2-1.7,4.7c-1,2.6-1.9,5.2-2.8,7.8
					c-0.1,0.3-0.2,0.6-0.3,1c0,0,0.1,0,0.1,0c1.1,0,2.3,0,3.4,0c0.1,0,0.1,0,0.2-0.1c0.1-0.4,0.3-0.7,0.4-1.1c0.6-1.7,1.2-3.3,1.8-5
					C15.5,22.1,16.4,19.6,17.3,17.2z M11.7,18c0.1-0.3,0.2-0.7,0.4-1c0,0,0,0-0.1,0c-0.7,0-1.5,0-2.2,0c-0.1,0-0.1,0.1-0.1,0.1
					c-0.5,1.5-1.1,3-1.6,4.5c-1,2.7-1.9,5.4-2.9,8.1c-0.1,0.3-0.2,0.6-0.3,0.9c0,0,0.1,0,0.1,0c0.7,0,1.5,0,2.2,0
					c0.1,0,0.1-0.1,0.2-0.1c0.6-1.7,1.2-3.3,1.8-5C9.9,23.1,10.8,20.6,11.7,18z"/>
			</g>
		</g>
	</g>
	<path class="st0" d="M35.2,0H4.8C2.1,0,0,2.1,0,4.8v30.5C0,37.9,2.1,40,4.8,40h30.5c2.6,0,4.8-2.1,4.8-4.8V4.8
		C40,2.1,37.9,0,35.2,0z M38.1,35.2c0,1.6-1.3,2.9-2.9,2.9H4.8c-1.6,0-2.9-1.3-2.9-2.9V4.8c0-1.6,1.3-2.9,2.9-2.9h30.5
		c1.6,0,2.9,1.3,2.9,2.9V35.2z"/>
</g>
</svg>
