<?xml version="1.0" encoding="utf-8"?>
<!-- Generator: Adobe Illustrator 23.0.1, SVG Export Plug-In . SVG Version: 6.00 Build 0)  -->
<svg version="1.1" id="Layer_1" xmlns="http://www.w3.org/2000/svg" xmlns:xlink="http://www.w3.org/1999/xlink" x="0px" y="0px"
	 viewBox="0 0 40 40" style="enable-background:new 0 0 40 40;" xml:space="preserve">
<style type="text/css">
	.st0{fill:#FFFFFF;}
</style>
<g>
	<path class="st0" d="M21.8,23.5h-8.7c-0.5,0-0.8,0.4-0.8,0.8c0,0.5,0.4,0.8,0.8,0.8h8.7c0.5,0,0.8-0.4,0.8-0.8
		C22.7,23.9,22.3,23.5,21.8,23.5z"/>
	<path class="st0" d="M40,12.2c0-5.5-4.5-9.9-9.9-9.9c-5.2,0-9.4,4-9.9,9H8.3c-0.7,0-1.3,0.6-1.3,1.3v16.1H1.3C0.6,28.7,0,29.3,0,30
		v3.7c0,2.2,1.8,4,4,4h22.6v0c0,0,0.1,0,0.1,0c2.3,0,4.2-2,4.2-4.4V22.1C36,21.6,40,17.4,40,12.2z M1.7,33.7v-3.4h20.8v3h0
		c0,1,0.4,2,0.9,2.7H4C2.7,36.1,1.7,35,1.7,33.7z M26.7,36.1c-1.4,0-2.6-1.2-2.6-2.7h0V30c0-0.7-0.6-1.3-1.3-1.3H8.6V13h11.5
		c0.1,1.1,0.4,2.2,0.8,3.2h-7.9c-0.5,0-0.8,0.4-0.8,0.8c0,0.5,0.4,0.8,0.8,0.8h8.7c0,0,0,0,0.1,0c0.5,0.8,1.1,1.4,1.8,2H13.1
		c-0.5,0-0.8,0.4-0.8,0.8c0,0.5,0.4,0.8,0.8,0.8h13.5c0.9,0.3,1.8,0.5,2.7,0.6v11.2C29.3,34.8,28.1,36.1,26.7,36.1z M30.1,20.5
		c-4.6,0-8.3-3.7-8.3-8.3s3.7-8.3,8.3-8.3s8.3,3.7,8.3,8.3S34.6,20.5,30.1,20.5z"/>
	<path class="st0" d="M32.8,13c-0.1-0.1-0.2-0.3-0.3-0.4c-0.2-0.1-0.3-0.2-0.4-0.3c-0.1-0.1-0.3-0.2-0.5-0.3
		c-0.2-0.1-0.4-0.2-0.5-0.2c-0.1-0.1-0.3-0.1-0.5-0.2c-0.2-0.1-0.4-0.1-0.5-0.2c-0.1,0-0.2-0.1-0.4-0.2c-0.2-0.1-0.3-0.1-0.4-0.2
		c-0.1-0.1-0.2-0.1-0.3-0.2c-0.1-0.1-0.2-0.2-0.2-0.3c0-0.1-0.1-0.2-0.1-0.3c0-0.3,0.1-0.5,0.4-0.7c0.3-0.2,0.6-0.3,1-0.3
		c0.2,0,0.4,0,0.6,0.1c0.2,0.1,0.4,0.1,0.5,0.2c0.1,0.1,0.3,0.1,0.4,0.2c0.1,0.1,0.2,0.1,0.3,0.2C32,9.8,32,9.8,32,9.8
		c0.1,0,0.1,0.1,0.2,0c0.1,0,0.1,0,0.2-0.1l0.5-1c0.1-0.1,0-0.2,0-0.3c0,0-0.1-0.1-0.1-0.1c0,0-0.1-0.1-0.3-0.2
		c-0.1-0.1-0.3-0.2-0.4-0.2c-0.1-0.1-0.3-0.1-0.6-0.2c-0.2-0.1-0.5-0.1-0.7-0.2V6.5c0-0.1,0-0.1-0.1-0.2c0,0-0.1-0.1-0.2-0.1h-0.9
		c-0.1,0-0.1,0-0.1,0.1s-0.1,0.1-0.1,0.1v1.2c-0.7,0.1-1.2,0.4-1.7,0.9c-0.4,0.5-0.6,1-0.6,1.6c0,0.2,0,0.4,0.1,0.5
		c0,0.2,0.1,0.3,0.1,0.4c0.1,0.1,0.1,0.3,0.2,0.4c0.1,0.1,0.2,0.2,0.3,0.3c0.1,0.1,0.2,0.2,0.4,0.3c0.1,0.1,0.3,0.2,0.4,0.2
		c0.1,0.1,0.2,0.1,0.4,0.2c0.2,0.1,0.3,0.1,0.4,0.2c0.1,0,0.2,0.1,0.4,0.2c0.2,0.1,0.4,0.2,0.5,0.2c0.1,0.1,0.3,0.1,0.4,0.2
		c0.2,0.1,0.3,0.2,0.4,0.2c0.1,0.1,0.2,0.2,0.2,0.3c0.1,0.1,0.1,0.2,0.1,0.3c0,0.3-0.1,0.6-0.4,0.8c-0.3,0.2-0.6,0.3-0.9,0.3
		c-0.2,0-0.3,0-0.5-0.1c-0.6-0.1-1.1-0.4-1.6-0.8l0,0c0,0-0.1-0.1-0.2-0.1c-0.1,0-0.1,0-0.2,0.1L27,15.3c-0.1,0.1-0.1,0.2,0,0.3
		c0,0,0.1,0.1,0.1,0.1c0.1,0.1,0.2,0.1,0.3,0.2c0.1,0.1,0.3,0.2,0.5,0.3c0.2,0.1,0.4,0.2,0.7,0.3c0.3,0.1,0.6,0.2,0.8,0.2v1.2
		c0,0.1,0,0.1,0.1,0.1c0,0,0.1,0.1,0.1,0.1h0.9c0.1,0,0.1,0,0.2-0.1c0,0,0.1-0.1,0.1-0.2v-1.2c0.7-0.1,1.3-0.4,1.7-0.9
		c0.4-0.5,0.7-1.1,0.7-1.7c0-0.2,0-0.4-0.1-0.6C33,13.3,32.9,13.1,32.8,13z"/>
</g>
</svg>
