<?xml version="1.0" encoding="utf-8"?>
<!-- Generator: Adobe Illustrator 23.0.1, SVG Export Plug-In . SVG Version: 6.00 Build 0)  -->
<svg version="1.1" id="Layer_1" xmlns="http://www.w3.org/2000/svg" xmlns:xlink="http://www.w3.org/1999/xlink" x="0px" y="0px"
	 viewBox="0 0 40 40" style="enable-background:new 0 0 40 40;" xml:space="preserve">
<style type="text/css">
	.st0{fill:#FFFFFF;}
</style>
<g>
	<path class="st0" d="M31.4,25.2c-2.3,0-4.1,1.8-4.1,4.1c0,1.1,0.4,2.1,1.2,2.9c0.8,0.8,1.8,1.2,2.9,1.2h0h0c2.2,0,4.1-1.9,4.1-4.1
		C35.5,27,33.7,25.2,31.4,25.2z M31.4,32c-0.7,0-1.4-0.3-1.9-0.8c-0.5-0.5-0.8-1.2-0.8-1.9c0-1.5,1.2-2.7,2.7-2.7l0-0.4l0,0.4
		c1.5,0,2.7,1.2,2.7,2.7C34.1,30.7,32.9,32,31.4,32z"/>
	<path class="st0" d="M40,28.4c0-0.4-0.2-0.8-0.5-1.1c-0.2-0.2-0.5-0.3-0.8-0.3c-0.1,0-0.1,0-0.2,0c-0.1,0-0.1,0-0.2,0c0,0,0,0,0,0
		c-0.1,0-0.2,0-0.4-0.6c-0.2-0.4-0.2-0.4,0-0.6c0.3-0.2,0.5-0.6,0.6-1c0-0.4-0.1-0.8-0.4-1.1c-0.4-0.4-0.8-0.9-1.3-1.3
		c-0.3-0.2-0.6-0.4-1-0.4c0,0-0.1,0-0.1,0c-0.4,0-0.7,0.2-0.9,0.5c-0.1,0.2-0.2,0.2-0.2,0.2c-0.1,0-0.4-0.1-0.6-0.2
		c-0.4-0.2-0.4-0.2-0.4-0.4c0.1-0.4-0.1-0.8-0.3-1.1c-0.2-0.3-0.6-0.5-1-0.5c-0.3,0-0.6,0-0.9,0c-0.3,0-0.6,0-0.9,0
		c-0.4,0-0.8,0.2-1,0.5c-0.2,0.3-0.3,0.6-0.3,1c0,0.3,0.1,0.3-0.6,0.6c-0.2,0.1-0.3,0.1-0.4,0.1c0,0,0,0,0,0c0,0,0,0-0.2-0.2
		c-0.2-0.3-0.6-0.5-0.9-0.6c-0.1,0-0.1,0-0.2,0c-0.3,0-0.7,0.1-1,0.4c-0.3,0.2-0.5,0.5-0.8,0.7c-0.4,0.4-0.9,0.9-0.8,1.5
		c0,0.5,0.3,0.9,0.7,1.3c-0.1,0.2-0.2,0.5-0.3,0.7c0,0.1,0,0.2,0,0.2h0c0,0,0,0-0.1,0c0,0-0.1,0-0.1,0c-0.1,0-0.1,0-0.2,0
		c-0.5,0-0.8,0.2-0.9,0.3c-0.3,0.2-0.5,0.6-0.5,1c0,0.6,0,1.1,0,1.7c0,0.4,0.2,0.8,0.5,1.1c0.2,0.2,0.5,0.3,0.8,0.3
		c0.1,0,0.1,0,0.2,0c0.1,0,0.1,0,0.2,0c0.1,0,0.2,0,0.3,0.4c0,0.1,0.1,0.2,0.1,0.3c0.1,0.1,0.1,0.2,0.1,0.2c0,0,0,0.1-0.2,0.2
		c-0.3,0.2-0.5,0.6-0.6,0.9c0,0.4,0.1,0.8,0.4,1.1c0.2,0.3,0.4,0.5,0.7,0.7c0.5,0.5,1,0.9,1.5,0.9c0.5,0,0.9-0.3,1.3-0.7
		c0.3,0.1,0.6,0.3,0.9,0.4c0,1.7,0.8,1.9,2,1.9c0,0,0.1,0,0.1,0c0,0,0.2,0,0.2,0c0.2,0,0.5,0,0.9-0.1c0.4-0.1,0.8-0.3,1-0.6
		c0.2-0.3,0.3-0.6,0.2-1c0-0.3,0-0.3,0.5-0.6c0.1,0,0.3-0.1,0.4-0.1c0,0,0,0,0.2,0.1c0.3,0.3,0.6,0.5,1,0.6c0,0,0.1,0,0.1,0
		c0.3,0,0.7-0.1,1-0.4c0.4-0.4,0.8-0.8,1.3-1.3c0.3-0.3,0.4-0.7,0.4-1.1c0-0.4-0.2-0.7-0.5-0.9c-0.2-0.2-0.3-0.2,0-0.8
		c0.2-0.4,0.2-0.4,0.3-0.4c0,0,0.1,0,0.1,0c0.1,0,0.1,0,0.2,0c0,0,0,0,0,0c0.4,0,0.7-0.2,0.9-0.3c0.2-0.2,0.5-0.5,0.5-1.1
		C40,29.5,40,29,40,28.4z M38.4,29.9c-0.1,0-0.1,0-0.1,0c-1.2,0-1.6,0.9-1.8,1.4c-0.2,0.6-0.7,1.6,0.3,2.5c-0.3,0.3-0.6,0.6-0.9,0.9
		c-0.4-0.4-0.8-0.6-1.3-0.6c-0.4,0-0.7,0.1-1,0.3c-0.5,0.2-1.6,0.7-1.5,2c-0.2,0-0.5,0-0.6,0.1l-0.1,0l-0.1,0c-0.2,0-0.4,0-0.5,0
		c0-0.1,0-0.2,0-0.4c0-0.7-0.3-1.2-1-1.4c-0.3-0.1-0.7-0.3-0.9-0.4C28.6,34,28.4,34,28.2,34c-0.3,0-0.6,0.1-0.9,0.4
		c-0.2,0.2-0.3,0.3-0.4,0.3c-0.1-0.1-0.2-0.2-0.4-0.4c-0.2-0.2-0.4-0.4-0.5-0.6c0.8-0.7,0.9-1.5,0.4-2.3c-0.3-1-0.9-1.5-1.8-1.5
		c-0.1,0-0.1,0-0.2,0c0-0.4,0-0.9,0-1.3c0.1,0,0.1,0,0.2,0c0.9,0,1.5-0.5,1.7-1.5c0-0.1,0.1-0.2,0.2-0.4l0-0.1
		c0.3-0.6,0.2-1.2-0.2-1.6c0,0,0,0-0.1-0.1C26.1,25,26,24.9,26,24.8c0.1-0.1,0.3-0.3,0.3-0.4c0.2-0.2,0.4-0.4,0.6-0.6
		c0.4,0.4,0.8,0.6,1.3,0.6c0.4,0,0.8-0.1,1-0.3c0.6-0.2,1.6-0.7,1.5-2c0.2,0,0.4,0,0.6,0c0.2,0,0.4,0,0.7,0C32,23.6,33,24,33.4,24.2
		c0.3,0.1,0.7,0.3,1.2,0.3c0.5,0,0.9-0.2,1.3-0.6c0.3,0.3,0.6,0.6,0.9,0.9c-0.9,0.8-0.7,1.6-0.4,2.3c0.2,0.5,0.6,1.5,1.9,1.5
		c0,0,0.1,0,0.1,0C38.4,29.1,38.4,29.5,38.4,29.9z"/>
	<path class="st0" d="M7.1,12.2c-0.5,0.8-0.7,1.9-0.3,3.2c0.2,0.7,0.8,2.5,2.6,3c0.5,1,1.3,2.3,2.1,3.1c0.4,0.4,1,0.7,1.6,1
		c0.8,0.3,1.6,0.5,2.5,0.5s1.7-0.2,2.5-0.5c0.6-0.3,1.2-0.6,1.6-1c0.8-0.8,1.6-2.1,2.1-3.1c1.8-0.5,2.4-2.3,2.6-3
		c0.3-1.3,0.2-2.4-0.3-3.2c-0.1-0.2-0.3-0.4-0.5-0.6c0-0.3,0-0.7-0.1-1c0-0.5,0.1-1.7-0.2-3c-0.4-1.7-1.1-3-2.2-3.8
		c-1.6-1.1-3.3-1.8-5-1.8c-1.4,0-2.8,0.4-3.9,1.2c-0.6,0.5-1.2,1-1.6,1.6C9.6,5,8.1,5.5,7.4,7.6c-0.6,1.9-0.3,3.2,0.2,3.9
		c0,0,0,0.1,0,0.1C7.4,11.8,7.2,12,7.1,12.2z M8.4,13.1c0.1-0.1,0.2-0.3,0.4-0.4l0.4-0.2l0-0.5c0-0.2,0-0.5,0-0.7l0-0.3l-0.2-0.2
		c-0.3-0.4-0.6-1.2-0.1-2.7c0.5-1.4,1.5-1.6,2.1-1.7l0.5,0L11.7,6c0.2-0.4,0.6-0.9,1.3-1.4C13.8,4,14.9,3.7,16,3.7
		c1.4,0,2.8,0.5,4.1,1.4c0.8,0.6,1.3,1.6,1.6,2.9c0.2,1.1,0.2,2.2,0.1,2.5l0,0.1l0,0.1c0.1,0.5,0.1,1,0.1,1.3l0,0.5l0.4,0.2
		c0.1,0.1,0.3,0.2,0.4,0.4c0.3,0.4,0.3,1.1,0.1,1.9c-0.4,1.5-1.2,1.8-1.7,1.9l-0.4,0.1l-0.2,0.4c-0.3,0.6-1.2,2.2-1.9,3
		c-0.3,0.3-0.6,0.5-1.1,0.6c-0.6,0.2-1.2,0.4-1.9,0.4c-0.6,0-1.3-0.1-1.9-0.4c-0.4-0.2-0.8-0.4-1.1-0.6c-0.8-0.7-1.6-2.3-1.9-3
		l-0.2-0.4L10,16.8c-0.5-0.1-1.3-0.4-1.7-1.9C8.1,14.2,8.2,13.5,8.4,13.1z"/>
	<path class="st0" d="M23,36.3H1.7V31c0-1.8,1.1-3.5,2.8-4.2l6.5-2.6l2,5.4c0.1,0.2,0.3,0.3,0.5,0.3c0.2,0,0.4-0.1,0.5-0.3l0.7-2.1
		L14,26h3l-0.6,1.5l0.7,2.1c0.1,0.2,0.3,0.3,0.5,0.3c0.2,0,0.4-0.1,0.5-0.3l2-5.4l1.2,0.5c0.2-0.5,0.5-1,0.8-1.5l-1.5-0.6
		c-0.2-0.1-0.4-0.1-0.6-0.1c-0.2,0-0.4,0-0.6,0.1c-0.4,0.2-0.7,0.5-0.8,0.9l-0.4,1.1c-0.3-0.2-0.6-0.3-1-0.3h-3.2
		c-0.4,0-0.7,0.1-1,0.3l-0.4-1.1c-0.1-0.4-0.5-0.7-0.8-0.9c-0.2-0.1-0.4-0.1-0.6-0.1c-0.2,0-0.4,0-0.6,0.1l-6.6,2.6
		C1.5,26.3,0,28.5,0,31v5.3c0,0.9,0.7,1.6,1.6,1.6h23.3C24.2,37.4,23.6,36.9,23,36.3z"/>
</g>
</svg>
