<?xml version="1.0" encoding="utf-8"?>
<!-- Generator: Adobe Illustrator 23.0.1, SVG Export Plug-In . SVG Version: 6.00 Build 0)  -->
<svg version="1.1" id="Layer_1" xmlns="http://www.w3.org/2000/svg" xmlns:xlink="http://www.w3.org/1999/xlink" x="0px" y="0px"
	 viewBox="0 0 40 40" style="enable-background:new 0 0 40 40;" xml:space="preserve">
<style type="text/css">
	.st0{fill:#FFFFFF;}
</style>
<path class="st0" d="M4.4,40c-1,0-1.8-0.8-1.8-1.8v-5.9c0-2.8,1.7-5.3,4.3-6.4l7.4-2.9c0.2-0.1,0.4-0.1,0.7-0.1
	c0.2,0,0.5,0.1,0.7,0.2c0.4,0.2,0.8,0.6,0.9,1l0.4,1.2c0.3-0.2,0.7-0.4,1.1-0.4h3.6c0.4,0,0.8,0.1,1.1,0.4l0.4-1.2
	c0.2-0.4,0.5-0.8,0.9-1c0.2-0.1,0.5-0.2,0.7-0.2c0.2,0,0.4,0,0.7,0.1l7.4,2.9c2.6,1,4.3,3.5,4.3,6.4v5.9c0,1-0.8,1.8-1.8,1.8H4.4z
	 M35.5,38.1v-5.9c0-2.1-1.2-3.9-3.1-4.6l-7.3-2.9l-2.2,6c-0.1,0.2-0.3,0.4-0.5,0.4c-0.2,0-0.4-0.1-0.5-0.4L21,28.4l0.7-1.6h-3.3
	l0.7,1.6l-0.8,2.4c-0.1,0.2-0.3,0.4-0.5,0.4c-0.2,0-0.4-0.1-0.5-0.4l-2.2-6l-7.3,2.9c-1.9,0.8-3.1,2.6-3.1,4.6v5.9H35.5z M20,23.3
	c-1,0-1.9-0.2-2.8-0.5c-0.7-0.3-1.3-0.6-1.8-1.1c-0.9-0.8-1.8-2.3-2.4-3.4c-2-0.5-2.7-2.5-2.9-3.4c-0.4-1.4-0.3-2.6,0.4-3.6
	c0.2-0.2,0.3-0.5,0.5-0.6c0,0,0-0.1,0-0.1c-0.5-0.9-0.9-2.3-0.2-4.4c0.8-2.3,2.5-2.9,3.5-3.1c0.4-0.7,1-1.3,1.7-1.8
	C17.4,0.5,18.9,0,20.5,0c1.9,0,3.9,0.7,5.6,2c1.2,0.9,2,2.3,2.4,4.2c0.3,1.5,0.3,2.8,0.2,3.3c0.1,0.4,0.1,0.8,0.1,1.1
	c0.2,0.2,0.4,0.4,0.5,0.6c0.6,0.9,0.7,2.1,0.4,3.6c-0.2,0.8-0.9,2.8-2.9,3.4c-0.6,1.1-1.5,2.6-2.4,3.4c-0.5,0.4-1.1,0.8-1.8,1.1
	C21.9,23.1,21,23.3,20,23.3z M20.5,1.9c-1.2,0-2.4,0.3-3.3,1C16.4,3.4,16,4,15.8,4.4l-0.3,0.5l-0.5,0c-0.7,0-1.8,0.3-2.4,1.9
	c-0.6,1.6-0.1,2.6,0.2,3L13,10l0,0.3c0,0.3,0,0.5,0,0.8l0,0.5l-0.4,0.3c-0.2,0.1-0.3,0.2-0.4,0.4c-0.3,0.5-0.4,1.2-0.1,2.1
	c0.4,1.7,1.3,2,1.9,2.1l0.5,0.1l0.2,0.4c0.4,0.7,1.3,2.5,2.2,3.3c0.3,0.3,0.7,0.5,1.2,0.7c0.7,0.3,1.4,0.4,2.1,0.4
	c0.7,0,1.4-0.1,2.1-0.4c0.5-0.2,0.9-0.4,1.2-0.7c0.9-0.8,1.8-2.6,2.2-3.3l0.2-0.4l0.5-0.1c0.5-0.1,1.4-0.4,1.9-2.1
	c0.2-0.9,0.2-1.6-0.1-2.1c-0.1-0.2-0.2-0.3-0.4-0.4l-0.4-0.3l0-0.5c0-0.3,0-0.8-0.1-1.4l0-0.1l0-0.1C27,9.1,27,8,26.8,6.7
	c-0.3-1.5-0.9-2.6-1.8-3.3C23.6,2.4,22.1,1.9,20.5,1.9z"/>
</svg>
