<?xml version="1.0" encoding="utf-8"?>
<!-- Generator: Adobe Illustrator 23.0.1, SVG Export Plug-In . SVG Version: 6.00 Build 0)  -->
<svg version="1.1" id="Layer_1" xmlns="http://www.w3.org/2000/svg" xmlns:xlink="http://www.w3.org/1999/xlink" x="0px" y="0px"
	 viewBox="0 0 40 40" style="enable-background:new 0 0 40 40;" xml:space="preserve">
<style type="text/css">
	.st0{fill:#FFFFFF;}
</style>
<g>
	<path class="st0" d="M39.9,9.6c-0.4-2.4-1.8-4.2-4.1-5.1c-0.7-0.3-1.5-0.4-2.2-0.4c-1.4,0-2.7,0.5-4,1.5c-0.3,0.2-0.5,0.5-0.8,0.7
		l-0.2,0.2l-0.2-0.2c-0.1-0.1-0.2-0.1-0.2-0.1c-0.1,0-0.2,0-0.3,0.1l-0.9,0.9C27,7.3,27,7.4,27,7.5s0,0.2,0.1,0.3l3,3
		c0.1,0.1,0.2,0.1,0.3,0.1c0.1,0,0.2,0,0.3-0.1l0.9-0.9c0.1-0.1,0.1-0.2,0.1-0.3c0-0.1,0-0.2-0.1-0.3l-0.3-0.3
		c-0.3-0.3-0.6-0.6-0.9-0.9c-0.2-0.1-0.2-0.2,0-0.4c0.7-0.9,1.6-1.4,2.8-1.6c0.2,0,0.4,0,0.6,0c1.5,0,2.9,0.8,3.6,2
		c0.9,1.5,0.8,3.5-0.2,4.8c-0.5,0.6-1,1.1-1.7,1.4l0-1.4c0-1.6,0-3.2,0-4.8c0-0.2,0-0.4-0.1-0.5c-0.4-0.3-0.7-0.6-1.1-1l-0.3-0.2
		c-0.1-0.1-0.2-0.1-0.2-0.1c-0.1,0-0.2,0-0.3,0.1l-0.9,1c-0.1,0.1-0.1,0.2-0.1,0.3c0,0.1,0.1,0.2,0.1,0.3l0.1,0.1
		c0.1,0.1,0.3,0.2,0.4,0.3c0.1,0.1,0.3,0.3,0.3,0.5c0,2.4,0,4.9,0,7.2l0,1.3c0,0.5-0.2,1-0.6,1.4c-3.5,3.5-7,7-10.5,10.5l-5.6,5.6
		c-0.4,0.4-0.8,0.6-1.3,0.6c-0.4,0-0.8-0.2-1.3-0.6c-0.5-0.5-1-1-1.4-1.4L2.4,23.3c-0.4-0.4-0.5-0.7-0.5-1.2c0-0.5,0.4-0.9,0.7-1.2
		l1.7-1.7c4.7-4.7,9.4-9.4,14.1-14.1c0.4-0.4,0.7-0.5,1.2-0.5h0c1.4,0,2.8,0,4.2,0c1.3,0,2.6,0,3.9,0l0.1,0c0.6,0,1.1,0.1,1.4,0.5
		l0.1,0.1l0.1,0c0,0,0.1,0,0.1,0c0.1,0,0.2-0.1,0.3-0.1l0.8-1c0.1-0.2,0.1-0.4,0-0.5l-0.2-0.2c-0.3-0.2-0.5-0.5-0.8-0.7
		c-0.1-0.1-0.4-0.1-0.5-0.1l-4.4,0c-1.8,0-3.5,0-5.3,0c-0.9,0-1.7,0.3-2.3,0.9l-6.4,6.4c-3.2,3.2-6.5,6.4-9.7,9.7
		C0.4,20.2,0,21.2,0,22.2c0,1,0.4,1.9,1.1,2.7c3.8,3.8,7.7,7.7,11.5,11.5c0.7,0.7,1.7,1.1,2.7,1.1c0,0,0,0,0,0c1,0,2-0.4,2.7-1.1
		l6.9-6.9c3.1-3.1,6.1-6.1,9.2-9.2c0.6-0.5,0.9-1.2,1-1.8c0.1-0.6,0.1-1.2,0.2-1.7c0-0.2,0-0.3,0.2-0.3
		C38.4,15.6,40.4,12.4,39.9,9.6z"/>
	
		<rect x="11.4" y="18.3" transform="matrix(0.4957 -0.8685 0.8685 0.4957 -7.5125 25.6892)" class="st0" width="13.9" height="2.1"/>
	<path class="st0" d="M22.1,25.4C22.1,25.4,22.1,25.4,22.1,25.4c0.1,0,0.2,0,0.3,0c1.9,0,3.2-1.2,3.2-2.8c0-2.1-1-3.3-3-3.5
		c-0.1,0-0.1,0-0.2,0c-0.9,0-1.7,0.3-2.2,0.9c-0.6,0.6-0.9,1.4-0.9,2.3C19.3,24,20.6,25.4,22.1,25.4z M21.4,21.8
		c0-0.5,0.2-0.6,0.7-0.6c0,0,0.1,0,0.1,0l0.6,0c0.6,0,0.8,0.2,0.8,0.8l0,0.2c0,0.2,0,0.4,0,0.6c0,0.4-0.2,0.6-0.6,0.6
		c-0.2,0-0.3,0-0.5,0c-0.2,0-0.4,0-0.6,0c-0.3,0-0.4-0.2-0.5-0.5C21.4,22.4,21.4,22.1,21.4,21.8z"/>
	<path class="st0" d="M16.8,18.4c0.6-0.6,0.9-1.5,0.8-2.4c-0.1-1.8-1.3-2.9-3.3-3l-0.1,0c-0.8,0-1.6,0.4-2.2,1
		c-0.5,0.6-0.8,1.4-0.7,2.1c0,1.8,1.1,3.1,2.9,3.2c0.1,0,0.2,0,0.2,0C15.4,19.4,16.2,19.1,16.8,18.4z M13.9,17.3
		c-0.4,0-0.6-0.2-0.6-0.6c0-0.3,0-0.7,0-1.2c0-0.3,0.2-0.4,0.4-0.4c0.2,0,0.5,0,0.7,0c0.1,0,0.2,0,0.4,0c0.4,0,0.6,0.2,0.6,0.6
		c0,0.1,0,0.2,0,0.3l0,0.4c0,0.6-0.2,0.8-0.8,0.8l-0.4,0C14.2,17.3,14.1,17.3,13.9,17.3z"/>
</g>
</svg>
