<?xml version="1.0" encoding="utf-8"?>
<!-- Generator: Adobe Illustrator 23.0.1, SVG Export Plug-In . SVG Version: 6.00 Build 0)  -->
<svg version="1.1" id="Layer_1" xmlns="http://www.w3.org/2000/svg" xmlns:xlink="http://www.w3.org/1999/xlink" x="0px" y="0px"
	 viewBox="0 0 40 40" style="enable-background:new 0 0 40 40;" xml:space="preserve">
<style type="text/css">
	.st0{fill:#FFFFFF;}
</style>
<g>
	<path class="st0" d="M39.2,35.2l-5-5l-0.5,0.5l-1-1c0.7-1.2,1.1-2.5,1.1-3.9c0-1.3-0.3-2.6-0.9-3.7c0.5-1.6,0.7-3.2,0.7-4.9
		c0-9.3-7.5-16.8-16.8-16.8C7.5,0.3,0,7.9,0,17.1c0,9.3,7.5,16.8,16.8,16.8c1.8,0,3.6-0.3,5.3-0.9l0.8-0.2c1,0.4,2.1,0.7,3.1,0.7
		c1.4,0,2.7-0.4,3.9-1.1l1,1l-0.5,0.5l5,5c0.5,0.5,1.2,0.8,1.9,0.8c0.7,0,1.4-0.3,1.9-0.8C40.3,37.9,40.3,36.2,39.2,35.2z
		 M36.5,37.9l-4-4l1.7-1.7l4,4c0.2,0.2,0.4,0.5,0.4,0.9c0,0.3-0.1,0.6-0.4,0.9c-0.2,0.2-0.5,0.4-0.9,0.4
		C37,38.3,36.7,38.1,36.5,37.9z M29.5,31c-1,0.7-2.2,1-3.5,1c-1.7,0-3.3-0.7-4.5-1.9c-1.2-1.2-1.9-2.8-1.9-4.5
		c0-1.7,0.7-3.3,1.9-4.5c1.2-1.2,2.8-1.9,4.5-1.9c1.7,0,3.3,0.7,4.5,1.9c1.2,1.2,1.9,2.8,1.9,4.5c0,1.2-0.4,2.4-1,3.5l-0.1,0.1
		c-0.1,0.2-0.2,0.3-0.4,0.5c-0.1,0.1-0.2,0.3-0.4,0.4c-0.1,0.1-0.3,0.3-0.4,0.4c-0.1,0.1-0.3,0.2-0.5,0.4L29.5,31z M21.2,31.8
		c0,0-0.4,0.1-0.5,0.1c0.1-0.1,0.2-0.2,0.3-0.3C21.1,31.7,21.2,31.8,21.2,31.8z M31.5,31.2c0.1-0.1,0.3-0.3,0.4-0.4l0.8,0.8
		l-0.8,0.8l-0.8-0.8C31.2,31.4,31.4,31.3,31.5,31.2z M20,30.7c-0.6,0.7-1.4,1.5-2.5,1.7v-7.2c0.2,0,0.5,0,0.7,0.1l0,0.1
		c0,0.1,0,0.2,0,0.3C18.2,27.5,18.8,29.2,20,30.7z M23.8,18.2c-1.2,0.4-2.4,1-3.3,1.9c-1,1-1.7,2.3-2.1,3.7c-0.3,0-0.6-0.1-0.9-0.1
		v-6h6.3C23.8,18,23.8,18.1,23.8,18.2z M23.7,7.4c-0.8-2.1-1.8-3.9-2.9-5.1c2.2,0.6,4.2,1.7,5.9,3.1C25.8,6.2,24.7,6.8,23.7,7.4z
		 M17.5,16.4v-6c1.8-0.1,3.6-0.4,5.3-1.1c0.6,2.2,0.9,4.6,1,7.1H17.5z M31.8,20.5c-0.1-0.1-0.2-0.2-0.3-0.3
		c-1.5-1.5-3.4-2.3-5.5-2.3c-0.3,0-0.6,0-0.8,0c0,0,0-0.1,0-0.1h6.9C32.1,18.7,32,19.6,31.8,20.5z M25.2,16.4
		c-0.1-2.8-0.4-5.3-1.1-7.7c1.3-0.6,2.5-1.4,3.6-2.4c2.7,2.7,4.2,6.3,4.4,10.1H25.2z M17.5,9V1.8c1.9,0.4,3.7,2.7,4.9,6.1
		C20.8,8.6,19.2,8.9,17.5,9z M9.9,26.8c0.7,2.1,1.7,3.9,2.9,5.1c-2.2-0.6-4.2-1.7-5.9-3.1C7.8,28,8.8,27.4,9.9,26.8z M16.1,17.8v6
		c-1.8,0.1-3.6,0.4-5.3,1.1c-0.6-2.2-0.9-4.6-1-7.1H16.1z M8.5,12c0-0.5,0.4-1,1-1s1,0.4,1,1c0,0.5-0.4,1-1,1S8.5,12.5,8.5,12z
		 M9.9,14.3c1.1-0.2,2-1.2,2-2.4c0-0.9-0.5-1.7-1.2-2.1c0-0.2,0.1-0.4,0.2-0.6c1.7,0.6,3.5,1,5.3,1.1v6H9.8
		C9.8,15.7,9.8,15,9.9,14.3z M6.9,5.4c1.7-1.5,3.8-2.5,5.9-3.1c-1.2,1.2-2.2,3-2.9,5.1C8.8,6.8,7.8,6.2,6.9,5.4z M9.2,9.6
		C8,9.7,7.1,10.7,7.1,12c0,1,0.6,1.8,1.4,2.2c-0.1,0.7-0.1,1.5-0.1,2.2h-7C1.6,12.6,3.2,9,5.8,6.3c1.1,1,2.3,1.8,3.6,2.4
		C9.4,9,9.3,9.3,9.2,9.6z M8.4,17.8c0.1,2.8,0.4,5.3,1.1,7.7c-1.3,0.6-2.5,1.4-3.6,2.4c-2.7-2.7-4.2-6.3-4.4-10.1H8.4z M16.1,25.2
		v7.2c-1.9-0.4-3.7-2.7-4.9-6.1C12.7,25.7,14.3,25.3,16.1,25.2z M11.2,8c1.2-3.5,3-5.7,4.9-6.1V9C14.4,8.9,12.7,8.6,11.2,8z"/>
	<path class="st0" d="M26.1,20.8c-1.4,0-2.8,0.6-3.8,1.6l0,0l1,1l0,0c0.7-0.7,1.7-1.2,2.8-1.2s2,0.4,2.8,1.2l0,0l1-1l0,0
		C28.9,21.4,27.6,20.8,26.1,20.8z"/>
</g>
</svg>
