<?xml version="1.0" encoding="utf-8"?>
<!-- Generator: Adobe Illustrator 23.0.1, SVG Export Plug-In . SVG Version: 6.00 Build 0)  -->
<svg version="1.1" id="Layer_1" xmlns="http://www.w3.org/2000/svg" xmlns:xlink="http://www.w3.org/1999/xlink" x="0px" y="0px"
	 viewBox="0 0 40 40" style="enable-background:new 0 0 40 40;" xml:space="preserve">
<style type="text/css">
	.st0{fill:#FFFFFF;}
</style>
<g>
	<path class="st0" d="M24.6,37.8c-6.1,0-12.3,0-18.4,0c-1,0-1.3-0.3-1.3-1.3c0-11,0-21.9,0-32.9c0-1,0.3-1.3,1.3-1.3
		c6.3,0,12.6,0,18.9,0c0.2,0,0.3,0,0.5,0c0,1.8,0,3.6,0,5.3C25.6,9.7,27,11,29,11c1.7,0,3.4,0,5.2,0c0,0.2,0,0.4,0,0.6
		c0,1.3,0,2.7,0,4c0,0.2,0,0.4,0.1,0.6c0.1,0.5,0.6,0.9,1.1,0.8c0.5,0,1-0.4,1-1c0-0.2,0-0.3,0-0.5c0-1.7-0.1-3.4,0-5.1
		c0-0.8-0.2-1.4-0.8-1.9c-2.7-2.7-5.3-5.4-8-8.1C27.4,0.2,27,0,26.5,0C19.7,0,12.9,0,6.2,0C4.1,0,2.7,1.5,2.7,3.5c0,11,0,22,0,33.1
		C2.7,38.7,4,40,6.1,40c6.1,0,12.3,0,18.4,0c0.1,0,0.3,0,0.4,0c0.6-0.1,1-0.5,1-1.1C25.9,38.2,25.5,37.8,24.6,37.8z M27.9,4.1
		c1.6,1.5,3.2,3,4.9,4.6c-1.4,0-2.7,0-4,0c-0.5,0-0.8-0.4-0.8-0.9C27.9,6.6,27.9,5.3,27.9,4.1z"/>
	<path class="st0" d="M36.9,36.3c-0.8-1-1.7-2-2.5-3c-0.4-0.5-0.8-0.9-1.1-1.4c3.6-4.4,2.9-10.4-0.9-13.9c-3.7-3.3-9.3-3.5-13.1-0.4
		c-4,3.3-4.9,8.9-2.2,13.2c2.6,4.1,8.5,6.4,14,3.1c0.1,0.2,0.3,0.3,0.4,0.4c1.1,1.3,2.1,2.5,3.2,3.8c0.6,0.7,1.5,0.8,2.2,0.2
		C37.5,37.9,37.5,37.1,36.9,36.3z M25.7,33.3c-4.4,0-7.9-3.5-7.8-7.9c0-4.3,3.5-7.8,7.8-7.8c4.3,0,7.8,3.5,7.8,7.9
		C33.5,29.8,29.9,33.3,25.7,33.3z"/>
	<path class="st0" d="M21.8,9.6c-0.1-0.6-0.5-0.9-1.2-0.9c-1.9,0-3.9,0-5.8,0c-1.7,0-3.4,0-5.2,0c-0.7,0-1.2,0.5-1.2,1.2
		c0.1,0.6,0.5,1,1.2,1c1.8,0,3.6,0,5.5,0c0,0,0,0,0,0c1.8,0,3.6,0,5.5,0C21.5,10.9,21.9,10.4,21.8,9.6z"/>
	<path class="st0" d="M13.7,14.1c-1.3,0-2.6,0-3.9,0c-0.8,0-1.2,0.4-1.2,1.1c0,0.7,0.5,1.1,1.2,1.1c2.6,0,5.2,0,7.8,0
		c0.8,0,1.2-0.5,1.2-1.1c0-0.7-0.5-1.1-1.2-1.1C16.3,14.1,15,14.1,13.7,14.1z"/>
</g>
</svg>
