<?xml version="1.0" encoding="utf-8"?>
<!-- Generator: Adobe Illustrator 23.0.1, SVG Export Plug-In . SVG Version: 6.00 Build 0)  -->
<svg version="1.1" id="Layer_1" xmlns="http://www.w3.org/2000/svg" xmlns:xlink="http://www.w3.org/1999/xlink" x="0px" y="0px"
	 viewBox="0 0 40 40" style="enable-background:new 0 0 40 40;" xml:space="preserve">
<style type="text/css">
	.st0{fill:#FFFFFF;}
</style>
<g>
	<path class="st0" d="M38.5,32.5c-4.6-4.5-7.4-7.1-11-10.6c-0.4-0.4-0.4-0.5-0.3-1c1.3-4.7-1.2-9.5-5.8-11c-1.6-0.5-4.1-1-6.7,0.9
		l-0.9,0.7l0.8,0.9c0.5,0.6,1.1,1.1,1.6,1.5c0.4,0.3,0.7,0.6,1,0.9c0.3,0.3,0.6,0.6,0.9,0.8c0.4,0.4,0.8,0.7,0.9,0.9
		c-0.2,0.2-0.6,0.6-1,1c-0.3,0.3-0.6,0.6-0.9,0.9c-0.2,0.2-0.3,0.3-0.4,0.3c0,0-0.2-0.1-0.4-0.3c-0.9-0.9-1.8-1.9-2.7-2.8
		c-0.4-0.4-0.9-0.9-1.4-1.4l-0.9-1l-0.7,1.1c-0.6,0.9-0.7,1.5-0.8,2c-0.7,3.1,0.2,6.3,2.5,8.5c2.3,2.2,5.6,3,8.8,2.1
		c0.4-0.1,0.5-0.1,0.8,0.2c4.5,4.7,7,7.4,10.4,10.8c0.4,0.4,1.3,1.3,2.5,1.6c0.4,0.1,0.8,0.2,1.2,0.2c1.5,0,2.8-0.8,3.6-2.2
		C40.4,36.1,40.1,34,38.5,32.5z M37.6,36.8c-0.5,0.9-1.4,1.3-2.3,1c-0.5-0.2-1.1-0.5-1.6-1.1c-3.3-3.4-5.9-6.1-10.3-10.8
		c-0.6-0.6-1.2-0.9-1.9-0.9c-0.3,0-0.6,0-0.9,0.1c-2.5,0.7-5,0.1-6.8-1.6c-1.8-1.7-2.5-4.1-1.9-6.5c0,0,0,0,0,0
		c0.1,0.1,0.2,0.2,0.2,0.2c0.9,1,1.8,1.9,2.7,2.8c0.6,0.7,1.2,1,1.9,1c0.7,0,1.3-0.3,1.9-1c0.3-0.3,0.6-0.6,0.9-0.9
		c1.1-1.1,1.7-1.7,1.7-2.6c0-0.9-0.6-1.5-1.6-2.4c-0.2-0.2-0.5-0.5-0.8-0.8c-0.4-0.4-0.8-0.7-1.1-1c-0.2-0.1-0.3-0.3-0.5-0.4
		c1.1-0.5,2.3-0.5,3.7,0c3.5,1.2,5.5,4.9,4.4,8.4c-0.4,1.5,0.2,2.4,0.9,3.1c3.6,3.4,6.4,6.1,11,10.5C37.9,34.8,38.1,35.9,37.6,36.8z
		"/>
	<path class="st0" d="M21.2,31.1l-0.7,0.1V32l-0.3,3.4h-3.1l-0.3-3.3v-0.8L16,31.1c-1.6-0.3-3-1-4.4-1.8L11,28.8l-0.6,0.6l-2.6,2.1
		l-2.2-2.2l2.1-2.6l0.6-0.6L8,25.6c-0.9-1.3-1.5-2.8-1.8-4.4L6,20.5H5.2l-3.3-0.3v-3.1l3.3-0.3H6L6.1,16c0.3-1.6,0.9-3.1,1.8-4.5
		l0.4-0.6l-0.5-0.5L5.7,7.8l2.2-2.2l3.1,2.6l0.6-0.4c1.4-0.9,2.9-1.6,4.5-1.9l0.7-0.1l0.4-3.9h3.1l0.4,3.9l0.7,0.1
		c1.7,0.3,3.2,1,4.7,1.9l0.6,0.4l3-2.5l2.2,2.2l-2.5,3l0.4,0.6c0.9,1.4,1.6,3,1.9,4.7l0.1,0.7l3.9,0.4v3.1l-3.9,0.4l-0.1,0.7
		c0,0.2-0.1,0.3-0.1,0.5l1.5,1.5c0.1-0.3,0.2-0.6,0.3-0.9l2.9-0.3c0.8-0.1,1.4-0.7,1.4-1.5v-3.6c0-0.8-0.6-1.4-1.4-1.5L33,15
		c-0.3-1.4-0.9-2.8-1.7-4.1l1.8-2.2c0.5-0.6,0.5-1.5-0.1-2l-2.6-2.6c-0.6-0.6-1.4-0.6-2-0.1l-2.2,1.8c-1.3-0.8-2.6-1.3-4.1-1.7
		l-0.3-2.8C21.9,0.6,21.2,0,20.4,0h-3.6c-0.8,0-1.4,0.6-1.5,1.4L15,4.3c-1.4,0.4-2.7,0.9-4,1.7L8.8,4.1c-0.6-0.5-1.5-0.5-2,0.1
		L4.2,6.7c-0.6,0.6-0.6,1.4-0.1,2L6,11.1c-0.7,1.2-1.2,2.5-1.6,3.9l-3.1,0.3C0.6,15.4,0,16,0,16.8v3.6c0,0.8,0.6,1.4,1.4,1.5
		l3.2,0.3c0.3,1.3,0.9,2.6,1.6,3.7l-2,2.5c-0.5,0.6-0.5,1.5,0.1,2l2.6,2.6c0.6,0.6,1.4,0.6,2,0.1l2.5-2c1.2,0.7,2.4,1.2,3.8,1.6
		l0.3,3.2c0.1,0.8,0.7,1.4,1.5,1.4h3.6c0.8,0,1.4-0.6,1.5-1.4l0.3-3.1c0.3-0.1,0.7-0.2,1-0.3L21.7,31C21.6,31.1,21.4,31.1,21.2,31.1
		z"/>
</g>
</svg>
