<?xml version="1.0" encoding="utf-8"?>
<!-- Generator: Adobe Illustrator 23.0.1, SVG Export Plug-In . SVG Version: 6.00 Build 0)  -->
<svg version="1.1" id="Layer_1" xmlns="http://www.w3.org/2000/svg" xmlns:xlink="http://www.w3.org/1999/xlink" x="0px" y="0px"
	 viewBox="0 0 40 40" style="enable-background:new 0 0 40 40;" xml:space="preserve">
<style type="text/css">
	.st0{fill:#FFFFFF;}
</style>
<g>
	<path class="st0" d="M38.8,13.2c-0.2-0.7-1-1.1-1.7-0.9c-0.7,0.2-1.1,1-0.9,1.7c0.5,1.6,1,4,1,6c0,9.6-7.8,17.3-17.3,17.3
		S2.7,29.6,2.7,20S10.4,2.7,20,2.7c2.3,0,4.6,0.5,6.7,1.4c0.2,0.1,0.4,0.2,0.6,0.3c0.7,0.3,1.5,0,1.8-0.6c0.3-0.7,0-1.5-0.6-1.8
		c-0.2-0.1-0.5-0.2-0.7-0.3C25.3,0.5,22.7,0,20,0C14.7,0,9.6,2.1,5.9,5.9S0,14.7,0,20s2.1,10.4,5.9,14.1S14.7,40,20,40
		s10.4-2.1,14.1-5.9C37.9,30.4,40,25.3,40,20C40,17.6,39.4,14.8,38.8,13.2z"/>
	<polygon class="st0" points="34,7 27.8,8.3 28.9,9.4 20.2,18.6 12.7,11 8.4,28.8 12.4,28.8 14.8,18.9 20.2,24.8 31.7,12.2 
		32.9,13.3 	"/>
	<polygon class="st0" points="26,21.4 27.7,28.7 31.8,28.7 29.1,18.1 	"/>
	<polygon class="st0" points="35.6,36.9 36.2,36.9 36.2,38.7 36.7,38.7 36.7,36.9 37.3,36.9 37.3,36.5 35.6,36.5 	"/>
	<polygon class="st0" points="38.9,38 38.5,36.5 37.9,36.5 37.9,38.7 38.3,38.7 38.3,37 38.7,38.7 39.1,38.7 39.5,37 39.5,38.7 
		39.9,38.7 39.9,36.5 39.3,36.5 	"/>
</g>
</svg>
