<?xml version="1.0" encoding="utf-8"?>
<!-- Generator: Adobe Illustrator 23.0.1, SVG Export Plug-In . SVG Version: 6.00 Build 0)  -->
<svg version="1.1" id="Layer_1" xmlns="http://www.w3.org/2000/svg" xmlns:xlink="http://www.w3.org/1999/xlink" x="0px" y="0px"
	 viewBox="0 0 40 40" style="enable-background:new 0 0 40 40;" xml:space="preserve">
<style type="text/css">
	.st0{fill:#FFFFFF;}
</style>
<g>
	<path class="st0" d="M25.4,28.5h-5.8v-5.4c0-0.2-0.2-0.4-0.4-0.4c-0.1,0-0.2,0-0.4,0c-2.5,0-4.9,1.6-6,4c-1.1,2.5-0.5,5.5,1.5,7.3
		c1.3,1.2,2.9,1.9,4.5,1.9c0,0,0,0,0,0c1.1,0,2.1-0.3,3.1-0.8c2.7-1.5,3.7-4.4,3.4-6.4L25.4,28.5z M19,34.4L19,34.4
		c-1.4,0-2.6-0.5-3.6-1.4c-1-0.9-1.5-2.1-1.6-3.3c-0.2-2.9,1.6-5.1,4.4-5.5v5.5c0,0.2,0.1,0.3,0.3,0.3H24
		C23.7,32.7,21.3,34.4,19,34.4z"/>
	<path class="st0" d="M21.1,20.4c-0.2,0-0.3,0-0.5,0c-0.1,0-0.3,0.1-0.3,0.3v6.7c0,0.2,0.1,0.3,0.3,0.3h6.7c0.1,0,0.3-0.1,0.3-0.3
		c0.1-1.7-0.5-3.5-1.7-4.9C24.7,21.2,22.9,20.4,21.1,20.4z M21.8,26.3V22c0.9,0.1,2,0.5,2.8,1.2c0.9,0.8,1.5,1.9,1.6,3.1H21.8z"/>
	<path class="st0" d="M35.2,11.1c0-0.5-0.2-1-0.6-1.4c-3.1-3.1-6.2-6.1-9.2-9.2c-0.2-0.2-0.5-0.4-0.7-0.5C19.3,0,13.8,0,8.4,0
		C8.2,0.1,8,0.1,7.7,0.2C5.9,0.8,4.8,2.4,4.8,4.4c0,3.8,0,7.6,0,11.4c0,6.6,0,13.1,0,19.7c0,2,0,4.2,3.7,4.5c7.7,0,15.4,0,23.1,0
		c0,0,0,0,0.1,0c2-0.3,3.6-2.1,3.6-4.6C35.2,27.3,35.2,19.2,35.2,11.1z M25.5,3.8c0-0.1,0-0.2,0-0.2c2.1,2.1,4.1,4.1,6.2,6.2
		c-0.1,0-0.2,0-0.2,0c-1.2,0-2.4,0-3.6,0c-1.4,0-2.3-0.9-2.3-2.4C25.5,6.1,25.5,4.9,25.5,3.8z M33.2,12.1c0,7.8,0,15.6,0,23.4
		c0,1.6-0.9,2.5-2.5,2.5c-7.2,0-14.3,0-21.5,0c-1.6,0-2.5-0.9-2.5-2.5c0-10.3,0-20.7,0-31C6.8,2.9,7.7,2,9.3,2c4.6,0,9.2,0,13.8,0
		c0.1,0,0.3,0,0.4,0c0,0.2,0,0.3,0,0.5c0,1.6,0,3.2,0,4.7c0,0.3,0,0.7,0.1,1c0.4,2,2.1,3.5,4.2,3.5c1.8,0,3.6,0,5.5,0
		C33.2,11.9,33.2,12,33.2,12.1z"/>
	<path class="st0" d="M28.9,15.8c-3,0-6,0-8.9,0c-3,0-6,0-9,0c-0.4,0-0.7,0.1-1,0.4c-0.5,0.6-0.2,1.4,0.5,1.6c0.2,0,0.3,0,0.5,0
		c6,0,12,0,18,0c0.4,0,0.7-0.1,1-0.4c0.3-0.3,0.3-0.6,0.2-1c-0.1-0.4-0.4-0.6-0.8-0.7C29.2,15.8,29.1,15.8,28.9,15.8z"/>
	<path class="st0" d="M10.3,12.7c0.2,0.1,0.4,0.1,0.6,0.1c3.3,0,6.6,0,9.9,0c0.6,0,1-0.3,1.1-0.8c0.1-0.4-0.1-0.9-0.6-1.1
		c-0.2-0.1-0.4-0.1-0.6-0.1c-1.6,0-3.3,0-4.9,0c-1.7,0-3.4,0-5,0c-0.5,0-0.9,0.3-1,0.8C9.7,12.1,9.9,12.5,10.3,12.7z"/>
	<path class="st0" d="M10.3,7.8c0.2,0.1,0.4,0.1,0.6,0.1c1.7,0,3.3,0,5,0c1.7,0,3.4,0,5,0c0.5,0,0.9-0.3,1-0.8
		C22,6.7,21.8,6.2,21.3,6c-0.2-0.1-0.4-0.1-0.5-0.1c-3.3,0-6.6,0-10,0c-0.6,0-1,0.3-1.1,0.8C9.7,7.1,9.9,7.6,10.3,7.8z"/>
</g>
</svg>
