<?xml version="1.0" encoding="utf-8"?>
<!-- Generator: Adobe Illustrator 23.0.1, SVG Export Plug-In . SVG Version: 6.00 Build 0)  -->
<svg version="1.1" id="Layer_1" xmlns="http://www.w3.org/2000/svg" xmlns:xlink="http://www.w3.org/1999/xlink" x="0px" y="0px"
	 viewBox="0 0 40 40" style="enable-background:new 0 0 40 40;" xml:space="preserve">
<style type="text/css">
	.st0{fill:#FFFFFF;}
</style>
<g>
	<path class="st0" d="M39.7,22.7c-0.5-0.8-2-1.8-4.7-0.5c0-0.5-0.2-0.8-0.4-1c-0.9-1-2.7-0.8-4.1,0c0-0.3-0.1-0.6-0.3-0.9
		c-1.1-1.4-3.8-0.3-5.9,1.1l-4.4,2.6c-0.5-0.1-1-0.3-1.5-0.5c-0.7-0.3-1.6-1-2.1-1.5l-0.1-0.1c-0.6-0.6-1.1-1.1-2-1.5
		c-0.3-0.2-3-1.4-6.6,0.1l-7.2,3.3C0,24-0.1,24.3,0.1,24.7C0.2,25,0.6,25.1,0.9,25l7.2-3.3c1.4-0.6,2.7-0.7,4-0.6
		c1,0.1,1.6,0.4,1.6,0.4l0,0c0.7,0.3,1,0.7,1.6,1.2l0.1,0.1c0.6,0.6,1.6,1.4,2.5,1.8c1.8,0.8,3.5,0.9,5.2,1c0.8,0,1.6,0.2,2.2,0.5
		c1.4,0.6,1.9,1.2,1.9,1.6c-0.1,0.3-0.7,0.8-2,0.9c-3.8,0.4-7.2,0.2-11-0.8c-0.3-0.1-0.7,0.1-0.7,0.5c-0.1,0.3,0.1,0.7,0.5,0.7
		c2.7,0.7,5.2,1,7.9,1c1.2,0,2.3-0.1,3.5-0.2c1.8-0.2,3-0.9,3.1-1.9l5.4-3.5c0,0,0,0,0,0l1.7-1.1c1.9-1,2.9-0.4,3.1,0
		c0.5,0.9-0.4,1.9-0.9,2.2l-0.4,0.2c-1.1,0.7-4.1,2.7-4.9,3.2c-3.9,2.7-7.2,4.7-10.2,6.5c-0.9,0.5-2.2,0.6-3.1,0.1L10.4,31
		c-0.9-0.5-2-0.4-2.8,0.2l-3.3,2.3c-0.3,0.2-0.4,0.6-0.2,0.9c0.2,0.3,0.6,0.4,0.9,0.2l3.3-2.3c0.5-0.3,1-0.3,1.5-0.1l8.7,4.6
		c0.6,0.3,1.3,0.5,2,0.5c0.8,0,1.6-0.2,2.3-0.6c3.1-1.8,6.3-3.8,10.3-6.5c0.8-0.5,3.9-2.5,4.9-3.2l0.4-0.2
		C39.5,26,40.6,24.3,39.7,22.7z M23.1,24.5c-0.5,0-0.9,0-1.3-0.1l3.1-1.9l0,0c2.7-1.7,4.1-1.6,4.3-1.3c0.1,0.2,0,0.8-0.8,1.6l-3,2.2
		C24.7,24.7,23.9,24.5,23.1,24.5z M33.1,23.5l-5,3.2c-0.3-0.4-0.7-0.8-1.4-1.2l4.1-2.9c1.4-1,2.6-0.9,2.9-0.5
		C33.9,22.3,33.6,22.9,33.1,23.5z"/>
	<path class="st0" d="M20,16.5c3.8,0,6.9-3.1,6.9-6.9c0-3.8-3.1-6.9-6.9-6.9c-3.8,0-6.9,3.1-6.9,6.9C13.1,13.4,16.2,16.5,20,16.5z
		 M20,4.2c3,0,5.4,2.4,5.4,5.4S23,15.1,20,15.1s-5.4-2.4-5.4-5.4S17,4.2,20,4.2z"/>
</g>
</svg>
