<?xml version="1.0" encoding="utf-8"?>
<!-- Generator: Adobe Illustrator 23.0.1, SVG Export Plug-In . SVG Version: 6.00 Build 0)  -->
<svg version="1.1" id="Layer_1" xmlns="http://www.w3.org/2000/svg" xmlns:xlink="http://www.w3.org/1999/xlink" x="0px" y="0px"
	 viewBox="0 0 40 40" style="enable-background:new 0 0 40 40;" xml:space="preserve">
<style type="text/css">
	.st0{fill:#FFFFFF;}
</style>
<g>
	<path class="st0" d="M40,11.3c0-5.5-4.4-9.9-9.9-9.9c-3.3,0-6.3,1.7-8.1,4.2c0,0,0,0-0.1,0c-0.1-0.1-0.3-0.1-0.4-0.2l-0.2-0.1
		l0.1-0.2c0.6-2,0.2-3.5-1.1-4.5C19.6,0.2,18.9,0,18.1,0c-0.7,0-1.5,0.2-2.1,0.7c-1.4,1-1.8,2.5-1.2,4.5L15,5.4c0,0-0.6,0.2-0.7,0.2
		c-3.1,1-5.3,3-6.6,5.8c-0.8,1.9-1.2,3.9-1.6,5.9l0,0.3c-0.1,0.7-0.2,1.4-0.3,2c-0.1,0.8-0.2,1.5-0.4,2.3c-0.4,2.2-1.2,4.8-3.9,6.5
		c0,0,0,0,0,0c-0.1,0.1-0.2,0.3-0.4,0.4c-0.3,0.3-0.5,0.6-0.7,0.9c-0.5,1.1-0.6,2.3-0.4,3.6c0.2,1.1,0.8,1.6,2,1.6
		c2.1,0,4.2,0,6.4,0l4.8,0l0,0.4c0,0.1,0,0.1,0,0.2c0.2,2.1,1.5,3.8,3.5,4.3c0.2,0,0.3,0.1,0.5,0.1c0.1,0,0.1,0,0.2,0.1h1.2
		c0,0,0,0,0,0c0,0,0.1,0,0.2-0.1c2-0.4,3.3-1.6,3.9-3.5c0.1-0.3,0.1-0.5,0.2-0.8c0-0.1,0-0.3,0.1-0.4l0-0.2h11.2
		c1,0,1.6-0.4,1.8-1.4c0.5-2.1-0.2-4.2-1.9-5.5c-0.1-0.1-0.3-0.3-0.4-0.3c-0.9-0.7-1.6-1.6-2.1-2.7c-0.5-1.3-0.9-2.6-1.1-3.8
		C35.8,20.9,40,16.6,40,11.3z M18.1,2.1C18.2,2.1,18.2,2.1,18.1,2.1c0.9,0,1.5,0.7,1.5,1.6c0,0.8-0.7,1.4-1.5,1.4l0,0
		c-0.4,0-0.8-0.2-1.1-0.5c-0.3-0.3-0.4-0.7-0.4-1.1C16.7,2.7,17.3,2.1,18.1,2.1z M20.2,36.9c-0.5,0.6-1.2,0.9-1.9,1
		c-0.1,0-0.1,0-0.2,0c-1.5,0-2.7-1.2-2.7-2.7l0-0.2h5.4l0,0.2C20.9,35.8,20.7,36.4,20.2,36.9z M33,29.7c1.1,0.8,1.2,1.9,1.2,3l0,0.2
		H2.1l0-0.2c0-0.1,0-0.3,0-0.4c0-0.8,0-1.7,0.9-2.3c2.3-1.5,3.8-3.8,4.4-7.2c0.1-0.7,0.3-1.5,0.4-2.3C7.9,19.7,8,19,8.1,18.2
		c0.1-0.3,0.1-0.5,0.2-0.8c0.3-1.5,0.6-3.1,1.1-4.6c1.1-3.2,3.5-5.1,7.1-5.6c0.6-0.1,1.2-0.1,1.7-0.1c0.9,0,1.8,0.1,2.7,0.4
		c-0.5,1.2-0.8,2.5-0.8,3.9c0,4.9,3.6,9.1,8.4,9.8c0.2,1.7,0.7,3.4,1.4,5C30.6,27.6,31.6,28.8,33,29.7z M30.1,19.5
		c-4.5,0-8.2-3.7-8.2-8.2c0-4.5,3.7-8.2,8.2-8.2c4.5,0,8.2,3.7,8.2,8.2C38.3,15.9,34.6,19.5,30.1,19.5z"/>
	<path class="st0" d="M34.9,7.1c-0.1,0-0.2,0-0.3,0l-2.8,0.7c-2.2,0.5-4.3,1.1-6.5,1.6c-0.5,0.1-0.7,0.4-0.9,0.8c0,0.1,0,0.3,0,0.4
		c0.1,0.4,0.4,0.6,0.6,0.7c0.3,0.2,0.6,0.4,0.9,0.5c0.3,0.2,0.5,0.3,0.8,0.5c0.1,0,0.1,0,0.1,0.1c0,0.8,0,1.5,0,2.3
		c0,0.2,0.1,0.4,0.2,0.5c0.1,0.1,0.2,0.1,0.3,0.1c0.2,0,0.3-0.1,0.4-0.2c0.5-0.4,1-0.8,1.5-1.2l0.2-0.1l0.3,0.2
		c0.4,0.2,0.7,0.4,1.1,0.6C30.9,15,31,15,31.2,15c0.3,0,0.6-0.2,0.8-0.5c0.8-1.2,3.6-5.9,3.6-5.9c0.3-0.5,0.2-0.9,0-1.1
		C35.5,7.3,35.2,7.1,34.9,7.1z M31.1,13.6l-1.9-1.1c0.4-0.4,2.2-2.3,2.2-2.3l-3.9,1.2c0,0-0.8-0.5-1.2-0.7l7.8-2L31.1,13.6z"/>
</g>
</svg>
