<?xml version="1.0" encoding="utf-8"?>
<!-- Generator: Adobe Illustrator 23.0.1, SVG Export Plug-In . SVG Version: 6.00 Build 0)  -->
<svg version="1.1" id="Layer_1" xmlns="http://www.w3.org/2000/svg" xmlns:xlink="http://www.w3.org/1999/xlink" x="0px" y="0px"
	 viewBox="0 0 40 40" style="enable-background:new 0 0 40 40;" xml:space="preserve">
<style type="text/css">
	.st0{fill:#FFFFFF;}
</style>
<g>
	<path class="st0" d="M37.9,9.5c-0.1,0-0.1,0-0.2,0c-0.2,0-0.3-0.1-0.4-0.3c-0.2-0.5-0.3-0.9-0.5-1.4c-0.3-0.7-0.3-0.7,0.2-1.2
		c0.7-0.8,0.7-1.7,0-2.5c-0.3-0.3-0.7-0.7-1-1c-0.7-0.7-1.7-0.7-2.4,0c-0.2,0.2-0.4,0.4-0.5,0.6c-0.9-0.4-1.6-0.7-2.4-1
		c0-0.2,0-0.5,0-0.8c0-1-0.7-1.7-1.7-1.7c-0.5,0-1.1,0-1.6,0c-0.9,0.1-1.6,0.7-1.6,1.6c0,0.2,0,0.5,0,0.7c0,0.1-0.1,0.2-0.2,0.3
		c-0.7,0.3-1.4,0.6-2.2,0.9c-0.1-0.1-0.3-0.3-0.4-0.5c-0.8-0.8-1.7-0.8-2.5,0c-0.3,0.3-0.6,0.6-0.9,0.9c-0.8,0.8-0.8,1.8,0,2.6
		c0.1,0.1,0.2,0.2,0.3,0.2C20.1,7,20.1,7.2,20,7.4c-0.2,0.4-0.4,0.9-0.6,1.3c-0.3,0.7-0.3,0.7-1,0.7c-1,0-1.7,0.7-1.8,1.7
		c0,0.5,0,1,0,1.6c0,1,0.7,1.7,1.8,1.7c0.2,0,0.4,0,0.6,0c0.1,0,0.2,0.1,0.2,0.1c0.3,0.7,0.6,1.5,0.9,2.2c-0.2,0.2-0.4,0.4-0.6,0.7
		c-0.5,0.6-0.5,1.5,0,2.1c0.4,0.5,0.9,0.9,1.3,1.3c0.6,0.5,1.5,0.5,2.1,0c0.2-0.2,0.3-0.4,0.5-0.5c0.1-0.1,0.3-0.1,0.4-0.1
		c0.4,0.2,1.6,0.7,1.7,0.8c0.3,0.2,0.4,0.5,0.4,1c0,0.9,0.7,1.5,1.6,1.6c0.6,0,1.1,0,1.7,0c0.8,0,1.4-0.6,1.5-1.3
		c0.1-0.3,0.1-0.5,0-0.8c0-0.3,0.1-0.4,0.4-0.5c0.4-0.1,0.8-0.3,1.2-0.5c0.3-0.1,0.5-0.4,0.7-0.3c0.2,0,0.4,0.3,0.6,0.5
		c0.7,0.7,1.6,0.7,2.4,0c0.4-0.4,0.8-0.7,1.1-1.1c0.7-0.7,0.7-1.7,0-2.4c-0.2-0.2-0.4-0.4-0.6-0.5c0.4-0.9,0.7-1.6,1-2.4
		c0.1,0,0.2,0,0.3,0c1,0.1,1.8-0.3,2.2-1.3c0-0.8,0-1.5,0-2.3C39.7,9.9,39,9.5,37.9,9.5z M38.5,12.6c0,0.2-0.1,0.4-0.4,0.4
		c-0.4,0-0.8,0-1.2,0s-0.7,0.2-0.7,0.6c-0.3,1.1-0.7,2-1.2,3c-0.2,0.3-0.1,0.7,0.1,1c0.3,0.3,0.6,0.6,0.9,0.9c0.2,0.2,0.2,0.4,0,0.5
		c-0.3,0.3-0.6,0.6-0.9,0.9c-0.2,0.2-0.3,0.2-0.5,0c-0.3-0.3-0.6-0.6-0.9-0.9c-0.4-0.3-0.6-0.4-1.1-0.1c-0.9,0.5-1.8,0.9-2.8,1.2
		c-0.5,0.1-0.7,0.3-0.7,0.9c0,0.4,0,0.8,0,1.1c0,0.3-0.1,0.4-0.4,0.4c-0.4,0-0.8,0-1.1,0s-0.4-0.1-0.4-0.4c0-0.3,0-0.7,0-1
		c0-0.6-0.2-0.8-0.8-1c-1-0.2-1.8-0.6-2.7-1.1c-0.5-0.3-0.7-0.2-1.1,0.1c-0.3,0.3-0.5,0.5-0.8,0.8c-0.2,0.2-0.3,0.2-0.5,0
		c-0.3-0.3-0.6-0.6-0.9-0.9c-0.2-0.2-0.2-0.3,0-0.5c0.3-0.2,0.5-0.5,0.8-0.8c0.4-0.4,0.5-0.7,0.1-1.2c-0.5-0.8-0.9-1.7-1.1-2.6
		c0-0.7-0.2-0.9-0.8-0.9c-0.4,0-0.7,0-1.1,0c-0.3,0-0.4-0.1-0.4-0.4c0-0.4,0-0.8,0-1.2c0-0.3,0.1-0.4,0.4-0.4c0.4,0,0.8,0,1.1,0
		c0.5,0,0.8-0.2,0.9-0.7c0.2-1,0.6-1.9,1.1-2.7c0.3-0.5,0.2-0.8-0.1-1.2c-0.3-0.3-0.5-0.5-0.8-0.8c-0.2-0.2-0.2-0.3,0-0.5
		c0.3-0.3,0.6-0.6,0.9-0.9c0.2-0.2,0.3-0.2,0.4,0c0.3,0.3,0.6,0.6,0.9,0.9c0.4,0.3,0.6,0.4,1.1,0.1c0.9-0.5,1.8-0.9,2.8-1.2
		c0.4,0,0.6-0.3,0.7-0.7c0-0.4,0-0.8,0-1.2c0-0.3,0.1-0.4,0.4-0.4c0.4,0,0.8,0,1.1,0s0.4,0.1,0.4,0.4c0,0.4,0,0.7,0,1.1
		c0,0.6,0.2,0.8,0.7,0.9c1,0.2,1.8,0.6,2.7,1.1c0.5,0.3,0.8,0.3,1.2-0.1c0.3-0.3,0.5-0.6,0.8-0.8c0.1-0.1,0.3-0.1,0.3,0
		c0.4,0.3,0.7,0.7,1,1c0,0,0.1,0.1,0.1,0.2c0,0,0,0.1-0.1,0.2c-0.3,0.3-0.5,0.5-0.8,0.8c-0.4,0.4-0.4,0.7-0.1,1.1
		c0.5,0.9,0.9,1.8,1.1,2.8c0.1,0.5,0.4,0.7,0.9,0.7c0.4,0,0.7,0,1.1,0c0.3,0,0.4,0.1,0.4,0.4C38.5,11.8,38.5,12.2,38.5,12.6z"/>
	<path class="st0" d="M29.3,26.8c-0.5-0.2-1.1-0.5-1.6-0.7c-0.5-0.2-0.9-0.1-1.1,0.3c-0.2,0.4,0,0.8,0.5,1c0.5,0.2,1.1,0.4,1.6,0.7
		c0.5,0.2,0.6,0.4,0.4,0.9c-0.2,0.6-0.5,1.2-0.7,1.8c-0.2,0.5-0.4,0.6-0.9,0.4c-0.5-0.2-1.1-0.4-1.6-0.7c-0.5-0.2-0.8-0.1-1.1,0.3
		c-0.8,1.2-1.8,2.2-3,3c-0.4,0.3-0.5,0.6-0.3,1.1c0.2,0.5,0.4,1.1,0.7,1.6c0.2,0.5,0.1,0.7-0.4,0.9c-0.6,0.2-1.1,0.5-1.7,0.7
		c-0.5,0.2-0.7,0.1-0.9-0.4c-0.2-0.5-0.4-1-0.6-1.5s-0.5-0.6-1-0.5c-1.4,0.3-2.8,0.3-4.1,0c-0.5-0.1-0.8,0.1-1,0.6
		c-0.2,0.5-0.4,1.1-0.7,1.6c-0.2,0.5-0.4,0.6-0.9,0.4c-0.8-0.4-1.4-0.6-1.9-0.9c-0.5-0.2-0.6-0.5-0.4-0.9c0.2-0.5,0.4-1.1,0.6-1.6
		c0.2-0.5,0.1-0.8-0.3-1.1c-1.2-0.8-2.2-1.8-3-3c-0.3-0.4-0.6-0.5-1.1-0.3c-0.5,0.2-1,0.4-1.5,0.6s-0.7,0.1-0.9-0.4
		C2.3,30.1,2,29.6,1.8,29c-0.2-0.5-0.1-0.7,0.4-0.9s1.1-0.4,1.6-0.7c0.5-0.2,0.6-0.5,0.5-1C4,25,4,23.6,4.3,22.3
		c0.1-0.6,0-0.8-0.6-1.1c-0.6-0.1-1.1-0.3-1.6-0.5s-0.6-0.5-0.4-0.9c0.2-0.6,0.5-1.2,0.7-1.7c0.2-0.5,0.5-0.6,0.9-0.4
		c0.5,0.2,1,0.4,1.5,0.6s0.8,0.1,1.1-0.3c0.8-1.2,1.8-2.1,3-3c0.5-0.3,0.5-0.6,0.3-1.1c-0.2-0.5-0.4-1-0.6-1.5
		C8.4,12,8.5,11.8,9,11.6c0.6-0.2,1.1-0.5,1.7-0.7c0.5-0.2,0.7-0.1,0.9,0.4c0.2,0.6,0.5,1.1,0.7,1.7c0.2,0.4,0.6,0.6,1,0.4
		s0.5-0.5,0.4-1c-0.3-0.7-0.5-1.3-0.8-1.9c-0.5-1-1.5-1.4-2.5-1c-0.7,0.3-1.5,0.6-2.2,0.9c-1,0.5-1.4,1.5-1.1,2.5
		c0.1,0.4,0.3,0.8,0.5,1.1c0.1,0.2,0,0.3-0.1,0.5c-0.6,0.5-1.2,1-1.7,1.6c-0.3,0.3-0.5,0.8-0.8,0.8c-0.3,0.1-0.7-0.2-1.1-0.4
		C2.6,16,1.6,16.4,1,17.7c-0.3,0.8-0.6,1.5-0.9,2.3c-0.1,0.3-0.1,0.5,0,0.8c0.3,1.1,1.2,1.5,2.2,1.9c0.2,0.1,0.3,0.2,0.3,0.5
		c0,1.1,0,2.1,0,3.2c0,0.2,0,0.4-0.3,0.4c-0.1,0-0.2,0.1-0.3,0.1c-0.9,0.3-1.6,0.8-1.9,1.7c0,0.3,0,0.5,0,0.8c0.4,0.6,0.7,1.3,1,2.1
		c0.5,1.2,1.6,1.7,2.8,1.2c0.4-0.2,0.8-0.3,1.1-0.5c0.4,0.5,0.8,0.9,1.2,1.4c0.4,0.4,0.9,0.8,1.3,1.2c0.1,0.1,0.1,0.3,0.1,0.4
		c-0.1,0.3-0.3,0.7-0.4,1c-0.4,1.2,0,2.2,1.1,2.7c0.6,0.3,1.2,0.5,1.9,0.8c1.2,0.5,2.2,0,2.8-1.2c0.1-0.3,0.3-0.7,0.4-1
		c0-0.1,0.2-0.2,0.3-0.2c1.1,0.1,2.2,0.1,3.3,0c0.1,0,0.3,0.1,0.3,0.2c0.2,0.3,0.3,0.6,0.4,1c0.5,1.2,1.6,1.6,2.8,1.2
		c0.6-0.2,1.2-0.5,1.8-0.8c1.2-0.5,1.6-1.6,1.2-2.8c-0.2-0.4-0.3-0.8-0.5-1.1c0.9-0.9,1.8-1.8,2.7-2.7c0.3,0.1,0.7,0.3,1.1,0.5
		c1.2,0.4,2.2,0,2.7-1.1c0.3-0.6,0.5-1.2,0.8-1.9C30.9,28.4,30.5,27.3,29.3,26.8z"/>
	<path class="st0" d="M8.9,24.6C9,28.2,11.8,31,15.7,31c2.2-0.1,4.2-1.2,5.4-3.5c0.5-0.9,0.8-2,0.7-3c0-0.4-0.3-0.7-0.6-0.8
		c-0.4,0-0.7,0.2-0.8,0.6c0,0.1,0,0.2,0,0.3c-0.1,2.6-2.2,4.7-4.8,4.8c-2.7,0.1-4.8-1.8-5.2-4.5c-0.3-2.4,1.4-4.8,3.8-5.4
		c0.4-0.1,0.8-0.1,1.2-0.2s0.7-0.3,0.7-0.7S15.8,18,15.4,18c-0.2,0-0.4,0-0.6,0C11.6,18.3,8.8,21.1,8.9,24.6z"/>
	<path class="st0" d="M28.2,7.2c-2.6,0-4.8,2.2-4.8,4.8s2.1,4.8,4.8,4.8c2.6,0,4.8-2.1,4.8-4.7C33,9.4,30.8,7.2,28.2,7.2z
		 M31.5,12.1c-0.1,1.8-1.6,3.3-3.3,3.2c-1.8-0.1-3.3-1.6-3.2-3.3c0.1-1.8,1.5-3.3,3.3-3.2C30.1,8.8,31.6,10.3,31.5,12.1z"/>
</g>
</svg>
