<?xml version="1.0" encoding="utf-8"?>
<!-- Generator: Adobe Illustrator 23.0.1, SVG Export Plug-In . SVG Version: 6.00 Build 0)  -->
<svg version="1.1" id="Layer_1" xmlns="http://www.w3.org/2000/svg" xmlns:xlink="http://www.w3.org/1999/xlink" x="0px" y="0px"
	 viewBox="0 0 40 40" style="enable-background:new 0 0 40 40;" xml:space="preserve">
<style type="text/css">
	.st0{fill:#FFFFFF;}
</style>
<g>
	<path class="st0" d="M9.8,15.1H7.3c-0.1,0-0.2,0.1-0.2,0.2v1.2c0,0.1,0.1,0.2,0.2,0.2h2.5c0.1,0,0.2-0.1,0.2-0.2v-1.2
		C10,15.2,9.9,15.1,9.8,15.1z"/>
	<path class="st0" d="M14.8,15.1h-2.5c-0.1,0-0.2,0.1-0.2,0.2v1.2c0,0.1,0.1,0.2,0.2,0.2h2.5c0.1,0,0.2-0.1,0.2-0.2v-1.2
		C15,15.2,14.9,15.1,14.8,15.1z"/>
	<path class="st0" d="M19.8,15.1h-2.5c-0.1,0-0.2,0.1-0.2,0.2v1.2c0,0.1,0.1,0.2,0.2,0.2h2.5c0.1,0,0.2-0.1,0.2-0.2v-1.2
		C20,15.2,19.9,15.1,19.8,15.1z"/>
	<path class="st0" d="M9.8,18H7.3C7.1,18,7,18.1,7,18.2v1.2c0,0.1,0.1,0.2,0.2,0.2h2.5c0.1,0,0.2-0.1,0.2-0.2v-1.2
		C10,18.1,9.9,18,9.8,18z"/>
	<path class="st0" d="M14.8,18h-2.5c-0.1,0-0.2,0.1-0.2,0.2v1.2c0,0.1,0.1,0.2,0.2,0.2h2.5c0.1,0,0.2-0.1,0.2-0.2v-1.2
		C15,18.1,14.9,18,14.8,18z"/>
	<path class="st0" d="M19.8,18h-2.5c-0.1,0-0.2,0.1-0.2,0.2v1.2c0,0.1,0.1,0.2,0.2,0.2h2.5c0.1,0,0.2-0.1,0.2-0.2v-1.2
		C20,18.1,19.9,18,19.8,18z"/>
	<path class="st0" d="M9.8,20.9H7.3C7.1,20.9,7,21,7,21.1v1.2c0,0.1,0.1,0.2,0.2,0.2h2.5c0.1,0,0.2-0.1,0.2-0.2v-1.2
		C10,21,9.9,20.9,9.8,20.9z"/>
	<path class="st0" d="M14.8,20.9h-2.5c-0.1,0-0.2,0.1-0.2,0.2v1.2c0,0.1,0.1,0.2,0.2,0.2h2.5c0.1,0,0.2-0.1,0.2-0.2v-1.2
		C15,21,14.9,20.9,14.8,20.9z"/>
	<path class="st0" d="M19.8,20.9h-2.5c-0.1,0-0.2,0.1-0.2,0.2v1.2c0,0.1,0.1,0.2,0.2,0.2h2.5c0.1,0,0.2-0.1,0.2-0.2v-1.2
		C20,21,19.9,20.9,19.8,20.9z"/>
	<path class="st0" d="M19.8,3.9c-1.9,0-3.8,0-5.7,0c-2.3,0-4.6,0-6.8,0c-1.1,0-1.8,0.7-1.8,1.8c0,1.9,0,3.6,0,5.3
		c0,1.2,0.7,1.8,1.8,1.8c0.8,0,1.6,0,2.4,0l7.3,0c0.9,0,1.8,0,2.8,0c1.1,0,1.8-0.7,1.8-1.8c0-2,0-3.8,0-5.5
		C21.5,4.6,20.9,3.9,19.8,3.9z M20.4,11c0,0.6-0.1,0.7-0.7,0.7c-0.9,0-1.8,0-2.8,0l-3.4,0l-3.5,0c-0.9,0-1.7,0-2.6,0
		c-0.7,0-0.8-0.1-0.8-0.8c0-1.7,0-3.4,0-5.1c0-0.6,0.1-0.8,0.8-0.8l5.1,0c2.4,0,4.8,0,7.1,0c0.6,0,0.7,0.1,0.7,0.7
		C20.4,7.7,20.4,9.4,20.4,11z"/>
	<path class="st0" d="M10.5,7.4c-0.2-0.1-0.4-0.2-0.7-0.2c-0.3,0-0.5,0.1-0.7,0.2C9,7.5,8.9,7.7,8.9,8v0.9c0,0.2,0.1,0.4,0.3,0.6
		c0.2,0.1,0.4,0.2,0.7,0.2c0.3,0,0.5-0.1,0.7-0.2c0.2-0.1,0.3-0.3,0.3-0.6V8C10.8,7.7,10.7,7.5,10.5,7.4z M10.4,8.8
		c0,0.1,0,0.2-0.1,0.3C10.2,9.2,10,9.2,9.9,9.2c-0.2,0-0.3,0-0.4-0.1C9.4,9,9.4,9,9.4,8.8V8c0-0.1,0-0.2,0.1-0.3
		c0.1-0.1,0.2-0.1,0.4-0.1c0.2,0,0.3,0,0.4,0.1c0.1,0.1,0.1,0.2,0.1,0.3V8.8z"/>
	<path class="st0" d="M12.7,7.3c-0.1-0.1-0.2-0.1-0.3-0.1c-0.1,0-0.2,0-0.4,0c-0.3,0-0.5,0.1-0.7,0.2c-0.2,0.1-0.3,0.3-0.3,0.5V8
		c0,0.3,0.2,0.7,0.9,0.7c0.2,0,0.4,0,0.6-0.1v0.2c0,0.1,0,0.2-0.1,0.3c-0.1,0.1-0.2,0.1-0.4,0.1c-0.2,0-0.3,0-0.4-0.1
		c-0.1-0.1-0.1-0.1-0.1-0.2V8.7h-0.4l0,0.2c0,0.2,0.1,0.4,0.3,0.5c0.2,0.1,0.4,0.2,0.7,0.2c0.3,0,0.5-0.1,0.7-0.2
		C12.9,9.3,13,9.1,13,8.9v-1c0-0.1,0-0.2-0.1-0.3C12.9,7.5,12.8,7.4,12.7,7.3z M12.5,8.2c-0.2,0.1-0.4,0.1-0.6,0.1
		c-0.2,0-0.3,0-0.4-0.1c-0.1,0-0.1-0.1-0.1-0.2V8c0-0.2,0.1-0.3,0.5-0.3c0.5,0,0.5,0.2,0.5,0.3V8.2z"/>
	<path class="st0" d="M13.3,8.1c0,0,0.1,0.1,0.2,0.1c0.1,0,0.2,0,0.2-0.1c0,0,0.1-0.1,0.1-0.2c0-0.1,0-0.2-0.1-0.2
		c0,0-0.1-0.1-0.2-0.1c-0.1,0-0.2,0-0.2,0.1c0,0-0.1,0.1-0.1,0.2L13.3,8.1L13.3,8.1z"/>
	<path class="st0" d="M13.5,9.1c-0.1,0-0.2,0-0.2,0.1c0,0-0.1,0.1-0.1,0.2l0,0.1h0c0,0,0,0.1,0,0.1c0,0,0.1,0.1,0.2,0.1
		c0.1,0,0.2,0,0.2-0.1c0,0,0.1-0.1,0.1-0.2c0-0.1,0-0.2-0.1-0.2C13.7,9.1,13.6,9.1,13.5,9.1z"/>
	<path class="st0" d="M15.7,7.4c-0.2-0.1-0.4-0.2-0.7-0.2c-0.3,0-0.5,0.1-0.7,0.2c-0.2,0.1-0.3,0.3-0.3,0.6v0.9
		c0,0.2,0.1,0.4,0.3,0.6c0.2,0.1,0.4,0.2,0.7,0.2c0.3,0,0.5-0.1,0.7-0.2C15.9,9.3,16,9.1,16,8.9V8C16,7.7,15.9,7.5,15.7,7.4z
		 M15.5,8.8c0,0.1,0,0.2-0.1,0.3c-0.1,0.1-0.2,0.1-0.4,0.1c-0.2,0-0.3,0-0.4-0.1C14.5,9,14.5,9,14.5,8.8V8c0-0.1,0-0.2,0.1-0.3
		c0.1-0.1,0.2-0.1,0.4-0.1c0.2,0,0.3,0,0.4,0.1c0.1,0.1,0.1,0.2,0.1,0.3V8.8z"/>
	<path class="st0" d="M17.8,7.4c-0.2-0.1-0.4-0.2-0.7-0.2c-0.3,0-0.5,0.1-0.7,0.2c-0.2,0.1-0.3,0.3-0.3,0.6v0.9
		c0,0.2,0.1,0.4,0.3,0.6c0.2,0.1,0.4,0.2,0.7,0.2c0.3,0,0.5-0.1,0.7-0.2c0.2-0.1,0.3-0.3,0.3-0.6V8C18.1,7.7,18,7.5,17.8,7.4z
		 M17.7,8.8c0,0.1,0,0.2-0.1,0.3c-0.1,0.1-0.2,0.1-0.4,0.1c-0.2,0-0.3,0-0.4-0.1C16.7,9,16.7,9,16.7,8.8V8c0-0.1,0-0.2,0.1-0.3
		c0.1-0.1,0.2-0.1,0.4-0.1c0.2,0,0.3,0,0.4,0.1c0.1,0.1,0.1,0.2,0.1,0.3V8.8z"/>
	<path class="st0" d="M37,36c-0.4-0.5-0.5-0.8-0.3-1.2c0,0,0-0.1,0-0.1l0,0c0-0.5,0-1,0-1.5c0-1.1,0-2.3,0-3.5c0-1.4-1-2.3-2.4-2.3
		c-0.2,0-0.4,0-0.5,0c-0.2,0-0.4,0-0.5,0c-0.2,0-0.4,0-0.5,0c-0.3,0-0.6,0-0.9,0c-0.3,0-0.6-0.1-0.8-0.3c-0.2-0.2-0.3-0.5-0.3-0.8
		l2.5,0c0.5,0,1.1,0,1.6,0c1.6,0,2.6-1,2.6-2.6c0-7.1,0-14.2,0-21c0-1.6-1-2.6-2.6-2.6c-5,0-10,0-15,0C14.9,0,10,0,5.1,0
		C3.5,0,2.5,1,2.5,2.6c0,7.2,0,14.2,0,21c0,1.6,1,2.6,2.6,2.6l21.8,0l0,0.3c0,0.5,0,0.9,0,1.4c0,0,0,0,0,0.1c0,0,0,0,0,0
		c-0.1-0.1-0.2-0.1-0.3-0.2c-0.4-0.3-0.8-0.4-1.3-0.4c-0.5,0-0.9,0.2-1.2,0.6c-0.6,0.7-0.6,1.7,0.2,2.5c0.2,0.2,0.5,0.5,0.7,0.7
		c0.4,0.4,0.8,0.8,1.2,1.3c0.5,0.6,0.8,1.3,0.8,2c0,0.1,0,0.1,0,0.2c0,0.2,0,0.3,0,0.4c0.1,0.3,0,0.4-0.2,0.6
		c-0.7,0.6-0.9,1.9-0.6,3c0.3,0.9,1.1,1.3,2.1,1.3c0.3,0,0.6,0,0.9,0c0.5,0,2.3,0,2.7,0c0.8,0,1.9,0,3,0c0,0,0,0,0,0
		c1.1,0,1.8-0.4,2.1-1.1C37.8,37.4,37.4,36.5,37,36z M5.1,25c-1,0-1.5-0.4-1.5-1.4c0-6.3,0-13.2,0-21.1c0-0.8,0.5-1.3,1.3-1.3
		c0.1,0,0.3,0,0.4,0c0.1,0,0.2,0,0.3,0c0.1,0,0.2,0,0.3,0l28.6,0c1.3,0,1.7,0.4,1.7,1.7l0,3.4c0,5.7,0,11.5,0,17.2
		c0,1.1-0.5,1.5-1.6,1.5l-4,0v-1.3c0,0,0.1,0,0.1,0c0.1,0,0.2-0.1,0.4-0.1c0.8-0.3,1.1-0.8,1.1-1.6l0-0.5c0-0.9,0-1.8,0-2.7
		c0-1.1-0.6-1.6-1.6-1.6c-0.5,0-1,0-1.4,0c-0.7,0-1.3,0-2,0c-1,0-1.5,0.6-1.5,1.5c0,0.5,0,0.9,0,1.4c0,0.7,0,1.3,0,2
		c0,0.7,0.3,1.2,1,1.5c0.4,0.1,0.5,0.3,0.4,0.7c0,0.2,0,0.4,0,0.6c0,0.1,0,0.1,0,0.2L5.1,25z M30.6,21.7c-0.1-1-0.8-1.8-1.8-1.8
		c0,0,0,0-0.1,0c-1,0-1.7,0.8-1.7,1.8c0,0.2,0,0.4,0,0.5c0,0,0,0.1,0,0.1c-0.2,0-0.3-0.3-0.3-0.4c0-0.7,0-1.4,0-2.1
		c0-0.4,0-0.8,0-1.2c0-0.1,0-0.2,0.1-0.3c0.1-0.1,0.2-0.1,0.3-0.1h0c0.4,0,0.7,0,1.1,0c0.9,0,1.6,0,2.4,0c0.1,0,0.2,0,0.3,0.1
		c0.1,0.1,0.1,0.2,0.1,0.4c0,0.3,0,0.6,0,0.9c0,0.8,0,1.5,0,2.3c0,0.2-0.1,0.4-0.4,0.4c0-0.1,0-0.1,0-0.2
		C30.6,22.2,30.6,22,30.6,21.7z M27,31.4c-0.4-0.4-1.5-1.6-1.8-1.9c-0.3-0.3-0.3-0.6-0.1-0.9c0.1-0.1,0.3-0.2,0.4-0.2
		c0.6,0.1,1.1,0.6,1.2,0.7c0.2,0.1,0.4,0.3,0.7,0.3c0.1,0,0.3-0.1,0.4-0.2c0.3-0.2,0.4-0.6,0.4-0.9c0-0.8,0.1-5.7,0.1-6.4
		c0-0.3,0.1-0.8,0.6-0.8l0,0c0.4,0,0.6,0.3,0.6,0.8c0,1.3,0,2.7,0,4c0,1.5,0.9,2.5,2.5,2.5c0.2,0,2.2,0,2.4,0c0.8,0,1.2,0.4,1.2,1.2
		c0,0.9,0,4.2,0,5c0,0.2,0,0.3-0.1,0.4c-0.1,0.1-0.2,0.1-0.4,0.1c-1.9,0-3.9,0-5.8,0h-0.4c-0.2,0-0.3,0-0.4-0.1
		c-0.1-0.1-0.1-0.2-0.1-0.4C28.3,33.4,27.9,32.3,27,31.4z M35.9,38.7c0,0-0.3,0.2-0.6,0.2h-1.6c-1.1,0-2.1,0-3.2,0
		c-0.7,0-1.5,0-2.2,0c-1-0.1-1.1-1-1.1-1.3c0-0.5,0.2-1.2,1.3-1.3h6.8c0.7,0,1.3,0.6,1.3,1.3C36.5,38,36.3,38.4,35.9,38.7z"/>
	<path class="st0" d="M27.9,3.2h1.7c0.3,0,0.5-0.2,0.5-0.5s-0.2-0.5-0.5-0.5h-1.7c-0.3,0-0.5,0.2-0.5,0.5S27.7,3.2,27.9,3.2z"/>
	<path class="st0" d="M29.6,13.7h-1.7c-0.3,0-0.5,0.2-0.5,0.5s0.2,0.5,0.5,0.5h1.7c0.3,0,0.5-0.2,0.5-0.5S29.9,13.7,29.6,13.7z"/>
	<path class="st0" d="M26.2,5.2h5.6c0.3,0,0.5-0.2,0.5-0.5S32,4.2,31.7,4.2h-5.6c-0.3,0-0.5,0.2-0.5,0.5S25.9,5.2,26.2,5.2z"/>
	<path class="st0" d="M31.7,11.6h-5.6c-0.3,0-0.5,0.2-0.5,0.5c0,0.3,0.2,0.5,0.5,0.5h5.6c0.3,0,0.5-0.2,0.5-0.5
		C32.3,11.8,32,11.6,31.7,11.6z"/>
	<path class="st0" d="M24.7,7h8.4c0.3,0,0.5-0.2,0.5-0.5c0-0.3-0.2-0.5-0.5-0.5h-8.4c-0.3,0-0.5,0.2-0.5,0.5C24.2,6.8,24.4,7,24.7,7
		z"/>
	<path class="st0" d="M33.6,10.3c0-0.3-0.2-0.5-0.5-0.5h-8.4c-0.3,0-0.5,0.2-0.5,0.5s0.2,0.5,0.5,0.5h8.4
		C33.4,10.8,33.6,10.6,33.6,10.3z"/>
	<path class="st0" d="M35.4,8.4c0-0.3-0.2-0.5-0.5-0.5H23.1c-0.3,0-0.5,0.2-0.5,0.5c0,0.3,0.2,0.5,0.5,0.5h11.8
		C35.2,8.9,35.4,8.7,35.4,8.4z"/>
</g>
</svg>
