<?xml version="1.0" encoding="utf-8"?>
<!-- Generator: Adobe Illustrator 23.0.1, SVG Export Plug-In . SVG Version: 6.00 Build 0)  -->
<svg version="1.1" id="Layer_1" xmlns="http://www.w3.org/2000/svg" xmlns:xlink="http://www.w3.org/1999/xlink" x="0px" y="0px"
	 viewBox="0 0 40 40" style="enable-background:new 0 0 40 40;" xml:space="preserve">
<style type="text/css">
	.st0{fill:#FFFFFF;}
</style>
<g>
	<path class="st0" d="M32,12.7c0.1-0.1,0.2-0.2,0.3-0.2c0.2,0,0.3,0.1,0.3,0.2c0.1,0.1,0.2,0.3,0.4,0.4c0,0,0.1,0.1,0.1,0.1
		c0.3,0.3,0.6,0.4,0.8,0.4c0.3,0,0.7-0.2,0.9-0.6c1.5-2.4,3-4.9,4.2-7.1c0.2-0.3,0.4-0.7,0.6-1c0.1-0.1,0.2-0.3,0.2-0.4V4.1
		c-0.2-0.3-0.4-0.6-0.6-0.8c-0.9-0.9-1.8-1.7-2.6-2.6c-0.2-0.2-0.5-0.5-0.8-0.7h-0.4l-2.4,1.4c-2,1.2-4.1,2.4-6.1,3.6
		c-0.4,0.2-0.6,0.5-0.7,0.8c0,0.3,0.1,0.6,0.4,1C26.8,6.9,26.9,7,27,7c0.2,0.2,0.5,0.4,0.5,0.7c0,0.3-0.2,0.5-0.5,0.7
		c-0.1,0.1-0.1,0.1-0.2,0.2c-0.7,0.7-1.4,1.4-2.1,2.1c-1.1,1.1-2.3,2.3-3.4,3.4c-0.1,0.1-0.3,0.2-0.4,0.2c-0.2,0-0.3-0.1-0.4-0.2
		c-0.5-0.6-1.1-1.2-1.9-1.9c-0.3-0.3-0.3-0.5-0.3-0.9c0.5-2.4,0.1-4.9-1.2-7c-1.3-2.1-3.4-3.5-5.8-4.1c-0.3-0.1-0.6-0.1-0.9-0.2
		C10.3,0,10.2,0,10,0H8.5C8.2,0.1,8,0.1,7.8,0.1C7.4,0.2,7,0.3,6.7,0.4C6.1,0.6,5.5,0.8,5,1C4.6,1.2,4.4,1.5,4.4,1.8
		c0,0.3,0.1,0.6,0.4,0.9c1.2,1.2,2.3,2.4,3.5,3.5L8.9,7C9.2,7.2,9.5,7.6,9.5,8c0,0.6-0.2,1-0.7,1.3C8.6,9.4,8.3,9.5,8.1,9.5
		c-0.3,0-0.5-0.1-0.8-0.3C7.2,9.1,7,9,6.9,8.9l0,0C6.3,8.2,5.6,7.6,5,7C4.3,6.3,3.6,5.5,2.8,4.8C2.5,4.5,2.2,4.3,1.9,4.3
		C1.5,4.3,1.2,4.8,1,5.1c-0.5,1-0.8,2-0.9,3.1c0,0.1,0,0.2-0.1,0.2c0,0,0,0,0,0V10c0,0.1,0,0.2,0.1,0.3c0.1,0.7,0.3,1.4,0.5,2.1
		c1.3,3.6,4.8,6.1,8.6,6.1c0.2,0,0.5,0,0.7,0l0.1,0c0.4,0,0.9-0.1,1.3-0.2c0.1,0,0.2,0,0.3,0c0.2,0,0.4,0.1,0.6,0.3l0,0
		c0.5,0.5,0.5,0.7-0.1,1.2c-0.9,0.9-1.9,1.9-2.8,2.8C6.9,25,4.4,27.5,2,29.9c-1.2,1.2-1.8,2.3-1.9,3.6c0,0.1,0,0.1-0.1,0.2v1.2
		c0,0.1,0.1,0.3,0.1,0.4c0.1,0.5,0.2,0.9,0.4,1.3c0.9,1.9,2.4,3,4.4,3.3c0.1,0,0.1,0,0.2,0.1c0,0,0,0,0,0h1.2c0.2,0,0.3-0.1,0.5-0.1
		c0.4-0.1,0.8-0.2,1.1-0.3c0.7-0.3,1.4-0.8,2-1.4c1.1-1.1,2.3-2.3,3.4-3.4c2.3-2.3,4.7-4.7,7-7c0.1-0.1,0.3-0.3,0.5-0.3
		c0.2,0,0.4,0.1,0.5,0.3c0.4,0.3,0.5,0.7,0.3,1.2c-0.5,2.5,0,5,1.4,7.1c1.4,2.1,3.6,3.5,6.1,3.9c0.1,0,0.2,0,0.3,0
		c0.2,0,0.4,0,0.6,0.1h1.5c0.2-0.1,0.5-0.1,0.7-0.1c0.4-0.1,0.8-0.1,1.2-0.3c0.6-0.2,1.1-0.4,1.6-0.6c0.4-0.2,0.6-0.5,0.6-0.8
		c0-0.3-0.1-0.6-0.4-0.9c-1.3-1.3-2.6-2.6-3.8-3.9L31.1,33c-0.3-0.3-0.5-0.6-0.5-1.1c0-0.5,0.2-1,0.7-1.2c0.2-0.1,0.5-0.2,0.7-0.2
		c0.3,0,0.5,0.1,0.8,0.2c0.1,0.1,0.3,0.2,0.4,0.3l0,0c0.7,0.7,1.4,1.4,2.1,2.1c0.7,0.7,1.3,1.3,2,2c0.3,0.3,0.6,0.5,0.9,0.5
		c0.5,0,0.8-0.4,0.9-0.8c0.5-1,0.8-2,0.9-3.1c0-0.1,0-0.2,0.1-0.2c0,0,0,0,0-0.1V30c0-0.1,0-0.2-0.1-0.3c-0.1-0.7-0.2-1.4-0.5-2.1
		c-0.6-1.7-1.8-3.3-3.4-4.4c-1.6-1.1-3.4-1.7-5.3-1.7c-0.2,0-0.4,0-0.7,0c-0.6,0-1.1,0.1-1.6,0.2c-0.1,0-0.1,0-0.2,0
		c-0.2,0-0.3-0.1-0.5-0.2c-0.7-0.7-1.4-1.4-2.1-2.1c-0.1-0.1-0.2-0.2-0.2-0.3c0-0.2,0.1-0.3,0.2-0.4C27.9,16.8,30,14.8,32,12.7z
		 M29.2,6l1.3-0.8l1.1-0.7c1.2-0.7,2.4-1.4,3.5-2.1c0.1-0.1,0.2-0.1,0.4-0.1c0.2,0,0.3,0.1,0.4,0.2c0.5,0.5,1,1,1.5,1.5l0.1,0.1
		c0.1,0.1,0.3,0.3,0.1,0.7c-1,1.6-1.9,3.2-2.8,4.7L34,10.8c0,0.1-0.1,0.1-0.2,0.1c0,0,0,0,0,0c-0.1,0-0.1,0-0.1-0.1l-4.5-4.5
		c0,0-0.1-0.1-0.1-0.2C29.1,6.1,29.1,6.1,29.2,6z M19.1,26.2c-1.6,1.6-3.2,3.2-4.8,4.8c-1.9,1.9-3.8,3.8-5.8,5.8
		c-0.8,0.8-1.7,1.2-2.8,1.2c-0.9,0-1.8-0.3-2.5-1c-1-0.9-1.3-2-1.3-2.7c0,0,0,0,0,0c0-1.1,0.4-2,1.2-2.8l1-1
		c3.1-3.1,6.4-6.4,9.6-9.6c0.1-0.1,0.2-0.2,0.4-0.2c0.2,0,0.3,0.1,0.4,0.2c1.5,1.6,3.1,3.1,4.6,4.6c0.1,0.1,0.2,0.2,0.2,0.4
		C19.3,26,19.2,26.1,19.1,26.2z M27,23.4c0.3,0.3,0.7,0.5,1,0.5c0.2,0,0.3,0,0.5-0.1c0.8-0.2,1.5-0.3,2.2-0.3c1.4,0,2.9,0.5,4.2,1.3
		c2.4,1.6,3.7,5.2,2.8,7.8c0,0.1-0.1,0.1-0.1,0.1c0,0-0.1,0-0.1,0c0,0-0.1,0-0.1,0c-0.2-0.1-0.3-0.2-0.4-0.3c0,0-0.1-0.1-0.1-0.1
		c-0.4-0.4-0.7-0.7-1.1-1.1c-0.6-0.6-1.3-1.3-2-1.9c-0.5-0.5-1.3-0.7-2-0.7c-0.8,0-1.6,0.3-2.2,0.8c-1.2,1-1.5,2.7-0.8,4
		c0.2,0.4,0.4,0.7,0.8,1.1c0.6,0.6,1.1,1.1,1.7,1.7c0.4,0.4,0.8,0.8,1.2,1.2c0,0,0.1,0.1,0.1,0.1c0,0,0,0,0,0c0,0.1,0,0.1,0,0.2
		c0,0.1-0.1,0.1-0.1,0.1c-0.6,0.2-1.3,0.3-1.9,0.3c-0.4,0-0.9,0-1.3-0.1c-3-0.6-4.9-2.5-5.8-5.4c-0.4-1.3-0.3-2.6,0.1-3.9
		c0.2-0.7,0.1-1.1-0.4-1.7c-3.2-3.2-6.6-6.6-10.4-10.4c-0.3-0.3-0.7-0.5-1-0.5c-0.2,0-0.3,0-0.5,0.1c-0.8,0.2-1.5,0.3-2.2,0.3
		c-1.4,0-2.8-0.4-4.2-1.3c-2.4-1.6-3.7-5.1-2.8-7.8c0-0.1,0.1-0.1,0.2-0.1c0,0,0,0,0,0c0.2,0,0.3,0.2,0.4,0.2c0,0,0,0,0.1,0.1
		C3.3,8,3.6,8.4,4,8.7c0.7,0.7,1.3,1.4,2.1,2c0.5,0.4,1.2,0.7,2,0.7c0.8,0,1.5-0.3,2.1-0.7c1.2-1,1.6-2.7,0.9-4.1
		c-0.2-0.4-0.4-0.7-0.8-1C9.8,5.1,9.4,4.7,8.9,4.2C8.5,3.8,8.1,3.3,7.6,2.9c0,0,0,0-0.1-0.1C7.5,2.8,7.3,2.7,7.3,2.5
		c0-0.1,0-0.1,0-0.2c0-0.1,0.1-0.1,0.1-0.1C8.1,2,8.7,1.9,9.3,1.9c0.7,0,1.3,0.1,2,0.3c2.6,0.8,4.3,2.6,5,5.3
		c0.3,1.3,0.3,2.6-0.1,3.9C16,12,16.1,12.5,16.6,13C20,16.3,23.5,19.8,27,23.4z M24.5,17.5c-0.1,0.1-0.2,0.2-0.3,0.2
		c-0.1,0-0.3-0.1-0.3-0.2c-0.5-0.5-0.9-0.9-1.3-1.3c-0.1-0.1-0.2-0.2-0.2-0.3c0-0.1,0.1-0.3,0.2-0.3c1.7-1.7,3.5-3.4,5.1-5.1l1-1
		l0,0c0.1-0.1,0.2-0.2,0.3-0.2c0.1,0,0.2,0,0.3,0.1c0.3,0.3,0.6,0.7,1,1c0.1,0.1,0.3,0.3,0.4,0.4c0,0,0.1,0.1,0.1,0.1c0,0,0,0,0,0.1
		c0.1,0.1,0.1,0.2,0,0.3c0,0,0,0,0,0.1c0,0-0.1,0.1-0.1,0.1L29,13C27.5,14.4,26,16,24.5,17.5z"/>
	<path class="st0" d="M14.3,24.9L14.3,24.9c-0.3,0-0.5,0.1-0.8,0.4c-1.3,1.3-2.7,2.7-4,4c-1,1-2,2-3,3c-0.1,0.1-0.2,0.2-0.3,0.3
		c-0.2,0.3-0.2,0.7-0.1,1c0.2,0.3,0.5,0.5,0.9,0.5l0,0c0.3,0,0.5-0.1,0.8-0.4c1.3-1.3,2.6-2.6,3.9-3.9c1-1,2-2,3-3
		c0.1-0.1,0.2-0.2,0.2-0.3c0.2-0.3,0.2-0.7,0.1-1C15,25.1,14.7,24.9,14.3,24.9z"/>
</g>
</svg>
