<?xml version="1.0" encoding="utf-8"?>
<!-- Generator: Adobe Illustrator 23.0.1, SVG Export Plug-In . SVG Version: 6.00 Build 0)  -->
<svg version="1.1" id="Layer_1" xmlns="http://www.w3.org/2000/svg" xmlns:xlink="http://www.w3.org/1999/xlink" x="0px" y="0px"
	 viewBox="0 0 40 40" style="enable-background:new 0 0 40 40;" xml:space="preserve">
<style type="text/css">
	.st0{fill:#FFFFFF;}
</style>
<g>
	<path class="st0" d="M35.2,0H4.8C2.1,0,0,2.1,0,4.8v30.5C0,37.9,2.1,40,4.8,40h30.5c2.6,0,4.8-2.1,4.8-4.8V4.8
		C40,2.1,37.9,0,35.2,0z M38.1,35.2c0,1.6-1.3,2.9-2.9,2.9H4.8c-1.6,0-2.9-1.3-2.9-2.9V4.8c0-1.6,1.3-2.9,2.9-2.9h30.5
		c1.6,0,2.9,1.3,2.9,2.9V35.2z"/>
	<path class="st0" d="M18.8,24.8h-3c-0.2,0-0.4,0.2-0.4,0.4v8.5c0,0.2,0.2,0.4,0.4,0.4h3c0.2,0,0.4-0.2,0.4-0.4v-8.5
		C19.2,25,19,24.8,18.8,24.8z M18.4,33.3h-2.1v-7.7h2.1V33.3z"/>
	<path class="st0" d="M9.3,27h-3c-0.2,0-0.5,0.2-0.5,0.4v6.2c0,0.2,0.2,0.4,0.5,0.4h3c0.2,0,0.4-0.2,0.4-0.4v-6.2
		C9.7,27.2,9.5,27,9.3,27z M6.8,33.3v-0.7l0.7,0.7H6.8z M8.1,33.3l-1.3-1.3v-0.7l2.1,2H8.1z M8.9,32.6l-2.1-2.1v-0.7L8.9,32V32.6z
		 M8.9,31.3l-2.1-2.1v-0.7l2.1,2.1V31.3z M8.9,29.9l-2-2h0.7l1.3,1.3V29.9z M8.9,28.6l-0.7-0.7h0.7V28.6z"/>
	<path class="st0" d="M14.1,21.3h-3c-0.2,0-0.4,0.2-0.4,0.4v12c0,0.2,0.2,0.4,0.4,0.4h3c0.2,0,0.5-0.2,0.5-0.4v-12
		C14.5,21.5,14.3,21.3,14.1,21.3z"/>
	<path class="st0" d="M24,5.9C23.5,5.9,23,6.4,23,7v9c0,0.6,0.5,1.1,1.1,1.1h9c0.6,0,1.1-0.5,1.1-1.1c0-2.5-0.9-4.9-2.5-6.7
		C29.7,7.1,26.9,5.9,24,5.9z M25.1,14.9V8.1c1.9,0.3,3.6,1.2,4.9,2.6c1.1,1.2,1.7,2.6,1.9,4.2L25.1,14.9z"/>
	<path class="st0" d="M30.4,19.9H20V9.4c0-0.6-0.5-1.1-1.1-1.1C12,8.3,6.4,13.9,6.4,20.9c0,1.4,0.2,2.8,0.6,4h2.3
		c-0.5-1.2-0.8-2.5-0.8-4c0-5.4,4-9.8,9.4-10.3v10.4c0,0.6,0.5,1.1,1,1.1h10.4c-0.5,4.7-4.2,8.5-8.8,9.2v2.2c6.3-0.8,11-6,11-12.4
		C31.5,20.3,31,19.9,30.4,19.9z"/>
</g>
</svg>
