<?xml version="1.0" encoding="utf-8"?>
<!-- Generator: Adobe Illustrator 23.0.1, SVG Export Plug-In . SVG Version: 6.00 Build 0)  -->
<svg version="1.1" id="Layer_1" xmlns="http://www.w3.org/2000/svg" xmlns:xlink="http://www.w3.org/1999/xlink" x="0px" y="0px"
	 viewBox="0 0 40 40" style="enable-background:new 0 0 40 40;" xml:space="preserve">
<style type="text/css">
	.st0{fill:#FFFFFF;}
</style>
<g>
	<path class="st0" d="M35.2,0H4.8C2.1,0,0,2.1,0,4.8v30.5C0,37.9,2.1,40,4.8,40h30.5c2.6,0,4.8-2.1,4.8-4.8V4.8
		C40,2.1,37.9,0,35.2,0z M38.1,35.2c0,1.6-1.3,2.9-2.9,2.9H4.8c-1.6,0-2.9-1.3-2.9-2.9V4.8c0-1.6,1.3-2.9,2.9-2.9h30.5
		c1.6,0,2.9,1.3,2.9,2.9V35.2z"/>
	<path class="st0" d="M29.5,16.7c0.3,1,0.5,2,0.5,3c0,5.5-4.5,10-10,10c-4.8,0-8.9-3.4-9.8-8c1.5,1.3,2.9,2.6,2.9,2.6
		c0.6,0.6,0.9,0.1,0.9,0.1c8.2-16.5,13.2-18,13.2-18c1.4-0.8,1.9-0.2,1.9-0.2c-0.1-0.6-0.8-0.6-0.8-0.6c-8.3,1.4-15,13.2-15,13.2
		c-0.4,0.6-0.8,0.3-0.8,0.3l-1.9-1.3c-0.9-0.7-1.8-0.2-1.8-0.2l-2.1,1.3c-1.6,0.8-1.3,2.9-1.3,2.9c0,0.2,0,0.2,0.1,0.1c0,0,0,0,0,0
		v0c0.5,3,1.9,5.8,4.1,8c2.7,2.7,6.4,4.2,10.3,4.2s7.6-1.5,10.4-4.3c2.8-2.7,4.3-6.4,4.3-10.3c0-2.8-0.8-5.5-2.3-7.8L29.5,16.7z"/>
	<path class="st0" d="M27.4,19.2c0-0.4-0.3-0.6-0.6-0.6h-8.2c-0.4,0-0.6,0.3-0.6,0.6v0.9c0,0.4,0.3,0.6,0.6,0.6h8.2
		c0.4,0,0.6-0.3,0.6-0.6V19.2z"/>
	<path class="st0" d="M27.4,14.8c0-0.4-0.3-0.6-0.6-0.6h-5.4c-0.4,0-0.6,0.3-0.6,0.6v0.9c0,0.4,0.3,0.6,0.6,0.6h5.4
		c0.4,0,0.6-0.3,0.6-0.6V14.8z"/>
	<path class="st0" d="M16.5,22.9c-0.4,0-0.6,0.3-0.6,0.6v0.9c0,0.4,0.3,0.6,0.6,0.6h10.2c0.4,0,0.6-0.3,0.6-0.6v-0.9
		c0-0.4-0.3-0.6-0.6-0.6H16.5z"/>
</g>
</svg>
