<?xml version="1.0" encoding="utf-8"?>
<!-- Generator: Adobe Illustrator 23.0.1, SVG Export Plug-In . SVG Version: 6.00 Build 0)  -->
<svg version="1.1" id="Layer_1" xmlns="http://www.w3.org/2000/svg" xmlns:xlink="http://www.w3.org/1999/xlink" x="0px" y="0px"
	 viewBox="0 0 40 40" style="enable-background:new 0 0 40 40;" xml:space="preserve">
<style type="text/css">
	.st0{fill:#FFFFFF;}
</style>
<g>
	<path class="st0" d="M35.2,0H4.8C2.1,0,0,2.1,0,4.8v30.5C0,37.9,2.1,40,4.8,40h30.5c2.6,0,4.8-2.1,4.8-4.8V4.8
		C40,2.1,37.9,0,35.2,0z M38.1,35.2c0,1.6-1.3,2.9-2.9,2.9H4.8c-1.6,0-2.9-1.3-2.9-2.9V4.8c0-1.6,1.3-2.9,2.9-2.9h30.5
		c1.6,0,2.9,1.3,2.9,2.9V35.2z"/>
	<path class="st0" d="M14.7,20.6c-0.6,0-1.1,0.5-1,1c0,0.6,0.5,1,1.1,1c0.6,0,1.1-0.4,1.1-1C15.9,21.1,15.4,20.6,14.7,20.6z"/>
	<path class="st0" d="M18.1,14.2c0.6,0,1.1-0.4,1.1-1c0-0.6-0.5-1.1-1.1-1.1c-0.6,0-1,0.5-1,1C17,13.7,17.5,14.2,18.1,14.2z"/>
	<path class="st0" d="M17.6,17.6c0-0.6-0.5-1.1-1.2-1.1c-0.6,0-1.1,0.5-1.1,1.1c0,0.6,0.5,1.1,1.1,1.1
		C17.1,18.7,17.6,18.2,17.6,17.6z"/>
	<path class="st0" d="M10.7,22.3c0.5,0.2,1,0,1.3-0.6c0.1-0.2,0.1-0.3,0.2-0.5c1.5-4.1,3-8.2,4.5-12.3c0.1-0.3,0.2-0.5,0.6-0.4
		c3.1,0.6,6.3,1.3,9.5,1.9c0-0.7,0.2-1.4,0.6-2C23.8,7.8,20.2,7,16.6,6.3c-0.8-0.2-1.1,0.1-1.4,0.8c-0.9,2.5-1.9,5-2.8,7.5
		c-0.8,2.1-1.5,4.2-2.2,6.3C9.9,21.6,10.2,22.1,10.7,22.3z"/>
	<path class="st0" d="M24,21.1c0.6,0,0.9-0.3,1-0.8c0.1-0.5-0.1-1-0.6-1.2c-1.6-0.6-3.3-1.1-4.9-1.6c-0.5-0.2-1.1,0.3-1.1,0.9
		c-0.1,0.5,0.2,0.9,0.8,1.1c1.4,0.5,2.9,1,4.4,1.4C23.8,21,23.9,21,24,21.1z"/>
	<path class="st0" d="M31.3,7.4c-1.8,0-3.3,1.4-3.3,3.3s1.4,3.3,3.3,3.3s3.3-1.4,3.3-3.3S33.1,7.4,31.3,7.4z M30.9,12.3l-1.6-1.6
		l0.6-0.6l1,1l2-2.1l0.6,0.7L30.9,12.3z"/>
	<path class="st0" d="M29.4,14.7c-0.7,2.1-1.4,4.1-2.1,6.1c-0.9,2.6-2,5.2-3,7.7c-0.4,0.8-1,1.7-1.7,2.3c-1.4,1.2-3.9,0.9-4.5-1.4
		c-0.1-0.6-0.2-1.1-0.2-1.7c0-0.4-0.2-0.6-0.5-0.7c-3.7-1.5-7.3-2.9-11-4.4c-0.2-0.1-0.4-0.1-0.6-0.2c-0.2,0.9-0.5,1.1-0.1,2.9
		c0.3,1.6,1.2,2.8,2.7,3.6c0.6,0.3,1.2,0.5,1.8,0.8c2.6,1.2,5.3,2.4,7.9,3.6s5.6,0.3,7.2-2.2c0.6-0.9,1.1-1.8,1.5-2.8
		c1.8-4.3,3.3-8.7,4.7-13.1c-0.1,0-0.1,0-0.2,0C30.6,15.2,30,15,29.4,14.7z"/>
	<path class="st0" d="M17.4,23.8c1.4,0.5,2.9,1,4.4,1.5c0.2,0.1,0.4,0.1,0.6,0.2c0.2-0.1,0.4-0.1,0.6-0.2c0.2-0.3,0.4-0.6,0.5-0.9
		c0.1-0.5-0.3-0.8-0.8-0.9c-1.5-0.5-3-1-4.6-1.5c-0.3-0.1-0.7,0-0.8,0.2c-0.2,0.2-0.4,0.6-0.4,1C16.7,23.4,17,23.7,17.4,23.8z"/>
	<path class="st0" d="M25.9,16.4c0.6,0,0.9-0.3,1-0.8c0.1-0.6-0.1-1-0.7-1.2c-1.5-0.5-3-0.9-4.5-1.3c-0.7-0.2-1.2,0.1-1.4,0.7
		c-0.2,0.6,0.1,1.1,0.8,1.3c1.4,0.4,2.9,0.8,4.3,1.2C25.7,16.4,25.8,16.4,25.9,16.4z"/>
</g>
</svg>
