<?xml version="1.0" encoding="utf-8"?>
<!-- Generator: Adobe Illustrator 23.0.1, SVG Export Plug-In . SVG Version: 6.00 Build 0)  -->
<svg version="1.1" id="Layer_1" xmlns="http://www.w3.org/2000/svg" xmlns:xlink="http://www.w3.org/1999/xlink" x="0px" y="0px"
	 viewBox="0 0 40 40" style="enable-background:new 0 0 40 40;" xml:space="preserve">
<style type="text/css">
	.st0{fill:#FFFFFF;}
</style>
<g>
	<path class="st0" d="M33.2,0H6.8C3,0,0,3,0,6.8v26.4C0,37,3,40,6.8,40h26.4c3.7,0,6.8-3,6.8-6.8V6.8C40,3,37,0,33.2,0z M37.9,33.2
		c0,2.6-2.1,4.7-4.7,4.7H6.8c-2.6,0-4.7-2.1-4.7-4.7V6.8c0-2.6,2.1-4.7,4.7-4.7h26.4c2.6,0,4.7,2.1,4.7,4.7V33.2z"/>
	<path class="st0" d="M27.3,20.6L20.6,23c-0.4,0.1-1,0.1-1.3,0l-6.5-2.4c-0.4-0.1-0.7,0.1-0.7,0.5v3.5c0,0.4,0.3,0.8,0.7,1l6.5,2.7
		c0.4,0.2,1,0.2,1.3,0l6.7-2.7c0.4-0.1,0.7-0.6,0.7-1v-3.5C28,20.7,27.7,20.5,27.3,20.6z"/>
	<path class="st0" d="M34.2,16l-13.2-5c-0.6-0.2-1.5-0.2-2,0L5.8,16c-0.6,0.2-0.6,0.5,0,0.8l13.2,5c0.6,0.2,1.5,0.2,2,0l7.9-3
		l0.6,5.2c-0.4,0.2-0.6,0.6-0.6,1c0,0.6,0.4,1,1,1c0.4,1.8,1.4,3.1,1.4,3.1c2.2-0.4,3-1.9,3-1.9c-1.5,0-2.7-1-3.4-1.7
		c0.1-0.2,0.2-0.4,0.2-0.6c0-0.5-0.4-1-1-1l-0.3-5.4l4.4-1.6C34.8,16.6,34.8,16.3,34.2,16z M33.5,27.5L32.6,28c0,0-0.5,0.2-1.9-2.1
		C30.8,25.9,32.2,27.6,33.5,27.5z M31.6,16.8L20.3,21c-0.6,0.2-1,0.4-1,0.4c0,0,0,0,0,0c0,0,0.5-0.2,1-0.4l9.2-4
		c0.5-0.2,0.6-0.7,0-0.9l-4.3-2.2c-0.5-0.3-0.5-0.3,0.1-0.1l6.4,2.4C32.2,16.3,32.2,16.6,31.6,16.8z"/>
</g>
</svg>
