<?xml version="1.0" encoding="utf-8"?>
<!-- Generator: Adobe Illustrator 23.0.1, SVG Export Plug-In . SVG Version: 6.00 Build 0)  -->
<svg version="1.1" id="Layer_1" xmlns="http://www.w3.org/2000/svg" xmlns:xlink="http://www.w3.org/1999/xlink" x="0px" y="0px"
	 viewBox="0 0 40 40" style="enable-background:new 0 0 40 40;" xml:space="preserve">
<style type="text/css">
	.st0{fill:#FFFFFF;}
</style>
<g>
	<path class="st0" d="M35.3,0H4.7C2.1,0,0,2.1,0,4.7v30.7C0,37.9,2.1,40,4.7,40h30.7c2.6,0,4.7-2.1,4.7-4.7V4.7
		C40,2.1,37.9,0,35.3,0z M37.5,35.3c0,1.2-1,2.1-2.1,2.1H4.7c-1.2,0-2.1-1-2.1-2.1V4.7c0-1.2,1-2.1,2.1-2.1h30.7
		c1.2,0,2.1,1,2.1,2.1V35.3z"/>
	<path class="st0" d="M27.7,11.5C27.5,11.2,27.3,11,27,11c-2.5,0-5.1,0-7.6,0c-2.6,0-5.1,0-7.4,0.1c-0.3,0-0.5,0.2-0.6,0.4
		c-0.2,0.3-0.2,0.6-0.2,0.9c-0.1,0.5-0.1,0.9,0,1.3c0,0.3,0.1,0.6,0.2,0.9c0.2,0.4,0.3,0.5,0.7,0.5c1.7,0,3.4,0,5.2,0
		c0.1,0,0.1,0,0.1,0.1c0,1.3,0,2.5,0,3.7c0,0.1,0,0.1-0.1,0.1c-0.4,0-0.7,0-1,0c-0.1,0-0.2,0-0.2,0.1s0.1,0.1,0.2,0.1
		c0.9,0,1.7,0,2.6,0h0.1c0.1,0,0.1,0.1,0.1,0.1c0,0.1-0.1,0.1-0.1,0.1c-0.1,0-0.1,0-0.1,0c-0.5,0-0.9,0-1.4,0c-0.1,0-0.1,0-0.1,0.1
		c0,0.3,0,0.6,0,0.8c0,0.1,0,0.1-0.1,0.1c-0.3,0-0.7,0-1,0c-0.1,0-0.2,0-0.2,0.1c0,0.1,0.1,0.1,0.2,0.1c0.9,0,1.7,0,2.6,0h0.1
		c0.1,0,0.1,0.1,0.1,0.1c0,0.1-0.1,0.1-0.1,0.1c-0.1,0-0.1,0-0.1,0c-0.5,0-0.9,0-1.4,0c-0.1,0-0.1,0-0.1,0.1c0,0.3,0,0.5,0,0.8
		c0,0.1,0.1,0.1-0.1,0.1c-0.3,0-0.7,0-1,0c-0.1,0-0.2,0-0.2,0.1S16,22,16.1,22c0.9,0,1.7,0,2.6,0h0.1c0.1,0,0.1,0.1,0.1,0.1
		c0,0.1-0.1,0.1-0.1,0.1c-0.1,0-0.1,0-0.1,0c-0.5,0-0.9,0-1.4,0c-0.1,0-0.1,0-0.1,0.1c0,1.9,0,3.7,0,5.6c0,0.1,0,0.2-0.1,0.3
		c-0.8,0.7-1.2,1.6-1.1,2.7c0.1,0.9,0.6,1.6,1.3,2.2c0.9,0.7,1.8,0.9,2.9,0.7c0.9-0.2,1.7-0.6,2.2-1.3c0.6-0.7,0.8-1.5,0.6-2.4
		c-0.2-0.8-0.5-1.4-1.1-1.9c-0.1-0.1-0.1-0.2-0.1-0.3c0-4.3,0-8.6,0-12.9c0-0.2,0-0.2,0.1-0.2c1.7,0,3.4,0,5.2,0
		c0.3,0,0.6-0.2,0.7-0.5c0.1-0.3,0.2-0.6,0.2-0.9c0.1-0.4,0.1-0.9,0-1.3C27.8,12,27.8,11.7,27.7,11.5z M21,32
		c-0.5,0.6-1,0.8-1.7,0.8c-1.1,0-1.9-0.8-2.1-1.8c-0.2-0.8,0.1-1.4,0.6-2c0.1-0.2,0.2-0.3,0.2-0.4c0-1.1,0-2.2,0-3.2
		c0-0.7,0-1.4,0-2.1c0-0.2,0-0.2,0.2-0.3c0.8-0.6,1.7-1.1,2.5-1.7c0,0,0.1-0.1,0.1-0.1c0,0.1,0,0.1,0,0.2c0,2.4,0,4.8,0,7.2
		c0,0.1,0,0.2,0.1,0.3c0.4,0.3,0.6,0.7,0.7,1.2C21.7,30.8,21.5,31.4,21,32z"/>
	<path class="st0" d="M31.5,6.3c-0.6-0.2-1.2-0.2-1.8-0.1c-0.6,0.2-1.1,0.5-1.4,1.1c-0.3,0.5-0.3,0.9-0.3,1.2c0,0.5,0,0.8,0.2,1.2
		c0.2,0.7,0.6,1.1,1.3,1.3c0.6,0.2,1.2,0.2,1.7,0c0.7-0.2,1.1-0.6,1.4-1.2c0.3-0.8,0.3-1.6,0-2.4C32.4,6.9,32.1,6.5,31.5,6.3z
		 M31.3,9.4c-0.2,0.4-0.4,0.7-0.8,0.8c-0.1,0-0.2,0-0.2,0c-0.5,0-0.8-0.3-1-0.8c-0.2-0.5-0.2-1,0-1.5c0.1-0.4,0.3-0.7,0.7-0.8
		c0.5-0.1,1,0.1,1.2,0.5c0.1,0.2,0.2,0.4,0.2,0.6C31.4,8.7,31.4,9,31.3,9.4z"/>
</g>
</svg>
