<?xml version="1.0" encoding="utf-8"?>
<!-- Generator: Adobe Illustrator 19.2.0, SVG Export Plug-In . SVG Version: 6.00 Build 0)  -->
<svg version="1.1" id="Layer_1" xmlns="http://www.w3.org/2000/svg" xmlns:xlink="http://www.w3.org/1999/xlink" x="0px" y="0px"
	 viewBox="0 0 300 300" style="enable-background:new 0 0 300 300;" xml:space="preserve">
<style type="text/css">
	.st0{fill:#FFFFFF;}
</style>	 
<g>
	<path class="st0" d="M295.7,148.7c-13.6-10.6-27.2-21.2-40.8-31.9c-0.9-0.7-1.7-1.4-2.7-2.4c12.5-8.2,24.5-16.2,36.7-24.1
		c2.5-1.6,4.4-3.4,3.8-6.7c-0.5-3.2-3.1-4.1-5.7-4.8c-25.6-6.8-51.2-13.6-76.9-20.4c-2.8-0.7-5.1-0.4-7.6,1.2
		c-10.7,6.8-21.5,13.3-32,20.2c-3.1,2-5,2.1-7.9-0.4c-13.5-11.5-27.2-22.6-40.8-33.9c-2-1.7-4.1-2.3-6.8-1.8
		c-20.3,4.1-40.7,8-61.1,11.9c-15.4,3-30.9,6-46.3,9.1c-1.5,0.3-3.2,0.7-4.5,1.6c-3.2,2.3-2.9,6.2,0.7,9.2
		c11.9,9.9,23.9,19.8,35.9,29.7c3.8,3.1,7.5,6.3,11.4,9.5c-0.9,1.1-1.6,1.9-2.3,2.6c-11.9,13.1-23.8,26.1-35.7,39.2
		c-4.2,4.7-3.3,8.5,2.6,10.8c11.7,4.6,23.5,9.3,35.3,13.7c2.2,0.8,2.8,1.9,2.8,4.2c-0.1,13-0.1,25.9-0.1,38.9c0,4.7,1,6.1,5.3,7.5
		c24.8,8.1,49.6,16.2,74.4,24.2c1.4,0.5,3.2,0.5,4.7,0.2c34.5-8,68.9-16.1,103.4-24.2c5.7-1.3,6.7-2.7,6.7-8.7
		c0-16.3,0.1-32.6-0.1-48.9c0-3.4,1.2-4.5,4.3-5.2c13.7-3.1,27.3-6.4,40.9-9.5c2.9-0.7,5.1-1.8,5.7-4.9
		C299.4,152.1,297.8,150.3,295.7,148.7z M199.9,74.2c5.6-4.2,10.8-4.5,17.4-2.6c17.9,5.3,36.1,9.8,54.2,14.6c0.5,0.1,1,0.3,2.3,0.8
		c-3.3,2.2-6,3.9-8.6,5.7c-7.1,4.6-14.1,9.3-21.2,13.9c-1.1,0.7-2.9,1.2-4.1,0.8c-19.5-6.3-39-12.7-58.5-19c-0.6-0.2-1.1-0.6-2-1.1
		C186.4,82.9,193.5,79,199.9,74.2z M21.8,76c-0.6-0.5-1.2-1.1-2.3-2.2c15.2-3,29.8-5.8,44.3-8.7c16-3.1,32.1-6.3,48.1-9.4
		c2.5-0.5,4.5-0.3,6.7,1.6c10.6,9,21.4,17.8,32.1,26.6c0.8,0.7,1.6,1.4,2.8,2.5c-6.7,1.6-12.9,3.1-19.1,4.6
		c-23.5,5.5-47,11-70.5,16.6c-2.2,0.5-3.8,0.3-5.5-1.2C46.3,96.1,34,86.1,21.8,76z M27.7,160.1c-0.5-0.2-0.9-0.5-1.7-0.8
		c0.7-0.9,1.3-1.7,2-2.5c10.2-11.2,20.5-22.4,30.7-33.7c1.6-1.8,3-2.3,5.5-1.5c19.3,6.4,38.6,12.6,57.9,18.9
		c1.2,0.4,2.3,0.9,3.7,1.4c-0.8,1-1.3,1.7-2,2.4c-11.3,12.4-22.6,24.8-34,37.2c-1.1,1.2-1.9,2.2-4,1.4
		C66.5,175.3,47.1,167.7,27.7,160.1z M130,243.2c-2-0.5-3.2-0.9-4.7-1.4c-19.2-6.3-38.3-12.6-57.5-18.8c-2.3-0.7-2.9-1.7-2.9-4
		c0.1-9.5,0.1-19.1,0.1-28.6c0-1,0-2.1,0-3.7c6,2.3,11.6,4.5,17.1,6.6c8.9,3.5,8.8,3.5,15.2-3.5c9.8-10.8,19.5-21.5,29.3-32.3
		c0.9-1,2.3-1.9,3.3-3.5C130,184.2,130,213.5,130,243.2z M132,136l-0.5-6.8l-21.4,1l-2-24.4c0-3.3,2.7-5.8,6-5.8h49.9
		c2.9,0,5.3,2,5.9,4h21.2c3.6,0,6.9,3.3,6.9,6.9v10.3l-27.8,6.2l0,0h-0.1L132,136z M233.9,222.3c-29.7,6.9-59.2,13.9-88.9,20.9
		c-0.9,0.2-2,0.3-3,0.4c0-30.7,0-61.2,0-92.3c1,0.8,2,1.3,2.9,2c12.7,10,25.5,19.9,38.1,29.9c1.9,1.5,3.6,1.7,5.8,1.2
		c14.9-3.6,29.7-7,44.6-10.5c1-0.2,2.1-0.3,3.3-0.6c0.1,1.1,0.1,2.1,0.1,3c0,14-0.1,28.1,0.1,42.1
		C237,220.9,236.2,221.7,233.9,222.3z M277.7,152c-28.9,6.8-57.8,13.6-86.7,20.3c-1.3,0.3-3.2,0.2-4.1-0.6
		c-12.2-9.4-24.3-18.9-36.5-28.4c-0.3-0.3-0.6-0.6-1.3-1.4c9.6-2.3,18.7-4.5,27.9-6.6c20.6-4.8,41.2-9.6,61.8-14.4
		c1.3-0.3,3.1-0.1,4.1,0.6c12.3,9.4,24.5,19,36.7,28.6c0.2,0.2,0.4,0.5,0.8,1C279.3,151.4,278.5,151.8,277.7,152z"/>
	<path d="M152.8,229.8c0-4.4-0.2-8.4,0.1-12.4c0.1-0.8,1.7-2,2.8-2.2c14.2-3.4,28.5-6.8,42.7-10.1c7.8-1.8,15.6-3.7,23.4-5.5
		c1.1-0.3,2.3-0.4,3.8-0.7c0,4.4,0.1,8.5-0.1,12.5c-0.1,0.8-1.6,1.9-2.6,2.2c-11.3,2.8-22.6,5.4-34,8.1c-11.2,2.6-22.5,5.3-33.7,7.9
		C154.7,229.6,154.1,229.6,152.8,229.8z"/>
</g>
</svg>
