<?xml version="1.0" encoding="utf-8"?>
<!-- Generator: Adobe Illustrator 24.0.0, SVG Export Plug-In . SVG Version: 6.00 Build 0)  -->
<svg version="1.1" id="Layer_1" xmlns="http://www.w3.org/2000/svg" xmlns:xlink="http://www.w3.org/1999/xlink" x="0px" y="0px"
	 viewBox="0 0 354.3 101.9" style="enable-background:new 0 0 354.3 101.9;" xml:space="preserve">
<style type="text/css">
	.st0{fill:#801452;}
	.st1{fill:#4D4D4D;}
	.st2{fill:#8CC63F;}
	.st3{fill-rule:evenodd;clip-rule:evenodd;fill:#801452;}
</style>
<g>
	<g>
		<path class="st0" d="M27.1,35.7c2.2,0,4.3,0.2,6.3,0.6c-3.5-3.8-7.7-6.9-12.4-9.1C11,32,3.2,40.7,0,51.5
			C5.4,42.1,15.5,35.7,27.1,35.7z"/>
		<path class="st0" d="M18.8,97.2c0.7,0.4,1.5,0.8,2.2,1.1c0.3-0.1,0.6-0.3,0.9-0.4C20.9,97.7,19.8,97.4,18.8,97.2z"/>
	</g>
	<g>
		<path class="st1" d="M97.2,74.2V85c0,0.9-0.3,1.6-0.9,2.2c-0.6,0.6-1.4,1-2.2,1c-0.9,0-1.6-0.3-2.2-1C91.3,86.6,91,85.8,91,85
			V51.6c0-1.3,0.4-2.4,1.2-3.2c0.8-0.8,1.9-1.2,3.3-1.2h11.7c3.9,0,7.1,1.2,9.7,3.7c2.6,2.4,3.9,5.7,3.9,9.7c0,4.2-1.3,7.5-3.9,9.9
			c-2.6,2.4-6,3.7-10.1,3.7H97.2z M97.2,68h9.4c5.3,0,7.9-2.5,7.9-7.4c0-2.3-0.6-4.1-1.9-5.4c-1.3-1.3-3.2-1.9-5.8-1.9h-9.6V68z"/>
		<path class="st1" d="M134.1,49.7V85c0,0.9-0.3,1.6-0.9,2.2c-0.6,0.6-1.3,0.9-2.2,0.9c-0.8,0-1.5-0.3-2.1-0.9
			c-0.6-0.6-0.9-1.4-0.9-2.2V49.7c0-0.9,0.3-1.6,0.9-2.2c0.6-0.6,1.3-0.9,2.2-0.9s1.6,0.3,2.2,0.9C133.8,48.1,134.1,48.8,134.1,49.7
			z"/>
		<path class="st1" d="M143.3,76.1V60.3c0-0.9,0.3-1.7,0.8-2.3c0.5-0.6,1.3-0.9,2.2-0.9c0.9,0,1.6,0.3,2.2,0.9
			c0.6,0.6,0.9,1.4,0.9,2.3v15.8c0,2,0.6,3.6,1.8,4.8c1.2,1.2,2.8,1.7,4.9,1.7c2.5,0,4.8-0.6,6.9-1.9V60.2c0-0.9,0.3-1.6,0.9-2.3
			c0.6-0.6,1.3-0.9,2.2-0.9c0.9,0,1.6,0.3,2.2,0.9c0.6,0.6,0.9,1.4,0.9,2.3v22.5c0,1-0.4,1.8-1.2,2.3c-3.3,2.3-7.3,3.5-12,3.5
			c-4,0-7.1-1.1-9.4-3.2C144.4,83.1,143.3,80.1,143.3,76.1z"/>
		<path class="st1" d="M219.9,68.9V85c0,0.9-0.3,1.6-0.9,2.2c-0.6,0.6-1.3,0.9-2.2,0.9s-1.6-0.3-2.2-0.9c-0.6-0.6-0.9-1.4-0.9-2.2
			V69.2c0-4.4-1.9-6.7-5.7-6.7c-2.4,0-4.3,0.9-5.7,2.6V85c0,0.9-0.3,1.6-0.9,2.2c-0.6,0.6-1.3,0.9-2.2,0.9c-0.8,0-1.5-0.3-2.1-0.9
			c-0.6-0.6-0.9-1.4-0.9-2.2V68.8c0-4.2-1.9-6.3-5.7-6.3c-1.6,0-2.9,0.2-3.7,0.6c-0.9,0.4-1.5,0.7-1.8,0.9l-0.2,0.2V85
			c0,0.9-0.3,1.6-0.9,2.2c-0.6,0.6-1.3,0.9-2.2,0.9c-0.8,0-1.5-0.3-2.1-0.9c-0.6-0.6-0.9-1.4-0.9-2.2V62.3c0-0.9,0.4-1.8,1.3-2.6
			c2.9-2.1,6.3-3.1,10.3-3.1c3.9,0,6.8,1.1,8.8,3.4c2.9-2.3,6-3.4,9.2-3.4C216,56.6,219.9,60.7,219.9,68.9z"/>
		<path class="st1" d="M252,74.2V85c0,0.9-0.3,1.6-0.9,2.2c-0.6,0.6-1.4,1-2.2,1c-0.9,0-1.6-0.3-2.2-1c-0.6-0.6-0.9-1.4-0.9-2.2
			V51.6c0-1.3,0.4-2.4,1.2-3.2s1.9-1.2,3.3-1.2h11.7c3.9,0,7.1,1.2,9.7,3.7c2.6,2.4,3.9,5.7,3.9,9.7c0,4.2-1.3,7.5-3.9,9.9
			c-2.6,2.4-6,3.7-10.1,3.7H252z M252,68h9.4c5.3,0,7.9-2.5,7.9-7.4c0-2.3-0.6-4.1-1.9-5.4c-1.3-1.3-3.2-1.9-5.8-1.9H252V68z"/>
		<path class="st1" d="M282.1,72.2c-0.3-3.1-0.3-6.2,0-9.3c0.3-4.7,2.2-8.6,5.5-11.7c3.3-3.1,7.3-4.7,12-4.7c4.8,0,8.8,1.6,12.1,4.8
			c3.4,3.2,5.2,7,5.5,11.6c0.3,3.1,0.3,6.2,0,9.3c-0.3,4.6-2.1,8.5-5.5,11.7c-3.3,3.1-7.3,4.7-12.1,4.7c-4.7,0-8.7-1.5-12-4.6
			C284.3,80.8,282.5,76.9,282.1,72.2z M310.9,71.7c0.2-2.8,0.2-5.6,0-8.3c-0.3-3.3-1.5-5.9-3.6-7.9c-2.1-2.1-4.7-3.1-7.7-3.1
			c-3,0-5.6,1-7.7,3.1c-2.1,2-3.2,4.6-3.5,7.9c-0.2,2.7-0.2,5.5,0,8.3c0.3,3.2,1.5,5.8,3.5,7.9c2.1,2.1,4.7,3.1,7.8,3.1
			c3.1,0,5.6-1,7.8-3.1C309.4,77.5,310.6,74.9,310.9,71.7z"/>
		<path class="st1" d="M339.9,64.4c2.6,0.5,4.8,1,6.6,1.7c1.8,0.7,3.3,1.5,4.5,2.5c1.2,1,2,2.1,2.5,3.3c0.5,1.3,0.8,2.7,0.8,4.4
			c0,3.6-1.4,6.5-4.1,8.8c-2.7,2.3-6.4,3.4-11.1,3.4c-5.6,0-10.3-1.4-14-4.2c-1.1-0.7-1.6-1.6-1.6-2.7c0-0.9,0.3-1.7,0.9-2.3
			c0.6-0.6,1.4-0.9,2.3-0.9c0.8,0,1.5,0.3,2.3,0.9c3.1,2.2,6.6,3.3,10.5,3.3c2.7,0,4.8-0.6,6.4-1.7c1.5-1.1,2.3-2.6,2.3-4.6
			c0-1.6-0.7-2.8-2.2-3.7c-0.7-0.4-1.7-0.8-3-1.2c-1.3-0.4-2.8-0.8-4.7-1.2c-4.8-0.9-8.3-2.3-10.5-4.1c-2.2-1.8-3.3-4.4-3.3-7.7
			c0-3.6,1.3-6.5,4-8.7c2.7-2.2,6.2-3.3,10.3-3.3c5.5,0,9.5,1.1,12.1,3.4c0.7,0.7,1,1.5,1,2.4c0,0.8-0.3,1.5-0.8,2.1s-1.2,0.8-2,0.8
			c-0.6,0-1.4-0.2-2.3-0.7c-2.5-1.4-5.1-2.1-7.9-2.1c-2.8,0-4.8,0.6-6.1,1.7c-1.3,1.1-1.9,2.5-1.9,4.3c0,0.8,0.2,1.5,0.5,2.1
			c0.3,0.6,0.8,1.1,1.5,1.6c0.7,0.5,1.7,0.9,2.8,1.2C336.7,63.7,338.1,64,339.9,64.4z"/>
	</g>
	<g>
		<path class="st2" d="M15.8,0.1c0,0,17.6-2,22.2,10.7c3.6,9.9-9.3,11-13.3,7.4S15,6.8,15.8,0.1z"/>
		<path class="st2" d="M60.5,7c0,0-4.8,12.8-13.5,13.1c-6.8,0.2-7.3-7.4-3.2-10.5C48.2,6.3,56.5,5.2,60.5,7z"/>
	</g>
	<g>
		<path class="st3" d="M14.7,86.7h23.7c0.5,0,1,0.4,1,1s-0.4,1-1,1H14.7c-0.5,0-1-0.4-1-1S14.1,86.7,14.7,86.7z"/>
		<path class="st3" d="M21.8,82.8h9.8c0.4,0,0.7,0.3,0.7,0.7l4,3.2c0,0.4-0.3,0.7-0.7,0.7H17.8c-0.4,0-0.7-0.3-0.7-0.7l4-3.2
			C21.1,83.1,21.4,82.8,21.8,82.8z"/>
		<path class="st0" d="M46.3,57.4c-0.2-0.5-0.5-0.9-0.8-1.3c-0.6-0.8-1.3-1.3-2.2-1.4c-0.8-0.1-1.6-0.1-2.4-0.2
			c-0.6,0-0.8,0.2-0.8,0.8c0,1.6,0,8.4,0,10c0,1.6,0,3.1,0,4.7c0,0.6,0.2,0.8,0.8,0.8c0.5,0,0.9,0,1.4,0c0.6-0.1,1.2-0.1,1.8-0.4
			c0.7-0.4,1.3-0.9,1.7-1.6c0.3-0.4,0.4-0.9,0.4-1.4C46.3,66,46.4,57.7,46.3,57.4z M43.1,70.1L43.1,70.1V55.3l0,0
			c0.5,0,0.9,0.4,0.9,0.9v12.8C44.1,69.7,43.6,70.1,43.1,70.1z"/>
		<g>
			<g>
				<path class="st0" d="M33.3,75.6c-0.3,0-0.4-0.1-0.4-0.5c0-3,0-6,0-8.9c0-0.5-0.1-0.6-0.6-0.6c-0.5,0-1,0-1.5,0
					c-0.5,0-0.6,0.1-0.6,0.6c0,3,0,5.9,0,8.9c0,0.4-0.1,0.5-0.5,0.5c-0.3,0-0.6,0-0.6-0.5c0-1.4,0-2.8,0-4.2c0-0.4-0.1-0.6-0.6-0.6
					c-0.5,0-1,0-1.4,0c-0.5,0-0.6,0.1-0.6,0.7c0,1.4,0,2.8,0,4.2c0,0.1,0,0.3-0.1,0.4c-0.5,0.2-0.9,0-0.9-0.5c0-1.9,0-3.7,0-5.6
					c0-0.6-0.1-0.7-0.6-0.7c-0.5,0-0.9,0-1.4,0c-0.5,0-0.6,0.1-0.6,0.6c0,1.9,0,3.7,0,5.6c0,0.6,0,0.6-0.6,0.6
					c-0.3,0-0.4-0.1-0.4-0.4c0-0.7,0-1.5,0-2.2c0-0.4-0.1-0.5-0.5-0.5c-0.5,0-1,0-1.5,0c-0.4,0-0.5,0.1-0.5,0.5c0,0.6,0,1.2,0,1.8
					c0,0.2,0.1,0.5,0,0.7c-0.1,0.1-0.4,0.1-0.6,0.2c-0.1,0-0.2,0.2-0.4,0.3c0.1,0.1,0.2,0.3,0.3,0.3c0.1,0.1,0.3,0.1,0.4,0.1
					c2.4,0,4.7,0,7.1,0c0.3,0,0.6,0,1,0c2.1,0,4.2,0,6.3,0c0.3,0,0.5-0.1,0.5-0.4C33.8,75.8,33.5,75.6,33.3,75.6z M20.8,69
					c0.4-0.2,0.6-0.6,0.5-1.2c0-0.1,0.1-0.3,0.2-0.4c0.6-0.6,1.3-1.1,1.9-1.7c0.1-0.1,0.3-0.1,0.4-0.1c0.4,0.1,0.7,0,1.1-0.2
					c0.1-0.1,0.3-0.1,0.5-0.1c0.5,0.2,0.9,0.3,1.4,0.6c0.1,0.1,0.3,0.2,0.3,0.4c0.2,0.7,0.7,1.1,1.3,0.9c0.7-0.2,0.9-0.7,0.7-1.4
					c0-0.1,0-0.3,0.1-0.4c0.7-0.9,1.5-1.9,2.3-2.8c0.1-0.1,0.3-0.2,0.4-0.1c0.4,0.1,0.8-0.1,1-0.4c0.3-0.3,0.3-0.7,0.1-1.1
					c-0.2-0.4-0.5-0.7-0.9-0.6c-0.8,0-1.2,0.6-1,1.4c0,0.2,0,0.4-0.1,0.5c-0.7,0.9-1.5,1.8-2.2,2.7c-0.1,0.1-0.3,0.2-0.4,0.2
					c-0.4,0-0.7,0-0.9,0.2c-0.1,0.1-0.2,0.1-0.3,0.1c-0.5-0.2-0.9-0.4-1.4-0.6c-0.2-0.1-0.4-0.2-0.4-0.5c-0.1-0.6-0.7-1-1.3-0.8
					c-0.6,0.1-0.9,0.7-0.8,1.3c0,0.1-0.1,0.4-0.2,0.5c-0.6,0.5-1.2,1.1-1.8,1.6C21,67,20.8,67,20.6,66.9c-0.5-0.2-1,0.1-1.2,0.5
					c-0.2,0.3-0.1,1,0.1,1.3C19.8,69,20.3,69.2,20.8,69z"/>
			</g>
		</g>
		<path class="st0" d="M40.8,55.4c0-3.6-3-6.6-6.6-6.6H19.5c-3.6,0-6.6,3-6.6,6.6v21.7c0,3.6,3,6.6,6.6,6.6h14.7
			c3.6,0,6.6-3,6.6-6.6V55.4z M37.8,75.4c0,2.4-1.5,4.3-4.3,4.3H21.3c-2.8,0-5.4-1.9-5.4-4.3V55.7c0-2.4,2.6-3.9,5.4-3.9h12.2
			c2.8,0,4.3,1.5,4.3,3.9V75.4z"/>
	</g>
	<path class="st0" d="M37.4,23.7C19.8,23.7,4.9,35.4,0,51.5c5.4-9.4,15.5-15.7,27.1-15.7c17.3,0,31.3,14,31.3,31.3
		c0,17.3-14,31.3-31.3,31.3c-2.9,0-5.7-0.4-8.4-1.1c5.5,3,11.9,4.7,18.7,4.7c21.6,0,39.1-17.5,39.1-39.1
		C76.5,41.2,59,23.7,37.4,23.7z"/>
</g>
</svg>
