<?xml version="1.0" encoding="utf-8"?>
<!-- Generator: Adobe Illustrator 19.2.0, SVG Export Plug-In . SVG Version: 6.00 Build 0)  -->
<svg version="1.1" id="Layer_1" xmlns="http://www.w3.org/2000/svg" xmlns:xlink="http://www.w3.org/1999/xlink" x="0px" y="0px"
	 viewBox="0 0 100 100" style="enable-background:new 0 0 100 100;" xml:space="preserve">
<style type="text/css">
	.st0{fill:#FFFFFF;}
</style>
<g>
	<path class="st0" d="M66.3,56.3c1.6,0.8,3,1.6,4.4,2.3c1.1,0.6,1.5,1.5,1,2.3c-0.5,0.9-1.4,1.1-2.4,0.5c-1.6-0.8-3.3-1.7-4.9-2.6
		c-0.5-0.3-0.8-0.3-1.2,0c-6.3,4.9-13.2,3.9-18.8-0.1c-0.2-0.1-0.4-0.3-0.6-0.4c-6.3,3.6-12.9,6.4-19.7,8.9
		c-5.8,2.2-9.4,6.3-11.7,11.9c-1.5,3.6-2.4,7.3-2.7,11.1c-0.1,0.6,0.1,0.9,0.7,1.2c4.5,1.7,9.2,2.7,13.9,3.4
		c14,2.1,28.1,2.4,42.2,1.8c0.3,0,0.5,0,0.8,0c0.9,0.1,1.4,0.6,1.5,1.4c0.1,0.8-0.3,1.4-1.1,1.7c-0.3,0.1-0.7,0.1-1,0.1
		c-11,0.5-22,0.4-32.9-0.6c-7.5-0.7-14.9-1.7-22.1-4c-1.3-0.4-2.6-1-3.9-1.5c-0.8-0.3-1.2-1-1.2-1.9c0.4-8.2,2.9-15.6,8.1-22.1
		c1.4-1.8,3.2-3.1,5.3-4c5.3-2.3,10.5-4.5,15.8-6.9c1.9-0.8,3.8-1.8,5.7-2.8c-0.2-0.3-0.3-0.5-0.5-0.7c-2-2.4-3.5-5.1-4.4-8
		c-0.2-0.6-0.6-1.2-1-1.7c-3-3.6-5.2-7.6-5.4-12.4c0-1.5,0.3-3,0.6-4.4c0.1-0.4,0.3-0.9,0.6-1.1c1-0.7,0.9-1.7,0.9-2.7
		c0.1-2.8-0.1-5.6,0.3-8.3c1.2-8.6,6.3-14.3,14.8-16.3c6.2-1.5,12.5-1.2,18.5,1.1c3.8,1.4,6.6,3.9,7.6,8c0.1,0.3,0.3,0.6,0.5,0.8
		c1.5,1.6,2.3,3.5,2.4,5.7c0.1,2.6,0.1,5.1,0.2,7.7c0,0.4,0.3,0.9,0.6,1.1c1,0.9,1.4,2.1,1.6,3.3c0.5,2.9,0,5.7-1.1,8.3
		c-1,2.5-2.4,4.8-4.2,6.8c-0.3,0.3-0.6,0.7-0.7,1.1c-1.2,4.2-3.4,8-6.3,11.3C66.5,56,66.5,56.1,66.3,56.3z M75.7,27.9
		c-1.9-0.2-2.2-0.6-2.2-2.4c-0.1-3-0.1-5.9-0.2-8.9c-0.1-1.7-0.7-3.2-2.1-4.2c-0.4-0.3-0.6-0.8-0.7-1.2c-0.2-1.4-0.8-2.7-1.8-3.7
		c-1.5-1.6-3.4-2.6-5.4-3.2c-4.3-1.2-8.6-1.3-13-0.8c-8.7,0.9-14.6,7.4-14.7,16.1c0,2.9-0.1,5.7-0.1,8.6c0,0.9-0.3,1.6-1.2,1.7
		c-0.8,0.1-0.9,0.6-0.9,1.2c-0.4,5.1,1.5,9.4,5,13.1c0.5,0.5,0.9,1.2,1.1,1.8c1.1,3.7,2.9,7.1,5.9,9.6c3.1,2.7,6.8,3.9,10.9,3.4
		c3.3-0.5,5.7-2.5,7.9-4.7c2.9-3,4.7-6.7,5.9-10.7c0.2-0.6,0.6-1.3,1-1.8c1.9-2.1,3.4-4.4,4.3-7.1C75.9,32.4,76,30.2,75.7,27.9z"/>
	<path class="st0" d="M57.2,80.7c0-0.5,0-1,0-1.6c0-0.1,0-0.1,0-0.2c0.1-1,0.2-1.9,0.4-2.9c0.4-2,1.2-3.8,2.2-5.6
		c0.9-1.4,1.9-2.6,3-3.7c1.4-1.4,3.1-2.5,4.9-3.4c1.1-0.5,2.3-0.9,3.5-1.2c0.9-0.2,1.8-0.3,2.7-0.4c0.2,0,0.4,0,0.6-0.1
		c0.5,0,1,0,1.6,0c0.1,0,0.1,0,0.2,0c1.2,0.1,2.3,0.2,3.5,0.5c1.3,0.3,2.6,0.8,3.8,1.4c1.5,0.8,2.9,1.8,4.2,3
		c1.3,1.3,2.5,2.7,3.4,4.3c0.8,1.4,1.4,2.8,1.7,4.3c0.3,1.1,0.5,2.2,0.6,3.3c0,0.2,0,0.4,0.1,0.7c0,0.4,0,0.9,0,1.3c0,0,0,0.1,0,0.1
		c0,0.9-0.1,1.8-0.3,2.6c-0.3,1.4-0.7,2.8-1.3,4.1c-0.9,2-2.2,3.7-3.7,5.3C87,94,85.5,95.1,83.9,96c-1.5,0.8-3,1.3-4.7,1.7
		C78.2,97.9,77,98,75.9,98c-0.2,0-0.4,0-0.5,0c-0.1,0-0.1,0-0.2,0c-0.1,0-0.1,0-0.2,0c-0.5,0-1,0-1.5-0.1c-0.9-0.1-1.7-0.2-2.6-0.4
		c-1.5-0.4-3-1-4.4-1.7c-1.4-0.8-2.7-1.8-3.8-2.9c-1.6-1.6-3-3.4-3.9-5.4c-0.9-1.9-1.3-3.8-1.5-5.8C57.3,81.3,57.2,81,57.2,80.7z
		 M71.4,69.2c0,0.1,0,0.2,0,0.4c0.1,0.5,0.2,1,0.2,1.5c0.1,1,0.3,2,0.4,2.9c0.1,1,0.3,1.9,0.4,2.9c0.1,1,0.3,1.9,0.4,2.9
		c0.1,0.4,0.1,0.9,0.2,1.3c0.1,0.9,0.2,1.9,0.4,2.8c0.1,0.4,0.1,0.8,0.3,1.1c0.5,1.1,1.6,1.4,2.5,0.8c0.5-0.3,0.7-0.7,0.8-1.2
		c0.1-0.7,0.2-1.4,0.3-2.1c0.1-1,0.3-2.1,0.4-3.1c0.1-0.9,0.3-1.8,0.4-2.7c0.1-1,0.3-2.1,0.4-3.1c0.1-0.8,0.2-1.6,0.3-2.4
		c0.1-0.6,0.1-1.1,0.2-1.7c0.1-0.5,0.1-1-0.1-1.5c-0.5-1.2-1.4-1.9-2.5-2.3c-0.6-0.2-1.3-0.3-1.9-0.1c-0.6,0.1-1.1,0.4-1.5,0.7
		C72,67.1,71.4,68,71.4,69.2z M75.3,93.4c1.3,0,2.3-1,2.3-2.3c0-1.2-1-2.3-2.3-2.3c-1.2,0-2.3,1-2.3,2.3C73,92.4,74,93.4,75.3,93.4z
		"/>
</g>
</svg>
