<?xml version="1.0" encoding="utf-8"?>
<!-- Generator: Adobe Illustrator 18.0.0, SVG Export Plug-In . SVG Version: 6.00 Build 0)  -->
<!DOCTYPE svg PUBLIC "-//W3C//DTD SVG 1.1//EN" "http://www.w3.org/Graphics/SVG/1.1/DTD/svg11.dtd">
<svg version="1.1" id="Layer_1" xmlns="http://www.w3.org/2000/svg" xmlns:xlink="http://www.w3.org/1999/xlink" x="0px" y="0px"
	 viewBox="0 0 70 70" enable-background="new 0 0 70 70" xml:space="preserve">
<g>
	<path fill="#FFFFFF" d="M29.6,14c-0.2,0.2-0.4,0.4-0.6,0.5c-9,9-17.9,17.9-26.9,26.9c-0.1,0.1-0.2,0.2-0.3,0.3
		c-1.6,1.7-1.5,4.4,0.2,6c1.7,1.6,4.3,1.5,6.1-0.2c8.6-8.6,17.1-17.1,25.7-25.7c0.2-0.2,0.4-0.3,0.6-0.4
		C32.7,18.9,31.2,16.5,29.6,14z M26,1.7c-2.7,0-6.3,0.6-8.5,1.6c-0.3,0.1-0.5,0.5-0.5,0.7c0,0.2,0.4,0.5,0.6,0.6
		c1.3,0.4,2.7,0.8,4.1,1.2c2.6,0.9,5.2,1.8,7.6,3.4c1.2,0.8,2.1,1.7,1.8,3.3c-0.1,0.6-0.1,1.3,0.4,1.9c0.9,1.3,1.8,2.6,2.6,4
		c0.6,1.2,1.5,1.9,2.8,2.1c0.7,0.1,1,0.5,1.1,1.2c0.3,2.2,1.1,4,3.2,4.9c0,0,0.1,0.1,0.1,0.1c0.5,0.4,0.9,0.3,1.4-0.1
		c0.9-1,1.9-2,2.8-3c1.6-1.7,3.1-3.4,4.7-5.1c0.3-0.4,0.5-0.8,0.1-1.2c-1.3-1.2-2.4-2.6-4.2-3c-0.5-0.1-0.6-0.4-0.7-1
		c0-0.5-0.1-1.1-0.4-1.4c-2-1.9-4-3.9-6.1-5.6C34.9,3.5,30.6,1.7,26,1.7z"/>
	<path fill="#FFFFFF" d="M45.3,68.3c-1.5-0.1-3.1-0.1-4.6-0.2c-2.9-0.3-5.7-0.5-8.6-0.9c-2-0.3-4-0.7-6-1.1c-0.2,0-0.4-0.1-0.5-0.2
		c-1.3-0.5-1.7-1.1-1.5-2.5c0.4-2.8,1.1-5.5,2.6-7.9c0.9-1.6,2.2-2.8,3.9-3.6c3.3-1.5,6.6-3.1,9.9-4.7c0.2-0.1,0.4-0.2,0.4-0.2
		c-0.6-1.2-1.3-2.4-1.8-3.6c-0.3-1-1-1.7-1.5-2.5c-1.2-1.8-1.8-3.7-1.5-5.9c0-0.4,0.2-0.9,0.5-1c0.5-0.3,0.5-0.6,0.5-1
		c0-1.6,0-3.2,0.1-4.8c0-0.6,0.3-1.2,0.4-1.8c0.9,0.6,1.6,1.2,2.5,1.8c1.5,0.9,2.5,0.8,3.8-0.5c1.8-1.9,3.6-3.9,5.4-5.8
		c0.4-0.4,0.7-0.5,1.2-0.3c3.6,1.1,5.7,4.3,5.8,7.9c0,1.3,0,2.6,0.1,3.8c0,0.2,0.2,0.4,0.3,0.6c0.2,0.4,0.5,0.7,0.5,1.1
		c0.4,2.6-0.6,4.9-2.2,6.9c-0.2,0.3-0.4,0.6-0.5,1c-0.4,1.5-1.1,2.8-2.2,4c0.7,0.4,1.3,0.8,2,1.1c2.2,1,4.4,2,6.6,3.1
		c1.9,0.9,3.9,1.6,5.2,3.5c1.4,2,2.3,4.2,2.8,6.6c0.2,0.9,0.3,1.9,0.4,2.8c0.1,1-0.4,1.6-1.2,1.8c-1.2,0.4-2.4,0.8-3.6,1
		c-2,0.4-4,0.7-5.9,0.9c-3.2,0.3-6.3,0.5-9.5,0.7c-0.3,0-0.5,0.1-0.8,0.1C47.3,68.3,46.3,68.3,45.3,68.3z"/>
	<path fill="#FFFFFF" d="M29.6,14c1.6,2.5,3.2,4.9,4.8,7.4c-0.2,0.1-0.4,0.2-0.6,0.4C25.2,30.4,16.7,39,8.1,47.5
		c-1.8,1.8-4.3,1.9-6.1,0.2c-1.7-1.6-1.8-4.3-0.2-6c0.1-0.1,0.2-0.2,0.3-0.3c9-9,17.9-17.9,26.9-26.9C29.2,14.4,29.3,14.2,29.6,14z"
		/>
	<path fill="#FFFFFF" d="M26,1.7c4.6,0,8.9,1.8,12.7,4.8c2.2,1.7,4.1,3.7,6.1,5.6c0.3,0.3,0.4,0.9,0.4,1.4c0,0.5,0.2,0.8,0.7,1
		c1.8,0.5,3,1.8,4.2,3c0.4,0.4,0.3,0.8-0.1,1.2c-1.6,1.7-3.1,3.4-4.7,5.1c-0.9,1-1.9,2-2.8,3c-0.4,0.5-0.9,0.6-1.4,0.1
		c0,0-0.1-0.1-0.1-0.1c-2.1-1-2.9-2.8-3.2-4.9c-0.1-0.7-0.4-1.1-1.1-1.2c-1.3-0.2-2.2-1-2.8-2.1c-0.8-1.4-1.7-2.7-2.6-4
		c-0.4-0.6-0.5-1.3-0.4-1.9c0.3-1.6-0.6-2.5-1.8-3.3c-2.3-1.6-4.9-2.5-7.6-3.4c-1.3-0.4-2.7-0.8-4.1-1.2c-0.3-0.1-0.6-0.4-0.6-0.6
		c0-0.2,0.3-0.6,0.5-0.7C19.6,2.4,23.2,1.7,26,1.7z"/>
</g>
</svg>
