<?xml version="1.0" encoding="utf-8"?>
<!-- Generator: Adobe Illustrator 18.0.0, SVG Export Plug-In . SVG Version: 6.00 Build 0)  -->
<!DOCTYPE svg PUBLIC "-//W3C//DTD SVG 1.1//EN" "http://www.w3.org/Graphics/SVG/1.1/DTD/svg11.dtd">
<svg version="1.1" id="Capa_1" xmlns="http://www.w3.org/2000/svg" xmlns:xlink="http://www.w3.org/1999/xlink" x="0px" y="0px"
	 viewBox="0 0 380 380" enable-background="new 0 0 380 380" xml:space="preserve">
<g>
	<g>
		<circle fill="#FFFFFF" cx="300.4" cy="39.8" r="39.2"/>
		<path fill="#FFFFFF" d="M326.5,88.4c-0.7-0.4-1.4-0.7-2-1c-4.4-2.9-9.3-5.1-14.3-6.3l-9.8,9.8l-9.5-9.9h-0.1
			c-5.1,1.2-10.1,3.4-14.6,6.4c-0.7,0.3-1.4,0.6-2,1c-10.2,6.3-18.8,16.2-27,25.7c-18.8,21.9-27.2,28.2-39.4,22.5
			c-7.6-3.6-16.7-0.3-20.2,7.3c-3.6,7.6-0.3,16.7,7.3,20.2c7.5,3.5,14.4,5,21,5c18.3,0,33-11.8,44.5-23.9v56.6
			c0,4.1,0.8,7.9,2.2,11.4c-0.1,0.8-0.2,1.6-0.2,2.4v145.8c0,9.9,8.1,18,18,18s18-8.1,18-18V236.4c0.7,0,1.4,0.1,2.1,0.1
			c0.1,0,0.3,0,0.4,0v125.1c0,9.9,8.1,18,18,18l0,0c9.9,0,18-8.1,18-18V216.7c2.4-4.4,3.7-9.3,3.7-14.7v-49
			c3.5,12.9,5,30.1,3.1,53.8c-0.7,8.4,5.6,15.7,14,16.4c0.4,0,0.8,0,1.2,0c7.9,0,14.5-6.1,15.2-14
			C380.1,132.4,354.7,105.8,326.5,88.4z M300.3,168.6l-9.4-12.9l9.5-63.2h0.2l9.5,63.2l-9.5,12.9H300.3z"/>
		<path fill="#FFFFFF" d="M58,265.3l-37.1,38.6V369c0,1.8,1.5,3.3,3.3,3.3h45.1c1.8,0,3.3-1.5,3.3-3.3V269l-10.4-3.8H58L58,265.3z"
			/>
		<path fill="#FFFFFF" d="M149.8,295.5h-45.1c-1.8,0-3.3,1.5-3.3,3.3V369c0,1.8,1.5,3.3,3.3,3.3h45.1c1.8,0,3.3-1.5,3.3-3.3v-70.2
			C153.1,297,151.6,295.5,149.8,295.5z"/>
		<path fill="#FFFFFF" d="M223.1,226.8c-2.8,0-5.6-1-7.8-2.8l-8.2-6.8l-29.6,32.3v119.6c0,1.8,1.5,3.3,3.3,3.3h45.1
			c1.8,0,3.3-1.5,3.3-3.3v-144c-0.2,0.1-0.3,0.2-0.5,0.3C227,226.3,225,226.8,223.1,226.8z"/>
		<path fill="#FFFFFF" d="M131.3,280c2.5,0.9,5.4,0.2,7.2-1.7l68.4-74.6l16,13.4c0.8,0.6,1.9,0.8,2.8,0.3c0.9-0.5,1.4-1.4,1.3-2.5
			l-3.5-38.8c-0.1-1.4-1.3-2.4-2.7-2.3l-38.8,3.5c-1,0.1-1.9,0.8-2.2,1.8c-0.1,0.3-0.1,0.6-0.1,1c0.1,0.7,0.4,1.3,0.9,1.7l16,13.4
			l-64.9,70.7l-74.1-27.2c-2.5-0.9-5.3-0.3-7.1,1.6L5,287.6c-2.5,2.6-2.5,6.9,0.2,9.4c1.3,1.2,2.9,1.9,4.6,1.9s3.5-0.7,4.8-2
			L57,252.7L131.3,280z"/>
	</g>
</g>
</svg>
