<?xml version="1.0" encoding="utf-8"?>
<!-- Generator: Adobe Illustrator 19.2.0, SVG Export Plug-In . SVG Version: 6.00 Build 0)  -->
<svg version="1.1" id="Capa_1" xmlns="http://www.w3.org/2000/svg" xmlns:xlink="http://www.w3.org/1999/xlink" x="0px" y="0px"
	 viewBox="0 0 380 380" style="enable-background:new 0 0 380 380;" xml:space="preserve">
<style type="text/css">
	.st0{fill:#FFFFFF;}
</style>
<g>
	<g>
		<path class="st0" d="M126.2,260.7l-36.3,29.8v50.3c0,1.4,1.5,2.5,3.2,2.5h44.1c1.8,0,3.2-1.2,3.2-2.5v-77.2l-10.2-2.9L126.2,260.7
			L126.2,260.7z"/>
		<path class="st0" d="M216.1,284h-44.1c-1.8,0-3.2,1.2-3.2,2.5v54.2c0,1.4,1.5,2.5,3.2,2.5h44.1c1.8,0,3.2-1.2,3.2-2.5v-54.2
			C219.3,285.1,217.8,284,216.1,284z"/>
		<path class="st0" d="M287.8,230.9c-2.7,0-5.5-0.8-7.6-2.2l-8-5.3l-29,24.9v92.3c0,1.4,1.5,2.5,3.2,2.5h44.1c1.8,0,3.2-1.2,3.2-2.5
			V229.6c-0.2,0.1-0.3,0.2-0.5,0.2C291.6,230.5,289.7,230.9,287.8,230.9z"/>
		<path class="st0" d="M198,257.2c2.4,0.7,5.3,0.2,7-1.3l66.9-57.6l15.7,10.3c0.8,0.5,1.9,0.6,2.7,0.2c0.9-0.4,1.4-1.1,1.3-1.9
			l-3.4-30c-0.1-1.1-1.3-1.9-2.6-1.8l-38,2.7c-1,0.1-1.9,0.6-2.2,1.4c-0.1,0.2-0.1,0.5-0.1,0.8c0.1,0.5,0.4,1,0.9,1.3l15.7,10.3
			l-63.5,54.6l-72.5-21c-2.4-0.7-5.2-0.2-6.9,1.2l-44.5,36.5c-2.4,2-2.4,5.3,0.2,7.3c1.3,0.9,2.8,1.5,4.5,1.5s3.4-0.5,4.7-1.5
			l41.5-34.1L198,257.2z"/>
	</g>
	<path class="st0" d="M35.2,380c-4.2,0-7.7-3.6-7.7-8V98.7c0.1-0.5,0.2-0.9,0.2-1.3c0-0.2,0.1-0.4,0.1-0.6l0.3-1l0-0.2
		c0.3-0.6,0.7-1.2,0.9-1.5l0.2-0.2l77.8-91.7l0.1-0.2c0.2-0.2,0.7-0.5,1-0.7l0.3-0.2c0.1,0,0.1-0.1,0.2-0.1c0.2-0.1,0.5-0.2,0.7-0.3
		c0.3-0.1,0.6-0.3,1-0.4l1.1-0.4c0.3,0,0.8,0,1,0h232.2c4.4,0,7.7,3.3,7.7,7.7v364.7c0,4.4-3.3,7.6-7.7,7.6H35.2z M42.9,364.7h294.3
		V15.3H120.3v83.6c0,4.4-3.3,7.7-7.6,7.7H42.9V364.7z M51.6,91.6h53.4v-63L51.6,91.6z"/>
	<path class="st0" d="M170.3,84.7c-4.4,0-7.7-3.3-7.7-7.7c0-4.4,3.3-7.7,7.7-7.7h119.4c4.4,0,7.7,3.3,7.7,7.7c0,4.4-3.3,7.7-7.7,7.7
		H170.3z"/>
	<path class="st0" d="M90.3,151.6c-4.4,0-7.7-3.3-7.7-7.7c0-4.4,3.3-7.6,7.7-7.6h199.4c4.2,0,7.7,3.5,7.7,7.6c0,4.4-3.3,7.7-7.7,7.7
		H90.3z"/>
	<path class="st0" d="M144.1,119c-4,0-7.1-3.3-7.1-7.7c0-4.4,3-7.6,7.1-7.6h146.3c3.8,0,7.1,3.5,7.1,7.6c0,4.4-3,7.7-7.1,7.7H144.1z
		"/>
</g>
</svg>
