<?xml version="1.0" encoding="utf-8"?>
<!-- Generator: Adobe Illustrator 23.0.2, SVG Export Plug-In . SVG Version: 6.00 Build 0)  -->
<svg version="1.1" id="Layer_1" xmlns="http://www.w3.org/2000/svg" xmlns:xlink="http://www.w3.org/1999/xlink" x="0px" y="0px"
	 viewBox="0 0 150 150" style="enable-background:new 0 0 150 150;" xml:space="preserve">
<style type="text/css">
	.st0{fill:#FFFFFF;}
</style>
<g>
	<path class="st0" d="M99.3,47.4c0.9,0,1.7-0.3,2.1-0.9c0.6-0.6,1-1.4,1-2.3c0-0.9-0.3-1.7-1-2.3c-2.3-2.2-3.7-5-3.9-8.1
		c0.3-3,1.7-5.7,3.9-7.5c3.9-2.9,6.2-7.4,6.4-12.2c-0.2-4.9-2.4-9.5-6.1-12.8c-0.6-0.6-1.4-1-2.3-1c-0.9,0-1.7,0.3-2.3,1
		c-0.6,0.6-1,1.4-1,2.3c0,0.9,0.3,1.7,1,2.3c2.3,2.2,3.7,5,3.9,8.1c-0.3,3-1.7,5.7-3.9,7.5c-3.8,2.9-6.1,7.4-6.4,12.2
		c0.3,4.9,2.5,9.5,6.1,12.8C97.8,47.4,98.3,47.4,99.3,47.4z"/>
	<path class="st0" d="M68.9,21.2c-3.6,3.3-5.8,7.8-6.1,12.6c0.3,4.9,2.5,9.5,6.1,12.8c0.9,0.9,1.5,0.9,2.5,0.9h0l0.1,0
		c0.9-0.1,1.7-0.4,2.4-0.9c0.6-0.6,1-1.4,1-2.3c0-0.9-0.3-1.7-1-2.3c-2.3-2.2-3.7-5-3.9-8.1c0.3-3,1.7-5.7,3.9-7.5
		c3.5-3.2,5.6-7.8,5.7-12.6c-0.2-4.9-2.4-9.5-6.1-12.8c-0.6-0.6-1.4-1-2.3-1c-0.9,0-1.7,0.3-2.3,1c-0.6,0.6-1,1.4-1,2.3
		c0,0.9,0.3,1.7,1,2.3c2.3,2.2,3.7,5,3.9,8.1C72.5,16.7,71.1,19.3,68.9,21.2z"/>
	<path class="st0" d="M56.5,115.3C38.8,112.1,30,102.5,26.1,82c-0.5-1.5-1.8-2.5-3.4-2.5c-0.1,0-0.2,0-0.3,0l-0.1,0
		c-1.7,0.5-2.8,2.2-2.5,4.1c4.2,23,15.2,34.8,35.9,38.3l0.5,0c0.1,0,0.2,0,0.3,0c1.6,0,2.9-1.1,3.1-2.7
		C59.6,117.5,58.4,116,56.5,115.3z"/>
	<path class="st0" d="M120.7,116.4c16.5-2.6,28.3-17,27.5-33.6c0.7-9-4.6-17.6-12.9-20.9c-0.3-3.1-2.7-5.4-5.9-5.7l-116.6,0
		c-1.6,0.1-2.9,0.7-4,1.8c-1.2,1-1.8,2.5-1.8,4.1c0.3,25.7,4.1,53.5,30.1,65.8H9c-2,0.1-3.8,0.8-5.1,2.2c-1.4,1.4-2.1,3.2-2,5.2
		c-0.1,3.5,2.6,6.6,6.1,6.9l32.2,2.3c0.5,0.1,1.1,0.4,1.4,0.9c1.3,2.7,4,4.5,7.1,4.6h42.2l0.3,0c3,0,5.7-1.8,6.9-4.6
		c0.2-0.5,0.7-0.8,1.3-0.8l34.5-2.3l0.4,0c3.5-0.4,6.1-3.3,6.1-6.9c-0.1-4-3.3-7.2-7.3-7.2l-27.7,0
		C111.4,125.3,116.5,121.3,120.7,116.4z M134.3,135.2C134.3,135.2,134.3,135.2,134.3,135.2c-0.2,0.3-0.3,0.4-0.9,0.4l-34.3,2.6
		c-2.8,0.4-5.3,2.1-6.6,4.4c-0.5,0.5-1,1-1.4,1l-42.5,0c-0.5-0.1-1.1-0.4-1.4-0.9c-1.4-2.5-3.9-4.2-6.7-4.5l-31.4-2.6
		c-0.5-0.1-0.7-0.2-0.7-0.2c0,0,0,0,0,0c0.1-0.5,0.4-0.9,0.8-0.9l124.1,0C133.8,134.6,134.2,134.8,134.3,135.2z M71.2,128.2
		c-23.1,0-38.7-6.6-47.7-20.1c-8.7-13.1-9.9-31-10-45.2h115.6C128.4,96.8,120.8,128.2,71.2,128.2z M141.8,82.9
		c0.5,10.6-5.2,20.2-14.6,24.8c5.4-12,8.3-25.2,8.4-38.3C139.8,72.4,142.2,77.6,141.8,82.9z"/>
	<path class="st0" d="M45.8,47.4c0.9,0,1.7-0.3,2.1-0.9c0.6-0.6,1-1.4,1-2.3c0-0.9-0.3-1.7-1-2.3c-2.3-2.2-3.7-5-3.9-8.1
		c0.3-3,1.7-5.7,3.9-7.5c3.9-2.9,6.2-7.4,6.4-12.2c-0.2-5-2.4-9.6-6.1-12.8c-0.6-0.6-1.4-1-2.3-1s-1.7,0.3-2.3,1
		c-0.6,0.6-1,1.4-1,2.3c0,0.9,0.3,1.7,1,2.3c2.3,2.2,3.7,5,3.9,8.1c-0.3,3-1.7,5.7-3.9,7.5c-3.5,2.9-5.9,7.4-6.4,12.2
		c0.3,4.9,2.5,9.5,6.1,12.8C44.2,47.4,44.8,47.4,45.8,47.4z"/>
</g>
</svg>
