<?xml version="1.0" encoding="utf-8"?>
<!-- Generator: Adobe Illustrator 23.0.2, SVG Export Plug-In . SVG Version: 6.00 Build 0)  -->
<svg version="1.1" id="Layer_1" xmlns="http://www.w3.org/2000/svg" xmlns:xlink="http://www.w3.org/1999/xlink" x="0px" y="0px"
	 viewBox="0 0 150 150" style="enable-background:new 0 0 150 150;" xml:space="preserve">
<style type="text/css">
	.st0{fill:#0D638F;}
</style>
<path id="Path_3994" class="st0" d="M133.5,129.5h-31.3c7.2-2.9,13.6-7.4,18.6-13.4c16.3-2.4,28.2-16.8,27.4-33.3
	c0.7-9-4.6-17.4-13-20.5V62c-0.2-2.8-2.4-5-5.2-5.2H12.2c-1.4,0.1-2.6,0.6-3.6,1.6C7.6,59.3,7,60.6,7,62
	c0.3,27.7,4.9,56.1,33.3,67.2h-32c-3.7,0.1-6.6,3.1-6.5,6.7v0.1c-0.1,3.2,2.3,5.9,5.5,6.2l32.6,2.3c0.8,0.1,1.5,0.6,2,1.3
	c1.2,2.5,3.7,4.1,6.5,4.2h42.7c2.8,0.1,5.4-1.6,6.5-4.2c0.3-0.8,1.1-1.3,2-1.3l34.9-2.3h0.3c3.2-0.4,5.5-3,5.5-6.2
	C140.2,132.3,137.2,129.4,133.5,129.5L133.5,129.5z M135.4,67.9c5.2,3.1,8.3,8.9,7.8,15c0.6,11.7-6.4,22.5-17.3,26.7
	c0.3-0.3,0.3-0.7,0.7-1C132.5,95.8,135.5,81.9,135.4,67.9L135.4,67.9z M12.2,62h118.3c-0.7,34.9-8.1,67.5-59.3,67.5
	C19.7,129.5,12.2,96.9,12.2,62L12.2,62z M134.1,137l-34.6,2.6c-2.6,0.4-4.9,1.9-6.2,4.2c-0.7,0.7-1.3,1.3-2,1.3h-43
	c-0.8-0.1-1.5-0.6-2-1.3c-1.3-2.3-3.6-3.9-6.2-4.2L8.3,137C7,136.7,7,136.3,7,136c0.1-0.9,0.8-1.6,1.6-1.6h125.5
	c0.9,0.1,1.6,0.8,1.6,1.6C135.4,136.3,135.4,137,134.1,137z M63.4,33.3c0.3,4.7,2.4,9.2,5.9,12.4c0.7,0.7,1,0.7,2,0.7
	c0.7-0.1,1.4-0.3,2-0.7c1-1,1-2.6,0-3.6c-2.5-2.3-4-5.4-4.2-8.8c0.3-3.2,1.8-6.1,4.2-8.1c3.4-3.1,5.4-7.5,5.5-12.1
	c-0.2-4.8-2.3-9.2-5.9-12.4c-1-1-2.6-1-3.6,0s-1,2.6,0,3.6c2.5,2.3,4,5.4,4.2,8.8c-0.3,3.2-1.8,6.1-4.2,8.1
	C65.8,24.4,63.7,28.7,63.4,33.3z M91.7,33.3c0.3,4.7,2.4,9.2,5.9,12.4c0.7,0.7,1,0.7,2,0.7c0.6,0,1.2-0.2,1.6-0.7c1-1,1-2.6,0-3.6
	c-2.5-2.3-4-5.4-4.2-8.8c0.3-3.2,1.8-6.1,4.2-8.1c3.7-2.8,6-7.1,6.2-11.7c-0.2-4.8-2.3-9.2-5.9-12.4c-1-1-2.6-1-3.6,0s-1,2.6,0,3.6
	c2.5,2.3,4,5.4,4.2,8.8c-0.3,3.2-1.8,6.1-4.2,8.1C94.3,24.4,92,28.7,91.7,33.3L91.7,33.3z M37.6,33.3c0.3,4.7,2.4,9.2,5.9,12.4
	c0.7,0.7,1,0.7,2,0.7c0.6,0,1.2-0.2,1.6-0.7c1-1,1-2.6,0-3.6c-2.5-2.3-4-5.4-4.2-8.8c0.3-3.2,1.8-6.1,4.2-8.1
	c3.7-2.8,6-7.1,6.2-11.7C53.1,8.7,51,4.2,47.4,1.1c-1-1-2.6-1-3.6,0s-1,2.6,0,3.6c2.5,2.3,4,5.4,4.2,8.8c-0.3,3.2-1.8,6.1-4.2,8.1
	C40.3,24.5,38.1,28.8,37.6,33.3L37.6,33.3z M56.2,116.5c-18.3-3.3-27.4-13.4-31.3-34.2c-0.4-1.3-1.6-2.1-2.9-2
	c-1.4,0.4-2.2,1.8-2,3.3c4.2,23.1,15,34.6,35.5,38.1h0.6c1.2,0.1,2.4-0.7,2.6-2C58.7,118.2,57.6,117,56.2,116.5z"/>
</svg>
