<svg xmlns="http://www.w3.org/2000/svg" width="25.299" height="26.026" viewBox="0 0 25.299 26.026">
  <g id="Group_27" data-name="Group 27" transform="translate(-0.035)">
    <path id="Path_17" data-name="Path 17" d="M107.872,3.4A11.544,11.544,0,0,0,99.657,0,.659.659,0,0,0,99,.657a.651.651,0,0,0,.657.657h0a10.322,10.322,0,0,1,10.318,10.318.657.657,0,0,0,1.314,0A11.6,11.6,0,0,0,107.872,3.4Z" transform="translate(-85.957 0)" fill="#00a186"/>
    <path id="Path_18" data-name="Path 18" d="M104.668,47.825a.657.657,0,1,0,1.314,0A6.131,6.131,0,0,0,99.857,41.7a.657.657,0,1,0,0,1.314A4.813,4.813,0,0,1,104.668,47.825Z" transform="translate(-86.131 -36.219)" fill="#00a186"/>
    <path id="Path_19" data-name="Path 19" d="M16.145,43.111h-.131a2.651,2.651,0,0,0-2.143,1.38.7.7,0,0,0-.105.486.65.65,0,0,0,.276.421.615.615,0,0,0,.368.118.645.645,0,0,0,.539-.289c.368-.539.631-.815,1.065-.815h.079A11.931,11.931,0,0,1,20.68,47.79a1.267,1.267,0,0,1,0,.881,3.547,3.547,0,0,1-1.774,2.208,2.8,2.8,0,0,1-1.157.237,3.985,3.985,0,0,1-1.5-.315A27.173,27.173,0,0,1,7.4,45.043,26.736,26.736,0,0,1,1.66,36.21a3.348,3.348,0,0,1-.079-2.655A3.589,3.589,0,0,1,3.789,31.78a1.537,1.537,0,0,1,.46-.079,1.32,1.32,0,0,1,.434.079,11.846,11.846,0,0,1,3.365,4.6c.026.46-.25.736-.815,1.117a.668.668,0,0,0-.276.421.662.662,0,0,0,.644.776.615.615,0,0,0,.368-.118,2.568,2.568,0,0,0,1.38-2.261c-.079-1.367-2.958-5.284-4.219-5.757a2.469,2.469,0,0,0-.868-.158,3.009,3.009,0,0,0-.881.145A4.814,4.814,0,0,0,.4,33.016a4.578,4.578,0,0,0,.053,3.694,28.26,28.26,0,0,0,6.033,9.267l.013.013a28.034,28.034,0,0,0,9.254,6.02,5.347,5.347,0,0,0,2,.421,3.9,3.9,0,0,0,1.7-.368A4.76,4.76,0,0,0,21.9,49.091a2.573,2.573,0,0,0-.013-1.748C21.429,46.068,17.5,43.19,16.145,43.111Z" transform="translate(0 -26.404)" fill="#00a186"/>
  </g>
</svg>
