<?xml version="1.0" encoding="utf-8"?>
<!-- Generator: Adobe Illustrator 19.2.0, SVG Export Plug-In . SVG Version: 6.00 Build 0)  -->
<svg version="1.1" id="Layer_1" xmlns="http://www.w3.org/2000/svg" xmlns:xlink="http://www.w3.org/1999/xlink" x="0px" y="0px"
	 viewBox="0 0 40 40" style="enable-background:new 0 0 40 40;" xml:space="preserve">
<style type="text/css">
	.st0{fill:#FFFFFF;}
</style>
<g>
	<g>
		<path class="st0" d="M28.6,26.7v-4.1c0-0.2-0.2-0.4-0.4-0.4s-0.4,0.2-0.4,0.4v4.1c-0.6,0.1-1,0.6-1.2,1.2h-2.9
			c-0.2,0-0.4,0.2-0.4,0.4c0,0.2,0.2,0.4,0.4,0.4h2.9c0.2,0.7,0.8,1.2,1.6,1.2c0.9,0,1.6-0.7,1.6-1.6C29.8,27.5,29.3,26.9,28.6,26.7
			L28.6,26.7z M28.2,29.1c-0.4,0-0.8-0.4-0.8-0.8c0-0.4,0.4-0.8,0.8-0.8c0.4,0,0.8,0.4,0.8,0.8C29,28.7,28.7,29.1,28.2,29.1
			L28.2,29.1z M28.2,29.1"/>
		<path class="st0" d="M27.7,40c-6.8,0-12.3-5.5-12.3-12.3c0-6.8,5.5-12.3,12.3-12.3S40,20.9,40,27.7C40,34.5,34.5,40,27.7,40z
			 M27.7,17.2c-5.8,0-10.5,4.7-10.5,10.5s4.7,10.5,10.5,10.5s10.5-4.7,10.5-10.5S33.5,17.2,27.7,17.2z"/>
		<path class="st0" d="M27.7,20.9c-0.5,0-0.9-0.4-0.9-0.9v-0.4c0-0.5,0.4-0.9,0.9-0.9c0.5,0,0.9,0.4,0.9,0.9v0.4
			C28.6,20.6,28.2,20.9,27.7,20.9z"/>
		<path class="st0" d="M27.7,36.5c-0.5,0-0.9-0.4-0.9-0.9v-0.4c0-0.5,0.4-0.9,0.9-0.9c0.5,0,0.9,0.4,0.9,0.9v0.4
			C28.6,36.1,28.2,36.5,27.7,36.5z"/>
		<path class="st0" d="M35.3,28.5c-0.5,0-0.9-0.4-0.9-0.9c0-0.5,0.4-0.9,0.9-0.9h0.4c0.5,0,0.9,0.4,0.9,0.9c0,0.5-0.4,0.9-0.9,0.9
			H35.3z"/>
		<path class="st0" d="M19.8,28.5c-0.5,0-0.9-0.4-0.9-0.9c0-0.5,0.4-0.9,0.9-0.9h0.4c0.5,0,0.9,0.4,0.9,0.9c0,0.5-0.4,0.9-0.9,0.9
			H19.8z"/>
		<path class="st0" d="M33.1,23.2c-0.2,0-0.4-0.1-0.6-0.2c-0.3-0.3-0.3-0.9,0-1.2l0.3-0.3c0.2-0.2,0.4-0.2,0.6-0.2
			c0.2,0,0.4,0.1,0.6,0.3c0.3,0.3,0.3,0.9,0,1.2l-0.3,0.3C33.5,23.1,33.3,23.2,33.1,23.2z"/>
		<path class="st0" d="M22.1,34.1c-0.2,0-0.4-0.1-0.6-0.2c-0.3-0.3-0.3-0.9,0-1.2l0.3-0.3c0.2-0.2,0.4-0.2,0.6-0.2
			c0.2,0,0.4,0.1,0.6,0.3c0.3,0.3,0.3,0.9,0,1.2l-0.3,0.3C22.5,34,22.3,34.1,22.1,34.1z"/>
		<path class="st0" d="M33.3,34.1c-0.2,0-0.4-0.1-0.6-0.3l-0.3-0.3c-0.3-0.3-0.3-0.9,0-1.2c0.2-0.2,0.4-0.3,0.6-0.3
			c0.2,0,0.4,0.1,0.6,0.3l0.3,0.3c0.3,0.3,0.3,0.9,0,1.2C33.8,34,33.5,34.1,33.3,34.1z"/>
		<path class="st0" d="M22.4,23.2c-0.2,0-0.4-0.1-0.6-0.2l-0.3-0.3c-0.3-0.3-0.3-0.9,0-1.2c0.2-0.2,0.4-0.3,0.6-0.3s0.4,0.1,0.6,0.3
			l0.3,0.3c0.3,0.3,0.3,0.9,0,1.2C22.8,23.1,22.6,23.2,22.4,23.2z"/>
	</g>
	<path class="st0" d="M12.8,21.4c-3.5-0.5-6.3-3.6-6.3-7.2c0-4,3.3-7.3,7.3-7.3c3.6,0,6.6,2.6,7.2,6.1c-0.4,0.1-0.8,0.3-1.1,0.5
		c-0.4-3-3-5.3-6-5.3c-3.4,0-6.1,2.7-6.1,6.1c0,3.2,2.4,5.8,5.5,6.1C13.1,20.7,12.9,21,12.8,21.4z"/>
	<path class="st0" d="M14.4,39.2c-0.3,0-1.1,0-3.5-3c-1.5-1.8-3.1-4.1-4.6-6.6C3.9,25.9,0,19,0,14.4C0,6.5,6.5,0,14.4,0
		c7.2,0,13.2,5.3,14.2,12.3c-0.5,0-0.9-0.1-1.3-0.1c-0.1,0-0.2,0-0.3,0C26,6.1,20.6,1.5,14.4,1.5C7.3,1.5,1.5,7.3,1.5,14.4
		c0,3,2.1,8,5.6,13.9c3.2,5.2,5.9,8.4,6.9,9.2l0.3,0.2l0.3-0.2c0.3-0.3,0.7-0.7,1.2-1.3c0.3,0.4,0.7,0.8,1,1.2
		C15.2,39.2,14.7,39.2,14.4,39.2z"/>
</g>
</svg>
