<?xml version="1.0" encoding="utf-8"?>
<!-- Generator: Adobe Illustrator 19.2.0, SVG Export Plug-In . SVG Version: 6.00 Build 0)  -->
<svg version="1.1" id="Layer_1" xmlns="http://www.w3.org/2000/svg" xmlns:xlink="http://www.w3.org/1999/xlink" x="0px" y="0px"
	 viewBox="0 0 40 40" style="enable-background:new 0 0 40 40;" xml:space="preserve">
<style type="text/css">
	.st0{fill:#686868;}
	.st1{fill:#686868;stroke:#FFFFFF;stroke-width:0.1072;stroke-miterlimit:10;}
</style>
<g>
	<path class="st0" d="M33.6,20.4"/>
	<path class="st0" d="M18,37.7c-2.1,0-4.1-0.4-6-1.1c-4.4-1.6-8-4.9-10-9.1c-0.6-1.2-1-2.5-1.3-3.8C0,20.5,0.2,17.1,1.3,14
		c1.6-4.4,4.9-8,9.1-10c2.4-1.1,4.9-1.7,7.5-1.7c2.1,0,4.1,0.4,6,1.1c4.4,1.6,7.9,4.8,9.9,9l0.2,0.3l2.2-0.7c0,0,0.1,0,0.1,0
		c0,0,0,0.1,0,0.1l-1.9,4.6c-0.1,0.2-0.2,0.3-0.4,0.3l0,0c-0.1,0-0.2,0-0.2-0.1l-4.2-2.7c0,0-0.1,0-0.1-0.1c0,0,0,0,0.1,0l2.4-0.8
		l-0.2-0.5c-1.8-3.5-4.9-6.2-8.6-7.6c-1.7-0.6-3.5-0.9-5.3-0.9c-2.3,0-4.5,0.5-6.6,1.5c-3.8,1.8-6.7,4.9-8.1,8.8
		c-1,2.8-1.2,5.7-0.6,8.6c0.2,1.2,0.6,2.3,1.1,3.4c1.8,3.8,4.9,6.7,8.8,8.1c1.7,0.6,3.5,0.9,5.3,0.9c2.3,0,4.5-0.5,6.6-1.5l0.3-0.2
		c0.8-0.4,1.6-0.8,2.2-0.8c0.3,0,0.5,0.1,0.7,0.4c0.5,0.7,0.2,0.9-0.5,1.4l-0.1,0.1c-0.5,0.4-1.1,0.7-1.7,0.9
		C23.1,37.1,20.6,37.7,18,37.7z"/>
	<path class="st0" d="M10.7,27.4c-0.2,0-0.4-0.1-0.6-0.3C10,27,9.9,26.8,9.9,26.6c0-0.2-0.1-0.4,0-0.5l7-5.9V9.4
		c0-0.4,0.6-0.8,1-0.8c0.4,0,1,0.3,1,0.8v11.4l-7.8,6.4C11,27.3,10.8,27.4,10.7,27.4z"/>
	<path class="st1" d="M38.7,25.6"/>
	<g>
		<path class="st0" d="M33.4,28.4c-1.6,0-3-1.3-3-3s1.3-3,3-3s3,1.3,3,3S35.1,28.4,33.4,28.4z M33.4,23.7c-1,0-1.8,0.8-1.8,1.8
			c0,1,0.8,1.8,1.8,1.8s1.8-0.8,1.8-1.8C35.2,24.5,34.4,23.7,33.4,23.7z"/>
		<path class="st0" d="M32.9,32c-0.5,0-0.9-0.4-1-0.9l-0.1-0.7c-0.2-0.1-0.4-0.2-0.6-0.2l-0.6,0.4c-0.2,0.1-0.4,0.2-0.6,0.2
			c-0.3,0-0.5-0.1-0.7-0.3l-0.8-0.8c-0.4-0.4-0.4-0.9-0.1-1.3l0.4-0.6c-0.1-0.2-0.2-0.4-0.3-0.6L27.7,27c-0.5-0.1-0.9-0.5-0.9-1
			v-1.1c0-0.5,0.4-0.9,0.9-1l0.7-0.1c0.1-0.2,0.2-0.4,0.3-0.6l-0.4-0.6c-0.3-0.4-0.2-1,0.1-1.3l0.8-0.8c0.2-0.2,0.4-0.3,0.7-0.3
			c0.2,0,0.4,0.1,0.6,0.2l0.6,0.4c0.2-0.1,0.4-0.2,0.6-0.3l0.1-0.8c0.1-0.5,0.5-0.9,1-0.9H34c0.5,0,0.9,0.4,1,0.9l0.1,0.7
			c0.2,0.1,0.4,0.2,0.7,0.3l0.6-0.4c0.2-0.1,0.4-0.2,0.6-0.2c0.3,0,0.5,0.1,0.7,0.3l0.8,0.8c0.4,0.4,0.4,0.9,0.1,1.3l-0.4,0.6
			c0.1,0.2,0.2,0.4,0.3,0.6l0.7,0.1c0.5,0.1,0.9,0.5,0.9,1V26c0,0.5-0.4,0.9-0.9,1l-0.7,0.1c-0.1,0.2-0.2,0.4-0.3,0.6l0.4,0.6
			c0.3,0.4,0.2,1-0.1,1.3l-0.8,0.8c-0.2,0.2-0.5,0.3-0.7,0.3c-0.2,0-0.4-0.1-0.6-0.2l-0.6-0.4c-0.2,0.1-0.4,0.2-0.6,0.3L35,31.2
			c-0.1,0.5-0.5,0.9-1,0.9H32.9z M33.8,30.8l0.2-1c0-0.2,0.2-0.4,0.4-0.5c0.4-0.1,0.7-0.2,1-0.4c0.1-0.1,0.2-0.1,0.3-0.1
			c0.1,0,0.2,0,0.4,0.1l0.8,0.6l0.6-0.6l-0.6-0.8c-0.1-0.2-0.1-0.5,0-0.7c0.2-0.3,0.3-0.7,0.4-1c0.1-0.2,0.2-0.4,0.5-0.4l1-0.2V25
			l-1-0.2c-0.2,0-0.4-0.2-0.5-0.4c-0.1-0.4-0.2-0.7-0.4-1c-0.1-0.2-0.1-0.5,0-0.7l0.6-0.8l-0.6-0.6l-0.8,0.6C36,22,35.9,22,35.8,22
			c-0.1,0-0.2,0-0.3-0.1c-0.3-0.2-0.7-0.3-1.1-0.4C34.2,21.4,34,21.3,34,21l-0.2-1H33l-0.2,1c0,0.2-0.2,0.4-0.4,0.5
			c-0.4,0.1-0.7,0.2-1,0.4C31.3,22,31.1,22,31,22c-0.1,0-0.2,0-0.4-0.1l-0.8-0.6l-0.6,0.6l0.6,0.8c0.1,0.2,0.2,0.5,0,0.7
			c-0.2,0.3-0.3,0.7-0.4,1c-0.1,0.2-0.2,0.4-0.5,0.4l-1,0.2v0.8l1,0.2c0.2,0,0.4,0.2,0.5,0.4c0.1,0.4,0.2,0.7,0.4,1
			c0.1,0.2,0.1,0.5,0,0.7L29.4,29l0.6,0.6l0.8-0.6c0.1-0.1,0.2-0.1,0.3-0.1c0.1,0,0.2,0,0.3,0.1c0.3,0.2,0.7,0.3,1,0.4
			c0.2,0.1,0.4,0.2,0.4,0.5l0.2,1H33.8z"/>
	</g>
</g>
</svg>
