<?xml version="1.0" encoding="utf-8"?>
<!-- Generator: Adobe Illustrator 19.2.0, SVG Export Plug-In . SVG Version: 6.00 Build 0)  -->
<svg version="1.1" id="Layer_1" xmlns="http://www.w3.org/2000/svg" xmlns:xlink="http://www.w3.org/1999/xlink" x="0px" y="0px"
	 viewBox="0 0 100 100" style="enable-background:new 0 0 100 100;" xml:space="preserve">
<style type="text/css">
	.st0{fill:#FFFFFF;}
</style>
<g>
	<g>
		<path class="st0" d="M69.7,100c-0.1,0-0.2,0-0.2,0c-14.3,0-26.9-10.1-29.8-24c-0.4-2.4-0.6-4.5-0.6-6.4c0-1.2,0.1-2.3,0.2-3.4
			c1.7-14.6,13.5-25.9,28.2-26.8c0.8-0.1,1.5-0.1,2.1-0.1c2.4,0,4.6,0.2,6.9,0.8C90.3,43.2,100,55.4,100,69.7
			c0,8.2-3.2,15.8-8.9,21.5C85.4,96.9,77.8,100,69.7,100z M69.6,42.5c-0.6,0-1.1,0-1.6,0.1l-0.2,0C54.6,43.4,44,53.5,42.5,66.5
			c-0.1,1-0.2,2-0.2,3c0,1.7,0.2,3.6,0.6,5.8c2.6,12.3,13.8,21.4,26.6,21.4c7.3,0.1,14.2-2.7,19.3-7.8c5.1-5.1,8-11.9,8-19.2
			c0-12.7-8.6-23.6-21-26.5C73.7,42.8,71.7,42.5,69.6,42.5z"/>
	</g>
	<path class="st0" d="M35.8,48.1H38c1.1-1.5,2.2-3,3.5-4.3h-5.7c-1.2,0-2.2,1-2.2,2.2S34.6,48.1,35.8,48.1z"/>
	<path class="st0" d="M24.3,45.9c0,1.2-1,2.2-2.2,2.2h-7.3c-1.2,0-2.2-1-2.2-2.2s1-2.2,2.2-2.2h7.3C23.3,43.7,24.3,44.7,24.3,45.9
		L24.3,45.9z"/>
	<path class="st0" d="M24.3,60.8c0,1.2-1,2.2-2.2,2.2h-7.3c-1.2,0-2.2-1-2.2-2.2c0-1.2,1-2.2,2.2-2.2h7.3
		C23.3,58.6,24.3,59.6,24.3,60.8L24.3,60.8z"/>
	<path class="st0" d="M24.3,75.8c0,1.2-1,2.2-2.2,2.2h-7.3c-1.2,0-2.2-1-2.2-2.2c0-1.2,1-2.2,2.2-2.2h7.3
		C23.3,73.5,24.3,74.5,24.3,75.8L24.3,75.8z"/>
	<path class="st0" d="M38,87.8H7.6c-1.7,0-3-1.3-3-3v-51h90.9v8.1L100,45V17.2c0-4.1-3.4-7.5-7.5-7.5h-9.8V4.2
		c0-2.3-1.9-4.2-4.2-4.2h-6c-2.3,0-4.2,1.9-4.2,4.2v5.4H32.3V4.2c0-2.3-1.9-4.2-4.2-4.2h-6c-2.3,0-4.2,1.9-4.2,4.2v5.4H7.5
		C3.4,9.7,0,13.1,0,17.2v67.6c0,4.1,3.4,7.5,7.5,7.5h31.9L38,87.8z M72.7,4.6h5.6v13.3h-5.6V4.6z M22.3,4.6h5.6v13.3h-5.6V4.6z
		 M4.6,17.2c0-1.7,1.3-3,3-3h10.3v4c0,2.3,1.9,4.2,4.2,4.2h6c2.3,0,4.2-1.9,4.2-4.2v-4h35.8v4c0,2.3,1.9,4.2,4.2,4.2h6
		c2.3,0,4.2-1.9,4.2-4.2v-4h9.9c1.7,0,3,1.3,3,3v12.1H4.6V17.2z"/>
	<path class="st0" d="M37.9,58.6h-2.1c-1.2,0-2.2,1-2.2,2.2c0,1.2,1,2.2,2.2,2.2h0.9C37,61.5,37.4,60,37.9,58.6z"/>
	<path class="st0" d="M36.7,76.6c-0.2-1-0.3-2-0.4-2.9h-0.5c-1.2,0-2.2,1-2.2,2.2c0,1.2,1,2.2,2.2,2.2H37
		C36.9,77.5,36.8,77.1,36.7,76.6z"/>
	<g>
		<path class="st0" d="M80.9,89.7c-0.3,0-0.7,0-1,0l-1.6,0l-11.6,0c-1,0-1.3-0.3-1.3-1.3l0-0.4c0-0.4,0-0.7,0-1.1
			c0.1-0.7-0.2-1.2-0.8-1.4c-2.3-1-3.8-2.8-4.9-5.7c-0.4-1-1-1.9-2-2.7c-1.1-0.9-2.1-1.7-2.9-2.5c-0.6-0.5-1.2-1.3-0.8-2.4
			c0.5-1.1,1.5-1.3,2.3-1.4c0.1,0,0.3,0,0.4,0c1,0,2.1,0.3,3.4,0.9c0.8,0.4,1.6,0.8,2.4,1.2l0.6,0.3l0-17.1c0-1.9,1.4-3.4,3.3-3.4
			c1.9,0,3.3,1.5,3.3,3.4l0,8.6c0.6-0.2,1.2-0.4,1.7-0.4c1.1,0,2,0.5,2.7,1.5c0.6-0.4,1.3-0.6,2-0.6c0.1,0,0.3,0,0.4,0
			c0.9,0.1,1.7,0.5,2.3,1.2c0.6-0.4,1.2-0.6,1.8-0.6c1.7,0,3,1.3,3.4,2.5c0.6,1.4,0.6,2.8,0.7,4.2l0,0.2c0.2,3,0.3,6.2-0.3,9.4
			c-0.3,1.4-0.9,2.5-1.8,3.4c-0.7,0.7-1,1.3-0.9,2.1c0,0.1,0,0.3,0,0.4c0,0.1,0,0.2,0,0.3c0,0.4,0,0.7-0.2,0.9
			C81.6,89.6,81.3,89.7,80.9,89.7L80.9,89.7z M67.1,88c0,0,0.1,0,0.3,0c2.3,0,4.7,0,7,0l5.6,0c0.1,0,0.2,0,0.3,0
			c-0.2-1.7,0.7-2.8,1.7-3.9c0.4-0.4,0.7-1,0.8-1.7c0.6-2.4,0.6-4.8,0.5-7.2c-0.1-1.9-0.2-3.7-0.5-5.3c-0.2-1.1-0.7-1.8-1.5-2.1
			c-0.2-0.1-0.4-0.1-0.6-0.1c-0.5,0-0.9,0.2-1.1,0.7c0,0.1,0,0.1-0.1,0.2c-0.1,0.3-0.2,0.9-0.9,0.9c-0.8,0-0.9-0.7-0.9-1
			c0-0.1,0-0.2,0-0.2c-0.2-0.8-0.8-1.2-1.5-1.2c-0.9,0-1.5,0.5-1.6,1.3c0,0.2,0,0.4-0.2,0.6c-0.2,0.3-0.5,0.5-0.7,0.5
			c-0.3,0-0.7-0.3-0.8-0.6C73,68.6,73,68.3,73,68l0-0.3c0-0.9-0.6-1.5-1.6-1.5c-0.6,0-0.9,0.2-1.2,0.5c-0.3,0.3-0.4,0.7-0.4,1.2
			c0,0.4,0,0.6,0,0.9c-0.1,0.3-0.3,0.7-0.7,0.7c0,0,0,0,0,0c-0.4,0-0.7-0.3-0.9-0.5c-0.1-0.2-0.1-0.5-0.1-0.8c0-4,0-7.9,0-11.8
			c0-0.8-0.3-1.3-0.8-1.6c-0.2-0.1-0.5-0.2-0.8-0.2c-0.9,0-1.6,0.8-1.6,1.7l0,20c0,0.3,0,0.6-0.1,0.8c-0.1,0.2-0.3,0.3-0.4,0.5
			L64,78l-0.2-0.3c-0.3-0.3-0.5-0.4-0.5-0.7c-0.1-0.4,0-0.8,0-1.2c0-0.3-0.1-0.4-0.2-0.5c-0.4-0.2-0.9-0.5-1.3-0.7
			c-0.9-0.5-1.8-1-2.8-1.4c-0.8-0.3-1.7-0.4-2.6-0.5l0,0c-0.2,0-0.5,0.2-0.6,0.3c0,0,0,0,0,0c0.1,0,0.2,0.3,0.4,0.5
			c0.7,0.7,1.6,1.4,2.7,2.3c1.3,1,2.1,2.1,2.6,3.4c0.2,0.5,0.4,1,0.7,1.6c0.7,1.5,1.7,2.5,3,3.1c1.6,0.7,2.3,1.9,2.1,3.5
			c0,0.3,0,0.4,0,0.5C67.1,87.9,67.1,88,67.1,88L67.1,88z"/>
		<path class="st0" d="M62.5,63.2c-0.3,0-0.5,0-0.8,0c-0.7,0-1.4-0.1-2-0.2c-1.1-0.3-1.8-1.2-1.8-2.5c0-2.7,0-5.5,0-8.2
			c0-1.5,1.2-2.7,2.8-2.7c1.9,0,3.8,0,5.7,0c1.9,0,3.9,0,5.8,0c1.6,0,2.8,1.2,2.8,2.8c0,2.6,0,5.3,0,7.9c0,1.6-1.1,2.7-2.7,2.8
			c-0.2,0-0.5,0-0.7,0l-1.6,0v-1.7l2.1,0c0.8,0,1.2-0.4,1.2-1.2c0-2.6,0-5.2,0-7.8c0-0.8-0.4-1.2-1.2-1.2c-1.8,0-3.5,0-5.3,0
			c-2,0-3.9,0-5.9,0c-0.7,0-1.2,0.5-1.2,1.2c0,2.6,0,5.1,0,7.7c0,0.8,0.4,1.2,1.3,1.2l2,0v1.8L62.5,63.2z"/>
		<path class="st0" d="M70.8,59.7c-0.1,0-0.3,0-0.4-0.1c-0.3-0.2-0.7-0.6-0.3-1.3c0.6-1.3,0.6-2.5,0-3.8c-0.1-0.3-0.3-0.6-0.1-0.9
			c0.1-0.2,0.2-0.4,0.4-0.5c0.1-0.1,0.3-0.1,0.4-0.1c0.4,0,0.7,0.3,0.9,0.7c0.2,0.6,0.4,1.2,0.5,1.8l0.2,0.7l-0.2,0.9
			c-0.2,0.6-0.4,1.2-0.5,1.7C71.5,59.6,71.1,59.7,70.8,59.7z"/>
		<path class="st0" d="M62.1,59.7c-0.4,0-0.7-0.3-0.8-0.7c-0.2-0.6-0.4-1.2-0.6-1.8l-0.2-0.7l0.2-1c0.2-0.6,0.4-1.2,0.5-1.7
			c0.2-0.5,0.5-0.7,0.9-0.7c0.1,0,0.3,0,0.4,0.1c0.2,0.1,0.4,0.3,0.5,0.5c0.1,0.2,0,0.5-0.1,0.9c-0.7,1.3-0.7,2.5,0,3.8
			c0.1,0.2,0.2,0.5,0.1,0.8c-0.1,0.2-0.2,0.4-0.5,0.5C62.4,59.6,62.2,59.7,62.1,59.7z"/>
	</g>
</g>
</svg>
