<?xml version="1.0" encoding="utf-8"?>
<!-- Generator: Adobe Illustrator 23.0.3, SVG Export Plug-In . SVG Version: 6.00 Build 0)  -->
<svg version="1.1" id="Capa_1" xmlns="http://www.w3.org/2000/svg" xmlns:xlink="http://www.w3.org/1999/xlink" x="0px" y="0px"
	 viewBox="0 0 40 40" style="enable-background:new 0 0 40 40;" xml:space="preserve">
<style type="text/css">
	.st0{fill:#35C4FF;}
</style>
<g>
	<path class="st0" d="M33.7,0H6.3C5.1,0,4.1,1,4.1,2.1v35.7c0,1.2,1,2.1,2.1,2.1h27.5c1.2,0,2.1-1,2.1-2.1V2.1C35.9,1,34.9,0,33.7,0
		z M33.9,36.2c0,1.1-0.8,1.9-1.9,1.9H8c-1,0-1.9-0.9-1.9-1.9V3.8C6.1,2.7,7,1.9,8,1.9h24c1,0,1.9,0.9,1.9,1.9V36.2z"/>
	<g>
		<path class="st0" d="M20.7,9.5c0,0.7,0,1.3,0,2c0.1,0,0.3,0,0.4,0c2.1,0,4.3,0,6.4,0c1.6,0,2.3,0.7,2.3,2.3c0,0.1,0,0.2,0,0.3
			c0.6,0,1.3,0,1.9,0c0,1.8,0,3.5,0,5.2c-2.2,0-4.3,0-6.5,0c0-1.7,0-3.4,0-5.2c1.1,0,2.1,0,3.2,0c0-0.3,0-0.5,0-0.7
			c0-0.3-0.2-0.6-0.6-0.6c-2.4,0-4.8,0-7.3,0c0,0.4,0,0.8,0,1.3c0.8,0,1.7,0,2.6,0c0,1.8,0,3.5,0,5.2c-2.2,0-4.3,0-6.5,0
			c0-1.7,0-3.4,0-5.2c0.8,0,1.7,0,2.6,0c0-0.4,0-0.9,0-1.3c-0.1,0-0.3,0-0.4,0c-1.9,0-3.9,0-5.8,0c-0.9,0-1,0.1-1,1
			c0,0.1,0,0.2,0,0.3c0.9,0,1.7,0,2.6,0c0,1.8,0,3.5,0,5.2c-2.2,0-4.3,0-6.5,0c0-1.7,0-3.4,0-5.2c0.8,0,1.7,0,2.6,0
			c0-0.2,0-0.4,0-0.6c0-1.2,0.8-2,2-2c2,0,4,0,6,0c0.1,0,0.3,0,0.5,0c0-0.7,0-1.4,0-2c-1.6-0.8-2.2-1.8-1.9-3.2c0.3-1.2,1.3-2,2.5-2
			c1.2,0,2.3,0.8,2.5,2C22.9,7.7,22.3,8.7,20.7,9.5z M13.4,15.5c-1.3,0-2.6,0-3.9,0c0,0.9,0,1.7,0,2.6c1.3,0,2.6,0,3.9,0
			C13.4,17.2,13.4,16.3,13.4,15.5z M21.9,18.1c0-0.9,0-1.7,0-2.6c-1.3,0-2.6,0-3.9,0c0,0.9,0,1.7,0,2.6
			C19.4,18.1,20.6,18.1,21.9,18.1z M30.5,18.1c0-0.9,0-1.7,0-2.6c-1.3,0-2.6,0-3.9,0c0,0.9,0,1.7,0,2.6
			C27.9,18.1,29.2,18.1,30.5,18.1z M20,5.6c-0.7,0-1.3,0.6-1.3,1.3c0,0.7,0.6,1.3,1.3,1.3c0.7,0,1.3-0.6,1.3-1.3
			C21.3,6.2,20.7,5.6,20,5.6z"/>
		<path class="st0" d="M16.2,29.4c-0.4-0.4-1.4-0.6-2.7-0.7h-0.4V26h0.3c1,0,1.5,0.4,1.5,1.2v0.2h1.7v-0.2c0-1.1-0.2-1.7-0.7-2.1
			c-0.5-0.4-1.4-0.5-2.7-0.5v-1.1H12v1.1c-1.4,0-2.4,0.2-2.9,0.6c-0.5,0.4-0.7,1.2-0.7,2.2s0.2,1.9,0.7,2.2c0.5,0.4,1.5,0.6,2.9,0.6
			v2.9h-0.2c-0.7,0-1.2-0.1-1.4-0.3c-0.2-0.2-0.3-0.6-0.3-1.3v-0.2H8.3v0.3c-0.1,1.1,0.1,1.8,0.6,2.2c0.5,0.4,1.4,0.6,2.7,0.6h0.3
			v1.2h1.2v-1.2h0.3c1.3,0,2.1-0.2,2.7-0.6c0.5-0.4,0.7-1.3,0.7-2.4C16.8,30.5,16.6,29.8,16.2,29.4z M11.8,28.5c-0.1,0-0.2,0-0.2,0
			c-1.1,0-1.6-0.4-1.6-1.3c0-0.9,0.5-1.3,1.6-1.3h0.2V28.5z M13.4,33h-0.2l-0.1-2.8c0.7,0,1.3,0.1,1.6,0.2c0.2,0.2,0.4,0.5,0.4,1.1
			C15.1,32.5,14.6,33,13.4,33z"/>
		<path class="st0" d="M31.3,25.5H19.6c-0.3,0-0.5-0.2-0.5-0.5v-1.1c0-0.3,0.2-0.5,0.5-0.5h11.7c0.3,0,0.5,0.2,0.5,0.5V25
			C31.8,25.3,31.6,25.5,31.3,25.5z"/>
		<path class="st0" d="M31.3,35.7H19.6c-0.3,0-0.5-0.2-0.5-0.5v-1.1c0-0.3,0.2-0.5,0.5-0.5h11.7c0.3,0,0.5,0.2,0.5,0.5v1.1
			C31.8,35.5,31.6,35.7,31.3,35.7z"/>
		<path class="st0" d="M31.3,30.6H19.6c-0.3,0-0.5-0.2-0.5-0.5V29c0-0.3,0.2-0.5,0.5-0.5h11.7c0.3,0,0.5,0.2,0.5,0.5v1.1
			C31.8,30.4,31.6,30.6,31.3,30.6z"/>
	</g>
</g>
</svg>
