<?xml version="1.0" encoding="utf-8"?>
<!-- Generator: Adobe Illustrator 19.2.0, SVG Export Plug-In . SVG Version: 6.00 Build 0)  -->
<svg version="1.1" id="Layer_1" xmlns="http://www.w3.org/2000/svg" xmlns:xlink="http://www.w3.org/1999/xlink" x="0px" y="0px"
	 viewBox="0 0 100 100" style="enable-background:new 0 0 100 100;" xml:space="preserve">
<style type="text/css">
	.st0{fill:#FFFFFF;}
</style>
<g>
	<path class="st0" d="M100,75.8c0-11.5-8-21.1-18.7-23.6c-1.8-0.4-3.6-0.6-5.5-0.6c-0.5,0-1,0-1.6,0.1C62.5,52.4,53,61.5,51.7,73
		c-0.1,0.9-0.2,1.8-0.2,2.7c0,1.7,0.2,3.4,0.5,5.1c2.3,10.9,12,19.1,23.7,19.1C89.2,100,100,89.2,100,75.8L100,75.8z M75.8,91.8
		c-8.8,0-16-7.2-16-16c0-8.8,7.2-16,16-16c8.8,0,16,7.2,16,16C91.8,84.6,84.6,91.8,75.8,91.8L75.8,91.8z M75.8,91.8"/>
	<path class="st0" d="M78.9,64.8h-5.5v8.6h-8.6v5.5h14.1v-5.5V64.8z M78.9,64.8"/>
	<path class="st0" d="M18,0c-1.5,0-2.7,1.2-2.7,2.7v12.9c0,1.5,1.2,2.7,2.7,2.7h2.3c1.5,0,2.7-1.2,2.7-2.7V2.7C23,1.2,21.8,0,20.3,0
		H18z M18,0"/>
	<path class="st0" d="M60.9,0c-1.5,0-2.7,1.2-2.7,2.7v12.9c0,1.5,1.2,2.7,2.7,2.7h2.3c1.5,0,2.7-1.2,2.7-2.7V2.7
		C66,1.2,64.8,0,63.3,0H60.9z M60.9,0"/>
	<path class="st0" d="M6.2,80.9h38.7C44.5,79,44.3,77,44.3,75c0-0.7,0-1.3,0.1-2H11.7C9.1,73,7,71,7,68.4V30.9h67.2v14.5
		c0.5,0,1,0,1.6,0c1.9,0,3.7,0.2,5.5,0.5V15.2c0-3.5-2.8-6.3-6.2-6.3h-5.1v6.6c0,3.7-3,6.6-6.6,6.6h-2.3c-3.7,0-6.6-3-6.6-6.6V9H27
		v6.6c0,3.7-3,6.6-6.6,6.6H18c-3.7,0-6.6-3-6.6-6.6V9H6.2C2.8,9,0,11.8,0,15.2v59.4C0,78.1,2.8,80.9,6.2,80.9L6.2,80.9z M6.2,80.9"
		/>
	<path class="st0" d="M28.2,42.6c0,3.4-2.8,6.2-6.2,6.2c-3.4,0-6.2-2.8-6.2-6.2c0-3.4,2.8-6.2,6.2-6.2
		C25.4,36.4,28.2,39.2,28.2,42.6L28.2,42.6z M28.2,42.6"/>
	<path class="st0" d="M46.8,42.6c0,3.4-2.8,6.2-6.2,6.2c-3.4,0-6.2-2.8-6.2-6.2c0-3.4,2.8-6.2,6.2-6.2C44,36.4,46.8,39.2,46.8,42.6
		L46.8,42.6z M46.8,42.6"/>
	<path class="st0" d="M65.4,42.6c0,3.4-2.8,6.2-6.2,6.2c-3.4,0-6.2-2.8-6.2-6.2c0-3.4,2.8-6.2,6.2-6.2
		C62.7,36.4,65.4,39.2,65.4,42.6L65.4,42.6z M65.4,42.6"/>
	<path class="st0" d="M46.8,61.3c0,3.4-2.8,6.2-6.2,6.2c-3.4,0-6.2-2.8-6.2-6.2c0-3.4,2.8-6.2,6.2-6.2C44,55.1,46.8,57.9,46.8,61.3
		L46.8,61.3z M46.8,61.3"/>
	<path class="st0" d="M28.2,61.3c0,3.4-2.8,6.2-6.2,6.2c-3.4,0-6.2-2.8-6.2-6.2c0-3.4,2.8-6.2,6.2-6.2
		C25.4,55.1,28.2,57.9,28.2,61.3L28.2,61.3z M28.2,61.3"/>
</g>
</svg>
