<svg xmlns="http://www.w3.org/2000/svg" viewBox="289 468 40 38.671">
  <defs>
    <style>
      .cls-1 {
        fill: #636a75;
      }
    </style>
  </defs>
  <g id="Group_1" data-name="Group 1" transform="translate(289 468)">
    <path id="Path_1" data-name="Path 1" class="cls-1" d="M110.466,72.6c-.3.384-.591.739-.975,1.182-.355-.473-.65-.827-.886-1.152-.355.325-.62.561-1,.916.414.325.739.62,1.27,1-.443.325-.8.591-1.093.827.3.325.532.591.8.916.325-.354.591-.679,1-1.152.355.443.62.768.857,1.093.325-.3.591-.532.916-.857-.354-.3-.709-.591-1.152-.945.443-.355.8-.62,1.152-.886C111.027,73.161,110.791,72.925,110.466,72.6Z" transform="translate(-75.813 -51.152)"/>
    <path id="Path_2" data-name="Path 2" class="cls-1" d="M110.034,55.3c-.591.709-1.152,1.388-1.713,2.068-.414-.355-.8-.679-1.182-1.034-.266.3-.5.561-.739.857.679.62,1.359,1.182,2.068,1.832.857-1.034,1.654-2.009,2.482-3.013C110.625,55.743,110.329,55.536,110.034,55.3Z" transform="translate(-74.967 -38.963)"/>
    <path id="Path_3" data-name="Path 3" class="cls-1" d="M91.3,78.993h3.309V77.9H91.3Z" transform="translate(-64.328 -54.887)"/>
    <path id="Path_4" data-name="Path 4" class="cls-1" d="M91.3,63.834h3.309V62.8H91.3Z" transform="translate(-64.328 -44.248)"/>
    <path id="Path_5" data-name="Path 5" class="cls-1" d="M39.468,30.015V14.151a.9.9,0,0,0-.355-.739c-.03-.03-.059-.03-.059-.059-1.743-1.743-3.486-3.486-5.229-5.2a1.024,1.024,0,0,0-.65-.3H25.849a6.562,6.562,0,0,1,.325,1.152h6a.518.518,0,0,1,.5.5v4.431a.669.669,0,0,0,.679.679h4.49a.435.435,0,0,1,.443.443V28.3a6.155,6.155,0,0,0-10.133,1.832,36.5,36.5,0,0,0-4.7-2.452,18.717,18.717,0,0,1-3.043-1.95V24.077A9.67,9.67,0,0,0,24.9,17.43,3.323,3.323,0,0,0,27.445,14.3c0-1.27-.886-2.038-2.334-2.334v-.739L25.081,9.9a11.945,11.945,0,0,0-2.806-7.3A8.741,8.741,0,0,0,15.628,0,9.115,9.115,0,0,0,8.981,2.541c-2.925,3.043-2.836,7.71-2.836,8.095v1.27A2.356,2.356,0,0,0,3.9,14.239,3.405,3.405,0,0,0,6.44,17.371a9.67,9.67,0,0,0,4.49,6.647V25.7a20.078,20.078,0,0,1-3.043,1.95C.089,30.192,0,34.889,0,35.066v1.95a.763.763,0,0,0,.768.768h29.9a6.057,6.057,0,0,0,3.161.886A6.172,6.172,0,0,0,40,32.5,6.331,6.331,0,0,0,39.468,30.015Zm-4.963-16.6a.656.656,0,0,1-.65-.65V9.985l3.4,3.4H34.505Zm-9.394.177c.384.089.768.3.768.679a1.811,1.811,0,0,1-.768,1.359ZM6.263,15.628a2.214,2.214,0,0,1-.768-1.359c0-.384.384-.591.768-.679ZM10.251,3.722a7.309,7.309,0,0,1,5.465-2.038,7.309,7.309,0,0,1,5.465,2.038,10.051,10.051,0,0,1,2.334,6.145,18.821,18.821,0,0,1-7.829-2.541.682.682,0,0,0-.768-.089.633.633,0,0,0-.384.679c0,.089-.207.384-.886.679a9.11,9.11,0,0,1-2.629.768,22.222,22.222,0,0,1-3.22.384C8.006,8.508,8.39,5.672,10.251,3.722ZM7.917,16.514c0-.591-.089-1.064-.089-1.477v-3.6a34.135,34.135,0,0,0,3.516-.5c2.245-.384,3.722-1.064,4.4-1.861A18.525,18.525,0,0,0,23.663,11.4v3.6a8.267,8.267,0,0,1-.089,1.477,8.143,8.143,0,0,1-4.195,6.352,7.061,7.061,0,0,1-3.516.768,8.623,8.623,0,0,1-3.516-.768A7.9,7.9,0,0,1,7.917,16.514Zm10.931,8.213V25.7a4.173,4.173,0,0,1-1.566,1.064,3.629,3.629,0,0,1-3.22,0c-.679-.384-1.27-.886-1.566-1.064v-.975a8.5,8.5,0,0,0,3.131.5A9.675,9.675,0,0,0,18.848,24.727ZM1.566,36.16V35.1a4.7,4.7,0,0,1,.886-2.157,11.816,11.816,0,0,1,6.056-3.811,17.567,17.567,0,0,0,3.22-2.038,10.17,10.17,0,0,0,1.064.768l-.975,2.925a.508.508,0,0,0,0,.5l1.654,4.874Zm13.589.089L13.5,31.167l.886-2.541a8.465,8.465,0,0,0,1.477.207,6.358,6.358,0,0,0,1.477-.207l.886,2.541-1.654,5.081Zm2.806,0,1.654-4.874a.508.508,0,0,0,0-.5l-.975-2.925a12.989,12.989,0,0,1,1.064-.768,38,38,0,0,0,3.22,2.038,14.506,14.506,0,0,1,4.786,2.363,4.809,4.809,0,0,0-.089.916,6.029,6.029,0,0,0,1.27,3.722H17.962Zm15.864,1.359a5.19,5.19,0,0,1-2.688-.768v-.03A5.1,5.1,0,0,1,28.744,32.5a4.509,4.509,0,0,1,.089-.886h0a5.106,5.106,0,1,1,4.993,6Z"/>
    <path id="Path_6" data-name="Path 6" class="cls-1" d="M109.989,99.014a1.289,1.289,0,0,0-1.8-.089,1.24,1.24,0,0,0-.384,1.359.2.2,0,0,1-.03.177s-.591.768-.62.8a.637.637,0,0,0-.473-.768.375.375,0,0,0-.177-.03.654.654,0,0,0-.62.532c-.207.739-.414,1.477-.62,2.186a2.271,2.271,0,0,0-.089.886,2.206,2.206,0,0,0,1.182,1.684,2.105,2.105,0,0,0,1.064.266,2.175,2.175,0,0,0,1.625-.679l.709-.886.236-.3a.559.559,0,0,0,.089-.532.482.482,0,0,0-.5-.414.664.664,0,0,0,.03-.62.691.691,0,0,0-.443-.384.627.627,0,0,0-.089-.679c-.03-.059-.3-.236-.3-.266,0-.089.177-.089.236-.089a1.289,1.289,0,0,0,1.093-.62,1.392,1.392,0,0,0-.03-1.359C110.107,99.132,110.048,99.073,109.989,99.014Zm-2.452,3.131c-.03.03-.059.059-.059.089-.089.325.207.443.414.207.177-.207.355-.384.561-.65.148-.177.384-.177.414.059.03.207-.177.384-.3.5-.177.207-.325.384-.5.591-.03.03-.059.089-.089.118-.059.148.089.325.236.266.325-.118.384-.62.679-.768a.275.275,0,0,1,.354.177c.03.148-.089.3-.177.414-.177.207-.355.414-.532.65-.089.118-.118.414.118.384.266-.03.384-.443.561-.591a.273.273,0,0,1,.266-.089.251.251,0,0,1,.148.414c-.3.414-.62.8-.945,1.182a1.8,1.8,0,0,1-2.186.236,1.841,1.841,0,0,1-.827-2.157c.148-.5.3-1.034.414-1.536.059-.236.118-.857.443-.857.473.03.03,1.034-.03,1.27l-.118.679c.03,0,.03.03.059.03.118.059.532-.62.591-.709a16.126,16.126,0,0,1,1.064-1.418c.148-.207.325-.414.473-.65.118-.148.266-.384.473-.414a.225.225,0,0,1,.236.177.357.357,0,0,1-.089.3c-.3.384-.561.768-.886,1.123A9.989,9.989,0,0,1,107.537,102.145Zm2.334-1.92a.9.9,0,0,1-.65.532l.059-.089a3.13,3.13,0,0,1,.3-.355.664.664,0,0,0,0-.8.632.632,0,0,0-.532-.266.5.5,0,0,0-.207.03.929.929,0,0,0-.354.266c-.089.118-.177.207-.266.325l-.03.089a.783.783,0,0,1,.266-.709.938.938,0,0,1,.591-.236.953.953,0,0,1,.532.177A.86.86,0,0,1,109.871,100.225Z" transform="translate(-74.095 -69.471)"/>
  </g>
</svg>
