<?xml version="1.0" encoding="utf-8"?>
<!-- Generator: Adobe Illustrator 19.2.0, SVG Export Plug-In . SVG Version: 6.00 Build 0)  -->
<svg version="1.1" id="Layer_1" xmlns="http://www.w3.org/2000/svg" xmlns:xlink="http://www.w3.org/1999/xlink" x="0px" y="0px"
	 viewBox="0 0 40 40" style="enable-background:new 0 0 40 40;" xml:space="preserve">
<style type="text/css">
	.st0{fill:#35c4ff;}
</style>
<g>
	<g>
		<path class="st0" d="M24.3,21.8c-0.1,0-0.1,0-0.2-0.1c4.2-2.5,4.9-8.1,2-11.5C23.3,6.9,18.2,6.5,15,9.4c-1.6,1.4-2.6,3.1-2.6,5.3
			c-0.2,3.1,1.2,5.4,3.8,7.2c-0.1,0-0.1,0.1-0.1,0.1c-2.2,0.8-4.1,2.1-5.6,3.9c-1.4,1.7-2.2,3.5-2.6,5.6c-0.1,0.5,0.2,0.9,0.6,1
			c0.6,0.2,1.3-0.1,1.4-0.7c0.2-0.9,0.4-1.8,0.8-2.6c0.7-1.7,1.9-2.9,3.4-4.1c1.6-1.2,3.4-1.8,5.4-1.9c1.6-0.1,3.2,0.2,4.7,0.8
			c2.5,1,4.1,2.7,5.3,4.9c0.5,0.9,0.7,1.9,1,2.9c0.1,0.5,0.6,0.8,1.1,0.7c0.5-0.1,0.9-0.6,0.8-1c-0.1-0.4-0.2-0.7-0.2-1.1
			C31,26.1,28.4,23.4,24.3,21.8z M20.2,21c-3.3,0-6.1-2.6-6.1-5.9s2.7-5.9,6.1-5.9s6.1,2.6,6.1,5.9S23.5,21,20.2,21z M21.1,25.5
			c-0.2-0.4-0.6-0.9-0.8-1.4c0,0.1-0.1,0.1-0.1,0.1c-1,1.6-2,3.3-2.9,4.9c-0.1,0.2-0.1,0.2,0.1,0.3c1,0.9,1.8,1.8,2.8,2.6
			c0.2,0.2,0.2,0.2,0.3,0c0.9-0.9,1.8-1.8,2.7-2.6c0.2-0.2,0.2-0.2,0.1-0.4C22.5,27.9,21.8,26.7,21.1,25.5z"/>
	</g>
	<path class="st0" d="M39.8,29.9c-0.1-0.4-0.1-0.9-0.2-1.3c-0.7-3-2.5-5.3-5.3-6.8c-0.5-0.2-1-0.4-1.4-0.6l0,0c0,0,0.1-0.1,0.2-0.1
		c1-0.8,1.8-1.8,2.2-3c0.9-2.2,0.6-4.2-0.3-6.2c-0.8-1.5-2.1-2.6-3.6-3.3c-1.1-0.6-2.3-0.7-3.5-0.7c-0.5,0-0.9,0.3-0.9,0.7
		c-0.1,0.4,0.2,0.8,0.6,0.9c0.2,0,0.2,0.1,0.4,0.1c0.6,0,1,0.1,1.6,0.2c3.2,0.7,5.4,4,4.2,7.5c-0.6,1.8-1.8,2.9-3.6,3.6
		c-0.5,0.2-0.7,0.6-0.6,1c0.1,0.4,0.4,0.7,0.9,0.8c0.2,0,0.5,0.1,0.7,0.1c2.2,0.4,4,1.4,5.3,3.2c1,1.3,1.6,2.8,1.6,4.4
		c0,0.4,0,0.8,0,1.1c0,0.5,0.3,0.9,0.8,0.9c0.5,0.1,0.9-0.2,1-0.7c0-0.1,0.1-0.2,0.1-0.3v-1.2C39.8,30,39.8,30,39.8,29.9z"/>
	<path class="st0" d="M0,29.9l0,1.2c0,0.2,0.1,0.2,0.1,0.3c0.1,0.5,0.5,0.8,1,0.7c0.5,0,0.8-0.4,0.8-0.9c0-0.3,0-0.7,0-1.1
		c0-1.6,0.6-3.1,1.6-4.4C4.8,24,6.5,23,8.8,22.6c0.2,0,0.5-0.1,0.7-0.1c0.5-0.1,0.8-0.4,0.9-0.8c0.1-0.4-0.2-0.8-0.6-1
		c-1.8-0.6-3-1.8-3.6-3.6c-1.2-3.5,1-6.8,4.2-7.5c0.6-0.1,1-0.2,1.6-0.2c0.2,0,0.2-0.1,0.4-0.1c0.4-0.1,0.7-0.5,0.6-0.9
		c0-0.4-0.4-0.7-0.9-0.7c-1.2,0-2.4,0.2-3.5,0.7C7.1,9.3,5.8,10.4,5,11.9c-1,2-1.2,4.1-0.3,6.2c0.5,1.2,1.3,2.2,2.2,3
		c0.1,0,0.2,0.1,0.2,0.1l0,0c-0.5,0.2-1,0.4-1.4,0.6c-2.8,1.4-4.5,3.7-5.3,6.8c-0.1,0.4-0.1,0.9-0.2,1.3C0.2,30,0.2,30,0,29.9z"/>
</g>
</svg>
