<?xml version="1.0" encoding="utf-8"?>
<!-- Generator: Adobe Illustrator 19.2.0, SVG Export Plug-In . SVG Version: 6.00 Build 0)  -->
<svg version="1.1" id="Capa_1" xmlns="http://www.w3.org/2000/svg" xmlns:xlink="http://www.w3.org/1999/xlink" x="0px" y="0px"
	 viewBox="0 0 380 380" style="enable-background:new 0 0 380 380;" xml:space="preserve">
<style type="text/css">
	.st0{fill:#FFFFFF;}
</style>
<g>
	<path class="st0" d="M130.7,380c-12.5,0-22.5-9.6-24.3-23.4c-0.3-2-0.6-4.4-0.9-7.1l0-0.1l-6,0c-0.4,2.7-0.7,5.1-0.9,7.1
		C96.7,370.4,86.8,380,74.2,380h-6c-13.4,0-24.3-10.9-24.3-24.3V320H7.8c-2.8,0-5.3-1.6-6.5-4.1c-1.2-2.5-0.8-5.5,0.9-7.6L43.9,257
		v-27.4H40c-9.7,0-17.6-7.9-17.6-17.6v-98.7c0-9.7,7.9-17.6,17.6-17.6h58.2l0.3-6.1c-22.9-2-40.8-21.7-40.8-44.7
		C57.6,20.1,77.7,0,102.5,0c24.7,0,44.8,20.1,44.8,44.9c0,23-17.9,42.6-40.8,44.7l0.3,6.1h58.1c9.7,0,17.6,7.9,17.6,17.6v27.9
		l32.7-28.6c1.3-1.1,3-1.8,4.7-1.8c0.3,0,0.5,0,0.8,0c2,0.2,3.8,1.2,5,2.9l51,68.2l79.8-82h-37.3c-4,0-7.2-3.2-7.2-7.2
		c0-4,3.2-7.2,7.2-7.2h52.8c4,0,7.2,3.2,7.2,7.2v52.8c0,4-3.2,7.2-7.2,7.2c-4,0-7.2-3.2-7.2-7.2v-33.6l-83.8,86
		c-1.3,1.4-3.2,2.2-5.2,2.2c-0.1,0-0.3,0-0.5,0c-2.1-0.1-4.1-1.2-5.3-2.9l-51.3-68.7l-36.3,31.7v51.7c0,9.7-7.9,17.6-17.6,17.6H161
		v76h211.2c4,0,7.2,3.2,7.2,7.2c0,4-3.2,7.2-7.2,7.2H161v35.7c0,13.4-10.9,24.3-24.3,24.3H130.7z M102.5,267.8
		c3.6,0,6.6,2.7,7.1,6.2c0.1,0.4,8.5,60.5,11.1,80.7c0.7,5.4,4.1,10.9,10,10.9h6c5.5,0,9.9-4.5,9.9-9.9V222.3c0-4,3.2-7.2,7.2-7.2
		h11.1c1.8,0,3.2-1.4,3.2-3.2v-98.7c0-1.8-1.4-3.2-3.2-3.2h-45l-9.8,12.3l10.3,61.3c0.4,2.1-0.3,4.3-1.7,5.9l-10.8,12.4
		c-1.4,1.6-3.3,2.5-5.4,2.5c-2.1,0-4.1-0.9-5.4-2.5l-10.8-12.4c-1.4-1.6-2-3.8-1.7-5.9l10.3-61.3L85,110H40c-1.8,0-3.2,1.4-3.2,3.2
		v98.7c0,1.8,1.4,3.2,3.2,3.2h11.1c4,0,7.2,3.2,7.2,7.2v133.3c0,5.5,4.5,9.9,9.9,9.9h6c6,0,9.3-5.4,10-10.8
		c2.6-20.8,11-80.2,11.1-80.7C95.8,270.5,98.9,267.8,102.5,267.8L102.5,267.8z M22.9,305.6h20.9v-25.8L22.9,305.6z M102.5,14.4
		C85.7,14.4,72,28.1,72,44.9c0,16.8,13.7,30.4,30.4,30.4c16.8,0,30.4-13.7,30.4-30.4C132.9,28.1,119.2,14.4,102.5,14.4z"/>
</g>
</svg>
