<?xml version="1.0" encoding="utf-8"?>
<!-- Generator: Adobe Illustrator 18.0.0, SVG Export Plug-In . SVG Version: 6.00 Build 0)  -->
<!DOCTYPE svg PUBLIC "-//W3C//DTD SVG 1.1//EN" "http://www.w3.org/Graphics/SVG/1.1/DTD/svg11.dtd">
<svg version="1.1" id="Capa_1" xmlns="http://www.w3.org/2000/svg" xmlns:xlink="http://www.w3.org/1999/xlink" x="0px" y="0px"
	 viewBox="0 0 380 380" enable-background="new 0 0 380 380" xml:space="preserve">
<g>
	<g>
		<path fill="#FFFFFF" d="M309.8,131.6h-32.2c-0.6-3.4-2.1-6.7-5.2-8.9c-6.1-4.3-14.4-3.1-18.7,3.1l-1.5,2.1l-15-25.1
			c-1.5-2.8-4-4.6-6.7-5.5l0,0l-18.1-8.3l-7.4-6.7l-14.7,13.5l-14.4-13.5l-8.3,7.1l-17.5,8v0.3c-2.5,0.9-4.9,2.8-6.4,5.5l-15,25.1
			l-1.8-2.5c-4.3-6.1-12.9-7.4-18.7-3.1c-3.1,2.1-4.9,5.5-5.2,8.9H70.2V315h77.3c0,0.6,0,1.2,0,2.1v42.3c0,11.3,9.2,20.9,20.9,20.9
			l0,0c11.3,0,20.9-9.2,20.9-20.9v-42.3c0-0.6,0-1.5,0-2.1h3.1c0,0.6,0,1.2,0,2.1v42.3c0,11.3,9.2,20.9,20.9,20.9l0,0
			c11.3,0,20.9-9.2,20.9-20.9v-42.3c0-0.6,0-1.5,0-2.1h75.8V131.6L309.8,131.6z M189.8,98.5L189.8,98.5l5.2,33.1h-10.1L189.8,98.5z
			 M291.1,296H89.2V150.3h201.8V296L291.1,296z"/>
		<circle fill="#FFFFFF" cx="190.2" cy="41.1" r="41.1"/>
		<rect x="101.5" y="161.6" fill="#FFFFFF" width="32.8" height="5.8"/>
		<rect x="101.5" y="173.3" fill="#FFFFFF" width="18.7" height="5.8"/>
		<g>
			<path fill="#FFFFFF" d="M125.1,283.1c0,3.4,2.8,6.1,6.1,6.1H142c3.4,0,6.1-2.8,6.1-6.1v-36.2l-18.4,18.4l-4.3-4.3v22.1H125.1z"/>
			<path fill="#FFFFFF" d="M163.5,283.4c0,3.4,2.5,5.8,5.8,5.8h11c3.1,0,5.8-2.5,5.8-5.8v-44.2l-15.3-15.3l-7.7,7.7
				C163.5,231.6,163.5,283.4,163.5,283.4z"/>
			<path fill="#FFFFFF" d="M218.7,289.2c3.1,0,5.8-2.5,5.8-5.8v-59.5l-23.3,23v36.5c0,3.4,2.5,5.8,5.8,5.8H218.7L218.7,289.2z"/>
			<path fill="#FFFFFF" d="M239.5,208.6v74.5c0,3.4,2.5,5.8,5.8,5.8H257c3.4,0,5.8-2.5,5.8-5.8v-68.4l-14.7-14.4L239.5,208.6z"/>
			<path fill="#FFFFFF" d="M165,217.4c3.1-3.1,8.3-3.1,11.7,0l13.8,13.8c1.8,1.8,4.6,3.1,7.4,3.1s5.5-1.2,7.4-3.1l42.9-42.9l7.1,7.1
				c1.2,0.9,2.8,1.5,4,0.9c1.5-0.6,2.5-1.8,2.5-3.4l0.3-24.5c0-1.8-0.6-3.4-1.8-4.6c-1.2-1.2-3.1-1.8-4.6-1.8h-24.8
				c-1.5,0-2.8,0.9-3.4,2.5s-0.3,3.1,0.9,4l5.8,6.1l-30.4,30.4c-1.5,1.5-3.7,2.5-5.8,2.5c-2.1,0-4.3-0.9-5.8-2.5l-15.3-15.3
				c-3.1-3.1-8.3-3.1-11.7,0l-43.9,43.2c-1.5,1.5-2.5,3.7-2.5,6.1c0,2.5,0.9,4.6,2.5,6.1l2.5,2.5c3.1,3.1,8.3,3.1,11.7,0L165,217.4z
				"/>
		</g>
	</g>
</g>
</svg>
