<?xml version="1.0" encoding="utf-8"?>
<!-- Generator: Adobe Illustrator 18.0.0, SVG Export Plug-In . SVG Version: 6.00 Build 0)  -->
<!DOCTYPE svg PUBLIC "-//W3C//DTD SVG 1.1//EN" "http://www.w3.org/Graphics/SVG/1.1/DTD/svg11.dtd">
<svg version="1.1" id="Capa_1" xmlns="http://www.w3.org/2000/svg" xmlns:xlink="http://www.w3.org/1999/xlink" x="0px" y="0px"
	 viewBox="-137 -137 380 380" enable-background="new -137 -137 380 380" xml:space="preserve">
<g>
	<path fill="#FFFFFF" d="M117,178.6c1.6-1.4,3.4-2.5,5.3-3.5V161c-1.9-0.8-3.7-1.7-5.3-2.9V178.6z"/>
	<polygon fill="#FFFFFF" points="-78.1,48.8 -47.9,48.8 -17.6,48.8 -17.6,-12.1 -78.1,-12.1 	"/>
	<polygon fill="#FFFFFF" points="-17.3,-17.9 -17.3,-78.7 -77.8,-78.7 -77.8,-17.9 -47.5,-17.9 	"/>
	<polygon fill="#FFFFFF" points="-10.6,-78.7 -10.6,-17.9 49.8,-18 49.8,-78.7 	"/>
	<polygon fill="#FFFFFF" points="-78.8,171.5 -26,136.2 -19,122.3 -78.8,122.3 	"/>
	<polygon fill="#FFFFFF" points="-78.5,117.2 -47.5,117.2 -19.4,117 -17.4,113.6 -17.4,55.2 -78.5,55.4 	"/>
	<path fill="#FFFFFF" d="M55.9-1.9c1.5,0.5,2.9,1.4,4,2.8l5.9,7.6c1-0.1,2.1-0.1,3.1-0.1c12.3,0,23.6,4.8,32.7,13.9l2.1,2.1
		c2.6-6,7.2-10.9,13-14.2V-12l-30,0.1H55.9V-1.9z"/>
	<polygon fill="#FFFFFF" points="123.5,-48.4 123.5,-18.3 150.8,-18.3 173.3,-78.4 123.5,-78.4 	"/>
	<polygon fill="#FFFFFF" points="185.4,-18.5 185.4,-54 172.2,-18.5 	"/>
	<path fill="#FFFFFF" d="M121.9,7.8c3.4-1.2,7-1.8,10.8-1.8c3.3,0,6.4,0.5,9.4,1.4l7.4-19.4h-27.7V7.8z"/>
	<polygon fill="#FFFFFF" points="-17,155.2 -17,152.6 -17,152.6 -66.3,185.8 -16.9,186 	"/>
	<polygon fill="#FFFFFF" points="116.6,-48.4 116.6,-78.4 56.8,-78.4 56.8,-18.3 86.7,-18.3 116.6,-18.3 	"/>
	<path fill="#FFFFFF" d="M170.2-12.1l-11.8,30.8c1.3,1.8,2.5,3.7,3.4,5.7l2.2-2.2c6.2-6.2,13.5-10.4,21.5-12.5l0-21.8H170.2z"/>
	<path fill="#FFFFFF" d="M231.3,100.9c3.7,10.7,5.7,22.2,5.7,34.1c0,26.6-10.4,52.2-28.4,71.4c-0.6,0.7-1.3,1.3-1.9,2
		c-1.2,1.2-2.4,2.4-3.7,3.6l3.2,9.2c1,2.9,1.3,6.2,0.8,9.4c21.2-13.5,35.4-37.1,35.4-64V88.9c-1.6,2.2-3.4,4.4-5.4,6.4L231.3,100.9z
		"/>
	<path fill="#FFFFFF" d="M166.6-136.3H-60.6c-41.7,0-75.7,34.1-75.7,75.7v227.3c0,41.7,34.1,75.7,75.7,75.7H64.2
		c-5.8-5.9-7.2-14.4-4.9-21.1l3.2-9.2c-1.3-1.1-2.5-2.3-3.7-3.5l-161.4,0l0-311l311-0.1l0,112.4c9.3,2.4,18.2,7.5,25.7,15.1
		c3.1,3.1,5.8,6.5,8.1,10v-95.6C242.4-102.3,208.3-136.3,166.6-136.3z"/>
	<path fill="#FFFFFF" d="M165.7,234c-10.6,3.6-21.7,5.4-33,5.4c-11.3,0-22.4-1.8-33-5.4l-2.1,3.9c-0.9,1.7-2,3.2-3.2,4.5h72.2
		c1.4,0,2.9-0.1,4.3-0.1c-1.2-1.3-2.3-2.8-3.1-4.4L165.7,234z"/>
	<path fill="#FFFFFF" d="M5.2,117.3l24.7,0c1-5.6,2.4-11.1,4.2-16.4l-5.7-5.7c-2.9-2.9-5.4-6.1-7.4-9.4L5.2,117.3z"/>
	<path fill="#FFFFFF" d="M41.8,185.9c-8.6-15.4-13.3-32.8-13.3-50.8c0-4.3,0.3-8.6,0.8-12.8l-25.4-0.1l-12.2,24.4
		c-0.7,1.4-0.5,2.5-1.8,3.3l-0.6,0.4v3.7l0,31.7L41.8,185.9z"/>
	<polygon fill="#FFFFFF" points="-11.1,110.4 15.2,55.3 15.3,55.2 15.2,55.2 -11.1,55.2 	"/>
	<path fill="#FFFFFF" d="M-11.1,19.1l0,30c0,0,24.3,0,27.7,0c0.2,0,0.4,0,0.4,0L26.7,30L40.8,2.3c1.4-2.7,4-4.5,7-4.8
		c0.9-0.1,1.6,0.3,2.4,0.4v-9.6l-61.3,0V19.1z"/>
	<path fill="#FFFFFF" d="M223.7,35.6c-14.3-14.3-34.8-17-49.1-2.7l51.8,51.8C240.7,70.4,238,49.9,223.7,35.6z"/>
	<path fill="#FFFFFF" d="M116.2,36h33c0-7.5-7.4-15-16.5-15S116.2,28,116.2,36z"/>
	<path fill="#FFFFFF" d="M41.8,35.6c-14.3,14.3-17,34.8-2.7,49.1l51.8-51.8C76.6,18.5,56.1,21.3,41.8,35.6z"/>
	<path fill="#FFFFFF" d="M222,135.1c0-49.3-40-89.3-89.3-89.3c-49.3,0-89.3,40-89.3,89.3c0,29.6,14.5,55.8,36.6,72l-6.5,19.1
		c-0.6,1.7-0.4,5.4,3.4,7c3.8,1.6,6.6-0.7,7.5-2.3L93,215c12,6,25.4,9.4,39.7,9.4s27.8-3.4,39.7-9.4l8.6,15.9c0.8,1.6,3.7,4,7.5,2.3
		c3.8-1.6,4-5.3,3.4-7l-6.5-19.1C207.6,190.8,222,164.7,222,135.1z M142,202.5V197c0-5.1-4.1-9.3-9.3-9.3c-5.1,0-9.3,4.1-9.3,9.3
		v5.5c-30.1-4.1-54-28-58.1-58.1h5.5c5.1,0,9.3-4.1,9.3-9.3c0-5.1-4.2-9.3-9.3-9.3h-5.5c4.2-30.5,28.5-54.5,59.1-58.3v5.6
		c0,3,1.6,5.4,4,6.9c-0.7,1-1.1,2.1-1.1,3l-2.1,41.5c-3.3,2.4-5.5,6.2-5.5,10.5c0,7.2,5.8,13,13,13c0.5,0,1-0.1,1.6-0.2l25,22.2
		c1.4,1.3,5.1,2.4,8.1-0.6c3-3,1.8-6.7,0.6-8.1l-22.4-25.7c0-0.2,0.1-0.4,0.1-0.6c0-4.5-2.3-8.5-5.8-10.8L138.1,83
		c0-0.8-0.4-1.9-1.1-2.9c2.4-1.5,4-3.9,4-6.9v-5.6c30.6,3.7,55,27.8,59.1,58.3h-5.5c-5.1,0-9.3,4.1-9.3,9.3c0,5.1,4.1,9.3,9.3,9.3
		h5.5C196,174.5,172.1,198.3,142,202.5z"/>
</g>
</svg>
