<?xml version="1.0" encoding="utf-8"?>
<!-- Generator: Adobe Illustrator 19.2.0, SVG Export Plug-In . SVG Version: 6.00 Build 0)  -->
<svg version="1.1"
	 id="Layer_1" xmlns:cc="http://creativecommons.org/ns#" xmlns:dc="http://purl.org/dc/elements/1.1/" xmlns:inkscape="http://www.inkscape.org/namespaces/inkscape" xmlns:rdf="http://www.w3.org/1999/02/22-rdf-syntax-ns#" xmlns:sodipodi="http://sodipodi.sourceforge.net/DTD/sodipodi-0.dtd" xmlns:svg="http://www.w3.org/2000/svg"
	 xmlns="http://www.w3.org/2000/svg" xmlns:xlink="http://www.w3.org/1999/xlink" x="0px" y="0px" viewBox="0 0 40 40"
	 style="enable-background:new 0 0 40 40;" xml:space="preserve">
<style type="text/css">
	.st0{fill:#FFFFFF;}
</style>
<g>
	<path class="st0" d="M25.9,38c-0.4-0.2-0.8-0.4-1.2-0.7c-0.3-0.2-0.5-0.5-0.8-0.7c-0.6-0.6-1.3-1.1-1.9-1.8
		c-1.8-1.8-3.6-3.6-5.3-5.3c-0.2-0.2-0.2-0.4-0.2-0.6c0.1-0.6,0.6-1.2,1.2-1.3c0.3-0.1,0.5,0,0.7,0.2c0.6,0.6,1.2,1.2,1.8,1.8
		c0.5,0.5,1,1,1.5,1.5c0.5,0.5,1.3,0.3,1.4-0.4c0-0.2,0.1-0.4,0.1-0.6c0-4.6,0-9.2,0-13.8c0-0.3,0.1-0.5,0.3-0.6
		c0.5-0.3,1.3-0.3,1.8,0c0.2,0.2,0.3,0.3,0.3,0.6c0,2.5,0,5.1,0,7.6c0,0.1,0,0.1,0,0.2c0,0.4,0.3,0.8,0.7,0.8
		c0.4,0.1,0.8-0.1,0.9-0.5c0.1-0.2,0.1-0.4,0.1-0.6c0-1,0-2,0-3c0-0.2,0.1-0.4,0.3-0.5c0.3-0.2,0.5-0.3,0.8-0.3
		c0.4,0,0.8,0.1,1.1,0.3c0.2,0.1,0.2,0.3,0.2,0.5c0,0.4,0,0.8,0,1.2c0,1,0,1.9,0,2.9c0,0.2,0,0.3,0,0.5c0.1,0.5,0.5,0.8,1,0.7
		c0.4-0.1,0.7-0.4,0.7-0.9c0-1.1,0-2.2,0-3.2c0-0.2,0.1-0.4,0.2-0.5c0.5-0.4,1.5-0.4,2,0c0.1,0.1,0.2,0.3,0.2,0.5c0,1,0,2,0,3
		c0.6-0.1,1.1-0.2,1.7-0.3c0-0.6,0-1.2,0-1.8c0-0.3,0.1-0.6,0.4-0.7c0.5-0.3,1.2-0.3,1.7,0c0.2,0.2,0.4,0.4,0.4,0.7
		c0,0.6,0,11.9,0,12.5c0.6,0.1,1.2,0.2,1.7,0.4c0-0.8,0-12.2,0-13c0-0.5-0.2-1-0.5-1.4c-0.7-1-2.1-1.5-3.4-1.1
		c-0.2,0.1-0.5,0.2-0.7,0.3c-0.4-0.6-1.1-1-1.8-1.1c-0.7-0.2-1.5-0.1-2.1,0.2c-1-1.5-2.4-1.8-4-1.3c0,0,0-0.1,0-0.2c0-0.7,0-1.4,0-2
		c0-0.5-0.2-1-0.5-1.4c-0.4-0.5-0.9-0.8-1.5-1c-0.2-0.1-0.5-0.1-0.7-0.1c-0.2,0-0.4,0-0.5,0c-0.3,0.1-0.6,0.1-0.8,0.2
		c-0.8,0.3-1.5,0.8-1.7,1.7c-0.1,0.2-0.1,0.5-0.1,0.7c0,4,0,7.9,0,11.9c0,0.1,0,0.1,0,0.2c-0.1-0.1-0.1-0.1-0.1-0.1
		c-0.6-0.6-1.2-1.2-1.8-1.8c-0.7-0.8-1.6-0.9-2.6-0.6c-1.3,0.4-2.1,1.3-2.4,2.7c0,0,0,0.1,0,0.1c0,0.2,0,0.3,0,0.5
		c0,0.1,0,0.2,0.1,0.3c0.1,0.4,0.3,0.8,0.6,1.1c1.6,1.6,3.2,3.2,4.8,4.8c0.8,0.9,1.8,1.6,2.7,2.5c0.4,0.4,0.8,0.7,1.2,1
		c0.8,0.5,1.6,0.9,2.5,1.1C26.3,39.4,26.1,38.7,25.9,38z"/>
	<path id="rect6478-6-1" class="st0" d="M10.1,0C9.4,0,8.9,0.5,8.9,1.2v4.9c0,0.7,0.5,1.2,1.2,1.2h0.2c0.7,0,1.2-0.5,1.2-1.2V1.2
		C11.5,0.5,11,0,10.3,0H10.1z M27.6,0c-0.7,0-1.2,0.5-1.2,1.2v4.9c0,0.7,0.5,1.2,1.2,1.2h0.2c0.7,0,1.2-0.5,1.2-1.2V1.2
		C29,0.5,28.5,0,27.8,0H27.6z"/>
	<path class="st0" d="M6,17.7c-0.7,0-1.2-0.5-1.2-1.2v-1.4c0-0.7,0.5-1.2,1.2-1.2h1.4c0.7,0,1.2,0.5,1.2,1.2v1.4
		c0,0.7-0.5,1.2-1.2,1.2H6z"/>
	<path class="st0" d="M12.1,17.9c-0.7,0-1.2-0.5-1.2-1.2v-1.4c0-0.7,0.5-1.2,1.2-1.2h1.4c0.7,0,1.2,0.5,1.2,1.2v1.4
		c0,0.7-0.5,1.2-1.2,1.2H12.1z"/>
	<path class="st0" d="M6.1,24.3c-0.7,0-1.2-0.5-1.2-1.2v-1.4c0-0.7,0.5-1.2,1.2-1.2h1.4c0.7,0,1.2,0.5,1.2,1.2v1.4
		c0,0.7-0.5,1.2-1.2,1.2H6.1z"/>
	<path class="st0" d="M6,30.9c-0.7,0-1.2-0.5-1.2-1.2v-1.4c0-0.7,0.5-1.2,1.2-1.2h1.4c0.7,0,1.2,0.5,1.2,1.2v1.4
		c0,0.7-0.5,1.2-1.2,1.2H6z"/>
	<g>
		<path class="st0" d="M25.3,3H12.5c0,0.6,0,1.3,0,1.9h12.8C25.3,4.3,25.3,3.6,25.3,3z"/>
		<path class="st0" d="M13.4,35.3H3.3c-0.8,0-1.4-0.6-1.4-1.4V10.5h34v2.8c0.2,0.1,0.4,0.2,0.7,0.3c0.4,0.2,0.8,0.5,1.2,0.8V6.3
			c0-1.8-1.5-3.3-3.3-3.3H30c0,0.6,0,1.3,0,1.9h4.5c0.8,0,1.4,0.6,1.4,1.4v2.3h-34V6.3c0-0.8,0.6-1.4,1.4-1.4h4.5c0-0.6,0-1.3,0-1.9
			H3.3C1.5,3,0,4.5,0,6.3v27.6c0,1.8,1.5,3.3,3.3,3.3h11.2C14.1,36.6,13.7,35.9,13.4,35.3z"/>
	</g>
</g>
</svg>
