<svg xmlns="http://www.w3.org/2000/svg" viewBox="99 432 180 156.539">
  <defs>
    <style>
      .cls-1 {
        fill: #626975;
      }
    </style>
  </defs>
  <path id="Union_1" data-name="Union 1" class="cls-1" d="M129.1,156.477c-5.081-.283-12.985-2.353-14.02-2.541H3.011A3.161,3.161,0,0,1,0,150.643V124.579c0-10.538,5.739-19.853,14.585-23.805L44.035,87.883a2.511,2.511,0,0,1,1.129-.283,2.9,2.9,0,0,1,1.223.283,3.188,3.188,0,0,1,1.6,1.882L55.7,113.288l1.788-5.834-2.353-6.4a3.6,3.6,0,0,1,.283-3.105,2.966,2.966,0,0,1,2.54-1.506h14.4A2.967,2.967,0,0,1,74.9,97.951a3.606,3.606,0,0,1,.283,3.105l-2.353,6.4,1.787,5.834,7.716-23.523a3.189,3.189,0,0,1,1.6-1.882,2.6,2.6,0,0,1,1.223-.283,2.5,2.5,0,0,1,1.129.283l4.611,2.164c0-.188.095-.282.188-.471A47.315,47.315,0,0,1,94.187,84.4a45.742,45.742,0,0,1,80.074,9.41,6.459,6.459,0,0,0,.376.941c1.787-.659,3.481-1.224,5.363-1.882-1.318,7.15-2.634,14.207-3.952,21.547-5.458-4.892-10.726-9.6-16.09-14.49,2.07-.753,3.952-1.506,5.928-2.164-3.764-11.668-16.937-24.464-35.567-23.711A36.665,36.665,0,0,0,122.7,146.22c19.949,5.081,39.99-7.433,44.6-26.628,2.353,2.353,4.7,4.611,6.963,6.869a1.38,1.38,0,0,1,0,1.223,45.761,45.761,0,0,1-42.644,28.855Q130.365,156.539,129.1,156.477Zm-112.253-49.4c-6.586,2.823-10.821,9.786-10.821,17.6v22.77h98.139a45.626,45.626,0,0,1-6.3-5.739c-1.788-1.976-3.293-4.046-4.893-6.022a44.856,44.856,0,0,1-6.586-16.937,45.866,45.866,0,0,1,1.787-22.676l-1.411-.659-9.6,29.075a2.91,2.91,0,0,1-2.822,2.164,3.087,3.087,0,0,1-2.823-2.258l-4.987-15.808a4.017,4.017,0,0,1,.095-2.353l1.129-3.011H62.384l1.129,3.011a3.383,3.383,0,0,1,.094,2.353L58.62,124.391a2.908,2.908,0,0,1-5.646.095l-9.6-29.075Zm123.45,20.137h-2.446a18.184,18.184,0,0,1-3.764-.377c-1.318-.282-2.353-.564-3.1-.752-.753-.283-1.788-.564-3.105-1.035a16.873,16.873,0,0,0-4.046-1.13,1.74,1.74,0,0,1-1.129-.47,1.561,1.561,0,0,1-.47-1.13v-16.56a1.561,1.561,0,0,1,.47-1.13,1.342,1.342,0,0,1,1.129-.564c.376,0,1.035-.564,1.976-1.506a28.477,28.477,0,0,0,2.635-3.105c1.223-1.506,2.07-2.541,2.634-3.1a2.392,2.392,0,0,0,.847-1.223,5.234,5.234,0,0,0,.471-1.223c.094-.376.188-.847.376-1.6.094-.658.188-1.223.283-1.6a5.664,5.664,0,0,1,.47-1.318,3.189,3.189,0,0,1,.847-1.317,1.558,1.558,0,0,1,1.13-.471,7.538,7.538,0,0,1,2.164.283,5.108,5.108,0,0,1,1.6.659,3.607,3.607,0,0,1,1.035,1.035,3.541,3.541,0,0,1,.659,1.129c.094.376.188.752.282,1.318,0,.471.094.847.094,1.129v1.035a7.17,7.17,0,0,1-.283,1.976,11.33,11.33,0,0,1-.471,1.6c-.188.376-.47.847-.752,1.411a2.1,2.1,0,0,0-.283.471l-.282.564a5.9,5.9,0,0,0-.188.659h7.15a4.928,4.928,0,0,1,3.482,1.506,4.359,4.359,0,0,1,1.411,3.293,5.746,5.746,0,0,1-1.411,3.858,5.583,5.583,0,0,1,.376,1.975,5.984,5.984,0,0,1-1.13,3.576,5.451,5.451,0,0,1,0,3.011,5.256,5.256,0,0,1-1.411,2.446,5.971,5.971,0,0,1-1.223,4.7,6.646,6.646,0,0,1-5.081,1.976Zm-28.886-3.2a1.735,1.735,0,0,1-1.13-.471,1.556,1.556,0,0,1-.471-1.129V105.854a1.733,1.733,0,0,1,.471-1.129,1.558,1.558,0,0,1,1.13-.471h7.433a1.733,1.733,0,0,1,1.129.471,1.556,1.556,0,0,1,.471,1.129v16.561a1.733,1.733,0,0,1-.471,1.129,1.555,1.555,0,0,1-1.129.471Zm2.07-6.022a1.558,1.558,0,0,0-.471,1.129,1.789,1.789,0,0,0,.471,1.223,1.983,1.983,0,0,0,1.223.47,1.736,1.736,0,0,0,1.129-.47,1.3,1.3,0,0,0,.471-1.223,1.735,1.735,0,0,0-.471-1.129,1.555,1.555,0,0,0-1.129-.471A1.786,1.786,0,0,0,113.477,117.993ZM55.609,87.412a19.084,19.084,0,0,1-5.834-3.858c-3.858-3.952-7.81-12.044-9.5-15.808-2.728-.376-8.092-2.258-10.444-11.761-1.223-4.987-.941-9.127.847-12.138a8.7,8.7,0,0,1,2.822-3.01c0-1.035.095-2.447.188-4.046-1.694-3.01-4.423-10.444.941-20.983l.094-.188c3.764-7.245,8.657-8.751,12.138-8.751a9.629,9.629,0,0,1,1.6.095C51.939,1.223,59.937,0,66.054,0h.564A32.631,32.631,0,0,1,84.5,5.834c7.433,3.952,11.95,12.326,13.079,16.655a27.559,27.559,0,0,1,.752,6.586,52.485,52.485,0,0,1-1.5,11.668,8.776,8.776,0,0,1,2.634,2.917q2.681,4.517.847,12.138c-2.258,9.691-7.621,11.573-10.35,11.949-1.788,3.858-5.646,11.856-9.5,15.808a19.073,19.073,0,0,1-5.834,3.858,23.845,23.845,0,0,1-19.006,0ZM44.882,62.948c0,.095,4.893,11.386,8.939,15.619a13.017,13.017,0,0,0,3.952,2.541,18.641,18.641,0,0,0,14.679,0A11.469,11.469,0,0,0,76.4,78.567c4.046-4.14,8.844-15.525,8.939-15.619a3.053,3.053,0,0,1,2.729-1.881c.188,0,.376.094.564.094h.283c1.411,0,4.14-.94,5.551-7.057.752-3.1.659-5.458-.094-6.869a2.377,2.377,0,0,0-1.411-1.223,3.177,3.177,0,0,1-2.446-3.481,7.22,7.22,0,0,0,.094-1.788,4.842,4.842,0,0,0-.847-2.634c-.941-.753-8-2.164-13.08-3.293H76.5c-2.54-.565-5.457-1.223-8.468-1.882a19.979,19.979,0,0,1-5.363-1.694A32.126,32.126,0,0,1,52.5,24.653a21.246,21.246,0,0,1-3.576,6.492,27.286,27.286,0,0,1-9.221,6.963c-.094,2.634,0,4.423,0,4.423a3.346,3.346,0,0,1-2.446,3.575,2.535,2.535,0,0,0-1.411,1.224c-.753,1.317-.847,3.763,0,6.774C37.261,60.22,39.9,61.16,41.4,61.16h.283a.706.706,0,0,1,.47-.094A3.052,3.052,0,0,1,44.882,62.948Zm33.027-34.72c7.809,1.694,11.949,2.541,14.3,3.764.094-1.035.188-2.07.188-3.011a21.471,21.471,0,0,0-.471-4.517l-.094-.282c-.095-.188-.095-.376-.188-.565-.941-3.2-4.517-9.221-9.786-12.044-.095,0-.188-.094-.283-.188A26.691,26.691,0,0,0,66.712,6.4h-1.5c-10.351.283-11.856,4.517-11.95,4.8v.188a3.3,3.3,0,0,1-.564,1.318,2.852,2.852,0,0,1-.753.752,2.3,2.3,0,0,1-1.5.565h-.188a2.331,2.331,0,0,1-.753-.095c-.188-.094-.376-.094-.471-.188a5.564,5.564,0,0,0-2.07-.376c-2.729,0-5.081,1.787-6.962,5.458v.094L39.9,19.1c-3.011,5.834-2.541,10.068-1.694,12.421a22.62,22.62,0,0,0,6.3-4.988c2.258-2.634,3.481-7.527,3.764-9.032a3.118,3.118,0,0,1,2.353-2.634,1.188,1.188,0,0,1,.564-.095,2.965,2.965,0,0,1,2.541,1.506,25.507,25.507,0,0,0,11.2,8.656c.094,0,.094.095.188.095a16.514,16.514,0,0,0,4.14,1.317l-.094,1.035.188-1.035C72.545,27.1,75.65,27.758,77.909,28.228Z" transform="translate(99 432)"/>
</svg>
