<svg xmlns="http://www.w3.org/2000/svg" width="27.692" height="26.026" viewBox="0 0 27.692 26.026">
  <path id="Union_241_1_" d="M0,26.026s.169-2.538.247-2.9A22.066,22.066,0,0,1,.885,20.7a12.6,12.6,0,0,1,3.644-5.3,1.092,1.092,0,0,1,.7-.338.564.564,0,0,1,.39.169.6.6,0,0,1,.2.39,1.09,1.09,0,0,1-.416.677,12.166,12.166,0,0,0-4.06,8l-.039.4H26.4l-.026-.4A11.4,11.4,0,0,0,24.425,18.7a12.027,12.027,0,0,0-5.635-4.594,1.5,1.5,0,0,0-.534-.1,1.615,1.615,0,0,0-.651.13,8.172,8.172,0,0,1-3.748.911,7.968,7.968,0,0,1-5.57-2.29A7.221,7.221,0,0,1,6.1,7.222,7.657,7.657,0,0,1,12.427.13a2.978,2.978,0,0,0,.364-.1A.188.188,0,0,1,12.883,0H14.8a2.531,2.531,0,0,0,.286.1,7.777,7.777,0,0,1,6.012,4.763,7.453,7.453,0,0,1-1.2,7.417c-.065.078-.117.156-.182.247-.026.039-.052.078-.091.13l-.247.351.794.416a13.488,13.488,0,0,1,7.2,9.174c.091.377.156.755.234,1.132.026.169.065.338.091.508v1.783ZM7.365,7.587a6.419,6.419,0,0,0,6.48,6.3h.013a6.515,6.515,0,0,0,4.568-1.874,6.218,6.218,0,0,0,1.887-4.476,6.419,6.419,0,0,0-6.48-6.3h-.026A6.4,6.4,0,0,0,7.365,7.587Zm5.557,2.889a.8.8,0,1,1,.807.807.784.784,0,0,1-.807-.755Zm.234-1.7a2.282,2.282,0,0,1,.638-1.692,1.989,1.989,0,0,0,.664-1.223c0-.429-.286-.716-.859-.729a1.888,1.888,0,0,0-1.054.312l-.312-.911a3.22,3.22,0,0,1,1.653-.416c1.314,0,1.9.742,1.9,1.562a2.7,2.7,0,0,1-.911,1.757,1.908,1.908,0,0,0-.56,1.392l.013.208H13.2v.013Z" fill="#fff"/>
</svg>
