<svg id="Layer_1" data-name="Layer 1" xmlns="http://www.w3.org/2000/svg" viewBox="0 0 40 40"><defs><style>.cls-1{fill:#35c4ff;}</style></defs><title>my-puch-report_White-40</title><path class="cls-1" d="M28.66,38.36a6.14,6.14,0,0,1-1-.58c-0.25-.16-0.41-0.41-0.66-0.58-0.49-.49-1.07-0.9-1.56-1.48L21.1,31.37a0.6,0.6,0,0,1-.16-0.49,1.32,1.32,0,0,1,1-1.07,0.51,0.51,0,0,1,.58.16L24,31.45l1.23,1.23a0.65,0.65,0,0,0,1.15-.33c0-.16.08-0.33,0.08-0.49V20.53A0.5,0.5,0,0,1,26.69,20a1.57,1.57,0,0,1,1.48,0,0.59,0.59,0,0,1,.25.49v6.41a0.63,0.63,0,0,0,.58.66,0.59,0.59,0,0,0,.74-0.41,1,1,0,0,0,.08-0.49V24.22a0.45,0.45,0,0,1,.25-0.41,1.1,1.1,0,0,1,.66-0.25,1.65,1.65,0,0,1,.9.25,0.39,0.39,0,0,1,.16.41V28a0.68,0.68,0,0,0,.82.58,0.72,0.72,0,0,0,.58-0.74V25.21a0.63,0.63,0,0,1,.16-0.41,1.49,1.49,0,0,1,1.64,0,0.63,0.63,0,0,1,.16.41v2.47l1.4-.25V25.95a0.55,0.55,0,0,1,.33-0.58,1.41,1.41,0,0,1,1.4,0,0.83,0.83,0,0,1,.33.58V36.22a6.91,6.91,0,0,1,1.4.33V25.86a2,2,0,0,0-.41-1.15,2.54,2.54,0,0,0-2.79-.9c-0.16.08-.41,0.16-0.58,0.25a2.18,2.18,0,0,0-1.48-.9,2.49,2.49,0,0,0-1.73.16,2.64,2.64,0,0,0-3.29-1.07V20.44a2,2,0,0,0-.41-1.15,2.53,2.53,0,0,0-1.23-.82,1.4,1.4,0,0,0-.58-0.08H27.1c-0.25.08-.49,0.08-0.66,0.16a2,2,0,0,0-1.4,1.4,1.4,1.4,0,0,0-.08.58v9.94l-0.08-.08L23.4,28.91a1.89,1.89,0,0,0-2.14-.49,2.75,2.75,0,0,0-2,2.22v0.49a0.3,0.3,0,0,0,.08.25,2,2,0,0,0,.49.9l3.94,3.94C24.47,37,25.29,37.54,26,38.27a8.72,8.72,0,0,0,1,.82,6.53,6.53,0,0,0,2.05.9A16,16,0,0,0,28.66,38.36Z"/><path class="cls-1" d="M19.18,33.94H16.07l1.6-4.82V28.84l-1-3,0.17-.09A3.75,3.75,0,0,0,17.74,25l0.17-.09L18.08,25a10.4,10.4,0,0,0,1,.74v-1.2A3.79,3.79,0,0,1,18.5,24h0V22.16l0.09-.09a8.92,8.92,0,0,0,4-6.12V15.76h0.08a2.84,2.84,0,0,0,2.19-2.69,2.13,2.13,0,0,0-2.1-1.95H22.45V9.74c0-.19.25-4.64-2.36-7.42A7.4,7.4,0,0,0,14.3,0,7.93,7.93,0,0,0,8.41,2.32C5.8,5.1,6,9.27,6,9.74v1.39H5.72a2,2,0,0,0-2,1.95,2.84,2.84,0,0,0,2.19,2.69H6.05l0.09,0.19a8.92,8.92,0,0,0,4.2,6.12l0.25,0.09V24l-0.25.09A17.12,17.12,0,0,1,7.4,26H7.23C0.25,28.28,0,32.55,0,32.73v2.13H19.43A1.16,1.16,0,0,1,19.18,33.94Zm3.53-19.56V12.15L23,12.24a1,1,0,0,1,.92.93A1.64,1.64,0,0,1,23,14.56l-0.34.19V14.37Zm-17.16.18a1.92,1.92,0,0,1-.84-1.39,1,1,0,0,1,.93-0.93l0.25-.09v2.69ZM17.83,24l-0.25.09A7.51,7.51,0,0,1,16,25.22a3.63,3.63,0,0,1-3.2,0,5.79,5.79,0,0,1-1.43-1.11L11.27,24V22.62l0.34,0.09a9.77,9.77,0,0,0,2.86.46,9.85,9.85,0,0,0,2.94-.46l0.42-.09V24ZM6.9,9A10.08,10.08,0,0,1,9.08,3.06,6.7,6.7,0,0,1,14.3,1a6.51,6.51,0,0,1,5.13,2A9.71,9.71,0,0,1,21.7,9V9.27H21.45a14.44,14.44,0,0,1-7.23-2.5,0.38,0.38,0,0,0-.34-0.09,0.29,0.29,0,0,0-.25.09,0.37,0.37,0,0,0-.17.37,1.31,1.31,0,0,1-.93.83,10.2,10.2,0,0,1-2.44.74,20.64,20.64,0,0,1-2.95.37H6.9V9ZM6.81,15.21a8.91,8.91,0,0,1-.17-1.39V10.2H6.9a32.91,32.91,0,0,0,3.36-.46c2-.37,3.36-0.93,3.87-1.67l0.17-.18L14.46,8a16.19,16.19,0,0,0,7.07,2.22h0.25v3.62c0,0.46-.08.93-0.08,1.39a8,8,0,0,1-4.12,6.21,6.62,6.62,0,0,1-3.28.74,8.17,8.17,0,0,1-3.36-.74A7.64,7.64,0,0,1,6.81,15.21ZM0.93,33.94V32.73a6.35,6.35,0,0,1,1-2.13c1.35-1.95,3.87-3.06,5.64-3.71A26.55,26.55,0,0,0,10.52,25l0.17-.09L10.85,25a3.79,3.79,0,0,0,.93.74l0.17,0.09-1,3.06v0.28L12.53,34H0.93V33.94Zm12.7,0-1.6-5,0.84-2.69L13,26.33a5.91,5.91,0,0,0,1.26.18,6,6,0,0,0,1.26-.18l0.17-.09,0.84,2.69-1.6,5H13.63Z"/></svg>