<?xml version="1.0" encoding="utf-8"?>
<!-- Generator: Adobe Illustrator 22.1.0, SVG Export Plug-In . SVG Version: 6.00 Build 0)  -->
<svg version="1.1" id="Layer_1" xmlns="http://www.w3.org/2000/svg" xmlns:xlink="http://www.w3.org/1999/xlink" x="0px" y="0px"
	 viewBox="0 0 512 512" style="enable-background:new 0 0 512 512;" xml:space="preserve">
<style type="text/css">
	.st0{fill:#7A7A7A;}
</style>
<path class="st0" d="M393.7,420c0,2.2,0.1,4.4,0,6.4c-0.1,3.9-3,6.8-6.7,6.9c-3.6,0.1-6.7-2.8-6.9-6.7c-0.1-2.1,0-4.4,0-6.3
	c-3.7-0.9-7.3-1.5-10.5-2.9c-10.3-4.5-15.8-12.6-16.6-23.8c-0.3-4.5,2.3-7.7,6.2-8c4-0.3,7,2.7,7.4,7.3c0.6,7.6,6.1,13,13.5,13
	c0-2.8,0-5.7,0-8.6c0-1.7-0.1-3.4,0.1-5.1c0.3-3.9,3.4-6.8,7-6.6c3.8,0.2,6.5,3.1,6.6,7c0,4.4,0,8.6,0,12.9
	c4.7,1.2,10.6-3.3,12.5-7.8c3.7-9.2-2.5-18.7-12.5-19c-4.4-0.1-8.7,0-13.1,0c-15.1,0-27.2-11.4-27.7-26
	c-0.6-14.8,10.3-27.1,25.3-28.3c0.5-0.1,1.1-0.2,1.9-0.3c0-2.2,0-4.3,0-6.3c0.1-4.2,3-7.1,6.9-7.1c3.9,0.1,6.6,2.9,6.7,7.1
	c0,2.1,0,4.1,0,5.9c3.5,0.9,6.8,1.3,9.8,2.5c10.8,4.4,16.5,12.7,17.4,24.3c0.3,4.4-2.5,7.6-6.4,7.8c-3.9,0.2-6.8-2.7-7.1-6.9
	c-0.3-6.1-3.2-11-9-12.4c-7.6-2-15.6-2-23.1,0.1c-6.2,1.7-9.7,8.6-8.5,14.8c1.3,6.5,6.6,11,13.4,11.1c0-4.2-0.1-8.5,0.1-12.7
	c0.1-1.5,0.4-3.3,1.2-4.5c1.5-2.6,4.6-3.6,7.4-2.8c2.9,0.8,4.9,3.3,5,6.4c0.1,3.6,0,7.3,0,10.9c0,0.9,0,1.7,0,2.6
	c18.7,1.4,27.4,15.7,27.2,27.6c-0.1,7.4-2.7,13.9-8,19.2C408.5,416.3,405.3,417.5,393.7,420z"/>
<path class="st0" d="M221.7,35.8h17.2c1.4,0,2.7,1.1,2.7,2.7v17.4c0,1.4-1.1,2.7-2.7,2.7h-17.2c-1.4,0-2.7-1.1-2.7-2.7V38.4
	C219.1,36.9,220.2,35.8,221.7,35.8z"/>
<g id="Layer_2_1_">
</g>
<path class="st0" d="M387.3,495.8c-68.7,0-124.7-56-124.7-124.7s56-124.7,124.7-124.7S512,302.4,512,371.1S456,495.8,387.3,495.8z
	 M387.3,268.7c-2.9,0-6.1,0.2-9.2,0.4c-56.2,5-98,54.9-93,111.1c2.2,25.6,14,49.4,33.2,66.7c19,17.3,43.5,26.7,68.9,26.7
	c2.9,0,6.1-0.2,9.2-0.4c56.2-5,98-54.9,93-111.1c-2.2-25.6-14-49.4-33.2-66.7C437.2,278.1,412.9,268.7,387.3,268.7z"/>
<path class="st0" d="M109.8,397.6c-8.3,0-13.8-2.4-20.1-8.7c-5.7-5.7-8.7-14.4-8.7-20.1c0-8.3,2.4-13.8,8.7-20.1
	c5.5-5.5,12.7-8.7,20.1-8.7c7.4,0,14.5,3.1,20.1,8.7c5.7,5.7,8.7,14.4,8.7,20.1c0,5.7-2.9,14.4-8.7,20.1
	C123.8,395.2,118.1,397.6,109.8,397.6z"/>
<path class="st0" d="M109.8,300.6c-8.3,0-13.8-2.4-20.1-8.7c-6.3-6.3-8.7-11.8-8.7-20.1c0-8.3,2.4-13.8,8.7-20.1
	c5.5-5.5,12.7-8.7,20.1-8.7c7.4,0,14.5,3.1,20.1,8.7c5.7,5.7,8.7,14.4,8.7,20.1s-2.9,14.4-8.7,20.1
	C123.8,298,118.1,300.6,109.8,300.6z"/>
<path class="st0" d="M207,397.6c-8.3,0-13.8-2.4-20.1-8.7c-5.7-5.7-8.7-14.4-8.7-20.1c0-5.7,2.9-14.4,8.7-20.1
	c5.5-5.5,12.7-8.7,20.1-8.7c7.4,0,14.5,3.1,20.1,8.7c5.7,5.7,8.7,14.4,8.7,20.1c0,5.7-2.9,14.4-8.7,20.1
	C220.8,395.2,215.3,397.6,207,397.6z"/>
<path class="st0" d="M207,300.6c-8.3,0-13.8-2.4-20.1-8.7c-5.7-5.7-8.7-14.4-8.7-20.1c0-5.7,2.9-14.4,8.7-20.1
	c5.5-5.5,12.7-8.7,20.1-8.7c7.4,0,14.5,3.1,20.1,8.7c5.7,5.7,8.7,14.4,8.7,20.1s-2.9,14.4-8.7,20.1C220.8,298,215.3,300.6,207,300.6
	z"/>
<path class="st0" d="M77.4,478.7C34.1,478.7,0,444.8,0,401.3V109.8c0-43.3,33.9-77.4,77.4-77.4h68.5V12.5c0-7.7,4.8-12.5,12.5-12.5
	c7.7,0,12.5,4.8,12.5,12.5v19.9h169.4V12.5c0-7.7,4.8-12.5,12.5-12.5c7.7,0,12.5,4.8,12.5,12.5v19.9h68.5
	c43.3,0,77.4,33.9,77.4,77.4v179c-7.2-10.3-15.5-19.7-25-28v-73.7H25v214.4c0,27.8,24.5,52.3,52.3,52.3h187.3
	c5.9,9,12.9,17.5,20.6,25H77.4V478.7z M77.4,57.5C49.5,57.5,25,82,25,109.8v52.3h461v-52.3c0-27.8-24.5-52.3-52.3-52.3h-68.3v19.9
	c0,7.7-4.8,12.5-12.5,12.5c-7.7,0-12.5-4.8-12.5-12.5V57.5H170.9v19.9c0,7.7-4.8,12.5-12.5,12.5c-7.7,0-12.5-4.8-12.5-12.5V57.5
	H77.4z"/>
</svg>
