<?xml version="1.0" encoding="utf-8"?>
<!-- Generator: Adobe Illustrator 19.2.0, SVG Export Plug-In . SVG Version: 6.00 Build 0)  -->
<svg version="1.1" id="Capa_1" xmlns="http://www.w3.org/2000/svg" xmlns:xlink="http://www.w3.org/1999/xlink" x="0px" y="0px"
	 viewBox="0 0 380 380" style="enable-background:new 0 0 380 380;" xml:space="preserve">
<style type="text/css">
	.st0{fill:#FFFFFF;}
</style>
<path class="st0" d="M209.4,302.5c4.9,4.2,13.4,6.2,25.5,6.2l3.2,0.1v11.4h11.5v-11.4l3.5-0.1c12.1,0,20.6-2.2,25.4-6.5
	c4.9-4.3,7.3-11.9,7.3-22.7c0-10-2.2-16.9-6.6-20.7c-4.5-3.8-13.1-6-25.8-6.7l-3.8-0.1v-25.6h2.7c9.4,0,14.1,3.8,14.1,11.3l0.1,1.9
	H283v-2.3c0-10.1-2.3-16.9-7.1-20.6c-4.7-3.7-13.5-5.5-26.3-5.5v-9.9h-11.5v9.9c-13.4,0-22.6,1.9-27.5,5.8c-4.9,3.8-7.4,11-7.4,21.5
	c0,10.8,2.5,18.2,7.4,22.1c4.9,3.9,14.1,5.9,27.6,5.9V294l-2.5-0.1c-6.9,0-11.4-0.9-13.3-2.7c-2-1.8-3-5.9-3-12.2v-1.8h-17.1
	l-0.1,3.5C202.1,291,204.6,298.3,209.4,302.5z M249.7,267c7.7,0,12.8,0.8,15.3,2.5c2.4,1.7,3.7,5.1,3.7,10.3
	c0,9.5-5.5,14.3-16.4,14.3h-2.5V267z M235.6,251.2c-10.1,0-15.1-4.2-15.1-12.7c0-8.1,5-12.1,15.2-12.1l2.5-0.1v25.1
	C236.5,251.3,235.7,251.2,235.6,251.2z M242.8,380c65.2,0,118.2-53.5,118.2-119.3c0-65.8-53-119.3-118.2-119.3
	c-65.2,0-118.3,53.5-118.3,119.3C124.6,326.5,177.6,380,242.8,380z M242.8,160.6c54.7,0,99.2,44.9,99.2,100.1
	c0,55.2-44.5,100.1-99.2,100.1c-54.7,0-99.2-44.9-99.2-100.1C143.6,205.5,188.1,160.6,242.8,160.6z M242.8,352.1
	c50,0,90.6-41,90.6-91.4c0-50.4-40.6-91.5-90.6-91.5c-50,0-90.7,41-90.7,91.5C152.1,311.1,192.8,352.1,242.8,352.1z M242.8,176.9
	c45.8,0,83,37.6,83,83.8c0,46.2-37.2,83.8-83,83.8c-45.8,0-83.1-37.6-83.1-83.8C159.8,214.5,197,176.9,242.8,176.9z M185.8,174.6
	c-6.3,6.3-16.5,6.2-22.8-0.2l-43.9-45.1v223.2c0,12-9.6,21.7-21.5,21.7c-7.5,0-14-3.9-17.9-9.7c-3.8,5.9-10.4,9.7-17.9,9.7
	c-11.8,0-21.5-9.7-21.5-21.7V232.4c-1.7,0.6-3.5,1-5.4,1c-8.9,0-16.1-7.3-16.1-16.2V111.6c0-9,7.2-16.2,16.1-16.2h34.7l6.1,8.2
	l-11.1,63.6l15.1,14.3l15.1-14.3l-11.1-63.6l6.1-8.2h34.7c4.3,0,8.5,1.8,11.5,4.9l50.1,51.4C192.2,158,192.1,168.3,185.8,174.6z
	 M43.1,35.6C43.1,12.3,59.5,0,79.8,0c20.2,0,36.6,12.3,36.6,35.6c0,23.3-16.4,48.6-36.6,48.6C59.5,84.3,43.1,58.9,43.1,35.6z"/>
</svg>
