<?xml version="1.0" encoding="utf-8"?>
<!-- Generator: Adobe Illustrator 19.2.0, SVG Export Plug-In . SVG Version: 6.00 Build 0)  -->
<svg version="1.1" id="Capa_1" xmlns="http://www.w3.org/2000/svg" xmlns:xlink="http://www.w3.org/1999/xlink" x="0px" y="0px"
	 viewBox="0 0 380 380" style="enable-background:new 0 0 380 380;" xml:space="preserve">
<style type="text/css">
	.st0{fill:#FFFFFF;}
</style>
<g>
	<path class="st0" d="M251.5,319.8c4.5,3.9,12.3,5.7,23.5,5.7l2.9,0.1v10.5h10.6v-10.5l3.2-0.1c11.1,0,19-2,23.4-6
		c4.5-4,6.7-11,6.7-20.9c0-9.2-2-15.6-6.1-19.1c-4.1-3.5-12.1-5.5-23.8-6.2l-3.5-0.1v-23.6h2.5c8.7,0,13,3.5,13,10.4l0.1,1.7h15.2
		v-2.1c0-9.3-2.1-15.6-6.5-19c-4.3-3.4-12.4-5.1-24.2-5.1v-9.1h-10.6v9.1c-12.3,0-20.8,1.7-25.3,5.3c-4.5,3.5-6.8,10.1-6.8,19.8
		c0,9.9,2.3,16.8,6.8,20.3c4.5,3.6,13,5.4,25.4,5.4V312l-2.3-0.1c-6.4,0-10.5-0.8-12.2-2.5c-1.8-1.7-2.8-5.4-2.8-11.2v-1.7H245
		l-0.1,3.2C244.8,309.2,247.1,315.9,251.5,319.8z M288.6,287.1c7.1,0,11.8,0.7,14.1,2.3c2.2,1.6,3.4,4.7,3.4,9.5
		c0,8.7-5.1,13.2-15.1,13.2h-2.3L288.6,287.1L288.6,287.1z M275.6,272.6c-9.3,0-13.9-3.9-13.9-11.7c0-7.5,4.6-11.1,14-11.1l2.3-0.1
		v23.1C276.4,272.7,275.7,272.6,275.6,272.6z M282.2,380c53.9,0,97.8-44.3,97.8-98.7s-43.8-98.7-97.8-98.7s-97.9,44.3-97.9,98.7
		C184.5,335.7,228.3,380,282.2,380z M282.2,189.2c50.4,0,91.3,41.3,91.3,92.1s-41,92.1-91.3,92.1s-91.3-41.3-91.3-92.1
		S231.9,189.2,282.2,189.2z M282.2,374.2c50.8,0,92.1-41.7,92.1-92.9s-41.3-93-92.1-93s-92.2,41.7-92.2,93
		C190.1,332.5,231.4,374.2,282.2,374.2z M282.2,204.2c42.2,0,76.4,34.6,76.4,77.1s-34.2,77.1-76.4,77.1s-76.5-34.6-76.5-77.1
		C205.8,238.8,240.1,204.2,282.2,204.2z"/>
	<path class="st0" d="M160.5,205.1h2.5c23.1-0.4,41.8-8.5,55.6-24c30.3-34.2,25.3-92.8,24.7-98.4c-2-42-21.8-62.1-38.2-71.5
		c-12.2-7-26.5-10.8-42.4-11.1h-1.3c-8.7,0-25.9,1.4-42.4,10.8c-16.6,9.4-36.7,29.5-38.7,71.8c-0.6,5.6-5.6,64.2,24.7,98.4
		C118.7,196.6,137.4,204.7,160.5,205.1L160.5,205.1z M101.3,84.6c0-0.2,0.1-0.5,0.1-0.6c2.6-56.5,42.7-62.6,59.9-62.6h0.9
		c21.3,0.5,57.5,9.1,59.9,62.6c0,0.2,0,0.5,0.1,0.6c0.1,0.5,5.6,54.1-19.5,82.4c-9.9,11.2-23.2,16.7-40.6,16.9h-0.8
		c-17.3-0.2-30.7-5.7-40.5-16.9C95.9,138.9,101.2,85,101.3,84.6L101.3,84.6z M101.3,84.6"/>
	<path class="st0" d="M183.5,358.7c-6.9,0.4-14.1,0.7-21.6,0.7c-75.8,0-126.2-25.1-139-32.4c-1.3-6.3-1.8-17.3-1.7-24.4
		c0-0.6,0.1-1.3,0.1-2c0.6-18,2.6-37.6,21-44.1c39.3-10.1,70.6-32,72-32.9c4.8-3.4,6-10,2.6-14.8c-3.4-4.8-10-6-14.8-2.6
		c-0.3,0.2-29.7,20.7-65.4,29.8c-0.3,0.1-0.6,0.2-0.8,0.2C1.6,248,0.6,284.5,0.1,300.1c0,0.7,0,1.3-0.1,2v0.2
		c-0.1,4.1-0.2,25.1,4,35.7c0.8,2.1,2.2,3.8,4.1,5c2.4,1.6,59,37.7,153.9,37.7c12.4,0,24.1-0.6,35.1-1.7
		C191.5,371.8,187,364.9,183.5,358.7z"/>
</g>
</svg>
