<?xml version="1.0" encoding="utf-8"?>
<!-- Generator: Adobe Illustrator 22.1.0, SVG Export Plug-In . SVG Version: 6.00 Build 0)  -->
<svg version="1.1" id="Layer_1" xmlns="http://www.w3.org/2000/svg" xmlns:xlink="http://www.w3.org/1999/xlink" x="0px" y="0px"
	 viewBox="0 0 512 512" style="enable-background:new 0 0 512 512;" xml:space="preserve">
<style type="text/css">
	.st0{fill:#FFFFFF;}
</style>
<path class="st0" d="M57.2,423.1c0,2.6,0.1,5.3,0,7.9c-0.2,4.6-3.5,7.9-7.9,7.9c-4.2,0-7.9-3.4-8-7.9c-0.1-5.4-0.1-10.7,0-16.1
	c0.1-4.6,3.6-7.9,7.9-7.9c4.4,0,7.8,3.5,8,8.1C57.3,417.9,57.2,420.5,57.2,423.1L57.2,423.1z"/>
<path class="st0" d="M1.6,382.7c1-5.6,1.7-11.4,3.1-16.9c7.6-29.4,24.9-51.2,51.2-66.3c23-13.1,45.8-26.5,68.7-39.8
	c0.6-0.3,1.1-0.7,1.3-0.9c-4.5-8.4-9.1-16.6-13.2-25.1c-2.8-5.7-4.7-11.7-7.1-17.5c-0.4-0.9-0.9-2.1-1.6-2.4
	c-7.1-3.3-12-8.9-15.6-15.5c-7.4-13.5-10.8-27.9-7.5-43.3c1.1-5.2,3.2-10,7.4-13.3c2.3-1.8,5.2-2.8,8-3.8c1.3-0.5,2.2-0.8,2.2-2.3
	c-0.3-5.2-0.5-10.5-1-15.7c-1.7-16.8-2.4-33.7,1.5-50.3c4.4-18.9,14.5-33.4,33.3-40.5c3.9-1.5,8.1-2.5,12.3-3
	c3.8-0.4,7.2-1.6,10.5-3.5c15.9-8.5,33.1-12.4,51-13c16-0.6,31.8,0.4,47.3,4.9c24.1,7,43.7,20.4,58.4,40.7c1,1.4,2,1.9,3.7,1.9
	c13.7-0.5,27.3,0.5,40.4,5.2c24.8,8.8,41.5,25.9,51,50.2c1.9,5,3.4,10.2,4.6,15.4c1.7,6.9-3.9,11.9-10.7,9.7c-1.2-0.4-2.3-0.8-4-1.3
	c0.6,2.3,1.2,4.2,1.7,6.1c0.3,1.2,0.8,2.3,1,3.5c0.5,4.1,1.9,6.8,6.2,8.8c5.8,2.6,8.1,8.5,8.7,14.7c1.6,15.2-1.9,28.8-12.9,39.9
	c-0.4,0.4-0.8,0.9-1.3,1.1c-4.1,1.8-5.5,5.4-7,9.3c-4.9,12.7-11.6,24.5-20.2,35.1c-0.5,0.6-0.9,1.2-1.5,2.1
	c5.4,3.5,10.6,6.9,15.9,10.3c17.1,11,34.1,22.2,51.3,33c4.6,2.9,10,4.4,14.8,6.9c32.5,17.3,51.2,44.2,56.1,80.8
	c0.1,0.9,0.4,1.8,0.6,2.7c0,5.5,0,10.9,0,16.4c-1.1,6.2-1.8,12.5-3.5,18.5c-10.9,37.6-35.2,62.1-72.7,73.3
	c-6.3,1.9-12.9,2.5-19.4,3.8c-5.5,0-10.9,0-16.4,0c-3.9-0.7-7.8-1.2-11.6-2c-20.2-4.1-37.6-13.5-52.3-27.9c-1.4-1.4-2.8-1.9-4.7-1.9
	c-41.3,0-82.5,0-123.8,0c-60.2,0-120.4,0-180.6,0c-8.6,0-15.5-3.8-20-11.2c-1.7-2.7-2.5-6-3.8-9.1C1.6,427.9,1.6,405.3,1.6,382.7z
	 M313.5,93.4c-0.8-2.1-1.4-4.1-2.2-6C299.9,58.6,280,38.9,250,30.2c-21.6-6.3-43.7-6.6-65.7-1.6c-9.7,2.2-18.9,5.7-27.2,11.4
	c-1.3,0.9-3.2,1-4.8,1.4c-4.9,0.9-10,1.1-14.6,2.8c-12.7,4.7-19.7,14.7-23,27.4c-3,11.6-3.2,23.5-2.4,35.4
	c0.9,13.6,3.5,27.1,0.9,40.8c-1.3,6.7-6.2,10-12.1,6.8c-2.3-1.3-3.4-0.7-4.1,1.6c-0.3,0.9-0.7,1.8-0.8,2.7
	c-1.9,13.6,1.1,26,9.7,36.9c1.3,1.7,3.5,3.2,5.5,3.6c4.1,0.8,6.3,3.1,7.7,6.9c3,8.2,5.8,16.5,9.6,24.4c10,21,23.5,39.4,42.9,53
	c22.3,15.7,48.7,16.2,71.5,1.3c15.6-10.2,27.4-24,37-39.8c7.4-12.1,13.3-24.9,17.3-38.5c1-3.3,2.6-6.4,6.3-6.9c3.7-0.4,6-2.5,8-5.2
	c4.9-6.3,7.4-13.7,8.7-21.5c0.9-5.7,1.1-11.4-0.8-17c-0.7-2.1-1.7-2.8-4-1.5c-6,3.2-11.8-0.1-12.2-6.9c-0.5-8.7-2.1-17.2-5-25.4
	c-1.4-4.2-2.9-8.4-3.7-12.7c-1.3-7.6,3.1-13.8,10.7-15.4C308,93.5,310.5,93.6,313.5,93.4z M135.5,271.9c-0.3,0.1-0.8,0.4-1.2,0.7
	c-24,13.9-48.2,27.6-72.1,41.8c-29.7,17.6-44.4,44-44.7,78.5c-0.1,17.1,0,34.3,0,51.4c0,7.9,2.7,10.6,10.5,10.6
	c35.9,0,71.8,0,107.7,0c56.6,0,113.2,0,169.9,0c4.7,0,9.3,0,14.5,0c-14.9-24.4-19.9-50.2-13.9-77.7c6-27.6,21.5-48.9,44.8-64.8
	c-0.4-0.3-0.6-0.5-0.9-0.7c-22.6-13.1-45.1-26.1-67.7-39.3c-1.5-0.9-2.2-0.4-3.2,0.8c-7.1,8.6-15.2,16.2-24.4,22.6
	c-16.8,11.7-35.2,17.9-55.9,15.2c-17.4-2.3-32.2-10.3-45.2-21.6C147.4,284.1,141.7,278,135.5,271.9z M319.6,399.2
	c-0.4,47.3,38.9,87.1,86.3,87.4c48.7,0.4,88.3-38.5,88.6-87.1c0.3-47.5-38.9-87.6-85.9-87.8C359,311.5,320,349.9,319.6,399.2z
	 M392.2,119.5c-4-24.8-42.2-50.3-69.4-46.2c0.3,0.8,0.6,1.6,0.9,2.3c2.9,8.8,5.9,17.7,8.7,26.5c1.1,3.3,0.5,6.4-2.2,8.8
	c-2.7,2.3-5.7,2.5-9,1.2c-3.1-1.2-6.4-1.9-10-2.9c0.1,1,0.1,1.3,0.2,1.7c2.3,8.4,4.5,16.9,6.8,25.3c0.2,0.7,1.2,1.2,1.9,1.6
	c2.2,1,4.7,1.5,6.7,2.8c5.1,3.3,7.6,8.6,8.8,14.3c3.1,13.8,0.4,27-5.4,39.6c-3.6,7.8-8.6,14.6-16.4,18.8c-1.2,0.7-2.3,2.1-2.9,3.4
	c-4.1,9.1-7.9,18.3-12.1,27.3c-2.4,5.1-5.6,9.8-8.4,14.7c0.4,0.3,0.7,0.5,1,0.7c11.9,6.9,23.8,13.8,35.7,20.7
	c13,7.6,26,15.2,39.1,22.8c0.8,0.5,2.1,0.3,3.1,0.1c6.3-1.7,12.5-3.7,18.8-5.1c4.5-1,9.2-1.3,14.4-2.1
	c-14.3-9.3-28.2-18.3-42.1-27.2c-1.4,1.1-2.5,2.1-3.7,3c-3.8,2.9-8.4,2.5-11.3-1c-2.8-3.5-2.3-8.2,1.3-11.3c2.2-1.9,4.5-3.7,6.6-5.8
	c13.7-13.6,22.8-29.9,28.4-48.2c1.1-3.6,3.2-5.8,7-6.5c1.1-0.2,2.3-0.9,3-1.8c5.9-7.2,8-15.6,7.3-24.8c-0.1-1-0.5-1.9-0.8-2.8
	c-7.4,2.2-11.7-0.7-12.2-8.1c-0.5-7.3-2.4-14.3-4.7-21.2c-1.1-3.2-1.8-6.8-1.5-10.2C380.2,123.8,384.2,120.9,392.2,119.5z"/>
<path class="st0" d="M163.4,90c-4.1,6.3-8.1,12.5-12.2,18.6c-2.4,3.7-5.7,5.1-9.4,4c-4.8-1.5-7.5-6.7-4.9-11
	c4.6-7.6,9.5-15.2,14.9-22.3c4.3-5.7,12.2-6.5,19.1-3.4c8.3,3.9,16.4,8,24.9,11.3c17.5,6.8,35.7,9.8,54.4,9.8c6.4,0,12.8-0.1,19.2,0
	c4.4,0.1,7.7,3.5,7.8,7.8c0.1,4.1-3.3,8-7.5,8c-16.8,0.1-33.5,0.5-50.1-2.5c-18.1-3.3-35.2-9.5-51.5-18
	C166.6,91.6,165.1,90.9,163.4,90z"/>
<path class="st0" d="M136.7,320.1c0.1-5.5,5-9.3,9.8-8.1c1.3,0.3,2.5,0.9,3.7,1.5c18.7,9.3,37.4,18.7,56.1,28.1
	c1.5,0.8,2.7,0.8,4.2,0c18.8-9.5,37.7-18.9,56.6-28.4c5-2.5,9.6-1.5,11.8,2.5c2.4,4.2,0.7,9.1-4.1,11.5c-11,5.5-22.1,11-33.1,16.5
	c-9.4,4.7-18.9,9.3-28.3,14.2c-3.4,1.7-6.5,1.7-9.9,0c-20.3-10.3-40.7-20.4-61.1-30.6C138.8,325.7,136.9,323.3,136.7,320.1z"/>
<path class="st0" d="M120.8,422.9c0-2.6-0.1-5.3,0-7.9c0.1-4.4,3.6-7.9,7.9-8c4.3,0,7.9,3.4,8,7.8c0.1,5.4,0.1,10.7,0,16.1
	c-0.1,4.5-3.6,7.9-7.9,7.9c-4.4,0-7.8-3.3-8-7.8C120.8,428.4,120.9,425.7,120.8,422.9C120.9,422.9,120.8,422.9,120.8,422.9z"/>
<path class="st0" d="M256,423c0,2.6,0.1,5.3,0,7.9c-0.2,4.7-3.6,8.1-8.1,8c-4.3-0.1-7.7-3.5-7.8-8c-0.1-5.3-0.1-10.5,0-15.8
	c0.1-4.6,3.6-8.1,8-8c4.2,0.1,7.7,3.6,7.8,8.1C256.1,417.8,256,420.4,256,423L256,423z"/>
<path class="st0" d="M216.3,422.9c0,2.6,0.1,5.3,0,7.9c-0.2,4.7-3.6,8.2-8,8.2s-7.9-3.5-7.9-8.2c-0.1-5.2-0.1-10.3,0-15.5
	c0.1-4.7,3.5-8.2,7.9-8.2c4.3,0,7.8,3.6,8,8.2C216.4,417.8,216.3,420.4,216.3,422.9z"/>
<path class="st0" d="M295.7,423c0,2.7,0.1,5.5,0,8.2c-0.2,4.4-3.5,7.7-7.7,7.7c-4.3,0.1-7.9-3-8-7.4c-0.2-5.6-0.2-11.3,0-16.9
	c0.2-4.2,4-7.6,8-7.5c4.2,0.1,7.6,3.4,7.8,7.7C295.8,417.5,295.7,420.3,295.7,423L295.7,423z"/>
<path class="st0" d="M176.5,423.3c0,2.5,0.1,5.1,0,7.6c-0.1,4.5-3.5,8-7.7,8.1s-7.9-3.1-8.1-7.4c-0.3-5.6-0.2-11.3,0-16.9
	c0.2-4.3,3.9-7.6,8-7.5c4.3,0.1,7.7,3.4,7.8,8C176.5,417.8,176.5,420.5,176.5,423.3L176.5,423.3z"/>
<path class="st0" d="M81.1,422.9c0-2.6-0.1-5.3,0-7.9c0.1-4.5,3.6-7.9,7.8-8c4.1,0,7.8,3.3,8,7.6c0.2,5.6,0.2,11.3,0,16.9
	c-0.2,4.4-3.9,7.5-8.1,7.3c-4.3-0.1-7.5-3.4-7.7-7.8C81,428.4,81.1,425.6,81.1,422.9L81.1,422.9z"/>
<path class="st0" d="M415,455.2c0,2.6,0.1,5.1,0,7.5c-0.1,4.5-3.5,8-7.8,8.1c-4.2,0.1-7.8-3.3-8.1-7.8c-0.1-2.5,0-5.1,0-7.4
	c-4.3-1.1-8.5-1.7-12.3-3.4c-12-5.3-18.5-14.7-19.4-27.8c-0.4-5.2,2.7-9,7.3-9.3c4.7-0.3,8.2,3.1,8.6,8.5
	c0.7,8.9,7.1,15.2,15.8,15.2c0-3.3,0-6.7,0-10c0-2-0.1-4,0.1-5.9c0.3-4.5,4-7.9,8.2-7.7c4.4,0.2,7.6,3.6,7.7,8.2
	c0,5.1,0,10.1,0,15.1c5.5,1.4,12.4-3.8,14.6-9.1c4.3-10.7-2.9-21.8-14.6-22.2c-5.1-0.1-10.2,0-15.3,0c-17.6,0-31.8-13.3-32.4-30.4
	c-0.7-17.3,12-31.6,29.6-33.1c0.6-0.1,1.3-0.2,2.2-0.3c0-2.6,0-5,0-7.4c0.1-4.9,3.5-8.3,8.1-8.3c4.5,0.1,7.7,3.4,7.8,8.3
	c0,2.4,0,4.8,0,6.9c4.1,1,8,1.5,11.5,2.9c12.6,5.1,19.3,14.8,20.3,28.4c0.4,5.1-2.9,8.9-7.5,9.1c-4.5,0.2-8-3.1-8.3-8.1
	c-0.4-7.1-3.7-12.8-10.5-14.5c-8.9-2.3-18.2-2.3-27,0.1c-7.3,2-11.3,10.1-9.9,17.3c1.5,7.6,7.7,12.9,15.6,13c0-4.9-0.1-9.9,0.1-14.8
	c0.1-1.8,0.5-3.8,1.4-5.3c1.7-3,5.4-4.2,8.6-3.3c3.4,0.9,5.7,3.8,5.8,7.5c0.1,4.2,0,8.5,0,12.7c0,1,0,2,0,3
	c21.9,1.6,32,18.3,31.8,32.2c-0.1,8.7-3.2,16.2-9.3,22.4C432.3,450.8,428.6,452.3,415,455.2z"/>
</svg>
