<?xml version="1.0" encoding="utf-8"?>
<!-- Generator: Adobe Illustrator 23.0.2, SVG Export Plug-In . SVG Version: 6.00 Build 0)  -->
<svg version="1.1" id="Layer_1" xmlns="http://www.w3.org/2000/svg" xmlns:xlink="http://www.w3.org/1999/xlink" x="0px" y="0px"
	 viewBox="0 0 150 150" style="enable-background:new 0 0 150 150;" xml:space="preserve">
<style type="text/css">
	.st0{fill:#FFFFFF;}
</style>
<path id="Union_257" class="st0" d="M112.1,148.8v-10.2l-1-0.1c-4.4-0.4-8.7-1.7-12.5-3.8c-3.5-2.1-6.6-4.8-9-8l6.8-6.7
	c1.9,2.5,4.1,4.6,6.7,6.4c2.3,1.6,5,2.6,7.9,2.9l1.2,0.1v-24.3l-0.9-0.2c-7.5-1.6-13.2-4.1-16.6-7.4c-3.5-3.3-5.2-7.5-5.2-13
	c0-5.6,1.9-10.1,5.6-13.5c3.9-3.4,9.1-5.3,16-5.7l1-0.1v-7h4.3v6.9l1,0.1c3.9,0.3,7.8,1.4,11.3,3.2c3.3,1.7,6.3,4,8.8,6.7l-6.6,6.9
	c-1.6-2.1-3.5-4-5.7-5.5c-2.3-1.5-4.9-2.4-7.6-2.6l-1.2-0.1V96l0.8,0.2c8.4,2.1,14.3,4.9,17.8,8.3c3.4,3.4,5.1,7.9,5.1,13.8
	c0,6-2,10.7-6,14.3s-9.6,5.5-16.7,5.7h-1v10.3L112.1,148.8z M116.4,129.6h1.1c4.1,0,7.1-0.9,9.2-2.6c2.2-1.8,3.3-4.4,3.3-7.8
	s-1-6.1-3-8c-1.9-1.9-4.9-3.2-9.3-4.2l-1.3-0.3L116.4,129.6z M102.1,76.3c-2.2,1.8-3.4,4.5-3.3,7.3c-0.1,2.7,1,5.2,3,7
	c1.9,1.7,4.9,2.9,9,3.7l1.3,0.3v-21H111C107.1,73.8,104.2,74.7,102.1,76.3z M0,119V33.4C-0.1,21,9.8,10.8,22.2,10.7
	c0.2,0,0.3,0,0.5,0h20.1V4.9C42.7,3,44.1,1.3,46,1.2c0.2,0,0.3,0,0.5,0C48.3,1,50,2.5,50.1,4.3c0,0.2,0,0.3,0,0.5v5.8h49.7V4.9
	c0-2,1.6-3.7,3.7-3.7s3.7,1.6,3.7,3.7v5.8h20.1c12.4-0.1,22.6,9.8,22.7,22.3c0,0.2,0,0.3,0,0.5v38.3c-2.1-3.1-4.5-5.8-7.3-8.3V56
	h-16.9v-5.4h-22.9V56H7.3v62.9c0.2,8.4,7,15.2,15.4,15.4h54.9c1.7,2.7,3.8,5.1,6,7.3H22.7v0.1c-12.4,0.1-22.5-9.8-22.7-22.2
	C0,119.3,0,119.2,0,119z M7.3,33.4v15.4h135.3V33.4c-0.2-8.4-7-15.2-15.4-15.4h-20.1v5.8c0,2-1.6,3.7-3.7,3.7s-3.7-1.6-3.7-3.7V18
	H50.1v5.8c0.1,1.9-1.3,3.5-3.2,3.7c-0.2,0-0.3,0-0.5,0c-1.9,0.1-3.5-1.3-3.7-3.2c0-0.2,0-0.3,0-0.5V18h-20
	C14.3,18.2,7.5,25,7.3,33.4z M54.8,115.4c-3.3-3.1-3.4-8.3-0.2-11.6c0.1-0.1,0.2-0.2,0.2-0.2c3-3.3,8.1-3.4,11.4-0.4
	c0.1,0.1,0.3,0.3,0.4,0.4c3.3,3.1,3.4,8.3,0.2,11.6c-0.1,0.1-0.2,0.2-0.2,0.2c-3.1,3.3-8.3,3.4-11.6,0.2
	C55,115.5,54.9,115.4,54.8,115.4z M26.3,115.4c-1.5-1.6-2.4-3.7-2.5-5.9c-0.1-2.2,0.8-4.4,2.5-5.9c3-3.3,8.1-3.4,11.4-0.4
	c0.1,0.1,0.3,0.3,0.4,0.4c3.3,3.1,3.4,8.3,0.2,11.6c-0.1,0.1-0.2,0.2-0.2,0.2c-1.5,1.7-3.7,2.6-5.9,2.5C30,118,27.8,117,26.3,115.4z
	 M54.8,86.8c-1.5-1.6-2.4-3.7-2.5-5.9c0.1-2.2,1-4.3,2.5-5.9c3-3.3,8.1-3.4,11.4-0.4c0.1,0.1,0.3,0.3,0.4,0.4
	c1.5,1.6,2.4,3.7,2.5,5.9c-0.1,2.2-1,4.3-2.5,5.9c-3.1,3.3-8.3,3.4-11.6,0.2C55,87,54.9,86.9,54.8,86.8L54.8,86.8z M26.3,86.8
	c-3.3-3.1-3.4-8.3-0.2-11.6c0.1-0.1,0.2-0.2,0.2-0.2c3-3.3,8.1-3.4,11.4-0.4c0.1,0.1,0.3,0.3,0.4,0.4c1.5,1.6,2.4,3.7,2.5,5.9
	c-0.1,2.2-1,4.3-2.5,5.9c-1.5,1.7-3.7,2.6-5.9,2.5C30,89.4,27.8,88.5,26.3,86.8z"/>
</svg>
