<?xml version="1.0" encoding="utf-8"?>
<!-- Generator: Adobe Illustrator 18.0.0, SVG Export Plug-In . SVG Version: 6.00 Build 0)  -->
<!DOCTYPE svg PUBLIC "-//W3C//DTD SVG 1.1//EN" "http://www.w3.org/Graphics/SVG/1.1/DTD/svg11.dtd">
<svg version="1.1" id="Capa_1" xmlns="http://www.w3.org/2000/svg" xmlns:xlink="http://www.w3.org/1999/xlink" x="0px" y="0px"
	 viewBox="0 0 380 380" enable-background="new 0 0 380 380" xml:space="preserve">
<g>
	<ellipse fill="#FFFFFF" cx="115.2" cy="53.8" rx="57.8" ry="53.8"/>
	<path fill="#FFFFFF" d="M326.1,135.1V91.3h-38V80.4h-23.3c0-6.9-6.2-12.4-13.9-12.4S237,73.6,237,80.4h-23.2v10.9h-43.9v22.4
		l-1.1-0.1h-32.6l-22,23.8l-21.3-23.8l-46.7,5.9l-3.1,98.9H63l1,20h3v12.3v9v95.7h-3.9l-23.2,4.7V380h19.7l23.1-3.5l0.2,3.5h25.5
		v-22.2v-2.4v-95.7h14.5v95.7v2.4V380h25.6l0.2-3.5l23,3.5h19.7v-19.9l-23.1-4.7h-4v-95.7v-9v-12.3h3.6l2-36v84h156.2v-111h16v-40.3
		H326.1z M250.9,75.9c3.1,0,5.6,2.3,5.6,5.2c0.1,2.9-2.5,5.2-5.6,5.2c-3.1,0-5.6-2.3-5.6-5.2C245.3,78.2,247.8,75.9,250.9,75.9z
		 M313.2,274.5H182.7V103.3h31.1v8.5h74.3v-8.5h25.1v31.8h-10.1v40.3h10.1V274.5z"/>
	<rect x="194.3" y="188.4" fill="#FFFFFF" width="28" height="63.1"/>
	<rect x="228.8" y="171" fill="#FFFFFF" width="28" height="80.5"/>
	<rect x="262.9" y="135.1" fill="#FFFFFF" width="28" height="116.4"/>
</g>
</svg>
