<?xml version="1.0" encoding="utf-8"?>
<!-- Generator: Adobe Illustrator 23.0.2, SVG Export Plug-In . SVG Version: 6.00 Build 0)  -->
<svg version="1.1" id="Layer_1" xmlns="http://www.w3.org/2000/svg" xmlns:xlink="http://www.w3.org/1999/xlink" x="0px" y="0px"
	 viewBox="0 0 512 512" style="enable-background:new 0 0 512 512;" xml:space="preserve">
<style type="text/css">
	.st0{fill:#35C4FF;}
</style>
<g>
	<path class="st0" d="M77,0c8.4,4.2,7,12.3,7.1,20c2.3,0,4.3,0,6.2,0c48.5,0,97,0.1,145.5,0c23.3,0,45.1,5.5,65.6,16.5
		C344.9,60,388.5,83.3,432,106.8c4.2,2.3,8.4,3.4,13.3,3.3c9.1-0.2,12.7,3.5,12.7,12.7c0,59.5,0,119,0,178.5
		c0,9.1-3.6,12.8-12.7,12.8c-112.8,0-225.6,0-338.5,0c-9.3,0-12.8-3.6-12.8-13.2c0-44.3,0-88.7,0-133c0-2,0-3.9,0-6.1H84
		c0,4.5,0,8.8,0,13.1c-0.1,9.9-5.2,13.2-17.1,11.8c-15.8-1.9-31.8-1.8-47.6,0.1c-8.7,1-15.3,0.3-19.2-6.7V0H77z M114.3,250.6
		c23.2,5.7,37.6,20.2,43.2,43.1h237.3c2.5-11,7.3-20.3,15.1-28c7.8-7.8,17.4-12.5,27.9-15v-77.2c-23.2-5.9-37.5-20.4-43-42.7H244.5
		c-0.2,0.8-0.2,0.7-0.4,1.5c5.2,3.1,10.3,6.4,15.6,9.3c1.9,1,4.4,1.6,6.5,1.3c41.7-5,77.2,25,79.1,67c1.6,37.2-28.2,70.3-65,72.2
		c-39.3,1.9-72.4-26.8-74.4-65.1c-0.4-7.9,0.8-15.8,1.3-24c-30-11.8-59.1-27.6-92.9-30L114.3,250.6L114.3,250.6z M84.2,141.5
		c2.9,0,5.2-0.2,7.5,0c14.7,1.3,29.6,2.1,44.2,4.4c22,3.5,42.1,13.2,62.5,21.7c21.5,9,43,18,64.5,26.8c7.2,3,13.4,1,16.5-4.7
		c3.2-5.9,1-12.3-5.7-16.5c-3.5-2.2-7.2-4.2-10.7-6.4c-10.2-6.2-20.7-12.2-30.6-18.9c-6.6-4.4-9-11.5-8-19.3
		c1.1-8.3,5.7-14.2,13.6-17.1c3.3-1.2,7.2-1.5,10.8-1.5c46.7-0.1,93.3-0.1,140-0.1c1.7,0,3.4,0,6.6,0c-2-1.3-2.6-1.8-3.3-2.1
		c-34-18.3-68-36.5-102-54.8c-16.2-8.7-34.4-13.2-52.8-13.1c-49,0.1-98,0-146.9,0c-1.9,0-3.9,0-6,0v101.6H84.2z M20.4,20.2v146.5
		h43.4V20.2H20.4z M227.2,201.3c-6.2,21.6,6.9,51.1,35.6,59.1c23,6.4,53.2-6.5,61-36.1c6.5-24.7-8.5-50.3-26.3-56.3
		c1,5.4,3.3,11.4,3,17.3c-0.2,6.1-2.9,12-4.6,18.5c14.5,16.5,11.5,33.6-8.4,44.9c-1.2,0.7-1.6,2.7-2.8,3.7c-2.6,2.3-5.2,5.7-8.2,6.2
		c-2.7,0.4-7.5-1.6-8.7-3.9c-2.3-4.3-5.5-6.6-9.4-8.7c-1.7-0.9-3.2-2.4-4.6-3.8c-4.3-4.5-4.6-10.3-0.8-14.4c3.6-3.9,8.9-4,13.9-0.6
		c2.4,1.6,5.2,3.2,8,3.7c4.5,0.9,9.3-2.8,9.7-6.7c0.4-3.6-2.9-7.1-7.6-7.9c-1.5-0.2-3-0.1-4.5-0.3c-6.3-1.2-12.8-1.8-18.9-3.8
		C244.8,209.1,236.2,205,227.2,201.3z M438,293.8c0-4,0-7.6,0-11.2s0-7.1,0-10.8c-10.6,2.4-20.4,12.3-22.1,22H438z M114,293.6h22.2
		c-2.8-10.7-12.9-20.5-22.2-21.6c0,5.8,0,11.6,0,17.4C114,290.7,114,292,114,293.6z M415.9,130.2c2,10.3,13.1,21.2,21.7,21.5v-21.5
		H415.9z"/>
	<path class="st0" d="M435,512c-5.6-3.1-7.4-7.9-7.1-14.2c0.3-7.5,0.1-15,0.1-23c-9.6,1.6-18.7,3-27.9,4.5
		c-54.2,8.9-108.4,17.7-162.6,26.8c-13.4,2.2-26.8,4.4-40.1,0.7c-8.4-2.4-16.9-5.3-24.5-9.5c-32.9-18.3-65.4-37.2-98-56
		c-21.2-12.2-27.2-35.7-14.5-55.6c10.5-16.3,31.9-21.3,50.9-11.5c26.5,13.6,52.9,27.5,79.4,41.1c3.2,1.6,6.6,2.7,10.5,4.3
		c-0.7-5.6-1.9-10.3-1.7-14.9c0.7-14.2,7.7-24.8,20.6-30.7c25.2-11.6,50.4-23.6,76.2-33.9c28.3-11.2,57.3-10.5,86.1-0.6
		c13.5,4.6,27.1,9.2,40.6,13.8c1.5,0.5,3.1,1,5.1,1.6c0-6.2,0-12,0-17.9c0.1-10,5.3-13.4,17.7-11.8c16.2,2.1,32.6,2.3,48.8-0.1
		c8.3-1.2,13.9,0.5,17.5,6.7v180H435V512z M427.7,454.5c0.1-1.1,0.3-1.8,0.3-2.4c0-24.2,0-48.3,0.1-72.5c0-2.8-1.2-3.7-3.5-4.4
		c-16.4-5.5-32.7-11.2-49.1-16.7c-25.4-8.6-50.8-8.7-75.6,1.7c-19.2,8-38,16.9-56.9,25.5c-5.3,2.4-10.7,4.7-15.8,7.4
		c-5.5,2.9-8.4,8.9-7.6,14.6c0.9,6.6,5.1,12,11.8,12.3c5.5,0.3,11.4-1.3,16.8-3.1c19-6.1,37.8-12.8,56.8-19c6.9-2.3,13,0.8,14.2,6.8
		c1.1,5.6-1.8,10-8.4,12.3c-21.3,7.3-42.5,14.6-63.8,21.5c-4.8,1.6-10.1,2.1-15.2,2.1c-8.8,0-17.6-1.3-26.3-1.3
		c-8.4,0-16.1-1.9-23.5-5.8c-26.4-13.8-52.8-27.7-79.4-41.1c-4.1-2.1-9.3-3.1-13.8-2.7c-7.5,0.7-13.1,7-14.4,14
		c-1.5,8.2,1.9,15.3,10,20c32.9,18.9,65.9,37.8,98.8,56.6c13.9,7.9,28.7,10,44.3,7.3c37.6-6.3,75.2-12.4,112.8-18.6
		C369.2,464.2,398.2,459.4,427.7,454.5z M491.7,491.8V345.4h-43.4v146.4H491.7z"/>
	<path class="st0" d="M379.1,222c-3.7,0-7.3,0.2-11,0c-5.6-0.4-9.5-4.4-9.7-9.6c-0.1-4.9,3.3-9.5,8.6-9.9c7.9-0.5,16-0.5,23.9,0
		c5.5,0.4,8.6,4.9,8.3,10c-0.2,5.1-3.9,8.8-9.3,9.4c-0.3,0-0.7,0.1-1,0.1C385.7,222.1,382.4,222.1,379.1,222
		C379.1,222.1,379.1,222,379.1,222z"/>
	<path class="st0" d="M171.8,222c-3.3,0-6.7,0.1-10,0c-6-0.3-10-4.2-10.1-9.6c-0.2-5.3,3.2-9.7,9-10.1c7.6-0.5,15.3-0.5,22.9,0
		c5.6,0.4,9.2,5,9,10.1c-0.2,5.2-4.1,9.1-9.8,9.5C179.1,222.2,175.4,222,171.8,222L171.8,222z"/>
</g>
</svg>
