<?xml version="1.0" encoding="utf-8"?>
<!-- Generator: Adobe Illustrator 18.0.0, SVG Export Plug-In . SVG Version: 6.00 Build 0)  -->
<!DOCTYPE svg PUBLIC "-//W3C//DTD SVG 1.1//EN" "http://www.w3.org/Graphics/SVG/1.1/DTD/svg11.dtd">
<svg version="1.1" id="Capa_1" xmlns="http://www.w3.org/2000/svg" xmlns:xlink="http://www.w3.org/1999/xlink" x="0px" y="0px"
	height="20px" width="26px"  viewBox="0 0 380 380" enable-background="new 0 0 380 380" xml:space="preserve">
<g>
	<g>
		<path fill="#777777" d="M116.7,4.8C52.8,4.8,1,56.6,1,120.5S116.7,372,116.7,372s115.7-187.6,115.7-251.5S180.6,4.8,116.7,4.8z
			 M116.4,210.8c-50,0-90.5-40.6-90.5-90.5s40.5-90.5,90.5-90.5s90.5,40.6,90.5,90.5C206.9,170.2,166.3,210.8,116.4,210.8z"/>
		<path fill="#777777" d="M255.5,135.8c-3.9,0-7.8,0.2-11.6,0.6c-1.7,8.1-4.3,17-7.5,26.6c4.2-0.9,8.5-1.5,12.9-1.8v12.5
			c0,3.5,2.8,6.3,6.3,6.3c3.5,0,6.3-2.8,6.3-6.3v-12.5c13.5,0.9,26.3,4.7,37.7,10.7l-5.1,8.9c-0.9,1.6-0.4,3.6,1.2,4.5
			c0.5,0.3,1.1,0.4,1.7,0.4c1.2,0,2.3-0.6,2.9-1.7l5.1-8.9c11.4,7.1,21.1,16.5,28.6,27.6L323,209c-3,1.7-4,5.6-2.3,8.6
			c1.2,2,3.3,3.1,5.5,3.1c1.1,0,2.1-0.3,3.1-0.8l10.8-6.3c5.7,11.5,9.1,24.4,9.6,38l-10.3,0c-0.9,0-1.7,0.4-2.3,1
			c-0.6,0.6-1,1.5-1,2.4c0,1.2,0.6,2.3,1.7,2.9c0.5,0.3,1.1,0.4,1.6,0.4h0l10.3,0c-0.4,13.8-3.9,26.9-9.6,38.6l-10.8-6.3
			c-3-1.7-6.9-0.7-8.6,2.3c-1.7,3-0.7,6.9,2.3,8.6l10.8,6.2c-7.4,10.9-16.9,20.3-28.1,27.3l-5.1-8.9c-0.6-1-1.7-1.7-2.9-1.7
			c-0.6,0-1.1,0.2-1.7,0.5c-0.8,0.4-1.3,1.2-1.5,2c-0.2,0.9-0.1,1.8,0.3,2.5l5.2,8.9c-11.5,6.2-24.5,10.1-38.2,11v-12.5
			c0-3.5-2.8-6.3-6.3-6.3c-3.5,0-6.3,2.8-6.3,6.3v12.5c-13.5-0.9-26.3-4.7-37.7-10.7l5.1-8.9c0.4-0.8,0.6-1.7,0.3-2.5
			c-0.2-0.9-0.8-1.6-1.6-2c-0.5-0.3-1.1-0.4-1.7-0.4c-1.2,0-2.3,0.6-2.9,1.7l-5.1,8.9c-11.4-7.1-21.1-16.5-28.6-27.6l10.8-6.2
			c3-1.7,4-5.6,2.3-8.6c-1.7-3-5.6-4-8.6-2.3l-6,3.4c-5.8,10.9-11.6,21.3-17.1,31.1c21.7,30,57,49.6,96.9,49.6
			c65.9,0,119.5-53.6,119.5-119.5C375,189.4,321.4,135.8,255.5,135.8z"/>
		<path fill="#777777" d="M242.5,257.8c1.2,6.1,6.5,10.7,13,10.7s11.8-4.6,13-10.7l41.2-22.8c3.8-2.1,5.2-6.9,3.1-10.7
			c-2.1-3.8-6.9-5.2-10.7-3.1l-40.3,22.4c-1.8-1-3.9-1.5-6.1-1.5c-2.2,0-4.3,0.6-6.1,1.5l-37.6-20.9c-2.2,4.7-4.5,9.5-6.8,14.3
			L242.5,257.8z"/>
	</g>
</g>
</svg>
