<svg id="Group_25" data-name="Group 25" xmlns="http://www.w3.org/2000/svg" width="26.026" height="26.026" viewBox="0 0 26.026 26.026">
  <path id="Path_20" data-name="Path 20" d="M25.44,82.583h-.469V67a.6.6,0,0,0-.6-.6H21.131a.6.6,0,0,0-.6.6V82.583H18.488V73.47a.6.6,0,0,0-.6-.6H14.647a.6.6,0,0,0-.6.6v9.114H12V71.308a.6.6,0,0,0-.6-.6H8.163a.6.6,0,0,0-.6.6V82.583H5.533V76.711a.6.6,0,0,0-.6-.6H1.68a.6.6,0,0,0-.6.6v5.872H.6a.6.6,0,0,0-.6.6.606.606,0,0,0,.6.6H25.427a.6.6,0,0,0,.6-.6A.586.586,0,0,0,25.44,82.583Zm-21.118,0H2.291V77.31H4.322Zm6.471,0H8.762V71.92h2.031Zm6.484,0H15.246v-8.5h2.031Zm6.471,0H21.717V67.6h2.031Z" transform="translate(0 -57.755)" fill="#fff"/>
  <path id="Path_21" data-name="Path 21" d="M10.526,14.165a2.234,2.234,0,0,0,2.226-2.226,2.3,2.3,0,0,0-.247-1.029l3.216-2.565a2.176,2.176,0,0,0,1.289.417A2.229,2.229,0,0,0,18.9,7.708l2.383.677a2.528,2.528,0,0,0-.026.312,2.226,2.226,0,1,0,4.166-1.081l3.45-3.45a2.242,2.242,0,1,0-.859-.859l-3.45,3.45a2.212,2.212,0,0,0-2.786.508l-2.552-.729h0a2.226,2.226,0,1,0-4.453,0,2.4,2.4,0,0,0,.169.859l-3.281,2.63a2.151,2.151,0,0,0-1.133-.312,2.226,2.226,0,0,0,0,4.453ZM29.951,1.211a1.016,1.016,0,1,1,0,2.031,1.006,1.006,0,0,1-.7-.286l-.013-.013a1.03,1.03,0,0,1-.286-.7A1,1,0,0,1,29.951,1.211ZM23.481,7.682A1.016,1.016,0,1,1,22.465,8.7,1.017,1.017,0,0,1,23.481,7.682ZM17,5.533a1.017,1.017,0,0,1,1.016,1.016,1.017,1.017,0,0,1-1.8.638.045.045,0,0,1-.013-.026.99.99,0,0,1-.221-.625A1.014,1.014,0,0,1,17,5.533Zm-6.471,5.39a.994.994,0,0,1,.716.3l.039-.052-.039.052a1.037,1.037,0,0,1,.286.716,1.016,1.016,0,1,1-2.031,0A1.037,1.037,0,0,1,10.526,10.923Z" transform="translate(-7.219)" fill="#fff"/>
</svg>
