<svg xmlns="http://www.w3.org/2000/svg" width="25.403" height="26.249" viewBox="0 0 25.403 26.249">
  <g id="Group_26" data-name="Group 26" transform="translate(0.055)">
    <path id="Path_7" data-name="Path 7" d="M4.938,8.36h.7v2.323a.5.5,0,0,0,.315.486.437.437,0,0,0,.223.052.526.526,0,0,0,.381-.157l2.7-2.7H17.1a.532.532,0,0,0,.538-.538V.538A.532.532,0,0,0,17.1,0H4.938A.532.532,0,0,0,4.4.538V7.822A.568.568,0,0,0,4.938,8.36Zm3.727-.919L6.71,9.4V7.822a.532.532,0,0,0-.538-.538h-.7V1.076h11.09V7.284H9.046A.5.5,0,0,0,8.665,7.442Z" transform="translate(-3.871)" fill="#ff6d60"/>
    <path id="Path_8" data-name="Path 8" d="M32.338,16.176h6.484a.538.538,0,1,0,0-1.076H32.338a.532.532,0,0,0-.538.538A.524.524,0,0,0,32.338,16.176Z" transform="translate(-27.674 -13.118)" fill="#ff6d60"/>
    <path id="Path_9" data-name="Path 9" d="M32.338,29.676h6.484a.538.538,0,0,0,0-1.076H32.338a.532.532,0,0,0-.538.538A.524.524,0,0,0,32.338,29.676Z" transform="translate(-27.674 -24.846)" fill="#ff6d60"/>
    <path id="Path_10" data-name="Path 10" d="M36.787,42.738a.532.532,0,0,0-.538-.538H32.338a.538.538,0,0,0,0,1.076h3.911A.524.524,0,0,0,36.787,42.738Z" transform="translate(-27.674 -36.661)" fill="#ff6d60"/>
    <path id="Path_11" data-name="Path 11" d="M123.726,31.686a.581.581,0,0,0-.564-.486h-9.423a.532.532,0,0,0-.538.538v5.657a.532.532,0,0,0,.538.538h6.05l2.061,2.061a.526.526,0,0,0,.381.157.435.435,0,0,0,.249-.066.537.537,0,0,0,.289-.472v-1.68h.433a.532.532,0,0,0,.538-.538V31.738A.079.079,0,0,1,123.726,31.686Zm-2.061,5.709v.932l-1.312-1.312a.526.526,0,0,0-.381-.157h-5.709v-4.58h8.374v4.58h-.459A.519.519,0,0,0,121.665,37.395Z" transform="translate(-98.391 -27.105)" fill="#ff6d60"/>
    <path id="Path_12" data-name="Path 12" d="M28.1,72.416A4.016,4.016,0,1,0,32.116,68.4,3.975,3.975,0,0,0,28.1,72.416Zm4.016-2.953a2.94,2.94,0,1,1-2.94,2.953A2.943,2.943,0,0,1,32.116,69.463Z" transform="translate(-24.46 -59.423)" fill="#ff6d60"/>
    <path id="Path_13" data-name="Path 13" d="M118.309,90.7a3.5,3.5,0,1,0-3.5,3.5A3.512,3.512,0,0,0,118.309,90.7Zm-3.544-2.441a2.441,2.441,0,1,1-2.441,2.441A2.445,2.445,0,0,1,114.765,88.263Z" transform="translate(-96.74 -75.755)" fill="#ff6d60"/>
    <path id="Path_14" data-name="Path 14" d="M18.024,134.634a8.3,8.3,0,0,0-4.187,1.1A8.821,8.821,0,0,0,7.63,133.4c-4.187,0-7.612,2.52-7.665,5.63a1.454,1.454,0,0,0,.289,1.129c.879,1.194,3.373,1.8,7.4,1.8a20.119,20.119,0,0,0,5.171-.525,14.049,14.049,0,0,0,5.184.709c3.5,0,5.657-.525,6.4-1.562a1.334,1.334,0,0,0,.262-1.011C24.652,136.852,21.66,134.634,18.024,134.634Zm-17,4.646h0v-.013a.319.319,0,0,0,.039-.144c0-2.559,2.953-4.633,6.589-4.633a7.688,7.688,0,0,1,5.3,1.9,4.275,4.275,0,0,0-1.588,3.163,1.326,1.326,0,0,0,.249,1,.1.1,0,0,1,.026.052,22.464,22.464,0,0,1-4,.289c-1.3,0-5.591-.092-6.51-1.326A.47.47,0,0,1,1.028,139.28Zm11.432.341c0-2.152,2.494-3.911,5.565-3.911s5.565,1.746,5.565,3.885v.079a.383.383,0,0,0,.026.118.33.33,0,0,1-.079.171c-.2.262-1.181,1.1-5.512,1.1s-5.315-.84-5.525-1.1c-.079-.105-.092-.184-.079-.2A.319.319,0,0,0,12.46,139.621Z" transform="translate(0 -115.892)" fill="#ff6d60"/>
    <path id="Path_15" data-name="Path 15" d="M150.438,62.6a.538.538,0,1,0,.538.538A.541.541,0,0,0,150.438,62.6Z" transform="translate(-130.274 -54.384)" fill="#ff6d60"/>
    <path id="Path_16" data-name="Path 16" d="M150.642,45.347a.417.417,0,0,0,.446-.394v-1.26a.426.426,0,0,0-.446-.394.417.417,0,0,0-.446.394v1.26A.409.409,0,0,0,150.642,45.347Z" transform="translate(-130.531 -37.617)" fill="#ff6d60"/>
  </g>
</svg>
