<?xml version="1.0" encoding="utf-8"?>
<!-- Generator: Adobe Illustrator 23.0.2, SVG Export Plug-In . SVG Version: 6.00 Build 0)  -->
<svg version="1.1" id="Layer_1" xmlns="http://www.w3.org/2000/svg" xmlns:xlink="http://www.w3.org/1999/xlink" x="0px" y="0px"
	 viewBox="0 0 150 150" style="enable-background:new 0 0 150 150;" xml:space="preserve">
<style type="text/css">
	.st0{fill:#7F7F7F;}
</style>
<path class="st0" d="M75,150c-41.3-0.1-74.9-33.7-75-75C0.1,33.7,33.7,0.1,75,0c41.3,0.1,74.9,33.7,75,75
	C149.9,116.3,116.3,149.9,75,150L75,150z M75,8.2C38.3,8.3,8.3,38.3,8.2,75c0.1,36.7,30.1,66.7,66.8,66.8
	c36.7-0.1,66.7-30.1,66.8-66.8C141.7,38.3,111.7,8.3,75,8.2L75,8.2z M75,139.9c-2.2-0.1-3.9-1.9-4.1-4.1l0-6.8
	c0.1-2.2,1.9-4,4.1-4.1c2.2,0.1,4,1.9,4.1,4.1l0,6.8C79,138,77.2,139.8,75,139.9L75,139.9L75,139.9z M37.7,112.9
	c-1.2-0.1-2.2-0.7-3-1.5c-0.7-0.7-1.1-1.7-1.1-2.8c0-1.1,0.4-2.1,1.2-2.9l27.9-27.4c-1.2-2.1-1.9-4.4-1.9-6.6
	c0-6.3,4.1-11.8,10.1-13.6V41.2c0.1-2.2,1.9-4,4.1-4.1c2.2,0.1,4,1.9,4.1,4.1l0,17.2c6,1.8,10.1,7.4,10.1,13.6c0.1,3.7-1.4,7.3-4,10
	c-2.6,2.7-6.1,4.2-9.9,4.2h-0.4c-2.4-0.1-4.7-0.7-6.6-1.9l-27.5,27.5l-0.1,0c-0.9,0.5-1.9,0.9-2.9,1H37.7L37.7,112.9z M75,65.6
	c-3.3,0-6,2.7-6,6s2.6,6,5.9,6H75c3.3,0,6-2.6,6-5.9v-0.1C81,68.3,78.3,65.6,75,65.6L75,65.6z M129,79.1c-2.2-0.1-4-1.9-4.1-4.1
	c0.1-2.2,1.9-4,4.1-4.1l6.8,0c2.2,0.1,4,1.9,4.1,4.1c-0.1,2.2-1.9,4-4.1,4.1l0,0H129z M14.2,79.1c-2.2-0.1-4-1.9-4.1-4.1
	c0.1-2.2,1.9-4,4.1-4.1l6.8,0c2.2,0.1,4,1.9,4.1,4.1c-0.1,2.2-1.9,4-4.1,4.1l0,0H14.2z M75,25.1c-2.2-0.1-3.9-1.9-4.1-4.1l0-6.8
	c0.1-2.2,1.9-4,4.1-4.1c2.2,0.1,4,1.9,4.1,4.1l0,6.8C79,23.2,77.2,25,75,25.1L75,25.1L75,25.1z"/>
</svg>
