<?xml version="1.0" encoding="utf-8"?>
<!-- Generator: Adobe Illustrator 19.2.0, SVG Export Plug-In . SVG Version: 6.00 Build 0)  -->
<svg version="1.1" id="Layer_1" xmlns="http://www.w3.org/2000/svg" xmlns:xlink="http://www.w3.org/1999/xlink" x="0px" y="0px"
	 viewBox="0 0 40 40" style="enable-background:new 0 0 40 40;" xml:space="preserve">
<style type="text/css">
	.st0{fill:#FFFFFF;}
	.st1{fill-rule:evenodd;clip-rule:evenodd;fill:#FFFFFF;}
</style>
<g>
	<g>
		<path class="st0" d="M34,31.9l-32.5,0C1,31.8,0,31.5,0,30.1V9.6l0,0c0-0.4,0.3-1.2,1.2-1.4l0,0H34c0.5,0,1.4,0.3,1.5,1.5l0,0
			l0,3.7c0,0.1,0.2,0.1,0.3,0.1c0.8,0.1,2.4,0.6,3.5,1.3c0.2,0.1,0.9,0.6,0.8,1.8v5.8c0,0.1,0,0.7-0.9,1.3c-0.8,0.6-2.1,1.4-3.4,1.8
			l-0.1,0l-0.1,0c0,0-0.1,0-0.1,0c0,0,0,0,0,0.1c0,0.6,0,4.6,0,4.7l0,0C35.4,30.9,35.1,31.8,34,31.9L34,31.9z M1.4,31.1h32.5
			c0.7-0.1,0.7-0.5,0.7-0.6c0-0.3,0-4.2,0-4.7c0-0.4,0.1-0.6,0.3-0.7c0.2-0.2,0.5-0.2,0.6-0.2c1.2-0.5,2.4-1.2,3.1-1.7
			c0.4-0.3,0.5-0.6,0.5-0.6l0,0l0,0c0,0,0,0,0,0v-5.9l0,0c0.1-0.7-0.3-1-0.4-1l0,0l0,0c-1-0.7-2.6-1.1-3.2-1.2c-0.7-0.1-1-0.7-0.9-1
			V9.7C34.6,9,34,8.9,34,8.9H1.4C0.9,9.1,0.8,9.5,0.8,9.6v20.6l0,0C0.8,31,1.3,31.1,1.4,31.1z M39.2,22.4L39.2,22.4L39.2,22.4z
			 M39.2,22.4L39.2,22.4L39.2,22.4C39.2,22.4,39.2,22.4,39.2,22.4z"/>
	</g>
	<g>
		<g>
			<path class="st1" d="M33.5,19.3C33.5,19.3,33.5,19.2,33.5,19.3c0-0.1-0.1-0.2-0.1-0.3c0-0.2,0.2-0.4,0.4-0.4
				c0.2,0,0.4,0.2,0.4,0.4c0,0.1,0,0.2-0.1,0.2c0,0,0,0.1,0,0.1c0,0,0,0,0,0c0,0,0,0,0,0c0.1-0.1,0.1-0.2,0.1-0.3
				c0-0.3-0.2-0.5-0.5-0.5c-0.3,0-0.5,0.2-0.5,0.5C33.3,19.1,33.3,19.2,33.5,19.3C33.4,19.3,33.4,19.3,33.5,19.3z M33.5,19
				C33.5,19,33.5,19,33.5,19c0,0,0.1-0.1,0.2-0.1c0.1,0,0.2,0.1,0.2,0.2c0,0,0,0,0-0.1c0-0.1-0.1-0.3-0.2-0.3
				C33.6,18.7,33.5,18.8,33.5,19z M34.7,20c0-0.2-0.2-0.2-0.2-0.2c0,0,0,0-0.1,0c0-0.1-0.1-0.1-0.2-0.1c0,0-0.1,0-0.1,0c0,0,0,0,0,0
				c0,0,0,0,0,0c0-0.1-0.1-0.1-0.2-0.1c0,0-0.1,0-0.1,0c0,0,0,0,0,0c0,0,0,0,0,0v-0.4c0-0.1-0.1-0.2-0.1-0.2s-0.1,0.1-0.1,0.2v0.8
				c0,0,0,0.1-0.1,0.1c0,0,0,0-0.1,0l-0.1-0.1c0-0.1-0.1-0.1-0.1-0.1c-0.1,0-0.2,0.1-0.1,0.2l0.5,1.1c0,0,0,0,0,0h0.8c0,0,0,0,0,0
				l0-0.3c0,0,0,0,0,0C34.7,20.4,34.8,20.2,34.7,20z"/>
		</g>
	</g>
	<g>
		<path class="st0" d="M32,30.3H2.6l0,0c-0.3,0-1-0.3-1-1.1l0,0l0-18.5c0-0.1,0-0.4,0.3-0.6C2,10,2.3,9.8,2.7,9.9H12
			c0.2,0,1.3,0,2.4,0.7c0.4,0.3,1.3,0.5,2.3,0.5c1,0,1.9-0.2,2.4-0.4l0.1-0.1c1.1-0.6,1.4-0.8,2.7-0.8l9.8-0.1c0.1,0,0.6,0,1,0.3
			c0.1,0.1,0.3,0.4,0.3,0.7v18.4c0,0.1,0,0.5-0.2,0.8C32.6,30.2,32.3,30.3,32,30.3z M2.7,29.5H32c0,0,0.1,0,0.1,0c0,0,0-0.1,0-0.2
			l0,0l0,0V10.8l0,0c0-0.1,0-0.1,0-0.1c-0.1-0.1-0.3-0.1-0.4-0.1l0,0l0,0l-9.8,0.1c-1.1,0-1.3,0.1-2.3,0.7l-0.1,0.1
			c-1.3,0.7-4.4,0.8-5.6-0.1C13,10.6,12,10.7,12,10.7l0,0H2.6l0,0c-0.1,0-0.2,0-0.2,0c0,0,0,0.1,0,0.1v18.4
			C2.4,29.4,2.6,29.5,2.7,29.5z M4.1,28.4v-16h26.3v15.9L4.1,28.4z M4.9,13.2v14.3l24.7,0V13.2H4.9z"/>
	</g>
	<g>
		<path class="st0" d="M37.1,22.8c-0.7,0-1.3-0.4-1.8-1.1c-0.4-0.6-0.7-1.5-0.7-2.3c0-0.9,0.2-1.7,0.7-2.3c0.5-0.7,1.1-1.1,1.8-1.1
			c0.7,0,1.3,0.4,1.8,1.1c0.4,0.6,0.7,1.5,0.7,2.3c0,0.9-0.2,1.7-0.7,2.3C38.4,22.4,37.8,22.8,37.1,22.8z M37.1,16.8
			c-0.9,0-1.6,1.2-1.6,2.6c0,1.4,0.8,2.6,1.6,2.6c0.9,0,1.6-1.2,1.6-2.6C38.8,18,38,16.8,37.1,16.8z"/>
	</g>
	<g>
		<path class="st0" d="M37.1,22.1c-0.8,0-1.4-0.8-1.4-1.8s0.6-1.8,1.4-1.8c0.8,0,1.4,0.8,1.4,1.8S37.9,22.1,37.1,22.1z M37.1,19.3
			c-0.3,0-0.6,0.4-0.6,1s0.3,1,0.6,1c0.3,0,0.6-0.4,0.6-1S37.4,19.3,37.1,19.3z"/>
	</g>
	<g>
		<path class="st0" d="M16.8,21.7c-1.9,0-3.4-1.5-3.4-3.4c0-1.9,1.5-3.4,3.4-3.4s3.4,1.5,3.4,3.4C20.2,20.1,18.7,21.7,16.8,21.7z
			 M16.8,15.7c-1.4,0-2.6,1.2-2.6,2.6c0,1.4,1.2,2.6,2.6,2.6s2.6-1.2,2.6-2.6C19.4,16.8,18.2,15.7,16.8,15.7z"/>
		<path class="st0" d="M14.1,28c-0.2,0-0.4,0-0.4,0S13.8,28,14.1,28h7.8c-0.2-3-2.4-4.6-5-4.6S12,25,11.8,28h0.9c0.2,0,0.4,0,0.4,0
			s-0.2,0-0.4,0h-1.4c-0.2,0-0.4,0.1-0.4-0.2c0-3.2,2.6-5.7,5.9-5.7c3.2,0,5.9,2.4,5.9,5.7c0,0.2-0.2,0.2-0.4,0.2H14.1z"/>
		<path class="st0" d="M16.8,19.9c-0.5,0-0.9-0.2-1.2-0.6c-0.1-0.1-0.1-0.2-0.1-0.3c0-0.1,0.1-0.2,0.1-0.3c0.1-0.1,0.2-0.1,0.3-0.1
			c0.1,0,0.2,0.1,0.3,0.1c0.2,0.2,0.4,0.3,0.6,0.3c0.2,0,0.4-0.1,0.6-0.3c0.1-0.1,0.2-0.1,0.3-0.1c0.1,0,0.2,0,0.3,0.1
			c0.1,0.1,0.1,0.2,0.1,0.3s0,0.2-0.1,0.3C17.7,19.7,17.3,19.9,16.8,19.9z"/>
	</g>
</g>
</svg>
