<?xml version="1.0" encoding="utf-8"?>
<!-- Generator: Adobe Illustrator 23.0.1, SVG Export Plug-In . SVG Version: 6.00 Build 0)  -->
<svg version="1.1" id="Layer_1" xmlns="http://www.w3.org/2000/svg" xmlns:xlink="http://www.w3.org/1999/xlink" x="0px" y="0px"
	 viewBox="0 0 40 40" style="enable-background:new 0 0 40 40;" xml:space="preserve">
<style type="text/css">
	.st0{fill:#2C2F33;}
</style>
<g>
	<path class="st0" d="M33,22.6c-0.4-0.1-0.8-0.1-1.3-0.2c0-0.2,0-0.4,0-0.5c0-5.7,0-11.5,0-17.2c0-2.7-1.8-4.6-4.6-4.6
		c-7.5,0-15,0-22.5,0C2,0,0.1,1.9,0.1,4.6c0,8.8,0,17.5,0,26.3c0,0.4,0,0.8,0.1,1.1c0.5,2.1,2.2,3.4,4.4,3.4c6,0,12.1,0,18.1,0
		c0.3,0,0.5,0.1,0.7,0.4c1.8,3.1,5.3,4.7,8.8,4.2c4.3-0.6,7.4-4.2,7.5-8.5C40,27.3,37.1,23.5,33,22.6z M22.5,33.5
		c-0.2,0-0.3,0-0.5,0c-5.7,0-11.5,0-17.2,0C3,33.5,2,32.5,2,30.7c0-8.7,0-17.3,0-26c0-1.8,1-2.9,2.8-2.9c7.5,0,14.9,0,22.4,0
		c1.7,0,2.7,1.1,2.7,2.8c0,5.8,0,11.6,0,17.4c0,0.1,0,0.3,0,0.4C24.8,23.1,21.1,28.1,22.5,33.5z M31,38.2c-3.9,0-7-3.2-7-7
		c0-3.9,3.2-7,7.1-7c3.8,0,7,3.2,7,7C38,35.1,34.9,38.2,31,38.2z"/>
	<path class="st0" d="M13.8,12.2c0.1,0,0.2,0,0.3,0c2.6,0,10.2,0,11.4,0c0.6,0,0.9-0.3,1-0.8c0.1-0.6-0.3-1.1-1-1.1
		c-1.9,0-9.7,0-11.7,0c-0.5,0-0.9,0.4-0.9,0.9C12.9,11.7,13.3,12.1,13.8,12.2z"/>
	<path class="st0" d="M26.5,17.8c-0.1-0.5-0.5-0.8-1.1-0.8c-1.7,0-9.3,0-11.4,0c-0.4,0-0.8,0.1-1,0.5c-0.3,0.6,0.1,1.3,0.9,1.3
		c1.9,0,10.3,0,11.6,0C26.2,18.9,26.6,18.4,26.5,17.8z"/>
	<path class="st0" d="M20.8,24.2c-1.1,0-2.3,0-3.4,0c-1.2,0-2.3,0-3.5,0c-0.6,0-1,0.4-1,0.9c0,0.5,0.4,0.9,1,0.9c2.3,0,4.6,0,6.9,0
		c0.6,0,1-0.4,1-0.9C21.9,24.5,21.5,24.2,20.8,24.2z"/>
	<path class="st0" d="M11,14.5c-0.4-0.2-0.8-0.1-1.1,0.2c-0.7,0.8-1.5,1.5-2.2,2.3c-0.2-0.3-0.4-0.6-0.6-0.9
		c-0.3-0.5-0.9-0.6-1.3-0.3c-0.4,0.3-0.5,0.8-0.2,1.3c0.3,0.4,0.6,0.9,0.9,1.3c0.6,0.8,1.5,0.9,2.2,0.2c0.9-0.9,1.7-1.8,2.5-2.7
		c0.1-0.1,0.2-0.3,0.3-0.5C11.5,15,11.3,14.6,11,14.5z"/>
	<path class="st0" d="M9.6,22c-0.7,0.7-1.3,1.4-2,2.1c-0.2-0.3-0.4-0.6-0.6-0.9c-0.3-0.5-0.8-0.6-1.3-0.3c-0.5,0.3-0.6,0.8-0.2,1.3
		C5.8,24.6,6,25,6.3,25.4c0.6,0.9,1.6,1,2.4,0.2c0.7-0.8,1.5-1.6,2.2-2.4c0.6-0.6,0.6-1.1,0.2-1.5C10.7,21.3,10.2,21.4,9.6,22z"/>
	<path class="st0" d="M10.7,7.6C10.4,7.6,10,7.8,9.8,8c-0.7,0.7-1.4,1.5-2.2,2.2C7.4,9.9,7.2,9.6,7,9.3C6.7,8.8,6.1,8.7,5.7,9
		c-0.4,0.3-0.5,0.8-0.2,1.2c0.3,0.5,0.6,1,1,1.5c0.5,0.7,1.4,0.8,2,0.2c0.9-0.9,1.9-1.9,2.7-2.9C11.7,8.5,11.4,7.7,10.7,7.6z"/>
	<path class="st0" d="M34.4,27.7c-0.1,0.1-0.2,0.2-0.3,0.3c-1.4,1.5-2.9,3-4.3,4.5c-0.6-0.7-1.2-1.4-1.8-2.1c-0.4-0.5-1-0.6-1.4-0.2
		c-0.4,0.4-0.4,0.9,0,1.4c0.7,0.8,1.4,1.5,2,2.3c0.7,0.8,1.5,0.8,2.2,0.1c1.5-1.6,3.1-3.2,4.6-4.8c0.1-0.1,0.2-0.2,0.3-0.3
		c0.3-0.4,0.2-0.9-0.1-1.2C35.2,27.4,34.7,27.4,34.4,27.7z"/>
</g>
</svg>
