<?xml version="1.0" encoding="utf-8"?>
<!-- Generator: Adobe Illustrator 23.0.1, SVG Export Plug-In . SVG Version: 6.00 Build 0)  -->
<svg version="1.1" id="Layer_1" xmlns="http://www.w3.org/2000/svg" xmlns:xlink="http://www.w3.org/1999/xlink" x="0px" y="0px"
	 viewBox="0 0 40 40" style="enable-background:new 0 0 40 40;" xml:space="preserve">
<style type="text/css">
	.st0{fill:#3A3A3A;}
</style>
<g>
	<path class="st0" d="M39.3,27.6c-0.5-0.3-1.1-0.7-1.7-1c-0.2-0.1-0.3-0.3-0.4-0.5c-0.3-1.1-0.5-2.2-0.8-3.4
		c-0.1-0.5-0.3-1.1-0.4-1.6c-0.4-1.8-1.6-2.7-3.4-2.7c-1.9,0-3.9,0-5.8,0c-0.1,0-0.3,0-0.5,0c0-0.3,0-0.6,0-0.9
		c0-0.7-0.3-0.9-0.9-0.9c-0.6,0-1.2,0-1.8,0c-0.2,0.5-0.5,1.1-0.8,1.6c0.7,0,1.3,0,2,0c0,3.8,0,7.6,0,11.5c-7.5,0-15,0-22.5,0
		c0-3.1,0-6.2,0-9.3c-0.2-0.1-0.3-0.3-0.5-0.4c-0.4-0.5-0.8-1-1.1-1.6c0,5.9,0,11.8,0,17.7c0,0.6,0.3,0.9,0.9,0.9c0.6,0,1.3,0,1.9,0
		c0.3,0,0.5,0.1,0.6,0.4c0.5,1.5,1.5,2.4,3.1,2.7c1.5,0.2,2.8-0.3,3.7-1.5c0.3-0.5,0.5-1,0.8-1.5c0,0,0,0,0.1,0c5.1,0,10.3,0,15.4,0
		c0.3,0,0.3,0.1,0.4,0.3c0.5,1.7,2,2.8,3.7,2.8c1.7,0,3.2-1.1,3.8-2.8c0.1-0.3,0.2-0.3,0.5-0.3c1.1,0,2.2,0,3.3,0
		c0.5,0,0.8-0.1,1.1-0.6c0-2.7,0-5.4,0-8.1C39.8,28,39.6,27.8,39.3,27.6z M10.1,36.2c-0.1,1.3-1.2,2.3-2.4,2.3
		c-1.3-0.1-2.3-1.2-2.3-2.4c0.1-1.3,1.2-2.4,2.4-2.3C9.2,33.8,10.2,34.9,10.1,36.2z M24.8,35.3c-4.4,0-8.7,0-13.1,0
		c-0.6-1.9-1.8-3.1-3.9-3.1c-2,0-3.3,1.2-3.8,3.1c-0.6,0-1.1,0-1.7,0c0-1.3,0-2.7,0-4c7.5,0,15,0,22.5,0c0,0.4,0,0.8,0,1.2
		c-0.1,0-0.3,0-0.4,0c-2.1,0-4.2,0-6.2,0c-0.1,0-0.2,0-0.3,0c-0.5,0-0.8,0.4-0.8,0.8c0,0.4,0.3,0.7,0.8,0.8c0.1,0,0.2,0,0.3,0
		c2.1,0,4.2,0,6.2,0c0.1,0,0.3,0,0.5,0C24.8,34.5,24.8,34.9,24.8,35.3z M30.9,20c0.8,0,1.5-0.1,2.3,0c0.7,0.1,1.1,0.6,1.3,1.2
		c0.4,1.6,0.7,3.1,1.1,4.7c0,0.1,0,0.1,0,0.2c-1.6,0-3.1,0-4.7,0C30.9,24.1,30.9,22.1,30.9,20z M31.4,38.4c-1.3,0-2.4-1.1-2.4-2.3
		c0-1.3,1-2.4,2.3-2.4c1.3,0,2.3,1.1,2.3,2.3C33.7,37.4,32.7,38.4,31.4,38.4z M38.4,29.2c-0.3,0-0.5,0-0.8,0c-0.4,0-0.9,0-1.3,0
		c-0.6,0-0.9,0.3-0.9,0.9c0,0.7,0,1.4,0,2.1c0,0.6,0.3,0.9,0.9,0.9c0.7,0,1.4,0,2.1,0c0,0.7,0,1.4,0,2.2c-1,0-2,0-3,0
		c-0.1,0-0.2-0.2-0.2-0.3c-0.4-1.2-1.1-2-2.2-2.5c-2-0.9-4.6,0.2-5.2,2.3c-0.1,0.4-0.3,0.6-0.7,0.5c-0.2,0-0.4,0-0.6,0
		c0-5.1,0-10.2,0-15.3c1,0,1.9,0,3,0c0,0.1,0,0.3,0,0.4c0,2.1,0,4.1,0,6.2c0,0.9,0.3,1.1,1.1,1.1c1.9,0,3.8,0,5.7,0
		c0.2,0,0.4,0.1,0.6,0.2c0.5,0.3,1,0.6,1.5,0.9c0.1,0.1,0.2,0.2,0.3,0.3C38.4,29.1,38.4,29.1,38.4,29.2z M37.8,31.6
		c-0.3,0-0.5,0-0.8,0c0-0.3,0-0.5,0-0.8c0.5,0,0.9,0,1.4,0c0,0,0.1,0,0.1,0.1C38.5,31.6,38.5,31.6,37.8,31.6z"/>
	<path class="st0" d="M0.7,15.4v0.1c1.7,4.6,6.1,7.7,10.9,7.7c4.9,0,9.3-3.1,10.9-7.8c0.5-1.3,0.7-2.6,0.7-3.8
		c0-1.3-0.2-2.6-0.7-3.8l0,0l0-0.2C20.9,3.1,16.5,0,11.6,0C6.8,0,2.4,3,0.7,7.6l0,0L0.7,7.8C0.2,9,0,10.3,0,11.6
		C0,12.9,0.2,14.2,0.7,15.4L0.7,15.4z M8.5,21.2c-2.4-0.8-4.5-2.5-5.7-4.7L2.5,16h5.1l0,0.3c0.2,1.8,0.7,3.3,1.3,4.5l0.3,0.7
		L8.5,21.2z M8.8,11.6c0-0.9,0-1.8,0.1-2.6l0-0.3h5.5l0,0.3c0.1,0.8,0.1,1.7,0.1,2.6c0,0.9,0,1.8-0.1,2.6l0,0.3H8.9l0-0.3
		C8.8,13.4,8.8,12.5,8.8,11.6z M13.5,19.1c-0.6,1.7-1.3,2.6-1.9,2.6c-0.5,0-1.2-0.7-1.8-2.7c-0.2-0.6-0.5-1.6-0.6-2.7L9.1,16h5.2
		l-0.1,0.4C14,17.4,13.8,18.3,13.5,19.1L13.5,19.1z M20.5,16.5c-1.3,2.3-3.3,4-5.8,4.8L14,21.4l0.3-0.7c0.7-1.4,1.1-3.2,1.3-4.5
		l0-0.3h5.1L20.5,16.5z M21.3,9c0.3,0.9,0.4,1.8,0.4,2.6c0,0.8-0.1,1.7-0.4,2.6l-0.1,0.2h-5.4l0-0.3c0.1-0.9,0.1-1.7,0.1-2.5
		c0-0.8,0-1.7-0.1-2.5l0-0.3h5.4L21.3,9z M14.7,2c2.4,0.8,4.5,2.5,5.7,4.7l0.3,0.5h-5.1l0-0.3c-0.2-1.8-0.7-3.3-1.3-4.5L14,1.8
		L14.7,2z M9.7,4.2L9.7,4.2c0.6-1.7,1.3-2.7,1.9-2.7c0.5,0,1.2,0.7,1.8,2.7c0.2,0.6,0.5,1.6,0.6,2.7l0.1,0.4H9l0.1-0.4
		C9.2,5.8,9.5,4.9,9.7,4.2L9.7,4.2z M2.7,6.8C4,4.5,6.1,2.8,8.5,2l0.7-0.2L8.9,2.4C8.3,3.9,7.8,5.7,7.6,7l0,0.3H2.5L2.7,6.8z M1.9,9
		L2,8.8h5.4l0,0.3c-0.1,0.9-0.1,1.7-0.1,2.5c0,0.8,0,1.7,0.1,2.5l0,0.3H2l-0.1-0.2c-0.3-0.7-0.4-1.6-0.4-2.6C1.5,10.8,1.7,9.9,1.9,9
		z"/>
</g>
</svg>
