<?xml version="1.0" encoding="utf-8"?>
<!-- Generator: Adobe Illustrator 23.0.1, SVG Export Plug-In . SVG Version: 6.00 Build 0)  -->
<svg version="1.1" id="Layer_1" xmlns="http://www.w3.org/2000/svg" xmlns:xlink="http://www.w3.org/1999/xlink" x="0px" y="0px"
	 viewBox="0 0 40 40" style="enable-background:new 0 0 40 40;" xml:space="preserve">
<g>
	<path d="M39.4,7.1L39.4,7.1l0-0.2C37.8,2.8,33.9,0,29.6,0c-4.3,0-8.2,2.7-9.8,6.7l0,0.1L19.7,7c-0.4,1.1-0.6,2.3-0.6,3.5
		c0,1.1,0.2,2.3,0.6,3.4l0,0l0,0.1c1.5,4.1,5.5,6.9,9.8,6.9c4.4,0,8.4-2.8,9.8-7c0.4-1.1,0.6-2.3,0.6-3.5C40,9.3,39.8,8.1,39.4,7.1z
		 M33.3,8.2l0-0.3h5l0.1,0.2c0.2,0.8,0.4,1.6,0.4,2.4c0,0.8-0.1,1.6-0.4,2.4l-0.1,0.2h-5l0-0.3c0.1-0.8,0.1-1.5,0.1-2.3
		C33.4,9.7,33.4,8.9,33.3,8.2z M32.2,10.4c0,0.8,0,1.6-0.1,2.3l0,0.3H27l0-0.3c-0.1-0.7-0.1-1.5-0.1-2.3c0-0.8,0-1.6,0.1-2.3l0-0.3
		h5.1l0,0.3C32.2,8.9,32.2,9.7,32.2,10.4z M33.2,6.5l0-0.3c-0.2-1.6-0.6-3-1.1-4l-0.3-0.7l0.7,0.2c2.2,0.7,4.1,2.2,5.2,4.3l0.3,0.5
		H33.2z M31.8,6.2l0.1,0.4h-4.7l0.1-0.4c0.2-0.9,0.4-1.8,0.6-2.4c0.6-1.5,1.2-2.4,1.7-2.4c0.5,0,1.2,0.9,1.7,2.4
		C31.4,4.3,31.6,5.2,31.8,6.2z M26.8,1.8l0.7-0.2l-0.3,0.7c-0.6,1.3-1,2.9-1.2,4.1l0,0.3h-4.7l0.3-0.5C22.7,4,24.5,2.5,26.8,1.8z
		 M25.8,12.7l0,0.3h-5l-0.1-0.2c-0.2-0.7-0.3-1.4-0.3-2.4c0-0.8,0.1-1.6,0.4-2.4l0.1-0.2h5l0,0.3c-0.1,0.8-0.1,1.5-0.1,2.3
		C25.7,11.2,25.7,12,25.8,12.7z M25.9,14.4l0,0.3c0.2,1.6,0.6,3,1.1,4l0.3,0.7l-0.7-0.2c-2.2-0.7-4.1-2.2-5.2-4.3l-0.3-0.5H25.9z
		 M27.3,14.7l-0.1-0.4H32l-0.1,0.4c-0.2,0.9-0.4,1.7-0.6,2.4c-0.6,1.5-1.2,2.4-1.7,2.4c-0.5,0-1.2-0.9-1.7-2.4
		C27.7,16.6,27.5,15.7,27.3,14.7z M32.4,19.1l-0.7,0.2l0.3-0.7c0.6-1.3,1-2.9,1.2-4.1l0-0.3h4.7l-0.3,0.5
		C36.4,16.9,34.6,18.4,32.4,19.1z"/>
	<path d="M23.9,21.5l-5.4,0v-4.2c0-2.2-1.4-3.9-3.6-4.3c0,0-0.1,0-0.1,0l0,0L3.7,13l-0.2,0c-0.1,0-0.3,0.1-0.4,0.1
		c-1.7,0.5-2.7,1.6-3,3.4c0,0.1,0,0.1,0,0.2l0,0l0,11.1L0,28c0,0.1,0.1,0.3,0.1,0.4c0.5,1.8,2.1,3.1,4,3.1c0.6,0,1.3,0,1.9,0l3.5,0
		l0,1.7c0,0.9,0,1.7,0,2.6c0,2.1,1.4,3.7,3.4,4.1c0.2,0,0.5,0.1,0.7,0.1c0,0,4.8,0,6.1,0c1.5,0,2.9,0,4.1,0c2,0,3.7-1.4,4.1-3.3
		c0.1-0.3,0.1-0.5,0.1-0.8c0-3.4,0-6.8,0-10.1C28.1,23.3,26.3,21.5,23.9,21.5z M9.6,25.7c0,0.7,0,1.5,0,2.2l0,2l-0.3,0
		c-0.1,0-0.1,0-0.2,0l-4.9,0c-1.6,0-2.8-1.1-2.8-2.7c0-3.3,0-6.6,0-9.9c0-1.7,1.1-2.8,2.8-2.8l5,0l5,0c1.6,0,2.7,1.1,2.7,2.7l0,4.2
		h-3.1C11.4,21.5,9.6,23.3,9.6,25.7z M17,26.6c0,0.4,0,0.8,0,1.2c-0.2,1.2-1.2,2.1-2.4,2.2c-0.4,0-0.8,0-1.3,0c-0.3,0-0.6,0-0.9,0
		l-0.2,0c-0.3,0-0.6,0-0.9,0h-0.2l0-1.6c0-0.9,0-1.7,0-2.6c0-1.6,1.1-2.7,2.7-2.7l1.1,0l2,0l0,1.1c0,0.7,0,1.4,0,2.2L17,26.6z
		 M11.1,31.5c0.2,0,0.8,0,0.8,0c0.2,0,0.5,0,0.7,0c0.2,0,0.5,0,0.7,0c0.6,0,1,0,1.4-0.1c2.1-0.2,3.7-1.9,3.7-4.1c0-0.9,0-1.8,0-2.7
		l0-1.3c0,0,0-0.1,0-0.1l0-0.2l5.4,0c1.6,0,2.7,1.1,2.7,2.7c0,3.3,0,6.7,0,10c0,1.6-1.1,2.7-2.7,2.7h-10c-1.7,0-2.8-1.1-2.8-2.8
		V31.5z"/>
</g>
</svg>
