<?xml version="1.0" encoding="utf-8"?>
<!-- Generator: Adobe Illustrator 23.0.1, SVG Export Plug-In . SVG Version: 6.00 Build 0)  -->
<svg version="1.1" id="Layer_1" xmlns="http://www.w3.org/2000/svg" xmlns:xlink="http://www.w3.org/1999/xlink" x="0px" y="0px"
	 viewBox="0 0 40 40" style="enable-background:new 0 0 40 40;" xml:space="preserve">
<style type="text/css">
	.st0{fill:#3A3A3A;}
</style>
<path class="st0" d="M13.3,35.3c-0.5,0-0.8-0.2-0.9-0.8l-0.5-2.3c-1-0.3-1.9-0.7-2.8-1.2l-0.1,0c-0.7,0.4-1.3,0.9-2,1.3
	c-0.2,0.1-0.3,0.2-0.5,0.2c-0.2,0-0.4-0.1-0.6-0.3L3,29.4c-0.3-0.3-0.4-0.7-0.1-1.1c0.3-0.5,0.6-0.9,0.9-1.4l0.3-0.5l0,0
	c0,0,0-0.1,0.1-0.1l-0.2-0.3c-0.2-0.4-0.4-0.8-0.6-1.3c-0.1-0.3-0.2-0.6-0.3-0.9l-0.1-0.3c-0.8-0.2-1.6-0.4-2.4-0.6
	C0.2,22.8,0,22.5,0,22.1l0-0.7c0-1.1,0-2.2,0-3.3L0,18c0-0.2,0-0.4,0.1-0.6c0.1-0.2,0.3-0.3,0.5-0.3c0.1,0,0.2-0.1,0.4-0.1
	c0.1,0,0.2,0,0.3-0.1c0.6-0.1,1.2-0.3,1.7-0.4c0.3-1,0.7-1.9,1.2-2.8c-0.3-0.4-0.5-0.8-0.8-1.2l-0.5-0.8c-0.3-0.4-0.2-0.8,0.1-1.1
	c1-1,2-2,2.9-2.9c0.2-0.2,0.4-0.3,0.6-0.3c0.2,0,0.3,0.1,0.5,0.1C7.7,8,8.4,8.4,9.1,8.9c0.1-0.1,0.3-0.2,0.4-0.2
	c0.2-0.1,0.4-0.2,0.6-0.3c0.2-0.1,0.5-0.2,0.7-0.3L11,8c0.1,0,0.2-0.1,0.4-0.1c0.2-0.1,0.3-0.1,0.5-0.2c0,0,0,0,0,0c0,0,0,0,0,0
	C12,7.4,12,7.1,12.1,6.8c0.1-0.3,0.1-0.7,0.2-1l0.1-0.4c0.1-0.5,0.4-0.7,0.9-0.7l4.2,0c0.4,0,0.7,0.2,0.8,0.7l0,0.2
	c0.2,0.7,0.3,1.4,0.5,2.2c0,0.1,0,0.1,0.1,0.1c0.9,0.3,1.9,0.6,2.8,1.1l0-0.1c0.6-0.4,1.3-0.8,1.9-1.2c0.2-0.1,0.3-0.2,0.5-0.2
	c0.2,0,0.5,0.1,0.7,0.3c0.6,0.7,1.3,1.3,1.9,2c0.3,0.3,0.6,0.6,1,1c0.3,0.3,0.3,0.7,0.1,1.1c-0.4,0.6-0.7,1.1-1.1,1.7l-0.1,0.1
	c0.1-0.1,3.6-3.6,3.6-3.6c0.2-0.2,0.4-0.3,0.6-0.3c0,0,0.1,0,0.2,0c0.1,0,0.1,0,0.2,0c0.1,0,0.1,0,0.2,0c0.1,0,0.1,0,0.2,0l0.3,0
	c0.1,0,0.3,0,0.4,0l1,0c0.4,0,0.7,0,1.1,0c0.3-0.9,0.8-1.5,1.7-1.9c0.4-0.2,0.8-0.2,1.1-0.2c0.7,0,1.3,0.2,1.8,0.7
	c0.8,0.6,1.1,1.6,1,2.6c-0.1,1-0.8,1.8-1.7,2.2c-0.4,0.2-0.7,0.2-1.1,0.2c-1.3,0-2.4-0.8-2.7-2c0,0,0,0,0,0c-0.5,0-1,0-1.5,0
	c-0.5,0-1.1,0-1.6,0c0,0-0.1,0-0.1,0c-1.2,1.2-2.5,2.5-3.7,3.7c-0.2,0.2-0.5,0.3-0.8,0.3c-0.7,0-1.5,0-2.2,0l-2,0
	c0.8,1.2,1.2,2.5,1.4,3.9h2.3c2.1,0,4.2,0,6.3,0c0,0,0,0,0,0c0,0,0,0,0,0c0.4-1.1,1.2-1.8,2.3-2c0.2,0,0.3,0,0.5,0
	c1,0,2,0.5,2.5,1.5c0.6,1.1,0.5,2.4-0.3,3.3c-0.5,0.6-1.3,1-2.2,1c-1,0-1.8-0.5-2.4-1.3c-0.2-0.2-0.3-0.5-0.3-0.7c0,0,0-0.1,0-0.1
	c0,0,0,0,0,0c-1.5,0-3,0-4.5,0c-1.3,0-2.7,0-4,0c-0.1,1.4-0.6,2.7-1.4,3.9l1.9,0c0.8,0,1.6,0,2.3,0c0.3,0,0.6,0.1,0.8,0.3
	c0.7,0.8,1.5,1.5,2.3,2.3l1.1,1.1c0.1,0.1,0.1,0.1,0.2,0.2c0.1,0.1,0.1,0.1,0.2,0.2c0,0,0.1,0,0.1,0c0,0,0.1,0,0.1,0l0.2,0
	c0,0,2.6,0,2.6,0c0,0,0,0,0-0.1c0.3-1.1,1.5-2,2.7-2c1.1,0,1.9,0.4,2.5,1.3c0.6,0.8,0.6,1.8,0.2,2.7c-0.4,1-1.2,1.6-2.2,1.7
	c-0.2,0-0.3,0-0.4,0c-0.8,0-1.5-0.3-2.1-1c-0.3-0.3-0.5-0.7-0.6-1.1l-1.8,0c-0.5,0-1,0-1.5,0c-0.3,0-0.6-0.1-0.8-0.3
	c-0.6-0.6-1.2-1.2-1.9-1.9c-0.6-0.6-1.1-1.1-1.7-1.7c0.1,0.1,0.6,0.9,0.6,0.9c0.2,0.3,0.4,0.6,0.6,0.9c0.2,0.3,0.2,0.8-0.1,1.1
	l-2.4,2.4L25.1,32c-0.1,0.1-0.2,0.2-0.3,0.3c-0.2,0.2-0.4,0.3-0.6,0.3c-0.2,0-0.3-0.1-0.5-0.2c-0.7-0.4-1.4-0.9-2-1.3
	c-0.9,0.5-1.8,0.9-2.8,1.1c-0.2,0.8-0.3,1.5-0.5,2.2l0,0.1c0,0.1-0.1,0.2-0.1,0.4c-0.2,0.3-0.4,0.4-0.7,0.4L13.3,35.3z M16.8,33.7
	c0.1-0.4,0.2-0.7,0.2-1.1c0.1-0.4,0.2-0.8,0.2-1.1c0.1-0.4,0.3-0.6,0.7-0.7c1.1-0.3,2.1-0.7,3.1-1.3c0.2-0.1,0.4-0.2,0.5-0.2
	c0.2,0,0.4,0.1,0.5,0.2c0.4,0.3,0.8,0.5,1.2,0.8l0.6,0.4c0.7-0.7,1.4-1.4,2-2c-0.4-0.6-0.7-1.1-1-1.6c0,0-0.1-0.1-0.1-0.1
	c-0.1-0.1-0.2-0.3-0.2-0.5c-0.6,0-1.2,0-1.7,0c-0.6,0-1.3,0-1.9,0c0,0-0.1,0-0.1,0c-0.7,0.6-1.5,1.1-2.3,1.4
	c-0.9,0.4-1.9,0.6-2.9,0.7c-0.1,0-0.3,0-0.4,0c-0.7,0-1.4-0.1-2.1-0.3c-0.8-0.2-1.4-0.5-1.9-0.8c-0.1-0.1-0.2-0.1-0.3-0.2
	c-0.2-0.1-0.3-0.2-0.5-0.3c-0.9-0.6-1.6-1.3-2.2-2.2c-0.7-1.1-1.2-2.3-1.4-3.6c-0.2-1.3-0.1-2.6,0.3-3.8c0.5-1.5,1.4-2.8,2.6-3.9
	c1-0.8,2-1.4,3.2-1.7c0.7-0.2,1.5-0.3,2.2-0.3c0.6,0,1.1,0.1,1.7,0.2c1.5,0.3,2.8,1,3.9,2c0,0,0,0,0.1,0c0.7,0,1.5,0,2.2,0l1.5,0
	c0-0.1,0-0.3,0.1-0.4c0.4-0.7,0.8-1.3,1.2-1.9c-0.7-0.7-1.4-1.4-2-2c-0.1,0.1-0.1,0.1-0.2,0.2l-0.5,0.3c-0.4,0.3-0.8,0.5-1.3,0.8
	c-0.1,0.1-0.3,0.1-0.4,0.1s-0.3,0-0.4-0.1c-0.1-0.1-0.2-0.1-0.3-0.2c-0.1-0.1-0.2-0.1-0.3-0.2c-0.8-0.4-1.6-0.8-2.6-1
	c-0.3-0.1-0.6-0.3-0.6-0.7l-0.2-0.9c-0.1-0.4-0.2-0.9-0.3-1.3c-0.3,0-0.6,0-0.9,0c-0.3,0-0.5,0-0.8,0c-0.2,0-0.4,0-0.6,0
	c-0.2,0-0.4,0-0.6,0c0,0,0,0,0,0c0,0-0.1,0-0.1,0c-0.1,0.4-0.1,0.8-0.2,1.2c-0.1,0.3-0.2,0.7-0.2,1C13.3,9,13,9.2,12.7,9.2l-0.1,0
	c-0.5,0.2-1.1,0.3-1.6,0.5c-0.4,0.2-0.8,0.4-1.1,0.6c-0.1,0.1-0.3,0.1-0.4,0.2c-0.1,0.1-0.3,0.1-0.4,0.1c-0.1,0-0.2,0-0.3-0.1
	c-0.2-0.1-0.4-0.2-0.6-0.3c-0.5-0.3-1-0.6-1.5-1c-0.5,0.5-1,1-1.5,1.5c-0.2,0.2-0.3,0.3-0.5,0.5l-0.1,0.1l0.5,0.8
	c0.2,0.4,0.5,0.8,0.7,1.1c0.2,0.3,0.2,0.6,0,0.9c-0.6,1-1.1,2-1.3,3.1c-0.1,0.5-0.4,0.7-0.8,0.8c-0.5,0.1-1,0.2-1.4,0.3l-0.7,0.1
	c0,1,0,1.9,0,2.9c0.2,0,1.1,0.2,1.1,0.2c0.4,0.1,0.7,0.2,1.1,0.2c0.4,0.1,0.6,0.3,0.7,0.7c0.3,1.1,0.7,2.2,1.3,3.1
	c0.2,0.3,0.2,0.7,0,1c-0.4,0.6-0.7,1.2-1.1,1.7c0,0-0.1,0.1-0.1,0.1c0,0,0.1,0.1,0.1,0.1c0.6,0.6,1.9,1.9,1.9,1.9
	c0,0,0.9-0.6,0.9-0.6c0.4-0.2,0.7-0.4,1-0.7c0.2-0.1,0.3-0.1,0.5-0.1c0.2,0,0.3,0.1,0.5,0.2c0.9,0.6,2,1,3.2,1.3
	c0.3,0.1,0.6,0.3,0.6,0.6l0.1,0.4c0.1,0.6,0.3,1.2,0.4,1.8c0.5,0,1,0,1.5,0C15.8,33.7,16.3,33.7,16.8,33.7z M37.1,28.4
	c-0.6,0-1.2,0.6-1.2,1.2c0,0.3,0.1,0.7,0.3,0.9c0.2,0.2,0.5,0.4,0.8,0.4h0c0.7,0,1.2-0.5,1.2-1.2C38.3,29,37.8,28.4,37.1,28.4v-0.2
	V28.4z M15.3,13.1c-1.8,0-3.6,0.8-4.8,2.1c-1.3,1.3-2,3-1.9,4.9c0.1,3.6,2.9,6.6,6.6,6.7c0.1,0,0.2,0,0.3,0c1.8,0,3.6-0.7,4.9-2
	c1.3-1.3,2-3,2-4.8c0-1.8-0.7-3.5-2-4.8C18.9,13.9,17.2,13.1,15.3,13.1L15.3,13.1z M35.1,18.8c-0.6,0-1.2,0.6-1.2,1.2
	c0,0.7,0.6,1.2,1.2,1.2c0.6,0,1.2-0.6,1.2-1.2c0-0.3-0.1-0.7-0.4-0.9C35.7,18.9,35.4,18.8,35.1,18.8l0-0.2L35.1,18.8z M37.1,9.2
	c-0.7,0-1.2,0.5-1.2,1.2c0,0.7,0.6,1.2,1.2,1.2c0,0,0,0,0,0c0.3,0,0.6-0.1,0.9-0.4c0.2-0.2,0.4-0.5,0.4-0.8
	C38.3,9.8,37.8,9.2,37.1,9.2V9V9.2z"/>
</svg>
