<?xml version="1.0" encoding="utf-8"?>
<!-- Generator: Adobe Illustrator 23.0.1, SVG Export Plug-In . SVG Version: 6.00 Build 0)  -->
<svg version="1.1" id="Layer_1" xmlns="http://www.w3.org/2000/svg" xmlns:xlink="http://www.w3.org/1999/xlink" x="0px" y="0px"
	 viewBox="0 0 40 40" style="enable-background:new 0 0 40 40;" xml:space="preserve">
<style type="text/css">
	.st0{fill:#3A3A3A;}
</style>
<g>
	<path class="st0" d="M35.7,31c0-6.1,0-12.1,0-18.2c0-0.4,0-0.9-0.2-1.3c-0.5-1.1-1.8-1.8-3-1.5c-0.2,0-0.1,0.2-0.1,0.3
		c0,0.4,0,0.7,0,1.1c0,0.3,0.1,0.4,0.3,0.3c0.1,0,0.2,0,0.3,0c0.7,0,1,0.3,1,1.1c0,5.1,0,10.2,0,15.3c0,0.3-0.1,0.4-0.4,0.4
		c-2,0-3.9,0-5.9,0c-0.3,0-0.4,0.1-0.4,0.4s0,0.6,0,0.9s0.1,0.4,0.4,0.4c1.9,0,3.9,0,5.8,0c0.4,0,0.5,0.1,0.4,0.5c0,0.5,0,1.1,0,1.6
		c0,1.1-0.2,1.3-1.3,1.3c-4.4,0-8.8,0-13.2,0c-4.2,0-8.5,0-12.7,0c-0.8,0-1.1-0.3-1.1-1.1c0-0.6,0-1.2,0-1.8C5.7,30,5.8,30,6.2,30
		c2,0,3.9,0,5.9,0c0.3,0,0.4-0.1,0.4-0.3c0-0.3,0-0.6,0-0.9s-0.1-0.4-0.4-0.4c-2,0-3.9,0-5.9,0c-0.3,0-0.4-0.1-0.4-0.4
		c0-5,0-10,0-15c0-1.1,0.2-1.3,1.3-1.3c0.1,0,0.1,0,0.2,0c0.2,0,0.3-0.1,0.3-0.2c0-0.4,0-0.8,0-1.2c0-0.1-0.1-0.2-0.2-0.2
		c-2.1-0.2-3.2,1.2-3.1,2.8c0,6.5,0,12.9,0,19.4C4.1,34,5.1,35,6.9,35c2.3,0,4.6,0,6.8,0c0.3,0,0.4,0,0.4,0.3c0,0.9,0,1.8,0,2.7
		c0,0.3-0.1,0.3-0.3,0.3c-0.4,0-0.7,0-1.1,0c-0.2,0-0.3,0-0.3,0.3c0,0.5,0,0.9,0,1.4c5,0,10,0,15,0c0-0.4,0-0.9,0-1.3
		c0-0.2-0.1-0.4-0.3-0.3c-0.3,0-0.7,0-1,0c-0.2,0-0.4,0-0.3-0.3c0-0.9,0-1.8,0-2.7c0-0.2,0.1-0.3,0.3-0.3c0.5,0,1,0,1.4,0
		c1.9,0,3.8,0,5.7,0c1.5,0,2.6-1,2.6-2.5C35.7,32,35.7,31.5,35.7,31z M24.1,38c0,0.3-0.1,0.3-0.3,0.3c-2.6,0-5.1,0-7.7,0
		c-0.3,0-0.3-0.1-0.3-0.3c0-0.9,0-1.8,0-2.7c0-0.3,0.1-0.3,0.3-0.3c1.3,0,2.5,0,3.8,0s2.6,0,3.9,0c0.3,0,0.3,0.1,0.3,0.3
		C24.1,36.2,24.1,37.1,24.1,38z"/>
	<path class="st0" d="M10,13.3c0.4,0,0.8,0,1.2,0c0.7,0,0.6,0,0.9,0.6c0.1,0.2,0.1,0.4,0.2,0.5c0.1,0.2,0.1,0.3-0.1,0.4
		c-0.4,0.4-0.8,0.8-1.2,1.2s-0.4,0.9,0,1.3c0.7,0.7,1.5,1.5,2.2,2.2c0.4,0.4,0.9,0.4,1.3,0c0.2-0.2,0.5-0.5,0.7-0.7
		c0.4-0.5,0.8-0.8,1.4-0.3c0.1,0.1,0.2,0.1,0.3,0.1c0.2,0.1,0.3,0.2,0.3,0.4c0,0.5,0,1.1,0,1.6c0,0.7,0.3,1,1,1c1,0,2,0,3,0
		c0.6,0,1-0.3,1-1c0-0.4,0-0.7,0-1.1c0-0.8,0-0.8,0.7-1.1c0.1-0.1,0.3-0.1,0.4-0.2c0.2-0.1,0.3-0.1,0.4,0.1c0.4,0.4,0.8,0.8,1.2,1.2
		c0.5,0.5,0.9,0.5,1.4,0c0.7-0.7,1.5-1.4,2.2-2.2c0.4-0.4,0.4-0.9,0-1.3c-0.3-0.3-0.6-0.6-0.9-0.9c-0.5-0.5-0.5-0.5-0.2-1.1
		c0.1-0.2,0.1-0.3,0.2-0.5s0.2-0.3,0.4-0.3c0.5,0,1.1,0,1.6,0c0.6,0,0.9-0.3,1-0.9c0-1.1,0-2.1,0-3.2c0-0.6-0.3-0.9-0.9-0.9
		c-0.4,0-0.8,0-1.2,0c-0.8,0-0.8,0-1.1-0.7c-0.1-0.1-0.1-0.3-0.2-0.4c-0.1-0.2-0.1-0.3,0.1-0.5c0.6-0.2,1-0.6,1.4-1s0.4-0.9,0-1.3
		c-0.7-0.7-1.5-1.5-2.2-2.2c-0.4-0.4-0.9-0.4-1.3,0c-0.3,0.3-0.5,0.5-0.8,0.8c-0.6,0.6-0.6,0.6-1.3,0.3C22.9,3.1,22.8,3,22.7,3
		c-0.2,0-0.3-0.2-0.3-0.4c0-0.5,0-1,0-1.5S22.2,0.2,21.7,0c-1.2,0-2.4,0-3.7,0c-0.5,0.2-0.7,0.6-0.7,1.1c0,0.3,0,0.7,0,1
		c0,0.8,0,0.8-0.7,1.1c-0.1,0-0.2,0.1-0.3,0.1c-0.2,0.1-0.4,0.1-0.6-0.1c-0.4-0.4-0.7-0.8-1.1-1.1c-0.4-0.4-0.9-0.4-1.3,0
		c-0.7,0.7-1.5,1.5-2.2,2.2c-0.4,0.4-0.4,0.9,0,1.3c0.3,0.3,0.5,0.6,0.8,0.8c0.5,0.4,0.6,0.7,0.2,1.3C12,7.8,12,7.9,12,8
		c-0.1,0.3-0.2,0.4-0.5,0.3c-0.5,0-1,0-1.6,0c-0.7,0-1,0.3-1,1c0,1,0,2,0,3C9.1,13,9.4,13.3,10,13.3z M11,10c0.5,0,1,0,1.4,0
		c0.5,0,0.8-0.2,1-0.7c0.2-0.7,0.5-1.3,0.8-1.9c0.3-0.5,0.2-0.8-0.2-1.2c-0.3-0.4-0.7-0.7-1.1-1c0-0.2,0-0.3,0.1-0.4
		c0.3-0.3,0.6-0.5,0.8-0.8c0.1-0.1,0.2-0.2,0.4,0c0.3,0.3,0.7,0.7,1,1c0.5,0.4,0.8,0.5,1.3,0.2c0.6-0.3,1.2-0.6,1.8-0.8
		c0.6-0.1,0.8-0.4,0.8-1c0-0.5,0-0.9,0-1.4c0-0.2,0.1-0.3,0.3-0.3c0.4,0,0.7,0,1.1,0c0.2,0,0.3,0.1,0.3,0.3c0,0.5,0,0.9,0,1.4
		c0,0.6,0.2,0.9,0.8,1c0.6,0.2,1.3,0.4,1.8,0.8c0.5,0.2,0.8,0.2,1.2-0.2c0.3-0.3,0.7-0.7,1-1c0.1-0.1,0.2-0.1,0.3,0
		c0.3,0.3,0.6,0.6,0.9,0.9c0.1,0.1,0.1,0.2,0,0.3c-0.3,0.3-0.7,0.7-1,1c-0.4,0.5-0.5,0.7-0.2,1.3c0.3,0.5,0.6,1.1,0.8,1.7
		c0.2,0.6,0.4,0.8,1,0.8c0.5,0,0.9,0,1.4,0c0.3,0,0.3,0.1,0.3,0.3c0,0.3,0,0.7,0,1s-0.1,0.3-0.3,0.3c-0.5,0-0.9,0-1.4,0
		c-0.6,0-0.9,0.2-1,0.8c-0.2,0.6-0.4,1.3-0.8,1.8c-0.3,0.5-0.2,0.8,0.2,1.3c0.3,0.3,0.7,0.7,1,1c0.2,0.1,0.2,0.2,0,0.4
		c-0.3,0.2-0.5,0.5-0.8,0.8c-0.2,0.2-0.3,0.2-0.4,0c-0.3-0.4-0.7-0.7-1-1c-0.4-0.4-0.7-0.4-1.2-0.2c-0.6,0.3-1.2,0.6-1.9,0.8
		c-0.5,0.1-0.7,0.4-0.7,1c0,0.5,0,1,0,1.4c0,0.2-0.1,0.3-0.3,0.3c-0.4,0-0.8,0-1.1,0c-0.2,0-0.3-0.1-0.2-0.2c0-0.3,0-0.5,0-0.8
		c0-1.2,0.1-1.5-1.3-1.8c-0.5-0.1-0.9-0.4-1.3-0.6c-0.5-0.3-0.8-0.3-1.3,0.2c-0.3,0.3-0.7,0.7-1,1c-0.1,0.1-0.2,0.2-0.4,0
		c-0.3-0.3-0.5-0.5-0.8-0.8c-0.2-0.2-0.1-0.3,0-0.4c0.3-0.3,0.7-0.7,1-1c0.4-0.4,0.5-0.7,0.2-1.2c-0.3-0.6-0.6-1.2-0.8-1.9
		c-0.1-0.5-0.4-0.7-1-0.7c-0.5,0-1,0-1.4,0c-0.2,0-0.3-0.1-0.3-0.3c0-0.4,0-0.7,0-1.1C10.7,10,10.8,10,11,10z"/>
	<path class="st0" d="M15.7,21.9c0-0.2-0.1-0.3-0.3-0.3c-0.4,0-0.7,0-1.1,0c-0.2,0-0.3,0.1-0.3,0.3c0,0.7,0,1.5,0,2.2l0,0
		c0,0.7,0,1.5,0,2.2c0,0.2,0,0.3,0.3,0.3c0.4,0,0.8,0,1.1,0c0.2,0,0.3,0,0.3-0.3C15.7,24.9,15.7,23.4,15.7,21.9z"/>
	<path class="st0" d="M25.5,21.7c-0.3,0-0.7,0-1,0s-0.4,0.1-0.4,0.4c0,0.7,0,1.4,0,2.1s0,1.5,0,2.2c0,0.2,0,0.3,0.3,0.3
		c0.4,0,0.8,0,1.1,0c0.2,0,0.3,0,0.3-0.3c0-1.5,0-3,0-4.5C25.7,21.7,25.6,21.7,25.5,21.7z"/>
	<path class="st0" d="M20.4,23.3c-0.3,0-0.7,0-1,0S19,23.4,19,23.6c0,0.7,0,1.4,0,2.1l0,0c0,0.7,0,1.5,0,2.2c0,0.2,0,0.3,0.3,0.3
		c0.4,0,0.7,0,1.1,0c0.3,0,0.3-0.1,0.3-0.3c0-1.5,0-2.9,0-4.4C20.7,23.4,20.7,23.3,20.4,23.3z"/>
	<path class="st0" d="M14.9,28.3c-0.8,0-0.8,0-0.8,0.8s0,0.8,0.8,0.8l0,0c0.8,0,0.8,0,0.8-0.8S15.7,28.3,14.9,28.3z"/>
	<path class="st0" d="M24.9,28.3c-0.8,0-0.8,0-0.8,0.8c0,0.9,0,0.9,0.8,0.9s0.8,0,0.8-0.8C25.7,28.3,25.7,28.3,24.9,28.3z"/>
	<path class="st0" d="M19.9,30c-0.8,0-0.8,0-0.8,0.8c0,0.9,0,0.9,0.9,0.9c0.8,0,0.8,0,0.8-0.8C20.7,30,20.7,30,19.9,30z"/>
	<path class="st0" d="M19.9,14.2c1.8,0,3.3-1.5,3.3-3.3s-1.5-3.3-3.3-3.3s-3.3,1.5-3.3,3.3C16.6,12.6,18.1,14.1,19.9,14.2z
		 M19.9,9.2c0.9,0,1.7,0.8,1.7,1.7s-0.8,1.7-1.7,1.7c-0.9,0-1.7-0.8-1.7-1.7C18.2,9.9,19,9.2,19.9,9.2z"/>
</g>
</svg>
