<?xml version="1.0" encoding="utf-8"?>
<!-- Generator: Adobe Illustrator 23.0.1, SVG Export Plug-In . SVG Version: 6.00 Build 0)  -->
<svg version="1.1" id="Layer_1" xmlns="http://www.w3.org/2000/svg" xmlns:xlink="http://www.w3.org/1999/xlink" x="0px" y="0px"
	 viewBox="0 0 40 40" style="enable-background:new 0 0 40 40;" xml:space="preserve">
<style type="text/css">
	.st0{fill:#3A3A3A;}
</style>
<g>
	<path class="st0" d="M39.7,25.5c-0.5-0.8-2-1.8-4.7-0.5c0-0.5-0.2-0.8-0.4-1c-0.9-1-2.7-0.8-4.1,0c0-0.3-0.1-0.6-0.3-0.9
		c-1.1-1.4-3.8-0.3-5.9,1.1l-4.4,2.6c-0.5-0.1-1-0.3-1.5-0.5c-0.7-0.3-1.6-1-2.1-1.5l-0.1-0.1c-0.6-0.6-1.1-1.1-2-1.5
		c-0.3-0.2-3-1.4-6.6,0.1l-7.2,3.3c-0.3,0.1-0.4,0.5-0.3,0.8c0.1,0.3,0.5,0.4,0.8,0.3l7.2-3.3c1.4-0.6,2.7-0.7,4-0.6
		c1,0.1,1.6,0.4,1.6,0.4l0,0c0.7,0.3,1,0.7,1.6,1.2l0.1,0.1c0.6,0.6,1.6,1.4,2.5,1.8c1.8,0.8,3.5,0.9,5.2,1c0.8,0,1.6,0.2,2.2,0.5
		c1.4,0.6,1.9,1.2,1.9,1.6c-0.1,0.3-0.7,0.8-2,0.9c-3.8,0.4-7.2,0.2-11-0.8c-0.3-0.1-0.7,0.1-0.7,0.5c-0.1,0.3,0.1,0.7,0.5,0.7
		c2.7,0.7,5.2,1,7.9,1c1.2,0,2.3-0.1,3.5-0.2c1.8-0.2,3-0.9,3.1-1.9l5.4-3.5c0,0,0,0,0,0l1.7-1.1c1.9-1,2.9-0.4,3.1,0
		c0.5,0.9-0.4,1.9-0.9,2.2l-0.4,0.2c-1.1,0.7-4.1,2.7-4.9,3.2c-3.9,2.7-7.2,4.7-10.2,6.5c-0.9,0.5-2.2,0.6-3.1,0.1l-8.7-4.6
		c-0.9-0.5-2-0.4-2.8,0.2l-3.3,2.3c-0.3,0.2-0.4,0.6-0.2,0.9c0.2,0.3,0.6,0.4,0.9,0.2L8.3,35c0.5-0.3,1-0.3,1.5-0.1l8.7,4.6
		c0.6,0.3,1.3,0.5,2,0.5c0.8,0,1.6-0.2,2.3-0.6c3.1-1.8,6.3-3.8,10.3-6.5c0.8-0.5,3.9-2.5,4.9-3.2l0.4-0.2
		C39.5,28.8,40.6,27.1,39.7,25.5z M23.1,27.3c-0.5,0-0.9,0-1.3-0.1l3.1-1.9l0,0c2.7-1.7,4.1-1.6,4.3-1.3c0.1,0.2,0,0.8-0.8,1.6
		l-3,2.2C24.7,27.4,23.9,27.3,23.1,27.3z M33.1,26.3l-5,3.2c-0.3-0.4-0.7-0.8-1.4-1.2l4.1-2.9c1.4-1,2.6-0.9,2.9-0.5
		C33.9,25.1,33.6,25.7,33.1,26.3z"/>
	<path class="st0" d="M10.3,14c0.4,1.1,1,2.1,1.7,2.9c0.5,0.5,1.3,0.7,1.9,0.3l1.3-0.7c0.6,0.5,1.2,0.8,1.9,1.1v1.5
		c0,0.7,0.5,1.4,1.2,1.5c0.6,0.1,1.1,0.1,1.7,0.1c0.6,0,1.1,0,1.7-0.1c0.7-0.1,1.2-0.7,1.2-1.5v-1.5c0.7-0.3,1.3-0.6,1.9-1.1
		l1.3,0.7c0.6,0.4,1.4,0.2,1.9-0.3c0.7-0.9,1.3-1.9,1.7-2.9c0.2-0.7,0-1.4-0.7-1.8l-1.3-0.7c0.1-0.4,0.1-0.7,0.1-1.1s0-0.7-0.1-1.1
		L29,8.5c0.6-0.4,0.9-1.2,0.7-1.8c-0.5-1.2-1.1-2.2-1.7-2.9c-0.5-0.5-1.3-0.6-1.9-0.3l-1.3,0.7c-0.6-0.5-1.2-0.8-1.9-1.1V1.6
		c0-0.7-0.5-1.4-1.2-1.5c-1.3-0.2-2.4-0.2-3.4,0c-0.7,0.1-1.2,0.8-1.2,1.5v1.5c-0.7,0.3-1.3,0.6-1.9,1.1l-1.3-0.7
		c-0.6-0.4-1.5-0.2-1.9,0.3c-0.8,1-1.4,2-1.7,2.9c-0.2,0.7,0.1,1.4,0.7,1.8l1.3,0.7c-0.1,0.4-0.1,0.7-0.1,1.1c0,0.4,0,0.7,0.1,1.1
		L11,12.2C10.4,12.6,10.1,13.3,10.3,14z M11.7,13.3l2.1-1.2l-0.1-0.5c-0.1-0.4-0.1-0.9-0.1-1.3c0-0.4,0-0.9,0.1-1.3l0.1-0.5
		l-2.1-1.2c-0.1-0.1-0.1-0.2-0.1-0.2c0.3-0.8,0.7-1.6,1.5-2.5c0,0,0.1-0.1,0.2,0l2.1,1.2l0.4-0.3c0.7-0.6,1.4-1,2.3-1.3l0.4-0.1V1.6
		c0-0.1,0.1-0.2,0.2-0.2c0.8-0.2,1.8-0.2,2.9,0c0,0,0.1,0.1,0.1,0.2v2.4L22,4.2c0.8,0.3,1.6,0.7,2.3,1.3l0.4,0.3l2.1-1.2
		c0.1-0.1,0.2,0,0.3,0c0.5,0.6,1,1.5,1.5,2.5c0,0,0,0.1-0.1,0.2l-2.1,1.2L26.3,9c0.1,0.4,0.1,0.9,0.1,1.3s0,0.9-0.1,1.3l-0.1,0.5
		l2.1,1.2c0.1,0.1,0.1,0.2,0.1,0.2c-0.3,0.9-0.8,1.8-1.5,2.5c0,0-0.1,0.1-0.2,0l-2.1-1.2l-0.4,0.3c-0.7,0.6-1.4,1-2.3,1.3l-0.4,0.1
		v2.4c0,0.1-0.1,0.2-0.1,0.2c-1,0.2-2,0.2-2.9,0c-0.1,0-0.1-0.1-0.1-0.2v-2.4L18,16.5c-0.8-0.3-1.6-0.7-2.3-1.3l-0.4-0.3l-2.1,1.2
		c-0.1,0.1-0.2,0-0.2,0c-0.6-0.8-1.1-1.6-1.5-2.5C11.5,13.5,11.6,13.4,11.7,13.3z"/>
	<path class="st0" d="M20,14.3c2.2,0,3.9-1.8,3.9-3.9S22.2,6.4,20,6.4s-3.9,1.8-3.9,3.9S17.8,14.3,20,14.3z M20,7.7
		c1.4,0,2.6,1.2,2.6,2.6c0,1.4-1.2,2.6-2.6,2.6s-2.6-1.2-2.6-2.6C17.4,8.9,18.6,7.7,20,7.7z"/>
</g>
</svg>
