<?xml version="1.0" encoding="utf-8"?>
<!-- Generator: Adobe Illustrator 23.0.1, SVG Export Plug-In . SVG Version: 6.00 Build 0)  -->
<svg version="1.1" id="Layer_1" xmlns="http://www.w3.org/2000/svg" xmlns:xlink="http://www.w3.org/1999/xlink" x="0px" y="0px"
	 viewBox="0 0 40 40" style="enable-background:new 0 0 40 40;" xml:space="preserve">
<style type="text/css">
	.st0{fill:#2C2F33;}
</style>
<g>
	<path class="st0" d="M35.4,0L4.6,0C2.1,0,0,2.1,0,4.6l0,30.8C0,37.9,2.1,40,4.6,40l30.8,0c2.5,0,4.6-2.1,4.6-4.6l0-30.8
		C40,2.1,37.9,0,35.4,0z M38.5,35.4c0,1.7-1.4,3.1-3.1,3.1l-30.8,0c-1.7,0-3.1-1.4-3.1-3.1l0-30.8c0-1.7,1.4-3.1,3.1-3.1l30.8,0
		c1.7,0,3.1,1.4,3.1,3.1L38.5,35.4z"/>
	<path class="st0" d="M30.1,8.9l-7.9,0c-0.4,0-0.7,0.3-0.7,0.7l0,4.2c0,0.4,0.3,0.7,0.7,0.7l8,0c0.4,0,0.7-0.3,0.7-0.7l0-4.2
		C30.8,9.2,30.5,8.9,30.1,8.9z"/>
	<path class="st0" d="M25.3,19.5c0,0.2,0.2,0.4,0.4,0.4l1.1,0c0.2,0,0.4-0.2,0.4-0.4l0-1.1c0-0.2-0.2-0.4-0.4-0.4l-1.1,0
		c-0.2,0-0.4,0.2-0.4,0.4L25.3,19.5z"/>
	<path class="st0" d="M25.7,17.4l1.1,0c0.2,0,0.4-0.2,0.4-0.4l0-1.1c0-0.3-0.2-0.4-0.4-0.4l-1.1,0c-0.2,0-0.4,0.2-0.4,0.4l0,1.1
		C25.3,17.2,25.5,17.4,25.7,17.4z"/>
	<path class="st0" d="M30.9,18.4c0-0.2-0.2-0.4-0.4-0.4l-1.1,0c-0.2,0-0.4,0.2-0.4,0.4l0,1.1c0,0.2,0.2,0.4,0.4,0.4l1.1,0
		c0.2,0,0.4-0.2,0.4-0.4L30.9,18.4z"/>
	<path class="st0" d="M30.9,15.8c0-0.3-0.2-0.4-0.4-0.4l-1.1,0c-0.2,0-0.4,0.2-0.4,0.4l0,1.1c0,0.2,0.2,0.4,0.4,0.4l1.1,0
		c0.2,0,0.4-0.2,0.4-0.4L30.9,15.8z"/>
	<path class="st0" d="M30.4,20.6l-1.1,0c-0.2,0-0.4,0.2-0.4,0.4l0,1.1c0,0.2,0.2,0.4,0.4,0.4l1.1,0c0.2,0,0.4-0.2,0.4-0.4l0-1.1
		C30.9,20.8,30.7,20.6,30.4,20.6z"/>
	<path class="st0" d="M16,19.8c-3.4,0-5.9,0-7.4,0c-0.1,0-0.1,0-0.2,0c0,0.2,0,0.3,0,0.4c0,0.4,0,0.4,0.4,0.4c1.5,0,3.9,0,7.3,0
		c0.2,0,0.2,0,0.2-0.2c0-0.1,0-0.3,0-0.4C16.2,19.8,16.2,19.8,16,19.8z"/>
	<path class="st0" d="M16,12.8c-2.2,0-3.4,0-3.7,0c-0.3,0-0.6,0-0.9,0c-1,0-1.9,0-2.8,0c-0.2,0-0.2,0-0.2,0.2c0,0.1,0,0.3,0,0.4
		c0,0.2,0,0.2,0.2,0.2c0.7,0,1.3,0,2,0c0.9,0,2.7,0,5.5,0c0.2,0,0.2,0,0.2-0.2c0-0.1,0-0.3,0-0.4C16.3,12.8,16.2,12.8,16,12.8z"/>
	<path class="st0" d="M16.1,17.6c-2.2,0-3.3,0-3.6,0c-1.3,0-2.6,0-3.9,0c-0.2,0-0.2,0-0.2,0.2c0,0.1,0,0.3,0,0.4
		c0,0.2,0,0.2,0.2,0.2c1.2,0,2.5,0,3.7,0c0.3,0,1.5,0,3.7,0c0.2,0,0.2,0,0.2-0.2c0-0.1,0-0.2,0-0.3C16.3,17.6,16.2,17.6,16.1,17.6z"
		/>
	<path class="st0" d="M8.6,15.9c0.2,0,0.4,0,0.6,0c1.4,0,3.7,0,7,0c0.1,0,0.2,0,0.2-0.2c0-0.2,0-0.3,0-0.5c0-0.2-0.1-0.2-0.2-0.2
		c-2.2,0-3.4,0-3.7,0c-1,0-2,0-2.9,0c-0.3,0-0.6,0-0.9,0c-0.1,0-0.2,0-0.2,0.2c0,0.2,0,0.3,0,0.5C8.4,15.9,8.4,16,8.6,15.9z"/>
	<path class="st0" d="M8.5,11.4c0.9,0,2.7,0,5.5,0c0.7,0,1.3,0,2,0c0.2,0,0.2,0,0.2-0.2c0-0.1,0-0.2,0-0.3c0-0.2,0-0.2-0.2-0.2
		c-2.2,0-3.4,0-3.7,0c-1.3,0-2.5,0-3.7,0c-0.2,0-0.2,0-0.2,0.2c0,0.2,0,0.3,0,0.4C8.3,11.3,8.4,11.4,8.5,11.4z"/>
	<path class="st0" d="M34.1,8.5l-0.3,0l0,15.1l0.3,0c0.4,0,0.7-0.3,0.7-0.7l0-13.7C34.9,8.8,34.6,8.5,34.1,8.5z"/>
	<path class="st0" d="M31,25.4c0-0.6-0.3-1.1-0.9-1.2c-0.2-0.1-0.3-0.1-0.5,0c-0.2,0-0.3,0.1-0.5,0.4c-0.2-0.6-0.5-1-1.1-1.1
		c-0.5-0.2-1-0.1-1.4,0.4c-0.2-0.5-0.5-0.9-1.1-1c-0.5-0.1-1-0.1-1.5,0.3c0-0.1,0-0.2,0-0.3c0-1,0-2.1,0-3.1c0-0.4,0-0.8,0-1.2
		c0-0.3,0-0.7,0-1.1c0-0.5-0.3-0.8-0.8-1c0,0-0.6-0.1-1,0.2C22,17,22,17.3,22,17.7c0,0.5-0.3,7.2-0.4,8c0,0.2,0,0.2-0.2,0.3
		c-0.8,0.2-1.2,0.7-1.3,1.5c-0.1,0.9,0.1,1.7,0.3,2.6c0.1,0.4,0.2,0.8,0.4,1.2c0.2,0.4,0.4,0.7,0.7,1c0.5,0.5,0.8,0.9,1.3,1.4
		c0.1,0.1,0.2,0.1,0.3,0.1c1.2,0,2.3,0,3.5,0c0.9,0,1.8,0,2.7,0c0.1,0,0.2-0.1,0.2-0.1c0.8-0.8,1.3-1.8,1.6-3
		c0.1-0.4,0.1-0.7,0.2-1.1c0,0,0-0.1,0-0.1c0-0.6,0-1.2,0-1.8c0-0.1,0-0.2-0.2-0.3C31,26.6,31,26,31,25.4z"/>
	<path class="st0" d="M25.2,21.9c0.2,0,0.4,0.1,0.6,0.1c0.4,0.1,0.9,0.3,1.2,0.6c0.2,0,0.4-0.2,0.4-0.4l0-1.1c0-0.2-0.3-0.5-0.6-0.5
		l-1.1,0c-0.2,0-0.6,0.2-0.6,0.5L25.2,21.9z"/>
	<path class="st0" d="M22.1,15.4c-0.2,0-0.6,0.1-0.6,0.3l0,0.6c0,0,0.1,0,0.2,0c0.3-0.3,0.8-0.5,1-0.5l0.2-0.1l0.6,0l0.2,0.1
		c0-0.2-0.2-0.4-0.4-0.4L22.1,15.4z"/>
	<path class="st0" d="M33.3,6.7c-0.2-0.3-0.4-0.4-0.7-0.4c-2.8,0-5.7,0-8.5,0c-1.1,0-2.2,0.1-3.3,0.5c-0.5,0.2-1,0.4-1.4,0.8
		c-0.2,0.2-0.2,0.2-0.3,0c-0.3-0.3-0.6-0.5-1-0.7c-0.5-0.2-1-0.4-1.5-0.5c-0.5-0.1-1-0.1-1.4-0.2c-0.4,0-0.8,0-1.3,0
		c-2.7,0-5.3,0-8,0c-0.1,0-0.2,0-0.3,0C5.3,6.4,5.1,6.7,5.1,7c0,2.8,0,5.7,0,8.5c0,2.8,0,5.7,0,8.5c0,0.5,0.3,0.8,0.8,0.8
		c2,0,4,0,6,0c0.7,0,1.5,0,2.3,0c0.7,0,1.4,0.1,2,0.2c0.7,0.1,1.3,0.3,2,0.7c0.2,0.1,0.4,0.2,0.7,0.2c0,0,0.1,0,0.2,0
		c0.2,0,0.4,0,0.7,0c0.3-0.4,0.6-0.7,1-0.9c0-0.1,0-0.5,0-0.9c-0.2,0.1-0.4,0.2-0.7,0.3c-0.2,0.1-0.2,0-0.2-0.2c0-1.8,0-3.7,0-5.5
		c0-3.2,0-6.3,0-9.5c0-0.3,0.1-0.5,0.3-0.7c0.4-0.4,1-0.7,1.6-0.8c1-0.3,2-0.2,3-0.2c2.2,0,4.3,0,6.5,0c0.2,0,0.3,0,0.5,0
		c0.2,0,0.2,0,0.2,0.2c0,2,0,4,0,5.9c0,0.6,0,1.2,0,1.8c0,2.6,0,5.1,0,7.7c0,0.2,0,0.2-0.2,0.2c-0.3,0-0.6,0-0.9,0
		c0.5,0.3,0.8,0.8,1,1.3c0.3,0,0.5,0,0.8,0c0.4,0,0.7-0.3,0.7-0.7c-0.1-5.6-0.1-11.3-0.1-17C33.4,6.9,33.3,6.8,33.3,6.7z M18.4,24.4
		c-0.4-0.2-0.8-0.3-1.3-0.4c-0.7-0.2-1.3-0.3-2-0.3c-0.5,0-1,0-1.4,0c-2.2,0-4.5,0-6.7,0c-0.1,0-0.3,0-0.4,0c0,0-0.1-0.1-0.2-0.1
		c0,0,0-0.1,0-0.1c0-2.6,0-5.1,0-7.7c0-2.6,0-5.1,0-7.7c0-0.2,0-0.2,0.2-0.2c1.7,0,3.4,0,5.2,0c1,0,2.1,0,3.2,0
		c0.8,0,1.6,0.1,2.3,0.4c0.4,0.2,0.8,0.4,1,0.7c0.1,0.1,0.2,0.3,0.2,0.5c0,0.5,0,1,0,1.5c0,2.3,0,4.6,0,6.9c0,2.2,0,4.4,0,6.6
		C18.6,24.4,18.5,24.4,18.4,24.4z"/>
</g>
</svg>
