<?xml version="1.0" encoding="utf-8"?>
<!-- Generator: Adobe Illustrator 23.0.1, SVG Export Plug-In . SVG Version: 6.00 Build 0)  -->
<svg version="1.1" id="Layer_1" xmlns="http://www.w3.org/2000/svg" xmlns:xlink="http://www.w3.org/1999/xlink" x="0px" y="0px"
	 viewBox="0 0 40 40" style="enable-background:new 0 0 40 40;" xml:space="preserve">
<style type="text/css">
	.st0{fill:#2C2F33;}
</style>
<g>
	<path class="st0" d="M0.4,15.8c0.4,1.2,1.1,2.3,1.9,3.3c0.5,0.6,1.4,0.8,2.1,0.3l1.5-0.9c0.7,0.5,1.4,0.9,2.2,1.3v1.7
		c0,0.8,0.6,1.5,1.4,1.7c0.6,0.1,1.3,0.2,1.9,0.2c0.6,0,1.3-0.1,1.9-0.2c0.8-0.1,1.4-0.8,1.4-1.7v-1.7c0.8-0.3,1.5-0.7,2.2-1.3
		l1.5,0.9c0.7,0.4,1.6,0.3,2.1-0.3c0.8-1,1.5-2.1,1.9-3.3c0.3-0.7,0-1.6-0.8-2L20.1,13c0.1-0.4,0.1-0.8,0.1-1.3c0-0.4,0-0.8-0.1-1.3
		l1.5-0.9c0.7-0.4,1.1-1.3,0.8-2c-0.6-1.4-1.2-2.5-1.9-3.3c-0.5-0.6-1.4-0.7-2.1-0.3l-1.5,0.9c-0.7-0.5-1.4-0.9-2.2-1.3V1.8
		c0-0.8-0.6-1.6-1.4-1.7c-1.5-0.2-2.8-0.2-3.8,0C8.7,0.3,8.1,1,8.1,1.8v1.7C7.3,3.8,6.6,4.3,5.9,4.8L4.4,3.9
		C3.7,3.5,2.8,3.7,2.3,4.3C1.4,5.5,0.7,6.6,0.4,7.6c-0.2,0.7,0.1,1.6,0.8,2l1.5,0.9c-0.1,0.4-0.1,0.8-0.1,1.3s0,0.8,0.1,1.3
		l-1.5,0.9C0.5,14.2,0.1,15.1,0.4,15.8z M1.9,15.1l2.4-1.4l-0.1-0.5C4,12.7,4,12.2,4,11.7c0-0.5,0.1-1,0.1-1.5l0.1-0.5L1.9,8.4
		C1.8,8.3,1.7,8.2,1.8,8.1C2,7.2,2.6,6.2,3.4,5.2c0-0.1,0.2-0.1,0.3,0l2.4,1.4l0.4-0.3C7.2,5.5,8.1,5,9,4.7l0.5-0.2V1.8
		c0-0.1,0.1-0.2,0.2-0.3c0.9-0.2,2-0.2,3.3,0c0.1,0,0.1,0.1,0.1,0.3v2.7l0.5,0.2c1,0.3,1.8,0.8,2.6,1.5l0.4,0.3L19,5.2
		c0.1-0.1,0.2-0.1,0.3,0c0.6,0.7,1.2,1.7,1.7,2.9c0,0.1,0,0.2-0.1,0.3l-2.4,1.4l0.1,0.5c0.1,0.5,0.1,1,0.1,1.5c0,0.5-0.1,1-0.1,1.5
		l-0.1,0.5l2.4,1.4c0.1,0.1,0.2,0.2,0.1,0.3c-0.4,1.1-1,2-1.7,2.9c-0.1,0.1-0.2,0.1-0.3,0l-2.4-1.4l-0.4,0.3
		c-0.8,0.7-1.6,1.2-2.6,1.5l-0.5,0.2v2.7c0,0.1-0.1,0.2-0.2,0.3c-1.1,0.2-2.2,0.2-3.3,0c-0.1,0-0.2-0.1-0.2-0.3v-2.7L9,18.7
		c-1-0.3-1.8-0.8-2.6-1.5l-0.4-0.3l-2.4,1.4c-0.1,0.1-0.3,0-0.3,0c-0.7-0.9-1.3-1.8-1.7-2.9C1.7,15.3,1.8,15.1,1.9,15.1z"/>
	<path class="st0" d="M11.4,16.1c2.4,0,4.4-2,4.4-4.4s-2-4.4-4.4-4.4S7,9.3,7,11.7S8.9,16.1,11.4,16.1z M11.4,8.7c1.6,0,3,1.3,3,3
		s-1.3,3-3,3s-3-1.3-3-3S9.7,8.7,11.4,8.7z"/>
	<path class="st0" d="M39,27.6c-0.5-0.3-1.1-0.7-1.7-1c-0.2-0.1-0.3-0.3-0.4-0.5c-0.3-1.1-0.5-2.2-0.8-3.4c-0.1-0.5-0.3-1.1-0.4-1.6
		c-0.4-1.8-1.6-2.7-3.4-2.7c-1.9,0-3.9,0-5.8,0c-0.1,0-0.3,0-0.5,0c0-0.3,0-0.6,0-0.9c0-0.7-0.3-0.9-0.9-0.9c-0.6,0-1.2,0-1.8,0
		c-0.2,0.5-0.5,1.1-0.8,1.6c0.7,0,1.3,0,2,0c0,3.8,0,7.6,0,11.5c-7.5,0-15,0-22.5,0c0-3.1,0-6.2,0-9.3c-0.2-0.1-0.3-0.3-0.5-0.4
		c-0.4-0.5-0.8-1-1.1-1.6c0,5.9,0,11.8,0,17.7c0,0.6,0.3,0.9,0.9,0.9c0.6,0,1.3,0,1.9,0c0.3,0,0.5,0.1,0.6,0.4
		c0.5,1.5,1.5,2.4,3.1,2.7c1.5,0.2,2.8-0.3,3.7-1.5c0.3-0.5,0.5-1,0.8-1.5c0,0,0,0,0.1,0c5.1,0,10.3,0,15.4,0c0.3,0,0.3,0.1,0.4,0.3
		c0.5,1.7,2,2.8,3.7,2.8c1.7,0,3.2-1.1,3.8-2.8c0.1-0.3,0.2-0.3,0.5-0.3c1.1,0,2.2,0,3.3,0c0.5,0,0.8-0.1,1.1-0.6c0-2.7,0-5.4,0-8.1
		C39.5,28,39.2,27.8,39,27.6z M9.8,36.2c-0.1,1.3-1.2,2.3-2.4,2.3C6.1,38.4,5,37.3,5.1,36c0.1-1.3,1.2-2.4,2.4-2.3
		C8.9,33.8,9.9,34.9,9.8,36.2z M24.4,35.3c-4.4,0-8.7,0-13.1,0c-0.6-1.9-1.8-3.1-3.9-3.1c-2,0-3.3,1.2-3.8,3.1c-0.6,0-1.1,0-1.7,0
		c0-1.3,0-2.7,0-4c7.5,0,15,0,22.5,0c0,0.4,0,0.8,0,1.2c-0.1,0-0.3,0-0.4,0c-2.1,0-4.2,0-6.2,0c-0.1,0-0.2,0-0.3,0
		c-0.5,0-0.8,0.4-0.8,0.8c0,0.4,0.3,0.7,0.8,0.8c0.1,0,0.2,0,0.3,0c2.1,0,4.2,0,6.2,0c0.1,0,0.3,0,0.5,0
		C24.4,34.5,24.4,34.9,24.4,35.3z M30.6,20c0.8,0,1.5-0.1,2.3,0c0.7,0.1,1.1,0.6,1.3,1.2c0.4,1.6,0.7,3.1,1.1,4.7c0,0.1,0,0.1,0,0.2
		c-1.6,0-3.1,0-4.7,0C30.6,24.1,30.6,22.1,30.6,20z M31.1,38.4c-1.3,0-2.4-1.1-2.4-2.3c0-1.3,1-2.4,2.3-2.4c1.3,0,2.3,1.1,2.3,2.3
		C33.4,37.4,32.4,38.4,31.1,38.4z M38.1,29.2c-0.3,0-0.5,0-0.8,0c-0.4,0-0.9,0-1.3,0c-0.6,0-0.9,0.3-0.9,0.9c0,0.7,0,1.4,0,2.1
		c0,0.6,0.3,0.9,0.9,0.9c0.7,0,1.4,0,2.1,0c0,0.7,0,1.4,0,2.2c-1,0-2,0-3,0c-0.1,0-0.2-0.2-0.2-0.3c-0.4-1.2-1.1-2-2.2-2.5
		c-2-0.9-4.6,0.2-5.2,2.3c-0.1,0.4-0.3,0.6-0.7,0.5c-0.2,0-0.4,0-0.6,0c0-5.1,0-10.2,0-15.3c1,0,1.9,0,3,0c0,0.1,0,0.3,0,0.4
		c0,2.1,0,4.1,0,6.2c0,0.9,0.3,1.1,1.1,1.1c1.9,0,3.8,0,5.7,0c0.2,0,0.4,0.1,0.6,0.2c0.5,0.3,1,0.6,1.5,0.9c0.1,0.1,0.2,0.2,0.3,0.3
		C38.1,29.1,38.1,29.1,38.1,29.2z M37.4,31.6c-0.3,0-0.5,0-0.8,0c0-0.3,0-0.5,0-0.8c0.5,0,0.9,0,1.4,0c0,0,0.1,0,0.1,0.1
		C38.2,31.6,38.2,31.6,37.4,31.6z"/>
</g>
</svg>
